<svg xmlns="http://www.w3.org/2000/svg" width="190.221" height="93.16" viewBox="0 0 50.329 24.649"><defs><clipPath id="c" clipPathUnits="userSpaceOnUse"><path d="M1458 6096h325v-209h-325z"/></clipPath><clipPath id="b" clipPathUnits="userSpaceOnUse"><path d="M1460 6337h308v-427h-308z"/></clipPath><clipPath id="a" clipPathUnits="userSpaceOnUse"><path d="M1071 5835h54v-74h-54z"/></clipPath></defs><path d="M.979 23.246h.847l-.424-1.27zm.17-1.778h.507l1.059 3.006h-.55l-.212-.804H.852l-.254.804H.132l1.016-3.006M7.117 21.468h.466v2.54H8.98v.466H7.117v-3.006M14.145 23.246h.804l-.423-1.27zm.169-1.778h.466l1.058 3.006h-.508l-.254-.804h-1.058l-.297.804h-.465l1.058-3.006" fill="#a91b2d"/><g clip-path="url(#a)" transform="matrix(.04233 0 0 -.04233 -25.268 268.399)"><path d="M1082 5786c0-3 0-5 1-7s2-3 3-5c2-1 4-2 6-2 2-1 4-1 6-1s4 0 6 1 3 1 4 2 2 2 3 4c0 1 1 2 1 4s-1 4-2 6c-1 1-2 2-4 2-2 1-5 2-8 3s-7 2-11 3c-3 1-5 2-7 3-2 2-3 3-4 5-1 1-2 3-2 5-1 1-1 3-1 5 0 4 1 7 2 9 1 3 3 5 5 7s5 3 8 4c3 0 5 1 8 1 4 0 7-1 10-2 3 0 5-2 8-4 2-2 4-4 5-7s2-6 2-10h-11c-1 5-2 8-5 10-2 2-5 3-9 3-1 0-3 0-4-1-2 0-3 0-4-1l-3-3c0-1-1-3-1-4 0-3 1-5 2-6 2-2 3-3 6-4h3c1-1 3-1 5-2s4-1 6-2c2 0 3-1 4-1l6-3c1-1 2-3 4-4 1-2 1-4 2-5 0-2 1-4 1-6 0-4-1-7-3-10-1-3-3-5-5-7-3-2-5-3-9-4-2-1-6-1-9-1s-7 0-10 1-6 3-9 5c-2 2-4 4-5 8-2 3-2 7-2 11h11" fill="#a91b2d"/></g><path d="M26.802 21.468h.508v1.355l1.186-1.355h.592l-1.058 1.186 1.143 1.82h-.593l-.889-1.44-.38.424v1.016h-.509v-3.006M34.295 23.246h.847l-.423-1.27zm.17-1.778h.508l1.058 3.006h-.508l-.254-.804h-1.1l-.255.804h-.465l1.016-3.006" fill="#a91b2d"/><g clip-path="url(#b)" transform="matrix(.04233 0 0 -.04233 -25.268 268.399)"><path d="M1607 6338c22-19 62-117-32-272-34-56-84-126-113-151-2-2-1-3 5 1 29 17 188 148 224 202 20 32 75 118 8 174-47 39-92 46-92 46" fill="#a91b2d"/></g><g clip-path="url(#c)" transform="matrix(.04233 0 0 -.04233 -25.268 268.399)"><path d="M1729 6092c-1-37-59-108-164-156-51-23-92-40-100-43-7-3-4-4 3-3 19 2 69 12 90 18 64 15 172 42 212 83 28 30 2 66-7 75-8 9-34 30-34 26" fill="#a91b2d"/></g><path d="M48.138 18.082c-.127-.17-.211 1.65-5.503 1.693-3.048 0-5.546-.17-5.969-.127-.085.042-.17.085.042.127.424.17 2.329.508 2.964.635 1.481.296 5.969 1.27 7.874.931 1.862-.338 1.354-1.693 1.27-1.905-.212-.508-.55-1.185-.678-1.354" fill="#a91b2d"/><path d="M15.076 17.023c-.127.381-.381.72-.72 1.016-.38.254-.846.466-1.439.466-.381 0-.72-.127-1.016-.381-.254-.254-.423-.593-.423-1.143 0-.423.127-.72.296-.974.296-.38.762-.635 1.312-.804a9.379 9.379 0 011.905-.212h.17v1.524c0 .127-.043.297-.085.508zm1.863.381v-3.429c0-.973-.17-1.905-.678-2.667-.296-.338-.635-.677-1.1-.889-.466-.211-1.059-.338-1.778-.338-1.143 0-2.286.338-3.048.804l-.085.085.466 1.312.084-.085c.635-.423 1.482-.677 2.329-.677h.042c.466 0 .804.085 1.058.212.381.211.593.508.72.846.127.339.17.72.17.974v.085c-1.736 0-3.091.296-4.022.889a2.848 2.848 0 00-1.101 1.143c-.254.423-.381.931-.381 1.524 0 .677.254 1.354.72 1.905.508.508 1.227.846 2.2.846 1.229 0 2.202-.592 2.753-1.27l.127 1.059h1.693v-.127c-.127-.635-.17-1.397-.17-2.202M22.654 15.542c-.254.72-.466 1.439-.678 2.116-.169-.677-.423-1.397-.677-2.116l-1.82-5.25h-1.99l3.556 9.44h1.736l3.64-9.44h-1.947l-1.82 5.25M35.354 12.113c-.297-.762-.805-1.313-1.355-1.609a3.513 3.513 0 00-1.609-.423c-.762 0-1.439.211-1.947.55-.466.296-.804.635-1.016.974l-.085-1.313H27.65v.085c.085.762.085 1.524.085 2.498v6.858h1.862V14.06c0-.254.043-.55.127-.72.127-.465.424-.889.762-1.185.381-.296.847-.508 1.355-.508.381 0 .677.085.931.212.381.211.635.55.805.973.17.424.254.932.254 1.482v5.419h1.862v-5.588c0-.805-.127-1.482-.338-2.032M2.249 7.795a1.88 1.88 0 01.55-.085c.297-.042.635-.042 1.016-.042.89 0 1.609.169 2.117.55.254.212.466.466.593.762.127.254.211.635.211 1.058 0 .72-.254 1.313-.762 1.736-.465.423-1.185.677-2.074.677H2.249zm6.392 10.498c-.127-.635-.338-1.397-.55-2.328-.17-.72-.381-1.312-.72-1.778-.254-.423-.635-.72-1.058-.931.593-.254 1.185-.635 1.609-1.186a3.7 3.7 0 00.72-2.201c0-1.1-.382-2.032-1.059-2.667a4.216 4.216 0 00-1.566-.804C5.382 6.186 4.62 6.1 3.73 6.1c-1.186 0-2.413.127-3.302.297H.344v13.335h1.905v-5.758H3.73c.38 0 .72.043.973.17a1.82 1.82 0 011.016.762c.254.38.424.889.593 1.566.17.804.339 1.524.466 2.074.084.254.127.508.211.678.043.211.127.338.17.465l.042.043h1.99l-.085-.17c-.127-.211-.296-.677-.466-1.27"/></svg>