<svg xmlns="http://www.w3.org/2000/svg" width="400" height="300"><path fill="#EB2023" d="M350.286 157.311l6.653 11.06c2.063 3.313 5.463 4.817 9.697 4.817h17.122l-20.045-24.29-2.844-1.618-7.503 2.448-3.802 5.502.722 2.081z"/><path fill="#E21E28" d="M363.713 148.899l-4.185-5.072-11.058 5.948 1.173 6.005.643 1.531c-.252-4.07 6.734-8.794 13.427-8.412z"/><path fill="#E8E8E8" d="M350.286 157.311l-5.984-9.893c-.721-1.124-.919-2.105-.919-3.249 0-1.258.537-1.948 2.597-3.042 2.4-1.149 7.233-1.649 12.214-1.649 8.094 0 10.035 2.599 10.861 5.402 0 0-1.141-.454-3.83-.454-8.528 0-15.344 4.139-15.344 10.407a8.47 8.47 0 00.405 2.478z"/><path fill="#05AEE9" d="M324.586 115.221h8.047c3.395 0 4.787 1.389 6.16 2.751 1.57 1.429 6.338 7.88 16.414 20.47h-10.905c-4.46 0-5.87-.759-7.595-3.389l-12.121-19.832z"/><g><path fill="#334357" d="M388.768 170.57l.585 2.094h.01l.592-2.094h.495l.383 2.621h-.396l-.27-2.139h-.01l-.613 2.137h-.423l-.595-2.129h-.007l-.272 2.13h-.378l.382-2.622h.52v.002zm-1.233 0v.336h-.772v2.283h-.382v-2.283h-.77v-.338h1.924v.002z"/></g><g><path fill="#334357" d="M198.664 138.46h-.09l-4.58 12.947h9.26l-4.59-12.947zm8.196 23.15l-2.241-6.362h-11.991l-2.247 6.36h-5.12l10.74-28.31h5.705l10.575 28.311h-5.421zm43.449-29.446h5.006v4.732h-5.006v-4.732zm.056 7.882h4.892v21.563h-4.892v-21.563zm-36.134-7.884h5.01v4.734h-5.01v-4.734zm.06 7.884h4.894v21.563h-4.894v-21.563zm30.732-7.855h-4.894v29.418h4.894v-29.418zm-15.598 18.901v10.516h-4.908v-16.022c0-1.539-.177-4.472-.235-5.537h3.95c.43 0 .55.182.564.602.009.637.042 2.671.042 2.671h.112c.385-.932 1.777-3.724 5.843-3.724 1.362 0 2.369.44 2.535.505 0 .93-.098 2.965-.146 3.504-.03.354-.186.47-.361.47-.167 0-.244-.039-.338-.074-.304-.129-1.017-.344-2.006-.344-2.61-.003-5.052 1.882-5.052 7.433m44.57 10.517v-13.926c0-2.659-1.215-4.279-3.493-4.279-3.01 0-5.01 3.204-5.01 7.526v10.68h-4.894v-15.842c0-1.742-.16-4.284-.242-5.718h3.935c.443 0 .569.181.574.581.014.46.05 2.691.05 2.691h.113c.59-1.013 2.097-3.726 6.608-3.726 4.652 0 7.25 3.18 7.25 6.75v15.264h-4.891zm13.543-12.997h9.059c.187-3.476-1.64-5.423-4.392-5.423-2.885 0-4.536 2.085-4.667 5.423m12.075 8.262c.272 0 .352.237.373.481.082.922.163 3.001.149 3.53-.522.166-3.154 1.134-6.688 1.134-6.864 0-10.993-3.55-10.993-11.197 0-6.563 3.52-11.228 9.85-11.228 6.215 0 9.172 4.156 9.172 9.315 0 .606-.067 1.631-.175 2.994h-13.824c0 3.683 2.346 6.323 6.682 6.323 2.389 0 4.288-.855 5.043-1.219.149-.072.236-.133.41-.133m11.463 5.147c6.372 0 9.42-2.605 9.42-6.479 0-3.812-2.708-5.416-5.576-6.363-.824-.265-1.631-.536-2.384-.789-1.962-.65-2.981-1.504-2.981-2.777 0-1.344 1.227-2.285 3.772-2.285 2.265 0 4.114.924 4.849 1.277.123.056.23.134.427.134.154 0 .345-.096.369-.477.05-.722.137-2.033.137-3.292-.595-.272-2.737-1.373-6.183-1.373-5.265 0-8.5 2.738-8.5 6.354 0 3.502 2.397 5.102 5.03 5.976.609.206 1.734.574 2.394.798 2.75.914 3.536 1.742 3.536 3.03 0 1.677-1.79 2.507-4.865 2.507-2.525 0-4.261-.926-4.956-1.252-.141-.063-.225-.136-.422-.136-.362 0-.367.481-.371.562-.015.231-.131 2.466-.131 3.21.574.25 3.076 1.375 6.435 1.375m-288.508-23.56h-.091l-4.583 12.946h9.257l-4.583-12.947zm8.197 23.148l-2.244-6.359H16.529l-2.244 6.36H9.168l10.74-28.314h5.7l10.575 28.313h-5.42zm79.982-29.447h5.006v4.732h-5.006v-4.732zm.059 7.884h4.889v21.563h-4.89v-21.563zm-10.508 11.046v10.516h-4.9v-16.022c0-1.542-.177-4.474-.24-5.54h3.955c.428 0 .554.184.556.601l.05 2.674h.109c.389-.932 1.776-3.724 5.843-3.724 1.357 0 2.374.437 2.542.505 0 .927-.101 2.965-.147 3.506-.032.352-.188.466-.361.466a.764.764 0 01-.34-.07c-.31-.132-1.018-.349-2-.349-2.613 0-5.067 1.886-5.067 7.437M64.15 161.61v-13.797c0-2.484-1.052-4.413-3.59-4.413-2.856 0-4.503 3.126-4.503 7.506v10.704h-4.892V147.77c0-2.26-.944-4.37-3.568-4.37-2.896 0-4.52 3.12-4.52 7.661v10.55h-4.901v-15.706c0-2.028-.181-4.897-.238-5.858h3.918c.439 0 .586.146.596.602.012.573.046 2.674.046 2.674h.112c.298-.615 1.908-3.726 6.402-3.726 4.188 0 5.79 3.004 6.187 3.931.387-.815 2.245-3.93 6.463-3.93 4.388 0 7.382 2.353 7.382 7.083v14.93H64.15v-.002zm13.538-13h9.06c.187-3.469-1.631-5.42-4.391-5.42-2.883-.002-4.531 2.085-4.67 5.42m12.083 8.265c.269 0 .35.237.37.481.085.922.164 3.004.15 3.53-.521.166-3.153 1.134-6.686 1.134-6.866 0-10.997-3.555-10.997-11.2 0-6.555 3.52-11.223 9.856-11.223 6.207 0 9.169 4.154 9.169 9.315 0 .606-.07 1.632-.18 2.99H77.63c0 3.685 2.347 6.325 6.678 6.325 2.39 0 4.293-.855 5.048-1.223.149-.07.237-.129.414-.129m61.398-6.206h-.833c-6.15 0-7.36 2.14-7.36 4.31 0 1.775 1.173 3.457 3.47 3.457 3.054 0 4.724-2.948 4.724-6.05v-1.717zm1.18 10.941c-.396 0-.723-.13-.765-.703-.047-.705-.145-2.064-.145-2.064h-.067c-.29.396-2.073 3.18-6.553 3.18-4.291 0-6.754-3.307-6.754-6.937 0-5.035 4.887-7.563 12.138-7.563h.966v-.792c0-2.258-1.606-3.467-4.608-3.467-2.702 0-4.945.948-5.817 1.391-.06.028-.217.121-.362.121-.232 0-.363-.145-.375-.398-.038-.812-.122-2.37-.135-3.358.884-.336 3.813-1.423 7.036-1.423 6.407 0 9.158 2.973 9.158 7.722v8.408c0 3.066.286 5.075.387 5.881h-4.104v.002zm-16.917-4.735c.128 0 .31.085.354.464.094 1.027.133 2.707.138 3.235-.978.481-3.096 1.448-5.695 1.448-6.531 0-10.538-3.792-10.538-11.209 0-6.95 3.562-11.215 10.538-11.215 2.313 0 4.442.807 5.695 1.45 0 .768-.074 2.506-.138 3.24-.03.307-.178.453-.354.453-.196 0-.262-.052-.378-.102-1.576-.773-3.058-1.146-4.392-1.146-4.16 0-5.87 2.722-5.87 7.321 0 4.1 1.368 7.314 5.87 7.314 1.72 0 3.288-.613 4.259-1.08.26-.123.305-.173.51-.173m38.265 4.735v-13.926c0-2.66-1.213-4.282-3.485-4.282-3.014 0-5.015 3.2-5.015 7.53v10.68h-4.892v-15.842c0-1.742-.16-4.284-.235-5.724h3.926c.448 0 .578.187.579.584.01.457.048 2.691.048 2.691h.107c.596-1.016 2.1-3.728 6.612-3.728 4.656 0 7.255 3.182 7.255 6.747v15.268h-4.9v.002z"/></g></svg>