<svg xmlns="http://www.w3.org/2000/svg" xmlns:xlink="http://www.w3.org/1999/xlink" viewBox="0 0 24 24">
  <title>iconTitle</title>
  <desc>iconDesc</desc>
  <style></style>
  <path d="M7.9761972,9.83229864 C8.34828567,9.65030127 8.797461,9.80440055 8.97945837,10.176489 C9.16145574,10.5485775 9.00735646,10.9977528 8.63526799,11.1797502 C7.91252552,11.5332608 7.30217331,12.087494 6.87961575,12.7724652 C6.46983817,13.43672 6.24980674,14.2013255 6.24980674,15.0001693 C6.24980674,17.3473795 8.15259655,19.2501693 10.4998067,19.2501693 C11.2759543,19.2501693 12.0198748,19.0425035 12.671229,18.6544816 C13.4468229,18.1924481 14.0594913,17.4927041 14.4127939,16.6620927 C14.5749235,16.2809275 15.0153509,16.1033641 15.396516,16.2654936 C15.7776812,16.4276232 15.9552447,16.8680506 15.7931151,17.2492157 C15.3149456,18.3733881 14.4874015,19.318547 13.4389092,19.9431503 C12.5569492,20.4685477 11.5480972,20.7501693 10.4998067,20.7501693 C7.32416942,20.7501693 4.74980674,18.1758066 4.74980674,15.0001693 C4.74980674,13.9211642 5.04820556,12.8842332 5.60299154,11.984918 C6.17415555,11.0590538 6.99847675,10.3105251 7.9761972,9.83229864 Z M9.8529129,7.26456449 C10.2252352,7.19010003 10.5882717,7.40523437 10.708763,7.75446139 L10.7354355,7.8529129 L11.1148067,9.75 L13.5,9.75 C13.8796958,9.75 14.193491,10.0321539 14.2431534,10.3982294 L14.25,10.5 C14.25,10.8796958 13.9678461,11.193491 13.6017706,11.2431534 L13.5,11.25 L11.4148067,11.25 L11.6148529,12.25 L15.5,12.25 C15.7383284,12.25 15.9602649,12.363059 16.1006405,12.5508314 L16.155618,12.6357678 L18.3533321,16.5916532 L19.2628292,16.2884875 C19.6557867,16.1575017 20.0805266,16.3698717 20.2115125,16.7628292 C20.3315828,17.1230402 20.1631389,17.5099574 19.8315538,17.6728345 L19.7371708,17.7115125 L18.2371708,18.2115125 C17.9290194,18.3142296 17.5943536,18.2063084 17.4027272,17.9537024 L17.344382,17.8642322 L15.0586975,13.75 L11,13.75 C10.6782403,13.75 10.3967373,13.5456008 10.2925415,13.2491567 L10.2645645,13.1470871 L9.26456449,8.1470871 C9.18333053,7.74091729 9.44674308,7.34579846 9.8529129,7.26456449 Z M9.5,3.75 C10.3284271,3.75 11,4.42157288 11,5.25 C11,6.07842712 10.3284271,6.75 9.5,6.75 C8.67157288,6.75 8,6.07842712 8,5.25 C8,4.42157288 8.67157288,3.75 9.5,3.75 Z"/>
</svg>
