<svg>
  <path d="M12,13 C15.2057579,13 17.9711127,14.8855899 19.2474841,17.6081895 L19.3593869,17.8579752 C19.4203221,17.9744954 19.46,18.1076141 19.46,18.25 C19.46,18.6642136 19.1242136,19 18.71,19 C18.3805802,19 18.1007644,18.7876198 18.0000069,18.4923136 L17.9986671,18.4924132 C17.0172831,16.1474938 14.7010379,14.5 12,14.5 C9.37232708,14.5 7.10882753,16.0592115 6.08423668,18.3028993 L5.98106128,18.5419338 C5.86720509,18.8111201 5.60066017,19 5.29,19 C4.87578644,19 4.54,18.6642136 4.54,18.25 C4.54,18.1809644 4.5493274,18.1141073 4.56679072,18.0506203 L4.60308176,17.9472703 C5.80283417,15.0434025 8.66278597,13 12,13 Z M12,4.75 C14.0710678,4.75 15.75,6.42893219 15.75,8.5 C15.75,10.5710678 14.0710678,12.25 12,12.25 C9.92893219,12.25 8.25,10.5710678 8.25,8.5 C8.25,6.42893219 9.92893219,4.75 12,4.75 Z M12,6.25 C10.7573593,6.25 9.75,7.25735931 9.75,8.5 C9.75,9.74264069 10.7573593,10.75 12,10.75 C13.2426407,10.75 14.25,9.74264069 14.25,8.5 C14.25,7.25735931 13.2426407,6.25 12,6.25 Z"/>
</svg>
