<svg>
  <title>iconTitle</title>
  <desc>iconDesc</desc>
  <style></style>
  <path d="M12,13 C15.2057579,13 17.9711127,14.8855899 19.2474841,17.6081895 L19.3593869,17.8579752 C19.4203221,17.9744954 19.46,18.1076141 19.46,18.25 C19.46,18.6296958 19.1778461,18.943491 18.8117706,18.9931534 L18.71,19 C18.3805802,19 18.1007644,18.7876198 18.0000069,18.4923136 C17.0489406,16.2231364 14.8490841,14.6070157 12.2601577,14.5051112 L12,14.5 C9.37232708,14.5 7.10882753,16.0592115 6.08423668,18.3028993 L5.98106128,18.5419338 C5.88143711,18.7774718 5.66491064,18.9515252 5.4042176,18.9913583 L5.29,19 C4.87578644,19 4.54,18.6642136 4.54,18.25 C4.54,18.1809644 4.5493274,18.1141073 4.56679072,18.0506203 L4.60308176,17.9472703 C5.76754733,15.1288104 8.49598967,13.1209445 11.7068086,13.0052729 L12,13 Z M12,4.75 C14.0710678,4.75 15.75,6.42893219 15.75,8.5 C15.75,10.5042592 14.1776389,12.1412737 12.1991586,12.244802 L12,12.25 C9.92893219,12.25 8.25,10.5710678 8.25,8.5 C8.25,6.49574083 9.82236105,4.85872626 11.8008414,4.75519801 L12,4.75 Z"/>
</svg>
