<svg width="24" height="24" viewBox="0 0 24 24" xmlns="http://www.w3.org/2000/svg">
  <path d="M18.5,15.3333333 C18.8796958,15.3333333 19.193491,15.6154872 19.2431534,15.9815628 L19.25,16.0833333 L19.25,17.3333333 L20.5,17.3333333 C20.8796958,17.3333333 21.193491,17.6154872 21.2431534,17.9815628 L21.25,18.0833333 C21.25,18.4630291 20.9678461,18.7768243 20.6017706,18.8264867 L20.5,18.8333333 L19.25,18.8333333 L19.25,20.0833333 C19.25,20.4630291 18.9678461,20.7768243 18.6017706,20.8264867 L18.5,20.8333333 C18.1203042,20.8333333 17.806509,20.5511795 17.7568466,20.1851039 L17.75,20.0833333 L17.75,18.8333333 L16.5,18.8333333 C16.1203042,18.8333333 15.806509,18.5511795 15.7568466,18.1851039 L15.75,18.0833333 C15.75,17.7036376 16.0321539,17.3898424 16.3982294,17.3401799 L16.5,17.3333333 L17.75,17.3333333 L17.75,16.0833333 C17.75,15.7381554 17.983185,15.4474407 18.3006203,15.3601241 L18.3982294,15.3401799 L18.5,15.3333333 Z M17,3 C17.3796958,3 17.693491,3.28215388 17.7431534,3.64822944 L17.75,3.75 L17.75,4.583 L18,4.58333333 C19.6568542,4.58333333 21,5.92647908 21,7.58333333 L21,13.8333333 C21,14.2475469 20.6642136,14.5833333 20.25,14.5833333 C19.8357864,14.5833333 19.5,14.2475469 19.5,13.8333333 L19.5,10.083 L4.5,10.083 L4.5,17.5833333 C4.5,18.4117605 5.17157288,19.0833333 6,19.0833333 L14.25,19.0833333 C14.6642136,19.0833333 15,19.4191198 15,19.8333333 C15,20.2475469 14.6642136,20.5833333 14.25,20.5833333 L6,20.5833333 C4.34314575,20.5833333 3,19.2401876 3,17.5833333 L3,7.58333333 C3,5.92647908 4.34314575,4.58333333 6,4.58333333 L6.25,4.583 L6.25,3.75 C6.25,3.33578644 6.58578644,3 7,3 C7.37969577,3 7.69349096,3.28215388 7.74315338,3.64822944 L7.75,3.75 L7.75,4.583 L16.25,4.583 L16.25,3.75 C16.25,3.33578644 16.5857864,3 17,3 Z M10.5,15.3333333 C11.0522847,15.3333333 11.5,15.7810486 11.5,16.3333333 C11.5,16.8856181 11.0522847,17.3333333 10.5,17.3333333 C9.94771525,17.3333333 9.5,16.8856181 9.5,16.3333333 C9.5,15.7810486 9.94771525,15.3333333 10.5,15.3333333 Z M7.5,15.3333333 C8.05228475,15.3333333 8.5,15.7810486 8.5,16.3333333 C8.5,16.8856181 8.05228475,17.3333333 7.5,17.3333333 C6.94771525,17.3333333 6.5,16.8856181 6.5,16.3333333 C6.5,15.7810486 6.94771525,15.3333333 7.5,15.3333333 Z M13.5,15.3333333 C14.0522847,15.3333333 14.5,15.7810486 14.5,16.3333333 C14.5,16.8856181 14.0522847,17.3333333 13.5,17.3333333 C12.9477153,17.3333333 12.5,16.8856181 12.5,16.3333333 C12.5,15.7810486 12.9477153,15.3333333 13.5,15.3333333 Z M13.5,11.8333333 C14.0522847,11.8333333 14.5,12.2810486 14.5,12.8333333 C14.5,13.3856181 14.0522847,13.8333333 13.5,13.8333333 C12.9477153,13.8333333 12.5,13.3856181 12.5,12.8333333 C12.5,12.2810486 12.9477153,11.8333333 13.5,11.8333333 Z M10.5,11.8333333 C11.0522847,11.8333333 11.5,12.2810486 11.5,12.8333333 C11.5,13.3856181 11.0522847,13.8333333 10.5,13.8333333 C9.94771525,13.8333333 9.5,13.3856181 9.5,12.8333333 C9.5,12.2810486 9.94771525,11.8333333 10.5,11.8333333 Z M16.5,11.8333333 C17.0522847,11.8333333 17.5,12.2810486 17.5,12.8333333 C17.5,13.3856181 17.0522847,13.8333333 16.5,13.8333333 C15.9477153,13.8333333 15.5,13.3856181 15.5,12.8333333 C15.5,12.2810486 15.9477153,11.8333333 16.5,11.8333333 Z M6.25,6.083 L6,6.08333333 C5.17157288,6.08333333 4.5,6.75490621 4.5,7.58333333 L4.5,8.583 L19.5,8.583 L19.5,7.58333333 C19.5,6.75490621 18.8284271,6.08333333 18,6.08333333 L17.75,6.083 L17.75,6.41666667 C17.75,6.83088023 17.4142136,7.16666667 17,7.16666667 C16.6203042,7.16666667 16.306509,6.88451279 16.2568466,6.51843722 L16.25,6.41666667 L16.25,6.083 L7.75,6.083 L7.75,6.41666667 C7.75,6.83088023 7.41421356,7.16666667 7,7.16666667 C6.62030423,7.16666667 6.30650904,6.88451279 6.25684662,6.51843722 L6.25,6.41666667 L6.25,6.083 Z"/>
</svg>
