<svg>
<path fill-rule="evenodd" clip-rule="evenodd" d="M18.5 15.3333C18.8797 15.3333 19.1935 15.6155 19.2432 15.9816L19.25 16.0833V17.3333H20.5C20.8797 17.3333 21.1935 17.6155 21.2432 17.9816L21.25 18.0833C21.25 18.463 20.9678 18.7768 20.6018 18.8265L20.5 18.8333H19.25V20.0833C19.25 20.463 18.9678 20.7768 18.6018 20.8265L18.5 20.8333C18.1203 20.8333 17.8065 20.5512 17.7568 20.1851L17.75 20.0833V18.8333H16.5C16.1203 18.8333 15.8065 18.5512 15.7568 18.1851L15.75 18.0833C15.75 17.7036 16.0322 17.3898 16.3982 17.3402L16.5 17.3333H17.75V16.0833C17.75 15.7382 17.9832 15.4474 18.3006 15.3601L18.3982 15.3402L18.5 15.3333ZM17 2.5C17.3797 2.5 17.6935 2.78215 17.7432 3.14823L17.75 3.25V4.583L18 4.58333C19.6569 4.58333 21 5.92648 21 7.58333V13.8333C21 14.2475 20.6642 14.5833 20.25 14.5833C19.8358 14.5833 19.5 14.2475 19.5 13.8333V10.083H4.5V17.5833C4.5 18.4118 5.17157 19.0833 6 19.0833H14.25C14.6642 19.0833 15 19.4191 15 19.8333C15 20.2475 14.6642 20.5833 14.25 20.5833H6C4.34315 20.5833 3 19.2402 3 17.5833V7.58333C3 5.92648 4.34315 4.58333 6 4.58333L6.25 4.583V3.25C6.25 2.83579 6.58579 2.5 7 2.5C7.3797 2.5 7.69349 2.78215 7.74315 3.14823L7.75 3.25V4.583H16.25V3.25C16.25 2.83579 16.5858 2.5 17 2.5ZM10.5 15.3333C11.0523 15.3333 11.5 15.781 11.5 16.3333C11.5 16.8856 11.0523 17.3333 10.5 17.3333C9.94772 17.3333 9.5 16.8856 9.5 16.3333C9.5 15.781 9.94772 15.3333 10.5 15.3333ZM7.5 15.3333C8.05228 15.3333 8.5 15.781 8.5 16.3333C8.5 16.8856 8.05228 17.3333 7.5 17.3333C6.94772 17.3333 6.5 16.8856 6.5 16.3333C6.5 15.781 6.94772 15.3333 7.5 15.3333ZM13.5 15.3333C14.0523 15.3333 14.5 15.781 14.5 16.3333C14.5 16.8856 14.0523 17.3333 13.5 17.3333C12.9477 17.3333 12.5 16.8856 12.5 16.3333C12.5 15.781 12.9477 15.3333 13.5 15.3333ZM13.5 11.8333C14.0523 11.8333 14.5 12.281 14.5 12.8333C14.5 13.3856 14.0523 13.8333 13.5 13.8333C12.9477 13.8333 12.5 13.3856 12.5 12.8333C12.5 12.281 12.9477 11.8333 13.5 11.8333ZM10.5 11.8333C11.0523 11.8333 11.5 12.281 11.5 12.8333C11.5 13.3856 11.0523 13.8333 10.5 13.8333C9.94772 13.8333 9.5 13.3856 9.5 12.8333C9.5 12.281 9.94772 11.8333 10.5 11.8333ZM16.5 11.8333C17.0523 11.8333 17.5 12.281 17.5 12.8333C17.5 13.3856 17.0523 13.8333 16.5 13.8333C15.9477 13.8333 15.5 13.3856 15.5 12.8333C15.5 12.281 15.9477 11.8333 16.5 11.8333Z"/>
</svg>
