<svg width="17" height="27" viewBox="0 0 17 27" fill="none" xmlns="http://www.w3.org/2000/svg">
<path d="M9.93551 12.3872V11.5989H0.0825195V12.3872H0.476692V25.3933H0.0825195V26.1816H9.93551V25.3933H9.54134V12.3872H9.93551Z" fill="#626B79"/>
<path d="M6.38839 6.47555H3.62952V4.50501L6.38839 4.11084V6.47555Z" fill="#626B79"/>
<path d="M7.70249 5.81855C7.95644 5.81855 8.1623 5.61269 8.1623 5.35874C8.1623 5.10479 7.95644 4.89893 7.70249 4.89893C7.44854 4.89893 7.24268 5.10479 7.24268 5.35874C7.24268 5.61269 7.44854 5.81855 7.70249 5.81855Z" fill="#626B79"/>
<path d="M9.67319 5.81855C9.92714 5.81855 10.133 5.61269 10.133 5.35874C10.133 5.10479 9.92714 4.89893 9.67319 4.89893C9.41924 4.89893 9.21338 5.10479 9.21338 5.35874C9.21338 5.61269 9.41924 5.81855 9.67319 5.81855Z" fill="#626B79"/>
<path d="M11.6439 5.81855C11.8978 5.81855 12.1037 5.61269 12.1037 5.35874C12.1037 5.10479 11.8978 4.89893 11.6439 4.89893C11.3899 4.89893 11.1841 5.10479 11.1841 5.35874C11.1841 5.61269 11.3899 5.81855 11.6439 5.81855Z" fill="#626B79"/>
<path d="M13.6146 5.81855C13.8685 5.81855 14.0744 5.61269 14.0744 5.35874C14.0744 5.10479 13.8685 4.89893 13.6146 4.89893C13.3607 4.89893 13.1548 5.10479 13.1548 5.35874C13.1548 5.61269 13.3607 5.81855 13.6146 5.81855Z" fill="#626B79"/>
<path d="M15.5853 5.81855C15.8392 5.81855 16.0451 5.61269 16.0451 5.35874C16.0451 5.10479 15.8392 4.89893 15.5853 4.89893C15.3314 4.89893 15.1255 5.10479 15.1255 5.35874C15.1255 5.61269 15.3314 5.81855 15.5853 5.81855Z" fill="#626B79"/>
<path d="M8.93882 4.23017C9.19276 4.23017 9.39863 4.02431 9.39863 3.77036C9.39863 3.51641 9.19276 3.31055 8.93882 3.31055C8.68487 3.31055 8.479 3.51641 8.479 3.77036C8.479 4.02431 8.68487 4.23017 8.93882 4.23017Z" fill="#626B79"/>
<path d="M10.6107 3.1872C10.8646 3.1872 11.0705 2.98134 11.0705 2.72739C11.0705 2.47344 10.8646 2.26758 10.6107 2.26758C10.3567 2.26758 10.1509 2.47344 10.1509 2.72739C10.1509 2.98134 10.3567 3.1872 10.6107 3.1872Z" fill="#626B79"/>
<path d="M12.2826 2.14424C12.5365 2.14424 12.7424 1.93837 12.7424 1.68442C12.7424 1.43047 12.5365 1.22461 12.2826 1.22461C12.0286 1.22461 11.8228 1.43047 11.8228 1.68442C11.8228 1.93837 12.0286 2.14424 12.2826 2.14424Z" fill="#626B79"/>
<path d="M13.9547 1.10127C14.2086 1.10127 14.4145 0.895401 14.4145 0.641453C14.4145 0.387506 14.2086 0.181641 13.9547 0.181641C13.7007 0.181641 13.4949 0.387506 13.4949 0.641453C13.4949 0.895401 13.7007 1.10127 13.9547 1.10127Z" fill="#626B79"/>
<path d="M13.9547 10.5358C14.2086 10.5358 14.4145 10.33 14.4145 10.076C14.4145 9.82208 14.2086 9.61621 13.9547 9.61621C13.7007 9.61621 13.4949 9.82208 13.4949 10.076C13.4949 10.33 13.7007 10.5358 13.9547 10.5358Z" fill="#626B79"/>
<path d="M12.2826 9.49336C12.5365 9.49336 12.7424 9.28749 12.7424 9.03354C12.7424 8.7796 12.5365 8.57373 12.2826 8.57373C12.0286 8.57373 11.8228 8.7796 11.8228 9.03354C11.8228 9.28749 12.0286 9.49336 12.2826 9.49336Z" fill="#626B79"/>
<path d="M10.6107 8.4499C10.8646 8.4499 11.0705 8.24403 11.0705 7.99009C11.0705 7.73614 10.8646 7.53027 10.6107 7.53027C10.3567 7.53027 10.1509 7.73614 10.1509 7.99009C10.1509 8.24403 10.3567 8.4499 10.6107 8.4499Z" fill="#626B79"/>
<path d="M8.93882 7.40742C9.19276 7.40742 9.39863 7.20155 9.39863 6.94761C9.39863 6.69366 9.19276 6.48779 8.93882 6.48779C8.68487 6.48779 8.479 6.69366 8.479 6.94761C8.479 7.20155 8.68487 7.40742 8.93882 7.40742Z" fill="#626B79"/>
<path d="M9.13806 11.2051C9.08897 10.1432 8.63258 9.14105 7.86374 8.40693C7.0949 7.67281 6.07274 7.26318 5.0097 7.26318C3.94666 7.26318 2.92451 7.67281 2.15567 8.40693C1.38683 9.14105 0.930437 10.1432 0.881348 11.2051H9.13806Z" fill="#626B79"/>
</svg>
