<svg xmlns="http://www.w3.org/2000/svg" viewBox="0 0 400 300"><path d="M373.9 133.2l-17.5 25.3c-2.3 3.3-6 6.5-10.6 6.9v.8h19.5c5.2 0 8.9-3.4 11.5-7.1l18-25.9h-20.9z" fill="#ff1e27"/><path d="M51.7 166.2V136h8.8v30.2h-8.8zm203.1 0l-21.2-17.9v17.9h-7.4V136h6.3l20.9 17.6V136h7.4v30.2h-6zm46.1-20.4c-4-2-8.5-3.5-14.4-3.5-7.1 0-12.4 3.7-12.4 8.8 0 5.2 5.4 8.9 12.3 8.9 5.7 0 10.3-1.5 14.8-4v7.5c-4 2-9.2 3.4-15.1 3.4-12.1 0-21.6-6.2-21.6-15.8 0-9.5 9.7-15.5 21.5-15.5 5.6 0 10.7 1.1 14.9 2.8v7.4zm-191.4 20.4V136H139v6.5h-20.6v7.5h20.2v6.5h-20.2v9.7h-8.9zm196.7 0V136h30.6v6.5H315v5.2h21.4v6.5H315v5.5h21.7v6.5h-30.5zm-136.6-11.3l12.2 11.3h-9.4c-2.1 0-3.5-.7-4.5-1.7l-8.3-8c-.2-.2-.4-.2-.7-.2h-5.6v10h-8.8V136h19.1c9.9 0 14.1 4.4 14.1 9.4-.2 5.7-5.3 8.4-8.1 9.5zm-7.1-5c3.5 0 5.2-1.8 5.2-3.8 0-2-1.5-3.6-5.2-3.6h-9.4v7.4h9.4zm-68.5 5l12.2 11.3h-9.4c-2.1 0-3.5-.7-4.5-1.7l-8.3-8c-.2-.2-.4-.2-.7-.2h-5.6v10h-8.8V136H88c9.9 0 14.1 4.4 14.1 9.4-.2 5.7-5.3 8.4-8.1 9.5zm-7.1-5c3.5 0 5.2-1.8 5.2-3.8 0-2-1.5-3.6-5.2-3.6h-9.4v7.4h9.4zm-49 16.3l-3.9-6.6H17.2l-3.5 6.6H5.3L22.1 136h7.7l19 30.2H37.9zm-17.3-12.9h9.8l-5.1-9.2-4.7 9.2zm193.2 12.9l-3.8-6.6h-16.4l-3.4 6.6H182l16.4-30.2h7.4l18.5 30.2h-10.5zm-16.9-12.9h9.6l-5-9.2-4.6 9.2z" fill="#002157"/></svg>