<svg width="24" height="24" viewBox="0 0 24 24" xmlns="http://www.w3.org/2000/svg">
<path fill-rule="evenodd" clip-rule="evenodd" d="M19.2967 6.48936C19.2967 6.08102 19.6051 5.75 19.9856 5.75C21.714 5.75 23 7.38883 23 9.25C23 11.1112 21.714 12.75 19.9856 12.75L5.68885 12.75C5.30841 12.75 5 12.419 5 12.0106C5 11.6023 5.30841 11.2713 5.68885 11.2713L19.9856 11.2713C20.8259 11.2713 21.6223 10.4382 21.6223 9.25C21.6223 8.06185 20.8259 7.22872 19.9856 7.22872C19.6051 7.22872 19.2967 6.89769 19.2967 6.48936Z"/>
<path fill-rule="evenodd" clip-rule="evenodd" d="M15.0652 5.36538C14.2215 5.36538 13.4999 6.07614 13.4999 7C13.4999 7.37704 13.1933 7.68269 12.8152 7.68269C12.437 7.68269 12.1304 7.37704 12.1304 7C12.1304 5.36423 13.4235 4 15.0652 4C16.7069 4 18 5.36423 18 7C18 8.63577 16.7069 10 15.0652 10L1.68476 10C1.30658 10 1 9.69435 1 9.31731C1 8.94027 1.30658 8.63462 1.68476 8.63462L15.0652 8.63462C15.9089 8.63462 16.6305 7.92386 16.6305 7C16.6305 6.07614 15.9089 5.36538 15.0652 5.36538Z"/>
<path fill-rule="evenodd" clip-rule="evenodd" d="M17.9862 18.6346C17.1344 18.6346 16.3912 17.9314 16.3912 17C16.3912 16.623 16.0736 16.3173 15.6818 16.3173C15.29 16.3173 14.9724 16.623 14.9724 17C14.9724 18.6282 16.2926 20 17.9862 20C19.6798 20 21 18.6282 21 17C21 15.3718 19.6798 14 17.9862 14L2.70942 14C2.31762 14 2 14.3056 2 14.6827C2 15.0597 2.31762 15.3654 2.70942 15.3654L17.9862 15.3654C18.838 15.3654 19.5812 16.0686 19.5812 17C19.5812 17.9314 18.838 18.6346 17.9862 18.6346Z"/>
</svg>
