<svg xmlns="http://www.w3.org/2000/svg" version="1.1" viewBox="0 0 24 24" xmlns:xlink="http://www.w3.org/1999/xlink">
  <title>iconTitle</title>
  <desc>iconDesc</desc>
  <style></style>
  <path d="M13.0467101,5.59878511 L19.83304,17.1845729 C20.3044044,17.9892977 19.7216697,19 18.7863299,19 L5.2136701,19 C4.27833028,19 3.69559564,17.9892977 4.16696005,17.1845729 L10.9532899,5.59878511 C11.420938,4.80040496 12.579062,4.80040496 13.0467101,5.59878511 Z M11.881817,6.46989182 C11.8464654,6.49025522 11.8170742,6.51940152 11.7965397,6.55445855 L5.41899252,17.4423625 C5.35372187,17.5537941 5.39190185,17.6965987 5.5042699,17.7613254 C5.54016625,17.7820026 5.58094009,17.7928939 5.62245286,17.7928939 L18.3775471,17.7928939 C18.5074965,17.7928939 18.6128413,17.688427 18.6128413,17.5595606 C18.6128413,17.5183937 18.6018584,17.4779597 18.5810075,17.4423625 L12.2034603,6.55445855 C12.1381897,6.44302691 11.9941851,6.4051651 11.881817,6.46989182 Z M11.9764706,15.5466667 C12.301344,15.5466667 12.5647059,15.8078339 12.5647059,16.13 C12.5647059,16.4521661 12.301344,16.7133333 11.9764706,16.7133333 C11.6515972,16.7133333 11.3882353,16.4521661 11.3882353,16.13 C11.3882353,15.8078339 11.6515972,15.5466667 11.9764706,15.5466667 Z M11.9764706,9.48 C12.301344,9.48 12.5647059,9.74116723 12.5647059,10.0633333 L12.5647059,14.4966667 C12.5647059,14.8188328 12.301344,15.08 11.9764706,15.08 C11.6515972,15.08 11.3882353,14.8188328 11.3882353,14.4966667 L11.3882353,10.0633333 C11.3882353,9.74116723 11.6515972,9.48 11.9764706,9.48 Z"/>
</svg>
