<svg version="1.1" id="layer" xmlns="http://www.w3.org/2000/svg" x="0" y="0" viewBox="0 0 652 652" xml:space="preserve"><style>.st0{fill:#00285e}</style><path class="st0" d="M115 301.1c2.1 0 3.6.7 4.8 1.2 2.5 1.2 5.4 2.5 9 4.3 0 0 5.8-4.2 6.2-4.4 2-1.3 3.9-.3 4.5.8 2.2 4.1 6.2 12.6 8.3 20.4.3.9 0 2.4-1.5 2.8-.8.3-2.3.5-3.8.7-2.1.3-2.1 2-2.1 3v12.8c.1 1.8-1.3 7.7-8.2 7.7h-15.6c-5.9 0-10.6-4.9-10.7-10.3v-30.5c.1-5 4.8-8.5 9.1-8.5"/><path class="st0" d="M90.3 350.6H39.7v5.6h59.4s2.1-5 2.1-10.5v-38.2c0-3 1.2-8.1 7.4-9.5.2 0 .3-.1.5-.1 17.5-4.1 35.6-.4 45.8 4 1.8.9 2.3-.6 2.2-1.2.2-8.6-6.3-18.4-18.3-18.9-9.7-.2-15.2 3.3-17.2 4.3-.1.1-.4 0-.6-.2-1.8-1.8-5.6-4.4-10-5.7-.6-.1-.7-1.1 0-1.2 9.2-1 17.3.1 20.7.6.8.1 1.3-.3 1-1-.2-.6-.4-.8-.8-1.6-.8-1.8-3-3.6-5.8-4.4-7.2-2-19.6-3.8-30.6-3.8-12.4-.1-25.4 2.4-28.7 3.1-.8.2-1.9.5-2.1.5-.9.2-1.1 1-.7 1.5.2.3.9.8 1.2 1.2.4.5.6 1.2-.2 2l-22.9 20.6H58c1 0 2 .9 2 2.1 0 1-.8 2.1-1.9 2.1H37.8l-6.2 5.7h26.8c1 0 1.9 1.1 1.8 2.1 0 .9-.8 2-1.8 2H27.1l-6.2 5.6h54c1.1 0 1.9 1.1 1.9 2 0 1.1-.8 2.1-1.8 2.1H20.8v5.6h54c1.2 0 1.9 1.1 1.9 2.1 0 .9-.9 1.9-2 1.9H20.8v5.7h70.4c1.2 0 1.9 1 1.9 2.1 0 1-.8 2-1.9 2H39.7v5.6h51.7c1 0 1.8 1.2 1.8 2.1 0 1-.8 2-1.8 2h-1.1M58.6 370v5.8h11.9c10.7-.1 17.7-5.8 17.7-5.8H58.6M58.6 360.4v5.6H93c1.6-1.6 3.6-4.5 4.2-5.6H58.6M613 325.5v-.3c-.2-4.4-1.7-8.3-3.7-11.4-4.2-6.7-11.7-10.3-20.7-10.2-9-.1-16.5 3.5-20.7 10.2-2.1 3-3.5 6.9-3.7 11.4v.3c-1.2 14.7 7.3 24.8 21.9 26 .9.1 1.7.1 2.6.1.8 0 1.7 0 2.6-.1 14.4-1.2 22.9-11.3 21.7-26m-23.3 19.1c-.4 0-.8 0-1.1.1-.4 0-.7 0-1.1-.1-2.1-.2-3.8-1-5.4-2.1-.5-.4-.9-.8-1.3-1.2-2.2-2.5-3.4-6.8-3.7-10.2-.7-7.9.9-19.5 10.7-20.3H589.4c9.7.8 11.3 12.4 10.7 20.3-.3 3.4-1.4 7.6-3.7 10.2-.4.5-.9.9-1.3 1.2-1.6 1.2-3.4 2-5.4 2.1M516.1 314.6c0-3.6.4-10 .4-10h-12s.4 6.4.4 10v26.1c0 3.6-.3 9.8-.3 9.8h12s-.3-6.2-.3-9.8l-.2-26.1M446.4 343.5h-8.3c-.1-4.6-.2-9.1-.2-13.1v-.7h13.8v-6.5h-13.8c0-7 .2-11.6.2-11.6h17.1v-6.9h-29.3s.3 6.3.3 10v26.1c0 3.3-.2 9-.3 9.9h30.4v-7.3c0-.1-6 .1-9.9.1M247.2 343.5h-8.3c-.1-4.6-.2-9.1-.2-13.1v-.7h13.8v-6.5h-13.8c0-7 .2-11.6.2-11.6H256v-6.9h-29.3s.3 6.4.3 10v26.1c0 3.3-.2 9-.3 9.9h30.4v-7.3c.1-.1-5.9.1-9.9.1M485.5 325.8l13.2-21.2h-9.1l-.1.2c-2.8 4.8-6.2 10.6-7.6 12.7l-.5.9-7.7-13.7H460l13.2 23.8-13.8 22.2h9.1c5.9-10.1 8.9-14.7 8.9-14.7l8.2 14.7h13.7l-13.8-24.9M553.4 344.3c-10.6 0-16.4-7.8-16.1-17.4.3-8.4 4.1-15.5 13.2-16.1 3.5-.2 6.4.4 11.3 1.7l-.5-7.2s-4.1-1.3-10.1-1.5c-7.6-.3-14.4 1.2-19.9 6.2-4.9 4.5-7.8 11.1-7.8 17.5 0 7.1 2.9 13.7 8.4 18.2 5.7 4.8 11.8 5.9 19.1 5.9 4.8 0 7.6-.3 12.2-1.6l-.7-7.1c-.9.3-4.3 1.4-9.1 1.4M400 297.7h13.3l.4 3.1c3 30.7 4.8 49.8 4.8 49.8h-13.9l-1.4-19-1.3-17-11.7 36h-7.4s-3.7-12.8-4.4-14.6l-6.7-21.6s-1 12-1.4 17.2c-.8 10.3-1.5 19-1.5 19h-10.3s4.2-43 4.5-45.6c.3-2.7.8-7.3.8-7.3h13.6l11.3 31 11.3-31M352.8 325.6v-.3c-.2-4.4-1.6-8.3-3.7-11.3-4.2-6.6-11.7-10.2-20.6-10.1-9-.1-16.4 3.5-20.6 10.1-2 3-3.5 6.9-3.7 11.3v.3c-1.2 14.6 7.3 24.7 21.8 25.8.9.1 1.7.1 2.6.1.8 0 1.7 0 2.5-.1 14.4-1.1 22.9-11.2 21.7-25.8m-23.2 19c-.4 0-.8.1-1.1.1-.4 0-.7 0-1.1-.1-2.1-.2-3.8-.9-5.3-2.1-.4-.4-.9-.8-1.3-1.3-2.2-2.5-3.4-6.8-3.7-10.2-.7-7.9.9-19.4 10.6-20.2H329.3c9.7.8 11.3 12.3 10.6 20.2-.3 3.4-1.4 7.6-3.7 10.2-.4.5-.8.9-1.3 1.3-1.6 1.2-3.4 1.9-5.3 2.1M223.9 350.6c-.4-1-2.9-6.8-4.7-11.5l-15.5-41.3h-12.1s-3.5 9.7-4 11.3l-11.3 32.1c-1.5 4.1-3.5 9.5-3.5 9.5h9.9s2.8-8.9 3.4-10.5l1.5-4.5h17.1l2.3 6.8c.5 1.3 2.5 8.1 2.5 8.2h14.4M190 328l5.8-17.1.3-1 6 18.1H190zM304.7 350.6c-2.9-4.1-3.9-5.8-6.1-8.8l-8.2-12.8c4-2 7.7-5.2 8.2-12.1.3-4.3-1.9-7.8-3.3-9-2-1.8-3.9-2.5-6.7-2.8-2.2-.3-3.8-.3-5.1-.4h-19.4s.2 6.4.2 10v26c0 3.6-.2 10-.2 10H276s-.4-6.4-.4-10l.1-8.3h4.4l7.6 13.8c1 1.8 2.5 4 2.8 4.5h14.2m-21.1-25.8c-1.8.9-5.8.7-7.8.6l.2-13.1 1.1-.1c3.7-.3 6.3.2 7.4.7 1.6.7 2.6 2.3 2.7 4.9.1 3.8-1.4 5.8-3.6 7M611.7 346.1c0-2.5 2-4.5 4.5-4.5s4.5 2 4.5 4.5-2 4.5-4.5 4.5c-2.4 0-4.5-2-4.5-4.5m8 0c0-2.1-1.5-3.7-3.4-3.7s-3.4 1.5-3.4 3.7c0 2.1 1.5 3.6 3.4 3.6s3.4-1.5 3.4-3.6m-5.2-2.6h1.9c1.2 0 1.9.4 1.9 1.5 0 .9-.5 1.3-1.3 1.4l1.4 2.2h-1l-1.3-2.2h-.6v2.2h-.9v-5.1zm1 2.2h.8c.6 0 1-.1 1-.8 0-.6-.6-.7-1-.7h-.9v1.5z"/><path d="M486.1 363.5c-89.1-19.4-127 11.1-127 11.1s41.5-24.5 127-5.9c87.3 19 127-13.5 127-13.5s-44.3 26.3-127 8.3" fill="#e62310"/></svg>