<svg width="24" height="24" viewBox="0 0 24 24" fill="none" xmlns="http://www.w3.org/2000/svg">
<path d="M20.2089 5.51352H3.79109C3.72271 5.51352 3.65422 5.51352 3.58596 5.51392C3.52826 5.51434 3.4707 5.51499 3.41313 5.51658C3.28759 5.52002 3.16097 5.52752 3.037 5.5501C2.91105 5.57307 2.79384 5.61053 2.6795 5.66952C2.56709 5.72744 2.46418 5.80319 2.375 5.89359C2.28577 5.98399 2.211 6.08809 2.15385 6.20211C2.09562 6.31796 2.05862 6.43675 2.03611 6.56447C2.01371 6.69011 2.00626 6.81838 2.00287 6.94545C2.00133 7.00377 2.00066 7.0621 2.00029 7.12041C1.99989 7.18971 2.00002 7.25897 2.00002 7.3284V16.6717C2.00002 16.7412 1.99989 16.8103 2.00029 16.8798C2.00066 16.9381 2.00133 16.9964 2.00287 17.0547C2.00626 17.1817 2.01371 17.3099 2.03611 17.4355C2.05862 17.5633 2.09562 17.682 2.15385 17.7979C2.211 17.9119 2.28577 18.0162 2.375 18.1064C2.46418 18.197 2.56709 18.2727 2.6795 18.3305C2.79384 18.3896 2.91105 18.4271 3.037 18.4501C3.16097 18.4725 3.28759 18.4801 3.41313 18.4836C3.4707 18.4849 3.52826 18.4857 3.58596 18.486C3.65422 18.4865 3.72271 18.4865 3.79109 18.4865H20.2089C20.2772 18.4865 20.3457 18.4865 20.4139 18.486C20.4715 18.4857 20.5291 18.4849 20.5869 18.4836C20.7122 18.4801 20.8388 18.4725 20.963 18.4501C21.0888 18.4271 21.206 18.3896 21.3204 18.3305C21.4329 18.2727 21.5355 18.197 21.6249 18.1064C21.714 18.0162 21.7888 17.9119 21.8461 17.7979C21.9044 17.682 21.9414 17.5633 21.9638 17.4355C21.9862 17.3099 21.9935 17.1817 21.9969 17.0547C21.9984 16.9964 21.9992 16.9381 21.9995 16.8798C22 16.8103 22 16.7412 22 16.6717V7.3284C22 7.25897 22 7.18971 21.9995 7.12041C21.9992 7.0621 21.9984 7.00377 21.9969 6.94545C21.9935 6.81838 21.9862 6.69011 21.9638 6.56447C21.9414 6.43675 21.9044 6.31796 21.8461 6.20211C21.7888 6.08809 21.714 5.98399 21.6249 5.89359C21.5355 5.80319 21.4329 5.72744 21.3204 5.66952C21.206 5.61053 21.0888 5.57307 20.963 5.5501C20.8388 5.52752 20.7122 5.52002 20.5869 5.51658C20.5291 5.51499 20.4715 5.51434 20.4139 5.51392C20.3457 5.51352 20.2772 5.51352 20.2089 5.51352Z" fill="black"/>
<path d="M20.2089 5.94593L20.4109 5.94632C20.4656 5.94671 20.5203 5.94731 20.5753 5.94883C20.671 5.95145 20.783 5.9567 20.8873 5.97566C20.978 5.99221 21.0541 6.01738 21.1271 6.05504C21.1992 6.09215 21.2652 6.14077 21.3229 6.19911C21.3808 6.25784 21.4288 6.32485 21.4659 6.39869C21.5029 6.47208 21.5276 6.5488 21.5438 6.64138C21.5625 6.74595 21.5676 6.85969 21.5703 6.95725C21.5717 7.01232 21.5725 7.06739 21.5727 7.12376C21.5732 7.19194 21.5732 7.26009 21.5732 7.3284V16.6717C21.5732 16.7401 21.5732 16.8081 21.5727 16.8777C21.5725 16.9328 21.5717 16.9878 21.5702 17.043C21.5676 17.1404 21.5625 17.2541 21.5436 17.3599C21.5276 17.4512 21.5029 17.5279 21.4657 17.6017C21.4287 17.6754 21.3808 17.7423 21.3231 17.8007C21.2651 17.8594 21.1993 17.9079 21.1264 17.9454C21.0539 17.9828 20.978 18.008 20.8882 18.0244C20.7817 18.0436 20.6651 18.0489 20.5772 18.0513C20.522 18.0525 20.467 18.0533 20.4106 18.0536C20.3435 18.0541 20.2761 18.0541 20.2089 18.0541H3.78842C3.72204 18.0541 3.65552 18.0541 3.58793 18.0536C3.53282 18.0533 3.47783 18.0526 3.42466 18.0513C3.33481 18.0489 3.2181 18.0436 3.11251 18.0245C3.02192 18.008 2.94598 17.9828 2.87256 17.9449C2.80032 17.9077 2.73455 17.8593 2.67654 17.8004C2.61898 17.7422 2.57114 17.6755 2.53415 17.6017C2.49713 17.528 2.47236 17.4511 2.45607 17.3587C2.43725 17.2531 2.43208 17.1398 2.42949 17.0431C2.42802 16.9877 2.4274 16.9323 2.42705 16.8772L2.42678 16.7147V7.28548L2.42704 7.12325C2.4274 7.06785 2.42802 7.01246 2.42949 6.95712C2.43208 6.86026 2.43725 6.74699 2.45623 6.64051C2.47237 6.54894 2.49713 6.47199 2.53435 6.39793C2.57104 6.32473 2.61896 6.25791 2.67683 6.19929C2.73447 6.14087 2.80045 6.0923 2.87316 6.05484C2.94579 6.01737 3.02187 5.99221 3.11246 5.97569C3.21683 5.95669 3.32886 5.95145 3.4248 5.94882C3.47948 5.94731 3.53417 5.94671 3.58845 5.94633L3.79109 5.94593H20.2089Z" fill="white"/>
<path d="M7.45987 9.87688C7.63112 9.65986 7.74732 9.36846 7.71668 9.07069C7.466 9.08332 7.16009 9.23826 6.98298 9.45545C6.82396 9.64144 6.68322 9.94503 6.71991 10.2303C7.00131 10.2551 7.28245 10.0878 7.45987 9.87688Z" fill="black"/>
<path d="M7.71348 10.286C7.30482 10.2614 6.95735 10.521 6.7622 10.521C6.56693 10.521 6.26808 10.2985 5.94485 10.3045C5.52415 10.3107 5.13378 10.5517 4.9203 10.935C4.48118 11.7019 4.80441 12.8394 5.23143 13.4639C5.43879 13.7729 5.68871 14.1131 6.018 14.1009C6.32914 14.0885 6.45109 13.8968 6.82928 13.8968C7.2072 13.8968 7.31705 14.1009 7.6464 14.0947C7.98794 14.0885 8.20147 13.7856 8.40884 13.4763C8.64672 13.1241 8.74411 12.784 8.75023 12.7653C8.74411 12.7591 8.09164 12.5055 8.08559 11.745C8.07943 11.1083 8.59785 10.8054 8.62225 10.7866C8.32949 10.3479 7.87206 10.2985 7.71348 10.286Z" fill="black"/>
<path d="M11.2718 9.4243C12.16 9.4243 12.7785 10.0446 12.7785 10.9478C12.7785 11.8542 12.1473 12.4778 11.2495 12.4778H10.2661V14.0624H9.55556V9.4243L11.2718 9.4243ZM10.2661 11.8735H11.0814C11.7 11.8735 12.0521 11.5361 12.0521 10.951C12.0521 10.3661 11.7 10.0318 11.0846 10.0318H10.2661V11.8735Z" fill="black"/>
<path d="M12.9642 13.1014C12.9642 12.5099 13.4115 12.1467 14.2046 12.1017L15.1181 12.0471V11.7868C15.1181 11.4107 14.8675 11.1857 14.4489 11.1857C14.0522 11.1857 13.8048 11.3785 13.7446 11.6807H13.0974C13.1355 11.07 13.6494 10.62 14.4742 10.62C15.2831 10.62 15.8001 11.0539 15.8001 11.7321V14.0624H15.1435V13.5063H15.1277C14.9342 13.8824 14.5122 14.1202 14.0745 14.1202C13.421 14.1202 12.9642 13.7088 12.9642 13.1014ZM15.1181 12.796V12.5293L14.2965 12.5807C13.8873 12.6096 13.6557 12.7928 13.6557 13.0821C13.6557 13.3778 13.8968 13.5706 14.2648 13.5706C14.7438 13.5706 15.1181 13.2363 15.1181 12.796Z" fill="black"/>
<path d="M16.4201 15.3063V14.7438C16.4708 14.7566 16.585 14.7566 16.6421 14.7566C16.9593 14.7566 17.1306 14.6217 17.2353 14.2745C17.2353 14.2681 17.2956 14.0688 17.2956 14.0656L16.0902 10.681H16.8324L17.6763 13.4324H17.6889L18.5329 10.681H19.2561L18.0061 14.2391C17.7208 15.0588 17.3908 15.3224 16.6993 15.3224C16.6421 15.3224 16.4708 15.3159 16.4201 15.3063Z" fill="black"/>
</svg>
