<svg>
<path fill-rule="evenodd" clip-rule="evenodd" d="M5 2C3.34315 2 2 3.34315 2 5V19C2 20.6569 3.34315 22 5 22H19C20.6569 22 22 20.6569 22 19V5C22 3.34315 20.6569 2 19 2H5ZM16.1499 16.7344L16.0248 16.75L11 16.7491L10.8982 16.7423C10.5322 16.6926 10.25 16.3788 10.25 15.9991L10.2568 15.8973C10.3065 15.5313 10.6203 15.2491 11 15.2491H14.188L7.46967 8.52944L7.39705 8.44532C7.1792 8.15171 7.2034 7.73504 7.46967 7.46878C7.76256 7.17589 8.23744 7.17589 8.53033 7.46878L15.25 14.1884V10.9991L15.2568 10.8973C15.3065 10.5313 15.6203 10.2491 16 10.2491C16.4142 10.2491 16.75 10.5849 16.75 10.9991V15.9991L16.741 16.1192C16.7055 16.3513 16.5683 16.5334 16.3879 16.6412L16.2607 16.7024L16.1499 16.7344Z"/>
</svg>
