<svg>
  <title>iconTitle</title>
  <desc>iconDesc</desc>
  <style></style>
  <path d="M19.7803301,12.5303301 L14.5303301,17.7803301 C14.2374369,18.0732233 13.7625631,18.0732233 13.4696699,17.7803301 C13.2034034,17.5140635 13.1791973,17.0973998 13.3970518,16.8037883 L13.4696699,16.7196699 L17.44,12.75 L4.75,12.75 C4.37030423,12.75 4.05650904,12.4678461 4.00684662,12.1017706 L4,12 C4,11.6203042 4.28215388,11.306509 4.64822944,11.2568466 L4.75,11.25 L17.44,11.25 L13.4696699,7.28033009 C13.2034034,7.01406352 13.1791973,6.59739984 13.3970518,6.30378835 L13.4696699,6.21966991 C13.7359365,5.95340335 14.1526002,5.9291973 14.4462117,6.14705176 L14.5303301,6.21966991 L19.7803301,11.4696699 C20.0465966,11.7359365 20.0708027,12.1526002 19.8529482,12.4462117 L19.7803301,12.5303301 Z"/>
</svg>
