<svg>
  <title>iconTitle</title>
  <desc>iconDesc</desc>
  <style></style>
  <path d="M4.21966991,11.4696699 L9.46966991,6.21966991 C9.76256313,5.9267767 10.2374369,5.9267767 10.5303301,6.21966991 C10.7965966,6.48593648 10.8208027,6.90260016 10.6029482,7.19621165 L10.5303301,7.28033009 L6.56,11.25 L19.25,11.25 C19.6296958,11.25 19.943491,11.5321539 19.9931534,11.8982294 L20,12 C20,12.3796958 19.7178461,12.693491 19.3517706,12.7431534 L19.25,12.75 L6.56,12.75 L10.5303301,16.7196699 C10.7965966,16.9859365 10.8208027,17.4026002 10.6029482,17.6962117 L10.5303301,17.7803301 C10.2640635,18.0465966 9.84739984,18.0708027 9.55378835,17.8529482 L9.46966991,17.7803301 L4.21966991,12.5303301 C3.95340335,12.2640635 3.9291973,11.8473998 4.14705176,11.5537883 L4.21966991,11.4696699 L9.46966991,6.21966991 L4.21966991,11.4696699 Z"/>
</svg>
