<svg width="24" height="24" viewBox="0 0 24 24" xmlns="http://www.w3.org/2000/svg">
  <path d="M12.5303301,4.21966991 L17.7803301,9.46966991 C18.0732233,9.76256313 18.0732233,10.2374369 17.7803301,10.5303301 C17.5140635,10.7965966 17.0973998,10.8208027 16.8037883,10.6029482 L16.7196699,10.5303301 L12.75,6.56 L12.75,19.25 C12.75,19.6296958 12.4678461,19.943491 12.1017706,19.9931534 L12,20 C11.6203042,20 11.306509,19.7178461 11.2568466,19.3517706 L11.25,19.25 L11.25,6.56 L7.28033009,10.5303301 C7.01406352,10.7965966 6.59739984,10.8208027 6.30378835,10.6029482 L6.21966991,10.5303301 C5.95340335,10.2640635 5.9291973,9.84739984 6.14705176,9.55378835 L6.21966991,9.46966991 L11.4696699,4.21966991 C11.7359365,3.95340335 12.1526002,3.9291973 12.4462117,4.14705176 L12.5303301,4.21966991 L17.7803301,9.46966991 L12.5303301,4.21966991 Z"/>
</svg>
