<svg width="24" height="24" viewBox="0 0 24 24" xmlns="http://www.w3.org/2000/svg">
  <path d="M11.4696699,19.7803301 L6.21966991,14.5303301 C5.9267767,14.2374369 5.9267767,13.7625631 6.21966991,13.4696699 C6.48593648,13.2034034 6.90260016,13.1791973 7.19621165,13.3970518 L7.28033009,13.4696699 L11.25,17.44 L11.25,4.75 C11.25,4.37030423 11.5321539,4.05650904 11.8982294,4.00684662 L12,4 C12.3796958,4 12.693491,4.28215388 12.7431534,4.64822944 L12.75,4.75 L12.75,17.44 L16.7196699,13.4696699 C16.9859365,13.2034034 17.4026002,13.1791973 17.6962117,13.3970518 L17.7803301,13.4696699 C18.0465966,13.7359365 18.0708027,14.1526002 17.8529482,14.4462117 L17.7803301,14.5303301 L12.5303301,19.7803301 C12.2640635,20.0465966 11.8473998,20.0708027 11.5537883,19.8529482 L11.4696699,19.7803301 L6.21966991,14.5303301 L11.4696699,19.7803301 Z"/>
</svg>
