<svg xmlns="http://www.w3.org/2000/svg" width="301" height="91.906"><g fill="#00385f"><path d="M147.623 4.061L113.382 61.56c-3.57 5.912-5.527 11.894-6.068 17.652H93.91c.91-7.277 3.793-14.168 9.62-24.097l23.934-40.145c4.78-7.947 9.552-10.839 18.193-10.839h1.966v-.069zM157.618 34.97c-17.344 0-28.028 10.152-37.416 32.276-2.352 5.526-3.716 12.417 4.316 12.349 4.54-.077 12.195-2.583 17.575-6.3-.455 1.82-.686 4.326-.532 5.836h12.195c.454-4.771 2.274-10.675 6.282-17.875l15.232-25.368a167.857 167.857 0 00-17.652-.918m-12.65 29.392c-2.497 2.352-7.346 5.827-11.43 5.904-2.815-.146-2.961-2.797-1.073-6.436 7.208-13.86 14.855-21.205 24.166-21.136h1.673l-13.336 21.668zM282.916 34.97c-17.343 0-28.019 10.152-37.416 32.276-2.351 5.526-3.716 12.417 4.317 12.349 4.548-.077 12.194-2.583 17.575-6.3-.455 1.82-.687 4.326-.532 5.836h12.203c.446-4.771 2.266-10.675 6.282-17.875L300.5 35.888a167.64 167.64 0 00-17.584-.918m-12.65 29.392c-2.497 2.352-7.345 5.827-11.43 5.904-2.815-.146-2.96-2.797-1.064-6.436 7.2-13.86 14.846-21.205 24.166-21.136h1.673l-13.344 21.668z"/><path d="M243.299 91.406h-4.016c-5.15 0-9.698-3.484-11.054-8.41l-6.058-22.87-11.294 19.008H197.92l36.215-61.36c4.694-7.954 9.542-10.838 18.184-10.838h1.365l-24.098 40.686 18.03-12.426h14.478l-30.38 20.99 11.586 35.22zM123.759.5c-12.195 0-18.563 3.261-30.534 11.894l-40.6 29.247H26.64c-7.51 0-13.56.3-18.262 4.762l-6.737 6.222s19.54-.764 37.725-1.45L.5 79.22h16.82l39.776-28.715c7.724-.308 13.019-.454 13.104-.454 9.243-.24 14.392-8.41 14.392-8.41H69.368l32.113-23.188-23.857 38.635c-5.08 8.865-7.578 15.232-8.41 22.046h13.79c.524-5.758 2.498-11.74 6.05-17.652l32.508-54.236C123.827 3.53 125.802.5 125.802.5h-2.043zM188.45 47.392c-.154 1.141.31 1.897 2.653 3.407l3.715 2.42c4.017 2.66 5.673 6.677 5.158 9.929-1.373 9.088-8.041 16.434-22.278 16.434-6.222 0-9.02-.214-16.443-1.433l5.527-9.32c5.158.91 8.033 1.373 11.894 1.373 5.39 0 7.51-2.429 7.81-4.402.145-1.133-.387-2.498-2.953-4.248l-2.96-2.111c-4.694-3.407-5.982-6.059-5.372-10.23 1.21-8.024 10.52-14.245 23.402-14.245 4.093 0 8.487.231 13.336.764l-5.226 8.796c-3.193-.24-8.333-.541-11.972-.386-3.638.077-6.059 1.356-6.29 3.252"/></g></svg>