<svg xmlns="http://www.w3.org/2000/svg" viewBox="0 0 400 300"><path d="M44.949 130.842c1.9-1 4-1.5 6.2-1.5h28.8c-1.3 2.8-2.6 6.4-6.1 6.8-8.9.2-17.8 0-26.8.1-2.2 0-4.4 1.1-5.3 3.2-1.9 3.8-3.6 7.6-5.5 11.4h22.9c-.7 1.3-1.2 2.7-2.2 3.8-1.3 1-3 .8-4.5.9-5.9-.1-11.8.1-17.8-.1-2.1 4-3.9 8.2-6 12.2-.9 1.9-3 3.1-5.1 3.1-4.2 0-8.3.2-12.5-.1v-.2c.1 0 .2.1.3.1 3.6-7.8 7.3-15.4 11-23.1 1.8-3.9 4.9-7 8.7-9.1 4.6-2.7 9.3-5.1 13.9-7.5zm39.8 1.9c1-2 3.2-3.3 5.4-3.3 4.1-.1 8.1 0 12.2 0-6 12.6-12.1 25.2-18.2 37.8-.8 2.1-2.9 3.5-5.2 3.5-4.2.1-8.4 0-12.6 0 6.2-12.7 12.3-25.4 18.4-38zm33.9-3.2c1.3-.7 2.9.1 3.6 1.3l18 24.6c.7.9 1.2 1.9 1.7 2.9 3.8-7.6 7.4-15.3 11.1-22.9 1-1.9 1.6-4.2 3.6-5.2 2.8-1.5 6-.7 9-.9-6.7 13.8-13.3 27.5-20 41.3-3.4 0-6.8.1-10.1-.1-2.1-.1-3.7-1.6-4.9-3.2-4.7-6.2-9.3-12.4-14-18.6-1-1.3-2-2.6-2.7-4-3.8 7.5-7.3 15.2-11 22.8-.9 1.7-2.6 2.9-4.5 3-2.2.1-4.4 0-6.6 0 4.7-10.1 9.5-20.1 14.3-30.1 1.5-3.3 3.9-6.3 7.1-8.2 1.8-.9 3.5-1.8 5.4-2.7zm65 0c1.3-.7 2.8.1 3.6 1.2l18 24.6c.7.9 1.2 1.9 1.7 2.9 4.2-8.5 8.2-17.1 12.4-25.6.9-1.9 2.8-3.1 4.8-3.3 2.2-.2 4.3 0 6.5-.1-6.6 13.8-13.3 27.5-19.9 41.3-3.4-.1-6.8.1-10.2-.1-2.2-.1-3.9-1.9-5.1-3.6-5.3-7.1-10.7-14.1-15.9-21.3-.2-.1-.5-.4-.7-.6-3.4 7.3-6.9 14.5-10.4 21.7-.8 1.8-2.3 3.4-4.3 3.6-2.4.2-4.7 0-7.1.1 3.8-8.5 7.9-16.8 11.9-25.2 1.7-3.3 3-7 5.5-9.8 2.4-2.6 5.9-4.2 9.2-5.8zm71 1.4c1.9-1 4-1.6 6.1-1.5h13.6c3.3 0 6.5 1.2 9.1 3.3 2.9 2.2 5.9 4.4 8.8 6.6 1.3.9 1.4 2.6.7 3.9-4.4 9.2-8.8 18.3-13.2 27.4-3.8 0-7.5.1-11.3 0-2 .1-3.7-2.2-2.7-4 1.6-3.8 3.6-7.4 5.3-11.1h-26.7c-1.9 3.9-3.8 7.9-5.8 11.9-.9 1.8-2.7 3.3-4.8 3.3-4.3.1-8.6 0-12.8.1 3.7-7.8 7.5-15.6 11.2-23.4 1.8-3.8 4.9-7 8.6-9.1 4.6-2.6 9.3-5 13.9-7.4m-2.6 8.5c-1.9 3.8-3.6 7.6-5.5 11.4h26.7c1.8-3.8 3.6-7.5 5.4-11.2.3-.8 1-1.6.6-2.5-.7-1-2-.8-3.1-.9h-18.9c-2.2-.1-4.3 1.2-5.2 3.2zm56-5.4c.8-2.3 2.7-4.4 5.3-4.6 4.3-.2 8.6 0 13-.1-5.8 12.6-12 25-18 37.5-.8 2-2.7 3.7-4.9 3.8-4.3.1-8.7 0-13 0 5.9-12.2 11.7-24.4 17.6-36.6zm37.5-.3c3.5-1.6 6.9-4.3 11-4.3 4.7 0 9.5-.1 14.2 0 4.3.1 8 2.6 11.2 5.3 2.3 2 5.2 3.4 7.1 5.9v1.5c-1.1 2.8-2.4 5.6-3.8 8.2-1.6 2.8-5.1 3.7-8.1 4.1-5 .4-10-.1-15 .3.1.2.4.6.6.8 2.9 1.1 7 .1 8.7 3.2 2.4 4 4.8 8 7.3 12.1-4.9-.1-9.7 0-14.6-.1-1.9.1-3.6-.9-4.5-2.5-2.2-3.5-4.2-7.1-6.4-10.7-.8-1.4-2.1-2.6-3.8-2.8-2.8-.3-5.6 0-8.4-.1-2.1 4.1-4 8.2-6 12.3-.9 2-2.7 3.7-5 3.7-4.3.1-8.6 0-12.8.1 4-8.3 7.9-16.7 12-24.9 3.3-6.4 10.4-8.8 16.3-12.1m2.4 5.4c-1.8 3.6-3.5 7.2-5.3 10.8h21.5c2.4 0 5.3-.5 6.6-2.8 1.3-2.5 2.4-5 3.6-7.5.3-.8 1-1.7.5-2.6-.7-.9-2-.8-3-.8h-18.9c-2 0-4 1-5 2.9z" fill="#0b1560"/></svg>