<svg xmlns="http://www.w3.org/2000/svg" width="241.995" height="37.833"><g fill="#2E5C99"><path d="M.388 37.242c.53-.271.767-.914.767-1.464V22.285c0-.571-.237-1.195-.767-1.482h6.431c2.868 0 5.666 1.174 5.666 4.43 0 1.727-1.505 3.089-3.128 3.395 2.338-.021 4.597 1.407 4.597 3.987 0 3.687-3.867 4.628-6.587 4.628H.388zm5.206-15.023c-.298 0-.505 0-1.054.066v5.754h.651c1.971 0 3.876-.609 3.876-2.893 0-2.266-1.523-2.927-3.473-2.927zm.41 7.301c-.47 0-.892 0-1.464.043v6.076c.713.14 1.484.186 2.195.186 1.65 0 3.328-.736 3.328-3.257 0-2.488-1.984-3.048-4.059-3.048zm14.31-7.301c-.294 0-.553.048-.843.089v5.685c.269.019.513.047.779.047 1.85 0 3.219-1.021 3.219-3.033 0-2.056-1.346-2.788-3.155-2.788zm8.289 15.12c-.63 0-1.325.023-1.927-.155-1.119-.33-2.664-2.852-3.278-3.841-.955-1.608-1.785-3.823-3.926-3.847v6.282c0 .55.249 1.216.779 1.464h-4.937c.519-.271.766-.889.766-1.464V22.285c0-.571-.248-1.195-.766-1.482h5.944c2.586 0 5.822.993 5.822 4.1 0 2.607-2.157 3.943-4.562 3.943 3.422.02 5.432 8.047 9.21 8.07-1.013.3-2.069.423-3.125.423zm3.373-.097c.408-.187.835-.726.835-1.464V22.285c0-.749-.427-1.279-.835-1.482h5.059c-.434.203-.83.733-.83 1.482v13.493c0 .738.396 1.277.83 1.464h-5.059zm10.978 0c.542-.248.807-.889.807-1.464v-13.09h-3.633c-.838 0-1.837.103-2.557.53l1.129-2.416h12.05c.976 0 1.974-.021 2.922-.223-.459 1.237-1.825 2.154-2.612 2.154-.957-.022-2.54-.086-3.904-.086v13.13c0 .575.285 1.216.817 1.464h-5.019zm11.32 0c.404-.187.828-.726.828-1.464V22.285c0-.749-.424-1.279-.828-1.482h5.059c-.43.203-.842.733-.842 1.482v13.493c0 .738.412 1.277.842 1.464h-5.059zm14.909-3.719c0-3.131-7.375-3.838-7.375-8.836 0-3.094 2.943-4.107 5.531-4.107 1.155 0 2.826.16 3.882.646l.184 3.073c-.649-1.357-2.274-2.34-3.783-2.34-1.193 0-2.443.59-2.443 1.954 0 3.247 7.5 4.04 7.5 8.774 0 3.436-3.002 4.859-6.032 4.859-1.585 0-3.741-.305-5.078-1.219a11.696 11.696 0 01-.118-1.688c0-.671.059-1.344.158-2.006.834 1.901 2.56 3.388 4.716 3.388 1.638.001 2.858-.713 2.858-2.498zm15.8 3.719c.357-.161.739-.726.739-1.464v-6.117c-.88-.099-2.109-.142-3.488-.142-1.4 0-2.639.043-3.541.142v6.117c0 .738.372 1.277.734 1.464h-4.871c.361-.161.746-.726.746-1.464V22.285c0-.749-.385-1.301-.746-1.482h4.871c-.362.182-.734.733-.734 1.482v5.527c.902.095 2.119.141 3.541.141 1.379 0 2.608-.06 3.488-.141v-5.527c0-.749-.381-1.301-.739-1.482h4.864c-.364.182-.725.733-.725 1.482v13.493c0 .738.361 1.277.725 1.464h-4.864zM107.902 37.242c.157-.161.299-.281.299-.572 0-.098-.037-.262-.157-.568L106.536 32c-1.014-.125-2.071-.125-3.106-.125-.982 0-1.979.023-2.952.125-.138.368-1.585 4.022-1.585 4.022-.195.494-.262.663-.262.771 0 .244.21.363.388.449H95.71c.488-.248.911-.758 1.12-1.266l5.438-14.036a.5.5 0 00.034-.202c0-.387-.257-.754-.603-.936h4.266l5.531 15.16c.226.609.708 1.053 1.113 1.279h-4.707zm-4.295-13.31l-2.493 6.4c.743.082 1.514.101 2.266.101.862 0 1.714 0 2.552-.101l-2.325-6.4zm9.844 13.31c.408-.187.83-.726.83-1.464V22.285c0-.749-.422-1.279-.83-1.482h5.056c-.43.203-.831.733-.831 1.482v13.493c0 .738.4 1.277.831 1.464h-5.056zm12.742-15.023c-.273 0-.535.048-.819.089v5.685c.264.019.505.047.762.047 1.854 0 3.22-1.021 3.22-3.033-.001-2.056-1.352-2.788-3.163-2.788zm8.702 15.12c-.63 0-1.31.023-1.926-.155-1.121-.33-2.662-2.852-3.277-3.841-.951-1.608-2.189-3.847-4.318-3.847v6.282c0 .55.238 1.216.762 1.464h-4.933c.53-.271.777-.889.777-1.464V22.285c0-.571-.247-1.195-.777-1.482h5.957c2.579 0 5.81.993 5.81 4.1 0 2.607-2.357 3.943-4.141 3.943 3.547.204 5.686 8.07 9.205 8.07-1.02.3-2.076.423-3.139.423zm20.51-14.931l-4.996 14.834c-.412 0-.816-.142-1.045-.303-.494-.476-1.271-2.463-1.551-3.196l-2.258-5.704-3.252 9.203h-1.548l-5.591-14.871c-.24-.633-.65-1.24-1.26-1.568h4.859c-.205.159-.346.34-.346.686 0 .166.082.395.141.572l3.641 9.838 3.877-11.096 4.27 10.697 3.234-9.683c.08-.263.127-.36.127-.526 0-.201-.087-.329-.29-.488h3.218c-.595.312-1.025.993-1.23 1.605zm5.972 1.524l-2.492 6.4c.752.082 1.521.101 2.271.101.853 0 1.715 0 2.548-.101l-2.327-6.4zm4.29 13.31c.17-.161.299-.281.299-.572 0-.098-.05-.262-.149-.568 0 0-1.341-3.674-1.504-4.102-1.023-.125-2.078-.125-3.113-.125-.973 0-1.971.023-2.949.125-.141.368-1.578 4.022-1.578 4.022-.207.494-.264.663-.264.771 0 .244.201.363.377.449h-3.31c.489-.248.911-.758 1.116-1.266l5.457-14.036a.733.733 0 00.031-.202c0-.387-.258-.754-.613-.936h4.27l5.529 15.16c.229.609.717 1.053 1.119 1.279h-4.718zm14.855-14.713l-3.894 6.828v6.421c0 .522.214 1.216.734 1.464h-4.845c.495-.271.723-.959.723-1.464v-6.442l-3.385-5.423c-.303-.507-1.715-2.87-3.436-2.87.468-.178 1.891-.449 2.846-.449 1.593 0 2.382.146 3.357 1.673l3.132 4.964c.263-.487 2.743-4.799 2.743-4.799.299-.525.504-.896.504-1.08 0-.236-.102-.39-.342-.549h3.49c-.684.328-1.254 1.08-1.627 1.726zm9.115 10.994c0-3.131-7.376-3.838-7.376-8.836 0-3.094 2.935-4.107 5.524-4.107 1.159 0 2.82.16 3.881.646l.184 3.073c-.656-1.357-2.274-2.34-3.784-2.34-1.195 0-2.437.59-2.437 1.954 0 3.247 7.5 4.04 7.5 8.774 0 3.436-2.981 4.859-6.033 4.859-1.584 0-3.745-.305-5.084-1.219a10.905 10.905 0 01-.129-1.688c0-.671.064-1.344.166-2.006.833 1.901 2.565 3.388 4.721 3.388 1.645.001 2.867-.713 2.867-2.498z"/></g><linearGradient id="a" gradientUnits="userSpaceOnUse" x1="231.493" y1="5.96" x2="219.157" y2="27.326"><stop offset="0" stop-color="#e6ebef"/><stop offset=".076" stop-color="#bbcee5"/><stop offset=".185" stop-color="#85a9d8"/><stop offset=".28" stop-color="#5d8fcf"/><stop offset=".354" stop-color="#457ec9"/><stop offset=".4" stop-color="#3c78c7"/><stop offset=".9" stop-color="#2e5c99"/></linearGradient><path fill="url(#a)" d="M235.014 9.296c-2.764 2.747-8.752 5.105-11.698 6.209-4.025 1.512-5.811 2.047-8.063 2.78-2.549.827-7.648 2.37-7.648 2.37 10.563 3.154 18.007 4.105 18.007 4.105s3.468-1.072 8.962-4.01c2.975-1.512 4.439-2.53 5.486-3.503.386-.349 1.383-1.387 1.631-2.715.016-.097.064-.351.064-.601 0 0 0-.176-.016-.329-.006-.176-.037-.294-.037-.294s-.059-.315-.137-.536c-.081-.221-.421-.903-.972-1.346-.368-.299-1.004-1.044-3.308-1.854-.783-.272-2.051-.523-2.051-.523l-.22.247z"/><path fill="#CE210F" d="M241.754 13.861s-.016-.294-.088-.543a2.092 2.092 0 00-.304-.657 5.65 5.65 0 00-.782-.92 6.954 6.954 0 00-.926-.722c-1.441-.944-3.301-1.476-4.947-1.701-2.551-.339-5.477-.279-5.754-.289-.941-.013-7.021.037-8.584.065-6.941.143-15.438.162-17.664.162-22.979.105-32.981-.39-44.113-2.622-9.47-1.881-14.724-3.668-14.724-3.668 8.353-.289 57.091-2.311 65.982-2.547 5.821-.164 9.954-.199 13.261-.008 1.696.095 3.274.239 5.256.576 1.777.304 3.391.82 4.331 1.169 1.98.733 3.649 1.793 4.474 2.879 0 0 .244.25.575.694.371.516.802 1.151.948 1.388 1.205 1.826 1.777 2.973 1.976 3.373.215.42.405.856.59 1.283.181.424.255.681.313.86.127.449.158.858.164.95l.016.278z"/></svg>