<svg version="1.1" xmlns="http://www.w3.org/2000/svg" xmlns:xlink="http://www.w3.org/1999/xlink" viewBox="0 0 24 24">
  <title>iconTitle</title>
  <desc>iconDesc</desc>
  <style></style>
  <path fill="#626B79" fill-rule="evenodd" d="M19,4 C20.6568542,4 22,5.34314575 22,7 L22,16 C22,17.6568542 20.6568542,19 19,19 L5,19 C3.34314575,19 2,17.6568542 2,16 L2,7 C2,5.34314575 3.34314575,4 5,4 L19,4 Z M19,5.5 L5,5.5 C4.17157288,5.5 3.5,6.17157288 3.5,7 L3.5,16 C3.5,16.8284271 4.17157288,17.5 5,17.5 L19,17.5 C19.8284271,17.5 20.5,16.8284271 20.5,16 L20.5,7 C20.5,6.17157288 19.8284271,5.5 19,5.5 Z M6.5,13.75 C6.91421356,13.75 7.25,14.0857864 7.25,14.5 C7.25,14.8796958 6.96784612,15.193491 6.60177056,15.2431534 L6.5,15.25 L5.5,15.25 C5.08578644,15.25 4.75,14.9142136 4.75,14.5 C4.75,14.1203042 5.03215388,13.806509 5.39822944,13.7568466 L5.5,13.75 L6.5,13.75 Z M14.0390867,8.89705176 L14.1232051,8.96966991 L16.339,11.186 L18.8725,11.18675 C19.2521958,11.18675 19.565991,11.4689039 19.6156534,11.8349794 L19.6225,11.93675 C19.6225,12.3164458 19.3403461,12.630241 18.9742706,12.6799034 L18.8725,12.68675 L16.34,12.686 L14.1232051,14.9038301 C13.8569385,15.1700966 13.4402748,15.1943027 13.1466633,14.9764482 L13.0625449,14.9038301 C12.7962784,14.6375635 12.7720723,14.2208998 12.9899268,13.9272883 L13.0625449,13.8431699 L14.218,12.686 L12.3745,12.68675 C12.2153701,12.68675 12.0614542,12.6361787 11.9342391,12.5439362 L11.8441699,12.4670801 L10.2196699,10.8425801 C9.9267767,10.5496869 9.9267767,10.0748131 10.2196699,9.78191991 C10.4859365,9.51565335 10.9026002,9.4914473 11.1962117,9.70930176 L11.2803301,9.78191991 L12.6851602,11.18675 L14.218,11.186 L13.0625449,10.0303301 C12.8258635,9.7936487 12.7804398,9.43813502 12.9262738,9.15584123 L12.9899268,9.05378835 L13.0625449,8.96966991 C13.3288115,8.70340335 13.7454752,8.6791973 14.0390867,8.89705176 Z M8.5,10.75 C8.91421356,10.75 9.25,11.0857864 9.25,11.5 C9.25,11.8796958 8.96784612,12.193491 8.60177056,12.2431534 L8.5,12.25 L5.5,12.25 C5.08578644,12.25 4.75,11.9142136 4.75,11.5 C4.75,11.1203042 5.03215388,10.806509 5.39822944,10.7568466 L5.5,10.75 L8.5,10.75 Z M8.5,7.75 C8.91421356,7.75 9.25,8.08578644 9.25,8.5 C9.25,8.87969577 8.96784612,9.19349096 8.60177056,9.24315338 L8.5,9.25 L5.5,9.25 C5.08578644,9.25 4.75,8.91421356 4.75,8.5 C4.75,8.12030423 5.03215388,7.80650904 5.39822944,7.75684662 L5.5,7.75 L8.5,7.75 Z"/>
</svg>
