<svg version="1.1" xmlns="http://www.w3.org/2000/svg" xmlns:xlink="http://www.w3.org/1999/xlink" viewBox="0 0 24 24">
  <title>iconTitle</title>
  <desc>iconDesc</desc>
  <style></style>
  <path d="M19,4 C20.6568542,4 22,5.34314575 22,7 L22,16 C22,17.6568542 20.6568542,19 19,19 L5,19 C3.34314575,19 2,17.6568542 2,16 L2,7 C2,5.34314575 3.34314575,4 5,4 L19,4 Z M6.5,13.75 L5.5,13.75 L5.39822944,13.7568466 C5.03215388,13.806509 4.75,14.1203042 4.75,14.5 C4.75,14.8796958 5.03215388,15.193491 5.39822944,15.2431534 L5.5,15.25 L6.5,15.25 L6.60177056,15.2431534 C6.96784612,15.193491 7.25,14.8796958 7.25,14.5 C7.25,14.1203042 6.96784612,13.806509 6.60177056,13.7568466 L6.5,13.75 Z M14.1232051,8.96966991 L14.0390867,8.89705176 C13.7780987,8.70340335 13.4198842,8.70101263 13.1564956,8.8898796 L13.0625449,8.96966991 L12.9899268,9.05378835 L12.9262738,9.15584123 C12.7966436,9.40676904 12.8181306,9.71554961 12.9907347,9.94729854 L13.0625449,10.0303301 L14.218,11.186 L12.6851602,11.18675 L11.2803301,9.78191991 L11.1962117,9.70930176 C10.9026002,9.4914473 10.4859365,9.51565335 10.2196699,9.78191991 C9.95340335,10.0481865 9.9291973,10.4648502 10.1470518,10.7584617 L10.2196699,10.8425801 L11.8441699,12.4670801 L11.9342391,12.5439362 C12.0296505,12.6131181 12.140081,12.6588599 12.2564659,12.6774069 L12.3745,12.68675 L14.218,12.686 L13.0625449,13.8431699 L12.9899268,13.9272883 C12.7962784,14.1882763 12.7938876,14.5464908 12.9827546,14.8098794 L13.0625449,14.9038301 L13.1466633,14.9764482 C13.4076513,15.1700966 13.7658658,15.1724874 14.0292544,14.9836204 L14.1232051,14.9038301 L16.34,12.686 L18.8725,12.68675 L18.9742706,12.6799034 C19.3070665,12.6347557 19.5705057,12.3713165 19.6156534,12.0385206 L19.6225,11.93675 L19.6156534,11.8349794 C19.5705057,11.5021835 19.3070665,11.2387443 18.9742706,11.1935966 L18.8725,11.18675 L16.339,11.186 L14.1232051,8.96966991 L14.0390867,8.89705176 L14.1232051,8.96966991 Z M8.5,10.75 L5.5,10.75 L5.39822944,10.7568466 C5.03215388,10.806509 4.75,11.1203042 4.75,11.5 C4.75,11.8796958 5.03215388,12.193491 5.39822944,12.2431534 L5.5,12.25 L8.5,12.25 L8.60177056,12.2431534 C8.96784612,12.193491 9.25,11.8796958 9.25,11.5 C9.25,11.1203042 8.96784612,10.806509 8.60177056,10.7568466 L8.5,10.75 Z M8.5,7.75 L5.5,7.75 L5.39822944,7.75684662 C5.03215388,7.80650904 4.75,8.12030423 4.75,8.5 C4.75,8.87969577 5.03215388,9.19349096 5.39822944,9.24315338 L5.5,9.25 L8.5,9.25 L8.60177056,9.24315338 C8.96784612,9.19349096 9.25,8.87969577 9.25,8.5 C9.25,8.12030423 8.96784612,7.80650904 8.60177056,7.75684662 L8.5,7.75 Z"/>
</svg>
