<svg width="24" height="24" viewBox="0 0 24 24" xmlns="http://www.w3.org/2000/svg">
  <g>
    <g transform="translate(3.500000, 3.000000)">
      <path d="M15.9194,7.6699 C15.6644,5.9789 14.5734,4.9689 13.0004,4.9689 C11.6544,4.9689 10.6664,5.7119 10.2454,7.0019 C9.6204,6.4229 8.7924,6.0609 7.8754,6.0609 C6.6294,6.0609 5.5414,6.7199 4.9204,7.7029 C4.3934,7.2619 3.7234,6.9979 3.0004,6.9979 C1.3454,6.9979 0.0004,8.3439 0.0004,9.9979 C0.0004,11.8299 1.3814,16.0149 1.5384,16.4849 C1.6434,16.7999 1.9364,16.9979 2.2504,16.9979 C2.3284,16.9979 2.4084,16.9849 2.4874,16.9589 C2.8804,16.8279 3.0924,16.4029 2.9614,16.0109 C2.5544,14.7939 1.5004,11.3429 1.5004,9.9979 C1.5004,9.1709 2.1724,8.4979 3.0004,8.4979 C3.6124,8.4979 4.1444,8.8729 4.3754,9.4319 L4.3754,13.4979 C4.3754,13.9119 4.7114,14.2479 5.1254,14.2479 L5.8754,14.2479 L5.8754,17.4979 C5.8754,17.9119 6.2114,18.2479 6.6254,18.2479 C7.0394,18.2479 7.3754,17.9119 7.3754,17.4979 L7.3754,13.4979 C7.3754,13.0839 7.0394,12.7479 6.6254,12.7479 L5.8754,12.7479 L5.8754,9.5609 C5.8754,8.4579 6.7724,7.5609 7.8754,7.5609 C8.9724,7.5609 9.8644,8.4489 9.8734,9.5449 L9.2544,15.1659 C9.2314,15.3779 9.2994,15.5899 9.4414,15.7479 C9.5834,15.9069 9.7864,15.9979 10.0004,15.9979 L11.0004,15.9979 L11.0004,18.2479 C11.0004,18.6619 11.3364,18.9979 11.7504,18.9979 C12.1644,18.9979 12.5004,18.6619 12.5004,18.2479 L12.5004,15.2479 C12.5004,14.8339 12.1644,14.4979 11.7504,14.4979 L10.8364,14.4979 L11.5644,7.8929 C11.7784,6.4689 12.6974,6.4689 13.0004,6.4689 C13.3024,6.4689 14.2214,6.4689 14.4324,7.8629 L15.1634,14.4979 L14.2504,14.4979 C13.8364,14.4979 13.5004,14.8339 13.5004,15.2479 L13.5004,18.2479 C13.5004,18.6619 13.8364,18.9979 14.2504,18.9979 C14.6644,18.9979 15.0004,18.6619 15.0004,18.2479 L15.0004,15.9979 L16.0004,15.9979 C16.2134,15.9979 16.4164,15.9069 16.5584,15.7479 C16.7004,15.5899 16.7694,15.3779 16.7454,15.1659 L15.9194,7.6699 Z"></path>
      <path d="M13,3.75 C14.036,3.75 14.875,2.91 14.875,1.875 C14.875,0.84 14.036,0 13,0 C11.964,0 11.125,0.84 11.125,1.875 C11.125,2.91 11.964,3.75 13,3.75"></path>
      <path d="M7.75,4.9843 C8.716,4.9843 9.5,4.2013 9.5,3.2343 C9.5,2.2673 8.716,1.4843 7.75,1.4843 C6.784,1.4843 6,2.2673 6,3.2343 C6,4.2013 6.784,4.9843 7.75,4.9843"></path>
      <path d="M3,5.748 C3.829,5.748 4.5,5.076 4.5,4.248 C4.5,3.42 3.829,2.748 3,2.748 C2.171,2.748 1.5,3.42 1.5,4.248 C1.5,5.076 2.171,5.748 3,5.748"></path>
    </g>
  </g>
</svg>
