<svg width="24" height="24" viewBox="0 0 24 24" xmlns="http://www.w3.org/2000/svg">
  <path d="M17,3 C17.3796958,3 17.693491,3.28215388 17.7431534,3.64822944 L17.75,3.75 L17.75,4.583 L18,4.58333333 C19.6568542,4.58333333 21,5.92647908 21,7.58333333 L21,17.5833333 C21,19.1810142 19.75108,20.4869942 18.1762728,20.5782406 L18,20.5833333 L6,20.5833333 C4.34314575,20.5833333 3,19.2401876 3,17.5833333 L3,7.58333333 C3,5.92647908 4.34314575,4.58333333 6,4.58333333 L6.25,4.583 L6.25,3.75 C6.25,3.37030423 6.53215388,3.05650904 6.89822944,3.00684662 L7,3 C7.37969577,3 7.69349096,3.28215388 7.74315338,3.64822944 L7.75,3.75 L7.75,4.583 L16.25,4.583 L16.25,3.75 C16.25,3.40482203 16.483185,3.11410734 16.8006203,3.02679072 L16.8982294,3.00684662 L17,3 Z M14.9696699,11.8030032 L11,15.7726732 L9.03033009,13.8030032 C8.73743687,13.51011 8.26256313,13.51011 7.96966991,13.8030032 C7.6767767,14.0958965 7.6767767,14.5707702 7.96966991,14.8636634 L10.4696699,17.3636634 C10.7625631,17.6565566 11.2374369,17.6565566 11.5303301,17.3636634 L16.0303301,12.8636634 C16.3232233,12.5707702 16.3232233,12.0958965 16.0303301,11.8030032 C15.7374369,11.51011 15.2625631,11.51011 14.9696699,11.8030032 Z M16.25,6.083 L7.75,6.083 L7.75,6.41666667 C7.75,6.79636243 7.46784612,7.11015763 7.10177056,7.15982005 L7,7.16666667 C6.62030423,7.16666667 6.30650904,6.88451279 6.25684662,6.51843722 L6.25,6.41666667 L6.25,6.083 L6,6.08333333 C5.22030388,6.08333333 4.57955132,6.67822142 4.50686658,7.43887332 L4.5,7.58333333 L4.5,8.583 L19.5,8.583 L19.5,7.58333333 C19.5,6.75490621 18.8284271,6.08333333 18,6.08333333 L17.75,6.083 L17.75,6.41666667 C17.75,6.79636243 17.4678461,7.11015763 17.1017706,7.15982005 L17,7.16666667 C16.6203042,7.16666667 16.306509,6.88451279 16.2568466,6.51843722 L16.25,6.41666667 L16.25,6.083 Z"/>
</svg>
