<svg>
<path fill-rule="evenodd" clip-rule="evenodd" d="M17 2.5L17.1018 2.50685C17.4013 2.54748 17.6446 2.76493 17.7232 3.05062L17.7432 3.14823L17.75 3.25V4.583L18 4.58333C19.6569 4.58333 21 5.92648 21 7.58333V17.5833C21 19.181 19.7511 20.487 18.1763 20.5782L18 20.5833H6C4.34315 20.5833 3 19.2402 3 17.5833V7.58333C3 5.92648 4.34315 4.58333 6 4.58333L6.25 4.583V3.25C6.25 2.8703 6.53215 2.55651 6.89823 2.50685L7 2.5C7.10355 2.5 7.20221 2.52099 7.29193 2.55894L7.3892 2.60876L7.44609 2.64703L7.5033 2.69394L7.57361 2.76678L7.63244 2.84669L7.66843 2.90949L7.69593 2.96984L7.71422 3.02045L7.72 3.03929C7.73031 3.07458 7.7381 3.11097 7.74315 3.14823L7.75 3.25V4.583H16.25V3.25L16.2568 3.14823L16.2665 3.09302L16.2858 3.02047L16.3314 2.90978L16.3675 2.84677L16.4393 2.75182L16.4967 2.69394L16.5539 2.647L16.6108 2.60876C16.6961 2.55695 16.7923 2.52168 16.8951 2.50728L17 2.5ZM19.5 10.083H4.5V17.5833C4.5 18.363 5.09489 19.0038 5.85554 19.0765L6 19.0833H18C18.7797 19.0833 19.4204 18.4884 19.4931 17.7278L19.5 17.5833V10.083ZM10.5 15.3333C11.0523 15.3333 11.5 15.781 11.5 16.3333C11.5 16.8856 11.0523 17.3333 10.5 17.3333C9.94772 17.3333 9.5 16.8856 9.5 16.3333C9.5 15.781 9.94772 15.3333 10.5 15.3333ZM7.5 15.3333C8.05228 15.3333 8.5 15.781 8.5 16.3333C8.5 16.8856 8.05228 17.3333 7.5 17.3333C6.94772 17.3333 6.5 16.8856 6.5 16.3333C6.5 15.781 6.94772 15.3333 7.5 15.3333ZM13.5 15.3333C14.0523 15.3333 14.5 15.781 14.5 16.3333C14.5 16.8856 14.0523 17.3333 13.5 17.3333C12.9477 17.3333 12.5 16.8856 12.5 16.3333C12.5 15.781 12.9477 15.3333 13.5 15.3333ZM13.5 11.8333C14.0523 11.8333 14.5 12.281 14.5 12.8333C14.5 13.3856 14.0523 13.8333 13.5 13.8333C12.9477 13.8333 12.5 13.3856 12.5 12.8333C12.5 12.281 12.9477 11.8333 13.5 11.8333ZM10.5 11.8333C11.0523 11.8333 11.5 12.281 11.5 12.8333C11.5 13.3856 11.0523 13.8333 10.5 13.8333C9.94772 13.8333 9.5 13.3856 9.5 12.8333C9.5 12.281 9.94772 11.8333 10.5 11.8333ZM16.5 11.8333C17.0523 11.8333 17.5 12.281 17.5 12.8333C17.5 13.3856 17.0523 13.8333 16.5 13.8333C15.9477 13.8333 15.5 13.3856 15.5 12.8333C15.5 12.281 15.9477 11.8333 16.5 11.8333Z"/>
</svg>
