<svg version="1.1" xmlns="http://www.w3.org/2000/svg" xmlns:xlink="http://www.w3.org/1999/xlink" viewBox="0 0 24 24">
  <title>iconTitle</title>
  <desc>iconDesc</desc>
  <style></style>
  <path fill="#626B79" fill-rule="evenodd" d="M17,3 L17.1017706,3.00684662 C17.4012869,3.04747951 17.6446243,3.26492855 17.7232093,3.55062029 L17.7431534,3.64822944 L17.75,3.75 L17.75,4.583 L18,4.58333333 C19.6568542,4.58333333 21,5.92647908 21,7.58333333 L21,17.5833333 C21,19.1810142 19.75108,20.4869942 18.1762728,20.5782406 L18,20.5833333 L6,20.5833333 C4.34314575,20.5833333 3,19.2401876 3,17.5833333 L3,7.58333333 C3,5.92647908 4.34314575,4.58333333 6,4.58333333 L6.25,4.583 L6.25,3.75 C6.25,3.37030423 6.53215388,3.05650904 6.89822944,3.00684662 L7,3 C7.10355339,3 7.20220509,3.02098665 7.29193385,3.05893872 L7.38920366,3.10876324 L7.44609046,3.14702619 L7.44609046,3.14702619 L7.50329567,3.19394057 L7.5736094,3.26678454 L7.5736094,3.26678454 L7.63243781,3.34668521 L7.63243781,3.34668521 L7.6684258,3.40949102 L7.6684258,3.40949102 L7.69592741,3.46984204 L7.69592741,3.46984204 L7.71421797,3.52044725 L7.71421797,3.52044725 L7.71999647,3.53929158 C7.73030811,3.57458142 7.73809881,3.61097076 7.74315338,3.64822944 L7.75,3.75 L7.75,4.583 L16.25,4.583 L16.25,3.75 L16.2568466,3.64822944 L16.2664544,3.59301955 L16.2664544,3.59301955 L16.2857727,3.52047336 L16.2857727,3.52047336 L16.3314272,3.40977908 L16.3314272,3.40977908 L16.3675064,3.34677256 L16.3675064,3.34677256 L16.4393475,3.25182253 L16.4393475,3.25182253 L16.4967043,3.19394057 L16.5539459,3.14700104 L16.5539459,3.14700104 L16.6107963,3.10876324 C16.6960707,3.05694923 16.7922685,3.02167691 16.8951068,3.00727913 L17,3 Z M19.5,10.083 L4.5,10.083 L4.5,17.5833333 C4.5,18.3630295 5.09488808,19.003782 5.85553999,19.0764668 L6,19.0833333 L18,19.0833333 C18.7796961,19.0833333 19.4204487,18.4884453 19.4931334,17.7277933 L19.5,17.5833333 L19.5,10.083 Z M10.5,15.3333333 C11.0522847,15.3333333 11.5,15.7810486 11.5,16.3333333 C11.5,16.8856181 11.0522847,17.3333333 10.5,17.3333333 C9.94771525,17.3333333 9.5,16.8856181 9.5,16.3333333 C9.5,15.7810486 9.94771525,15.3333333 10.5,15.3333333 Z M7.5,15.3333333 C8.05228475,15.3333333 8.5,15.7810486 8.5,16.3333333 C8.5,16.8856181 8.05228475,17.3333333 7.5,17.3333333 C6.94771525,17.3333333 6.5,16.8856181 6.5,16.3333333 C6.5,15.7810486 6.94771525,15.3333333 7.5,15.3333333 Z M13.5,15.3333333 C14.0522847,15.3333333 14.5,15.7810486 14.5,16.3333333 C14.5,16.8856181 14.0522847,17.3333333 13.5,17.3333333 C12.9477153,17.3333333 12.5,16.8856181 12.5,16.3333333 C12.5,15.7810486 12.9477153,15.3333333 13.5,15.3333333 Z M13.5,11.8333333 C14.0522847,11.8333333 14.5,12.2810486 14.5,12.8333333 C14.5,13.3856181 14.0522847,13.8333333 13.5,13.8333333 C12.9477153,13.8333333 12.5,13.3856181 12.5,12.8333333 C12.5,12.2810486 12.9477153,11.8333333 13.5,11.8333333 Z M10.5,11.8333333 C11.0522847,11.8333333 11.5,12.2810486 11.5,12.8333333 C11.5,13.3856181 11.0522847,13.8333333 10.5,13.8333333 C9.94771525,13.8333333 9.5,13.3856181 9.5,12.8333333 C9.5,12.2810486 9.94771525,11.8333333 10.5,11.8333333 Z M16.5,11.8333333 C17.0522847,11.8333333 17.5,12.2810486 17.5,12.8333333 C17.5,13.3856181 17.0522847,13.8333333 16.5,13.8333333 C15.9477153,13.8333333 15.5,13.3856181 15.5,12.8333333 C15.5,12.2810486 15.9477153,11.8333333 16.5,11.8333333 Z M16.25,6.083 L7.75,6.083 L7.75,6.41666667 C7.75,6.79636243 7.46784612,7.11015763 7.10177056,7.15982005 L7,7.16666667 C6.62030423,7.16666667 6.30650904,6.88451279 6.25684662,6.51843722 L6.25,6.41666667 L6.25,6.083 L6,6.08333333 C5.22030388,6.08333333 4.57955132,6.67822142 4.50686658,7.43887332 L4.5,7.58333333 L4.5,8.583 L19.5,8.583 L19.5,7.58333333 C19.5,6.75490621 18.8284271,6.08333333 18,6.08333333 L17.75,6.083 L17.75,6.41666667 C17.75,6.79636243 17.4678461,7.11015763 17.1017706,7.15982005 L17,7.16666667 C16.6203042,7.16666667 16.306509,6.88451279 16.2568466,6.51843722 L16.25,6.41666667 L16.25,6.083 Z"/>
</svg>
