<svg width="19" height="27" viewBox="0 0 19 27" fill="none" xmlns="http://www.w3.org/2000/svg">
<path d="M16.5642 0.181641H11.0467C10.5893 0.181962 10.1431 0.323094 9.76866 0.585864L6.83502 4.58831L0.956055 8.72075V26.1816H18.5835V2.19875C18.5834 1.93369 18.5311 1.67123 18.4296 1.42639C18.3281 1.18154 18.1793 0.959092 17.9918 0.771767C17.8043 0.584442 17.5816 0.435911 17.3367 0.334654C17.0917 0.233397 16.8292 0.181402 16.5642 0.181641ZM8.91932 4.58831L10.6531 2.2254C10.9158 2.04163 11.2289 1.94344 11.5495 1.94423H15.4172C15.602 1.94399 15.7851 1.98035 15.9558 2.05121C16.1265 2.12208 16.2815 2.22604 16.4118 2.35712C16.5422 2.48819 16.6453 2.64377 16.7151 2.81488C16.785 2.986 16.8203 3.16926 16.819 3.35409V4.58831H8.91932Z" fill="#626B79"/>
<path d="M4.33029 4.43131L1.0498 6.66064L1.54526 7.38971L4.82574 5.16038L4.33029 4.43131Z" fill="#626B79"/>
<path d="M10.5387 8.12744C7.15006 11.8699 4.84668 14.4176 4.84668 17.318C4.84682 18.341 5.14579 19.3416 5.70685 20.197C6.26792 21.0524 7.06664 21.7252 8.00488 22.1329C7.71705 21.7126 7.56338 21.2149 7.56414 20.7055C7.56414 19.3059 8.67567 18.0764 10.3108 16.2707C10.045 18.9579 12.6325 19.3059 12.6321 20.7055C12.6324 21.215 12.4787 21.7127 12.191 22.1333C13.1292 21.7254 13.9279 21.0525 14.489 20.197C15.0501 19.3416 15.3492 18.341 15.3496 17.318C15.3507 14.4168 9.9873 13.6957 10.5387 8.12744Z" fill="white"/>
</svg>
