<svg>
<path fill-rule="evenodd" clip-rule="evenodd" d="M5.75 4.75C5.75 4.06021 6.31021 3.5 7 3.5C7.68979 3.5 8.25 4.06021 8.25 4.75C8.25 5.43979 7.68979 6 7 6C6.31021 6 5.75 5.43979 5.75 4.75ZM7 2C5.48179 2 4.25 3.23179 4.25 4.75C4.25 6.26821 5.48179 7.5 7 7.5C8.25823 7.5 9.31973 6.65396 9.64639 5.5H17.25V6.75C17.25 7.16421 17.5858 7.5 18 7.5C18.4142 7.5 18.75 7.16421 18.75 6.75V5.5H19C19.4142 5.5 19.75 5.16421 19.75 4.75C19.75 4.33579 19.4142 4 19 4H18.75H17.25H9.64639C9.31973 2.84604 8.25823 2 7 2ZM7.56666 8.50012C6.73571 8.50012 5.97241 8.9581 5.58137 9.69129L3.51471 13.5662C3.34091 13.8921 3.25 14.2557 3.25 14.625V15.75V17.75V17.75C3.25 18.9082 4.12501 19.8619 5.25 19.9863V21.25C5.25 21.6642 5.58579 22 6 22C6.41421 22 6.75 21.6642 6.75 21.25V20H12H17.25V21.25C17.25 21.6642 17.5858 22 18 22C18.4142 22 18.75 21.6642 18.75 21.25V19.9863C19.7995 19.8703 20.6315 19.0325 20.7384 17.9802C20.7461 17.9045 20.75 17.8278 20.75 17.7501V17.75V17.7429V17.7356V17.7284V17.7211V17.7139V17.7066V17.6994V17.6921V17.6848V17.6776V17.6703V17.6631V17.6558V17.6486V17.6413V17.634V17.6268V17.6195V17.6122V17.605V17.5977V17.5905V17.5832V17.5759V17.5687V17.5614V17.5542V17.5469V17.5396V17.5324V17.5251V17.5178V17.5106V17.5033V17.4961V17.4888V17.4815V17.4743V17.467V17.4597V17.4525V17.4452V17.438V17.4307V17.4234V17.4162V17.4089V17.4017V17.3944V17.3872V17.3799V17.3727V17.3654V17.3582V17.3509V17.3437V17.3364V17.3292V17.3219V17.3147V17.3074V17.3002V17.2929V17.2857V17.2784V17.2712V17.264V17.2567V17.2495V17.2423V17.235V17.2278V17.2206V17.2133V17.2061V17.1989V17.1916V17.1844V17.1772V17.17V17.1628V17.1555V17.1483V17.1411V17.1339V17.1267V17.1195V17.1123V17.1051V17.0979V17.0907V17.0835V17.0763V17.0691V17.0619V17.0547V17.0475V17.0403V17.0331V17.0259V17.0188V17.0116V17.0044V16.9972V16.9901V16.9829V16.9757V16.9686V16.9614V16.9543V16.9471V16.9399V16.9328V16.9256V16.9185V16.9114V16.9042V16.8971V16.89V16.8828V16.8757V16.8686V16.8614V16.8543V16.8472V16.8401V16.833V16.8259V16.8188V16.8117V16.8046V16.7975V16.7904V16.7833V16.7762V16.7691V16.7621V16.755V16.7479V16.7409V16.7338V16.7267V16.7197V16.7126V16.7056V16.6985V16.6915V16.6844V16.6774V16.6704V16.6634V16.6563V16.6493V16.6423V16.6353V16.6283V16.6213V16.6143V16.6073V16.6003V16.5933V16.5863V16.5793V16.5724V16.5654V16.5584V16.5515V16.5445V16.5376V16.5306V16.5237V16.5167V16.5098V16.5029V16.4959V16.489V16.4821V16.4752V16.4683V16.4614V16.4545V16.4476V16.4407V16.4338V16.4269V16.4201V16.4132V16.4063V16.3995V16.3926V16.3858V16.3789V16.3721V16.3653V16.3584V16.3516V16.3448V16.338V16.3312V16.3244V16.3176V16.3108V16.304V16.2972V16.2905V16.2837V16.2769V16.2702V16.2634V16.2567V16.2499V16.2432V16.2365V16.2297V16.223V16.2163V16.2096V16.2029V16.1962V16.1895V16.1828V16.1762V16.1695V16.1628V16.1562V16.1495V16.1429V16.1362V16.1296V16.123V16.1164V16.1098V16.1032V16.0966V16.09V16.0834V16.0768V16.0702V16.0636V16.0571V16.0505V16.044V16.0374V16.0309V16.0244V16.0179V16.0113V16.0048V15.9983V15.9918V15.9854V15.9789V15.9724V15.9659V15.9595V15.953V15.9466V15.9402V15.9337V15.9273V15.9209V15.9145V15.9081V15.9017V15.8953V15.8889V15.8826V15.8762V15.8698V15.8635V15.8571V15.8508V15.8445V15.8382V15.8319V15.8256V15.8193V15.813V15.8067V15.8004V15.7942V15.7879V15.7817V15.7754V15.7692V15.763V15.7568V15.7505V15.75V15.7443V15.7382V15.732V15.7258V15.7196V15.7135V15.7073V15.7012V15.6951V15.6889V15.6828V15.6767V15.6706V15.6645V15.6584V15.6524V15.6463V15.6402V15.6342V15.6282V15.6221V15.6161V15.6101V15.6041V15.5981V15.5921V15.5861V15.5802V15.5742V15.5683V15.5623V15.5564V15.5505V15.5446V15.5387V15.5328V15.5269V15.521V15.5151V15.5093V15.5034V15.4976V15.4918V15.486V15.4801V15.4743V15.4686V15.4628V15.457V15.4512V15.4455V15.4397V15.434V15.4283V15.4226V15.4169V15.4112V15.4055V15.3998V15.3942V15.3885V15.3829V15.3772V15.3716V15.366V15.3604V15.3548V15.3492V15.3437V15.3381V15.3325V15.327V15.3215V15.316V15.3104V15.3049V15.2995V15.294V15.2885V15.2831V15.2776V15.2722V15.2667V15.2613V15.2559V15.2505V15.2452V15.2398V15.2344V15.2291V15.2237V15.2184V15.2131V15.2078V15.2025V15.1972V15.1919V15.1867V15.1814V15.1762V15.171V15.1658V15.1606V15.1554V15.1502V15.145V15.1399V15.1347V15.1296V15.1245V15.1193V15.1142V15.1092V15.1041V15.099V15.094V15.0889V15.0839V15.0789V15.0739V15.0689V15.0639V15.0589V15.054V15.049V15.0441V15.0392V15.0342V15.0293V15.0245V15.0196V15.0147V15.0099V15.005V15.0002V14.9954V14.9906V14.9858V14.981V14.9763V14.9715V14.9668V14.9621V14.9574V14.9527V14.948V14.9433V14.9386V14.934V14.9293V14.9247V14.9201V14.9155V14.9109V14.9064V14.9018V14.8973V14.8927V14.8882V14.8837V14.8792V14.8747V14.8703V14.8658V14.8614V14.8569V14.8525V14.8481V14.8437V14.8394V14.835V14.8307V14.8263V14.822V14.8177V14.8134V14.8091V14.8049V14.8006V14.7964V14.7922V14.788V14.7838V14.7796V14.7754V14.7713V14.7671V14.763V14.7589V14.7548V14.7507V14.7466V14.7426V14.7385V14.7345V14.7305V14.7265V14.7225V14.7185V14.7146V14.7106V14.7067V14.7028V14.6989V14.695V14.6912V14.6873V14.6835V14.6796V14.6758V14.672V14.6683V14.6645V14.6607V14.657V14.6533V14.6496V14.6459V14.6422V14.6385V14.6349V14.6313V14.6277V14.6241C20.75 14.2542 20.6588 13.8916 20.4853 13.5662L18.4186 9.69128C18.0276 8.9581 17.2643 8.50012 16.4333 8.50012H7.56666ZM6.75 18.5H5.5C5.08579 18.5 4.75 18.1642 4.75 17.75V15.75C4.75 15.3358 5.08579 15 5.5 15L18.5 15C18.9142 15 19.25 15.3358 19.25 15.75V15.7505V15.7568V15.763V15.7692V15.7754V15.7817V15.7879V15.7942V15.8004V15.8067V15.813V15.8193V15.8256V15.8319V15.8382V15.8445V15.8508V15.8571V15.8635V15.8698V15.8762V15.8826V15.8889V15.8953V15.9017V15.9081V15.9145V15.9209V15.9273V15.9337V15.9402V15.9466V15.953V15.9595V15.9659V15.9724V15.9789V15.9854V15.9918V15.9983V16.0048V16.0113V16.0179V16.0244V16.0309V16.0374V16.044V16.0505V16.0571V16.0636V16.0702V16.0768V16.0834V16.09V16.0966V16.1032V16.1098V16.1164V16.123V16.1296V16.1362V16.1429V16.1495V16.1562V16.1628V16.1695V16.1762V16.1828V16.1895V16.1962V16.2029V16.2096V16.2163V16.223V16.2297V16.2365V16.2432V16.2499V16.2567V16.2634V16.2702V16.2769V16.2837V16.2905V16.2972V16.304V16.3108V16.3176V16.3244V16.3312V16.338V16.3448V16.3516V16.3584V16.3653V16.3721V16.3789V16.3858V16.3926V16.3995V16.4063V16.4132V16.4201V16.4269V16.4338V16.4407V16.4476V16.4545V16.4614V16.4683V16.4752V16.4821V16.489V16.4959V16.5029V16.5098V16.5167V16.5237V16.5306V16.5376V16.5445V16.5515V16.5584V16.5654V16.5724V16.5793V16.5863V16.5933V16.6003V16.6073V16.6143V16.6213V16.6283V16.6353V16.6423V16.6493V16.6563V16.6634V16.6704V16.6774V16.6844V16.6915V16.6985V16.7056V16.7126V16.7197V16.7267V16.7338V16.7409V16.7479V16.755V16.7621V16.7691V16.7762V16.7833V16.7904V16.7975V16.8046V16.8117V16.8188V16.8259V16.833V16.8401V16.8472V16.8543V16.8614V16.8686V16.8757V16.8828V16.89V16.8971V16.9042V16.9114V16.9185V16.9256V16.9328V16.9399V16.9471V16.9543V16.9614V16.9686V16.9757V16.9829V16.9901V16.9972V17.0044V17.0116V17.0188V17.0259V17.0331V17.0403V17.0475V17.0547V17.0619V17.0691V17.0763V17.0835V17.0907V17.0979V17.1051V17.1123V17.1195V17.1267V17.1339V17.1411V17.1483V17.1555V17.1628V17.17V17.1772V17.1844V17.1916V17.1989V17.2061V17.2133V17.2206V17.2278V17.235V17.2423V17.2495V17.2567V17.264V17.2712V17.2784V17.2857V17.2929V17.3002V17.3074V17.3147V17.3219V17.3292V17.3364V17.3437V17.3509V17.3582V17.3654V17.3727V17.3799V17.3872V17.3944V17.4017V17.4089V17.4162V17.4234V17.4307V17.438V17.4452V17.4525V17.4597V17.467V17.4743V17.4815V17.4888V17.4961V17.5033V17.5106V17.5178V17.5251V17.5324V17.5396V17.5469V17.5542V17.5614V17.5687V17.5759V17.5832V17.5905V17.5977V17.605V17.6122V17.6195V17.6268V17.634V17.6413V17.6486V17.6558V17.6631V17.6703V17.6776V17.6848V17.6921V17.6994V17.7066V17.7139V17.7211V17.7284V17.7356V17.7429V17.75C19.25 18.1642 18.9142 18.5 18.5 18.5H17.25H12H6.75ZM18.7578 13.5146L17.0951 10.3972C16.9648 10.1528 16.7103 10.0001 16.4333 10.0001H7.56666C7.28968 10.0001 7.03524 10.1528 6.9049 10.3972L5.24224 13.5146C5.32683 13.505 5.41284 13.5 5.50001 13.5L18.5 13.5C18.5872 13.5 18.6732 13.505 18.7578 13.5146ZM7 17.75C7.55228 17.75 8 17.3023 8 16.75C8 16.1977 7.55228 15.75 7 15.75C6.44772 15.75 6 16.1977 6 16.75C6 17.3023 6.44772 17.75 7 17.75ZM18 16.75C18 17.3023 17.5523 17.75 17 17.75C16.4477 17.75 16 17.3023 16 16.75C16 16.1977 16.4477 15.75 17 15.75C17.5523 15.75 18 16.1977 18 16.75Z"/>
</svg>
