<svg>
  <path d="M13.5,2 C14.4181734,2 15.1711923,2.70711027 15.2441988,3.60647279 L15.25,3.75 L15.249,5.25 L16.5,5.25 C17.9625318,5.25 19.1584043,6.3917046 19.2449812,7.83247767 L19.25,8 L19.25,18 C19.25,19.4625318 18.1082954,20.6584043 16.6675223,20.7449812 L16.5,20.75 L7.5,20.75 C6.03746816,20.75 4.84159572,19.6082954 4.75501879,18.1675223 L4.75,18 L4.75,8 C4.75,6.53746816 5.8917046,5.34159572 7.33247767,5.25501879 L7.5,5.25 L8.749,5.25 L8.74994291,3.74987962 C8.75009026,2.83180085 9.45713934,2.07889558 10.3564765,2.00581456 L10.5,2 L13.5,2 Z M16.5,6.75 L7.5,6.75 C6.85279131,6.75 6.3204661,7.24187466 6.25645361,7.87219476 L6.25,8 L6.25,18 C6.25,18.6472087 6.74187466,19.1795339 7.37219476,19.2435464 L7.5,19.25 L16.5,19.25 C17.1472087,19.25 17.6795339,18.7581253 17.7435464,18.1278052 L17.75,18 L17.75,8 C17.75,7.35279131 17.2581253,6.8204661 16.6278052,6.75645361 L16.5,6.75 Z M16,14.25 C16.4142136,14.25 16.75,14.5857864 16.75,15 C16.75,15.3796958 16.4678461,15.693491 16.1017706,15.7431534 L16,15.75 L16,16.25 C16,16.6642136 15.6642136,17 15.25,17 C14.8703042,17 14.556509,16.7178461 14.5068466,16.3517706 L14.5,16.25 L14.5,15.75 L8,15.75 C7.58578644,15.75 7.25,15.4142136 7.25,15 C7.25,14.6203042 7.53215388,14.306509 7.89822944,14.2568466 L8,14.25 L16,14.25 Z M13.5,3.5 L10.5000776,3.5 C10.3816837,3.5 10.2824946,3.58228495 10.2565571,3.6927256 L10.2499429,3.75004283 L10.249,5.25 L13.749,5.25 L13.75,3.75 C13.75,3.63165327 13.6677666,3.53251318 13.5573227,3.50660268 L13.5,3.5 Z"/>
</svg>
