<svg>
<path fill-rule="evenodd" clip-rule="evenodd" d="M15.4942 3.60647C15.4212 2.70711 14.6682 2 13.75 2H10.75L10.6065 2.00581C9.70714 2.0789 9.00009 2.8318 8.99994 3.74988L8.999 5.25H7.75L7.58248 5.25502C6.1417 5.3416 5 6.53747 5 8V18L5.00502 18.1675C5.0916 19.6083 6.28747 20.75 7.75 20.75H16.75L16.9175 20.745C18.3583 20.6584 19.5 19.4625 19.5 18V8L19.495 7.83248C19.4084 6.3917 18.2125 5.25 16.75 5.25H15.499L15.5 3.75L15.4942 3.60647ZM17 14.9C17 14.541 16.6642 14.25 16.25 14.25H8.25L8.14823 14.2559C7.78215 14.299 7.5 14.5709 7.5 14.9C7.5 15.259 7.83579 15.55 8.25 15.55H14.75V16.25L14.7568 16.3518C14.8065 16.7178 15.1203 17 15.5 17C15.9142 17 16.25 16.6642 16.25 16.25V15.55L16.3518 15.5441C16.7178 15.501 17 15.2291 17 14.9ZM16.25 15.25L16.2432 15.1482C16.2477 15.1815 16.25 15.2155 16.25 15.25ZM10.7501 3.5H13.75L13.8073 3.5066C13.9178 3.53251 14 3.63165 14 3.75L13.999 5.25H10.499L10.4999 3.75004L10.5065 3.69273C10.5325 3.58228 10.6317 3.5 10.7501 3.5Z" />
</svg>
