<svg width="24" height="24" viewBox="0 0 24 24" xmlns="http://www.w3.org/2000/svg">
<path fill-rule="evenodd" clip-rule="evenodd" d="M9.25 19C9.80228 19 10.25 19.4477 10.25 20C10.25 20.5523 9.80228 21 9.25 21C8.69772 21 8.25 20.5523 8.25 20C8.25 19.4477 8.69772 19 9.25 19ZM16.75 19C17.3023 19 17.75 19.4477 17.75 20C17.75 20.5523 17.3023 21 16.75 21C16.1977 21 15.75 20.5523 15.75 20C15.75 19.4477 16.1977 19 16.75 19ZM5.75 3C6.05734 3 6.32928 3.18676 6.44346 3.46419L6.47864 3.57228L7.07 6H20.25C20.6819 6 21.0171 6.36132 20.9995 6.77994L20.9891 6.87743L19.7391 14.1274C19.6833 14.4512 19.425 14.6965 19.1077 14.7423L19 14.75L9.04 14.749L8.29 16.999L18 17C18.3797 17 18.6935 17.2822 18.7432 17.6482L18.75 17.75C18.75 18.1297 18.4678 18.4435 18.1018 18.4932L18 18.5H7.25C6.77221 18.5 6.42547 18.0631 6.51298 17.61L6.53849 17.5128L7.58953 14.3555L7.55654 14.2858L7.52136 14.1777L5.161 4.5H3.75C3.3703 4.5 3.05651 4.21785 3.00685 3.85177L3 3.75C3 3.3703 3.28215 3.05651 3.64823 3.00685L3.75 3H5.75ZM19.359 7.5H7.436L8.838 13.249H18.367L19.359 7.5Z"/>
<path d="M19.359 7.5H7.436L8.838 13.249H18.367L19.359 7.5Z"/>
</svg>
