<svg>
  <path d="M9.25,19 C9.80228475,19 10.25,19.4477153 10.25,20 C10.25,20.5522847 9.80228475,21 9.25,21 C8.69771525,21 8.25,20.5522847 8.25,20 C8.25,19.4477153 8.69771525,19 9.25,19 Z M16.75,19 C17.3022847,19 17.75,19.4477153 17.75,20 C17.75,20.5522847 17.3022847,21 16.75,21 C16.1977153,21 15.75,20.5522847 15.75,20 C15.75,19.4477153 16.1977153,19 16.75,19 Z M5.75,3 C6.05734086,3 6.32927922,3.18676266 6.44345742,3.46418677 L6.47864025,3.57228286 L7.07,6 L20.25,6 C20.6819271,6 21.0171303,6.3613161 20.9995348,6.7799446 L20.9890951,6.87743019 L19.7390951,14.1274302 C19.6832737,14.4511945 19.4249509,14.6964646 19.1077262,14.742281 L19,14.75 L9.04,14.749 L8.29,16.999 L18,17 C18.3796958,17 18.693491,17.2821539 18.7431534,17.6482294 L18.75,17.75 C18.75,18.1296958 18.4678461,18.443491 18.1017706,18.4931534 L18,18.5 L7.25,18.5 C6.77220959,18.5 6.4254703,18.0631182 6.51297861,17.6100172 L6.53848753,17.5128292 L7.58952845,14.3555118 L7.55654258,14.2858132 L7.55654258,14.2858132 L7.52135975,14.1777171 L5.161,4.5 L3.75,4.5 C3.37030423,4.5 3.05650904,4.21784612 3.00684662,3.85177056 L3,3.75 C3,3.37030423 3.28215388,3.05650904 3.64822944,3.00684662 L3.75,3 L5.75,3 Z M19.359,7.5 L7.436,7.5 L8.838,13.249 L18.367,13.249 L19.359,7.5 Z"/>
</svg>
