<svg>
  <title>iconTitle</title>
  <desc>iconDesc</desc>
  <style></style>
  <g fill="none" fill-rule="evenodd">
    <path fill="#006ED6" fill-rule="nonzero" d="M4.75320007,6 C3.78600003,6 3,6.78420003 3,7.74600007 L3,15.7620004 C3,16.7256004 3.78600003,17.5092005 4.75200007,17.5092005 L19.2492006,17.5092005 C20.2152007,17.5092005 21,16.7256004 21,15.7632004 L21,7.74600007 C21,6.78420003 20.2140007,6 19.2492006,6 L4.75320007,6 Z"/>
    <g fill-rule="nonzero" transform="translate(5 9)">
      <path fill="#FFF" d="M12.2577778,2.70511111 L13.3155556,2.70511111 L13.3155556,0.247333333 L12.1644444,0.247333333 L12.1644444,0.589555556 L11.9466667,0.247333333 L10.9511111,0.247333333 L10.9511111,0.682888889 L10.7644444,0.247333333 L8.92888889,0.247333333 C8.86666667,0.247333333 8.80444444,0.278444444 8.74222222,0.278444444 C8.68,0.278444444 8.64888889,0.309555556 8.58666667,0.340666667 C8.52444444,0.371777778 8.49333333,0.371777778 8.43111111,0.402888889 L8.43111111,0.247333333 L3.17333333,0.247333333 L3.01777778,0.651777778 L2.86222222,0.247333333 L1.61777778,0.247333333 L1.61777778,0.682888889 L1.43111111,0.247333333 L0.435555556,0.247333333 L0,1.30511111 L0,2.70511111 L0.715555556,2.70511111 L0.84,2.36288889 L1.08888889,2.36288889 L1.21333333,2.70511111 L6.68888889,2.70511111 L6.68888889,2.394 L6.90666667,2.70511111 L8.43111111,2.70511111 L8.43111111,2.51844444 C8.46222222,2.54955556 8.52444444,2.54955556 8.55555556,2.58066667 C8.58666667,2.61177778 8.64888889,2.61177778 8.68,2.64288889 C8.74222222,2.674 8.80444444,2.674 8.86666667,2.674 L9.98666667,2.674 L10.1111111,2.33177778 L10.36,2.33177778 L10.4844444,2.674 L12.0088889,2.674 L12.0088889,2.36288889 L12.2577778,2.70511111 L12.2577778,2.70511111 Z M13.9688889,5.81622222 L13.9688889,3.514 L5.41333333,3.514 L5.19555556,3.82511111 L4.97777778,3.514 L2.48888889,3.514 L2.48888889,5.97177778 L4.97777778,5.97177778 L5.19555556,5.66066667 L5.41333333,5.97177778 L6.96888889,5.97177778 L6.96888889,5.44288889 L6.90666667,5.44288889 C7.12444444,5.44288889 7.31111111,5.41177778 7.46666667,5.34955556 L7.46666667,6.00288889 L8.58666667,6.00288889 L8.58666667,5.69177778 L8.80444444,6.00288889 L13.44,6.00288889 C13.6266667,5.94066667 13.8133333,5.90955556 13.9688889,5.81622222 L13.9688889,5.81622222 Z"/>
      <path fill="#006FCF" d="M13.44,5.22511111 L12.6,5.22511111 L12.6,5.56733333 L13.4088889,5.56733333 C13.7511111,5.56733333 13.9688889,5.34955556 13.9688889,5.03844444 C13.9688889,4.72733333 13.7822222,4.57177778 13.4711111,4.57177778 L13.0977778,4.57177778 C13.0044444,4.57177778 12.9422222,4.50955556 12.9422222,4.41622222 C12.9422222,4.32288889 13.0044444,4.26066667 13.0977778,4.26066667 L13.8133333,4.26066667 L13.9688889,3.91844444 L13.1288889,3.91844444 C12.7866667,3.91844444 12.5688889,4.13622222 12.5688889,4.41622222 C12.5688889,4.72733333 12.7555556,4.88288889 13.0666667,4.88288889 L13.44,4.88288889 C13.5333333,4.88288889 13.5955556,4.94511111 13.5955556,5.03844444 C13.6266667,5.16288889 13.5644444,5.22511111 13.44,5.22511111 L13.44,5.22511111 Z M11.9155556,5.22511111 L11.0755556,5.22511111 L11.0755556,5.56733333 L11.8844444,5.56733333 C12.2266667,5.56733333 12.4444444,5.34955556 12.4444444,5.03844444 C12.4444444,4.72733333 12.2577778,4.57177778 11.9466667,4.57177778 L11.5733333,4.57177778 C11.48,4.57177778 11.4177778,4.50955556 11.4177778,4.41622222 C11.4177778,4.32288889 11.48,4.26066667 11.5733333,4.26066667 L12.2888889,4.26066667 L12.4444444,3.91844444 L11.6044444,3.91844444 C11.2622222,3.91844444 11.0444444,4.13622222 11.0444444,4.41622222 C11.0444444,4.72733333 11.2311111,4.88288889 11.5422222,4.88288889 L11.9155556,4.88288889 C12.0088889,4.88288889 12.0711111,4.94511111 12.0711111,5.03844444 C12.1022222,5.16288889 12.0088889,5.22511111 11.9155556,5.22511111 L11.9155556,5.22511111 Z M10.8266667,4.22955556 L10.8266667,3.88733333 L9.52,3.88733333 L9.52,5.53622222 L10.8266667,5.53622222 L10.8266667,5.194 L9.89333333,5.194 L9.89333333,4.85177778 L10.7955556,4.85177778 L10.7955556,4.50955556 L9.89333333,4.50955556 L9.89333333,4.19844444 L10.8266667,4.19844444 L10.8266667,4.22955556 L10.8266667,4.22955556 Z M8.71111111,4.22955556 C8.86666667,4.22955556 8.92888889,4.32288889 8.92888889,4.41622222 C8.92888889,4.50955556 8.86666667,4.60288889 8.71111111,4.60288889 L8.24444444,4.60288889 L8.24444444,4.19844444 L8.71111111,4.22955556 L8.71111111,4.22955556 Z M8.24444444,4.94511111 L8.43111111,4.94511111 L8.92888889,5.53622222 L9.39555556,5.53622222 L8.83555556,4.914 C9.11555556,4.85177778 9.27111111,4.66511111 9.27111111,4.41622222 C9.27111111,4.10511111 9.05333333,3.88733333 8.71111111,3.88733333 L7.84,3.88733333 L7.84,5.53622222 L8.21333333,5.53622222 L8.24444444,4.94511111 Z M7.24888889,4.44733333 C7.24888889,4.57177778 7.18666667,4.66511111 7.03111111,4.66511111 L6.53333333,4.66511111 L6.53333333,4.22955556 L7,4.22955556 C7.15555556,4.22955556 7.24888889,4.32288889 7.24888889,4.44733333 L7.24888889,4.44733333 Z M6.16,3.88733333 L6.16,5.53622222 L6.53333333,5.53622222 L6.53333333,4.97622222 L7.03111111,4.97622222 C7.37333333,4.97622222 7.62222222,4.75844444 7.62222222,4.41622222 C7.62222222,4.10511111 7.40444444,3.85622222 7.06222222,3.85622222 L6.16,3.88733333 L6.16,3.88733333 Z M5.6,5.53622222 L6.06666667,5.53622222 L5.41333333,4.69622222 L6.06666667,3.88733333 L5.6,3.88733333 L5.19555556,4.41622222 L4.79111111,3.88733333 L4.32444444,3.88733333 L4.97777778,4.69622222 L4.32444444,5.50511111 L4.79111111,5.50511111 L5.19555556,4.97622222 L5.6,5.53622222 L5.6,5.53622222 Z M4.2,4.22955556 L4.2,3.88733333 L2.89333333,3.88733333 L2.89333333,5.53622222 L4.2,5.53622222 L4.2,5.194 L3.26666667,5.194 L3.26666667,4.85177778 L4.16888889,4.85177778 L4.16888889,4.50955556 L3.26666667,4.50955556 L3.26666667,4.19844444 L4.2,4.19844444 L4.2,4.22955556 L4.2,4.22955556 Z M11.76,1.30511111 L12.4133333,2.30066667 L12.88,2.30066667 L12.88,0.651777778 L12.5066667,0.651777778 L12.5066667,1.74066667 L12.4133333,1.58511111 L11.8222222,0.651777778 L11.3244444,0.651777778 L11.3244444,2.30066667 L11.6977778,2.30066667 L11.6977778,1.18066667 L11.76,1.30511111 L11.76,1.30511111 Z M10.1422222,1.274 L10.2666667,0.931777778 L10.3911111,1.274 L10.5466667,1.64733333 L9.98666667,1.64733333 L10.1422222,1.274 Z M10.7955556,2.30066667 L11.2,2.30066667 L10.4844444,0.651777778 L9.98666667,0.651777778 L9.27111111,2.30066667 L9.67555556,2.30066667 L9.83111111,1.95844444 L10.64,1.95844444 L10.7955556,2.30066667 Z M9.05333333,2.30066667 L9.20888889,1.95844444 L9.11555556,1.95844444 C8.83555556,1.95844444 8.68,1.77177778 8.68,1.49177778 L8.68,1.46066667 C8.68,1.18066667 8.83555556,0.994 9.11555556,0.994 L9.52,0.994 L9.52,0.651777778 L9.08444444,0.651777778 C8.58666667,0.651777778 8.30666667,0.994 8.30666667,1.46066667 L8.30666667,1.49177778 C8.30666667,1.98955556 8.58666667,2.30066667 9.05333333,2.30066667 Z M7.65333333,2.30066667 L8.02666667,2.30066667 L8.02666667,0.682888889 L7.65333333,0.682888889 L7.65333333,2.30066667 Z M6.84444444,0.994 C7,0.994 7.06222222,1.08733333 7.06222222,1.18066667 C7.06222222,1.274 7,1.36733333 6.84444444,1.36733333 L6.37777778,1.36733333 L6.37777778,0.962888889 L6.84444444,0.994 L6.84444444,0.994 Z M6.37777778,1.70955556 L6.56444444,1.70955556 L7.06222222,2.30066667 L7.52888889,2.30066667 L6.96888889,1.67844444 C7.24888889,1.61622222 7.40444444,1.42955556 7.40444444,1.18066667 C7.40444444,0.869555556 7.18666667,0.651777778 6.84444444,0.651777778 L5.97333333,0.651777778 L5.97333333,2.30066667 L6.34666667,2.30066667 L6.37777778,1.70955556 Z M5.69333333,0.994 L5.69333333,0.651777778 L4.38666667,0.651777778 L4.38666667,2.30066667 L5.69333333,2.30066667 L5.69333333,1.95844444 L4.76,1.95844444 L4.76,1.61622222 L5.66222222,1.61622222 L5.66222222,1.274 L4.76,1.274 L4.76,0.962888889 L5.69333333,0.962888889 L5.69333333,0.994 L5.69333333,0.994 Z M2.86222222,2.30066667 L3.20444444,2.30066667 L3.67111111,0.962888889 L3.67111111,2.30066667 L4.04444444,2.30066667 L4.04444444,0.651777778 L3.42222222,0.651777778 L3.04888889,1.77177778 L2.67555556,0.651777778 L2.05333333,0.651777778 L2.05333333,2.30066667 L2.42666667,2.30066667 L2.42666667,0.962888889 L2.86222222,2.30066667 Z M0.84,1.274 L0.964444444,0.931777778 L1.08888889,1.274 L1.24444444,1.64733333 L0.684444444,1.64733333 L0.84,1.274 L0.84,1.274 Z M1.49333333,2.30066667 L1.89777778,2.30066667 L1.18222222,0.651777778 L0.715555556,0.651777778 L0,2.30066667 L0.404444444,2.30066667 L0.56,1.95844444 L1.36888889,1.95844444 L1.49333333,2.30066667 Z"/>
    </g>
  </g>
</svg>
