<svg>
  <title>iconTitle</title>
  <desc>iconDesc</desc>
  <style></style>
  <defs>
    <path id="cc-alaska-a" d="M19.2492006,6 L4.75320007,6 C3.78600003,6 3,6.78420003 3,7.74600007 L3,15.7620004 C3,16.7256004 3.78600003,17.5092005 4.75200007,17.5092005 L19.2492006,17.5092005 C20.2152007,17.5092005 21,16.7256004 21,15.7632004 L21,7.74600007 C21,6.78420003 20.2140007,6 19.2492006,6"/>
  </defs>
  <g fill="none" fill-rule="evenodd">
    <mask id="cc-alaska-b" fill="#fff">
      <use xlink:href="#cc-alaska-a"/>
    </mask>
    <use fill="#01426A" fill-rule="nonzero" xlink:href="#cc-alaska-a"/>
    <path fill="#FFF" d="M8.18004006,9.14556003 C8.27696006,9.14556003 8.34248006,9.18220003 8.37388007,9.24508003 L8.37388007,9.15732003 L8.49564007,9.15732003 L8.49564007,9.74008004 C8.49564007,9.89984004 8.41708007,10.05568 8.18004006,10.05568 C8.02292006,10.05568 7.90504006,9.95616004 7.88932006,9.82124004 L8.00848006,9.79376004 C8.01768006,9.88148004 8.08444006,9.94832004 8.18004006,9.94832004 C8.31232006,9.94832004 8.37256007,9.88020004 8.37256007,9.74400004 L8.37256007,9.65364004 C8.34248006,9.71128004 8.27436006,9.75712004 8.18004006,9.75712004 C8.01240006,9.75712004 7.89064006,9.63004004 7.89064006,9.45196004 C7.89064006,9.28176003 8.00720006,9.14556003 8.18004006,9.14556003 Z M6.81236004,9.13768003 C7.00620004,9.13768003 7.11484005,9.27124003 7.11484005,9.46768004 C7.11484005,9.48340004 7.11356005,9.49912004 7.11224005,9.50696004 L6.63820004,9.50696004 C6.64080004,9.61960004 6.72200004,9.69816004 6.82804004,9.69816004 C6.93024004,9.69816004 6.98128004,9.64184004 7.00484004,9.57112004 L7.11092005,9.60780004 C7.07556005,9.71912004 6.97472004,9.80688004 6.82804004,9.80688004 C6.65912004,9.80688004 6.51116004,9.68376004 6.51116004,9.47028004 C6.51116004,9.27256003 6.65388004,9.13768003 6.81236004,9.13768003 Z M7.50564005,9.13768003 C7.69416006,9.13768003 7.76752006,9.24508003 7.76752006,9.36816004 L7.76752006,9.68376004 C7.76752006,9.73876004 7.77280006,9.77152004 7.77540006,9.78724004 L7.65488005,9.78724004 C7.65228005,9.77152004 7.64836005,9.74796004 7.64836005,9.70208004 C7.62088005,9.74660004 7.55800005,9.80688004 7.44540005,9.80688004 C7.31704005,9.80688004 7.23456005,9.71780004 7.23456005,9.61828004 C7.23456005,9.50568004 7.31704005,9.44280004 7.42576005,9.42708004 L7.59596005,9.40220004 C7.63396005,9.39696004 7.64444005,9.37736004 7.64444005,9.35504004 C7.64444005,9.29352003 7.60384005,9.24248003 7.50824005,9.24248003 C7.42184005,9.24248003 7.37336005,9.29612003 7.36552005,9.36948004 L7.24760005,9.34200003 C7.26072005,9.22148003 7.36944005,9.13768003 7.50564005,9.13768003 Z M8.93216007,9.13768003 C9.12600008,9.13768003 9.23468008,9.27124003 9.23468008,9.46768004 C9.23468008,9.48340004 9.23340008,9.49912004 9.23208008,9.50696004 L8.75800007,9.50696004 C8.76060007,9.61960004 8.84184007,9.69816004 8.94788007,9.69816004 C9.05004008,9.69816004 9.10112008,9.64184004 9.12468008,9.57112004 L9.23072008,9.60780004 C9.19540008,9.71912004 9.09452008,9.80688004 8.94788007,9.80688004 C8.77892007,9.80688004 8.63100007,9.68376004 8.63100007,9.47028004 C8.63100007,9.27256003 8.77372007,9.13768003 8.93216007,9.13768003 Z M10.8480401,9.13768003 C11.0366001,9.13768003 11.1099601,9.24508003 11.1099601,9.36816004 L11.1099601,9.68376004 C11.1099601,9.73876004 11.1152001,9.77152004 11.1178001,9.78724004 L10.9973201,9.78724004 C10.9947201,9.77152004 10.9908001,9.74796004 10.9908001,9.70208004 C10.9632801,9.74660004 10.9004401,9.80688004 10.7878001,9.80688004 C10.6594801,9.80688004 10.5769601,9.71780004 10.5769601,9.61828004 C10.5769601,9.50568004 10.6594801,9.44280004 10.7681601,9.42708004 L10.9384001,9.40220004 C10.9764001,9.39696004 10.9868401,9.37736004 10.9868401,9.35504004 C10.9868401,9.29352003 10.9462401,9.24248003 10.8506401,9.24248003 C10.7642401,9.24248003 10.7157601,9.29612003 10.7079201,9.36948004 L10.5900401,9.34200003 C10.6031601,9.22148003 10.7118401,9.13768003 10.8480401,9.13768003 Z M10.4239201,8.83912003 L10.4239201,9.78724004 L10.3008001,9.78724004 L10.3008001,8.83912003 L10.4239201,8.83912003 Z M6.38856004,8.83912003 L6.38856004,9.78724004 L6.26548003,9.78724004 L6.26548003,8.83912003 L6.38856004,8.83912003 Z M4.93036001,8.85876003 L5.25776002,9.61436004 L5.58776002,8.85876003 L5.75932003,8.85876003 L5.75932003,9.78724004 L5.63228002,9.78724004 L5.63228002,9.06432003 L5.31536002,9.78724004 L5.19752002,9.78724004 L4.88324001,9.06432003 L4.88324001,9.78724004 L4.75616001,9.78724004 L4.75616001,8.85876003 L4.93036001,8.85876003 Z M6.07344003,9.15732003 L6.07344003,9.78720004 L5.95168003,9.78720004 L5.95168003,9.15732003 L6.07344003,9.15732003 Z M9.89916009,8.85876003 C10.0707201,8.85876003 10.1859601,8.97792003 10.1859601,9.13376003 C10.1859601,9.29088003 10.0707201,9.40744004 9.89916009,9.40744004 L9.68960008,9.40744004 L9.68960008,9.78724004 L9.56128008,9.78724004 L9.56128008,8.85876003 L9.89916009,8.85876003 Z M11.5956401,9.13896003 C11.7462401,9.13896003 11.8209201,9.24768003 11.8209201,9.38780004 L11.8209201,9.78724004 L11.6977601,9.78724004 L11.6977601,9.40876004 C11.6977601,9.32104003 11.6611601,9.25032003 11.5511201,9.25032003 C11.4542001,9.25032003 11.4044401,9.32756003 11.4044401,9.42316004 L11.4044401,9.78724004 L11.2813601,9.78724004 L11.2813601,9.15732003 L11.4018401,9.15732003 L11.4018401,9.24768003 C11.4476801,9.16912003 11.5222801,9.13896003 11.5956401,9.13896003 Z M10.9868401,9.48864004 L10.7943201,9.51748004 C10.7419601,9.52532004 10.7026801,9.55544004 10.7026801,9.61176004 C10.7026801,9.65888004 10.7419601,9.70340004 10.8048401,9.70340004 C10.9056401,9.70340004 10.9868401,9.65496004 10.9868401,9.51748004 L10.9868401,9.48864004 Z M7.64444005,9.48864004 L7.45192005,9.51748004 C7.39952005,9.52532004 7.36024005,9.55544004 7.36024005,9.61176004 C7.36024005,9.65888004 7.39952005,9.70340004 7.46244005,9.70340004 C7.56324005,9.70340004 7.64444005,9.65496004 7.64444005,9.51748004 L7.64444005,9.48864004 Z M8.19840006,9.25032003 C8.08972006,9.25032003 8.01636006,9.33020003 8.01636006,9.45196004 C8.01636006,9.57508004 8.08708006,9.65364004 8.19840006,9.65364004 C8.30448006,9.65364004 8.37780007,9.57376004 8.37780007,9.45196004 C8.37780007,9.33020003 8.30448006,9.25032003 8.19840006,9.25032003 Z M8.93348007,9.24640003 C8.83004007,9.24640003 8.76716007,9.32624003 8.76192007,9.40744004 L9.10632008,9.40744004 C9.10372008,9.31708003 9.04480008,9.24640003 8.93348007,9.24640003 Z M6.81368004,9.24640003 C6.71020004,9.24640003 6.64732004,9.32624003 6.64212004,9.40744004 L6.98648004,9.40744004 C6.98388004,9.31708003 6.92496004,9.24640003 6.81368004,9.24640003 Z M9.87560009,8.97400003 L9.68960008,8.97400003 L9.68960008,9.29220003 L9.87560009,9.29220003 C9.98692009,9.29220003 10.0550001,9.23064003 10.0550001,9.13504003 C10.0550001,9.03684003 9.98692009,8.97400003 9.87560009,8.97400003 Z M6.01192003,8.82992003 C6.06164003,8.82992003 6.10092003,8.86920003 6.10092003,8.91900003 C6.10092003,8.96740003 6.06164003,9.00672003 6.01192003,9.00672003 C5.96344003,9.00672003 5.92416003,8.96740003 5.92416003,8.91900003 C5.92416003,8.86920003 5.96344003,8.82992003 6.01192003,8.82992003 Z M8.87720007,7.14052 L8.41500007,7.92112001 L8.76164007,7.68232001 L9.03984008,7.68232001 L8.45720007,8.08476002 L8.45684007,8.08496002 L8.67872007,8.76188003 L8.60232007,8.76188003 C8.50280007,8.76188003 8.41568007,8.69560003 8.38928007,8.59980002 L8.27300006,8.16116002 L8.05572006,8.52668002 L7.80648006,8.52668002 L8.50228007,7.34892001 C8.59196007,7.19608 8.68556007,7.14052 8.85172007,7.14052 L8.87720007,7.14052 Z M9.63496008,8.37276002 C9.68040008,8.37276002 9.71712009,8.40988002 9.71712009,8.45536002 L9.71067259,8.48746752 L9.71067259,8.48746752 L9.70056,8.50088 L9.70764008,8.50968002 L9.69556,8.50888 C9.67822008,8.52882002 9.65768008,8.53816002 9.63496008,8.53816002 C9.58976008,8.53816002 9.55348008,8.50080002 9.55348008,8.45536002 C9.55348008,8.40988002 9.58976008,8.37276002 9.63496008,8.37276002 Z M9.43900008,7.67808001 C9.55344008,7.67808001 9.66644008,7.68416001 9.77756009,7.69616001 L9.77756009,7.69616001 L9.48516008,8.18388002 C9.40816008,8.32196002 9.37308008,8.43552002 9.36496008,8.52668002 L9.36496008,8.52668002 L9.13108008,8.52668002 C9.12740008,8.49772002 9.13224008,8.44912002 9.14068008,8.41448002 C9.03732008,8.48572002 8.89072007,8.53372002 8.80288007,8.53480002 C8.64872007,8.53648002 8.67456007,8.40412002 8.71980007,8.29740002 C8.90072007,7.87228001 9.10560008,7.67808001 9.43900008,7.67808001 Z M7.82232006,7.67811449 C7.90020006,7.67792001 7.98564006,7.68316001 8.07828006,7.69288001 L7.97860006,7.86144001 C7.91764006,7.85636001 7.81836006,7.85188001 7.74840006,7.85420001 C7.67664005,7.85656001 7.63024005,7.88120001 7.62500005,7.91700001 C7.62176005,7.93928001 7.63096005,7.95280001 7.67572005,7.98176001 L7.74712006,8.02868002 C7.82448006,8.08016002 7.85576006,8.15608002 7.84660006,8.21880002 C7.82072006,8.39328002 7.69228006,8.53396002 7.41956005,8.53412002 C7.30016005,8.53412002 7.24636005,8.53036002 7.10408005,8.50660002 L7.21004005,8.32816002 C7.30860005,8.34528002 7.36488005,8.35424002 7.43864005,8.35408002 C7.54136005,8.35408002 7.58236005,8.30776002 7.58812005,8.26980002 C7.59136005,8.24732002 7.58056005,8.22136002 7.53184005,8.18768002 L7.47516005,8.14760002 C7.38436005,8.08284002 7.36060005,8.03140002 7.37248005,7.95096001 C7.39532005,7.79648001 7.57412005,7.67811449 7.82232006,7.67811449 Z M7.03428005,7.67808001 C7.14872005,7.67808001 7.26168005,7.68416001 7.37284005,7.69616001 L7.37284005,7.69616001 L7.08044005,8.18388002 C7.00344004,8.32196002 6.96836004,8.43552002 6.96024004,8.52668002 L6.96024004,8.52668002 L6.72636004,8.52668002 C6.72264004,8.49772002 6.72752004,8.44912002 6.73596004,8.41448002 C6.63256004,8.48572002 6.48600004,8.53372002 6.39812004,8.53480002 C6.24400003,8.53648002 6.26984003,8.40412002 6.31508003,8.29740002 C6.49596004,7.87228001 6.70088004,7.67808001 7.03428005,7.67808001 Z M6.42248004,7.01588 C6.42248004,7.01588 6.38448004,7.0744 6.34112003,7.14596 L6.34112003,7.14596 L5.71700003,8.18776002 C5.64888002,8.30072002 5.61140002,8.41592002 5.60088002,8.52668002 L5.60088002,8.52668002 L5.33600002,8.52668002 C5.35240002,8.39600002 5.39948002,8.27416002 5.49752002,8.10360002 L5.49752002,8.10360002 L5.95512003,7.36092001 L5.33856002,7.80596001 L5.63132002,7.80596001 C5.63132002,7.80596001 5.53264002,7.96172001 5.35472002,7.96676001 C5.35392002,7.96648001 5.25108002,7.97024001 5.10324002,7.97580001 L5.10324002,7.97580001 L4.34004001,8.52668002 L4.01756,8.52668002 L4.76372001,7.98872001 C4.41404001,8.00212001 4.03888,8.01668002 4.03888,8.01668002 L4.03888,8.01668002 L4.16776,7.89756001 C4.25892,7.81168001 4.37424001,7.80596001 4.51860001,7.80596001 L4.51860001,7.80596001 L5.01720002,7.80596001 L5.79656003,7.24408 C6.02696003,7.07792 6.14804003,7.01592 6.38284004,7.01592 L6.38284004,7.01592 Z M6.84200004,7.08436 L6.18452003,8.18776002 C6.11628003,8.30072002 6.07892003,8.41592002 6.06852003,8.52668002 L5.81084003,8.52668002 C5.82836003,8.38712002 5.88292003,8.25420002 5.99604003,8.06372002 L6.45620004,7.29256 C6.54808004,7.13972 6.63968004,7.08436 6.80580004,7.08436 L6.84200004,7.08436 Z M9.63496008,8.38912002 C9.59912008,8.38912002 9.57096008,8.41776002 9.57096008,8.45536002 C9.57096008,8.49296002 9.59912008,8.52184002 9.63496008,8.52184002 L9.66747416,8.51296002 L9.66747416,8.51296002 L9.67356,8.50588 L9.67622073,8.50968002 L9.69556,8.50888 L9.70056,8.50088 L9.69156,8.49088 C9.70086453,8.48134669 9.70242008,8.47538002 9.70242008,8.46848002 L9.69956,8.45688 L9.70287306,8.45393352 L9.70693041,8.44101335 C9.70693041,8.42336891 9.68596266,8.40968002 9.65783363,8.40968002 L9.66747416,8.3979378 C9.65798675,8.39230224 9.64689342,8.38912002 9.63496008,8.38912002 Z M9.65783363,8.40968002 L9.68306422,8.41388249 L9.68306422,8.41388249 L9.69035268,8.42147558 L9.70242008,8.46848002 C9.70242008,8.44668002 9.68842008,8.43428002 9.66332008,8.43428002 L9.63422008,8.43428002 L9.63422008,8.50148002 L9.63456,8.50088 L9.63512395,8.50968002 L9.60764008,8.50968002 L9.60764008,8.40968002 L9.65783363,8.40968002 Z M9.68156,8.49788 L9.67356,8.50588 L9.66856,8.49988 L9.68156,8.49788 Z M9.64589815,8.47239113 L9.66856,8.49988 L9.66332008,8.50148002 L9.63456,8.50088 L9.63512395,8.47239113 L9.64589815,8.47239113 Z M9.68956,8.48788 L9.69156,8.49088 L9.68461268,8.49752447 L9.68156,8.49788 L9.69035268,8.48930669 L9.69035268,8.48930669 L9.68956,8.48788 Z M9.69756,8.45788 L9.68956,8.48788 L9.67518847,8.4706578 C9.68144654,8.46923558 9.68705944,8.46701335 9.69176195,8.46416726 L9.69756,8.45788 Z M9.69856,8.45488 L9.69956,8.45688 L9.69756,8.45788 L9.69856,8.45488 Z M7.04904005,7.82759835 L7.01636004,7.82759835 C6.83636004,7.82704001 6.69052004,7.96772001 6.55172004,8.23372002 C6.51536004,8.30372002 6.51740004,8.35448002 6.57148004,8.35688002 C6.65012004,8.35448002 6.74316004,8.28728002 6.79132004,8.24276002 L6.79132004,8.24276002 L7.04904005,7.82759835 Z M9.45376008,7.82759835 L9.42108008,7.82759835 C9.24108008,7.82704001 9.09528008,7.96772001 8.95644007,8.23372002 C8.92008007,8.30372002 8.92212007,8.35448002 8.97620007,8.35688002 C9.05484008,8.35448002 9.14788008,8.28728002 9.19608008,8.24276002 L9.19608008,8.24276002 L9.45376008,7.82759835 Z" mask="url(#cc-alaska-b)"/>
    <g fill-rule="nonzero" mask="url(#cc-alaska-b)">
      <g transform="translate(13 5)">
        <path fill="#C8C9C7" d="M3.915946,9.07083538 C3.71683011,9.09787581 3.57916973,9.12737446 3.44888402,9.11262513 C2.89086786,9.04625317 1.82645818,8.80534751 1.42330994,8.15391896 C1.0201617,7.5024904 0.314652284,6.94939068 0.194199457,6.12097021 C0.07620485,5.31221551 -0.0737466291,4.58704033 0.078663071,3.96511042 C0.07620485,4.15930988 0.0860377339,4.33876001 0.10078706,4.48133683 C0.125369269,4.7247007 0.22861455,4.9582317 0.312194063,5.6391589 C0.35398382,5.98330984 0.494102415,6.2365066 0.698134755,6.50936913 C0.781714268,6.61998907 0.867752002,6.72815079 0.941498631,6.8461454 C0.953789736,6.9051427 0.970997283,6.96168179 0.995579493,7.01822087 C1.09390833,7.24929364 1.29302423,7.62294323 1.54622099,7.70652274 C1.59292719,7.72127206 1.64209161,7.73110495 1.67896492,7.76306182 C1.72075468,7.79747691 1.74042045,7.84909956 1.7699191,7.89334753 C1.82154174,7.96955238 1.9223288,8.04084079 2.01328297,8.10967098 C2.03049052,8.13425319 2.04769807,8.1588354 2.06244739,8.18341761 C2.54180048,8.87909414 3.35547162,9.01183807 3.915946,9.07083538 M9.09541759,3.04327756 C8.95038255,1.8879137 8.51281922,1.90512125 8.23504025,1.48722369 C7.95726128,1.07178434 6.65440416,0.400690018 5.96118585,0.12782749 C5.44987589,-0.0737466291 5.03197832,0.0614555242 4.58212389,0.154867921 C5.27780042,0.235989213 6.44299716,0.565390823 6.752733,0.818587583 C6.80189742,0.857919118 6.87318583,0.943956852 6.95922356,1.05703502 C6.96168179,1.05949324 6.96414001,1.06440968 6.96659823,1.0668679 C7.25912652,1.16765496 7.49265751,1.28810779 7.78518581,1.60767651 C7.85893244,1.68633958 7.93022085,1.76746088 8.0064257,1.84366573 C8.06050656,1.89774659 8.12687852,1.9346199 8.18095939,1.98870076 C8.32845264,2.13865224 8.47348768,2.28860372 8.62098094,2.44101342 C8.67260358,2.49263606 8.67014536,2.52705116 8.67260358,2.5442587 C8.67260358,2.56146625 8.66522892,2.5909649 8.64310493,2.57129913 C8.62098094,2.55163337 8.5816494,2.53934226 8.56444186,2.56392447 C8.54477609,2.60079779 8.58410762,2.65242043 8.62098094,2.70158485 C8.66768714,2.76549859 8.68735291,2.84661988 8.721768,2.91790829 C8.79305641,3.07523443 8.86680304,3.23256057 8.90367635,3.40217782 C8.93809144,3.56196218 9.02167096,3.71683011 9.07821004,3.87169803 C9.19866287,4.20109964 9.26503483,4.54033413 9.21095397,4.88940151 C9.17653888,5.10818317 9.14212378,5.32450662 9.11754158,5.54083006 C9.15195667,5.38596214 9.19866287,5.19667913 9.2724095,4.95331525 C9.46906717,4.28959559 9.2379944,4.19864142 9.09541759,3.04327756"/>
        <path fill="#FFF" d="M0.83579513,6.38645808 C0.806296478,6.31025323 0.766964942,6.23896482 0.730091628,6.16521819 C0.722716965,6.15046887 0.715342302,6.13571954 0.705509418,6.11851199 C0.592431254,5.89727211 0.489185973,5.66865756 0.427730449,5.43021012 C0.358900262,5.17455514 0.339234494,4.90169261 0.400690018,4.64357941 C0.447396216,4.45183818 0.538350392,4.27484627 0.607180579,4.09047969 C0.720258744,3.78074385 0.757132059,3.44888402 0.855460897,3.13423174 C0.902167096,2.98182204 0.966080841,2.90070074 1.03736925,2.76549859 C1.11111588,2.63029644 1.21190294,2.51230183 1.31269,2.391849 C1.56097032,2.08948782 1.84858217,1.82399996 2.16815089,1.59784363 C2.24189752,1.54622099 2.31810237,1.48230724 2.40414011,1.45280859 C2.47542852,1.42822638 2.5319676,1.43314283 2.60079779,1.39135307 C2.75074926,1.30039889 2.83187056,1.13323987 2.98428026,1.04720213 C3.18585438,0.934123968 3.40463604,0.727633407 3.63816703,0.688301871 C3.73157943,0.671094325 3.81270072,0.680927208 3.90611312,0.653886778 C4.03639883,0.614555242 4.1617681,0.562932602 4.29451203,0.526059287 C4.35596756,0.508851741 4.41250664,0.479353089 4.47642039,0.479353089 C4.6067061,0.476894868 4.74190825,0.508851741 4.87219396,0.496560636 C5.01477078,0.48181131 5.15488937,0.417897565 5.29992441,0.398231797 C5.31467374,0.395773576 5.33188128,0.395773576 5.34171417,0.408064681 C5.35154705,0.422814007 5.34171417,0.440021554 5.33188128,0.452312658 C5.29009153,0.508851741 5.25075999,0.587514812 5.29500797,0.639137452 C5.31959018,0.671094325 5.36629638,0.676010767 5.40562791,0.676010767 C5.55803761,0.673552546 5.71536375,0.619471684 5.86531523,0.666177883 C5.94643652,0.690760092 6.0373907,0.690760092 6.12097021,0.700592976 C6.21438261,0.712884081 6.31025323,0.722716965 6.40366563,0.73500807 C6.42087317,0.737466291 6.44053894,0.739924512 6.45774649,0.747299175 C6.47495403,0.757132059 6.48724514,0.774339605 6.48478692,0.791547152 C6.4823287,0.821045804 6.44299716,0.83579513 6.4356225,0.865293781 C6.43070606,0.88741777 6.44545538,0.909541759 6.46512115,0.919374643 C6.56836643,0.975913725 6.71340147,0.993121272 6.82893785,1.02507814 C6.83385429,1.02507814 6.83631252,1.02753637 6.84122896,1.02999459 C6.85352006,1.03245281 6.86089473,1.03491103 6.86581117,1.03491103 C6.90022626,1.04474391 6.93218313,1.05703502 6.96414001,1.0668679 C6.96168179,1.06440968 6.95922356,1.05949324 6.95676534,1.05703502 C6.87072761,0.943956852 6.7994392,0.857919118 6.75027478,0.818587583 C6.41349851,0.540808613 5.03935299,0.169617247 4.39038265,0.137660374 C3.74387054,0.108161723 3.06048511,0.417897565 2.28860372,0.71042586 C1.51672234,1.00295416 1.13323987,1.80187597 0.592431254,2.33039348 C0.0491644194,2.85645277 0.0442479774,3.93315355 0.10078706,4.48379505 C0.125369269,4.72715892 0.22861455,4.96068992 0.312194063,5.64161712 C0.35398382,5.98576806 0.494102415,6.23896482 0.698134755,6.51182735 C0.781714268,6.62244729 0.867752002,6.73060901 0.941498631,6.84860362 C0.909541759,6.69127748 0.897250654,6.53395134 0.83579513,6.38645808"/>
        <path fill="#FFF" d="M9.0732936,3.87415625 C9.01675452,3.71928833 8.933175,3.56442041 8.89875991,3.40463604 C8.86188659,3.2350188 8.79059819,3.07769265 8.71685156,2.92036651 C8.68243646,2.8490781 8.66522892,2.76795681 8.6160645,2.70404307 C8.57919118,2.65487865 8.54231787,2.60571423 8.55952542,2.56638269 C8.57673296,2.54180048 8.6160645,2.55163337 8.63818849,2.57375735 C8.66031247,2.59342312 8.66768714,2.56392447 8.66768714,2.54671692 C8.66768714,2.52950938 8.66768714,2.49509428 8.6160645,2.44347164 C8.46857124,2.29352016 8.3235362,2.14356869 8.17604294,1.99115899 C8.12196208,1.9346199 8.05559012,1.90020481 8.00150926,1.84612395 C7.92530441,1.7699191 7.854016,1.68879781 7.78026937,1.61013473 C7.46070064,1.25369269 7.20750388,1.14307275 6.86581117,1.03245281 C6.86089473,1.02999459 6.85352006,1.02999459 6.84122896,1.02753637 C7.0108462,1.07670078 6.99118044,1.15536386 7.06984351,1.28564957 C7.15833946,1.4306846 7.35499714,1.55851209 7.48774107,1.66175738 C7.57132059,1.72812934 7.65735832,1.79204309 7.73110495,1.87070616 C7.84664133,1.99361721 7.9007222,2.14848513 7.97938527,2.29352016 C8.00888392,2.35005925 8.01625858,2.41888943 8.06050656,2.46313741 C8.10721276,2.50984361 8.18833405,2.51721827 8.22274914,2.57375735 C8.25962246,2.63275466 8.22029092,2.70895951 8.22520736,2.7777897 C8.23258203,2.91790829 8.82992972,3.31122365 8.43415615,3.4464258 C8.42432326,3.44888402 8.41449038,3.45134224 8.40711572,3.46117512 C8.39974105,3.47100801 8.39974105,3.48329911 8.40219927,3.49559022 C8.41449038,3.59637728 8.49561167,3.67504035 8.55952542,3.75616164 C8.68489468,3.91348778 8.74389199,4.10031258 8.75864131,4.29697025 C8.76355776,4.35596756 8.75372487,4.69520205 8.68489468,4.78861445 C8.6750618,4.80336377 8.67997824,4.81073844 8.69472757,4.81565488 C8.75372487,4.8304042 8.82255506,4.88202685 8.81763862,4.92873304 C8.80288929,5.06885164 8.71439334,5.19422091 8.69964401,5.33188128 C8.6750618,5.54574651 8.82255506,5.75715351 8.77584886,5.96856051 C8.73651732,6.15046887 8.55706719,6.29304568 8.55706719,6.47987048 C8.55706719,6.52411845 8.56690008,6.57328287 8.54723431,6.61261441 C8.52756854,6.65194594 8.48577879,6.67161171 8.44890547,6.6937357 C8.24241491,6.81910497 8.14654429,7.06492707 7.96217772,7.22225321 C7.85647422,7.31320738 7.72373029,7.36974647 7.61065212,7.45332598 C7.47790819,7.5491966 7.3033745,7.82943379 7.13621547,7.83926667 C7.07967639,7.84418311 7.02313731,7.81714268 6.96659823,7.80976802 C6.87810227,7.79993514 6.79452276,7.83926667 6.71585969,7.87859821 C6.5536171,7.95726128 6.39383274,7.99167637 6.22913194,8.05804834 C6.04968181,8.13179497 5.88006456,8.27437178 5.72273842,8.38499173 C5.39579503,8.6160645 5.06885164,8.85697015 4.68536917,8.98971408 C4.62883009,9.00937985 4.54525057,9.01429629 4.5255848,8.95775721 C4.50346082,8.89138525 4.6067061,8.84467905 4.61653898,8.77339064 C4.55508346,8.76109953 4.50346082,8.81026395 4.45183818,8.84713727 C4.34859289,8.9208839 4.21584896,8.93809144 4.08802147,8.94546611 C3.85203226,8.95775721 3.5988355,8.94300789 3.36776273,8.87909414 C3.23010235,8.83976261 3.10473308,8.80288929 2.98673848,8.721768 C2.70404307,8.52756854 2.3795579,8.44398903 2.12636114,8.20308337 C2.09440427,8.1711265 2.05507273,8.14162785 2.01082475,8.10967098 C2.0280323,8.13425319 2.04523985,8.1588354 2.05998917,8.18341761 C2.58604846,8.95284077 3.52754709,9.03396206 4.07818859,9.08804292 C4.32401069,9.11016691 4.572291,9.05608605 5.25567643,9.10770869 C5.93906186,9.15933133 5.9783934,8.91842568 7.06246884,8.53248498 C7.47053353,8.38744995 7.854016,8.18587583 8.08754699,7.8073098 C8.21537448,7.60081924 8.34320197,7.39432868 8.46611302,7.18292167 C8.5226521,7.08705105 8.58902407,6.99363866 8.63818849,6.89530982 C8.68489468,6.80435564 8.77093242,6.6470295 8.81026395,6.67652815 C8.82992972,6.68881926 8.82009684,6.7404419 8.83976261,6.752733 C8.84959549,6.76010767 8.86188659,6.74781656 8.86926126,6.73798368 C9.03150384,6.48724514 9.04625317,6.23404838 9.06591893,5.93660364 C9.09050114,5.57770338 9.14458201,5.24092711 9.20112109,4.88940151 C9.26011839,4.54033413 9.19374643,4.20109964 9.0732936,3.87415625"/>
        <path fill="#00416A" d="M5.46216699,4.73207537 C5.37612926,4.77878156 5.30729907,4.78615623 5.18438802,4.79107267 C5.0639352,4.79598911 4.95577347,4.77632334 4.92627482,4.77386512 C4.89677617,4.7714069 4.88448507,4.73945003 4.88202685,4.70011849 C4.8771104,4.6189972 4.92627482,4.63620475 4.97789746,4.63866297 C5.0295201,4.64112119 5.0762263,4.62883009 5.14997293,4.63128831 C5.22617778,4.63374653 5.31713196,4.65341229 5.42529368,4.63374653 C5.50395675,4.6189972 5.52853896,4.58949855 5.54820473,4.57474922 C5.5678705,4.5599999 5.57770338,4.56737456 5.59491093,4.6067061 C5.61211847,4.64603763 5.54820473,4.68536917 5.46216699,4.73207537 M3.77336919,4.62391364 C3.74141232,4.60424788 3.72174655,4.59933143 3.69962256,4.58212389 C3.67749857,4.56737456 3.67258213,4.56983278 3.65291636,4.58458211 C3.63325059,4.60178965 3.57916973,4.64603763 3.45380046,4.68045273 C3.32843119,4.7124096 3.27680855,4.71978426 3.23747702,4.71978426 C3.21289481,4.71978426 3.1883126,4.7124096 3.17110505,4.74928291 C3.1538975,4.78369801 3.16127217,4.80828022 3.18585438,4.8181131 C3.21043659,4.82794598 3.28664144,4.85498641 3.38497027,4.84515353 C3.48084089,4.83532065 3.5521293,4.81565488 3.62095949,4.78369801 C3.6922479,4.75419935 3.75616164,4.72715892 3.78320207,4.70011849 C3.8102425,4.67307806 3.80532606,4.64603763 3.77336919,4.62391364 M5.63670068,5.76452817 C5.60720203,5.76698639 5.59982737,5.76944461 5.58507804,5.78665216 C5.5678705,5.80631793 5.57278694,5.81369259 5.58507804,5.86777345 C5.59736915,5.92185432 5.61703491,5.99805917 5.62195136,6.1308031 C5.62440958,6.26354703 5.61211847,6.41595673 5.58507804,6.48478692 C5.55803761,6.5536171 5.61949314,6.5536171 5.62932602,6.5536171 C5.6391589,6.5536171 5.67603222,6.5536171 5.68832332,6.5536171 C5.71290553,6.55115888 5.7202802,6.53149312 5.73011308,6.49707802 C5.73994596,6.46266293 5.74486241,6.35450121 5.74732063,6.16275997 C5.74977885,5.97101873 5.69569799,5.88743922 5.67603222,5.83335836 C5.65882467,5.78419394 5.65636645,5.76206995 5.63670068,5.76452817 M8.77584886,5.97101873 C8.73651732,6.15292709 8.55706719,6.2955039 8.55706719,6.4823287 C8.55706719,6.52657667 8.56690008,6.57574109 8.54723431,6.61507263 C8.52756854,6.65440416 8.48577879,6.67406993 8.44890547,6.69619392 C8.24241491,6.82156319 8.14654429,7.06738529 7.96217772,7.22471143 C7.85647422,7.3156656 7.72373029,7.37220469 7.61065212,7.4557842 C7.47790819,7.55165482 7.3033745,7.83189201 7.13621547,7.84172489 C7.07967639,7.84664133 7.02313731,7.8196009 6.96659823,7.81222624 C6.87810227,7.80239336 6.79452276,7.84172489 6.71585969,7.88105643 C6.5536171,7.9597195 6.39383274,7.99413459 6.23159016,8.06050656 C6.05214003,8.13425319 5.88252278,8.27683 5.72519664,8.38744995 C5.39825325,8.61852272 5.07130986,8.85942837 4.68782739,8.99217231 C4.63128831,9.01183807 4.54770879,9.01675452 4.52804303,8.96021543 C4.50591904,8.89384347 4.60916432,8.84713727 4.6189972,8.77584886 C4.55754168,8.76355776 4.50591904,8.81272217 4.4542964,8.84959549 C4.35105112,8.92334212 4.21830718,8.94054967 4.09047969,8.94792433 C3.85449048,8.96021543 3.60129372,8.94546611 3.37022095,8.88155236 C3.23256057,8.84222083 3.10719131,8.80534751 2.9891967,8.72422622 C2.70650129,8.53002676 2.38201612,8.44644725 2.12881936,8.2055416 C2.02557408,8.10721276 1.84612395,8.0064257 1.77237732,7.89580575 C1.74287867,7.85155778 1.7232129,7.79993514 1.68142314,7.76552004 C1.64454983,7.73602139 1.59538541,7.72618851 1.54867921,7.70898096 C1.29548245,7.62540145 1.09390833,7.25175186 0.998037714,7.02067909 C0.91199998,6.81664675 0.921832863,6.59294864 0.838253351,6.38645808 C0.808754699,6.31025323 0.769423163,6.23896482 0.732549849,6.16521819 C0.725175186,6.15046887 0.717800523,6.13571954 0.707967639,6.11851199 C0.594889475,5.89727211 0.491644194,5.66865756 0.43018867,5.43021012 C0.361358482,5.17455514 0.341692715,4.90169261 0.403148239,4.64357941 C0.449854437,4.45183818 0.540808613,4.27484627 0.6096388,4.09047969 C0.722716965,3.78074385 0.75959028,3.44888402 0.857919118,3.13423174 C0.904625317,2.98182204 0.968539062,2.90070074 1.03982747,2.76549859 C1.1135741,2.63029644 1.21436116,2.51230183 1.31514822,2.391849 C1.56097032,2.08948782 1.84858217,1.82399996 2.16815089,1.59784363 C2.24189752,1.54622099 2.31810237,1.48230724 2.40414011,1.45280859 C2.47542852,1.42822638 2.5319676,1.43314283 2.60079779,1.39135307 C2.75074926,1.30039889 2.83187056,1.13323987 2.98428026,1.04720213 C3.18585438,0.934123968 3.40463604,0.727633407 3.63816703,0.688301871 C3.73157943,0.671094325 3.81270072,0.680927208 3.90611312,0.653886778 C4.03639883,0.614555242 4.1617681,0.562932602 4.29451203,0.526059287 C4.35596756,0.508851741 4.41250664,0.479353089 4.47642039,0.479353089 C4.6067061,0.476894868 4.74190825,0.508851741 4.87219396,0.496560636 C5.01477078,0.48181131 5.15488937,0.417897565 5.29992441,0.398231797 C5.31467374,0.395773576 5.33188128,0.395773576 5.34171417,0.408064681 C5.35154705,0.422814007 5.34171417,0.440021554 5.33188128,0.452312658 C5.29009153,0.508851741 5.25075999,0.587514812 5.29500797,0.639137452 C5.31959018,0.671094325 5.36629638,0.676010767 5.40562791,0.676010767 C5.55803761,0.673552546 5.71536375,0.619471684 5.86531523,0.666177883 C5.9439783,0.690760092 6.0373907,0.690760092 6.12097021,0.700592976 C6.21438261,0.712884081 6.31025323,0.722716965 6.40366563,0.73500807 C6.42087317,0.737466291 6.44053894,0.739924512 6.45774649,0.747299175 C6.47495403,0.757132059 6.48724514,0.774339605 6.48478692,0.791547152 C6.4823287,0.821045804 6.44299716,0.83579513 6.43808072,0.865293781 C6.43316428,0.88741777 6.4479136,0.909541759 6.46757937,0.919374643 C6.57082465,0.975913725 6.71585969,0.993121272 6.83139607,1.02507814 C7.01576265,1.07424256 6.99118044,1.15290563 7.07230173,1.28810779 C7.16079768,1.43314283 7.35745536,1.56097032 7.49019929,1.6642156 C7.57377881,1.73058756 7.65981654,1.79450131 7.73356317,1.87316438 C7.84909956,1.99607543 7.90318042,2.15094335 7.98184349,2.29597839 C8.01134214,2.35251747 8.0187168,2.42134765 8.06296478,2.46559563 C8.10967098,2.51230183 8.19079227,2.51967649 8.22520736,2.57621558 C8.26208068,2.63521288 8.22274914,2.71141773 8.22766558,2.78270614 C8.23749847,2.92282473 8.83238794,3.31614009 8.43661437,3.45134224 C8.42678148,3.45380046 8.4169486,3.45625868 8.40957394,3.46609157 C8.40219927,3.47592445 8.40219927,3.48821556 8.40219927,3.50050666 C8.41449038,3.60129372 8.49561167,3.67995679 8.55952542,3.76107808 C8.68489468,3.91840423 8.74389199,4.10522902 8.75864131,4.3018867 C8.76355776,4.360884 8.75372487,4.70011849 8.68489468,4.79353089 C8.6750618,4.80828022 8.67997824,4.81565488 8.69472757,4.82057132 C8.75372487,4.83532065 8.82255506,4.88694329 8.81763862,4.93364949 C8.80288929,5.07376808 8.71439334,5.19913735 8.69964401,5.33679772 C8.67752002,5.54820473 8.82255506,5.75961173 8.77584886,5.97101873 M1.85841505,2.78024792 C1.8756226,2.6966684 1.95674389,2.64504576 1.94936923,2.56146625 C1.94936923,2.55654981 1.94691101,2.54671692 1.92724524,2.55654981 C1.83137462,2.60079779 1.73304578,2.76058215 1.6642156,2.82941234 C1.55113743,2.9424905 1.44051749,3.06048511 1.33481399,3.18093793 C1.25123447,3.27680855 1.17011318,3.37513739 1.11603232,3.49067378 C0.973455504,3.79303496 0.941498631,4.13472767 0.968539062,4.46412928 C0.983288388,4.64357941 1.01524526,4.82057132 1.05949324,4.99264679 C1.09882477,5.14014005 1.09636655,5.30729907 1.14061453,5.44495945 C1.15290563,5.4867492 1.18240429,5.52362252 1.21681938,5.54574651 C1.22911048,5.55312117 1.25860914,5.55312117 1.25860914,5.50395675 C1.25615092,5.17209692 1.26106736,4.84023709 1.27581668,4.50837726 C1.28073313,4.4198813 1.28810779,4.33138535 1.29794067,4.24288939 C1.32743932,4.00444196 1.38397841,3.76845275 1.4773908,3.54721286 C1.56834498,3.32843119 1.86824794,3.14652284 1.86087327,2.90070074 C1.85841505,2.85891099 1.84858217,2.81712123 1.85841505,2.78024792 M6.36187587,4.19126675 C6.31025323,4.19864142 6.15538531,4.22322363 6.13571954,4.22322363 C6.11605377,4.22322363 6.07672224,4.22814007 6.07918046,4.2551805 C6.08163868,4.28713737 6.17259285,4.3141778 6.30287857,4.29697025 C6.43070606,4.27976271 6.48970336,4.26501338 6.48478692,4.2207654 C6.47987048,4.17651743 6.41595673,4.18389209 6.36187587,4.19126675 M6.19471684,4.42971419 C6.19225862,4.41742308 6.16030175,4.41250664 6.13817776,4.41496486 C6.11359555,4.41496486 5.96856051,4.39038265 5.87514812,4.30926136 C5.78419394,4.22568185 5.69815621,4.11752012 5.64899179,4.06343926 C5.59982737,4.01181662 5.54083006,3.94790288 5.39579503,3.9626522 C5.25075999,3.97740153 5.11309962,4.02164951 5.12784894,4.08556325 C5.1352236,4.11997834 5.2163449,4.11014546 5.29746619,4.09293791 C5.3810457,4.07818859 5.49904031,4.05852282 5.53099718,4.11014546 C5.56541227,4.16422632 5.61703491,4.2674716 5.71536375,4.34613467 C5.81369259,4.42479774 5.93660364,4.48871149 6.07426402,4.48379505 C6.21684083,4.48133683 6.19717506,4.43954707 6.19471684,4.42971419 M3.23010235,3.40709426 C3.24239346,3.44150936 3.28418322,3.46117512 3.3874285,3.45134224 C3.50296488,3.44150936 3.89136379,3.38497027 3.9970673,3.46609157 C4.0560646,3.51033954 4.06589748,3.52017243 4.07573037,3.63325059 C4.08310503,3.74632876 4.09539613,3.73649587 4.11260368,3.73895409 C4.12735301,3.74141232 4.17651743,3.71683011 4.22814007,3.62587593 C4.27976271,3.53246353 4.49608615,3.43905114 4.78615623,3.41446893 C5.0762263,3.38988672 5.3220484,3.38988672 5.61703491,3.54475464 C5.90464677,3.69470612 6.22913194,3.93806999 6.37908342,3.86678158 C6.45774649,3.82990827 6.50691091,3.704539 6.42824783,3.39234494 C6.35204298,3.0826091 6.21192439,2.89086786 6.16030175,2.836787 C6.11113733,2.78270614 6.0373907,2.72125061 5.98822628,2.75074926 C5.93906186,2.78024792 6.00051739,2.94740694 6.04968181,3.02361179 C6.09884622,3.09735842 6.10376267,3.14406462 6.01280849,3.11210775 C5.92185432,3.08015087 5.83335836,3.03344468 5.73994596,2.9424905 C5.64899179,2.85153632 5.50641497,2.58850668 5.4277519,2.63029644 C5.34908883,2.67208619 5.44987589,2.8490781 5.40808613,2.86874387 C5.36629638,2.88840964 5.28271686,2.79253902 5.20651201,2.68683552 C5.13276538,2.58113202 5.0762263,2.45822097 4.97543924,2.42380588 C4.87465218,2.391849 4.61653898,2.36235035 4.23551473,2.52950938 C3.87661447,2.68929374 3.58162795,2.92774117 3.3997196,3.10719131 C3.22518591,3.29155788 3.21781125,3.37267917 3.23010235,3.40709426 M3.0826091,4.20601608 C3.09244198,4.23551473 3.12194063,4.27730449 3.20552014,4.24780583 C3.29155788,4.21830718 3.45134224,4.16914276 3.53492175,4.149477 C3.61850127,4.12981123 3.73157943,4.12735301 3.77828563,4.13472767 C3.82253361,4.13964411 3.82499183,4.09539613 3.80040962,4.08556325 C3.77582741,4.07573037 3.60621016,4.03148239 3.53000531,4.00690018 C3.45380046,3.98231797 3.42184359,3.9970673 3.39234494,4.00444196 C3.36284629,4.01181662 3.21781125,4.05852282 3.14898106,4.08064681 C3.07769265,4.10522902 3.05802689,4.14210233 3.0826091,4.20601608 M2.47542852,2.01082475 C2.47051207,2.00590831 2.45084631,2.02065764 2.4385552,2.0280323 C2.40168189,2.05015629 2.35989213,2.06736384 2.3205606,2.0870296 C2.23698108,2.12636114 2.16569267,2.16569267 2.15340157,2.26402151 C2.15094335,2.27631262 2.15094335,2.29106194 2.15585979,2.30335305 C2.15831801,2.30826949 2.15831801,2.31072771 2.16077623,2.31564415 C2.18290022,2.3451428 2.26893795,2.29843661 2.29352016,2.28368728 C2.33039348,2.26156329 2.34268458,2.23206464 2.36235035,2.20010777 C2.37709968,2.17552556 2.39676545,2.14848513 2.41151477,2.12390292 C2.43118054,2.09686249 2.44838809,2.06982206 2.46805385,2.04278163 C2.4729703,2.03049052 2.48034496,2.01574119 2.47542852,2.01082475 M6.60769797,4.69028561 C6.50936913,4.63620475 6.47003759,4.60916432 6.4012074,4.59441499 C6.33729366,4.57966567 6.31762789,4.58458211 6.28567102,4.57966567 C6.25617237,4.57474922 6.2487977,4.57474922 6.24388126,4.58212389 C6.24142304,4.58949855 6.2487977,4.59933143 6.27829636,4.61653898 C6.30779501,4.63374653 6.36433409,4.6657034 6.39874918,4.69766027 C6.43316428,4.72961714 6.46757937,4.76403224 6.44545538,4.79844733 C6.42578961,4.83286243 6.35695943,4.82057132 6.30779501,4.79353089 C6.25863059,4.76649046 6.1898004,4.7124096 6.16275997,4.70011849 C6.13571954,4.69028561 6.11605377,4.68782739 6.12342843,4.71486782 C6.1308031,4.74190825 6.1430942,4.77386512 6.12342843,4.78861445 C6.10376267,4.805822 6.04230714,4.805822 5.98576806,4.7591158 C5.9316872,4.7124096 5.91447965,4.68045273 5.84319124,4.62145542 C5.79402682,4.57966567 5.74732063,4.56245812 5.71044731,4.53541769 C5.673574,4.50837726 5.6391589,4.47642039 5.58753626,4.46167106 C5.53591362,4.44692173 5.38842036,4.41742308 5.17455514,4.45183818 C4.96068992,4.48871149 4.9115255,4.52804303 4.84515353,4.52066836 C4.805822,4.51575192 4.79844733,4.50346082 4.78615623,4.46412928 C4.77386512,4.42479774 4.76649046,4.4198813 4.74436647,4.41004842 C4.7247007,4.40021554 4.70011849,4.40513198 4.66324518,4.38792443 C4.62637186,4.37071688 4.54279235,4.34613467 4.45183818,4.21339074 C4.38300799,4.11260368 4.35842578,4.05114816 4.32646891,4.00444196 C4.29205381,3.95773576 4.26992982,3.94544466 4.23059829,3.94790288 C4.17405921,3.9503611 4.14210233,4.02902417 4.11997834,4.149477 C4.09785436,4.26992982 4.08802147,4.38054977 4.03148239,4.41496486 C3.97248509,4.44937995 3.91348778,4.43217241 3.88153091,4.42233952 C3.84957404,4.41250664 3.81270072,4.39529909 3.75861986,4.40021554 C3.704539,4.40267376 3.67012391,4.40267376 3.57179507,4.45675462 C3.47346623,4.51083548 3.44888402,4.53295947 3.36038807,4.55262524 C3.27189211,4.572291 3.24485168,4.572291 3.22026947,4.57720744 C3.19568726,4.57966567 3.18339616,4.57474922 3.16864683,4.63128831 C3.1538975,4.68782739 3.12194063,4.74928291 3.08752554,4.75419935 C3.05311044,4.7591158 3.03098646,4.73945003 3.01377891,4.72961714 C2.99657136,4.71732604 2.9301994,4.6657034 2.89332608,4.64849585 C2.85645277,4.63374653 2.78270614,4.61408076 2.71879239,4.67553628 C2.65487865,4.73699181 2.55409159,4.90660905 2.51721827,5.14751471 C2.48034496,5.38842036 2.45576275,5.61949314 2.51967649,5.64161712 C2.58113202,5.66374111 2.68191908,5.3687546 2.78270614,5.41054435 C2.87120209,5.44741767 2.82941234,6.16275997 2.82449589,6.31762789 C2.81712123,6.47249581 2.78762258,6.70356858 2.8490781,6.86335295 C2.91053363,7.02313731 2.96707271,7.09934216 3.21289481,7.30091628 C3.4587169,7.5024904 3.50050666,7.54182193 3.55458752,7.5959028 C3.60866838,7.64998366 3.7512452,7.74585427 3.78811851,7.76306182 C3.82499183,7.78026937 3.90611312,7.79501869 3.94052821,7.71143918 C3.97494331,7.62785967 3.99460908,7.53936371 4.09785436,7.45824242 C4.20355786,7.37712113 4.22814007,7.30583272 4.20109964,7.25912652 C4.17405921,7.21242032 4.12981123,7.2099621 4.05852282,7.22225321 C3.98723441,7.23454431 3.86432336,7.27633407 3.67504035,7.24683542 C3.48575733,7.21733677 3.2006037,7.14113192 3.17602149,7.00838798 C3.15881395,6.91497559 3.23256057,6.82156319 3.24976812,6.74535834 C3.26451745,6.67406993 3.31122365,6.52411845 3.23256057,6.46020471 C3.18093793,6.41841495 3.13668996,6.47987048 3.10964953,6.51674379 C3.0826091,6.5536171 3.01132069,6.59049042 3.01377891,6.49216158 C3.01623713,6.39629096 3.01869535,6.29304568 3.02852823,6.20454973 C3.0359029,6.1430942 3.02115357,6.01035027 3.01132069,5.96118585 C3.0014878,5.91202143 3.01869535,5.8259837 3.07277621,5.78665216 C3.12931529,5.74977885 3.24485168,5.69323976 3.28909966,5.66619933 C3.33334763,5.6391589 3.38005383,5.61211847 3.38251205,5.54083006 C3.38497027,5.46954166 3.43659292,5.3343395 3.47100801,5.27042576 C3.5054231,5.20897023 3.52508887,5.15734759 3.52754709,5.1229325 C3.53246353,5.08851741 3.5521293,5.05901875 3.60866838,5.04918587 C3.66520747,5.03935299 3.68733145,5.04181121 3.67258213,5.08851741 C3.6578328,5.1352236 3.62587593,5.19422091 3.62833415,5.23846889 C3.63079237,5.28517508 3.65537458,5.30975729 3.69962256,5.33188128 C3.74141232,5.35646349 3.78566029,5.3810457 3.89382202,5.34417239 C4.00198374,5.30729907 4.149477,5.25567643 4.24288939,5.2630511 C4.35105112,5.27042576 4.43217241,5.32696484 4.50837726,5.34908883 C4.56491634,5.36629638 4.572291,5.3687546 4.67553628,5.39579503 C4.72715892,5.41054435 4.7591158,5.39825325 4.7714069,5.38842036 C4.78369801,5.37858748 4.80090555,5.35646349 4.79107267,5.31467374 C4.78123979,5.27288398 4.73207537,5.1819298 4.77632334,5.16226404 C4.82057132,5.14259827 4.86727752,5.20405379 4.90169261,5.2876333 C4.93610771,5.37121282 4.99510501,5.49904031 5.04426943,5.55312117 C5.09343385,5.60720203 5.16472226,5.6268678 5.24830177,5.65636645 C5.33188128,5.6858651 5.38596214,5.67849044 5.42037724,5.82106726 C5.45479233,5.96364407 5.45970877,6.01280849 5.46216699,6.07918046 C5.46462521,6.22175727 5.43758478,6.24388126 5.43758478,6.34466832 C5.43758478,6.46266293 5.44987589,6.49953624 5.40562791,6.55115888 C5.39087859,6.56836643 5.37367104,6.58311576 5.35646349,6.56836643 C5.33925595,6.5536171 5.35400527,6.53886778 5.36137993,6.51674379 C5.37367104,6.48478692 5.36629638,6.43808072 5.36383816,6.37908342 C5.36137993,6.33729366 5.36137993,6.33483544 5.35892171,6.32500255 C5.35646349,6.30042034 5.34417239,6.28812924 5.32450662,6.29058746 C5.28025864,6.2955039 5.25321821,6.329919 5.18684625,6.33483544 C5.12047428,6.33975188 4.9705228,6.3422101 4.8771104,6.34958476 C4.78615623,6.35695943 4.58949855,6.36925053 4.43708885,6.37416697 C4.28713737,6.37908342 4.17651743,6.37908342 4.02410773,6.36433409 C3.87169803,6.34712654 3.84219938,6.33975188 3.81515894,6.33975188 C3.78566029,6.33975188 3.65045814,6.35450121 3.62587593,6.4479136 C3.61358482,6.49707802 3.61850127,6.51674379 3.65291636,6.52411845 C3.68733145,6.53149312 3.83728293,6.541326 3.90857134,6.55115888 C3.97985975,6.56099177 4.13964411,6.58311576 4.21830718,6.58557398 C4.29697025,6.58557398 4.39775731,6.57819931 4.45675462,6.57819931 C4.5132937,6.57819931 4.64849585,6.5880322 4.65341229,6.77731521 C4.65341229,6.84122896 4.65832874,6.89776804 4.70257671,6.92972491 C4.74682469,6.96168179 4.91644194,7.04280308 5.06885164,7.10917504 C5.22126134,7.17554701 5.36383816,7.18537989 5.44250123,7.15342302 C5.5211643,7.12146615 5.54820473,7.07230173 5.52362252,6.9985551 C5.49658209,6.92480847 5.49412387,6.87072761 5.52608074,6.8461454 C5.55803761,6.82156319 5.59245271,6.79452276 5.73994596,6.80189742 C5.82106726,6.80681386 5.92922898,6.8461454 5.9783934,6.77485699 C6.04476536,6.67898637 6.05214003,6.66177883 6.17505107,6.57819931 C6.29796212,6.4946198 6.35941765,6.43808072 6.35450121,6.22913194 C6.34958476,6.01526671 6.329919,5.65145001 6.35941765,5.42283546 C6.3889163,5.20405379 6.52657667,5.09589207 6.60523974,4.94348237 C6.67652815,4.81073844 6.7060268,4.74436647 6.60769797,4.69028561 M4.01181662,6.15292709 C4.38792443,6.21192439 4.86973574,6.23404838 4.96560636,6.22913194 C5.06147698,6.22667372 5.16472226,6.18734218 5.23355244,6.16030175 C5.30238263,6.1308031 5.32450662,6.11605377 5.33679772,6.08901334 C5.34908883,6.06197291 5.33188128,5.96364407 5.3220484,5.92431254 C5.30975729,5.884981 5.26059287,5.84319124 5.23109422,5.81369259 C5.19913735,5.78419394 5.14259827,5.73994596 5.13276538,5.73502952 C5.09835029,5.71044731 5.05410231,5.70553087 4.82302954,5.72519664 C4.59195677,5.74486241 4.50346082,5.78173572 4.38300799,5.83090014 C4.26255516,5.88006456 4.23797295,5.93660364 4.17897565,5.98330984 C4.11752012,6.03001604 4.03394061,6.05705647 3.9970673,6.10622089 C3.96511042,6.1430942 3.99215085,6.15046887 4.01181662,6.15292709 M3.48329911,5.7915686 C3.46117512,5.75223707 3.42430181,5.78419394 3.3997196,5.79894327 C3.37513739,5.81369259 3.30139076,5.86777345 3.2473099,5.90710499 C3.19568726,5.94643652 3.17602149,5.99805917 3.16127217,6.04230714 C3.14652284,6.08655512 3.14652284,6.15046887 3.18093793,6.16767641 C3.20306192,6.17996752 3.23747702,6.17013463 3.26205923,6.16030175 C3.29155788,6.14801064 3.30876542,6.14063598 3.33334763,6.12342843 C3.37267917,6.096388 3.38988672,6.08163868 3.41938537,6.05459825 C3.44888402,6.02755782 3.46609157,6.00051739 3.49804844,5.93660364 C3.52754709,5.87514812 3.5054231,5.83090014 3.48329911,5.7915686 M7.7728947,3.23256057 C7.80485158,3.29155788 7.83189201,3.3530134 7.85893244,3.41446893 C7.99413459,3.73649587 8.065423,4.08556325 8.05559012,4.43463063 C8.0531319,4.49854437 8.06050656,4.57720744 8.12196208,4.59687321 C8.18833405,4.6189972 8.18095939,3.92086245 8.1711265,3.86186514 C8.15146073,3.7635363 8.13425319,3.66766569 8.12196208,3.56933685 C8.10721276,3.45625868 8.04084079,3.37513739 7.99905103,3.27435033 C7.9597195,3.18093793 7.91792974,3.08998376 7.85893244,3.00640425 C7.81714268,2.94494872 7.76552004,2.8834932 7.76552004,2.81220479 C7.76552004,2.78516436 7.7728947,2.75566571 7.7728947,2.72862528 C7.7728947,2.56884091 7.54182193,2.50492717 7.49265751,2.35989213 C7.46561708,2.27631262 7.46070064,2.21239887 7.39924512,2.14111046 C7.31320738,2.03786518 7.19275456,1.93707812 7.08459283,1.85841505 C6.96905645,1.77237732 6.77485699,1.76254443 6.63719662,1.735504 C6.59294864,1.72812934 6.541326,1.7232129 6.50936913,1.75516977 C6.55853355,1.82399996 6.63719662,1.86578972 6.70848503,1.91003769 C6.86089473,2.00590831 6.99609688,2.12636114 7.10671682,2.26647973 C7.21979499,2.40905655 7.29108339,2.5786738 7.41153622,2.71387595 C7.5491966,2.87611853 7.67456587,3.04573578 7.7728947,3.23256057 M8.16866828,5.90956321 C8.14162785,5.92431254 8.12687852,5.96856051 8.10721276,5.99314272 C8.07771411,6.03247426 8.04821545,6.07180579 8.02363324,6.11359555 C7.99659281,6.15784353 7.95726128,6.19225862 7.93022085,6.2365066 C7.92284618,6.2487977 7.91547152,6.26108881 7.91055508,6.27337991 C7.89580575,6.31025323 7.88597287,6.34712654 7.89088931,6.38645808 C7.89334753,6.41841495 7.90563864,6.4479136 7.90809686,6.47741225 C7.91792974,6.54624244 7.88105643,6.59049042 7.85647422,6.65194594 C7.81468446,6.75027478 7.7606036,6.84122896 7.70652274,6.93464135 C7.72127206,6.94201602 7.73602139,6.92972491 7.74585427,6.91743381 C7.83926667,6.80681386 7.93513729,6.69619392 8.01625858,6.57574109 C8.06296478,6.50691091 8.09983809,6.42578961 8.12933675,6.34712654 C8.17604294,6.22175727 8.14408607,6.07918046 8.19570871,5.96118585 C8.2055416,5.92677076 8.20799982,5.88743922 8.16866828,5.90956321"/>
        <path fill="#C8C9C7" d="M1.29548245,4.24043117 C1.28319135,4.32892713 1.27581668,4.41742308 1.27335846,4.50591904 C1.25860914,4.84023709 1.25369269,5.1696387 1.25615092,5.50149853 C1.25615092,5.55066295 1.22665226,5.55066295 1.21436116,5.54328829 C1.17748784,5.5211643 1.15044741,5.48429098 1.13815631,5.44250123 C1.09390833,5.30484085 1.09636655,5.13768183 1.05703502,4.99018857 C1.01278704,4.8181131 0.978371946,4.64112119 0.966080841,4.46167106 C0.93904041,4.13226945 0.970997283,3.79057673 1.1135741,3.48821556 C1.16765496,3.37267917 1.24877625,3.27435033 1.33235577,3.17847971 C1.43805927,3.05802689 1.54867921,2.94003228 1.66175738,2.82695411 C1.73304578,2.75812393 1.8289164,2.59588134 1.92478702,2.55409159 C1.94445279,2.5442587 1.94691101,2.55409159 1.94936923,2.55900803 C1.95674389,2.64504576 1.8756226,2.69421018 1.85841505,2.7777897 C1.85104039,2.81712123 1.85841505,2.85645277 1.85841505,2.8957843 C1.86578972,3.1416064 1.56588676,3.32351475 1.47493258,3.54229642 C1.38152018,3.76599452 1.32743932,4.00198374 1.29548245,4.24043117 M2.16077623,2.31318593 C2.18290022,2.34268458 2.26893795,2.29352016 2.29352016,2.28122906 C2.33039348,2.25910507 2.34268458,2.22960642 2.36235035,2.19764955 C2.37709968,2.17060912 2.39676545,2.14602691 2.41151477,2.1214447 C2.43118054,2.09440427 2.44838809,2.06736384 2.46805385,2.0403234 C2.4729703,2.03294874 2.48034496,2.01819942 2.47542852,2.01328297 C2.47051207,2.00836653 2.45084631,2.02311586 2.4385552,2.03049052 C2.40168189,2.05261451 2.35989213,2.06982206 2.3205606,2.08948782 C2.23698108,2.12881936 2.16569267,2.16815089 2.15340157,2.26647973 C2.15094335,2.27877084 2.15094335,2.29352016 2.15585979,2.30581127 C2.15585979,2.30581127 2.15831801,2.31072771 2.16077623,2.31318593 M8.05559012,4.43708885 C8.0531319,4.50100259 8.06050656,4.57966567 8.12196208,4.59933143 C8.18833405,4.62145542 8.18095939,3.92332067 8.1711265,3.86432336 C8.15146073,3.76599452 8.13425319,3.67012391 8.12196208,3.57179507 C8.10721276,3.4587169 8.04084079,3.37759561 7.99905103,3.27680855 C7.9597195,3.18339616 7.91792974,3.09244198 7.85893244,3.00886247 C7.81714268,2.94740694 7.76552004,2.88595142 7.76552004,2.81466301 C7.76552004,2.78762258 7.7728947,2.75812393 7.7728947,2.7310835 C7.7728947,2.57129913 7.54182193,2.50738539 7.49265751,2.36235035 C7.46561708,2.27877084 7.46070064,2.21485709 7.39924512,2.14356869 C7.31320738,2.0403234 7.19275456,1.93953634 7.08459283,1.86087327 C6.96905645,1.77483554 6.77485699,1.76254443 6.63719662,1.73796223 C6.59294864,1.73058756 6.541326,1.72567112 6.50936913,1.75762799 C6.55853355,1.82645818 6.63719662,1.86824794 6.70848503,1.91249591 C6.86089473,2.00836653 6.99609688,2.12881936 7.10671682,2.26893795 C7.21979499,2.41151477 7.29108339,2.58113202 7.41153622,2.71633417 C7.55165482,2.87611853 7.67456587,3.04573578 7.77535293,3.2350188 C7.8073098,3.2940161 7.83435023,3.35547162 7.86139066,3.41692715 C7.99659281,3.73895409 8.065423,4.08802147 8.05559012,4.43708885 M7.91055508,6.27092169 C7.89580575,6.30779501 7.88597287,6.34466832 7.89088931,6.38399986 C7.89334753,6.41349851 7.90563864,6.44299716 7.90809686,6.47495403 C7.91792974,6.54378422 7.88105643,6.5880322 7.85647422,6.64948772 C7.81468446,6.74781656 7.7606036,6.83877074 7.70652274,6.93218313 C7.72127206,6.9395578 7.73602139,6.92726669 7.74585427,6.91497559 C7.83926667,6.80435564 7.93513729,6.6937357 8.01625858,6.57328287 C8.06296478,6.50199446 8.09983809,6.42333139 8.12933675,6.34466832 C8.17604294,6.21929905 8.14408607,6.07672224 8.19570871,5.95872763 C8.20799982,5.92922898 8.21045804,5.88743922 8.1711265,5.90956321 C8.14408607,5.92431254 8.12933675,5.96856051 8.10967098,5.99314272 C8.08017233,6.03247426 8.05067367,6.07180579 8.02609146,6.11359555 C7.99905103,6.15784353 7.9597195,6.19225862 7.93267907,6.2365066 C7.92284618,6.24633948 7.91547152,6.25863059 7.91055508,6.27092169"/>
        <path fill="#FFF" d="M5.61703491,3.54721286 C5.3220484,3.39234494 5.0762263,3.39234494 4.78615623,3.41692715 C4.49608615,3.44150936 4.27976271,3.53492175 4.22814007,3.62833415 C4.17651743,3.72174655 4.12735301,3.74387054 4.11260368,3.74141232 C4.09539613,3.73895409 4.08556325,3.74878698 4.07573037,3.63570881 C4.06589748,3.52263065 4.0560646,3.51279777 3.9970673,3.46854979 C3.89136379,3.3874285 3.50296488,3.44396758 3.3874285,3.45380046 C3.28418322,3.46363335 3.24239346,3.44396758 3.23010235,3.40955248 C3.21781125,3.37513739 3.22272769,3.2940161 3.40463604,3.11456597 C3.58654439,2.93511584 3.88153091,2.6966684 4.24043117,2.53688404 C4.62145542,2.36726679 4.87956862,2.39676545 4.98035568,2.43118054 C5.08114274,2.46313741 5.1352236,2.58850668 5.21142845,2.69421018 C5.28517508,2.79991368 5.3687546,2.8957843 5.41300257,2.87611853 C5.45479233,2.85645277 5.35400527,2.67946086 5.43266834,2.6376711 C5.51133141,2.59588134 5.65390823,2.85891099 5.74486241,2.94986516 C5.83581658,3.04081934 5.92677076,3.08752554 6.01772493,3.11948241 C6.10867911,3.15143928 6.10376267,3.10473308 6.05459825,3.03098646 C6.00543383,2.95723983 5.9439783,2.78762258 5.99314272,2.75812393 C6.04230714,2.72862528 6.11359555,2.7900808 6.16521819,2.84416166 C6.21438261,2.89824252 6.35450121,3.08998376 6.43316428,3.3997196 C6.50936913,3.70945544 6.46266293,3.83728293 6.38399986,3.87415625 C6.22913194,3.94052821 5.90464677,3.69716434 5.61703491,3.54721286 M3.20552014,4.25026406 C3.29155788,4.2207654 3.45134224,4.17160098 3.53492175,4.15193522 C3.61850127,4.13226945 3.73157943,4.12981123 3.77828563,4.13718589 C3.82253361,4.14210233 3.82499183,4.09785436 3.80040962,4.08802147 C3.77582741,4.07818859 3.60621016,4.03394061 3.53000531,4.0093584 C3.45380046,3.98477619 3.42184359,3.99952552 3.39234494,4.00690018 C3.36284629,4.01427484 3.21781125,4.06098104 3.14898106,4.08310503 C3.07769265,4.10768724 3.05802689,4.14210233 3.0826091,4.20601608 C3.09244198,4.23551473 3.11948241,4.27730449 3.20552014,4.25026406 M5.13030716,4.08556325 C5.13768183,4.11997834 5.21880312,4.11014546 5.29992441,4.09293791 C5.38350392,4.07818859 5.50149853,4.05852282 5.5334554,4.11014546 C5.56541227,4.16422632 5.61949314,4.2674716 5.71782197,4.34613467 C5.81615081,4.42479774 5.93906186,4.48871149 6.07672224,4.48379505 C6.21684083,4.47887861 6.19717506,4.43954707 6.19471684,4.42725597 C6.19225862,4.41496486 6.16275997,4.41004842 6.13817776,4.41250664 C6.11359555,4.41250664 5.96856051,4.38792443 5.87514812,4.30434492 C5.78419394,4.2207654 5.69815621,4.11260368 5.64899179,4.05852282 C5.59982737,4.00690018 5.54083006,3.94298643 5.39579503,3.95773576 C5.25321821,3.97494331 5.11555784,4.01919128 5.13030716,4.08556325 M6.07918046,4.2551805 C6.07918046,4.28713737 6.17259285,4.3141778 6.30287857,4.29697025 C6.43070606,4.27976271 6.48970336,4.26501338 6.48478692,4.2207654 C6.47987048,4.17651743 6.41595673,4.18143387 6.36187587,4.19126675 C6.31025323,4.19864142 6.15538531,4.22322363 6.13571954,4.22322363 C6.11605377,4.22322363 6.07918046,4.22814007 6.07918046,4.2551805 M3.26205923,6.16030175 C3.29155788,6.14801064 3.30876542,6.14063598 3.33334763,6.12342843 C3.37267917,6.096388 3.38988672,6.08163868 3.41938537,6.05459825 C3.44888402,6.02755782 3.46609157,6.00051739 3.49804844,5.93660364 C3.53000531,5.8726899 3.50788132,5.82844192 3.48575733,5.78911038 C3.46363335,5.74977885 3.42676003,5.78173572 3.40217782,5.79648505 C3.37759561,5.81123437 3.30384898,5.86531523 3.24976812,5.90464677 C3.19814548,5.9439783 3.17847971,5.99560094 3.16373039,6.03984892 C3.14898106,6.0840969 3.14898106,6.14801064 3.18339616,6.16521819 C3.20552014,6.17996752 3.23747702,6.17013463 3.26205923,6.16030175 M4.96560636,6.23159016 C5.06147698,6.22667372 5.16472226,6.1898004 5.23355244,6.16275997 C5.30238263,6.13326132 5.32450662,6.11851199 5.33679772,6.09147156 C5.34908883,6.06443113 5.33188128,5.96610229 5.3220484,5.92677076 C5.30975729,5.88743922 5.26059287,5.84564947 5.23109422,5.81615081 C5.19913735,5.78665216 5.14259827,5.74240418 5.13276538,5.73748774 C5.09835029,5.71290553 5.05410231,5.70798909 4.82302954,5.72765486 C4.59195677,5.74732063 4.50346082,5.78419394 4.38300799,5.83335836 C4.26255516,5.88252278 4.23797295,5.93906186 4.17897565,5.98576806 C4.11752012,6.03247426 4.03394061,6.05951469 3.9970673,6.10867911 C3.96756864,6.14801064 3.99460908,6.15538531 4.01427484,6.15784353 C4.39038265,6.21438261 4.86973574,6.23404838 4.96560636,6.23159016 M4.23059829,3.9503611 C4.17405921,3.95281932 4.14210233,4.03148239 4.11997834,4.15193522 C4.09785436,4.27238804 4.08802147,4.38300799 4.03148239,4.41742308 C3.97248509,4.45183818 3.91348778,4.43463063 3.88153091,4.42479774 C3.84957404,4.41496486 3.81270072,4.39775731 3.75861986,4.40267376 C3.704539,4.40513198 3.67012391,4.40513198 3.57179507,4.45921284 C3.47346623,4.5132937 3.44888402,4.53541769 3.36038807,4.55508346 C3.27189211,4.57474922 3.24485168,4.57720744 3.22026947,4.57966567 C3.19568726,4.58212389 3.18339616,4.57720744 3.16864683,4.63374653 C3.1538975,4.69028561 3.12194063,4.75174113 3.08752554,4.75665758 C3.05311044,4.76157402 3.03098646,4.74190825 3.01377891,4.73207537 C2.99657136,4.71978426 2.9301994,4.66816162 2.89332608,4.65095407 C2.85645277,4.63620475 2.78270614,4.61653898 2.71879239,4.6779945 C2.65487865,4.73945003 2.55409159,4.90906728 2.51967649,5.14997293 C2.48280318,5.39087859 2.45822097,5.62195136 2.52213471,5.64407535 C2.58359024,5.66619933 2.6843773,5.37121282 2.78516436,5.41300257 C2.87366031,5.44987589 2.83187056,6.16521819 2.82695411,6.32008611 C2.81957945,6.47495403 2.7900808,6.7060268 2.85153632,6.86581117 C2.91299185,7.02559553 2.96953093,7.10180038 3.21535303,7.3033745 C3.46117512,7.50494862 3.50296488,7.54428015 3.55704574,7.59836102 C3.6111266,7.65244188 3.75370342,7.7483125 3.79057673,7.76552004 C3.82745005,7.78272759 3.90857134,7.79747691 3.94298643,7.7138974 C3.97740153,7.63031789 3.9970673,7.54182193 4.10031258,7.46070064 C4.20601608,7.37957935 4.23059829,7.30829094 4.20355786,7.26158474 C4.17651743,7.21487854 4.13226945,7.21242032 4.06098104,7.22471143 C3.98969263,7.23700253 3.86678158,7.27879229 3.67749857,7.24929364 C3.48821556,7.21979499 3.20306192,7.14359014 3.17847971,7.0108462 C3.16127217,6.91743381 3.2350188,6.82402141 3.25222634,6.74781656 C3.26697567,6.67652815 3.31368187,6.52657667 3.2350188,6.46266293 C3.18339616,6.42087317 3.13914818,6.4823287 3.11210775,6.51920201 C3.08506732,6.55607533 3.01377891,6.59294864 3.01623713,6.4946198 C3.01869535,6.39874918 3.02115357,6.2955039 3.03098646,6.20700795 C3.03836112,6.14555242 3.02361179,6.01280849 3.01377891,5.96364407 C3.00394602,5.91447965 3.02115357,5.82844192 3.07523443,5.7915686 C3.13177351,5.75469529 3.2473099,5.69815621 3.29155788,5.67111578 C3.33580586,5.64407535 3.38251205,5.61703491 3.38497027,5.54574651 C3.3874285,5.4744581 3.43905114,5.33925595 3.47346623,5.2753422 C3.50788132,5.21388668 3.52754709,5.16226404 3.53000531,5.12784894 C3.53492175,5.09343385 3.55458752,5.0639352 3.6111266,5.05410231 C3.66766569,5.04426943 3.68978967,5.04672765 3.67504035,5.09343385 C3.66029102,5.14014005 3.62833415,5.19913735 3.63079237,5.24338533 C3.63325059,5.29009153 3.6578328,5.31467374 3.70208078,5.33679772 C3.74387054,5.36137993 3.78811851,5.38596214 3.89628024,5.34908883 C4.00444196,5.31221551 4.15193522,5.26059287 4.24534761,5.26796754 C4.35350934,5.2753422 4.43463063,5.33188128 4.51083548,5.35400527 C4.56737456,5.37121282 4.57474922,5.37367104 4.6779945,5.40071147 C4.72961714,5.4154608 4.76157402,5.40316969 4.77386512,5.39333681 C4.78615623,5.38350392 4.80336377,5.36137993 4.79353089,5.31959018 C4.78369801,5.27780042 4.73453359,5.18684625 4.77878156,5.16718048 C4.82302954,5.14751471 4.86973574,5.20897023 4.90415083,5.29009153 C4.93856593,5.37367104 4.99756323,5.50149853 5.04672765,5.55557939 C5.09589207,5.60966025 5.16718048,5.62932602 5.25075999,5.65882467 C5.3343395,5.68832332 5.38842036,5.68094866 5.42283546,5.82352548 C5.45725055,5.96610229 5.46216699,6.01526671 5.46462521,6.08163868 C5.46708344,6.22421549 5.44004301,6.24633948 5.44004301,6.34712654 C5.44004301,6.46512115 5.45233411,6.50199446 5.40808613,6.5536171 C5.39333681,6.57082465 5.37612926,6.58557398 5.35892171,6.57082465 C5.34171417,6.55607533 5.35646349,6.541326 5.36383816,6.51920201 C5.37612926,6.48724514 5.3687546,6.44053894 5.36629638,6.38154164 C5.36383816,6.33975188 5.36383816,6.33729366 5.36137993,6.32746078 C5.35892171,6.30287857 5.34663061,6.29058746 5.32696484,6.29304568 C5.28271686,6.29796212 5.25567643,6.33237722 5.18930447,6.33729366 C5.1229325,6.3422101 4.97298102,6.34466832 4.87956862,6.35204298 C4.78861445,6.35941765 4.59195677,6.37170875 4.43954707,6.37662519 C4.28959559,6.38154164 4.17897565,6.38154164 4.02656595,6.36679231 C3.87415625,6.34958476 3.8446576,6.3422101 3.81761717,6.3422101 C3.78811851,6.3422101 3.65291636,6.35695943 3.62833415,6.45037182 C3.61604305,6.49953624 3.62095949,6.51920201 3.65537458,6.52657667 C3.68978967,6.53395134 3.83974115,6.54378422 3.91102956,6.5536171 C3.98231797,6.56344999 4.14210233,6.58557398 4.2207654,6.5880322 C4.29942848,6.5880322 4.40021554,6.58311576 4.45921284,6.58065753 C4.51575192,6.58065753 4.65095407,6.59049042 4.65587052,6.77977343 C4.65587052,6.84368718 4.66078696,6.90022626 4.70503494,6.93218313 C4.74928291,6.96414001 4.91890016,7.0452613 5.07130986,7.11163326 C5.22371956,7.17800523 5.36629638,7.18783811 5.44495945,7.15588124 C5.52362252,7.12392437 5.55066295,7.07475995 5.52608074,7.00101332 C5.49904031,6.92726669 5.49658209,6.87318583 5.52853896,6.84860362 C5.56049583,6.82402141 5.59491093,6.79698098 5.74240418,6.80435564 C5.82352548,6.80927208 5.9316872,6.84860362 5.98085162,6.77731521 C6.04722358,6.68144459 6.05459825,6.66423705 6.1775093,6.58065753 C6.30042034,6.49707802 6.36187587,6.44053894 6.35695943,6.23159016 C6.35204298,6.01772493 6.33237722,5.65390823 6.36187587,5.42529368 C6.39137452,5.20651201 6.52903489,5.09835029 6.60769797,4.94594059 C6.67652815,4.81319666 6.7060268,4.74436647 6.60769797,4.69274383 C6.50936913,4.63866297 6.47003759,4.61162254 6.4012074,4.59687321 C6.33729366,4.58212389 6.31762789,4.58704033 6.28567102,4.58212389 C6.25617237,4.57720744 6.2487977,4.57720744 6.24388126,4.58458211 C6.24142304,4.59195677 6.2487977,4.60178965 6.27829636,4.6189972 C6.30779501,4.63620475 6.36433409,4.66816162 6.39874918,4.70011849 C6.43316428,4.73207537 6.46757937,4.76649046 6.44545538,4.80090555 C6.42578961,4.83532065 6.35695943,4.82302954 6.30779501,4.79598911 C6.25863059,4.76894868 6.1898004,4.71486782 6.16275997,4.70257671 C6.13571954,4.69274383 6.11605377,4.69028561 6.12342843,4.71732604 C6.1308031,4.74436647 6.1430942,4.77632334 6.12342843,4.79107267 C6.10376267,4.80828022 6.04230714,4.80828022 5.98576806,4.76157402 C5.9316872,4.71486782 5.91447965,4.68291095 5.84319124,4.62391364 C5.79402682,4.58212389 5.74732063,4.56491634 5.71044731,4.53787591 C5.673574,4.51083548 5.6391589,4.47887861 5.58753626,4.46412928 C5.53591362,4.44937995 5.38842036,4.4198813 5.17455514,4.4542964 C4.96068992,4.49116971 4.9115255,4.53050125 4.84515353,4.52312658 C4.805822,4.51821014 4.79844733,4.50591904 4.78615623,4.4665875 C4.77386512,4.42725597 4.76649046,4.42233952 4.74436647,4.41250664 C4.7247007,4.40267376 4.70011849,4.4075902 4.66324518,4.39038265 C4.62637186,4.3731751 4.54279235,4.34859289 4.45183818,4.21584896 C4.38300799,4.1150619 4.35842578,4.05360638 4.32646891,4.00690018 C4.29451203,3.96019398 4.27238804,3.94790288 4.23059829,3.9503611 M5.62932602,6.55853355 C5.61949314,6.55853355 5.55557939,6.55853355 5.58507804,6.48970336 C5.61211847,6.42087317 5.6268678,6.26846347 5.62195136,6.13571954 C5.61949314,6.00297561 5.59736915,5.92677076 5.58507804,5.8726899 C5.57278694,5.81860903 5.5678705,5.80877615 5.58507804,5.7915686 C5.59982737,5.77436106 5.60720203,5.77190284 5.63670068,5.76698639 C5.65390823,5.76452817 5.65636645,5.78665216 5.67603222,5.84073302 C5.69569799,5.89481388 5.74977885,5.9783934 5.74732063,6.17013463 C5.74486241,6.36187587 5.73994596,6.47003759 5.73011308,6.50445268 C5.7202802,6.53886778 5.71290553,6.56099177 5.68832332,6.56099177 C5.67849044,6.55853355 5.64161712,6.55853355 5.62932602,6.55853355 M3.23747702,4.72224248 C3.27680855,4.72224248 3.32843119,4.71486782 3.45380046,4.68291095 C3.57916973,4.65095407 3.63325059,4.60424788 3.65291636,4.58704033 C3.67258213,4.56983278 3.67749857,4.56737456 3.69962256,4.58458211 C3.72174655,4.59933143 3.74141232,4.60424788 3.77336919,4.62391364 C3.80532606,4.64357941 3.8102425,4.67307806 3.78320207,4.70257671 C3.75616164,4.72961714 3.68978967,4.75665758 3.62095949,4.78615623 C3.54967108,4.81565488 3.48084089,4.83777887 3.38497027,4.84761175 C3.28909966,4.85744464 3.21043659,4.8304042 3.18585438,4.82057132 C3.16127217,4.81073844 3.1538975,4.78369801 3.17110505,4.75174113 C3.19077082,4.71486782 3.21535303,4.72224248 3.23747702,4.72224248 M4.97789746,4.63866297 C5.0295201,4.64112119 5.0762263,4.62883009 5.14997293,4.63128831 C5.22617778,4.63374653 5.31713196,4.65341229 5.42529368,4.63374653 C5.50395675,4.6189972 5.52853896,4.58949855 5.54820473,4.57474922 C5.5678705,4.5599999 5.57770338,4.56737456 5.59491093,4.6067061 C5.61211847,4.64357941 5.54820473,4.68536917 5.46216699,4.73207537 C5.37612926,4.77878156 5.30729907,4.78615623 5.18438802,4.79107267 C5.0639352,4.79598911 4.95577347,4.77632334 4.92627482,4.77386512 C4.89677617,4.7714069 4.88448507,4.73945003 4.88202685,4.70011849 C4.8771104,4.62145542 4.92627482,4.63866297 4.97789746,4.63866297"/>
      </g>
    </g>
    <path fill="#FFF" fill-rule="nonzero" d="M18.96305,15 C19.0571,15 19.13255,15.0212702 19.1807,15.0410425 L19.1807,15.0410425 L19.1477,15.2510485 L19.1258,15.2399641 C19.08095,15.2201917 19.0235,15.2014679 18.944,15.2025165 C18.8489,15.2025165 18.8048,15.2456561 18.8048,15.2857999 C18.8042,15.3311863 18.8564,15.3611444 18.9413,15.4060815 C19.0814,15.4751348 19.14605,15.5587178 19.1453,15.6689635 C19.1432,15.8701318 18.9773,16 18.7223,16 C18.61325,15.9986519 18.5084,15.9752846 18.45185,15.9483223 L18.45185,15.9483223 L18.4859,15.7315758 L18.5171,15.7470042 C18.5972,15.7831037 18.64865,15.7976333 18.7457,15.7976333 C18.8156,15.7976333 18.89045,15.7681246 18.8912,15.7032654 C18.89165,15.660725 18.8597,15.6304673 18.7652,15.582834 C18.6731,15.5365488 18.551,15.4589575 18.5525,15.3196525 C18.55385,15.1315159 18.72305,15 18.96305,15 Z M18.4517,15.0169263 L18.29975,15.9853206 L18.05675,15.9853206 L18.2087,15.0169263 L18.4517,15.0169263 Z M19.616,15.0179748 L19.8035,15.0182744 L20,15.9859197 L19.77485,15.9859197 C19.77485,15.9859197 19.75265,15.8746255 19.74515,15.8409227 L19.74515,15.8409227 L19.43405,15.8404733 C19.4246,15.8665368 19.38305,15.9857699 19.38305,15.9857699 L19.38305,15.9857699 L19.12805,15.9857699 L19.4885,15.0982624 C19.514,15.0350509 19.5575,15.0179748 19.616,15.0179748 L19.616,15.0179748 Z M17.3948,15.0172259 C17.4476,15.0196225 17.4902,15.0375974 17.5049,15.0990114 L17.5049,15.0990114 L17.58995,15.5437388 L17.61545,15.6779509 L17.8532,15.0176753 L18.11045,15.0176753 L17.72795,15.9845716 L17.471,15.9845716 L17.256758,15.144425 C17.1817125,15.0989648 17.095972,15.0624281 17,15.037148 L17,15.037148 L17.0033,15.0170761 Z M19.63295,15.2787597 C19.62065,15.315009 19.5992,15.3737268 19.6007,15.3713301 C19.6007,15.3713301 19.52405,15.5862792 19.50395,15.6417016 L19.50395,15.6417016 L19.70555,15.6417016 L19.64945,15.3621929 Z" mask="url(#cc-alaska-b)"/>
  </g>
</svg>
