<svg xmlns="http://www.w3.org/2000/svg" width="24" height="24" viewBox="0 0 24 24">
  <g fill="none" transform="translate(3 6)">
    <path fill="#4361C3" d="M16.2492006,1.15463195e-14 L1.75320007,1.15463195e-14 C0.786000031,1.15463195e-14 -1.77635684e-15,0.784200031 -1.77635684e-15,1.74600007 L-1.77635684e-15,9.76200039 C-1.77635684e-15,10.7256004 0.786000031,11.5092005 1.75200007,11.5092005 L16.2492006,11.5092005 C17.2152007,11.5092005 18,10.7256004 18,9.76320039 L18,1.74600007 C18,0.784200031 17.2140007,1.15463195e-14 16.2492006,1.15463195e-14"/>
    <path fill="#F79E1C" d="M12,3 C13.6551724,3 15,4.34482759 15,6 C15,7.65517241 13.6551724,9 12,9 C10.4284693,9 9.13671023,7.78765594 9.01016911,6.24841402 C9.0034342,6.16649085 9,6.08364168 9,6 C9,5.86477159 9.00897669,5.73161472 9.0263659,5.60109354 C9.22181771,4.1340581 10.480056,3 12,3 Z"/>
    <path fill="#EA001B" d="M7,9 C5.34482759,9 4,7.65517241 4,6 C4,4.34482759 5.34482759,3 7,3 C8.65517241,3 10,4.34482759 10,6 C10,7.65517241 8.65517241,9 7,9 Z"/>
    <path fill="#FE5F01" d="M10,6 C10,6.61184423 9.81623539,7.18128125 9.50095977,7.65605746 C9.18376461,7.18128125 9,6.61184423 9,6 C9,5.38800348 9.1838561,4.81843528 9.49927567,4.34358804 C9.8161439,4.81843528 10,5.38800348 10,6 Z"/>
  </g>
</svg>
