<svg xmlns="http://www.w3.org/2000/svg" version="1.1" viewBox="0 0 24 24" xmlns:xlink="http://www.w3.org/1999/xlink">
  <title>iconTitle</title>
  <desc>iconDesc</desc>
  <style></style>
  <g fill="none" transform="translate(3 6)">
    <path fill="#0058A0" d="M16.2492006,-1.50990331e-14 L1.75320007,-1.50990331e-14 C0.786000031,-1.50990331e-14 0,0.784200031 0,1.74600007 L0,9.76200039 C0,10.7256004 0.786000031,11.5092005 1.75200007,11.5092005 L16.2492006,11.5092005 C17.2152007,11.5092005 18,10.7256004 18,9.76320039 L18,1.74600007 C18,0.784200031 17.2140007,-1.50990331e-14 16.2492006,-1.50990331e-14"/>
    <path fill="#FFF" d="M6.92760028,7.90680031 L7.5348003,4.02780016 L8.50680034,4.02780016 L7.89900031,7.90680031 L6.92700028,7.90680031 M11.4222005,4.12320016 C11.2302004,4.04520016 10.9284004,3.96000016 10.5522004,3.96000016 C9.59220038,3.96000016 8.91540035,4.48680018 8.91000035,5.24040021 C8.90400035,5.79840023 9.39240037,6.10920024 9.76080039,6.29460025 C10.1388004,6.48540026 10.2666004,6.60660026 10.2648004,6.77700027 C10.2618004,7.03680028 9.9624004,7.15500028 9.68280038,7.15500028 C9.29460037,7.15500028 9.08880036,7.09680028 8.76840035,6.95220028 L8.64360034,6.89040027 L8.50740034,7.75860031 C8.73360035,7.86660031 9.15300036,7.96020032 9.58920038,7.96560032 C10.6092004,7.96560032 11.2728004,7.4454003 11.2812004,6.63960026 C11.2842004,6.19800025 11.0256004,5.86320023 10.4652004,5.58660022 C10.1256004,5.40660021 9.91680039,5.28660021 9.91920039,5.1048002 C9.91920039,4.9440002 10.0956004,4.77120019 10.4760004,4.77120019 C10.7940004,4.76700019 11.0238004,4.84200019 11.2032004,4.9212002 L11.2908004,4.9656002 L11.4228005,4.12440016 M13.9140006,4.03200016 L13.1640005,4.03200016 C12.9300005,4.03200016 12.7560005,4.10040016 12.6540005,4.35360017 L11.2122004,7.90860031 L12.2322005,7.90860031 C12.2322005,7.90860031 12.3984005,7.4310003 12.4362005,7.32660029 L13.6806005,7.32840029 C13.7106005,7.4634003 13.7994005,7.90920031 13.7994005,7.90920031 L14.7000006,7.90920031 L13.9140006,4.03320016 L13.9140006,4.03200016 Z M12.7158005,6.53160026 C12.7962005,6.30840025 13.1028005,5.44740022 13.1028005,5.44740022 C13.0968005,5.45700022 13.1826005,5.22180021 13.2318005,5.0766002 L13.2978005,5.41080022 L13.5222005,6.53040026 L12.7158005,6.53040026 L12.7158005,6.53160026 Z M6.11280024,4.03080016 L5.16180021,6.67560027 L5.0598002,6.13800024 C4.88280019,5.51880022 4.33200017,4.84800019 3.71400015,4.51080018 L4.58400018,7.90380031 L5.61180022,7.90380031 L7.14180028,4.03080016 L6.11280024,4.03080016"/>
    <path fill="#FAA61A" d="M4.27920017,4.02840016 L2.71320011,4.02840016 L2.70000011,4.10880016 C3.91920016,4.43040018 4.72560019,5.20680021 5.0598002,6.13860024 L4.71960019,4.35660017 C4.66080019,4.11060016 4.49040018,4.03860016 4.27920017,4.02900016 L4.27920017,4.02840016 Z"/>
  </g>
</svg>
