<svg>
  <title>iconTitle</title>
  <desc>iconDesc</desc>
  <style></style>
  <path d="M5.58578644,12.761573 C6.63270379,11.7146557 8.11556676,11.3693822 9.45003393,11.7257527 L9.45003393,11.7257527 L5.58578644,15.5900002 C4.80473785,16.3710487 4.80473785,17.6373787 5.58578644,18.4184273 C6.36683502,19.1994759 7.63316498,19.1994759 8.41421356,18.4184273 L8.41421356,18.4184273 L12.2784611,14.5541798 C12.6348315,15.888647 12.289558,17.3715099 11.2426407,18.4184273 L11.2426407,18.4184273 L9.82842712,19.8326408 C8.26632996,21.394738 5.73367004,21.394738 4.17157288,19.8326408 C2.60947571,18.2705437 2.60947571,15.7378838 4.17157288,14.1757866 L4.17157288,14.1757866 Z M15.703372,8.29289322 C16.0938963,8.68341751 16.0938963,9.31658249 15.703372,9.70710678 L9.70710678,15.703372 C9.31658249,16.0938963 8.68341751,16.0938963 8.29289322,15.703372 C7.90236893,15.3128477 7.90236893,14.6796827 8.29289322,14.2891584 L14.2891584,8.29289322 C14.6796827,7.90236893 15.3128477,7.90236893 15.703372,8.29289322 Z M14.1757866,4.17157288 C15.7378838,2.60947571 18.2705437,2.60947571 19.8326408,4.17157288 C21.394738,5.73367004 21.394738,8.26632996 19.8326408,9.82842712 L19.8326408,9.82842712 L18.4184273,11.2426407 C17.3715099,12.289558 15.888647,12.6348315 14.5541798,12.2784611 L14.5541798,12.2784611 L18.4184273,8.41421356 C19.1994759,7.63316498 19.1994759,6.36683502 18.4184273,5.58578644 C17.6373787,4.80473785 16.3710487,4.80473785 15.5900002,5.58578644 L15.5900002,5.58578644 L11.7257527,9.45003393 C11.7183547,7.57181384 12.0636281,6.28373134 12.761573,5.58578644 L12.761573,5.58578644 Z"/>
</svg>
