<?xml version="1.0" encoding="UTF-8"?>
<svg width="54px" height="54px" viewBox="0 0 54 54" version="1.1" xmlns="http://www.w3.org/2000/svg" xmlns:xlink="http://www.w3.org/1999/xlink">
    <title>ECBCAA06-014D-4765-AEF5-044300412211@1x</title>
    <g id="Pre-flight-/-Flight-details-overlay-ðŸ”" stroke="none" stroke-width="1" fill="none" fill-rule="evenodd">
        <g id="F_info_SEA2CDV_Web_1440_Redlines" transform="translate(-3226.000000, -989.000000)">
            <g id="L_Values_1" transform="translate(2773.000000, 373.000000)">
                <g id="Change-Planes" transform="translate(453.000000, 616.000000)">
                    <g id="Icons/Terminal/plane-side-fill" fill="#569ED7">
                        <path d="M14.75,10.25 L10.51,4.275 C10.275,3.946 9.895,3.75 9.491,3.75 L7.75,3.75 L10.25,10.5 L6,10.75 L4.399,8.92 C4.305,8.812 4.167,8.75 4.023,8.75 L2.5,8.75 L3.844,11.999 L2.5,15.25 L4.024,15.25 C4.168,15.25 4.304,15.188 4.398,15.08 L6,13.25 L10.25,13.5 L7.75,20.25 L9.491,20.25 C9.895,20.25 10.275,20.054 10.507,19.728 L14.75,13.75 L18.25,13.75 C19.5,13.75 21.5,13.345 21.5,12 C21.5,10.5 19.5,10.25 18.25,10.25 L14.75,10.25 Z" id="plane-side-fill"></path>
                    </g>
                    <g id="Icons/Terminal/plane-side-fill-Copy" transform="translate(30.000000, 30.000000)" fill="#01426A">
                        <path d="M14.75,10.25 L10.51,4.275 C10.275,3.946 9.895,3.75 9.491,3.75 L7.75,3.75 L10.25,10.5 L6,10.75 L4.399,8.92 C4.305,8.812 4.167,8.75 4.023,8.75 L2.5,8.75 L3.844,11.999 L2.5,15.25 L4.024,15.25 C4.168,15.25 4.304,15.188 4.398,15.08 L6,13.25 L10.25,13.5 L7.75,20.25 L9.491,20.25 C9.895,20.25 10.275,20.054 10.507,19.728 L14.75,13.75 L18.25,13.75 C19.5,13.75 21.5,13.345 21.5,12 C21.5,10.5 19.5,10.25 18.25,10.25 L14.75,10.25 Z" id="plane-side-fill"></path>
                    </g>
                    <path d="M18.6,18 C25.5442583,18 31.2128831,23.5627807 31.5446446,30.5519021 L32.9172341,28.9974721 C33.3162496,28.5459111 33.9991223,28.5093049 34.4424728,28.9157098 C34.8455188,29.2851688 34.9118624,29.8935649 34.6208076,30.3403935 L34.5227485,30.4691945 L31.2827504,34.1358612 C30.8894807,34.5809197 30.2286246,34.6180079 29.7907571,34.2471258 L29.677236,34.1358612 L26.4372378,30.4691945 C26.0382223,30.0176335 26.074163,29.3221147 26.5175136,28.9157098 C26.9205595,28.5462508 27.5215576,28.5429167 27.9272853,28.8846283 L28.0427523,28.9974721 L29.3122982,30.4328662 C28.9258894,24.7453061 24.2774949,20.2 18.6,20.2 L18.4534505,20.1899583 C17.926302,20.1171201 17.5200006,19.6568871 17.5200006,19.1 C17.5200006,18.5431129 17.926302,18.0828799 18.4534505,18.0100417 L18.6,18 Z" id="Path" fill="#C1DAF0"></path>
                </g>
            </g>
        </g>
    </g>
</svg>