<svg xmlns="http://www.w3.org/2000/svg" width="24" height="24" viewBox="0 0 24 24">
  <path fill="#626B79" fill-rule="evenodd" d="M11.9727447,3.7495 C13.5037478,3.7495 14.75,4.97899704 14.75,6.4995 L14.75,8.7495 L17,8.75 C18.4619834,8.75 19.6583637,9.89223269 19.7449789,11.3325363 L19.75,11.5 L19.75,19.5 C19.75,20.063785 19.1586231,20.4134441 18.6735166,20.1756079 L18.5839749,20.1240377 L15.7729183,18.25 L12,18.25 C10.5380166,18.25 9.34163634,17.1077673 9.25502105,15.6674637 L9.25,15.5 L9.25,13.2485 L8.14449044,13.2495 L5.41476582,15.0613754 C4.9162513,15.3922682 4.25,15.0348367 4.25,14.4365 L4.25,6.4995 C4.25,4.97899704 5.4962522,3.7495 7.02725532,3.7495 L11.9727447,3.7495 Z M14.75,10.4995 C14.75,12.0207165 13.5040408,13.2495 11.9727447,13.2495 L10.75,13.2485 L10.75,15.5 C10.75,16.1466748 11.2423752,16.6794672 11.8722886,16.7435401 L12,16.75 L16,16.75 C16.1110516,16.75 16.2202396,16.7746535 16.3198681,16.8216305 L16.4160251,16.8759623 L18.25,18.0986122 L18.25,11.5 C18.25,10.8533252 17.7576248,10.3205328 17.1277114,10.2564599 L17,10.25 L14.75,10.2495 L14.75,10.4995 Z M11.9727447,5.2495 L7.02725532,5.2495 C6.32016856,5.2495 5.75,5.81200296 5.75,6.4995 L5.75,13.0385024 L7.50346822,11.8746246 C7.62640501,11.7930243 7.77068049,11.7495 7.91823404,11.7495 L11.9727447,11.7495 C12.6802387,11.7495 13.25,11.1875929 13.25,10.4995 L13.25,6.4995 C13.25,5.81200296 12.6798314,5.2495 11.9727447,5.2495 Z"/>
</svg>
