<svg width="24" height="24" viewBox="0 0 24 24" xmlns="http://www.w3.org/2000/svg">
<path d="M14.75 6.49951C14.75 4.97901 13.5037 3.74951 11.9727 3.74951H7.02726C5.49625 3.74951 4.25 4.97901 4.25 6.49951V14.4365C4.25 15.0348 4.91625 15.3923 5.41477 15.0614L8.14449 13.2495L9.25 13.2485V13.25H12.5C13.7426 13.25 14.75 12.2426 14.75 11V6.49951Z"/>
<path d="M16.25 8.74985V11C16.25 13.0711 14.5711 14.75 12.5 14.75H9.25V15.5L9.25502 15.6675C9.34164 17.1078 10.538 18.25 12 18.25H15.7729L18.584 20.1241L18.6735 20.1756C19.1586 20.4135 19.75 20.0638 19.75 19.5V11.5L19.745 11.3325C19.6584 9.89224 18.462 8.75001 17 8.75001L16.25 8.74985Z"/>
</svg>
