<svg xmlns="http://www.w3.org/2000/svg" width="24" height="24" viewBox="0 0 24 24">
  <path fill="#626B79" fill-rule="evenodd" d="M12,2 C17.5228475,2 22,6.4771525 22,12 C22,17.5228475 17.5228475,22 12,22 C6.4771525,22 2,17.5228475 2,12 C2,6.4771525 6.4771525,2 12,2 Z M15.4471344,8.49320653 L10.4764411,13.915781 L8.53033009,11.9696699 C8.23743687,11.6767767 7.76256313,11.6767767 7.46966991,11.9696699 C7.1767767,12.2625631 7.1767767,12.7374369 7.46966991,13.0303301 L9.96966991,15.5303301 C10.2716031,15.8322633 10.7643325,15.8215569 11.0528656,15.5067935 L16.5528656,9.50679347 C16.8327599,9.20145423 16.8121327,8.7270287 16.5067935,8.44713439 C16.2014542,8.16724009 15.7270287,8.18786729 15.4471344,8.49320653 Z"/>
</svg>
