<svg width="24" height="24" viewBox="0 0 24 24" xmlns="http://www.w3.org/2000/svg">
<path fill-rule="evenodd" clip-rule="evenodd" d="M5.25 9C5.25 5.28579 8.28579 2.25 12 2.25C13.3344 2.25 14.5889 2.58677 15.7301 3.38558C16.0694 3.62311 16.152 4.09076 15.9144 4.4301C15.6769 4.76943 15.2092 4.85196 14.8699 4.61442C14.0111 4.01323 13.0656 3.75 12 3.75C9.11421 3.75 6.75 6.11421 6.75 9C6.75 10.1716 6.91264 11.0798 7.25115 11.9712C7.59479 12.8762 8.13028 13.7931 8.92106 14.9795C9.83967 16.3151 10.9045 17.5839 12.0112 18.8667C13.0697 17.6561 14.0746 16.3172 15.1 14.95C15.1058 14.9422 15.1118 14.9346 15.1179 14.9271C16.3359 13.428 17.0699 11.7636 17.2537 9.92537C17.2949 9.51321 17.6625 9.21251 18.0746 9.25372C18.4868 9.29494 18.7875 9.66247 18.7463 10.0746C18.5306 12.2315 17.668 14.1633 16.2914 15.8615L16.2873 15.867C15.0961 17.4552 13.8764 19.0815 12.5496 20.5103C12.4046 20.6664 12.2001 20.7535 11.9871 20.7499C11.7741 20.7462 11.5728 20.6522 11.4332 20.4912L11.4193 20.4751C10.1287 18.986 8.80578 17.4595 7.68197 15.8249L7.6759 15.8161L7.67596 15.816C6.86837 14.6046 6.25478 13.5727 5.84885 12.5038C5.43736 11.4202 5.25 10.3284 5.25 9ZM18.5305 5.46967C18.8234 5.76256 18.8234 6.23744 18.5305 6.53033L12.5305 12.5303C12.2376 12.8232 11.7628 12.8232 11.4699 12.5303L8.46987 9.53033C8.17698 9.23744 8.17698 8.76256 8.46987 8.46967C8.76276 8.17678 9.23764 8.17678 9.53053 8.46967L12.0002 10.9393L17.4699 5.46967C17.7628 5.17678 18.2376 5.17678 18.5305 5.46967Z"/>
</svg>
