<svg xmlns="http://www.w3.org/2000/svg" xmlns:xlink="http://www.w3.org/1999/xlink" viewBox="0 0 24 24">
  <title>iconTitle</title>
  <desc>iconDesc</desc>
  <style></style>
  <path d="M12,2 C17.5228475,2 22,6.4771525 22,12 C22,17.5228475 17.5228475,22 12,22 C6.4771525,22 2,17.5228475 2,12 C2,6.4771525 6.4771525,2 12,2 Z M12,3.5 C7.30557963,3.5 3.5,7.30557963 3.5,12 C3.5,16.6944204 7.30557963,20.5 12,20.5 C16.6944204,20.5 20.5,16.6944204 20.5,12 C20.5,7.30557963 16.6944204,3.5 12,3.5 Z M10.4764411,13.915781 L15.4471344,8.49320653 C15.7270287,8.18786729 16.2014542,8.16724009 16.5067935,8.44713439 C16.7843746,8.70158376 16.8266565,9.11680274 16.6217613,9.4196001 L16.5528656,9.50679347 L11.0528656,15.5067935 C10.7905628,15.792942 10.3595027,15.8278038 10.0564491,15.6049306 L9.96966991,15.5303301 L7.46966991,13.0303301 C7.1767767,12.7374369 7.1767767,12.2625631 7.46966991,11.9696699 C7.73593648,11.7034034 8.15260016,11.6791973 8.44621165,11.8970518 L8.53033009,11.9696699 L10.4764411,13.915781 L15.4471344,8.49320653 L10.4764411,13.915781 Z"/>
</svg>
