<svg width="24" height="24" viewBox="0 0 24 24" xmlns="http://www.w3.org/2000/svg">
<path d="M11.9952 21.8509C10.8221 21.8509 9.72492 21.6294 8.70375 21.1864C7.68275 20.7434 6.79208 20.1418 6.03175 19.3816C5.27158 18.6213 4.67 17.7306 4.227 16.7096C3.784 15.6885 3.5625 14.5913 3.5625 13.4181C3.5625 12.8976 3.60575 12.3906 3.69225 11.8971C3.77892 11.4035 3.91392 10.9246 4.09725 10.4606L5.578 10.7336C5.39467 11.1503 5.26133 11.5795 5.178 12.0211C5.09467 12.4628 5.053 12.9253 5.053 13.4086C5.053 15.3458 5.72575 16.9871 7.07125 18.3326C8.41675 19.6781 10.0581 20.3509 11.9952 20.3509C13.9324 20.3509 15.5738 19.6781 16.9193 18.3326C18.2648 16.9871 18.9375 15.3458 18.9375 13.4086C18.9375 13.1163 18.9177 12.8281 18.878 12.5441C18.8382 12.2601 18.7868 11.9803 18.724 11.7046C17.4125 11.5803 16.2026 11.2075 15.0943 10.5864C13.9859 9.96521 13.0394 9.15404 12.2548 8.15287L13.572 7.38737C14.1438 8.07454 14.8089 8.64762 15.5673 9.10662C16.3256 9.56562 17.1528 9.88746 18.049 10.0721C17.658 9.35162 17.1535 8.71663 16.5355 8.16713C15.9177 7.61779 15.2145 7.19696 14.426 6.90462L16.0068 5.98162C17.3388 6.70096 18.4102 7.71446 19.221 9.02212C20.032 10.3298 20.4375 11.7951 20.4375 13.4181C20.4375 14.5913 20.216 15.6885 19.773 16.7096C19.33 17.7306 18.7284 18.6213 17.9682 19.3816C17.2079 20.1418 16.3156 20.7434 15.2913 21.1864C14.2669 21.6294 13.1683 21.8509 11.9952 21.8509ZM5.19725 9.44712L15.1953 5.68737C14.6554 5.15154 14.0384 4.74871 13.3443 4.47887C12.6499 4.20887 11.9175 4.07387 11.147 4.07387C9.6215 4.07387 8.29558 4.58512 7.16925 5.60762C6.04292 6.63013 5.38558 7.90996 5.19725 9.44712ZM3.97225 11.5239C3.88758 11.2482 3.82058 10.9723 3.77125 10.6961C3.72192 10.4198 3.69725 10.1335 3.69725 9.83738C3.69725 8.40404 4.08217 7.11304 4.852 5.96437C5.62183 4.81571 6.61192 3.94329 7.82225 3.34712C7.79525 3.29329 7.77917 3.24037 7.774 3.18837C7.769 3.13654 7.7665 3.07854 7.7665 3.01437C7.7665 2.76954 7.8495 2.56412 8.0155 2.39812C8.1815 2.23212 8.38692 2.14912 8.63175 2.14912C8.83308 2.14912 9.00908 2.20771 9.15975 2.32487C9.31025 2.44221 9.41242 2.59129 9.46625 2.77212C9.74325 2.70796 10.0192 2.65887 10.2943 2.62487C10.5693 2.59104 10.8535 2.57412 11.147 2.57412C12.2317 2.57412 13.2605 2.79237 14.2335 3.22887C15.2067 3.66537 16.0509 4.28879 16.7663 5.09912L19.4202 4.10662C19.6164 4.03229 19.8064 4.03904 19.9902 4.12687C20.1742 4.21471 20.3034 4.35671 20.3778 4.55287C20.4522 4.74904 20.4481 4.93912 20.3652 5.12312C20.2826 5.30696 20.1432 5.43612 19.947 5.51062L3.97225 11.5239Z"/>
<path d="M10.1106 13.9869C10.1106 14.6514 9.57185 15.1902 8.90729 15.1902C8.24273 15.1902 7.704 14.6514 7.704 13.9869C7.704 13.3223 8.24273 12.7836 8.90729 12.7836C9.57185 12.7836 10.1106 13.3223 10.1106 13.9869Z"/>
<path d="M16.235 13.9884C16.235 14.6529 15.6963 15.1917 15.0317 15.1917C14.3672 15.1917 13.8285 14.6529 13.8285 13.9884C13.8285 13.3238 14.3672 12.7851 15.0317 12.7851C15.6963 12.7851 16.235 13.3238 16.235 13.9884Z"/>
<path fill-rule="evenodd" clip-rule="evenodd" d="M9.81244 16.6079C10.062 16.1764 10.6141 16.029 11.0455 16.2785C11.2658 16.406 11.5215 16.4792 11.7969 16.4792C12.0724 16.4792 12.328 16.406 12.5483 16.2785C12.9797 16.029 13.5318 16.1764 13.7813 16.6079C14.0309 17.0393 13.8835 17.5913 13.4521 17.8409C12.9644 18.123 12.3981 18.2842 11.7969 18.2842C11.1957 18.2842 10.6294 18.123 10.1417 17.8409C9.71029 17.5913 9.56287 17.0393 9.81244 16.6079Z"/>
<path d="M10.1106 13.9869C10.1106 14.6514 9.57185 15.1902 8.90729 15.1902C8.24273 15.1902 7.704 14.6514 7.704 13.9869C7.704 13.3223 8.24273 12.7836 8.90729 12.7836C9.57185 12.7836 10.1106 13.3223 10.1106 13.9869Z"/>
<path d="M16.235 13.9884C16.235 14.6529 15.6963 15.1917 15.0317 15.1917C14.3672 15.1917 13.8285 14.6529 13.8285 13.9884C13.8285 13.3238 14.3672 12.7851 15.0317 12.7851C15.6963 12.7851 16.235 13.3238 16.235 13.9884Z"/>
</svg>
