<svg width="16" height="27" viewBox="0 0 16 27" fill="none" xmlns="http://www.w3.org/2000/svg">
<path d="M4.94602 0.803069L1.02172 7.43968C0.826851 7.76917 0.770842 8.16256 0.865986 8.53334C0.96113 8.90413 1.19963 9.22195 1.52907 9.41689L4.34091 11.0798L9.7368 1.95898L6.92533 0.295715C6.76209 0.198899 6.58138 0.135221 6.39351 0.108323C6.20564 0.0814246 6.01431 0.091834 5.83046 0.138958C5.64662 0.186082 5.47387 0.268991 5.3221 0.382947C5.17034 0.496903 5.04255 0.639668 4.94602 0.803069Z" fill="#626B79"/>
<path d="M15.0455 25.2479V11.2935H14.1997V8.3335H9.54832V11.2935H4.47407V25.2479H4.05115V26.0937H15.4684V25.2479H15.0455Z" fill="#626B79"/>
<path d="M11.9005 1.53174C10.3543 3.23951 9.3031 4.40173 9.3031 5.72513C9.30323 6.19193 9.43969 6.64853 9.6957 7.03887C9.95171 7.4292 10.3161 7.73628 10.7442 7.92238C10.6131 7.73047 10.543 7.50344 10.5431 7.27102C10.5431 6.63227 11.0505 6.0713 11.7964 5.24755C11.6752 6.4739 12.856 6.63227 12.8557 7.27102C12.8559 7.50351 12.7856 7.73061 12.6542 7.92238C13.0823 7.73633 13.4468 7.42928 13.7029 7.03894C13.959 6.6486 14.0955 6.19197 14.0957 5.72513C14.096 4.40173 11.6493 4.07237 11.9005 1.53174Z" fill="#626B79"/>
<path d="M10.7493 10.3837C11.0023 10.3837 11.2073 10.1786 11.2073 9.92572C11.2073 9.67281 11.0023 9.46777 10.7493 9.46777C10.4964 9.46777 10.2914 9.67281 10.2914 9.92572C10.2914 10.1786 10.4964 10.3837 10.7493 10.3837Z" fill="white"/>
<path d="M12.7122 10.3837C12.9651 10.3837 13.1702 10.1786 13.1702 9.92572C13.1702 9.67281 12.9651 9.46777 12.7122 9.46777C12.4593 9.46777 12.2543 9.67281 12.2543 9.92572C12.2543 10.1786 12.4593 10.3837 12.7122 10.3837Z" fill="white"/>
</svg>
