<svg width="24" height="24" viewBox="0 0 24 24" xmlns="http://www.w3.org/2000/svg">
<path fill-rule="evenodd" clip-rule="evenodd" d="M9.73077 4.41071C9.73077 3.07931 10.7769 2 12.0673 2H16.3942C16.7288 2 17 2.27982 17 2.625V4.41071C17 4.67485 16.8391 4.91047 16.598 4.9993L15.9649 5.23259L16.9165 7.85089C17.034 8.17409 16.8753 8.53435 16.562 8.65555C16.2488 8.77675 15.8996 8.61299 15.7821 8.28979L14.8238 5.65306L14.4038 5.8078V7.5564C14.4323 7.58796 14.4578 7.6228 14.4798 7.66058L16.9137 11.8458C16.9702 11.943 17 12.0541 17 12.1674V21.375C17 21.7202 16.7288 22 16.3942 22H8.60577C8.27121 22 8 21.7202 8 21.375V12.1674C8 12.0541 8.02984 11.943 8.08633 11.8458L10.5202 7.66058C10.5422 7.6228 10.5677 7.58796 10.5962 7.5564V5.92857H10.3365C10.002 5.92857 9.73077 5.64875 9.73077 5.30357V4.41071ZM11.8077 5.92857V7.35714H13.1923V5.92857H11.8077ZM11.3826 8.60714L9.21154 12.3405V20.75H15.7885V12.3405L13.6174 8.60714H11.3826ZM13.8662 4.67857L15.7885 3.97026V3.25H12.0673C11.446 3.25 10.9423 3.76967 10.9423 4.41071V4.67857H13.8662Z"/>
</svg>
