<svg width="24" height="24" viewBox="0 0 24 24" xmlns="http://www.w3.org/2000/svg">
<path d="M12.4283 2.5C12.4283 2.77614 12.2044 3 11.9283 3C11.6521 3 11.4283 2.77614 11.4283 2.5C11.4283 2.22386 11.6521 2 11.9283 2C12.2044 2 12.4283 2.22386 12.4283 2.5Z"/>
<path d="M12.4282 5.21434C12.4282 5.49048 12.2044 5.71434 11.9282 5.71434C11.6521 5.71434 11.4282 5.49048 11.4282 5.21434C11.4282 4.93819 11.6521 4.71434 11.9282 4.71434C12.2044 4.71434 12.4282 4.93819 12.4282 5.21434Z"/>
<path d="M14.4283 4.21427C14.4283 4.49042 14.2045 4.71427 13.9283 4.71427C13.6522 4.71427 13.4283 4.49042 13.4283 4.21427C13.4283 3.93813 13.6522 3.71427 13.9283 3.71427C14.2045 3.71427 14.4283 3.93813 14.4283 4.21427Z"/>
<path d="M13.8569 6.35712C13.8569 6.63326 13.633 6.85712 13.3569 6.85712C13.0807 6.85712 12.8569 6.63326 12.8569 6.35712C12.8569 6.08097 13.0807 5.85712 13.3569 5.85712C13.633 5.85712 13.8569 6.08097 13.8569 6.35712Z"/>
<path d="M15.7139 6.07147C15.7139 6.34761 15.4901 6.57147 15.2139 6.57147C14.9378 6.57147 14.7139 6.34761 14.7139 6.07147C14.7139 5.79533 14.9378 5.57147 15.2139 5.57147C15.4901 5.57147 15.7139 5.79533 15.7139 6.07147Z"/>
<path d="M17.1426 3.78571C17.1426 4.06185 16.9187 4.28571 16.6426 4.28571C16.3664 4.28571 16.1426 4.06185 16.1426 3.78571C16.1426 3.50956 16.3664 3.28571 16.6426 3.28571C16.9187 3.28571 17.1426 3.50956 17.1426 3.78571Z"/>
<path d="M18.1425 6.21429C18.1425 6.49044 17.9187 6.71429 17.6425 6.71429C17.3664 6.71429 17.1425 6.49044 17.1425 6.21429C17.1425 5.93815 17.3664 5.71429 17.6425 5.71429C17.9187 5.71429 18.1425 5.93815 18.1425 6.21429Z"/>
<path d="M16.4283 7.78575C16.4283 8.06189 16.2044 8.28575 15.9283 8.28575C15.6521 8.28575 15.4283 8.06189 15.4283 7.78575C15.4283 7.5096 15.6521 7.28575 15.9283 7.28575C16.2044 7.28575 16.4283 7.5096 16.4283 7.78575Z"/>
<path d="M11.4283 2.5C11.4283 2.77614 11.6521 3 11.9283 3C12.2044 3 12.4283 2.77614 12.4283 2.5C12.4283 2.22386 12.2044 2 11.9283 2C11.6521 2 11.4283 2.22386 11.4283 2.5Z"/>
<path d="M9.28548 4.21427C9.28548 4.49042 9.50934 4.71427 9.78548 4.71427C10.0616 4.71427 10.2855 4.49042 10.2855 4.21427C10.2855 3.93813 10.0616 3.71427 9.78548 3.71427C9.50934 3.71427 9.28548 3.93813 9.28548 4.21427Z"/>
<path d="M9.85697 6.35712C9.85697 6.63326 10.0808 6.85712 10.357 6.85712C10.6331 6.85712 10.857 6.63326 10.857 6.35712C10.857 6.08097 10.6331 5.85712 10.357 5.85712C10.0808 5.85712 9.85697 6.08097 9.85697 6.35712Z"/>
<path d="M7.99988 6.07147C7.99988 6.34761 8.22374 6.57147 8.49988 6.57147C8.77602 6.57147 8.99988 6.34761 8.99988 6.07147C8.99988 5.79533 8.77602 5.57147 8.49988 5.57147C8.22374 5.57147 7.99988 5.79533 7.99988 6.07147Z"/>
<path d="M6.71407 3.78571C6.71407 4.06185 6.93793 4.28571 7.21407 4.28571C7.49021 4.28571 7.71407 4.06185 7.71407 3.78571C7.71407 3.50956 7.49021 3.28571 7.21407 3.28571C6.93793 3.28571 6.71407 3.50956 6.71407 3.78571Z"/>
<path d="M5.71411 6.21429C5.71411 6.49044 5.93797 6.71429 6.21411 6.71429C6.49025 6.71429 6.71411 6.49044 6.71411 6.21429C6.71411 5.93815 6.49025 5.71429 6.21411 5.71429C5.93797 5.71429 5.71411 5.93815 5.71411 6.21429Z"/>
<path d="M7.28556 7.78575C7.28556 8.06189 7.50942 8.28575 7.78556 8.28575C8.06171 8.28575 8.28556 8.06189 8.28556 7.78575C8.28556 7.5096 8.06171 7.28575 7.78556 7.28575C7.50942 7.28575 7.28556 7.5096 7.28556 7.78575Z"/>
<path d="M2.5 11.4286C2.77614 11.4286 3 11.6524 3 11.9286C3 12.2047 2.77614 12.4286 2.5 12.4286C2.22386 12.4286 2 12.2047 2 11.9286C2 11.6524 2.22386 11.4286 2.5 11.4286Z"/>
<path d="M5.21423 11.4285C5.49038 11.4285 5.71423 11.6524 5.71423 11.9285C5.71423 12.2047 5.49038 12.4285 5.21423 12.4285C4.93809 12.4285 4.71423 12.2047 4.71423 11.9285C4.71423 11.6524 4.93809 11.4285 5.21423 11.4285Z"/>
<path d="M4.21427 9.42853C4.49042 9.42853 4.71427 9.65239 4.71427 9.92853C4.71427 10.2047 4.49042 10.4285 4.21427 10.4285C3.93813 10.4285 3.71427 10.2047 3.71427 9.92853C3.71427 9.65239 3.93813 9.42853 4.21427 9.42853Z"/>
<path d="M6.35722 10C6.63336 10 6.85722 10.2239 6.85722 10.5C6.85722 10.7762 6.63336 11 6.35722 11C6.08108 11 5.85722 10.7762 5.85722 10.5C5.85722 10.2239 6.08108 10 6.35722 10Z"/>
<path d="M6.07137 8.14282C6.34751 8.14282 6.57137 8.36668 6.57137 8.64282C6.57137 8.91896 6.34751 9.14282 6.07137 9.14282C5.79523 9.14282 5.57137 8.91896 5.57137 8.64282C5.57137 8.36668 5.79523 8.14282 6.07137 8.14282Z"/>
<path d="M3.78581 6.71429C4.06195 6.71429 4.28581 6.93815 4.28581 7.21429C4.28581 7.49044 4.06195 7.71429 3.78581 7.71429C3.50966 7.71429 3.28581 7.49044 3.28581 7.21429C3.28581 6.93815 3.50966 6.71429 3.78581 6.71429Z"/>
<path d="M2.5 12.4286C2.77614 12.4286 3 12.2047 3 11.9286C3 11.6524 2.77614 11.4286 2.5 11.4286C2.22386 11.4286 2 11.6524 2 11.9286C2 12.2047 2.22386 12.4286 2.5 12.4286Z"/>
<path d="M5.21423 12.4285C5.49038 12.4285 5.71423 12.2047 5.71423 11.9285C5.71423 11.6524 5.49038 11.4285 5.21423 11.4285C4.93809 11.4285 4.71423 11.6524 4.71423 11.9285C4.71423 12.2047 4.93809 12.4285 5.21423 12.4285Z"/>
<path d="M4.21427 14.4285C4.49042 14.4285 4.71427 14.2047 4.71427 13.9285C4.71427 13.6524 4.49042 13.4285 4.21427 13.4285C3.93813 13.4285 3.71427 13.6524 3.71427 13.9285C3.71427 14.2047 3.93813 14.4285 4.21427 14.4285Z"/>
<path d="M6.35722 13.8572C6.63336 13.8572 6.85722 13.6333 6.85722 13.3572C6.85722 13.081 6.63336 12.8572 6.35722 12.8572C6.08108 12.8572 5.85722 13.081 5.85722 13.3572C5.85722 13.6333 6.08108 13.8572 6.35722 13.8572Z"/>
<path d="M6.07137 15.8572C6.34751 15.8572 6.57137 15.6333 6.57137 15.3572C6.57137 15.081 6.34751 14.8572 6.07137 14.8572C5.79523 14.8572 5.57137 15.081 5.57137 15.3572C5.57137 15.6333 5.79523 15.8572 6.07137 15.8572Z"/>
<path d="M3.78581 17.1429C4.06195 17.1429 4.28581 16.919 4.28581 16.6429C4.28581 16.3667 4.06195 16.1429 3.78581 16.1429C3.50966 16.1429 3.28581 16.3667 3.28581 16.6429C3.28581 16.919 3.50966 17.1429 3.78581 17.1429Z"/>
<path d="M6.2144 18.1428C6.49054 18.1428 6.7144 17.919 6.7144 17.6428C6.7144 17.3667 6.49054 17.1428 6.2144 17.1428C5.93825 17.1428 5.7144 17.3667 5.7144 17.6428C5.7144 17.919 5.93825 18.1428 6.2144 18.1428Z"/>
<path d="M21.3572 11.4286C21.081 11.4286 20.8572 11.6524 20.8572 11.9286C20.8572 12.2047 21.081 12.4286 21.3572 12.4286C21.6333 12.4286 21.8572 12.2047 21.8572 11.9286C21.8572 11.6524 21.6333 11.4286 21.3572 11.4286Z"/>
<path d="M18.6429 11.4285C18.3668 11.4285 18.1429 11.6524 18.1429 11.9285C18.1429 12.2047 18.3668 12.4285 18.6429 12.4285C18.9191 12.4285 19.1429 12.2047 19.1429 11.9285C19.1429 11.6524 18.9191 11.4285 18.6429 11.4285Z"/>
<path d="M19.6429 9.42853C19.3668 9.42853 19.1429 9.65239 19.1429 9.92853C19.1429 10.2047 19.3668 10.4285 19.6429 10.4285C19.919 10.4285 20.1429 10.2047 20.1429 9.92853C20.1429 9.65239 19.919 9.42853 19.6429 9.42853Z"/>
<path d="M17.5 10C17.2238 10 17 10.2239 17 10.5C17 10.7762 17.2238 11 17.5 11C17.7761 11 18 10.7762 18 10.5C18 10.2239 17.7761 10 17.5 10Z"/>
<path d="M17.7858 8.14282C17.5097 8.14282 17.2858 8.36668 17.2858 8.64282C17.2858 8.91896 17.5097 9.14282 17.7858 9.14282C18.0619 9.14282 18.2858 8.91896 18.2858 8.64282C18.2858 8.36668 18.0619 8.14282 17.7858 8.14282Z"/>
<path d="M20.0716 6.71429C19.7954 6.71429 19.5716 6.93815 19.5716 7.21429C19.5716 7.49044 19.7954 7.71429 20.0716 7.71429C20.3477 7.71429 20.5716 7.49044 20.5716 7.21429C20.5716 6.93815 20.3477 6.71429 20.0716 6.71429Z"/>
<path d="M21.3572 12.4286C21.081 12.4286 20.8572 12.2047 20.8572 11.9286C20.8572 11.6524 21.081 11.4286 21.3572 11.4286C21.6333 11.4286 21.8572 11.6524 21.8572 11.9286C21.8572 12.2047 21.6333 12.4286 21.3572 12.4286Z"/>
<path d="M18.6429 12.4285C18.3668 12.4285 18.1429 12.2047 18.1429 11.9285C18.1429 11.6524 18.3668 11.4285 18.6429 11.4285C18.9191 11.4285 19.1429 11.6524 19.1429 11.9285C19.1429 12.2047 18.9191 12.4285 18.6429 12.4285Z"/>
<path d="M19.6429 14.4285C19.3668 14.4285 19.1429 14.2047 19.1429 13.9285C19.1429 13.6524 19.3668 13.4285 19.6429 13.4285C19.919 13.4285 20.1429 13.6524 20.1429 13.9285C20.1429 14.2047 19.919 14.4285 19.6429 14.4285Z"/>
<path d="M17.5 13.8572C17.2238 13.8572 17 13.6333 17 13.3572C17 13.081 17.2238 12.8572 17.5 12.8572C17.7761 12.8572 18 13.081 18 13.3572C18 13.6333 17.7761 13.8572 17.5 13.8572Z"/>
<path d="M17.7858 15.8572C17.5097 15.8572 17.2858 15.6333 17.2858 15.3572C17.2858 15.081 17.5097 14.8572 17.7858 14.8572C18.0619 14.8572 18.2858 15.081 18.2858 15.3572C18.2858 15.6333 18.0619 15.8572 17.7858 15.8572Z"/>
<path d="M20.0716 17.1429C19.7954 17.1429 19.5716 16.919 19.5716 16.6429C19.5716 16.3667 19.7954 16.1429 20.0716 16.1429C20.3477 16.1429 20.5716 16.3667 20.5716 16.6429C20.5716 16.919 20.3477 17.1429 20.0716 17.1429Z"/>
<path d="M17.6428 18.1428C17.3666 18.1428 17.1428 17.919 17.1428 17.6428C17.1428 17.3667 17.3666 17.1428 17.6428 17.1428C17.9189 17.1428 18.1428 17.3667 18.1428 17.6428C18.1428 17.919 17.9189 18.1428 17.6428 18.1428Z"/>
<path d="M11.4285 21.5C11.4285 21.2239 11.6523 21 11.9285 21C12.2046 21 12.4285 21.2239 12.4285 21.5C12.4285 21.7761 12.2046 22 11.9285 22C11.6523 22 11.4285 21.7761 11.4285 21.5Z"/>
<path d="M11.4285 18.7857C11.4285 18.5095 11.6523 18.2857 11.9285 18.2857C12.2046 18.2857 12.4285 18.5095 12.4285 18.7857C12.4285 19.0618 12.2046 19.2857 11.9285 19.2857C11.6523 19.2857 11.4285 19.0618 11.4285 18.7857Z"/>
<path d="M9.28573 19.6429C9.28573 19.3668 9.50958 19.1429 9.78573 19.1429C10.0619 19.1429 10.2857 19.3668 10.2857 19.6429C10.2857 19.919 10.0619 20.1429 9.78573 20.1429C9.50958 20.1429 9.28573 19.919 9.28573 19.6429Z"/>
<path d="M9.85702 17.5C9.85702 17.2238 10.0809 17 10.357 17C10.6332 17 10.857 17.2238 10.857 17.5C10.857 17.7761 10.6332 18 10.357 18C10.0809 18 9.85702 17.7761 9.85702 17.5Z"/>
<path d="M8.00012 17.7857C8.00012 17.5096 8.22398 17.2857 8.50012 17.2857C8.77626 17.2857 9.00012 17.5096 9.00012 17.7857C9.00012 18.0618 8.77626 18.2857 8.50012 18.2857C8.22398 18.2857 8.00012 18.0618 8.00012 17.7857Z"/>
<path d="M6.71431 20.0715C6.71431 19.7953 6.93817 19.5715 7.21431 19.5715C7.49046 19.5715 7.71431 19.7953 7.71431 20.0715C7.71431 20.3476 7.49046 20.5715 7.21431 20.5715C6.93817 20.5715 6.71431 20.3476 6.71431 20.0715Z"/>
<path d="M7.28581 16.0714C7.28581 15.7953 7.50966 15.5714 7.78581 15.5714C8.06195 15.5714 8.28581 15.7953 8.28581 16.0714C8.28581 16.3476 8.06195 16.5714 7.78581 16.5714C7.50966 16.5714 7.28581 16.3476 7.28581 16.0714Z"/>
<path d="M12.4285 21.5C12.4285 21.2239 12.2046 21 11.9285 21C11.6523 21 11.4285 21.2239 11.4285 21.5C11.4285 21.7761 11.6523 22 11.9285 22C12.2046 22 12.4285 21.7761 12.4285 21.5Z"/>
<path d="M12.4285 18.7857C12.4285 18.5095 12.2046 18.2857 11.9285 18.2857C11.6523 18.2857 11.4285 18.5095 11.4285 18.7857C11.4285 19.0618 11.6523 19.2857 11.9285 19.2857C12.2046 19.2857 12.4285 19.0618 12.4285 18.7857Z"/>
<path d="M14.4287 19.7857C14.4287 19.5096 14.2048 19.2857 13.9287 19.2857C13.6525 19.2857 13.4287 19.5096 13.4287 19.7857C13.4287 20.0619 13.6525 20.2857 13.9287 20.2857C14.2048 20.2857 14.4287 20.0619 14.4287 19.7857Z"/>
<path d="M13.8572 17.5C13.8572 17.2238 13.6333 17 13.3572 17C13.081 17 12.8572 17.2238 12.8572 17.5C12.8572 17.7761 13.081 18 13.3572 18C13.6333 18 13.8572 17.7761 13.8572 17.5Z"/>
<path d="M15.7143 17.9285C15.7143 17.6524 15.4904 17.4285 15.2143 17.4285C14.9381 17.4285 14.7143 17.6524 14.7143 17.9285C14.7143 18.2047 14.9381 18.4285 15.2143 18.4285C15.4904 18.4285 15.7143 18.2047 15.7143 17.9285Z"/>
<path d="M17.1429 20.2143C17.1429 19.9382 16.919 19.7143 16.6429 19.7143C16.3668 19.7143 16.1429 19.9382 16.1429 20.2143C16.1429 20.4904 16.3668 20.7143 16.6429 20.7143C16.919 20.7143 17.1429 20.4904 17.1429 20.2143Z"/>
<path d="M16.4286 16.0714C16.4286 15.7953 16.2047 15.5714 15.9286 15.5714C15.6524 15.5714 15.4286 15.7953 15.4286 16.0714C15.4286 16.3476 15.6524 16.5714 15.9286 16.5714C16.2047 16.5714 16.4286 16.3476 16.4286 16.0714Z"/>
</svg>
