<svg width="24" height="24" viewBox="0 0 24 24" xmlns="http://www.w3.org/2000/svg">
<path d="M12.0673 2C10.7769 2 9.73077 3.07931 9.73077 4.41071V5.30357C9.73077 5.64875 10.002 5.92857 10.3365 5.92857H14.4038L14.8238 5.65306L15.7821 8.28979C15.8996 8.61299 16.2488 8.77675 16.562 8.65555C16.8753 8.53435 17.034 8.17409 16.9165 7.85089L15.9649 5.23259L16.598 4.9993C16.8391 4.91047 17 4.67485 17 4.41071V2.625C17 2.27982 16.7288 2 16.3942 2H12.0673Z"/>
<path d="M14.4798 7.66058C14.4578 7.6228 14.4323 7.58796 14.4038 7.5564H10.5962C10.5677 7.58796 10.5422 7.6228 10.5202 7.66058L8.08633 11.8458C8.02984 11.943 8 12.0541 8 12.1674V21.375C8 21.7202 8.27121 22 8.60577 22H16.3942C16.7288 22 17 21.7202 17 21.375V12.1674C17 12.0541 16.9702 11.943 16.9137 11.8458L14.4798 7.66058Z"/>
</svg>
