<svg>
<path fill-rule="evenodd" clip-rule="evenodd" d="M21 12C21 16.6944 17.1944 20.5 12.5 20.5C7.80558 20.5 4 16.6944 4 12C4 7.30558 7.80558 3.5 12.5 3.5C17.1944 3.5 21 7.30558 21 12ZM22.5 12C22.5 17.5228 18.0229 22 12.5 22C6.97715 22 2.5 17.5228 2.5 12C2.5 6.47715 6.97715 2 12.5 2C18.0229 2 22.5 6.47715 22.5 12ZM13.6559 8.45273C13.6009 8.03419 13.2437 7.7103 12.8098 7.7085C12.3365 7.70656 11.9512 8.08866 11.9493 8.56197L11.9333 12.2632L8.23204 12.2792L8.11578 12.2875C7.69771 12.346 7.37677 12.7059 7.37855 13.1397C7.3805 13.613 7.76576 13.9952 8.23907 13.9932L12.8323 13.9734L12.9072 13.9662C13.008 13.9521 13.1031 13.9205 13.1892 13.8747C13.265 13.8344 13.3341 13.7831 13.3927 13.7243C13.4358 13.6812 13.4744 13.6336 13.5075 13.5824C13.5539 13.5108 13.5898 13.4319 13.6132 13.3479C13.6339 13.2735 13.6448 13.195 13.6445 13.114L13.6633 8.56905L13.6559 8.45273Z"/>
</svg>
