<svg width="24" height="24" viewBox="0 0 24 24" xmlns="http://www.w3.org/2000/svg">
<path fill-rule="evenodd" clip-rule="evenodd" d="M12.5 22C18.0229 22 22.5 17.5228 22.5 12C22.5 6.47715 18.0229 2 12.5 2C6.97715 2 2.5 6.47715 2.5 12C2.5 17.5228 6.97715 22 12.5 22ZM13.6548 8.45144C13.5998 8.0329 13.2426 7.70901 12.8087 7.70721C12.3354 7.70527 11.9501 8.08737 11.9482 8.56068L11.9321 12.2619L8.23093 12.2779L8.11467 12.2862C7.6966 12.3447 7.37567 12.7046 7.37744 13.1384C7.37939 13.6117 7.76466 13.9939 8.23797 13.9919L12.8312 13.9721L12.9061 13.9649C13.0069 13.9508 13.102 13.9192 13.1881 13.8734C13.2639 13.8331 13.3329 13.7818 13.3916 13.723C13.4347 13.68 13.4733 13.6324 13.5064 13.5811C13.5528 13.5095 13.5887 13.4306 13.6121 13.3466C13.6328 13.2722 13.6437 13.1938 13.6434 13.1127L13.6622 8.56776L13.6548 8.45144Z"/>
</svg>
