<svg width="24" height="24" viewBox="0 0 24 24" xmlns="http://www.w3.org/2000/svg">
  <path d="M5.027 15.547c.511.388 1.704-.222 2.102.277 0 .888-1.42 1.554-1.59 1.998-.171.444-3.807.777-3.523 1.276.284.5 1.931-.5 3.238-.5s3.295-1.775 3.636-2.163c.34-.389-.34-.777 0-.888.34-.111 1.023-.61 1.307-1.332.284-.722 1.704-.222.909.166-.796.389-1.307 1-1.193 1.443.113.444 2.215-.444 2.556-.721.341-.278-.682-.555-.34-.888.34-.333.851.166 1.192.555.341.388 1.534.166 1.478.333-.057.166-.91.444-.455.555.455.11 1.136-.444 1.818-.278.682.167-.625.444 0 .888s1.761-.444 1.931.278c.171.721.398.777.91.832.51.055.738.444.738.721 0 .278.455.222.511.5.057.277.398.777.625.5.228-.278.796.11 1.08-.167.284-.278-.91-.389-1.307-1.277-.398-.888-1.08-1.22-2.159-1.83-1.08-.611-.625 0-1.022 0-.398 0-.966-1.333-1.478-1.055-.409.222-.586-.167-.624-.389l-.569-8.435c-.17-.61-1.136 0-1.931-.61-.796-.61-1.364-.056-1.818-.444-.455-.388-1.25-.388-1.534-.721-.284-.333-1.364-.222-2.386.721-1.023.943-1.42.333-1.59.943-.171.61.51.777.454 1.332-.057.555.454.777.568 1.11.113.333-.682.555-.852 0-.17-.555-1.762-.555-1.875.111-.114.666.682 1.11 1.193 1.11s.284.5.682.666c.397.166.909-.555.852 0-.057.555-.114.777-.682.777-.568 0-.227.777-.852.333s-.568.11-1.08.333c-.51.222-.34.721-.397 1.554-.057.832.397.887 1.08 1.054.68.166-.114.943.397 1.332Z"/><path d="M9.004 17.378c-.398.222-.625.832-.341 1.054.284.333 1.08-.333 1.022-.777-.056-.444.682-.444.512-.832-.17-.388-.796.333-1.193.555Z" />
</svg>
