<svg>
<rect transform="translate(0.96875)"/>
<path fill-rule="evenodd" clip-rule="evenodd" d="M10.2955 3.49841C9.60514 3.49841 9.04549 4.05806 9.04549 4.74841V16.6702C9.04549 17.3605 9.60514 17.9202 10.2955 17.9202H18.3346C19.025 17.9202 19.5846 17.3605 19.5846 16.6702V7.53668V6.02659C19.5846 5.67466 19.4363 5.33904 19.176 5.10215L17.7717 3.82398C17.5415 3.6145 17.2415 3.49841 16.9303 3.49841H15.1531H10.2955ZM6.35352 7.32981C6.35352 6.6589 6.88207 6.11145 7.54549 6.08114V16.6702C7.54549 18.189 8.77671 19.4202 10.2955 19.4202H16.8814C16.7991 20.0308 16.2758 20.5016 15.6427 20.5016H7.60351C6.91316 20.5016 6.35352 19.9419 6.35352 19.2516V7.32981ZM21.0846 16.6702C21.0846 18.1713 19.8819 19.3915 18.3876 19.4197C18.3007 20.8602 17.105 22.0016 15.6427 22.0016H7.60351C6.08473 22.0016 4.85352 20.7704 4.85352 19.2516V7.32981C4.85352 5.82872 6.05621 4.60854 7.55055 4.58031C7.63741 3.13981 8.83316 1.99841 10.2955 1.99841H15.1531H16.9303C17.615 1.99841 18.275 2.25381 18.7813 2.71466L20.1857 3.99283C20.7583 4.51398 21.0846 5.25235 21.0846 6.02659V7.53668V16.6702ZM13.3228 8.89311C13.3228 8.68426 13.4053 8.53402 13.5693 8.41323C13.7529 8.27805 14.0608 8.17085 14.4752 8.17085C15.2374 8.17085 15.5534 8.58657 15.5952 8.90899C15.6484 9.31977 16.0246 9.60959 16.4354 9.55634C16.8462 9.50308 17.136 9.12691 17.0827 8.71613C16.9495 7.68842 16.1459 6.92897 15.0664 6.72522L15.0664 6.19802C15.0664 5.7838 14.7306 5.44802 14.3164 5.44803C13.9022 5.44803 13.5664 5.78382 13.5664 6.19804L13.5664 6.78714C13.2448 6.87419 12.9428 7.01177 12.6798 7.20541C12.159 7.58898 11.8228 8.17488 11.8228 8.89311C11.8228 9.30197 11.9187 9.66605 12.1098 9.9769C12.2985 10.2837 12.5522 10.4937 12.8 10.6411C13.0428 10.7857 13.2963 10.8797 13.504 10.948C13.627 10.9884 13.7125 11.014 13.7862 11.0362C13.8679 11.0607 13.9352 11.0809 14.0231 11.112C14.0749 11.1304 14.1274 11.1486 14.1803 11.167C14.5102 11.2817 14.8552 11.4016 15.1498 11.5903C15.4704 11.7957 15.5889 11.9906 15.5889 12.2272C15.5889 12.4522 15.5112 12.6242 15.3673 12.7494C15.2154 12.8818 14.913 13.0267 14.3552 13.0267C13.4815 13.0267 13.0439 12.4828 13.0439 12.0551C13.0439 11.6408 12.7082 11.3051 12.2939 11.3051C11.8797 11.3051 11.5439 11.6408 11.5439 12.0551C11.5439 13.2718 12.4515 14.1453 13.5664 14.4282L13.5664 15.2175C13.5664 15.6317 13.9022 15.9674 14.3164 15.9674C14.7306 15.9674 15.0664 15.6316 15.0664 15.2174L15.0664 14.4661C15.5711 14.3751 16.0077 14.1809 16.3525 13.8806C16.8586 13.4398 17.0889 12.837 17.0889 12.2272C17.0889 11.2764 16.5055 10.6774 15.9589 10.3272C15.4999 10.0332 14.9665 9.85031 14.6483 9.74115C14.6023 9.72539 14.5603 9.711 14.5242 9.69821C14.4287 9.66436 14.2831 9.61952 14.1582 9.58108C14.084 9.55825 14.0171 9.53764 13.9725 9.52298C13.8013 9.46672 13.6696 9.41314 13.5671 9.35216C13.4696 9.29409 13.418 9.2406 13.3876 9.19123C13.3597 9.14584 13.3228 9.06091 13.3228 8.89311Z"/>
</svg>
