<svg width="24" height="24" viewBox="0 0 24 24" fill="none" xmlns="http://www.w3.org/2000/svg">
<path d="M7.94996 20.8218C6.43118 20.8218 5.19996 19.5906 5.19996 18.0718V7.48272L5.20502 5.9819C5.22096 5.71747 5.27427 5.46311 5.35974 5.22405C4.40927 5.72668 3.70001 6.74326 3.70001 7.8165V19.7383C3.70001 21.2571 5.06882 22 6.58761 22H14.6268C15.8138 22 16.8724 21.5661 17.2575 20.5124C16.8927 20.7024 16.4799 20.813 16.0421 20.8213L7.94996 20.8218Z" fill="#0074CA"/>
<path fill-rule="evenodd" clip-rule="evenodd" d="M6.57704 6.08126V16.6703C6.57704 18.1891 7.80828 19.4203 9.32706 19.4203L17.4192 19.4198C18.9135 19.3916 20.1163 18.1714 20.1163 16.6703V6.02671C20.1163 5.25247 19.7899 4.5141 19.2173 3.99295L17.8129 2.71478C17.3066 2.25393 16.6465 1.99854 15.9619 1.99854H9.32707C7.86473 1.99854 6.66895 3.13993 6.58209 4.58043L6.57704 6.08126ZM12.6009 8.41335C12.4368 8.53414 12.3544 8.68438 12.3544 8.89323C12.3544 9.06104 12.3913 9.14597 12.4192 9.19135C12.4495 9.24073 12.5011 9.29421 12.5987 9.35228C12.7012 9.41326 12.8329 9.46685 13.0041 9.5231C13.0486 9.53776 13.1156 9.55837 13.1898 9.5812C13.3147 9.61964 13.4603 9.66448 13.5558 9.69833C13.5919 9.71112 13.6339 9.72551 13.6798 9.74127C13.9981 9.85043 14.5315 10.0334 14.9905 10.3274C15.5371 10.6775 16.1205 11.2765 16.1205 12.2273C16.1205 12.8371 15.8902 13.4399 15.384 13.8807C15.0393 14.181 14.6027 14.3752 14.098 14.4663L14.098 15.2176C14.098 15.6318 13.7622 15.9676 13.348 15.9676C12.9338 15.9676 12.598 15.6318 12.598 15.2176L12.598 14.4284C11.483 14.1454 10.5755 13.2719 10.5755 12.0552C10.5755 11.641 10.9113 11.3052 11.3255 11.3052C11.7397 11.3052 12.0755 11.641 12.0755 12.0552C12.0755 12.4829 12.513 13.0268 13.3867 13.0268C13.9445 13.0268 14.247 12.8819 14.3989 12.7495C14.5428 12.6243 14.6205 12.4523 14.6205 12.2273C14.6205 11.9907 14.502 11.7958 14.1813 11.5904C13.8868 11.4017 13.5418 11.2818 13.2119 11.1671C13.159 11.1488 13.1065 11.1305 13.0547 11.1121C12.9668 11.081 12.8994 11.0608 12.8178 11.0363C12.7441 11.0142 12.6586 10.9885 12.5356 10.9481C12.3279 10.8798 12.0744 10.7858 11.8316 10.6413C11.5838 10.4938 11.3301 10.2839 11.1414 9.97702C10.9503 9.66617 10.8544 9.30209 10.8544 8.89323C10.8544 8.175 11.1905 7.5891 11.7114 7.20553C11.9743 7.01189 12.2763 6.87431 12.598 6.78727L12.598 6.19816C12.598 5.78394 12.9338 5.44815 13.348 5.44815C13.7622 5.44814 14.098 5.78393 14.098 6.19814L14.098 6.72534C15.1774 6.92909 15.9811 7.68854 16.1143 8.71625C16.1676 9.12703 15.8777 9.5032 15.467 9.55646C15.0562 9.60972 14.68 9.31989 14.6268 8.90911C14.585 8.58669 14.269 8.17097 13.5068 8.17097C13.0924 8.17097 12.7844 8.27817 12.6009 8.41335Z" fill="#0074CA"/>
</svg>