<svg width="24" height="24" viewBox="0 0 24 24" fill="none" xmlns="http://www.w3.org/2000/svg">
<path fill-rule="evenodd" clip-rule="evenodd" d="M8.11133 20.5036C6.59254 20.5036 5.36133 19.2724 5.36133 17.7536V7.16452L5.36638 5.66369C5.38233 5.39926 5.43564 5.14491 5.52111 4.90584C4.57064 5.40847 3.86138 6.42505 3.86138 7.49829V19.4201C3.86138 20.9388 5.27736 22 6.79614 22H14.8353C16.0223 22 17.0337 21.2479 17.4189 20.1942C17.0541 20.3842 16.6413 20.4948 16.2034 20.5031L8.11133 20.5036Z" fill="#E5AD07"/>
<path fill-rule="evenodd" clip-rule="evenodd" d="M9.32676 19.4218C7.80798 19.4218 6.57676 18.1906 6.57676 16.6718V6.08272L6.58182 4.5819C6.66868 3.1414 7.86443 2 9.32676 2H15.9616C16.6462 2 17.3063 2.2554 17.8126 2.71624L19.2169 3.99442C19.7895 4.51556 20.1159 5.25394 20.1159 6.02818V16.6718C20.1159 18.1729 18.9132 19.393 17.4189 19.4213L9.32676 19.4218ZM16.0244 8.03205C16.3173 8.32494 16.3173 8.79981 16.0244 9.09271L11.7251 13.392C11.4322 13.6849 10.9573 13.6849 10.6644 13.392C10.3715 13.0991 10.3715 12.6242 10.6644 12.3313L14.9637 8.03205C15.2566 7.73915 15.7315 7.73915 16.0244 8.03205Z" fill="#E5AD07"/>
</svg>
