<svg>
<path d="M7.9499 20.8218C6.43112 20.8218 5.1999 19.5906 5.1999 18.0718V7.48272L5.20496 5.9819C5.2209 5.71747 5.27421 5.46311 5.35968 5.22405C4.40921 5.72668 3.69995 6.74326 3.69995 7.8165V19.7383C3.69995 21.2571 5.06876 22 6.58755 22H14.6267C15.8137 22 16.8723 21.5661 17.2575 20.5124C16.8926 20.7024 16.4798 20.813 16.042 20.8213L7.9499 20.8218Z"/>
<path fill-rule="evenodd" clip-rule="evenodd" d="M6.57698 6.08126V16.6703C6.57698 18.1891 7.80822 19.4203 9.327 19.4203L17.4191 19.4198C18.9135 19.3916 20.1162 18.1714 20.1162 16.6703V6.02671C20.1162 5.25247 19.7898 4.5141 19.2172 3.99295L17.8129 2.71478C17.3065 2.25393 16.6465 1.99854 15.9618 1.99854H9.32701C7.86467 1.99854 6.66889 3.13993 6.58203 4.58043L6.57698 6.08126ZM12.6008 8.41335C12.4368 8.53414 12.3544 8.68438 12.3544 8.89323C12.3544 9.06104 12.3912 9.14597 12.4191 9.19135C12.4495 9.24073 12.5011 9.29421 12.5986 9.35228C12.7011 9.41326 12.8329 9.46685 13.004 9.5231C13.0486 9.53776 13.1156 9.55837 13.1897 9.5812C13.3146 9.61964 13.4603 9.66448 13.5558 9.69833C13.5919 9.71112 13.6338 9.72551 13.6798 9.74127C13.9981 9.85043 14.5314 10.0334 14.9904 10.3274C15.537 10.6775 16.1205 11.2765 16.1205 12.2273C16.1205 12.8371 15.8901 13.4399 15.384 13.8807C15.0392 14.181 14.6026 14.3752 14.0979 14.4663L14.0979 15.2176C14.0979 15.6318 13.7622 15.9676 13.3479 15.9676C12.9337 15.9676 12.5979 15.6318 12.5979 15.2176L12.5979 14.4284C11.483 14.1454 10.5755 13.2719 10.5755 12.0552C10.5755 11.641 10.9112 11.3052 11.3255 11.3052C11.7397 11.3052 12.0755 11.641 12.0755 12.0552C12.0755 12.4829 12.513 13.0268 13.3867 13.0268C13.9445 13.0268 14.2469 12.8819 14.3989 12.7495C14.5427 12.6243 14.6205 12.4523 14.6205 12.2273C14.6205 11.9907 14.5019 11.7958 14.1813 11.5904C13.8867 11.4017 13.5417 11.2818 13.2118 11.1671C13.1589 11.1488 13.1065 11.1305 13.0546 11.1121C12.9667 11.081 12.8994 11.0608 12.8177 11.0363C12.744 11.0142 12.6585 10.9885 12.5356 10.9481C12.3279 10.8798 12.0743 10.7858 11.8315 10.6413C11.5838 10.4938 11.33 10.2839 11.1413 9.97702C10.9502 9.66617 10.8544 9.30209 10.8544 8.89323C10.8544 8.175 11.1905 7.5891 11.7113 7.20553C11.9743 7.01189 12.2763 6.87431 12.5979 6.78727L12.5979 6.19816C12.5979 5.78394 12.9337 5.44815 13.3479 5.44815C13.7621 5.44814 14.0979 5.78393 14.0979 6.19814L14.0979 6.72534C15.1774 6.92909 15.981 7.68854 16.1142 8.71625C16.1675 9.12703 15.8777 9.5032 15.4669 9.55646C15.0561 9.60972 14.6799 9.31989 14.6267 8.90911C14.5849 8.58669 14.2689 8.17097 13.5067 8.17097C13.0924 8.17097 12.7844 8.27817 12.6008 8.41335Z"/>
</svg>
