<svg width="24" height="24" viewBox="0 0 24 24" xmlns="http://www.w3.org/2000/svg">
<path fill-rule="evenodd" clip-rule="evenodd" d="M8.07674 4.74841C8.07674 4.05806 8.63639 3.49841 9.32674 3.49841H14.1844H15.9615C16.2727 3.49841 16.5728 3.6145 16.8029 3.82398L18.2073 5.10215C18.4675 5.33904 18.6159 5.67466 18.6159 6.02659V7.53668V16.6702C18.6159 17.3605 18.0562 17.9202 17.3659 17.9202H9.32674C8.63639 17.9202 8.07674 17.3605 8.07674 16.6702V4.74841ZM6.57674 6.08114C5.91332 6.11145 5.38477 6.6589 5.38477 7.32981V19.2516C5.38477 19.9419 5.94441 20.5016 6.63476 20.5016H14.6739C15.3071 20.5016 15.8303 20.0308 15.9126 19.4202H9.32674C7.80796 19.4202 6.57674 18.189 6.57674 16.6702V6.08114ZM17.4189 19.4197C18.9132 19.3915 20.1159 18.1713 20.1159 16.6702V7.53668V6.02659C20.1159 5.25235 19.7895 4.51398 19.2169 3.99283L17.8126 2.71466C17.3062 2.25381 16.6462 1.99841 15.9615 1.99841H14.1844H9.32674C7.86441 1.99841 6.66866 3.13981 6.5818 4.58031C5.08746 4.60854 3.88477 5.82872 3.88477 7.32981V19.2516C3.88477 20.7704 5.11598 22.0016 6.63476 22.0016H14.6739C16.1362 22.0016 17.332 20.8602 17.4189 19.4197ZM16.0244 9.09112C16.3173 8.79823 16.3173 8.32335 16.0244 8.03046C15.7315 7.73757 15.2566 7.73757 14.9637 8.03046L10.6644 12.3297C10.3715 12.6226 10.3715 13.0975 10.6644 13.3904C10.9573 13.6833 11.4322 13.6833 11.7251 13.3904L16.0244 9.09112Z"/>
</svg>
