<svg>
<path fill-rule="evenodd" clip-rule="evenodd" d="M18.1875 3.75C19.2844 3.75 20.1813 4.60628 20.2462 5.68686L20.25 5.8125V15.1875C20.25 16.2844 19.3937 17.1813 18.3131 17.2462L18.1875 17.25H17.25V17.5004C17.25 18.963 16.1083 20.1588 14.6675 20.2454L14.5 20.2504H6.5C5.03747 20.2504 3.8416 19.1087 3.75502 17.668L3.75 17.5004V9.50044C3.75 8.03791 4.8917 6.84204 6.33248 6.75546L6.5 6.75044L6.75 6.75029V5.8125C6.75 4.7156 7.60628 3.8187 8.68686 3.75376L8.8125 3.75H18.1875ZM6.75 8.2503L6.5 8.25044C5.85279 8.25044 5.32047 8.74232 5.25645 9.37264L5.25 9.50044V17.5004C5.25 18.1477 5.74187 18.68 6.37219 18.744L6.5 18.7504H14.5C15.1472 18.7504 15.6795 18.2586 15.7435 17.6282L15.75 17.5004V17.25H8.8125C7.7156 17.25 6.8187 16.3937 6.75376 15.3131L6.75 15.1875V8.2503ZM17.875 5.25H9.125C8.67195 5.25 8.29933 5.59431 8.25452 6.03554L8.25 6.125V14.875C8.25 15.328 8.59431 15.7007 9.03554 15.7455L9.125 15.75H17.875C18.328 15.75 18.7007 15.4057 18.7455 14.9645L18.75 14.875V6.125C18.75 5.67195 18.4057 5.29933 17.9645 5.25452L17.875 5.25Z"/>
</svg>
