<svg width="24" height="24" viewBox="0 0 24 24" xmlns="http://www.w3.org/2000/svg">
<path d="M19.9999 7.24386H3.9999C3.86183 7.24386 3.7499 7.35579 3.7499 7.49386V8.99996H20.2499V7.49386C20.2499 7.35579 20.138 7.24386 19.9999 7.24386Z"/>
<path fill-rule="evenodd" clip-rule="evenodd" d="M20.2499 10.2499H3.7499V16.2532C3.7499 16.3913 3.86183 16.5032 3.9999 16.5032H19.9999C20.138 16.5032 20.2499 16.3913 20.2499 16.2532V10.2499ZM9.9999 14.25H4.9999L4.89813 14.2569C4.53206 14.3065 4.2499 14.6203 4.2499 15C4.2499 15.4142 4.58569 15.75 4.9999 15.75H9.9999L10.1017 15.7432C10.4677 15.6935 10.7499 15.3797 10.7499 15C10.7499 14.5858 10.4141 14.25 9.9999 14.25ZM14.4999 14.25H12.9999L12.8981 14.2569C12.5321 14.3065 12.2499 14.6203 12.2499 15C12.2499 15.4142 12.5857 15.75 12.9999 15.75H14.4999L14.6017 15.7432C14.9677 15.6935 15.2499 15.3797 15.2499 15C15.2499 14.5858 14.9141 14.25 14.4999 14.25Z"/>
<path fill-rule="evenodd" clip-rule="evenodd" d="M21.7499 7.49386C21.7499 6.52736 20.9664 5.74386 19.9999 5.74386H3.9999C3.0334 5.74386 2.2499 6.52736 2.2499 7.49386V8.99996H3.7499V7.49386C3.7499 7.35579 3.86183 7.24386 3.9999 7.24386H19.9999C20.138 7.24386 20.2499 7.35579 20.2499 7.49386V8.99996H21.7499V7.49386ZM2.2499 10.2499V16.2532C2.2499 17.2197 3.0334 18.0032 3.9999 18.0032H19.9999C20.9664 18.0032 21.7499 17.2197 21.7499 16.2532V10.2499H20.2499V16.2532C20.2499 16.3913 20.138 16.5032 19.9999 16.5032H3.9999C3.86183 16.5032 3.7499 16.3913 3.7499 16.2532V10.2499H2.2499Z"/>
<path fill-rule="evenodd" clip-rule="evenodd" d="M21.7499 10.2499V16.2532C21.7499 17.2197 20.9664 18.0032 19.9999 18.0032H3.9999C3.0334 18.0032 2.2499 17.2197 2.2499 16.2532V10.2499H21.7499ZM21.7499 7.49386C21.7499 6.52736 20.9664 5.74386 19.9999 5.74386H3.9999C3.0334 5.74386 2.2499 6.52736 2.2499 7.49386V8.99996H21.7499V7.49386ZM2.1499 10.1499H21.8499V16.2532C21.8499 17.275 21.0216 18.1032 19.9999 18.1032H3.9999C2.97818 18.1032 2.1499 17.275 2.1499 16.2532V10.1499ZM2.1499 9.09996V7.49386C2.1499 6.47213 2.97818 5.64386 3.9999 5.64386H19.9999C21.0216 5.64386 21.8499 6.47213 21.8499 7.49386V9.09996H2.1499ZM5.00325 14.35L4.90835 14.3564C4.59275 14.4008 4.3499 14.6721 4.3499 15C4.3499 15.359 4.64092 15.65 4.9999 15.65H9.99655L10.0915 15.6436C10.4071 15.5992 10.6499 15.3279 10.6499 15C10.6499 14.641 10.3589 14.35 9.9999 14.35H5.00325ZM10.1017 15.7432C10.4677 15.6935 10.7499 15.3797 10.7499 15C10.7499 14.5858 10.4141 14.25 9.9999 14.25H4.9999L4.89813 14.2569C4.53206 14.3065 4.2499 14.6203 4.2499 15C4.2499 15.4142 4.58569 15.75 4.9999 15.75H9.9999L10.1017 15.7432ZM13.0033 14.35L12.9083 14.3564C12.5927 14.4008 12.3499 14.6721 12.3499 15C12.3499 15.359 12.6409 15.65 12.9999 15.65H14.4966L14.5915 15.6436C14.9071 15.5992 15.1499 15.3279 15.1499 15C15.1499 14.641 14.8589 14.35 14.4999 14.35H13.0033ZM14.6017 15.7432C14.9677 15.6935 15.2499 15.3797 15.2499 15C15.2499 14.5858 14.9141 14.25 14.4999 14.25H12.9999L12.8981 14.2569C12.5321 14.3065 12.2499 14.6203 12.2499 15C12.2499 15.4142 12.5857 15.75 12.9999 15.75H14.4999L14.6017 15.7432Z"/>
</svg>
