<svg xmlns="http://www.w3.org/2000/svg" width="24" height="24" viewBox="0 0 24 24">
  <path fill="#626B79" fill-rule="evenodd" d="M20,5.74383999 C20.9664983,5.74383999 21.75,6.52734168 21.75,7.49383999 L21.75,16.2532197 C21.75,17.219718 20.9664983,18.0032197 20,18.0032197 L4,18.0032197 C3.03350169,18.0032197 2.25,17.219718 2.25,16.2532197 L2.25,7.49383999 C2.25,6.52734168 3.03350169,5.74383999 4,5.74383999 L20,5.74383999 Z M20.25,10.24984 L3.75,10.24984 L3.75,16.2532197 C3.75,16.3912908 3.86192881,16.5032197 4,16.5032197 L20,16.5032197 C20.1380712,16.5032197 20.25,16.3912908 20.25,16.2532197 L20.25,10.24984 Z M5,14.25 L10,14.25 C10.4142136,14.25 10.75,14.5857864 10.75,15 C10.75,15.3796958 10.4678461,15.693491 10.1017706,15.7431534 L10,15.75 L5,15.75 C4.58578644,15.75 4.25,15.4142136 4.25,15 C4.25,14.6203042 4.53215388,14.306509 4.89822944,14.2568466 L5,14.25 Z M13,14.25 L14.5,14.25 C14.9142136,14.25 15.25,14.5857864 15.25,15 C15.25,15.3796958 14.9678461,15.693491 14.6017706,15.7431534 L14.5,15.75 L13,15.75 C12.5857864,15.75 12.25,15.4142136 12.25,15 C12.25,14.6203042 12.5321539,14.306509 12.8982294,14.2568466 L13,14.25 L14.5,14.25 L13,14.25 Z M20,7.24383999 L4,7.24383999 C3.86192881,7.24383999 3.75,7.3557688 3.75,7.49383999 L3.75,8.74983999 L20.25,8.74983999 L20.25,7.49383999 C20.25,7.3557688 20.1380712,7.24383999 20,7.24383999 Z"/>
</svg>
