<svg xmlns="http://www.w3.org/2000/svg" version="1.1" viewBox="0 0 24 24" xmlns:xlink="http://www.w3.org/1999/xlink">
  <title>iconTitle</title>
  <desc>iconDesc</desc>
  <style></style>
  <path d="M18.75,6 C19.9875,6 21,6.9 21,8 L21,16 C21,17.1 19.9875,18 18.75,18 L5.25,18 C4.0125,18 3,17.1 3,16 L3,8 C3,6.9 4.0125,6 5.25,6 L18.75,6 Z M19.65,10.1538462 L4.35,10.1538462 L4.35,16 C4.35,16.2877621 4.71857537,16.6153846 5.25,16.6153846 L18.75,16.6153846 C19.2814246,16.6153846 19.65,16.2877621 19.65,16 L19.65,10.1538462 Z M10.245,14.0497738 C10.6177922,14.0497738 10.92,14.3597305 10.92,14.7420814 C10.92,15.0925698 10.6660615,15.382227 10.3365935,15.4280692 L10.245,15.4343891 L5.925,15.4343891 C5.55220779,15.4343891 5.25,15.1244324 5.25,14.7420814 C5.25,14.391593 5.50393849,14.1019359 5.8334065,14.0560937 L5.925,14.0497738 L10.245,14.0497738 Z M14.5264286,14.0497738 C14.8992208,14.0497738 15.2014286,14.3597305 15.2014286,14.7420814 C15.2014286,15.1244324 14.8992208,15.4343891 14.5264286,15.4343891 L12.675,15.4343891 C12.3022078,15.4343891 12,15.1244324 12,14.7420814 C12,14.3597305 12.3022078,14.0497738 12.675,14.0497738 L14.5264286,14.0497738 Z M18.75,7.38461538 L5.25,7.38461538 C4.71857537,7.38461538 4.35,7.71223794 4.35,8 L4.35,8.76923077 L19.65,8.76923077 L19.65,8 C19.65,7.71223794 19.2814246,7.38461538 18.75,7.38461538 Z"/>
</svg>
