<svg width="24" height="24" viewBox="0 0 24 24" fill="none" xmlns="http://www.w3.org/2000/svg">
<path fill-rule="evenodd" clip-rule="evenodd" d="M11.1501 3.05994C11.1501 2.64572 11.4859 2.30994 11.9001 2.30994H12.0001C12.4143 2.30994 12.7501 2.64572 12.7501 3.05994V4.22003H16.0603C16.4746 4.22003 16.8103 4.55582 16.8103 4.97003V7.43506H18.0778C18.492 7.43506 18.8278 7.77084 18.8278 8.18506V12.4146L20.3651 13.0191C20.7328 13.1636 20.9252 13.5685 20.8052 13.9449L19.267 18.7688C19.5075 18.717 19.7519 18.6901 20 18.6901C20.8658 18.6901 21.6865 19.0174 22.45 19.5901C22.7814 19.8386 22.8486 20.3087 22.6 20.6401C22.3515 20.9714 21.8814 21.0386 21.55 20.7901C20.9803 20.3627 20.4676 20.1901 20 20.1901C19.5325 20.1901 19.0198 20.3627 18.45 20.7901C17.6865 21.3627 16.8658 21.6901 16 21.6901C15.1343 21.6901 14.3136 21.3627 13.55 20.7901C12.9803 20.3627 12.4676 20.1901 12 20.1901C11.5325 20.1901 11.0198 20.3627 10.45 20.7901C9.6865 21.3627 8.86584 21.6901 8.00004 21.6901C7.13425 21.6901 6.31359 21.3627 5.55004 20.7901C4.98026 20.3627 4.46759 20.1901 4.00004 20.1901C3.5325 20.1901 3.01983 20.3627 2.45004 20.7901C2.11867 21.0386 1.64857 20.9714 1.40004 20.6401C1.15152 20.3087 1.21867 19.8386 1.55004 19.5901C2.31359 19.0174 3.13425 18.6901 4.00004 18.6901C4.29538 18.6901 4.58546 18.7282 4.86981 18.8011L3.19557 13.9623C3.06342 13.5804 3.25765 13.1624 3.63477 13.0172L5.29289 12.3785V8.18506C5.29289 7.77084 5.62868 7.43506 6.04289 7.43506H7.31035V4.97003C7.31035 4.55582 7.64613 4.22003 8.06035 4.22003H11.1501V3.05994ZM15.3103 7.43506V5.72003H8.81035V7.43506H15.3103ZM17.3278 8.93506V11.8247L16.34 11.4363C13.6028 10.3599 10.5615 10.3493 7.81681 11.4064L6.79289 11.8008V8.93506H17.3278ZM12.7528 12.146C13.7861 12.218 14.8109 12.4468 15.791 12.8322L19.1628 14.1581L17.4052 19.67C17.402 19.6801 17.3991 19.6901 17.3963 19.7002C16.8876 20.0473 16.4252 20.1901 16 20.1901C15.5325 20.1901 15.0198 20.0174 14.45 19.5901C13.9275 19.1982 13.3783 18.9212 12.8061 18.7854L12.7528 12.146ZM11.2528 12.1515C10.2685 12.2273 9.29243 12.4455 8.35594 12.8062L4.85002 14.1565L6.75172 19.6527C6.77074 19.7076 6.783 19.7633 6.78893 19.8188C7.22541 20.0802 7.62709 20.1901 8.00004 20.1901C8.46759 20.1901 8.98026 20.0174 9.55004 19.5901C10.1065 19.1727 10.6934 18.8856 11.3059 18.7606L11.2528 12.1515Z" fill="#626B79"/>
</svg>
