<svg>
  <path d="M20.0006 18.6904C20.7582 18.6905 21.4813 18.9414 22.1617 19.3877L22.4508 19.5908L22.5094 19.6396C22.7887 19.8973 22.8331 20.3301 22.6002 20.6406C22.3517 20.9715 21.8816 21.0381 21.5504 20.79C20.9809 20.363 20.468 20.1905 20.0006 20.1904C19.5332 20.1904 19.0205 20.3629 18.4508 20.79C17.6873 21.3626 16.8663 21.6904 16.0006 21.6904C15.135 21.6904 14.3139 21.3625 13.5504 20.79C12.9809 20.363 12.468 20.1905 12.0006 20.1904C11.5332 20.1904 11.0205 20.3629 10.4508 20.79C9.68734 21.3626 8.8663 21.6904 8.00061 21.6904C7.13495 21.6904 6.31386 21.3625 5.55042 20.79C4.98087 20.363 4.46799 20.1905 4.00061 20.1904C3.53316 20.1904 3.02047 20.3629 2.45081 20.79C2.11966 21.0384 1.64966 20.9714 1.401 20.6406C1.15255 20.3094 1.21931 19.8394 1.55042 19.5908C2.31396 19.0182 3.13482 18.6904 4.00061 18.6904C4.8663 18.6905 5.68735 19.0182 6.45081 19.5908C7.02033 20.0178 7.53325 20.1904 8.00061 20.1904C8.46799 20.1904 8.98087 20.0179 9.55042 19.5908C10.314 19.0182 11.1348 18.6904 12.0006 18.6904C12.8663 18.6905 13.6873 19.0182 14.4508 19.5908C15.0203 20.0178 15.5333 20.1904 16.0006 20.1904C16.468 20.1904 16.9809 20.0179 17.5504 19.5908C18.314 19.0182 19.1348 18.6904 20.0006 18.6904ZM11.7125 17.9541C10.734 18.0235 9.87292 18.4153 9.34924 18.8154C8.72975 19.2888 8.37215 19.4442 7.98401 19.4443C7.70129 19.4443 7.39177 19.3656 6.66956 18.8281C6.46486 18.6758 6.07626 18.44 5.57874 18.249L3.95667 13.4785C3.87059 13.2249 3.99986 12.9484 4.24963 12.8516L5.13831 12.5068C5.14228 12.5055 5.14708 12.5054 5.151 12.5039L8.29846 11.2998C9.39946 10.8787 10.5537 10.6483 11.7125 10.6064V17.9541ZM12.4625 10.6064C13.6239 10.6466 14.7808 10.8755 15.8844 11.2969L19.0582 12.5088V12.5068L20.0221 12.8779C20.2706 12.9736 20.4009 13.247 20.318 13.5L18.8004 18.1191C18.1321 18.3113 17.6305 18.6119 17.4098 18.7676L17.3961 18.7773C16.9633 19.0827 16.7368 19.2388 16.5387 19.333C16.3824 19.4073 16.2403 19.4443 15.986 19.4443C15.7134 19.4443 15.4869 19.3596 15.2584 19.2256C15.1393 19.1557 15.0263 19.0757 14.8981 18.9844C14.7811 18.9012 14.6286 18.7916 14.4772 18.7041C14.0766 18.4728 13.3712 18.0723 12.4606 17.9678C12.4607 17.9642 12.4625 17.9606 12.4625 17.957V10.6064ZM18.0358 7.43555C18.4496 7.43598 18.7858 7.7716 18.7858 8.18555V11.6016L16.152 10.5967C13.5368 9.59821 10.6445 9.59946 8.02991 10.5996L5.25061 11.6621V8.18555C5.25061 7.77146 5.58658 7.43576 6.00061 7.43555H18.0358ZM16.1569 4.90918C16.5708 4.90946 16.9069 5.24514 16.9069 5.65918V6.69141H7.40588V5.65918C7.40588 5.24497 7.74265 4.90918 8.15686 4.90918H16.1569ZM12.0875 2.30957C12.5015 2.30972 12.8373 2.64562 12.8375 3.05957V4.16699H11.3375V3.05957C11.3377 2.64553 11.6734 2.30957 12.0875 2.30957Z"/>
</svg>
