<svg>
<path fill-rule="evenodd" clip-rule="evenodd" d="M5 12.8889C4.44772 12.8889 4 12.4412 4 11.8889V5C4 4.44772 4.44771 4 5 4H10.1111C10.6634 4 11.1111 4.44772 11.1111 5V11.8889C11.1111 12.4412 10.6634 12.8889 10.1111 12.8889H5ZM5 20C4.44772 20 4 19.5523 4 19V15.6667C4 15.1144 4.44771 14.6667 5 14.6667H10.1111C10.6634 14.6667 11.1111 15.1144 11.1111 15.6667V19C11.1111 19.5523 10.6634 20 10.1111 20H5ZM13.8889 20C13.3366 20 12.8889 19.5523 12.8889 19V12.1111C12.8889 11.5588 13.3366 11.1111 13.8889 11.1111H19C19.5523 11.1111 20 11.5588 20 12.1111V19C20 19.5523 19.5523 20 19 20H13.8889ZM12.8889 5C12.8889 4.44772 13.3366 4 13.8889 4H19C19.5523 4 20 4.44772 20 5V8.33333C20 8.88562 19.5523 9.33333 19 9.33333H13.8889C13.3366 9.33333 12.8889 8.88562 12.8889 8.33333V5Z"/>
</svg>
