<svg version="1.1" id="layer" xmlns="http://www.w3.org/2000/svg" x="0" y="0" viewBox="0 0 652 652" xml:space="preserve"><style>.st0{fill:#f8ac00}</style><path class="st0" d="M245.9 379.5c-31.4 0-45.3-23.6-45-53.1.3-29.9 17.9-53.5 48.1-53.5 13.2 0 22 3.8 25.2 5l-3.5 13.5c-4.1-1.9-11.6-4.1-18.6-4.1-13.2 0-28.6 7.9-28.9 38.1-.3 27.7 10.7 39.6 27 39.6 8.2 0 15.7-2.8 18.6-4.4l4.4 12.3c-4.3 2.2-13.5 6.6-27.3 6.6m62.3-68.9c-10.4 0-15.4 8.5-15.4 28.6s4.7 28.3 15.1 28.3c10.4 0 15.1-8.2 15.1-28.3.3-20.1-4.1-28.6-14.8-28.6zm0 68.9c-19.8 0-34.9-11-34.9-40.3 0-28.9 15.1-40.3 34.9-40.3s34.9 11 34.9 40.3c0 28.9-15.1 40.3-34.9 40.3m62.5-79.3l1.3 8.8c6.3-8.2 12.9-10.4 21.4-10.4 19.2 0 22.6 14.8 22.6 25.8v53.8h-18.6V331c0-6.9.9-19.5-11-19.5-13.5 0-14.8 18.6-14.8 25.2v41.8H353v-78.3h17.7m89 67c14.2 0 14.2-23.6 14.2-28.3 0-9.4-1.3-27.7-13.8-27.7-13.8 0-14.2 23-14.2 27.7.3 11.9 2.2 28.3 13.8 28.3zm33.1-93.1v104.1h-16.7l-.6-13.5c-3.8 6.6-10.1 15.1-22 15.1-18.2 0-26.7-18.9-26.7-40.6 0-28.3 14.5-40.6 28-40.6 13.2 0 18.2 10.1 19.5 13.2v-37.7h18.5m44.9 36.5c-10.4 0-15.4 8.5-15.4 28.6s5 28.3 15.4 28.3 15.1-8.2 15.1-28.3-4.7-28.6-15.1-28.6zm0 68.9c-19.8 0-34.9-11-34.9-40.3 0-28.9 15.1-40.3 34.9-40.3s34.9 11 34.9 40.3c0 28.9-15.1 40.3-34.9 40.3m61.3-79.3l.3 19.5c6.3-19.2 16-20.8 19.5-20.8 3.1 0 6 .9 7.5 1.3l-3.5 16.4c-1.6-.3-3.8-.9-6-.9-5.3 0-9.1 3.1-11 5.7-3.8 5.3-5.3 11-5.3 28.9v28h-18.6v-78H599M87.4 263.1c-34.9 0-61 28.3-61 62.9s26.1 62.9 61 62.9c34.6 0 61-28 61-62.9-.3-34.6-26.4-62.9-61-62.9zm0 120.1c-31.4 0-55.3-25.5-55.3-57.2 0-31.4 23.6-57.2 55.3-57.2s55 25.8 55 57.5c0 31.5-23.5 56.9-55 56.9zm36.8-18.2v-10.1l-40.9-37.1c-1.6-1.6-.9-2.2.3-2.2h30.8L99 328.2l5.7 5.3 32.4-25.2H89.3c-6.3 0-8.8 0-10.4.6-1.6.3-3.5 1.3-4.4 3.5-.6 1.6-.6 4.4.3 6.3 1.6 2.5 3.8 4.7 10.4 11.3-6.3-3.8-23-14.8-23-14.8H67V308H37.4c0 .1 86.8 57 86.8 57z"/></svg>