<svg>
<path fill-rule="evenodd" clip-rule="evenodd" d="M5 3.5H19C19.8284 3.5 20.5 4.17157 20.5 5V19C20.5 19.8284 19.8284 20.5 19 20.5H5C4.17157 20.5 3.5 19.8284 3.5 19V5C3.5 4.17157 4.17157 3.5 5 3.5ZM2 5C2 3.34315 3.34315 2 5 2H19C20.6569 2 22 3.34315 22 5V19C22 20.6569 20.6569 22 19 22H5C3.34315 22 2 20.6569 2 19V5ZM16.1499 7.26564L16.0248 7.25L11 7.25089L10.8982 7.25774C10.5322 7.3074 10.25 7.6212 10.25 8.00089L10.2568 8.10266C10.3065 8.46874 10.6203 8.75089 11 8.75089H14.188L7.46967 15.4706L7.39705 15.5547C7.1792 15.8483 7.2034 16.265 7.46967 16.5312C7.76256 16.8241 8.23744 16.8241 8.53033 16.5312L15.25 9.81155V13.0009L15.2568 13.1027C15.3065 13.4687 15.6203 13.7509 16 13.7509C16.4142 13.7509 16.75 13.4151 16.75 13.0009V8.00089L16.741 7.88078C16.7055 7.64868 16.5683 7.46662 16.3879 7.35885L16.2607 7.29763L16.1499 7.26564Z"/>
</svg>
