<svg width="24" height="24" viewBox="0 0 24 24" xmlns="http://www.w3.org/2000/svg">
<path fill-rule="evenodd" clip-rule="evenodd" d="M15.5913 10.7415C15.8843 10.4487 15.8843 9.97378 15.5914 9.68088C15.2985 9.38797 14.8236 9.38795 14.5307 9.68083L10.83 13.3813L9.46978 12.0211C9.17689 11.7282 8.70202 11.7282 8.40912 12.0211C8.11623 12.314 8.11623 12.7888 8.40912 13.0817L10.2996 14.9722C10.5925 15.2651 11.0674 15.2651 11.3603 14.9723L15.5913 10.7415Z"/>
<path fill-rule="evenodd" clip-rule="evenodd" d="M20.2011 9.59045L18.9098 8.82713C19.6831 7.51914 18.4305 5.94853 16.9833 6.4113C15.5789 6.86036 14.0685 6.133 13.544 4.75503C13.0035 3.33499 10.9946 3.33499 10.454 4.75503C9.92952 6.133 8.41913 6.86036 7.01476 6.4113C5.56751 5.94853 4.31499 7.51914 5.0882 8.82713C5.83851 10.0964 5.46547 11.7307 4.23877 12.5487C2.97462 13.3917 3.42164 15.3502 4.92635 15.5612L4.71805 17.0467C1.848 16.6442 0.99537 12.9086 3.40658 11.3008C3.97032 10.9248 4.14176 10.1737 3.79694 9.59045C2.32215 7.09563 4.71117 4.09989 7.47161 4.98257C8.117 5.18894 8.81112 4.85467 9.05217 4.2214C10.0832 1.51287 13.9149 1.51287 14.9459 4.2214C15.1869 4.85467 15.881 5.18894 16.5264 4.98257C19.2869 4.09989 21.6759 7.09563 20.2011 9.59045ZM19.28 17.0467C22.15 16.6442 23.0027 12.9086 20.5915 11.3008C20.0277 10.9248 19.8563 10.1737 20.2011 9.59045L18.9098 8.82713C18.1595 10.0964 18.5326 11.7307 19.7593 12.5487C21.0234 13.3917 20.5764 15.3502 19.0717 15.5612L19.28 17.0467ZM18.1862 18.4183C18.1286 17.7431 18.609 17.1408 19.28 17.0467L19.0717 15.5612C17.6116 15.766 16.5663 17.0766 16.6916 18.5457L18.1862 18.4183ZM18.1862 18.4183L16.6916 18.5457C16.8208 20.0597 15.0108 20.9313 13.9077 19.8864C12.8372 18.8725 11.1608 18.8725 10.0904 19.8864C8.98723 20.9313 7.17729 20.0597 7.30641 18.5457C7.43171 17.0766 6.38648 15.766 4.92635 15.5612L4.71805 17.0467C5.38907 17.1408 5.86942 17.7431 5.81183 18.4183C5.56555 21.3059 9.01778 22.9684 11.1219 20.9754C11.6138 20.5095 12.3842 20.5095 12.8762 20.9754C14.9803 22.9684 18.4325 21.3059 18.1862 18.4183Z"/>
</svg>
