<svg>
<rect/>
<path fill-rule="evenodd" clip-rule="evenodd" d="M14.9468 4.20254C13.9158 1.49401 10.0842 1.49401 9.05315 4.20254C8.8121 4.83581 8.11798 5.17008 7.47258 4.96371C4.71214 4.08103 2.32312 7.07677 3.79792 9.57159C4.14273 10.1549 3.9713 10.906 3.40755 11.2819C0.996347 12.8898 1.84898 16.6254 4.71903 17.0278C5.39005 17.1219 5.87039 17.7243 5.81281 18.3994C5.56653 21.287 9.01876 22.9495 11.1229 20.9566C11.6148 20.4906 12.3852 20.4906 12.8771 20.9566C14.9812 22.9495 18.4335 21.287 18.1872 18.3994C18.1296 17.7243 18.6099 17.1219 19.281 17.0278C22.151 16.6254 23.0037 12.8898 20.5924 11.2819C20.0287 10.906 19.8573 10.1549 20.2021 9.57159C21.6769 7.07677 19.2879 4.08103 16.5274 4.96371C15.882 5.17008 15.1879 4.83581 14.9468 4.20254ZM15.5913 10.7415C15.8843 10.4487 15.8843 9.97378 15.5914 9.68087C15.2985 9.38797 14.8236 9.38795 14.5307 9.68083L10.83 13.3813L9.46978 12.0211C9.17689 11.7282 8.70202 11.7282 8.40912 12.0211C8.11623 12.314 8.11623 12.7888 8.40912 13.0817L10.2996 14.9722C10.5925 15.2651 11.0674 15.2651 11.3603 14.9723L15.5913 10.7415Z"/>
</svg>
