<svg width="24" height="24" viewBox="0 0 24 24" xmlns="http://www.w3.org/2000/svg">
<path d="M7.75 4C7.75 3.58579 7.41421 3.25 7 3.25C6.58579 3.25 6.25 3.58579 6.25 4V5.5C6.25 5.91421 6.58579 6.25 7 6.25C7.41421 6.25 7.75 5.91421 7.75 5.5L7.75 4Z"/>
<path d="M7 7.25C7.41421 7.25 7.75 7.58579 7.75 8L7.75 9.5C7.75 9.91421 7.41421 10.25 7 10.25C6.58579 10.25 6.25 9.91421 6.25 9.5V8C6.25 7.58579 6.58579 7.25 7 7.25Z"/>
<path d="M7 11.25C7.41421 11.25 7.75 11.5858 7.75 12V13.1523C7.91563 12.818 8.09912 12.4873 8.30233 12.1637C9.21184 10.7152 10.5209 9.40203 12.3864 8.55875C13.7988 7.92027 15.4993 7.56498 17.5394 7.60006L14.4697 4.53033C14.1768 4.23744 14.1768 3.76256 14.4697 3.46967C14.7626 3.17678 15.2374 3.17678 15.5303 3.46967L20.023 7.96236C20.0386 7.97754 20.0535 7.99338 20.0677 8.00983C20.1305 8.08246 20.1771 8.16429 20.2075 8.25056C20.2417 8.34737 20.2564 8.45256 20.2475 8.56074C20.2377 8.68281 20.1981 8.80293 20.1287 8.9093C20.0994 8.95412 20.0656 8.99546 20.0279 9.03273L15.5303 13.5303C15.2374 13.8232 14.7626 13.8232 14.4697 13.5303C14.1768 13.2374 14.1768 12.7626 14.4697 12.4697L17.8308 9.10859C15.8308 9.03204 14.2526 9.36124 13.0043 9.92558C11.4478 10.6292 10.3507 11.7223 9.57267 12.9613C7.99875 15.4679 7.75034 18.5441 7.75 19.9969L7.75 20C7.75 20.0517 7.74475 20.1023 7.73476 20.1512C7.66483 20.4929 7.36244 20.75 7 20.75C6.58579 20.75 6.25 20.4142 6.25 20V12C6.25 11.5858 6.58579 11.25 7 11.25Z"/>
</svg>
