<svg xmlns="http://www.w3.org/2000/svg" viewBox="0 0 400 300"><path d="M48 121v35.6l-33.6 16.2L48 121zm0 58v-15.3L11.7 179H48z" fill="#e31837"/><path d="M48 163.7L84.3 179H48v-15.3zm0-42.7v35.6l33.6 16.2L48 121zm41.6 49.8c0 1.3-1.1 2.4-2.4 2.4s-2.4-1.1-2.4-2.4c0-1.4 1.1-2.4 2.4-2.4s2.4 1 2.4 2.4zm-.3 0c0-1.1-.9-2-2-2s-2 .9-2 2 .9 2 2 2 2-.9 2-2zm-1.7.1l.8 1.2H88l-.8-1.2h-.5v1.2h-.3v-2.7h1.1c.6 0 .9.3.9.8-.1.4-.4.7-.8.7zm.4-.8c0-.3-.3-.5-.6-.5h-.6v.9h.4c.3.1.8.1.8-.4z" fill="#98002e"/><path d="M112.7 172.8H129c16.8 0 26.8-8.7 26.8-23.1 0-14.4-10-23.1-26.8-23.1h-16.3v46.2zm10.3-38.2h6c10.9 0 16.3 5.4 16.3 15.1s-5.5 15.1-16.3 15.1h-6v-30.2zm67.8 18.2h19.6v-8h-19.6v-10.1H213v-8h-32.5v46.2h33.3v-8h-22.9v-12.1zm81.8 12h-19.9v-38.2h-10.4v46.2h30.3v-8zm55.7-38.2h-41.5v8h15.5v38.2h10.4v-38.2h15.6v-8zm60 46.2h-10.8l-4.5-11.6h-18.8l-4.5 11.6h-10.1l19.3-46.4h10.4l19 46.4zM370 153.5l-6.4-16.4-6.5 16.4H370z" fill="#003d79"/></svg>