<svg width="24" height="24" viewBox="0 0 24 24" xmlns="http://www.w3.org/2000/svg">
<path d="M8.25 6C7.83579 6 7.5 6.33579 7.5 6.75C7.5 7.16421 7.83579 7.5 8.25 7.5H12.25C12.6642 7.5 13 7.16421 13 6.75C13 6.33579 12.6642 6 12.25 6H8.25Z"/>
<path d="M8.25 11C7.83579 11 7.5 11.3358 7.5 11.75C7.5 12.1642 7.83579 12.5 8.25 12.5H16.25C16.6642 12.5 17 12.1642 17 11.75C17 11.3358 16.6642 11 16.25 11H8.25Z"/>
<path d="M7.5 14.75C7.5 14.3358 7.83579 14 8.25 14H16.25C16.6642 14 17 14.3358 17 14.75C17 15.1642 16.6642 15.5 16.25 15.5H8.25C7.83579 15.5 7.5 15.1642 7.5 14.75Z"/>
<path d="M8.25 17C7.83579 17 7.5 17.3358 7.5 17.75C7.5 18.1642 7.83579 18.5 8.25 18.5H14.25C14.6642 18.5 15 18.1642 15 17.75C15 17.3358 14.6642 17 14.25 17H8.25Z"/>
<path fill-rule="evenodd" clip-rule="evenodd" d="M4 4.75C4 3.23122 5.23122 2 6.75 2H14.4896C15.1631 2 15.8132 2.24717 16.3166 2.69462L19.577 5.59276C20.1641 6.11462 20.5 6.86263 20.5 7.64813V19.25C20.5 20.7688 19.2688 22 17.75 22H6.75C5.23122 22 4 20.7688 4 19.25V4.75ZM6.75 3.5C6.05964 3.5 5.5 4.05964 5.5 4.75V19.25C5.5 19.9404 6.05964 20.5 6.75 20.5H17.75C18.4404 20.5 19 19.9404 19 19.25V8H16.5C15.3954 8 14.5 7.10457 14.5 6V3.50004C14.4965 3.50001 14.4931 3.5 14.4896 3.5H6.75Z"/>
</svg>
