<svg width="24" height="24" viewBox="0 0 24 24" xmlns="http://www.w3.org/2000/svg">
  <path fill-rule="evenodd" clip-rule="evenodd" d="M12 2C17.52 2 22 6.48 22 12C22 17.52 17.52 22 12 22C6.48 22 2 17.52 2 12C2 6.48 6.48 2 12 2ZM12 3.5C7.31 3.5 3.5 7.31 3.5 12C3.5 16.69 7.31 20.5 12 20.5C16.69 20.5 20.5 16.69 20.5 12C20.5 7.31 16.69 3.5 12 3.5Z" fill="#626B79"/>
  <path d="M11.9702 17.5149C11.5996 17.5149 11.2877 17.2083 11.2877 16.845V15.9168L11.21 15.8948C9.93113 15.5472 9.13733 14.6106 9.13733 13.4514C9.13733 13.0818 9.43763 12.7815 9.80618 12.7815C10.1747 12.7815 10.475 13.0818 10.475 13.4514C10.475 13.925 10.9633 14.6264 12.0122 14.6264C12.9352 14.6264 13.4633 14.2641 13.4633 13.632C13.4633 12.9212 12.512 12.5915 11.5912 12.2723C11.3161 12.1767 11.0452 12.0833 10.8121 11.9825C10.327 11.7725 9.42398 11.3808 9.42398 10.0683C9.42398 9.03514 10.0918 8.23504 11.2111 7.93159L11.2877 7.91059L11.2909 7.18504C11.2909 6.81544 11.5912 6.51514 11.9597 6.51514C12.3283 6.51514 12.6296 6.81544 12.6296 7.18399V7.83499L12.7178 7.84969C13.8235 8.02819 14.7937 9.01099 14.7937 9.95284C14.7937 10.4001 14.4976 10.6416 14.2193 10.6416C13.8088 10.6416 13.4906 10.4043 13.4434 10.0641C13.3835 9.61264 12.9478 9.15694 12.1088 9.15694C11.0998 9.15694 10.7417 9.64204 10.7417 10.0568C10.7417 10.6521 11.3549 10.8327 12.0647 11.0417C12.2653 11.1015 12.4795 11.1635 12.6947 11.2391C13.4696 11.5131 14.7727 12.1872 14.7727 13.6194C14.7727 14.8185 13.9852 15.689 12.7189 15.8916L12.6307 15.9063L12.6286 16.823C12.6286 17.2293 12.2821 17.5128 11.9723 17.5128L11.9702 17.5149Z"/>
</svg>
