<svg>
  <path fill-rule="evenodd" clip-rule="evenodd" d="M22 12C22 6.48 17.52 2 12 2C6.48 2 2 6.48 2 12C2 17.52 6.48 22 12 22C17.52 22 22 17.52 22 12ZM11.2877 16.845C11.2877 17.2083 11.5996 17.5149 11.9702 17.5149L11.9723 17.5128C12.2821 17.5128 12.6286 17.2293 12.6286 16.823L12.6307 15.9063L12.7189 15.8916C13.9852 15.689 14.7727 14.8185 14.7727 13.6194C14.7727 12.1872 13.4696 11.5131 12.6947 11.2391C12.507 11.1732 12.3201 11.1176 12.1423 11.0648C12.1163 11.057 12.0904 11.0493 12.0647 11.0417C11.3549 10.8327 10.7417 10.6521 10.7417 10.0568C10.7417 9.64204 11.0998 9.15694 12.1088 9.15694C12.9478 9.15694 13.3835 9.61264 13.4434 10.0641C13.4906 10.4043 13.8088 10.6416 14.2193 10.6416C14.4976 10.6416 14.7937 10.4001 14.7937 9.95284C14.7937 9.01099 13.8235 8.02819 12.7178 7.84969L12.6296 7.83499V7.18399C12.6296 6.81544 12.3283 6.51514 11.9597 6.51514C11.5912 6.51514 11.2909 6.81544 11.2909 7.18504L11.2877 7.91059L11.2111 7.93159C10.0918 8.23504 9.42398 9.03514 9.42398 10.0683C9.42398 11.3808 10.327 11.7725 10.8121 11.9825C11.0381 12.0802 11.2997 12.1711 11.5661 12.2636L11.5912 12.2723C12.512 12.5915 13.4633 12.9212 13.4633 13.632C13.4633 14.2641 12.9352 14.6264 12.0122 14.6264C10.9633 14.6264 10.475 13.925 10.475 13.4514C10.475 13.0818 10.1747 12.7815 9.80618 12.7815C9.43763 12.7815 9.13733 13.0818 9.13733 13.4514C9.13733 14.6106 9.93113 15.5472 11.21 15.8948L11.2877 15.9168V16.845Z"/>
</svg>
