<svg>
  <path d="M11.9702 17.5149C11.5995 17.5149 11.2877 17.2083 11.2877 16.845V15.9168L11.21 15.8947C9.9311 15.5472 9.1373 14.6106 9.1373 13.4514C9.1373 13.0818 9.4376 12.7815 9.80615 12.7815C10.1747 12.7815 10.475 13.0818 10.475 13.4514C10.475 13.9249 10.9632 14.6263 12.0122 14.6263C12.9351 14.6263 13.4633 14.2641 13.4633 13.632C13.4633 12.9211 12.512 12.5914 11.5911 12.2722C11.316 12.1767 11.0451 12.0832 10.812 11.9824C10.3269 11.7724 9.42395 11.3808 9.42395 10.0683C9.42395 9.03508 10.0917 8.23498 11.211 7.93153L11.2877 7.91053L11.2908 7.18498C11.2908 6.81538 11.5911 6.51508 11.9597 6.51508C12.3282 6.51508 12.6296 6.81538 12.6296 7.18393V7.83493L12.7178 7.84963C13.8234 8.02813 14.7936 9.01093 14.7936 9.95278C14.7936 10.4001 14.4975 10.6416 14.2193 10.6416C13.8087 10.6416 13.4906 10.4043 13.4433 10.0641C13.3835 9.61258 12.9477 9.15688 12.1088 9.15688C11.0997 9.15688 10.7417 9.64198 10.7417 10.0567C10.7417 10.6521 11.3549 10.8327 12.0647 11.0416C12.2652 11.1015 12.4794 11.1634 12.6947 11.239C13.4696 11.5131 14.7726 12.1872 14.7726 13.6194C14.7726 14.8185 13.9851 15.6889 12.7188 15.8916L12.6306 15.9063L12.6285 16.8229C12.6285 17.2293 12.282 17.5128 11.9723 17.5128L11.9702 17.5149Z"/>
</svg>
