<svg width="24" height="24" viewBox="0 0 24 24" xmlns="http://www.w3.org/2000/svg">
  <path d="M11.91 19.99C11.53 19.95 11.22 19.63 11.22 19.26V17.66L10.9 17.57C9.10999 17.08 7.98999 15.78 7.98999 14.17C7.98999 13.77 8.31999 13.44 8.71999 13.44C9.11999 13.44 9.44999 13.77 9.44999 14.17C9.44999 14.99 10.27 16.21 12.03 16.21C13.57 16.21 14.48 15.55 14.48 14.44C14.48 13.18 12.89 12.63 11.49 12.14C11.03 11.98 10.66 11.85 10.34 11.71C9.61999 11.4 8.41999 10.88 8.41999 9.09003C8.41999 7.67003 9.34999 6.57003 10.9 6.15003L11.22 6.06003V4.76003C11.22 4.36003 11.55 4.03003 11.95 4.03003C12.35 4.03003 12.68 4.36003 12.68 4.76003V5.97003L13.04 6.03003C14.55 6.27003 15.92 7.65003 15.92 8.91003C15.92 9.40003 15.62 9.67003 15.33 9.67003C14.86 9.67003 14.49 9.41003 14.44 9.04003C14.33 8.24003 13.59 7.44003 12.17 7.44003C10.56 7.44003 9.83999 8.26003 9.83999 9.07003C9.83999 10.17 10.9 10.48 12.02 10.81L12.14 10.85C12.42 10.93 12.68 11.01 12.95 11.11C14.05 11.5 15.88 12.44 15.88 14.42C15.88 16.1 14.82 17.27 13.03 17.56L12.67 17.62V19.23C12.67 19.7 12.25 19.99 11.96 19.99H11.9H11.91Z"/>
</svg>
