<svg width="24" height="24" viewBox="0 0 24 24" xmlns="http://www.w3.org/2000/svg">
<path d="M19.9995 17.5241C19.9995 17.1099 19.6637 16.7741 19.2495 16.7741C18.8353 16.7741 18.4995 17.1099 18.4995 17.5241V19.9991H5.50043L5.50043 17.5241C5.50043 17.1099 5.16465 16.7741 4.75043 16.7741C4.33622 16.7741 4.00043 17.1099 4.00043 17.5241L4.00043 20.7491C4.00043 20.9481 4.07944 21.1388 4.2201 21.2795C4.36075 21.4201 4.55151 21.4991 4.75043 21.4991H19.2495C19.6637 21.4991 19.9995 21.1634 19.9995 20.7491V17.5241Z"/>
<path d="M6.21629 12.0419L11.4694 17.3039L11.5536 17.3767C11.8474 17.595 12.2643 17.5708 12.5307 17.3039L17.7839 12.0419C18.0496 11.7336 18.0891 11.2846 17.7839 10.9788L17.6997 10.906C17.4059 10.6877 16.989 10.712 16.7226 10.9788L12.7505 14.9582V3.25257C12.7232 2.84602 12.4299 2.50085 12.0001 2.50085C11.5942 2.5282 11.2496 2.82206 11.2496 3.25257V14.9582L7.27759 10.9788C6.96983 10.7127 6.52154 10.6731 6.21629 10.9788C5.92322 11.2724 5.92322 11.7484 6.21629 12.0419Z"/>
</svg>
