<svg>
  <path d="M18.58 7.59L16.49 5.51C15.81 4.83 14.7 4.83 14.02 5.51L11.94 7.6L5.51 14.04C5.19 14.37 5 14.82 5 15.28V18.29C5 18.73 5.38 19.11 5.83 19.11H8.84C9.3 19.11 9.75 18.92 10.08 18.6L18.59 10.07C19.27 9.39 19.27 8.28 18.59 7.6L18.58 7.59ZM9.02 17.53C9.02 17.53 8.91 17.6 8.84 17.6H6.5V15.27C6.5 15.2 6.53 15.14 6.57 15.09L12.46 9.18L14.9 11.62L9.01 17.52L9.02 17.53ZM17.52 9.01L15.96 10.57L13.52 8.13L15.08 6.57C15.18 6.47 15.34 6.47 15.43 6.57L17.52 8.65C17.62 8.75 17.62 8.91 17.52 9V9.01ZM19.15 18.34C19.15 18.75 18.81 19.09 18.4 19.09H12.6C12.19 19.09 11.85 18.75 11.85 18.34C11.85 17.93 12.19 17.59 12.6 17.59H18.4C18.81 17.59 19.15 17.93 19.15 18.34Z"/>
</svg>
