<svg>
  <path d="M18.4 19.09H12.6C12.19 19.09 11.85 18.75 11.85 18.34C11.85 17.93 12.19 17.59 12.6 17.59H18.4C18.81 17.59 19.15 17.93 19.15 18.34C19.15 18.75 18.81 19.09 18.4 19.09ZM17.03 11.63L18.59 10.07C18.92 9.74 19.1 9.3 19.1 8.83C19.1 8.36 18.92 7.92 18.59 7.59L16.5 5.51C16.17 5.18 15.73 5 15.26 5C14.79 5 14.35 5.18 14.02 5.51L12.47 7.07L17.03 11.63ZM11.41 8.13L5.51 14.04C5.18 14.37 5 14.81 5 15.28V18.29C5 18.73 5.36 19.09 5.8 19.09L8.83 19.11H8.84C9.3 19.11 9.75 18.92 10.08 18.59L15.97 12.69L11.41 8.13Z"/>
</svg>
