<svg xmlns="http://www.w3.org/2000/svg" viewBox="0 0 1417.3 265.1"><path fill="#82C341" d="M1415.8 139.4c-5.1 16.4-22.1 31.8-42.5 35 3.3 5.1 4.8 11.4 4 18.4-2.2 19-20.4 34.3-39.9 34.5-13.2.1-31.1-5.6-43.7-25.5-11.3-17.7-12.9-45.8-12.1-54.3-13.8 14.1-22.4 27.8-26.5 37.3-9.2 21.5-12.7 47.7-12.5 60 0 0-1.7 1.6-3.3 1.9-5.1-.9-9.5-2.8-12.8-5.7-4-3.6-4.9-7-4.9-7 6.1-30.5 15.8-49.5 30.3-71.2 19.5-29.3 49.6-47.4 85.3-58.3 25.8-7.9 52.6-9.6 71 6 9.9 8.2 10.5 20 7.6 28.9zm-152-16.2c-6.1 10.2-22.8 26.6-36 35.1-27.5 17.6-47.3 18.8-57.2 12.5-1.2-.7-2.2-1.6-3.1-2.5-7.7-8.1-6.4-22.5 2.6-34.3 4.4-5.8 10.1-9.9 15.6-11.8-4.3-2-7.2-6.2-7.8-12.1-1.2-11.8 7.7-27.3 20-33.6 10.8-5.5 34.1-11 51.2 14.5 6.7 9.9 12.7 24 14.7 32.2zm113-107.2c-1.5-14.7-17.2-20.1-34.5-12.7-8.2 3.5-15.4 9.4-20.5 16.1.8-6.7-1.1-12.6-5.9-16.1-9.5-6.9-26.8-1.8-38.6 11-4.1 4.5-17.5 20.7-18.2 44.5-.3 11.5 4.8 37 21.6 54.6 44.8-16.9 68.9-42.8 78.1-53.5 10.6-12.4 15.1-23.3 17-31.3 1.4-6.3 1.2-10.8 1-12.6z"/><path fill="#3CB14A" d="M1358.8 59.9c10.6-12.4 15.1-23.3 17-31.3.1-.4.2-.8.3-1.3-2.2 8.9-21 31.9-47 51.5-27 20.3-42.4 30.5-48.3 34.5 44.7-16.8 68.8-42.7 78-53.4zM1227.8 158.2c13.2-8.5 29.9-24.9 36-35.1-11.8 11.2-29.2 27.9-59.1 41.1-14.8 6.3-29.3 8.7-34.1 6.4 9.9 6.4 29.7 5.2 57.2-12.4zM1415.8 139.4c.7-2.2 1.2-4.5 1.4-6.9-1.4 9.5-7.8 21-18 27.3-9 5.6-19.4 9.3-31.2 8.3 1.9 1.8 3.4 3.3 5.3 6.2 20.4-3.1 37.4-18.5 42.5-34.9z"/><path fill="#F9ED32" d="M1284.4 129.4c-.1.1-.2.1-.2.2 0-.1.1-.2.2-.2z"/><path fill="#3CB14A" d="M1284.2 129.5c-32.1 23-43 64.4-44.8 117.1 1.6-.3 3.3-1.9 3.3-1.9-.2-12.3 3.3-38.4 12.5-60 4.1-9.5 12.7-23.2 26.5-37.3 1-9.4 2.1-14.9 2.8-18-.2 0-.3.1-.3.1z"/><g><path fill="#006472" d="M800.9 184.7c18.6-9.4 25.3-28.5 25.3-43.8 0-17.1-5.2-30.6-15.3-40.5-.9-.9-1.8-1.7-2.8-2.5l16-26.7h-23.7l-10.2 17.1c-7.8-2.6-16-3.8-23.5-3.8-14.9 0-29.8 5.3-40.8 14.6-8.7 7.4-19.1 20.6-19.1 41.8 0 36.8 27.7 45.8 54.5 54.6l14.9 4.7c15.9 4.7 25.5 7.6 25.5 20.1 0 5.7-2 10.6-6 14.3-6.2 5.9-17.1 9.1-29.1 8.4-10.5-.6-32.8-2.7-35.6-25.6h-23c0 29.2 26.1 47.7 58.5 47.7 20.8 0 36.2-5.9 46.5-15.9 8.1-7.8 12.4-17.9 12.4-29.2.2-16-8.5-28.5-24.5-35.3zm-3.7-21.4c-3.9 6.5-10.8 12.9-19.4 14.8 0 0-16.2-4.6-26.7-8.2-14.2-4.9-20.8-14.1-20.8-29 0-23.6 18.9-34.4 36.5-34.4 17.5 0 36.3 11 36.3 34.3 0 9.5-2.3 16.5-5.9 22.5z"/><g fill="#006472"><path d="M531 88.3h23.6v116.6H531zM529.6 59.2c0-7.4 4.9-12.7 13.3-12.7 8.2 0 13.1 5.3 13.1 12.7 0 7.8-4.9 13.1-13.1 13.1-8.5-.1-13.3-5.3-13.3-13.1z"/></g><path fill="#006472" d="M89 54.1H64.5L0 204.9h25.4l16.4-38.3h69.9l16.4 38.3h25.4L89 54.1zm-38.7 91.7l26.3-61.6 26.3 61.6H50.3zM439.4 54.1h-24.8v150.8h102v-20.8h-77.2zM992.5 90.3c-12.6 5.6-19.5 15.7-20 27.4-1.3 27.3 19.6 33.7 47.6 37.6 22.3 3.1 35.1 6.4 34.5 17.6-.2 3.4-3 7.7-7.1 9.7-15 7.5-53.1 3.5-71-7.6l-4.9 19.9c10.8 7 27 11.1 42.4 11.8 16.7.8 33.6-.4 45.8-6.2 11.9-5.7 18.1-16.3 18.6-27.6 1.2-26.8-23.8-32.6-47.2-36.7-26.6-4.6-36.3-7.3-35.6-18.8.3-5.4 5.3-8.9 9.3-10.1 14.5-4.5 45-1.5 62.9 8.3l4.7-20.1c-23.3-11.7-58.6-14.7-80-5.2zM633 86.2c-25.9 0-43.3 3.7-51.4 6l-.9.3v112.4h23.9V109c8.1-1.9 14.5-2.5 27.2-2.5 19.5 0 32.6 4.9 32.6 28.8v69.5H688v-68.4c-.1-33.2-18.6-50.2-55-50.2zM926.8 184.4c-7.7 1.7-14.7 2.3-27.2 2.3-20.1 0-32.6-4.8-32.6-28.6V88.4h-23.6V157c0 33.2 18.5 50.1 54.9 50.1 24.4 0 39.6-3 51.3-6l1-.2V88.4h-23.9v96zM343.3 86.2c-15.6 0-28.6 3-37.3 9.2-13 9.2-18.1 23.1-18.1 41.1v68.4h23.6v-69.5c0-8.5 1.7-14.6 4.7-18.9 5.4-7.9 15.3-9.9 27.9-9.9 5.9 0 12.6.7 19.2 2l4.7-19.9c-7.4-1.5-15.6-2.5-24.7-2.5zM267.4 135.2c-2.8-32.1-21.9-48.9-55.8-48.9-36.7 0-56.2 19.8-56.2 57.4v5.9c0 37.6 21.5 57.4 62.1 57.4 16.5 0 32.2-2.4 45.6-7l-5-19.8-1.1.4c-7.7 2.9-22.1 6.1-39.5 6.1-17 0-37.2-5.4-37.7-30.6h87.9v-12.3c0-3.1-.1-5.9-.3-8.6zm-55.8-28.6c14.1 0 30.8 5.1 32 28.6h-63.7c.9-18.7 11.8-28.6 31.7-28.6z"/></g></svg>