<svg xmlns="http://www.w3.org/2000/svg" width="328" height="166"><g fill-rule="evenodd" clip-rule="evenodd" fill="#E03A3E"><path d="M173.858 28.321c-.499.52-2.25 3.169-2.25 6.452 0 .786.014 19.606 0 20.281-.028 1.432-.902 3.472-1.622 4.192-.51.508-3.63 3.346-3.907 3.644l1.77.028c.575-.552 6.589-5.88 7.218-6.597.818-.931 2.767-3.286 2.767-6.986l.01-19.488c0-2.924 1.362-4.546 2.064-5.329.72-.804 3.089-2.781 3.51-3.227l-1.856-.055c-.451.449-7.086 6.439-7.704 7.085zM158.973 102.068l7.362 6.432h4.929c5.014 0 9.595-2.146 12.617-5.168 3.026-3.027 4.14-7.088 4.14-10.891V81.9c0-3.543-2.226-5.604-2.844-6.223-.337-.336-2.482-2.358-2.482-2.358v8.088s2.363 2.439 2.83 2.934c2.183 2.32 2.159 6.545-4.754 13.285-1.211 1.18-4.665 4.441-9.419 4.441l-12.379.001z"/><path d="M179.451 58.803c-.822.868-1.608 2.991-1.608 4.862v3.993h4.048c1.573 0 3.651-1.433 4.101-2.191.027-.056 0-3.96 0-3.96s1.039 1.489 2.162 2.274c.422-.533 4.107-5.002 7.193-5.027 5.153-.042 3.988 6.459 1.883 8.538-.683.67-3.726 3.461-4.667 4.357-2.433 2.316-6.6 1.207-6.6-4.779 0 0-4.469 4.244-5.14 4.807-.674.561-2.98 3.005-2.98 3.005v10.517c0 5.045-1.66 6.736-3.036 8.254-.534.588-6.215 5.771-6.973 6.332l-1.857.043s3.325-3.023 3.991-3.715c.759-.787 1.641-2.383 1.641-5.045 0-.674-.085-16.528-.085-16.528h-25.837c-8.987 0-10.908-9.973-10.964-12.641-.014-.786 0-8.752 0-9.988 0-1.64-1.049-4.406-2.724-5.259h2.534c.292.123 1.885.766 1.885 6.88 0 0-.108 7.117-.108 7.496 0 3.1 2.465 6.656 6.027 6.656l29.244-.028c.028-.787.814-3.771 2.219-5.347.797-.889 7.07-6.628 7.786-7.18l1.857-.021c-.281.259-3.314 2.979-3.992 3.695zm9.601 5.989s1.693 2.247 2.5 2.893c3.149 2.528 4.645-.186 2.531-3.09-.836-1.144-4.076-.814-5.031.197z"/><path d="M157.695 83.633c0 1.412-4.511 5.16-4.774 5.424-.327-1.52-1.464-3.201-4.827-6.564l4.936-4.936c3.307 3.31 4.665 4.016 4.665 6.076zM166.255 27.053c.99.99 3.12 3.676 1.843 4.956-1.131 1.131-2.882 2.922-2.882 2.922-.088-.646-1.728-2.201-1.728-2.201s.014 4.767 0 5.357c-.056 2.152-.867 2.766-.867 2.766s3.978 3.946 3.978 9.016c0 2.458.01 4.719.01 5.206 0 1.039-.263 1.843-.985 2.64-.358.396-4.045 4.1-4.605 4.605-1.068.962-2.191 1.124-3.034 1.124h-13.709c-2.16 0-4.381-1.685-4.381-3.37 0-.422.027-5.084.027-5.084.703.815 1.418 1.766 3.146 1.742 1.348-.021 2.767-1.081 3.146-1.46.393-.397 10.37-10.827 10.37-10.827s-4.673-4.332-7.751-6.39c-1.502-1.007-3.497.264-3.798 1.587-.944 4.15 0 10.374 0 10.374l-3.785-3.776c-1.523-1.528-1.468-4.982.348-6.797.288-.288 3.054-3.416 6.568-3.416h5.473c3.672 0 7.689 3.658 7.689 3.658s.59-.646.59-1.271c0-1.882-.071-6.958-.071-6.958-2.763-2.763-3.138-5.614-1.815-6.937 2.473-2.471 3.371-3.342 3.371-3.342s-.03 2.997 2.852 5.876zm-17.199 27.544c-1.352 1.415-1.586 1.77-2.85 2.527h15.439c4.185 0 3.353-2.597 2.602-3.907-1.537-2.686-6.396-7.677-6.396-7.677s-8.514 8.758-8.795 9.057z"/><path d="M131.451 68.65h-2.535s2.724 1.496 2.724 5.354v12.322c0 8.018 6.614 15.432 14.65 15.432h6.712c4.03 0 5.445-.975 7.881-3.137.893-.795 2.054-2.098 2.479-2.57 1.404-1.572 2.899-2.844 2.899-6.973v-4.033c0-3.486-2.018-4.936-2.993-5.912a229.64 229.64 0 00-2.342-2.265v8.261s1.691 1.801 2.436 2.387c3.486 2.752.713 7.531-2.521 7.531-.646 0-13.842.004-14.741.027-5.427.135-12.765-4.707-12.765-12.848v-6.695c0-6.881-1.884-6.881-1.884-6.881z"/><path d="M147.605 83.654c0 1.408-4.511 5.16-4.773 5.424-.323-1.52-1.464-3.201-4.827-6.564l4.936-4.936c3.31 3.311 4.664 4.012 4.664 6.076zM95.997 138.455c-.804 0-7.008-.01-7.895-.01-2.49 0-2.3-2.068-2.518-3.834v-11.33s1.728-.041 3.686-.041c2.188 0 4.912-.324 7.562 1.176 0 0-1.906-4.596-7.576-4.596h-3.672V116.191s0-3.164-.772-4.098c0 0 4.883.018 5.216.018 4.515.004 8.005-.066 11.634 2.352 0 0-.695-5.975-9.415-5.975H75.213s2.957 2.531 2.875 7.686l.082 20.643c0 5.182 2.074 5.324 2.074 5.324h16.787c3.805 0 5.129-2.721 5.129-4.193l.057-1.98c.001-.001-1.207 2.487-6.22 2.487zM140.687 136.711v-14.439c0-5.604-4.578-7.092-7.987-7.092-4.514 0-5.866 3.771-6.441 5.066-1.007-3.516-4.525-5.107-7.411-5.107-5.452 0-6.835 5.191-6.835 5.191s-.129-5.014-4.507-5.014l-4.29.01s2.485 1.023 2.485 5.355l-.007 16.031c0 5.295 2.134 5.387 2.134 5.387h7.071c-.182-.092-2.714-2.002-2.714-5.432v-14.221c.088-.633 1.156-2.781 4.206-2.781 1.727 0 3.627 1.801 3.584 3.826l-.007 13.215c0 5.371 2.107 5.385 2.107 5.385h7.098s-2.714-1.91-2.714-5.43l-.021-14.227c.267-.793 1.2-2.725 3.879-2.725 2.134 0 3.922 1.803 3.879 3.828 0 0-.014 12.063-.007 13.182.032 5.406 2.106 5.357 2.106 5.357 3.697 0 7.099.014 7.099.014s-2.707-1.869-2.707-5.379zM153.09 136.703c0 3.561 2.724 5.389 2.724 5.389s-3.376-.014-7.07-.014c0 0-2.169.031-2.169-5.334v-.023l.007-16.078c0-4.24-2.457-5.33-2.457-5.33h4.29c1.512 0 4.662 0 4.662 5.996l-.011 15.369.024.025zM174.873 117.336s-.682-1.928-3.619-1.928c-4.441 0-5.522 5.277-5.522 5.277-.361-4.172-1.479-5.404-4.612-5.404l-4.291.012s2.486 1.018 2.486 5.35l-.008 16.053c0 5.299 2.135 5.385 2.135 5.385h7.07c-.183-.086-2.714-1.996-2.714-5.426l.007-13.145c.186-1.193.801-2.109 1.734-2.713 2.331-1.51 5.512-1.152 7.334 1.074v-4.535zM207.869 118.305c2.394 0 4.182 1.045 4.182 1.045l.021-4.039h-5.947l.003-6.127s-1.562 2.703-4.76 5.33c-2.008 1.648-6.225 3.686-6.225 3.686l4.49.08-.007 18.631c0 5.168 2.16 5.168 2.16 5.168 3.879 0 7.063.014 7.063.014s-2.731-1.828-2.731-5.227l.007-18.572c1.863.007.578.011 1.744.011zM229.367 126.393c-3.966 4.15-7.08 3.5-9.573 6.541 0 .004.4 4.121 3.55 5.574 1.078.498 5.444 2.074 8.274-2.809l-.021 4.322s-1.815 2.109-7.58 2.109c-6.946 0-11.704-5.463-11.704-12.871 0-7.283 3.88-14.045 11.203-14.082 7.179-.038 11.065 5.761 5.851 11.216zm-4.342-1.7c1.176-2.17 2.099-7.678-1.913-7.377-4.648.35-3.764 12.709-3.764 12.709 1.556-1.687 3.886-2.033 5.677-5.332zM149.804 113.146c1.822 0 3.3-1.445 3.3-3.229s-1.478-3.23-3.3-3.23c-1.822 0-3.3 1.447-3.3 3.23s1.478 3.229 3.3 3.229zM182.241 139.055c-1.614 0-2.766-1.678-2.766-3.396 0-6.686 5.473-7.609 6.936-9.393l.012 11.27c-.646.575-1.303 1.519-4.182 1.519zm4.17-15.369c-1.646 2.883-14.441 3.494-12.479 13.391.776 3.924 3.392 5.068 6.682 5.068 3.194 0 5.115-1.668 5.918-3.219.478 2.98 1.984 3.152 1.984 3.152 3.695 0 7.07.014 7.07.014s-2.753-1.828-2.753-5.361v-15.045c0-3.6-3.991-6.4-8.232-6.4-4.076 0-6.639 1.963-6.639 1.963v4.668s1.454-3.699 5.143-3.699c3.599 0 3.865 1.793 3.845 2.689-.001-.001.362 1.21-.539 2.779zM245.022 134.822c.038 1.891-1.654 4.377-5.256 4.377-3.687 0-5.16-3.773-5.16-3.773v4.781s2.66 1.896 6.736 1.896c4.838 0 9.728-3.676 9.619-8.795-.035-1.801-.678-3.336-1.661-4.658-1.636-2.195-4.616-3.729-6.923-5.146-1.316-.813-2.015-2.262-2.032-2.77-.039-.896.396-2.707 3.999-2.707 3.514 0 5.009 3.699 5.009 3.699l-.014-4.479s-2.688-2.135-6.765-2.135c-4.241 0-8.093 2.801-8.02 6.4.067 3.158 1.397 5.205 3.982 7.133 1.021.762 2.24 1.502 3.65 2.285 2.06 1.142 2.808 2.541 2.836 3.892z"/></g></svg>