<svg>
  <g>
    <path d="M12,2 C17.5228475,2 22,6.4771525 22,12 C22,13.1360629 21.8102118,14.2472692 21.4429067,15.298777 C21.3063105,15.6898197 20.8785747,15.8960893 20.4875321,15.7594931 C20.0964894,15.6228969 19.8902198,15.1951612 20.026816,14.8041185 C20.3387662,13.9110787 20.5,12.9670577 20.5,12 C20.5,7.30557963 16.6944204,3.5 12,3.5 C7.30557963,3.5 3.5,7.30557963 3.5,12 C3.5,14.0721173 4.24311678,16.0272144 5.57169001,17.5614153 C7.17710852,19.4153098 9.49976294,20.5 12,20.5 C12.6234136,20.5 13.2376254,20.4330131 13.8355031,20.3014686 C14.2400409,20.2124626 14.6401372,20.4682516 14.7291432,20.8727894 C14.8181492,21.2773272 14.5623601,21.6774235 14.1578223,21.7664295 C13.4542569,21.9212272 12.7319794,22 12,22 C9.05987479,22 6.32516433,20.7228777 4.43776596,18.5433605 C2.87526486,16.7390259 2,14.4362549 2,12 C2,6.4771525 6.4771525,2 12,2 Z M18.2764722,14.6860883 C18.3757694,14.7267158 18.4545834,14.8055299 18.495211,14.904827 L19.3355851,16.9587726 L21.5486933,17.1233118 C21.7689991,17.139691 21.9343143,17.3315621 21.9179351,17.551868 C21.9099806,17.6588598 21.8593789,17.7581713 21.7774962,17.8274949 L20.0837678,19.2614422 L20.6111698,21.4170786 C20.6636705,21.6316634 20.5322754,21.8481789 20.3176906,21.9006797 C20.2134772,21.9261767 20.1033896,21.9087405 20.0121558,21.8522877 L18.125,20.6845703 L16.2378442,21.8522877 C16.0499855,21.9685292 15.8034637,21.910472 15.6872222,21.7226134 C15.6307693,21.6313796 15.6133332,21.521292 15.6388302,21.4170786 L16.1662322,19.2614422 L14.4725038,17.8274949 C14.3039,17.6847513 14.2829363,17.4323544 14.4256798,17.2637507 C14.4950035,17.1818681 14.5943149,17.1312664 14.7013067,17.1233118 L16.9144149,16.9587726 L17.754789,14.904827 C17.8384448,14.7003652 18.0720104,14.6024325 18.2764722,14.6860883 Z M12,13.25 C13.4771195,13.25 14.8949051,13.6646733 16.1192973,14.434317 C16.4699823,14.654755 16.5755684,15.1177417 16.3551304,15.4684267 C16.1346924,15.8191117 15.6717058,15.9246978 15.3210208,15.7042598 C14.3340381,15.0838499 13.1925911,14.75 12,14.75 C10.3219129,14.75 8.75071936,15.4133667 7.58616083,16.5750114 C7.29290097,16.8675375 6.8180276,16.8669427 6.52550149,16.5736828 C6.23297538,16.2804229 6.23357021,15.8055496 6.52683008,15.5130235 C7.96979944,14.0736645 9.9206607,13.25 12,13.25 Z M12,5 C13.9329966,5 15.5,6.56700338 15.5,8.5 C15.5,10.4329966 13.9329966,12 12,12 C10.0670034,12 8.5,10.4329966 8.5,8.5 C8.5,6.56700338 10.0670034,5 12,5 Z M12,6.5 C10.8954305,6.5 10,7.3954305 10,8.5 C10,9.6045695 10.8954305,10.5 12,10.5 C13.1045695,10.5 14,9.6045695 14,8.5 C14,7.3954305 13.1045695,6.5 12,6.5 Z"></path>
  </g>
</svg>
