<svg>
<path fill-rule="evenodd" clip-rule="evenodd" d="M19.25 4C20.7125 4 21.9084 5.1417 21.995 6.58248L22 6.75V15.25C22 16.7125 20.8583 17.9084 19.4175 17.995L19.25 18H4.75C3.28747 18 2.0916 16.8583 2.00502 15.4175L2 15.25V6.75C2 5.28747 3.1417 4.0916 4.58248 4.00502L4.75 4H19.25ZM15 18.5C15.4142 18.5 15.75 18.8358 15.75 19.25C15.75 19.6297 15.4678 19.9435 15.1018 19.9932L15 20H9C8.58579 20 8.25 19.6642 8.25 19.25C8.25 18.8703 8.53215 18.5565 8.89823 18.5068L9 18.5H15ZM10.6253 9.02716L10.6982 9.05994L13.9649 10.8594C14.2523 11.0177 14.2762 11.3971 14.0367 11.5922L13.9649 11.6406L10.6982 13.4401C10.411 13.5983 10.0591 13.4259 10.0067 13.1268L10 13.0495V9.45053C10 9.13168 10.3298 8.92264 10.6253 9.02716Z"/>
</svg>
