<svg>
  <path d="M15,18.5 C15.4142136,18.5 15.75,18.8357864 15.75,19.25 C15.75,19.6296958 15.4678461,19.943491 15.1017706,19.9931534 L15,20 L9,20 C8.58578644,20 8.25,19.6642136 8.25,19.25 C8.25,18.8703042 8.53215388,18.556509 8.89822944,18.5068466 L9,18.5 L15,18.5 Z M19.25,4 C20.7125318,4 21.9084043,5.1417046 21.9949812,6.58247767 L22,6.75 L22,15.25 C22,16.7125318 20.8582954,17.9084043 19.4175223,17.9949812 L19.25,18 L4.75,18 C3.28746816,18 2.09159572,16.8582954 2.00501879,15.4175223 L2,15.25 L2,6.75 C2,5.28746816 3.1417046,4.09159572 4.58247767,4.00501879 L4.75,4 L19.25,4 Z M19.25,5.5 L4.75,5.5 C4.10279131,5.5 3.5704661,5.99187466 3.50645361,6.62219476 L3.5,6.75 L3.5,15.25 C3.5,15.8972087 3.99187466,16.4295339 4.62219476,16.4935464 L4.75,16.5 L19.25,16.5 C19.8972087,16.5 20.4295339,16.0081253 20.4935464,15.3778052 L20.5,15.25 L20.5,6.75 C20.5,6.10279131 20.0081253,5.5704661 19.3778052,5.50645361 L19.25,5.5 Z M10.6699282,8.77944566 L10.7480695,8.81587843 L14.2480695,10.8158784 C14.5559846,10.9918299 14.5816442,11.4134802 14.3250482,11.6303815 L14.2480695,11.6841216 L10.7480695,13.6841216 C10.4403817,13.8599431 10.0633246,13.6683884 10.0071364,13.3359214 L10,13.25 L10,9.25 C10,8.89562031 10.3533889,8.66328081 10.6699282,8.77944566 Z"/>
</svg>
