<svg width="24" height="24" viewBox="0 0 24 24" xmlns="http://www.w3.org/2000/svg">
<path fill-rule="evenodd" clip-rule="evenodd" d="M11.8818 6.46989C11.8465 6.49026 11.8171 6.5194 11.7965 6.55446L5.41899 17.4424C5.35372 17.5538 5.3919 17.6966 5.50427 17.7613C5.54017 17.782 5.58094 17.7929 5.62245 17.7929H18.3775C18.5075 17.7929 18.6128 17.6884 18.6128 17.5596C18.6128 17.5184 18.6019 17.478 18.581 17.4424L12.2035 6.55446C12.1382 6.44303 11.9942 6.40517 11.8818 6.46989ZM12.75 16.25C12.75 15.8358 12.4142 15.5 12 15.5C11.5858 15.5 11.25 15.8358 11.25 16.25C11.25 16.6642 11.5858 17 12 17C12.4142 17 12.75 16.6642 12.75 16.25ZM12.5647 9.86333C12.5647 9.54117 12.3013 9.28 11.9765 9.28C11.6516 9.28 11.3882 9.54117 11.3882 9.86333V14.2967C11.3882 14.6188 11.6516 14.88 11.9765 14.88C12.3013 14.88 12.5647 14.6188 12.5647 14.2967V9.86333Z"/>
<path fill-rule="evenodd" clip-rule="evenodd" d="M13.0467 5.59879L19.833 17.1846C20.3044 17.9893 19.7217 19 18.7863 19H5.21367C4.27833 19 3.6956 17.9893 4.16696 17.1846L10.9533 5.59879C11.4209 4.8004 12.5791 4.8004 13.0467 5.59879ZM11.8818 6.46989C11.8465 6.49026 11.8171 6.5194 11.7965 6.55446L5.41899 17.4424C5.35372 17.5538 5.3919 17.6966 5.50427 17.7613C5.54017 17.782 5.58094 17.7929 5.62245 17.7929H18.3775C18.5075 17.7929 18.6128 17.6884 18.6128 17.5596C18.6128 17.5184 18.6019 17.478 18.581 17.4424L12.2035 6.55446C12.1382 6.44303 11.9942 6.40517 11.8818 6.46989Z"/>
<path d="M11.6322 6.03663C11.5219 6.10017 11.4297 6.1914 11.3651 6.30175L4.98756 17.1897C4.781 17.5423 4.90353 17.9923 5.2547 18.1946C5.36667 18.2591 5.49354 18.2929 5.62245 18.2929H18.3775C18.7797 18.2929 19.1128 17.9685 19.1128 17.5596C19.1128 17.4294 19.0781 17.3017 19.0124 17.1896L12.6349 6.30175C12.4298 5.9516 11.981 5.83575 11.6322 6.03663ZM6.086 17.2929L12 7.19638L17.914 17.2929H12.6894C13.0272 17.0691 13.25 16.6856 13.25 16.25C13.25 15.7871 12.9984 15.383 12.6245 15.1669C12.891 14.9702 13.0647 14.6549 13.0647 14.2967V9.86333C13.0647 9.26109 12.5735 8.78 11.9765 8.78C11.3794 8.78 10.8882 9.26109 10.8882 9.86333V14.2967C10.8882 14.6643 11.0713 14.9868 11.3497 15.1823C10.9901 15.4018 10.75 15.7978 10.75 16.25C10.75 16.6856 10.9728 17.0691 11.3106 17.2929H6.086ZM18.1496 17.6951C18.1495 17.695 18.1494 17.6949 18.1494 17.6947L18.1496 17.6951L18.3775 17.5615L18.1496 17.6951ZM12.6153 5.8515L19.4016 17.4373C19.676 17.9057 19.3388 18.5 18.7863 18.5H5.21367C4.66121 18.5 4.324 17.9057 4.5984 17.4373L11.3847 5.8515C11.6592 5.38283 12.3408 5.38283 12.6153 5.8515Z"/>
</svg>
