<svg>
<path d="M21.7792 18.2125L13.2692 3.7425C12.6892 2.7525 11.2592 2.7525 10.6792 3.7425L2.20919 18.2125C1.61919 19.2125 2.34919 20.4725 3.49919 20.4725H20.4892C21.6492 20.4725 22.3692 19.2125 21.7792 18.2125ZM11.2492 9.3425C11.2492 8.9325 11.5892 8.5925 11.9992 8.5925C12.4092 8.5925 12.7492 8.9325 12.7492 9.3425V14.6025C12.7492 15.0125 12.4092 15.3525 11.9992 15.3525C11.5892 15.3525 11.2492 15.0125 11.2492 14.6025V9.3425ZM11.9992 17.8325C11.5192 17.8325 11.1192 17.4425 11.1192 16.9525C11.1192 16.4625 11.5092 16.0725 11.9992 16.0725C12.4892 16.0725 12.8792 16.4625 12.8792 16.9525C12.8792 17.4425 12.4892 17.8325 11.9992 17.8325Z"/>
</svg>
