<svg width="24" height="24" viewBox="0 0 24 24" xmlns="http://www.w3.org/2000/svg">
<path d="M12.0005 15.34C11.5905 15.34 11.2505 15 11.2505 14.59V9.33C11.2505 8.92 11.5905 8.58 12.0005 8.58C12.4105 8.58 12.7505 8.92 12.7505 9.33V14.59C12.7505 15 12.4105 15.34 12.0005 15.34ZM12.8705 16.96C12.8705 16.48 12.4805 16.08 11.9905 16.08C11.5005 16.08 11.1105 16.47 11.1105 16.96C11.1105 17.45 11.5005 17.84 11.9905 17.84C12.4805 17.84 12.8705 17.45 12.8705 16.96ZM11.9805 4.5L3.50055 18.97H20.4905L11.9805 4.5ZM11.9805 3C12.4805 3 12.9805 3.25 13.2705 3.74L21.7805 18.21C22.3705 19.21 21.6505 20.47 20.4905 20.47H3.50055C2.34055 20.47 1.62055 19.21 2.21055 18.21L10.6905 3.74C10.9805 3.25 11.4805 3 11.9805 3Z"/>
</svg>
