<svg xmlns="http://www.w3.org/2000/svg" width="24" height="24" viewBox="0 0 24 24">
  <path fill="#626B79" fill-rule="evenodd" d="M7,6.25044559 L12,6.25044559 C12.4142136,6.25044559 12.75,6.58623202 12.75,7.00044559 C12.75,7.38014135 12.4678461,7.69393655 12.1017706,7.74359897 L12,7.75044559 L7,7.75044559 C6.35279131,7.75044559 5.8204661,8.24232025 5.75645361,8.87264035 L5.75,9.00044559 L5.75,17.0004456 C5.75,17.6476543 6.24187466,18.1799795 6.87219476,18.243992 L7,18.2504456 L15,18.2504456 C15.6472087,18.2504456 16.1795339,17.7585709 16.2435464,17.1282508 L16.25,17.0004456 L16.25,12.0004456 C16.25,11.586232 16.5857864,11.2504456 17,11.2504456 C17.3796958,11.2504456 17.693491,11.5325995 17.7431534,11.898675 L17.75,12.0004456 L17.75,17.0004456 C17.75,18.4629774 16.6082954,19.6588499 15.1675223,19.7454268 L15,19.7504456 L7,19.7504456 C5.53746816,19.7504456 4.34159572,18.608741 4.25501879,17.1679679 L4.25,17.0004456 L4.25,9.00044559 C4.25,7.53791375 5.3917046,6.34204131 6.83247767,6.25546438 L7,6.25044559 L12,6.25044559 L7,6.25044559 Z M19.0248144,4.24955441 L19.149882,4.26519623 L19.2606847,4.29718881 L19.3878709,4.35840003 C19.5683218,4.4661709 19.7054823,4.64823864 19.7409884,4.88033859 L19.75,5.00044559 L19.75,10.0004456 C19.75,10.4146591 19.4142136,10.7504456 19,10.7504456 C18.6203042,10.7504456 18.306509,10.4682917 18.2568466,10.1022161 L18.25,10.0004456 L18.25,6.81110576 L11.5303301,13.5307757 C11.2374369,13.8236689 10.7625631,13.8236689 10.4696699,13.5307757 C10.2034034,13.2645091 10.1791973,12.8478454 10.3970518,12.5542339 L10.4696699,12.4701155 L17.188,5.75044559 L14,5.75044559 C13.6203042,5.75044559 13.306509,5.4682917 13.2568466,5.10221614 L13.25,5.00044559 C13.25,4.62074982 13.5321539,4.30695462 13.8982294,4.2572922 L14,4.25044559 L19.0248144,4.24955441 Z"/>
</svg>
