<svg width="24" height="24" viewBox="0 0 24 24" xmlns="http://www.w3.org/2000/svg">
  <path d="M13.4139 21V14.6813H15.5055C15.6394 13.802 15.7714 12.9319 15.9071 12.0489H13.4139C13.4121 12.0107 13.4103 11.9834 13.4103 11.9561C13.4103 11.4154 13.4103 10.8748 13.4103 10.3341C13.4103 10.183 13.4284 10.0356 13.4664 9.88992C13.5894 9.42571 13.8861 9.13444 14.3475 9.01065C14.5429 8.95786 14.7419 8.94694 14.941 8.94512C15.2594 8.94512 15.576 8.94512 15.8945 8.94512C15.9288 8.94512 15.9614 8.94512 15.994 8.94512C16.0139 8.8814 16.0211 6.85344 16.003 6.71327C15.9506 6.70417 15.8981 6.6896 15.842 6.68414C15.5217 6.64591 15.1997 6.60586 14.8776 6.57674C14.6153 6.55307 14.3493 6.53851 14.087 6.53487C13.4664 6.52576 12.8639 6.61496 12.2993 6.88985C11.5593 7.25212 11.0744 7.83829 10.8067 8.61562C10.6836 8.97242 10.6167 9.34197 10.5986 9.72062C10.5913 9.8881 10.5877 10.0538 10.5877 10.2212C10.5877 10.7929 10.5877 11.3645 10.5877 11.9361V12.0489C10.3941 12.0526 10.2078 12.0489 10.0196 12.0508C9.82782 12.0508 9.63784 12.0508 9.44605 12.0508H8.31884C8.29894 12.1218 8.29532 14.5775 8.31522 14.6795H10.5823V20.9945C6.65065 20.4448 2.92164 16.8458 3.00125 11.8979C3.08086 6.85162 7.24049 2.87034 12.236 3.00323C17.2659 3.13794 21.1867 7.37772 20.9931 12.4003C20.9262 14.1224 20.416 15.7007 19.4552 17.1279C18.5379 18.4914 17.3347 19.5273 15.8565 20.2391C15.0821 20.6122 14.2697 20.8635 13.4139 20.9982V21Z"/>
</svg>
