<svg>
  <title>iconTitle</title>
  <desc>iconDesc</desc>
  <style></style>
  <path d="M3.99346182,21 C3.48382972,21 3.06404985,20.6163845 3.00668146,20.1223258 L3,20.006476 L3,3.99345411 C3,3.48389082 3.3834378,3.06405862 3.87758639,3.0066824 L3.99346182,3 L20.006608,3 C20.5160456,3 20.935932,3.38343482 20.9933166,3.87757958 L21,3.99345411 L21,20.006476 C21,20.5159745 20.6164418,20.9359225 20.1224437,20.9933156 L20.006608,21 L3.99346182,21 Z M19.5,4.5 L4.5,4.5 L4.5,19.5 L12.188,19.5 L12.1885792,14.1577733 L9.75,14.1577733 L9.75,11.4912361 L12.1885792,11.4912361 L12.1885792,9.52473777 C12.1885792,7.24267008 13.6647238,6 15.8208534,6 L16.4600446,6.00889231 C17.0019838,6.02371509 17.4626855,6.05435841 17.7518381,6.07979218 L18,6.10509838 L18,8.49007061 L16.5045414,8.49068763 C15.390673,8.49068763 15.130068,8.96550093 15.1067921,9.67489637 L15.1049995,9.78882059 L15.1049995,11.4912361 L17.901542,11.4912361 L17.5373343,14.1577733 L15.1049995,14.1577733 L15.104,19.5 L19.5,19.5 L19.5,4.5 Z"/>
</svg>
