<svg version="1.1" id="layer" xmlns="http://www.w3.org/2000/svg" x="0" y="0" viewBox="0 0 652 652" xml:space="preserve"><style>.st0{fill:#003a7d}</style><path class="st0" d="M623.5 257c-4.1.4-37.9 2.5-37.9 2.5s-1.2-.4-3.3 1.6c-1.6 2.1-103.9 117.5-103.9 117.5s-14 15.3-33.8 16.9h139.8l42-136c0-.1 1.2-3-2.9-2.5z"/><linearGradient id="SVGID_1_" gradientUnits="userSpaceOnUse" x1="-1280.738" y1="284.964" x2="-1266.342" y2="279.675" gradientTransform="matrix(1.0275 .0123 .0126 -.9999 1835.911 659.922)"><stop offset=".069" stop-color="#8b350b"/><stop offset=".151" stop-color="#913c0e"/><stop offset=".276" stop-color="#a34e14"/><stop offset=".296" stop-color="#a65215"/><stop offset=".456" stop-color="#b76519"/><stop offset=".889" stop-color="#e8a71f"/></linearGradient><path d="M523.3 362.1c-.8.4-1.6 1.2-2.1 2.1-.4 1.2.8 2.5 2.1 3.3 1.6.8 3.7 1.2 7.4 1.2 4.1 0 6.2-.8 6.2-.8s.8-2.5 1.6-4.1c.8-1.6 2.1-4.5 2.9-6.2-7.8.4-13.9 2-18.1 4.5z" fill="url(#SVGID_1_)"/><linearGradient id="SVGID_2_" gradientUnits="userSpaceOnUse" x1="-1267.908" y1="315.152" x2="-1224.476" y2="295.135" gradientTransform="matrix(1.0275 .0123 .0126 -.9999 1835.911 659.922)"><stop offset="0" stop-color="#e79000"/><stop offset=".024" stop-color="#e89400"/><stop offset=".059" stop-color="#eca022"/><stop offset=".07" stop-color="#eda42c"/><stop offset=".1" stop-color="#f0b24d"/><stop offset=".2" stop-color="#fbddaa"/><stop offset=".222" stop-color="#fadaa3"/><stop offset=".256" stop-color="#f9d48f"/><stop offset=".299" stop-color="#f7c96c"/><stop offset=".347" stop-color="#f4bb35"/><stop offset=".35" stop-color="#f4ba30"/><stop offset=".66" stop-color="#eea900"/><stop offset=".98" stop-color="#e78e00"/></linearGradient><path d="M598.8 314.7s-3.3 4.1-15.7 3.7c-8.2 0-12.4-2.5-22.3-2.9-11.1 0-19 3.7-21.4 8.7-1.2 2.5-7.4 16.5-7.4 16.5s3.3-3.7 9.1-5.4c7.8-2.5 15.3-2.1 22.7-.8 5.4.8 8.7 2.1 13.6 1.6 4.5 0 7-1.2 8.7-2.1 2.5-1.2 4.5-3.3 7.4-7.8 2.4-2.9 4.9-9.9 5.3-11.5zm-76.7 47.8c1.6-3.7 4.1-9.9 7.4-15.7.4-1.2 1.6-2.5 2.9-3.3 4.1-3.7 13.6-6.6 25.1-5.8 8.2.8 11.5 1.6 16.5 2.1 2.1 0 4.5.4 6.6 0 5.4-.8 7-2.1 7-2.1s-3.3 8.7-8.2 14c-5.8 6.6-11.5 7-22.7 6.2-16.1-1.6-27.2.4-33.4 4.5-.8.4-1.6 1.6-2.1 2.5.1.1.1-.8.9-2.4z" fill="url(#SVGID_2_)"/><path class="st0" d="M242.2 318.8h-16.9c0 .4 0 .4.4.8.8.4 1.6 1.2 2.5 2.1 1.2 1.2 1.2 1.6 1.2 3.7v31.7h10.3v-25.6l22.7 25.6h9.1v-38.3H257c0 .4 0 .8.4.8.8.4 1.6 1.2 2.5 2.1.8.8 1.2 1.2 1.2 3.3v14.8l-18.9-21zm190 38.3l-8.2-13.6h-9.5v13.6H403v-31.7c0-2.1-.4-2.5-.8-3.3-.8-1.2-1.6-1.6-2.5-2.1-.4-.4-.8-.4-.8-.8h29.7c8.7 0 14.8 4.1 14.8 12 0 6.2-2.9 9.5-8.2 11.5l9.1 14.4h-12.1zm-51.9 0v-31.7c0-2.1-.4-2.5-.8-3.3-.8-1.2-1.6-1.6-2.5-2.1-.4-.4-.4-.4-.4-.8h15.7v38.3h-12v-.4zm-18.2 0l-3.3-7.4h-19.4l-2.9 7.4h-10.7l14.8-32.6c0-.4.4-.8.4-1.6s-.8-1.6-2.5-2.9c-.4-.4-.4-.4-.4-1.2h19.4l17.7 38.3h-13.1zm-58.9 0H283v-31.7c0-2.1-.4-2.5-1.2-3.3-.8-1.2-1.6-1.6-2.5-2.1-.4-.8-.4-.8-.4-1.2h23.9c14 0 21.4 7.4 21.4 19 0 11.1-6.6 19.3-21 19.3zm-161.6 0v-31.7c0-2.1-.4-2.5-.8-3.3-.8-1.2-1.6-1.6-2.5-2.1-.4-.4-.4-.4-.4-.8h15.7v29.3h18.1v9.1h-30.1v-.5zm-44.9 0v-31.7c0-2.1-.4-2.5-.8-3.3-.8-1.2-1.6-1.6-2.5-2.1-.4-.4-.4-.4-.4-.8h40v7.8h-24.3v6.6h18.1v7.8h-18.1v7.4H133v8.2c-.1.1-36.3.1-36.3.1zm-23.5 1.3c-13.6 0-25.6-5.8-25.6-20.2 0-11.5 8.7-21 25.6-21 6.6 0 11.5 1.2 16.1 3.3l-2.9 9.1c-2.5-1.6-7-3.3-12.4-3.3-10.3 0-14.4 5.8-14.4 11.5 0 7.8 6.2 12 14.4 12 5.4 0 9.9-1.6 12.8-3.3l2.9 8.2c-3.8 1.6-9.5 3.7-16.5 3.7zm-42.9-1.3v-39.6c0-2.1-.4-2.5-.8-3.3-1.2-1.2-2.1-1.6-2.5-2.1-.4-.4-.4-.4-.4-.8h15.7v45.8h-12zM426 326.2h-11.5v9.5h12.4c3.7 0 5.8-1.6 5.8-4.9-.1-2.1-1.3-4.6-6.7-4.6zm-76.6 1.7l-6.6 14.4h12.8l-6.2-14.4zm-47.9-.9h-7v21.4h7c8.2 0 11.1-3.7 11.1-10.7.1-7.4-3.6-10.7-11.1-10.7zm-89.8 30.1l-3.3-7.4H189l-3.3 7.4H175l14.8-32.6c0-.4.4-.8.4-1.6s-.8-1.6-2.5-2.9c-.4-.4-.4-.4-.4-1.2h19.4l17.7 38.3h-12.7zm-12.8-29.2l-6.6 14.4h12.8l-6.2-14.4z"/><path fill="none" d="M198.5 327.5"/></svg>