<svg width="24" height="24" viewBox="0 0 24 24" xmlns="http://www.w3.org/2000/svg">
<path fill-rule="evenodd" clip-rule="evenodd" d="M15.0977 13.3213C16.6807 13.3215 18.0014 14.4293 18.3408 15.9102H20.2549C20.6689 15.9102 21.0046 16.2462 21.0049 16.6602C21.0047 17.0742 20.6689 17.4101 20.2549 17.4102H18.3418C18.0025 18.8914 16.6808 19.9998 15.0977 20C13.5143 20 12.1928 18.8915 11.8535 17.4102H3.75C3.3361 17.41 3.00023 17.074 3 16.6602C3.00024 16.2463 3.3361 15.9104 3.75 15.9102H11.8535C12.1929 14.4291 13.5144 13.3213 15.0977 13.3213ZM15.0977 14.8213C14.0905 14.8213 13.2688 15.6418 13.2686 16.6602C13.2688 17.6785 14.0905 18.5 15.0977 18.5C16.1045 18.4997 16.9265 17.6783 16.9268 16.6602C16.9265 15.642 16.1045 14.8216 15.0977 14.8213Z"/>
<path fill-rule="evenodd" clip-rule="evenodd" d="M9.93945 4C11.5226 4.0001 12.8442 5.1079 13.1836 6.58887H20.2549C20.6689 6.58889 21.0046 6.92487 21.0049 7.33887C21.0049 7.75307 20.6691 8.08885 20.2549 8.08887H13.1836C12.8444 9.57036 11.5229 10.6786 9.93945 10.6787C8.35599 10.6786 7.03437 9.5704 6.69531 8.08887H3.75C3.33596 8.08866 3 7.75296 3 7.33887C3.00024 6.92498 3.33611 6.58907 3.75 6.58887H6.69531C7.03464 5.10785 8.35625 4.00011 9.93945 4ZM9.93945 5.5C8.93246 5.50013 8.11062 6.32066 8.11035 7.33887C8.11035 8.35731 8.9323 9.17858 9.93945 9.17871C10.9466 9.17859 11.7686 8.35731 11.7686 7.33887C11.7683 6.32065 10.9465 5.50012 9.93945 5.5Z"/>
</svg>
