<svg>
  <path d="M9.75,12.7329424 L4.38196856,4.92489662 C4.03985053,4.4272704 4.39611542,3.75 5,3.75 L19,3.75 C19.6038846,3.75 19.9601495,4.4272704 19.6180314,4.92489662 L14.25,12.7329424 L14.25,18 C14.25,18.284079 14.0894982,18.5437764 13.8354102,18.6708204 L10.8354102,20.1708204 C10.3367344,20.4201583 9.75,20.0575365 9.75,19.5 L9.75,12.7329424 Z M17.5742271,5.25 L6.42577287,5.25 L11.1180314,12.0751034 C11.2039853,12.2001272 11.25,12.3482798 11.25,12.5 L11.25,18.2864745 L12.75,17.5364745 L12.75,12.5 C12.75,12.3482798 12.7960147,12.2001272 12.8819686,12.0751034 L17.5742271,5.25 Z"/>
</svg>
