<svg width="24" height="24" viewBox="0 0 24 24" fill="none" xmlns="http://www.w3.org/2000/svg">
<path d="M11.88 19.0029C12.2915 19.003 12.6252 19.3365 12.6252 19.748C12.6251 20.1595 12.2915 20.4931 11.88 20.4932H7.78531C7.37397 20.4929 7.04027 20.1594 7.04019 19.748C7.04019 19.3366 7.37392 19.0032 7.78531 19.0029H11.88ZM7.91519 6.89355C8.28675 6.78248 8.67688 6.97361 8.82242 7.32422L8.84879 7.39746L10.2453 12.0049L10.2804 12.0771C10.3263 12.1423 10.4026 12.1835 10.4855 12.1836H13.5392C14.217 12.1836 14.8345 12.5753 15.1232 13.1885L17.7814 18.8369L17.8205 18.8955C17.8671 18.9481 17.9346 18.9803 18.007 18.9805H19.9377L20.0138 18.9834C20.3922 19.0216 20.6876 19.3421 20.6877 19.7305C20.6874 20.1187 20.3921 20.4384 20.0138 20.4766L19.9377 20.4805H18.007C17.3718 20.4803 16.7896 20.136 16.4816 19.5879L16.424 19.4756L13.7658 13.8271C13.7245 13.7397 13.636 13.6836 13.5392 13.6836H10.4855C9.76085 13.6834 9.11603 13.2372 8.85562 12.5713L8.80875 12.4355L7.41129 7.82715L7.39371 7.75293C7.32211 7.37974 7.54332 7.00501 7.91519 6.89355ZM3.9025 6.91602C4.27491 6.80728 4.66462 7.00074 4.80777 7.35254L4.83316 7.4248L7.10269 15.0977C7.25861 15.6304 7.74786 15.997 8.30289 15.9971H11.8107L11.8878 16.001C12.2659 16.0395 12.5607 16.3588 12.5607 16.7471C12.5606 17.1352 12.2659 17.4547 11.8878 17.4932L11.8107 17.4971H8.30289C7.08176 17.497 6.00632 16.6915 5.66324 15.5195L3.39371 7.84668L3.37613 7.77148C3.3071 7.39801 3.53015 7.02514 3.9025 6.91602ZM7.31949 3.5C8.00984 3.5 8.56949 4.05155 8.56949 4.73145C8.56928 5.41117 8.00972 5.96191 7.31949 5.96191C6.62931 5.96186 6.0697 5.41114 6.06949 4.73145C6.06949 4.05158 6.62918 3.50005 7.31949 3.5Z" fill="#7E8894"/>
</svg>
