<svg>
<path d="M11.5187 11.2932V13.9693H9.91309V6.80945H14.5281V8.32422H11.5086V9.83899H14.1645V11.2932H11.5187Z"/>
<path fill-rule="evenodd" clip-rule="evenodd" d="M20.0833 10.0913C20.0833 12.9409 18.6088 15.4461 16.3811 16.8855V21.2451C16.3811 21.4815 16.2696 21.7041 16.0803 21.8457C15.8909 21.9873 15.6459 22.0313 15.4191 21.9645L12.0021 20.9572L8.58512 21.9645C8.35832 22.0313 8.11327 21.9873 7.92391 21.8457C7.73455 21.7041 7.62305 21.4815 7.62305 21.2451V16.888C5.39322 15.449 3.91699 12.9425 3.91699 10.0913C3.91699 5.62713 7.53595 2.00818 12.0002 2.00818C16.4644 2.00818 20.0833 5.62713 20.0833 10.0913ZM12.0002 16.6745C15.6359 16.6745 18.5833 13.7271 18.5833 10.0913C18.5833 6.45556 15.6359 3.50818 12.0002 3.50818C8.36437 3.50818 5.41699 6.45556 5.41699 10.0913C5.41699 13.7271 8.36437 16.6745 12.0002 16.6745ZM12.0002 18.1745C13.015 18.1745 13.9862 17.9875 14.8811 17.646V20.2421L12.2142 19.4559C12.0757 19.4151 11.9285 19.4151 11.79 19.4559L9.12305 20.2421V17.6475C10.0169 17.988 10.9867 18.1745 12.0002 18.1745Z"/>
</svg>
