<svg>
<path fill-rule="evenodd" clip-rule="evenodd" d="M19.5423 10.0913C19.5423 13.7271 16.5949 16.6745 12.9591 16.6745C9.32336 16.6745 6.37598 13.7271 6.37598 10.0913C6.37598 6.45556 9.32336 3.50818 12.9591 3.50818C16.5949 3.50818 19.5423 6.45556 19.5423 10.0913ZM15.8401 17.646C14.9452 17.9875 13.974 18.1745 12.9591 18.1745C11.9457 18.1745 10.9759 17.988 10.082 17.6475V20.2421L12.749 19.4559C12.8874 19.4151 13.0347 19.4151 13.1731 19.4559L15.8401 20.2421V17.646ZM17.3401 16.8855C19.5678 15.4461 21.0423 12.9409 21.0423 10.0913C21.0423 5.62713 17.4233 2.00818 12.9591 2.00818C8.49493 2.00818 4.87598 5.62713 4.87598 10.0913C4.87598 12.9425 6.3522 15.449 8.58203 16.888V21.2451C8.58203 21.4815 8.69353 21.7041 8.88289 21.8457C9.07226 21.9873 9.3173 22.0313 9.5441 21.9645L12.9611 20.9572L16.378 21.9645C16.6048 22.0313 16.8499 21.9873 17.0392 21.8457C17.2286 21.7041 17.3401 21.4815 17.3401 21.2451V16.8855Z" />
<path fill-rule="evenodd" clip-rule="evenodd" d="M13.7093 6.78931C13.7093 6.37509 13.3735 6.03931 12.9593 6.03931C12.5451 6.03931 12.2093 6.37509 12.2093 6.78931V10.4529C12.203 10.6724 12.293 10.8912 12.4688 11.0427C12.4881 11.0595 12.5084 11.0753 12.5294 11.09L14.7158 12.6793C15.0508 12.9229 15.5199 12.8487 15.7634 12.5136C16.007 12.1786 15.9328 11.7095 15.5978 11.466L13.7093 10.0933V6.78931Z" />
</svg>
