<svg>
    <path d="M8.87223747,7.32421222 L9.18183741,8.36941757 C9.18686877,8.38640339 9.19181394,8.40341462 9.19667271,8.42045061 L9.82590585,10.6266868 C10.0602481,11.4091769 10.2876867,11.866948 10.5082216,12 C10.661633,12.0295146 10.9372672,12.0461165 11.3351241,12.0498058 L11.5131173,12.0505964 L13.3203298,12.0505964 C13.3920625,12.0461807 13.4637876,12.0476529 13.5354598,12.0505964 C14.2572644,12.0802398 14.7395804,12.2525524 14.9824078,12.5675342 C15.1694847,12.8101996 15.4502059,13.4136776 15.8245714,14.3779682 C15.8580247,14.4641615 15.8937622,14.5494506 15.9317383,14.633749 L17.414833,17.9258946 C17.4721848,18.0640028 17.5393815,18.1976009 17.6121944,18.3281448 C17.8296326,18.7179827 18.004502,18.9428165 18.1368026,19.0026461 C18.2595676,19.0581635 18.8002317,19.0686737 19.758795,19.0341765 C20.1529883,19.0199594 20.4840464,19.3280168 20.4982329,19.7222113 L20.4986949,19.7478981 L20.4986949,19.7478981 C20.4986949,20.1594893 20.1650343,20.49315 19.753443,20.49315 L17.8528971,20.49315 C17.7826265,20.4931552 17.7123629,20.4945692 17.6421491,20.4973963 C17.1823443,20.5159101 16.8830156,20.4356912 16.744163,20.2567395 C16.7006565,20.2006687 16.626099,20.0689684 16.5204905,19.8616384 L16.4045317,19.6290986 C16.3203257,19.4572654 16.2223192,19.2518191 16.1105122,19.0127597 L16.0827284,18.9523605 L16.0827284,18.9523605 L14.5134063,15.4828469 C14.4550941,15.3539165 14.4020256,15.222678 14.3543358,15.0894524 C14.0231134,14.1641541 13.7501547,13.6501387 13.5354598,13.5474062 L11.576824,13.5474124 C11.537827,13.5474124 11.4988313,13.5478479 11.459844,13.5487187 C10.0232677,13.5808078 9.22330918,13.3285196 9.05996843,12.7918543 C8.62234392,11.9469326 8.23949565,10.941958 7.9114236,9.77693037 L7.79096422,9.33254254 L7.36097813,7.66288831 C7.25954842,7.26903245 7.49660666,6.86752417 7.89046252,6.76609447 C7.89818439,6.76410585 7.90593805,6.76224279 7.91372044,6.76050601 C8.33173344,6.66721899 8.75059632,6.91355327 8.87223747,7.32421222 Z M11.8800892,19.0026461 C12.2916805,19.0026461 12.6253411,19.3363068 12.6253411,19.7478981 C12.6253411,20.1594893 12.2916805,20.49315 11.8800892,20.49315 L7.78598816,20.49315 C7.37439688,20.49315 7.04073623,20.1594893 7.04073623,19.7478981 C7.04073623,19.3363068 7.37439688,19.0026461 7.78598816,19.0026461 L11.8800892,19.0026461 Z M4.9863868,7.59494998 L6.41151017,13.0155029 C6.42554261,13.0688617 6.44083124,13.1218823 6.45736682,13.1745192 C6.74940131,14.1041389 7.05064621,14.810031 7.36110151,15.2921954 C7.68513565,15.795449 8.31642376,16.0427239 9.25496585,16.0340203 C9.3632972,16.0386761 9.47147141,16.0326557 9.579193,16.0216384 L11.8859808,16.0305532 C12.2947796,16.032133 12.6253411,16.3639745 12.6253411,16.7727764 C12.6253411,17.1811169 12.2943158,17.5121423 11.8859753,17.5121423 L9.72938504,17.5121423 C9.63861472,17.5121498 9.54787876,17.5156809 9.45738297,17.5227351 C8.0004299,17.6363058 6.92658942,17.2420115 6.23586155,16.3398521 C5.75194127,15.7078041 5.33738789,14.8209347 4.99220142,13.6792441 C4.97707041,13.6291668 4.9630551,13.5787591 4.95017494,13.5280563 L3.5190046,7.89424507 C3.42233783,7.51371568 3.65245394,7.12687176 4.03298333,7.03020498 C4.04395745,7.0274172 4.05499661,7.02489199 4.06609136,7.02263154 C4.47610172,6.93909552 4.87999165,7.19026884 4.9863868,7.59494998 Z M7.31981175,3.5 C8.01016769,3.5 8.56981175,4.05116564 8.56981175,4.73106292 C8.56981175,5.41096019 8.01016769,5.96212583 7.31981175,5.96212583 C6.62945581,5.96212583 6.06981175,5.41096019 6.06981175,4.73106292 C6.06981175,4.05116564 6.62945581,3.5 7.31981175,3.5 Z"></path>
 </svg>