<svg width="25" height="25" viewBox="0 0 25 25" fill="none" xmlns="http://www.w3.org/2000/svg">
<path d="M20.7545 17.5098C21.1661 17.5098 21.4996 17.8433 21.4996 18.2549C21.4996 18.6664 21.1661 19 20.7545 19H16.2457C15.8342 19 15.4997 18.6664 15.4996 18.2549C15.4996 17.8433 15.8341 17.5098 16.2457 17.5098H20.7545ZM8.75452 17.5C9.16611 17.5 9.49963 17.8335 9.49963 18.2451C9.4996 18.6567 9.16609 18.9902 8.75452 18.9902H4.24573C3.83416 18.9902 3.49967 18.6567 3.49963 18.2451C3.49963 17.8335 3.83414 17.5 4.24573 17.5H8.75452ZM6.39026 13.2256C6.76332 13.2257 7.12694 13.3465 7.42542 13.5703L8.89124 14.6699C8.93865 14.7055 8.99702 14.7254 9.05627 14.7256H21.2242C21.6246 14.7256 21.9489 15.0498 21.9489 15.4502C21.9487 15.8505 21.6246 16.1748 21.2242 16.1748H9.05627C8.68329 16.1747 8.31952 16.0539 8.02112 15.8301L6.5553 14.7305C6.50781 14.6949 6.44958 14.6749 6.39026 14.6748H4.22424C3.82408 14.6746 3.49974 14.3504 3.49963 13.9502C3.49963 13.5499 3.82402 13.2258 4.22424 13.2256H6.39026ZM11.9996 7.5C14.0624 7.50001 16.0791 8.11085 17.7955 9.25488L18.1637 9.5H20.2242C21.3012 9.5 22.1744 10.3732 22.1744 11.4502C22.1742 12.5269 21.301 13.3994 20.2242 13.3994H9.72424C8.37149 13.3992 7.27431 12.3029 7.27405 10.9502V9.9502C7.27405 8.59723 8.37132 7.50021 9.72424 7.5H11.9996ZM9.72424 8.9502C9.17214 8.95041 8.72424 9.39804 8.72424 9.9502V10.9502L8.72913 11.0518C8.77679 11.5223 9.15131 11.8962 9.6217 11.9443L9.72424 11.9502H20.2242C20.4658 11.9502 20.6677 11.7785 20.7145 11.5508L20.7242 11.4502C20.7242 11.2085 20.5528 11.0065 20.3248 10.96L20.2242 10.9502H18.027C17.8297 10.9501 17.6364 10.8916 17.4723 10.7822L16.9918 10.4609C15.6061 9.53729 13.9925 9.0175 12.3326 8.95605L11.9996 8.9502H9.72424ZM4.97424 9.4502C5.66446 9.4502 6.22402 10.001 6.22424 10.6807C6.22424 11.3606 5.6646 11.9121 4.97424 11.9121C4.28407 11.9119 3.72424 11.3604 3.72424 10.6807C3.72446 10.0011 4.2842 9.4504 4.97424 9.4502Z" fill="#222222"/>
</svg>
