<svg width="24" height="24" viewBox="0 0 24 24" xmlns="http://www.w3.org/2000/svg">
<path fill-rule="evenodd" clip-rule="evenodd" d="M16.3811 16.8855C18.6088 15.4461 20.0833 12.9409 20.0833 10.0913C20.0833 5.62713 16.4644 2.00818 12.0002 2.00818C7.53595 2.00818 3.91699 5.62713 3.91699 10.0913C3.91699 12.9425 5.39322 15.449 7.62305 16.888V21.2451C7.62305 21.4815 7.73455 21.7041 7.92391 21.8457C8.11327 21.9873 8.35832 22.0313 8.58512 21.9645L12.0021 20.9572L15.4191 21.9645C15.6459 22.0313 15.8909 21.9873 16.0803 21.8457C16.2696 21.7041 16.3811 21.4815 16.3811 21.2451V16.8855ZM18.5833 10.0913C18.5833 13.7271 15.6359 16.6745 12.0002 16.6745C8.36437 16.6745 5.41699 13.7271 5.41699 10.0913C5.41699 6.45556 8.36437 3.50818 12.0002 3.50818C15.6359 3.50818 18.5833 6.45556 18.5833 10.0913ZM14.8811 17.646C13.9862 17.9875 13.015 18.1745 12.0002 18.1745C10.9867 18.1745 10.0169 17.988 9.12305 17.6475V20.2421L11.79 19.4559C11.9285 19.4151 12.0757 19.4151 12.2142 19.4559L14.8811 20.2421V17.646Z"/>
<path fill-rule="evenodd" clip-rule="evenodd" d="M18.5833 10.0913C18.5833 13.7271 15.6359 16.6745 12.0002 16.6745C8.36437 16.6745 5.41699 13.7271 5.41699 10.0913C5.41699 6.45556 8.36437 3.50818 12.0002 3.50818C15.6359 3.50818 18.5833 6.45556 18.5833 10.0913ZM12.0003 6.03931C12.4145 6.03931 12.7503 6.37509 12.7503 6.78931V10.0933L14.6388 11.466C14.9738 11.7095 15.048 12.1786 14.8044 12.5136C14.5609 12.8487 14.0919 12.9229 13.7568 12.6793L11.5704 11.09C11.5494 11.0753 11.5292 11.0595 11.5098 11.0427C11.334 10.8912 11.244 10.6724 11.2503 10.4529V6.78931C11.2503 6.37509 11.5861 6.03931 12.0003 6.03931Z"/>
</svg>
