<svg xmlns="http://www.w3.org/2000/svg" height="800" width="1200" viewBox="-44.974 -12.165 389.771 72.988"><g fill="#2c1e16"><path d="M25.28 25.145c.106-.16.203-.325.31-.484a5.206 5.206 0 01.204-.288c.07-.093.173-.183.212-.293.012-.027.008-.025-.013-.052-.035-.05-.048-.1-.078-.148a1.43 1.43 0 00-.128-.193c-.142-.196-.468-.73-.738-1.13-.267-.397-.646-1.013-.942-1.412 0 0-.114.187-.335.56-.218.374-.559.884-.762 1.169-.152.225-.392.539-.811 1.094.182.27.523.97.819 1.396.291.425.77 1.094 1.09 1.539.159-.196.267-.324.354-.469.092-.14.249-.323.323-.466.08-.144.2-.328.422-.718.02-.038.048-.071.073-.105m-1.106 8.596c.09-.205.2-.815.275-1.18.073-.367.097-.83.148-1.223.055-.391-.016-1.053-.06-1.346a3.976 3.976 0 00-.232-.837c-.095-.234-.202-.448-.36-.601-.061.157-.078.255-.12.382-.053.15-.069.28-.13.438-.058.154-.162.524-.2.608-.063.128-.07.248-.132.486-.059.237-.09.65-.1.76-.01.112.11.856.143 1.135.04.284.176.892.258 1.133.08.24.251.61.302.75.12-.117.12-.303.208-.505m-3.35-2.037c.097-.126.395-.526.664-.812.27-.285.386-.597.483-.887.1-.294.226-.83.25-1.115.027-.293-.016-.42-.024-.52-.019-.187-.043-.234-.121-.15-.05.044-.284.315-.469.53-.183.213-.48.641-.583.889-.108.25-.282.671-.34.973-.063.299-.125.748-.14.878-.014.13 0 .328.017.47.091-.036.17-.131.263-.256m-1.905-2.076c.222-.146.516-.293.91-.707.394-.412.54-.667.76-1.04.217-.374.265-.578.388-.79.12-.215.13-.26.03-.243-.144.03-.17.03-.542.25-.367.22-.782.68-.955.845-.177.165-.582.79-.688.991-.101.195-.38.78-.477.91-.1.133.019.1.197-.002.107-.072.148-.069.377-.214m-1.433-2.253c-.402.096-.956.068-1.268.057.1-.138.472-.412.774-.64.306-.228.756-.38.91-.456.156-.079.398-.198.582-.236.184-.045.2-.077.362-.108.19-.036.333-.021.608-.072.152-.03.228-.02.409.03.059.015.084.046.037.098-.033.038-.088.068-.131.097l-.095.072c-.068.047-.121.103-.194.147-.067.042-.135.082-.2.124-.18.121-.358.242-.532.371-.406.3-.865.418-1.262.516m2.283-3.474c-.135-.103-.488-.177-.707-.221-.24-.052-.592-.134-.84-.13-.244.004-.592-.014-.887-.035a3.72 3.72 0 00-1.08.12c-.365.099-.775.212-1.026.314-.173.067-.355.121-.599.235-.13.063-.292.062-.476.167-.186.104-.171.135-.116.145.052.01.263.093.411.105.205.014.653.132 1.158.17a12.8 12.8 0 001.465.02 5.05 5.05 0 001.625-.296c.223-.12.31-.088.545-.171.24-.084.369-.146.756-.256-.115-.083-.095-.066-.23-.167m4.477-5.535a1.28 1.28 0 00.102-.444c.02-.22.08-.468.098-.687.016-.215.08-.635.083-.835.003-.313.008-.413.002-.61-.009-.23-.03-1.007-.151-1.487-.116-.48-.128-.738-.433-1.175-.29.314-.357.917-.4 1.214-.043.298-.083.795-.096 1.299-.023.697.046 1.532.128 1.86.08.334.241 1.007.317 1.129.124.19.124.15.251-.055 0 0 .044-.075.099-.21m1.32.951a.766.766 0 01-.05-.278c-.005-.136-.031-.135.032-.365.066-.23.181-.775.265-1.02.083-.25.293-.713.496-.903.203-.189.623-.75.95-1.013 0 0-.148 1.015-.277 1.406-.118.37-.24.707-.445 1.17-.212.463-.577.83-.821 1.033-.087.03-.122.017-.15-.03m1.852 1.185c.254-.106.62-.397.94-.652.318-.259.412-.388.606-.629.192-.24.348-.642.44-.814.096-.177.241-.351.033-.26-.214.088-.22.121-.534.263-.316.136-.262.11-.851.608-.593.496-.948 1.159-1.063 1.585 0 0 .178.006.43-.101m1.548 1.306c.248-.073.664-.372 1.077-.68.41-.305.624-.616.955-1.059-.13.011-.347.038-.622.105-.274.065-.43.138-.665.252-.233.113-.347.223-.65.347-.259.115-.487.284-.707.456-.097.08-.193.145-.264.25-.065.1-.115.24-.165.349a.663.663 0 00-.069.208c-.012.102.089.07.16.057.102-.015.201-.052.298-.08.16-.047.411-.13.652-.205m5.169 2.025c-.06-.062-.163-.148-.423-.24-.266-.093-.743-.204-1.013-.275a4.4 4.4 0 00-.866-.135c-.315-.028-.49-.032-.914-.056a3.532 3.532 0 00-1.01.124c-.365.097-1.38.478-1.62.552-.245.076-.07.19-.007.26.06.074.333.16.443.181.11.02.277.079.507.118.23.04.837.106 1.556.104.718-.01 1.209-.027 1.801-.084.593-.057 1.245-.261 1.68-.412 0 0-.068-.08-.134-.137m-1.985 3.01c-.136-.1-.556-.31-.837-.434-.28-.122-.7-.359-1.088-.499-.388-.143-.769-.12-.993-.124-.22-.004-.435-.028-.681.032 0 0 .024.121.204.262.18.144.781.426 1.07.557.282.132.749.284 1.202.368.448.08.923.084 1.328.06 0 0-.071-.117-.205-.222m-2.221 2.853c-.19-.295-.385-.619-.795-1.047a6.21 6.21 0 00-1.082-.91c-.24-.157-.442-.235-.632-.377-.192-.14-.15-.01.081.383.232.39.598 1.039.731 1.21.134.167.394.346.659.503.27.158.568.317.7.429.132.11.401.241.543.297-.024-.14-.064-.26-.205-.488m-2.684 1.021c-.059-.476-.296-.937-.473-1.132-.18-.193-.09-.123-.306-.411-.218-.288-.474-.633-.715-.866-.143-.14-.166-.194-.16-.043 0 0 .003.294.014.391.031.29.085.74.386 1.51.308.769.804 1.449 1.28 1.99.116-.354.024-.96-.026-1.439m-7.116-8.692c-.186-.112-.567-.38-.989-.714-.417-.335-.693-.347-.983-.444-.289-.094-1.03-.222-1.1-.25-.082-.03-.072-.037-.23-.065-.1-.011-.13-.026-.314.003 0 0 .063.11.103.155.044.048.166.223.31.33.234.185.524.33.832.55.313.224.718.35 1.21.492.491.138.958.163 1.315.195.295-.01.032-.139-.154-.252m1.041-1.246c-.018-.098-.101-.337-.267-.686a3.317 3.317 0 00-.592-.845c-.207-.214-.286-.301-.354-.377a2.211 2.211 0 00-.348-.282c-.095-.062-.328-.27-.578-.374-.259-.109-.351-.181-.71-.32-.355-.136-.278-.007-.213.121.07.13.255.514.448.871.2.353.292.45.483.653.187.212.475.42.713.597.235.175.502.305.688.404.185.101.514.309.75.415 0 0-.015-.148-.02-.177m.889-1.665c-.014-.22-.062-.448-.096-.638-.028-.161-.082-.276-.147-.484-.054-.175-.176-.323-.247-.493-.07-.166-.3-.583-.536-.894-.232-.308-.393-.554-.662-.824 0 0-.023.057.006.219.031.158.103.533.208.885.106.344.253.766.455 1.204a6.33 6.33 0 001.008 1.468s.027-.223.01-.443m66.495-16.03L58.04 3.13l.064 43.208 4.155-2.059-.057-36.995 24.31-.04c0-.003 2.042-4.162 2.042-4.162"/><path d="M88.57 13.15l-2.073-4.158-22.546.04.06 35.245 4.155 2.05-.015-15.575 16.659-.027-2.073-4.155-14.595.023-.007-1.753 14.609-.023 2.051-4.158-16.668.027-.011-7.503 20.454-.034zm7.135-10.468l.072 43.59 4.161-2.052-.064-39.493-4.17-2.045zm10.071-.015l.066 43.591-4.154-2.042-.064-39.49 4.152-2.059zm42.617-.07l.07 43.593 4.155-2.054-.061-39.492-4.164-2.047zm10.067-.015l.07 43.596-4.16-2.045-.064-39.49 4.154-2.061zm-24.458 28.194l-.044-26.1-4.16-2.047.04 27.394c.007 4.022-.954 6.627-5.269 6.632-2.87.007-4.784-1.442-6.719-3.64l-1.565 4.29c1.984 1.666 4.02 3.518 8.827 3.512 4.803-.008 8.901-3.46 8.89-10.041"/><path d="M139.91 30.72l-.044-28.11-4.16 2.061.047 26.503c.01 7.386-5.236 11.385-10.756 11.394-5.524.01-8.359-2.535-9.917-3.976l-4.292 1.596c3.125 3.189 7.05 6.54 14.093 6.526 7.049-.011 15.046-4.665 15.03-15.993M9.647 39.743c-.086 0-3.325.266-3.814.44.215.314 1.093 1.302 1.561 1.738.464.436 1.824 1.715 2.3 2.097.064.037.048.005.105-.205.05-.212-.017-4.074-.152-4.07m4.407-3.005c-.202-.16-1.087-1.19-1.238-1.353-.148-.16-1.16-1.308-1.209-1.363-.05-.054-.14-.237-.219-.346 0 0 .15 3.445.197 3.529.046.081 2.187.112 2.892-.06 0 0-.215-.25-.424-.407m-.473 9.249s.63.343.749.486c.12.142.603.276.777.442 0 0 .073-.111.158-.273.068-.126.114-.26.204-.417.067-.12.139-.168.222-.397.082-.223.33-.75.414-.933.084-.186 1.85-3.637 1.99-3.915.141-.278.707-1.304.865-1.534l-.152-.104c-.088-.057-.512-.297-.638-.377-.127-.08-.055.017-.235-.147 0 0-1.51 2.636-1.593 2.796-.079.16-.292.534-.382.721-.096.187-.248.528-.3.616-.048.085-1.632 2.413-1.716 2.54-.123.187-.19.241-.363.496m-1.624-.786c.112-.065.222-.155.395-.357.175-.203 3.846-6.173 3.947-6.285.097-.11 0-.22-.111-.183-.112.043-4.7.575-4.874.702.042.126.003.425.046.658.033.229.368 4.681.431 4.886.104.314.01.306.166.579m-1.723-12.992s-5.325 6.134-5.4 6.33c.057-.025-.075.16.128.066.206-.1 4.523-1.15 4.617-1.203.06-.063.627-4.657.655-5.193m-6.342 3.986c.15-.208 2.702-2.688 2.971-3.013.267-.325 1.662-1.65 2.69-2.923-.059-.202-.229-.693-.321-.986-.088-.279-.144-.447-.213-.732 0 0-.11.165-.157.244-.045.07-.212.237-.536.642-.326.405-1.932 2.011-2.485 2.655-.552.643-2.811 2.835-3.228 3.27 0 0 .04.17.115.315.073.146.299.492.508.946 0 0 .081.155.18.096 0 0 .324-.307.476-.514m-1.96-3.28c.198-.117 1.062-1.04 1.226-1.198 0 0 2.497-2.471 3.15-3.063.658-.591 1.467-1.581 2.173-2.28 0 0-.04-1.166-.006-1.433.035-.268.006-.68.016-.992.006-.315-.005-.328-.067-.391 0 0-.16-.087-.356-.178-.193-.092-2.396-1.28-2.575-1.358-.17-.076-.701-.26-1.014-.42-.312-.16-3.613-2.03-3.973-2.136 0 .119-.072.527-.103.812-.029.28-.132.63-.142.901.068.028.669.308.977.47.315.16 2.663 1.413 3.219 1.661.556.255 2.844 1.396 3.235 1.634-.118.051-.556.455-.783.616-.228.166-1.505 1.562-1.921 1.964-.414.4-1.04.972-1.314 1.267-.272.3-2.111 2.028-2.27 2.125-.157.098-.323.258-.418.298.02.11.07.509.108.71.047.203.094.561.136.685.039.121.079.39.206.624.118-.094.282-.2.496-.319"/><path d="M.759 24.03c-.268-.1-.365-.139-.746-.243 0 0 .015.039-.01.31-.021.27.07 1.605.102 1.996.033.39.154 1.3.318 2.218 0 0 .208-.068.45-.243.241-.17 1.29-1.009 1.738-1.364.45-.358 1.307-1.089 1.512-1.24.189-.145.281-.213.281-.213-.088-.02-.977-.225-1.141-.29-.177-.07-.34-.09-.577-.214-.231-.12-.71-.278-.914-.38-.146-.073-.665-.207-1.013-.336m8.115-3.2c-.009-.068.043-.285.06-.471.017-.183.04-.404.158-.704 0 0-.104-.05-.236-.093-.108-.035-2.418-.98-3.083-1.271-.669-.294-3.376-1.543-3.63-1.692-.252-.148-.524-.237-.729-.355 0 0-.17.304-.23.433-.057.126-.185.684-.2.963 0 0 .754.225.807.252.05.026 6.234 2.747 7.065 3.084 0 0 .024-.073.018-.146m.595-3.589c-.12-.092-6.177-3.277-6.317-3.37-.141-.093-.401-.164-.576-.287 0 0 .33-.18.509-.248.09-.03.286-.095.563-.154.279-.063 4.652-1.07 4.808-1.092.073-.011.134.17.15.22.013.055.657 1.998.762 2.416.106.417.634 2.392.62 2.465-.012.074.033.164-.03.239 0 0-.366-.092-.489-.189m-4.078-6.823C5.6 10.348 9.11 9.691 9.3 9.64c-.014-.108-.165-.889-.2-1.136-.033-.242-.297-2.054-.367-2.271-.059-.162-.062-.213-.136-.255 0 0-.107 0-.171.028 0 0-.102.076-.295.246-.19.169-.867.817-1.295 1.224-.425.405-1.226 1.442-1.477 1.776-.255.331-.698 1.04-.914 1.399 0 0 .114-.033.24-.09.152-.073.576-.094.706-.142m7.74 2.595c.777-.736 1.44-1.223 1.975-1.53-.073-.078-.26-.099-.367-.133-.108-.029-3.493-.365-3.701-.387-.204-.023-.25.01-.404.011 0 0 .253 1.251.272 1.516.016.263.24 2.142.322 2.56.124-.156 1.121-1.307 1.903-2.037m3.47-3.2c-.174-.148-6.044-4.64-6.161-4.77-.227-.247-.246-.203-.2.157.042.323.205 1.021.292 1.445.085.42.347 1.658.455 2.445 0 0 .423.057.651.108.231.051 4.771.854 5.151.85.086 0-.005-.084-.188-.235m3.336-1.018c-.03-.03-.476-.473-.714-.697-.244-.22-1.023-1.003-1.425-1.366a1042.589 1042.589 0 00-2.136-1.878c-.342-.3-2.04-1.942-2.144-2.082 0 0-.051.001-.214.153-.162.147-.875.64-.952.685-.074.044-.086.072.024.153.11.082 5.44 4.79 5.663 4.965.219.173.648.484.678.51.058.047.053 0 .179-.036.124-.035.785-.199 1.128-.274 0 0-.055-.101-.087-.133m-2.84-6.234c.152.192 3.055 3.018 3.327 3.284.274.264 2.168 2.187 2.286 2.274.113.088.199.203.24.234 0 0 2.636-.104 2.97-.033.05-.133.238-.45.36-.668.125-.218 1.22-3.505 1.492-4.16.268-.66.828-2.011.942-2.298.116-.288.155-.476.272-.625 0 0-.083-.073-.193-.096C28.68.446 28.267.4 28.11.351c-.145-.036-.324-.05-.538-.093 0 0-.344.658-.41.831-.07.176-.933 2.169-1.061 2.391-.13.224-1.437 4.128-1.635 4.42 0 0-.943-1.113-1.25-1.425-.31-.315-3.23-3.141-3.746-3.658-.519-.52-1.12-1.083-1.606-1.712 0 0-.112.038-.44.132-.327.098-.829.31-1.05.385-.219.076-.123.154-.02.272.233.255.623.521.743.668"/><path d="M25.362 0s-.235.009-.49.015a13.105 13.105 0 00-.99.026c-.408.028-1.226.05-1.931.12-.52.052-.853.08-1.552.283 0 0 .41.466.566.63.162.163.803.95 1.359 1.588.561.64 1.21 1.355 1.499 1.739 0 0 1.317-3.554 1.539-4.401m3.072 8.968c.236.059.696.212.872.266.148.045.122-.02.216-.223.05-.107.178-.332.38-.62.204-.283 1.49-2.148 1.757-2.448.268-.3.532-.768.762-1.064.227-.293 1.074-1.291 1.21-1.552.063-.117.2-.317.584-.872 0 0-.1-.07-.212-.138-.114-.07-.41-.322-.698-.427-.288-.106-.826-.408-1.185-.387 0 0-.297.58-.435.81-.134.225-.884 1.383-1.066 1.665-.185.283-2.309 3.835-2.428 4.04-.123.203-.342.528-.489.77 0 0 .502.122.732.18m3.573 1.024c.188-.05 3.155-1.306 3.408-1.383.255-.077.37-.171.568-.322.063-.125.159-.28.156-.567 0-.289.21-3.406.225-3.731.02-.355.102-.597-.049-.426-.144.17-1.01 1.319-1.27 1.65-.27.33-1.435 1.916-1.783 2.403-.348.485-1.234 1.89-1.56 2.427 0 0 .118 0 .305-.05m4.091 3.778c-.003-.13.06-2.584.075-2.905.019-.322.044-.26-.128-.226a1.99 1.99 0 00-.367.124c-.131.053-1.411.309-1.66.37-.242.057-.721.088-1.032.238.077.019.462.366.735.598.272.233.904.755 1.262 1.078.36.321.825.77 1.08.995.078.07.042-.147.035-.272m3.42-.535c.358-.441 1.894-2.332 2.137-2.498.245-.166.579-.506.757-.642.18-.14.286-.232.201-.213-.083.02-.232.062-.447.098-.218.039-2.432.498-2.779.552-.342.057-.83.104-1.347.263.007.126-.095 1.294-.096 1.586-.005.295-.068 1.174-.068 1.324.001.15-.05.643-.059.811-.01.169-.031.515-.015.84-.005.057.037.028.158-.125.095-.167 1.199-1.554 1.558-1.996m-.132 5.789c.075-.087.184-.22.307-.343.127-.122 3.782-4.149 3.962-4.314.184-.164.306-.35.35-.418.03-.04.273-.3.412-.403.139-.1-.034.043.764-.618a4.324 4.324 0 01-.25-.425c-.053-.108-.227-.307-.403-.588a2.702 2.702 0 00-.424-.552s-.168.126-.3.237c-.14.109-1.045 1.204-1.197 1.366-.148.163-.337.513-.47.673-.128.16-1.23 1.281-1.495 1.522-.265.244-1.714 1.872-1.837 1.982-.121.106-.133.174-.296.319.063.086.091.429.136.622.04.197.194 1 .285 1.31.124-.1.376-.286.456-.37m2.234-10.86c-.146-.18-.295-.405-.479-.617-.187-.219-1.61-1.803-1.779-2.023-.172-.221-.56-.526-.69-.677-.133-.146-.114-.095-.179-.174-.044-.05-.096-.13-.138-.095-.057.048-.04.136-.056.254-.03.238-.023.333-.083.611-.049.226-.22 2.786-.228 2.99-.01.207-.042.663-.042.663s3.298-.443 3.423-.471c.177-.042.205-.041.5-.083 0 0-.112-.195-.25-.378m-.6 13.804c.134-.11 3.343-2.59 3.543-2.754.204-.169.705-.508 1.135-.863.43-.354.826-.637 1.464-1.033 0 0-.011-.315-.106-.656-.092-.339-.538-1.456-.538-1.456-.002 0-.263.238-.398.349-.133.11-4.918 4.293-5.304 4.616-.385.318-1.01.9-1.14 1.01-.137.111-.21.15-.19.312.016.11.018.472.046.71.026.236.092.689.05.933-.037.246-.047.794-.1 1.102.201.053 2.545.956 2.955 1.11.408.156 1.228.467 1.683.634.46.164 1.478.543 1.837.696.362.147 1.128.475 1.55.622.051-.167.07-.5.074-.891 0-.388-.026-.629-.048-.932 0 0-.181-.105-.391-.194a45.409 45.409 0 00-1.883-.704c-.495-.156-4.526-1.634-4.697-1.725-.168-.094-.107-.152-.013-.29.082-.121.282-.447.47-.596"/><path d="M47.763 22.78c.012-.209.011-.53.01-.81 0-.545-.087-1.49-.11-1.931a8.672 8.672 0 01-.008-.62c.004-.23-.134-.048-.276.071-.148.12-3.086 2.399-3.173 2.493-.094.093-.342.202-.291.235.053.035.146.033.308.087.2.064 2.182.74 2.478.857.296.112.79.244 1.03.372.013-.178.024-.548.032-.754m-1.055 7.518c-.133-.063-.41-.172-.65-.33-.24-.157-.594-.357-.865-.563-.276-.204-1.303-.692-1.72-.921-.42-.226-2.727-1.443-3.027-1.602-.294-.155-.834-.413-1.257-.636 0 0 .007.31 0 .5-.007.193.001.802.005.97.003.17.005.269.1.343.095.076 4.011 2.31 4.301 2.46.289.147 2.45 1.396 2.568 1.454.17-.137.221-.317.341-.502.083-.127.21-.338.288-.51.074-.171.184-.354.256-.485 0 0-.192-.105-.34-.178m-2.64 3.933c-.205-.194-3.235-2.323-3.786-2.758-.55-.433-1.68-1.24-1.75-1.309-.095-.09-.157-.134-.171.002-.016.142-.043.319 0 .62.04.3.122 1.198.17 1.524a24.8 24.8 0 01.124 1.498c.024.414.095 1.007.112 1.484 0 0 .38-.031.655-.042.275-.015 4.823-.47 5.169-.623 0 0-.314-.201-.523-.396m-7.262-.648a53.129 53.129 0 01-.04-.637c-.21.186-.3.313-.465.52-.162.207-.712.944-1.004 1.253-.29.306-.785.78-.984.923-.196.142-.941.675-1.048.746-.105.072-.064.127.055.15.124.022 2.755-.196 3.571-.3.072-.266-.066-2.446-.085-2.655m4.64 6.965c.33-.377 1.506-1.781 1.55-1.857.046-.077.9-1.38.911-1.464.017-.082.061-.084.043-.187-.27.08-4.955.58-5.601.628.021.158.126 4.982.193 5.178l.024.078.087-.027c.147-.169 2.466-1.97 2.793-2.35m-5.3-2.203s-.595.046-.865.007c-.267-.036-4.006-.028-4.394.005 0 0 .184.182.376.43.192.252 5.06 4.915 5.185 5.085.118.174.342.167.43.15.093-.169-.085-.697-.11-.88-.064-.388-.481-4.498-.622-4.797m-1.938 7.4c.28-.088.398-.183.483-.262-.075-.103-.22-.27-.584-.682-.363-.411-3.826-4.157-4.315-4.664-.489-.511-.646-.682-1.035-1.086 0 0-.195.08-.425.133-.236.056-.513.124-.65.168-.142.042-.207.032-.092.11.11.077 3.18 3.595 3.599 4.05a65.018 65.018 0 011.648 1.88c.15.192.234.373.474.77.341-.101.618-.33.897-.417m-6.523-1.866a42.742 42.742 0 01-1.78-2.01c-.728-.87-1.285-1.367-2.072-2.025-.37-.005-1.906-.038-2.505-.12a2.693 2.693 0 00-.216.41c-.062.128-1.989 3.989-2.133 4.28-.149.295-.682 1.28-.791 1.514-.104.234-.066.047-.293.384-.23.338-.451.768-.59 1.199.119.087.409.193.63.288.228.097.777.186 1.01.291.026-.123 3.078-6.248 3.296-6.703.215-.459.372-.519.594-.867 0 0 2.554 2.663 2.82 3.015.264.354 1.447 1.88 1.862 2.427.413.544.97 1.147 1.346 1.778 0 0 .901-.176 1.094-.258.198-.083.652-.185.81-.284-.184-.14-2.53-2.745-3.082-3.32"/><path d="M22.751 48.656s.08-.01.556 0c.406.007.427-.022.8-.017.372.003.863-.06 1.414-.188.548-.127.614-.128 1.036-.216.396-.081.434-.124.316-.294-.121-.17-.393-.54-.644-.876a9.947 9.947 0 00-.832-.974c-.386-.399-1.16-1.128-1.441-1.443-.273-.314-.553-.63-.796-.928-.088.078-.25.453-.386.68-.134.228-.357.775-.473 1.016-.112.237-.655 1.459-.872 1.875-.218.412-.272.678-.487 1.051l-.02.057.089.024c.123.008.255.113.544.124.224.006.803.13 1.196.11m173.143-2.633l-1.743-.91-1.648.914-.031-21.27 1.748.874 1.637-.88.037 21.272zm36.587-14.758l4.34 14.696 1.62-.918 1.61.909 6.193-21.28-1.954.88-1.472-.873-4.385 16.088-4.73-16.075-1.224.873-1.236-.871-4.669 16.092-4.442-16.076-1.463.877-1.96-.87 6.271 21.264 1.602-.919 1.624.908 4.275-14.705zm38.175 14.63l-.017-8.483-7.439-12.765 2.37.868 1.358-.875 5.524 9.824 5.45-9.841 1.367.87 2.354-.88-7.366 12.793.01 8.484-1.84-.91-1.77.916zm20.598.277c-4.694.009-9.005-2.037-8.237-6.751l1.664.83 1.797-.836c-.427 2.315 1.968 3.83 4.766 3.825 3.162-.003 5.084-1.324 5.08-3.14-.006-5.032-12.81-2.53-12.822-10.033-.008-3.794 3.558-5.772 7.91-5.779 4.577-.002 8.544 1.923 7.623 6.363l-1.723-.84-1.842.852c.448-2.204-1.053-3.518-4.053-3.51-2.42 0-4.424 1.162-4.423 2.945.008 4.444 12.819 2.295 12.83 9.797.009 4.178-3.604 6.271-8.57 6.277m-78.677-7.246c2.018-1.083 3.557-3.837 3.65-6.707-.01-.099.008-.67-.002-.773-.247-4.137-3.2-6.725-6.91-6.719l-7.997.013.03 21.274.008-.003 1.634-.91 1.604.91-.01-6.197 3.747-.017s.338.002.892-.046l4.905 6.24 1.326-.913 3.02.912-5.897-7.064zm-7.995-2.045l-.022-9.102 4.65-.01c2.04.002 3.614 1.67 3.778 3.746.005.07.04.195.04.522-.004.34-.052.652-.055.73-.267 2.49-1.975 4.11-4.04 4.109zm-28.484.04l6.316-.004-3.19-8.625zm4.972-12.143l7.997 21.249-2.032-.899-1.354.903-2.3-6.202-8.232.01-2.31 6.214-1.365-.905-2.02.911 7.926-21.274 1.836.87 1.854-.877zm71.266 12.023l6.31-.01-3.224-8.619-3.086 8.629zm4.972-12.144l7.99 21.248-1.953-.9-1.424.907-2.308-6.206-8.227.012-2.31 6.214-1.42-.908-1.97.91 7.924-21.274 1.864.873 1.834-.876z"/></g></svg>