<svg>
<path d="M18.9969 11.1908L18.9948 11.178C18.9573 10.9552 18.8039 10.2256 18.6094 9.3021L18.6091 9.3008C18.2358 7.52708 17.7245 5.09818 17.5463 3.96218C17.5268 3.83904 17.5011 3.70782 17.4439 3.58012C17.3735 3.41242 17.2547 3.26869 17.1002 3.16406C16.9415 3.05668 16.7588 3 16.5718 3C16.5124 3 16.4528 3.00586 16.3948 3.01759C16.193 3.05538 16.0035 3.1634 15.8313 3.33866L15.8292 3.34075L15.8263 3.34375L15.8234 3.34687L15.8215 3.34909C15.7664 3.40955 15.7126 3.47014 15.6604 3.52865C15.4135 3.80581 15.1805 4.06759 14.9 4.23986L14.8988 4.24051L14.8959 4.24233L14.8949 4.24299C14.5417 4.46763 14.0498 4.61384 13.5101 4.65501C13.4188 4.66114 13.3242 4.66426 13.229 4.66426C12.5628 4.66426 11.8765 4.51129 11.2129 4.36339C10.5043 4.20546 9.77158 4.04218 9.01161 4.04205C8.9481 4.04205 8.88445 4.04323 8.82225 4.04544C7.70459 4.08623 6.58929 4.40287 5.80184 4.68459C5.78869 4.65697 5.77396 4.62869 5.75647 4.60028C5.59314 4.32143 5.27674 4.14135 4.94968 4.14135C4.89721 4.14135 4.84448 4.14591 4.79306 4.1549C4.43208 4.21262 4.13014 4.48653 4.04033 4.8377C4.00929 4.95002 3.99667 5.05674 4.00074 5.17311L4.00114 5.18353L4.00166 5.19826L4.00416 5.21285L4.00587 5.22315C4.0494 5.47789 4.83698 9.26418 5.67086 13.2729L5.67125 13.2749C6.30195 16.3073 6.95422 19.4429 7.2501 20.8861L7.32348 21.2398L7.32427 21.2433L7.32532 21.2483L7.32664 21.2532L7.32756 21.2566C7.34387 21.3202 7.3628 21.3764 7.40659 21.4592C7.57873 21.7928 7.90645 22 8.26217 22C8.3195 22 8.37763 21.9947 8.43496 21.984C8.62538 21.9507 8.7991 21.8584 8.93758 21.7168C9.07474 21.5765 9.16363 21.4018 9.1948 21.2113C9.22215 21.0636 9.22031 20.942 9.18875 20.8059C9.01069 19.958 8.65155 18.2214 8.30425 16.5419L8.30346 16.5381C8.0515 15.3196 7.81216 14.1626 7.67552 13.5069C8.28978 13.2483 9.35195 12.8786 10.4066 12.8786C10.4292 12.8786 10.452 12.8787 10.4745 12.8791C11.1006 12.8888 11.6893 13.0287 12.3127 13.1769C12.7799 13.2879 13.2629 13.4027 13.7716 13.4615C13.974 13.4869 14.1842 13.4998 14.3966 13.4998C15.0756 13.4998 15.7912 13.3738 16.5843 13.1145C17.3663 12.8555 18.0607 12.5012 18.5911 12.0901L18.5948 12.0873L18.6002 12.0831L18.6053 12.0785L18.6089 12.0754C18.6108 12.0737 18.6154 12.0701 18.6204 12.0663C18.6458 12.0467 18.6838 12.0173 18.73 11.9653C18.8963 11.7814 18.9998 11.5043 19.0001 11.2418V11.2089L18.9969 11.1908ZM16.1598 11.2921C15.7089 11.4562 15.2586 11.571 14.892 11.6154H14.8909L14.8857 11.6162L14.884 11.6165L14.881 11.6168L14.8795 11.617L14.8779 11.6172C14.733 11.6393 14.5874 11.6498 14.4323 11.6498C13.9429 11.6498 13.4436 11.5396 12.9324 11.4167C12.1243 11.2146 11.2613 11.0175 10.3734 11.0175C10.1946 11.0175 10.0179 11.0257 9.84799 11.0418C9.04502 11.1105 8.17906 11.3191 7.27312 11.6623C7.16528 11.1888 7.00458 10.3791 6.84836 9.59151C6.68318 8.75886 6.51236 7.89793 6.36705 7.23533C6.31944 6.99973 6.27815 6.79997 6.24488 6.63944L6.24435 6.63709C6.23607 6.59683 6.22831 6.55943 6.22108 6.52464C6.4349 6.44372 6.61677 6.37726 6.82955 6.30937C7.67618 6.04094 8.39091 5.90855 9.01424 5.9049C9.64415 5.91976 10.2622 6.05919 10.9166 6.20682C11.6095 6.36319 12.3255 6.52464 13.0783 6.53441C13.1263 6.53558 13.1751 6.53624 13.2232 6.53624C14.24 6.53624 15.207 6.2738 15.946 5.79753C16.2281 7.25982 16.6083 9.08358 16.8662 10.3212C16.9127 10.5443 16.954 10.7428 16.9902 10.9169C16.8049 11.0292 16.491 11.1716 16.1598 11.2921Z"/>
</svg>
