<svg>
<path fill-rule="evenodd" clip-rule="evenodd" d="M17.3411 3.48295C17.2261 2.87504 16.4218 2.61531 15.9974 3.15325C15.8947 3.28343 14.9934 4.35546 13.5501 4.45168C12.7266 4.50658 12.1737 4.37092 11.5324 4.1983L11.4405 4.17351C10.7997 4.00032 10.0584 3.80002 8.99996 3.80002C7.75 3.80002 6.6764 4.1953 5.69252 4.72105L5.63368 4.44411C5.54758 4.03895 5.14933 3.78029 4.74416 3.86639C4.339 3.95249 4.08034 4.35073 4.16644 4.7559L7.56641 20.7559C7.65251 21.1611 8.05076 21.4197 8.45592 21.3336C8.86109 21.2475 9.11975 20.8493 9.03365 20.4441L7.4392 12.9408C8.22375 12.5536 9.09254 12.3 9.99996 12.3C10.7611 12.3 11.4934 12.4455 12.2376 12.6078L12.4258 12.6491C13.0831 12.7938 13.7925 12.95 14.45 12.95C15.8178 12.95 17.2736 12.5182 18.414 11.6287C18.6687 11.43 18.7838 11.1088 18.7257 10.8015L17.3411 3.48295ZM7.11928 11.4353C7.98223 11.0557 8.95583 10.8 9.99996 10.8C10.9388 10.8 11.8116 10.9796 12.5573 11.1423L12.7054 11.1746C13.4144 11.3298 13.9641 11.45 14.45 11.45C15.3941 11.45 16.3752 11.1844 17.1743 10.6706L16.113 5.06069C15.5177 5.47654 14.6874 5.87919 13.6499 5.94836C12.5733 6.02013 11.8262 5.83079 11.1425 5.64674L11.0681 5.62667C10.4349 5.45589 9.85706 5.30002 8.99996 5.30002C7.94199 5.30002 7.01768 5.67675 6.01897 6.25726L7.11928 11.4353Z"/>
</svg>