<svg width="30" height="27" viewBox="0 0 30 27" fill="none" xmlns="http://www.w3.org/2000/svg">
<path d="M13.3845 11.6983C12.5957 10.9993 11.6153 10.814 11.1952 11.2876L7.44836 15.5091C7.86778 15.0355 8.84886 15.2197 9.63772 15.9198C10.4266 16.6198 10.7261 17.5716 10.3056 18.0452L14.0525 13.8237C14.4726 13.3501 14.1741 12.3987 13.3845 11.6983Z" fill="#626B79"/>
<path d="M9.34151 16.2533C8.71028 15.6941 7.92421 15.548 7.58553 15.9293L0.553996 23.8521C0.215317 24.2334 0.452634 24.9968 1.08386 25.557C1.71508 26.1173 2.50149 26.2624 2.83982 25.881L9.87137 17.9582C10.21 17.5769 9.97273 16.8136 9.34151 16.2533Z" fill="#626B79"/>
<path d="M14.3686 11.4119C14.6052 10.8999 14.5629 10.3347 14.5003 9.50391C14.1057 10.5144 13.4647 10.3725 13.2281 10.8845C13.1749 11.0021 13.1367 11.126 13.1145 11.2532C13.4338 11.3237 13.7677 11.2801 14.0582 11.1299C14.0976 11.2865 14.1791 11.4295 14.2938 11.5433C14.3175 11.501 14.3465 11.4615 14.3686 11.4119Z" fill="#626B79"/>
<path d="M18.0187 10.7658C18.238 10.3762 18.3096 9.92073 18.2204 9.48267C18.1313 9.04462 17.8873 8.65332 17.5333 8.3804C17.5504 8.35418 17.5714 8.33181 17.5868 8.3042C17.7315 8.04634 17.7922 7.74978 17.7605 7.4558C17.7288 7.16182 17.6062 6.88503 17.4099 6.66393C17.5362 6.53481 17.6453 6.38997 17.7346 6.23298C17.7472 6.21061 17.7566 6.18789 17.7696 6.16517C17.8045 6.16762 17.8356 6.17076 17.8685 6.17181C17.9745 6.37363 18.1256 6.54829 18.3102 6.6822C18.4947 6.81612 18.7076 6.9057 18.9323 6.94397C19.157 6.98225 19.3876 6.96819 19.606 6.9029C19.8244 6.8376 20.0249 6.72282 20.1917 6.56748C20.3586 6.41214 20.4874 6.22042 20.5682 6.00722C20.6489 5.79401 20.6794 5.56506 20.6573 5.33816C20.6351 5.11125 20.561 4.8925 20.4406 4.6989C20.3202 4.5053 20.1568 4.34206 19.9631 4.22187C19.9771 3.9101 19.9196 3.59927 19.795 3.31313C19.9715 3.26034 20.1286 3.15672 20.2466 3.01521C20.3647 2.8737 20.4384 2.70056 20.4587 2.51741C20.4789 2.33426 20.4448 2.14919 20.3605 1.98533C20.2762 1.82146 20.1455 1.68604 19.9848 1.59597C19.9406 1.57246 19.8947 1.55247 19.8474 1.5362C19.8686 1.19978 19.7638 0.867528 19.5535 0.604113C19.3432 0.340698 19.0424 0.164979 18.7096 0.111163C18.3769 0.0573461 18.036 0.129285 17.7533 0.312975C17.4707 0.496665 17.2666 0.778959 17.1806 1.1049C16.9576 1.00228 16.7036 0.990065 16.4718 1.07081C16.24 1.15156 16.0485 1.319 15.9375 1.53795C15.8265 1.7569 15.8047 2.01032 15.8766 2.24501C15.9486 2.4797 16.1087 2.67739 16.3233 2.79655C16.3341 2.80284 16.346 2.80564 16.3582 2.81123C16.2813 2.90299 16.2124 3.00121 16.1523 3.10482C15.6907 3.0501 15.224 3.14898 14.8242 3.38618C14.7294 3.20366 14.5912 3.04724 14.4218 2.93067C14.2523 2.81411 14.0568 2.74098 13.8525 2.71773C13.6481 2.69448 13.4412 2.72181 13.2499 2.79732C13.0586 2.87283 12.8888 2.99421 12.7555 3.15077C12.6221 3.30733 12.5293 3.49427 12.4851 3.69514C12.441 3.89601 12.4469 4.10465 12.5023 4.3027C12.5578 4.50074 12.661 4.68213 12.8031 4.83089C12.9451 4.97965 13.1215 5.09121 13.3167 5.15577C13.0419 5.24835 12.8042 5.42693 12.6387 5.66508C12.4733 5.90324 12.3889 6.18832 12.398 6.47816C12.4072 6.768 12.5094 7.04721 12.6895 7.27448C12.8696 7.50174 13.1181 7.66499 13.3982 7.74009C13.2702 7.97819 13.2129 8.24785 13.2328 8.51741C12.9181 8.55639 12.6261 8.70197 12.4056 8.92991C12.185 9.15786 12.0491 9.45444 12.0205 9.77033C11.992 10.0862 12.0724 10.4024 12.2484 10.6662C12.4245 10.9301 12.6855 11.1257 12.9882 11.2206C12.8271 10.598 12.9001 9.93799 13.1934 9.36568C13.6827 8.30455 15.0126 8.59885 15.8304 6.5049C15.9601 8.22626 16.0475 9.39784 15.5571 10.4586C15.336 10.9679 14.9696 11.4006 14.5037 11.7025C14.677 11.7947 14.8761 11.8265 15.0696 11.7929C15.263 11.7593 15.4397 11.6622 15.5718 11.5169C15.9983 11.7289 16.4898 11.7692 16.9451 11.6294C17.4004 11.4897 17.7847 11.1806 18.0187 10.7658Z" fill="#626B79"/>
<path d="M19.7124 16.6129C19.2535 15.6629 18.4192 15.1159 17.8495 15.3914L12.7668 17.846C13.3369 17.5709 14.1708 18.1179 14.6297 19.0693C15.0887 20.0207 14.9985 21.0126 14.4284 21.2877L19.5111 18.833C20.0815 18.5562 20.1713 17.5636 19.7124 16.6129Z" fill="#626B79"/>
<path d="M14.2287 19.2616C13.8618 18.5018 13.1917 18.0656 12.7325 18.2872L3.19386 22.8945C2.73495 23.1161 2.66015 23.9119 3.02714 24.6721C3.39413 25.4323 4.06416 25.8685 4.52342 25.6466L14.062 21.0396C14.5213 20.8177 14.5943 20.0218 14.2287 19.2616Z" fill="#626B79"/>
<path d="M20.7302 16.729C21.1458 16.3477 21.3244 15.8098 21.5862 15.0188C20.833 15.7996 20.2958 15.4218 19.8805 15.8031C19.7861 15.8913 19.7032 15.9912 19.6338 16.1002C19.9012 16.2874 20.2256 16.3753 20.5509 16.3487C20.5269 16.5085 20.5471 16.6718 20.6093 16.8209C20.6495 16.7901 20.6914 16.7646 20.7302 16.729Z" fill="#626B79"/>
<path d="M24.3487 17.5347C24.7009 17.2595 24.9421 16.8666 25.0283 16.428C25.1145 15.9895 25.0399 15.5345 24.8181 15.1465C24.844 15.1287 24.8719 15.1161 24.8971 15.0969C25.1298 14.9144 25.2999 14.664 25.3837 14.3805C25.4676 14.0969 25.4609 13.7942 25.3648 13.5146C25.531 13.444 25.6875 13.3522 25.8303 13.2416C25.8506 13.2259 25.8681 13.2067 25.8873 13.1923C25.917 13.207 25.946 13.2228 25.976 13.236C25.9962 13.4631 26.0685 13.6825 26.1872 13.8772C26.306 14.0718 26.468 14.2365 26.6607 14.3583C26.8534 14.4802 27.0717 14.5559 27.2984 14.5797C27.5252 14.6035 27.7544 14.5747 27.9682 14.4956C28.182 14.4164 28.3747 14.289 28.5313 14.1232C28.6878 13.9575 28.8041 13.7579 28.871 13.5399C28.9379 13.3219 28.9536 13.0915 28.9169 12.8664C28.8803 12.6414 28.7922 12.4278 28.6596 12.2424C28.7927 11.9597 28.8594 11.6503 28.8547 11.3378C29.0379 11.3568 29.2226 11.3215 29.3859 11.2362C29.5491 11.151 29.6837 11.0195 29.7728 10.8583C29.8619 10.6971 29.9016 10.5133 29.8869 10.3297C29.8723 10.1461 29.8039 9.97083 29.6903 9.82581C29.6583 9.78709 29.6233 9.75098 29.5855 9.71782C29.7183 9.44097 29.7536 9.12733 29.6855 8.82791C29.6175 8.52848 29.4502 8.26088 29.2107 8.06864C28.9713 7.8764 28.6738 7.77081 28.3668 7.76906C28.0597 7.76732 27.7611 7.86951 27.5195 8.05902C27.4337 8.12772 27.3565 8.20646 27.2895 8.29355C27.1219 8.1182 26.8935 8.0137 26.6513 8.0015C26.409 7.98929 26.1713 8.07033 25.9869 8.22794C25.8026 8.38556 25.6856 8.60779 25.6599 8.849C25.6343 9.0902 25.702 9.33205 25.8492 9.52488C25.8569 9.53467 25.8667 9.54201 25.8747 9.55145C25.7684 9.60644 25.667 9.67052 25.5717 9.74298C25.1666 9.51503 24.6978 9.42673 24.2376 9.49168C24.2201 9.29762 24.1577 9.11029 24.0553 8.94457C23.9528 8.77884 23.8131 8.63929 23.6473 8.53699C23.4815 8.43469 23.2941 8.37246 23.1 8.35524C22.9059 8.33803 22.7105 8.36629 22.5292 8.4378C22.348 8.5093 22.1859 8.62208 22.0559 8.76718C21.9258 8.91227 21.8314 9.08569 21.7801 9.27365C21.7288 9.46162 21.722 9.65896 21.7603 9.85C21.7986 10.041 21.8809 10.2205 22.0007 10.3742C22.0497 10.4362 22.1045 10.4934 22.1642 10.5451C21.875 10.5249 21.5869 10.5983 21.3426 10.7545C21.0983 10.9107 20.9107 11.1413 20.8076 11.4123C20.7045 11.6833 20.6913 11.9803 20.77 12.2594C20.8487 12.5385 21.0151 12.7848 21.2447 12.962C21.0351 13.1326 20.8785 13.3595 20.7934 13.616C20.5112 13.5391 20.2118 13.5531 19.938 13.6561C19.6642 13.7591 19.4298 13.9458 19.2681 14.1896C19.1064 14.4334 19.0258 14.722 19.0375 15.0143C19.0492 15.3066 19.1528 15.5878 19.3335 15.8179C19.3912 15.8903 19.456 15.9568 19.5268 16.0164C19.6182 15.3795 19.9402 14.7984 20.4317 14.3831C21.2926 13.5925 22.4057 14.3755 23.9663 12.7572C23.4235 14.3961 23.0538 15.5114 22.1929 16.3016C21.7928 16.6867 21.288 16.945 20.7417 17.0443C20.8663 17.1961 21.0379 17.3021 21.2294 17.3455C21.4209 17.3889 21.6215 17.3673 21.7994 17.2841C22.1111 17.6448 22.5495 17.8719 23.024 17.9186C23.4984 17.9652 23.9727 17.8278 24.3487 17.5347Z" fill="#626B79"/>
</svg>
