<svg width="24" height="24" viewBox="0 0 24 24" xmlns="http://www.w3.org/2000/svg">
  <path d="M12,3.25 C16.8324916,3.25 20.75,7.16750844 20.75,12 C20.75,12.4142136 20.4142136,12.75 20,12.75 C19.5857864,12.75 19.25,12.4142136 19.25,12 C19.25,7.99593556 16.0040644,4.75 12,4.75 C7.99593556,4.75 4.75,7.99593556 4.75,12 C4.75,16.0040644 7.99593556,19.25 12,19.25 C12.4142136,19.25 12.75,19.5857864 12.75,20 C12.75,20.4142136 12.4142136,20.75 12,20.75 C7.16750844,20.75 3.25,16.8324916 3.25,12 C3.25,7.16750844 7.16750844,3.25 12,3.25 Z M20.7567935,14.1971388 C21.0343746,14.4515882 21.0766565,14.8668072 20.8717613,15.1696045 L20.8028656,15.2567979 L16.3028656,20.2567979 C16.0405628,20.5429464 15.6095027,20.5778082 15.3064491,20.354935 L15.2196699,20.2803345 L12.7196699,17.7803345 C12.4267767,17.4874413 12.4267767,17.0125676 12.7196699,16.7196743 C12.9859365,16.4534078 13.4026002,16.4292017 13.6962117,16.6470562 L13.7803301,16.7196743 L15.7264411,18.6657854 L19.6971344,14.2432109 C19.9770287,13.9378717 20.4514542,13.9172445 20.7567935,14.1971388 Z M12.0030968,7.24999338 C12.3827893,7.25157418 12.6954168,7.53502134 12.7435673,7.90129884 L12.7499935,8.0030968 L12.7335512,11.9805731 C12.7338411,12.051484 12.7242805,12.1201369 12.7061556,12.185235 C12.6857126,12.2587312 12.6542609,12.3278357 12.6137207,12.3904993 C12.5847286,12.435324 12.5509766,12.4769759 12.5132304,12.5146319 C12.4618964,12.5660897 12.4014711,12.6110354 12.335132,12.6463075 C12.2597925,12.686395 12.1765505,12.7140492 12.0883708,12.7263806 L12.022811,12.7326498 L12.022811,12.7326498 L8.00307805,12.7500065 C7.58886797,12.7516936 7.25170628,12.4172881 7.24999346,12.003078 C7.24844802,11.6233855 7.52931169,11.308435 7.89518035,11.2572705 L7.99692195,11.2500063 L11.236,11.236 L11.2500064,7.9969032 C11.2517167,7.58269317 11.5888868,7.24829608 12.0030968,7.24999338 Z"/>
</svg>
