<svg>
  <path d="M16.25,14.5 C16.6296958,14.5 16.943491,14.7821539 16.9931534,15.1482294 L17,15.25 L17,20.25 C17,20.6642136 16.6642136,21 16.25,21 C15.8703042,21 15.556509,20.7178461 15.5068466,20.3517706 L15.5,20.25 L15.5,15.25 C15.5,14.8357864 15.8357864,14.5 16.25,14.5 Z M20.25,14.5 C20.6296958,14.5 20.943491,14.7821539 20.9931534,15.1482294 L21,15.25 L21,20.25 C21,20.6642136 20.6642136,21 20.25,21 C19.8703042,21 19.556509,20.7178461 19.5068466,20.3517706 L19.5,20.25 L19.5,15.25 C19.5,14.8357864 19.8357864,14.5 20.25,14.5 Z M12,3.25 C16.8324916,3.25 20.75,7.16750844 20.75,12 C20.75,12.4142136 20.4142136,12.75 20,12.75 C19.5857864,12.75 19.25,12.4142136 19.25,12 C19.25,7.99593556 16.0040644,4.75 12,4.75 C7.99593556,4.75 4.75,7.99593556 4.75,12 C4.75,16.0040644 7.99593556,19.25 12,19.25 C12.4142136,19.25 12.75,19.5857864 12.75,20 C12.75,20.4142136 12.4142136,20.75 12,20.75 C7.16750844,20.75 3.25,16.8324916 3.25,12 C3.25,7.16750844 7.16750844,3.25 12,3.25 Z M12.0030968,7.24999338 C12.3827893,7.25157418 12.6954168,7.53502134 12.7435673,7.90129884 L12.7499935,8.0030968 L12.7335512,11.9805731 C12.7338411,12.051484 12.7242805,12.1201369 12.7061556,12.185235 C12.6857126,12.2587312 12.6542609,12.3278357 12.6137207,12.3904993 C12.5847286,12.435324 12.5509766,12.4769759 12.5132304,12.5146319 C12.4618964,12.5660897 12.4014711,12.6110354 12.335132,12.6463075 C12.2597925,12.686395 12.1765505,12.7140492 12.0883708,12.7263806 L12.022811,12.7326498 L12.022811,12.7326498 L8.00307805,12.7500065 C7.58886797,12.7516936 7.25170628,12.4172881 7.24999346,12.003078 C7.24844802,11.6233855 7.52931169,11.308435 7.89518035,11.2572705 L7.99692195,11.2500063 L11.236,11.236 L11.2500064,7.9969032 C11.2517167,7.58269317 11.5888868,7.24829608 12.0030968,7.24999338 Z"/>
</svg>
