<svg width="24" height="24" viewBox="0 0 24 24" xmlns="http://www.w3.org/2000/svg">
<path fill-rule="evenodd" clip-rule="evenodd" d="M15.503 4.21762L15.4189 4.14501C15.1253 3.92719 14.7087 3.9514 14.4424 4.21762L14.3698 4.30172L14.3062 4.40376C14.1603 4.68601 14.2057 5.04146 14.4424 5.2781L15.5978 6.43358L14.065 6.43433L12.6603 5.02973L12.5762 4.95713C12.2826 4.73931 11.8659 4.76351 11.5997 5.02973C11.3068 5.32258 11.3068 5.79737 11.5997 6.09022L13.2241 7.71445L13.3142 7.79129C13.4414 7.88352 13.5953 7.93408 13.7544 7.93408L15.5978 7.93333L14.4424 9.09031L14.3698 9.17441C14.152 9.46797 14.1762 9.88457 14.4424 10.1508L14.5265 10.2234C14.8201 10.4412 15.2368 10.417 15.503 10.1508L17.7197 7.93333L20.2521 7.93408L20.3539 7.92723C20.7199 7.87758 21.0021 7.56384 21.0021 7.18421L20.9952 7.08245C20.9456 6.71644 20.6318 6.43433 20.2521 6.43433L17.7187 6.43358L15.503 4.21762ZM8 6.74799C8 7.1622 7.66421 7.49799 7.25 7.49799L4.75 7.49799C4.33579 7.49799 4 7.1622 4 6.74799C4 6.33377 4.33579 5.99799 4.75 5.99799H7.25C7.66421 5.99799 8 6.33377 8 6.74799ZM11.25 10.498C11.6642 10.498 12 10.1622 12 9.74799C12 9.33377 11.6642 8.99799 11.25 8.99799L4.75 8.99798C4.33579 8.99798 4 9.33377 4 9.74798C4 10.1622 4.33579 10.498 4.75 10.498L11.25 10.498ZM17 12.748C17 13.1622 16.6642 13.498 16.25 13.498L4.75 13.498C4.33579 13.498 4 13.1622 4 12.748C4 12.3338 4.33579 11.998 4.75 11.998L16.25 11.998C16.6642 11.998 17 12.3338 17 12.748ZM16.25 16.498C16.6642 16.498 17 16.1622 17 15.748C17 15.3338 16.6642 14.998 16.25 14.998L4.75 14.998C4.33579 14.998 4 15.3338 4 15.748C4 16.1622 4.33579 16.498 4.75 16.498L16.25 16.498ZM16.25 19.498C16.6642 19.498 17 19.1622 17 18.748C17 18.3338 16.6642 17.998 16.25 17.998L4.75 17.998C4.33579 17.998 4 18.3338 4 18.748C4 19.1622 4.33579 19.498 4.75 19.498L16.25 19.498Z"/>
</svg>
