<svg width="24" height="24" viewBox="0 0 24 24" xmlns="http://www.w3.org/2000/svg">
  <path d="M4.22863642,9.9224142 L4.30747061,9.99827645 L6.55747061,12.4982765 C6.83456487,12.806159 6.80960606,13.2803763 6.50172355,13.5574706 C6.22183035,13.8093745 5.80447033,13.8116477 5.52271483,13.5786625 L5.44252939,13.5017235 L4.56089978,12.5230458 C4.82923934,16.4009277 8.05729296,19.5 12,19.5 L12.1017706,19.5068466 C12.4678461,19.556509 12.7499936,19.8703042 12.7499936,20.25 C12.7499936,20.6296958 12.4678461,20.943491 12.1017706,20.9931534 L12,21 C7.17759566,21 3.2410484,17.207195 3.01065828,12.441885 L2.05747061,13.5017235 C1.78037635,13.8096061 1.30615897,13.8345649 0.998276451,13.5574706 C0.718383255,13.3055667 0.672311304,12.8907512 0.874432774,12.5860953 L0.94252939,12.4982765 L3.19252939,9.99827645 C3.46563349,9.69482746 3.92456165,9.66954004 4.22863642,9.9224142 Z M14.0037003,19.2344789 C14.4176615,19.2200231 14.7649622,19.5438862 14.779418,19.9578474 C14.7938739,20.3718087 14.4700108,20.7191093 14.0560495,20.7335652 C13.6420883,20.748021 13.2947876,20.4241579 13.2803318,20.0101967 C13.2658759,19.5962354 13.589739,19.2489348 14.0037003,19.2344789 Z M15.9773543,18.4451185 C16.3913155,18.4306627 16.7386162,18.7545258 16.753072,19.168487 C16.7675279,19.5824483 16.4436648,19.9297489 16.0297035,19.9442048 C15.6157423,19.9586606 15.2684416,19.6347975 15.2539858,19.2208363 C15.2395299,18.806875 15.5633931,18.4595744 15.9773543,18.4451185 Z M17.6851068,17.2047632 C18.0990681,17.1903074 18.4463687,17.5141705 18.4608246,17.9281317 C18.4752804,18.342093 18.1514173,18.6893936 17.7374561,18.7038495 C17.3234948,18.7183053 16.9761942,18.3944422 16.9617383,17.980481 C16.9472825,17.5665197 17.2711456,17.2192191 17.6851068,17.2047632 Z M19.0836193,15.7050423 C19.4975805,15.6905864 19.8448812,16.0144495 19.859337,16.4284108 C19.8737928,16.842372 19.5499297,17.1896727 19.1359685,17.2041285 C18.7220073,17.2185844 18.3747066,16.8947212 18.3602508,16.48076 C18.3457949,16.0667988 18.669658,15.7194981 19.0836193,15.7050423 Z M12,3 C16.8224043,3 20.7589516,6.79280503 20.9893417,11.558115 L21.9425294,10.4982765 C22.2196237,10.1903939 22.693841,10.1654351 23.0017235,10.4425294 C23.2816167,10.6944333 23.3276887,11.1092488 23.1255672,11.4139047 L23.0574706,11.5017235 L20.8074706,14.0017235 C20.5343665,14.3051725 20.0754384,14.33046 19.7713636,14.0775858 L19.6925294,14.0017235 L17.4425294,11.5017235 C17.1654351,11.193841 17.1903939,10.7196237 17.4982765,10.4425294 C17.7781696,10.1906255 18.1955297,10.1883523 18.4772852,10.4213375 L18.5574706,10.4982765 L19.4391002,11.4769542 C19.1707607,7.59907233 15.942707,4.5 12,4.5 L11.8982294,4.49315338 C11.5321539,4.44349096 11.25,4.12969577 11.25,3.75 C11.25,3.37030423 11.5321539,3.05650904 11.8982294,3.00684662 L12,3 Z M4.77429377,6.92120393 C5.18793967,6.89952567 5.54083963,7.21727822 5.56251789,7.63092412 C5.58419615,8.04457001 5.2664436,8.39746997 4.85279771,8.41914823 C4.43915181,8.4408265 4.08625185,8.12307395 4.06457359,7.70942805 C4.04289533,7.29578215 4.36064787,6.94288219 4.77429377,6.92120393 Z M6.14641946,5.39730397 C6.56006536,5.37562571 6.91296532,5.69337826 6.93464358,6.10702415 C6.95632184,6.52067005 6.63856929,6.87357001 6.2249234,6.89524827 C5.8112775,6.91692653 5.45837754,6.59917398 5.43669928,6.18552809 C5.41502101,5.77188219 5.73277356,5.41898223 6.14641946,5.39730397 Z M7.83226472,4.1273332 C8.24591062,4.10565493 8.59881057,4.42340748 8.62048884,4.83705338 C8.6421671,5.25069928 8.32441455,5.60359923 7.91076865,5.6252775 C7.49712276,5.64695576 7.1442228,5.32920321 7.12254453,4.91555731 C7.10086627,4.50191142 7.41861882,4.14901146 7.83226472,4.1273332 Z M9.7918419,3.30364802 C10.2054878,3.28196975 10.5583878,3.5997223 10.580066,4.0133682 C10.6017443,4.4270141 10.2839917,4.77991406 9.87034583,4.80159232 C9.45669994,4.82327058 9.10379998,4.50551803 9.08212172,4.09187214 C9.06044345,3.67822624 9.378196,3.32532628 9.7918419,3.30364802 Z"/>
</svg>
