<svg>
<path fill-rule="evenodd" clip-rule="evenodd" d="M4 4.25C4 3.00736 5.00736 2 6.25 2H17.749C18.9916 2 19.999 3.00736 19.999 4.25V19.746C19.999 20.9887 18.9916 21.996 17.749 21.996H6.25C5.00736 21.996 4 20.9886 4 19.746V4.25ZM6.25 3.5C5.83579 3.5 5.5 3.83579 5.5 4.25V19.746C5.5 20.1602 5.83579 20.496 6.25 20.496H17.749C18.1632 20.496 18.499 20.1602 18.499 19.746V4.25C18.499 3.83579 18.1632 3.5 17.749 3.5H6.25Z"/>
<path fill-rule="evenodd" clip-rule="evenodd" d="M6.25 3.5C5.83579 3.5 5.5 3.83579 5.5 4.25V19.746C5.5 20.1602 5.83579 20.496 6.25 20.496H17.749C18.1632 20.496 18.499 20.1602 18.499 19.746V4.25C18.499 3.83579 18.1632 3.5 17.749 3.5H6.25ZM11.0455 12.5478V10.7057C11.0455 10.0478 11.1818 8.99673 12 8.99673C12.7336 8.99673 12.9545 10.0494 12.9545 10.7073V12.5478L16.2153 14.7809C16.3931 14.903 16.5 15.1046 16.5 15.3173V16.2336L12.8182 14.9178L12.6818 17.1546L13.68 17.9978C13.7389 18.0473 13.7727 18.1188 13.7727 18.1946V18.9967L11.9995 18.2894L10.2273 18.9967V18.1952C10.2273 18.1194 10.2611 18.0467 10.32 17.9973L11.3182 17.1546L11.1818 14.9178L7.5 16.2336V15.3173C7.5 15.1046 7.60691 14.9046 7.78636 14.7809L11.0455 12.5478ZM8.75073 7.5C9.16535 7.5 9.50147 7.16421 9.50147 6.75C9.50147 6.33579 9.16535 6 8.75073 6C8.33611 6 8 6.33579 8 6.75C8 7.16421 8.33611 7.5 8.75073 7.5ZM12 7.5C12.4146 7.5 12.7507 7.16421 12.7507 6.75C12.7507 6.33579 12.4146 6 12 6C11.5854 6 11.2493 6.33579 11.2493 6.75C11.2493 7.16421 11.5854 7.5 12 7.5ZM15.2493 7.5C15.6639 7.5 16 7.16421 16 6.75C16 6.33579 15.6639 6 15.2493 6C14.8346 6 14.4985 6.33579 14.4985 6.75C14.4985 7.16421 14.8346 7.5 15.2493 7.5Z"/>
</svg>
