<svg>
    <g>
        <path d="M17.25,3 C19.5281746,3 21.3876867,4.79250701 21.4950991,7.04408366 L21.5,7.25 L21.5,8.25 C21.5,10.3409417 19.9900217,12.0792091 18.0010146,12.4338526 L18,19.75 C18,20.1642136 17.6642136,20.5 17.25,20.5 C16.8703042,20.5 16.556509,20.2178461 16.5068466,19.8517706 L16.5,19.75 L16.4999804,12.4340299 C14.5790853,12.092004 13.1047407,10.4595408 13.0053459,8.46503962 L13,8.25 L13,7.25 C13,4.90278981 14.9027898,3 17.25,3 Z M10.237252,3.25 C10.6169478,3.25 10.930743,3.53215388 10.9804054,3.89822944 L10.987252,4 L10.987252,8.25 C10.987252,10.3351458 9.48337767,12.069043 7.50110276,12.4262177 L7.5,19.75 C7.5,20.1642136 7.16421356,20.5 6.75,20.5 C6.37030423,20.5 6.05650904,20.2178461 6.00684662,19.8517706 L6,19.75 L6.00036563,12.4287542 C4.07866382,12.0892675 2.60324205,10.456585 2.50519346,8.46179974 L2.5,8.25 L2.5,4 C2.5,3.58578644 2.83578644,3.25 3.25,3.25 C3.62969577,3.25 3.94349096,3.53215388 3.99315338,3.89822944 L4,4 L4,8.25 C4,9.76526281 5.22836321,10.993626 6.74362601,10.993626 C8.20276797,10.993626 9.39586861,9.85456768 9.48224487,8.41713405 L9.48725203,8.25 L9.48725203,4 C9.48725203,3.58578644 9.82303846,3.25 10.237252,3.25 Z M17.25,4.5 C18.7125318,4.5 19.9084043,5.6417046 19.9949812,7.08247767 L20,7.25 L20,8.25 L19.9949812,8.41752233 C19.9084043,9.8582954 18.7125318,11 17.25,11 C15.7874682,11 14.5915957,9.8582954 14.5050188,8.41752233 L14.5,8.25 L14.5,7.25 L14.5050188,7.08247767 C14.5915957,5.6417046 15.7874682,4.5 17.25,4.5 Z M6.7426196,3.24999861 C7.12231502,3.24949117 7.43648855,3.53122371 7.48664216,3.8972323 L7.49362462,3.99899358 L7.50000139,8.74899358 C7.50055515,9.16320677 7.16521961,9.4994435 6.75100642,9.50000139 C6.37131099,9.50050883 6.05713746,9.21877629 6.00698385,8.8527677 L6.00000068,8.75100642 L5.99362462,4.00100642 C5.99307086,3.58679323 6.32840641,3.2505565 6.7426196,3.24999861 Z" id="food-and-drink" fill="#626B79"></path>
    </g>
</svg>