<svg>
<path fill-rule="evenodd" clip-rule="evenodd" d="M17.25 3C19.5282 3 21.3877 4.79251 21.4951 7.04408L21.5 7.25V8.25C21.5 10.3409 19.99 12.0792 18.001 12.4339L18 19.75C18 20.1642 17.6642 20.5 17.25 20.5C16.8703 20.5 16.5565 20.2178 16.5068 19.8518L16.5 19.75L16.5 12.434C14.5791 12.092 13.1047 10.4595 13.0053 8.46504L13 8.25V7.25C13 4.90279 14.9028 3 17.25 3ZM10.2373 3.25C10.6169 3.25 10.9307 3.53215 10.9804 3.89823L10.9873 4V8.25C10.9873 10.3351 9.48338 12.069 7.5011 12.4262L7.5 19.75C7.5 20.1642 7.16421 20.5 6.75 20.5C6.3703 20.5 6.05651 20.2178 6.00685 19.8518L6 19.75L6.00037 12.4288C4.07866 12.0893 2.60324 10.4566 2.50519 8.4618L2.5 8.25V4C2.5 3.58579 2.83579 3.25 3.25 3.25C3.6297 3.25 3.94349 3.53215 3.99315 3.89823L4 4V8.25C4 9.76526 5.22836 10.9936 6.74363 10.9936C8.20277 10.9936 9.39587 9.85457 9.48224 8.41713L9.48725 8.25V4C9.48725 3.58579 9.82304 3.25 10.2373 3.25ZM17.25 4.5C18.7125 4.5 19.9084 5.6417 19.995 7.08248L20 7.25V8.25L19.995 8.41752C19.9084 9.8583 18.7125 11 17.25 11C15.7875 11 14.5916 9.8583 14.505 8.41752L14.5 8.25V7.25L14.505 7.08248C14.5916 5.6417 15.7875 4.5 17.25 4.5ZM6.74262 3.25C7.12231 3.24949 7.43649 3.53122 7.48664 3.89723L7.49363 3.99899L7.5 8.74899C7.50056 9.16321 7.16522 9.49944 6.75101 9.5C6.37131 9.50051 6.05714 9.21878 6.00698 8.85277L6 8.75101L5.99363 4.00101C5.99307 3.58679 6.32841 3.25056 6.74262 3.25Z"/>
</svg>
