<svg>
<path fill-rule="evenodd" clip-rule="evenodd" d="M17.3241 2.88587C17.3241 2.47166 16.9883 2.13872 16.5741 2.14224C16.1599 2.14576 15.8241 2.48439 15.8241 2.89861V4.3202H7.26754V2.88587C7.26754 2.47166 6.93177 2.13872 6.51757 2.14224C6.10337 2.14576 5.7676 2.48439 5.7676 2.89861L5.76759 4.3202H4.74805C3.22926 4.3202 1.99805 5.55142 1.99805 7.0702V16.6388C1.99805 18.1576 3.22927 19.3888 4.74805 19.3888H8.68267C9.09688 19.3888 9.43267 19.053 9.43267 18.6388C9.43267 18.2246 9.09688 17.8888 8.68267 17.8888H4.74805C4.05769 17.8888 3.49805 17.3291 3.49805 16.6388V10.8762L10.3704 10.8762C10.7846 10.8762 11.1204 10.5404 11.1204 10.1262C11.1204 9.71194 10.7846 9.37615 10.3704 9.37615L3.49805 9.37615V7.0702C3.49805 6.37984 4.05769 5.8202 4.74805 5.8202H6.48918C6.4986 5.82047 6.50806 5.82056 6.51757 5.82048L6.53299 5.8202H16.5457C16.5551 5.82047 16.5646 5.82056 16.5741 5.82048L16.5895 5.8202H17.7864C18.4768 5.8202 19.0364 6.37984 19.0364 7.0702V7.92339C19.0364 8.33761 19.3722 8.67339 19.7864 8.67339C20.2006 8.67339 20.5364 8.33761 20.5364 7.92339V7.0702C20.5364 5.55142 19.3052 4.3202 17.7864 4.3202H17.3241L17.3241 2.88587ZM17.752 13.7695C17.7519 14.1837 18.0877 14.5195 18.5019 14.5196L21.247 14.5197C21.4459 14.5197 21.6367 14.4407 21.7773 14.3001C21.918 14.1594 21.997 13.9687 21.997 13.7697V11.0245C21.997 10.6103 21.6612 10.2745 21.247 10.2745C20.8328 10.2745 20.497 10.6103 20.497 11.0245V11.7966C19.4498 10.6592 17.9467 9.94497 16.2769 9.94497C13.1096 9.94497 10.542 12.5126 10.542 15.6799C10.542 16.0941 10.8778 16.4299 11.292 16.4299C11.7062 16.4299 12.042 16.0941 12.042 15.6799C12.042 13.341 13.938 11.445 16.2769 11.445C17.6076 11.445 18.7948 12.0579 19.5722 13.0196L18.502 13.0196C18.0878 13.0195 17.752 13.3553 17.752 13.7695ZM14.0401 17.4224C14.4543 17.4224 14.7901 17.7582 14.79 18.1724C14.79 18.5867 14.4542 18.9224 14.04 18.9224L13.0893 18.9223C13.8663 19.8036 15.0018 20.3577 16.267 20.3577C18.6059 20.3577 20.502 18.4616 20.502 16.1228C20.502 15.7085 20.8377 15.3728 21.252 15.3728C21.6662 15.3728 22.002 15.7085 22.002 16.1228C22.002 19.2901 19.4343 21.8577 16.267 21.8577C14.5962 21.8577 13.0923 21.1426 12.045 20.004V20.9175C12.045 21.3317 11.7092 21.6675 11.295 21.6675C10.8808 21.6675 10.545 21.3317 10.545 20.9175V18.1722C10.545 17.9733 10.624 17.7825 10.7647 17.6419C10.9053 17.5012 11.0961 17.4222 11.295 17.4222L14.0401 17.4224Z"/>
</svg>
