<svg>
<path d="M11.5 8.71741H3.81818V11.1079H11.5L11.5 8.71741Z"/>
<path d="M13 11.1079H20.1818V8.71741H13L13 11.1079Z"/>
<path fill-rule="evenodd" clip-rule="evenodd" d="M5.31818 20.2609L5.31818 13.8092H11.5L11.5 20.5H5.45455C5.4475 20.5 5.42464 20.4997 5.38991 20.4627C5.35369 20.4243 5.31818 20.3564 5.31818 20.2609Z"/>
<path fill-rule="evenodd" clip-rule="evenodd" d="M18.5455 20.5H13L13 13.8092H18.6818V20.2609C18.6818 20.3564 18.6463 20.4243 18.6101 20.4627C18.5754 20.4997 18.5525 20.5 18.5455 20.5Z"/>
<path d="M3.81818 12.4348L3.81818 13.8092H5.31818V12.4346L3.81818 12.4348Z"/>
<path d="M11.5 12.4346H5.31818V13.8092H11.5V12.4346Z"/>
<path d="M18.6818 12.4348L13 12.4346V13.8092H18.6818V12.4348Z"/>
<path d="M20.1818 13.8092V12.4348H18.6818V13.8092H20.1818Z"/>
<path fill-rule="evenodd" clip-rule="evenodd" d="M14.8648 2C13.2833 2 12.0012 3.28209 12.0012 4.86363V6.58696L12.0002 7.21741V5.5C12.0002 4.11929 10.881 3 9.50024 3C8.11953 3 7.00024 4.11929 7.00024 5.5C7.00024 6.16509 7.25996 6.76952 7.6835 7.21741H3.81818C3.36631 7.21741 3 7.60672 3 8.08697V10.2897C3 10.7416 3.36631 11.1079 3.81818 11.1079V8.71741H11.5L11.5 7.5H13L13 8.71741H20.1818V11.1079C20.6337 11.1079 21 10.7416 21 10.2897V8.08697C21 7.60672 20.6337 7.21741 20.1818 7.21741H16.8149C17.3787 6.66501 17.7284 5.89509 17.7284 5.04348V4.86363C17.7284 3.28209 16.4463 2 14.8648 2ZM20.1818 13.8092H18.6818V20.2609C18.6818 20.3564 18.6463 20.4243 18.6101 20.4627C18.5754 20.4997 18.5525 20.5 18.5455 20.5H13V22H18.5455C19.4492 22 20.1818 21.2214 20.1818 20.2609V13.8092ZM3.81818 20.2609L3.81818 13.8092H5.31818L5.31818 20.2609C5.31818 20.3564 5.35369 20.4243 5.38991 20.4627C5.42464 20.4997 5.4475 20.5 5.45455 20.5H11.5V22H5.45455C4.55081 22 3.81818 21.2214 3.81818 20.2609ZM16.2284 5.04348V4.86363C16.2284 4.11052 15.6179 3.5 14.8648 3.5C14.1117 3.5 13.5012 4.11052 13.5012 4.86363V6.58696H14.685C15.5374 6.58696 16.2284 5.89592 16.2284 5.04348ZM9.50024 6.5H10.5002V5.5C10.5002 4.94772 10.0525 4.5 9.50024 4.5C8.94796 4.5 8.50024 4.94772 8.50024 5.5C8.50024 6.05228 8.94796 6.5 9.50024 6.5Z"/>
</svg>
