<svg width="24" height="24" viewBox="0 0 24 24" xmlns="http://www.w3.org/2000/svg">
 <path fill-rule="evenodd" clip-rule="evenodd" d="M12.0012 4.86363C12.0012 3.28209 13.2833 2 14.8648 2C16.4463 2 17.7284 3.28209 17.7284 4.86363V5.04348C17.7284 5.89509 17.3787 6.66501 16.8149 7.21741H20.1818C20.6337 7.21741 21 7.60672 21 8.08697V11.5652C21 12.0455 20.6337 12.4348 20.1818 12.4348V20.2609C20.1818 21.2214 19.4492 22 18.5455 22H5.45455C4.55081 22 3.81818 21.2214 3.81818 20.2609L3.81818 12.4348C3.36631 12.4348 3 12.0455 3 11.5652V8.08697C3 7.60672 3.36631 7.21741 3.81818 7.21741H7.6835C7.25996 6.76952 7.00024 6.16509 7.00024 5.5C7.00024 4.11929 8.11953 3 9.50024 3C10.881 3 12.0002 4.11929 12.0002 5.5V7.21741L12.0012 6.58696V4.86363ZM16.2284 4.86363V5.04348C16.2284 5.89592 15.5374 6.58696 14.685 6.58696H13.5012V4.86363C13.5012 4.11052 14.1117 3.5 14.8648 3.5C15.6179 3.5 16.2284 4.11052 16.2284 4.86363ZM10.5002 6.5H9.50024C8.94796 6.5 8.50024 6.05228 8.50024 5.5C8.50024 4.94772 8.94796 4.5 9.50024 4.5C10.0525 4.5 10.5002 4.94772 10.5002 5.5V6.5ZM5.31818 12.4346H11.5L11.5 20.5H5.45455C5.4475 20.5 5.42464 20.4997 5.38991 20.4627C5.35369 20.4243 5.31818 20.3564 5.31818 20.2609L5.31818 12.4346ZM13 20.5H18.5455C18.5525 20.5 18.5754 20.4997 18.6101 20.4627C18.6463 20.4243 18.6818 20.3564 18.6818 20.2609V12.4348L13 12.4346L13 20.5ZM13 10.9346H19.5V8.71741H13V10.9346ZM11.5 8.71741H4.5V10.9346H11.5V8.71741Z"/>
</svg>
