<svg width="24" height="24" viewBox="0 0 24 24" fill="currentColor" xmlns="http://www.w3.org/2000/svg">
<path d="M19 4.5H5C3.34 4.5 2 5.84 2 7.5V16.5C2 18.16 3.34 19.5 5 19.5H19C20.66 19.5 22 18.16 22 16.5V7.5C22 5.84 20.66 4.5 19 4.5ZM20.5 7.5V11.25H16.77C17.22 10.57 17.46 9.54 16.99 8.62C16.47 7.6 15.28 7.17 14.37 7.27C13.76 7.34 13.2 7.64 12.74 8.11V6H18.99C19.82 6 20.49 6.67 20.49 7.5H20.5ZM8.36 9.31C8.56 8.92 9.05 8.76 9.38 8.76C9.41 8.76 9.45 8.76 9.48 8.76C10.09 8.83 10.76 9.59 10.93 10.77C9.85 11.15 8.88 10.94 8.52 10.46C8.34 10.22 8.15 9.72 8.36 9.31ZM13.09 10.78C13.26 9.61 13.93 8.84 14.54 8.77C14.85 8.73 15.44 8.88 15.66 9.31C15.87 9.72 15.68 10.23 15.5 10.46C15.13 10.94 14.17 11.15 13.09 10.77V10.78ZM5 6H11.25V8.1C10.8 7.64 10.25 7.34 9.64 7.28C8.74 7.18 7.55 7.61 7.02 8.63C6.55 9.55 6.78 10.58 7.24 11.26H3.5V7.51C3.5 6.68 4.17 6.01 5 6.01V6ZM3.5 16.5V12.75H9.59L7.81 14.24C7.49 14.51 7.45 14.98 7.72 15.3C7.87 15.48 8.08 15.57 8.29 15.57C8.46 15.57 8.63 15.51 8.77 15.39L11.24 13.32V18H5C4.17 18 3.5 17.33 3.5 16.5ZM19 18H12.75V13.3L15.24 15.39C15.38 15.51 15.55 15.57 15.72 15.57C15.93 15.57 16.15 15.48 16.29 15.3C16.56 14.98 16.52 14.51 16.2 14.24L14.42 12.75H20.5V16.5C20.5 17.33 19.83 18 19 18Z"/>
</svg>
