<svg>
  <g>
    <path d="M12,2 C17.5228475,2 22,6.4771525 22,12 C22,17.5228475 17.5228475,22 12,22 C6.4771525,22 2,17.5228475 2,12 C2,6.4771525 6.4771525,2 12,2 Z M15.0444923,16.0009823 L8.95550766,16.0009823 C9.60649927,18.7084847 10.851506,20.5 12,20.5 C13.148494,20.5 14.3935007,18.7084847 15.0444923,16.0009823 Z M7.41625668,16.0009748 L4.49822893,16.0002389 C5.45709224,17.7946731 7.0409713,19.2048157 8.95908929,19.9398898 C8.29167454,18.9143454 7.75726974,17.561511 7.41625668,16.0009748 Z M19.5017711,16.0002389 L16.5837433,16.0009748 C16.2427303,17.561511 15.7083255,18.9143454 15.041121,19.9382939 C16.9590287,19.2048157 18.5429078,17.7946731 19.5017711,16.0002389 Z M7.1576347,9.49912328 L3.87362471,9.49991381 C3.63073195,10.290361 3.5,11.1299135 3.5,12 C3.5,12.8704544 3.63084253,13.710349 3.87393288,14.5010888 L7.15776363,14.5018779 C7.05477698,13.7022627 7,12.8639252 7,12 C7,11.1364353 7.05473127,10.298437 7.1576347,9.49912328 Z M15.3278662,9.49906118 L8.67213383,9.49906118 C8.56152088,10.2855674 8.5,11.1244665 8.5,12 C8.5,12.8759062 8.56157327,13.7151469 8.67227512,14.5019433 L15.3277249,14.5019433 C15.4384267,13.7151469 15.5,12.8759062 15.5,12 C15.5,11.1244665 15.4384791,10.2855674 15.3278662,9.49906118 Z M20.1263753,9.49991381 L16.8423653,9.49912328 C16.9452687,10.298437 17,11.1364353 17,12 C17,12.8639252 16.945223,13.7022627 16.8422364,14.5018779 L20.1260671,14.5010888 C20.3691575,13.710349 20.5,12.8704544 20.5,12 C20.5,11.1299135 20.369268,10.290361 20.1263753,9.49991381 Z M8.95887903,4.06170608 L8.84000803,4.10678308 C6.97509688,4.85406715 5.43659853,6.243119 4.49769944,8.00075219 L7.4160388,8.00002236 C7.75704209,6.43906533 8.29153243,5.08587272 8.95887903,4.06170608 Z M12,3.5 C10.8513658,3.5 9.60619542,5.29195254 8.95526937,8.0000089 L15.0447306,8.0000089 C14.4141361,5.376538 13.2258396,3.61283613 12.1078934,3.50521805 L12,3.5 L12,3.5 Z M15.0412602,4.06024408 C15.7109535,5.09217013 16.2437512,6.44269683 16.5839612,8.00002236 L19.5023006,8.00075219 C18.5435491,6.20595511 16.9595742,4.79549093 15.0412602,4.06024408 Z" id="global_language" fill="#626B79"></path>
  </g>
</svg>