<svg width="24" height="24" viewBox="0 0 24 24" xmlns="http://www.w3.org/2000/svg">
  <circle cx="12" cy="12" r="9.25" fill="transparent" stroke="currentColor" stroke-width="1.5"/>
  <path fill-rule="evenodd" clip-rule="evenodd" d="M6.82457 9.87873C7.92399 8.70709 9.70635 8.70709 10.8056 9.87873L12.0001 11.1515L13.1944 9.87873C14.2936 8.70724 16.0761 8.70724 17.1754 9.87873C18.2749 11.0504 18.2749 12.9498 17.1754 14.1213C16.0761 15.2929 14.2936 15.2929 13.1944 14.1213L12.0001 12.8485L10.8056 14.1213C9.70635 15.2929 7.92399 15.2929 6.82457 14.1213C5.72514 12.9498 5.72514 11.0504 6.82457 9.87873ZM13.9903 10.7275L12.796 12.0002L13.9903 13.2731C14.6489 13.975 15.7204 13.975 16.3789 13.2731C17.0374 12.5713 17.0374 11.4293 16.3789 10.7275C15.7204 10.0258 14.6489 10.0257 13.9903 10.7275ZM7.62119 13.273C6.96261 12.5712 6.96261 11.4292 7.62119 10.7276C8.27964 10.0257 9.35133 10.0257 10.0098 10.7276L11.2042 12.0003L10.0098 13.273C9.35133 13.975 8.27964 13.975 7.62119 13.273Z"/>
</svg>
