<svg>
<path fill-rule="evenodd" clip-rule="evenodd" d="M13.8849 3.88185C13.8849 3.92943 13.8832 3.97466 13.8797 4.01766C17.8286 4.87823 20.7855 8.39445 20.7855 12.6013V13.309H20.9038C21.318 13.309 21.6538 13.6448 21.6538 14.059C21.6538 14.4732 21.318 14.809 20.9038 14.809H19.8149V20.4944H20.9038C21.318 20.4944 21.6538 20.8302 21.6538 21.2444C21.6538 21.6586 21.318 21.9944 20.9038 21.9944H3.0957C2.68149 21.9944 2.3457 21.6586 2.3457 21.2444C2.3457 20.8302 2.68149 20.4944 3.0957 20.4944H4.2485V14.809H3.0957C2.68149 14.809 2.3457 14.4732 2.3457 14.059C2.3457 13.6448 2.68149 13.309 3.0957 13.309H3.2153V12.6013C3.2153 8.39418 6.17263 4.87778 10.1219 4.01749C10.1184 3.97454 10.1167 3.92936 10.1167 3.88185C10.1167 2.84127 10.9602 1.99771 12.0008 1.99771C13.0414 1.99771 13.8849 2.84127 13.8849 3.88185ZM18.3149 14.809H15.1264V20.4944H18.3149V14.809ZM13.6264 14.809H10.4399V20.4944H13.6264V14.809ZM8.93991 14.809H5.7485V20.4944H8.93991V14.809ZM12 5.546C8.0236 5.546 4.80005 8.76955 4.80005 12.746V13.346H19.2V12.746C19.2 8.76955 15.9765 5.546 12 5.546Z"/>
</svg>
