<svg>
<path fill-rule="evenodd" clip-rule="evenodd" d="M3.2153 12.6053C3.2153 8.39818 6.17263 4.88177 10.1219 4.02149C10.1184 3.97854 10.1167 3.93336 10.1167 3.88585C10.1167 2.84527 10.9602 2.00171 12.0008 2.00171C13.0414 2.00171 13.8849 2.84527 13.8849 3.88585C13.8849 3.93342 13.8832 3.97866 13.8797 4.02166C17.8286 4.88223 20.7855 8.39845 20.7855 12.6053V13.313H20.9038C21.318 13.313 21.6538 13.6488 21.6538 14.063C21.6538 14.4772 21.318 14.813 20.9038 14.813H19.8149V20.4984H20.9038C21.318 20.4984 21.6538 20.8342 21.6538 21.2484C21.6538 21.6626 21.318 21.9984 20.9038 21.9984H3.0957C2.68149 21.9984 2.3457 21.6626 2.3457 21.2484C2.3457 20.8342 2.68149 20.4984 3.0957 20.4984H4.2485V14.813H3.0957C2.68149 14.813 2.3457 14.4772 2.3457 14.063C2.3457 13.6488 2.68149 13.313 3.0957 13.313H3.2153V12.6053ZM18.3149 14.813H15.1264V20.4984H18.3149V14.813ZM13.6264 14.813H10.4399V20.4984H13.6264V14.813ZM8.93991 14.813H5.7485V20.4984H8.93991V14.813ZM14.3379 8.04145C14.6308 7.74856 14.6309 7.27369 14.338 6.98079C14.0451 6.68789 13.5702 6.68788 13.2773 6.98077L9.66109 10.5968C9.36819 10.8897 9.36818 11.3646 9.66106 11.6575C9.95395 11.9504 10.4288 11.9504 10.7217 11.6575L14.3379 8.04145Z" />
</svg>
