<svg width="24" height="24" viewBox="0 0 24 24" fill="none" xmlns="http://www.w3.org/2000/svg">
<path fill-rule="evenodd" clip-rule="evenodd" d="M13.8849 3.88585C13.8849 3.93342 13.8832 3.97866 13.8797 4.02166C17.8286 4.88223 20.7855 8.39845 20.7855 12.6053V13.313H20.9038C21.318 13.313 21.6538 13.6488 21.6538 14.063C21.6538 14.4772 21.318 14.813 20.9038 14.813H19.8149V20.4984H20.9038C21.318 20.4984 21.6538 20.8342 21.6538 21.2484C21.6538 21.6626 21.318 21.9984 20.9038 21.9984H3.0957C2.68149 21.9984 2.3457 21.6626 2.3457 21.2484C2.3457 20.8342 2.68149 20.4984 3.0957 20.4984H4.2485V14.813H3.0957C2.68149 14.813 2.3457 14.4772 2.3457 14.063C2.3457 13.6488 2.68149 13.313 3.0957 13.313H3.2153V12.6053C3.2153 8.39818 6.17263 4.88177 10.1219 4.02149C10.1184 3.97854 10.1167 3.93336 10.1167 3.88585C10.1167 2.84527 10.9602 2.00171 12.0008 2.00171C13.0414 2.00171 13.8849 2.84527 13.8849 3.88585ZM18.3149 14.813H15.1264V20.4984H18.3149V14.813ZM13.6264 14.813H10.4399V20.4984H13.6264V14.813ZM8.93991 14.813H5.7485V20.4984H8.93991V14.813ZM12 5.55C8.0236 5.55 4.80005 8.77355 4.80005 12.75V13.35H19.2V12.75C19.2 8.77355 15.9765 5.55 12 5.55Z" fill="#E5AD07"/>
<path fill-rule="evenodd" clip-rule="evenodd" d="M14.2923 8.28034C14.5852 7.98746 14.5852 7.51258 14.2923 7.21968C13.9994 6.92678 13.5246 6.92677 13.2317 7.21966L9.61543 10.8357C9.32253 11.1286 9.32252 11.6035 9.61541 11.8964C9.9083 12.1893 10.3832 12.1893 10.6761 11.8964L14.2923 8.28034Z" fill="#E5AD07"/>
</svg>