<svg width="24" height="24" viewBox="0 0 24 24" xmlns="http://www.w3.org/2000/svg">
<rect transform="translate(0.96875)"/>
<path fill-rule="evenodd" clip-rule="evenodd" d="M14.8485 4.02166C14.8519 3.97866 14.8537 3.93342 14.8537 3.88585C14.8537 2.84527 14.0101 2.00171 12.9696 2.00171C11.929 2.00171 11.0854 2.84527 11.0854 3.88585C11.0854 3.93336 11.0872 3.97854 11.0906 4.02149C7.14138 4.88177 4.18405 8.39818 4.18405 12.6053V13.313H4.06445C3.65024 13.313 3.31445 13.6488 3.31445 14.063C3.31445 14.4772 3.65024 14.813 4.06445 14.813H5.21725V20.4984H4.06445C3.65024 20.4984 3.31445 20.8342 3.31445 21.2484C3.31445 21.6626 3.65024 21.9984 4.06445 21.9984H21.8725C22.2867 21.9984 22.6225 21.6626 22.6225 21.2484C22.6225 20.8342 22.2867 20.4984 21.8725 20.4984H20.7837V14.813H21.8725C22.2867 14.813 22.6225 14.4772 22.6225 14.063C22.6225 13.6488 22.2867 13.313 21.8725 13.313H21.7543V12.6053C21.7543 8.39845 18.7973 4.88223 14.8485 4.02166ZM16.0952 14.813H19.2837V20.4984H16.0952V14.813ZM11.4087 14.813H14.5952V20.4984H11.4087V14.813ZM6.71725 14.813H9.90866V20.4984H6.71725V14.813Z"/>
</svg>
