<svg width="24" height="24" viewBox="0 0 24 24" xmlns="http://www.w3.org/2000/svg">
<path d="M12.0106 8.02154C12.0106 6.07665 10.434 4.5 8.48907 4.5C6.54418 4.5 4.96753 6.07665 4.96753 8.02154C4.96753 9.96643 6.54418 11.5431 8.48907 11.5431C10.434 11.5431 12.0106 9.96643 12.0106 8.02154Z"/>
<path d="M18.9172 9.93516C18.9172 8.31071 17.6003 6.99383 15.9758 6.99383C14.3514 6.99383 13.0345 8.31071 13.0345 9.93516C13.0345 11.5596 14.3514 12.8765 15.9758 12.8765C17.6003 12.8765 18.9172 11.5596 18.9172 9.93516Z"/>
<path d="M13.8369 19.5C14.5259 19.5 15.0946 18.9569 14.9868 18.2992C14.9855 18.2913 14.9842 18.2834 14.9829 18.2755C14.9675 18.1833 14.9504 18.0915 14.9315 18C14.9261 17.9739 14.9206 17.9479 14.9149 17.9219C14.8333 17.5468 14.7225 17.1786 14.5832 16.8212C14.5729 16.7947 14.5624 16.7682 14.5518 16.7418C14.4275 16.4337 14.2829 16.1361 14.1192 15.8512C14.1006 15.8189 14.0818 15.7868 14.0628 15.7548C13.8241 15.3542 13.5473 14.9796 13.2363 14.6372C13.2097 14.608 13.183 14.579 13.1559 14.5503C12.5445 13.9002 11.8186 13.3846 11.0198 13.0328C10.2209 12.6811 9.36468 12.5 8.5 12.5C7.63532 12.5 6.7791 12.6811 5.98024 13.0328C5.18138 13.3846 4.45552 13.9002 3.8441 14.5503C3.23267 15.2003 2.74767 15.9719 2.41677 16.8212C2.2311 17.2977 2.096 17.7935 2.01316 18.2992C1.90544 18.9569 2.47412 19.5 3.16314 19.5L13.8369 19.5Z"/>
<path d="M21.0158 19.5L15.7056 19.5C15.9443 19.127 16.06 18.6644 15.9737 18.1376C15.8797 17.5636 15.7262 17.0003 15.515 16.4582C15.176 15.588 14.6935 14.7863 14.0887 14.0911C14.1805 14.0436 14.2736 13.9988 14.3679 13.9567C15.0439 13.6552 15.7683 13.5 16.5 13.5C17.2317 13.5 17.9561 13.6552 18.6321 13.9567C19.3081 14.2583 19.9223 14.7002 20.4396 15.2574C20.957 15.8145 21.3674 16.4759 21.6474 17.2039C21.8045 17.6123 21.9188 18.0372 21.9889 18.4707C22.08 19.0345 21.5988 19.5 21.0158 19.5Z"/>
</svg>
