<svg width="24" height="24" viewBox="0 0 24 24" xmlns="http://www.w3.org/2000/svg">
<path fill-rule="evenodd" clip-rule="evenodd" d="M18.9172 9.93516C18.9172 8.31071 17.6003 6.99383 15.9758 6.99383C14.3514 6.99383 13.0345 8.31071 13.0345 9.93516C13.0345 11.5596 14.3514 12.8765 15.9758 12.8765C17.6003 12.8765 18.9172 11.5596 18.9172 9.93516ZM14.35 9.93C14.35 9.01873 15.0887 8.28 16 8.28C16.9113 8.28 17.65 9.01873 17.65 9.93C17.65 10.8413 16.9113 11.58 16 11.58C15.0887 11.58 14.35 10.8413 14.35 9.93Z"/>
<path fill-rule="evenodd" clip-rule="evenodd" d="M12.0106 8.02154C12.0106 6.07665 10.434 4.5 8.48907 4.5C6.54418 4.5 4.96753 6.07665 4.96753 8.02154C4.96753 9.96643 6.54418 11.5431 8.48907 11.5431C10.434 11.5431 12.0106 9.96643 12.0106 8.02154ZM6.37613 8.02156C6.37613 6.85463 7.32212 5.90864 8.48905 5.90864C9.65599 5.90864 10.602 6.85463 10.602 8.02156C10.602 9.1885 9.65599 10.1345 8.48905 10.1345C7.32212 10.1345 6.37613 9.1885 6.37613 8.02156Z"/>
<path fill-rule="evenodd" clip-rule="evenodd" d="M13.3915 18C13.3349 17.7845 13.2662 17.5727 13.1856 17.3658C12.9229 16.6917 12.5402 16.0849 12.0633 15.578C11.5866 15.0712 11.0257 14.6745 10.4152 14.4056C9.80501 14.1369 9.15451 14 8.5 14C7.84549 14 7.19499 14.1369 6.58476 14.4056C5.97426 14.6745 5.41338 15.0712 4.93669 15.578C4.45983 16.0849 4.07707 16.6917 3.81443 17.3658C3.73381 17.5727 3.66508 17.7845 3.60854 18L13.3915 18ZM14.9868 18.2992C15.0946 18.9569 14.5259 19.5 13.8369 19.5L3.16314 19.5C2.47412 19.5 1.90544 18.9569 2.01316 18.2992C2.096 17.7935 2.2311 17.2977 2.41677 16.8212C2.74767 15.9719 3.23267 15.2003 3.8441 14.5503C4.45552 13.9002 5.18138 13.3846 5.98024 13.0328C6.7791 12.6811 7.63532 12.5 8.5 12.5C9.36468 12.5 10.2209 12.6811 11.0198 13.0328C11.8186 13.3846 12.5445 13.9002 13.1559 14.5503C13.7673 15.2003 14.2523 15.9719 14.5832 16.8212C14.7689 17.2977 14.904 17.7935 14.9868 18.2992Z"/>
<path d="M14.9868 18.2992C15.0946 18.9569 14.5259 19.5 13.8369 19.5H21.0158C21.5988 19.5 22.08 19.0345 21.9889 18.4707C21.9188 18.0372 21.8045 17.6123 21.6474 17.2039C21.3674 16.4759 20.957 15.8145 20.4396 15.2574C19.9223 14.7002 19.3081 14.2583 18.6321 13.9567C17.9561 13.6552 17.2317 13.5 16.5 13.5C15.7683 13.5 15.0439 13.6552 14.3679 13.9567C13.9665 14.1358 13.5868 14.3644 13.2363 14.6372C13.5722 15.007 13.8681 15.4142 14.1192 15.8512C14.3868 15.6378 14.6757 15.4619 14.979 15.3266C15.4649 15.1098 15.9814 15 16.5 15C17.0186 15 17.5351 15.1098 18.021 15.3266C18.5073 15.5435 18.9568 15.8649 19.3404 16.278C19.7243 16.6914 20.0342 17.1882 20.2473 17.7424C20.28 17.8273 20.3102 17.9132 20.3381 18L14.9315 18C14.952 18.0993 14.9704 18.199 14.9868 18.2992Z"/>
</svg>
