<svg version="1.1" id="layer" xmlns="http://www.w3.org/2000/svg" x="0" y="0" viewBox="0 0 652 652" xml:space="preserve"><style>.st0{fill:#413691}</style><g id="Page-1"><g id="logo_hawaiian_airlines_logoroll"><g id="hawaiian_airlines_logo" transform="translate(0 8)"><g id="g556" transform="translate(0 9.931)"><g id="Group"><g id="g558"><g id="g564" transform="translate(76.64 18.091)"><path id="path566" class="st0" d="M379.7 361c0-.4-.2-.6-.6-.6h-.8c-.1 0-.1 0-.1.1v.9c0 .1 0 .1.1.1h.8c.4 0 .6-.2.6-.5zm-2.1 2.7c-.1 0-.1-.1-.1-.1V360c0-.1.1-.1.1-.1h1.5c.9 0 1.4.4 1.4 1.2 0 .6-.3.9-.8 1.1l.8 1.5c.1.1 0 .1-.1.1h-.4c-.1 0-.1-.1-.2-.1l-.8-1.4h-.7c-.1 0-.1 0-.1.1v1.4c0 .1-.1.1-.1.1h-.5v-.2zm4.2-1.9c0-1.7-1.3-2.9-2.9-2.9-1.7 0-2.9 1.2-2.9 2.9s1.3 2.9 2.9 2.9c1.6-.1 2.9-1.3 2.9-2.9zm-6.5 0c0-2 1.5-3.5 3.5-3.5s3.5 1.5 3.5 3.5-1.5 3.6-3.5 3.6c-2-.1-3.5-1.6-3.5-3.6z"/></g><g id="g568" transform="translate(.024 .074)"><path id="path570" class="st0" d="M71.6 274.7v53.7c0 2.4 0 5.8-3.3 5.8h-9.1v-24.3H32.7v18.5c0 2.4.2 5.8-3.1 5.8h-9.3v-53.7c0-2.4 0-5.8 3.3-5.8h9.1v25.6h26.6v-19.8c0-2.3-.2-5.8 3.1-5.8h9.2z"/></g><g id="g572" transform="translate(10.285 .066)"><path id="path574" class="st0" d="M106.2 308.3l-8.5-25-12.1 33 .5.1c1.6-3 5.6-8.2 12.6-8.2l7.5.1zm19.7 25.9H115l-5.7-16.6H85.6l-4.1 12.2c-.7 1.9-1.6 4.4-4.7 4.4h-9l19.4-54.6c.7-1.9 1.6-4.9 4.9-4.9h14.7l20.5 57.6c.3 1.1-.2 1.9-1.4 1.9z"/></g><g id="g576" transform="translate(20.347 .074)"><path id="path578" class="st0" d="M200.7 274.7l-19.8 55.1c-.4 1.2-1.2 4.4-4.3 4.4H169l-11.3-31.7-10 27.4c-.4 1.2-1.2 4.4-4.3 4.4h-8.3l-20.5-57.6c-.4-1.2.2-1.9 1.4-1.9h10.9l14.8 44.3 10.7-31.6-3.9-10.8c-.4-1.2.2-1.9 1.4-1.9h11l13.7 43.1 11.9-38.8c.6-1.9 1.6-4.3 4.7-4.3h9.5v-.1z"/></g><g id="g580" transform="translate(35.039 .066)"><path id="path582" class="st0" d="M220.5 308.3l-8.5-25-12.1 33 .5.1c1.6-3 5.6-8.2 12.6-8.2l7.5.1zm19.7 25.9h-10.9l-5.7-16.6H200l-4.1 12.2c-.7 1.9-1.6 4.4-4.7 4.4h-9l19.4-54.6c.7-1.9 1.6-4.9 4.9-4.9h14.7l20.5 57.6c.3 1.1-.3 1.9-1.5 1.9z"/></g><g id="g584" transform="translate(46.761 .142)"><path id="path586" class="st0" d="M236.9 280.4c0-2.4 0-5.8 2.9-5.8h9.5V328.3c0 2.4 0 5.8-2.9 5.8h-9.5v-53.7z"/></g><g id="g588" transform="translate(51.237 .142)"><path id="path590" class="st0" d="M257.6 280.4c0-2.4 0-5.8 2.9-5.8h9.5V328.3c0 2.4 0 5.8-2.9 5.8h-9.5v-53.7z"/></g><g id="g592" transform="translate(54.549 .066)"><path id="path594" class="st0" d="M311.4 308.3l-8.5-25-12.1 33 .5.1c1.6-3 5.6-8.2 12.6-8.2l7.5.1zm19.7 25.9h-10.9l-5.7-16.6h-23.7l-4.1 12.2c-.7 1.9-1.6 4.4-4.7 4.4h-9l19.4-54.6c.7-1.9 1.6-4.9 4.9-4.9H312l20.5 57.6c.4 1.1-.2 1.9-1.4 1.9z"/></g><g id="g596" transform="translate(66.315 .074)"><path id="path598" class="st0" d="M379.9 274.7v53.7c0 2.4 0 5.8-2.9 5.8h-7.8l-29.4-39.3v33.5c0 2.4 0 5.8-3.2 5.8h-8.8v-53.7c0-2.4 0-5.8 2.9-5.8h8.1l29.1 40.1v-34.3c0-2.4-.5-5.8 2.8-5.8h9.2z"/></g><g id="g600" transform="translate(37.523 14.054)"><path id="path602" class="st0" d="M211.2 358.8l-4.7-13.5h-.1l-4.8 13.5h9.6zm-6.7-18.8c.1-.2.2-.4.5-.4h2.9c.3 0 .5.2.6.4l10.3 28.9c.1.2-.1.4-.3.4h-3.1c-.3 0-.5-.1-.6-.4l-2.3-6.5h-12.2l-2.3 6.5c-.1.3-.3.4-.6.4h-3.1c-.3 0-.4-.2-.3-.4l10.5-28.9z"/></g><g id="g604" transform="translate(43.575 14.112)"><path id="path606" class="st0" d="M222.2 339.9c0-.2.2-.4.4-.4h3c.3 0 .4.2.4.4v28.9c0 .2-.2.4-.4.4h-3c-.3 0-.4-.2-.4-.4v-28.9z"/></g><g id="g608" transform="translate(46.73 14.117)"><path id="path610" class="st0" d="M253.4 348c0-3.1-2.1-4.9-5.6-4.9h-7.1c-.2 0-.3.1-.3.2v9.4c0 .2.1.2.3.2h7.1c3.5.1 5.6-1.8 5.6-4.9zm.7 21.2c-.3 0-.4-.1-.6-.4l-6-12.2h-6.7c-.2 0-.3.1-.3.2v11.9c0 .2-.2.4-.4.4h-3c-.3 0-.4-.2-.4-.4v-28.9c0-.2.2-.4.4-.4H248c5.6 0 9.4 3.4 9.4 8.5 0 4.1-2.3 7-5.9 8.1l6.4 12.5c.2.2.1.5-.3.5l-3.5.2z"/></g><g id="g612" transform="translate(52.526 14.112)"><path id="path614" class="st0" d="M263.5 339.9c0-.2.2-.4.4-.4h3c.3 0 .4.2.4.4v25.4c0 .2.1.2.3.2H282c.3 0 .4.2.4.4v2.7c0 .2-.2.4-.4.4h-18.1c-.3 0-.4-.2-.4-.4v-28.7z"/></g><g id="g616" transform="translate(57.409 14.112)"><path id="path618" class="st0" d="M286.4 339.9c0-.2.2-.4.4-.4h3c.3 0 .4.2.4.4v28.8c0 .2-.2.4-.4.4h-3c-.3 0-.4-.2-.4-.4v-28.8z"/></g><g id="g620" transform="translate(60.564 14.112)"><path id="path622" class="st0" d="M300.9 339.9c0-.2.2-.4.4-.4h2.8c.4 0 .6.1.8.4l13.6 22.3h.2v-22.3c0-.2.2-.4.4-.4h2.8c.3 0 .4.2.4.4v28.9c0 .2-.2.4-.4.4h-2.8c-.3 0-.6-.1-.8-.4l-13.7-22.2h-.1v22.2c0 .2-.2.4-.4.4h-2.8c-.3 0-.4-.2-.4-.4v-28.9z"/></g><g id="g624" transform="translate(66.763 14.112)"><path id="path626" class="st0" d="M329.8 339.9c0-.2.2-.4.4-.4h18.1c.3 0 .4.2.4.4v2.7c0 .2-.2.4-.4.4H334c-.2 0-.3.1-.3.2v8.7c0 .2.1.2.3.2h12.2c.3 0 .4.2.4.4v2.7c0 .2-.2.4-.4.4H334c-.2 0-.3.1-.3.2v9c0 .2.1.2.3.2h14.3c.3 0 .4.2.4.4v2.7c0 .2-.2.4-.4.4h-18.1c-.3 0-.4-.2-.4-.4v-28.2z"/></g><g id="g628" transform="translate(71.902 13.971)"><path id="path630" class="st0" d="M353.7 366.1c-.2-.2-.3-.4-.1-.7l2-2.2c.2-.2.4-.2.6-.1 2 1.6 5 3.1 8.4 3.1 4.2 0 6.6-2.1 6.6-5.1 0-2.6-1.5-4.2-6.3-4.9l-1.5-.2c-5.9-.8-8.8-3.6-8.8-8.2 0-5.3 3.9-8.7 9.8-8.7 3.5 0 6.9 1.1 9.2 2.7.3.2.3.4.1.6l-1.5 2.4c-.2.2-.4.2-.6.1-2.5-1.5-4.7-2.2-7.3-2.2-3.7 0-5.7 2-5.7 4.8 0 2.5 1.7 4.2 6.3 4.7l1.5.2c5.9.8 8.8 3.4 8.8 8.3 0 5.2-3.7 9-11 9-4.2.2-8.3-1.6-10.5-3.6"/></g></g></g></g><g id="Group_1_" transform="translate(79.448)"><g id="g638" transform="translate(0 .113)"><g id="g644"><g id="g646"><linearGradient id="path656_1_" gradientUnits="userSpaceOnUse" x1="-28.51" y1="727.608" x2="-28.731" y2="724.43" gradientTransform="matrix(17.9654 0 0 -30.4448 952.382 22396.922)"><stop offset="0" stop-color="#d2068a"/><stop offset=".737" stop-color="#413691"/><stop offset="1" stop-color="#413691"/></linearGradient><path id="path656" d="M388.7 299.4c0 35 25.5 64.1 59.1 69.9-.3 2.5-.6 4.9-1 6.8-2.3 11.2-10.1 21.5-14.4 24 11.3-1 20.3-4.3 25.7-9.5-.4 0-3.9-.1-4.2-.1 2.1-.8 4.3-1.8 6.3-3 .8-6.5.5-14.3-1.2-23.9-2.3-12.4-7-16.6-7.8-17.4l-.1-.1c0-.1.1-.1.2-.1 4-2.5 7.5-5.4 9.1-6.8 1.2-1 .8-1.5-.5-1-3.4 1.5-8.9 3.4-16 4.3-6.2.8-13.6.6-21.6-.9 0 0-5.6-.8-4.8-6.4.2-1.6 1-3.2 1.7-4.8.2-.5.7-2 .5-3.2-.1-.3-.5-.9-.7-1.2-.4-.6-.6-1.5-.1-2.5.4-.8 1.8-2.1 3.9-2.3 1-.1 2.1-.1 3.3-.1 1.5 0 3 0 4.2-.2 3.2-.6 5.2-2.7 4.8-3.4-.3-.4-3.2.1-4.1.3-1.4.3-4.1-.9-5.5-1.3-2.1-.7-3.3-1.2-5.1-.4-1.2.5-2.1 2.8-2.4 1.7-.1-.5.1-1 .5-1.6.4-.6 1.2-1.6 1.2-2.2.1-.6.3-1.6-1.6-2.9-1.4-1-2.3-1.6-2.8-2.2-1.8-1.8-2.1-3.6 1.4-6.5 2.5-2 7.9-7.5 9.5-10.9.3-.5 1.6-2.6.1-4.8-1.1-1.6-1.3-1.9-1.6-2.5-.8-1.5-.3-2.9 1.1-4.9.6-1 1.2-2.2 2.5-6.3 1.6-4.7 3.9-8.8 7.3-12.3.3-.7.6-6.1 3.8-11.1 1-2 2.5-4.1 4.3-6.1 1.3-1.3 3.3-2.9 5.9-4.4 2.7-1.5 5.9-3 9.8-4.1 4.6-1.3 10-2.2 16-2.2 4.5.1 8.7.4 13.8 1.7l.6.2c-9.1-4.2-19.1-6.5-29.8-6.5-39.3.2-71.3 32-71.3 71.2m28.5 8.7c-.1.3.1.4.4.5 1.3.6 1.9.9 4.3 2.3 2.8 1.6 4 .3 4.6-.8.2-.3.4-1.5.1-1.8-.3-.4-.8-.1-1.3.4-.6.6-2.1.3-2.6.2-.5-.1-2.8-.6-4.2-.9-.3-.1-.5-.1-.7-.1-.4 0-.6 0-.6.2" fill="url(#path656_1_)"/></g></g></g><g id="g660" transform="translate(6.994)"><g id="g666" transform="translate(.01 8.04)"><path id="path668" class="st0" d="M442.7 267.4c-.4-.1-9.8-2.2-13-2-3.2.2-5.8 2-7.5 3.9-.9 1-1.3 2-1.5 2.9-.1 1.5 1 2.2 2.2 1.8.9-.3 1.6-1 2.6-2.3.6-.9 1-2 1.9-2.5 1.5-1 4.1-1.1 8.3-1.1 3.2.1 5.9.3 6.5.3 1.3-.1 1-.9.5-1"/></g><g id="g670" transform="translate(.724 9.183)"><path id="path672" class="st0" d="M436.5 274.8c-1.7-1-4.1-1-4.6-1.1-.5-.1-.6-.6.1-.9 1-.4 2.8-.1 2.8-.4.1-.3-.3-.9-1.7-1.4-.7-.3-2.1-.4-3.2-.4-2.9.3-4.5 2.1-4.8 2.4-.3.3-.8.8-1 1.6-.2 1 .5 1.8 1.1 2.7.3.5.6.9.7 1.2.1.5.1.8-.4 1.1-.5.4-.2 1.1.8.8 1.2-.3 1.8-.6 2.7-1.4 1.2-1 1.2-1.7 2.1-2.5.8-.8 3.6-.8 5-.6 1.8.4 2.2 0 .4-1.1"/></g><g id="g674" transform="translate(1.361 .815)"><path id="path676" class="st0" d="M524.1 296.5c0-3.2-.9-9.5-1.1-10.8-.4-3.8-1.3-9.1-4.3-16.5-3.2-8-5.9-13.6-13.9-21.4-9.4-9.1-20.5-12.9-23.1-13.6-.4-.1-.6-.2-.6-.2-5-1.3-9.3-1.6-13.8-1.7-15.9-.3-27.6 6.3-31.7 10.7-1.9 2-3.3 4.1-4.3 6.1-3.2 5-3.6 10.5-3.8 11.1.3-.2 4.1-4.4 8.4-5.6 1 1.7 3.3 4 7.7 6.2 4.5 2.3 9.5 3.6 9.5 3.6s6.2 1.8 12.5 3.9c5 1.8 10.2 8.1 10.2 9.5 0 2.7-2.7 5.3-5.4 13.5-2.9 8.8-3.9 17.2-3 27v.2c.6 5.8 1.9 12.2 3.8 19.5 1.6 5.9 2.1 11.8 1.9 17.4-1.4 14.5-10.4 25.4-21.2 31.5-2.1 1.1-4.1 2.2-6.3 3 .3 0 3.9.1 4.2.1 9.1-.1 21.9-1.8 32.9-13.1 3.8-3.9 6.8-8 8.7-11.9.8-1.6 4-7.3 5.9-18.7.3-1.5 1-6.4 1-6.4s.5 3.5.6 6.6c.1 4.3.3 9.6-2.3 17.7.9-.2 5.2-3.3 10.2-10.1 1.9-2.5 3.6-5 5.1-7.7 7.2-11.3 12.4-24.6 12.2-49.9"/></g><g id="g678" transform="translate(5.977 .048)"><path id="path680" d="M480.1 272.4c-.1.5.1.6.6.3 2-1.6 5.2-3.9 9.7-4.8 5.4-1 8.3-3.5 9.8-6.4.8-1.7 1.5-4.9 4.1-6.7.8-.6 0-.8-.7-.7-.6.1-4.2 1.1-6.5 3.5-1.6-1.6-1.4-3.8-1.2-5.1.1-.4-.2-.6-.7-.3-1.7 1.4-2.9 3.2-3.3 4.5 0 0-1.4-1-.6-3.4.1-.4-.2-.3-.3-.1-2.5 1.8-2.3 4.5-2.3 4.8 0 0-2.5-1.4-6.4-1.9-.6-2.5-4.8-3.2-5.5-.6-.6 2.3 3.4 4.1 5.1 2.2 0 0 5.5.6 10.3 5.3.5.5.6.9.3 1.1-.2.2-.9-.2-1.8-.8-1-.6-7.6-4.8-13.3-2-.3.1-.3.4-.1.4 1.1.3 3.5 1.1 4.1 2.7-1.6.4-4 1.3-5.8 4.9-.5 1 .1 1.1.6.7.6-.4 4.2-2.3 5.5-2.2.1.3-1.1 2-1.6 4.6m45.7-26.7c-.2 1.8.3 6.9 1.7 11.5 1.5 4.9-1.2 9.4-5.7 11.9-1.4-2.2-4.3-3.2-6.9-3.4-1.5-.1-1.1.6-.3.8 10.6 4.4 6.9 16.5 5.5 19.1-1.4 2.6-1 6.1-1 6.1-3.3-1-6.3-.3-9 .1-5.2.8-8.8-.1-11.5-1.3-2.2-1-5.6-3.2-6.1-7.4-.1-.8-.6-1.3-.9.1-.5 2.5-.1 5.5 1.6 7.4-1.9 9.5-20.9 8.8-20.9 8.8-1.2-4.1-9.9-5.3-11.8-11.3-.9-2.8-.2-5.8-.2-5.8 5 1.1 7.8-1.1 9.4-3.1.9-1.1.2-1.2-.5-.8-6.3 3.9-12.1 0-13.3-5.5-1.6-6-7.6-8-7.6-8 4.3-2.7 3.1-7.3 5.4-11.2 5.9-10.3 14.4-7.2 14.4-7.2.8 2.5 3.3 4.3 5.8 4.9 1.4.4 1.2-.3.6-.8-6-4.3-4.5-11 .2-14.1 8.3-5.5 9.7-7.9 9.7-7.9 1.5 1.1 5.6 2.1 9.8 2.5 9.5.8 11.7 5.6 11.9 7.5-1.1.6-3 2.3-3.9 5.1-.5 1.4.3 1.2.8.6 3.7-4.9 8.2-4 12.5-2.1 2.5 1.2 6.4 4.3 10.3 3.5" fill="#ef3138"/></g></g></g></g></g></g></svg>