<svg>
<path d="M12.0155 11.2354C12.0071 11.379 12.1212 11.5 12.2651 11.5L13.8933 11.5C14.0667 11.5 14.1875 11.6723 14.1283 11.8353L12.2868 16.9098C12.1886 17.1804 11.7861 17.098 11.8022 16.8106L11.9854 13.5356C11.9934 13.3933 11.881 13.2732 11.7385 13.2716L10.1071 13.2539C9.93359 13.252 9.81472 13.0782 9.8759 12.9158L11.7131 8.03866C11.814 7.77057 12.2133 7.8554 12.1966 8.14139L12.0155 11.2354Z"/>
<path fill-rule="evenodd" clip-rule="evenodd" d="M10.1667 2C9.58808 2 9.11905 2.44772 9.11905 3V3.5H8.59524C7.43807 3.5 6.5 4.39543 6.5 5.5V20C6.5 21.1046 7.43807 22 8.59524 22H15.4048C16.5619 22 17.5 21.1046 17.5 20V5.5C17.5 4.39543 16.5619 3.5 15.4048 3.5H14.881V3C14.881 2.44772 14.4119 2 13.8333 2H10.1667ZM10.619 5V3.5H13.381V5H15.4048C15.8 5 16 5.28885 16 5.5V20C16 20.2111 15.8 20.5 15.4048 20.5H8.59524C8.19997 20.5 8 20.2111 8 20V5.5C8 5.28885 8.19997 5 8.59524 5H10.619Z"/>
</svg>
