<svg width="24" height="24" viewBox="0 0 24 24" xmlns="http://www.w3.org/2000/svg">
<path d="M5.34995 2C5.83035 2 6.1313 2.39466 6.29716 2.72639C6.30154 2.73515 6.30567 2.74404 6.30952 2.75304L6.90952 4.15304L6.91419 4.1643C7.14037 4.72974 7.24995 5.34364 7.24995 6V7.64996H3.44995V6C3.44995 5.34352 3.55977 4.72968 3.78576 4.16439C3.78727 4.1606 3.78884 4.15682 3.79045 4.15306L4.39037 2.75306C4.39423 2.74405 4.39835 2.73516 4.40274 2.72639C4.56861 2.39466 4.86955 2 5.34995 2Z" />
<path d="M3.45 8.64996V10.5689L2.77566 12.5919C2.75866 12.6429 2.75 12.6963 2.75 12.75V19.56C2.52176 19.6063 2.34998 19.8081 2.34998 20.05C2.34998 20.3261 2.57383 20.55 2.84998 20.55H3.24392L3.25 20.55H7.45L7.45608 20.55H7.94998C8.22612 20.55 8.44998 20.3261 8.44998 20.05C8.44998 19.7739 8.22613 19.55 7.95 19.55V12.75C7.95 12.6963 7.94134 12.6429 7.92434 12.5919L7.25 10.5689V8.64996H3.45Z" />
<path d="M16.7 7.64996H20.5V6C20.5 5.34364 20.3904 4.72974 20.1642 4.1643L20.1595 4.15304L19.5595 2.75304C19.5557 2.74404 19.5515 2.73515 19.5472 2.72639C19.3813 2.39466 19.0804 2 18.6 2C18.1195 2 17.8186 2.39466 17.6527 2.72639C17.6484 2.73516 17.6442 2.74405 17.6404 2.75306L17.0404 4.15306L17.038 4.15898L17.0358 4.16439C16.8098 4.72968 16.7 5.34352 16.7 6V7.64996Z" />
<path d="M20.4999 8.64996H16.6999V10.5689L16.0255 12.5919C16.0085 12.6429 15.9999 12.6963 15.9999 12.75V19.5525C15.7472 19.5776 15.5499 19.7907 15.5499 20.05C15.5499 20.3261 15.7738 20.55 16.0499 20.55H16.4938L16.4999 20.55H20.6999L20.706 20.55H21.1499C21.4261 20.55 21.6499 20.3261 21.6499 20.05C21.6499 19.7907 21.4526 19.5775 21.1999 19.5525V12.75C21.1999 12.6963 21.1912 12.6429 21.1742 12.5919L20.4999 10.5689V8.64996Z" />
<path d="M13.875 9.14996V7.5C13.875 6.84364 13.7654 6.22974 13.5392 5.6643L13.5345 5.65304L12.9345 4.25304C12.9307 4.24404 12.9265 4.23515 12.9222 4.22639C12.7563 3.89466 12.4554 3.5 11.975 3.5C11.4945 3.5 11.1936 3.89466 11.0277 4.22639C11.0234 4.23516 11.0192 4.24405 11.0154 4.25306L10.4154 5.65306C10.4138 5.65682 10.4123 5.6606 10.4108 5.66439C10.1848 6.22968 10.075 6.84352 10.075 7.5V9.14996H13.875Z" />
<path d="M13.875 10.15H10.075V12.0689L9.40066 14.0919C9.38366 14.1429 9.375 14.1963 9.375 14.25V21.05H9.34998C9.07383 21.05 8.84998 21.2738 8.84998 21.55C8.84998 21.8261 9.07383 22.05 9.34998 22.05H9.86892L9.875 22.05H14.075L14.0811 22.05H14.45C14.7261 22.05 14.95 21.8261 14.95 21.55C14.95 21.317 14.7906 21.1213 14.575 21.0657V14.25C14.575 14.1963 14.5663 14.1429 14.5493 14.0919L13.875 12.0689V10.15Z" />
</svg>
