<svg>
<path fill-rule="evenodd" clip-rule="evenodd" d="M12.5402 2C13.7038 2.00008 14.6396 2.89621 14.6398 4V10.999C15.3256 10.9938 15.88 10.4371 15.88 9.75V6.25C15.88 5.00748 16.8875 4.0002 18.13 4C19.3726 4 20.38 5.00736 20.38 6.25V8.25C20.38 8.66421 20.0442 9 19.63 9C19.216 8.9998 18.88 8.66409 18.88 8.25V6.25C18.88 5.83579 18.5442 5.5 18.13 5.5C17.716 5.5002 17.38 5.83591 17.38 6.25V9.75C17.38 11.2655 16.1541 12.4938 14.6398 12.499V20C14.6398 21.1039 13.7039 21.9999 12.5402 22H5.72961C4.56616 21.9996 3.63 21.1037 3.63 20V4C3.63018 2.8964 4.56626 2.00039 5.72961 2H12.5402ZM7.4054 18.6025C6.99135 18.6027 6.6554 18.9384 6.6554 19.3525C6.6554 19.7666 6.99135 20.1023 7.4054 20.1025H10.9054C11.3194 20.1023 11.6554 19.7666 11.6554 19.3525C11.6554 18.9385 11.3194 18.6028 10.9054 18.6025H7.4054ZM9.28528 6.21094C9.30115 5.98083 8.98415 5.91707 8.90442 6.13086L7.4425 10.0068C7.39516 10.1337 7.49043 10.2761 7.62512 10.2764L8.92004 10.293C9.03116 10.293 9.11829 10.3879 9.11829 10.499L8.97571 13.1035C8.95984 13.3336 9.28478 13.3975 9.35657 13.1836L10.8175 9.15723C10.8652 9.03017 10.77 8.88672 10.6271 8.88672H9.33313L9.34094 8.87109C9.22991 8.87109 9.13504 8.77603 9.1427 8.66504L9.28528 6.21094Z"/>
</svg>
