<svg width="24" height="24" viewBox="0 0 24 24" xmlns="http://www.w3.org/2000/svg">
<path fill-rule="evenodd" clip-rule="evenodd" d="M14.865 1.88104C15.0023 1.91141 15.1194 1.98149 15.2059 2.06801L15.2252 2.08727L15.9664 2.97029L16.0322 2.90806C16.1136 2.83013 16.2695 2.71996 16.494 2.71996C16.7282 2.71996 16.8878 2.8399 16.9659 2.91802L16.9719 2.92399L16.9777 2.93012C17.2057 3.17083 18.279 4.40833 18.279 6.36996C18.279 7.17532 17.9906 7.98316 17.4957 8.61999H17.8339C18.4194 8.61999 18.9739 9.08808 18.9739 9.73998V11.35H20.394C20.8082 11.35 21.144 11.6858 21.144 12.1V19.3325C21.144 20.7941 19.9608 21.9925 18.484 21.9925H11.604C10.1423 21.9925 8.94398 20.8092 8.94398 19.3325V12.8656L7.75681 13.3024C6.4761 13.7887 5.05858 13.138 4.57328 11.8676L4.57239 11.8653L2.66328 6.81765L2.66279 6.81638C2.17398 5.53477 2.82474 4.11512 4.09624 3.62938L4.10758 3.62515L6.19758 2.86515C6.27974 2.83528 6.36648 2.82 6.45389 2.82L6.45389 3.57C6.45389 2.82 6.45389 2.82 6.45389 2.82L6.45477 2.82L6.45567 2.82L6.45749 2.82001L6.46127 2.82003L6.46935 2.82015C6.47497 2.82026 6.48111 2.82045 6.48772 2.82072C6.50081 2.82128 6.51646 2.82225 6.5341 2.82395C6.56706 2.82714 6.61788 2.83392 6.67748 2.85017C6.74258 2.86793 7.0822 2.96654 7.21827 3.3423L10.2382 11.35H11.1239V9.73998C11.1239 9.1003 11.6556 8.61999 12.2639 8.61999H12.5922C12.0973 7.98316 11.809 7.17532 11.809 6.36996C11.809 5.2199 12.4055 4.17425 12.9642 3.43548C13.5225 2.6972 14.1125 2.175 14.2787 2.03275C14.4826 1.84913 14.7263 1.85037 14.865 1.88104ZM13.2401 7.27753C13.2789 7.13599 13.3283 6.99977 13.3807 6.87345C13.5028 6.57879 13.6624 6.28842 13.8185 6.03349C14.1163 5.54738 14.4294 5.14605 14.519 5.03122L14.5306 5.01625C14.5465 4.99579 14.5637 4.97634 14.582 4.95802C14.8167 4.72331 15.1026 4.77108 15.1619 4.78267C15.3115 4.8064 15.4487 4.88398 15.5464 5.00264C15.6276 5.10127 15.9568 5.51562 16.2694 6.02599C16.4259 6.28137 16.5855 6.57263 16.7077 6.86882C16.7603 6.99627 16.8097 7.13354 16.8484 7.2761C16.9637 6.9965 17.029 6.68917 17.029 6.36996C17.029 5.42381 16.6993 4.69931 16.4231 4.25872L16.3472 4.33047C16.0838 4.57955 15.665 4.55542 15.4319 4.27773L14.673 3.3737C14.4644 3.5834 14.2085 3.86251 13.9612 4.18944C13.4574 4.85568 13.059 5.63002 13.059 6.36996C13.059 6.68971 13.1245 6.99755 13.2401 7.27753ZM4.62667 5.03249L6.05648 4.51256L8.64534 11.3772L7.23492 11.8961L7.22624 11.8994C6.7285 12.0895 6.16933 11.8407 5.97489 11.3333L5.97451 11.3323L4.06539 6.28468L4.06451 6.28235C3.87485 5.78588 4.12187 5.2283 4.62667 5.03249ZM12.6239 10.12V11.35H17.4739V10.12H12.6239ZM10.444 12.85H19.644V19.3325C19.644 19.9708 19.1272 20.4925 18.484 20.4925H11.604C10.9656 20.4925 10.444 19.9757 10.444 19.3325V12.85ZM14.8844 6.68643C14.9383 6.59847 14.9929 6.5135 15.0464 6.43308C15.0982 6.51111 15.1512 6.59356 15.2035 6.67893C15.3396 6.90105 15.4637 7.13104 15.5521 7.34547C15.6441 7.56841 15.679 7.73068 15.679 7.82996C15.679 8.0391 15.5939 8.1911 15.4704 8.30013C15.3348 8.41982 15.1654 8.47496 15.044 8.47496C14.9047 8.47496 14.7362 8.42048 14.6107 8.31293C14.5004 8.21834 14.409 8.07245 14.409 7.82996C14.409 7.73419 14.4433 7.5744 14.5354 7.3521C14.6239 7.13864 14.7481 6.909 14.8844 6.68643Z"/>
</svg>
