<svg>
<path d="M16.75 3.1C17.1919 3.1 17.55 2.74183 17.55 2.3C17.55 1.85817 17.1919 1.5 16.75 1.5C16.3082 1.5 15.95 1.85817 15.95 2.3C15.95 2.74183 16.3082 3.1 16.75 3.1Z"/>
<path d="M14.35 4.5C14.7919 4.5 15.15 4.14183 15.15 3.7C15.15 3.25817 14.7919 2.9 14.35 2.9C13.9082 2.9 13.55 3.25817 13.55 3.7C13.55 4.14183 13.9082 4.5 14.35 4.5Z"/>
<path d="M17.55 4.9C17.55 4.46 17.19 4.1 16.75 4.1C16.31 4.1 15.95 4.46 15.95 4.9C15.95 5.34 16.31 5.7 16.75 5.7C17.19 5.7 17.55 5.34 17.55 4.9Z"/>
<path fill-rule="evenodd" clip-rule="evenodd" d="M6.30005 9.60009C6.11785 9.46326 6 9.24539 6 9C6 8.58579 6.33579 8.25 6.75 8.25H7.10005V8.09998C7.10005 6.61924 8.2818 5.40475 9.75005 5.35178V5.34998H10.3V4.90001H9.75V2.70001H12.35V4.90001H11.8V5.34998H12.45C13.9643 5.34998 15.2 6.58576 15.2 8.09998V8.25H15.45C15.8642 8.25 16.2 8.58579 16.2 9C16.2 9.24535 16.0822 9.46318 15.9 9.60002V20.8C15.9 21.1939 15.7106 21.525 15.4929 21.7428C15.2751 21.9606 14.944 22.15 14.55 22.15H7.65005C7.25612 22.15 6.92498 21.9606 6.70722 21.7428C6.48946 21.525 6.30005 21.1939 6.30005 20.8V9.60009ZM9.85005 6.84998C9.16426 6.84998 8.60005 7.41419 8.60005 8.09998V8.24998H13.7V8.09998C13.7 7.41419 13.1358 6.84998 12.45 6.84998H9.85005ZM7.80005 9.75V20.65H14.4V9.75H7.80005Z"/>
</svg>
