<svg width="24" height="24" viewBox="0 0 24 24" xmlns="http://www.w3.org/2000/svg">
<path d="M15.5968 4.48C15.969 3.82882 15.9686 3.82861 15.9686 3.82861C16.0411 3.87005 16.1066 3.92354 16.1616 3.98643L17.9047 5.98089L18.351 5.52522L18.3565 5.51967C18.6794 5.19678 19.2043 5.19678 19.5272 5.51967L19.5348 5.52741C19.9249 5.92901 21.9268 8.13909 21.9268 11.61C21.9268 14.7306 19.3945 17.41 16.1468 17.41C15.2274 17.41 14.3512 17.1915 13.5775 16.7988C13.2081 16.6114 13.0606 16.16 13.248 15.7906C13.4355 15.4212 13.8869 15.2737 14.2562 15.4612C14.8225 15.7485 15.4663 15.91 16.1468 15.91C18.5392 15.91 20.4268 13.9294 20.4268 11.61C20.4268 9.4642 19.5011 7.89165 18.9061 7.10226L18.4727 7.54478C18.3894 7.62985 18.287 7.69386 18.174 7.73151C18.174 7.73151 18.174 7.73151 17.9368 7.02L18.174 7.73151L18.1729 7.73189L18.1717 7.73228L18.1692 7.73311L18.1636 7.73492L18.15 7.73914C18.14 7.74216 18.1275 7.74575 18.1132 7.74952C18.0862 7.75662 18.0444 7.76653 17.9942 7.77371C17.9493 7.78013 17.8657 7.78921 17.7654 7.77807C17.6784 7.7684 17.468 7.73179 17.2865 7.55033C17.2747 7.53846 17.2632 7.5262 17.2521 7.51356L15.4692 5.47362C15.0891 5.81676 14.551 6.33743 14.0047 6.98054C13.1119 8.03158 12.2572 9.34026 11.9704 10.6863C11.884 11.0914 11.4856 11.3499 11.0805 11.2635C10.6754 11.1772 10.417 10.7788 10.5033 10.3737C10.8665 8.66974 11.9068 7.13342 12.8615 6.00945C13.8261 4.87379 14.7647 4.08834 15.0168 3.88559C15.0234 3.88028 15.0301 3.87508 15.0368 3.87C15.3546 3.63172 15.6929 3.72313 15.7576 3.74111C15.8173 3.75771 15.8654 3.77763 15.8968 3.79195C15.9134 3.79954 15.9278 3.80669 15.9396 3.81282C15.9455 3.81591 15.951 3.81882 15.9558 3.82149L15.9628 3.82533L15.966 3.82712L15.9675 3.82798L15.9686 3.82861L15.5968 4.48Z" />
<path fill-rule="evenodd" clip-rule="evenodd" d="M15.0729 8.81358C16.3618 8.19655 18.0699 8.62936 18.844 10.1376C19.2177 10.8657 19.284 11.6301 19.0444 12.3237C18.8077 13.0089 18.2974 13.5542 17.645 13.909C16.9767 14.2723 15.9908 14.4077 15.2836 14.4674C14.9083 14.4991 14.5686 14.5122 14.3229 14.5174C14.2301 14.5194 14.1501 14.5202 14.0862 14.5205L4.61845 19.6125C3.77513 20.06 2.69773 19.7607 2.24884 18.8809C2.2399 18.8634 2.23167 18.8455 2.22416 18.8274L2.21129 18.8043L2.20744 18.7972C1.74473 17.943 2.08558 16.8824 2.9197 16.4306L2.92166 16.4295L12.4393 11.3107C12.4832 11.2561 12.5414 11.1844 12.6113 11.1C12.7739 10.9036 13.0016 10.636 13.2609 10.3525C13.5191 10.0704 13.8156 9.76491 14.1154 9.49629C14.4049 9.23687 14.7399 8.973 15.0729 8.81358ZM3.63412 17.7495L3.63348 17.7498C3.50898 17.8178 3.46973 17.975 3.5252 18.0806L3.57253 18.1658C3.58404 18.1865 3.59452 18.2077 3.60398 18.2293C3.66573 18.3103 3.79214 18.3521 3.91408 18.2882L3.91538 18.2875L12.904 13.4532L12.6188 12.9173L3.63412 17.7495Z" />
</svg>
