<svg>
<path d="M10.38 17.5C10.7942 17.5 11.13 17.8358 11.13 18.25C11.13 18.6642 10.7942 19 10.38 19H7.88C7.46579 19 7.13 18.6642 7.13 18.25C7.13 17.8358 7.46579 17.5 7.88 17.5H10.38Z"/>
<path fill-rule="evenodd" clip-rule="evenodd" d="M12.5343 2C13.6915 2 14.63 2.89543 14.63 4V11C15.3204 11 15.88 10.4404 15.88 9.75V6.25C15.88 5.00736 16.8874 4 18.13 4C19.3726 4 20.38 5.00736 20.38 6.25V8.25C20.38 8.66421 20.0442 9 19.63 9C19.2158 9 18.88 8.66421 18.88 8.25V6.25C18.88 5.83579 18.5442 5.5 18.13 5.5C17.7158 5.5 17.38 5.83579 17.38 6.25V9.75C17.38 11.2688 16.1488 12.5 14.63 12.5V20C14.63 21.1046 13.6915 22 12.5343 22H5.72571C4.56854 22 3.63 21.1046 3.63 20V4C3.63 2.89543 4.56854 2 5.72571 2H12.5343ZM5.72571 3.5C5.33044 3.5 5.13 3.78885 5.13 4V20C5.13 20.2111 5.33044 20.5 5.72571 20.5H12.5343C12.9296 20.5 13.13 20.2111 13.13 20V4C13.13 3.78885 12.9296 3.5 12.5343 3.5H5.72571Z"/>
<path d="M9.14187 9.03325C9.13393 9.14442 9.22922 9.23972 9.3404 9.23972L9.33246 9.2556H10.6269C10.7698 9.2556 10.8651 9.39854 10.8175 9.5256L9.35628 13.5518C9.28481 13.7662 8.95922 13.7027 8.9751 13.4724L9.11804 10.8677C9.11804 10.7565 9.03069 10.6612 8.91951 10.6612L7.62509 10.6453C7.49009 10.6453 7.3948 10.5024 7.44244 10.3753L8.90363 6.49999C8.98304 6.28558 9.30069 6.34911 9.28481 6.57941L9.14187 9.03325Z"/>
</svg>
