<svg width="24" height="24" viewBox="0 0 24 24" xmlns="http://www.w3.org/2000/svg">
<path d="M15.0174 3.8856C14.7653 4.08835 13.8267 4.8738 12.8621 6.00946C11.9073 7.13343 10.867 8.66975 10.5039 10.3737C10.4176 10.7788 10.676 11.1772 11.0811 11.2635C11.4862 11.3499 11.8846 11.0914 11.9709 10.6863C12.2578 9.34027 13.1125 8.03159 14.0053 6.98055C14.5516 6.33744 15.0896 5.81677 15.4698 5.47363L17.2527 7.51357C17.3831 7.66279 17.5696 7.75626 17.766 7.77808C18.0177 7.80605 18.2941 7.72769 18.4732 7.54479L18.9066 7.10227C19.5017 7.89166 20.4274 9.46421 20.4274 11.61C20.4274 13.9294 18.5397 15.91 16.1474 15.91C15.4669 15.91 14.823 15.7485 14.2568 15.4612C13.8874 15.2738 13.4361 15.4212 13.2486 15.7906C13.0612 16.16 13.2087 16.6114 13.578 16.7988C14.3518 17.1915 15.2279 17.41 16.1474 17.41C19.3951 17.41 21.9274 14.7306 21.9274 11.61C21.9274 8.1391 19.9255 5.92902 19.5354 5.52742C19.2161 5.20349 18.6802 5.19658 18.3571 5.51968L17.9053 5.9809L16.1621 3.98644C15.8807 3.6644 15.3503 3.61782 15.0174 3.8856Z" />
<path fill-rule="evenodd" clip-rule="evenodd" d="M15.0735 8.8135C16.3624 8.19647 18.0705 8.62928 18.8446 10.1375C19.2183 10.8656 19.2846 11.63 19.045 12.3236C18.8083 13.0089 18.298 13.5542 17.6456 13.9089C16.9773 14.2722 15.9914 14.4077 15.2842 14.4673C14.9089 14.499 14.5692 14.5121 14.3235 14.5173C14.2306 14.5193 14.1507 14.5202 14.0868 14.5205L4.61888 19.6125C3.77555 20.06 2.69815 19.7607 2.24927 18.8809C2.23512 18.8531 2.22286 18.8245 2.20787 18.7972C1.74516 17.943 2.08601 16.8824 2.92013 16.4305L2.92209 16.4295L12.4399 11.3106C12.4839 11.2559 12.542 11.1843 12.6119 11.1C12.7745 10.9035 13.0022 10.6359 13.2615 10.3525C13.5197 10.0703 13.8162 9.76483 14.116 9.49622C14.4055 9.2368 14.7405 8.97293 15.0735 8.8135ZM13.8341 11.9763L14.3896 13.0152C14.601 13.0093 14.8689 12.997 15.1581 12.9726C15.8734 12.9123 16.5674 12.7877 16.9291 12.5911C17.3067 12.3858 17.5315 12.1111 17.6272 11.8338C17.7201 11.565 17.7164 11.2243 17.5101 10.8225C17.1243 10.0707 16.3123 9.88349 15.7212 10.1665C15.5842 10.232 15.3767 10.3807 15.1169 10.6134C14.8673 10.837 14.6076 11.1034 14.3682 11.365C14.1632 11.589 13.9783 11.8039 13.8341 11.9763ZM3.63455 17.7495L3.6339 17.7498C3.50941 17.8177 3.47016 17.975 3.52563 18.0806C3.55284 18.1296 3.58191 18.1779 3.6044 18.2293C3.66616 18.3103 3.79257 18.3521 3.91451 18.2882L3.9158 18.2875L12.9044 13.4532L12.6192 12.9173L3.63455 17.7495Z" />
</svg>
