<svg width="24" height="24" viewBox="0 0 24 24" xmlns="http://www.w3.org/2000/svg">
<path d="M16.7449 3.1C17.1868 3.1 17.5449 2.74183 17.5449 2.3C17.5449 1.85817 17.1868 1.5 16.7449 1.5C16.3031 1.5 15.9449 1.85817 15.9449 2.3C15.9449 2.74183 16.3031 3.1 16.7449 3.1Z"/>
<path d="M14.345 4.50002C14.7869 4.50002 15.145 4.14185 15.145 3.70002C15.145 3.2582 14.7869 2.90002 14.345 2.90002C13.9032 2.90002 13.545 3.2582 13.545 3.70002C13.545 4.14185 13.9032 4.50002 14.345 4.50002Z"/>
<path d="M17.5449 4.89998C17.5449 4.45998 17.1849 4.09998 16.7449 4.09998C16.3049 4.09998 15.9449 4.45998 15.9449 4.89998C15.9449 5.33998 16.3049 5.69998 16.7449 5.69998C17.1849 5.69998 17.5449 5.33998 17.5449 4.89998Z" fill="#626B79"/>
<path d="M9.745 2.70001H12.345V4.90001H11.795V5.34998H12.445C13.9593 5.34998 15.195 6.58576 15.195 8.09998V8.25H15.445C15.8592 8.25 16.195 8.58579 16.195 9C16.195 9.41421 15.8592 9.75 15.445 9.75H6.745C6.33078 9.75 5.995 9.41421 5.995 9C5.995 8.58579 6.33078 8.25 6.745 8.25H7.09504V8.09998C7.09504 6.61923 8.2768 5.40475 9.74504 5.35178V5.34998H10.295V4.90001H9.745V2.70001Z"/>
<path d="M6.29504 20.8V10.75H15.895V20.8C15.895 21.1939 15.7056 21.5251 15.4879 21.7428C15.2701 21.9606 14.939 22.15 14.545 22.15H7.64504C7.25112 22.15 6.91997 21.9606 6.70221 21.7428C6.48445 21.5251 6.29504 21.1939 6.29504 20.8Z"/>
</svg>
