<svg>
<path d="M4 2C3.58579 2 3.25 2.33579 3.25 2.75C3.25 3.16421 3.58579 3.5 4 3.5H6.45943L6.92555 4.89834L6.8672 4.90488C6.18113 4.98172 5.68726 5.60018 5.76411 6.28625L5.85332 7.0828L10.3202 6.53592L10.2361 5.78535C10.1593 5.09928 9.54084 4.60541 8.85477 4.68226L8.44978 4.72762L7.71151 2.51283C7.60943 2.20657 7.32282 2 7 2H4Z"/>
<path fill-rule="evenodd" clip-rule="evenodd" d="M5.25696 8.16328C4.25387 8.28608 3.5 9.13788 3.5 10.1485V20C3.5 21.1046 4.39543 22 5.5 22H18.5C19.6046 22 20.5 21.1046 20.5 20V6C20.5 4.89543 19.6046 4 18.5 4H14.4164C13.7405 4 13.1104 4.34135 12.7412 4.90746L11.1466 7.35256C11.1063 7.41434 11.0407 7.45517 10.9675 7.46414L5.25696 8.16328ZM14.8 6.17499C14.4549 6.17499 14.175 6.45481 14.175 6.79999C14.175 7.14517 14.4549 7.42499 14.8 7.42499H17.6C17.9452 7.42499 18.225 7.14517 18.225 6.79999C18.225 6.45481 17.9452 6.17499 17.6 6.17499H14.8ZM12 16.0833C11.2709 16.0833 10.5417 15.4583 10.5417 14.625C10.5417 14.103 10.9709 13.2284 11.8293 12.0012C11.8433 11.9812 11.8607 11.9639 11.8806 11.9499C11.9677 11.889 12.085 11.9039 12.1544 11.9807L12.1708 12.0012L12.2299 12.0863C13.0489 13.2689 13.4584 14.1151 13.4584 14.625C13.4584 15.4583 12.7292 16.0833 12 16.0833Z"/>
</svg>
