<svg>
<path fill-rule="evenodd" clip-rule="evenodd" d="M11.91 3.75C11.4958 3.75 11.16 4.08579 11.16 4.5V6.68587C11.7782 6.35909 12.4395 6.11306 13.1293 5.95782C13.4257 5.89112 13.72 6.07729 13.7867 6.37363C13.8534 6.66998 13.6672 6.96428 13.3708 7.03097C12.6496 7.1933 11.9636 7.4711 11.3357 7.84963C10.9709 8.07096 10.6311 8.32364 10.3181 8.60564C10.2735 8.64584 10.2294 8.68664 10.1858 8.72804L7.99718 7.99848C7.99148 7.99658 7.98576 7.99475 7.98003 7.99299C7.70052 7.90706 7.40738 7.99291 7.217 8.19234L5.97502 9.43432L5.0907 8.55L6.10035 7.54034C6.39325 7.24745 6.39325 6.77257 6.10035 6.47968C5.80746 6.18679 5.33259 6.18679 5.03969 6.47968L3.50271 8.01666L3.4997 8.01966L3.49671 8.02267L2.11969 9.39968C1.8268 9.69257 1.8268 10.1674 2.11969 10.4603C2.41259 10.7532 2.88746 10.7532 3.18035 10.4603L4.03004 9.61066L4.91436 10.495L3.59968 11.8097C3.30843 12.1009 3.30679 12.5728 3.59572 12.8663L4.39108 13.6742C4.8741 14.1647 5.52761 14.8282 6.20959 15.5202C7.57213 16.9027 9.05221 18.4029 9.50968 18.8603C10.9545 20.3052 12.9121 20.97 14.63 20.97C18.6742 20.97 22 17.6442 22 13.6C22 12.8485 21.885 12.1146 21.6687 11.4192C20.9805 9.58729 19.4494 8.04924 17.6788 7.37796C17.3947 7.27028 17.2518 6.95274 17.3594 6.66871C17.4671 6.38468 17.7847 6.24172 18.0687 6.34939C18.7429 6.60499 19.3885 6.96824 19.98 7.41727V4.5C19.98 4.08579 19.6442 3.75 19.23 3.75H11.91ZM14.83 9.17499C15.1751 9.17499 15.455 9.45481 15.455 9.79999V11.62C15.455 11.9652 15.1751 12.245 14.83 12.245C14.4848 12.245 14.205 11.9652 14.205 11.62V9.79999C14.205 9.45481 14.4848 9.17499 14.83 9.17499ZM10.7016 11.4802C10.8671 11.1773 11.2469 11.066 11.5498 11.2315L13.1598 12.1115C13.4626 12.2771 13.574 12.6568 13.4084 12.9597C13.2429 13.2626 12.8631 13.3739 12.5602 13.2084L10.9502 12.3284C10.6473 12.1628 10.536 11.7831 10.7016 11.4802ZM13.3476 14.6388C13.5139 14.9412 13.4036 15.3213 13.1011 15.4876L11.5011 16.3676C11.1987 16.534 10.8187 16.4236 10.6523 16.1212C10.486 15.8187 10.5963 15.4387 10.8987 15.2724L12.4987 14.3924C12.8012 14.226 13.1812 14.3363 13.3476 14.6388ZM14.67 15.455C15.0152 15.455 15.295 15.7348 15.295 16.08V17.89C15.295 18.2352 15.0152 18.515 14.67 18.515C14.3249 18.515 14.045 18.2352 14.045 17.89V16.08C14.045 15.7348 14.3249 15.455 14.67 15.455ZM16.0916 14.7402C16.2571 14.4373 16.6369 14.326 16.9398 14.4915L18.5498 15.3715C18.8527 15.5371 18.964 15.9168 18.7984 16.2197C18.6329 16.5226 18.2531 16.634 17.9503 16.4684L16.3403 15.5884C16.0374 15.4228 15.926 15.0431 16.0916 14.7402ZM18.8359 11.5584C19.0135 11.8544 18.9175 12.2383 18.6215 12.4159L17.0715 13.3459C16.7755 13.5235 16.3916 13.4275 16.214 13.1315C16.0364 12.8355 16.1324 12.4516 16.4284 12.274L17.9784 11.344C18.2744 11.1665 18.6583 11.2624 18.8359 11.5584Z"/>
</svg>
