<svg width="24" height="24" viewBox="0 0 24 24" xmlns="http://www.w3.org/2000/svg">
<path d="M8.89491 3.1445C8.91952 2.73102 8.60428 2.37588 8.1908 2.35126C7.77732 2.32665 7.42217 2.64189 7.39756 3.05537L7.29755 4.73537C7.27294 5.14885 7.58818 5.504 8.00166 5.52861C8.41514 5.55323 8.77029 5.23799 8.7949 4.8245L8.89491 3.1445Z" />
<path d="M2.70078 6.99128C2.28729 6.96667 1.93215 7.28191 1.90754 7.69539C1.88293 8.10887 2.19817 8.46402 2.61165 8.48863L4.29166 8.58863C4.70514 8.61324 5.06028 8.298 5.0849 7.88451C5.10951 7.47103 4.79427 7.11589 4.38078 7.09128L2.70078 6.99128Z" />
<path d="M3.95046 3.71715C4.26127 3.44334 4.7352 3.47333 5.00901 3.78414L6.11901 5.04415C6.39282 5.35496 6.36282 5.82888 6.05201 6.10269C5.7412 6.3765 5.26728 6.3465 4.99347 6.03569L3.88347 4.77569C3.60966 4.46488 3.63966 3.99095 3.95046 3.71715Z" />
<path d="M20.3301 4.32003C20.3232 4.31989 20.3164 4.31985 20.3096 4.31992L13.8596 4.37991C13.473 4.38351 13.1625 4.69981 13.1661 5.08639C13.1697 5.47298 13.486 5.78345 13.8726 5.77985L14.4626 5.77436L11.8124 8.4634L22.0572 8.43215L22.0461 6.03662C22.046 6.02838 22.0458 6.02015 22.0455 6.01191C22.0268 5.54319 21.7888 5.13212 21.5044 4.84955C21.2203 4.56722 20.8051 4.32953 20.3301 4.32003Z" />
<path d="M22.0619 9.43214L10.8239 9.46642L8.38753 11.9385C8.13859 12.1911 8.12072 12.585 8.33207 12.8579L19.745 12.8227L20.6733 11.8822L20.6761 12.4731C20.6779 12.8597 20.9927 13.1717 21.3793 13.1699C21.7659 13.1681 22.0779 12.8532 22.0761 12.4666L22.0619 9.43214Z" />
<path d="M18.7551 13.8258L9.33372 13.8548L10.0802 14.5912C9.79918 14.8474 9.42431 15.1904 9.01644 15.5667C8.16284 16.3541 7.15163 17.2993 6.55899 17.8971L6.55717 17.8989C6.1017 18.3617 5.63135 18.4587 5.1969 18.3938C4.72832 18.3239 4.26581 18.0557 3.93801 17.7319L3.93695 17.7309C3.70604 17.5037 3.40281 17.0704 3.32124 16.5544C3.24688 16.084 3.34084 15.4577 4.04536 14.7406L7.73503 10.9909L7.73698 10.9889C8.82392 9.87545 8.8139 8.09449 7.70804 7.00196C7.43302 6.73026 6.98981 6.73294 6.71811 7.00796C6.4464 7.28298 6.44909 7.72619 6.72411 7.99789C7.27795 8.54506 7.28822 9.44343 6.73607 10.01L6.73518 10.011L3.04679 13.7593C2.05161 14.772 1.79029 15.836 1.93842 16.773C2.07922 17.6637 2.57521 18.3548 2.95415 18.7279C3.44635 19.2141 4.16885 19.6559 4.99027 19.7785C5.84548 19.9061 6.76972 19.6783 7.55406 18.8819C8.12156 18.3096 9.10978 17.3853 9.96572 16.5957C10.3919 16.2025 10.7821 15.8457 11.0658 15.5871L11.0782 15.5758L11.9624 16.4481L7.97768 20.4884C7.70621 20.7636 7.70927 21.2068 7.98452 21.4783C8.25977 21.7498 8.70298 21.7467 8.97445 21.4714L12.9591 17.4313L13.5945 18.0582C13.8697 18.3297 14.3128 18.3267 14.5843 18.0516L18.7551 13.8258Z" />
</svg>
