<svg width="24" height="24" viewBox="0 0 24 24" xmlns="http://www.w3.org/2000/svg">
<path fill-rule="evenodd" clip-rule="evenodd" d="M14.8646 1.88095C15.0019 1.91131 15.1189 1.9814 15.2055 2.06792L15.2247 2.08718L15.9659 2.9702L16.0318 2.90797C16.1131 2.83003 16.2691 2.71987 16.4935 2.71987C16.7278 2.71987 16.8874 2.83981 16.9655 2.91793L16.9714 2.9239L16.9773 2.93003C17.2053 3.17074 18.2785 4.40823 18.2785 6.36987C18.2785 7.17522 17.9902 7.98307 17.4953 8.61989H17.8335C18.419 8.61989 18.9735 9.08798 18.9735 9.73989V10.35H11.1235V9.73989C11.1235 9.10021 11.6552 8.61989 12.2635 8.61989H12.5918C12.0969 7.98307 11.8085 7.17522 11.8085 6.36987C11.8085 5.21981 12.4051 4.17415 12.9638 3.43539C13.5221 2.6971 14.112 2.17491 14.2782 2.03266C14.4821 1.84904 14.7259 1.85028 14.8646 1.88095ZM14.6726 3.37361C14.464 3.58331 14.208 3.86242 13.9608 4.18935C13.457 4.85558 13.0585 5.62993 13.0585 6.36987C13.0585 6.90371 13.2412 7.40432 13.5345 7.7976C13.5339 7.77817 13.5335 7.75855 13.5335 7.73876C13.5335 7.47607 13.616 7.19261 13.7266 6.92585C13.8387 6.65554 13.9876 6.3834 14.1378 6.13818C14.347 5.79675 14.5802 5.47094 14.8262 5.15528C14.9279 5.0245 15.1508 5.02147 15.2565 5.14984C15.331 5.24029 15.6486 5.64003 15.9492 6.13068C16.0995 6.37608 16.2485 6.64896 16.3606 6.92062C16.4712 7.18888 16.5535 7.47397 16.5535 7.73876C16.5535 7.75858 16.5532 7.77821 16.5525 7.79767C16.8458 7.40438 17.0285 6.90374 17.0285 6.36987C17.0285 5.42372 16.6989 4.69921 16.4227 4.25863L16.3468 4.33038C16.0833 4.57946 15.6645 4.55533 15.4314 4.27764L14.6726 3.37361Z"/>
<path fill-rule="evenodd" clip-rule="evenodd" d="M10.2377 11.3499L7.21784 3.34225C7.08178 2.96649 6.74216 2.86788 6.67705 2.85012C6.60397 2.83019 6.52914 2.82013 6.45346 2.81995C6.36605 2.81995 6.27931 2.83523 6.19716 2.8651L4.10716 3.6251L4.09581 3.62933C2.82431 4.11507 2.17355 5.53472 2.66236 6.81632L2.66285 6.8176L4.57196 11.8653L4.57285 11.8676C5.05815 13.1379 6.47568 13.7887 7.75638 13.3024L8.94354 12.8656V19.3324C8.94354 20.8091 10.1419 21.9924 11.6035 21.9924H18.4835C19.9603 21.9924 21.1435 20.794 21.1435 19.3324V12.0999C21.1435 11.6898 20.8145 11.3566 20.406 11.35L10.2377 11.3499Z"/>
</svg>
