<svg width="24" height="24" viewBox="0 0 24 24" xmlns="http://www.w3.org/2000/svg">
<path d="M8.89446 3.14454C8.91907 2.73105 8.60383 2.37591 8.19035 2.35129C7.77687 2.32668 7.42172 2.64192 7.39711 3.0554L7.2971 4.7354C7.27249 5.14888 7.58773 5.50403 8.00121 5.52864C8.41469 5.55326 8.76984 5.23802 8.79445 4.82454L8.89446 3.14454Z" />
<path fill-rule="evenodd" clip-rule="evenodd" d="M20.3161 4.31992L13.8595 4.37998C13.473 4.38358 13.1625 4.69988 13.1661 5.08646C13.1697 5.47304 13.486 5.78351 13.8726 5.77992L14.4625 5.77443L8.38742 11.9386C8.11605 12.2139 8.11928 12.6571 8.39463 12.9285L8.39996 12.9337L10.0801 14.5912C9.79913 14.8475 9.42427 15.1905 9.01642 15.5667C8.16281 16.3542 7.15161 17.2994 6.55896 17.8971L6.55714 17.899C6.10168 18.3618 5.63132 18.4587 5.19687 18.3939C4.7283 18.324 4.26579 18.0558 3.93799 17.732L3.93693 17.7309C3.70601 17.5038 3.40279 17.0704 3.32122 16.5544C3.24685 16.084 3.34048 15.458 4.045 14.7409L7.73501 10.9909L7.73695 10.9889C8.8239 9.87549 8.81387 8.09453 7.70801 7.002C7.43299 6.73029 6.98979 6.73298 6.71808 7.008C6.44638 7.28302 6.44906 7.72622 6.72408 7.99793C7.27793 8.5451 7.2882 9.44347 6.73605 10.0101L6.73515 10.011L3.0471 13.759C2.05192 14.7717 1.79026 15.836 1.93839 16.773C2.07919 17.6637 2.57518 18.3548 2.95413 18.728C3.44633 19.2142 4.16882 19.656 4.99024 19.7785C5.84545 19.9062 6.7697 19.6783 7.55403 18.8819C8.12153 18.3096 9.10975 17.3853 9.9657 16.5957C10.3919 16.2025 10.7821 15.8457 11.0657 15.5871L11.0781 15.5758L11.9624 16.4482L7.97769 20.4884C7.70622 20.7637 7.70928 21.2069 7.98453 21.4783C8.25978 21.7498 8.70299 21.7467 8.97446 21.4715L12.959 17.4314L13.5944 18.0583C13.8696 18.3297 14.3127 18.3268 14.5843 18.0517L20.6733 11.8823L20.6761 12.4732C20.6779 12.8598 20.9927 13.1717 21.3793 13.1699C21.7659 13.1681 22.0779 12.8533 22.076 12.4667L22.0461 6.03996V6.03814C22.0451 5.0508 21.2742 4.31992 20.3161 4.31992ZM16.4463 5.75598L16.2101 5.99566L16.2046 6.0013L13.4829 8.76294L20.5828 8.72996C20.6084 8.72984 20.6337 8.7311 20.6586 8.73366L20.6461 6.04322L20.6461 6.03996C20.6461 5.84907 20.5262 5.721 20.3186 5.71996L16.4463 5.75598ZM20.4366 10.1307L12.0968 10.1694L9.87572 12.423L10.1157 12.6597L17.9768 12.6213L20.4078 10.1582C20.4172 10.1487 20.4268 10.1395 20.4366 10.1307ZM14.0794 16.5701L11.5278 14.0528L16.5884 14.0281L14.0794 16.5701Z" />
<path d="M1.90709 7.69542C1.9317 7.28194 2.28684 6.9667 2.70033 6.99131L4.38033 7.09131C4.79382 7.11592 5.10906 7.47106 5.08445 7.88454C5.05983 8.29803 4.70469 8.61327 4.29121 8.58866L2.6112 8.48866C2.19772 8.46405 1.88248 8.1089 1.90709 7.69542Z" />
<path d="M5.00881 3.78419C4.735 3.47338 4.26108 3.44338 3.95027 3.71719C3.63946 3.991 3.60946 4.46492 3.88327 4.77573L4.99327 6.03574C5.26708 6.34654 5.741 6.37654 6.05181 6.10273C6.36262 5.82893 6.39262 5.355 6.11881 5.04419L5.00881 3.78419Z" />
</svg>
