<svg>
<path d="M14.175 7.02502C14.175 6.61081 14.5108 6.27502 14.925 6.27502H17.425C17.8393 6.27502 18.175 6.61081 18.175 7.02502C18.175 7.43924 17.8393 7.77502 17.425 7.77502H14.925C14.5108 7.77502 14.175 7.43924 14.175 7.02502Z"/>
<path d="M10.5417 14.625C10.5417 15.4583 11.2709 16.0833 12 16.0833C12.7292 16.0833 13.4584 15.4583 13.4584 14.625C13.4584 14.1151 13.0489 13.2689 12.2299 12.0863L12.1708 12.0012L12.1544 11.9807C12.085 11.9039 11.9677 11.889 11.8806 11.9499C11.8607 11.9639 11.8433 11.9812 11.8293 12.0012C10.9709 13.2284 10.5417 14.103 10.5417 14.625Z"/>
<path fill-rule="evenodd" clip-rule="evenodd" d="M4 2C3.58579 2 3.25 2.33579 3.25 2.75C3.25 3.16421 3.58579 3.5 4 3.5H6.45943L6.92555 4.89835L6.86727 4.90488C6.1812 4.98172 5.68733 5.60018 5.76417 6.28625L5.96471 8.07663L5.25696 8.16328C4.25387 8.28608 3.5 9.13788 3.5 10.1485V20C3.5 21.1046 4.39543 22 5.5 22H18.5C19.6046 22 20.5 21.1046 20.5 20V6C20.5 4.89543 19.6046 4 18.5 4H14.4164C13.825 4 13.2686 4.26135 12.8914 4.70594C12.8376 4.76945 12.7873 4.8367 12.7412 4.90746L11.2097 7.25578C11.1291 7.37885 10.9985 7.46022 10.8525 7.47822L10.4316 7.52975L10.2362 5.78535C10.1594 5.09928 9.5409 4.60541 8.85484 4.68225L8.44978 4.72762L7.71151 2.51283C7.60943 2.20657 7.32282 2 7 2H4ZM18.9974 5.94888C18.9718 5.69675 18.7589 5.5 18.5 5.5H14.4164C14.2474 5.5 14.0899 5.58534 13.9976 5.72687L12.403 8.17196C12.1209 8.60443 11.6623 8.89028 11.1498 8.95302L5.43924 9.65216C5.18847 9.68286 5 9.89581 5 10.1485V20C5 20.2761 5.22386 20.5 5.5 20.5H18.5C18.7761 20.5 19 20.2761 19 20V6C19 5.98274 18.9991 5.96569 18.9974 5.94888ZM7.28268 6.36773L7.44965 7.85841L8.94033 7.69144L8.77336 6.20076L7.28268 6.36773Z"/>
</svg>
