<svg width="24" height="24" viewBox="0 0 24 24" xmlns="http://www.w3.org/2000/svg">
<path fill-rule="evenodd" clip-rule="evenodd" d="M5.34994 1.80002C5.9525 1.80002 6.30382 2.29254 6.47604 2.63697C6.48217 2.64923 6.48794 2.66167 6.49334 2.67427L7.09334 4.07427C7.09558 4.0795 7.09776 4.08476 7.09987 4.09004C7.33652 4.68166 7.44994 5.32112 7.44994 6.00002V8.14166L7.44999 8.15004V10.5364L8.11407 12.5287C8.13786 12.6001 8.14999 12.6748 8.14999 12.75V19.379C8.43912 19.4651 8.64996 19.7329 8.64996 20.05C8.64996 20.4366 8.33656 20.75 7.94996 20.75H7.45719L7.44999 20.75H3.24999L3.24279 20.75H2.84996C2.46336 20.75 2.14996 20.4366 2.14996 20.05C2.14996 19.7708 2.31348 19.5297 2.54999 19.4174V12.75C2.54999 12.6748 2.56212 12.6001 2.58591 12.5287L3.24999 10.5364V8.15838L3.24994 8.15002V6.00002C3.24994 5.32095 3.36361 4.68157 3.60003 4.09017C3.60216 4.08486 3.60435 4.07957 3.6066 4.07431L4.20652 2.67431C4.21193 2.66169 4.2177 2.64924 4.22384 2.63697C4.39606 2.29254 4.74738 1.80002 5.34994 1.80002ZM5.34995 3.56039L4.89698 4.61745C4.73558 5.02417 4.64994 5.48231 4.64994 6.00002V7.45002H6.04994V6.00002C6.04994 5.48212 5.96442 5.02404 5.80301 4.61753L5.34995 3.56039ZM4.64999 8.85002V10.65C4.64999 10.7253 4.63786 10.8 4.61407 10.8714L3.94999 12.8636V19.35H6.74999V12.8636L6.08591 10.8714C6.06212 10.8 6.04999 10.7253 6.04999 10.65V8.85002H4.64999Z" />
<path fill-rule="evenodd" clip-rule="evenodd" d="M16.4999 8.1398V6.00002C16.4999 5.32095 16.6136 4.68157 16.85 4.09017L16.8521 4.08513L16.8566 4.07431L17.4565 2.67431C17.4619 2.66169 17.4677 2.64924 17.4738 2.63697C17.6461 2.29254 17.9974 1.80002 18.5999 1.80002C19.2025 1.80002 19.5538 2.29254 19.726 2.63697C19.7322 2.64923 19.7379 2.66167 19.7433 2.67427L20.3433 4.07427C20.3456 4.0795 20.3478 4.08476 20.3499 4.09004C20.5865 4.68166 20.6999 5.32112 20.6999 6.00002V8.15002L20.6999 8.1602V10.5364L21.3639 12.5287C21.3877 12.6001 21.3999 12.6748 21.3999 12.75V19.396C21.663 19.4966 21.8499 19.7515 21.8499 20.05C21.8499 20.4366 21.5365 20.75 21.1499 20.75H20.7071L20.6999 20.75H16.4999L16.4927 20.75H16.0499C15.6633 20.75 15.3499 20.4366 15.3499 20.05C15.3499 19.7515 15.5368 19.4966 15.7999 19.396V12.75C15.7999 12.6748 15.812 12.6001 15.8358 12.5287L16.4999 10.5365V8.15004L16.4999 8.1398ZM19.9999 12.8636V19.35H17.1999V12.8636L17.8639 10.8714C17.8877 10.8 17.8999 10.7253 17.8999 10.65V8.85002H19.2999V10.65C19.2999 10.7253 19.312 10.8 19.3358 10.8714L19.9999 12.8636ZM18.147 4.61745L18.5999 3.56039L19.053 4.61753C19.2144 5.02404 19.2999 5.48212 19.2999 6.00002V7.45002H17.8999V6.00002C17.8999 5.48231 17.9856 5.02417 18.147 4.61745Z" />
<path fill-rule="evenodd" clip-rule="evenodd" d="M9.17499 20.8721V14.25C9.17499 14.1748 9.18712 14.1001 9.21091 14.0287L9.87499 12.0364V9.65836L9.87494 9.65002V7.50002C9.87494 6.82095 9.98861 6.18157 10.225 5.59017C10.2272 5.58486 10.2293 5.57957 10.2316 5.57431L10.8315 4.17431C10.8369 4.16169 10.8427 4.14924 10.8488 4.13697C11.0211 3.79254 11.3724 3.30002 11.9749 3.30002C12.5775 3.30002 12.9288 3.79254 13.101 4.13697C13.1072 4.14923 13.1129 4.16167 13.1183 4.17427L13.7183 5.57427C13.7206 5.5795 13.7228 5.58476 13.7249 5.59004C13.9615 6.18166 14.0749 6.82112 14.0749 7.50002V9.64162L14.075 9.65004V12.0364L14.7391 14.0287C14.7629 14.1001 14.775 14.1748 14.775 14.25V20.9299C14.9979 21.047 15.15 21.2807 15.15 21.55C15.15 21.9366 14.8366 22.25 14.45 22.25H14.0822C14.0798 22.25 14.0774 22.25 14.075 22.25H9.87499C9.87259 22.25 9.87019 22.25 9.86779 22.25H9.34996C8.96336 22.25 8.64996 21.9366 8.64996 21.55C8.64996 21.2238 8.87306 20.9498 9.17499 20.8721ZM11.275 12.15V10.35H12.675V12.15C12.675 12.2253 12.6871 12.3 12.7109 12.3714L13.375 14.3636V20.85H10.575V14.3636L11.2391 12.3714C11.2629 12.3 11.275 12.2253 11.275 12.15ZM11.9749 5.06039L11.522 6.11745C11.3606 6.52417 11.2749 6.98231 11.2749 7.50002V8.95002H12.6749V7.50002C12.6749 6.98212 12.5894 6.52404 12.428 6.11753L11.9749 5.06039Z" />
</svg>
