<svg>
<path fill-rule="evenodd" clip-rule="evenodd" d="M12.72 2.99997C12.72 2.60232 12.3977 2.27997 12 2.27997C11.6024 2.27997 11.28 2.60232 11.28 2.99997V3.51996H10.7525C10.4276 2.80757 9.7091 2.31244 8.875 2.31244C7.73591 2.31244 6.8125 3.23585 6.8125 4.37494C6.8125 5.51403 7.73591 6.43744 8.875 6.43744C9.81088 6.43744 10.6012 5.81411 10.8534 4.95996H11.28V6.05728C9.13699 6.40189 7.5 8.25977 7.5 10.5L16.5 10.5C16.5 8.2598 14.863 6.40193 12.72 6.0573V4.95996H13.4599C13.8576 4.95996 14.1799 4.6376 14.1799 4.23996C14.1799 3.84231 13.8576 3.51996 13.4599 3.51996H12.72V2.99997ZM8.875 3.68744C8.4953 3.68744 8.1875 3.99524 8.1875 4.37494C8.1875 4.75463 8.4953 5.06244 8.875 5.06244C9.2547 5.06244 9.5625 4.75463 9.5625 4.37494C9.5625 3.99524 9.2547 3.68744 8.875 3.68744Z" />
<path d="M7.5 19.12V11.5H16.5V19.12C16.5 20.7106 15.2106 22 13.62 22H10.38C8.78942 22 7.5 20.7106 7.5 19.12Z" />
</svg>
