<svg width="24" height="24" viewBox="0 0 24 24" xmlns="http://www.w3.org/2000/svg">
<path d="M15.78 10.5V19.12C15.78 20.3129 14.8129 21.28 13.62 21.28H10.38C9.18706 21.28 8.22 20.3129 8.22 19.12V10.5C8.22 8.41236 9.91236 6.72 12 6.72C14.0876 6.72 15.78 8.41236 15.78 10.5Z" stroke="#626B79" stroke-width="1.44"/>
<path d="M12 6.5L12 3" stroke="#626B79" stroke-width="1.44" stroke-linecap="round"/>
<path d="M11.04 3.51999L10.32 3.51999L10.32 4.95999L11.04 4.95999L11.04 3.51999ZM13.46 4.95999C13.8576 4.95999 14.18 4.63764 14.18 4.23999C14.18 3.84235 13.8576 3.51999 13.46 3.51999L13.46 4.95999ZM11.04 4.95999L13.46 4.95999L13.46 3.51999L11.04 3.51999L11.04 4.95999Z" />
<circle cx="8.875" cy="4.375" r="1.375" stroke="#626B79" stroke-width="1.375"/>
<path d="M9 11H15.5" stroke="#626B79" stroke-width="1.44" stroke-linecap="round"/>
<path fill-rule="evenodd" clip-rule="evenodd" d="M12 2.28C12.3976 2.28 12.72 2.60235 12.72 3V3.51999H13.46C13.8576 3.51999 14.18 3.84234 14.18 4.23999C14.18 4.63763 13.8576 4.95999 13.46 4.95999H12.72V6.05729C14.863 6.40191 16.5 8.25979 16.5 10.5V19.12C16.5 20.7106 15.2106 22 13.62 22H10.38C8.78942 22 7.5 20.7106 7.5 19.12V10.5C7.5 8.25978 9.13697 6.40191 11.28 6.05729V4.95999H10.8534C10.6012 5.81415 9.81089 6.4375 8.875 6.4375C7.73591 6.4375 6.8125 5.51409 6.8125 4.375C6.8125 3.23591 7.73591 2.3125 8.875 2.3125C9.70909 2.3125 10.4275 2.80762 10.7525 3.51999H11.28V3C11.28 2.60235 11.6024 2.28 12 2.28ZM15.06 11.72H9C8.97979 11.72 8.95978 11.7192 8.94 11.7175V19.12C8.94 19.9153 9.58471 20.56 10.38 20.56H13.62C14.4153 20.56 15.06 19.9153 15.06 19.12V11.72ZM15.0522 10.28H9C8.9824 10.28 8.96494 10.2806 8.94765 10.2819C9.05951 8.69368 10.3833 7.44 12 7.44C13.616 7.44 14.9394 8.69269 15.0522 10.28ZM8.875 3.6875C8.4953 3.6875 8.1875 3.9953 8.1875 4.375C8.1875 4.75469 8.4953 5.0625 8.875 5.0625C9.2547 5.0625 9.5625 4.75469 9.5625 4.375C9.5625 3.9953 9.2547 3.6875 8.875 3.6875Z" />
</svg>
