<svg width="24" height="24" viewBox="0 0 24 24" xmlns="http://www.w3.org/2000/svg">
<path fill-rule="evenodd" clip-rule="evenodd" d="M9.115 3C9.115 2.458 9.5688 2 10.165 2H13.835C14.4312 2 14.885 2.458 14.885 3V3.5H15.405C16.5688 3.5 17.505 4.39602 17.505 5.5V20C17.505 21.104 16.5688 22 15.405 22H8.595C7.43119 22 6.495 21.104 6.495 20V5.5C6.495 4.39602 7.43119 3.5 8.595 3.5H9.115V3ZM12.0106 11.2253C12.0006 11.3653 12.1206 11.4853 12.2606 11.4853L12.2506 11.5053H13.8806C14.0606 11.5053 14.1806 11.6853 14.1206 11.8453L12.2806 16.9153C12.1906 17.1853 11.7806 17.1053 11.8006 16.8153L11.9806 13.5353C11.9806 13.3953 11.8706 13.2753 11.7306 13.2753L10.1006 13.2553C9.93064 13.2553 9.81064 13.0753 9.87064 12.9153L11.7106 8.03535C11.8106 7.76535 12.2106 7.84535 12.1906 8.13535L12.0106 11.2253Z"/>
</svg>
