<svg>
<path d="M15.4401 9.53998C15.4401 9.12576 15.1043 8.78998 14.6901 8.78998C14.2758 8.78998 13.9401 9.12576 13.9401 9.53998V11.36C13.9401 11.7742 14.2758 12.11 14.6901 12.11C15.1043 12.11 15.4401 11.7742 15.4401 11.36V9.53998Z" />
<path d="M10.452 11.1603C10.6506 10.7968 11.1063 10.6632 11.4698 10.8619L13.0798 11.7419C13.4432 11.9405 13.5768 12.3962 13.3782 12.7597C13.1795 13.1232 12.7238 13.2568 12.3603 13.0581L10.7503 12.1781C10.3869 11.9794 10.2533 11.5237 10.452 11.1603Z" />
<path d="M13.0215 15.3371C13.3844 15.1375 13.5168 14.6815 13.3172 14.3185C13.1176 13.9556 12.6616 13.8232 12.2986 14.0228L10.6986 14.9028C10.3357 15.1024 10.2033 15.5585 10.4029 15.9214C10.6025 16.2844 11.0586 16.4168 11.4215 16.2171L13.0215 15.3371Z" />
<path d="M14.5301 15.07C14.9443 15.07 15.2801 15.4058 15.2801 15.82V17.63C15.2801 18.0442 14.9443 18.38 14.5301 18.38C14.1158 18.38 13.7801 18.0442 13.7801 17.63V15.82C13.7801 15.4058 14.1158 15.07 14.5301 15.07Z" />
<path d="M16.8598 14.1219C16.4963 13.9232 16.0406 14.0568 15.8419 14.4203C15.6433 14.7837 15.7769 15.2394 16.1403 15.4381L17.7503 16.3181C18.1138 16.5168 18.5695 16.3832 18.7682 16.0197C18.9668 15.6562 18.8332 15.2005 18.4698 15.0019L16.8598 14.1219Z" />
<path d="M18.8032 11.2341C19.0163 11.5893 18.9011 12.05 18.5459 12.2631L16.9959 13.1931C16.6407 13.4062 16.18 13.291 15.9669 12.9358C15.7538 12.5807 15.869 12.12 16.2242 11.9069L17.7742 10.9769C18.1294 10.7637 18.5901 10.8789 18.8032 11.2341Z" />
<path fill-rule="evenodd" clip-rule="evenodd" d="M11.16 4.5C11.16 4.08579 11.4958 3.75 11.91 3.75H19.23C19.6442 3.75 19.98 4.08579 19.98 4.5V8.5355C21.2501 9.8778 22 11.6813 22 13.6C22 17.6442 18.6742 20.97 14.63 20.97C12.9121 20.97 10.9545 20.3052 9.50968 18.8603C9.05221 18.4028 7.57212 16.9027 6.20958 15.5202C5.52761 14.8282 4.87409 14.1647 4.39107 13.6742L3.5964 12.867L3.59571 12.8663C3.59567 12.8663 3.59548 12.8661 4.13 12.34L3.59571 12.8663C3.30678 12.5728 3.30842 12.1009 3.59967 11.8096L4.91435 10.495L4.03004 9.61066L3.18035 10.4603C2.88746 10.7532 2.41259 10.7532 2.11969 10.4603C1.8268 10.1674 1.8268 9.69257 2.11969 9.39968L3.4967 8.02267L3.4997 8.01966L3.50271 8.01666L5.03969 6.47968C5.33259 6.18679 5.80746 6.18679 6.10035 6.47968C6.39325 6.77257 6.39325 7.24745 6.10035 7.54034L5.0907 8.55L5.97501 9.43431L7.22968 8.17965C7.43055 7.97877 7.72767 7.90863 7.99718 7.99846L9.36536 8.45453C9.7961 8.01469 10.28 7.63085 10.811 7.30872L10.8127 7.30769C10.9268 7.23895 11.0426 7.17324 11.16 7.11063V4.5ZM12.66 6.50862C12.8639 6.4515 13.0707 6.4029 13.2801 6.36314C13.687 6.28587 14.0796 6.55313 14.1568 6.96007C14.2341 7.36701 13.9669 7.75954 13.5599 7.83681C12.859 7.96989 12.1929 8.22722 11.5882 8.59173C11.047 8.92009 10.5687 9.32764 10.1609 9.80633C9.96265 10.0391 9.64292 10.1282 9.35283 10.0315L7.96257 9.56807L5.18654 12.3441L5.45987 12.6217C5.9428 13.1121 6.59615 13.7755 7.27793 14.4673C8.64289 15.8522 10.1178 17.3471 10.5703 17.7996C11.7055 18.9348 13.2679 19.47 14.63 19.47C17.8458 19.47 20.5 16.8158 20.5 13.6C20.5 11.224 19.0538 9.06919 16.8571 8.17458C16.4735 8.01835 16.2892 7.58071 16.4454 7.19709C16.6016 6.81347 17.0393 6.62914 17.4229 6.78537C17.793 6.9361 18.1461 7.11517 18.48 7.31945V5.25H12.66V6.50862Z" />
</svg>
