<svg width="24" height="24" viewBox="0 0 24 24" xmlns="http://www.w3.org/2000/svg">
<path fill-rule="evenodd" clip-rule="evenodd" d="M11.25 7.2V11.25L7.2 11.25L7.2 12.75H11.25V16.8H12.75V12.75H16.8V11.25L12.75 11.25V7.2H11.25ZM10.05 7.1C10.05 6.49249 10.5425 6 11.15 6H12.85C13.4575 6 13.95 6.49249 13.95 7.1V10.05L16.9 10.05C17.5075 10.05 18 10.5425 18 11.15V12.85C18 13.4575 17.5075 13.95 16.9 13.95H13.95V16.9C13.95 17.5075 13.4575 18 12.85 18H11.15C10.5425 18 10.05 17.5075 10.05 16.9V13.95H7.1C6.49249 13.95 6 13.4575 6 12.85L6 11.15C6 10.5425 6.49249 10.05 7.1 10.05H10.05V7.1Z"/>
<path fill-rule="evenodd" clip-rule="evenodd" d="M12 19.8C16.3078 19.8 19.8 16.3078 19.8 12C19.8 7.69218 16.3078 4.2 12 4.2C7.69218 4.2 4.2 7.69218 4.2 12C4.2 16.3078 7.69218 19.8 12 19.8ZM12 21C16.9706 21 21 16.9706 21 12C21 7.02944 16.9706 3 12 3C7.02944 3 3 7.02944 3 12C3 16.9706 7.02944 21 12 21Z"/>
</svg>
