<svg xmlns="http://www.w3.org/2000/svg" width="24" height="24" viewBox="0 0 24 24">
  <path fill="#626B79" fill-rule="evenodd" d="M12.7018616,20.7122931 C12.5213259,20.8902073 12.2734753,21 11.9999814,21 C11.7134833,21 11.4551254,20.8795182 11.27281,20.6864573 C6.22185511,15.7008594 3.50940657,12.9763916 3.13546438,12.5130537 C2.57455109,11.818047 2,10.3119582 2,9 C2,5.6862915 4.6862915,3 8,3 C9.53670887,3 10.938487,3.57770714 12,4.52778699 C13.061513,3.57770714 14.4632911,3 16,3 C19.3137085,3 22,5.6862915 22,9 C22,10.409009 21.514318,11.7045808 20.7012347,12.7284347 C20.1591792,13.411004 17.4927215,16.0722901 12.7018616,20.7122931 Z"/>
</svg>
