<svg width="24" height="24" viewBox="0 0 24 24" xmlns="http://www.w3.org/2000/svg">
<path d="M11.0397 19.7523C11.6357 20.249 12.5121 20.2092 13.0607 19.6607C13.2522 19.4691 13.4916 19.268 13.8154 18.996L13.8273 18.9861C14.1235 18.7372 14.4785 18.4381 14.8179 18.1031L14.8576 18.0691C16.2201 16.9014 17.8178 15.5321 19.0757 14.1039C20.3148 12.697 21.5 10.9349 21.5 9C21.5 7.13334 20.6181 5.7319 19.5317 4.83221C18.4924 3.9715 17.186 3.5 16.1 3.5C14.5614 3.5 13.1604 4.1718 11.9353 5.32816C10.9231 4.39758 9.63261 3.5 7.9 3.5C5.54865 3.5 2.5 5.40495 2.5 9C2.5 10.8892 3.69195 12.6543 4.91986 14.0613C6.18879 15.5153 7.79999 16.9181 9.18106 18.1022C9.81522 18.7319 10.4443 19.2562 11.0211 19.7368L11.0397 19.7523Z"/>
</svg>