<svg width="24" height="24" viewBox="0 0 24 24" xmlns="http://www.w3.org/2000/svg">
<path fill-rule="evenodd" clip-rule="evenodd" d="M13.0607 19.6607C12.5121 20.2092 11.6357 20.249 11.0397 19.7523L11.0212 19.7369C10.4443 19.2562 9.81522 18.7319 9.18106 18.1022C7.79999 16.9181 6.18879 15.5153 4.91986 14.0613C3.69195 12.6543 2.5 10.8892 2.5 9C2.5 5.40495 5.54865 3.5 7.9 3.5C9.63261 3.5 10.9231 4.39758 11.9353 5.32816C13.1604 4.1718 14.5614 3.5 16.1 3.5C17.186 3.5 18.4924 3.9715 19.5317 4.83221C20.6181 5.7319 21.5 7.13334 21.5 9C21.5 10.9349 20.3148 12.697 19.0757 14.1039C17.8178 15.5321 16.2201 16.9014 14.8576 18.0691L14.8179 18.1031C14.4785 18.4381 14.1235 18.7372 13.8273 18.9861L13.8155 18.996C13.4917 19.268 13.2522 19.4691 13.0607 19.6607ZM13.8 17L13.844 16.9623C16.6355 14.5697 20 11.6859 20 9C20 6.3 17.5 5 16.1 5C15.0539 5 14.0077 5.4467 13.0033 6.38181C12.6636 6.69812 12.3286 7.07031 12 7.5C11.9311 7.43114 11.8628 7.36255 11.795 7.29441C11.4991 6.99728 11.2116 6.7086 10.9226 6.44192C10.0269 5.61525 9.11726 5 7.9 5C6.2 5 4 6.4 4 9C4 11.6 7.4 14.6 10.2 17C10.8 17.6 11.4 18.1 12 18.6C12.2386 18.3614 12.5228 18.1228 12.8199 17.8733C13.1453 17.6 13.4863 17.3137 13.8 17Z"/>
</svg>