<svg xmlns="http://www.w3.org/2000/svg" xmlns:xlink="http://www.w3.org/1999/xlink" viewBox="0 0 24 24">
  <title>iconTitle</title>
  <desc>iconDesc</desc>
  <style></style>
  <path d="M16,3 C19.3137085,3 22,5.6862915 22,9 C22,10.409009 21.514318,11.7045808 20.7012347,12.7284347 C20.1591792,13.411004 17.4927215,16.0722901 12.7018616,20.7122931 C12.5213259,20.8902073 12.2734753,21 11.9999814,21 C11.7134833,21 11.4551254,20.8795182 11.27281,20.6864573 C6.22185511,15.7008594 3.50940657,12.9763916 3.13546438,12.5130537 C2.57455109,11.818047 2,10.3119582 2,9 C2,5.6862915 4.6862915,3 8,3 C9.53670887,3 10.938487,3.57770714 12,4.52778699 C13.061513,3.57770714 14.4632911,3 16,3 Z M16,5 C14.6991934,5 13.5434123,5.62092804 12.8128822,6.58255859 C12.8044456,6.59430989 12,7.5 12,7.5 C12,7.5 11.7290393,7.1941862 11.1871178,6.58255859 C10.4565877,5.62092804 9.30080663,5 8,5 C5.790861,5 4,6.790861 4,9 C4,9.87492022 4.28090062,10.6842326 4.75743608,11.3426713 C5.07512638,11.7816304 7.48940526,14.1959093 12.0002727,18.5855079 C16.3744404,14.4299521 18.7880601,12.0163325 19.2411317,11.3446489 C19.9207392,10.3371236 20,9.87579636 20,9 C20,6.790861 18.209139,5 16,5 Z"/>
</svg>
