<svg>
    <g>
        <path d="M6.14393579,7.94208807 L7.11163394,8.94470752 C5.46336856,9.99353214 4.20970151,11.2801588 3.63922,11.9155926 C4.69478,13.0914244 8.0921,16.4995943 11.99998,16.4995943 C12.7225989,16.4995943 13.4277606,16.3830588 14.1038878,16.1856496 L15.1403773,17.2599494 C14.0792523,17.6392976 13.0261111,17.8311113 11.99998,17.8311113 C10.72102,17.8311113 9.4001,17.5331678 8.07406,16.9454553 C7.03634,16.4855756 5.99226,15.8474477 4.9709,15.048863 C3.24642,13.7005532 2.18306,12.3645977 2.13866,12.3083749 C1.95378,12.0744218 1.95378,11.7566894 2.13866,11.5227363 C2.1831,11.4665136 3.24646,10.130558 4.9709,8.78224824 C5.35916121,8.47868722 5.75070563,8.19830805 6.14393579,7.94208807 Z M11.99998,6 C13.27898,6 14.59986,6.29798045 15.92594,6.8856929 C16.96366,7.34557261 18.00774,7.98370057 19.0291,8.78228523 C20.75354,10.130595 21.8169,11.4665506 21.8613,11.5227363 C22.04618,11.7566894 22.04618,12.0744218 21.8613,12.3083749 C21.81686,12.3645977 20.7535,13.7005532 19.02906,15.048863 C18.667109,15.3318535 18.3023046,15.5946975 17.9359412,15.8366031 L16.9701201,14.8340395 C18.5780374,13.7951131 19.7997146,12.5404924 20.3607,11.9155926 C19.3047,10.73928 15.90758,7.33159091 11.99998,7.33159091 C11.3138641,7.33159091 10.6434864,7.4366514 9.9987564,7.61624581 L8.9564754,6.53703494 C9.98479604,6.18031166 11.0050591,6 11.99998,6 Z M8.66910112,10.5583404 L9.80826864,11.7381914 C9.80278123,11.7966606 9.79998,11.8558298 9.79998,11.9155926 C9.79998,13.0195265 10.7557921,13.9209185 11.9423403,13.9492795 L13.0828359,15.1295113 C12.7406397,15.2283066 12.3769091,15.2815585 11.99998,15.2815585 C9.99286,15.2815585 8.35998,13.7716084 8.35998,11.9155926 C8.35998,11.4329517 8.47039785,10.9737122 8.66910112,10.5583404 Z M11.99998,8.5496267 C14.0071,8.5496267 15.63998,10.0595768 15.63998,11.9155926 C15.63998,12.3628809 15.5451456,12.7900704 15.3730932,13.1808708 L14.1993433,11.9648996 C14.1997669,11.9485106 14.19998,11.9320742 14.19998,11.9155926 C14.19998,10.8546448 13.3171554,9.98077236 12.1951363,9.88915039 L11.0193119,8.67369636 C11.3314194,8.59286309 11.6603417,8.5496267 11.99998,8.5496267 Z"></path>
        <path d="M3.70616621,12.5248869 L20.2240233,12.5248869 C20.771377,12.5248869 21.2150948,12.1891005 21.2150948,11.7748869 C21.2150948,11.3606734 20.771377,11.0248869 20.2240233,11.0248869 L3.70616621,11.0248869 C3.15881257,11.0248869 2.71509478,11.3606734 2.71509478,11.7748869 C2.71509478,12.1891005 3.15881257,12.5248869 3.70616621,12.5248869 Z" transform="translate(11.965095, 11.774887) rotate(-314.000000) translate(-11.965095, -11.774887) "></path>
    </g>
</svg>
