<svg>
<path fill-rule="evenodd" clip-rule="evenodd" d="M18.0225 15.7791C18.3597 15.5532 18.6956 15.3096 19.0291 15.0489C20.7535 13.7006 21.8169 12.3646 21.8613 12.3084C22.0462 12.0744 22.0462 11.7567 21.8613 11.5227C21.8169 11.4666 20.7535 10.1306 19.0291 8.78229C18.0077 7.9837 16.9637 7.34557 15.9259 6.88569C14.5999 6.29798 13.279 6 12 6C11.056 6 10.0892 6.16232 9.11435 6.48363L11.1773 8.63631C11.4418 8.57961 11.7172 8.54963 12 8.54963C14.0071 8.54963 15.64 10.0596 15.64 11.9156C15.64 12.319 15.5628 12.7061 15.4214 13.0649L18.0225 15.7791ZM12.4032 9.91546C13.3796 10.0834 14.1315 10.8496 14.1955 11.7858L12.4032 9.91546ZM4.9709 8.78225C5.59746 8.29237 6.23257 7.86287 6.86952 7.49784L9.13394 9.84273C8.64925 10.4145 8.35998 11.1344 8.35998 11.9156C8.35998 13.7716 9.99286 15.2816 12 15.2816C12.6977 15.2816 13.3503 15.0991 13.9047 14.783L15.9728 16.9246L15.9259 16.9455C14.5999 17.5331 13.2789 17.8311 12 17.8311C10.721 17.8311 9.4001 17.5332 8.07406 16.9455C7.03634 16.4856 5.99226 15.8474 4.9709 15.0489C3.24642 13.7006 2.18306 12.3646 2.13866 12.3084C1.95378 12.0744 1.95378 11.7567 2.13866 11.5227C2.1831 11.4665 3.24646 10.1306 4.9709 8.78225ZM9.79998 11.9156C9.79998 11.5303 9.91641 11.1697 10.1185 10.8622L12.9201 13.7634C12.64 13.8831 12.3283 13.95 12 13.95C10.7869 13.95 9.79998 13.0373 9.79998 11.9156Z"/>
<path fill-rule="evenodd" clip-rule="evenodd" d="M5.3352 6.35498L16.8095 18.2369C17.1897 18.6307 17.7395 18.7166 18.0374 18.4289C18.3354 18.1411 18.2687 17.5887 17.8885 17.1949L6.41421 5.31299C6.03398 4.91926 5.48421 4.83333 5.18625 5.12107C4.88829 5.40881 4.95497 5.96125 5.3352 6.35498Z"/>
</svg>
