<svg>
  <title>iconTitle</title>
  <desc>iconDesc</desc>
  <style></style>
  <path d="M13.252,3.49584542 C12.569,2.81284542 11.46,2.81284542 10.777,3.49584542 L2.16164961,12.6466588 C1.99864961,12.8106588 1.92364961,13.0366588 1.94864961,13.2586588 C1.95064961,13.3486588 1.96364961,13.4386588 1.99964961,13.5246588 C2.11564961,13.8046588 2.38964961,13.9876588 2.69264961,13.9876588 L4.94264961,13.9876588 L4.9988,20.25025 C4.9988,20.66425 5.3348,21.00025 5.7488,21.00025 L9.2638,21.00025 C9.6778,21.00025 10.0138,20.66425 10.0138,20.25025 L10.0138,15.7334572 C10.0138,15.3214572 10.3488,14.9864572 10.7608,14.9864572 L13.252,14.9864572 C13.665,14.9864572 14,15.3204572 14,15.7334572 L14.001,20.25025 C14.001,20.66425 14.337,21.00025 14.751,21.00025 L18.2488,21.00025 C18.6628,21.00025 18.9988,20.66425 18.9988,20.25025 L18.9426496,13.9876588 L21.1926496,13.9876588 C21.4956496,13.9876588 21.7686496,13.8046588 21.8856496,13.5246588 C21.9206496,13.4386588 21.9336496,13.3486588 21.9366496,13.2586588 C21.9606496,13.0366588 21.8856496,12.8106588 21.7226496,12.6466588 L13.252,3.49584542 Z"/>
</svg>
