<svg xmlns="http://www.w3.org/2000/svg" width="24" height="24" viewBox="0 0 24 24">
  <path fill="#626B79" fill-rule="evenodd" d="M14.9959365,19.50025 L17.5,19.50025 L17.5,13.08525 C17.5,12.67125 17.836,12.33525 18.25,12.33525 L19.439,12.33525 L12.177,5.07225 C12.079,4.97525 11.921,4.97525 11.823,5.07225 L4.561,12.33525 L5.75,12.33525 C6.164,12.33525 6.5,12.67125 6.5,13.08525 L6.5,19.50025 L9.00190277,19.50025 L9.00290277,15.7478209 C9.00290277,14.7828209 9.78790277,13.9978209 10.7529028,13.9978209 L13.2459365,13.9978209 C14.2109365,13.9978209 14.9959365,14.7828209 14.9959365,15.7478209 L14.9959365,19.50025 Z M14.2459365,21.00025 C13.8319365,21.00025 13.4959365,20.66525 13.4959365,20.25025 L13.4959365,15.7478209 C13.4959365,15.6098209 13.3839365,15.4978209 13.2459365,15.4978209 L10.7529028,15.4978209 C10.6149028,15.4978209 10.5029028,15.6098209 10.5029028,15.7478209 L10.5019028,20.25025 C10.5019028,20.66425 10.1659028,21.00025 9.75190277,21.00025 L5.75,21.00025 C5.336,21.00025 5,20.66425 5,20.25025 L4.88224566,13.9950511 L2.63224566,13.9950511 C2.32924566,13.9950511 2.05524566,13.8120511 1.93924566,13.5320511 C1.82324566,13.2520511 1.88724566,12.9300511 2.10224566,12.7150511 L10.777,3.5 C11.459,2.817 12.569,2.817 13.251,3.5 L21.6622457,12.7150511 C21.8772457,12.9300511 21.9412457,13.2520511 21.8252457,13.5320511 C21.7092457,13.8120511 21.4352457,13.9950511 21.1322457,13.9950511 L18.8822457,13.9950511 L19,20.25025 C19,20.66425 18.664,21.00025 18.25,21.00025 L14.2459365,21.00025 Z"/>
</svg>
