<svg width="24" height="24" viewBox="0 0 24 24" xmlns="http://www.w3.org/2000/svg">
<path fill-rule="evenodd" clip-rule="evenodd" d="M7.66667 4.66667C8.03486 4.66667 8.33333 4.96514 8.33333 5.33333V6.66667C8.33333 7.03486 8.03486 7.33333 7.66667 7.33333C7.29848 7.33333 7 7.03486 7 6.66667V5.33333C7 4.96514 7.29848 4.66667 7.66667 4.66667Z"/>
<path fill-rule="evenodd" clip-rule="evenodd" d="M10.3333 4.66667C10.7015 4.66667 11 4.96514 11 5.33333V6.66667C11 7.03486 10.7015 7.33333 10.3333 7.33333C9.96514 7.33333 9.66667 7.03486 9.66667 6.66667V5.33333C9.66667 4.96514 9.96514 4.66667 10.3333 4.66667Z"/>
<path fill-rule="evenodd" clip-rule="evenodd" d="M7.66667 8.66667C8.03486 8.66667 8.33333 8.96514 8.33333 9.33333V10.6667C8.33333 11.0349 8.03486 11.3333 7.66667 11.3333C7.29848 11.3333 7 11.0349 7 10.6667V9.33333C7 8.96514 7.29848 8.66667 7.66667 8.66667Z"/>
<path fill-rule="evenodd" clip-rule="evenodd" d="M10.3333 8.66667C10.7015 8.66667 11 8.96514 11 9.33333V10.6667C11 11.0349 10.7015 11.3333 10.3333 11.3333C9.96514 11.3333 9.66667 11.0349 9.66667 10.6667V9.33333C9.66667 8.96514 9.96514 8.66667 10.3333 8.66667Z"/>
<path fill-rule="evenodd" clip-rule="evenodd" d="M7.66667 12.6667C8.03486 12.6667 8.33333 12.9651 8.33333 13.3333V14.6667C8.33333 15.0349 8.03486 15.3333 7.66667 15.3333C7.29848 15.3333 7 15.0349 7 14.6667V13.3333C7 12.9651 7.29848 12.6667 7.66667 12.6667Z"/>
<path fill-rule="evenodd" clip-rule="evenodd" d="M10.3333 12.6667C10.7015 12.6667 11 12.9651 11 13.3333V14.6667C11 15.0349 10.7015 15.3333 10.3333 15.3333C9.96514 15.3333 9.66667 15.0349 9.66667 14.6667V13.3333C9.66667 12.9651 9.96514 12.6667 10.3333 12.6667Z"/>
<path fill-rule="evenodd" clip-rule="evenodd" d="M7.66667 16.6667C8.03486 16.6667 8.33333 16.9651 8.33333 17.3333V18.4C8.33333 18.7682 8.03486 19.0667 7.66667 19.0667C7.29848 19.0667 7 18.7682 7 18.4V17.3333C7 16.9651 7.29848 16.6667 7.66667 16.6667Z"/>
<path fill-rule="evenodd" clip-rule="evenodd" d="M5.66667 2C4.93029 2 4.33333 2.59695 4.33333 3.33333V20H3.66667C3.29848 20 3 20.2985 3 20.6667C3 21.0349 3.29848 21.3333 3.66667 21.3333H19.6667C20.0349 21.3333 20.3333 21.0349 20.3333 20.6667C20.3333 20.2985 20.0349 20 19.6667 20H19V7.33333C19 6.59695 18.403 6 17.6667 6H13.6667V3.33333C13.6667 2.59695 13.0697 2 12.3333 2H5.66667ZM17.6667 20V7.33333H13.6667V20H17.6667ZM12.3333 20V3.33333L5.66667 3.33333V20H9.66667V17.3333C9.66667 16.9651 9.96514 16.6667 10.3333 16.6667C10.7015 16.6667 11 16.9651 11 17.3333V20H12.3333Z"/>
<path fill-rule="evenodd" clip-rule="evenodd" d="M15.6667 8.66667C16.0349 8.66667 16.3333 8.96514 16.3333 9.33333V10.6667C16.3333 11.0349 16.0349 11.3333 15.6667 11.3333C15.2985 11.3333 15 11.0349 15 10.6667V9.33333C15 8.96514 15.2985 8.66667 15.6667 8.66667Z"/>
<path fill-rule="evenodd" clip-rule="evenodd" d="M15.6667 12.6667C16.0349 12.6667 16.3333 12.9651 16.3333 13.3333V14.6667C16.3333 15.0349 16.0349 15.3333 15.6667 15.3333C15.2985 15.3333 15 15.0349 15 14.6667V13.3333C15 12.9651 15.2985 12.6667 15.6667 12.6667Z"/>
<path fill-rule="evenodd" clip-rule="evenodd" d="M15.6667 16.6667C16.0349 16.6667 16.3333 16.9651 16.3333 17.3333V18.6667C16.3333 19.0349 16.0349 19.3333 15.6667 19.3333C15.2985 19.3333 15 19.0349 15 18.6667V17.3333C15 16.9651 15.2985 16.6667 15.6667 16.6667Z"/>
</svg>
