<svg width="24" height="24" viewBox="0 0 24 24" xmlns="http://www.w3.org/2000/svg">
<path d="M3.66667 20.34H19.6667C20.0349 20.34 20.3333 20.6385 20.3333 21.0067C20.3333 21.3748 20.0349 21.6733 19.6667 21.6733H3.66667C3.29848 21.6733 3 21.3748 3 21.0067C3 20.6385 3.29848 20.34 3.66667 20.34Z"/>
<path fill-rule="evenodd" clip-rule="evenodd" d="M17.6 5.83999H13.7128V19.34H19V7.23999C19 6.46679 18.3732 5.83999 17.6 5.83999ZM17.1235 8.71426C17.1235 8.36908 16.8437 8.08926 16.4985 8.08926C16.1533 8.08926 15.8735 8.36908 15.8735 8.71426V9.96426C15.8735 10.3094 16.1533 10.5893 16.4985 10.5893C16.8437 10.5893 17.1235 10.3094 17.1235 9.96426V8.71426ZM17.1418 12.6152C17.1418 12.27 16.862 11.9902 16.5168 11.9902C16.1716 11.9902 15.8918 12.27 15.8918 12.6152V13.8652C15.8918 14.2103 16.1716 14.4902 16.5168 14.4902C16.862 14.4902 17.1418 14.2103 17.1418 13.8652V12.6152ZM16.4751 15.965C16.8202 15.965 17.1 16.2448 17.1 16.59V17.84C17.1 18.1852 16.8202 18.465 16.4751 18.465C16.1299 18.465 15.8501 18.1852 15.8501 17.84V16.59C15.8501 16.2448 16.1299 15.965 16.4751 15.965Z"/>
<path fill-rule="evenodd" clip-rule="evenodd" d="M11.3509 19.3299V2.83308L5.03819 2.83296L5.0381 19.3298L9.20483 19.3297V16.6631C9.20483 16.2949 9.50331 15.9964 9.8715 15.9964C10.2397 15.9964 10.5382 16.2949 10.5382 16.6631V19.3297L11.3509 19.3299ZM7.8715 4.66307C7.8715 4.29488 7.57302 3.9964 7.20483 3.9964C6.83664 3.9964 6.53817 4.29488 6.53817 4.66307V5.9964C6.53817 6.36459 6.83664 6.66307 7.20483 6.66307C7.57302 6.66307 7.8715 6.36459 7.8715 5.9964V4.66307ZM10.5382 4.66307C10.5382 4.29488 10.2397 3.9964 9.8715 3.9964C9.50331 3.9964 9.20483 4.29488 9.20483 4.66307V5.9964C9.20483 6.36459 9.50331 6.66307 9.8715 6.66307C10.2397 6.66307 10.5382 6.36459 10.5382 5.9964V4.66307ZM7.8715 8.66306C7.8715 8.29487 7.57302 7.9964 7.20483 7.9964C6.83664 7.9964 6.53817 8.29487 6.53817 8.66306V9.9964C6.53817 10.3646 6.83664 10.6631 7.20483 10.6631C7.57302 10.6631 7.8715 10.3646 7.8715 9.9964V8.66306ZM10.5382 8.66306C10.5382 8.29487 10.2397 7.9964 9.8715 7.9964C9.50331 7.9964 9.20483 8.29487 9.20483 8.66306V9.9964C9.20483 10.3646 9.50331 10.6631 9.8715 10.6631C10.2397 10.6631 10.5382 10.3646 10.5382 9.9964V8.66306ZM7.8715 12.6631C7.8715 12.2949 7.57302 11.9964 7.20483 11.9964C6.83664 11.9964 6.53817 12.2949 6.53817 12.6631V13.9964C6.53817 14.3646 6.83664 14.6631 7.20483 14.6631C7.57302 14.6631 7.8715 14.3646 7.8715 13.9964V12.6631ZM10.5382 12.6631C10.5382 12.2949 10.2397 11.9964 9.8715 11.9964C9.50331 11.9964 9.20483 12.2949 9.20483 12.6631V13.9964C9.20483 14.3646 9.50331 14.6631 9.8715 14.6631C10.2397 14.6631 10.5382 14.3646 10.5382 13.9964V12.6631ZM7.8715 16.6631C7.8715 16.2949 7.57302 15.9964 7.20483 15.9964C6.83664 15.9964 6.53817 16.2949 6.53817 16.6631V17.7297C6.53817 18.0979 6.83664 18.3964 7.20483 18.3964C7.57302 18.3964 7.8715 18.0979 7.8715 17.7297V16.6631Z"/>
<path d="M5.49754 1.99976C4.76116 1.99976 4.33287 2.59684 4.33287 3.33322V19.33L5.0381 19.3298L5.03819 2.83296L11.3509 2.83308V19.3299L12.7051 19.33L12.7074 12.5968L12.6946 5.82986L12.6842 3.33322C12.6842 2.59684 12.0873 1.99987 11.3509 1.99987L5.49754 1.99976Z"/>
</svg>
