<svg xmlns="http://www.w3.org/2000/svg" viewBox="0 0 428 150"><defs><style>.cls-1{fill:#e62127}</style></defs><g id="haunan-airlines_es-mx" transform="translate(-21634 -2598)"><g id="Group_333" data-name="Group 333" transform="translate(21742 2641)"><circle id="Ellipse_32" data-name="Ellipse 32" class="cls-1" cx="6.632" cy="6.632" r="6.632" transform="translate(27.591 4.734)"/><path id="Path_371" data-name="Path 371" class="cls-1" d="M179.62 41.421c0-5.6-5.141-10.1-12.92-11.721 6.163 1.6 10.626 5.965 10.751 10.407.156 5.589-8.029 11.137-17.289 11.053-8.947-.083-17.32-4.765-17.393-11.064-.052-4.5 4.254-8.78 10.782-10.375-7.768 1.616-12.951 6.1-12.951 11.689 0 6.486 8.081 11.522 17.174 12.284a3.72 3.72 0 012.336 1.116 3.5 3.5 0 012.367-1.105c9.134-.752 17.143-5.778 17.143-12.284z" transform="translate(-125.939 -26.603)"/><path id="Path_372" data-name="Path 372" class="cls-1" d="M137.71 35.335c0-7.3-6.736-13.91-20.219-15.735 8.54 1.053 17.716 6.559 17.289 14.327-.386 6.9-7.55 11.345-17.08 13.149a9.5 9.5 0 00-4.963 2.023c-1.137-.876-2.158-1.616-6.413-2.4-6.6-1.22-15.746-5.547-15.746-13.305.01-6.288 8.436-12.5 17.383-13.8C96.084 20.653 87.7 27.8 87.7 35.074c0 4.536 2.5 7.967 7.049 10.928 5.172 3.368 12.92 4.9 14.348 5.558a7.514 7.514 0 013.629 2.68 6.749 6.749 0 013.91-2.753c11.575-2.961 21.074-7.674 21.074-16.152z" transform="translate(-78.555 -17.556)"/><path id="Path_373" data-name="Path 373" class="cls-1" d="M37.779 10.4c13.848 1.418 23.962 8.582 23.962 17.758 0 6.413-4.8 12.211-17.174 16.663-4.745 1.481-8.989 3.681-10.407 6.9-1.429-3.212-5.589-5.422-10.344-6.9-12.387-4.452-17.184-10.25-17.184-16.663 0-9.176 10.115-16.34 23.962-17.758C14.38 11.474 0 20.087 0 31.787c0 8.78 6.674 14.65 16.267 18.513 10.25 4.119 15.089 7.862 17.883 17.5 2.795-9.635 7.706-13.378 17.956-17.5 9.593-3.858 16.267-9.729 16.267-18.509 0-11.704-14.379-20.317-30.594-21.391z" transform="translate(0 -9.316)"/><path id="Path_374" data-name="Path 374" class="cls-1" d="M62.229 441.051c-5.537-8.248-16.663-13.691-21.491-8.352-2.231 3.1 1.157 5.819 3 4.963 1.6-.73 2.9-3.055.448-5.12 6.611 2.982 3.326 11.887-4.6 10.824-5.839-.73-9.02-6.058-7.258-11.554 4.172-11.283 24.489-8.321 29.901 9.239z" transform="translate(-28.527 -380.801)"/><path id="Path_375" data-name="Path 375" class="cls-1" d="M333.9 441.071c5.537-8.238 16.653-13.691 21.491-8.342 2.231 3.1-1.157 5.819-3 4.963-1.6-.73-2.9-3.055-.448-5.12-6.611 2.982-3.326 11.887 4.6 10.824 5.839-.73 9.02-6.058 7.258-11.554-4.176-11.293-24.489-8.331-29.901 9.229z" transform="translate(-299.083 -380.821)"/><g id="Group_321" data-name="Group 321" transform="translate(77.382)"><path id="Path_376" data-name="Path 376" class="cls-1" d="M745.843 25.9h10.688v-9.7h3.743v24.786h-3.743V29.412h-10.688v11.574H742.1V16.2h3.743z" transform="translate(-742.1 -14.511)"/><path id="Path_377" data-name="Path 377" class="cls-1" d="M965.7 21.534h-10.612l-2.763 6.017H948.3L960.563 1.2 972.4 27.55h-4.1zm-1.522-3.524L960.5 9.584l-3.858 8.425z" transform="translate(-926.799 -1.075)"/><path id="Path_378" data-name="Path 378" class="cls-1" d="M1215.043 16.2v24.786h-3.743V16.2z" transform="translate(-1162.374 -14.511)"/><path id="Path_379" data-name="Path 379" class="cls-1" d="M1300.2 26.475V0l18.081 18.915V1.689h3.744v26.3l-18.082-18.865v17.351z" transform="translate(-1242.004)"/><path id="Path_380" data-name="Path 380" class="cls-1" d="M1560.6 21.534h-10.615l-2.763 6.017h-4.022L1555.473 1.2l11.835 26.35h-4.1zm-1.522-3.524l-3.678-8.426-3.858 8.425z" transform="translate(-1459.665 -1.075)"/><path id="Path_381" data-name="Path 381" class="cls-1" d="M1806.2 26.475V0l18.081 18.915V1.689h3.743v26.3l-18.081-18.865v17.351z" transform="translate(-1695.241)"/></g><g id="Group_322" data-name="Group 322" transform="translate(77.382 36.35)"><path id="Path_382" data-name="Path 382" class="cls-1" d="M758.461 368.9h-9.979l-2.6 5.662H742.1l11.533-24.762 11.126 24.765h-3.848zm-1.439-3.306l-3.451-7.925-3.618 7.925z" transform="translate(-742.1 -349.675)"/><path id="Path_383" data-name="Path 383" class="cls-1" d="M992.914 363.8v23.305H989.4V363.8z" transform="translate(-963.613 -362.215)"/><path id="Path_384" data-name="Path 384" class="cls-1" d="M1266.525 363.8v20h6.851v3.306H1263V363.8z" transform="translate(-1208.683 -362.215)"/><path id="Path_385" data-name="Path 385" class="cls-1" d="M1400.114 363.8v23.305h-3.514V363.8z" transform="translate(-1328.352 -362.215)"/><path id="Path_386" data-name="Path 386" class="cls-1" d="M1482.4 373.49V348.6l17 17.779v-16.194h3.514v24.724l-17-17.737v16.318z" transform="translate(-1405.205 -348.6)"/><path id="Path_387" data-name="Path 387" class="cls-1" d="M1747.657 367.105h-9.343v5.6h9.072v3.306h-9.072v7.789h9.343v3.306H1734.8V363.8h12.857z" transform="translate(-1631.286 -362.215)"/><path id="Path_388" data-name="Path 388" class="cls-1" d="M1907.559 363.6l-2.857 1.689a4.913 4.913 0 00-1.522-1.814 3.555 3.555 0 00-1.95-.48 3.6 3.6 0 00-2.43.834 2.573 2.573 0 00-.97 2.054c0 1.137.845 2.054 2.534 2.742l2.325.949a9.893 9.893 0 014.15 2.8 6.314 6.314 0 011.314 4.056 7.143 7.143 0 01-2.148 5.318 7.361 7.361 0 01-5.36 2.117 7.18 7.18 0 01-5.016-1.794 8.3 8.3 0 01-2.43-5.057l3.566-.782a5.953 5.953 0 00.845 2.836 4.01 4.01 0 005.9.407 3.829 3.829 0 001.084-2.795 3.921 3.921 0 00-.188-1.241 3.338 3.338 0 00-.584-1.043 4.885 4.885 0 00-1.032-.886 9.674 9.674 0 00-1.512-.792l-2.252-.938q-4.786-2.018-4.786-5.912a5.592 5.592 0 012.013-4.39 7.24 7.24 0 014.995-1.783 6.921 6.921 0 016.311 3.905z" transform="translate(-1773.169 -358.54)"/><path id="Path_389" data-name="Path 389" class="cls-1" d="M1069.6 363.7v23.41h3.775V366.9c4.348-.261 7.039.323 7.039 3.618 0 2.784-2.148 3.775-6.5 3.639l8.478 12.951h4.442l-7.164-10.427a6.684 6.684 0 00-2.37-12.981z" transform="translate(-1035.45 -362.125)"/></g></g></g></svg>