<svg>
<path d="M10.0646 7.83914C10.0893 7.85434 10.1194 7.89213 10.1159 7.91517C10.0935 8.09902 10.308 8.12409 10.308 8.2202C10.308 8.27362 10.229 8.34623 10.1575 8.40567C10.1487 8.41258 10.1228 8.40935 10.1114 8.40083C10.0072 8.32941 9.93633 8.33102 9.83219 8.40958C9.75443 8.46857 9.71911 8.45612 9.63928 8.3794C9.59937 8.34093 9.45624 8.28011 9.37595 8.2384C9.31792 8.24785 9.2553 8.29439 9.20873 8.20776C9.20139 8.19302 9.16663 8.12087 9.14163 8.12409C9.10171 8.12893 9.05191 8.2384 9.0133 8.2202C8.89104 8.24532 8.76947 8.27411 8.64629 8.29208C8.6206 8.29554 8.57725 8.26236 8.56211 8.23495C8.53642 8.18818 8.5261 8.13242 8.5105 8.08036C8.50109 8.04971 8.50247 8.0117 8.48366 7.98889C8.43113 7.92461 8.34466 7.876 8.32034 7.80412C8.29052 7.71726 8.24235 7.6592 8.18432 7.59561C8.1483 7.55599 8.11665 7.48986 8.12147 7.43895C8.13385 7.30808 8.01589 7.24219 7.97306 7.16801C7.93023 7.09382 7.98269 7.09382 7.98269 7.09382C8.10702 7.08921 8.23295 7.09797 8.35544 7.0823C8.4387 7.07078 8.52013 7.09129 8.60477 6.99383C8.69607 6.889 8.75089 6.75353 8.86397 6.66829C8.92912 6.61991 8.99518 6.57037 9.06767 6.53627C9.09427 6.52383 9.15231 6.54526 9.1757 6.57014C9.24268 6.6411 9.36036 6.73731 9.36036 6.79961C9.29911 6.96342 9.54363 7.14451 9.55143 7.15349C9.59157 7.19911 9.6425 7.24196 9.66406 7.29633C9.67782 7.33089 9.64731 7.38365 9.62758 7.42512C9.61823 7.52815 9.77095 7.58632 9.84848 7.60252L9.88174 7.56313C9.88174 7.56313 10.0262 7.49124 10.0616 7.59216C10.0646 7.64307 10.0384 7.62648 10.0262 7.64307C9.96156 7.73154 9.97395 7.78246 10.0646 7.83914Z"/>
<path d="M6.41016 6.41348C6.40993 6.49023 6.38356 6.56937 6.35649 6.64276C6.33035 6.71399 6.27317 6.77634 6.25847 6.84901C6.24167 6.93511 6.2454 6.95372 6.25847 7.04198C6.23383 7.2103 6.12762 7.32267 5.98123 7.42338C5.77641 7.56429 5.74451 7.64724 5.57142 7.53731C5.39834 7.42738 5.03276 7.38729 4.96442 7.28934C4.91238 7.21476 4.82437 7.19605 4.69301 7.15696C4.56165 7.11786 4.48461 6.80027 4.48461 6.69576C4.48461 6.59125 4.6286 6.53076 4.66291 6.41516C4.67878 6.36216 4.75952 6.30364 4.81787 6.2938C4.97773 6.26814 5.08461 6.15326 5.2069 6.07052C5.26547 6.03095 5.32008 6.01824 5.37353 6.02471C5.43794 6.03359 5.49333 6.13539 5.57142 6.10578C5.6218 6.08667 5.62165 6.03191 5.66571 6.00505C5.70976 5.97819 5.86437 6.07055 5.98123 6.00337C6.17642 6.02471 6.11698 6.07052 6.17642 6.10578C6.30594 6.0993 6.29254 6.16501 6.33922 6.25807C6.36536 6.30939 6.41016 6.36168 6.41016 6.41348Z"/>
<path d="M2.6618 6.95814C2.6221 7.044 2.56427 7.0996 2.45494 7.13724C2.23019 7.2081 2.14158 7.28452 2.05933 7.49199C1.93619 7.61696 2.00956 7.83739 2.23455 7.86568C2.33065 7.65485 2.41207 7.43221 2.73891 7.40588C2.75818 7.40441 2.77803 7.39826 2.79587 7.39088C2.85917 7.36505 2.88362 7.32445 2.86003 7.26566C2.81544 7.15422 2.85744 7.06073 2.95555 6.98767C3.01626 6.94289 2.99756 6.91091 2.94951 6.88139C2.83702 6.81128 2.71474 6.84498 2.6618 6.95814Z"/>
<path d="M16.1997 9.98476C16.2913 10.0141 16.3416 10.0544 16.3792 10.1306C16.4481 10.2304 16.4393 10.2517 16.6893 10.2669C16.7722 10.2818 16.8786 10.335 16.9092 10.4752C16.8904 10.5534 16.8258 10.7634 16.6893 10.7893C16.5528 10.8152 16.4979 10.831 16.3792 10.9689C16.3455 11.0081 16.2403 11.029 16.1774 11.0081C16.0481 10.9657 15.9654 11.0365 15.8789 11.0825C15.6816 11.1866 15.4747 11.2215 15.2618 11.1825C15.217 11.1742 15.1224 11.1503 15.0985 11.0423C15.0827 10.97 15.0983 10.9048 15.0859 10.837C15.0606 10.6979 15.0457 10.557 15.0175 10.4189C15.0108 10.3862 14.9729 10.347 14.9401 10.335C14.9075 10.3235 14.8586 10.3339 14.8259 10.351C14.7013 10.4592 14.6071 10.4551 14.3871 10.267C14.3407 10.2458 14.309 10.1935 14.2702 10.1549C14.1742 10.06 14.0968 9.94734 14.0833 9.81661C14.0753 9.73524 14.1196 9.64689 14.1513 9.56597C14.1726 9.51187 14.1825 9.44313 14.2638 9.4287C14.2815 9.4251 14.2927 9.3843 14.3003 9.37168C14.3402 9.30515 14.3901 9.35319 14.4317 9.34801C14.557 9.36242 14.6209 9.41399 14.7318 9.5281C14.7777 9.57183 14.8071 9.63314 14.8409 9.68814C14.8657 9.72758 14.8838 9.77063 14.9066 9.81165C14.9555 9.89979 15.0296 9.88897 15.1054 9.85628C15.243 9.797 15.3766 9.72645 15.5181 9.67777C15.5812 9.6559 15.6589 9.67529 15.7298 9.67912C15.7553 9.6807 15.7806 9.69039 15.8058 9.6958L15.8085 9.69642C15.8696 9.71081 15.9243 9.72367 15.9703 9.781C16.0343 9.86034 16.1092 9.95568 16.1997 9.98476Z"/>
<path d="M13.3177 8.77208C13.4788 8.80148 13.6207 8.72553 13.7721 8.73823C13.865 8.74536 14.0821 8.73823 14.0821 8.79614C14.0821 8.88218 13.9783 8.96453 13.9193 9.02355C13.7737 9.16855 13.5867 9.24962 13.3868 9.28214C13.3093 9.29439 13.2194 9.24027 13.1357 9.21443C13.0741 9.19617 13.0132 9.17456 12.9523 9.15474C12.9523 9.15474 12.7449 9.07166 12.7618 9.08213C12.5277 9.03112 12.3026 9.14227 12.0694 9.1191C11.9791 9.10975 11.887 9.12088 11.7957 9.11621C11.7601 9.1142 11.7406 9.09438 11.7102 9.02355C11.6669 8.92225 11.7679 8.84804 11.8833 8.77453C11.8833 8.77453 11.8833 8.60557 11.9383 8.58454C11.9933 8.56351 12.1817 8.6302 12.1817 8.6302C12.1992 8.6527 12.2608 8.63978 12.3019 8.64557C12.4219 8.6625 12.5412 8.68165 12.6614 8.69725C12.7312 8.7066 12.7487 8.69725 12.807 8.69725C12.8652 8.69725 12.9266 8.56569 13.0182 8.58454C13.0723 8.59567 13.1208 8.63666 13.1357 8.66317C13.1922 8.76718 13.1954 8.74981 13.3177 8.77208Z"/>
<path d="M13.5222 10.054L13.5215 10.0568C13.64 10.1487 13.6976 10.2425 13.6389 10.328L13.64 10.3323L13.6352 10.3347C13.593 10.3973 13.5692 10.4595 13.4826 10.5066C13.3396 10.5847 13.0866 10.6337 13.0446 10.5998C12.9446 10.5193 12.9279 10.4104 12.93 10.2908C12.9313 10.189 12.8644 10.1263 12.7659 10.0908C12.6703 10.0573 12.6187 9.98301 12.6623 9.91479C12.6905 9.87003 12.6954 9.82225 12.8117 9.82225C12.9281 9.82225 13.1806 9.82225 13.3262 9.86938C13.4717 9.91651 13.4826 10.0177 13.5222 10.054Z"/>
<path d="M14.8094 11.2115C14.8419 11.2432 14.8675 11.2398 14.8094 11.2984C14.7513 11.3571 14.8607 11.3971 14.8607 11.4474C14.8607 11.4977 14.8132 11.5113 14.7513 11.4894C14.732 11.483 14.6613 11.5032 14.6522 11.5064C14.6522 11.5064 14.4015 11.544 14.2768 11.5568C14.2313 11.5612 14.1193 11.4573 14.1457 11.4163C14.1664 11.3834 14.196 11.3486 14.2323 11.3288C14.3306 11.2749 14.4342 11.2273 14.5373 11.1803C14.6603 11.1242 14.7513 11.1548 14.8094 11.2115Z"/>
<path d="M21.7959 15.0772C21.8549 15.1004 21.9173 15.118 21.9695 15.1511C21.9917 15.1652 22.0028 15.214 21.9992 15.2457C21.9856 15.4122 21.8698 15.5115 21.7534 15.6112L21.7498 15.6143C21.607 15.7371 21.4689 15.8669 21.3215 15.9839C21.2543 16.0373 21.1695 16.069 21.0922 16.1089C20.9888 16.1618 20.5424 16.3552 20.4868 16.3828C20.3834 16.4347 20.296 16.4096 20.1977 16.3673C20.1539 16.3484 20.0775 16.3673 20.0339 16.3961C19.9503 16.4517 19.8812 16.528 19.8038 16.5936C19.7684 16.6235 19.7318 16.6608 19.6894 16.6724C19.5608 16.7079 19.4709 16.7913 19.3885 16.8885C19.3721 16.9085 19.3459 16.9322 19.3232 16.9329C19.1291 16.9392 19.0667 17.1171 18.946 17.2184C18.9421 17.2223 18.8816 17.2868 18.913 17.3496C18.9445 17.4125 18.913 17.4753 18.8816 17.5382C18.8554 17.574 18.8299 17.613 18.8187 17.6325C18.8076 17.652 18.7097 17.7722 18.693 17.7896C18.6763 17.8071 18.6221 17.937 18.5359 17.9468C18.4782 17.9532 18.3948 17.9004 18.3948 17.9004C18.3948 17.9004 18.2481 17.7826 18.1707 17.7278C18.112 17.6859 18.0513 17.6463 17.9913 17.6054C17.8911 17.5757 17.7899 17.5498 17.6911 17.5153C17.5885 17.479 17.5362 17.3966 17.5133 17.2926C17.4866 17.2436 17.4589 17.1952 17.4321 17.1464C17.4194 17.099 17.39 17.0497 17.3967 17.0052C17.4309 16.7686 17.4897 16.5343 17.5083 16.2969C17.5191 16.1625 17.5242 16.0214 17.4355 15.8855C17.3673 15.7816 17.4781 15.5371 17.3967 15.4942C17.3153 15.4512 17.3153 15.5097 17.2486 15.4869C17.1818 15.4641 17.1792 15.1468 17.144 14.9749L17.1433 14.973C17.1113 14.8847 17.0792 14.7963 16.9759 14.7648C16.9096 14.7719 16.893 14.7552 16.8889 14.6773C16.885 14.5976 16.8246 14.5212 16.7921 14.4424C16.7831 14.4211 16.7853 14.3955 16.7831 14.372C16.7694 14.1886 16.9142 14.0984 17.0096 13.9775C17.0758 13.8936 17.137 13.8124 17.2625 13.8318C17.2777 13.8339 17.3032 13.8049 17.3153 13.7849C17.3758 13.6804 17.4266 13.5695 17.4948 13.4706C17.5422 13.4027 17.6111 13.3497 17.673 13.2925C17.7053 13.262 17.7227 13.0918 17.693 13.0478C17.6167 12.9364 17.5181 12.8349 17.4678 12.7125C17.3883 12.5199 17.3194 12.3161 17.4295 12.1056C17.4772 12.0142 17.5478 11.9796 17.6432 12.0118C17.7696 12.0543 17.8939 12.1022 18.0178 12.1527C18.065 12.1723 18.0924 12.21 18.1226 12.2588C18.1592 12.3185 18.2529 12.3427 18.3194 12.3855C18.434 12.4592 18.5456 12.5363 18.6607 12.6084C18.6812 12.6214 18.714 12.6168 18.7407 12.6168C18.7959 12.6166 18.8544 12.6001 18.9045 12.6139C19.0618 12.6591 19.2201 12.7067 19.3714 12.7694C19.547 12.8424 19.712 12.9419 19.8884 13.0128C20.1587 13.1216 20.3685 13.3149 20.5887 13.4938C20.675 13.5641 20.7466 13.6555 20.8162 13.7443L20.8185 13.7472C20.839 13.7737 20.8344 13.824 20.8334 13.8629C20.8306 14.0051 20.7495 14.272 20.8204 14.2884C20.8914 14.3048 21.0825 14.272 21.0825 14.272C21.1965 14.2734 21.2637 14.3512 21.2709 14.4678C21.2733 14.4985 21.2724 14.5299 21.2716 14.5608C21.268 14.6522 21.2572 14.747 21.3931 14.7479C21.402 14.7479 21.4138 14.7632 21.4181 14.774C21.4897 14.9437 21.6381 15.0158 21.7959 15.0772Z"/>
</svg>
