<svg width="24" height="24" viewBox="0 0 24 24" xmlns="http://www.w3.org/2000/svg">
<path fill-rule="evenodd" clip-rule="evenodd" d="M19.748 4.00049C20.9906 4.00049 21.998 5.00785 21.998 6.25049V17.7495C21.998 18.9921 20.9906 19.9995 19.748 19.9995L4.25195 19.9995C3.00931 19.9995 2.00195 18.9921 2.00195 17.7495L2.00195 6.25049C2.00195 5.00785 3.00931 4.00049 4.25195 4.00049L19.748 4.00049ZM20.498 6.25049C20.498 5.83627 20.1622 5.50049 19.748 5.50049L4.25195 5.50049C3.83774 5.50049 3.50195 5.83627 3.50195 6.25049L3.50195 17.7495C3.50195 18.1637 3.83774 18.4995 4.25195 18.4995L19.748 18.4995C20.1622 18.4995 20.498 18.1637 20.498 17.7495V6.25049Z"/>
<path fill-rule="evenodd" clip-rule="evenodd" d="M20.498 6.25049C20.498 5.83627 20.1622 5.50049 19.748 5.50049L4.25195 5.50049C3.83774 5.50049 3.50195 5.83627 3.50195 6.25049L3.50195 17.7495C3.50195 18.1637 3.83774 18.4995 4.25195 18.4995L19.748 18.4995C20.1622 18.4995 20.498 18.1637 20.498 17.7495V6.25049ZM15.6201 14.5415H14.543C14.1288 14.5415 13.793 14.8773 13.793 15.2915C13.793 15.7057 14.1288 16.0415 14.543 16.0415H15.6201C16.0343 16.0415 16.3701 15.7057 16.3701 15.2915C16.3701 14.8773 16.0343 14.5415 15.6201 14.5415ZM17.708 15.27C17.708 15.6842 18.0438 16.02 18.458 16.02C18.8722 16.02 19.208 15.6842 19.208 15.27C19.208 14.8558 18.8722 14.52 18.458 14.52C18.0438 14.52 17.708 14.8558 17.708 15.27ZM18.458 12.3198H14.543C14.1288 12.3198 13.793 12.6556 13.793 13.0698C13.793 13.484 14.1288 13.8198 14.543 13.8198H18.458C18.8722 13.8198 19.208 13.484 19.208 13.0698C19.208 12.6556 18.8722 12.3198 18.458 12.3198ZM10.8292 10.127C10.8292 9.00759 9.92166 8.1001 8.80221 8.1001C7.68276 8.1001 6.77526 9.00759 6.77526 10.127C6.77526 11.2465 7.68276 12.154 8.80221 12.154C9.92166 12.154 10.8292 11.2465 10.8292 10.127ZM4.78898 15.5491C4.78898 13.8946 6.59519 12.5553 8.80669 12.5553C11.027 12.5553 12.8244 13.8946 12.8156 15.5491C12.8156 15.8183 12.516 16.0415 12.1548 16.0415H5.44979C5.08854 16.0415 4.78898 15.8183 4.78898 15.5491Z"/>
</svg>
