<svg width="24" height="24" viewBox="0 0 24 24" xmlns="http://www.w3.org/2000/svg">
<path fill-rule="evenodd" clip-rule="evenodd" d="M19.748 4.00049C20.9907 4.00049 21.998 5.00785 21.998 6.25049V17.7495C21.998 18.9921 20.9907 19.9995 19.748 19.9995L4.25201 19.9995C3.00937 19.9995 2.00201 18.9921 2.00201 17.7495L2.00201 6.25049C2.00201 5.00785 3.00938 4.00049 4.25201 4.00049L19.748 4.00049ZM20.498 6.25049C20.498 5.83627 20.1622 5.50049 19.748 5.50049L4.25201 5.50049C3.8378 5.50049 3.50201 5.83627 3.50201 6.25049L3.50201 17.7495C3.50201 18.1637 3.8378 18.4995 4.25201 18.4995L19.748 18.4995C20.1622 18.4995 20.498 18.1637 20.498 17.7495V6.25049Z"/>
<path fill-rule="evenodd" clip-rule="evenodd" d="M20.498 6.25049C20.498 5.83627 20.1622 5.50049 19.748 5.50049L4.25201 5.50049C3.8378 5.50049 3.50201 5.83627 3.50201 6.25049L3.50201 17.7495C3.50201 18.1637 3.8378 18.4995 4.25201 18.4995L19.748 18.4995C20.1622 18.4995 20.498 18.1637 20.498 17.7495V6.25049ZM15.6202 14.5415H14.543C14.1288 14.5415 13.793 14.8773 13.793 15.2915C13.793 15.7057 14.1288 16.0415 14.543 16.0415H15.6202C16.0344 16.0415 16.3702 15.7057 16.3702 15.2915C16.3702 14.8773 16.0344 14.5415 15.6202 14.5415ZM17.7081 15.27C17.7081 15.6842 18.0439 16.02 18.4581 16.02C18.8723 16.02 19.2081 15.6842 19.2081 15.27C19.2081 14.8558 18.8723 14.52 18.4581 14.52C18.0439 14.52 17.7081 14.8558 17.7081 15.27ZM18.4581 12.3198H14.543C14.1288 12.3198 13.793 12.6556 13.793 13.0698C13.793 13.484 14.1288 13.8198 14.543 13.8198H18.4581C18.8723 13.8198 19.2081 13.484 19.2081 13.0698C19.2081 12.6556 18.8723 12.3198 18.4581 12.3198ZM10.8292 10.127C10.8292 9.00759 9.92172 8.1001 8.80227 8.1001C7.68282 8.1001 6.77532 9.00759 6.77532 10.127C6.77532 11.2465 7.68282 12.154 8.80227 12.154C9.92172 12.154 10.8292 11.2465 10.8292 10.127ZM4.78904 15.5491C4.78904 13.8946 6.59525 12.5553 8.80675 12.5553C11.0271 12.5553 12.8245 13.8946 12.8157 15.5491C12.8157 15.8183 12.5161 16.0415 12.1548 16.0415H5.44985C5.08861 16.0415 4.78904 15.8183 4.78904 15.5491Z" />
</svg>
