<svg width="24" height="24" viewBox="0 0 24 24" xmlns="http://www.w3.org/2000/svg">
<path fill-rule="evenodd" clip-rule="evenodd" d="M19.748 4.00052C20.9906 4.00052 21.998 5.00788 21.998 6.25052V17.7495C21.998 18.9921 20.9906 19.9995 19.748 19.9995L4.25199 19.9995C3.00935 19.9995 2.002 18.9921 2.002 17.7495L2.002 6.25052C2.002 5.00788 3.00936 4.00052 4.252 4.00052L19.748 4.00052ZM20.498 6.25052C20.498 5.8363 20.1622 5.50052 19.748 5.50052L4.252 5.50052C3.83778 5.50052 3.502 5.83631 3.502 6.25052L3.502 17.7495C3.502 18.1637 3.83778 18.4995 4.25199 18.4995L19.748 18.4995C20.1622 18.4995 20.498 18.1637 20.498 17.7495V6.25052Z"/>
<path d="M13.793 15.2915C13.793 14.8773 14.1288 14.5415 14.543 14.5415H15.6202C16.0344 14.5415 16.3702 14.8773 16.3702 15.2915C16.3702 15.7057 16.0344 16.0415 15.6202 16.0415H14.543C14.1288 16.0415 13.793 15.7057 13.793 15.2915Z"/>
<path d="M17.7081 15.2701C17.7081 14.8558 18.0438 14.5201 18.458 14.5201C18.8723 14.5201 19.208 14.8558 19.208 15.2701C19.208 15.6843 18.8723 16.0201 18.458 16.0201C18.0438 16.0201 17.7081 15.6843 17.7081 15.2701Z"/>
<path d="M13.793 13.0699C13.793 12.6556 14.1288 12.3199 14.543 12.3199H18.458C18.8723 12.3199 19.208 12.6556 19.208 13.0699C19.208 13.4841 18.8723 13.8199 18.458 13.8199H14.543C14.1288 13.8199 13.793 13.4841 13.793 13.0699Z"/>
<path fill-rule="evenodd" clip-rule="evenodd" d="M8.80225 8.10013C9.9217 8.10013 10.8292 9.00762 10.8292 10.1271C10.8292 11.2465 9.9217 12.154 8.80225 12.154C7.6828 12.154 6.77531 11.2465 6.77531 10.1271C6.77531 9.00762 7.6828 8.10013 8.80225 8.10013Z"/>
<path d="M8.80673 12.5553C6.59523 12.5553 4.78902 13.8947 4.78902 15.5491C4.78902 15.8183 5.08859 16.0415 5.44983 16.0415H12.1548C12.5161 16.0415 12.8156 15.8183 12.8156 15.5491C12.8244 13.8947 11.027 12.5553 8.80673 12.5553Z"/>
</svg>
