<svg xmlns="http://www.w3.org/2000/svg" version="1.1" viewBox="0 0 24 24" xmlns:xlink="http://www.w3.org/1999/xlink">
  <title>iconTitle</title>
  <desc>iconDesc</desc>
  <style></style>
  <path d="M12,3 C16.9705627,3 21,7.02943725 21,12 C21,16.9705627 16.9705627,21 12,21 C7.02943725,21 3,16.9705627 3,12 C3,7.02943725 7.02943725,3 12,3 Z M12,9.625 C12.382351,9.625 12.6978765,9.95879954 12.7441564,10.3902419 L12.75,10.5 L12.75,15.5 C12.75,15.9832492 12.4142136,16.375 12,16.375 C11.617649,16.375 11.3021235,16.0412005 11.2558436,15.6097581 L11.25,15.5 L11.25,10.5 C11.25,10.0167508 11.5857864,9.625 12,9.625 Z M12,7 C12.4142136,7 12.75,7.33578644 12.75,7.75 C12.75,8.16421356 12.4142136,8.5 12,8.5 C11.5857864,8.5 11.25,8.16421356 11.25,7.75 C11.25,7.33578644 11.5857864,7 12,7 Z"/>
</svg>
