<svg>
  <title>iconTitle</title>
  <desc>iconDesc</desc>
  <style></style>
  <path d="M12,2 C17.5228475,2 22,6.4771525 22,12 C22,17.5228475 17.5228475,22 12,22 C6.4771525,22 2,17.5228475 2,12 C2,6.4771525 6.4771525,2 12,2 Z M12,9.25 C11.6203042,9.25 11.306509,9.53215388 11.2568466,9.89822944 L11.25,10 L11.25,16.25 L11.2568466,16.3517706 C11.306509,16.7178461 11.6203042,17 12,17 C12.3796958,17 12.693491,16.7178461 12.7431534,16.3517706 L12.75,16.25 L12.75,10 L12.7431534,9.89822944 C12.693491,9.53215388 12.3796958,9.25 12,9.25 Z M12,7 C11.5857864,7 11.25,7.33578644 11.25,7.75 C11.25,8.16421356 11.5857864,8.5 12,8.5 C12.4142136,8.5 12.75,8.16421356 12.75,7.75 C12.75,7.33578644 12.4142136,7 12,7 Z"/>
</svg>
