<svg width="24" height="24" viewBox="0 0 24 24" xmlns="http://www.w3.org/2000/svg">
  <path d="M12,2 C17.5228475,2 22,6.4771525 22,12 C22,17.5228475 17.5228475,22 12,22 C6.4771525,22 2,17.5228475 2,12 C2,6.4771525 6.4771525,2 12,2 Z M12,3.5 C7.30557963,3.5 3.5,7.30557963 3.5,12 C3.5,16.6944204 7.30557963,20.5 12,20.5 C16.6944204,20.5 20.5,16.6944204 20.5,12 C20.5,7.30557963 16.6944204,3.5 12,3.5 Z M12,9.25 C12.3796958,9.25 12.693491,9.53215388 12.7431534,9.89822944 L12.75,10 L12.75,16.25 C12.75,16.6642136 12.4142136,17 12,17 C11.6203042,17 11.306509,16.7178461 11.2568466,16.3517706 L11.25,16.25 L11.25,10 C11.25,9.58578644 11.5857864,9.25 12,9.25 Z M12,7 C12.4142136,7 12.75,7.33578644 12.75,7.75 C12.75,8.16421356 12.4142136,8.5 12,8.5 C11.5857864,8.5 11.25,8.16421356 11.25,7.75 C11.25,7.33578644 11.5857864,7 12,7 Z"/>
</svg>
