<svg width="24" height="24" viewBox="0 0 24 24" xmlns="http://www.w3.org/2000/svg">
<path d="M19.9995 18.9721C20.757 18.9721 21.4803 19.2231 22.1606 19.6694L22.4497 19.8725L22.5083 19.9213C22.7879 20.1789 22.8321 20.6116 22.5991 20.9223C22.3505 21.2533 21.8806 21.3201 21.5493 21.0717C20.9798 20.6447 20.4669 20.4721 19.9995 20.4721C19.5322 20.4722 19.0192 20.6447 18.4497 21.0717C17.6862 21.6443 16.8652 21.9721 15.9995 21.9721C15.1339 21.972 14.3127 21.6443 13.5493 21.0717C12.9798 20.6447 12.4669 20.4721 11.9995 20.4721C11.5322 20.4722 11.0192 20.6447 10.4497 21.0717C9.68622 21.6443 8.86523 21.9721 7.99951 21.9721C7.13389 21.972 6.31273 21.6443 5.54932 21.0717C4.97981 20.6447 4.46686 20.4721 3.99951 20.4721C3.53218 20.4722 3.01918 20.6447 2.44971 21.0717C2.11845 21.32 1.64844 21.2533 1.3999 20.9223C1.15181 20.5911 1.2185 20.121 1.54932 19.8725C2.31273 19.2999 3.13389 18.9722 3.99951 18.9721C4.86515 18.9721 5.68628 19.3 6.44971 19.8725C7.01918 20.2995 7.53218 20.472 7.99951 20.4721C8.46692 20.4721 8.97973 20.2995 9.54932 19.8725C10.3127 19.2999 11.1339 18.9722 11.9995 18.9721C12.8652 18.9721 13.6863 19.3 14.4497 19.8725C15.0192 20.2995 15.5322 20.472 15.9995 20.4721C16.4669 20.4721 16.9797 20.2995 17.5493 19.8725C18.3127 19.2999 19.1339 18.9722 19.9995 18.9721Z"/>
<path d="M12.6353 3.63127C13.0433 3.5615 13.4313 3.8357 13.5015 4.24357C13.5712 4.65168 13.2972 5.03973 12.8892 5.10978C11.97 5.26697 11.4069 5.43542 10.9858 5.67424C10.797 5.78139 10.6244 5.91002 10.4546 6.0756C11.3188 5.87771 12.1078 5.80858 12.9253 5.89299C14.0077 6.00497 15.0829 6.38073 16.397 6.98185C16.7735 7.15412 16.9392 7.5994 16.7671 7.97599C16.5948 8.35265 16.1496 8.51843 15.773 8.34611C14.5105 7.76858 13.6104 7.47105 12.77 7.3842C12.1417 7.31938 11.5114 7.3686 10.7505 7.54631C11.5271 8.8512 12.0749 9.98569 12.4341 11.1928C12.839 12.5537 12.9924 13.9663 13.0103 15.766C15.3914 15.9242 16.9958 16.6315 18.0415 17.3842C18.4927 17.7091 18.8339 18.039 19.0845 18.3256C18.4986 18.456 17.9445 18.7046 17.4292 19.0424L17.1011 19.2729C16.6297 19.6262 16.2702 19.7219 16.0015 19.7221C15.7328 19.722 15.3728 19.6266 14.9009 19.2729C14.0411 18.6281 13.0662 18.2223 12.0015 18.2221C11.0697 18.2222 10.2063 18.533 9.4292 19.0424L9.10108 19.2729C8.62966 19.6262 8.27023 19.7219 8.00147 19.7221C7.73276 19.722 7.37278 19.6266 6.90088 19.2729C6.2938 18.8176 5.62956 18.4809 4.9165 18.3227C5.16661 18.0368 5.50709 17.7091 5.95654 17.3852C7.0766 16.5782 8.83752 15.8244 11.5093 15.7416C11.4903 14.04 11.3435 12.7899 10.9956 11.6205C10.7119 10.6672 10.2862 9.74081 9.65576 8.64591C9.64591 8.67655 9.63684 8.70817 9.62842 8.74064C9.53107 9.11644 9.52198 9.61164 9.52197 10.4174C9.52183 10.8315 9.18512 11.1674 8.771 11.1674C8.35729 11.1669 8.02115 10.8312 8.021 10.4174C8.021 9.80553 8.02295 9.22227 8.10791 8.70256C7.71244 8.92675 7.37898 9.17145 7.07568 9.45451C6.45802 10.0311 5.92022 10.8119 5.26221 12.0346C5.06581 12.399 4.61023 12.5355 4.24561 12.3393C3.88141 12.1428 3.74478 11.6872 3.94092 11.3227C4.62576 10.0501 5.25585 9.1015 6.05127 8.35881C6.12064 8.29406 6.19283 8.23244 6.26416 8.17131C5.95279 8.31224 5.59597 8.51076 5.16162 8.78459C4.81131 9.00492 4.3482 8.89941 4.12744 8.54923C3.90739 8.19902 4.01288 7.7358 4.36279 7.51506C5.1925 6.99203 5.90122 6.62789 6.6333 6.4672C6.83379 6.42323 7.03187 6.39632 7.229 6.38322C7.21671 6.37469 7.20454 6.36511 7.1919 6.35685C6.88785 6.15864 6.42423 5.99215 5.59912 5.809C5.19525 5.71886 4.94009 5.31758 5.02979 4.91349C5.11968 4.50948 5.52119 4.25469 5.92529 4.34416C6.77992 4.53389 7.4687 4.7455 8.01221 5.10002C8.31185 5.29557 8.55009 5.52488 8.74951 5.78654C9.17769 5.18007 9.63503 4.71594 10.2456 4.36955C10.8977 3.99975 11.6684 3.79664 12.6353 3.63127Z"/>
</svg>
