<svg width="24" height="24" viewBox="0 0 24 24" fill="none" xmlns="http://www.w3.org/2000/svg">
<path fill-rule="evenodd" clip-rule="evenodd" d="M12.6406 3.69407C13.0485 3.62453 13.4357 3.89865 13.5059 4.30638C13.5756 4.71436 13.3023 5.10235 12.8945 5.17259C11.9753 5.32976 11.4123 5.49827 10.9912 5.73704C10.8023 5.84418 10.6298 5.97286 10.46 6.13841C11.3241 5.94057 12.1123 5.87137 12.9297 5.95579C14.0124 6.06774 15.0879 6.44332 16.4023 7.04466C16.7787 7.21692 16.9443 7.6623 16.7725 8.0388C16.6002 8.41539 16.1549 8.58108 15.7783 8.40892C14.5158 7.83136 13.6158 7.53391 12.7754 7.447C12.1643 7.38391 11.5516 7.43025 10.8184 7.59642C11.5661 8.87882 12.0931 10.036 12.4414 11.2605C12.8086 12.5514 12.9688 13.886 13.0078 15.4783C15.391 15.636 16.9958 16.3432 18.042 17.0964C18.631 17.5206 19.0324 17.9521 19.29 18.2868C19.4183 18.4536 19.5111 18.5973 19.5742 18.7038C19.5759 18.7067 19.5775 18.7098 19.5791 18.7126C19.7181 18.6955 19.8585 18.6833 20 18.6833C20.7573 18.6835 21.4809 18.9344 22.1611 19.3806L22.4502 19.5837L22.5088 19.6325C22.7881 19.89 22.832 20.3229 22.5996 20.6335C22.351 20.9645 21.881 21.0312 21.5498 20.7829C20.9805 20.3561 20.4672 20.1835 20 20.1833C19.5328 20.1834 19.0195 20.3562 18.4502 20.7829C17.6869 21.3554 16.8655 21.6832 16 21.6833C15.1344 21.6833 14.3132 21.3555 13.5498 20.7829C12.9805 20.3561 12.4672 20.1835 12 20.1833C11.5328 20.1834 11.0195 20.3562 10.4502 20.7829C9.68685 21.3554 8.86553 21.6832 8 21.6833C7.13437 21.6833 6.31322 21.3555 5.5498 20.7829C4.9805 20.3561 4.46722 20.1835 4 20.1833C3.5328 20.1834 3.01947 20.3562 2.45019 20.7829C2.11895 21.0312 1.64895 20.9645 1.40039 20.6335C1.15233 20.3023 1.21896 19.8322 1.5498 19.5837C2.31307 19.0114 3.13457 18.6834 4 18.6833C4.14119 18.6834 4.28115 18.6955 4.41992 18.7126C4.42145 18.71 4.42324 18.7075 4.4248 18.7048C4.48795 18.5981 4.58143 18.455 4.70996 18.2878C4.96748 17.9529 5.36794 17.5219 5.95703 17.0974C7.07671 16.2907 8.83653 15.536 11.5068 15.4529C11.4672 13.9711 11.3168 12.7878 10.999 11.6706C10.7182 10.6834 10.2993 9.72423 9.68652 8.63743C9.66638 8.69007 9.6489 8.74517 9.63379 8.80345C9.53644 9.17926 9.52734 9.67442 9.52734 10.4802C9.52721 10.8943 9.19046 11.2302 8.77637 11.2302C8.36235 11.2301 8.0265 10.8942 8.02637 10.4802C8.02637 9.86835 8.02735 9.28507 8.1123 8.76536C7.71705 8.98945 7.38421 9.23441 7.08105 9.51731C6.46334 10.0939 5.92561 10.8747 5.26758 12.0974C5.07123 12.462 4.61564 12.5983 4.25098 12.4021C3.88638 12.2057 3.75004 11.7502 3.94629 11.3855C4.63116 10.1129 5.26114 9.1643 6.05664 8.42161C6.1259 8.35696 6.19734 8.29515 6.26855 8.23411C5.95732 8.37501 5.60107 8.57375 5.16699 8.84739C4.81665 9.06792 4.35362 8.96229 4.13281 8.61204C3.91245 8.26172 4.01799 7.79863 4.36816 7.57786C5.19789 7.05484 5.90654 6.69062 6.63867 6.53001C6.83928 6.48602 7.03712 6.45911 7.23437 6.44603C7.22183 6.43734 7.20918 6.42807 7.19629 6.41966C6.89225 6.22143 6.42965 6.05497 5.60449 5.87181C5.20026 5.78194 4.94444 5.38059 5.03418 4.9763C5.12406 4.5722 5.52552 4.31741 5.92969 4.40696C6.78462 4.59674 7.47297 4.80913 8.0166 5.1638C8.31637 5.35943 8.55541 5.58754 8.75488 5.84935C9.18311 5.24286 9.64027 4.77872 10.251 4.43235C10.9031 4.06255 11.6736 3.85944 12.6406 3.69407ZM11.999 16.945C9.33718 16.9451 7.74362 17.6588 6.83398 18.3142C6.37499 18.645 6.07743 18.9703 5.89941 19.2019C5.89603 19.2063 5.89196 19.2103 5.88867 19.2146C6.07884 19.3228 6.26651 19.446 6.45019 19.5837C7.01968 20.0107 7.53266 20.1833 8 20.1833C8.46727 20.1832 8.98042 20.0106 9.5498 19.5837C10.3131 19.0114 11.1346 18.6834 12 18.6833C12.8655 18.6835 13.6869 19.0113 14.4502 19.5837C15.0197 20.0107 15.5327 20.1833 16 20.1833C16.4673 20.1832 16.9804 20.0106 17.5498 19.5837C17.7333 19.4461 17.9204 19.3227 18.1103 19.2146C18.1071 19.2102 18.104 19.2053 18.1006 19.2009C17.9225 18.9695 17.6246 18.6445 17.166 18.3142C16.2559 17.6589 14.6611 16.9451 11.999 16.945Z" fill="#676767"/>
</svg>
