<svg xmlns="http://www.w3.org/2000/svg" viewBox="0 0 400 300"><path d="M24.7 159.5l.1 1.6h-1.4l1.3-1.6zm13-3.2c1.5-.9 2.4-1.8 2.9-2.6-1.6 8-8.8 14.3-17.5 14.3s-15.9-6.2-17.6-14.3c.6.8 1.4 1.7 2.9 2.7-1.3-1.2-2.7-2.8-3.3-4.7-.1-1.1-.1-2.8.1-4 .4 1.7 1.5 4.1 3.9 6-2.1-2.3-3.4-5.1-3.6-8 .4-1.6 1-3.1 1.8-4.5-.4 2.9.3 6.8 3.1 10-2.5-3.5-3.1-7.8-2-11.7 3.3-4.4 8.5-7.3 14.4-7.3s11.2 2.9 14.4 7.3c1.1 3.9.4 8.2-2 11.7 2.8-3.1 3.5-7 3.1-10 .8 1.4 1.4 2.9 1.8 4.5-.2 2.9-1.5 5.7-3.6 8 2.4-1.9 3.6-4.3 3.9-6 .2 1.2.2 2.8.1 4-.1 1.8-1.4 3.4-2.8 4.6zm-17.8 5.1l1.3-3.4h-2.4l-1.2 3.1c-.4 1-1.3 1.1-2.5.9l-.4 1.1c.5.1 1 .2 1.7.2 1.2 0 2.9-.2 3.5-1.9zm7.4 1.7l-.5-5.1h-2.2c-.3 0-.6.2-.8.4l-4.1 4.8h2l.8-1h2.2v1h2.6zm6.6-1.1h-3.1l1.6-4H30l-2 5.1h5.6l.3-1.1zm.8-17.9c0-6.3-5.2-11.6-11.6-11.6-6.4 0-11.6 5.2-11.6 11.6 0 4.4 2.4 7.9 5.3 9.7.2 1 .7 2 1.2 2.8-1.4-3.9-.3-8.8 5.9-13.5 1.7-1.3 1.1-2.8-.6-2.9l-9.7-.6v-.1l9-.8c1.6-2 4.3-1.9 5.8-.1.6.7 1.4 1.6 1.8 1.9-3.1 1.8-7.3 5.2-7.7 8.6-.6 4.4 4.9 6.7 8.6 3.1 2.1-1.8 3.6-4.7 3.6-8.1z" fill="#c00"/><path d="M386 146c.1-1.2-.2-2.1-2.8-2.1-2.6 0-4 .9-4.5 2.1-1.3 3.2 16.5.1 13.7 7.4-1.9 4.9-8.3 6.4-15.3 6.4s-11.5-1.5-10.4-6.4h8.9c-.2 1.3.6 2.1 3.2 2.1s4.3-.9 4.8-2.1c1.2-3.2-16.3-.1-13.5-7.4 1.6-4.1 7.7-6 14.7-6 6.9 0 10.9 1.5 10.1 6H386zm-150.6-5.5l-7.1 18.6h8.9l7.1-18.6h-8.9zm67.1 0l-7.1 18.6h8.9l7.1-18.6h-8.9zm59.7 10.9l1.4-3.6H353l1.4-3.8h12.7l1.4-3.6H347l-7.1 18.6h21.6l1.5-3.9h-12.7l1.4-3.8h10.5zm-180.8-1.1l-5.3-9.8h-8.3l-7.1 18.6h7.2l4.2-11 6 11h7.2l7.1-18.6h-7.2l-3.8 9.8zm152.9-9.8l-3.7 9.8-5.3-9.8H317l-7.1 18.6h7.2l4.2-11 6 11h7.2l7.1-18.6h-7.3zm-252.1 0h-8.9L69 151.8c-1.4 3.5-4.8 3.9-8.9 3.4l-1.5 3.9c1.7.4 3.8.6 6.2.6 4.3 0 10.3-.5 12.7-6.9l4.7-12.3zm41 11.9h-4.9l-2.6 6.8h-8.9l7.1-18.6h13.8c8.2 0 10.9 2.2 9.5 5.9-1.4 3.7-5.9 5.9-14 5.9zm3.1-8.3h-4.9l-1.8 4.7h4.9c1.6 0 3.3-1 3.8-2.4.5-1.3-.4-2.3-2-2.3zm139.6 7.6l2.4 7.4h-9.7l-1.8-6.8h-2.7l-2.6 6.8h-8.9l7.1-18.6h13.8c8.2 0 10.9 2.2 9.5 5.9-.9 2.6-3.2 4.4-7.1 5.3zm-3.6-7.6h-4.9l-1.8 4.7h4.9c1.6 0 3.3-1 3.8-2.4.5-1.3-.4-2.3-2-2.3zm26.4-3.6h-8.9l-7.1 18.6h20.1l1.5-3.9H283l5.7-14.7zm-186 0l1.8 18.6h-8.9l-.1-3.7h-8l-2.9 3.7h-7.3l14.9-17.2c.7-.8 1.8-1.4 2.7-1.4h7.8zm-7.3 11.4l-.2-6-4.8 6h5zm61.2-11.4l1.8 18.6h-8.9l-.1-3.7h-8l-3 3.7H131l14.9-17.2c.7-.8 1.8-1.4 2.7-1.4h8zm-7.4 11.4l-.2-6-4.8 6h5zm75.1-11.4l1.8 18.6h-8.9l-.1-3.7h-8l-2.9 3.7h-7.3l14.9-17.2c.7-.8 1.8-1.4 2.7-1.4h7.8zm-7.4 11.4l-.2-6-4.8 6h5z"/></svg>