<svg xmlns="http://www.w3.org/2000/svg" width="400" height="300"><path fill="#00A1E4" d="M187.725 90.856c2.727-.007 5.453.008 8.188-.029.015 2.726.015 5.452.029 8.171 2.689.023 5.378.06 8.067-.111-.021-2.682-.015-5.363-.015-8.037 2.703.016 5.414 0 8.119 0 .081-2.719.081-5.438.061-8.157-2.727.022-5.46.008-8.188.016.016-2.771.021-5.535-.045-8.306h-8.156c.319 2.756.074 5.542.135 8.313-2.742-.015-5.49-.007-8.239 0 .007 2.71 0 5.429.044 8.14zM152.269 125.392c7.436-.142 13.973-7.146 13.341-14.62.179-8.55-8.84-15.384-17.056-13.408-7.555 1.404-12.933 9.739-10.875 17.183 1.404 6.507 7.925 11.416 14.59 10.845zM184.263 125.415c7.646.201 14.642-6.923 13.981-14.612.229-8.551-8.818-15.399-17.026-13.453-7.303 1.359-12.569 9.137-11.062 16.424 1.063 6.634 7.362 11.931 14.107 11.641zM204.744 103.708c-3.58 5.49-2.586 13.364 2.191 17.836 4.256 4.116 11.173 5.111 16.395 2.296 4.971-2.548 8.171-8.171 7.532-13.766-.305-8.238-9.003-14.604-16.967-12.71-3.765.721-7.138 3.098-9.151 6.344zM242.616 123.713c4.679 2.622 10.853 2.221 15.152-.988 4.628-3.306 6.813-9.479 5.379-14.969-1.642-7.131-9.383-12.012-16.521-10.407-5.815 1.032-10.601 6.144-11.275 12.005-.885 5.683 2.153 11.707 7.265 14.359zM151.124 128.958c-.06 5.675-.156 11.365.052 17.041 32.641-.134 65.29-.022 97.938-.059.008-5.646.008-11.292 0-16.945-32.663-.015-65.326.059-97.99-.037zM217.076 209.045c-13.461.09-26.921.008-40.39.045-.015-16.23 0-32.463 0-48.693-8.432-.016-16.863-.016-25.294 0-.03 21.402.06 42.805-.044 64.197-12.086-11.492-23.66-23.541-35.643-35.16 9.509-9.805 19.352-19.291 28.935-29.03-8.313-.021-16.625-.021-24.938 0-8.179 7.831-16.172 15.847-24.351 23.677-.022-7.896.007-15.793-.007-23.684-8.253-.016-16.499-.008-24.745-.008v65.172c8.313.044 16.625-.023 24.938.035.082-7.807-.044-15.605.067-23.414 7.777 7.801 15.622 15.533 23.362 23.371 32.73.043 65.468.015 98.197.015-.059-5.505.098-11.019-.087-16.523zM289.637 160.395c-3.907 11.203-7.866 22.384-11.736 33.594-.171.616-.646 1.063-.979 1.59-4.049-11.744-7.801-23.602-12.088-35.257-13.578.155-27.157.022-40.737.067-.016 21.729.008 43.457-.007 65.178 8.342.008 16.685.008 25.027.008.015-14.82-.017-29.641.006-44.453.699.373 1.145.951 1.322 1.746 4.971 14.219 10.066 28.393 14.991 42.633 7.853.155 15.718.053 23.577.053 4.852-13.93 9.829-27.813 14.68-41.742.498-1.105.617-2.584 1.782-3.238.119 14.998.03 29.997.045 44.988 8.357 0 16.722.066 25.079-.038v-65.119c-13.654-.03-27.309-.024-40.962-.01z"/></svg>