<svg xmlns="http://www.w3.org/2000/svg" height="630" width="2670"><g fill-rule="evenodd"><g fill="#2a0088"><path d="M2135.9 470.04l80.21-310h88.682s22.491-2.167 34.058 7 14.847 23.333 14.847 23.333l48.185 150.02 62.878-180.35h85.815s21.344 0 32.405 8.667 14.386 21.667 14.386 21.667l70.344 279.67h-83.324l-62.85-238.38-65.966 181.72h-88.328s-10.643 1.042-20.818-5.834c-10.175-6.875-10.495-13.167-10.495-13.167l-53.773-162.71-61.698 238.38zM1309.66 160v61.834l148.82 10v238.17h85.953v-238.17l148.82-10V160zM1062.33 160l-155 310h95.279l27.076-57h172.82l26.457 57h94.748l-147.05-289.67s-4.804-10.669-13.137-15.438c-8.333-4.768-17.102-4.896-17.102-4.896h-84.094zm52.625 66.943l56.961 123.06h-114.81l57.848-123.06zM580 160v310h261.67l35.667-71.333h-207.67v-238.67zM1835.3 160l-155 310h95.279l27.076-57h172.82l26.457 57h94.748l-147.05-289.67s-4.804-10.669-13.137-15.438c-8.333-4.768-17.102-4.896-17.102-4.896h-84.094zm52.625 66.943l56.961 123.06h-114.81l57.848-123.06z"/></g><g fill="#ed1651"><path d="M47.32 259.62l68.786-19.648s-.737-4.594-3.203-6.85-6.903-3.649-6.903-3.649l-95.605-34.728s-3.035-1.02-5.253.208-2.139 4.42-2.139 4.42v44.458s-.238 4.257 5.927 13.798c6.166 9.541 20.77 7.111 20.77 7.111zM321.15 152.35l63.986-35.848s.963-6.194-1.503-8.45-5.403-2.949-5.403-2.949L101.89 6.49s-3.035-1.02-5.253.208-2.139 4.42-2.139 4.42V49.45s-.038 8.882 6.127 18.423c6.166 9.54 16.17 12.01 16.17 12.01zM321.15 263.93l63.986-33.148s1.363-8.394-1.103-10.649c-2.467-2.255-5.803-3.45-5.803-3.45L10.39 83.074s-3.035-1.02-5.253.208-2.139 4.42-2.139 4.42v38.333s-.038 8.882 6.127 18.423c6.166 9.54 16.17 12.01 16.17 12.01z"/></g><g fill="#2a0088"><path d="M378.23 105.1s3.735.566 6.903 3.65 3.203 6.849 3.203 6.849v50.754s-.152 6.934-2.996 13.17c-2.845 6.236-7.01 7.71-7.01 7.71l-8.667 3.149-276.16 100.31s-1.328.41-3.055.41-3.056-.41-3.056-.41l-76.943-27.95s-1.909-.443-4.617-4.686c-3.05-4.76-2.83-14.21-2.83-14.21s.478 4.845 3.217 7.145 10.037-.223 10.037-.223l353.41-128.37s14.033-5.725 14.033-11.541c0-4.016-5.467-5.74-5.467-5.74zM378.23 216.68s3.735.566 6.903 3.65 3.203 6.849 3.203 6.849v50.754s-.152 6.934-2.996 13.17c-2.845 6.235-7.01 7.71-7.01 7.71l-8.667 3.149-276.16 100.31v-68l276.16-100.31s14.033-5.725 14.033-11.541c0-4.016-5.466-5.74-5.466-5.74zM241.14 395.32c2.643 2.643 2.643 8.46 2.643 8.46v37.953s-.152 6.934-2.996 13.17c-2.845 6.235-7.01 7.71-7.01 7.71l-8.667 3.149L93.5 513.569v-68l131.61-47.807s13.387-5.085 16.03-2.442zM156.24 537.24c2.643 2.643 2.643 8.46 2.643 8.46v37.952s-.152 6.935-2.996 13.17c-2.845 6.236-7.01 7.711-7.01 7.711l-8.667 3.149-46.71 17.807v-68l46.71-17.807s13.387-5.085 16.03-2.442z"/></g></g></svg>