<svg>
  <defs>
    <style>
      .cls-1 {
        fill: currentColor;
      }
    </style>
  </defs>
  <path class="cls-1" d="M10.5 9.5C10.5 10.0523 10.0523 10.5 9.5 10.5C8.94772 10.5 8.5 10.0523 8.5 9.5C8.5 8.94772 8.94772 8.5 9.5 8.5C10.0523 8.5 10.5 8.94772 10.5 9.5Z"/>
  <path class="cls-1" d="M15.5 9.5C15.5 10.0523 15.0523 10.5 14.5 10.5C13.9477 10.5 13.5 10.0523 13.5 9.5C13.5 8.94772 13.9477 8.5 14.5 8.5C15.0523 8.5 15.5 8.94772 15.5 9.5Z"/>
  <path class="cls-1" fill-rule="evenodd" clip-rule="evenodd" d="M5.25211 9C5.25211 5.27208 8.27418 2.25 12.0021 2.25C15.73 2.25 18.7521 5.27208 18.7521 9C18.7521 12.7279 15.73 15.75 12.0021 15.75C8.27418 15.75 5.25211 12.7279 5.25211 9ZM12.0021 3.75C9.10261 3.75 6.75211 6.1005 6.75211 9C6.75211 11.8995 9.10261 14.25 12.0021 14.25C14.9016 14.25 17.2521 11.8995 17.2521 9C17.2521 6.1005 14.9016 3.75 12.0021 3.75Z"/>
  <path class="cls-1" fill-rule="evenodd" clip-rule="evenodd" d="M5.25 9C5.25 5.27208 8.27208 2.25 12 2.25C15.7279 2.25 18.75 5.27208 18.75 9V15C18.75 18.7279 15.7279 21.75 12 21.75C8.27208 21.75 5.25 18.7279 5.25 15V9ZM12 3.75C9.10051 3.75 6.75 6.1005 6.75 9V15C6.75 17.8995 9.10051 20.25 12 20.25C14.8995 20.25 17.25 17.8995 17.25 15V9C17.25 6.10051 14.8995 3.75 12 3.75Z"/>
  <path class="cls-1" fill-rule="evenodd" clip-rule="evenodd" d="M10.3508 11.6245C10.5582 11.2659 11.017 11.1434 11.3755 11.3508C11.5586 11.4567 11.7711 11.5176 12 11.5176C12.2289 11.5176 12.4414 11.4567 12.6245 11.3508C12.983 11.1434 13.4418 11.2659 13.6492 11.6245C13.8566 11.983 13.7341 12.4418 13.3755 12.6492C12.9703 12.8836 12.4996 13.0176 12 13.0176C11.5004 13.0176 11.0297 12.8836 10.6245 12.6492C10.2659 12.4418 10.1434 11.983 10.3508 11.6245Z"/>
  <path class="cls-1" fill-rule="evenodd" clip-rule="evenodd" d="M14 3.25C14.4142 3.25 14.75 3.58579 14.75 4C14.75 5.51878 13.5188 6.75 12 6.75C11.5858 6.75 11.25 6.41421 11.25 6C11.25 5.58579 11.5858 5.25 12 5.25C12.6904 5.25 13.25 4.69036 13.25 4C13.25 3.58579 13.5858 3.25 14 3.25Z"/>
</svg>
