<svg>
  <defs>
    <style>
      .cls-1 {
        fill: none;
        stroke: currentColor;
        stroke-linecap: round;
        stroke-linejoin: round;
      }
    </style>
  </defs>
  <path class="cls-1" d="M12.6721 12.72C12.4878 12.8886 12.247 12.9822 11.9971 12.9822C11.7473 12.9822 11.5065 12.8886 11.3221 12.72"/>
  <path class="cls-1" d="M18.0021 9.95996V14.62C18.0248 15.4303 17.8875 16.2371 17.5981 16.9944C17.3088 17.7516 16.8731 18.4445 16.3159 19.0333C15.7587 19.6221 15.0909 20.0953 14.3507 20.4259C13.6105 20.7565 12.8125 20.9379 12.0021 20.96C10.3664 20.9129 8.81614 20.2189 7.69135 19.0304C6.56656 17.8419 5.9591 16.2558 6.00214 14.62V9.95996"/>
  <path class="cls-1" d="M10.0021 10.1899C9.93696 10.2565 9.85917 10.3094 9.77332 10.3455C9.68746 10.3815 9.59526 10.4 9.50214 10.4C9.40901 10.4 9.31681 10.3815 9.23096 10.3455C9.1451 10.3094 9.06731 10.2565 9.00214 10.1899"/>
  <path class="cls-1" d="M15.0021 9.95996C14.8679 10.0895 14.6887 10.1619 14.5021 10.1619C14.3156 10.1619 14.1364 10.0895 14.0021 9.95996"/>
  <path class="cls-1" d="M12.0021 16C15.3158 16 18.0021 13.3137 18.0021 10C18.0021 6.68629 15.3158 4 12.0021 4C8.6884 4 6.00211 6.68629 6.00211 10C6.00211 13.3137 8.6884 16 12.0021 16Z"/>
  <path class="cls-1" d="M14.7921 4.95996C14.5875 5.53873 14.2103 6.0408 13.7114 6.39844C13.2125 6.75608 12.6159 6.95208 12.0021 6.95996"/>
</svg>
