<svg width="24" height="24" viewBox="0 0 24 24" fill="none" xmlns="http://www.w3.org/2000/svg">
<path d="M20.87 11.65C20.87 10.58 20 9.71 18.93 9.71H12.04C10.94 9.71 10.04 10.61 10.04 11.71V12.1H9.26999V4C9.26999 2.9 8.36999 2 7.26999 2H5.14999C4.04999 2 3.14999 2.9 3.14999 4V11.59C3.14999 12.69 4.04999 13.59 5.14999 13.59H5.86999L8.15999 18.66V20C8.15999 21.1 9.05999 22 10.16 22H14.87C15.29 22 15.68 21.79 15.92 21.43C16.15 21.08 16.19 20.63 16.02 20.24L15.47 19C17.99 18.2 19.41 15.63 19.64 13.46C20.37 13.18 20.88 12.47 20.88 11.65H20.87ZM11.53 11.7C11.53 11.42 11.75 11.2 12.03 11.2H18.92C19.17 11.2 19.36 11.4 19.36 11.65C19.36 11.9 19.16 12.09 18.92 12.09H11.53V11.7ZM5.12999 12.1C4.84999 12.1 4.62999 11.88 4.62999 11.6V4.01C4.62999 3.73 4.84999 3.51 5.12999 3.51H7.24999C7.51999 3.51 7.74999 3.74 7.74999 4.01V12.1H5.12999ZM14.32 17.72C14.32 17.72 14.31 17.72 14.3 17.72C14.15 17.74 13.98 17.75 13.82 17.75H13.45C13.04 17.75 12.7 18.09 12.7 18.5C12.7 18.91 13.04 19.25 13.45 19.25H13.82C13.82 19.25 13.89 19.25 13.92 19.25L14.47 20.5H10.15C9.86999 20.5 9.64999 20.28 9.64999 20V18.34L7.50999 13.6H18.11C17.83 15.24 16.66 17.44 14.32 17.72Z"/>
</svg>
