<svg xmlns="http://www.w3.org/2000/svg" width="400" height="300"><path fill="#F9BA00" d="M12.977 89.835h376.045v117.916H12.977z"/><path fill="#00235F" d="M93.498 148.5c0 15.484-12.471 27.896-28.019 27.896-15.379 0-27.892-12.471-27.892-27.852 0-15.704 12.512-28.068 28.396-28.068 15.099.001 27.515 12.695 27.515 28.024m-53.014 0c0 13.809 11.188 24.99 24.994 24.99 13.868 0 25.114-11.129 25.114-24.944 0-14.089-11.078-25.155-25.276-25.155-13.585-.001-24.832 11.341-24.832 25.109zm18.904-1.126l-.342.675c-1.285-.281-3.631-1.18-6.092-2.299l-.336.622 1.008.555c3.576 1.849 4.753 2.235 6.823 2.235 4.135 0 7.269-2.346 8.727-6.482 2.567-.502 5.869-.724 9.78-.724 3.355 0 6.266.165 10.011.616l-.949 1.172c-1.734-.229-4.926-.45-7.219-.45-2.737 0-4.472.058-5.365.112l-.445 1.008c2.293-.112 3.126-.112 4.921-.112 3.02 0 5.419.112 7.375.277l-.947 1.229c-3.522-.104-5.143-.166-7.767-.166-1.458 0-2.521.061-4.253.107l-.45 1.009c1.506-.108 3.577-.166 5.76-.166 2.07 0 4.525.058 5.983.111l-.954 1.237c-.996-.064-2.958-.064-4.471-.064-2.4 0-5.419.111-6.985.34l-.45.891c2.852-.274 4.64-.388 7.772-.388 1.23 0 2.01 0 3.414.112l-1.068 1.285c-1.901-.113-2.508-.113-3.24-.113-5.311 0-8.772.78-12.248 2.74 3.187 3.184 8.498 5.365 13.257 5.365.39 0 .611 0 1.62-.055l-2.298 2.299c-12.632-3.301-14.869-4.197-26.445-11.074-4.58-2.629-8.331-4.418-11.354-5.313l.396-1.396c.731.106 2.292.558 3.75 1.061l.667-1.512 12.414 5.256zM140.119 129.818v29.92h15.771v7.373h-25.108v-37.293h9.337m35.279 37.293l-.275-2.622c-2.186 2.292-4.646 3.354-7.718 3.354-3.804 0-6.877-1.566-8.443-4.246-1.176-2.018-1.344-3.023-1.344-7.441v-15.879h8.779v15.541c0 3.921 1.117 5.541 3.859 5.541 2.904 0 4.362-1.903 4.362-5.541v-15.541h8.773v26.834h-7.993zm27.905-31.364h-1.459c-3.246 0-4.081.78-4.081 3.745v.785h5.197v5.923h-5.197v20.911h-8.773V146.2h-3.805v-5.923h3.805v-.785c0-7.042 2.623-9.674 9.5-9.674h4.813v5.929zm13.472-3.859v8.389h4.979v5.923h-4.979v10.625c.06 3.917.289 4.141 3.637 4.141h1.735v6.146h-6.597c-5.202 0-7.555-2.4-7.555-7.875V146.2h-3.686v-5.923h3.686v-8.389h8.78zm16.101-2.07v13.475c1.633-2.628 3.919-3.801 7.334-3.801 3.686 0 6.655 1.564 8.271 4.417 1.176 2.069 1.349 3.188 1.349 7.661v15.541h-8.729V151.91c0-3.861-1.171-5.592-3.858-5.592-2.905 0-4.363 1.897-4.363 5.592v15.201h-8.771v-37.293h8.767zm20.691 19.014c0-6.09 4.759-9.675 12.699-9.675 8.33 0 12.464 3.466 12.464 10.508v13.704c0 2.346 0 2.346.727 3.742h-8.103l-.503-2.229c-2.796 2.457-5.203 3.349-8.722 3.349-5.934 0-10.229-3.521-10.229-8.381 0-4.031 2.622-6.884 7.766-8.338.785-.222 3.36-.726 7.771-1.563 1.907-.395 2.629-1.006 2.629-2.289 0-1.512-1.566-2.521-3.913-2.521-2.853 0-4.525 1.346-4.584 3.695l-8.002-.002zm16.719 5.419c-1.115.34-1.453.446-2.345.731a52.756 52.756 0 01-3.188.725c-2.851.727-4.254 1.85-4.254 3.577 0 1.737 1.344 2.741 3.534 2.741 4.248 0 6.253-1.898 6.253-5.869v-1.905zm19.521-13.974l.281 3.016c2.064-2.628 4.52-3.801 7.767-3.801 3.749 0 6.774 1.619 8.341 4.417 1.109 2.069 1.338 3.246 1.338 7.661v15.541h-8.779V151.91c0-3.969-1.122-5.592-3.857-5.592-2.856 0-4.304 1.897-4.304 5.592v15.201h-8.786v-26.834h7.999zm37.016 8.386c-.229-2.517-1.292-3.465-3.968-3.465-2.186 0-3.522.838-3.522 2.239 0 1.282 1.278 2.064 4.188 2.512l3.023.562c6.374 1.063 9.337 3.742 9.337 8.386 0 5.703-4.864 9.334-12.471 9.334-9.001 0-13.923-3.575-13.923-10.057h8.553v.329c0 2.238 1.85 3.642 4.813 3.642 2.566 0 4.134-.955 4.134-2.468 0-1.565-1.458-2.459-4.866-3.073l-2.79-.445c-6.378-1.118-9.123-3.412-9.123-7.656 0-5.822 4.86-9.343 12.867-9.343 5.588 0 9.056 1.507 10.849 4.751.779 1.346.89 1.792 1.117 4.754l-8.218-.002zm12.24.169c.062-6.044 4.813-9.675 12.806-9.675 8.336 0 12.409 3.466 12.409 10.508v13.704c0 2.293 0 2.293.732 3.742h-8.16l-.443-2.229c-3.248 2.622-5.15 3.349-8.72 3.349-5.996 0-10.292-3.521-10.292-8.381 0-4.031 2.627-6.884 7.765-8.338.786-.222 3.362-.779 7.777-1.563 1.843-.395 2.624-1.006 2.624-2.289 0-1.512-1.567-2.521-3.858-2.521-2.852 0-4.586 1.402-4.586 3.695l-8.054-.002zm16.786 5.419c-1.123.34-1.521.446-2.414.731-.953.164-2.01.394-3.188.725-2.85.727-4.248 1.85-4.248 3.577 0 1.737 1.338 2.741 3.582 2.741 4.248 0 6.268-1.898 6.268-5.869v-1.905z"/></svg>