<svg>
<path d="M12.5822 10.8592L12.5796 10.8627H12.5822V10.8592Z"/>
<path fill-rule="evenodd" clip-rule="evenodd" d="M12.0064 20.34C11.3581 20.34 10.7098 20.3394 10.0615 20.3388C8.33296 20.3372 6.6044 20.3357 4.87583 20.3452C4.24489 20.3492 3.71102 19.9084 3.62445 19.3129C3.61526 19.2512 3.61133 19.1883 3.61133 19.1253V4.75534C3.61133 4.06406 4.12684 3.54068 4.82074 3.53543C5.41941 3.53176 6.01809 3.53259 6.61676 3.53341C6.87333 3.53377 7.12991 3.53412 7.38648 3.53412C8.36897 3.53412 9.35145 3.53437 10.3339 3.53461C13.2814 3.53535 16.2288 3.53609 19.1763 3.53018C19.8269 3.52887 20.2703 3.97224 20.3765 4.38543C20.408 4.50611 20.429 4.63204 20.429 4.75534C20.4316 9.54052 20.4316 14.3257 20.4316 19.1096C20.4316 19.8114 19.9174 20.3347 19.2143 20.3374C18.5777 20.34 17.9411 20.3391 17.3045 20.3382C16.9861 20.3378 16.6678 20.3374 16.3495 20.3374H12.0051L12.0064 20.34ZM12.5822 10.8592C12.8216 10.5314 13.0924 10.2455 13.4335 10.0311C13.9661 9.69662 14.5459 9.55495 15.1716 9.6271C15.2312 9.63391 15.2911 9.64023 15.351 9.64656C15.614 9.67432 15.8781 9.70219 16.1292 9.7727C17.0421 10.0285 17.5616 10.6804 17.7662 11.5724C17.8803 12.0682 17.9498 12.5837 17.9577 13.0927C17.9735 14.065 17.9719 15.0373 17.9703 16.0096C17.9694 16.5694 17.9684 17.1292 17.9708 17.689C17.9708 17.8516 17.9197 17.8936 17.7649 17.8923C17.2535 17.8875 16.7422 17.8883 16.2308 17.8891C16.0391 17.8894 15.8473 17.8897 15.6556 17.8897C15.4366 17.8897 15.4339 17.887 15.4339 17.6719C15.4335 17.2512 15.434 16.8305 15.4345 16.4098C15.4356 15.5083 15.4367 14.6068 15.4287 13.7053C15.4261 13.3773 15.3972 13.0441 15.3251 12.7254C15.1939 12.1417 14.8187 11.8597 14.2206 11.8531C14.0343 11.8518 13.8415 11.8636 13.6618 11.9082C13.0859 12.0525 12.8433 12.4932 12.7462 13.0284C12.699 13.2894 12.6819 13.5583 12.6806 13.8246C12.6758 14.7595 12.6766 15.6945 12.6774 16.6294C12.6777 16.9799 12.678 17.3305 12.678 17.6811C12.678 17.8884 12.678 17.8884 12.4681 17.8884C12.2749 17.8884 12.0817 17.8881 11.8885 17.8878C11.3734 17.887 10.8583 17.8862 10.3431 17.891C10.1883 17.8923 10.1359 17.8503 10.1359 17.6877C10.1398 15.134 10.1398 12.5791 10.1398 10.0242C10.1398 9.81692 10.1411 9.81599 10.3484 9.81599C10.5344 9.81599 10.7204 9.81628 10.9064 9.81657C11.4025 9.81735 11.8986 9.81813 12.3947 9.81336C12.535 9.81205 12.5901 9.84747 12.5849 9.997C12.5775 10.199 12.5792 10.401 12.5808 10.603C12.5815 10.6884 12.5822 10.7738 12.5822 10.8592ZM8.61547 13.0736C8.61526 12.0498 8.61505 11.0263 8.6182 10.0023C8.6182 9.8619 8.58278 9.81074 8.43324 9.81336C7.70917 9.82123 6.98509 9.81992 6.26233 9.81336C6.12329 9.81336 6.07344 9.84616 6.07344 9.99569C6.07738 12.5654 6.07738 15.135 6.07344 17.706C6.07344 17.8569 6.12591 17.8923 6.26364 17.8923C6.71781 17.889 7.17197 17.8893 7.6258 17.8897C7.88492 17.8899 8.14424 17.8901 8.40307 17.8897C8.61426 17.8897 8.61557 17.8897 8.61557 17.6811L8.61547 13.0736ZM7.33532 8.73906C8.15122 8.73906 8.80577 8.10025 8.80708 7.29878C8.8084 6.47895 8.16303 5.81915 7.35631 5.81915C6.53517 5.81915 5.88718 6.4619 5.88718 7.27779C5.88718 8.09106 6.5273 8.73906 7.33532 8.73906Z"/>
<path fill-rule="evenodd" clip-rule="evenodd" d="M22.661 19.6269C22.6148 19.556 22.5671 19.4829 22.5172 19.406L22.5146 19.4047C22.5171 19.4039 22.5196 19.403 22.5221 19.4022C22.5394 19.3965 22.5552 19.3916 22.57 19.3871C22.6086 19.3751 22.6398 19.3655 22.6681 19.3509C22.7992 19.2853 22.8609 19.1738 22.8478 19.0309C22.8333 18.8813 22.7533 18.7672 22.5972 18.7515C22.4254 18.7344 22.2509 18.7383 22.0791 18.7436C22.0476 18.7449 21.9912 18.7947 21.9912 18.8236C21.986 19.1633 21.986 19.5044 21.9912 19.8441C21.9921 19.861 22.0148 19.878 22.0375 19.8949C22.0395 19.8964 22.0415 19.8979 22.0435 19.8994C22.0521 19.9059 22.0604 19.9124 22.0673 19.9189C22.0711 19.9144 22.0753 19.9099 22.0797 19.9054C22.0822 19.9028 22.0848 19.9001 22.0875 19.8975C22.1052 19.8796 22.1231 19.8615 22.125 19.8428C22.1276 19.8063 22.1275 19.7694 22.1271 19.7324C22.1271 19.7324 22.1271 19.7324 22.1271 19.7324C22.1271 19.7271 22.127 19.7218 22.127 19.7165C22.1264 19.6644 22.1258 19.6122 22.1316 19.5608C22.1381 19.5031 22.1591 19.4152 22.1971 19.3994C22.2811 19.3653 22.3677 19.3863 22.4228 19.4834C22.4923 19.6054 22.5671 19.7261 22.6523 19.8389C22.6758 19.8696 22.7143 19.8892 22.7527 19.9086C22.756 19.9103 22.7592 19.9119 22.7624 19.9136C22.7764 19.9207 22.7903 19.928 22.8032 19.9359C22.8136 19.9229 22.8241 19.9085 22.8345 19.8941C22.7786 19.8076 22.7223 19.721 22.6638 19.6312L22.661 19.6269ZM22.1307 18.9604C22.1311 18.9254 22.1316 18.8891 22.1316 18.8511V18.8525C22.1791 18.8525 22.2235 18.852 22.2658 18.8515C22.3446 18.8507 22.4162 18.8499 22.487 18.8525C22.5972 18.8564 22.6772 18.9023 22.6904 19.0256C22.7048 19.1528 22.6576 19.2473 22.5277 19.2683C22.4201 19.2866 22.3086 19.2827 22.1998 19.2775C22.1762 19.2761 22.1368 19.2263 22.1342 19.1961C22.1286 19.1204 22.1296 19.0439 22.1307 18.9604Z"/>
<path fill-rule="evenodd" clip-rule="evenodd" d="M22.3834 18.2045C23.0183 18.2045 23.5194 18.6977 23.5167 19.3234C23.5128 20.0409 22.9107 20.479 22.3664 20.4633C21.7394 20.4449 21.2435 19.9583 21.2422 19.33C21.2422 18.6597 21.8115 18.1678 22.3834 18.2045ZM21.3445 19.3286C21.3445 19.8966 21.801 20.3597 22.369 20.3662C22.937 20.3728 23.4131 19.9006 23.4131 19.3313C23.4131 18.7685 22.9475 18.295 22.386 18.2884C21.8233 18.2806 21.3445 18.7594 21.3432 19.3286H21.3445Z"/>
</svg>
