<svg width="24" height="24" viewBox="0 0 24 24" xmlns="http://www.w3.org/2000/svg">
<path d="M20.25 5.75C20.6642 5.75 21 6.08579 21 6.5C21 6.91421 20.6642 7.25 20.25 7.25H8.75C8.33579 7.25 8 6.91421 8 6.5C8 6.08579 8.33579 5.75 8.75 5.75H20.25Z"/>
<path d="M20.25 11.25C20.6642 11.25 21 11.5858 21 12C21 12.4142 20.6642 12.75 20.25 12.75H8.75C8.33579 12.75 8 12.4142 8 12C8 11.5858 8.33579 11.25 8.75 11.25H20.25Z"/>
<path d="M20.25 16.75C20.6642 16.75 21 17.0858 21 17.5C21 17.9142 20.6642 18.25 20.25 18.25H8.75C8.33579 18.25 8 17.9142 8 17.5C8 17.0858 8.33579 16.75 8.75 16.75H20.25Z"/>
<path d="M5.5 6.5C5.5 7.19036 4.94036 7.75 4.25 7.75C3.55964 7.75 3 7.19036 3 6.5C3 5.80964 3.55964 5.25 4.25 5.25C4.94036 5.25 5.5 5.80964 5.5 6.5Z"/>
<path d="M5.5 12C5.5 12.6904 4.94036 13.25 4.25 13.25C3.55964 13.25 3 12.6904 3 12C3 11.3096 3.55964 10.75 4.25 10.75C4.94036 10.75 5.5 11.3096 5.5 12Z"/>
<path d="M5.5 17.5C5.5 18.1904 4.94036 18.75 4.25 18.75C3.55964 18.75 3 18.1904 3 17.5C3 16.8096 3.55964 16.25 4.25 16.25C4.94036 16.25 5.5 16.8096 5.5 17.5Z"/>
</svg>
