<svg width="27" height="28" viewBox="0 0 27 28" fill="none" xmlns="http://www.w3.org/2000/svg">
<path d="M22.1523 25.2842L25.2293 18.3898C25.2345 18.3782 25.2374 18.3656 25.2378 18.3529C25.2382 18.3401 25.2361 18.3274 25.2317 18.3155C25.2272 18.3036 25.2205 18.2926 25.2118 18.2834C25.2032 18.2741 25.1928 18.2666 25.1813 18.2614L4.77296 8.94364C3.96871 8.57672 2.6106 9.86192 1.73942 11.8144C0.868236 13.7669 0.814003 15.6478 1.61826 16.0167L22.0258 25.3344C22.0491 25.3447 22.0756 25.3453 22.0993 25.3358C22.1231 25.3264 22.1421 25.3079 22.1523 25.2842Z" fill="#626B79" stroke="#626B79" stroke-miterlimit="10"/>
<path d="M22.1527 25.2843L25.2297 18.3898C25.2349 18.3782 25.2378 18.3657 25.2382 18.3529C25.2386 18.3402 25.2365 18.3275 25.232 18.3155C25.2276 18.3036 25.2208 18.2927 25.2122 18.2834C25.2035 18.2741 25.1932 18.2666 25.1816 18.2614L17.1968 14.6164C16.3925 14.249 15.0344 15.5346 14.1632 17.4871C13.2921 19.4396 13.2378 21.3205 14.0421 21.6894L22.0254 25.3345C22.037 25.3397 22.0495 25.3425 22.0622 25.3428C22.0749 25.3431 22.0876 25.3409 22.0994 25.3362C22.1112 25.3316 22.122 25.3246 22.1312 25.3157C22.1403 25.3067 22.1477 25.2961 22.1527 25.2843Z" fill="white" stroke="#626B79" stroke-miterlimit="10"/>
<path d="M25.1432 22.5029C26.0136 20.5513 26.0675 18.6718 25.2636 18.3049C24.4597 17.938 23.1025 19.2227 22.2322 21.1743C21.3618 23.1259 21.3079 25.0054 22.1118 25.3723C22.9157 25.7392 24.2729 24.4545 25.1432 22.5029Z" fill="#626B79" stroke="#626B79" stroke-width="0.999421" stroke-miterlimit="10"/>
<path d="M25.1052 22.4836C25.5114 21.5728 25.5366 20.6958 25.1616 20.5246C24.7865 20.3535 24.1533 20.953 23.7471 21.8637C23.341 22.7744 23.3157 23.6515 23.6908 23.8226C24.0658 23.9938 24.6991 23.3943 25.1052 22.4836Z" fill="white"/>
<path d="M15.0646 17.4316L10.9771 13.8761L10.8714 15.4472L5.72852 11.7808L12.1056 18.6752L12.0995 16.5445L14.2149 19.339L15.0646 17.4316Z" fill="white"/>
<path d="M11.8036 2.94097H4.32648C4.2734 2.94097 4.12109 2.86315 4.12109 2.9149V25.5651C4.12109 26.4577 5.91384 27.1815 8.03159 27.1815C10.1493 27.1815 11.9421 26.4577 11.9421 25.5651V2.9149C11.9421 2.86159 11.8567 2.94097 11.8036 2.94097Z" fill="#626B79" stroke="#626B79" stroke-miterlimit="10"/>
<path d="M11.8036 2.94097H4.32648C4.2734 2.94097 4.12109 2.86315 4.12109 2.9149V11.7759C4.12109 12.6684 5.91384 13.3922 8.03159 13.3922C10.1493 13.3922 11.9421 12.6684 11.9421 11.7759V2.9149C11.9421 2.86159 11.8567 2.94097 11.8036 2.94097Z" fill="white" stroke="#626B79" stroke-miterlimit="10"/>
<path d="M8.03198 4.49239C10.1919 4.49239 11.9429 3.75114 11.9429 2.83677C11.9429 1.9224 10.1919 1.18115 8.03198 1.18115C5.87206 1.18115 4.12109 1.9224 4.12109 2.83677C4.12109 3.75114 5.87206 4.49239 8.03198 4.49239Z" fill="#626B79" stroke="#626B79" stroke-miterlimit="10"/>
<path d="M8.06638 2.75497C9.05458 2.75497 9.85567 2.41736 9.85567 2.0009C9.85567 1.58444 9.05458 1.24683 8.06638 1.24683C7.07819 1.24683 6.2771 1.58444 6.2771 2.0009C6.2771 2.41736 7.07819 2.75497 8.06638 2.75497Z" fill="white"/>
<path d="M7.64502 12.5835L6.12305 17.8149L7.58194 17.2663L6.39422 23.5168L9.98278 14.801L8.06542 15.6831L9.71355 12.5839L7.64502 12.5835Z" fill="white"/>
</svg>
