<svg width="24" height="24" viewBox="0 0 24 24" xmlns="http://www.w3.org/2000/svg">
<path fill-rule="evenodd" clip-rule="evenodd" d="M12 3C12.3797 3 12.6935 3.28215 12.7432 3.64823L12.75 3.75L12.7508 4.03477C16.5698 4.39023 19.6098 7.43017 19.9652 11.2492L20.25 11.25C20.6642 11.25 21 11.5858 21 12C21 12.3797 20.7178 12.6935 20.3518 12.7432L20.25 12.75L19.9653 12.7498C19.6103 16.5693 16.5702 19.6097 12.7508 19.9652L12.75 20.25C12.75 20.6642 12.4142 21 12 21C11.6203 21 11.3065 20.7178 11.2568 20.3518L11.25 20.25L11.2502 19.9653C7.43037 19.6103 4.38972 16.5696 4.03467 12.7498L3.75 12.75C3.33579 12.75 3 12.4142 3 12C3 11.6203 3.28215 11.3065 3.64823 11.2568L3.75 11.25L4.03477 11.2492C4.39026 7.42983 7.4307 4.38969 11.2502 4.03467L11.25 3.75C11.25 3.33579 11.5858 3 12 3ZM12.7504 5.54285L12.75 6.75C12.75 7.16421 12.4142 7.5 12 7.5C11.6203 7.5 11.3065 7.21785 11.2568 6.85177L11.25 6.75L11.2506 5.54274C8.25995 5.88606 5.88663 8.25908 5.54285 11.2496L6.75 11.25C7.16421 11.25 7.5 11.5858 7.5 12C7.5 12.3797 7.21785 12.6935 6.85177 12.7432L6.75 12.75L5.54274 12.7494C5.8861 15.7404 8.25962 18.1139 11.2506 18.4573L11.25 17.25C11.25 16.8358 11.5858 16.5 12 16.5C12.3797 16.5 12.6935 16.7822 12.7432 17.1482L12.75 17.25L12.7504 18.4571C15.7409 18.1134 18.1139 15.74 18.4573 12.7494L17.25 12.75C16.8358 12.75 16.5 12.4142 16.5 12C16.5 11.6203 16.7822 11.3065 17.1482 11.2568L17.25 11.25L18.4571 11.2496C18.1134 8.25942 15.7406 5.88659 12.7504 5.54285ZM12 10.75C11.3096 10.75 10.75 11.3096 10.75 12C10.75 12.6904 11.3096 13.25 12 13.25C12.6904 13.25 13.25 12.6904 13.25 12C13.25 11.3096 12.6904 10.75 12 10.75ZM9.25 12C9.25 10.4812 10.4812 9.25 12 9.25C13.5188 9.25 14.75 10.4812 14.75 12C14.75 13.5188 13.5188 14.75 12 14.75C10.4812 14.75 9.25 13.5188 9.25 12Z"/>
</svg>
