<svg>
  <path d="M12,3 C12.3796958,3 12.693491,3.28215388 12.7431534,3.64822944 L12.75,3.75 L12.750779,4.03476616 C16.5698325,4.39022551 19.6097745,7.43016745 19.9652338,11.249221 L20.25,11.25 C20.6642136,11.25 21,11.5857864 21,12 C21,12.3796958 20.7178461,12.693491 20.3517706,12.7431534 L20.25,12.75 L19.9653273,12.7497743 C19.6103077,16.5692993 16.5701675,19.6097433 12.750779,19.9652338 L12.75,20.25 C12.75,20.6642136 12.4142136,21 12,21 C11.6203042,21 11.306509,20.7178461 11.2568466,20.3517706 L11.25,20.25 L11.2502257,19.9653273 C7.43036573,19.6102765 4.38972346,16.5696343 4.0346727,12.7497743 L3.75,12.75 C3.33578644,12.75 3,12.4142136 3,12 C3,11.6203042 3.28215388,11.306509 3.64822944,11.2568466 L3.75,11.25 L4.03476616,11.249221 C4.39025668,7.42983254 7.43070066,4.38969233 11.2502257,4.0346727 L11.25,3.75 C11.25,3.33578644 11.5857864,3 12,3 Z M12.7504295,5.5427357 L12.75,6.75 C12.75,7.16421356 12.4142136,7.5 12,7.5 C11.6203042,7.5 11.306509,7.21784612 11.2568466,6.85177056 L11.25,6.75 L11.2505755,5.5427357 C8.2599508,5.88605781 5.88662798,8.25908411 5.5427357,11.2495705 L6.75,11.25 C7.16421356,11.25 7.5,11.5857864 7.5,12 C7.5,12.3796958 7.21784612,12.693491 6.85177056,12.7431534 L6.75,12.75 L5.5427357,12.7494245 C5.88609627,15.7403842 8.25961579,18.1139037 11.2505755,18.4572643 L11.25,17.25 C11.25,16.8357864 11.5857864,16.5 12,16.5 C12.3796958,16.5 12.693491,16.7821539 12.7431534,17.1482294 L12.75,17.25 L12.7504295,18.4572643 C15.7409159,18.113372 18.1139422,15.7400492 18.4572643,12.7494245 L17.25,12.75 C16.8357864,12.75 16.5,12.4142136 16.5,12 C16.5,11.6203042 16.7821539,11.306509 17.1482294,11.2568466 L17.25,11.25 L18.4572643,11.2495705 C18.1134105,8.25941911 15.7405809,5.88658947 12.7504295,5.5427357 Z"/>
</svg>
