<svg>
<path d="M13.9104 14.2119C13.9104 14.9714 13.462 15.6268 12.814 15.9306V17.301C12.814 17.7479 12.4495 18.1102 12 18.1102C11.5504 18.1102 11.186 17.7479 11.186 17.301V15.9305C10.5381 15.6267 10.0897 14.9714 10.0897 14.2119C10.0897 13.163 10.945 12.3128 12 12.3128C13.0551 12.3128 13.9104 13.163 13.9104 14.2119Z"/>
<path fill-rule="evenodd" clip-rule="evenodd" d="M5 11.4137C5 10.0838 6.08446 9.00567 7.42221 9.00567H7.97816V5.99826C7.97816 3.79008 9.77877 2 11.9999 2C14.2211 2 16.0217 3.79008 16.0217 5.99826V9.00567H16.5778C17.9155 9.00567 19 10.0838 19 11.4137V15.0409C19 18.8843 15.866 22 12 22C8.13401 22 5 18.8843 5 15.0409V11.4137ZM11.9999 3.49935C13.3882 3.49935 14.5135 4.61815 14.5135 5.99826V9.00567H9.48633V5.99826C9.48633 4.61815 10.6117 3.49935 11.9999 3.49935ZM6.50817 11.4137C6.50817 10.9119 6.9174 10.505 7.42221 10.505H16.5778C17.0826 10.505 17.4918 10.9119 17.4918 11.4137V15.0409C17.4918 18.0563 15.0331 20.5007 12 20.5007C8.96694 20.5007 6.50817 18.0563 6.50817 15.0409V11.4137Z"/>
</svg>
