<svg width="24" height="24" viewBox="0 0 24 24" xmlns="http://www.w3.org/2000/svg">
<path fill-rule="evenodd" clip-rule="evenodd" d="M11.9999 2C14.2211 2 16.0217 3.79008 16.0217 5.99826V9.00567H16.5778C17.9155 9.00567 19 10.0838 19 11.4137V15.0409C19 18.8843 15.866 22 12 22C8.134 22 5 18.8843 5 15.0409V11.4137C5 10.0838 6.08445 9.00567 7.4222 9.00567H7.97816V5.99826C7.97816 3.79008 9.77877 2 11.9999 2ZM11.9999 3.49935C10.6117 3.49935 9.48633 4.61815 9.48633 5.99826V9.00567H14.5135V5.99826C14.5135 4.61815 13.3882 3.49935 11.9999 3.49935ZM12.814 15.9306C13.462 15.6268 13.9104 14.9714 13.9104 14.2119C13.9104 13.1631 13.0551 12.3128 12 12.3128C10.945 12.3128 10.0897 13.1631 10.0897 14.2119C10.0897 14.9714 10.538 15.6267 11.186 15.9305V17.301C11.186 17.7479 11.5504 18.1102 12 18.1102C12.4495 18.1102 12.814 17.7479 12.814 17.301V15.9306Z"/>
</svg>
