<svg width="19" height="27" viewBox="0 0 19 27" fill="none" xmlns="http://www.w3.org/2000/svg">
<path d="M6.61946 24.1224V12.34L6.21636 11.341V9.60669H1.78077V11.341L1.37769 12.34V24.1224H0.974609V24.9289H6.61979V24.1224H6.61946Z" fill="#626B79"/>
<path d="M5.87886 9.20511H2.21118C2.21118 9.20511 2.72416 2.96289 4.04502 2.96289C5.36588 2.96289 5.87886 9.20511 5.87886 9.20511Z" fill="#626B79"/>
<path d="M12.2637 26.1388V14.4116L11.8606 13.4125V11.2207H7.42504V13.4125L7.02197 14.4116V26.1388H6.6189V26.9453H12.6671V26.1388H12.2637Z" fill="#626B79"/>
<path d="M11.4765 10.8167H7.80847C7.80847 10.8167 8.32179 4.57446 9.64265 4.57446C10.9635 4.57446 11.4765 10.8167 11.4765 10.8167Z" fill="#626B79"/>
<path d="M17.9097 22.9132V10.6744L17.5066 9.67531V7.59204H13.071V9.67531L12.668 10.6744V22.9132V23.7197H18.3131V22.9132H17.9097Z" fill="#626B79"/>
<path d="M17.0762 7.18753H13.4082C13.4082 7.18753 13.9215 0.945312 15.2424 0.945312C16.5633 0.945312 17.0762 7.18753 17.0762 7.18753Z" fill="#626B79"/>
</svg>
