<svg>
<path fill-rule="evenodd" clip-rule="evenodd" d="M16.3185 3C17.8373 3 19.0685 4.23122 19.0685 5.75L19.066 5.86923L19.0582 5.98823L18.7872 9.10435C20.0077 9.43538 20.9192 10.5174 20.9949 11.8237L21 12V13.5C21 15.8093 19.2604 17.7124 17.0202 17.9703L17.7633 20.0137L17.7927 20.1156C17.8743 20.491 17.6679 20.8783 17.2968 21.0133C16.8919 21.1605 16.4444 20.9516 16.2972 20.5468L15.3711 18H8.68935L7.76325 20.5468C7.61603 20.9516 7.1685 21.1605 6.76365 21.0133C6.39254 20.8783 6.18613 20.491 6.26769 20.1156L6.29717 20.0137L7.03793 17.9766C4.76972 17.7452 3 15.8293 3 13.5V12L3.00509 11.8237C3.08078 10.5174 3.99228 9.43538 5.21277 9.10435L4.9418 5.98823C4.81023 4.47516 5.93016 3.14191 7.44323 3.01034L7.56223 3.00259L7.68146 3H16.3185ZM6.71685 9.08618C7.97254 9.39405 8.91777 10.4924 8.99491 11.8237L9 12V13H15V12L15.0051 11.8237C15.0822 10.4924 16.0275 9.39405 17.2832 9.08618L17.5638 5.85829C17.567 5.82228 17.5685 5.78615 17.5685 5.75C17.5685 5.10279 17.0767 4.57047 16.4463 4.50645L16.3185 4.5H7.68146C7.64531 4.5 7.60918 4.50157 7.57317 4.5047C6.9284 4.56077 6.44068 5.09691 6.43152 5.7304L6.43616 5.85829L6.71685 9.08618ZM9.75 7.5C10.1642 7.5 10.5 7.16421 10.5 6.75C10.5 6.33579 10.1642 6 9.75 6C9.33579 6 9 6.33579 9 6.75C9 7.16421 9.33579 7.5 9.75 7.5ZM14.25 7.5C14.6642 7.5 15 7.16421 15 6.75C15 6.33579 14.6642 6 14.25 6C13.8358 6 13.5 6.33579 13.5 6.75C13.5 7.16421 13.8358 7.5 14.25 7.5ZM18 10.5C17.2514 10.5 16.626 11.0505 16.5185 11.7369L16.5045 11.867L16.5 12V14.5H7.5L7.50063 12.0433L7.49742 11.9105C7.4517 11.1215 6.79538 10.5 6 10.5C5.25141 10.5 4.62599 11.0505 4.51846 11.7369L4.50447 11.867L4.5 12V13.5C4.5 15.0977 5.74892 16.4037 7.32373 16.4949L7.5 16.5H16.5C18.0977 16.5 19.4037 15.2511 19.4949 13.6763L19.5 13.5L19.5006 12.0433L19.4974 11.9105C19.4517 11.1215 18.7954 10.5 18 10.5Z"/>
</svg>
