<svg xmlns="http://www.w3.org/2000/svg" width="24" height="24" viewBox="0 0 24 24">
  <path fill="#626B79" fill-rule="evenodd" d="M13.5,2 C14.4181734,2 15.1711923,2.70711027 15.2441988,3.60647279 L15.25,3.75 L15.249,5.25 L16.5,5.25 C17.9625318,5.25 19.1584043,6.3917046 19.2449812,7.83247767 L19.25,8 L19.25,18 C19.25,19.4625318 18.1082954,20.6584043 16.6675223,20.7449812 L16.5,20.75 L16,20.75 L16,21.25 C16,21.6642136 15.6642136,22 15.25,22 C14.8703042,22 14.556509,21.7178461 14.5068466,21.3517706 L14.5,21.25 L14.5,20.75 L9.5,20.75 L9.5,21.25 C9.5,21.6642136 9.16421356,22 8.75,22 C8.37030423,22 8.05650904,21.7178461 8.00684662,21.3517706 L8,21.25 L8,20.75 L7.5,20.75 C6.03746816,20.75 4.84159572,19.6082954 4.75501879,18.1675223 L4.75,18 L4.75,8 C4.75,6.53746816 5.8917046,5.34159572 7.33247767,5.25501879 L7.5,5.25 L8.749,5.25 L8.74994291,3.74987962 C8.75009026,2.83180085 9.45713934,2.07889558 10.3564765,2.00581456 L10.5,2 L13.5,2 Z M16.5,6.75 L7.5,6.75 C6.85279131,6.75 6.3204661,7.24187466 6.25645361,7.87219476 L6.25,8 L6.25,18 C6.25,18.6472087 6.74187466,19.1795339 7.37219476,19.2435464 L7.5,19.25 L16.5,19.25 C17.1472087,19.25 17.6795339,18.7581253 17.7435464,18.1278052 L17.75,18 L17.75,8 C17.75,7.35279131 17.2581253,6.8204661 16.6278052,6.75645361 L16.5,6.75 Z M14.4998,8.25236686 C14.8794958,8.25236686 15.193291,8.53452075 15.2429534,8.90059631 L15.2498,9.00236686 L15.2498,17.0023669 C15.2498,17.4165804 14.9140136,17.7523669 14.4998,17.7523669 C14.1201042,17.7523669 13.806309,17.470213 13.7566466,17.1041374 L13.7498,17.0023669 L13.7498,9.00236686 C13.7498,8.5881533 14.0855864,8.25236686 14.4998,8.25236686 Z M9.4998,8.25236686 C9.87949577,8.25236686 10.193291,8.53452075 10.2429534,8.90059631 L10.2498,9.00236686 L10.2498,17.0023669 C10.2498,17.4165804 9.91401356,17.7523669 9.4998,17.7523669 C9.12010423,17.7523669 8.80630904,17.470213 8.75664662,17.1041374 L8.7498,17.0023669 L8.7498,9.00236686 C8.7498,8.5881533 9.08558644,8.25236686 9.4998,8.25236686 Z M13.5,3.5 L10.5000776,3.5 C10.3816837,3.5 10.2824946,3.58228495 10.2565571,3.6927256 L10.2499429,3.75004283 L10.249,5.25 L13.749,5.25 L13.75,3.75 C13.75,3.63165327 13.6677666,3.53251318 13.5573227,3.50660268 L13.5,3.5 Z"/>
</svg>
