<svg width="24" height="24" viewBox="0 0 24 24" xmlns="http://www.w3.org/2000/svg">
<path fill-rule="evenodd" clip-rule="evenodd" d="M13.5 2C14.4182 2 15.1712 2.70711 15.2442 3.60647L15.25 3.75L15.249 5.25H16.5C17.9625 5.25 19.1584 6.3917 19.245 7.83248L19.25 8V18C19.25 19.4625 18.1083 20.6584 16.6675 20.745L16.5 20.75H16V21.25C16 21.6642 15.6642 22 15.25 22C14.8703 22 14.5565 21.7178 14.5068 21.3518L14.5 21.25V20.75H9.5V21.25C9.5 21.6642 9.16421 22 8.75 22C8.3703 22 8.05651 21.7178 8.00685 21.3518L8 21.25V20.75H7.5C6.03747 20.75 4.8416 19.6083 4.75502 18.1675L4.75 18V8C4.75 6.53747 5.8917 5.3416 7.33248 5.25502L7.5 5.25H8.749L8.74994 3.74988C8.75009 2.8318 9.45714 2.0789 10.3565 2.00581L10.5 2H13.5ZM14.65 8C14.9791 8 15.251 8.27621 15.2941 8.63458L15.3 8.73421V16.5658C15.3 16.9713 15.009 17.3 14.65 17.3C14.3209 17.3 14.049 17.0238 14.0059 16.6654L14 16.5658V8.73421C14 8.32872 14.291 8 14.65 8ZM9.65 8C9.97907 8 10.251 8.27621 10.2941 8.63458L10.3 8.73421V16.5658C10.3 16.9713 10.009 17.3 9.65 17.3C9.32093 17.3 9.04897 17.0238 9.00593 16.6654L9 16.5658V8.73421C9 8.32872 9.29102 8 9.65 8ZM13.5 3.5H10.5001C10.3817 3.50001 10.2825 3.58229 10.2566 3.69273L10.2499 3.75004L10.249 5.25H13.749L13.75 3.75C13.75 3.63165 13.6678 3.53251 13.5573 3.5066L13.5 3.5Z"/>
</svg>
