<svg width="24" height="24" viewBox="0 0 24 24" xmlns="http://www.w3.org/2000/svg">
<path d="M22 8.34077H20.9556C20.5193 6.04029 18.1015 4.52955 15.6717 5.4376C14.3185 5.94346 13.2195 7.56102 13.2195 9.00565V15.6549L13.3415 15.6552H13.3466C14.1002 15.6227 14.8046 15.3039 15.3295 14.7574C15.8563 14.2091 16.1463 13.4893 16.1463 12.731H17.3659V9.80419H16.1463V8.9998C16.1463 8.68711 16.3115 8.39468 16.5849 8.24272C17.3344 7.82663 18.0976 8.36199 18.0976 9.07248V11.7554C18.0976 12.8171 18.498 13.8022 19.2256 14.5298C19.9215 15.2257 20.8622 15.6257 21.8744 15.6559H22V12.7313C21.4529 12.7298 21.0244 12.2888 21.0244 11.7554V11.2676H22V8.34077Z"/>
<path d="M4.92683 13.2188V5.41394H2V12.731C2 14.7417 3.32756 15.6576 4.56098 15.6576C4.92854 15.6576 5.29683 15.5735 5.62707 15.4193C5.67585 15.3966 5.7539 15.3478 5.7539 15.3478C5.7539 15.3478 5.67976 15.2698 5.64951 15.2354C5.18122 14.7027 4.92683 14.0096 4.92683 13.2188Z"/>
<path d="M9.56098 12.2432V8.34077H12.4878V14.9261C12.4878 16.1527 12.062 17.1693 11.2559 17.8661C10.5378 18.4869 9.54 18.8288 8.44659 18.8288C7.75512 18.8288 7.04171 18.6893 6.39025 18.4254V15.8257C6.48781 15.8813 6.56512 15.9181 6.56512 15.9181C6.99732 16.1261 7.47293 16.2361 7.94025 16.2361C8.39415 16.2359 8.79781 16.1335 9.10781 15.9393C9.43854 15.7322 9.63732 15.4325 9.68293 15.0725C9.24195 15.4498 8.67878 15.6578 8.09756 15.6578C6.75269 15.6578 5.65854 14.5637 5.65854 13.2188V8.34077H8.58537V12.2432C8.58537 12.5127 8.80366 12.731 9.07317 12.731C9.34269 12.731 9.56098 12.5127 9.56098 12.2432Z"/>
</svg>
