<svg xmlns="http://www.w3.org/2000/svg" xmlns:xlink="http://www.w3.org/1999/xlink" viewBox="0 0 24 24">
  <title>iconTitle</title>
  <desc>iconDesc</desc>
  <style></style>
  <path d="M20,4.5 C21.1045695,4.5 22,5.3954305 22,6.5 L22,17.5 C22,18.6045695 21.1045695,19.5 20,19.5 L4,19.5 C2.8954305,19.5 2,18.6045695 2,17.5 L2,6.5 C2,5.3954305 2.8954305,4.5 4,4.5 L20,4.5 Z M9.371,14.186 L4.273,18 L19.726,18 L14.627,14.187 L14.1835768,14.5193958 C12.9379565,15.451181 11.2712224,15.4916934 9.98898347,14.640933 L9.8165916,14.5193958 L9.371,14.186 Z M20.5,9.793 L15.88,13.249 L20.5,16.706 L20.5,9.793 Z M3.5,9.794 L3.5,16.705 L8.119,13.25 L3.5,9.794 Z M20,6 L4,6 C3.72385763,6 3.5,6.22385763 3.5,6.5 L3.5,7.50256837 L3.50672822,7.61338799 C3.52961281,7.79549662 3.61006515,7.96282042 3.73564567,8.0878916 L3.81630985,8.15764426 L10.7150913,13.318272 C11.4365146,13.8579321 12.3877114,13.8916609 13.1378564,13.4194583 L13.2850771,13.318272 L20.1838585,8.15764426 C20.3524082,8.03156078 20.4642898,7.83545914 20.4928161,7.61751981 L20.5,7.5069534 L20.5,6.5 C20.5,6.22385763 20.2761424,6 20,6 Z"/>
</svg>
