<svg width="24" height="24" viewBox="0 0 24 24" fill="none" xmlns="http://www.w3.org/2000/svg">
<path d="M9.22622 6.84326C9.61166 6.79696 9.96417 7.05155 10.0475 7.42236L10.0602 7.49756L10.6022 11.9897L10.612 12.0356C10.6443 12.1376 10.7398 12.2093 10.8502 12.2095H14.0485C15.0137 12.2096 15.7968 12.9924 15.7985 13.9575L15.8063 18.7573L15.8112 18.8071C15.8345 18.921 15.9356 19.0063 16.0563 19.0063H17.6227L17.6999 19.0103C18.0777 19.0488 18.3724 19.3684 18.3727 19.7563C18.3727 20.1445 18.0778 20.4638 17.6999 20.5024L17.6227 20.5063H16.0563C15.1513 20.5063 14.4069 19.8193 14.3161 18.938L14.3063 18.7593L14.2985 13.9595C14.2981 13.8218 14.1861 13.7096 14.0485 13.7095H10.8502C10.0203 13.7093 9.3128 13.1285 9.14029 12.3315L9.11294 12.1694L8.57193 7.67725L8.56607 7.60107C8.55886 7.22098 8.8407 6.88981 9.22622 6.84326ZM11.1999 18.9771C11.6201 18.9772 11.9606 19.3185 11.9606 19.7388C11.9604 20.1588 11.6199 20.4993 11.1999 20.4995H7.00943C6.58923 20.4995 6.24891 20.1589 6.24869 19.7388C6.24869 19.3184 6.58908 18.9771 7.00943 18.9771H11.1999ZM5.37076 6.854C5.7565 6.81159 6.10643 7.06945 6.18619 7.44092L6.1979 7.51709L7.0065 14.8208L7.02408 14.938C7.14297 15.5124 7.65136 15.9331 8.24869 15.9331H11.2838L11.361 15.937C11.739 15.9754 12.0336 16.295 12.0338 16.6831C12.0338 17.0714 11.7391 17.3907 11.361 17.4292L11.2838 17.4331H8.24869C6.93438 17.4331 5.81667 16.5067 5.55533 15.2427L5.51529 14.9858L4.70767 7.68115L4.70279 7.60498C4.69946 7.22492 4.98483 6.89668 5.37076 6.854ZM8.99478 3.50049C9.68514 3.50049 10.2448 4.06013 10.2448 4.75049C10.2448 5.44084 9.68514 6.00049 8.99478 6.00049C8.30456 6.00033 7.74478 5.44074 7.74478 4.75049C7.74478 4.06023 8.30456 3.50065 8.99478 3.50049Z" fill="currentColor"/>
</svg>
