<svg width="24" height="24" viewBox="0 0 24 24" xmlns="http://www.w3.org/2000/svg">
<path d="M19.9382 9.15684C19.7507 7.35047 18.1703 6 16.2684 6H7.74132C5.83053 6 4.25905 7.35047 4.06261 9.15684C2.31255 9.35468 1 10.7482 1 12.4169C1 14.0856 2.31255 15.4791 4.06261 15.677C4.25905 17.4747 5.83053 18.8338 7.74132 18.8338H16.2684C18.1792 18.8338 19.7507 17.4833 19.9471 15.677C21.6972 15.4791 23.0097 14.0856 23.0097 12.4169C23.0097 10.7482 21.6883 9.35468 19.9382 9.15684ZM21.474 12.4169L21.465 12.5717C21.4025 13.2685 20.9204 13.862 20.215 14.1373H20.2061L20.1257 14.1631L20.0989 14.077C19.9739 13.6039 19.9025 13.0104 19.9025 12.4083C19.9025 11.8062 19.9739 11.2127 20.0989 10.7482L20.1257 10.6621L20.2061 10.688C20.9829 10.9804 21.474 11.6599 21.474 12.4169ZM6.20555 16.692C5.84839 16.2447 5.6341 15.6684 5.6341 15.1523V9.28587L5.64303 9.14824C5.70553 8.09883 6.6252 7.27306 7.73239 7.27306H16.2773L16.4202 7.28166C17.5185 7.35047 18.3846 8.23645 18.3846 9.28587V15.1523V15.2813C18.3488 15.806 18.1078 16.3565 17.7238 16.7866C17.3131 17.2425 16.8041 17.4919 16.2863 17.4919H7.73239L7.58953 17.4833C7.08058 17.4489 6.58949 17.1651 6.20555 16.692ZM4.08047 12.4169C4.08047 13.0448 4.00904 13.6642 3.8751 14.1459L3.84832 14.2405L3.7501 14.2061L3.58938 14.1373C2.93757 13.8276 2.50898 13.2427 2.44648 12.5717V12.5631L2.43755 12.4083L2.44648 12.2363C2.51791 11.5223 3.01793 10.8944 3.7501 10.6191L3.84832 10.5847L3.8751 10.688L3.92868 10.9288C4.0269 11.3761 4.08047 11.8836 4.08047 12.4169Z"/>
<path d="M14.3665 8.99335H9.6431L9.56274 9.00195C9.27702 9.04496 9.07166 9.31161 9.07166 9.62988C9.07166 9.98255 9.33059 10.2664 9.6431 10.2664H14.3665L14.4468 10.2578C14.7326 10.2148 14.9379 9.94814 14.9379 9.62988C14.9379 9.27721 14.679 8.99335 14.3665 8.99335Z"/>
<path d="M15.5987 11.7804H8.41094L8.33058 11.789C8.04486 11.832 7.83057 12.0987 7.83057 12.4169C7.83057 12.7696 8.0895 13.0535 8.41094 13.0535H15.5987L15.6791 13.0449C15.9648 13.0018 16.1791 12.7352 16.1791 12.4169C16.1791 12.0643 15.9201 11.7804 15.5987 11.7804Z"/>
<path d="M14.4379 15.8318L14.3576 15.8404H9.63419C9.32168 15.8404 9.06274 15.5565 9.06274 15.2039C9.06274 14.8856 9.27704 14.6189 9.55383 14.5759L9.63419 14.5673H14.3576C14.6701 14.5673 14.929 14.8512 14.929 15.2039C14.938 15.5221 14.7237 15.7888 14.4379 15.8318Z"/>
</svg>
