<svg width="34" height="27" viewBox="0 0 34 27" fill="none" xmlns="http://www.w3.org/2000/svg">
<path d="M33.4362 10.9002L33.116 9.40381L31.5564 9.51515L11.3281 19.1386C9.74644 18.6192 8.02602 18.7241 6.5192 19.4319C4.38681 20.4934 3.4402 22.926 4.40545 24.8647C5.3707 26.8034 7.88216 27.5144 10.0145 26.4525C11.6513 25.6376 13.1339 23.7422 13.3032 22.0283L33.4362 10.9002Z" fill="#626B79"/>
<path d="M6.93884 0.945312C2.91841 5.38555 0.185547 8.40824 0.185547 11.8494C0.185547 14.4055 2.2512 18.1712 4.45551 19.1308C3.93827 18.1049 3.58536 17.004 3.40967 15.8686C3.40967 14.2084 4.72846 12.7493 6.66849 10.6074C6.3531 13.7951 9.42301 14.208 9.42257 15.8686C9.42306 16.4731 9.24061 17.0636 8.89922 17.5625C11.1035 16.6029 12.1229 14.4073 12.1238 11.8494C12.1251 8.40737 6.28552 7.5513 6.93884 0.945312Z" fill="#626B79"/>
<path d="M7.10779 26.2741C7.77564 25.9416 7.82734 24.6884 7.22326 23.475C6.61917 22.2616 5.58806 21.5474 4.9202 21.8799C4.25234 22.2124 4.20065 23.4656 4.80473 24.679C5.40882 25.8924 6.43993 26.6065 7.10779 26.2741Z" fill="white"/>
</svg>
