<svg width="24" height="24" viewBox="0 0 24 24" xmlns="http://www.w3.org/2000/svg">
<path fill-rule="evenodd" clip-rule="evenodd" d="M12 19.8C16.3078 19.8 19.8 16.3078 19.8 12C19.8 7.69218 16.3078 4.2 12 4.2C7.69218 4.2 4.2 7.69218 4.2 12C4.2 16.3078 7.69218 19.8 12 19.8ZM12 21C16.9706 21 21 16.9706 21 12C21 7.02944 16.9706 3 12 3C7.02944 3 3 7.02944 3 12C3 16.9706 7.02944 21 12 21Z"/>
<path fill-rule="evenodd" clip-rule="evenodd" d="M12 19.8C16.3078 19.8 19.8 16.3078 19.8 12C19.8 7.69218 16.3078 4.2 12 4.2C7.69218 4.2 4.2 7.69218 4.2 12C4.2 16.3078 7.69218 19.8 12 19.8ZM11.15 6C10.5425 6 10.05 6.49249 10.05 7.1V10.05H7.1C6.49249 10.05 6 10.5425 6 11.15V12.85C6 13.4575 6.49249 13.95 7.1 13.95H10.05V16.9C10.05 17.5075 10.5425 18 11.15 18H12.85C13.4575 18 13.95 17.5075 13.95 16.9V13.95H16.9C17.5075 13.95 18 13.4575 18 12.85V11.15C18 10.5425 17.5075 10.05 16.9 10.05L13.95 10.05V7.1C13.95 6.49249 13.4575 6 12.85 6H11.15Z"/>
<path d="M11.25 7.2V11.25H7.2V12.75H11.25V16.8H12.75V12.75H16.8V11.25H12.75V7.2H11.25Z"/>
</svg>
