<svg>
  <title>iconTitle</title>
  <desc>iconDesc</desc>
  <style></style>
  <path d="M12,2 C17.5228475,2 22,6.4771525 22,12 C22,17.5228475 17.5228475,22 12,22 C6.4771525,22 2,17.5228475 2,12 C2,6.4771525 6.4771525,2 12,2 Z M12,3.5 C7.30557963,3.5 3.5,7.30557963 3.5,12 C3.5,16.6944204 7.30557963,20.5 12,20.5 C16.6944204,20.5 20.5,16.6944204 20.5,12 C20.5,7.30557963 16.6944204,3.5 12,3.5 Z M7.75,11.25 L16.25,11.25 C16.6642136,11.25 17,11.5857864 17,12 C17,12.3796958 16.7178461,12.693491 16.3517706,12.7431534 L16.25,12.75 L7.75,12.75 C7.33578644,12.75 7,12.4142136 7,12 C7,11.6203042 7.28215388,11.306509 7.64822944,11.2568466 L7.75,11.25 L16.25,11.25 L7.75,11.25 Z"/>
</svg>
