<svg>
<path fill-rule="evenodd" clip-rule="evenodd" d="M18.328 10.0842C18.6209 10.3771 19.0958 10.3771 19.3887 10.0843L21.7792 7.69406C21.9199 7.55341 21.9989 7.36264 21.9989 7.16372C21.9989 6.9648 21.9199 6.77403 21.7792 6.63337L19.3887 4.24286C19.0958 3.94997 18.621 3.94997 18.3281 4.24286C18.0352 4.53576 18.0352 5.01063 18.3281 5.30352L19.4908 6.46623C17.955 6.44075 14.8987 6.50691 12.5044 9.14181C12.2259 9.44837 12.2486 9.9227 12.5551 10.2013C12.8617 10.4798 13.336 10.4571 13.6146 10.1506C15.5158 8.05819 17.891 7.95421 19.3841 7.96768L18.3281 9.02353C18.0352 9.3164 18.0352 9.79128 18.328 10.0842ZM3.28667 7.13646H3.28668C4.10877 7.11077 5.04366 7.08156 6.20801 7.52865C7.61402 8.06854 9.41041 9.34581 11.4765 12.4238C11.5697 12.5627 11.6778 12.7372 11.802 12.9376L11.802 12.9376C12.3821 13.8739 13.313 15.3763 14.7222 16.4697C15.9589 17.4292 17.5258 17.5866 18.8584 17.5866L19.438 17.5866L18.3281 18.6964C18.0352 18.9893 18.0352 19.4641 18.328 19.757C18.6209 20.05 19.0958 20.05 19.3887 19.7571L21.7792 17.3669C21.9199 17.2263 21.9989 17.0355 21.9989 16.8366C21.9989 16.6377 21.9199 16.4469 21.7792 16.3062L19.3887 13.9157C19.0958 13.6228 18.621 13.6228 18.3281 13.9157C18.0352 14.2086 18.0352 14.6835 18.3281 14.9764L19.4383 16.0866L18.8584 16.0866C17.5885 16.0866 16.4612 15.9204 15.6417 15.2845C14.4716 14.3767 13.7218 13.1753 13.1329 12.2318L13.1329 12.2318L13.1329 12.2317L13.1328 12.2316C12.9873 11.9985 12.8517 11.7811 12.7219 11.5878C10.54 8.33729 8.52199 6.81041 6.74571 6.12834C5.27141 5.56223 4.00019 5.60761 3.17535 5.63705L3.17533 5.63705L3.17529 5.63705L3.17527 5.63705C3.01672 5.64271 2.87466 5.64778 2.75083 5.6478C2.33662 5.64788 2.0009 5.98374 2.00098 6.39795C2.00106 6.81216 2.33691 7.14788 2.75112 7.1478C2.92487 7.14777 3.10294 7.14221 3.28665 7.13646H3.28666H3.28667ZM9.73058 12.647C9.97318 12.3113 10.442 12.2358 10.7778 12.4784C11.1135 12.721 11.189 13.1898 10.9464 13.5255C10.782 13.753 10.6271 13.9709 10.4784 14.18C9.51821 15.5304 8.81622 16.5176 7.48965 17.3886C6.71604 17.8966 5.83101 18.2175 4.91474 18.3282C4.20176 18.4144 3.54623 18.4144 2.77551 18.4144H2.75164C2.33743 18.4144 2.00164 18.0786 2.00164 17.6644C2.00164 17.2501 2.33743 16.9144 2.75164 16.9144C3.54802 16.9144 4.11911 16.9135 4.73482 16.8391C5.42388 16.7558 6.0883 16.5143 6.66637 16.1348C7.74355 15.4275 8.27532 14.6826 9.24587 13.323C9.39576 13.1131 9.55613 12.8884 9.73058 12.647Z"/>
</svg>
