<svg>
<path d="M7.5801 5.7889C4.30127 8.54017 3.87359 13.4285 6.62486 16.7074C9.37612 19.9862 14.2645 20.4139 17.5433 17.6626C18.5504 16.8176 19.2897 15.7691 19.7496 14.6272C19.8618 14.3484 19.7969 14.0296 19.5845 13.817C19.3722 13.6044 19.0534 13.539 18.7745 13.651C16.5289 14.5523 13.867 13.9615 12.2284 12.0087C10.5886 10.0544 10.4701 7.32773 11.7507 5.27224C11.9096 5.01719 11.9009 4.69191 11.7287 4.44568C11.5564 4.19946 11.2538 4.07984 10.9597 4.14171C9.75269 4.39569 8.58918 4.94219 7.5801 5.7889Z"/>
</svg>