<svg>
<path fill-rule="evenodd" clip-rule="evenodd" d="M8.5444 6.93797C5.90019 9.15673 5.55529 13.099 7.77405 15.7432C9.99281 18.3874 13.935 18.7323 16.5793 16.5135C16.9438 16.2076 17.2645 15.8693 17.5406 15.5064C15.1805 15.8019 12.7229 14.9315 11.0795 12.9729C9.43443 11.0124 9.00477 8.43793 9.70849 6.16336C9.30122 6.37281 8.91057 6.63072 8.5444 6.93797ZM6.62498 16.7074C3.87372 13.4285 4.30139 8.54017 7.58022 5.7889C8.5893 4.94219 9.75281 4.39569 10.9598 4.14171C11.2539 4.07984 11.5565 4.19946 11.7288 4.44568C11.9011 4.69191 11.9097 5.01719 11.7508 5.27224C10.4702 7.32773 10.5887 10.0544 12.2285 12.0087C13.8671 13.9615 16.5291 14.5523 18.7746 13.651C19.0535 13.539 19.3723 13.6044 19.5847 13.817C19.797 14.0296 19.862 14.3484 19.7497 14.6272C19.2898 15.7691 18.5505 16.8176 17.5434 17.6626C14.2646 20.4139 9.37625 19.9862 6.62498 16.7074Z"/>
</svg>