<svg width="24" height="24" viewBox="0 0 24 24" xmlns="http://www.w3.org/2000/svg">
<path fill-rule="evenodd" clip-rule="evenodd" d="M12 20.6667C16.7865 20.6667 20.6667 16.7865 20.6667 12C20.6667 7.21353 16.7865 3.33333 12 3.33333C7.21353 3.33333 3.33333 7.21353 3.33333 12C3.33333 16.7865 7.21353 20.6667 12 20.6667ZM12 22C17.5228 22 22 17.5228 22 12C22 6.47715 17.5228 2 12 2C6.47715 2 2 6.47715 2 12C2 17.5228 6.47715 22 12 22Z"/>
<path d="M9 12.3C9 13.1284 8.32843 13.8 7.5 13.8C6.67157 13.8 6 13.1284 6 12.3C6 11.4716 6.67157 10.8 7.5 10.8C8.32843 10.8 9 11.4716 9 12.3Z"/>
<path d="M13.5 12.3C13.5 13.1284 12.8284 13.8 12 13.8C11.1716 13.8 10.5 13.1284 10.5 12.3C10.5 11.4716 11.1716 10.8 12 10.8C12.8284 10.8 13.5 11.4716 13.5 12.3Z"/>
<path d="M18 12.3C18 13.1284 17.3284 13.8 16.5 13.8C15.6716 13.8 15 13.1284 15 12.3C15 11.4716 15.6716 10.8 16.5 10.8C17.3284 10.8 18 11.4716 18 12.3Z"/>
</svg>
