<svg width="24" height="24" viewBox="0 0 24 24" xmlns="http://www.w3.org/2000/svg">
<path fill-rule="evenodd" clip-rule="evenodd" d="M22 12C22 17.5228 17.5228 22 12 22C6.47715 22 2 17.5228 2 12C2 6.47715 6.47715 2 12 2C17.5228 2 22 6.47715 22 12ZM7.5 13.8C8.32843 13.8 9 13.1284 9 12.3C9 11.4716 8.32843 10.8 7.5 10.8C6.67157 10.8 6 11.4716 6 12.3C6 13.1284 6.67157 13.8 7.5 13.8ZM13.5 12.3C13.5 13.1284 12.8284 13.8 12 13.8C11.1716 13.8 10.5 13.1284 10.5 12.3C10.5 11.4716 11.1716 10.8 12 10.8C12.8284 10.8 13.5 11.4716 13.5 12.3ZM16.5 13.8C17.3284 13.8 18 13.1284 18 12.3C18 11.4716 17.3284 10.8 16.5 10.8C15.6716 10.8 15 11.4716 15 12.3C15 13.1284 15.6716 13.8 16.5 13.8Z"/>
</svg>
