<svg>
<path fill-rule="evenodd" clip-rule="evenodd" d="M11.3814 6.47046C11.3814 7.83487 10.2753 8.94093 8.91089 8.94093C7.54649 8.94093 6.44043 7.83487 6.44043 6.47046C6.44043 5.10606 7.54649 4 8.91089 4C10.2753 4 11.3814 5.10606 11.3814 6.47046ZM8.91089 7.24865C9.34066 7.24865 9.68906 6.90025 9.68906 6.47046C9.68906 6.04068 9.34066 5.69228 8.91089 5.69228C8.48111 5.69228 8.13271 6.04068 8.13271 6.47046C8.13271 6.90024 8.48111 7.24865 8.91089 7.24865Z"/>
<path fill-rule="evenodd" clip-rule="evenodd" d="M9.67947 12.6168L8.36418 10.5123C7.57835 9.25501 5.74721 9.255 4.96138 10.5123L1.15779 16.5981C0.322578 17.9344 1.28331 19.6678 2.85919 19.6678H10.4664L10.4906 19.6677H21.1408C22.7166 19.6677 23.6774 17.9343 22.8422 16.5979L16.7181 6.79944C15.9323 5.54211 14.1011 5.54211 13.3153 6.79944L9.67947 12.6168ZM6.92913 11.4092C6.80611 11.2124 6.51945 11.2124 6.39643 11.4092L2.59284 17.495C2.46209 17.7042 2.61249 17.9755 2.85919 17.9755H10.4664C10.7131 17.9755 10.8635 17.7042 10.7327 17.495L6.92913 11.4092ZM10.6773 14.2133L12.1678 16.5981C12.4431 17.0386 12.5233 17.5238 12.45 17.9754H21.1408C21.3875 17.9754 21.5379 17.704 21.4071 17.4948L15.2831 7.69635C15.16 7.49952 14.8734 7.49952 14.7504 7.69635L10.6773 14.2133Z"/>
</svg>
