<svg width="24" height="24" viewBox="0 0 24 24" xmlns="http://www.w3.org/2000/svg">
<path fill-rule="evenodd" clip-rule="evenodd" d="M11.7801 6.42C11.7801 7.75653 10.6966 8.84 9.36006 8.84C8.02353 8.84 6.94006 7.75653 6.94006 6.42C6.94006 5.08347 8.02353 4 9.36006 4C10.6966 4 11.7801 5.08347 11.7801 6.42ZM10.2801 6.42C10.2801 6.9281 9.86817 7.34 9.36006 7.34C8.85196 7.34 8.44006 6.9281 8.44006 6.42C8.44006 5.9119 8.85196 5.5 9.36006 5.5C9.86817 5.5 10.2801 5.9119 10.2801 6.42Z"/>
<path fill-rule="evenodd" clip-rule="evenodd" d="M8.17781 10.3089L9.75529 13.1483L13.4277 7.27253C13.8887 6.53501 14.9628 6.53501 15.4237 7.27253L21.9299 17.6826C22.4199 18.4665 21.8563 19.4832 20.9319 19.4832L3.02355 19.4832C2.12619 19.4832 1.55897 18.5192 1.99476 17.7348L6.12024 10.3089C6.56863 9.50177 7.7294 9.50177 8.17781 10.3089ZM14.4257 8.50593L10.5877 14.6467L12.4414 17.9832H20.349L14.4257 8.50593ZM7.14902 11.5458L3.57268 17.9832H10.7254L7.14902 11.5458Z"/>
</svg>