<svg>
<path fill-rule="evenodd" clip-rule="evenodd" d="M5.00081 6.29484C4.96144 5.44842 5.63116 4.70999 6.51 4.70999H15.9C16.7566 4.70999 17.4487 5.42591 17.4092 6.29405L17.4089 6.30166L17.4016 6.43151C19.1974 6.48524 20.65 7.95814 20.65 9.77999V10.12C20.65 11.9623 19.1561 13.47 17.3 13.47H16.9967C16.7379 15.3215 15.1554 16.73 13.25 16.73H9.16C7.13933 16.73 5.4819 15.146 5.38104 13.1294L5.00081 6.29484ZM17.0935 11.97L17.3182 7.93008C18.3276 7.93988 19.15 8.76221 19.15 9.77999V10.12C19.15 11.1377 18.3239 11.97 17.3 11.97H17.0935ZM3.99998 18.53C3.99998 18.1158 4.33576 17.78 4.74998 17.78H19.15C19.5642 17.78 19.9 18.1158 19.9 18.53C19.9 18.9442 19.5642 19.28 19.15 19.28H4.74998C4.33576 19.28 3.99998 18.9442 3.99998 18.53Z"/>
</svg>
