<svg>
<path fill-rule="evenodd" clip-rule="evenodd" d="M6.49916 6.2241L6.8791 13.053C6.93946 14.2753 7.94149 15.23 9.16 15.23H13.25C14.4685 15.23 15.4706 14.2753 15.5309 13.053L15.5311 13.0484L15.9108 6.22453C15.9108 6.22241 15.9106 6.22036 15.9106 6.22036L15.91 6.21825C15.91 6.21825 15.9086 6.21536 15.9069 6.21354C15.9051 6.21169 15.9027 6.2104 15.9027 6.2104L15.9 6.21002H6.51C6.50773 6.21002 6.50666 6.21026 6.50666 6.21026C6.50666 6.21026 6.50536 6.21098 6.50392 6.2125C6.50215 6.21439 6.50082 6.2166 6.50007 6.2186C6.50007 6.2186 6.49915 6.22151 6.49916 6.2241ZM5.00081 6.29487C4.96144 5.44845 5.63116 4.71002 6.51 4.71002H15.9C16.7566 4.71002 17.4487 5.42594 17.4092 6.29408L17.4089 6.30169L17.4016 6.43154C19.1974 6.48527 20.65 7.95817 20.65 9.78002V10.12C20.65 11.9624 19.1561 13.47 17.3 13.47H16.9967C16.7379 15.3215 15.1554 16.73 13.25 16.73H9.16C7.13933 16.73 5.4819 15.146 5.38104 13.1295L5.00081 6.29487ZM17.0935 11.97L17.3182 7.93011C18.3276 7.93991 19.15 8.76224 19.15 9.78002V10.12C19.15 11.1377 18.3239 11.97 17.3 11.97H17.0935ZM3.99998 18.53C3.99998 18.1158 4.33576 17.78 4.74998 17.78H19.15C19.5642 17.78 19.9 18.1158 19.9 18.53C19.9 18.9442 19.5642 19.28 19.15 19.28H4.74998C4.33576 19.28 3.99998 18.9442 3.99998 18.53Z"/>
</svg>
