<svg width="24" height="24" viewBox="0 0 24 24" xmlns="http://www.w3.org/2000/svg">
<path fill-rule="evenodd" clip-rule="evenodd" d="M15.4974 4.50098C15.7453 4.50133 15.9464 4.70273 15.9466 4.95117C15.9466 4.97759 15.9441 5.00412 15.9397 5.0293L14.9573 8.82227C17.0276 6.2247 18.0759 4.91085 18.1009 4.87988C18.2685 4.6733 18.5528 4.50444 18.8421 4.50098H21.553C21.8012 4.50098 22.0031 4.70251 22.0032 4.95117C22.0032 4.97758 22.0008 5.00414 21.9964 5.0293L18.4085 18.9072C18.3892 18.982 18.366 19.0572 18.3226 19.1211C18.2139 19.2805 17.9815 19.4909 17.5931 19.499L9.56084 19.5C9.55497 19.5 9.54911 19.4991 9.54326 19.499L3.50518 19.5C2.24871 19.5002 1.5505 18.0461 2.3333 17.0635C8.76306 8.99636 12.0001 4.9346 12.0442 4.87988C12.2119 4.67324 12.497 4.50438 12.7864 4.50098H15.4974ZM13.054 6.01953C12.9497 6.1503 12.7954 6.34435 12.5911 6.60059C12.1823 7.11343 11.573 7.87765 10.764 8.89258C9.14547 10.923 6.72578 13.9585 3.50615 17.998L3.50518 17.999H8.06279C8.06139 17.6789 8.16078 17.3511 8.38994 17.0635C10.0201 15.0181 11.4446 13.2296 12.6644 11.6992L14.139 6.00098H13.0687C13.064 6.00685 13.0589 6.01334 13.054 6.01953ZM19.1106 6.01953C19.0063 6.15034 18.8511 6.34427 18.6468 6.60059C18.2379 7.11349 17.6287 7.8776 16.8196 8.89258C15.2011 10.923 12.7824 13.9586 9.56279 17.998L9.56182 17.999H17.094L20.1956 6.00098H19.1253C19.1206 6.0069 19.1156 6.01328 19.1106 6.01953Z"/>
</svg>
