<svg>
<path fill-rule="evenodd" clip-rule="evenodd" d="M22.5 12C22.5 17.799 17.799 22.5 12 22.5C6.20101 22.5 1.5 17.799 1.5 12C1.5 6.20101 6.20101 1.5 12 1.5C17.799 1.5 22.5 6.20101 22.5 12ZM12 21C16.9706 21 21 16.9706 21 12C21 7.02944 16.9706 3 12 3C7.02944 3 3 7.02944 3 12C3 16.9706 7.02944 21 12 21Z"/>
<path d="M12.25 8.00488C12.25 9.38559 11.1307 10.5049 9.75 10.5049C8.36929 10.5049 7.25 9.38559 7.25 8.00488C7.25 6.62417 8.36929 5.50488 9.75 5.50488C11.1307 5.50488 12.25 6.62417 12.25 8.00488Z"/>
<path d="M17.5 10.4407C17.5 11.5452 16.6046 12.4407 15.5 12.4407C14.3954 12.4407 13.5 11.5452 13.5 10.4407C13.5 9.3361 14.3954 8.44067 15.5 8.44067C16.6046 8.44067 17.5 9.3361 17.5 10.4407Z"/>
<path fill-rule="evenodd" clip-rule="evenodd" d="M6.84637 14.7368C7.63693 11.9751 11.6035 12.1353 12.1687 14.9519C12.2023 15.1194 12.2202 15.2898 12.2221 15.4607L12.2452 17.5426C12.2455 17.5662 12.2468 17.5895 12.2492 17.6125L12.2378 18.6391C12.2332 19.0533 12.5652 19.3928 12.9794 19.3974C13.3936 19.402 13.7331 19.07 13.7377 18.6558L13.7621 16.4591C13.7632 16.3596 13.7727 16.2603 13.7903 16.1623C14.1285 14.2856 16.7781 14.1741 17.2727 16.0158L17.3209 16.1952C17.4283 16.5952 17.8397 16.8324 18.2397 16.725C18.6398 16.6176 18.877 16.2062 18.7696 15.8062L18.7214 15.6267C18.0367 13.0773 15.1075 12.5621 13.4338 13.9339C12.0633 10.2853 6.55592 10.3009 5.40429 14.324L5.2877 14.7313C5.17371 15.1296 5.40412 15.5448 5.80234 15.6588C6.20056 15.7728 6.61579 15.5424 6.72978 15.1441L6.84637 14.7368Z"/>
</svg>
