<svg width="24" height="24" viewBox="0 0 24 24" xmlns="http://www.w3.org/2000/svg">
<path fill-rule="evenodd" clip-rule="evenodd" d="M21.553 4.50061C21.8013 4.50061 22.0026 4.70229 22.0026 4.95107C22.0026 4.97767 22.0003 5.00374 21.9959 5.02908L18.4079 18.9069C18.3885 18.9819 18.3655 19.0568 18.3219 19.1208C18.2133 19.2803 17.9817 19.4905 17.5931 19.4986L17.5785 19.4988L9.56065 19.5001C8.30404 19.5003 7.60597 18.0456 8.38919 17.063C14.8288 8.98347 18.0659 4.92241 18.1004 4.87978C18.268 4.67305 18.5525 4.50402 18.842 4.50061H21.553Z"/>
<path d="M15.4971 4.50098C15.7453 4.50107 15.9463 4.70245 15.9463 4.95117C15.9463 4.97774 15.9439 5.00399 15.9395 5.0293L15.419 7.04004C13.8074 9.06172 11.2682 12.2477 7.80275 16.5957C7.06401 17.5229 7.20567 18.7312 7.88283 19.499L3.5049 19.5C2.24829 19.5002 1.5498 18.0452 2.33302 17.0625C8.76097 8.99764 11.998 4.93682 12.044 4.87988C12.2116 4.67316 12.4966 4.50438 12.7861 4.50098H15.4971Z"/>
</svg>
