<svg xmlns="http://www.w3.org/2000/svg" width="24" height="24" viewBox="0 0 24 24">
  <path fill="#626B79" fill-rule="evenodd" d="M20,16.75 C20.4142136,16.75 20.75,17.0857864 20.75,17.5 C20.75,17.8796958 20.4678461,18.193491 20.1017706,18.2431534 L20,18.25 L4,18.25 C3.58578644,18.25 3.25,17.9142136 3.25,17.5 C3.25,17.1203042 3.53215388,16.806509 3.89822944,16.7568466 L4,16.75 L20,16.75 Z M20,11.25 C20.4142136,11.25 20.75,11.5857864 20.75,12 C20.75,12.3796958 20.4678461,12.693491 20.1017706,12.7431534 L20,12.75 L4,12.75 C3.58578644,12.75 3.25,12.4142136 3.25,12 C3.25,11.6203042 3.53215388,11.306509 3.89822944,11.2568466 L4,11.25 L20,11.25 Z M20,5.75 C20.4142136,5.75 20.75,6.08578644 20.75,6.5 C20.75,6.87969577 20.4678461,7.19349096 20.1017706,7.24315338 L20,7.25 L4,7.25 C3.58578644,7.25 3.25,6.91421356 3.25,6.5 C3.25,6.12030423 3.53215388,5.80650904 3.89822944,5.75684662 L4,5.75 L20,5.75 Z"/>
</svg>
