<svg width="24" height="24" viewBox="0 0 24 24" xmlns="http://www.w3.org/2000/svg">
<path fill-rule="evenodd" clip-rule="evenodd" d="M19.9962 5.43686C19.9313 4.35628 19.0344 3.5 17.9375 3.5H8.5625L8.43686 3.50376C7.35628 3.5687 6.5 4.4656 6.5 5.5625V14.9375L6.50376 15.0631C6.5687 16.1437 7.4656 17 8.5625 17H17.9375L18.0631 16.9962C19.1437 16.9313 20 16.0344 20 14.9375V5.5625L19.9962 5.43686ZM13.1551 6.75729L13.2569 6.75C13.6366 6.75 13.9503 7.05061 14 7.44063L14.0069 7.54906L14 9.48835L16 9.48835C16.3797 9.48835 16.6935 9.78896 16.7432 10.179L16.75 10.2874C16.75 10.6919 16.4679 11.0263 16.1018 11.0792L16 11.0865L13.999 11.0865L14 12.9509C14 13.3555 13.7179 13.6898 13.3518 13.7427L13.25 13.75C12.8703 13.75 12.5565 13.4494 12.5069 13.0594L12.5 12.9509L12.499 11.0865L10.5 11.0865C10.1203 11.0865 9.80651 10.7859 9.75685 10.3958L9.75 10.2874C9.75 9.88287 10.0322 9.54855 10.3982 9.49564L10.5 9.48835L12.5 9.48835L12.5069 7.54906C12.5069 7.14453 12.789 6.81021 13.1551 6.75729Z"/>
<path d="M5.00085 7.00195L4.93689 7.00387C3.85631 7.0688 3.5 7.52821 3.5 8.62511V18.0626C3.56493 19.1432 4.46184 19.9995 5.55874 19.9995L14.9375 20.0626L15.0631 20.0588C16.1242 19.9951 16.487 19.5509 16.4997 18.4963L16.4375 18.4982H7.06253C5.96563 18.4982 5.06873 17.6419 5.0038 16.5613L5.00003 16.4357V7.06065C5.00003 7.04102 5.00031 7.02145 5.00085 7.00195Z"/>
</svg>
