<svg width="24" height="24" viewBox="0 0 24 24" xmlns="http://www.w3.org/2000/svg">
<path d="M16.5972 6.34211C16.8901 6.04921 17.365 6.04921 17.6579 6.34211C17.9508 6.635 17.9508 7.10987 17.6579 7.40277L7.40277 17.6579C7.10987 17.9508 6.635 17.9508 6.34211 17.6579C6.04921 17.365 6.04921 16.8901 6.34211 16.5972L16.5972 6.34211Z"/>
<path d="M20.5 12C20.5 7.30558 16.6944 3.5 12 3.5C7.30558 3.5 3.5 7.30558 3.5 12C3.5 16.6944 7.30558 20.5 12 20.5V22C6.47715 22 2 17.5228 2 12C2 6.47715 6.47715 2 12 2C17.5228 2 22 6.47715 22 12C22 17.5228 17.5228 22 12 22V20.5C16.6944 20.5 20.5 16.6944 20.5 12Z"/>
</svg>
