<svg width="24" height="24" viewBox="0 0 24 24" xmlns="http://www.w3.org/2000/svg">
<path fill-rule="evenodd" clip-rule="evenodd" d="M12 2C17.5226 2.00026 22 6.47731 22 12C21.9998 17.5225 17.5225 21.9997 12 22C6.47727 22 2.0002 17.5227 2 12C2 6.47715 6.47715 2 12 2ZM6.54395 18.5156C8.02045 19.7534 9.92264 20.5 12 20.5C16.6941 20.4997 20.4998 16.6941 20.5 12C20.5 9.92265 19.7534 8.02045 18.5156 6.54395L6.54395 18.5156ZM12 3.5C7.30558 3.5 3.5 7.30558 3.5 12C3.50009 14.0768 4.24622 15.9787 5.4834 17.4551L17.4551 5.4834C15.9787 4.24622 14.0768 3.50012 12 3.5Z"/>
</svg>
