<svg>
<path fill-rule="evenodd" clip-rule="evenodd" d="M21.418 12C21.418 16.6944 17.6124 20.5 12.918 20.5C8.22355 20.5 4.41797 16.6944 4.41797 12C4.41797 7.30558 8.22355 3.5 12.918 3.5C17.6124 3.5 21.418 7.30558 21.418 12ZM22.918 12C22.918 17.5228 18.4408 22 12.918 22C7.39512 22 2.91797 17.5228 2.91797 12C2.91797 6.47715 7.39512 2 12.918 2C18.4408 2 22.918 6.47715 22.918 12ZM8.87598 11.2036C8.46176 11.2036 8.12598 11.5394 8.12598 11.9536C8.12598 12.3678 8.46176 12.7036 8.87598 12.7036H17.0534C17.4676 12.7036 17.8034 12.3678 17.8034 11.9536C17.8034 11.5394 17.4676 11.2036 17.0534 11.2036H8.87598Z"/>
</svg>
