<svg width="24" height="24" viewBox="0 0 24 24" xmlns="http://www.w3.org/2000/svg">
<rect transform="translate(0.917969)"/>
<path fill-rule="evenodd" clip-rule="evenodd" d="M16.937 16.8238C16.526 16.8753 16.151 16.5838 16.0996 16.1728C15.957 15.0348 14.7451 13.7626 12.9192 13.7626C12.505 13.7626 12.1692 13.4268 12.1692 13.0126C12.1692 12.5984 12.505 12.2626 12.9192 12.2626C15.4282 12.2626 17.3426 14.0275 17.5879 15.9864C17.6394 16.3974 17.348 16.7723 16.937 16.8238Z"/>
<path fill-rule="evenodd" clip-rule="evenodd" d="M8.89897 16.8238C9.30997 16.8753 9.68489 16.5838 9.73637 16.1728C9.87892 15.0348 11.0909 13.7626 12.9167 13.7626C13.331 13.7626 13.6667 13.4268 13.6667 13.0126C13.6667 12.5984 13.331 12.2626 12.9167 12.2626C10.4077 12.2626 8.49337 14.0275 8.248 15.9864C8.19652 16.3974 8.48797 16.7723 8.89897 16.8238Z"/>
<path fill-rule="evenodd" clip-rule="evenodd" d="M12.918 20.5C17.6124 20.5 21.418 16.6944 21.418 12C21.418 7.30558 17.6124 3.5 12.918 3.5C8.22355 3.5 4.41797 7.30558 4.41797 12C4.41797 16.6944 8.22355 20.5 12.918 20.5ZM12.918 22C18.4408 22 22.918 17.5228 22.918 12C22.918 6.47715 18.4408 2 12.918 2C7.39512 2 2.91797 6.47715 2.91797 12C2.91797 17.5228 7.39512 22 12.918 22Z"/>
<path fill-rule="evenodd" clip-rule="evenodd" d="M8.99182 11.1072C9.76395 11.1072 10.3899 10.4812 10.3899 9.70911C10.3899 8.93697 9.76395 8.31104 8.99182 8.31104C8.21969 8.31104 7.59375 8.93697 7.59375 9.70911C7.59375 10.4812 8.21969 11.1072 8.99182 11.1072ZM16.8434 11.1072C17.6155 11.1072 18.2415 10.4812 18.2415 9.70911C18.2415 8.93697 17.6155 8.31104 16.8434 8.31104C16.0712 8.31104 15.4453 8.93697 15.4453 9.70911C15.4453 10.4812 16.0712 11.1072 16.8434 11.1072Z"/>
</svg>
