<svg width="24" height="24" viewBox="0 0 24 24" xmlns="http://www.w3.org/2000/svg">
<path fill-rule="evenodd" clip-rule="evenodd" d="M12.7432 3.64823C12.6935 3.28215 12.3797 3 12 3C11.5858 3 11.25 3.33579 11.25 3.75L11.2501 5.2929C8.32334 5.63357 6.34738 7.96723 6.25003 11C6.25003 12.5079 5.98942 14.0663 5.40903 15.0217L4.37432 16.5865L4.32321 16.676C4.08771 17.161 4.43754 17.75 5.00003 17.75H19L19.1029 17.7433C19.6374 17.6724 19.9359 17.0558 19.6257 16.5865L18.5757 14.9976L18.4737 14.8128C18.0139 13.9007 17.7805 12.3168 17.75 11C17.75 7.84226 15.752 5.60701 12.7507 5.28901L12.75 3.75L12.7432 3.64823ZM14.25 18.75H12.75L12.7426 18.8458C12.6892 19.194 12.3537 19.5 12 19.5C11.6142 19.5 11.25 19.1358 11.25 18.75H9.75003L9.75536 18.9008C9.83666 20.0487 10.8364 21 12 21C13.2142 21 14.25 19.9642 14.25 18.75ZM18.75 7C19.7165 7 20.5 6.2165 20.5 5.25C20.5 4.2835 19.7165 3.5 18.75 3.5C17.7835 3.5 17 4.2835 17 5.25C17 6.2165 17.7835 7 18.75 7Z"/>
<path d="M20.5 5.25C20.5 6.2165 19.7165 7 18.75 7C17.7835 7 17 6.2165 17 5.25C17 4.2835 17.7835 3.5 18.75 3.5C19.7165 3.5 20.5 4.2835 20.5 5.25Z"/>
</svg>