<svg>
<path fill-rule="evenodd" clip-rule="evenodd" d="M12.0003 3C12.38 3 12.6938 3.28215 12.7434 3.64823L12.7503 3.75L12.7509 5.28901C15.7522 5.60701 17.7503 7.84226 17.7503 11C17.7807 12.3168 18.0142 13.9007 18.474 14.8128L18.576 14.9976L19.626 16.5865C19.9361 17.0558 19.6376 17.6724 19.1032 17.7433L19.0003 17.75H14.25L14.2503 18.75C14.2503 19.9642 13.2145 21 12.0003 21C10.8367 21 9.8369 20.0487 9.75561 18.9008L9.75028 18.75L9.75002 17.75H5.00028C4.43778 17.75 4.08796 17.161 4.32345 16.676L4.37456 16.5865L5.40927 15.0217C5.98966 14.0663 6.25028 12.5079 6.25028 11C6.34763 7.96723 8.32358 5.63357 11.2504 5.2929L11.2503 3.75C11.2503 3.33579 11.5861 3 12.0003 3ZM12.75 17.75H11.25L11.2503 18.75C11.2503 19.1358 11.6145 19.5 12.0003 19.5C12.3539 19.5 12.6894 19.194 12.7429 18.8458L12.7503 18.75L12.75 17.75ZM12.0003 6.75C9.49054 6.75 7.84897 8.31776 7.75458 10.7743L7.75028 11L7.74624 11.3525C7.711 12.8801 7.44231 14.4005 6.82475 15.5629L6.67599 15.8246L6.39428 16.25H17.6053L17.3093 15.8005C16.6472 14.7106 16.335 13.2134 16.2655 11.6812L16.2543 11.3525L16.2503 11C16.2503 8.41421 14.5861 6.75 12.0003 6.75Z"/>
<circle cx="18.75" cy="5.25" r="1.75" fill="var(--ds-color-alert-error-default, #df0b37)"/>
</svg>
