<svg>
  <g>
    <path d="M12,3 C12.3796958,3 12.693491,3.28215388 12.7431534,3.64822944 L12.75,3.75 L12.7506212,5.28900792 C15.7519541,5.6070061 17.75,7.84225648 17.75,11 C17.7804395,12.3168078 18.0138986,13.9007149 18.4737112,14.8127936 L18.5757156,14.9976138 L19.6257156,16.5865027 C19.9358344,17.055783 19.6373377,17.6723534 19.1028842,17.7432672 L19,17.75 L14.2497471,17.75 L14.25,18.75 C14.25,19.9642136 13.2142136,21 12,21 C10.8363787,21 9.83662531,20.0487309 9.7553327,18.9007854 L9.75,18.75 L9.74974712,17.75 L5,17.75 C4.43750761,17.75 4.08768084,17.1610343 4.32317841,16.6760496 L4.37428445,16.5865027 L5.40899331,15.0217393 C5.98938787,14.0662598 6.25,12.5079329 6.25,11 C6.34734921,7.96722729 8.32330395,5.63356682 11.2500901,5.29289789 L11.25,3.75 C11.25,3.33578644 11.5857864,3 12,3 Z M12.7497471,17.75 L11.2497471,17.75 L11.25,18.75 C11.25,19.1357864 11.6142136,19.5 12,19.5 C12.3536376,19.5 12.6891479,19.1939594 12.7426105,18.8457989 L12.75,18.75 L12.7497471,17.75 Z M12,6.75 C9.4902661,6.75 7.84869212,8.31775828 7.7543,10.7742529 L7.75,11 L7.7459608,11.3524861 C7.71072677,12.880067 7.44203287,14.4004878 6.82447443,15.5628795 L6.67571555,15.8246085 L6.394,16.25 L17.605,16.25 L17.3089933,15.8004829 C16.6469551,14.7105969 16.3347338,13.2134256 16.2652481,11.6812113 L16.2540347,11.3524789 L16.25,11 C16.25,8.41421356 14.5857864,6.75 12,6.75 Z"/>
    <circle cx="18.75" cy="5.25" r="1.75"/>
  </g>
</svg>
