<svg width="24" height="24" viewBox="0 0 24 24" xmlns="http://www.w3.org/2000/svg">
<path d="M12.7431 3.64823C12.6935 3.28215 12.3797 3 12 3C11.5858 3 11.25 3.33579 11.25 3.75L11.2501 5.2929C8.32327 5.63357 6.34732 7.96723 6.24997 11C6.24997 12.5079 5.98936 14.0663 5.40896 15.0217L4.37426 16.5865L4.32315 16.676C4.08765 17.161 4.43748 17.75 4.99997 17.75H19L19.1029 17.7433C19.6373 17.6724 19.9358 17.0558 19.6257 16.5865L18.5757 14.9976L18.4737 14.8128C18.0139 13.9007 17.7804 12.3168 17.75 11C17.75 7.84226 15.7519 5.60701 12.7506 5.28901L12.75 3.75L12.7431 3.64823Z"/>
<path d="M14.25 18.75H12.75L12.7426 18.8458C12.6891 19.194 12.3536 19.5 12 19.5C11.6142 19.5 11.25 19.1358 11.25 18.75H9.74997L9.7553 18.9008C9.8366 20.0487 10.8363 21 12 21C13.2142 21 14.25 19.9642 14.25 18.75Z"/>
</svg>
