<svg>
  <g>
    <path d="M7.55196196,7.39082727 L7.63709474,7.46225358 L11.7513805,11.4622536 C12.0267637,11.7299873 12.0517986,12.1563748 11.826485,12.4529547 L11.7513805,12.537746 L7.63709474,16.537746 C7.34010572,16.8264853 6.86527908,16.8197976 6.57653976,16.5228086 C6.31404946,16.2528185 6.29571373,15.8358553 6.51768155,15.545341 L6.59147715,15.4622536 L9.38057143,12.7499993 L4.02857143,12.7499993 C3.61435787,12.7499993 3.27857143,12.4142136 3.27857143,12 C3.27857143,11.6203042 3.56072531,11.306509 3.92680087,11.2568466 L4.02857143,11.2499993 L9.38057143,11.2499993 L6.59147715,8.53774596 C6.29448813,8.24900663 6.28780043,7.77417999 6.57653976,7.47719097 C6.83903005,7.20720095 7.25531152,7.17712938 7.55196196,7.39082727 Z" id="one-way-arrow" fill="#626B79" fill-rule="nonzero"></path>
  </g>
</svg>
