<svg xmlns="http://www.w3.org/2000/svg" width="770.643" height="183.489" viewBox="0 0 203.899 48.548"><defs><clipPath id="a" clipPathUnits="userSpaceOnUse"><path d="M814.5 666h324V-18h-324z"/></clipPath><clipPath id="b" clipPathUnits="userSpaceOnUse"><path d="M893.97 345.954h169.92v-86.92H893.97z"/></clipPath><clipPath id="c" clipPathUnits="userSpaceOnUse"><path d="M893.97 259.034h169.924v86.92H893.97z"/></clipPath><clipPath id="d" clipPathUnits="userSpaceOnUse"><path d="M892.97 346.954h209.51v-88.92H892.97z"/></clipPath><clipPath id="e" clipPathUnits="userSpaceOnUse"><path d="M892.97 258.034h209.511v88.92H892.97z"/></clipPath><clipPath id="f" clipPathUnits="userSpaceOnUse"><path d="M72.63 176.777h60.03v-17.28H72.63z"/></clipPath><clipPath id="g" clipPathUnits="userSpaceOnUse"><path d="M72.63 176.777h60.03v-17.28H72.63z"/></clipPath><clipPath id="h" clipPathUnits="userSpaceOnUse"><path d="M146.34 176.777h60.03v-17.28h-60.03z"/></clipPath><clipPath id="i" clipPathUnits="userSpaceOnUse"><path d="M146.34 176.778h60.03v-17.281h-60.03z"/></clipPath><clipPath id="j" clipPathUnits="userSpaceOnUse"><path d="M146.34 159.497h60.03v17.281h-60.03z"/></clipPath><clipPath id="k" clipPathUnits="userSpaceOnUse"><path d="M619.567 177.442h71v-72h-71z"/></clipPath><clipPath id="l" clipPathUnits="userSpaceOnUse"><path d="M618.567 176.442h77v-78h-77z"/></clipPath><clipPath id="m" clipPathUnits="userSpaceOnUse"><path d="M624.567 159.442h80v-79h-80z"/></clipPath><clipPath id="n" clipPathUnits="userSpaceOnUse"><path d="M731.213 484.797h60v-70h-60z"/></clipPath><clipPath id="o" clipPathUnits="userSpaceOnUse"><path d="M558.567 188.442h41v-42h-41z"/></clipPath><clipPath id="p" clipPathUnits="userSpaceOnUse"><path d="M555.567 187.442h41v-41h-41z"/></clipPath><clipPath id="q" clipPathUnits="userSpaceOnUse"><path d="M570.567 231.442h82v-79h-82z"/></clipPath><clipPath id="r" clipPathUnits="userSpaceOnUse"><path d="M583.567 231.442h80v-84h-80z"/></clipPath><clipPath id="s" clipPathUnits="userSpaceOnUse"><path d="M574.567 208.442h82v-83h-82z"/></clipPath><clipPath id="t" clipPathUnits="userSpaceOnUse"><path d="M559.567 246.442h147v-147h-147z"/></clipPath><clipPath id="u" clipPathUnits="userSpaceOnUse"><path d="M576.888 228.122h112v-111h-112z"/></clipPath><clipPath id="v" clipPathUnits="userSpaceOnUse"><path d="M596.567 208.442h90v-91h-90z"/></clipPath><clipPath id="w" clipPathUnits="userSpaceOnUse"><path d="M523.567 286.442h257v-258h-257z"/></clipPath><clipPath id="x" clipPathUnits="userSpaceOnUse"><path d="M598.567 195.442h96v-95h-96z"/></clipPath><clipPath id="y" clipPathUnits="userSpaceOnUse"><path d="M508.567 281.442h259v-260h-259z"/></clipPath><clipPath id="z" clipPathUnits="userSpaceOnUse"><path d="M537.567 265.442h262v-258h-262z"/></clipPath><clipPath id="A" clipPathUnits="userSpaceOnUse"><path d="M684.567 150.442h138v-137h-138z"/></clipPath><clipPath id="B" clipPathUnits="userSpaceOnUse"><path d="M697.567 148.442h120v-119h-120z"/></clipPath><clipPath id="C" clipPathUnits="userSpaceOnUse"><path d="M660.19 164.459h597.6v-83.52h-597.6z"/></clipPath><clipPath id="D" clipPathUnits="userSpaceOnUse"><path d="M0 0h5757.32v1353.67H0z"/></clipPath></defs><g clip-path="url(#D)" fill="#1c4e9c" transform="matrix(.03528 0 0 -.03528 .397 48.151)"><path d="M5691.66 63.762c7.91 0 14.9.566 14.9 10.02 0 7.577-6.87 8.98-13.36 8.98h-12.67v-19zm-11.13-34.512h-9.32v61.422h23.38c14.59 0 21.72-5.352 21.72-17.461 0-11-6.88-15.79-15.92-16.922l17.44-27.039h-10.43l-16.17 26.629h-10.7zm11.27-13.602c24.06 0 43.1 18.84 43.1 44.473 0 25.2-19.04 44.211-43.1 44.211-24.34 0-43.38-19.012-43.38-44.21 0-25.634 19.04-44.474 43.38-44.474zm-54.09 44.473c0 30.55 24.79 53.07 54.09 53.07 29.04 0 53.75-22.52 53.75-53.07 0-30.871-24.71-53.383-53.75-53.383-29.3 0-54.09 22.512-54.09 53.383M2505.14 179.539c-7.34-12.41-30.14-48.969-45.54-78.848 6.54-.351 35.85-.98 41.65-.98 3.89 0 17.38 0 23.56.98-2.29 14.438-14.72 63.059-19.67 78.848zM2367.82 2.679c8.41 3.692 16.56 15.141 28.46 30.22 24.71 30.863 55.23 81.882 81.41 124.152 9.29 15.109 19.35 30.539 19.35 40.961 0 5.027-1.59 8.328-2.74 10.726 2.74-.34 6.18-.699 9.29-1.019 3.46 0 6.12-.34 7.72-.34 9.62 0 16.19 1.703 20.44 2.703 3.82-31.211 11.97-56.41 23.51-108.41 12.34-53.34 27-98 39.36-98.992l-.39-1.348h-14.26c-2.73 0-26.25 0-33.18-1.332-2.3 14.79-10.07 58.7-18.09 87.23-5.48.692-24.72.692-36.69.692-2.66 0-26.23 0-39.36-.691-6.55-9.36-38.59-64.77-38.59-76.47 0-6.761 6.18-7.73 7.31-8.081l-.38-1.348c-9.23.996-22.73 1.348-26.24 1.348-4.2 0-18.09-.64-27.38-1.348l.45 1.348M2806.96 10.031c4.27 1.008 7.76 3.38 11.22 8.719 7.31 11.75 15.47 58.371 21.58 101.012 5.03 35.226 9.23 64.109 9.23 76.179 0 13.758-3.43 17.129-9.23 18.797l.38 1.364c8.85-.704 17.39-1.364 29.74-1.364 7.33 0 21.58.66 29.69 1.364l-.39-1.364c-5.35-1.668-8.09-3.316-11.59-8.738-6.18-9-13.5-51.012-18.91-86.238-6.51-42.64-11.99-74.473-11.99-91.922 0-14.8 5.86-16.8 9.68-17.809l-.39-1.34c-9.61.707-17.3 1.34-29.72 1.34-10.01 0-20.01-.36-29.69-1.34l.39 1.34M3244.24 111.039c20.45 0 35.15 4.031 44.84 10.063 14.26 9.109 20.06 23.507 20.06 41.277 0 11.402-1.97 21.492-12.36 30.23-9.28 7.731-28.23 11.391-40.12 11.391-8.87 0-18.16-.68-21.97-1.68-2.74-9.711-11.98-52.308-17.39-88.57 8.85-1.711 17.7-2.711 26.94-2.711zm-87.21-101.008c4.28 1.008 7.74 3.38 11.23 8.719 7.33 11.75 15.41 58.371 21.6 101.012 5.02 35.226 9.28 64.109 9.28 76.179 0 13.758-3.42 17.129-9.28 18.797l.43 1.364c4.59-.352 8.85-.704 12.74-1.02 4.2-.344 10.39-.344 16.95-.344 7.38 0 15.02.66 23.57 1.364 8.44.636 17.31 1.339 26.61 1.339 46.25 0 71.72-9.441 71.72-42.953 0-40.277-43.19-63.449-64.46-70.156 8.91-20.152 38.28-61.082 47.52-74.492 5.78-8.41 12.74-15.75 22.4-19.809l-.43-1.34c-1.91.309-5.03.707-8.08.98-3.09.36-6.58.36-10 .36-9.67 0-19.32-1.031-27.83-2.691-13.5 23.832-25.43 47.332-40.47 69.492-6.98 10.078-11.25 17.117-15.84 20.137-7.8 4.66-25.08 4.32-28.54 4.66-5.43-33.55-9.31-60.008-9.31-73.79 0-14.8 5.8-16.8 9.7-17.808l-.39-1.34c-9.69.707-17.38 1.34-29.76 1.34-9.98 0-19.98-.36-29.67-1.34l.31 1.34M3772.73 51.332c-7.32-14.8-11.97-29.21-16.17-45.703-7.77 1.71-15.86 2.742-26.23 3.371-10.84.672-23.94 1.031-43.26 1.031-23.16 0-47.44-.36-70.18-1.34l.4 1.34c4.19 1.008 7.69 3.38 11.13 8.719 7.32 11.75 15.47 58.371 21.58 101.012 5.06 35.226 9.3 64.109 9.3 76.179 0 13.758-3.5 17.129-9.3 18.797l.47 1.364c8.83-.704 17.3-1.364 29.67-1.364 7.32 0 21.66.66 29.74 1.364l-.47-1.364c-5.41-1.668-8.06-3.316-11.5-8.738-6.17-9-13.5-51.012-18.93-86.238-6.93-44.934-12.73-81.184-13.12-96.64 5.8-.68 11.91-1 18.09-1 22.05 0 47.51 5 57.91 9.75 7.3 3.347 18.9 6.706 25.46 21.116l5.41-1.656M4040.68 10.031c4.34 1.008 7.78 3.38 11.29 8.719 7.25 11.75 15.33 58.371 21.51 101.012 5.09 35.226 9.29 64.109 9.29 76.179 0 13.758-3.49 17.129-9.29 18.797l.39 1.364c8.9-.704 17.38-1.364 29.74-1.364 7.33 0 21.59.66 29.75 1.364l-.39-1.364c-5.41-1.668-8.15-3.316-11.58-8.738-6.18-9-13.58-51.012-18.93-86.238-6.48-42.64-11.97-74.473-11.97-91.922 0-14.8 5.8-16.8 9.63-17.809l-.33-1.34c-9.67.707-17.39 1.34-29.73 1.34-10.06 0-20.08-.36-29.69-1.34l.31 1.34M4384.69 10.031c5.41 2.36 10.43 5.059 15.47 16.43 4.96 11.41 8.47 29.898 13.04 47.66 11.98 46.309 21.98 105.379 21.98 114.809 0 3.039-2.66 6.691-8.09 13.75-6.11 7.718-9.22 9.402-16.19 12.058v1.364c10.08-1.02 23.9-1.364 27.42-1.364 7.75 0 17.75.344 23.5 1.364 20.06-31.891 37.05-56.731 65.58-92.602 21.27-26.879 42.87-52.379 63.64-76.18 2.73 15.77 17.83 101.34 17.83 142.262 0 12.09 0 22.859-9.69 25.156l.37 1.364c4.67-.352 18.16-1.364 27.4-1.364 8.93 0 23.95 1.012 27.01 1.364v-1.364c-5.74-1.668-8.47-4.699-10.39-7.359-7.69-10.379-9.61-26.508-23.1-85.258-11.23-48.312-21.66-101.32-23.58-113.43-2.36.309-4.25.309-6.56.309-2.36 0-4.65 0-6.93-.309-17.79 22.84-102.23 124.168-135.02 168.481-3.54-17.141-16.56-126.543-16.56-153.711 0-9.371 4.2-11.75 8-13.43l-.31-1.34c-9.3.98-18.53 1.34-27.83 1.34-9.24 0-18.54-.633-27.38-1.34l.39 1.34M5089.86 47.95c-8.92-11.419-18.55-30.212-24.33-42.321-21.21 2.383-42.85 3.371-64.85 3.77-21.58.632-43.61.632-64.82.632-10.02 0-20.08-.36-29.69-1.34l.39 1.34c4.26 1.008 7.7 3.38 11.19 8.719 7.33 11.75 15.43 58.371 21.61 101.012 5.03 35.226 9.23 64.109 9.23 76.179 0 13.758-3.43 17.129-9.23 18.797l.39 1.364c4.64-.352 8.84-.704 13.49-1.02 5.04 0 10.06-.344 16.23-.344 69.83 0 111.1.66 137.72 4.383-6.58-11.422-12.76-31.211-15.8-47.332h-4.65c0 6.063.76 13.75-11.99 21.16-10.37 6.02-34.69 9.731-54.38 9.731-12.36 0-24.65-.36-36.7-1.7-3.81-13.41-13.04-57.73-15.33-76.48 6.11-1 13.44-1 19.61-1 32.42 0 51.72 0 62.85 6.328 5.88 3.383 8.16 7.422 10.08 11.762h4.65c-6.57-17.801-8.85-33.91-10.06-50.34h-4.67c.47 1 .47 2.328.47 3.332 0 4.719-3.52 9.457-10.02 12.129-8.54 3.301-34.77 5.039-53.69 5.039-8.09 0-16.93-.391-20.82-.711-2.66-16.09-12.35-75.168-13.13-87.219 8.17-1.02 17.39-1.699 24.34-1.699 28.53 0 48.22 1.7 67.13 6.379 28.16 7.07 32.42 13.41 40.13 21.82l4.65-2.37M5521.8 172.121c0 18.09-23.56 33.57-59.42 33.57-13.88 0-24.67-2.691-30.82-7.402-10.45-7.699-13.14-21.828-13.14-25.828 0-27.211 26.56-39.961 57.46-49.301 42.87-13.148 52.48-27.21 52.48-47.7 0-16.1-10-31.87-25.84-44.96-23.13-18.79-47.85-24.871-74.08-24.871-21.58 0-46.29 4.742-64.4 9.46 5.73 9.372 10.37 37.552 10.37 49.993h5.82c.75-8.723 2.66-14.762 8.09-21.492 10.76-13.43 32.32-24.48 55.96-24.48 29.31 0 51.27 11.39 51.27 42.972 0 28.828-33.17 36.918-67.87 50.297-20.82 8.051-42.04 19.133-42.04 43.621 0 18.488 9.22 32.59 24.26 43.32 17.4 12.379 38.23 19.801 71.41 19.801 11.19 0 20.82-.699 28.51-1.359 8.15-1.024 14.34-1.66 18.17-1.66 3.06 0 8.08.636 9.67 1.019-6.18-16.422-8.91-27.539-10.06-45h-5.8M2231.13 967.93l-218.64-526.266 35.5 176.16-21.94 406.346-297.53-30.861-228.87-23.692-250.33-274.597 87.25 144.203 132.36 514.447-330.09-43.28L878.883 306h320.307l38.08 148.152 101.58 104.414L1369.88 306h328.78l-76.16 490.977 119.45 110.14 82.03-524.867c1.45-12.754 7.91-51.289 7.91-63.961 0-107.25-61.49-106.867-125.01-106.867-36.64 0-53.41.769-72.16.769l-90.13-198.27c49.36-5.66 95.92-11.292 211.6-11.292 86.05 0 206.05 0 302.02 98.73 40.9 42.43 67.71 95.981 94.52 148.211 12.7 21.149 23.97 42.309 35.26 63.469l375.34 698.421-332.2-43.53M1009.47 1053.4c1.57 16.43 2.24 33.38 2.24 48.38 0 173.56-167.909 225.75-406.378 225.75-74.789 0-204.625-7.05-313.277-73.38-110.039-69.1-163.657-177.76-163.657-282.209 0-165.046 118.543-215.781 204.625-251.097l97.348-36.715c73.359-26.793 100.172-36.703 121.344-59.281 14.101-14.094 25.387-36.641 25.387-60.645 0-42.297-33.86-110.051-124.168-110.051-52.227 0-87.52 26.797-101.586 52.207-8.489 16.887-11.336 36.692-11.336 56.438 0 14.082 1.547 21.16 1.547 33.828L0 551.828v-7.371C0 335.66 176.371 280.539 420.453 280.539c101.59 0 262.481 8.531 390.879 118.574 84.609 73.379 125.57 167.891 125.57 262.473 0 173.543-119.914 224.305-198.957 258.187l-100.218 36.696c-84.625 29.64-101.536 36.683-122.707 56.431-12.731 9.87-28.235 31.04-28.235 56.43 0 39.52 31.031 86.04 111.5 86.04 40.895 0 98.727-16.88 98.727-87.42 0-9.93-2.563-39.51-7.051-56.49l319.509 41.94"/><path d="M2608.3 1043.44l-131.84-17.3 28.44 281.39 351.92 46.14-75.92-550.561-54.36-241.203 330.9 753.744 290.04 38.02-37.97-517.139c-.04-.633-.04-1.168-.12-1.84l-41.91-275.48 281.27 747.649 356.84 46.81L3466.13 306h-430.29l26.76 372.477c7.13 81.855 9.92 104.429 19.8 182.078-22.61-59.301-31.07-80.508-57.83-143.95L2835.42 306h-431.74l44.03 435.828 160.59 301.612M4113.16 897.168c38.09 0 63.52-19.68 63.52-64.863 0-31.438-16.31-89.91-24.98-117.86l-175.92-23.382c26.23 97.542 41.86 206.105 137.38 206.105zm-1.66-387.926c-22.3-66.496-49.66-94.023-111.32-94.023-43.81 0-72.99 26.824-68.93 75.703 2.81 34.16 11.17 53.73 17.66 80.371l484.61 64.336c7.09 23.992 21.6 80.976 21.6 147.277 0 178.867-140.94 249.774-335.53 249.774-251.19 0-348.52-93.125-405-200.375-42.23-80.446-76.17-221.551-76.17-306.207 0-33.86 1.48-122.766 83.3-181.977 36.7-28.25 83.24-40.961 129.86-49.391 40.84-7.07 83.21-9.91 124.14-9.91 129.24 0 259.79 16.602 345.9 93.082 56.17 49.844 73.75 104.934 91.02 171.34l-301.14-40M4994.51 754.691l-86.11 26.813c-64.85 19.75-112.81 35.285-112.81 76.184 0 32.476 32.5 50.781 73.34 50.781 40.93 0 67.75-12.66 67.75-53.625 0-7.039-4.65-40.985-4.65-48.055l277.99 36.496c1.03 8.93 1.8 17.32 1.8 22.86 0 128.414-138.27 167.925-337.25 167.925-81.84 0-166.48-9.9-239.78-46.59-104.52-50.792-146.8-138.199-146.8-214.441 0-127 97.36-166.504 162.26-191.902l88.93-32.481c63.44-21.152 100.12-33.82 100.12-74.738 0-28.25-25.34-59.266-78.97-59.266-24.02 0-75.04 4.207-75.04 66.297 0 8.489 2.56 22.551 3.97 29.629l-277.27-36.375c-.23-5.449-.17-11.074-.17-17.265 0-88.34 59.98-143.618 169.29-159.407 76.18-12.711 143.85-12.711 167.87-12.711 76.23 0 193.31 8.512 275.22 62.078 76.15 50.809 126.93 139.727 126.93 222.899-1.42 129.871-101.6 165.164-156.62 184.894M5468.55 893.129l-175.97-27.938-75.67-293.929c-9.86-39.512-18.34-74.805-18.34-112.852 0-57.898 16.9-114.289 101.55-146.75 38.18-14.129 77.61-18.328 118.55-18.328 73.38 0 136.9 12.668 191.86 23.957l40.95 159.461c-16.95-2.832-31.03-4.258-47.91-4.258-19.84 0-69.21 0-69.21 49.414 0 16.926 4.25 35.215 16.93 93.125l72.67 277.782h102.99l30.37 118.647h-103.04l49.43 190.47-335.92-44.01-36.62-146.46h-73.36l-31.83-118.647 242.57.316"/></g></svg>