<svg width="11" height="27" viewBox="0 0 11 27" fill="none" xmlns="http://www.w3.org/2000/svg">
<path d="M8.80894 8.64161C8.80414 7.74124 8.52621 6.86406 8.01274 6.12862C7.49927 5.39318 6.775 4.83493 5.9378 4.52932V2.17944H3.05198V4.50167C2.2034 4.79984 1.46858 5.35965 0.950914 6.10235C0.433249 6.84504 0.158796 7.73323 0.16616 8.64195V8.85206V24.6342C0.16616 25.3475 0.69633 26.0939 1.40139 26.0939H7.50608C8.21113 26.0939 8.82362 25.3475 8.82362 24.6342V8.76324C8.82362 8.72247 8.80894 8.68273 8.80894 8.64161Z" fill="#626B79"/>
<path d="M7.17575 0.09375H1.81641V0.927957H3.87761V1.76216H5.11454V0.927957H7.17575V0.09375Z" fill="#626B79"/>
<path d="M8.28308 4.83775C9.23656 4.83775 10.0095 4.05581 10.0095 3.09124C10.0095 2.12667 9.23656 1.34473 8.28308 1.34473C7.32959 1.34473 6.55664 2.12667 6.55664 3.09124C6.55664 4.05581 7.32959 4.83775 8.28308 4.83775Z" fill="white" stroke="#626B79" stroke-miterlimit="10"/>
<path d="M7.43359 3.64683L8.78222 2.1792L8.23567 4.06256L7.43359 3.64683Z" fill="#626B79"/>
</svg>
