<svg width="24" height="24" viewBox="0 0 24 24" xmlns="http://www.w3.org/2000/svg">
<path d="M10.4912 4.49419C11.0435 4.49424 11.4912 4.94194 11.4912 5.49419V10.004C11.4912 10.4181 11.1554 10.7539 10.7412 10.754C10.3271 10.7538 9.99123 10.4181 9.99121 10.004V5.99419H5.03125V17.1202H6.77539C7.1896 17.1202 7.52538 17.456 7.52539 17.8702C7.52539 18.2844 7.1896 18.6202 6.77539 18.6202H2.77539C2.36129 18.62 2.02539 18.2843 2.02539 17.8702C2.0254 17.456 2.3613 17.1203 2.77539 17.1202H3.53125V5.24419C3.53125 4.83006 3.86715 4.49432 4.28125 4.49419H10.4912Z"/>
<path d="M6.80493 12.4605V11.8609C6.80493 11.4467 7.14072 11.1109 7.55493 11.1109C7.96915 11.1109 8.30493 11.4467 8.30493 11.8609V12.4605C8.30493 12.8747 7.96915 13.2105 7.55493 13.2105C7.14072 13.2105 6.80493 12.8747 6.80493 12.4605Z"/>
<path d="M6.80493 8.8501V8.25049C6.80493 7.83627 7.14072 7.50049 7.55493 7.50049C7.96915 7.50049 8.30493 7.83627 8.30493 8.25049V8.8501C8.30493 9.26431 7.96915 9.6001 7.55493 9.6001C7.14072 9.6001 6.80493 9.26431 6.80493 8.8501Z"/>
<path d="M15.8207 2.22679C16.1142 1.93473 16.589 1.9354 16.8812 2.22875L19.0824 4.44164H21.2103C21.6243 4.44176 21.9601 4.77766 21.9603 5.19164C21.9603 5.60577 21.6244 5.94151 21.2103 5.94164H19.0707L16.8236 8.17699C16.53 8.46914 16.0552 8.46767 15.7631 8.17406C15.471 7.88044 15.4724 7.40565 15.766 7.11351L16.9437 5.94164H15.1849C14.986 5.94164 14.7953 5.86255 14.6547 5.72191L13.0883 4.15648C12.7954 3.86363 12.7955 3.38884 13.0883 3.09593C13.3811 2.80304 13.8559 2.80304 14.1488 3.09593L15.4955 4.44164H16.9662L15.8177 3.28734C15.5257 2.9938 15.5273 2.51895 15.8207 2.22679Z"/>
<path d="M11.428 17.8734C11.428 17.4591 11.7638 17.1234 12.178 17.1234C12.5922 17.1234 12.928 17.4591 12.928 17.8734C12.928 18.2876 12.5922 18.6234 12.178 18.6234C11.7638 18.6234 11.428 18.2876 11.428 17.8734Z"/>
<path d="M17.5229 17.8734C17.5229 17.4591 17.8587 17.1234 18.2729 17.1234C18.6872 17.1234 19.0229 17.4591 19.0229 17.8734C19.0229 18.2876 18.6872 18.6234 18.2729 18.6234C17.8587 18.6234 17.5229 18.2876 17.5229 17.8734Z"/>
<path fill-rule="evenodd" clip-rule="evenodd" d="M17.6445 11.1045C18.3431 11.1047 19.0029 11.4296 19.4287 11.9834L21.5088 14.6885C21.811 15.0817 21.9746 15.5647 21.9746 16.0606V18.3545C21.9746 19.5876 20.9823 20.5871 19.7529 20.6026V21.2422C19.7529 21.6563 19.4169 21.992 19.0029 21.9922C18.5887 21.9922 18.253 21.6564 18.2529 21.2422V20.6045H12.2441V21.2422C12.2441 21.6563 11.9082 21.9921 11.4941 21.9922C11.0799 21.9922 10.7442 21.6564 10.7441 21.2422V20.6045H10.7246C9.48197 20.6045 8.47363 19.5972 8.47363 18.3545V16.0557C8.47363 15.5639 8.63601 15.0859 8.93359 14.6944L10.9863 11.9932C11.4117 11.4337 12.0745 11.1047 12.7773 11.1045H17.6445ZM10.7246 16.587C10.3104 16.587 9.97461 16.9227 9.97461 17.337V18.337C9.97484 18.751 10.3105 19.087 10.7246 19.087H19.7246C20.1385 19.0867 20.4744 18.7508 20.4746 18.337V17.337C20.4746 16.9229 20.1386 16.5872 19.7246 16.587H10.7246ZM12.7773 12.6045C12.5433 12.6047 12.3224 12.7142 12.1807 12.9004L10.5107 15.0967C10.581 15.0901 10.6526 15.087 10.7246 15.087H19.7246C19.7934 15.087 19.8615 15.0897 19.9287 15.0958L18.2393 12.8975C18.0974 12.713 17.8773 12.6047 17.6445 12.6045H12.7773Z"/>
</svg>
