<svg width="24" height="24" viewBox="0 0 24 24" fill="none" xmlns="http://www.w3.org/2000/svg">
<path d="M2.77576 17.8698H6.77576" stroke="#33353C" stroke-width="1.5" stroke-linecap="round" stroke-linejoin="round"/>
<path d="M7.55505 11.8607V12.4607" stroke="#33353C" stroke-width="1.5" stroke-linecap="round" stroke-linejoin="round"/>
<path d="M7.55505 8.25024V8.85024" stroke="#33353C" stroke-width="1.5" stroke-linecap="round" stroke-linejoin="round"/>
<path d="M10.7415 10.0037V5.49371C10.7415 5.35564 10.6296 5.24371 10.4915 5.24371H4.28162V17.7521" stroke="#33353C" stroke-width="1.5" stroke-linecap="round" stroke-linejoin="round"/>
<path d="M13.6185 3.62571L15.1846 5.19174H21.2101M16.3498 2.75781L18.7659 5.18601L16.2946 7.6451" stroke="#33353C" stroke-width="1.5" stroke-linecap="round" stroke-linejoin="round"/>
<path d="M11.494 21.2422L11.494 20.0466" stroke="#33353C" stroke-width="1.5" stroke-linecap="round" stroke-linejoin="round"/>
<path d="M12.1781 17.8732L12.1781 17.8731" stroke="#33353C" stroke-width="1.5" stroke-linecap="round" stroke-linejoin="round"/>
<path d="M18.2731 17.8732L18.2731 17.8731" stroke="#33353C" stroke-width="1.5" stroke-linecap="round" stroke-linejoin="round"/>
<path d="M19.0026 21.2422L19.0026 20.0466" stroke="#33353C" stroke-width="1.5" stroke-linecap="round" stroke-linejoin="round"/>
<rect x="9.22424" y="15.8363" width="12" height="4" rx="1.5" stroke="#33353C" stroke-width="1.5" stroke-linecap="round" stroke-linejoin="round"/>
<path d="M11.5833 12.4466C11.8669 12.0734 12.3087 11.8543 12.7775 11.8543H17.6441C18.11 11.8543 18.5494 12.0708 18.8333 12.4401L20.9134 15.1458C21.115 15.4079 21.2242 15.7294 21.2242 16.06V18.3543C21.2242 19.1827 20.5527 19.8543 19.7242 19.8543H10.7242C9.89582 19.8543 9.22424 19.1827 9.22424 18.3543V16.0555C9.22424 15.7276 9.33167 15.4088 9.53007 15.1477L11.5833 12.4466Z" stroke="#33353C" stroke-width="1.5" stroke-linecap="round" stroke-linejoin="round"/>
<path d="M17.6445 11.1041C18.343 11.1043 19.0029 11.4293 19.4287 11.983L21.5088 14.6881C21.8109 15.0812 21.9745 15.5644 21.9746 16.0602V18.3541C21.9746 19.5874 20.9818 20.5872 19.752 20.6021V21.2418C19.7519 21.656 19.4161 21.9918 19.002 21.9918C18.588 21.9915 18.252 21.6558 18.252 21.2418V20.6041H12.2441V21.2418C12.2441 21.6559 11.9082 21.9917 11.4941 21.9918C11.0799 21.9918 10.7442 21.656 10.7441 21.2418V20.6041H10.7246C9.48197 20.6041 8.47461 19.5967 8.47461 18.3541V16.0553C8.4747 15.5636 8.6361 15.0853 8.93359 14.6939L10.9863 11.9928C11.4117 11.4335 12.0746 11.1042 12.7773 11.1041H17.6445ZM10.7246 16.5865C10.3105 16.5865 9.97484 16.9225 9.97461 17.3365V18.3365C9.97484 18.7505 10.3105 19.0865 10.7246 19.0865H19.7246C20.1385 19.0863 20.4744 18.7504 20.4746 18.3365V17.3365C20.4744 16.9227 20.1385 16.5868 19.7246 16.5865H10.7246ZM12.1777 17.1236C12.5919 17.1236 12.9277 17.4594 12.9277 17.8736C12.9276 18.2877 12.5918 18.6236 12.1777 18.6236C11.7637 18.6235 11.4279 18.2876 11.4277 17.8736C11.4277 17.4595 11.7636 17.1238 12.1777 17.1236ZM18.2734 17.1236C18.6874 17.1239 19.0225 17.4596 19.0225 17.8736C19.0223 18.2877 18.6866 18.6236 18.2725 18.6236C17.8586 18.6234 17.5226 18.2875 17.5225 17.8736C17.5225 17.4594 17.8592 17.1236 18.2734 17.1236ZM10.4912 4.49374C11.0433 4.49379 11.491 4.94169 11.4912 5.49374V10.0035C11.4912 10.4177 11.1554 10.7535 10.7412 10.7535C10.3271 10.7534 9.99124 10.4176 9.99121 10.0035V5.99374H5.03125V17.1197H6.77539C7.18946 17.1197 7.52515 17.4557 7.52539 17.8697C7.52539 18.2839 7.1896 18.6197 6.77539 18.6197H2.77539C2.36129 18.6196 2.02539 18.2839 2.02539 17.8697C2.02563 17.4558 2.36144 17.1199 2.77539 17.1197H3.53125V5.24374C3.53148 4.82981 3.86729 4.49388 4.28125 4.49374H10.4912ZM12.7773 12.6041C12.5434 12.6042 12.3224 12.7139 12.1807 12.9L10.5107 15.0963C10.581 15.0897 10.6527 15.0865 10.7246 15.0865H19.7246C19.7934 15.0865 19.8615 15.0892 19.9287 15.0953L18.2393 12.8971C18.0974 12.7127 17.8771 12.6043 17.6445 12.6041H12.7773ZM7.55469 11.1109C7.9689 11.1109 8.30469 11.4467 8.30469 11.8609V12.4605C8.30465 12.8747 7.96888 13.2105 7.55469 13.2105C7.14061 13.2104 6.80472 12.8746 6.80469 12.4605V11.8609C6.80469 11.4468 7.14059 11.1111 7.55469 11.1109ZM7.55469 7.50058C7.9689 7.50058 8.30469 7.83637 8.30469 8.25058V8.85019C8.30462 9.26435 7.96886 9.60019 7.55469 9.60019C7.14063 9.60006 6.80475 9.26427 6.80469 8.85019V8.25058C6.80469 7.83645 7.14059 7.50071 7.55469 7.50058ZM15.8203 2.22714C16.1138 1.93508 16.5887 1.93575 16.8809 2.2291L19.082 4.44199H21.21C21.624 4.44211 21.9598 4.77801 21.96 5.19199C21.9598 5.60595 21.6239 5.94186 21.21 5.94199H19.0703L16.8232 8.17734C16.5296 8.46911 16.0547 8.46788 15.7627 8.17441C15.4708 7.88091 15.4724 7.40603 15.7656 7.11386L16.9434 5.94199H15.1846C14.9858 5.94189 14.7949 5.86281 14.6543 5.72226L13.0879 4.15683C12.7952 3.86411 12.7955 3.38922 13.0879 3.09628C13.3808 2.80339 13.8555 2.80339 14.1484 3.09628L15.4951 4.44199H16.9658L15.8174 3.28769C15.5255 2.99428 15.5274 2.51933 15.8203 2.22714Z" fill="#676767"/>
</svg>
