<svg width="24" height="24" viewBox="0 0 24 24" fill="none" xmlns="http://www.w3.org/2000/svg">
<path fill-rule="evenodd" clip-rule="evenodd" d="M17.6874 11.111C18.3859 11.1111 19.0457 11.4363 19.4716 11.9899L21.5516 14.695C21.8536 15.088 22.0173 15.5715 22.0175 16.0671V18.3786C22.0171 19.6116 21.0252 20.6116 19.7958 20.6267V21.2487C19.7955 21.6627 19.4598 21.9987 19.0458 21.9987C18.6318 21.9986 18.296 21.6626 18.2958 21.2487V20.6286H12.287V21.2487C12.2867 21.6627 11.951 21.9987 11.537 21.9987C11.1232 21.9985 10.7872 21.6626 10.787 21.2487V20.6286H10.7675C9.52515 20.6285 8.51781 19.6209 8.51746 18.3786V16.0622C8.51762 15.5708 8.67916 15.0921 8.97644 14.7009L11.0292 11.9997C11.4545 11.4404 12.1175 11.1113 12.8202 11.111H17.6874ZM12.2216 17.3786C11.8075 17.3786 11.4717 17.7146 11.4716 18.1286C11.4719 18.5425 11.8076 18.8786 12.2216 18.8786C12.6355 18.8786 12.9712 18.5425 12.9716 18.1286C12.9714 17.7146 12.6357 17.3786 12.2216 17.3786ZM18.3163 17.3786C17.9023 17.3787 17.5665 17.7146 17.5663 18.1286C17.5667 18.5424 17.9024 18.8785 18.3163 18.8786C18.7303 18.8786 19.0659 18.5425 19.0663 18.1286C19.0661 17.7146 18.7304 17.3786 18.3163 17.3786ZM12.8202 12.611C12.5863 12.6113 12.3652 12.7208 12.2235 12.9069L10.1708 15.6081C10.1661 15.6144 10.1626 15.6222 10.1581 15.6286H20.3739C20.3698 15.6229 20.3665 15.6157 20.3622 15.6101L18.2821 12.904C18.1401 12.7197 17.92 12.6111 17.6874 12.611H12.8202Z"/>
<path d="M7.65515 18.1374H2.71667C2.37172 18.1372 2.09179 17.8574 2.09167 17.5124C2.09167 17.1673 2.37165 16.8876 2.71667 16.8874H7.65515V18.1374Z"/>
<path fill-rule="evenodd" clip-rule="evenodd" d="M10.5868 4.50069C11.139 4.50069 11.5867 4.94849 11.5868 5.50069V9.42256C11.5867 9.60624 11.5256 9.78508 11.412 9.9294L7.83386 14.6208C7.71825 14.7678 7.65468 14.9494 7.65417 15.1364L7.65222 15.8855H3.57507L3.57605 5.50069C3.57622 4.94861 4.02398 4.50081 4.57605 4.50069H10.5868ZM7.58093 10.0964C7.23576 10.0964 6.95496 10.3762 6.95496 10.7214V11.9714C6.95517 12.3164 7.23589 12.5964 7.58093 12.5964C7.92575 12.5961 8.20572 12.3162 8.20593 11.9714V10.7214C8.20593 10.3764 7.92589 10.0967 7.58093 10.0964ZM7.58093 6.48604C7.23576 6.48605 6.95496 6.76587 6.95496 7.11104V8.36104C6.95517 8.70603 7.23589 8.98603 7.58093 8.98604C7.92575 8.98578 8.20572 8.70587 8.20593 8.36104V7.11104C8.20593 6.76602 7.92589 6.4863 7.58093 6.48604Z"/>
<path d="M15.8641 2.23311C16.1576 1.94157 16.6326 1.94217 16.9247 2.23506L19.1259 4.44795H21.2538C21.6675 4.44815 22.0032 4.78434 22.0038 5.19795C22.0037 5.61195 21.6678 5.94775 21.2538 5.94795H19.1141L16.8671 8.1833C16.5734 8.47522 16.0986 8.47391 15.8065 8.18037C15.5148 7.8868 15.5162 7.41188 15.8094 7.11983L16.9872 5.94795H15.2284C15.0296 5.94788 14.8387 5.86881 14.6981 5.72823L13.1317 4.1628C12.8393 3.87 12.8393 3.39507 13.1317 3.10225C13.4245 2.80988 13.8995 2.80981 14.1923 3.10225L15.5389 4.44795H17.0096L15.8612 3.29366C15.5696 3.00017 15.5711 2.52518 15.8641 2.23311Z"/>
</svg>
