<svg width="24" height="24" viewBox="0 0 24 24" fill="none" xmlns="http://www.w3.org/2000/svg">
<path d="M9.27539 16.3712H21.2754V18.3712C21.2754 19.1996 20.6038 19.8712 19.7754 19.8712H10.7754C9.94696 19.8712 9.27539 19.1996 9.27539 18.3712V16.3712Z" fill="#33353C" stroke="#33353C" stroke-width="1.5" stroke-linecap="round" stroke-linejoin="round"/>
<path d="M11.6344 12.4465C11.9181 12.0734 12.3599 11.8542 12.8286 11.8542H17.6953C18.1611 11.8542 18.6005 12.0707 18.8845 12.44L20.9646 15.1457C21.1661 15.4079 21.2754 15.7293 21.2754 16.06V18.3542C21.2754 19.1827 20.6038 19.8542 19.7754 19.8542H10.7754C9.94696 19.8542 9.27539 19.1827 9.27539 18.3542V16.0554C9.27539 15.7275 9.38281 15.4087 9.58122 15.1477L11.6344 12.4465Z" stroke="#33353C" stroke-width="1.5" stroke-linecap="round" stroke-linejoin="round"/>
<path d="M2.72467 16.8801C2.3795 16.8801 2.09967 17.1599 2.09967 17.5051C2.09967 17.8503 2.3795 18.1301 2.72467 18.1301V17.5051V16.8801ZM7.03809 18.1301H7.66309V16.8801H7.03809V17.5051V18.1301ZM2.72467 17.5051V18.1301H7.03809V17.5051V16.8801H2.72467V17.5051Z" fill="#33353C"/>
<path d="M10.8442 5.49432L10.8336 9.43642C10.8336 9.45213 10.8284 9.46739 10.8188 9.47987L7.24643 14.145C7.03033 14.4272 6.91286 14.7725 6.91207 15.128H4.33276L4.33395 5.49362C4.33397 5.35556 4.44589 5.24365 4.58395 5.24365H10.5942C10.7325 5.24365 10.8445 5.35599 10.8442 5.49432Z" fill="#33353C" stroke="#33353C" stroke-width="1.5" stroke-linecap="round"/>
<path d="M13.6697 3.62571L15.2357 5.19174H21.2612M16.401 2.75781L18.817 5.18601L16.3458 7.6451" stroke="#33353C" stroke-width="1.5" stroke-linecap="round" stroke-linejoin="round"/>
<path d="M11.5452 21.2422L11.5452 20.0466" stroke="#33353C" stroke-width="1.5" stroke-linecap="round" stroke-linejoin="round"/>
<path d="M19.0537 21.2422L19.0537 20.0466" stroke="#33353C" stroke-width="1.5" stroke-linecap="round" stroke-linejoin="round"/>
<path d="M12.2292 18.1213L12.2292 18.1212" stroke="white" stroke-width="1.5" stroke-linecap="round" stroke-linejoin="round"/>
<path d="M18.3242 18.1213L18.3242 18.1212" stroke="white" stroke-width="1.5" stroke-linecap="round" stroke-linejoin="round"/>
<path d="M7.58813 10.7139V11.9639" stroke="white" stroke-width="1.25" stroke-linecap="round" stroke-linejoin="round"/>
<path d="M7.58813 7.10358V8.35358" stroke="white" stroke-width="1.25" stroke-linecap="round" stroke-linejoin="round"/>
<path d="M17.6328 11.1041C18.3314 11.1041 18.9911 11.4293 19.417 11.983L21.4971 14.6881C21.7993 15.0812 21.9628 15.5643 21.9629 16.0602V18.3717C21.9628 19.6048 20.9708 20.6047 19.7412 20.6198V21.2418C19.7412 21.656 19.4054 21.9918 18.9912 21.9918C18.5771 21.9917 18.2413 21.6559 18.2412 21.2418V20.6217H12.2324V21.2418C12.2324 21.656 11.8966 21.9918 11.4824 21.9918C11.0685 21.9916 10.7325 21.6558 10.7324 21.2418V20.6217H10.7129C9.47045 20.6216 8.46303 19.6141 8.46289 18.3717V16.0553C8.46298 15.5637 8.6244 15.0854 8.92188 14.694L10.9746 11.9928C11.3999 11.4333 12.0629 11.1044 12.7656 11.1041H17.6328ZM12.167 17.3717C11.7528 17.3717 11.417 17.7075 11.417 18.1217C11.4172 18.5358 11.7529 18.8717 12.167 18.8717C12.5811 18.8717 12.9168 18.5358 12.917 18.1217C12.917 17.7075 12.5812 17.3717 12.167 17.3717ZM18.2617 17.3717C17.8476 17.3718 17.5117 17.7076 17.5117 18.1217C17.5119 18.5357 17.8477 18.8716 18.2617 18.8717C18.6758 18.8717 19.0115 18.5358 19.0117 18.1217C19.0117 17.7075 18.6759 17.3717 18.2617 17.3717ZM7.60059 18.1305H2.66211C2.31712 18.1303 2.03719 17.8505 2.03711 17.5055C2.03711 17.1604 2.31707 16.8807 2.66211 16.8805H7.60059V18.1305ZM10.5322 4.49377C11.0844 4.49377 11.5321 4.94157 11.5322 5.49377V9.41565C11.5322 9.59935 11.471 9.77815 11.3574 9.92249L7.7793 14.6139C7.66366 14.7609 7.60012 14.9425 7.59961 15.1295L7.59766 15.8785H3.52051L3.52148 5.49377C3.52165 4.94169 3.96941 4.49389 4.52148 4.49377H10.5322ZM12.7656 12.6041C12.5316 12.6044 12.3106 12.7138 12.1689 12.9L10.1162 15.6012C10.1114 15.6075 10.1081 15.6152 10.1035 15.6217H20.3193C20.3152 15.6159 20.312 15.6088 20.3076 15.6031L18.2275 12.8971C18.0856 12.7127 17.8656 12.6041 17.6328 12.6041H12.7656ZM7.52637 10.0895C7.18119 10.0895 6.90137 10.3693 6.90137 10.7145V11.9645C6.90154 12.3095 7.1813 12.5895 7.52637 12.5895C7.87121 12.5892 8.15119 12.3093 8.15137 11.9645V10.7145C8.15137 10.3695 7.87132 10.0897 7.52637 10.0895ZM7.52637 6.47913C7.18119 6.47913 6.90137 6.75895 6.90137 7.10413V8.35413C6.90154 8.69916 7.1813 8.97913 7.52637 8.97913C7.87121 8.97886 8.15119 8.69899 8.15137 8.35413V7.10413C8.15137 6.75911 7.87132 6.47939 7.52637 6.47913ZM15.8096 2.22717C16.1031 1.93511 16.5779 1.93578 16.8701 2.22913L19.0713 4.44202H21.1992C21.6132 4.44214 21.949 4.77804 21.9492 5.19202C21.949 5.60597 21.6132 5.94189 21.1992 5.94202H19.0596L16.8125 8.17737C16.5189 8.46921 16.044 8.46782 15.752 8.17444C15.46 7.8809 15.4616 7.40605 15.7549 7.11389L16.9326 5.94202H15.1738C14.975 5.94198 14.7842 5.86282 14.6436 5.72229L13.0771 4.15686C12.7844 3.8641 12.7846 3.38924 13.0771 3.09631C13.37 2.80342 13.8448 2.80342 14.1377 3.09631L15.4844 4.44202H16.9551L15.8066 3.28772C15.5147 2.99427 15.5165 2.51936 15.8096 2.22717Z" fill="#676767"/>
</svg>
