<svg>
<path fill-rule="evenodd" clip-rule="evenodd" d="M12 22.5C17.799 22.5 22.5 17.799 22.5 12C22.5 6.20101 17.799 1.5 12 1.5C6.20101 1.5 1.5 6.20101 1.5 12C1.5 17.799 6.20101 22.5 12 22.5ZM21 12C21 16.9706 16.9706 21 12 21C7.02944 21 3 16.9706 3 12C3 7.02944 7.02944 3 12 3C16.9706 3 21 7.02944 21 12ZM15.5 8.5C15.5 6.567 13.933 5 12 5C10.067 5 8.5 6.567 8.5 8.5C8.5 10.433 10.067 12 12 12C13.933 12 15.5 10.433 15.5 8.5ZM10 8.5C10 7.39543 10.8954 6.5 12 6.5C13.1046 6.5 14 7.39543 14 8.5C14 9.60457 13.1046 10.5 12 10.5C10.8954 10.5 10 9.60457 10 8.5ZM16.4697 16.6014L16.4565 16.5882L16.4475 16.5793C13.9772 14.1329 9.99151 14.1403 7.53039 16.6014C7.39609 16.7281 7.21481 16.8055 7.01562 16.8055C6.60141 16.8055 6.26562 16.4697 6.26562 16.0555C6.26562 15.8563 6.34327 15.6753 6.46995 15.541L6.48166 15.5288L6.49224 15.5183C9.54832 12.4864 14.4836 12.4939 17.5304 15.5407C17.6548 15.6746 17.7305 15.8544 17.7305 16.0516C17.7305 16.4658 17.3947 16.8016 16.9805 16.8016C16.7833 16.8016 16.6036 16.7258 16.4697 16.6014Z"/>
</svg>
