<svg>
  <title>iconTitle</title>
  <desc>iconDesc</desc>
  <style></style>
  <path d="M18.2758541,21.25 L6.5,21.25 C6.08578644,21.25 5.75,20.9142136 5.75,20.5 C5.75,20.1203042 6.03215388,19.806509 6.39822944,19.7568466 L6.5,19.75 L7.0325616,19.7506796 C6.02293928,16.95808 5.98786802,14.2773034 6.94061026,11.7366574 C7.08605035,11.3488172 7.51835948,11.152313 7.90619972,11.2977531 C8.29403997,11.4431932 8.49054412,11.8755023 8.34510403,12.2633426 C7.46602081,14.6075645 7.55854542,17.0917072 8.63873768,19.7500492 L11.0357389,19.75 L11.8047087,18.2135315 C12.1845873,17.0438847 12.2029568,15.8991194 12.0065328,15.5782407 L11.9696699,15.5303301 C11.8950456,15.4557057 11.045736,15.4557057 9.6470871,15.7354355 C9.08240305,15.8483723 8.60638239,15.3091446 8.78848753,14.7628292 C9.41679532,12.8779058 10.5009837,11.7126669 11.9936755,11.362163 L12.199752,11.319426 L12.1687732,11.1594548 C11.9607897,10.2304365 11.3436779,9.79903167 10.2061627,9.75396513 L10,9.75 L6,9.75 C5.40097846,9.75 5.04368491,9.0823909 5.37596228,8.58397485 C6.01830878,7.6204551 6.67782669,6.92126604 7.36997566,6.49372826 C8.15711202,4.05132734 9.73170138,2.75 12,2.75 C14.2944904,2.75 16.1270799,4.41599046 16.7276069,6.81809828 C16.9986943,7.90244793 17.0654444,10.0823467 16.9370114,13.4097275 L16.8823595,14.6572456 L16.8366029,15.5442693 L16.7569781,16.911043 C16.7518927,16.9932877 16.749937,17.0756951 16.7511154,17.1580884 C16.7766647,18.9447478 17.1786705,19.6873955 17.903615,19.746181 L18,19.75 L18.2754822,19.75 C18.6777902,19.7637495 19,20.0942467 19,20.5 C19,20.8796958 18.7178461,21.193491 18.3517706,21.2431534 L18.2757389,21.248 L18.2758541,21.25 L6.5,21.25 L18.2758541,21.25 Z M12,4.25 C10.4247897,4.25 9.38681466,5.10309575 8.79305591,6.96768724 L8.7080952,7.24719115 L8.7080952,7.24719115 L8.68145578,7.31348975 L8.68145578,7.31348975 L8.64610742,7.38118395 L8.64610742,7.38118395 L8.61925927,7.42334626 C8.60635339,7.44234401 8.59264745,7.4605263 8.57819874,7.4779857 L8.52545182,7.53544736 L8.52545182,7.53544736 L8.43633358,7.61004628 L8.43633358,7.61004628 L8.3354102,7.67082039 C8.13612725,7.77046186 7.93050517,7.91371143 7.71974537,8.101138 L7.56073097,8.25 L10,8.25 C12.4142136,8.25 13.75,9.58578644 13.75,12 C13.75,12.4142136 13.4142136,12.75 13,12.75 C12.0437488,12.75 11.3063575,13.1581634 10.7553986,14.0395483 C11.8692987,13.9209562 12.5984513,14.0377911 13.0303301,14.4696699 C13.7583582,15.1976981 13.7914504,16.8346667 13.2871884,18.4992765 L13.2115125,18.7371708 L13.1708204,18.8354102 L12.7137389,19.75 L15.7227091,19.75 C15.4554065,19.1624883 15.3026043,18.4130589 15.2614667,17.5207951 L15.2512688,17.1795381 C15.2495465,17.0591176 15.2524048,16.9386744 15.2598374,16.8184699 L15.3592716,15.0742331 C15.5745676,10.913534 15.5408292,8.25564593 15.2723931,7.18190172 C14.8288024,5.40753895 13.5555096,4.25 12,4.25 Z M11.5,5.5 C11.9142136,5.5 12.25,5.83578644 12.25,6.25 C12.25,6.66421356 11.9142136,7 11.5,7 C11.0857864,7 10.75,6.66421356 10.75,6.25 C10.75,5.83578644 11.0857864,5.5 11.5,5.5 Z"/>
</svg>
