<svg>
<path fill-rule="evenodd" clip-rule="evenodd" d="M8.27198 13.5792C8.61707 13.6717 8.88662 13.9412 8.97909 14.2863L9.72623 17.0747C10.1247 18.5618 11.9836 19.0599 13.0723 17.9713L14.9914 16.0522L18.6404 19.7012C18.9333 19.9941 19.4081 19.9941 19.701 19.7012C19.9939 19.4083 19.9939 18.9334 19.701 18.6405L16.052 14.9916L17.9713 13.0723C19.0599 11.9836 18.5618 10.1247 17.0747 9.72623L14.2863 8.97909C13.9412 8.88662 13.6717 8.61707 13.5792 8.27198L12.8321 5.48359C12.4336 3.99645 10.5747 3.49835 9.486 4.58702L4.58702 9.486C3.49835 10.5747 3.99645 12.4336 5.48359 12.8321L8.27198 13.5792Z" />
</svg>
