<svg xmlns="http://www.w3.org/2000/svg" width="24" height="24" viewBox="0 0 24 24">
  <path fill="#626B79" d="M12,2 C15.5,2 19,5 19,9 C19,11.5057302 16.9398069,15.7037619 12.8194206,21.5940951 C12.7523769,21.689938 12.6690389,21.773276 12.573196,21.8403197 C12.1554502,22.1325398 11.5920474,22.0610871 11.2588496,21.6924163 L11.1805636,21.594095 L10.8964483,21.1858802 C6.96548275,15.5094164 5,11.4474564 5,9 C5,5 8.5,2 12,2 Z M12,7 C10.8954305,7 10,7.8954305 10,9 C10,10.1045695 10.8954305,11 12,11 C13.1045695,11 14,10.1045695 14,9 C14,7.8954305 13.1045695,7 12,7 Z"/>
</svg>
