<svg>
<path d="M10.0449 3.34475C10.0646 2.93101 10.416 2.61155 10.8297 2.63123L10.8805 2.63384C11.2941 2.65656 11.6109 3.01027 11.5882 3.42385C11.5655 3.83744 11.2118 4.1543 10.7982 4.13158L10.7584 4.12954C10.3447 4.10986 10.0252 3.7585 10.0449 3.34475ZM8.82783 3.56563C9.0053 3.9399 8.84575 4.38717 8.47148 4.56464L8.43682 4.58127C8.06414 4.76206 7.61547 4.60651 7.43467 4.23383C7.25388 3.86116 7.40943 3.41248 7.78211 3.23169L7.82882 3.20928C8.20309 3.03182 8.65036 3.19136 8.82783 3.56563ZM12.777 3.75143C12.9684 3.38405 13.4213 3.24135 13.7887 3.43268L13.8336 3.45628C14.1995 3.65027 14.339 4.10422 14.145 4.4702C13.951 4.83617 13.497 4.97559 13.131 4.7816L13.0958 4.76306C12.7284 4.57173 12.5857 4.1188 12.777 3.75143ZM6.50805 5.0567C6.85101 5.28897 6.94075 5.75529 6.70849 6.09825L6.69725 6.11492C6.46635 6.45881 6.00039 6.55041 5.65651 6.31951C5.31262 6.08861 5.22102 5.62265 5.45192 5.27877L5.4665 5.25714C5.69876 4.91418 6.16508 4.82444 6.50805 5.0567ZM15.0846 5.27702C15.4314 5.05057 15.8961 5.14816 16.1226 5.49499L16.1513 5.53944C16.3742 5.88853 16.272 6.35226 15.9229 6.57522C15.5738 6.79817 15.1101 6.69592 14.8871 6.34684L14.8666 6.31505C14.6401 5.96821 14.7377 5.50348 15.0846 5.27702ZM21.1049 12.2909C21.1049 9.50204 18.6646 7.41037 16.2244 7.41037C13.7841 7.41037 11.3438 9.50204 11.3438 12.2909C11.3438 13.9973 12.7142 16.8294 15.4549 20.7872L15.653 21.0718L15.7076 21.1404C15.9399 21.3974 16.3327 21.4472 16.624 21.2435C16.6908 21.1967 16.7489 21.1386 16.7957 21.0718C19.6685 16.9649 21.1049 14.038 21.1049 12.2909ZM14.83 12.2909C14.83 11.5208 15.4543 10.8965 16.2244 10.8965C16.9945 10.8965 17.6188 11.5208 17.6188 12.2909C17.6188 13.0611 16.9945 13.6854 16.2244 13.6854C15.4543 13.6854 14.83 13.0611 14.83 12.2909ZM4.6347 10.7041C5.59547 10.7041 6.37432 9.92528 6.37432 8.96451C6.37432 8.00375 5.59547 7.22489 4.6347 7.22489C3.67394 7.22489 2.89508 8.00375 2.89508 8.96451C2.89508 9.92528 3.67394 10.7041 4.6347 10.7041Z"/>
</svg>
