<svg>
<path fill-rule="evenodd" clip-rule="evenodd" d="M8.47909 13.7863C8.38662 13.4412 8.11707 13.1717 7.77198 13.0792L4.98359 12.3321C3.49645 11.9336 2.99835 10.0747 4.08702 8.986L8.986 4.08702C10.0747 2.99835 11.9336 3.49645 12.3321 4.98359L13.0792 7.77198C13.1717 8.11707 13.4412 8.38662 13.7863 8.47909L16.5747 9.22623C18.0618 9.62471 18.5599 11.4836 17.4713 12.5723L15.7289 14.3147L20.0133 18.5992C20.4039 18.9897 20.4039 19.6228 20.0133 20.0134C19.6228 20.4039 18.9896 20.4039 18.5991 20.0134L14.3147 15.7289L12.5723 17.4713C11.4836 18.5599 9.62471 18.0618 9.22623 16.5747L8.47909 13.7863ZM8.28962 11.1474L5.50123 10.4002L10.4002 5.50123L11.1474 8.28962C11.4248 9.32489 12.2334 10.1335 13.2687 10.4109L16.0571 11.1581L11.1581 16.0571L10.4109 13.2687C10.1335 12.2334 9.32489 11.4248 8.28962 11.1474Z"/>
</svg>
