<svg>
<path fill-rule="evenodd" clip-rule="evenodd" d="M10.1499 3.21438C10.1696 2.80063 10.5209 2.48118 10.9347 2.50086L10.9855 2.50347C11.3991 2.52619 11.7159 2.87989 11.6932 3.29348C11.6705 3.70707 11.3168 4.02393 10.9032 4.00121L10.8634 3.99917C10.4497 3.97949 10.1302 3.62813 10.1499 3.21438ZM8.93281 3.43526C9.11028 3.80953 8.95074 4.2568 8.57647 4.43427L8.5418 4.4509C8.16912 4.63169 7.72045 4.47614 7.53966 4.10346C7.35886 3.73079 7.51441 3.28211 7.88709 3.10132L7.9338 3.07891C8.30807 2.90145 8.75535 3.06099 8.93281 3.43526ZM12.882 3.62106C13.0733 3.25368 13.5263 3.11098 13.8936 3.30231L13.9385 3.32591C14.3045 3.5199 14.4439 3.97385 14.2499 4.33983C14.056 4.7058 13.602 4.84522 13.236 4.65123L13.2007 4.63269C12.8334 4.44135 12.6907 3.98843 12.882 3.62106ZM6.61303 4.92633C6.95599 5.1586 7.04573 5.62492 6.81347 5.96788L6.80223 5.98455C6.57133 6.32844 6.10538 6.42003 5.76149 6.18914C5.4176 5.95824 5.326 5.49228 5.5569 5.1484L5.57148 5.12677C5.80375 4.78381 6.27006 4.69407 6.61303 4.92633ZM15.1895 5.14665C15.5364 4.9202 16.0011 5.01779 16.2276 5.36462L16.2563 5.40907C16.4792 5.75816 16.377 6.22189 16.0279 6.44485C15.6788 6.6678 15.2151 6.56555 14.9921 6.21646L14.9716 6.18468C14.7451 5.83784 14.8427 5.37311 15.1895 5.14665Z"/>
<path fill-rule="evenodd" clip-rule="evenodd" d="M19.7098 12.1605C19.7098 10.2682 18.0109 8.77998 16.3293 8.77998C14.6476 8.77998 12.9487 10.2682 12.9487 12.1605C12.9487 12.6689 13.1705 13.5548 13.8268 14.9111C14.3897 16.0745 15.2185 17.4765 16.3293 19.1243C17.4094 17.522 18.2236 16.1511 18.7859 15.0052C19.4761 13.5989 19.7098 12.6829 19.7098 12.1605ZM15.5599 20.6568C12.8191 16.699 11.4487 13.867 11.4487 12.1605C11.4487 9.37165 13.889 7.27998 16.3293 7.27998C18.7696 7.27998 21.2098 9.37165 21.2098 12.1605C21.2098 13.9076 19.7734 16.8345 16.9006 20.9414C16.8539 21.0082 16.7958 21.0663 16.7289 21.1131C16.4377 21.3168 16.0449 21.267 15.8125 21.01L15.758 20.9414L15.5599 20.6568Z"/>
<path d="M14.9349 12.1605C14.9349 11.3904 15.5593 10.7661 16.3294 10.7661C17.0995 10.7661 17.7238 11.3904 17.7238 12.1605C17.7238 12.9306 17.0995 13.555 16.3294 13.555C15.5593 13.555 14.9349 12.9306 14.9349 12.1605Z"/>
<path d="M6.47924 8.83414C6.47924 9.79491 5.70039 10.5738 4.73962 10.5738C3.77885 10.5738 3 9.79491 3 8.83414C3 7.87338 3.77885 7.09452 4.73962 7.09452C5.70039 7.09452 6.47924 7.87338 6.47924 8.83414Z"/>
</svg>
