<svg>
<path d="M7.77198 13.0792C8.11707 13.1717 8.38662 13.4412 8.47909 13.7863L9.22623 16.5747C9.62471 18.0618 11.4836 18.5599 12.5723 17.4713L14.3147 15.7289L18.5991 20.0134C18.9896 20.4039 19.6228 20.4039 20.0133 20.0134C20.4039 19.6228 20.4039 18.9897 20.0133 18.5992L15.7289 14.3147L17.4713 12.5723C18.5599 11.4836 18.0618 9.62471 16.5747 9.22623L13.7863 8.47909C13.4412 8.38662 13.1717 8.11707 13.0792 7.77198L12.3321 4.98359C11.9336 3.49645 10.0747 2.99835 8.986 4.08702L4.08702 8.986C2.99835 10.0747 3.49645 11.9336 4.98359 12.3321L7.77198 13.0792Z"/>
</svg>
