<svg width="24" height="24" viewBox="0 0 24 24" xmlns="http://www.w3.org/2000/svg">
<path fill-rule="evenodd" clip-rule="evenodd" d="M8.66021 12.1303L5.87182 11.3832C5.50004 11.2836 5.37551 10.8188 5.64768 10.5467L10.5467 5.64768C10.8188 5.37551 11.2836 5.50003 11.3832 5.87182L12.1303 8.66021C12.3615 9.52294 13.0354 10.1968 13.8981 10.428L16.6865 11.1751C17.0583 11.2747 17.1828 11.7395 16.9106 12.0116L12.0116 16.9106C11.7395 17.1828 11.2747 17.0583 11.1751 16.6865L10.428 13.8981C10.1968 13.0354 9.52294 12.3615 8.66021 12.1303ZM8.97909 14.2863C8.88662 13.9412 8.61707 13.6717 8.27198 13.5792L5.48359 12.8321C3.99645 12.4336 3.49835 10.5747 4.58702 9.486L9.486 4.58702C10.5747 3.49835 12.4336 3.99645 12.8321 5.48359L13.5792 8.27198C13.6717 8.61707 13.9412 8.88662 14.2863 8.97909L17.0747 9.72623C18.5618 10.1247 19.0599 11.9836 17.9713 13.0723L16.052 14.9916L19.701 18.6405C19.9939 18.9334 19.9939 19.4083 19.701 19.7012C19.4081 19.9941 18.9333 19.9941 18.6404 19.7012L14.9914 16.0522L13.0723 17.9713C11.9836 19.0599 10.1247 18.5618 9.72623 17.0747L8.97909 14.2863Z"/>
</svg>
