<svg xmlns="http://www.w3.org/2000/svg" width="24" height="24" viewBox="0 0 24 24">
  <path fill="#626B79" d="M12,2 C15.5,2 19,5 19,9 C19,11.5057302 16.9398069,15.7037619 12.8194206,21.5940951 C12.7523769,21.689938 12.6690389,21.773276 12.573196,21.8403197 C12.1554502,22.1325398 11.5920474,22.0610871 11.2588496,21.6924163 L11.1805636,21.594095 L10.8964483,21.1858802 C6.96548275,15.5094164 5,11.4474564 5,9 C5,5 8.5,2 12,2 Z M12,3.5 C9.1375,3.5 6.5,6.01190476 6.5,9 C6.5,10.9154054 8.14777585,14.4372596 11.4626984,19.3560032 L11.9999645,20.1442248 C15.6735369,14.8119007 17.5,11.0190332 17.5,9 C17.5,6.01190476 14.8625,3.5 12,3.5 Z M12,6 C13.6568542,6 15,7.34314575 15,9 C15,10.6568542 13.6568542,12 12,12 C10.3431458,12 9,10.6568542 9,9 C9,7.34314575 10.3431458,6 12,6 Z M12,7.5 C11.1715729,7.5 10.5,8.17157288 10.5,9 C10.5,9.82842712 11.1715729,10.5 12,10.5 C12.8284271,10.5 13.5,9.82842712 13.5,9 C13.5,8.17157288 12.8284271,7.5 12,7.5 Z"/>
</svg>
