<svg>
  <path d="M18.8011454,9.70114537 L15.3011454,9.70114537 L11.0611454,3.72614537 C10.8261454,3.39714537 10.4461454,3.20114537 10.0421454,3.20114537 L8.30114537,3.20114537 L10.8011454,9.95114537 L6.55114537,10.2011454 L4.95014537,8.37114537 C4.85614537,8.26314537 4.71814537,8.20114537 4.57414537,8.20114537 L3.05114537,8.20114537 L4.39514537,11.4501454 L3.05114537,14.7011454 L4.57514537,14.7011454 C4.71914537,14.7011454 4.85514537,14.6391454 4.94914537,14.5311454 L6.55114537,12.7011454 L10.8011454,12.9511454 L8.30114537,19.7011454 L10.0421454,19.7011454 C10.4461454,19.7011454 10.8261454,19.5051454 11.0581454,19.1791454 L15.3011454,13.2011454 L18.8011454,13.2011454 C20.0511454,13.2011454 22.0511454,12.7961454 22.0511454,11.4511454 C22.0511454,9.95114537 20.0511454,9.70114537 18.8011454,9.70114537" transform="rotate(-45 12.551 11.451)"/>
</svg>
