<svg width="24" height="24" viewBox="0 0 24 24" xmlns="http://www.w3.org/2000/svg">
  <path d="M18.25,10.25 L14.75,10.25 L10.51,4.275 C10.275,3.946 9.895,3.75 9.491,3.75 L7.75,3.75 L10.25,10.5 L6,10.75 L4.399,8.92 C4.305,8.812 4.167,8.75 4.023,8.75 L2.5,8.75 L3.844,11.999 L2.5,15.25 L4.024,15.25 C4.168,15.25 4.304,15.188 4.398,15.08 L6,13.25 L10.25,13.5 L7.75,20.25 L9.491,20.25 C9.895,20.25 10.275,20.054 10.507,19.728 L14.75,13.75 L18.25,13.75 C19.5,13.75 21.5,13.345 21.5,12 C21.5,10.5 19.5,10.25 18.25,10.25" transform="rotate(-90 12 12)"/>
</svg>
