<svg>
  <path d="M9.23354963,2.75 C9.98031886,2.75 10.6861887,3.08571598 11.15846,3.65489941 L11.2715496,3.802 L15.1405496,9.25 L17.8932763,9.25096919 L18.1932008,9.25949163 C19.7867581,9.32885121 22.0005496,9.81814706 22.0005496,12 C22.0005496,13.2201081 21.3019024,14.6693119 18.0292677,14.746756 L17.7505496,14.75 L15.1405496,14.75 L11.2715496,20.197 C10.8395496,20.8053077 10.1578928,21.1878166 9.41927835,21.2430646 L9.23354963,21.25 L8.50054963,21.25 C8.00554963,21.25 7.54354963,21.007 7.26354963,20.599 C7.01466074,20.2372222 6.93880889,19.7869506 7.04933838,19.3668793 L7.09954963,19.211 L8.85454963,14.649 L6.42454963,14.534 L5.80254963,15.28 C5.45874963,15.6922 4.97157963,15.94564 4.44309963,15.992206 L4.26554963,16 L3.50054963,16 C3.00254963,16 2.53754963,15.753 2.25754963,15.341 C2.00954963,14.9747778 1.93774716,14.5200617 2.0547842,14.0990576 L2.10754963,13.943 L2.88454963,11.999 L2.10754963,10.058 C1.92254963,9.595 1.97854963,9.071 2.25754963,8.659 C2.50954963,8.2882 2.91139963,8.05105 3.35229163,8.007328 L3.50054963,8 L4.26554963,8 C4.80194963,8 5.30837963,8.21222 5.68277963,8.588546 L5.80254963,8.72 L6.42454963,9.466 L8.85454963,9.351 L7.09954963,4.789 C6.92254963,4.327 6.98354963,3.808 7.26354963,3.401 C7.51554963,3.0338 7.91496963,2.80025 8.35318863,2.757212 L8.50054963,2.75 L9.23354963,2.75 Z M9.23354963,4.25 L8.50054963,4.25 L11.0005496,10.75 L5.75054963,11 L4.65054963,9.68 C4.57374963,9.5888 4.46878963,9.52832 4.35358963,9.507776 L4.26554963,9.5 L3.50054963,9.5 L4.50054963,11.999 L3.50054963,14.5 L4.26554963,14.5 C4.38474963,14.5 4.49818963,14.45776 4.58794963,14.382496 L4.65054963,14.32 L5.75054963,13 L11.0005496,13.25 L8.50054963,19.75 L9.23354963,19.75 C9.51704963,19.75 9.78523713,19.6297969 9.97312971,19.4228867 L10.0485496,19.329 L14.3665496,13.25 L17.7505496,13.25 C20.050283,13.25 20.4527363,12.6288978 20.4961757,12.1094833 L20.5005496,12 C20.5005496,11.7003636 20.5005496,10.80645 17.9930504,10.7525485 L17.7505496,10.75 L14.3665496,10.75 L10.0485496,4.671 C9.88492463,4.44 9.63172151,4.29092187 9.35392268,4.25726172 L9.23354963,4.25 Z"/>
</svg>
