<svg>
  <path d="M19.571537,4.42873786 L19.7118323,4.57863646 C20.4846417,5.46285947 20.8394884,6.94184811 18.7056664,9.17910805 L18.5108768,9.37848533 L16.6653281,11.224034 L17.7811426,17.8114408 C17.9058109,18.5470494 17.6942814,19.2995282 17.2110684,19.8608738 L17.0846424,19.9971079 L16.5663331,20.5154171 C16.2163153,20.865435 15.717805,21.0202914 15.2313155,20.9297817 C14.7941114,20.8489594 14.4181922,20.5785547 14.2004684,20.1958897 L14.1338858,20.064283 L12.1490371,15.5974895 L10.3494503,17.2344417 L10.4371316,18.2017637 C10.4854977,18.7363365 10.3202256,19.2600268 9.97946093,19.6666458 L9.85942531,19.7977038 L9.31848862,20.3386404 C8.96634945,20.6907796 8.46288942,20.8449289 7.97357153,20.7515908 C7.53382182,20.6669501 7.15764808,20.390436 6.94402264,20.0024635 L6.87897023,19.8691215 L6.05377661,17.945084 L4.13186038,17.1220117 C3.67365519,16.925436 3.34272922,16.5153141 3.24868401,16.0267033 C3.16571682,15.5917541 3.2782952,15.1456308 3.55165551,14.8045434 L3.66163437,14.6817862 L4.20257106,14.1408495 C4.58186314,13.7615574 5.09002543,13.5535195 5.62086887,13.5548814 L5.79851107,13.5631433 L6.76583314,13.6508245 L8.40278534,11.8512377 L3.9359918,9.86638901 C3.48415057,9.66486358 3.16029567,9.25474165 3.0704931,8.76895929 C2.99004007,8.33652421 3.1034565,7.8945912 3.37548213,7.55589384 L3.48485768,7.43394168 L4.00316695,6.91563241 C4.53121254,6.38758683 5.26772492,6.12584853 6.00414461,6.19437577 L6.1881269,6.21842513 L12.7762408,7.33494674 L14.6217895,5.48939804 L14.8238172,5.29275909 L15.0440662,5.09044851 C16.2262829,4.03791215 18.072814,2.93001494 19.571537,4.42873786 Z M15.8557257,6.38038635 L15.6824497,6.55005821 L13.2896003,8.94290756 L5.9378111,7.69769251 C5.65876909,7.65005119 5.37431329,7.72367869 5.15407853,7.8963108 L5.06382712,7.97629259 L4.54551785,8.49460186 L10.9094789,11.323029 L7.37394497,15.2121163 L5.66274656,15.0565528 C5.54395263,15.0463704 5.42696888,15.0778226 5.33098338,15.1447545 L5.26323123,15.2015097 L4.72229455,15.7424464 L7.19646117,16.8023994 L8.25782845,19.2779803 L8.79876514,18.7370436 C8.88305227,18.6527565 8.93339827,18.5426741 8.94364849,18.4259845 L8.94372203,18.3375283 L8.78815854,16.6263298 L12.6772458,13.0907959 L15.505673,19.454757 L16.0239822,18.9364477 C16.224447,18.7359829 16.3290878,18.4613493 16.3156403,18.1821816 L16.3025823,18.0624637 L15.0573673,10.7106745 L17.4502166,8.31782516 C19.1344507,6.63359109 18.9084507,5.9173587 18.5485163,5.52848488 L18.4660405,5.44542755 L18.4081109,5.39392262 C18.1191902,5.15504696 17.4366081,4.86603929 15.8557257,6.38038635 Z"/>
</svg>
