<svg xmlns="http://www.w3.org/2000/svg" width="24" height="24" viewBox="0 0 24 24">
  <path fill="#626B79" fill-rule="evenodd" d="M12.0002748,1.99972518 C13.2203829,1.99972518 14.6695867,2.69837237 14.7470308,5.97100712 L14.7502748,6.24972518 L14.7502748,8.85972518 L20.1972748,12.7287252 C20.8055825,13.1607252 21.1880914,13.842382 21.2433394,14.5809965 L21.2502748,14.7667252 L21.2502748,15.4997252 C21.2502748,15.9947252 21.0072748,16.4567252 20.5992748,16.7367252 C20.237497,16.9856141 19.7872254,17.0614659 19.3671541,16.9509364 L19.2112748,16.9007252 L14.6492748,15.1457252 L14.5342748,17.5757252 L15.2802748,18.1977252 C15.6924748,18.5415252 15.9459148,19.0286952 15.9924808,19.5571752 L16.0002748,19.7347252 L16.0002748,20.4997252 C16.0002748,20.9977252 15.7532748,21.4627252 15.3412748,21.7427252 C14.9750526,21.9907252 14.5203365,22.0625277 14.0993324,21.9454906 L13.9432748,21.8927252 L11.9992748,21.1157252 L10.0582748,21.8927252 C9.59527482,22.0777252 9.07127482,22.0217252 8.65927482,21.7427252 C8.28847482,21.4907252 8.05132482,21.0888752 8.00760282,20.6479832 L8.00027482,20.4997252 L8.00027482,19.7347252 C8.00027482,19.1983252 8.21249482,18.6918952 8.58882082,18.3174952 L8.72027482,18.1977252 L9.46627482,17.5757252 L9.35127482,15.1457252 L4.78927482,16.9007252 C4.32727482,17.0777252 3.80827482,17.0167252 3.40127482,16.7367252 C3.03407482,16.4847252 2.80052482,16.0853052 2.75748682,15.6470862 L2.75027482,15.4997252 L2.75027482,14.7667252 C2.75027482,14.019956 3.08599079,13.3140861 3.65517422,12.8418149 L3.80227482,12.7287252 L9.25027482,8.85972518 L9.25027482,6.24972518 C9.25027482,4.66272518 9.60727482,1.99972518 12.0002748,1.99972518 Z M12.0545286,3.50074859 L11.9015145,3.5017913 C11.5404126,3.52176375 10.8016715,3.73480324 10.7528233,6.00722442 L10.7502748,6.24972518 L10.7502748,9.63372518 L4.67127482,13.9517252 C4.44027482,14.1153502 4.29119669,14.3685533 4.25753653,14.6463521 L4.25027482,14.7667252 L4.25027482,15.4997252 L10.7502748,12.9997252 L11.0002748,18.2497252 L9.68027482,19.3497252 C9.58907482,19.4265252 9.52859482,19.5314852 9.50805082,19.6466852 L9.50027482,19.7347252 L9.50027482,20.4997252 L11.9992748,19.4997252 L14.5002748,20.4997252 L14.5002748,19.7347252 C14.5002748,19.6155252 14.4580348,19.5020852 14.3827708,19.4123252 L14.3202748,19.3497252 L13.0002748,18.2497252 L13.2502748,12.9997252 L19.7502748,15.4997252 L19.7502748,14.7667252 C19.7502748,14.4832252 19.6300717,14.2150377 19.4231615,14.0271451 L19.3292748,13.9517252 L13.2502748,9.63372518 L13.2502748,6.24972518 C13.2502748,3.86785852 12.5840159,3.52121185 12.0545286,3.50074859 Z"/>
</svg>
