<svg width="24" height="24" viewBox="0 0 24 24" fill="none" xmlns="http://www.w3.org/2000/svg">
<path fill-rule="evenodd" clip-rule="evenodd" d="M6.41721 2.41469C5.97576 2.28486 5.5 2.62287 5.5 3.11222V20.8278L5.51985 21.0668C5.62615 21.5145 6.15566 21.7599 6.58054 21.5171L22.0772 12.6618L22.2911 12.5125C22.6179 12.1933 22.5593 11.6159 22.1361 11.374L6.63454 2.51601L6.41721 2.41469ZM7.32475 1.1828L6.97746 1.02087C5.57062 0.504584 4 1.5372 4 3.11222V20.89L4.03172 21.2719C4.28144 22.7495 5.95725 23.6009 7.32475 22.8194L22.8803 13.9305L23.2224 13.6917C24.3629 12.7277 24.2488 10.8537 22.8803 10.0717L7.32475 1.1828Z" fill="#626B79"/>
</svg>
