<svg width="24" height="24" viewBox="0 0 24 24" xmlns="http://www.w3.org/2000/svg">
<path fill-rule="evenodd" clip-rule="evenodd" d="M20.995 5.58248C20.9084 4.1417 19.7125 3 18.25 3H5.75L5.58248 3.00502C4.1417 3.0916 3 4.28747 3 5.75V18.25L3.00502 18.4175C3.0916 19.8583 4.28747 21 5.75 21H18.25L18.4175 20.995C19.8583 20.9084 21 19.7125 21 18.25V5.75L20.995 5.58248ZM13.75 15.5C13.75 14.5612 12.9929 13.75 12 13.75C11.0858 13.75 10.25 14.5858 10.25 15.5C10.25 15.9142 10.5858 16.25 11 16.25H13L13.1018 16.2432C13.4678 16.1935 13.75 15.8797 13.75 15.5ZM9.24315 8.39823C9.19349 8.03215 8.8797 7.75 8.5 7.75C8.08579 7.75 7.75 8.08579 7.75 8.5V11.5L7.75685 11.6018C7.80651 11.9678 8.1203 12.25 8.5 12.25C8.91421 12.25 9.25 11.9142 9.25 11.5V8.5L9.24315 8.39823ZM16.2432 8.39823C16.1935 8.03215 15.8797 7.75 15.5 7.75C15.0858 7.75 14.75 8.08579 14.75 8.5V11.5L14.7568 11.6018C14.8065 11.9678 15.1203 12.25 15.5 12.25C15.9142 12.25 16.25 11.9142 16.25 11.5V8.5L16.2432 8.39823Z"/>
</svg>
