<svg>
  <path d="M18.25,3 C19.7125318,3 20.9084043,4.1417046 20.9949812,5.58247767 L21,5.75 L21,18.25 C21,19.7125318 19.8582954,20.9084043 18.4175223,20.9949812 L18.25,21 L5.75,21 C4.28746816,21 3.09159572,19.8582954 3.00501879,18.4175223 L3,18.25 L3,5.75 C3,4.28746816 4.1417046,3.09159572 5.58247767,3.00501879 L5.75,3 L18.25,3 Z M18.25,4.5 L5.75,4.5 C5.10279131,4.5 4.5704661,4.99187466 4.50645361,5.62219476 L4.5,5.75 L4.5,18.25 C4.5,18.8972087 4.99187466,19.4295339 5.62219476,19.4935464 L5.75,19.5 L18.25,19.5 C18.8972087,19.5 19.4295339,19.0081253 19.4935464,18.3778052 L19.5,18.25 L19.5,5.75 C19.5,5.10279131 19.0081253,4.5704661 18.3778052,4.50645361 L18.25,4.5 Z M12,13.75 C12.9928856,13.75 13.75,14.561194 13.75,15.5 C13.75,15.8796958 13.4678461,16.193491 13.1017706,16.2431534 L13,16.25 L11,16.25 C10.5857864,16.25 10.25,15.9142136 10.25,15.5 C10.25,14.5857864 11.0857864,13.75 12,13.75 Z M8.5,7.75 C8.87969577,7.75 9.19349096,8.03215388 9.24315338,8.39822944 L9.25,8.5 L9.25,11.5 C9.25,11.9142136 8.91421356,12.25 8.5,12.25 C8.12030423,12.25 7.80650904,11.9678461 7.75684662,11.6017706 L7.75,11.5 L7.75,8.5 C7.75,8.08578644 8.08578644,7.75 8.5,7.75 Z M15.5,7.75 C15.8796958,7.75 16.193491,8.03215388 16.2431534,8.39822944 L16.25,8.5 L16.25,11.5 C16.25,11.9142136 15.9142136,12.25 15.5,12.25 C15.1203042,12.25 14.806509,11.9678461 14.7568466,11.6017706 L14.75,11.5 L14.75,8.5 C14.75,8.08578644 15.0857864,7.75 15.5,7.75 Z"/>
</svg>
