<svg>
  <path fill-rule="evenodd" d="M12,2 C17.5228475,2 22,6.4771525 22,12 C22,17.5228475 17.5228475,22 12,22 C6.4771525,22 2,17.5228475 2,12 C2,6.4771525 6.4771525,2 12,2 Z M12,3.5 C16.6944204,3.5 20.5,7.30557963 20.5,12 C20.5,16.6944204 16.6944204,20.5 12,20.5 C7.30557963,20.5 3.5,16.6944204 3.5,12 C3.5,7.30557963 7.30557963,3.5 12,3.5 Z M12,7 C11.6203042,7 11.306509,7.28215388 11.2568466,7.64822944 L11.25,7.75 L11.25,11.25 L7.75,11.25 L7.64822944,11.2568466 C7.28215388,11.306509 7,11.6203042 7,12 C7,12.3796958 7.28215388,12.693491 7.64822944,12.7431534 L7.75,12.75 L11.25,12.75 L11.25,16.25 L11.2568466,16.3517706 C11.306509,16.7178461 11.6203042,17 12,17 C12.3796958,17 12.693491,16.7178461 12.7431534,16.3517706 L12.75,16.25 L12.75,12.75 L16.25,12.75 L16.3517706,12.7431534 C16.7178461,12.693491 17,12.3796958 17,12 C17,11.6203042 16.7178461,11.306509 16.3517706,11.2568466 L16.25,11.25 L12.75,11.25 L12.75,7.75 L12.7431534,7.64822944 C12.693491,7.28215388 12.3796958,7 12,7 Z"/>
</svg>
