<svg>
  <title>iconTitle</title>
  <desc>iconDesc</desc>
  <style></style>
  <path d="M11.8982294,5.00684662 L12,5 C12.3796958,5 12.693491,5.28215388 12.7431534,5.64822944 L12.75,5.75 L12.75,11.25 L18.25,11.25 C18.6296958,11.25 18.943491,11.5321539 18.9931534,11.8982294 L19,12 C19,12.3796958 18.7178461,12.693491 18.3517706,12.7431534 L18.25,12.75 L12.749,12.75 L12.75,18.25 C12.75,18.6296958 12.4678461,18.943491 12.1017706,18.9931534 L12,19 C11.6203042,19 11.306509,18.7178461 11.2568466,18.3517706 L11.25,18.25 L11.249,12.75 L5.75,12.75 C5.37030423,12.75 5.05650904,12.4678461 5.00684662,12.1017706 L5,12 C5,11.6203042 5.28215388,11.306509 5.64822944,11.2568466 L5.75,11.25 L11.25,11.25 L11.25,5.75 C11.25,5.37030423 11.5321539,5.05650904 11.8982294,5.00684662 L12,5 L11.8982294,5.00684662 Z"/>
</svg>
