<svg width="24" height="24" viewBox="0 0 24 24" xmlns="http://www.w3.org/2000/svg">
   <path fill-rule="evenodd" d="M12,2 C17.5228475,2 22,6.4771525 22,12 C22,17.5228475 17.5228475,22 12,22 C6.4771525,22 2,17.5228475 2,12 C2,6.4771525 6.4771525,2 12,2 Z M11.8982294,7.00684662 L12,7 C12.3796958,7 12.693491,7.28215388 12.7431534,7.64822944 L12.75,7.75 L12.75,11.25 L16.25,11.25 C16.6296958,11.25 16.943491,11.5321539 16.9931534,11.8982294 L17,12 C17,12.3796958 16.7178461,12.693491 16.3517706,12.7431534 L16.25,12.75 L12.75,12.75 L12.75,16.25 C12.75,16.6296958 12.4678461,16.943491 12.1017706,16.9931534 L12,17 C11.6203042,17 11.306509,16.7178461 11.2568466,16.3517706 L11.25,16.25 L11.25,12.75 L7.75,12.75 C7.37030423,12.75 7.05650904,12.4678461 7.00684662,12.1017706 L7,12 C7,11.6203042 7.28215388,11.306509 7.64822944,11.2568466 L7.75,11.25 L11.25,11.25 L11.25,7.75 C11.25,7.37030423 11.5321539,7.05650904 11.8982294,7.00684662 L12,7 L11.8982294,7.00684662 Z"/>
</svg>
