<svg width="25" height="24" viewBox="0 0 25 24" fill="none" xmlns="http://www.w3.org/2000/svg">
<path d="M9.72647 6.84326C10.1119 6.79705 10.4644 7.05158 10.5478 7.42236L10.5605 7.49756L11.1024 11.9897L11.1122 12.0356C11.1445 12.1376 11.24 12.2093 11.3505 12.2095H14.7157C15.5592 12.2098 16.283 12.8127 16.4364 13.6421L17.3896 18.8022L17.4023 18.8452C17.4384 18.9408 17.5304 19.0063 17.6356 19.0063H19.369L19.4452 19.0103C19.8231 19.0487 20.1187 19.3684 20.119 19.7563C20.119 20.1446 19.8233 20.4639 19.4452 20.5024L19.369 20.5063H17.6356C16.8445 20.5062 16.1589 19.9771 15.9501 19.2271L15.9149 19.0747L14.9608 13.9146C14.9389 13.7964 14.8359 13.7098 14.7157 13.7095H11.3505C10.5205 13.7093 9.81305 13.1285 9.64053 12.3315L9.61319 12.1694L9.07217 7.67725L9.06631 7.60107C9.0591 7.22098 9.34095 6.88981 9.72647 6.84326ZM11.6991 18.9771C12.1195 18.9771 12.4608 19.3184 12.4608 19.7388C12.4606 20.1589 12.1194 20.4995 11.6991 20.4995H7.50967C7.08944 20.4995 6.74818 20.1589 6.74795 19.7388C6.74795 19.3184 7.0893 18.9771 7.50967 18.9771H11.6991ZM5.68741 6.91748C6.07319 6.87501 6.42306 7.1329 6.50284 7.50439L6.51456 7.58057L7.32315 14.8843L7.34073 15.0015C7.45959 15.5758 7.9682 15.9964 8.56534 15.9966H11.6005L11.6776 16.0005C12.0557 16.0389 12.3502 16.3585 12.3505 16.7466C12.3505 17.1349 12.0558 17.4543 11.6776 17.4927L11.6005 17.4966H8.56534C7.25122 17.4964 6.13329 16.5701 5.87198 15.3062L5.83194 15.0493L5.02432 7.74463L5.01944 7.66846C5.01607 7.28849 5.30166 6.96035 5.68741 6.91748ZM9.49502 3.50049C10.1854 3.50049 10.745 4.06013 10.745 4.75049C10.745 5.44084 10.1854 6.00049 9.49502 6.00049C8.80471 6.00044 8.24502 5.44082 8.24502 4.75049C8.24502 4.06016 8.80471 3.50053 9.49502 3.50049Z" fill="currentColor"/>
</svg>
