<svg>
<path fill-rule="evenodd" clip-rule="evenodd" d="M13.5575 2.7684C13.4157 2.58039 13.194 2.46984 12.9585 2.46985C12.7231 2.46986 12.5013 2.58044 12.3596 2.76847L8.66916 7.66554L3.51159 9.20875C3.26133 9.28363 3.06807 9.48332 3.00141 9.73588C2.93475 9.98845 3.0043 10.2575 3.18501 10.4461L6.92788 14.3528L6.50453 20.7304C6.48732 20.9896 6.60545 21.2393 6.81678 21.3903C7.02811 21.5413 7.30254 21.5723 7.54219 21.4721L12.9586 19.2074L18.3758 21.4721C18.6155 21.5723 18.8899 21.5413 19.1012 21.3903C19.3126 21.2392 19.4307 20.9896 19.4135 20.7304L18.9901 14.3528L22.733 10.4461C22.9137 10.2575 22.9832 9.98845 22.9166 9.73588C22.8499 9.48332 22.6567 9.28363 22.4064 9.20875L17.2488 7.66553L13.5575 2.7684ZM9.71894 8.76489L12.9586 4.46594L16.1991 8.76495C16.2953 8.89263 16.4299 8.9862 16.583 9.03203L20.8013 10.2942L17.6783 13.5538C17.5326 13.7059 17.4576 13.9122 17.4715 14.1224L17.8365 19.6208L13.2478 17.7026C13.0627 17.6252 12.8543 17.6252 12.6692 17.7026L8.08149 19.6207L8.44649 14.1224C8.46043 13.9122 8.38539 13.7059 8.2397 13.5538L5.11674 10.2942L9.33497 9.03203C9.48817 8.9862 9.6227 8.89259 9.71894 8.76489ZM12.959 8.91223C13.3732 8.91223 13.709 9.24802 13.709 9.66223V12.7779L15.4072 12.7781C15.8214 12.7782 16.1572 13.114 16.1572 13.5282C16.1571 13.9424 15.8213 14.2782 15.4071 14.2781L12.9603 14.2778L12.9597 14.2778L12.959 14.2778C12.5448 14.2778 12.209 13.942 12.209 13.5278V9.66223C12.209 9.24802 12.5448 8.91223 12.959 8.91223Z"/>
</svg>
