<svg>
    <path d="M11.1995308,18.9772037 C11.6199024,18.9772037 11.960681,19.3179822 11.960681,19.7383539 C11.960681,20.1587256 11.6199024,20.4995041 11.1995308,20.4995041 L7.00949589,20.4995041 C6.58912422,20.4995041 6.24834565,20.1587256 6.24834565,19.7383539 C6.24834565,19.3179822 6.58912422,18.9772037 7.00949589,18.9772037 L11.1995308,18.9772037 Z M10.0485034,7.38100985 L10.0536438,7.41746462 L10.0536438,7.41746462 L10.1796357,8.51178719 L10.1844174,8.55195388 L10.1844174,8.55195388 L10.550629,11.5301612 C10.5921652,11.8329933 10.7286645,12.0147339 10.9601271,12.0753829 C11.0862894,12.125242 11.2355428,12.1564039 11.4078875,12.1688687 L11.5879292,12.1751011 L13.6565265,12.1751011 C14.6436828,12.1751011 15.2614516,12.3330555 15.5098329,12.6489643 C15.6903012,12.8784965 15.8347978,13.2452416 15.9433229,13.7491996 C15.9603291,13.8281581 15.9755041,13.9075 15.9888385,13.9871609 L16.6315715,17.8269103 C16.6512546,17.9444459 16.6669123,18.0626201 16.6785261,18.1812252 C16.7261533,18.6676175 16.8204804,18.9420803 16.9615074,19.0046136 C17.0877005,19.0605695 17.6455838,19.0709385 18.6351573,19.0357209 C19.0307687,19.0216632 19.3628879,19.3309555 19.3769672,19.7265661 L19.3774207,19.7520589 L19.3774207,19.7520589 C19.3774207,20.1648615 19.0427781,20.4995041 18.6299755,20.4995041 L16.5394973,20.4995041 C16.2246638,20.4995041 15.9532646,20.4066811 15.7252996,20.2210352 C15.4780777,20.0197071 15.3112958,19.5965743 15.224954,18.9516366 C15.2160586,18.8851435 15.2058803,18.8188283 15.1944312,18.752727 L14.4946194,14.7123677 C14.4923663,14.6993214 14.4901563,14.6862677 14.4879958,14.6732057 C14.3613782,13.9077085 14.0842218,13.5249599 13.6565265,13.5249599 L11.5649538,13.5252296 L11.5649538,13.5252296 C10.5988941,13.5351693 9.95628534,13.3643442 9.63712755,13.0127543 C9.36391258,12.7117758 9.18455241,12.3551929 9.09904703,11.9430055 L9.06411557,11.7322781 L8.55930283,7.66744601 C8.50688378,7.24535945 8.79655069,6.85699467 9.21606514,6.78690585 C9.60999392,6.72109166 9.98268922,6.98708108 10.0485034,7.38100985 Z M6.23199567,7.61448339 L6.23234397,7.61810194 L6.72329322,12.8418276 C6.72562509,12.8667822 6.72770221,12.89176 6.72951087,12.916758 C6.79208317,13.7815853 6.98470006,14.4641827 7.30736153,14.9645504 C7.63880694,15.4785398 8.08707653,15.7913128 8.6521703,15.9028696 C8.87555537,15.9116088 9.09581455,15.9335711 9.31666091,15.9344233 L11.2055344,15.941712 C11.6230609,15.9433232 11.960681,16.2822486 11.960681,16.6997782 C11.960681,17.1168373 11.6225878,17.4549305 11.2055288,17.4549305 L8.84486172,17.4549305 C7.7786179,17.4549305 6.88245906,16.9814725 6.1563852,16.0345565 C5.69596428,15.4341059 5.39903215,14.6540279 5.2655888,13.6943225 L5.23046045,13.4010221 L4.62723501,7.77622254 C4.57983956,7.33428175 4.89968175,6.93759634 5.34162255,6.89020088 C5.34392392,6.88995408 5.34622634,6.8897172 5.34852976,6.88949025 C5.79269346,6.8457292 6.18823462,7.17031969 6.23199567,7.61448339 Z M8.99508541,3.50049586 C9.68544134,3.50049586 10.2450854,4.06013993 10.2450854,4.75049586 C10.2450854,5.4408518 9.68544134,6.00049586 8.99508541,6.00049586 C8.30472947,6.00049586 7.74508541,5.4408518 7.74508541,4.75049586 C7.74508541,4.06013993 8.30472947,3.50049586 8.99508541,3.50049586 Z"></path>
</svg>