<svg width="24" height="24" viewBox="0 0 24 24" xmlns="http://www.w3.org/2000/svg">
<path fill-rule="evenodd" clip-rule="evenodd" d="M12.5985 2.7684C12.4568 2.58039 12.235 2.46984 11.9995 2.46985C11.7641 2.46986 11.5423 2.58044 11.4006 2.76847L7.71018 7.66554L2.5526 9.20875C2.30235 9.28363 2.10908 9.48332 2.04242 9.73588C1.97577 9.98845 2.04532 10.2575 2.22603 10.4461L5.9689 14.3528L5.54554 20.7304C5.52834 20.9896 5.64647 21.2393 5.85779 21.3903C6.06912 21.5413 6.34356 21.5723 6.58321 21.4721L11.9996 19.2074L17.4169 21.4721C17.6565 21.5723 17.9309 21.5413 18.1423 21.3903C18.3536 21.2392 18.4717 20.9896 18.4545 20.7304L18.0311 14.3528L21.774 10.4461C21.9547 10.2575 22.0243 9.98845 21.9576 9.73588C21.8909 9.48332 21.6977 9.28363 21.4474 9.20875L16.2898 7.66553L12.5985 2.7684ZM8.75996 8.76489L11.9996 4.46594L15.2401 8.76495C15.3364 8.89263 15.4709 8.9862 15.624 9.03203L19.8423 10.2942L16.7193 13.5538C16.5736 13.7059 16.4986 13.9122 16.5125 14.1224L16.8775 19.6208L12.2888 17.7026C12.1037 17.6252 11.8954 17.6252 11.7103 17.7026L7.12251 19.6207L7.4875 14.1224C7.50145 13.9122 7.42641 13.7059 7.28071 13.5538L4.15776 10.2942L8.37599 9.03203C8.52918 8.9862 8.66372 8.89259 8.75996 8.76489ZM11.5503 10.8654V12.6224H12.4433C13.0258 12.6224 13.4237 12.2826 13.4237 11.7487C13.4237 11.1954 13.0258 10.8654 12.4433 10.8654H11.5503ZM14.9575 11.739C14.9575 13.0398 13.9965 13.9425 12.5986 13.9425H11.5406V16.4178H10.0069V9.53552H12.5986C13.9965 9.53552 14.9575 10.4577 14.9575 11.739Z"/>
</svg>
