<svg width="24" height="24" viewBox="0 0 24 24" xmlns="http://www.w3.org/2000/svg">
<path fill-rule="evenodd" clip-rule="evenodd" d="M12.5985 2.76834C12.4568 2.58033 12.235 2.46977 11.9995 2.46979C11.7641 2.4698 11.5423 2.58038 11.4006 2.76841L7.71018 7.66548L2.5526 9.20869C2.30235 9.28357 2.10908 9.48326 2.04242 9.73582C1.97577 9.98839 2.04532 10.2574 2.22603 10.4461L5.9689 14.3528L5.54554 20.7304C5.52834 20.9896 5.64647 21.2392 5.85779 21.3902C6.06912 21.5413 6.34356 21.5722 6.58321 21.472L11.9996 19.2074L17.4169 21.472C17.6565 21.5722 17.9309 21.5413 18.1423 21.3902C18.3536 21.2392 18.4717 20.9896 18.4545 20.7304L18.0311 14.3528L21.774 10.4461C21.9547 10.2574 22.0243 9.98839 21.9576 9.73582C21.8909 9.48326 21.6977 9.28357 21.4474 9.20869L16.2898 7.66547L12.5985 2.76834ZM8.75996 8.76483L11.9996 4.46588L15.2401 8.76489C15.3364 8.89256 15.4709 8.98614 15.624 9.03197L19.8423 10.2941L16.7193 13.5538C16.5736 13.7058 16.4986 13.9122 16.5125 14.1223L16.8775 19.6208L12.2888 17.7025C12.1037 17.6251 11.8954 17.6251 11.7103 17.7025L7.12251 19.6207L7.4875 14.1223C7.50145 13.9122 7.42641 13.7058 7.28071 13.5538L4.15776 10.2941L8.37599 9.03197C8.52918 8.98613 8.66372 8.89253 8.75996 8.76483Z" />
<path fill-rule="evenodd" clip-rule="evenodd" d="M8.75996 8.76483L11.9996 4.46588L15.2401 8.76489C15.3364 8.89256 15.4709 8.98614 15.624 9.03197L19.8423 10.2941L16.7193 13.5538C16.5736 13.7058 16.4986 13.9122 16.5125 14.1223L16.8775 19.6208L12.2888 17.7025C12.1037 17.6251 11.8954 17.6251 11.7103 17.7025L7.12251 19.6207L7.4875 14.1223C7.50145 13.9122 7.42641 13.7058 7.28071 13.5538L4.15776 10.2941L8.37599 9.03197C8.52918 8.98613 8.66372 8.89253 8.75996 8.76483ZM12.75 9.66217C12.75 9.24796 12.4142 8.91217 12 8.91217C11.5858 8.91217 11.25 9.24796 11.25 9.66217V13.5278C11.25 13.942 11.5858 14.2778 12 14.2778L14.4481 14.278C14.8624 14.2781 15.1982 13.9424 15.1982 13.5281C15.1982 13.1139 14.8625 12.7781 14.4482 12.7781L12.75 12.7778V9.66217Z" />
</svg>
