<svg width="24" height="24" viewBox="0 0 24 24" xmlns="http://www.w3.org/2000/svg">
  <path d="M18,4.5 C19.1045695,4.5 20,5.3954305 20,6.5 L20,9 C21.1045695,9 22,9.8954305 22,11 L22,15 C22,16.1045695 21.1045695,17 20,17 L17,17 L17,19 C17,20.0543618 16.1841222,20.9181651 15.1492623,20.9945143 L15,21 L9,21 C7.9456382,21 7.08183488,20.1841222 7.00548574,19.1492623 L7,19 L7,17 L4,17 C2.8954305,17 2,16.1045695 2,15 L2,11 C2,9.8954305 2.8954305,9 4,9 L4,6.5 C4,5.3954305 4.8954305,4.5 6,4.5 L18,4.5 Z M15.5,14.5 L8.49974465,14.5 L8.5,17 L8.498,17 L8.49898798,18.9449087 L8.50142001,19.0388964 C8.5204653,19.2970421 8.73801379,19.5 9,19.5 L14.9449087,19.501012 L15.0388964,19.49858 C15.2970421,19.4795347 15.5,19.2619862 15.5,19 L15.5,14.5 Z M20,10.5 L4,10.5 C3.72385763,10.5 3.5,10.7238576 3.5,11 L3.5,15 C3.5,15.2761424 3.72385763,15.5 4,15.5 L7,15.5 L7,14.354 L5.67741935,14.3548387 C5.30329098,14.3548387 5,14.0515477 5,13.6774194 C5,13.3373026 5.2506537,13.0557292 5.57731529,13.007345 L5.67741935,13 L18.3225806,13 C18.696709,13 19,13.303291 19,13.6774194 C19,14.0175361 18.7493463,14.2991095 18.4226847,14.3474937 L18.3225806,14.3548387 L17,14.354 L17,15.5 L20,15.5 C20.2761424,15.5 20.5,15.2761424 20.5,15 L20.5,11 C20.5,10.7238576 20.2761424,10.5 20,10.5 Z M18.75,11 C19.1642136,11 19.5,11.3357864 19.5,11.75 C19.5,12.1642136 19.1642136,12.5 18.75,12.5 C18.3357864,12.5 18,12.1642136 18,11.75 C18,11.3357864 18.3357864,11 18.75,11 Z M18,6 L6,6 C5.72385763,6 5.5,6.22385763 5.5,6.5 L5.5,9 L18.5,9 L18.5,6.5 C18.5,6.22385763 18.2761424,6 18,6 Z"/>
</svg>
