<svg>
<path fill-rule="evenodd" clip-rule="evenodd" d="M20 6.5C20 5.39543 19.1046 4.5 18 4.5H6C4.89543 4.5 4 5.39543 4 6.5V8H20V6.5ZM4 9C2.89543 9 2 9.89543 2 11V15C2 16.1046 2.89543 17 4 17H7.49198C7.49153 16.2886 7.49245 15.5654 7.49606 14.75H6C5.58579 14.75 5.25 14.4142 5.25 14C5.25 13.5858 5.58579 13.25 6 13.25H18.5C18.9142 13.25 19.25 13.5858 19.25 14C19.25 14.4142 18.9142 14.75 18.5 14.75H17.5V17H20C21.1046 17 22 16.1046 22 15V11C22 9.89543 21.1046 9 20 9H4ZM19.5 11.75C19.5 11.3358 19.1642 11 18.75 11C18.3358 11 18 11.3358 18 11.75C18 12.1642 18.3358 12.5 18.75 12.5C19.1642 12.5 19.5 12.1642 19.5 11.75ZM16 14.7H9V18.7C9 19.8045 9.89543 20.7 11 20.7H14C15.1046 20.7 16 19.8045 16 18.7V14.7Z"/>
</svg>
