<svg xmlns="http://www.w3.org/2000/svg" width="400" height="300"><path fill="#E0001B" d="M11.102 108.46h-.003l.965 2.525L16.34 122.2l23.375 61.339h77.004l-61.703-61.971c-8.221-8.224-19.376-13.108-31.001-13.108H11.102z"/><path fill="#FFF" d="M87.502 177.641a76.48 76.48 0 00-26.848-18.253l-3.117-1.255a4.263 4.263 0 01-2.671-4.07c.068-2.663 2.623-4.049 5.77-4.957 1.8-.518 3.782-.882 5.616-1.236.385-.074.759-.147 1.127-.224l.354-.07v-.002c2.354-.495 4.229-1.053 4.729-2.053l.278-.555a29.565 29.565 0 00-11.39-6.047c-.039.16-.14.94.724 2.352.024.041.04.084.061.126.035.07.069.141.093.213.021.061.034.122.046.183.014.064.022.128.027.192.005.06.011.12.009.179a1.609 1.609 0 01-.086.461 1.553 1.553 0 01-.313.561c-.027.032-.053.066-.082.096a1.685 1.685 0 01-.294.235c-.029.018-.063.031-.095.048a1.724 1.724 0 01-.76.205c-.686.033-1.546-.271-2.512-1.155l-.242-.218c-15.96-14.625-28.936-12.67-38.011-19.894l-.204-.163a21.217 21.217 0 01-2.047-1.914c-.055-.058-.106-.118-.16-.176a21.187 21.187 0 01-.899-1.044l-.076-.097a23.4 23.4 0 01-.842-1.131c-.049-.069-.098-.136-.146-.206-.271-.395-.536-.81-.797-1.24a29.91 29.91 0 01-.924-1.638c-.061-.114-.119-.23-.179-.347a34.79 34.79 0 01-.711-1.482c-.052-.115-.102-.235-.152-.351a39.64 39.64 0 01-.645-1.554c-.022-.059-.047-.114-.07-.173l.027.07-.03-.071 4.276 11.215v.001c8.43 14.398 30.556 15.916 32.961 38.305a2.047 2.047 0 001.721 1.8 75.924 75.924 0 018.292 1.784c.347.095.693.185 1.038.283.341.099.682.207 1.021.311.422.128.844.254 1.265.39.311.101.618.207.927.312.449.15.897.302 1.344.462.293.104.583.216.875.323.459.17.919.344 1.376.522.281.11.563.228.844.342.463.188.925.38 1.385.578.276.119.55.241.825.363a74.436 74.436 0 014.364 2.113c.454.236.904.48 1.354.729.264.146.529.29.792.438.446.254.889.514 1.331.774.264.156.529.312.792.472.435.265.865.537 1.295.812.268.17.534.337.799.51.417.272.83.556 1.244.838.272.188.547.368.818.56.387.271.769.554 1.153.832.292.215.588.423.878.642.283.213.563.437.846.655.365.281.732.561 1.095.851-.013-.012-.025-.021-.039-.032l.042.032.006.007a.366.366 0 00.242.084.408.408 0 00.267-.103.393.393 0 00.013-.55z"/><path fill="#323232" d="M124.973 161.666c8.313 0 15.311-4.113 15.311-9.754 0-5.642-6.996-9.753-15.311-9.753-8.311 0-15.306 4.112-15.306 9.753s6.995 9.754 15.306 9.754m-.436 8.092c-15.224 0-24.891-7.914-24.891-17.848 0-10.101 10.238-17.842 25.326-17.842 15.091 0 25.326 7.784 25.326 17.451 0 4.33-1.924 7.874-5.6 10.848h8.968l-2.144 3.676c-1.359 2.318-3.019 3.715-6.606 3.715h-20.379zM171.158 156.506h15.832l-7.349-13.08c-.173-.305-.308-.393-.567-.393-.264 0-.393.088-.568.393l-7.348 13.08zm19.902 7.218h-23.97l-3.413 6.036h-9.927l16.619-28.78c1.312-2.275 3.194-4.024 6.954-4.024h3.717c3.766 0 5.642 1.749 6.954 4.024l16.621 28.78H194.47l-3.41-6.036zM251.939 136.955v32.803h-8.879l-26.066-21.737v21.737h-8.883v-32.803h5.557c2.842 0 4.285.743 5.902 2.143l23.49 19.556v-21.699h8.879zM283.513 144.348v25.412h-8.877v-25.412h-18.197v-7.39h45.271v7.391l-18.197-.001zM311.371 156.506h15.832l-7.348-13.08c-.174-.305-.307-.393-.564-.393-.264 0-.396.088-.57.393l-7.35 13.08zm19.902 7.218h-23.967l-3.412 6.036h-9.93l16.621-28.78c1.313-2.275 3.193-4.024 6.953-4.024h3.719c3.762 0 5.641 1.749 6.953 4.024l16.621 28.78h-10.146l-3.412-6.036zM347.888 167.396l-.828-.264 2.23-7.127c6.383 2.054 13.209 2.885 19.373 2.885 10.105 0 12.6-1.184 12.6-2.448 0-.522-.35-.917-1.139-1.18-1.008-.351-3.809-.921-12.074-2.274-9.141-1.488-13.25-2.232-16.268-3.634-3.016-1.396-4.855-3.631-4.855-6.908 0-2.494 1.229-4.506 3.193-6.082 3.5-2.712 9.488-3.802 16.006-3.802 8.4 0 15.443.699 23.27 2.624l.699.218-1.879 6.954c-8.746-1.881-13.6-2.405-20.248-2.494-4.684-.042-7.916.306-9.623.831-.965.309-1.359.746-1.359 1.269 0 .482.309.918 1.27 1.225 1.051.354 2.756.747 11.721 2.188 9.713 1.578 12.906 2.229 15.572 3.281 3.631 1.398 5.818 3.98 5.818 7.215 0 4.069-3.148 7.088-8.617 8.75-3.365 1.004-7.871 1.573-12.943 1.573-7.962 0-16.45-1.051-21.919-2.8"/></svg>