<svg width="24" height="24" viewBox="0 0 24 24" xmlns="http://www.w3.org/2000/svg">
<path d="M3 2.5C2.72386 2.5 2.5 2.72386 2.5 3V7C2.5 7.27614 2.27614 7.5 2 7.5C1.72386 7.5 1.5 7.27614 1.5 7V3C1.5 2.17157 2.17157 1.5 3 1.5H7C7.27614 1.5 7.5 1.72386 7.5 2C7.5 2.27614 7.27614 2.5 7 2.5H3Z"/>
<path fill-rule="evenodd" clip-rule="evenodd" d="M5 10V6C5 5.44772 5.44772 5 6 5H10C10.5523 5 11 5.44772 11 6V10C11 10.5523 10.5523 11 10 11H6C5.44772 11 5 10.5523 5 10ZM6.5 9.5H9.5V6.5H6.5V9.5Z"/>
<path fill-rule="evenodd" clip-rule="evenodd" d="M5 14V18C5 18.5523 5.44772 19 6 19H10C10.5523 19 11 18.5523 11 18V14C11 13.4477 10.5523 13 10 13H6C5.44772 13 5 13.4477 5 14ZM9.5 17.5H6.5V14.5H9.5V17.5Z"/>
<path d="M16.5 14.5C16.5 14.7761 16.7239 15 17 15H18C18.2761 15 18.5 14.7761 18.5 14.5V13.5C18.5 13.2239 18.2761 13 18 13H17C16.7239 13 16.5 13.2239 16.5 13.5V14.5Z"/>
<path d="M17 18.5C16.7239 18.5 16.5 18.2761 16.5 18V17C16.5 16.7239 16.7239 16.5 17 16.5H18C18.2761 16.5 18.5 16.7239 18.5 17V18C18.5 18.2761 18.2761 18.5 18 18.5H17Z"/>
<path d="M13 14.5C13 14.7761 13.2239 15 13.5 15H14.5C14.7761 15 15 14.7761 15 14.5V13.5C15 13.2239 14.7761 13 14.5 13H13.5C13.2239 13 13 13.2239 13 13.5V14.5Z"/>
<path d="M13.5 18.5C13.2239 18.5 13 18.2761 13 18V17C13 16.7239 13.2239 16.5 13.5 16.5H14.5C14.7761 16.5 15 16.7239 15 17V18C15 18.2761 14.7761 18.5 14.5 18.5H13.5Z"/>
<path fill-rule="evenodd" clip-rule="evenodd" d="M13 10V6C13 5.44772 13.4477 5 14 5H18C18.5523 5 19 5.44772 19 6V10C19 10.5523 18.5523 11 18 11H14C13.4477 11 13 10.5523 13 10ZM14.5 9.5H17.5V6.5H14.5V9.5Z"/>
<path d="M21.5 21C21.5 21.2761 21.2761 21.5 21 21.5H17C16.7239 21.5 16.5 21.7239 16.5 22C16.5 22.2761 16.7239 22.5 17 22.5H21C21.8284 22.5 22.5 21.8284 22.5 21V17C22.5 16.7239 22.2761 16.5 22 16.5C21.7239 16.5 21.5 16.7239 21.5 17V21Z"/>
<path d="M21.5 3C21.5 2.72386 21.2761 2.5 21 2.5L17 2.5C16.7239 2.5 16.5 2.27614 16.5 2C16.5 1.72386 16.7239 1.5 17 1.5H21C21.8284 1.5 22.5 2.17157 22.5 3V7C22.5 7.27614 22.2761 7.5 22 7.5C21.7239 7.5 21.5 7.27614 21.5 7V3Z"/>
<path d="M3 21.5C2.72386 21.5 2.5 21.2761 2.5 21L2.5 17C2.5 16.7239 2.27614 16.5 2 16.5C1.72386 16.5 1.5 16.7239 1.5 17V21C1.5 21.8284 2.17157 22.5 3 22.5H7C7.27614 22.5 7.5 22.2761 7.5 22C7.5 21.7239 7.27614 21.5 7 21.5H3Z"/>
</svg>
