<svg width="24" height="24" viewBox="0 0 24 24" xmlns="http://www.w3.org/2000/svg">
  <path d="M12,2 C17.5228475,2 22,6.4771525 22,12 C22,17.5228475 17.5228475,22 12,22 C6.4771525,22 2,17.5228475 2,12 C2,6.4771525 6.4771525,2 12,2 Z M12,15 C11.5167508,15 11.125,15.3917508 11.125,15.875 C11.125,16.3582492 11.5167508,16.75 12,16.75 C12.4832492,16.75 12.875,16.3582492 12.875,15.875 C12.875,15.3917508 12.4832492,15 12,15 Z M12,6.95 C10.4812169,6.95 9.25,8.18121694 9.25,9.7 C9.25,10.1142136 9.58578644,10.45 10,10.45 C10.345178,10.45 10.6358927,10.216815 10.7232093,9.89937971 L10.7431534,9.80177056 L10.7564536,9.57219476 C10.8204661,8.94187466 11.3527913,8.45 12,8.45 C12.6903559,8.45 13.25,9.00964406 13.25,9.7 C13.25,10.2682501 12.7735813,10.7990938 12.2339406,10.9229258 L12.1174863,10.9430968 L11.8982294,10.9568466 C11.5654335,11.0019943 11.3019943,11.2654335 11.2568466,11.5982294 L11.25,11.7 L11.25,13.7 L11.2568466,13.8017706 C11.306509,14.1678461 11.6203042,14.45 12,14.45 C12.3796958,14.45 12.693491,14.1678461 12.7431534,13.8017706 L12.75,13.7 L12.75,12.3365232 L12.9157223,12.2799262 C13.9531488,11.8877847 14.75,10.864084 14.75,9.7 C14.75,8.18121694 13.5187831,6.95 12,6.95 Z"/>
</svg>
