<svg xmlns="http://www.w3.org/2000/svg" width="24" height="24" viewBox="0 0 24 24">
  <path fill="#626B79" fill-rule="evenodd" d="M12,2 C17.5228475,2 22,6.4771525 22,12 C22,17.5228475 17.5228475,22 12,22 C6.4771525,22 2,17.5228475 2,12 C2,6.4771525 6.4771525,2 12,2 Z M12,3.5 C7.30557963,3.5 3.5,7.30557963 3.5,12 C3.5,16.6944204 7.30557963,20.5 12,20.5 C16.6944204,20.5 20.5,16.6944204 20.5,12 C20.5,7.30557963 16.6944204,3.5 12,3.5 Z M12,15 C12.4832492,15 12.875,15.3917508 12.875,15.875 C12.875,16.3582492 12.4832492,16.75 12,16.75 C11.5167508,16.75 11.125,16.3582492 11.125,15.875 C11.125,15.3917508 11.5167508,15 12,15 Z M12,6.95 C13.5187831,6.95 14.75,8.18121694 14.75,9.7 C14.75,10.864084 13.9531488,11.8877847 12.9157223,12.2799262 L12.75,12.3365232 L12.75,13.7 C12.75,14.1142136 12.4142136,14.45 12,14.45 C11.6203042,14.45 11.306509,14.1678461 11.2568466,13.8017706 L11.25,13.7 L11.25,11.7 C11.25,11.3203042 11.5321539,11.006509 11.8982294,10.9568466 L12.1174863,10.9430968 C12.7030908,10.8747377 13.25,10.3088394 13.25,9.7 C13.25,9.00964406 12.6903559,8.45 12,8.45 C11.3527913,8.45 10.8204661,8.94187466 10.7564536,9.57219476 L10.7431534,9.80177056 C10.693491,10.1678461 10.3796958,10.45 10,10.45 C9.58578644,10.45 9.25,10.1142136 9.25,9.7 C9.25,8.18121694 10.4812169,6.95 12,6.95 Z"/>
</svg>
