<svg version="1.1" xmlns="http://www.w3.org/2000/svg" xmlns:xlink="http://www.w3.org/1999/xlink" viewBox="0 0 24 24">
  <title>iconTitle</title>
  <desc>iconDesc</desc>
  <style></style>
  <path d="M17.2148676,4.66305413 L13.5617569,8.31636375 C13.0819289,8.11267507 12.5541228,8 12,8 C9.790861,8 8,9.790861 8,12 C8,14.209139 9.790861,16 12,16 C14.209139,16 16,14.209139 16,12 C16,11.4458772 15.8873249,10.9180711 15.6836362,10.4382431 L19.3369459,6.78513241 C21.8414957,10.2999087 21.5171674,15.2107546 18.363961,18.363961 C14.8492424,21.8786797 9.15075759,21.8786797 5.63603897,18.363961 C2.12132034,14.8492424 2.12132034,9.15075759 5.63603897,5.63603897 C8.78924538,2.48283256 13.7000913,2.15850428 17.2148676,4.66305413 Z M19.0303301,4.96966991 C19.2965966,5.23593648 19.3208027,5.65260016 19.1029482,5.94621165 L19.0303301,6.03033009 L14.217326,10.8441329 C14.3978968,11.1898175 14.5,11.582985 14.5,12 C14.5,13.3807119 13.3807119,14.5 12,14.5 C10.6192881,14.5 9.5,13.3807119 9.5,12 C9.5,10.6192881 10.6192881,9.5 12,9.5 C12.417015,9.5 12.8101825,9.60210315 13.1558671,9.78267397 L17.9696699,4.96966991 C18.2625631,4.6767767 18.7374369,4.6767767 19.0303301,4.96966991 Z"/>
</svg>
