<svg version="1.1" xmlns="http://www.w3.org/2000/svg" xmlns:xlink="http://www.w3.org/1999/xlink" viewBox="0 0 24 24">
  <title>iconTitle</title>
  <desc>iconDesc</desc>
  <style></style>
  <path d="M16.2685573,4.07396317 C16.4955711,4.20426191 16.65,4.44909655 16.65,4.73 C16.65,5.14421356 16.3142136,5.48 15.9,5.48 C15.7498476,5.48 15.610001,5.43587556 15.4927194,5.35988594 C12.6608412,3.87033003 9.07754346,4.31585482 6.69669914,6.69669914 C3.76776695,9.62563133 3.76776695,14.3743687 6.69669914,17.3033009 C9.62563133,20.232233 14.3743687,20.232233 17.3033009,17.3033009 C19.6833037,14.923298 20.1293548,11.3416916 18.6414541,8.51128884 C18.5598797,8.38763958 18.51,8.23964481 18.51,8.08 C18.51,7.66578644 18.8457864,7.33 19.26,7.33 C19.5496321,7.33 19.800919,7.49417532 19.925876,7.7345413 C21.7634149,11.1430592 21.2421867,15.4857354 18.363961,18.363961 C14.8492424,21.8786797 9.15075759,21.8786797 5.63603897,18.363961 C2.12132034,14.8492424 2.12132034,9.15075759 5.63603897,5.63603897 C8.51510507,2.75697287 12.859477,2.23628093 16.2685573,4.07396317 Z M12.15,8 C12.5642136,8 12.9,8.33578644 12.9,8.75 C12.9,9.16421356 12.5642136,9.5 12.15,9.5 L12,9.5 C10.6192881,9.5 9.5,10.6192881 9.5,12 C9.5,13.3807119 10.6192881,14.5 12,14.5 C13.3807119,14.5 14.5,13.3807119 14.5,12 L14.495,11.8570578 L14.48,11.659 C14.48,11.2703042 14.7621539,10.956509 15.1282294,10.9068466 L15.23,10.9 C15.6096958,10.9 15.923491,11.1821539 15.9731534,11.5482294 L15.9957045,11.8725507 C15.9985682,11.9268691 16,11.9693522 16,12 C16,14.209139 14.209139,16 12,16 C9.790861,16 8,14.209139 8,12 C8,9.790861 9.790861,8 12,8 L12.099,8.003 L12.15,8 Z M19.0303301,4.96966991 C19.2965966,5.23593648 19.3208027,5.65260016 19.1029482,5.94621165 L19.0303301,6.03033009 L12.5303301,12.5303301 C12.2374369,12.8232233 11.7625631,12.8232233 11.4696699,12.5303301 C11.2034034,12.2640635 11.1791973,11.8473998 11.3970518,11.5537883 L11.4696699,11.4696699 L17.9696699,4.96966991 C18.2625631,4.6767767 18.7374369,4.6767767 19.0303301,4.96966991 Z"/>
</svg>
