<svg width="24" height="24" viewBox="0 0 24 24" fill="none" xmlns="http://www.w3.org/2000/svg">
<path fill-rule="evenodd" clip-rule="evenodd" d="M10.0092 2.12401C9.78071 1.97321 9.48815 1.95892 9.24601 2.08675L6.94635 3.30078L5.16308 2.12401C4.93275 1.97202 4.63756 1.95879 4.39455 2.08958C4.15155 2.22037 4 2.47404 4 2.75V20.75C4 21.026 4.15155 21.2796 4.39455 21.4104C4.63756 21.5412 4.93275 21.528 5.16309 21.376L6.90385 20.2273L8.64461 21.376C8.87314 21.5268 9.1657 21.5411 9.40783 21.4133L11.7075 20.1992L13.4908 21.376C13.7193 21.5268 14.0118 21.5411 14.254 21.4133L16.5537 20.1992L18.3369 21.376C18.5673 21.528 18.8625 21.5412 19.1056 21.4104C19.3486 21.2795 19.5001 21.0258 19.5 20.7498V2.75003C19.5 2.47406 19.3485 2.22038 19.1055 2.08959C18.8625 1.95879 18.5673 1.97202 18.3369 2.12401L16.5962 3.27273L14.8554 2.12401C14.6269 1.97321 14.3343 1.95892 14.0922 2.08675L11.7925 3.30078L10.0092 2.12401ZM6.55 10.25C6.55 9.8634 6.8634 9.55 7.25 9.55H16.25C16.6366 9.55 16.95 9.8634 16.95 10.25C16.95 10.6366 16.6366 10.95 16.25 10.95H7.25C6.8634 10.95 6.55 10.6366 6.55 10.25ZM7.25 6.55C6.8634 6.55 6.55 6.8634 6.55 7.25C6.55 7.6366 6.8634 7.95 7.25 7.95H11.25C11.6366 7.95 11.95 7.6366 11.95 7.25C11.95 6.8634 11.6366 6.55 11.25 6.55H7.25ZM6.55 13.25C6.55 12.8634 6.8634 12.55 7.25 12.55H16.2495L16.25 13.95H7.25C6.8634 13.95 6.55 13.6366 6.55 13.25ZM16.2495 12.55C16.6361 12.55 16.95 12.8634 16.95 13.25C16.95 13.6366 16.6366 13.95 16.25 13.95L16.2495 12.55ZM13.7574 15.5369C13.3708 15.5328 13.0541 15.8429 13.05 16.2295C13.046 16.616 13.3561 16.9327 13.7426 16.9368L16.2426 16.9631C16.6292 16.9672 16.9459 16.6571 16.95 16.2705C16.954 15.8839 16.6439 15.5673 16.2574 15.5632L13.7574 15.5369Z" fill="#626B79"/>
</svg>
