<svg width="24" height="24" viewBox="0 0 24 24" xmlns="http://www.w3.org/2000/svg">
<path fill-rule="evenodd" clip-rule="evenodd" d="M10.2592 2.37401C10.0307 2.22321 9.73815 2.20892 9.49601 2.33675L7.19635 3.55078L5.41308 2.37401C5.18275 2.22202 4.88756 2.20879 4.64455 2.33958C4.40155 2.47037 4.25 2.72404 4.25 3V19.1049V21C4.25 21.276 4.40155 21.5296 4.64455 21.6604C4.88756 21.7912 5.18275 21.778 5.41309 21.626L7.15385 20.4773L8.89461 21.626C9.12314 21.7768 9.4157 21.7911 9.65783 21.6633L11.9575 20.4492L13.7408 21.626C13.9693 21.7768 14.2618 21.7911 14.504 21.6633L16.8037 20.4492L18.5869 21.626C18.8173 21.778 19.1125 21.7912 19.3556 21.6604C19.5986 21.5295 19.7501 21.2758 19.75 20.9998L19.7494 19.105V19.1047L19.75 3.00003C19.75 2.72406 19.5985 2.47038 19.3555 2.33959C19.1125 2.20879 18.8173 2.22202 18.5869 2.37401L16.8462 3.52273L15.1054 2.37401C14.8769 2.22321 14.5843 2.20892 14.3422 2.33675L12.0425 3.55078L10.2592 2.37401ZM7.50399 5.08456L9.80365 3.87053L11.5869 5.0473C11.8154 5.1981 12.108 5.21239 12.3501 5.08456L14.6498 3.87053L16.4331 5.0473C16.6836 5.21265 17.0087 5.21265 17.2592 5.0473L18.2499 4.39353L18.2494 19.1049V19.1052L18.2496 19.6062L17.2592 18.9527C17.0307 18.8019 16.7382 18.7876 16.496 18.9154L14.1963 20.1295L12.4131 18.9527C12.1846 18.8019 11.892 18.7876 11.6499 18.9154L9.35019 20.1295L7.56693 18.9527C7.31636 18.7874 6.99133 18.7874 6.74076 18.9527L5.75 19.6065V19.1049V4.3935L6.74076 5.0473C6.96929 5.1981 7.26185 5.21239 7.50399 5.08456ZM6.75 7.5C6.75 7.08579 7.08579 6.75 7.5 6.75H11.5C11.9142 6.75 12.25 7.08579 12.25 7.5C12.25 7.91421 11.9142 8.25 11.5 8.25H7.5C7.08579 8.25 6.75 7.91421 6.75 7.5ZM6.75 10.5C6.75 10.0858 7.08579 9.75 7.5 9.75H16.5C16.9142 9.75 17.25 10.0858 17.25 10.5C17.25 10.9142 16.9142 11.25 16.5 11.25H7.5C7.08579 11.25 6.75 10.9142 6.75 10.5ZM7.5 12.75C7.08579 12.75 6.75 13.0858 6.75 13.5C6.75 13.9142 7.08579 14.25 7.5 14.25H7.53512H7.57018H7.60516H7.64008H7.67492H7.7097H7.74441H7.77905H7.81363H7.84813H7.88256H7.91693H7.95123H7.98546H8.01962H8.05371H8.08773H8.12169H8.15557H8.18939H8.22314H8.25682H8.29043H8.32397H8.35745H8.39085H8.42419H8.45746H8.49066H8.52379H8.55685H8.58984H8.62277H8.65562H8.68841H8.72113H8.75378H8.78636H8.81887H8.85132H8.88369H8.916H8.94824H8.98041H9.01251H9.04454H9.0765H9.1084H9.14022H9.17198H9.20367H9.23529H9.26684H9.29832H9.32974H9.36108H9.39236H9.42357H9.45471H9.48578H9.51678H9.54771H9.57858H9.60938H9.6401H9.67076H9.70135H9.73187H9.76233H9.79271H9.82302H9.85327H9.88345H9.91356H9.9436H9.97357H10.0035H10.0333H10.0631H10.0928H10.1224H10.152H10.1815H10.2109H10.2402H10.2695H10.2987H10.3279H10.357H10.386H10.4149H10.4438H10.4726H10.5013H10.53H10.5586H10.5871H10.6156H10.644H10.6723H10.7006H10.7287H10.7569H10.7849H10.8129H10.8408H10.8686H10.8964H10.9241H10.9518H10.9793H11.0068H11.0343H11.0616H11.0889H11.1161H11.1433H11.1704H11.1974H11.2244H11.2512H11.2781H11.3048H11.3315H11.3581H11.3846H11.4111H11.4375H11.4638H11.4901H11.5163H11.5424H11.5685H11.5945H11.6204H11.6462H11.672H11.6977H11.7234H11.749H11.7745H11.7999H11.8253H11.8506H11.8758H11.901H11.9261H11.9511H11.9761H12.001H12.0258H12.0505H12.0752H12.0998H12.1244H12.1489H12.1733H12.1976H12.2219H12.2461H12.2702H12.2943H12.3183H12.3422H12.3661H12.3899H12.4136H12.4373H12.4608H12.4844H12.5078H12.5312H12.5545H12.5777H12.6009H12.624H12.6471H12.67H12.6929H12.7158H12.7385H12.7612H12.7838H12.8064H12.8289H12.8513H12.8737H12.8959H12.9181H12.9403H12.9624H12.9844H13.0063H13.0282H13.05H13.0717H13.0934H13.115H13.1365H13.158H13.1793H13.2007H13.2219H13.2431H13.2642H13.2853H13.3062H13.3271H13.348H13.3688H13.3895H13.4101H13.4307H13.4512H13.4716H13.4919H13.5122H13.5325H13.5526H13.5727H13.5927H13.6127H13.6325H13.6523H13.6721H13.6918H13.7114H13.7309H13.7504H13.7698H13.7891H13.8083H13.8275H13.8467H13.8657H13.8847H13.9036H13.9225H13.9412H13.96H13.9786H13.9972H14.0157H14.0341H14.0525H14.0708H14.089H14.1072H14.1253H14.1433H14.1613H14.1791H14.197H14.2147H14.2324H14.25H14.2675H14.285H14.3024H14.3198H14.337H14.3542H14.3714H14.3884H14.4054H14.4223H14.4392H14.456H14.4727H14.4894H14.5059H14.5225H14.5389H14.5553H14.5716H14.5878H14.604H14.6201H14.6361H14.6521H14.668H14.6838H14.6996H14.7153H14.7309H14.7464H14.7619H14.7773H14.7927H14.808H14.8232H14.8383H14.8534H14.8684H14.8833H14.8982H14.913H14.9277H14.9424H14.957H14.9715H14.9859H15.0003H15.0146H15.0289H15.0431H15.0572H15.0712H15.0852H15.0991H15.1129H15.1267H15.1404H15.154H15.1676H15.1811H15.1945H15.2079H15.2212H15.2344H15.2475H15.2606H15.2736H15.2866H15.2994H15.3122H15.325H15.3376H15.3502H15.3628H15.3752H15.3876H15.4H15.4122H15.4244H15.4365H15.4486H15.4606H15.4725H15.4843H15.4961H15.5078H15.5194H15.531H15.5425H15.5539H15.5653H15.5766H15.5878H15.599H15.6101H15.6211H15.632H15.6429H15.6537H15.6645H15.6752H15.6858H15.6963H15.7068H15.7172H15.7275H15.7378H15.748H15.7581H15.7682H15.7782H15.7881H15.7979H15.8077H15.8174H15.8271H15.8367H15.8462H15.8556H15.865H15.8743H15.8835H15.8927H15.9018H15.9108H15.9198H15.9287H15.9375H15.9463H15.9549H15.9636H15.9721H15.9806H15.989H15.9973H16.0056H16.0138H16.022H16.03H16.038H16.046H16.0538H16.0616H16.0693H16.077H16.0846H16.0921H16.0995H16.1069H16.1142H16.1215H16.1287H16.1358H16.1428H16.1498H16.1567H16.1635H16.1703H16.177H16.1836H16.1902H16.1966H16.2031H16.2094H16.2157H16.2219H16.2281H16.2341H16.2401H16.2461H16.2519H16.2578H16.2635H16.2691H16.2747H16.2803H16.2857H16.2911H16.2964H16.3017H16.3069H16.312H16.317H16.322H16.3269H16.3318H16.3365H16.3412H16.3459H16.3504H16.3549H16.3594H16.3637H16.368H16.3722H16.3764H16.3805H16.3845H16.3885H16.3923H16.3961H16.3999H16.4036H16.4072H16.4107H16.4142H16.4176H16.4209H16.4242H16.4274H16.4305H16.4335H16.4365H16.4394H16.4423H16.4451H16.4478H16.4504H16.453H16.4555H16.4579H16.4603H16.4626H16.4648H16.467H16.4691H16.4711H16.4731H16.475H16.4768H16.4785H16.4802H16.4818H16.4834H16.4849H16.4863H16.4876H16.4889H16.4901H16.4912H16.4923H16.4933H16.4942H16.4951H16.4958H16.4966H16.4972H16.4978H16.4983H16.4988H16.4991H16.4995H16.4997H16.4999H16.5L16.5 13.5V14.25C16.9142 14.25 17.25 13.9142 17.25 13.5C17.25 13.0858 16.9142 12.75 16.5 12.75V13.5L16.5 12.75H16.4999H16.4997H16.4995H16.4991H16.4988H16.4983H16.4978H16.4972H16.4966H16.4958H16.4951H16.4942H16.4933H16.4923H16.4912H16.4901H16.4889H16.4876H16.4863H16.4849H16.4834H16.4818H16.4802H16.4785H16.4768H16.475H16.4731H16.4711H16.4691H16.467H16.4648H16.4626H16.4603H16.4579H16.4555H16.453H16.4504H16.4478H16.4451H16.4423H16.4394H16.4365H16.4335H16.4305H16.4274H16.4242H16.4209H16.4176H16.4142H16.4107H16.4072H16.4036H16.3999H16.3961H16.3923H16.3885H16.3845H16.3805H16.3764H16.3722H16.368H16.3637H16.3594H16.3549H16.3504H16.3459H16.3412H16.3365H16.3318H16.3269H16.322H16.317H16.312H16.3069H16.3017H16.2964H16.2911H16.2857H16.2803H16.2747H16.2691H16.2635H16.2578H16.2519H16.2461H16.2401H16.2341H16.2281H16.2219H16.2157H16.2094H16.2031H16.1966H16.1902H16.1836H16.177H16.1703H16.1635H16.1567H16.1498H16.1428H16.1358H16.1287H16.1215H16.1142H16.1069H16.0995H16.0921H16.0846H16.077H16.0693H16.0616H16.0538H16.046H16.038H16.03H16.022H16.0138H16.0056H15.9973H15.989H15.9806H15.9721H15.9636H15.9549H15.9463H15.9375H15.9287H15.9198H15.9108H15.9018H15.8927H15.8835H15.8743H15.865H15.8556H15.8462H15.8367H15.8271H15.8174H15.8077H15.7979H15.7881H15.7782H15.7682H15.7581H15.748H15.7378H15.7275H15.7172H15.7068H15.6963H15.6858H15.6752H15.6645H15.6537H15.6429H15.632H15.6211H15.6101H15.599H15.5878H15.5766H15.5653H15.5539H15.5425H15.531H15.5194H15.5078H15.4961H15.4843H15.4725H15.4606H15.4486H15.4365H15.4244H15.4122H15.4H15.3876H15.3752H15.3628H15.3502H15.3376H15.325H15.3122H15.2994H15.2866H15.2736H15.2606H15.2475H15.2344H15.2212H15.2079H15.1945H15.1811H15.1676H15.154H15.1404H15.1267H15.1129H15.0991H15.0852H15.0712H15.0572H15.0431H15.0289H15.0146H15.0003H14.9859H14.9715H14.957H14.9424H14.9277H14.913H14.8982H14.8833H14.8684H14.8534H14.8383H14.8232H14.808H14.7927H14.7773H14.7619H14.7464H14.7309H14.7153H14.6996H14.6838H14.668H14.6521H14.6361H14.6201H14.604H14.5878H14.5716H14.5553H14.5389H14.5225H14.5059H14.4894H14.4727H14.456H14.4392H14.4223H14.4054H14.3884H14.3714H14.3542H14.337H14.3198H14.3024H14.285H14.2675H14.25H14.2324H14.2147H14.197H14.1791H14.1613H14.1433H14.1253H14.1072H14.089H14.0708H14.0525H14.0341H14.0157H13.9972H13.9786H13.96H13.9412H13.9225H13.9036H13.8847H13.8657H13.8467H13.8275H13.8083H13.7891H13.7698H13.7504H13.7309H13.7114H13.6918H13.6721H13.6523H13.6325H13.6127H13.5927H13.5727H13.5526H13.5325H13.5122H13.4919H13.4716H13.4512H13.4307H13.4101H13.3895H13.3688H13.348H13.3271H13.3062H13.2853H13.2642H13.2431H13.2219H13.2007H13.1793H13.158H13.1365H13.115H13.0934H13.0717H13.05H13.0282H13.0063H12.9844H12.9624H12.9403H12.9181H12.8959H12.8737H12.8513H12.8289H12.8064H12.7838H12.7612H12.7385H12.7158H12.6929H12.67H12.6471H12.624H12.6009H12.5777H12.5545H12.5312H12.5078H12.4844H12.4608H12.4373H12.4136H12.3899H12.3661H12.3422H12.3183H12.2943H12.2702H12.2461H12.2219H12.1976H12.1733H12.1489H12.1244H12.0998H12.0752H12.0505H12.0258H12.001H11.9761H11.9511H11.9261H11.901H11.8758H11.8506H11.8253H11.7999H11.7745H11.749H11.7234H11.6977H11.672H11.6462H11.6204H11.5945H11.5685H11.5424H11.5163H11.4901H11.4638H11.4375H11.4111H11.3846H11.3581H11.3315H11.3048H11.2781H11.2512H11.2244H11.1974H11.1704H11.1433H11.1161H11.0889H11.0616H11.0343H11.0068H10.9793H10.9518H10.9241H10.8964H10.8686H10.8408H10.8129H10.7849H10.7569H10.7287H10.7006H10.6723H10.644H10.6156H10.5871H10.5586H10.53H10.5013H10.4726H10.4438H10.4149H10.386H10.357H10.3279H10.2987H10.2695H10.2402H10.2109H10.1815H10.152H10.1224H10.0928H10.0631H10.0333H10.0035H9.97357H9.9436H9.91356H9.88345H9.85327H9.82302H9.79271H9.76233H9.73187H9.70135H9.67076H9.6401H9.60938H9.57858H9.54771H9.51678H9.48578H9.45471H9.42357H9.39236H9.36108H9.32974H9.29832H9.26684H9.23529H9.20367H9.17198H9.14022H9.1084H9.0765H9.04454H9.01251H8.98041H8.94824H8.916H8.88369H8.85132H8.81887H8.78636H8.75378H8.72113H8.68841H8.65562H8.62277H8.58984H8.55685H8.52379H8.49066H8.45746H8.42419H8.39085H8.35745H8.32397H8.29043H8.25682H8.22314H8.18939H8.15557H8.12169H8.08773H8.05371H8.01962H7.98546H7.95123H7.91693H7.88256H7.84813H7.81363H7.77905H7.74441H7.7097H7.67492H7.64008H7.60516H7.57018H7.53512H7.5ZM13.25 16.4789C13.2544 16.0648 13.5937 15.7325 14.0079 15.7369L16.5079 15.7632C16.9221 15.7676 17.2543 16.1069 17.25 16.5211C17.2456 16.9352 16.9063 17.2675 16.4921 17.2631L13.9921 17.2368C13.5779 17.2324 13.2457 16.8931 13.25 16.4789Z"/>
</svg>
