<svg width="24" height="24" viewBox="0 0 24 24" xmlns="http://www.w3.org/2000/svg">
<rect transform="translate(0.958984)"/>
<path fill-rule="evenodd" clip-rule="evenodd" d="M21.4476 12C21.4476 16.6883 17.647 20.489 12.9587 20.489C8.27035 20.489 4.46973 16.6883 4.46973 12C4.46973 7.31173 8.27035 3.51111 12.9587 3.51111C17.647 3.51111 21.4476 7.31173 21.4476 12ZM22.9476 12C22.9476 17.5168 18.4754 21.989 12.9587 21.989C7.44192 21.989 2.96973 17.5168 2.96973 12C2.96973 6.4833 7.44192 2.01111 12.9587 2.01111C18.4754 2.01111 22.9476 6.4833 22.9476 12ZM9.04004 14.0607C8.62583 14.0607 8.29004 14.3965 8.29004 14.8107C8.29004 15.2249 8.62583 15.5607 9.04004 15.5607H12.9603H16.8805C17.2947 15.5607 17.6305 15.2249 17.6305 14.8107C17.6305 14.3965 17.2947 14.0607 16.8805 14.0607H12.9603H9.04004ZM10.4356 9.71293C10.4356 10.4842 9.81038 11.1095 9.0391 11.1095C8.26782 11.1095 7.64258 10.4842 7.64258 9.71293C7.64258 8.94165 8.26782 8.31641 9.0391 8.31641C9.81038 8.31641 10.4356 8.94165 10.4356 9.71293ZM16.8799 11.1095C17.6512 11.1095 18.2764 10.4842 18.2764 9.71293C18.2764 8.94165 17.6512 8.31641 16.8799 8.31641C16.1086 8.31641 15.4834 8.94165 15.4834 9.71293C15.4834 10.4842 16.1086 11.1095 16.8799 11.1095Z"/>
</svg>
