<svg width="24" height="24" viewBox="0 0 24 24" fill="none" xmlns="http://www.w3.org/2000/svg">
<path fill-rule="evenodd" clip-rule="evenodd" d="M20.489 12C20.489 16.6883 16.6883 20.4889 12 20.4889C7.31173 20.4889 3.51111 16.6883 3.51111 12C3.51111 7.31167 7.31173 3.51105 12 3.51105C16.6883 3.51105 20.489 7.31167 20.489 12ZM7.33142 14.8106C7.33142 14.3964 7.66721 14.0606 8.08142 14.0606H15.9219C16.3361 14.0606 16.6719 14.3964 16.6719 14.8106C16.6719 15.2248 16.3361 15.5606 15.9219 15.5606H8.08142C7.66721 15.5606 7.33142 15.2248 7.33142 14.8106ZM8.08048 11.1094C8.85176 11.1094 9.47701 10.4841 9.47701 9.71287C9.47701 8.94159 8.85176 8.31635 8.08048 8.31635C7.3092 8.31635 6.68396 8.94159 6.68396 9.71287C6.68396 10.4841 7.3092 11.1094 8.08048 11.1094ZM17.3178 9.71287C17.3178 10.4841 16.6926 11.1094 15.9213 11.1094C15.15 11.1094 14.5248 10.4841 14.5248 9.71287C14.5248 8.94159 15.15 8.31635 15.9213 8.31635C16.6926 8.31635 17.3178 8.94159 17.3178 9.71287Z" fill="#E5AD07"/>
<path fill-rule="evenodd" clip-rule="evenodd" d="M12 20.4889C16.6883 20.4889 20.489 16.6883 20.489 12C20.489 7.31167 16.6883 3.51105 12 3.51105C7.31173 3.51105 3.51111 7.31167 3.51111 12C3.51111 16.6883 7.31173 20.4889 12 20.4889ZM12 21.9889C17.5168 21.9889 21.989 17.5167 21.989 12C21.989 6.48324 17.5168 2.01105 12 2.01105C6.4833 2.01105 2.01111 6.48324 2.01111 12C2.01111 17.5167 6.4833 21.9889 12 21.9889Z" fill="#E5AD07"/>
</svg>
