<svg width="24" height="24" viewBox="0 0 24 24" xmlns="http://www.w3.org/2000/svg">
<path fill-rule="evenodd" clip-rule="evenodd" d="M20.4888 12C20.4888 16.6883 16.6882 20.4889 11.9999 20.4889C7.31161 20.4889 3.51099 16.6883 3.51099 12C3.51099 7.31167 7.31161 3.51105 11.9999 3.51105C16.6882 3.51105 20.4888 7.31167 20.4888 12ZM7.3313 14.8106C7.3313 14.3964 7.66709 14.0606 8.0813 14.0606H15.9217C16.3359 14.0606 16.6717 14.3964 16.6717 14.8106C16.6717 15.2248 16.3359 15.5606 15.9217 15.5606H8.0813C7.66709 15.5606 7.3313 15.2248 7.3313 14.8106ZM8.08036 11.1094C8.85164 11.1094 9.47688 10.4841 9.47688 9.71287C9.47688 8.94159 8.85164 8.31635 8.08036 8.31635C7.30908 8.31635 6.68384 8.94159 6.68384 9.71287C6.68384 10.4841 7.30908 11.1094 8.08036 11.1094ZM17.3177 9.71287C17.3177 10.4841 16.6925 11.1094 15.9212 11.1094C15.1499 11.1094 14.5247 10.4841 14.5247 9.71287C14.5247 8.94159 15.1499 8.31635 15.9212 8.31635C16.6925 8.31635 17.3177 8.94159 17.3177 9.71287Z"/>
<path fill-rule="evenodd" clip-rule="evenodd" d="M11.9999 20.4889C16.6882 20.4889 20.4888 16.6883 20.4888 12C20.4888 7.31167 16.6882 3.51105 11.9999 3.51105C7.31161 3.51105 3.51099 7.31167 3.51099 12C3.51099 16.6883 7.31161 20.4889 11.9999 20.4889ZM11.9999 21.9889C17.5166 21.9889 21.9888 17.5167 21.9888 12C21.9888 6.48324 17.5166 2.01105 11.9999 2.01105C6.48318 2.01105 2.01099 6.48324 2.01099 12C2.01099 17.5167 6.48318 21.9889 11.9999 21.9889Z"/>
</svg>
