<svg width="24" height="24" viewBox="0 0 24 24" xmlns="http://www.w3.org/2000/svg">
<path fill-rule="evenodd" clip-rule="evenodd" d="M22 12C22 17.52 17.52 22 12 22C6.48 22 2 17.52 2 12C2 6.48 6.48 2 12 2C17.52 2 22 6.48 22 12ZM8.02004 11.0101C8.76254 11.0101 9.37004 10.4026 9.37004 9.66006C9.37004 8.91756 8.76254 8.31006 8.02004 8.31006C7.27754 8.31006 6.67004 8.91756 6.67004 9.66006C6.67004 10.4026 7.27754 11.0101 8.02004 11.0101ZM17.22 9.66006C17.22 10.4026 16.6125 11.0101 15.87 11.0101C15.1275 11.0101 14.52 10.4026 14.52 9.66006C14.52 8.91756 15.1275 8.31006 15.87 8.31006C16.6125 8.31006 17.22 8.91756 17.22 9.66006ZM16.0101 12.8601C16.4201 12.9101 16.6701 13.2901 16.6201 13.7001C16.3801 15.6501 14.4701 17.4201 11.9701 17.4201C9.47006 17.4201 7.56006 15.6601 7.32006 13.7001C7.27006 13.2901 7.56006 12.9101 7.97006 12.8601C8.38006 12.8101 8.76006 13.1001 8.81006 13.5101C8.96006 14.6501 10.1701 15.9201 11.9901 15.9201C13.8201 15.9201 15.0301 14.6501 15.1701 13.5101C15.2201 13.1001 15.6001 12.8101 16.0101 12.8601Z"/>
</svg>
