<svg>
<path fill-rule="evenodd" clip-rule="evenodd" d="M20.5 12C20.5 16.6944 16.6944 20.5 12 20.5C7.30558 20.5 3.5 16.6944 3.5 12C3.5 7.30558 7.30558 3.5 12 3.5C16.6944 3.5 20.5 7.30558 20.5 12ZM22 12C22 17.5228 17.5228 22 12 22C6.47715 22 2 17.5228 2 12C2 6.47715 6.47715 2 12 2C17.5228 2 22 6.47715 22 12ZM17.1045 12.7489C17.3365 12.6149 17.4795 12.3674 17.4795 12.0994C17.4795 11.8315 17.3365 11.5839 17.1045 11.4499L10.1603 7.44068C9.92829 7.3067 9.6424 7.3067 9.41034 7.44068C9.17829 7.57465 9.03534 7.82225 9.03534 8.0902L9.03534 16.1086C9.03534 16.3766 9.17829 16.6242 9.41034 16.7581C9.6424 16.8921 9.92829 16.8921 10.1603 16.7581L17.1045 12.7489ZM10.5353 9.38924L15.2295 12.0994L10.5353 14.8096V9.38924Z"/>
</svg>
