<svg>
<path fill-rule="evenodd" clip-rule="evenodd" d="M21.459 12C21.459 16.6944 17.6534 20.5 12.959 20.5C8.26456 20.5 4.45898 16.6944 4.45898 12C4.45898 7.30558 8.26456 3.5 12.959 3.5C17.6534 3.5 21.459 7.30558 21.459 12ZM22.959 12C22.959 17.5228 18.4818 22 12.959 22C7.43614 22 2.95898 17.5228 2.95898 12C2.95898 6.47715 7.43614 2 12.959 2C18.4818 2 22.959 6.47715 22.959 12ZM9.56641 11.0385C9.56641 9.59919 10.7332 8.43237 12.1726 8.43237C13.6119 8.43237 14.7787 9.59919 14.7787 11.0385C14.7787 12.4779 13.6119 13.6447 12.1726 13.6447C10.7332 13.6447 9.56641 12.4779 9.56641 11.0385ZM12.1726 6.93237C9.90479 6.93237 8.06641 8.77076 8.06641 11.0385C8.06641 13.3063 9.90479 15.1447 12.1726 15.1447C12.9446 15.1447 13.6669 14.9316 14.2838 14.561L16.0161 16.2933C16.309 16.5862 16.7839 16.5862 17.0768 16.2933C17.3697 16.0004 17.3697 15.5256 17.0768 15.2327L15.4094 13.5653C15.9541 12.8686 16.2787 11.9914 16.2787 11.0385C16.2787 8.77076 14.4403 6.93237 12.1726 6.93237Z"/>
</svg>
