<svg>
<path fill-rule="evenodd" clip-rule="evenodd" d="M7.981 12.8659C8.392 12.8144 8.76692 13.1059 8.8184 13.5169C8.96095 14.6549 10.1729 15.9271 11.9988 15.9271C12.413 15.9271 12.7488 16.2629 12.7488 16.6771C12.7488 17.0913 12.413 17.4271 11.9988 17.4271C9.48972 17.4271 7.5754 15.6622 7.33003 13.7033C7.27855 13.2923 7.57 12.9174 7.981 12.8659Z"/>
<path fill-rule="evenodd" clip-rule="evenodd" d="M16.019 12.8659C15.608 12.8144 15.2331 13.1059 15.1816 13.5169C15.0391 14.6549 13.8271 15.9271 12.0012 15.9271C11.587 15.9271 11.2512 16.2629 11.2512 16.6771C11.2512 17.0913 11.587 17.4271 12.0012 17.4271C14.5103 17.4271 16.4246 15.6622 16.67 13.7033C16.7214 13.2923 16.43 12.9174 16.019 12.8659Z"/>
<path fill-rule="evenodd" clip-rule="evenodd" d="M12 20.5C16.6944 20.5 20.5 16.6944 20.5 12C20.5 7.30558 16.6944 3.5 12 3.5C7.30558 3.5 3.5 7.30558 3.5 12C3.5 16.6944 7.30558 20.5 12 20.5ZM12 22C17.5228 22 22 17.5228 22 12C22 6.47715 17.5228 2 12 2C6.47715 2 2 6.47715 2 12C2 17.5228 6.47715 22 12 22Z"/>
<path d="M9.47388 9.71033C9.47388 10.4825 8.84794 11.1084 8.07581 11.1084C7.30367 11.1084 6.67773 10.4825 6.67773 9.71033C6.67773 8.93819 7.30367 8.31226 8.07581 8.31226C8.84794 8.31226 9.47388 8.93819 9.47388 9.71033Z"/>
<path d="M17.3233 9.71033C17.3233 10.4825 16.6973 11.1084 15.9252 11.1084C15.1531 11.1084 14.5271 10.4825 14.5271 9.71033C14.5271 8.93819 15.1531 8.31226 15.9252 8.31226C16.6973 8.31226 17.3233 8.93819 17.3233 9.71033Z"/>
</svg>
