<svg>
<path fill-rule="evenodd" clip-rule="evenodd" d="M17 3C17.3797 3 17.6935 3.28215 17.7432 3.64823L17.75 3.75V4.583L18 4.58333C19.6569 4.58333 21 5.92648 21 7.58333V11.8333C21 12.2475 20.6642 12.5833 20.25 12.5833C19.8358 12.5833 19.5 12.2475 19.5 11.8333V10.083H4.5V17.5833C4.5 18.4118 5.17157 19.0833 6 19.0833H12.25C12.6642 19.0833 13 19.4191 13 19.8333C13 20.2475 12.6642 20.5833 12.25 20.5833H6C4.34315 20.5833 3 19.2402 3 17.5833V7.58333C3 5.92648 4.34315 4.58333 6 4.58333L6.25 4.583V3.75C6.25 3.33579 6.58579 3 7 3C7.3797 3 7.69349 3.28215 7.74315 3.64823L7.75 3.75V4.583H16.25V3.75C16.25 3.33579 16.5858 3 17 3ZM10.3 15.3333C10.8523 15.3333 11.3 15.7811 11.3 16.3333C11.3 16.8856 10.8523 17.3333 10.3 17.3333C9.74772 17.3333 9.3 16.8856 9.3 16.3333C9.3 15.7811 9.74772 15.3333 10.3 15.3333ZM7.5 15.3333C8.05228 15.3333 8.5 15.781 8.5 16.3333C8.5 16.8856 8.05228 17.3333 7.5 17.3333C6.94772 17.3333 6.5 16.8856 6.5 16.3333C6.5 15.781 6.94772 15.3333 7.5 15.3333ZM13.1 11.8333C13.6523 11.8333 14.1 12.2811 14.1 12.8333C14.1 13.3856 13.6523 13.8333 13.1 13.8333C12.5477 13.8333 12.1 13.3856 12.1 12.8333C12.1 12.2811 12.5477 11.8333 13.1 11.8333ZM10.3 11.8333C10.8523 11.8333 11.3 12.2811 11.3 12.8333C11.3 13.3856 10.8523 13.8333 10.3 13.8333C9.74772 13.8333 9.3 13.3856 9.3 12.8333C9.3 12.2811 9.74772 11.8333 10.3 11.8333ZM6.25 6.083L6 6.08333C5.17157 6.08333 4.5 6.75491 4.5 7.58333V8.583H19.5V7.58333C19.5 6.75491 18.8284 6.08333 18 6.08333L17.75 6.083V6.41667C17.75 6.83088 17.4142 7.16667 17 7.16667C16.6203 7.16667 16.3065 6.88451 16.2568 6.51844L16.25 6.41667V6.083H7.75V6.41667C7.75 6.83088 7.41421 7.16667 7 7.16667C6.6203 7.16667 6.30651 6.88451 6.25685 6.51844L6.25 6.41667V6.083ZM19.4851 14.4491L18.4087 15.5255L15.2672 14.9919C15.0937 14.963 14.9166 15.0196 14.7923 15.1439L14.2569 15.6793L17.1016 16.9863L15.8715 18.3703L14.8163 18.2998C14.7542 18.2955 14.6927 18.3189 14.6484 18.3632L14.18 18.8316L15.5925 19.4175L16.179 20.8306L16.6477 20.3619C16.692 20.3176 16.7148 20.2567 16.7104 20.1946L16.6403 19.1391L18.0243 17.909L19.3313 20.7537L19.8667 20.2183C19.991 20.094 20.0476 19.9169 20.0187 19.7453L19.4851 16.6019L20.5615 15.5255C20.9459 15.1411 21.4364 14.4014 21.0228 13.9878C20.5615 13.5265 19.8695 14.0647 19.4851 14.4491Z"/>
</svg>
