<svg width="24" height="24" viewBox="0 0 24 24" xmlns="http://www.w3.org/2000/svg">
<path fill-rule="evenodd" clip-rule="evenodd" d="M17 3C17.3797 3 17.6935 3.28215 17.7432 3.64823L17.75 3.75V4.583L18 4.58333C19.6569 4.58333 21 5.92648 21 7.58333V11.8333C21 12.2475 20.6642 12.5833 20.25 12.5833C19.8358 12.5833 19.5 12.2475 19.5 11.8333V10.083H4.5V17.5833C4.5 18.4118 5.17157 19.0833 6 19.0833H12.25C12.6642 19.0833 13 19.4191 13 19.8333C13 20.2475 12.6642 20.5833 12.25 20.5833H6C4.34315 20.5833 3 19.2402 3 17.5833V7.58333C3 5.92648 4.34315 4.58333 6 4.58333L6.25 4.583V3.75C6.25 3.33579 6.58579 3 7 3C7.3797 3 7.69349 3.28215 7.74315 3.64823L7.75 3.75V4.583H16.25V3.75C16.25 3.33579 16.5858 3 17 3ZM6.25 6.083L6 6.08333C5.17157 6.08333 4.5 6.75491 4.5 7.58333V8.583H19.5V7.58333C19.5 6.75491 18.8284 6.08333 18 6.08333L17.75 6.083V6.41667C17.75 6.83088 17.4142 7.16667 17 7.16667C16.6203 7.16667 16.3065 6.88451 16.2568 6.51844L16.25 6.41667V6.083H7.75V6.41667C7.75 6.83088 7.41421 7.16667 7 7.16667C6.6203 7.16667 6.30651 6.88451 6.25685 6.51844L6.25 6.41667V6.083Z"/>
<path fill-rule="evenodd" clip-rule="evenodd" d="M17 3C17.3797 3 17.6935 3.28215 17.7432 3.64823L17.75 3.75V4.583L18 4.58333C19.6569 4.58333 21 5.92648 21 7.58333V13.1611L20.954 13.2004C20.8651 13.1741 20.7737 13.1582 20.681 13.1524C20.4054 13.1354 20.1553 13.2095 19.9573 13.2983C19.5694 13.4722 19.2331 13.7699 19.0233 13.9797L18.1856 14.8174L15.3778 14.3405L15.3758 14.3402C14.9953 14.2767 14.6065 14.4006 14.333 14.6741L13.7978 15.2093C13.6469 15.3601 13.5794 15.5753 13.6171 15.7854C13.6547 15.9954 13.7928 16.1737 13.9867 16.2628L16.0298 17.2016L15.5975 17.688L14.8621 17.6389C14.609 17.6217 14.3643 17.7166 14.1891 17.8918L13.721 18.3599C13.567 18.5139 13.5001 18.7345 13.5425 18.948C13.5849 19.1616 13.7311 19.3399 13.9323 19.4233L15.095 19.9055L15.3763 20.5833H6C4.34315 20.5833 3 19.2402 3 17.5833V7.58333C3 5.92648 4.34315 4.58333 6 4.58333L6.25 4.583V3.75C6.25 3.3703 6.53215 3.05651 6.89823 3.00685L7 3C7.3797 3 7.69349 3.28215 7.74315 3.64823L7.75 3.75V4.583H16.25V3.75C16.25 3.40482 16.4832 3.11411 16.8006 3.02679L16.8982 3.00685L17 3ZM16.25 6.083H7.75V6.41667C7.75 6.79636 7.46785 7.11016 7.10177 7.15982L7 7.16667C6.6203 7.16667 6.30651 6.88451 6.25685 6.51844L6.25 6.41667V6.083L6 6.08333C5.2203 6.08333 4.57955 6.67822 4.50687 7.43887L4.5 7.58333V8.583H19.5V7.58333C19.5 6.75491 18.8284 6.08333 18 6.08333L17.75 6.083V6.41667C17.75 6.79636 17.4678 7.11016 17.1018 7.15982L17 7.16667C16.6203 7.16667 16.3065 6.88451 16.2568 6.51844L16.25 6.41667V6.083ZM10.3 15.3333C10.8523 15.3333 11.3 15.7811 11.3 16.3333C11.3 16.8856 10.8523 17.3333 10.3 17.3333C9.7477 17.3333 9.29999 16.8856 9.29999 16.3333C9.29999 15.7811 9.7477 15.3333 10.3 15.3333ZM8.5 16.3333C8.5 15.7811 8.05228 15.3333 7.5 15.3333C6.94772 15.3333 6.5 15.7811 6.5 16.3333C6.5 16.8856 6.94772 17.3333 7.5 17.3333C8.05228 17.3333 8.5 16.8856 8.5 16.3333ZM13.1 11.8333C13.6523 11.8333 14.1 12.2811 14.1 12.8333C14.1 13.3856 13.6523 13.8333 13.1 13.8333C12.5477 13.8333 12.1 13.3856 12.1 12.8333C12.1 12.2811 12.5477 11.8333 13.1 11.8333ZM11.3 12.8333C11.3 12.2811 10.8523 11.8333 10.3 11.8333C9.74772 11.8333 9.3 12.2811 9.3 12.8333C9.3 13.3856 9.74772 13.8333 10.3 13.8333C10.8523 13.8333 11.3 13.3856 11.3 12.8333Z"/>
<path d="M19.9922 14.0208C19.7999 14.1451 19.6223 14.3028 19.4844 14.4408L19.394 14.5312L19.9922 14.0208Z"/>
<path fill-rule="evenodd" clip-rule="evenodd" d="M19.4893 14.4453L18.4129 15.5217L15.2713 14.9881C15.0979 14.9592 14.9207 15.0158 14.7965 15.1401L14.261 15.6755L17.1058 16.9825L15.8756 18.3665L14.8205 18.2961C14.7583 18.2917 14.6968 18.3151 14.6525 18.3594L14.1842 18.8278L15.5967 19.4137L16.1832 20.8268L16.6519 20.3581C16.6962 20.3138 16.7189 20.2529 16.7146 20.1908L16.6445 19.1353L18.0284 17.9052L19.3355 20.7499L19.8709 20.2145C19.9952 20.0903 20.0517 19.9131 20.0228 19.7415L19.4893 16.5981L20.5656 15.5217C20.9501 15.1373 21.4406 14.3977 21.027 13.984C20.5656 13.5227 19.8737 14.0609 19.4893 14.4453Z"/>
</svg>
