<svg>
<path d="M21 16V16.75C21.4142 16.75 21.75 16.4142 21.75 16H21ZM3 16H2.25C2.25 16.4142 2.58579 16.75 3 16.75V16ZM5.5 16.75H6.25V15.25H5.5V16.75ZM5.00001 6L5.00001 5.25L5.00001 6ZM17 6.00005L17 6.75005L17 6.00005ZM10 15.25H9.25V16.75H10V15.25ZM14 16.75H14.75V15.25H14V16.75ZM3 9.74999H2.25V11.25H3V9.74999ZM20.5 13.25H21.25V11.75H20.5V13.25ZM19.2082 12.5V13.25V12.5ZM13.7918 10.5V11.25V10.5ZM18.5 16.75H21V15.25H18.5V16.75ZM17 5.25005L5.00001 5.25L5.00001 6.75L17 6.75005L17 5.25005ZM2.25 8V16H3.75V8H2.25ZM3 16.75H5.5V15.25H3V16.75ZM21.75 16V10.0001H20.25V16H21.75ZM5.00001 5.25C3.48123 5.24999 2.25 6.48121 2.25 8H3.75C3.75 7.30964 4.30965 6.75 5.00001 6.75L5.00001 5.25ZM17 6.75005C18.7949 6.75006 20.25 8.20514 20.25 10.0001H21.75C21.75 7.37671 19.6234 5.25007 17 5.25005L17 6.75005ZM10 16.75H14V15.25H10V16.75ZM3 11.25H13.7918V9.74999H3V11.25ZM14.798 11.4875L17.5312 12.8541L18.202 11.5125L15.4688 10.1459L14.798 11.4875ZM19.2082 13.25H20.5V11.75H19.2082V13.25ZM17.5312 12.8541C18.0519 13.1144 18.626 13.25 19.2082 13.25V11.75C18.8589 11.75 18.5144 11.6687 18.202 11.5125L17.5312 12.8541ZM13.7918 11.25C14.1411 11.25 14.4856 11.3313 14.798 11.4875L15.4688 10.1459C14.9481 9.88554 14.374 9.74999 13.7918 9.74999V11.25ZM8.75 16C8.75 16.5518 8.30179 17 7.75 17V18.5C9.13021 18.5 10.25 17.3802 10.25 16H8.75ZM7.75 17C7.19821 17 6.75 16.5518 6.75 16H5.25C5.25 17.3802 6.36979 18.5 7.75 18.5V17ZM6.75 16C6.75 15.4482 7.19821 15 7.75 15V13.5C6.36979 13.5 5.25 14.6198 5.25 16H6.75ZM7.75 15C8.30179 15 8.75 15.4482 8.75 16H10.25C10.25 14.6198 9.13021 13.5 7.75 13.5V15ZM17.25 16C17.25 16.5518 16.8018 17 16.25 17V18.5C17.6302 18.5 18.75 17.3802 18.75 16H17.25ZM16.25 17C15.6982 17 15.25 16.5518 15.25 16H13.75C13.75 17.3802 14.8698 18.5 16.25 18.5V17ZM15.25 16C15.25 15.4482 15.6982 15 16.25 15V13.5C14.8698 13.5 13.75 14.6198 13.75 16H15.25ZM16.25 15C16.8018 15 17.25 15.4482 17.25 16H18.75C18.75 14.6198 17.6302 13.5 16.25 13.5V15Z"/>
</svg>
