<svg>
<path d="M5.30117 17.3732H2.76181C2.34535 17.3732 2 17.038 2 16.6114C2 16.1848 2.34535 15.8496 2.76181 15.8496H5.30117C5.71762 15.8496 6.06298 16.195 6.06298 16.6114C6.06298 17.0279 5.71762 17.3732 5.30117 17.3732Z"/>
<path d="M6.19504 14.0313C6.06299 14.0313 5.9411 13.9907 5.81921 13.9297L3.61505 12.66C3.24938 12.4467 3.12749 11.9795 3.3408 11.6138C3.55411 11.2482 4.02135 11.1263 4.37686 11.3396L6.58102 12.6093C6.94669 12.8124 7.06858 13.2797 6.85527 13.6453C6.71307 13.8891 6.45913 14.0313 6.19504 14.0313Z"/>
<path d="M8.65313 11.5733C8.38904 11.5733 8.1351 11.4412 7.9929 11.1873L6.72322 8.99328C6.50991 8.62761 6.6318 8.17053 6.99747 7.95722C7.36313 7.74392 7.83038 7.87596 8.03353 8.23147L9.31336 10.4356C9.51651 10.8013 9.39462 11.2584 9.02895 11.4717C8.90706 11.5428 8.77502 11.5733 8.65313 11.5733Z"/>
<path d="M11.9949 10.6794C11.5784 10.6794 11.2331 10.3341 11.2331 9.91762V7.37826C11.2331 6.96181 11.5784 6.61646 11.9949 6.61646C12.4114 6.61646 12.7567 6.96181 12.7567 7.37826V9.91762C12.7567 10.3341 12.4215 10.6794 11.9949 10.6794Z"/>
<path d="M15.3469 11.5734C15.2148 11.5734 15.0828 11.5429 14.971 11.4718C14.6054 11.2585 14.4835 10.7913 14.6968 10.4358L15.9665 8.24176C16.1798 7.87609 16.647 7.7542 17.0025 7.96751C17.3682 8.18082 17.4901 8.64806 17.2768 9.00357L16.0071 11.1976C15.8649 11.4414 15.611 11.5734 15.3469 11.5734Z"/>
<path d="M17.805 14.0313C17.5409 14.0313 17.287 13.8992 17.1448 13.6453C16.9314 13.2796 17.0533 12.8124 17.419 12.6092L19.613 11.3395C19.9787 11.1262 20.4459 11.2583 20.6491 11.6138C20.8624 11.9795 20.7303 12.4467 20.3748 12.6499L18.1808 13.9297C18.0589 13.9906 17.9269 14.0313 17.805 14.0313Z"/>
<path d="M21.2382 17.3732H18.6988C18.2824 17.3732 17.937 17.0279 17.937 16.6114C17.937 16.195 18.2824 15.8496 18.6988 15.8496H21.2382C21.6546 15.8496 22 16.195 22 16.6114C22 17.0279 21.6546 17.3732 21.2382 17.3732Z"/>
<path d="M11.9949 11.9897C9.4454 11.9897 7.36313 14.0619 7.36313 16.6215C7.36313 17.038 7.70848 17.3833 8.12494 17.3833H15.8547C16.2712 17.3833 16.6166 17.038 16.6166 16.6215C16.6267 14.0619 14.5546 11.9897 11.9949 11.9897Z"/>
</svg>
