<svg>
<path d="M5.30117 17.3733H2.76181C2.34535 17.3733 2 17.0381 2 16.6115C2 16.1849 2.34535 15.8497 2.76181 15.8497H5.30117C5.71762 15.8497 6.06298 16.195 6.06298 16.6115C6.06298 17.0279 5.71762 17.3733 5.30117 17.3733Z"/>
<path d="M6.19503 14.0315C6.06298 14.0315 5.94109 13.9909 5.81921 13.9299L3.61504 12.6602C3.24937 12.4469 3.12748 11.9797 3.34079 11.614C3.5541 11.2484 4.02134 11.1265 4.37685 11.3398L6.58101 12.6095C6.94668 12.8126 7.06857 13.2799 6.85526 13.6455C6.71306 13.8893 6.45912 14.0315 6.19503 14.0315Z"/>
<path d="M8.65312 11.5734C8.38902 11.5734 8.13509 11.4414 7.99288 11.1874L6.7232 8.99341C6.5099 8.62775 6.63179 8.17066 6.99745 7.95735C7.36312 7.74405 7.83036 7.8761 8.03351 8.23161L9.31335 10.4358C9.5165 10.8014 9.39461 11.2585 9.02894 11.4718C8.90705 11.5429 8.77501 11.5734 8.65312 11.5734Z"/>
<path d="M11.9949 10.6796C11.5785 10.6796 11.2331 10.3342 11.2331 9.91774V7.37839C11.2331 6.96193 11.5785 6.61658 11.9949 6.61658C12.4114 6.61658 12.7567 6.96193 12.7567 7.37839V9.91774C12.7567 10.3342 12.4215 10.6796 11.9949 10.6796Z"/>
<path d="M15.3469 11.5734C15.2148 11.5734 15.0828 11.5429 14.9711 11.4718C14.6054 11.2585 14.4835 10.7913 14.6968 10.4358L15.9665 8.24177C16.1798 7.8761 16.647 7.75421 17.0025 7.96752C17.3682 8.18083 17.4901 8.64807 17.2768 9.00358L16.0071 11.1976C15.8649 11.4414 15.611 11.5734 15.3469 11.5734Z"/>
<path d="M17.805 14.0315C17.5409 14.0315 17.287 13.8995 17.1447 13.6455C16.9314 13.2799 17.0533 12.8126 17.419 12.6095L19.613 11.3398C19.9787 11.1265 20.4459 11.2585 20.6491 11.614C20.8624 11.9797 20.7303 12.4469 20.3748 12.6501L18.1808 13.9299C18.0589 13.9909 17.9269 14.0315 17.805 14.0315Z"/>
<path d="M21.2382 17.3733H18.6988C18.2824 17.3733 17.937 17.0279 17.937 16.6115C17.937 16.195 18.2824 15.8497 18.6988 15.8497H21.2382C21.6546 15.8497 22 16.195 22 16.6115C22 17.0279 21.6546 17.3733 21.2382 17.3733Z"/>
<path fill-rule="evenodd" clip-rule="evenodd" d="M6.58101 12.6095L4.37685 11.3398C4.02134 11.1265 3.5541 11.2484 3.34079 11.614C3.12748 11.9797 3.24937 12.4469 3.61504 12.6602L5.81921 13.9299C5.94109 13.9909 6.06298 14.0315 6.19503 14.0315C6.45912 14.0315 6.71306 13.8893 6.85526 13.6455C7.06857 13.2799 6.94668 12.8126 6.58101 12.6095ZM7.99288 11.1874C8.13509 11.4414 8.38902 11.5734 8.65312 11.5734C8.77501 11.5734 8.90705 11.5429 9.02894 11.4718C9.39461 11.2585 9.5165 10.8014 9.31335 10.4358L8.03351 8.23161C7.83036 7.8761 7.36312 7.74405 6.99745 7.95735C6.63179 8.17066 6.5099 8.62775 6.7232 8.99341L7.99288 11.1874ZM16.6166 16.6216C16.6267 14.062 14.5546 11.9899 11.9949 11.9899C9.4454 11.9899 7.36313 14.062 7.36313 16.6216C7.36313 17.0381 7.70848 17.3835 8.12493 17.3835H15.8547C16.2712 17.3835 16.6166 17.0381 16.6166 16.6216ZM17.1447 13.6455C17.287 13.8995 17.5409 14.0315 17.805 14.0315C17.9269 14.0315 18.0589 13.9909 18.1808 13.9299L20.3748 12.6501C20.7303 12.4469 20.8624 11.9797 20.6491 11.614C20.4459 11.2585 19.9787 11.1265 19.613 11.3398L17.419 12.6095C17.0533 12.8126 16.9314 13.2799 17.1447 13.6455ZM14.9711 11.4718C15.0828 11.5429 15.2148 11.5734 15.3469 11.5734C15.611 11.5734 15.8649 11.4414 16.0071 11.1976L17.2768 9.00358C17.4901 8.64807 17.3682 8.18083 17.0025 7.96752C16.647 7.75421 16.1798 7.8761 15.9665 8.24177L14.6968 10.4358C14.4835 10.7913 14.6054 11.2585 14.9711 11.4718ZM15.61 16.3835C15.4966 14.4891 13.9242 12.9899 11.9949 12.9899C10.076 12.9899 8.49402 14.4885 8.37084 16.3835H15.61ZM11.2331 9.91774C11.2331 10.3342 11.5785 10.6796 11.9949 10.6796C12.4215 10.6796 12.7567 10.3342 12.7567 9.91774V7.37839C12.7567 6.96193 12.4114 6.61658 11.9949 6.61658C11.5785 6.61658 11.2331 6.96193 11.2331 7.37839V9.91774ZM2.76181 17.3733H5.30117C5.71762 17.3733 6.06298 17.0279 6.06298 16.6115C6.06298 16.195 5.71762 15.8497 5.30117 15.8497H2.76181C2.34535 15.8497 2 16.1849 2 16.6115C2 17.0381 2.34535 17.3733 2.76181 17.3733ZM21.2382 17.3733H18.6988C18.2824 17.3733 17.937 17.0279 17.937 16.6115C17.937 16.195 18.2824 15.8497 18.6988 15.8497H21.2382C21.6546 15.8497 22 16.195 22 16.6115C22 17.0279 21.6546 17.3733 21.2382 17.3733Z"/>
</svg>
