<svg width="24" height="24" viewBox="0 0 24 24" xmlns="http://www.w3.org/2000/svg">
<path fill-rule="evenodd" clip-rule="evenodd" d="M12.8603 7.4395C13.054 7.70049 13.0564 8.05871 12.8675 8.32209L12.7877 8.41604L12.7036 8.48866C12.4426 8.68231 12.0844 8.6847 11.821 8.49584L11.727 8.41604L8.89367 5.58343L8.89309 10.9714L8.88625 11.0732C8.83658 11.4393 8.52279 11.7214 8.14309 11.7214C7.7634 11.7214 7.4496 11.4393 7.39994 11.0732L7.39309 10.9714L7.39367 5.58143L4.55914 8.41604L4.47502 8.48866C4.18141 8.70652 3.76475 8.68231 3.49848 8.41604C3.23221 8.14978 3.20801 7.73311 3.42586 7.4395L3.49848 7.35538L7.61276 3.2411L7.69688 3.16848C7.95787 2.97483 8.31608 2.97244 8.57947 3.16131L8.67342 3.2411L12.7877 7.35538L12.8603 7.4395ZM20.5746 16.5605L20.502 16.6446L16.3877 20.7589C16.1214 21.0252 15.7048 21.0494 15.4112 20.8315L15.327 20.7589L11.2128 16.6446C10.9199 16.3517 10.9199 15.8768 11.2128 15.584C11.479 15.3177 11.8957 15.2935 12.1893 15.5113L12.2734 15.584L15.1077 18.4174L15.1074 13.0286C15.1074 12.6144 15.4432 12.2786 15.8574 12.2786C16.2371 12.2786 16.5509 12.5607 16.6005 12.9268L16.6074 13.0286L16.6077 18.4174L19.4413 15.584C19.7076 15.3177 20.1243 15.2935 20.4179 15.5113L20.502 15.584C20.7683 15.8502 20.7925 16.2669 20.5746 16.5605Z"/>
</svg>
