<svg width="24" height="24" viewBox="0 0 24 24" xmlns="http://www.w3.org/2000/svg">
  <g>
    <path d="M7.43950263,11.1399089 C7.70049063,10.9462605 8.05870504,10.9438698 8.32209369,11.1327367 L8.41604437,11.2125271 L8.48866253,11.2966455 C8.68231093,11.5576335 8.68470166,11.9158479 8.49583469,12.1792365 L8.41604437,12.2731872 L5.58342857,15.1065714 L10.9714286,15.1071429 L11.0731991,15.1139895 C11.4392747,15.1636519 11.7214286,15.4774471 11.7214286,15.8571429 C11.7214286,16.2368386 11.4392747,16.5506338 11.0731991,16.6002962 L10.9714286,16.6071429 L5.58142857,16.6065714 L8.41604437,19.4410985 L8.48866253,19.5252169 C8.70651699,19.8188284 8.68231093,20.2354921 8.41604437,20.5017587 C8.14977781,20.7680252 7.73311413,20.7922313 7.43950263,20.5743768 L7.3553842,20.5017587 L3.24109849,16.3874729 L3.16848033,16.3033545 C2.97483192,16.0423665 2.9724412,15.6841521 3.16130817,15.4207635 L3.24109849,15.3268128 L7.3553842,11.2125271 L7.43950263,11.1399089 Z M16.5604974,3.42562319 L16.6446158,3.49824134 L20.7589015,7.61252706 C21.0251681,7.87879362 21.0493741,8.2954573 20.8315197,8.5890688 L20.7589015,8.67318723 L16.6446158,12.7874729 C16.3517226,13.0803662 15.8768488,13.0803662 15.5839556,12.7874729 C15.3176891,12.5212064 15.293483,12.1045427 15.5113375,11.8109312 L15.5839556,11.7268128 L18.4174286,8.89257143 L13.0285714,8.89285714 C12.6143579,8.89285714 12.2785714,8.55707071 12.2785714,8.14285714 C12.2785714,7.76316138 12.5607253,7.44936618 12.9268009,7.39970376 L13.0285714,7.39285714 L18.4174286,7.39257143 L15.5839556,4.55890151 C15.3176891,4.29263495 15.293483,3.87597127 15.5113375,3.58235978 L15.5839556,3.49824134 C15.8502222,3.23197478 16.2668859,3.20776873 16.5604974,3.42562319 Z"></path>
  </g>
</svg>
