<svg width="24" height="24" viewBox="0 0 24 24" xmlns="http://www.w3.org/2000/svg">
<path fill-rule="evenodd" clip-rule="evenodd" d="M7.43956 11.1399C7.70055 10.9463 8.05876 10.9439 8.32215 11.1327L8.4161 11.2125L8.48872 11.2966C8.68237 11.5576 8.68476 11.9158 8.49589 12.1792L8.4161 12.2732L5.58348 15.1066L10.9715 15.1071L11.0733 15.114C11.4393 15.1637 11.7215 15.4774 11.7215 15.8571C11.7215 16.2368 11.4393 16.5506 11.0733 16.6003L10.9715 16.6071L5.58148 16.6066L8.4161 19.4411L8.48872 19.5252C8.70657 19.8188 8.68237 20.2355 8.4161 20.5018C8.14983 20.768 7.73317 20.7922 7.43956 20.5744L7.35544 20.5018L3.24115 16.3875L3.16854 16.3034C2.97489 16.0424 2.9725 15.6842 3.16136 15.4208L3.24115 15.3268L7.35544 11.2125L7.43956 11.1399ZM16.5606 3.42562L16.6447 3.49824L20.759 7.61253C21.0252 7.87879 21.0494 8.29546 20.8316 8.58907L20.759 8.67319L16.6447 12.7875C16.3518 13.0804 15.8769 13.0804 15.584 12.7875C15.3177 12.5212 15.2935 12.1045 15.5114 11.8109L15.584 11.7268L18.4175 8.89257L13.0286 8.89286C12.6144 8.89286 12.2786 8.55707 12.2786 8.14286C12.2786 7.76316 12.5608 7.44937 12.9269 7.3997L13.0286 7.39286L18.4175 7.39257L15.584 4.5589C15.3177 4.29264 15.2935 3.87597 15.5114 3.58236L15.584 3.49824C15.8503 3.23198 16.2669 3.20777 16.5606 3.42562Z"/>
</svg>
