<svg width="24" height="24" viewBox="0 0 24 24" xmlns="http://www.w3.org/2000/svg">
<path fill-rule="evenodd" clip-rule="evenodd" d="M3.2153 12.6053C3.2153 8.39818 6.17263 4.88177 10.1219 4.02149C10.1184 3.97854 10.1167 3.93336 10.1167 3.88585C10.1167 2.84527 10.9602 2.00171 12.0008 2.00171C13.0414 2.00171 13.8849 2.84527 13.8849 3.88585C13.8849 3.93342 13.8832 3.97866 13.8797 4.02166C17.8286 4.88223 20.7855 8.39845 20.7855 12.6053V13.313H20.9038C21.318 13.313 21.6538 13.6488 21.6538 14.063C21.6538 14.4772 21.318 14.813 20.9038 14.813H19.8149V20.4984H20.9038C21.318 20.4984 21.6538 20.8342 21.6538 21.2484C21.6538 21.6626 21.318 21.9984 20.9038 21.9984H3.0957C2.68149 21.9984 2.3457 21.6626 2.3457 21.2484C2.3457 20.8342 2.68149 20.4984 3.0957 20.4984H4.2485V14.813H3.0957C2.68149 14.813 2.3457 14.4772 2.3457 14.063C2.3457 13.6488 2.68149 13.313 3.0957 13.313H3.2153V12.6053ZM18.3149 14.813H15.1264V20.4984H18.3149V14.813ZM13.6264 14.813H10.4399V20.4984H13.6264V14.813ZM8.93991 14.813H5.7485V20.4984H8.93991V14.813ZM8.37236 10.7208C8.99007 10.7208 9.49082 10.22 9.49082 9.60234C9.49082 8.98464 8.99007 8.48389 8.37236 8.48389C7.75466 8.48389 7.25391 8.98464 7.25391 9.60234C7.25391 10.22 7.75466 10.7208 8.37236 10.7208ZM13.1182 9.60234C13.1182 10.22 12.6175 10.7208 11.9998 10.7208C11.3821 10.7208 10.8813 10.22 10.8813 9.60234C10.8813 8.98464 11.3821 8.48389 11.9998 8.48389C12.6175 8.48389 13.1182 8.98464 13.1182 9.60234ZM15.6263 10.7208C16.244 10.7208 16.7447 10.22 16.7447 9.60234C16.7447 8.98464 16.244 8.48389 15.6263 8.48389C15.0086 8.48389 14.5078 8.98464 14.5078 9.60234C14.5078 10.22 15.0086 10.7208 15.6263 10.7208Z"/>
</svg>
