<svg>
<path fill-rule="evenodd" clip-rule="evenodd" d="M10.5 2.5C6.08172 2.5 2.5 6.08172 2.5 10.5C2.5 14.9183 6.08172 18.5 10.5 18.5C12.2575 18.5 13.8836 17.9328 15.2037 16.9717L19.3791 21.1468L19.491 21.2435L19.5059 21.2545C19.9956 21.6179 20.6898 21.578 21.1339 21.1339C21.622 20.6457 21.622 19.8543 21.1339 19.3661L16.9717 15.2037C17.9328 13.8836 18.5 12.2575 18.5 10.5C18.5 6.08172 14.9183 2.5 10.5 2.5ZM5 10.5C5 7.46243 7.46243 5 10.5 5C13.5376 5 16 7.46243 16 10.5C16 13.5376 13.5376 16 10.5 16C7.46243 16 5 13.5376 5 10.5Z"/>
</svg>
