<svg xmlns="http://www.w3.org/2000/svg" width="24" height="24" viewBox="0 0 24 24">
  <path fill="#626B79" fill-rule="evenodd" d="M10.5,3 C14.6421356,3 18,6.35786438 18,10.5 C18,12.3008877 17.3652718,13.9535267 16.3073234,15.246409 L20.7803301,19.7196699 C21.0732233,20.0125631 21.0732233,20.4874369 20.7803301,20.7803301 C20.5140635,21.0465966 20.0973998,21.0708027 19.8037883,20.8529482 L19.7196699,20.7803301 L15.246409,16.3073234 C13.9535267,17.3652718 12.3008877,18 10.5,18 C6.35786438,18 3,14.6421356 3,10.5 C3,6.35786438 6.35786438,3 10.5,3 Z M10.5,4.5 C7.1862915,4.5 4.5,7.1862915 4.5,10.5 C4.5,13.8137085 7.1862915,16.5 10.5,16.5 C13.8137085,16.5 16.5,13.8137085 16.5,10.5 C16.5,7.1862915 13.8137085,4.5 10.5,4.5 Z"/>
</svg>
