<svg width="24" height="24" viewBox="0 0 24 24" xmlns="http://www.w3.org/2000/svg">
<path fill-rule="evenodd" clip-rule="evenodd" d="M10.5 3C14.6421 3 18 6.35786 18 10.5C18 12.3009 17.3653 13.9535 16.3073 15.2464L20.7803 19.7197C21.0732 20.0126 21.0732 20.4874 20.7803 20.7803C20.5141 21.0466 20.0974 21.0708 19.8038 20.8529L19.7197 20.7803L15.2464 16.3073C13.9535 17.3653 12.3009 18 10.5 18C6.35786 18 3 14.6421 3 10.5C3 6.35786 6.35786 3 10.5 3ZM10.5 4.5C7.18629 4.5 4.5 7.18629 4.5 10.5C4.5 13.8137 7.18629 16.5 10.5 16.5C13.8137 16.5 16.5 13.8137 16.5 10.5C16.5 7.18629 13.8137 4.5 10.5 4.5ZM10.5 15C12.9853 15 15 12.9853 15 10.5C15 8.01472 12.9853 6 10.5 6C8.01472 6 6 8.01472 6 10.5C6 12.9853 8.01472 15 10.5 15Z"/>
</svg>
