<svg xmlns="http://www.w3.org/2000/svg" width="24" height="24" viewBox="0 0 24 24">
  <path fill="#626B79" fill-rule="evenodd" d="M13,2 C14.5187831,2 15.75,3.23121694 15.75,4.75 C15.75,4.92087636 15.734415,5.08811265 15.7045889,5.25036495 L15.75,5.25 C16.6681734,5.25 17.4211923,5.95711027 17.4941988,6.85647279 L17.5,7 L17.5006518,14.6976355 C18.2518865,15.1895355 18.75,16.0386544 18.75,17 C18.75,18.2540655 17.9023636,19.3171555 16.7509346,19.6454261 L16.75,21.25 C16.75,21.6642136 16.4142136,22 16,22 C15.6203042,22 15.306509,21.7178461 15.2568466,21.3517706 L15.25,21.25 L15.25,19.75 L8.75,19.75 L8.75,21.25 C8.75,21.6642136 8.41421356,22 8,22 C7.62030423,22 7.30650904,21.7178461 7.25684662,21.3517706 L7.25,21.25 L7.25006211,19.64571 C6.09812562,19.3177689 5.25,18.2544273 5.25,17 C5.25,16.0384909 5.74828289,15.1892467 6.49973147,14.6973846 L6.5,7 C6.5,6.0818266 7.20711027,5.32880766 8.10647279,5.2558012 L8.29541112,5.25036495 C8.26558501,5.08811265 8.25,4.92087636 8.25,4.75 C8.25,3.28746816 9.3917046,2.09159572 10.8324777,2.00501879 L11,2 L13,2 Z M16,15.75 L8,15.75 C7.31421356,15.75 6.75,16.3142136 6.75,17 C6.75,17.6429248 7.24589083,18.1789984 7.87294779,18.2434962 L8,18.25 L16,18.25 C16.6857864,18.25 17.25,17.6857864 17.25,17 C17.25,16.3570752 16.7541092,15.8210016 16.1270522,15.7565038 L16,15.75 Z M5,11.25 C5.37969577,11.25 5.69349096,11.5321539 5.74315338,11.8982294 L5.75,12 L5.75,14 C5.75,14.4142136 5.41421356,14.75 5,14.75 C4.62030423,14.75 4.30650904,14.4678461 4.25684662,14.1017706 L4.25,14 L4.25,12 C4.25,11.5857864 4.58578644,11.25 5,11.25 Z M19,11.25 C19.3796958,11.25 19.693491,11.5321539 19.7431534,11.8982294 L19.75,12 L19.75,14 C19.75,14.4142136 19.4142136,14.75 19,14.75 C18.6203042,14.75 18.306509,14.4678461 18.2568466,14.1017706 L18.25,14 L18.25,12 C18.25,11.5857864 18.5857864,11.25 19,11.25 Z M14.8875019,6.74996903 C14.4442439,7.16845104 13.8619097,7.44119052 13.2171331,7.49155359 L13,7.5 L11,7.5 C10.2692149,7.5 9.60500694,7.21494904 9.11249814,6.74996903 L8,6.74996903 L8,14.25 L16,14.25 L16,6.74996903 L14.8875019,6.74996903 Z M13,3.5 L11,3.5 C10.3096441,3.5 9.75,4.05964406 9.75,4.75 C9.75,5.39720869 10.2418747,5.9295339 10.8721948,5.99354639 L11,6 L13,6 C13.6903559,6 14.25,5.44035594 14.25,4.75 C14.25,4.10279131 13.7581253,3.5704661 13.1278052,3.50645361 L13,3.5 Z"/>
</svg>
