<svg>
<path fill-rule="evenodd" clip-rule="evenodd" d="M15.807 5.25091C15.4372 5.97582 14.6835 6.47222 13.8139 6.47222H10.2361L10.0075 6.46068C9.2361 6.38234 8.58062 5.91193 8.24348 5.25186L8.10647 5.2558C7.20711 5.32881 6.5 6.08183 6.5 7L6.49973 14.6974C5.74828 15.1892 5.25 16.0385 5.25 17C5.25 18.2544 6.09813 19.3178 7.25006 19.6457L7.25 21.25L7.25685 21.3518C7.30651 21.7178 7.6203 22 8 22C8.41421 22 8.75 21.6642 8.75 21.25V19.75H15.25V21.25L15.2568 21.3518C15.3065 21.7178 15.6203 22 16 22C16.4142 22 16.75 21.6642 16.75 21.25L16.7509 19.6454C17.9024 19.3172 18.75 18.2541 18.75 17C18.75 16.0387 18.2519 15.1895 17.5007 14.6976L17.5 7L17.4942 6.85647C17.4227 5.97579 16.6992 5.27946 15.807 5.25091ZM5 11.25C5.3797 11.25 5.69349 11.5322 5.74315 11.8982L5.75 12V14C5.75 14.4142 5.41421 14.75 5 14.75C4.6203 14.75 4.30651 14.4678 4.25685 14.1018L4.25 14V12C4.25 11.5858 4.58579 11.25 5 11.25ZM19 11.25C19.3797 11.25 19.6935 11.5322 19.7432 11.8982L19.75 12V14C19.75 14.4142 19.4142 14.75 19 14.75C18.6203 14.75 18.3065 14.4678 18.2568 14.1018L18.25 14V12C18.25 11.5858 18.5858 11.25 19 11.25ZM17.5 14.7H6.5V13.7H17.5V14.7Z"/>
<path d="M10.4111 1.69995H13.3889L13.5792 1.70956C14.5177 1.80487 15.25 2.59744 15.25 3.56106C15.25 4.58892 14.4167 5.42217 13.3889 5.42217H10.4111L10.2208 5.41256C9.28235 5.31726 8.55 4.52468 8.55 3.56106C8.55 2.5332 9.38325 1.69995 10.4111 1.69995Z"/>
</svg>
