<svg>
<path fill-rule="evenodd" clip-rule="evenodd" d="M8.44317 2.08675C9.25972 1.7744 10.1463 2.17869 10.5834 2.93582L11.1712 3.95387C11.3563 4.27449 11.7098 4.45328 12.08 4.45328C12.402 4.45328 12.7103 4.29722 12.8712 4.01837L13.4895 2.94669C13.926 2.19023 14.811 1.7858 15.6276 2.09544C16.6225 2.47267 17.5604 3.00714 18.4006 3.68948C19.0781 4.23964 19.1702 5.20793 18.734 5.96381L18.1288 7.01249C17.9557 7.31235 17.9801 7.67852 18.1525 7.97875C18.3246 8.27844 18.6303 8.48255 18.9759 8.48255H20.1874C21.0606 8.48255 21.8534 9.0469 21.9909 9.90916C22.1613 10.9777 22.1552 12.057 21.9844 13.107C21.8442 13.9686 21.0519 14.5326 20.1789 14.5326H18.9814C18.6347 14.5326 18.3238 14.7344 18.1488 15.0336C17.9746 15.3316 17.9545 15.7015 18.1271 16.0004L18.7351 17.0534C19.1724 17.811 19.0788 18.7814 18.3996 19.3327C17.9909 19.6644 17.5512 19.9684 17.0811 20.2401C16.611 20.5112 16.1278 20.7401 15.6363 20.9282C14.8197 21.2406 13.9332 20.8365 13.4961 20.0793L12.9078 19.0603C12.723 18.7403 12.3701 18.5619 12.0006 18.5619C11.6779 18.5619 11.369 18.7183 11.2077 18.9977L10.59 20.0685C10.1535 20.8249 9.26845 21.2293 8.45185 20.9197C7.45695 20.5425 6.51913 20.008 5.67887 19.3257C5.00138 18.7755 4.90925 17.8072 5.34549 17.0513L5.9507 16.0027C6.12376 15.7028 6.09942 15.3366 5.92699 15.0364C5.7548 14.7366 5.44931 14.5326 5.10356 14.5326H3.89204C3.01889 14.5326 2.22604 13.9683 2.08854 13.106C1.91814 12.0374 1.92425 10.9581 2.09509 9.90815C2.23528 9.04653 3.02763 8.48255 3.90058 8.48255H5.09813C5.44483 8.48255 5.75566 8.28079 5.93069 7.98151C6.10494 7.68357 6.12494 7.31366 5.95237 7.01474L5.34443 5.96173C4.90707 5.20418 5.00068 4.23372 5.67988 3.68248C6.08857 3.35079 6.52833 3.04674 6.9984 2.77507C7.46895 2.50348 7.95196 2.27465 8.44317 2.08675ZM12.0398 14.4267C13.5237 14.4267 14.7267 13.2237 14.7267 11.7398C14.7267 10.2558 13.5237 9.05286 12.0398 9.05286C10.5558 9.05286 9.35284 10.2558 9.35284 11.7398C9.35284 13.2237 10.5558 14.4267 12.0398 14.4267Z"/>
</svg>
