<svg width="24" height="24" viewBox="0 0 24 24" xmlns="http://www.w3.org/2000/svg">
<path fill-rule="evenodd" clip-rule="evenodd" d="M8.44311 2.08669C9.25966 1.77434 10.1462 2.17863 10.5834 2.93576L11.1711 3.95381C11.3562 4.27443 11.7098 4.45322 12.08 4.45322C12.4019 4.45322 12.7103 4.29716 12.8711 4.01831L13.4895 2.94663C13.9259 2.19017 14.811 1.78574 15.6276 2.09537C16.6225 2.47261 17.5603 3.00708 18.4006 3.68942C19.078 4.23958 19.1702 5.20787 18.7339 5.96375L18.1287 7.01243C17.9557 7.31229 17.98 7.67846 18.1524 7.97869C18.3246 8.27838 18.6303 8.48249 18.9759 8.48249H20.1874C21.0605 8.48249 21.8534 9.04684 21.9909 9.9091C22.1613 10.9777 22.1552 12.057 21.9843 13.1069C21.8442 13.9686 21.0518 14.5325 20.1789 14.5325H18.9813C18.6346 14.5325 18.3238 14.7343 18.1487 15.0336C17.9745 15.3315 17.9545 15.7014 18.1271 16.0003L18.735 17.0534C19.1724 17.8109 19.0787 18.7814 18.3996 19.3326C17.9909 19.6643 17.5511 19.9684 17.081 20.24C16.6109 20.5111 16.1277 20.74 15.6362 20.9281C14.8197 21.2406 13.9331 20.8364 13.496 20.0793L12.9077 19.0602C12.7229 18.7402 12.37 18.5618 12.0005 18.5618C11.6779 18.5618 11.3689 18.7182 11.2077 18.9977L10.5899 20.0684C10.1534 20.8249 9.26839 21.2293 8.45179 20.9197C7.45689 20.5424 6.51906 20.0079 5.6788 19.3256C5.00132 18.7754 4.90919 17.8072 5.34543 17.0513L5.95064 16.0026C6.12369 15.7027 6.09936 15.3366 5.92693 15.0363C5.75474 14.7365 5.44925 14.5325 5.1035 14.5325H3.89198C3.01883 14.5325 2.22598 13.9682 2.08848 13.1059C1.91808 12.0373 1.92419 10.9581 2.09503 9.90809C2.23522 9.04647 3.02757 8.48249 3.90052 8.48249H5.09807C5.44477 8.48249 5.7556 8.28073 5.93063 7.98145C6.10488 7.68351 6.12488 7.3136 5.95231 7.01468L5.34437 5.96167C4.90701 5.20412 5.00062 4.23366 5.67982 3.68242C6.08851 3.35073 6.52827 3.04667 6.99834 2.77501C7.46888 2.50341 7.9519 2.27458 8.44311 2.08669ZM12.0397 14.4266C13.5236 14.4266 14.7266 13.2237 14.7266 11.7397C14.7266 10.2558 13.5236 9.0528 12.0397 9.0528C10.5558 9.0528 9.35278 10.2558 9.35278 11.7397C9.35278 13.2237 10.5558 14.4266 12.0397 14.4266Z"/>
</svg>
