<svg width="24" height="24" viewBox="0 0 24 24" fill="none" xmlns="http://www.w3.org/2000/svg">
<path fill-rule="evenodd" clip-rule="evenodd" d="M8.92153 4.13125C9.31737 3.97187 9.8382 4.14535 10.1281 4.64747L10.5746 5.42093C10.8912 5.96917 11.4736 6.24202 12.036 6.24202C12.5554 6.24202 13.0975 5.98933 13.3923 5.47836L13.8663 4.65684C14.1555 4.1555 14.6759 3.98094 15.0728 4.13935C15.7944 4.42732 16.4768 4.81696 17.0967 5.30259C17.431 5.5644 17.541 6.10036 17.2515 6.60196L16.7892 7.40305C16.4803 7.93826 16.5445 8.55289 16.8096 9.01454C17.0762 9.47872 17.5787 9.84102 18.1955 9.84102H19.121C19.7004 9.84102 20.1097 10.2046 20.1692 10.6253C20.2796 11.4049 20.2757 12.1906 20.1643 12.9592C20.103 13.3819 19.692 13.745 19.1134 13.745H18.2003C17.5902 13.745 17.082 14.0976 16.8093 14.5639C16.5346 15.0336 16.4829 15.653 16.7878 16.1811L17.2523 16.9857C17.5423 17.4879 17.4321 18.0263 17.0955 18.2899C16.793 18.5268 16.4704 18.7456 16.128 18.9435C15.7855 19.141 15.4347 19.3111 15.0783 19.4546C14.6824 19.614 14.1617 19.4406 13.8719 18.9386L13.4248 18.1642C13.1086 17.6165 12.5266 17.344 11.965 17.344C11.4449 17.344 10.9023 17.5971 10.6072 18.1085L10.1337 18.9292C9.84443 19.4305 9.32411 19.6051 8.92717 19.4467C8.20558 19.1587 7.5232 18.7691 6.90323 18.2834C6.56899 18.0216 6.45893 17.4857 6.74841 16.9841L7.21074 16.183C7.51962 15.6478 7.45549 15.0331 7.19035 14.5715C6.9237 14.1072 6.42136 13.745 5.80448 13.745H4.87899C4.2996 13.745 3.89024 13.3815 3.83071 12.9608C3.7204 12.1812 3.72422 11.3955 3.83569 10.6268C3.89697 10.2041 4.308 9.84102 4.88656 9.84102H5.79962C6.40979 9.84102 6.91795 9.48847 7.19069 9.02212C7.46539 8.55241 7.51704 7.93302 7.21217 7.40496L6.74765 6.60036C6.45768 6.09811 6.5679 5.5597 6.90446 5.2961C7.20701 5.05915 7.52972 4.84033 7.87225 4.64238C8.215 4.44456 8.56556 4.27457 8.92153 4.13125ZM11.4271 3.89749C10.8428 2.88534 9.58742 2.24612 8.36129 2.7398C7.9404 2.90926 7.52633 3.1101 7.12205 3.34346L7.1217 3.34366C6.71783 3.57706 6.33691 3.83531 5.97957 4.11519C4.9388 4.93032 4.86385 6.3375 5.4486 7.35035L5.91312 8.15494C5.91579 8.15956 5.9201 8.16942 5.9195 8.18866C5.91885 8.20929 5.91231 8.23674 5.89587 8.26486C5.87768 8.29596 5.85518 8.31689 5.83622 8.32854C5.81853 8.33942 5.80653 8.34102 5.79962 8.34102H4.88656C3.71923 8.34102 2.54047 9.10637 2.35121 10.4115C2.21961 11.3191 2.21492 12.248 2.34551 13.1709C2.53064 14.4793 3.71207 15.245 4.87899 15.245H5.80448C5.80833 15.245 5.81688 15.2456 5.83197 15.255C5.84865 15.2655 5.87084 15.2859 5.88961 15.3185C5.90933 15.3529 5.91604 15.3835 5.91677 15.4037C5.91743 15.4219 5.91358 15.4297 5.91157 15.4332L5.44924 16.2343C4.86625 17.2445 4.9384 18.6498 5.97826 19.4643C6.71236 20.0393 7.51933 20.4999 8.37119 20.8398C9.59653 21.3288 10.8493 20.6904 11.4329 19.6788L11.9055 18.8598C11.9065 18.859 11.9085 18.8576 11.912 18.8557C11.9223 18.8501 11.9408 18.844 11.965 18.844C12.0635 18.844 12.112 18.8903 12.1258 18.9142L12.5728 19.6885C13.1572 20.7008 14.4126 21.3397 15.6386 20.846C16.0597 20.6764 16.4738 20.4756 16.8777 20.2427L16.8783 20.2424C17.2821 20.009 17.663 19.7507 18.0204 19.4708C19.0612 18.6557 19.1361 17.2485 18.5514 16.2357L18.0868 15.4311C18.0842 15.4265 18.0799 15.4166 18.0805 15.3974C18.0811 15.3767 18.0876 15.3493 18.1041 15.3212C18.1223 15.2901 18.1448 15.2691 18.1637 15.2575C18.1814 15.2466 18.1934 15.245 18.2003 15.245H19.1134C20.2807 15.245 21.4595 14.4797 21.6487 13.1745C21.7803 12.267 21.785 11.338 21.6545 10.4151C21.4693 9.10672 20.2879 8.34102 19.121 8.34102H18.1955C18.1918 8.34102 18.1832 8.3405 18.168 8.33095C18.1512 8.32042 18.129 8.3 18.1103 8.26749C18.0906 8.23316 18.0839 8.20255 18.0832 8.18233C18.0825 8.16411 18.0864 8.1563 18.0884 8.15282L18.5507 7.35173C19.1337 6.34157 19.0616 4.93625 18.0217 4.12173C17.2876 3.54671 16.4806 3.08615 15.6288 2.74619C14.4034 2.25719 13.1507 2.89564 12.567 3.90722L12.0942 4.72678C12.0932 4.72756 12.0913 4.72888 12.0882 4.73056C12.0781 4.73599 12.0599 4.74202 12.036 4.74202C11.937 4.74202 11.8878 4.69546 11.8737 4.67094L11.4271 3.89749ZM12 15.5C13.933 15.5 15.5 13.933 15.5 12C15.5 10.067 13.933 8.50002 12 8.50002C10.067 8.50002 8.5 10.067 8.5 12C8.5 13.933 10.067 15.5 12 15.5ZM14 12C14 13.1046 13.1046 14 12 14C10.8954 14 10 13.1046 10 12C10 10.8954 10.8954 10 12 10C13.1046 10 14 10.8954 14 12Z"/>
</svg>
