<svg xmlns="http://www.w3.org/2000/svg" width="24" height="24" viewBox="0 0 24 24">
  <path fill="#626B79" fill-rule="evenodd" d="M14.1555682,2.74411614 C15.3956539,3.54131407 16.1698015,4.88558232 16.244116,6.34850349 L16.25,6.58041462 L16.25,7.1050217 L18.25,7.10562752 C19.1681734,7.10562752 19.9211923,7.81273779 19.9941988,8.71210031 L20,8.85562752 L20,20.3556275 C20,21.2738009 19.2928897,22.0268199 18.3935272,22.0998263 L18.25,22.1056275 L5.75,22.1056275 C4.8318266,22.1056275 4.07880766,21.3985172 4.0058012,20.4991547 L4,20.3556275 L4,8.85562752 C4,7.93745412 4.70711027,7.18443518 5.60647279,7.11142872 L5.75,7.10562752 L7.75,7.1050217 L7.75,6.58041462 C7.75,5.02859968 8.53907848,3.58327186 9.84443181,2.74411614 C11.1575166,1.89999022 12.8424834,1.89999022 14.1555682,2.74411614 Z M18.25,8.60562752 L16.25,8.6050217 L16.25,10 C16.25,10.4142136 15.9142136,10.75 15.5,10.75 C15.1203042,10.75 14.806509,10.4678461 14.7568466,10.1017706 L14.75,10 L14.75,8.6050217 L9.25,8.6050217 L9.25,10 C9.25,10.4142136 8.91421356,10.75 8.5,10.75 C8.12030423,10.75 7.80650904,10.4678461 7.75684662,10.1017706 L7.75,10 L7.75,8.6050217 L5.75,8.60562752 C5.63165327,8.60562752 5.53251318,8.68786093 5.50660268,8.79830481 L5.5,8.85562752 L5.5,20.3556275 C5.5,20.4739743 5.58223341,20.5731143 5.69267729,20.5990248 L5.75,20.6056275 L18.25,20.6056275 C18.3683467,20.6056275 18.4674868,20.5233941 18.4933973,20.4129502 L18.5,20.3556275 L18.5,8.85562752 C18.5,8.73728079 18.4177666,8.6381407 18.3073227,8.6122302 L18.25,8.60562752 Z M10.6555682,4.00588386 C9.83794999,4.53149556 9.32214636,5.41147584 9.2570064,6.37318296 L9.25,6.58041462 L9.25,7.1050217 L14.75,7.1050217 L14.75,6.58041462 C14.75,5.53899531 14.2204513,4.56903926 13.3444318,4.00588386 C12.5254584,3.47940098 11.4745416,3.47940098 10.6555682,4.00588386 Z"/>
</svg>
