<svg width="24" height="24" viewBox="0 0 24 24" xmlns="http://www.w3.org/2000/svg">
<path d="M18.25 8.60563L16.25 8.60502V10C16.25 10.4142 15.9142 10.75 15.5 10.75C15.1203 10.75 14.8065 10.4678 14.7568 10.1018L14.75 10V8.60502H9.25V10C9.25 10.4142 8.91421 10.75 8.5 10.75C8.1203 10.75 7.80651 10.4678 7.75685 10.1018L7.75 10V8.60502L5.75 8.60563C5.63165 8.60563 5.53251 8.68786 5.5066 8.79831L5.5 8.85563V20.3556C5.5 20.474 5.58223 20.5731 5.69268 20.599L5.75 20.6056H18.25C18.3683 20.6056 18.4675 20.5234 18.4934 20.413L18.5 20.3556V8.85563C18.5 8.73728 18.4178 8.63814 18.3073 8.61223L18.25 8.60563Z"/>
<path fill-rule="evenodd" clip-rule="evenodd" d="M14.1556 2.74412C15.3957 3.54132 16.1698 4.88558 16.2441 6.3485L16.25 6.58042V7.10502L18.25 7.10563C19.1682 7.10563 19.9212 7.81274 19.9942 8.7121L20 8.85563V20.3556C20 21.2738 19.2929 22.0268 18.3935 22.0998L18.25 22.1056H5.75C4.83183 22.1056 4.07881 21.3985 4.0058 20.4992L4 20.3556V8.85563C4 7.93746 4.70711 7.18444 5.60647 7.11143L5.75 7.10563L7.75 7.10502V6.58042C7.75 5.0286 8.53908 3.58327 9.84443 2.74412C11.1575 1.89999 12.8425 1.89999 14.1556 2.74412ZM18.25 8.60563L16.25 8.60502H14.75H9.25H7.75L5.75 8.60563C5.63165 8.60563 5.53251 8.68786 5.5066 8.79831L5.5 8.85563V20.3556C5.5 20.474 5.58223 20.5731 5.69268 20.599L5.75 20.6056H18.25C18.3683 20.6056 18.4675 20.5234 18.4934 20.413L18.5 20.3556V8.85563C18.5 8.73728 18.4178 8.63814 18.3073 8.61223L18.25 8.60563ZM10.6556 4.00589C9.83795 4.5315 9.32215 5.41148 9.25701 6.37318L9.25 6.58042V7.10502H14.75V6.58042C14.75 5.539 14.2205 4.56904 13.3444 4.00589C12.5255 3.4794 11.4745 3.4794 10.6556 4.00589Z"/>
</svg>
