<svg width="26" height="27" viewBox="0 0 26 27" fill="none" xmlns="http://www.w3.org/2000/svg">
<path d="M22.647 6.7287L20.5139 4.73682H6.15774L0.355469 6.79603V8.52849H1.96197V10.695H0.355469V12.3202H1.96197V14.4867H0.355469V15.5701H1.96197V17.7366H0.355469V21.0857L6.15774 26.9451H20.5139L22.647 25.2939C26.3561 21.5256 26.51 10.8714 22.647 6.7287Z" fill="#626B79"/>
<path d="M21.0438 16.5422C21.0438 20.5558 17.829 23.7997 13.8755 23.7997C9.92196 23.7997 6.70715 20.5558 6.70715 16.5422C6.70715 12.5285 9.92196 9.28467 13.8755 9.28467C17.829 9.28467 21.0438 12.5285 21.0438 16.5422Z" fill="#222222" stroke="white"/>
<path d="M13.8747 24.5239C18.2323 24.5239 21.7648 20.9503 21.7648 16.542C21.7648 12.1337 18.2323 8.56006 13.8747 8.56006C9.51704 8.56006 5.9845 12.1337 5.9845 16.542C5.9845 20.9503 9.51704 24.5239 13.8747 24.5239Z" fill="#626B79" stroke="white" stroke-miterlimit="10"/>
<path d="M9.14247 11.746L9.134 11.7546C8.89819 11.9931 8.89819 12.3799 9.134 12.6185L10.9043 14.4094C11.1401 14.6479 11.5225 14.6479 11.7583 14.4094L11.7667 14.4008C12.0025 14.1622 12.0025 13.7755 11.7667 13.5369L9.99642 11.746C9.76061 11.5075 9.37828 11.5075 9.14247 11.746Z" fill="white"/>
<path d="M15.9921 18.6747L15.9836 18.6833C15.7478 18.9218 15.7478 19.3086 15.9836 19.5472L17.7539 21.3381C17.9897 21.5766 18.3721 21.5766 18.6079 21.3381L18.6163 21.3295C18.8522 21.091 18.8522 20.7042 18.6163 20.4656L16.846 18.6747C16.6102 18.4362 16.2279 18.4362 15.9921 18.6747Z" fill="white"/>
<path d="M14.2764 12.862C14.2764 13.0057 14.2199 13.1435 14.1195 13.2451C14.0191 13.3467 13.8829 13.4037 13.7408 13.4037C13.5989 13.4036 13.4627 13.3465 13.3623 13.2449C13.2619 13.1434 13.2054 13.0056 13.2053 12.862V10.1538C13.2053 10.0827 13.2192 10.0122 13.2461 9.94648C13.273 9.88076 13.3124 9.82104 13.3622 9.77073C13.4119 9.72043 13.4709 9.68053 13.5359 9.6533C13.6009 9.62608 13.6705 9.61206 13.7408 9.61206C13.8829 9.61206 14.0191 9.66914 14.1195 9.77073C14.2199 9.87233 14.2764 10.0101 14.2764 10.1538V12.862Z" fill="white"/>
<path d="M14.2764 22.612C14.2764 22.7557 14.2199 22.8935 14.1195 22.9951C14.0191 23.0967 13.8829 23.1537 13.7408 23.1537C13.5989 23.1536 13.4627 23.0965 13.3623 22.9949C13.2619 22.8934 13.2054 22.7556 13.2053 22.612V19.9038C13.2053 19.8327 13.2192 19.7622 13.2461 19.6965C13.273 19.6308 13.3124 19.571 13.3622 19.5207C13.4119 19.4704 13.4709 19.4305 13.5359 19.4033C13.6009 19.3761 13.6705 19.3621 13.7408 19.3621C13.8829 19.3621 14.0191 19.4191 14.1195 19.5207C14.2199 19.6223 14.2764 19.7601 14.2764 19.9038V22.612Z" fill="white"/>
<path d="M17.7539 11.7459L15.9836 13.5368C15.7478 13.7754 15.7478 14.1621 15.9836 14.4007L15.9921 14.4093C16.2279 14.6478 16.6102 14.6478 16.846 14.4093L18.6163 12.6184C18.8522 12.3798 18.8522 11.993 18.6163 11.7545L18.6079 11.7459C18.3721 11.5074 17.9897 11.5074 17.7539 11.7459Z" fill="white"/>
<path d="M10.9043 18.6746L9.134 20.4655C8.89819 20.7041 8.89819 21.0908 9.134 21.3294L9.14247 21.338C9.37828 21.5765 9.76061 21.5765 9.99642 21.338L11.7667 19.5471C12.0025 19.3085 12.0025 18.9217 11.7667 18.6832L11.7583 18.6746C11.5225 18.4361 11.1401 18.4361 10.9043 18.6746Z" fill="white"/>
<path d="M20.7032 16.6535C20.7032 16.7247 20.6894 16.7951 20.6624 16.8609C20.6355 16.9266 20.5961 16.9863 20.5463 17.0366C20.4966 17.0869 20.4376 17.1268 20.3726 17.154C20.3076 17.1813 20.238 17.1953 20.1677 17.1953H17.4906C17.3486 17.1952 17.2125 17.138 17.1121 17.0365C17.0117 16.9349 16.9552 16.7972 16.9551 16.6535C16.9551 16.5824 16.9689 16.512 16.9959 16.4462C17.0228 16.3805 17.0622 16.3208 17.1119 16.2705C17.1616 16.2202 17.2207 16.1803 17.2857 16.1531C17.3506 16.1258 17.4203 16.1118 17.4906 16.1118H20.1677C20.238 16.1118 20.3077 16.1257 20.3727 16.1529C20.4377 16.1801 20.4968 16.22 20.5465 16.2704C20.5962 16.3207 20.6357 16.3804 20.6626 16.4462C20.6894 16.5119 20.7032 16.5824 20.7032 16.6535Z" fill="white"/>
<path d="M11.0646 16.6535C11.0646 16.7247 11.0507 16.7951 11.0238 16.8609C10.9969 16.9266 10.9574 16.9863 10.9077 17.0366C10.8579 17.0869 10.7989 17.1268 10.734 17.154C10.669 17.1813 10.5994 17.1953 10.529 17.1953H7.85193C7.7099 17.1953 7.57373 17.1382 7.4733 17.0366C7.37288 16.935 7.31641 16.7972 7.31641 16.6535C7.31641 16.5099 7.37288 16.3721 7.4733 16.2705C7.57373 16.1689 7.7099 16.1118 7.85193 16.1118H10.529C10.5994 16.1118 10.669 16.1258 10.734 16.1531C10.7989 16.1803 10.8579 16.2202 10.9077 16.2705C10.9574 16.3208 10.9969 16.3805 11.0238 16.4462C11.0507 16.512 11.0646 16.5824 11.0646 16.6535Z" fill="white"/>
<path d="M7.09692 6.56473L4.01211 9.68541C3.8968 9.80207 3.83203 9.96029 3.83203 10.1253C3.83203 10.2902 3.8968 10.4484 4.01211 10.5651L4.44689 11.005C4.56234 11.1215 4.71878 11.187 4.88189 11.187C5.04501 11.187 5.2015 11.1215 5.31695 11.005L6.31162 9.99869L7.06583 10.7617L8.16081 9.65399L7.4066 8.89099L8.40176 7.88428C8.51696 7.76756 8.58162 7.60936 8.58162 7.44442C8.58162 7.27949 8.51696 7.12129 8.40176 7.00457L7.96692 6.56473C7.90982 6.5069 7.84205 6.46103 7.7674 6.42973C7.69276 6.39843 7.61272 6.38232 7.53192 6.38232C7.45112 6.38232 7.37114 6.39843 7.2965 6.42973C7.22185 6.46103 7.15403 6.5069 7.09692 6.56473Z" fill="white"/>
<path d="M20.0879 0.945312H14.3571C14.0175 0.945312 13.7422 1.22382 13.7422 1.56738V3.03145C13.7422 3.37501 14.0175 3.65352 14.3571 3.65352H20.0879C20.4276 3.65352 20.7029 3.37501 20.7029 3.03145V1.56738C20.7029 1.22382 20.4276 0.945312 20.0879 0.945312Z" fill="#626B79"/>
</svg>
