<svg>
<path d="M11.2289 4.3834V1.77119C11.2289 1.34527 11.5741 1 12.0001 1C12.426 1 12.7713 1.34527 12.7713 1.77119V4.38331L14.5422 2.6303C14.8449 2.33066 15.3331 2.33315 15.6328 2.63584C15.9324 2.93853 15.9299 3.42682 15.6272 3.72645L12.7713 6.55356L12.7713 10.718L16.3776 8.63589L17.398 4.74884C17.5061 4.33688 17.9278 4.09059 18.3397 4.19874C18.7517 4.30688 18.998 4.72851 18.8898 5.14047L18.2571 7.55076L20.5194 6.24463C20.8882 6.03167 21.3599 6.15805 21.5728 6.52691C21.7858 6.89576 21.6594 7.36741 21.2906 7.58037L19.0284 8.88644L21.432 9.54358C21.8428 9.65591 22.0848 10.08 21.9725 10.4909C21.8602 10.9017 21.4361 11.1437 21.0252 11.0314L17.1489 9.97156L13.5424 12.0538L17.1488 14.1359L21.0252 13.0761C21.4361 12.9638 21.8602 13.2057 21.9725 13.6166C22.0848 14.0274 21.8428 14.4515 21.432 14.5639L19.0282 15.221L21.2905 16.5272C21.6594 16.7401 21.7857 17.2118 21.5728 17.5806C21.3598 17.9495 20.8882 18.0759 20.5193 17.8629L18.2572 16.5568L18.8899 18.967C18.998 19.379 18.7517 19.8006 18.3398 19.9087C17.9278 20.0169 17.5062 19.7706 17.398 19.3586L16.3777 15.4717L12.7711 13.3895V17.5538L15.6272 20.381C15.9299 20.6806 15.9324 21.1689 15.6328 21.4716C15.3331 21.7743 14.8449 21.7768 14.5422 21.4771L12.7711 19.724V22.3362C12.7711 22.7622 12.4259 23.1074 11.9999 23.1074C11.574 23.1074 11.2287 22.7622 11.2287 22.3362V19.7242L9.45787 21.4771C9.15517 21.7768 8.66689 21.7743 8.36726 21.4716C8.06762 21.1689 8.0701 20.6806 8.3728 20.381L11.2287 17.5539V13.3894L7.6224 15.4716L6.602 19.3586C6.49385 19.7706 6.07223 20.0169 5.66027 19.9087C5.24831 19.8006 5.00202 19.379 5.11017 18.967L5.7429 16.5567L3.48065 17.8628C3.11179 18.0758 2.64014 17.9494 2.42718 17.5805C2.21423 17.2117 2.3406 16.74 2.70946 16.5271L4.97162 15.221L2.568 14.5639C2.15716 14.4515 1.91517 14.0274 2.0275 13.6166C2.13982 13.2057 2.56393 12.9638 2.97476 13.0761L6.85112 14.1359L10.4576 12.0537L6.85128 9.97152L2.9748 11.0314C2.56396 11.1437 2.13985 10.9017 2.02753 10.4909C1.9152 10.08 2.1572 9.65591 2.56803 9.54358L4.97178 8.88639L2.70952 7.58028C2.34067 7.36732 2.21429 6.89567 2.42725 6.52681C2.64021 6.15796 3.11186 6.03158 3.48071 6.24454L5.7429 7.55061L5.1102 5.14043C5.00205 4.72847 5.24834 4.30685 5.6603 4.19871C6.07226 4.09056 6.49389 4.33685 6.60203 4.74881L7.62239 8.63574L11.2289 10.7179L11.2289 6.55366L8.3728 3.72645C8.0701 3.42682 8.06762 2.93853 8.36726 2.63584C8.66689 2.33314 9.15517 2.33066 9.45787 2.6303L11.2289 4.3834Z"/>
</svg>
