<svg>
<path d="M12 2.14999C12.3866 2.14999 12.7 2.46339 12.7 2.84999V5.09562L14.2075 3.60265C14.4821 3.3306 14.9253 3.33274 15.1974 3.60742C15.4694 3.8821 15.4673 4.32531 15.1926 4.59735L12.7 7.06606V10.8375L15.9662 8.95176L16.8579 5.55876C16.9562 5.18486 17.3389 4.96141 17.7128 5.05967C18.0867 5.15793 18.3102 5.54069 18.2119 5.91459L17.6727 7.96654L19.6174 6.84373C19.9522 6.65043 20.3804 6.76514 20.5737 7.09995C20.767 7.43475 20.6522 7.86287 20.3174 8.05617L18.3727 9.17898L20.4194 9.73801C20.7924 9.83987 21.0121 10.2248 20.9102 10.5977C20.8084 10.9707 20.4235 11.1904 20.0505 11.0885L16.6663 10.1642L13.4 12.05L16.6662 13.9357L20.0504 13.0114C20.4234 12.9095 20.8083 13.1293 20.9101 13.5022C21.012 13.8752 20.7922 14.2601 20.4193 14.3619L18.3726 14.9209L20.3174 16.0437C20.6522 16.237 20.7669 16.6651 20.5736 16.9999C20.3803 17.3347 19.9522 17.4495 19.6174 17.2562L17.6726 16.1333L18.2118 18.1854C18.3101 18.5593 18.0866 18.9421 17.7127 19.0403C17.3388 19.1386 16.9561 18.9151 16.8578 18.5412L15.9662 15.1481L12.7 13.2624V17.0339L15.1926 19.5026C15.4673 19.7747 15.4694 20.2179 15.1974 20.4926C14.9253 20.7673 14.4821 20.7694 14.2075 20.4973L12.7 19.0044V21.25C12.7 21.6366 12.3866 21.95 12 21.95C11.6134 21.95 11.3 21.6366 11.3 21.25V19.0044L9.79254 20.4974C9.51786 20.7694 9.07465 20.7673 8.80261 20.4926C8.53056 20.2179 8.5327 19.7747 8.80739 19.5026L11.3 17.034V13.2624L8.03378 15.1481L7.14217 18.5412C7.04392 18.9151 6.66115 19.1386 6.28725 19.0403C5.91334 18.942 5.68988 18.5593 5.78814 18.1854L6.32736 16.1333L4.38259 17.2562C4.04779 17.4495 3.61967 17.3347 3.42637 16.9999C3.23307 16.6651 3.34779 16.237 3.68259 16.0437L5.62736 14.9209L3.5807 14.3619C3.20776 14.2601 2.98801 13.8752 3.08986 13.5022C3.19172 13.1293 3.57662 12.9095 3.94956 13.0114L7.33381 13.9357L10.6 12.05L7.3337 10.1642L3.94943 11.0885C3.5765 11.1904 3.19159 10.9707 3.08973 10.5977C2.98787 10.2248 3.20762 9.83988 3.58056 9.73801L5.62729 9.17898L3.68251 8.05617C3.34771 7.86287 3.23299 7.43475 3.42629 7.09995C3.61959 6.76514 4.04771 6.65043 4.38251 6.84373L6.32728 7.96654L5.78804 5.9146C5.68978 5.5407 5.91323 5.15793 6.28713 5.05967C6.66104 4.96141 7.0438 5.18486 7.14206 5.55877L8.03373 8.95176L11.3 10.8376V7.06603L8.80739 4.59734C8.5327 4.3253 8.53056 3.88209 8.80261 3.60741C9.07465 3.33272 9.51786 3.33058 9.79254 3.60262L11.3 5.09563V2.84999C11.3 2.46339 11.6134 2.14999 12 2.14999Z"/>
</svg>