<svg width="24" height="24" viewBox="0 0 24 24" xmlns="http://www.w3.org/2000/svg">
<path d="M14.9157 20C15.3007 20 15.6189 19.7176 15.6693 19.3516L15.6762 19.25L15.6762 6.55935L19.7019 10.5301C19.972 10.7964 20.3945 10.8202 20.6923 10.6024L20.7774 10.5301C21.0475 10.2638 21.0716 9.84716 20.8507 9.55354L20.7774 9.46956L15.4534 4.21947C15.1834 3.9532 14.7608 3.92935 14.4631 4.1472L14.3779 4.21947L9.0539 9.46956C8.75687 9.76245 8.75687 10.2372 9.0539 10.5301C9.32392 10.7964 9.74648 10.8202 10.0442 10.6024L10.1294 10.5301L14.1551 6.55935L14.1551 19.25C14.1551 19.6297 14.4414 19.9435 14.8127 19.9932L14.9157 20Z"/>
<path d="M4.77467 7.24979C5.19473 7.24979 5.53525 6.914 5.53525 6.49978C5.53525 6.12008 5.24891 5.80627 4.87767 5.75661L4.77467 5.74977L3.76057 5.74977C3.34052 5.74977 3 6.08556 3 6.49978C3 6.87948 3.28634 7.1933 3.65758 7.24296L3.76057 7.24979H4.77467Z"/>
<path d="M6.80287 12.7499C7.22293 12.7499 7.56345 12.4141 7.56345 11.9999C7.56345 11.6202 7.2771 11.3064 6.90587 11.2567L6.80287 11.2499L3.76057 11.2499C3.34052 11.2499 3 11.5857 3 11.9999C3 12.3796 3.28634 12.6934 3.65758 12.743L3.76058 12.7499H6.80287Z"/>
<path d="M9.84517 18.25C10.2652 18.25 10.6057 17.9142 10.6057 17.5C10.6057 17.1203 10.3194 16.8064 9.94817 16.7568L9.84517 16.7499L3.76058 16.7499C3.34052 16.7499 3 17.0857 3 17.5C3 17.8797 3.28634 18.1935 3.65758 18.2431L3.76058 18.25L9.84517 18.25Z"/>
</svg>
