<svg width="24" height="24" viewBox="0 0 24 24" xmlns="http://www.w3.org/2000/svg">
<path d="M14.9157 4C15.3007 4 15.6189 4.28237 15.6693 4.64845L15.6762 4.75001L15.6762 17.4406L19.7019 13.4699C19.972 13.2036 20.3945 13.1798 20.6923 13.3976L20.7774 13.4699C21.0475 13.7362 21.0716 14.1528 20.8507 14.4465L20.7774 14.5304L15.4534 19.7805C15.1834 20.0468 14.7608 20.0707 14.4631 19.8528L14.3779 19.7805L9.0539 14.5304C8.75687 14.2375 8.75687 13.7628 9.0539 13.4699C9.32392 13.2036 9.74648 13.1798 10.0442 13.3976L10.1294 13.4699L14.1551 17.4406L14.1551 4.75001C14.1551 4.37031 14.4414 4.0565 14.8127 4.00684L14.9157 4Z"/>
<path d="M4.77467 16.7502C5.19473 16.7502 5.53525 17.086 5.53525 17.5002C5.53525 17.8799 5.24891 18.1937 4.87767 18.2434L4.77467 18.2502H3.76057C3.34052 18.2502 3 17.9144 3 17.5002C3 17.1205 3.28634 16.8067 3.65758 16.757L3.76057 16.7502H4.77467Z"/>
<path d="M6.80287 11.2501C7.22293 11.2501 7.56345 11.5859 7.56345 12.0001C7.56345 12.3798 7.2771 12.6936 6.90587 12.7433L6.80287 12.7501H3.76057C3.34052 12.7501 3 12.4143 3 12.0001C3 11.6204 3.28634 11.3066 3.65758 11.257L3.76058 11.2501L6.80287 11.2501Z"/>
<path d="M9.84517 5.75003C10.2652 5.75003 10.6057 6.08582 10.6057 6.50004C10.6057 6.87974 10.3194 7.19355 9.94817 7.24322L9.84517 7.25005L3.76058 7.25005C3.34052 7.25005 3 6.91426 3 6.50004C3 6.12034 3.28634 5.80653 3.65758 5.75686L3.76058 5.75003L9.84517 5.75003Z"/>
</svg>
