<svg>
<mask id="path-1-inside-1_920_5084" fill="white">
<path fill-rule="evenodd" clip-rule="evenodd" d="M17.7211 20.567C17.8107 20.8208 18.1695 20.8208 18.2591 20.567L18.3618 20.2764C18.6291 19.5194 19.1774 18.887 19.8865 18.5105C20.0449 18.4265 20.0471 18.1984 19.8887 18.1143C19.1756 17.7358 18.6363 17.0964 18.3834 16.3297L18.2658 15.9733C18.1781 15.7075 17.8021 15.7075 17.7143 15.9733L17.5968 16.3297C17.3439 17.0964 16.8046 17.7358 16.0915 18.1143C15.9331 18.1984 15.9353 18.4265 16.0936 18.5105C16.8027 18.887 17.351 19.5194 17.6184 20.2764L17.7211 20.567ZM12 17.4016C12.8711 15.3138 14.3363 13.5234 16.1921 12.2491C14.2915 10.9343 12.8266 9.0709 12 6.89919C11.1734 9.0709 9.70846 10.9343 7.8079 12.2491C9.66374 13.5234 11.1289 15.3138 12 17.4016ZM11.1439 19.4277C11.4291 20.2352 12.5709 20.2352 12.8561 19.4277L13.1829 18.5027C14.0338 16.0935 15.7787 14.081 18.0354 12.8829C18.5395 12.6154 18.5463 11.8895 18.0423 11.622C15.7729 10.4172 14.0566 8.38246 13.2517 5.94246L12.8775 4.80841C12.5984 3.96234 11.4016 3.96234 11.1225 4.80841L10.7484 5.94246C9.94341 8.38245 8.22708 10.4172 5.95769 11.622C5.45366 11.8895 5.46054 12.6154 5.96457 12.8829C8.22128 14.081 9.96623 16.0935 10.8171 18.5027L11.1439 19.4277ZM6.2041 8.49868C6.11449 8.75239 5.75569 8.75239 5.66608 8.49868L5.56341 8.20801C5.29604 7.45101 4.74774 6.81861 4.03863 6.44217C3.88026 6.35809 3.87809 6.13002 4.03647 6.04594C4.74956 5.66739 5.28887 5.02803 5.5418 4.26133L5.65935 3.90499C5.74706 3.63914 6.12312 3.63914 6.21083 3.90499L6.32838 4.26133C6.58131 5.02803 7.12062 5.66739 7.83371 6.04595C7.99208 6.13002 7.98992 6.3581 7.83155 6.44217C7.12244 6.81861 6.57414 7.45101 6.30677 8.20801L6.2041 8.49868Z"/>
</mask>
<path fill-rule="evenodd" clip-rule="evenodd" d="M17.7211 20.567C17.8107 20.8208 18.1695 20.8208 18.2591 20.567L18.3618 20.2764C18.6291 19.5194 19.1774 18.887 19.8865 18.5105C20.0449 18.4265 20.0471 18.1984 19.8887 18.1143C19.1756 17.7358 18.6363 17.0964 18.3834 16.3297L18.2658 15.9733C18.1781 15.7075 17.8021 15.7075 17.7143 15.9733L17.5968 16.3297C17.3439 17.0964 16.8046 17.7358 16.0915 18.1143C15.9331 18.1984 15.9353 18.4265 16.0936 18.5105C16.8027 18.887 17.351 19.5194 17.6184 20.2764L17.7211 20.567ZM12 17.4016C12.8711 15.3138 14.3363 13.5234 16.1921 12.2491C14.2915 10.9343 12.8266 9.0709 12 6.89919C11.1734 9.0709 9.70846 10.9343 7.8079 12.2491C9.66374 13.5234 11.1289 15.3138 12 17.4016ZM11.1439 19.4277C11.4291 20.2352 12.5709 20.2352 12.8561 19.4277L13.1829 18.5027C14.0338 16.0935 15.7787 14.081 18.0354 12.8829C18.5395 12.6154 18.5463 11.8895 18.0423 11.622C15.7729 10.4172 14.0566 8.38246 13.2517 5.94246L12.8775 4.80841C12.5984 3.96234 11.4016 3.96234 11.1225 4.80841L10.7484 5.94246C9.94341 8.38245 8.22708 10.4172 5.95769 11.622C5.45366 11.8895 5.46054 12.6154 5.96457 12.8829C8.22128 14.081 9.96623 16.0935 10.8171 18.5027L11.1439 19.4277ZM6.2041 8.49868C6.11449 8.75239 5.75569 8.75239 5.66608 8.49868L5.56341 8.20801C5.29604 7.45101 4.74774 6.81861 4.03863 6.44217C3.88026 6.35809 3.87809 6.13002 4.03647 6.04594C4.74956 5.66739 5.28887 5.02803 5.5418 4.26133L5.65935 3.90499C5.74706 3.63914 6.12312 3.63914 6.21083 3.90499L6.32838 4.26133C6.58131 5.02803 7.12062 5.66739 7.83371 6.04595C7.99208 6.13002 7.98992 6.3581 7.83155 6.44217C7.12244 6.81861 6.57414 7.45101 6.30677 8.20801L6.2041 8.49868Z" />
<path d="M18.2591 20.567L16.8447 20.0675L16.8447 20.0675L18.2591 20.567ZM17.7211 20.567L19.1354 20.0675L19.1354 20.0675L17.7211 20.567ZM18.3618 20.2764L16.9474 19.7768L16.9474 19.7768L18.3618 20.2764ZM19.8865 18.5105L19.1832 17.1856L19.1832 17.1856L19.8865 18.5105ZM19.8887 18.1143L20.592 16.7894L20.592 16.7894L19.8887 18.1143ZM18.3834 16.3297L16.9589 16.7996L16.9589 16.7996L18.3834 16.3297ZM18.2658 15.9733L19.6903 15.5034L19.6903 15.5034L18.2658 15.9733ZM17.7143 15.9733L16.2899 15.5034L16.2899 15.5034L17.7143 15.9733ZM17.5968 16.3297L16.1723 15.8598L16.1723 15.8598L17.5968 16.3297ZM16.0915 18.1143L15.3881 16.7894L15.3881 16.7894L16.0915 18.1143ZM16.0936 18.5105L16.797 17.1856L16.797 17.1856L16.0936 18.5105ZM17.6184 20.2764L19.0328 19.7768L19.0328 19.7768L17.6184 20.2764ZM16.1921 12.2491L17.0412 13.4856L18.8353 12.2536L17.0455 11.0155L16.1921 12.2491ZM12 17.4016L10.6157 17.9792L12 21.2971L13.3843 17.9792L12 17.4016ZM12 6.89919L13.4019 6.36561L12 2.68239L10.5981 6.36561L12 6.89919ZM7.8079 12.2491L6.95454 11.0155L5.16468 12.2536L6.9588 13.4856L7.8079 12.2491ZM12.8561 19.4277L11.4418 18.9282L11.4418 18.9282L12.8561 19.4277ZM11.1439 19.4277L12.5583 18.9282L12.5583 18.9282L11.1439 19.4277ZM13.1829 18.5027L14.5972 19.0022L14.5972 19.0022L13.1829 18.5027ZM18.0354 12.8829L18.7388 14.2078L18.7388 14.2078L18.0354 12.8829ZM18.0423 11.622L17.339 12.9468L17.339 12.9468L18.0423 11.622ZM13.2517 5.94246L11.8272 6.41239L11.8272 6.41239L13.2517 5.94246ZM12.8775 4.80841L11.453 5.27834L11.453 5.27834L12.8775 4.80841ZM11.1225 4.80841L12.547 5.27834L12.547 5.27834L11.1225 4.80841ZM10.7484 5.94246L12.1728 6.41239L12.1728 6.41239L10.7484 5.94246ZM5.95769 11.622L6.66102 12.9468L6.66102 12.9468L5.95769 11.622ZM5.96457 12.8829L5.26123 14.2078L5.26123 14.2078L5.96457 12.8829ZM10.8171 18.5027L9.40278 19.0022L9.40278 19.0022L10.8171 18.5027ZM5.66608 8.49868L7.08045 7.99913L7.08045 7.99912L5.66608 8.49868ZM6.2041 8.49868L7.61847 8.99824L7.61847 8.99824L6.2041 8.49868ZM5.56341 8.20801L4.14904 8.70757L4.14904 8.70757L5.56341 8.20801ZM4.03863 6.44217L4.74197 5.11729L4.74197 5.11729L4.03863 6.44217ZM4.03647 6.04594L3.33314 4.72106L3.33314 4.72106L4.03647 6.04594ZM5.5418 4.26133L4.11731 3.79139L4.11731 3.7914L5.5418 4.26133ZM5.65935 3.90499L7.08384 4.37493L7.08384 4.37492L5.65935 3.90499ZM6.21083 3.90499L7.63532 3.43506L7.63531 3.43505L6.21083 3.90499ZM6.32838 4.26133L7.75287 3.7914L7.75287 3.7914L6.32838 4.26133ZM7.83371 6.04595L8.53705 4.72106L8.53704 4.72106L7.83371 6.04595ZM7.83155 6.44217L7.12822 5.11728L7.12821 5.11729L7.83155 6.44217ZM6.30677 8.20801L4.8924 7.70845L4.8924 7.70845L6.30677 8.20801ZM16.8447 20.0675C17.2263 18.9873 18.7539 18.9873 19.1354 20.0675L16.3067 21.0666C16.8675 22.6542 19.1127 22.6542 19.6735 21.0666L16.8447 20.0675ZM16.9474 19.7768L16.8447 20.0675L19.6735 21.0666L19.7761 20.7759L16.9474 19.7768ZM19.1832 17.1856C18.1452 17.7367 17.3412 18.662 16.9474 19.7768L19.7761 20.7759C19.9171 20.3768 20.2097 20.0373 20.5899 19.8354L19.1832 17.1856ZM19.1854 19.4392C18.2555 18.9455 18.3055 17.6516 19.1832 17.1856L20.5899 19.8354C21.7843 19.2013 21.8387 17.4512 20.592 16.7894L19.1854 19.4392ZM16.9589 16.7996C17.333 17.9336 18.1307 18.8793 19.1854 19.4392L20.592 16.7894C20.2206 16.5922 19.9396 16.2592 19.8079 15.8598L16.9589 16.7996ZM16.8413 16.4433L16.9589 16.7996L19.8079 15.8598L19.6903 15.5034L16.8413 16.4433ZM19.1388 16.4433C18.7734 17.5509 17.2067 17.5508 16.8413 16.4433L19.6903 15.5034C19.1495 13.8641 16.8307 13.8641 16.2899 15.5034L19.1388 16.4433ZM19.0213 16.7996L19.1388 16.4433L16.2899 15.5034L16.1723 15.8598L19.0213 16.7996ZM16.7948 19.4392C17.8495 18.8793 18.6472 17.9336 19.0213 16.7996L16.1723 15.8598C16.0405 16.2592 15.7596 16.5922 15.3881 16.7894L16.7948 19.4392ZM16.797 17.1856C17.6747 17.6516 17.7247 18.9455 16.7948 19.4392L15.3881 16.7894C14.1415 17.4512 14.1958 19.2013 15.3903 19.8354L16.797 17.1856ZM19.0328 19.7768C18.639 18.662 17.835 17.7367 16.797 17.1856L15.3903 19.8354C15.7705 20.0373 16.0631 20.3768 16.204 20.7759L19.0328 19.7768ZM19.1354 20.0675L19.0328 19.7768L16.204 20.7759L16.3067 21.0666L19.1354 20.0675ZM15.343 11.0125C13.2517 12.4486 11.5992 14.4667 10.6157 16.824L13.3843 17.9792C14.1429 16.161 15.4208 14.5982 17.0412 13.4856L15.343 11.0125ZM10.5981 7.43277C11.5329 9.88872 13.1895 11.9959 15.3387 13.4827L17.0455 11.0155C15.3936 9.87275 14.1203 8.25309 13.4019 6.36561L10.5981 7.43277ZM8.66126 13.4827C10.8105 11.9959 12.4671 9.88872 13.4019 7.43277L10.5981 6.36561C9.87971 8.25309 8.60641 9.87275 6.95454 11.0155L8.66126 13.4827ZM13.3843 16.824C12.4008 14.4667 10.7483 12.4486 8.657 11.0125L6.9588 13.4856C8.57916 14.5982 9.85706 16.161 10.6157 17.9792L13.3843 16.824ZM11.4418 18.9282C11.6277 18.4017 12.3723 18.4017 12.5583 18.9282L9.72951 19.9273C10.4858 22.0686 13.5142 22.0687 14.2705 19.9273L11.4418 18.9282ZM11.7685 18.0031L11.4418 18.9282L14.2705 19.9273L14.5972 19.0022L11.7685 18.0031ZM17.3321 11.5581C14.7465 12.9307 12.7458 15.2361 11.7685 18.0031L14.5972 19.0022C15.3217 16.951 16.811 15.2312 18.7388 14.2078L17.3321 11.5581ZM17.339 12.9468C16.7548 12.6367 16.8 11.8405 17.3321 11.5581L18.7388 14.2078C20.2789 13.3902 20.3379 11.1424 18.7457 10.2971L17.339 12.9468ZM11.8272 6.41239C12.7533 9.21969 14.728 11.5608 17.339 12.9468L18.7457 10.2971C16.8179 9.27369 15.3599 7.54522 14.6761 5.47253L11.8272 6.41239ZM11.453 5.27834L11.8272 6.41239L14.6761 5.47253L14.302 4.33848L11.453 5.27834ZM12.547 5.27834C12.373 5.8057 11.627 5.80569 11.453 5.27834L14.302 4.33848C13.5698 2.11899 10.4302 2.11897 9.69799 4.33848L12.547 5.27834ZM12.1728 6.41239L12.547 5.27834L9.69799 4.33848L9.32387 5.47253L12.1728 6.41239ZM6.66102 12.9468C9.27203 11.5608 11.2467 9.21969 12.1728 6.41239L9.32387 5.47252C8.64009 7.54522 7.18212 9.27369 5.25435 10.2971L6.66102 12.9468ZM6.6679 11.5581C7.19995 11.8405 7.24525 12.6367 6.66102 12.9468L5.25435 10.2971C3.66206 11.1424 3.72112 13.3902 5.26123 14.2078L6.6679 11.5581ZM12.2315 18.0031C11.2542 15.2361 9.25353 12.9307 6.6679 11.5581L5.26123 14.2078C7.18904 15.2312 8.67826 16.9509 9.40278 19.0022L12.2315 18.0031ZM12.5583 18.9282L12.2315 18.0031L9.40278 19.0022L9.72951 19.9273L12.5583 18.9282ZM4.25171 8.99824C4.81247 10.5859 7.05772 10.5859 7.61847 8.99824L4.78973 7.99912C5.17126 6.91893 6.69891 6.91889 7.08045 7.99913L4.25171 8.99824ZM4.14904 8.70757L4.25171 8.99824L7.08045 7.99912L6.97778 7.70845L4.14904 8.70757ZM3.3353 7.76706C3.7155 7.96889 4.00806 8.30842 4.14904 8.70757L6.97778 7.70845C6.58402 6.5936 5.77998 5.66833 4.74197 5.11729L3.3353 7.76706ZM3.33314 4.72106C2.08649 5.38286 2.14085 7.13296 3.3353 7.76706L4.74197 5.11729C5.61967 5.58323 5.6697 6.87718 4.73981 7.37083L3.33314 4.72106ZM4.11731 3.7914C3.98555 4.19079 3.70461 4.52386 3.33314 4.72106L4.7398 7.37083C5.79451 6.81093 6.59218 5.86526 6.96628 4.73126L4.11731 3.7914ZM4.23487 3.43505L4.11731 3.79139L6.96628 4.73127L7.08384 4.37493L4.23487 3.43505ZM7.63531 3.43505C7.09453 1.79581 4.77566 1.79575 4.23487 3.43506L7.08384 4.37492C6.71845 5.48252 5.15172 5.48247 4.78634 4.37493L7.63531 3.43505ZM7.75287 3.7914L7.63532 3.43506L4.78634 4.37492L4.9039 4.73126L7.75287 3.7914ZM8.53704 4.72106C8.16557 4.52386 7.88463 4.19079 7.75287 3.7914L4.9039 4.73126C5.278 5.86526 6.07567 6.81093 7.13038 7.37083L8.53704 4.72106ZM8.53488 7.76706C9.72935 7.13296 9.78367 5.38286 8.53705 4.72106L7.13037 7.37083C6.2005 6.87719 6.25049 5.58323 7.12822 5.11728L8.53488 7.76706ZM7.72114 8.70757C7.86212 8.30842 8.15468 7.96889 8.53488 7.76706L7.12821 5.11729C6.0902 5.66833 5.28617 6.5936 4.8924 7.70845L7.72114 8.70757ZM7.61847 8.99824L7.72114 8.70756L4.8924 7.70845L4.78973 7.99913L7.61847 8.99824Z"  mask="url(#path-1-inside-1_920_5084)"/>
</svg>
