<svg>
<path fill-rule="evenodd" clip-rule="evenodd" d="M12.0812 16.696C12.9523 14.6082 14.4175 12.8178 16.2733 11.5434C14.3728 10.2287 12.9078 8.36529 12.0812 6.19358C11.2547 8.36529 9.78969 10.2287 7.88914 11.5434C9.74498 12.8178 11.2102 14.6082 12.0812 16.696ZM11.2251 18.7221C11.5103 19.5296 12.6522 19.5296 12.9374 18.7221L13.2641 17.7971C14.115 15.3879 15.86 13.3753 18.1167 12.1773C18.6207 11.9098 18.6276 11.1839 18.1236 10.9163C15.8542 9.71161 14.1378 7.67685 13.3329 5.23685L12.9588 4.1028C12.6796 3.25673 11.4828 3.25673 11.2037 4.1028L10.8296 5.23685C10.0246 7.67684 8.30831 9.71161 6.03892 10.9163C5.53489 11.1839 5.54177 11.9098 6.0458 12.1773C8.30252 13.3753 10.0475 15.3879 10.8984 17.7971L11.2251 18.7221Z"/>
<path fill-rule="evenodd" clip-rule="evenodd" d="M5.1418 6.59055C5.1813 6.64071 5.21933 6.69205 5.25581 6.74451C5.35484 6.88691 5.44248 7.03751 5.51749 7.19494C5.56507 7.2948 5.60756 7.39741 5.64465 7.50241L5.74731 7.79308C5.83692 8.04679 6.19572 8.04679 6.28533 7.79308L6.388 7.50241C6.42509 7.39741 6.46758 7.2948 6.51516 7.19494C6.59017 7.03751 6.67781 6.88691 6.77684 6.74451C6.81332 6.69205 6.85134 6.64071 6.89085 6.59055C6.91064 6.56542 6.9308 6.54059 6.95133 6.51606C6.95625 6.51018 6.9612 6.50431 6.96617 6.49845C7.15219 6.27938 7.36743 6.08513 7.60619 5.92195C7.70453 5.85474 7.80686 5.7928 7.91278 5.73657C8.07116 5.65249 8.07332 5.42442 7.91494 5.34035C7.80612 5.28257 7.70134 5.21873 7.60101 5.14928C7.36531 4.98614 7.15416 4.79209 6.97274 4.57328C6.96778 4.5673 6.96284 4.56131 6.95793 4.55529C6.93161 4.52306 6.90593 4.49031 6.88091 4.45704C6.8334 4.39389 6.78826 4.32891 6.7456 4.26224C6.6623 4.13205 6.58845 3.99539 6.52488 3.85325C6.48161 3.75651 6.4431 3.65724 6.40962 3.55573L6.29206 3.19939C6.20436 2.93354 5.82829 2.93354 5.74059 3.19939L5.62303 3.55573C5.58954 3.65724 5.55104 3.75651 5.50777 3.85325C5.4442 3.99539 5.37035 4.13205 5.28705 4.26224C5.24439 4.32891 5.19925 4.39389 5.15174 4.45704C5.12672 4.49031 5.10104 4.52306 5.07472 4.55529C5.0698 4.56131 5.06487 4.5673 5.05991 4.57328C4.87849 4.79209 4.66734 4.98614 4.43164 5.14928C4.33131 5.21873 4.22653 5.28257 4.11771 5.34034C3.95933 5.42442 3.96149 5.65249 4.11987 5.73657C4.22579 5.7928 4.32812 5.85474 4.42646 5.92195C4.66521 6.08513 4.88046 6.27938 5.06648 6.49845C5.07145 6.50431 5.07639 6.51018 5.08132 6.51606C5.10185 6.54059 5.12201 6.56542 5.1418 6.59055Z"/>
<path d="M18.3403 19.8614C18.2507 20.1152 17.8919 20.1152 17.8023 19.8614L17.6996 19.5708C17.4323 18.8138 16.884 18.1814 16.1749 17.8049C16.0165 17.7209 16.0143 17.4928 16.1727 17.4087C16.8858 17.0302 17.4251 16.3908 17.678 15.6241L17.7956 15.2677C17.8833 15.0019 18.2594 15.0019 18.3471 15.2677L18.4646 15.6241C18.7175 16.3908 19.2568 17.0302 19.9699 17.4087C20.1283 17.4928 20.1262 17.7209 19.9678 17.8049C19.2587 18.1814 18.7104 18.8138 18.443 19.5708L18.3403 19.8614Z"/>
</svg>
