<svg>
<path d="M17.7211 20.567C17.8107 20.8208 18.1695 20.8208 18.2591 20.567L18.3618 20.2764C18.6291 19.5194 19.1774 18.887 19.8865 18.5105C20.0449 18.4265 20.0471 18.1984 19.8887 18.1143C19.1756 17.7358 18.6363 17.0964 18.3834 16.3297L18.2658 15.9733C18.1781 15.7075 17.8021 15.7075 17.7143 15.9733L17.5968 16.3297C17.3439 17.0964 16.8046 17.7358 16.0915 18.1143C15.9331 18.1984 15.9353 18.4265 16.0936 18.5105C16.8027 18.887 17.351 19.5194 17.6184 20.2764L17.7211 20.567ZM12.8561 19.4277C12.5709 20.2352 11.4291 20.2352 11.1439 19.4277L10.8171 18.5027C9.96623 16.0935 8.22128 14.081 5.96457 12.8829C5.46054 12.6154 5.45366 11.8895 5.95769 11.622C8.22708 10.4172 9.94341 8.38245 10.7484 5.94246L11.1225 4.80841C11.4016 3.96234 12.5984 3.96234 12.8775 4.80841L13.2517 5.94246C14.0566 8.38246 15.7729 10.4172 18.0423 11.622C18.5463 11.8895 18.5395 12.6154 18.0354 12.8829C15.7787 14.081 14.0338 16.0935 13.1829 18.5027L12.8561 19.4277ZM6.20413 8.49868C6.11452 8.75239 5.75572 8.75239 5.66611 8.49868L5.56344 8.20801C5.29607 7.45101 4.74777 6.81861 4.03866 6.44217C3.88029 6.35809 3.87813 6.13002 4.0365 6.04595C4.74959 5.66739 5.2889 5.02803 5.54183 4.26133L5.65938 3.90499C5.74709 3.63914 6.12315 3.63914 6.21086 3.90499L6.32841 4.26133C6.58135 5.02803 7.12065 5.66739 7.83374 6.04595C7.99212 6.13002 7.98995 6.3581 7.83158 6.44217C7.12247 6.81861 6.57417 7.45101 6.3068 8.20801L6.20413 8.49868Z"/>
</svg>
