<svg xmlns="http://www.w3.org/2000/svg" height="128.381" width="350"><path d="M0 120.88h242.299l-4.808 7.501H0v-7.5" fill="#fcb130" fill-rule="evenodd"/><g fill="#fcb130" fill-rule="evenodd"><path d="M286.432 117.482h-8.91l17.985-28.386s2.693-5.884-.83-12.1l-25.071-41.522s-2.195-3.855 0-7.543l7.418-11.107 29.422 48.071s7.584 10.07-.663 22.543l-19.351 30.044"/><path d="M307.938 108.78l10.941-16.659s3.19-6.879 11.437-6.879h11.603L350 98.005s-6.383-.662-9.242 3.896l-11.933 17.984s-3.896 8.413-14.297 8.413h-56.192l21.383-32.82s3.023-3.854-1.203-10.236L259.495 54.66s-4.682-4.516.165-12.265l5.555-8.414 26.438 42.848s4.682 5.885 0 12.93l-19.85 30.956h41.854s4.724.87 8.785-5.18l10.401-15.996s2.362-5.387 7.584-7.584h-8.412s-4.393.166-7.749 5.388l-9.24 14.296s-3.358 6.05-10.776 6.05h-14.628l17.653-27.391s9.615-12.64 2.86-24.243l-29.257-48.4s-2.195-4.186.332-8.082L287.59 0l33.318 53.665s4.891 8.04 4.891 14.255c0 6.216-3.895 13.261-6.052 16.825l-14.669 22.875s-1.657 2.196-.496 3.025c1.201.828 2.362-.664 3.356-1.865"/></g><g fill="#1d4886"><path d="M121.999 85.491h5.18v20.512h12.639v4.393h-17.82V85.491M143.796 110.396h5.138V85.491h-5.138zM80.725 110.396h5.097V85.491h-5.097zM185.69 85.491h19.52v4.103h-14.34v6.09h12.184v4.518H190.87v6.05h14.34v4.144h-19.52V85.491M213.165 52.008h19.519v4.102h-14.337v6.05h12.224v4.517h-12.224v6.05h14.337v4.102h-19.519V52.008M93.737 110.396V85.491h14.794s7.127.124 7.127 7.252c0 0 .663 5.926-5.386 8.329l7.5 9.324h-6.382l-10.36-12.929h5.388s3.854-.083 3.854-3.978c0-3.688-3.108-3.979-4.061-3.979h-7.294v20.886h-5.18M184.779 76.83V52.007h14.794s7.128.123 7.128 7.253c0 0 .621 5.883-5.387 8.286l7.5 9.282h-6.381l-10.36-12.844h5.387s3.854-.084 3.854-3.98c0-3.73-3.107-3.978-4.06-3.978h-7.294v20.802h-5.181M81.098 72.52H88.1V61.126h4.973v15.704H80.02c-1.948 0-11.354-2.196-11.437-12.1-.083-9.82 8.495-12.721 11.81-12.721h12.805V56.4H81.637s-7.75 0-7.75 8.163c0 6.34 6.423 7.957 7.21 7.957M155.689 85.491h5.222v3.854l3.274-3.854h6.174s8.453-.456 8.453 8.578v16.327h-5.262V93.281s-.166-3.398-3.73-3.398h-8.909v20.513h-5.222V85.491M40.736 52.008h5.18v3.811l3.273-3.811h6.175s8.495-.456 8.495 8.577V76.83h-5.264V59.8s-.206-3.398-3.77-3.398h-8.91v20.428h-5.179V52.008M28.47 76.83h5.097V52.006H28.47zM210.887 110.355v-4.227h14.42s2.86.538 2.86-2.942c0-3.482-2.155-3.108-2.941-3.108h-8.33s-6.423.455-6.423-7.086c0-7.501 6.34-7.501 6.34-7.501h15.829v4.392h-13.883s-3.025 0-3.025 2.86 2.031 3.398 3.937 3.398h7.419s6.257-.664 6.257 6.796-6.423 7.418-6.423 7.418h-16.037M.54 76.83v-4.227h14.42s2.86.54 2.86-2.942c0-3.481-2.156-3.108-2.943-3.108h-8.33s-6.423.455-6.423-7.045c0-7.542 6.341-7.5 6.341-7.5h15.83V56.4H8.412s-3.025 0-3.025 2.86c0 2.858 2.073 3.397 3.937 3.397h7.418s6.257-.663 6.257 6.754c0 7.459-6.423 7.417-6.423 7.417H.539" fill-rule="evenodd"/><path d="M167.065 50.474c-7.468 0-13.571 6.088-13.571 13.584 0 7.527 6.103 13.56 13.57 13.56a13.512 13.512 0 0013.572-13.56c0-7.501-6.015-13.584-13.571-13.584m0 22.147c-4.686 0-8.474-3.82-8.474-8.563 0-4.678 3.793-8.573 8.474-8.573 4.72 0 8.587 3.895 8.587 8.573 0 4.743-3.867 8.563-8.587 8.563M113.685 52.007h-5.48L96.389 76.829h5.825l3.143-7.138h11.256l3.104 7.138h5.805M106.8 66.036l4.15-10.163 4.102 10.138-8.252.025zM65.16 85.492h-5.48l-11.816 24.904h5.824l3.143-7.161h11.255l3.104 7.161h5.805m-18.72-10.828l4.15-10.196 4.102 10.17-8.252.026zM142.543 52.007h-13.79v24.822h5.29V64.775l3.057 4.207h5.443c4.77 0 7.966-3.966 7.966-8.488 0-4.507-3.196-8.487-7.966-8.487m-.187 12.374h-8.318v-7.808h8.318c1.867 0 3.143 2.064 3.143 3.93.005 1.922-1.27 3.878-3.143 3.878"/></g></svg>