<svg>
  <title>iconTitle</title>
  <desc>iconDesc</desc>
  <style></style>
  <path d="M12,18.4523966 L6.89247159,21.361094 C6.41255434,21.6344031 5.80194372,21.4669141 5.5286346,20.9869969 C5.40327666,20.7668745 5.36612903,20.5073802 5.42469505,20.2609285 L6.81779332,14.3986296 L2.41629944,10.5700983 C1.99959602,10.207639 1.95562242,9.57600287 2.31808166,9.15929945 C2.50016371,8.94996774 2.76102784,8.82568962 3.03830597,8.81617783 L9.12048301,8.60753393 L11.0638568,3.13579357 C11.2486974,2.61535873 11.820436,2.3433058 12.3408709,2.52814634 C12.6231853,2.62841472 12.845672,2.84997647 12.9471157,3.13187076 L14.9176099,8.60753393 L20.9622734,8.81581131 C21.5142306,8.83482977 21.9462628,9.29769699 21.9272443,9.84965419 C21.9176922,10.126878 21.7934197,10.3876792 21.5841279,10.5697265 L17.1822067,14.3986296 L18.5753049,20.2609285 C18.7029923,20.7982499 18.3709183,21.3373462 17.8335968,21.4650335 C17.587145,21.5235996 17.3276507,21.4864519 17.1075284,21.361094 L12,18.4523966 Z"/>
</svg>
