<svg xmlns="http://www.w3.org/2000/svg" width="24" height="24" viewBox="0 0 24 24">
  <path fill="#626B79" fill-rule="evenodd" d="M12.3511234,2.41167207 C12.6215468,2.51308083 12.8349204,2.72645446 12.9363292,2.99687781 L15,8.5 L20.9928554,8.78430969 C21.5445196,8.81048144 21.9705155,9.2789101 21.9443438,9.83057439 C21.9313296,10.1048945 21.8060711,10.3617896 21.5979586,10.5409824 L17,14.5 L18.5054014,20.2147494 C18.646087,20.748815 18.3271895,21.2958089 17.793124,21.4364945 C17.5417504,21.5027123 17.2744706,21.4684427 17.047934,21.3409491 L12,18.5 L6.952066,21.3409491 C6.47076869,21.6118206 5.86101543,21.4412367 5.59014398,20.9599394 C5.46265043,20.7334028 5.42838086,20.466123 5.49459865,20.2147494 L7,14.5 L2.40204141,10.5409824 C1.98352215,10.1806214 1.93637559,9.54921413 2.29673663,9.13069487 C2.47592947,8.92258232 2.73282449,8.79732384 3.00714464,8.78430969 L9,8.5 L11.0636708,2.99687781 C11.2575909,2.47975748 11.8340031,2.21775195 12.3511234,2.41167207 Z M12,4.77200187 L10.4044938,9.02668516 C10.1940507,9.58786658 9.6697509,9.96991312 9.07108221,9.99831483 L4.33179917,10.2231532 L7.97873706,13.3633058 C8.41352733,13.7376768 8.59667194,14.327272 8.45051681,14.8821007 L7.24611022,19.4542249 L11.2643158,17.1928012 C11.7210869,16.9357329 12.2789131,16.9357329 12.7356842,17.1928012 L16.7538898,19.4542249 L15.5494832,14.8821007 C15.4033281,14.327272 15.5864727,13.7376768 16.0212629,13.3633058 L19.6682008,10.2231532 L14.9289178,9.99831483 C14.3302491,9.96991312 13.8059493,9.58786658 13.5955062,9.02668516 L12,4.77200187 Z"/>
</svg>
