<svg>
  <title>iconTitle</title>
  <desc>iconDesc</desc>
  <style></style>
  <path d="M11,6.25175039 C11.4142136,6.25175039 11.75,6.58753683 11.75,7.00175039 C11.75,7.41596395 11.4142136,7.75175039 11,7.75175039 L11,7.75175039 L5.75,7.75175039 L5.75,18.25 L16.25,18.25 L16.25,13 C16.25,12.5857864 16.5857864,12.25 17,12.25 C17.4142136,12.25 17.75,12.5857864 17.75,13 L17.75,13 L17.75,19 C17.75,19.4142136 17.4142136,19.75 17,19.75 L17,19.75 L5,19.75 C4.58578644,19.75 4.25,19.4142136 4.25,19 L4.25,19 L4.25,7.00175039 C4.25,6.58753683 4.58578644,6.25175039 5,6.25175039 L5,6.25175039 Z M19.0248144,4.24910883 L19.149882,4.26475065 L19.2606847,4.29674323 L19.3878709,4.35795444 C19.5683218,4.46572532 19.7054823,4.64779305 19.7409884,4.87989301 L19.75,5 L19.75,10 C19.75,10.4142136 19.4142136,10.75 19,10.75 C18.6203042,10.75 18.306509,10.4678461 18.2568466,10.1017706 L18.25,10 L18.25,6.81066017 L10.5303301,14.5303301 C10.2374369,14.8232233 9.76256313,14.8232233 9.46966991,14.5303301 C9.20340335,14.2640635 9.1791973,13.8473998 9.39705176,13.5537883 L9.46966991,13.4696699 L17.188,5.75 L14,5.75 C13.6203042,5.75 13.306509,5.46784612 13.2568466,5.10177056 L13.25,5 C13.25,4.62030423 13.5321539,4.30650904 13.8982294,4.25684662 L14,4.25 L19.0248144,4.24910883 Z"/>
</svg>
