<svg xmlns="http://www.w3.org/2000/svg" version="1.1" viewBox="0 0 512 512" xmlns:xlink="http://www.w3.org/1999/xlink">
  <title>IconTitle</title>
  <g>
    <path d="m397 512l-360 0c-21 0-37-17-37-37l0-361c0-20 16-37 37-37l119 0c20 0 36 17 36 37 0 20-16 37-36 37l-82 0 0 287 287 0 0-82c0-20 16-36 36-36 21 0 37 16 37 36l0 119c0 20-16 37-37 37z m78-259c-20 0-37-16-37-36l0-143-142 0c-20 0-36-17-36-37 0-20 16-37 36-37l179 0c20 0 37 17 37 37l0 180c0 20-16 36-37 36z m-178 5c-9 0-18-4-25-11-15-14-15-37-1-51l177-184c14-14 37-15 52-1 15 15 15 38 1 52l-177 184c-8 7-17 11-27 11z"></path>
  </g>
</svg>
