<svg width="24" height="24" viewBox="0 0 24 24" xmlns="http://www.w3.org/2000/svg">
<path d="M11.2331 9.91771C11.2331 10.3342 11.5785 10.6795 11.9949 10.6795C12.4215 10.6795 12.7567 10.3342 12.7567 9.91771V7.37835C12.7567 6.9619 12.4114 6.61655 11.9949 6.61655C11.5785 6.61655 11.2331 6.9619 11.2331 7.37835V9.91771Z"/>
<path d="M8.65312 11.5734C8.38902 11.5734 8.13509 11.4413 7.99288 11.1874L6.7232 8.99338C6.5099 8.62772 6.63179 8.17063 6.99745 7.95732C7.36312 7.74402 7.83036 7.87606 8.03351 8.23158L9.31335 10.4357C9.5165 10.8014 9.39461 11.2585 9.02894 11.4718C8.90705 11.5429 8.77501 11.5734 8.65312 11.5734Z"/>
<path d="M5.81921 13.9299C5.94109 13.9908 6.06298 14.0315 6.19503 14.0315C6.45912 14.0315 6.71306 13.8893 6.85526 13.6455C7.06857 13.2798 6.94668 12.8126 6.58101 12.6094L4.37685 11.3398C4.02134 11.1264 3.5541 11.2483 3.34079 11.614C3.12748 11.9797 3.24937 12.4469 3.61504 12.6602L5.81921 13.9299Z"/>
<path d="M2 16.6115C2 17.0381 2.34535 17.3733 2.76181 17.3733H5.30117C5.71762 17.3733 6.06298 17.0279 6.06298 16.6115C6.06298 16.195 5.71762 15.8497 5.30117 15.8497H2.76181C2.34535 15.8497 2 16.1849 2 16.6115Z"/>
<path d="M15.3469 11.5734C15.2148 11.5734 15.0828 11.5429 14.9711 11.4718C14.6054 11.2585 14.4835 10.7913 14.6968 10.4357L15.9665 8.24174C16.1798 7.87607 16.647 7.75418 17.0025 7.96749C17.3682 8.18079 17.4901 8.64804 17.2768 9.00355L16.0071 11.1976C15.8649 11.4413 15.611 11.5734 15.3469 11.5734Z"/>
<path d="M17.1447 13.6455C17.287 13.8994 17.5409 14.0315 17.805 14.0315C17.9269 14.0315 18.0589 13.9908 18.1808 13.9299L20.3748 12.6501C20.7303 12.4469 20.8624 11.9797 20.6491 11.614C20.4459 11.2585 19.9787 11.1264 19.613 11.3398L17.419 12.6094C17.0533 12.8126 16.9314 13.2798 17.1447 13.6455Z"/>
<path d="M22 16.6115C22 17.0279 21.6546 17.3733 21.2382 17.3733H18.6988C18.2824 17.3733 17.937 17.0279 17.937 16.6115C17.937 16.195 18.2824 15.8497 18.6988 15.8497H21.2382C21.6546 15.8497 22 16.195 22 16.6115Z"/>
<path fill-rule="evenodd" clip-rule="evenodd" d="M11.9948 11.9898C14.5545 11.9898 16.6266 14.062 16.6165 16.6216C16.6165 17.0381 16.2711 17.3834 15.8547 17.3834H8.12485C7.70839 17.3834 7.36304 17.0381 7.36304 16.6216C7.36304 14.062 9.44531 11.9898 11.9948 11.9898ZM11.9948 13.3898C13.5651 13.3898 14.8681 14.505 15.1568 15.9834H8.82632C9.12379 14.5045 10.4342 13.3898 11.9948 13.3898Z"/>
</svg>