<svg width="24" height="24" viewBox="0 0 24 24" xmlns="http://www.w3.org/2000/svg">
<path d="M12 3C11.5858 3 11.25 3.33579 11.25 3.75V6C11.25 6.41421 11.5858 6.75 12 6.75C12.4142 6.75 12.75 6.41421 12.75 6V3.75C12.75 3.33579 12.4142 3 12 3Z"/>
<path d="M18.6213 5.78033C18.3284 5.48744 17.8536 5.48744 17.5607 5.78033L15.9697 7.37132C15.6768 7.66421 15.6768 8.13909 15.9697 8.43198C16.2626 8.72487 16.7375 8.72487 17.0303 8.43198L18.6213 6.84099C18.9142 6.5481 18.9142 6.07322 18.6213 5.78033Z"/>
<path d="M6.96967 8.46967C7.26256 8.76256 7.73744 8.76256 8.03033 8.46967C8.32322 8.17678 8.32322 7.7019 8.03033 7.40901L6.43934 5.81802C6.14645 5.52513 5.67157 5.52513 5.37868 5.81802C5.08579 6.11091 5.08579 6.58579 5.37868 6.87868L6.96967 8.46967Z"/>
<path d="M12 21C11.5858 21 11.25 20.6642 11.25 20.25V18C11.25 17.5858 11.5858 17.25 12 17.25C12.4142 17.25 12.75 17.5858 12.75 18V20.25C12.75 20.6642 12.4142 21 12 21Z"/>
<path d="M17.5607 18.2197C17.8536 18.5126 18.3284 18.5126 18.6213 18.2197C18.9142 17.9268 18.9142 17.4519 18.6213 17.159L17.0303 15.568C16.7375 15.2751 16.2626 15.2751 15.9697 15.568C15.6768 15.8609 15.6768 16.3358 15.9697 16.6287L17.5607 18.2197Z"/>
<path d="M8.03033 15.5303C7.73744 15.2374 7.26256 15.2374 6.96967 15.5303L5.37868 17.1213C5.08579 17.4142 5.08579 17.8891 5.37868 18.182C5.67157 18.4749 6.14645 18.4749 6.43934 18.182L8.03033 16.591C8.32322 16.2981 8.32322 15.8232 8.03033 15.5303Z"/>
<path d="M18 12.75C17.5858 12.75 17.25 12.4142 17.25 12C17.25 11.5858 17.5858 11.25 18 11.25H20.25C20.6642 11.25 21 11.5858 21 12C21 12.4142 20.6642 12.75 20.25 12.75H18Z"/>
<path d="M3 12C3 12.4142 3.33579 12.75 3.75 12.75H6C6.41421 12.75 6.75 12.4142 6.75 12C6.75 11.5858 6.41421 11.25 6 11.25H3.75C3.33579 11.25 3 11.5858 3 12Z"/>
<path fill-rule="evenodd" clip-rule="evenodd" d="M15.75 12C15.75 14.0711 14.0711 15.75 12 15.75C9.92893 15.75 8.25 14.0711 8.25 12C8.25 9.92893 9.92893 8.25 12 8.25C14.0711 8.25 15.75 9.92893 15.75 12ZM14.35 12C14.35 13.2979 13.2979 14.35 12 14.35C10.7021 14.35 9.65 13.2979 9.65 12C9.65 10.7021 10.7021 9.65 12 9.65C13.2979 9.65 14.35 10.7021 14.35 12Z"/>
</svg>