<svg width="24" height="24" viewBox="0 0 24 24" xmlns="http://www.w3.org/2000/svg">
<path fill-rule="evenodd" clip-rule="evenodd" d="M5.43687 10.4565L11.2871 4.60654C11.7323 4.16136 12.3612 3.95181 12.9844 4.04094L16.7406 4.5781C17.1689 4.63935 17.5657 4.83783 17.8717 5.14375L18.9978 6.26993C19.3164 6.58846 19.518 7.00518 19.5702 7.45261L19.9888 11.0445C20.0596 11.6517 19.8487 12.258 19.4164 12.6903L13.4123 18.6942C12.9297 16.5851 11.93 15.3401 10.7612 14.5313C10.1053 14.0774 9.42069 13.778 8.81727 13.5358C8.67563 13.479 8.54127 13.4262 8.41352 13.3761L8.4135 13.3761C7.97042 13.2021 7.60669 13.0593 7.29378 12.8853C5.9377 12.131 5.50908 11.0623 5.44311 10.4987C5.44145 10.4845 5.43936 10.4704 5.43687 10.4565ZM4.3317 11.5616L2.99687 12.8963C2.21579 13.6774 2.21577 14.9437 2.99683 15.7248L8.27495 21.0029C9.05598 21.7839 10.3223 21.7839 11.1033 21.0029L12.2395 19.8668C11.922 17.4748 10.992 16.3342 10.0029 15.6498C9.48125 15.2887 8.91616 15.0363 8.33701 14.8039C8.22621 14.7594 8.11223 14.7148 7.9967 14.6695L7.9964 14.6694L7.99637 14.6694C7.53885 14.4902 7.05718 14.3016 6.65317 14.0769C5.38523 13.3716 4.67521 12.4133 4.3317 11.5616ZM16.8351 9.82056C16.121 10.5347 14.9476 10.5191 14.2143 9.78571C13.4809 9.05236 13.4653 7.87897 14.1794 7.16487C14.8935 6.45077 16.0669 6.46638 16.8002 7.19972C17.5336 7.93307 17.5492 9.10646 16.8351 9.82056Z"/>
</svg>
