<svg>
<path fill-rule="evenodd" clip-rule="evenodd" d="M5.93687 10.4563L11.7871 4.60642C12.2323 4.16124 12.8612 3.95169 13.4844 4.04082L17.2406 4.57798C17.6689 4.63923 18.0657 4.8377 18.3717 5.14362L19.4978 6.26981C19.8164 6.58833 20.018 7.00506 20.0702 7.45249L20.4888 11.0444C20.5596 11.6516 20.3487 12.2579 19.9164 12.6902L13.9123 18.694C13.4297 16.585 12.43 15.34 11.2612 14.5312C10.6053 14.0773 9.92069 13.7779 9.31727 13.5357C9.17563 13.4789 9.04127 13.4261 8.91352 13.376L8.9135 13.376C8.47042 13.202 8.10669 13.0592 7.79378 12.8851C6.4377 12.1309 6.00908 11.0622 5.94311 10.4986C5.94145 10.4843 5.93936 10.4703 5.93687 10.4563ZM4.8317 11.5614L3.49687 12.8962C2.71579 13.6772 2.71577 14.9436 3.49683 15.7247L8.77495 21.0028C9.55598 21.7838 10.8223 21.7838 11.6033 21.0028L12.7395 19.8667C12.422 17.4747 11.492 16.3341 10.5029 15.6496C9.98125 15.2886 9.41616 15.0362 8.83701 14.8038C8.72621 14.7593 8.61223 14.7147 8.4967 14.6694L8.4964 14.6693L8.49637 14.6693C8.03885 14.4901 7.55718 14.3015 7.15317 14.0768C5.88523 13.3715 5.17521 12.4132 4.8317 11.5614ZM17.3351 9.82044C16.621 10.5345 15.4476 10.5189 14.7143 9.78558C13.9809 9.05224 13.9653 7.87885 14.6794 7.16475C15.3935 6.45065 16.5669 6.46625 17.3002 7.1996C18.0336 7.93295 18.0492 9.10634 17.3351 9.82044Z"/>
</svg>
