<svg width="24" height="24" viewBox="0 0 24 24" xmlns="http://www.w3.org/2000/svg">
<path fill-rule="evenodd" clip-rule="evenodd" d="M16.8352 9.82074C16.1211 10.5348 14.9477 10.5192 14.2143 9.78589C13.481 9.05255 13.4654 7.87916 14.1795 7.16506C14.8936 6.45096 16.067 6.46656 16.8003 7.19991C17.5336 7.93326 17.5493 9.10665 16.8352 9.82074ZM16.128 9.11364C15.8221 9.4196 15.2821 9.43946 14.9214 9.07879C14.5608 8.71812 14.5806 8.17813 14.8866 7.87217C15.1925 7.5662 15.7325 7.54635 16.0932 7.90702C16.4539 8.26769 16.434 8.80767 16.128 9.11364Z"/>
<path fill-rule="evenodd" clip-rule="evenodd" d="M16.7407 4.57802C17.1689 4.63927 17.5658 4.83774 17.8717 5.14366L18.9979 6.26985C19.3164 6.58837 19.5181 7.00509 19.5703 7.45252L19.9889 11.0444C20.0597 11.6516 19.8488 12.2579 19.4165 12.6902L11.1034 21.0028C10.3224 21.7839 9.05607 21.7838 8.27503 21.0028L2.99692 15.7247C2.21586 14.9436 2.21587 13.6773 2.99696 12.8962L11.2872 4.60646C11.7324 4.16128 12.3612 3.95172 12.9845 4.04085L16.7407 4.57802ZM12.3478 5.66715L6.10142 11.9132C6.3813 12.2525 6.76776 12.5924 7.29376 12.885C7.60667 13.059 7.97041 13.2019 8.4135 13.3758C8.54126 13.426 8.67561 13.4787 8.81725 13.5356C9.42067 13.7777 10.1052 14.0771 10.7611 14.531C11.5988 15.1107 12.3496 15.9144 12.8855 17.0996L18.3559 11.6295C18.464 11.5214 18.5167 11.3699 18.499 11.2181L18.0803 7.62618C18.0673 7.51432 18.0169 7.41014 17.9373 7.33051L16.8111 6.20432C16.7346 6.12784 16.6354 6.07822 16.5283 6.06291L12.7721 5.52575C12.6163 5.50346 12.4591 5.55585 12.3478 5.66715ZM4.05759 13.9569L5.1434 12.8712C5.52264 13.3064 6.01787 13.7233 6.65315 14.0766C7.05717 14.3013 7.53885 14.49 7.99638 14.6692C8.11201 14.7144 8.22609 14.7591 8.33699 14.8036C8.91615 15.036 9.48123 15.2885 10.0029 15.6495C10.7165 16.1433 11.3992 16.8744 11.8435 18.1416L10.0428 19.9422C9.84752 20.1374 9.53095 20.1374 9.33569 19.9422L4.05758 14.664C3.86231 14.4688 3.86232 14.1522 4.05759 13.9569Z"/>
</svg>
