<svg>
<path d="M12.5879 8.91459C12.2889 8.61941 12.2831 8.1349 12.5749 7.83242C12.8667 7.52994 13.3456 7.52403 13.6446 7.81921L14.0987 8.26754C14.3978 8.56273 14.4036 9.04723 14.1118 9.34971C13.82 9.65219 13.3411 9.65811 13.0421 9.36292L12.5879 8.91459Z"/>
<path d="M14.37 10.7281C14.0717 10.4336 14.0659 9.95032 14.357 9.6486C14.648 9.34687 15.1258 9.34097 15.424 9.63542L15.8815 10.0871C16.1798 10.3815 16.1856 10.8648 15.8945 11.1665C15.6035 11.4683 15.1257 11.4742 14.8275 11.1797L14.37 10.7281Z"/>
<path d="M11.8806 11.6029L11.0885 12.3679L8.83406 11.9306C8.70958 11.9069 8.5811 11.9452 8.48968 12.0335L8.09568 12.414L10.1243 13.4086L9.21673 14.3946L8.45781 14.3267C8.41313 14.3226 8.36846 14.3386 8.33587 14.3701L7.99121 14.703L8.99951 15.151L9.39994 16.1869L9.74483 15.8538C9.77741 15.8223 9.79475 15.7785 9.79262 15.7333L9.75855 14.9653L10.7745 14.0934L11.6717 16.1809L12.0657 15.8003C12.1571 15.712 12.2006 15.5842 12.1825 15.4591L11.8471 13.1669L12.6392 12.4019C12.922 12.1287 13.2869 11.5991 12.9954 11.292C12.6703 10.9496 12.1635 11.3297 11.8806 11.6029Z"/>
<path fill-rule="evenodd" clip-rule="evenodd" d="M15.0989 2.22404C14.8034 1.92524 14.3244 1.92535 14.029 2.22427L2.45344 13.9395C2.15808 14.2384 2.15818 14.7229 2.45366 15.0217L4.46086 17.0514C4.74292 17.3366 5.19542 17.3513 5.495 17.085L5.57769 17.0115C6.04974 16.5919 6.76868 16.6388 7.18349 17.1163C7.5801 17.5729 7.5551 18.2586 7.13943 18.684C6.84689 18.9834 6.84833 19.4656 7.14264 19.7632L9.13311 21.776C9.4286 22.0748 9.90757 22.0747 10.2029 21.7757L21.7785 10.0605C22.0739 9.76163 22.0738 9.27709 21.7783 8.97829L19.7927 6.97049C19.5107 6.68526 19.0582 6.67056 18.7586 6.93687L18.6734 7.01257C18.1969 7.43622 17.4711 7.38883 17.0523 6.90672C16.6515 6.44535 16.6772 5.75233 17.0979 5.32291C17.3911 5.02362 17.39 4.54084 17.0954 4.24294L15.0989 2.22404ZM12.145 6.29602L14.5643 3.84753L15.5701 4.86464C15.0591 5.82687 15.1612 7.04836 15.9158 7.91703C16.7499 8.87728 18.1097 9.09323 19.1765 8.5114L20.1737 9.51977L17.7434 11.9794C17.7198 11.9473 17.6935 11.9167 17.6643 11.8879L17.2054 11.4349C16.9081 11.1414 16.432 11.1473 16.1418 11.448C15.8517 11.7487 15.8575 12.2305 16.1548 12.5239L16.6137 12.977C16.6385 13.0014 16.6644 13.0238 16.6914 13.044L9.66768 20.1525L8.66703 19.1406C9.17282 18.1831 9.07008 16.9696 8.31999 16.106C7.49064 15.1513 6.13946 14.9354 5.07785 15.5112L4.05827 14.4802L11.0753 7.37858L11.2565 7.55747C11.5555 7.85266 12.0345 7.84675 12.3263 7.54427C12.618 7.24178 12.6122 6.75728 12.3132 6.46209L12.145 6.29602Z"/>
<path d="M2.09161 13.4085L9.20001 2.43271C9.50702 1.95867 10.1371 1.82854 10.6032 2.1429L12.1779 3.20494L2.09161 13.4085Z"/>
</svg>
