<svg width="24" height="24" viewBox="0 0 24 24" xmlns="http://www.w3.org/2000/svg">
<path d="M2.09161 13.4085L9.20001 2.4327C9.50702 1.95866 10.1371 1.82854 10.6032 2.1429L12.1779 3.20493L2.09161 13.4085Z"/>
<path fill-rule="evenodd" clip-rule="evenodd" d="M15.0989 2.22403C14.8034 1.92524 14.3244 1.92534 14.029 2.22426L2.45344 13.9395C2.15808 14.2384 2.15818 14.7229 2.45366 15.0217L4.46086 17.0514C4.74292 17.3366 5.19542 17.3513 5.495 17.085L5.57769 17.0115C6.04974 16.5919 6.76868 16.6388 7.18349 17.1163C7.5801 17.5729 7.5551 18.2586 7.13943 18.684C6.84689 18.9834 6.84833 19.4656 7.14264 19.7632L9.13311 21.776C9.4286 22.0748 9.90757 22.0747 10.2029 21.7757L21.7785 10.0605C22.0739 9.76162 22.0738 9.27708 21.7783 8.97829L19.7927 6.97048C19.5107 6.68526 19.0582 6.67055 18.7586 6.93686L18.6734 7.01256C18.1969 7.43621 17.4711 7.38882 17.0523 6.90671C16.6515 6.44534 16.6772 5.75232 17.0979 5.3229C17.3911 5.02361 17.39 4.54084 17.0954 4.24294L15.0989 2.22403ZM11.8806 11.6029L11.0885 12.3679L8.83406 11.9306C8.70958 11.9069 8.5811 11.9452 8.48967 12.0335L8.09567 12.414L10.1243 13.4086L9.21673 14.3946L8.4578 14.3267C8.41312 14.3226 8.36846 14.3386 8.33587 14.3701L7.99121 14.703L8.99951 15.151L9.39993 16.1869L9.74482 15.8538C9.77741 15.8223 9.79475 15.7785 9.79262 15.7333L9.75855 14.9653L10.7745 14.0934L11.6717 16.1809L12.0657 15.8003C12.1571 15.712 12.2006 15.5842 12.1825 15.4591L11.8471 13.1669L12.6392 12.4019C12.922 12.1287 13.2869 11.5991 12.9954 11.292C12.6703 10.9496 12.1635 11.3297 11.8806 11.6029ZM11.2627 7.55691L11.0776 7.37422L12.1478 6.29215L12.3194 6.46152C12.6184 6.75671 12.6242 7.24122 12.3324 7.5437C12.0406 7.84618 11.5617 7.85209 11.2627 7.55691ZM12.5749 7.83242C12.2831 8.1349 12.289 8.61941 12.588 8.9146L13.0421 9.36292C13.3411 9.65811 13.82 9.6522 14.1118 9.34971C14.4036 9.04723 14.3978 8.56273 14.0988 8.26754L13.6446 7.81921C13.3456 7.52403 12.8667 7.52994 12.5749 7.83242ZM14.37 10.7281C14.0717 10.4336 14.0659 9.95032 14.357 9.6486C14.648 9.34687 15.1258 9.34097 15.424 9.63542L15.8815 10.0871C16.1798 10.3815 16.1856 10.8648 15.8945 11.1665C15.6035 11.4683 15.1257 11.4742 14.8275 11.1797L14.37 10.7281ZM16.1577 11.4505C15.8666 11.7522 15.8724 12.2355 16.1707 12.53L16.6282 12.9816C16.6499 13.0031 16.6726 13.0229 16.6961 13.0412L17.7544 11.9712C17.7326 11.9425 17.7086 11.915 17.6822 11.889L17.2247 11.4373C16.9265 11.1429 16.4487 11.1488 16.1577 11.4505Z"/>
</svg>
