<svg>
<path d="M17.5041 6.60795C16.5342 5.97584 15.8349 4.96403 15.6163 3.78516C15.5694 3.53051 15.5432 3.26819 15.5432 3H12.4486L12.4436 15.4018C12.3917 16.7907 11.2485 17.9054 9.84751 17.9054C9.41181 17.9054 9.00184 17.7966 8.64064 17.6065C7.81259 17.1708 7.24596 16.303 7.24596 15.3043C7.24596 13.8699 8.41309 12.7028 9.84705 12.7028C10.1148 12.7028 10.3717 12.747 10.6146 12.8229V9.66371C10.3631 9.62939 10.1076 9.60817 9.84705 9.60817C6.70641 9.60817 4.15137 12.1632 4.15137 15.3043C4.15137 17.2313 5.11397 18.9366 6.58315 19.9679C7.50828 20.6176 8.63387 21 9.84751 21C12.9881 21 15.5432 18.445 15.5432 15.3043V9.01535C16.7568 9.8863 18.2441 10.3997 19.8487 10.3997V7.30506C18.9845 7.30506 18.1795 7.04816 17.5041 6.60795Z"/>
</svg>
