<svg width="24" height="24" viewBox="0 0 24 24" fill="currentColor" xmlns="http://www.w3.org/2000/svg">
<path d="M20.0835 6.27144V4.05517C20.0728 3.41277 19.8051 2.85602 19.3233 2.47059C18.8201 2.06373 18.1242 1.91384 17.4175 2.06373L6.13273 4.48343C4.83723 4.76181 3.8308 5.95024 3.8308 7.20292L3.85221 10.5006V12.7061C3.85221 13.1344 4.20553 13.4877 4.6338 13.4877C5.06206 13.4877 5.41538 13.1344 5.41538 12.7061V8.63761C5.41538 8.17722 5.79012 7.80249 6.2505 7.80249H19.5803C20.0407 7.80249 20.4154 8.17722 20.4154 8.63761V9.5905H15.3297C14.2591 9.5905 13.3918 10.4577 13.3918 11.5284V13.8732C13.3918 14.9438 14.2591 15.8111 15.3297 15.8111H20.4154V16.7639C20.4154 17.2243 20.0407 17.5991 19.5803 17.5991H10.3619C9.93359 17.5991 9.58027 17.9524 9.58027 18.3807C9.58027 18.8089 9.93359 19.1622 10.3619 19.1622H19.591C20.9186 19.1622 22 18.0809 22 16.7532V8.6162C22 7.45988 21.1756 6.49628 20.0835 6.26074V6.27144ZM6.03637 6.23932C6.17556 6.15367 6.31474 6.07872 6.47534 6.0466L17.7494 3.63761C17.9743 3.58408 18.1884 3.6162 18.3169 3.72326C18.4132 3.79821 18.4561 3.91598 18.4668 4.06588V6.21791H6.26121C6.18626 6.21791 6.11132 6.22862 6.03637 6.23932ZM15.3404 14.2051C15.1584 14.2051 15.0085 14.0552 15.0085 13.8732V11.5284C15.0085 11.3464 15.1584 11.1965 15.3404 11.1965H20.4261V14.2158H15.3404V14.2051Z"/>
<path d="M16.7427 11.7318C16.2074 11.7318 15.7791 12.1601 15.7791 12.6954C15.7791 13.2308 16.2074 13.659 16.7427 13.659C17.2781 13.659 17.7063 13.2308 17.7063 12.6954C17.7063 12.1601 17.2781 11.7318 16.7427 11.7318Z"/>
<path d="M8.52034 13.4235L7.19272 14.7083L3.42398 13.9802C3.22056 13.9374 2.99572 14.0017 2.84582 14.1515L2.18201 14.7832L5.57602 16.4428L4.05567 18.0916L2.78158 17.9738C2.70664 17.9738 2.63169 17.9952 2.57816 18.0488L2 18.6055L3.69165 19.355L4.36617 21.0894L4.94433 20.5327C4.99786 20.4792 5.02998 20.4042 5.01927 20.3293L4.96574 19.0445L6.66809 17.5884L8.16702 21.0787L8.83084 20.447C8.98073 20.2972 9.05568 20.083 9.02356 19.8796L8.46681 16.0466L9.79443 14.7618C10.2655 14.3014 10.8758 13.4128 10.394 12.8989C9.84797 12.3207 9.00214 12.9631 8.53105 13.4235H8.52034Z"/>
</svg>
