<svg width="24" height="24" viewBox="0 0 24 24" xmlns="http://www.w3.org/2000/svg">
<path d="M19.1572 8.64114C19.1682 8.79983 19.1682 8.95851 19.1682 9.11866C19.1682 13.9984 15.4534 19.6262 8.6607 19.6262V19.6232C6.65411 19.6262 4.68921 19.0514 3 17.9677C3.29177 18.0028 3.58501 18.0203 3.87898 18.021C5.54186 18.0225 7.15722 17.4645 8.46545 16.4371C6.88519 16.4071 5.49945 15.3768 5.01536 13.8726C5.56892 13.9794 6.13931 13.9574 6.68263 13.809C4.95978 13.4609 3.72029 11.9472 3.72029 10.1892C3.72029 10.1731 3.72029 10.1578 3.72029 10.1424C4.23364 10.4283 4.80841 10.587 5.39634 10.6046C3.77367 9.52012 3.27349 7.36144 4.25338 5.67368C6.12834 7.98081 8.8947 9.38337 11.8644 9.53182C11.5667 8.24919 11.9733 6.90513 12.9327 6.00348C14.4201 4.60531 16.7594 4.67697 18.1576 6.16363C18.9846 6.00056 19.7773 5.69708 20.5027 5.2671C20.2271 6.12195 19.6501 6.84809 18.8793 7.30952C19.6113 7.22323 20.3265 7.02725 21 6.72816C20.5042 7.47112 19.8797 8.11829 19.1572 8.64114Z"/>
</svg>
