<svg>
<path fill-rule="evenodd" clip-rule="evenodd" d="M8.01179 5.99765C8.01179 3.78981 9.8124 2 12.0336 2C14.2547 2 16.0553 3.78981 16.0553 5.99765V9.00763H16.5778C17.9155 9.00763 19 10.0856 19 11.4153V15.042C19 18.8848 15.866 22 12 22C8.134 22 5 18.8848 5 15.042V11.4153C5 10.0856 6.08445 9.00763 7.4222 9.00763H14.5472V5.99765C14.5472 4.61775 13.4218 3.49912 12.0336 3.49912C10.6453 3.49912 9.51996 4.61775 9.51996 5.99765V6.99767C9.51996 7.41164 9.18234 7.74723 8.76587 7.74723C8.34941 7.74723 8.01179 7.41164 8.01179 6.99767V5.99765ZM13.9104 14.2131C13.9104 14.9725 13.462 15.6277 12.814 15.9315V17.3017C12.814 17.7486 12.4495 18.1108 12 18.1108C11.5504 18.1108 11.186 17.7486 11.186 17.3017V15.9315C10.5381 15.6276 10.0897 14.9724 10.0897 14.2131C10.0897 13.1644 10.945 12.3142 12 12.3142C13.0551 12.3142 13.9104 13.1644 13.9104 14.2131Z"/>
</svg>
