<svg>
<path d="M12.814 15.9315C13.462 15.6277 13.9104 14.9725 13.9104 14.2131C13.9104 13.1644 13.0551 12.3142 12 12.3142C10.945 12.3142 10.0897 13.1644 10.0897 14.2131C10.0897 14.9724 10.5381 15.6276 11.186 15.9314V17.3017C11.186 17.7485 11.5504 18.1108 12 18.1108C12.4495 18.1108 12.814 17.7485 12.814 17.3017V15.9315Z"/>
<path fill-rule="evenodd" clip-rule="evenodd" d="M12.0336 2C9.8124 2 8.01179 3.78981 8.01179 5.99765V6.99767C8.01179 7.41164 8.34941 7.74723 8.76587 7.74723C9.18234 7.74723 9.51996 7.41164 9.51996 6.99767V5.99765C9.51996 4.61775 10.6453 3.49912 12.0336 3.49912C13.4218 3.49912 14.5472 4.61775 14.5472 5.99765V9.00763H7.42221C6.08446 9.00763 5 10.0856 5 11.4153V15.042C5 18.8848 8.13401 22 12 22C15.866 22 19 18.8848 19 15.042V11.4153C19 10.0856 17.9155 9.00763 16.5778 9.00763H16.0553V5.99765C16.0553 3.78981 14.2547 2 12.0336 2ZM6.50817 11.4153C6.50817 10.9135 6.9174 10.5068 7.42221 10.5068H16.5778C17.0826 10.5068 17.4918 10.9135 17.4918 11.4153V15.042C17.4918 18.0569 15.0331 20.5009 12 20.5009C8.96694 20.5009 6.50817 18.0569 6.50817 15.042V11.4153Z"/>
</svg>
