<svg width="24" height="24" viewBox="0 0 24 24" xmlns="http://www.w3.org/2000/svg">
    <g>
        <path d="M19.0291,8.78228523 C18.00774,7.98370057 16.96366,7.34557261 15.92594,6.8856929 C14.59986,6.29798045 13.27898,6 11.99998,6 C10.72098,6 9.4001,6.29798045 8.07406,6.88565591 C7.03634,7.34557261 5.99226,7.98370057 4.9709,8.78224824 C3.24646,10.130558 2.1831,11.4665136 2.13866,11.5227363 C1.95378,11.7566894 1.95378,12.0744218 2.13866,12.3083749 C2.18306,12.3645977 3.24642,13.7005532 4.9709,15.048863 C5.99226,15.8474477 7.03634,16.4855756 8.07406,16.9454553 C9.4001,17.5331678 10.72102,17.8311112 11.99998,17.8311112 C13.27894,17.8311112 14.59986,17.5331308 15.9259,16.9454553 C16.96362,16.4855386 18.0077,15.8474107 19.02906,15.048863 C20.7535,13.7005532 21.81686,12.3645977 21.8613,12.3083749 C22.04618,12.0744218 22.04618,11.7566894 21.8613,11.5227363 C21.8169,11.4665506 20.75354,10.130595 19.0291,8.78228523 Z M11.99998,16.4995943 C8.0921,16.4995943 4.69478,13.0914244 3.63922,11.9155926 C4.69526,10.739317 8.09238,7.33159091 11.99998,7.33159091 C15.90758,7.33159091 19.3047,10.73928 20.3607,11.9155926 C19.3047,13.0919052 15.90758,16.4995943 11.99998,16.4995943 Z"></path>
        <path d="M11.99998,8.5496267 C9.99286,8.5496267 8.35998,10.0595768 8.35998,11.9155926 C8.35998,13.7716084 9.99286,15.2815585 11.99998,15.2815585 C14.0071,15.2815585 15.63998,13.7716084 15.63998,11.9155926 C15.63998,10.0595768 14.0071,8.5496267 11.99998,8.5496267 Z M11.99998,13.9499676 C10.7869,13.9499676 9.79998,13.037347 9.79998,11.9155926 C9.79998,10.7938382 10.7869,9.88121761 11.99998,9.88121761 C13.21306,9.88121761 14.19998,10.7938382 14.19998,11.9155926 C14.19998,13.037347 13.21306,13.9499676 11.99998,13.9499676 Z"></path>
    </g>
</svg>
