<svg width="24" height="24" viewBox="0 0 24 24" xmlns="http://www.w3.org/2000/svg">
<path fill-rule="evenodd" clip-rule="evenodd" d="M15.9259 6.88569C16.9637 7.34557 18.0077 7.9837 19.0291 8.78229C20.7535 10.1306 21.8169 11.4666 21.8613 11.5227C22.0462 11.7567 22.0462 12.0744 21.8613 12.3084C21.8169 12.3646 20.7535 13.7006 19.0291 15.0489C18.0077 15.8474 16.9636 16.4855 15.9259 16.9455C14.5999 17.5331 13.2789 17.8311 12 17.8311C10.721 17.8311 9.4001 17.5332 8.07406 16.9455C7.03634 16.4856 5.99226 15.8474 4.9709 15.0489C3.24642 13.7006 2.18306 12.3646 2.13866 12.3084C1.95378 12.0744 1.95378 11.7567 2.13866 11.5227C2.1831 11.4665 3.24646 10.1306 4.9709 8.78225C5.99226 7.9837 7.03634 7.34557 8.07406 6.88566C9.4001 6.29798 10.721 6 12 6C13.279 6 14.5999 6.29798 15.9259 6.88569ZM3.63922 11.9156C4.69478 13.0914 8.0921 16.4996 12 16.4996C15.9076 16.4996 19.3047 13.0919 20.3607 11.9156C19.3047 10.7393 15.9076 7.33159 12 7.33159C8.09238 7.33159 4.69526 10.7393 3.63922 11.9156Z"/>
<path fill-rule="evenodd" clip-rule="evenodd" d="M12 16.4996C8.0921 16.4996 4.69478 13.0914 3.63922 11.9156C4.69526 10.7393 8.09238 7.33159 12 7.33159C15.9076 7.33159 19.3047 10.7393 20.3607 11.9156C19.3047 13.0919 15.9076 16.4996 12 16.4996ZM8.35998 11.9156C8.35998 10.0596 9.99286 8.54963 12 8.54963C14.0071 8.54963 15.64 10.0596 15.64 11.9156C15.64 13.7716 14.0071 15.2816 12 15.2816C9.99286 15.2816 8.35998 13.7716 8.35998 11.9156Z"/>
<path d="M12 13.95C10.7869 13.95 9.79998 13.0373 9.79998 11.9156C9.79998 10.7938 10.7869 9.88122 12 9.88122C13.2131 9.88122 14.2 10.7938 14.2 11.9156C14.2 13.0373 13.2131 13.95 12 13.95Z"/>
</svg>
