<svg>
  <title>iconTitle</title>
  <desc>iconDesc</desc>
  <style></style>
  <path d="M12,3 C16.9705627,3 21,7.02943725 21,12 C21,16.9705627 16.9705627,21 12,21 C7.02943725,21 3,16.9705627 3,12 C3,7.02943725 7.02943725,3 12,3 Z M12,13.5 C11.617649,13.5 11.3021235,13.1785634 11.2558436,12.7631004 L11.25,12.6574074 L11.25,7.84259259 C11.25,7.37724155 11.5857864,7 12,7 C12.382351,7 12.6978765,7.32143659 12.7441564,7.73689957 L12.75,7.84259259 L12.75,12.6574074 C12.75,13.1227584 12.4142136,13.5 12,13.5 Z M12,16.25 C11.5857864,16.25 11.25,15.9142136 11.25,15.5 C11.25,15.0857864 11.5857864,14.75 12,14.75 C12.4142136,14.75 12.75,15.0857864 12.75,15.5 C12.75,15.9142136 12.4142136,16.25 12,16.25 Z"/>
</svg>
