<svg>
  <path d="M12,2 C17.5228475,2 22,6.4771525 22,12 C22,17.5228475 17.5228475,22 12,22 C6.4771525,22 2,17.5228475 2,12 C2,6.4771525 6.4771525,2 12,2 Z M12,15.5 C11.5857864,15.5 11.25,15.8357864 11.25,16.25 C11.25,16.6642136 11.5857864,17 12,17 C12.4142136,17 12.75,16.6642136 12.75,16.25 C12.75,15.8357864 12.4142136,15.5 12,15.5 Z M12,7 C11.6203042,7 11.306509,7.28215388 11.2568466,7.64822944 L11.25,7.75 L11.25,14 L11.2568466,14.1017706 C11.306509,14.4678461 11.6203042,14.75 12,14.75 C12.3796958,14.75 12.693491,14.4678461 12.7431534,14.1017706 L12.75,14 L12.75,7.75 L12.7431534,7.64822944 C12.693491,7.28215388 12.3796958,7 12,7 Z"/>
</svg>
