<svg>
  <g>
    <path d="M12,15.5 C12.828,15.5 13.5,16.172 13.5,17 C13.5,17.828 12.828,18.5 12,18.5 C11.172,18.5 10.5,17.828 10.5,17 C10.5,16.172 11.172,15.5 12,15.5 Z M5.70160282,4.7546324 L5.78506643,4.82800225 L17.2244063,16.4744487 C17.5146602,16.7699577 17.5104002,17.2448123 17.2148913,17.5350662 C16.9462468,17.7989335 16.5293828,17.8194007 16.2377374,17.5989211 L16.1542738,17.5255513 L4.71493395,5.87910475 C4.42468001,5.58359583 4.42894001,5.1087412 4.72444894,4.81848726 C4.99309341,4.55462004 5.40995748,4.53415278 5.70160282,4.7546324 Z M12.104,10.2515533 L12,10.25 C13.872869,10.25 15.5608931,11.0002329 17.0303301,12.4696699 C17.3232233,12.7625631 17.3232233,13.2374369 17.0303301,13.5303301 C16.7374369,13.8232233 16.2625631,13.8232233 15.9696699,13.5303301 C15.3328904,12.8935505 14.6636498,12.4305043 13.9568713,12.1365226 L12.104,10.2515533 Z M8.81690919,11.0638113 L9.9214241,12.1889821 C9.25939561,12.4843993 8.63044748,12.9302127 8.03033009,13.5303301 C7.73743687,13.8232233 7.26256313,13.8232233 6.96966991,13.5303301 C6.6767767,13.2374369 6.6767767,12.7625631 6.96966991,12.4696699 C7.55180916,11.8875307 8.16825491,11.418268 8.81690919,11.0638113 Z M12,5.25 C15.2044739,5.25 18.0599162,6.499256 20.5303301,8.96966991 C20.8232233,9.26256313 20.8232233,9.73743687 20.5303301,10.0303301 C20.2374369,10.3232233 19.7625631,10.3232233 19.4696699,10.0303301 C17.2734172,7.83407733 14.7955261,6.75 12,6.75 C10.9868453,6.75 10.0154114,6.89239171 9.08398475,7.17851269 L7.92064547,5.99424586 C9.20875119,5.49891497 10.5696032,5.25 12,5.25 Z M5.25889691,7.44198142 L6.32411787,8.52648997 C5.76194053,8.91275315 5.21646529,9.36240066 4.68719748,9.87581862 C4.63474935,9.92669609 4.58246038,9.97819979 4.53033009,10.0303301 C4.23743687,10.3232233 3.76256313,10.3232233 3.46966991,10.0303301 C3.1767767,9.73743687 3.1767767,9.26256313 3.46966991,8.96966991 C4.04532443,8.3940154 4.64188524,7.8846674 5.25889691,7.44198142 Z" id="wifi-disabled" fill="#626B79"></path>
  </g>
</svg>