<svg xmlns="http://www.w3.org/2000/svg" width="24" height="24" viewBox="0 0 24 24">
  <path fill="#626B79" fill-rule="evenodd" d="M12,15.5 C12.828,15.5 13.5,16.172 13.5,17 C13.5,17.828 12.828,18.5 12,18.5 C11.172,18.5 10.5,17.828 10.5,17 C10.5,16.172 11.172,15.5 12,15.5 Z M12,10.25 C13.872869,10.25 15.5608931,11.0002329 17.0303301,12.4696699 C17.3232233,12.7625631 17.3232233,13.2374369 17.0303301,13.5303301 C16.7374369,13.8232233 16.2625631,13.8232233 15.9696699,13.5303301 C14.7724402,12.3331004 13.4604643,11.75 12,11.75 C10.5395357,11.75 9.22755979,12.3331004 8.03033009,13.5303301 C7.73743687,13.8232233 7.26256313,13.8232233 6.96966991,13.5303301 C6.6767767,13.2374369 6.6767767,12.7625631 6.96966991,12.4696699 C8.43910688,11.0002329 10.127131,10.25 12,10.25 Z M12,5.25 C15.2044739,5.25 18.0599162,6.499256 20.5303301,8.96966991 C20.8232233,9.26256313 20.8232233,9.73743687 20.5303301,10.0303301 C20.2374369,10.3232233 19.7625631,10.3232233 19.4696699,10.0303301 C17.2734172,7.83407733 14.7955261,6.75 12,6.75 C9.20447389,6.75 6.72658284,7.83407733 4.53033009,10.0303301 C4.23743687,10.3232233 3.76256313,10.3232233 3.46966991,10.0303301 C3.1767767,9.73743687 3.1767767,9.26256313 3.46966991,8.96966991 C5.94008383,6.499256 8.79552611,5.25 12,5.25 Z"/>
</svg>
