<svg width="24" height="24" viewBox="0 0 24 24" xmlns="http://www.w3.org/2000/svg">
<path fill-rule="evenodd" clip-rule="evenodd" d="M9 3C8.7 3 8.5 3.2 8.5 3.4L7.4 8C6.8 10.5 8.7 13 11.3 13V19.5H8.8C8.4 19.5 8.1 19.8 8.1 20.2C8.1 20.6 8.4 20.9 8.8 20.9H15.1C15.5 20.9 15.8 20.6 15.8 20.2C15.8 19.8 15.5 19.5 15.1 19.5H12.7V13C15.3 13 17.2 10.5 16.6 8L15.5 3.4C15.5 3.2 15.3 3 15 3H9ZM8.8 8L9.7 4.2H14.3L15.2 8C15.7 9.9 14.2 11.7 12.3 11.7H11.6C9.7 11.8 8.3 9.9 8.8 8Z"/>
<path d="M8.8 8L9.7 4.2H14.3L15.2 8C15.7 9.9 14.2 11.7 12.3 11.7H11.6C9.7 11.8 8.3 9.9 8.8 8Z"/>
</svg>
