<svg width="24" height="24" viewBox="0 0 24 24" xmlns="http://www.w3.org/2000/svg">
    <path d="M15.0356729,3.0005248 C15.266924,3.0005248 15.4680037,3.15910546 15.5219024,3.38398765 L15.5219024,3.38398765 L16.6283719,8.0005248 L16.680618,8.24103632 C16.7254664,8.48291968 16.7480797,8.72857648 16.7480797,8.97492778 C16.7480797,11.1982036 14.9457586,13.0005248 12.7224827,13.0005248 L12.7388843,13.0005248 L12.7388843,19.5025248 L15.1700672,19.5029585 C15.5841601,19.5029585 15.9198488,19.8386472 15.9198488,20.2527401 C15.9198488,20.666833 15.5841601,21.0025217 15.1700672,21.0025217 L8.84330357,21.0025217 C8.42921065,21.0025217 8.09352201,20.666833 8.09352201,20.2527401 C8.09352201,19.8386472 8.42921065,19.5029585 8.84330357,19.5029585 L11.2718843,19.5025248 L11.2722684,13.0005004 C11.0326588,12.9996678 10.7937534,12.9774862 10.5583757,12.9342989 L10.3197415,12.8830055 C8.1570293,12.3491981 6.83654105,10.163237 7.37034846,8.0005248 L7.37034846,8.0005248 L8.48933298,3.38277158 C8.54368412,3.15847883 8.74448531,3.0005248 8.97526938,3.0005248 L8.97526938,3.0005248 Z M14.3165388,4.2505248 L9.69683201,4.2505248 L8.76493003,8.03283457 C8.36856066,9.6415786 9.35138451,11.2670442 10.9601285,11.6634135 C11.1949724,11.7212754 11.4359518,11.7505248 11.6778188,11.7505248 L12.335552,11.7505248 C13.9924063,11.7505248 15.335552,10.4073791 15.335552,8.7505248 C15.335552,8.50865785 15.3063026,8.26767841 15.2484408,8.03283457 L14.3165388,4.2505248 Z"></path>
</svg>