<svg>
<path fill-rule="evenodd" clip-rule="evenodd" d="M9.00003 3C8.70003 3 8.50003 3.2 8.50003 3.4L7.40003 8C6.80003 10.5 8.70003 13 11.3 13V19.5H8.80003C8.40003 19.5 8.10003 19.8 8.10003 20.2C8.10003 20.6 8.40003 20.9 8.80003 20.9H15.1C15.5 20.9 15.8 20.6 15.8 20.2C15.8 19.8 15.5 19.5 15.1 19.5H12.7V13C15.3 13 17.2 10.5 16.6 8L15.5 3.4C15.5 3.2 15.3 3 15 3H9.00003ZM8.80003 8L9.70003 4.2H14.3L15.2 8C15.7 9.9 14.2 11.7 12.3 11.7H11.6C9.70003 11.8 8.30003 9.9 8.80003 8Z"/>
<path d="M8.80003 8L9.70003 4.2H14.3L15.2 8C15.7 9.9 14.2 11.7 12.3 11.7H11.6C9.70003 11.8 8.30003 9.9 8.80003 8Z"/>
</svg>
