<svg>
<path fill-rule="evenodd" clip-rule="evenodd" d="M12 2C17.5228 2 22 6.47717 22 12C22 17.5228 17.5228 22 12 22C6.47717 22 2 17.5228 2 12C2 6.47717 6.47717 2 12 2ZM14.5517 8.46841C14.8456 8.24467 15.267 8.26705 15.5355 8.53553C15.804 8.80402 15.8264 9.22542 15.6027 9.51939L15.5355 9.59619L13.0607 12.0711L15.5355 14.5459L15.6027 14.6227C15.8264 14.9167 15.804 15.3381 15.5355 15.6066C15.267 15.8751 14.8456 15.8975 14.5517 15.6737L14.4749 15.6066L12 13.1317L9.52513 15.6066L9.44832 15.6737C9.15435 15.8975 8.73295 15.8751 8.46447 15.6066C8.19598 15.3381 8.17361 14.9167 8.39734 14.6227L8.46447 14.5459L10.9393 12.0711L8.46447 9.59619L8.39734 9.51939C8.17361 9.22542 8.19598 8.80402 8.46447 8.53553C8.73295 8.26705 9.15435 8.24467 9.44832 8.46841L9.52513 8.53553L12 11.0104L14.4749 8.53553L14.5517 8.46841Z"/>
</svg>
