<svg>
<path fill-rule="evenodd" clip-rule="evenodd" d="M16.51 17.26C16.34 17.26 16.19 17.21 16.06 17.11L15.97 17.03L12.01 13.07L8.02999 17.05L7.92999 17.13C7.81999 17.21 7.65999 17.27 7.49999 17.27C7.29999 17.27 7.10999 17.19 6.96999 17.05C6.70999 16.79 6.67999 16.36 6.89999 16.07L6.97999 15.98L10.94 12.02L6.95999 8.04L6.87999 7.94C6.66999 7.66 6.69999 7.24 6.95999 6.98C7.09999 6.84 7.28999 6.76 7.48999 6.76C7.65999 6.76 7.80999 6.81 7.93999 6.91L8.03999 6.99L12 10.95L15.98 6.97L16.08 6.89C16.19 6.81 16.35 6.75 16.51 6.75C16.71 6.75 16.9 6.83 17.04 6.97C17.3 7.23 17.33 7.66 17.11 7.95L17.03 8.05L13.07 12.01L17.05 15.99L17.13 16.09C17.34 16.37 17.31 16.79 17.05 17.05C16.91 17.19 16.72 17.27 16.52 17.27L16.51 17.26Z"/>
</svg>
