<svg>
  <title>iconTitle</title>
  <desc>iconDesc</desc>
  <style></style>
  <path d="M5.39705176,5.55378835 L5.46966991,5.46966991 C5.73593648,5.20340335 6.15260016,5.1791973 6.44621165,5.39705176 L6.53033009,5.46966991 L12,10.939 L17.4696699,5.46966991 C17.7359365,5.20340335 18.1526002,5.1791973 18.4462117,5.39705176 L18.5303301,5.46966991 C18.7965966,5.73593648 18.8208027,6.15260016 18.6029482,6.44621165 L18.5303301,6.53033009 L13.061,12 L18.5303301,17.4696699 C18.7965966,17.7359365 18.8208027,18.1526002 18.6029482,18.4462117 L18.5303301,18.5303301 C18.2640635,18.7965966 17.8473998,18.8208027 17.5537883,18.6029482 L17.4696699,18.5303301 L12,13.061 L6.53033009,18.5303301 C6.26406352,18.7965966 5.84739984,18.8208027 5.55378835,18.6029482 L5.46966991,18.5303301 C5.20340335,18.2640635 5.1791973,17.8473998 5.39705176,17.5537883 L5.46966991,17.4696699 L10.939,12 L5.46966991,6.53033009 C5.20340335,6.26406352 5.1791973,5.84739984 5.39705176,5.55378835 L5.46966991,5.46966991 L5.39705176,5.55378835 Z"/>
</svg>
