<svg>
  <path d="M15.825,7.5 C16.1977922,7.5 16.5,7.80220779 16.5,8.175 C16.5,8.35233518 16.4316148,8.51369815 16.3197771,8.63415637 L16.32,8.63459415 L12.954,12 L16.2713474,15.3167532 C16.4109521,15.4410771 16.5,15.6226394 16.5,15.825 C16.5,16.1977922 16.1977922,16.5 15.825,16.5 C15.6226394,16.5 15.4410771,16.4109521 15.3173606,16.2699038 L15.3167532,16.2713474 L12,12.954 L8.68324676,16.2713474 C8.55892291,16.4109521 8.37736058,16.5 8.175,16.5 C7.80220779,16.5 7.5,16.1977922 7.5,15.825 C7.5,15.6226394 7.58904794,15.4410771 7.73009624,15.3173606 L7.72865261,15.3167532 L11.0451,12 L7.68,8.63459415 C7.56838515,8.51369815 7.5,8.35233518 7.5,8.175 C7.5,7.80220779 7.80220779,7.5 8.175,7.5 C8.35233518,7.5 8.51369815,7.56838515 8.63415637,7.68022291 L8.63459415,7.68 L12,11.0451 L15.3409649,7.70453685 C15.3454247,7.69994918 15.3499492,7.6954247 15.3545368,7.69096488 L15.3654058,7.68 C15.4863018,7.56838515 15.6476648,7.5 15.825,7.5 Z"/>
</svg>
