<svg width="24" height="24" viewBox="0 0 24 24" xmlns="http://www.w3.org/2000/svg">
<path fill-rule="evenodd" clip-rule="evenodd" d="M15.5355 8.46442C15.267 8.19594 14.8456 8.17356 14.5516 8.3973L14.4748 8.46442L12 10.9393L9.52508 8.46442L9.44828 8.3973C9.15431 8.17356 8.73291 8.19594 8.46442 8.46442C8.19594 8.73291 8.17356 9.15431 8.3973 9.44828L8.46442 9.52508L10.9393 12L8.46442 14.4748L8.3973 14.5516C8.17356 14.8456 8.19594 15.267 8.46442 15.5355C8.73291 15.804 9.15431 15.8263 9.44828 15.6026L9.52508 15.5355L12 13.0606L14.4748 15.5355L14.5516 15.6026C14.8456 15.8263 15.267 15.804 15.5355 15.5355C15.804 15.267 15.8263 14.8456 15.6026 14.5516L15.5355 14.4748L13.0606 12L15.5355 9.52508L15.6026 9.44828C15.8263 9.15431 15.804 8.73291 15.5355 8.46442Z"/>
</svg>
