<svg width="24" height="24" viewBox="0 0 24 24" fill="none" xmlns="http://www.w3.org/2000/svg">
<path fill-rule="evenodd" clip-rule="evenodd" d="M12 2C17.5228 2 22 6.47715 22 12C22 17.5228 17.5228 22 12 22C6.47715 22 2 17.5228 2 12C2 6.47715 6.47715 2 12 2ZM12 3.5C16.6944 3.5 20.5 7.30558 20.5 12C20.5 16.6944 16.6944 20.5 12 20.5C7.30558 20.5 3.5 16.6944 3.5 12C3.5 7.30558 7.30558 3.5 12 3.5ZM15.5355 8.46447C15.267 8.19598 14.8456 8.17361 14.5517 8.39734L14.4749 8.46447L12 10.9393L9.52513 8.46447L9.44832 8.39734C9.15435 8.17361 8.73295 8.19598 8.46447 8.46447C8.19598 8.73295 8.17361 9.15435 8.39734 9.44832L8.46447 9.52513L10.9393 12L8.46447 14.4749L8.39734 14.5517C8.17361 14.8456 8.19598 15.267 8.46447 15.5355C8.73295 15.804 9.15435 15.8264 9.44832 15.6027L9.52513 15.5355L12 13.0607L14.4749 15.5355L14.5517 15.6027C14.8456 15.8264 15.267 15.804 15.5355 15.5355C15.804 15.267 15.8264 14.8456 15.6027 14.5517L15.5355 14.4749L13.0607 12L15.5355 9.52513L15.6027 9.44832C15.8264 9.15435 15.804 8.73295 15.5355 8.46447Z"/>
</svg>
