<svg>
<path fill-rule="evenodd" clip-rule="evenodd" d="M20.6236 7.63083C20.4171 6.85002 19.8065 6.23523 19.0323 6.02618C17.6291 5.64706 12 5.64706 12 5.64706C12 5.64706 6.37091 5.64706 4.96771 6.02618C4.19351 6.23523 3.58295 6.85002 3.37637 7.63083C3 9.04691 3 12 3 12C3 12 3 14.9531 3.37637 16.3692C3.58295 17.15 4.19351 17.7648 4.96771 17.9738C6.37192 18.353 12 18.353 12 18.353C12 18.353 17.6291 18.353 19.0323 17.9738C19.8065 17.7648 20.4171 17.15 20.6236 16.3692C21 14.9541 21 12 21 12C21 12 21 9.04691 20.6236 7.63083ZM10.1587 14.6816L14.8633 12L10.1587 9.31845V14.6816Z"/>
</svg>
