<svg width="24" height="24" viewBox="0 0 24 24" fill="none" xmlns="http://www.w3.org/2000/svg">
<path d="M21.1096 15.7733C21.1094 16.7909 20.2799 17.619 19.259 17.619H4.76196C3.74102 17.6189 2.9104 16.7904 2.9104 15.7713V7.75568C2.9104 6.7384 3.74097 5.91012 4.76294 5.90997H19.259C20.2788 5.90997 21.1096 6.7384 21.1096 7.75568V15.7733Z" fill="#F7F7F7"/>
<path fill-rule="evenodd" clip-rule="evenodd" d="M9.0489 9.94128C9.0489 8.56033 10.1684 7.44088 11.5492 7.44088C12.9301 7.44088 14.0496 8.56033 14.0496 9.94128C14.0496 11.3222 12.9302 12.4417 11.5492 12.4417C10.1683 12.4417 9.0489 11.3222 9.0489 9.94128Z" fill="white"/>
<path fill-rule="evenodd" clip-rule="evenodd" d="M13.0614 9.89206C13.0603 9.25176 12.6601 8.70567 12.0962 8.4894V11.2946C12.6601 11.0781 13.0603 10.5325 13.0614 9.89206ZM11.0203 11.2941V8.48968C10.4568 8.70663 10.0572 9.25194 10.0557 9.89206C10.0572 10.5321 10.4568 11.0773 11.0203 11.2941ZM11.5585 7.521C10.249 7.5215 9.18812 8.58262 9.18791 9.89206C9.18813 11.2014 10.249 12.2623 11.5585 12.2625C12.8679 12.2623 13.9291 11.2014 13.9294 9.89206C13.9291 8.58262 12.8679 7.5215 11.5585 7.521ZM11.5527 12.4863C10.1198 12.4931 8.94041 11.3322 8.94041 9.91912C8.94041 8.37473 10.1198 7.30652 11.5527 7.3068H12.2242C13.6401 7.30652 14.9325 8.37423 14.9325 9.91912C14.9325 11.3317 13.6401 12.4863 12.2242 12.4863H11.5527Z" fill="#0069AA"/>
<path d="M6.2771 15.1525C6.32091 15.1525 6.36335 15.1473 6.41284 15.1496L7.06226 15.8791V15.3361C7.06132 15.2195 6.98315 15.2053 6.94019 15.2043H6.90112V15.1466H6.90698C6.97671 15.1466 7.04506 15.1525 7.11401 15.1525C7.17411 15.1525 7.23463 15.1466 7.29565 15.1466H7.30249V15.2043H7.27319C7.21241 15.2058 7.15004 15.2115 7.14819 15.3849V16.0568C7.14819 16.1085 7.14989 16.1604 7.15698 16.2052L7.15894 16.2121H7.15112L7.0896 16.2101L6.34058 15.3752V15.9669C6.34236 16.0953 6.36225 16.1316 6.47339 16.133H6.50464V16.1906H6.49878C6.43507 16.1906 6.37119 16.1848 6.30835 16.1847C6.24229 16.1847 6.17403 16.1906 6.10718 16.1906H6.10034V16.133H6.12769C6.22524 16.1324 6.25358 16.0699 6.25464 15.9523V15.3302C6.25419 15.2519 6.1897 15.2044 6.12671 15.2043H6.10034V15.1466H6.10718C6.16358 15.1466 6.22174 15.1525 6.2771 15.1525Z" fill="#1A1919"/>
<path d="M10.5398 15.1525C10.5831 15.1525 10.6261 15.1467 10.6755 15.1486L11.325 15.8791V15.3361C11.3244 15.2194 11.2458 15.205 11.2029 15.2043H11.1638V15.1466H11.1707C11.2401 15.1467 11.3079 15.1525 11.3767 15.1525C11.4368 15.1525 11.4975 15.1466 11.5583 15.1466H11.5652V15.2043H11.5369C11.476 15.2057 11.4134 15.211 11.4119 15.3849V16.0568C11.4119 16.1085 11.4131 16.16 11.4207 16.2052V16.2121H11.4138L11.3533 16.2101L10.6042 15.3752V15.9669C10.606 16.0954 10.625 16.1315 10.7361 16.133H10.7673V16.1906H10.7615C10.6978 16.1906 10.6342 16.1838 10.571 16.1837C10.5051 16.1837 10.4364 16.1906 10.3699 16.1906H10.364V16.133H10.3904C10.4878 16.1326 10.5163 16.07 10.5173 15.9523V15.3302C10.5171 15.2516 10.4525 15.2043 10.3894 15.2043H10.364V15.1466H10.3699C10.4262 15.1466 10.4841 15.1525 10.5398 15.1525Z" fill="#1A1919"/>
<path fill-rule="evenodd" clip-rule="evenodd" d="M14.5876 15.1252C14.9045 15.1255 15.1594 15.3224 15.1599 15.6408C15.1595 15.9837 14.9126 16.2114 14.5955 16.2121C14.2797 16.2115 14.0375 15.9969 14.0369 15.6759C14.0375 15.3655 14.2775 15.1257 14.5876 15.1252ZM14.5847 15.2023C14.3315 15.2026 14.2563 15.4275 14.2556 15.6242C14.2557 15.8872 14.3763 16.1345 14.6101 16.1349C14.8906 16.1346 14.9398 15.8882 14.9402 15.673C14.9401 15.4592 14.8246 15.2027 14.5847 15.2023Z" fill="#1A1919"/>
<path d="M15.3591 15.1525C15.4029 15.1525 15.4458 15.1473 15.4958 15.1496L16.1443 15.8791V15.3361C16.1436 15.2194 16.0653 15.2052 16.0222 15.2043H15.9832V15.1466H15.99C16.0593 15.1466 16.1273 15.1525 16.196 15.1525C16.2565 15.1525 16.3173 15.1466 16.3787 15.1466H16.3845V15.2043H16.3562C16.2954 15.2058 16.2325 15.2112 16.2312 15.3849V16.0568C16.2312 16.1085 16.2319 16.1603 16.239 16.2052L16.241 16.2121H16.2332L16.1726 16.2101L15.4236 15.3752V15.9669C15.4253 16.0954 15.4446 16.1317 15.5554 16.133H15.5876V16.1906H15.5808C15.5169 16.1906 15.4535 16.1847 15.3904 16.1847C15.3242 16.1847 15.2561 16.1906 15.1892 16.1906H15.1833V16.133H15.2107C15.3076 16.1325 15.3355 16.0697 15.3367 15.9523V15.3302C15.3366 15.2516 15.2721 15.2043 15.2087 15.2043H15.1833V15.1466H15.1892C15.2457 15.1466 15.3034 15.1525 15.3591 15.1525Z" fill="#1A1919"/>
<path d="M5.82007 15.1525C5.8934 15.1525 5.98187 15.1466 6.05151 15.1466H6.05737V15.2043H6.03101C5.97736 15.2052 5.92777 15.2101 5.92749 15.2824V16.0558C5.92796 16.1276 5.97746 16.1317 6.03101 16.133H6.05737V16.1906H6.05151C5.98014 16.1906 5.89157 16.1847 5.81812 16.1847C5.74603 16.1847 5.65927 16.1906 5.60132 16.1906H5.59448V16.133H5.62183C5.6752 16.1317 5.72373 16.1274 5.72437 16.0558V15.2824C5.72392 15.2102 5.6753 15.2052 5.62183 15.2043H5.59448V15.1466H5.60132C5.65928 15.1467 5.74804 15.1525 5.82007 15.1525Z" fill="#1A1919"/>
<path d="M8.32788 15.1017L8.36987 15.1076L8.3689 15.1144C8.36302 15.154 8.35775 15.194 8.35327 15.2336C8.35054 15.2731 8.35034 15.3128 8.35034 15.3527V15.3576L8.34546 15.3586L8.2937 15.3781V15.3693C8.28963 15.3138 8.28345 15.2336 8.19019 15.2336H7.95483V16.0128C7.95632 16.1237 7.99996 16.1315 8.07007 16.133H8.10522V16.1906H8.09839C8.04014 16.1906 7.93721 16.1847 7.85815 16.1847C7.7696 16.1847 7.66604 16.1906 7.60815 16.1906H7.60229V16.133H7.63647C7.71782 16.1311 7.75083 16.1302 7.75269 16.0158V15.2336H7.51733C7.40797 15.2357 7.40957 15.2544 7.3855 15.3634L7.38452 15.3683H7.32788L7.32886 15.3605C7.33489 15.3193 7.34214 15.2774 7.34644 15.2345C7.35256 15.1937 7.35522 15.1527 7.35522 15.1105V15.1037H7.4021L7.40308 15.1086C7.41299 15.1458 7.44065 15.146 7.47827 15.1466H8.2478C8.28877 15.146 8.31853 15.1451 8.32104 15.1066L8.32202 15.0998L8.32788 15.1017Z" fill="#1A1919"/>
<path d="M8.7771 15.1525C8.90114 15.1525 9.0545 15.1466 9.15503 15.1466H9.16187V15.1535C9.1609 15.1755 9.15991 15.2019 9.15991 15.2296C9.15991 15.2807 9.1619 15.337 9.16479 15.3791V15.3839L9.15991 15.3859L9.10815 15.3996L9.10718 15.3918C9.09847 15.296 9.08603 15.2263 8.93433 15.2248H8.73511V15.5988H8.90405C8.96789 15.5981 8.99311 15.5734 9.00562 15.5275L9.01538 15.4689H9.07202V15.4757C9.06918 15.5332 9.06715 15.5903 9.06714 15.6476C9.06714 15.7033 9.06917 15.7596 9.07202 15.8156V15.8214L9.06616 15.8224L9.01538 15.8332L9.0144 15.8263C9.00418 15.7362 9.00381 15.6868 8.90601 15.6857H8.73511V16.0226C8.73533 16.1123 8.81273 16.112 8.90894 16.1125C9.08643 16.1114 9.15743 16.1027 9.2019 15.9377L9.20386 15.9308L9.20972 15.9318L9.25757 15.9445L9.25562 15.9503C9.23647 16.0284 9.21915 16.1067 9.20581 16.1847L9.20483 16.1906H9.19995C9.10524 16.1906 8.93493 16.1837 8.80249 16.1837C8.66958 16.1837 8.49428 16.1906 8.40991 16.1906H8.40405V16.133H8.43042C8.48372 16.1321 8.53209 16.1276 8.53296 16.0558V15.2824C8.53228 15.2102 8.48383 15.2052 8.43042 15.2043H8.40405V15.1466H8.40991C8.5001 15.1466 8.65347 15.1525 8.7771 15.1525Z" fill="#1A1919"/>
<path fill-rule="evenodd" clip-rule="evenodd" d="M9.54663 15.1525C9.63465 15.1525 9.70538 15.1467 9.78394 15.1466C9.97006 15.147 10.1419 15.1987 10.1423 15.4132C10.1422 15.5463 10.054 15.6295 9.94019 15.6759L10.1882 16.047C10.2295 16.1083 10.2551 16.1237 10.3269 16.133L10.3328 16.1339V16.1906H10.3259C10.2766 16.1906 10.2298 16.1847 10.1814 16.1847C10.1365 16.1847 10.0891 16.1901 10.0378 16.1877C9.92459 16.0391 9.82748 15.8805 9.73218 15.7121H9.64429V16.0216C9.64599 16.1322 9.69061 16.1314 9.75854 16.133H9.79175V16.1906H9.78589C9.70159 16.1906 9.61557 16.1847 9.53198 16.1847C9.46161 16.1847 9.3921 16.1906 9.31812 16.1906H9.31128V16.133H9.34448C9.39752 16.1325 9.44192 16.1093 9.44214 16.0597V15.3097C9.44102 15.2052 9.39029 15.2057 9.34448 15.2043H9.31128V15.1466H9.31812C9.366 15.1467 9.45689 15.1525 9.54663 15.1525ZM9.64429 15.2179V15.6457H9.71069C9.85664 15.6442 9.92997 15.5934 9.9314 15.422C9.93041 15.2933 9.8507 15.2137 9.72241 15.213C9.68257 15.213 9.66311 15.2161 9.64429 15.2179Z" fill="#1A1919"/>
<path fill-rule="evenodd" clip-rule="evenodd" d="M12.1433 15.1183C12.1475 15.1303 12.1516 15.1436 12.156 15.1554L12.4285 15.9279C12.4459 15.9796 12.4638 16.0345 12.4832 16.0783C12.5002 16.1172 12.527 16.1328 12.574 16.133H12.5896V16.1906H12.5828C12.5164 16.1878 12.4499 16.1837 12.3796 16.1837C12.3073 16.1837 12.2333 16.1877 12.158 16.1906H12.1511V16.133H12.1746C12.2087 16.1329 12.2593 16.1251 12.2595 16.0968C12.2599 16.08 12.2465 16.0393 12.2302 15.9923L12.1736 15.8253H11.8484L11.8025 15.9748C11.7876 16.025 11.769 16.064 11.7693 16.088C11.7699 16.124 11.8258 16.133 11.8748 16.133H11.8972V16.1906H11.8904C11.8314 16.1878 11.7707 16.1837 11.7117 16.1837C11.6592 16.1838 11.6061 16.1878 11.5535 16.1906H11.5466V16.133H11.5613C11.6161 16.1328 11.662 16.1011 11.6833 16.0412L11.9197 15.3634C11.9387 15.3089 11.9655 15.2358 11.9783 15.1769C12.0246 15.1612 12.0847 15.1313 12.113 15.1134C12.117 15.112 12.121 15.1105 12.1267 15.1105C12.1303 15.1103 12.1385 15.1107 12.1433 15.1183ZM11.8806 15.7296H12.1384L12.0105 15.3341L11.8806 15.7296Z" fill="#1A1919"/>
<path d="M13.4587 15.1017L13.5007 15.1076L13.4998 15.1144C13.4937 15.154 13.4886 15.194 13.4841 15.2336C13.4811 15.2731 13.4812 15.3129 13.4812 15.3527V15.3576L13.4763 15.3586L13.4246 15.3781V15.3693C13.4207 15.3137 13.4143 15.2336 13.321 15.2336H13.0857V16.0128C13.0872 16.1237 13.1309 16.1315 13.2009 16.133H13.2361V16.1906H13.2292C13.1712 16.1906 13.0681 16.1847 12.989 16.1847C12.9008 16.1847 12.7969 16.1906 12.739 16.1906H12.7332V16.133H12.7673C12.8487 16.1311 12.8816 16.1302 12.8835 16.0158V15.2336H12.6482C12.5387 15.2354 12.5405 15.2544 12.5164 15.3634L12.5154 15.3683H12.4587L12.4597 15.3605C12.4659 15.3192 12.473 15.2778 12.4773 15.2355C12.4833 15.1942 12.4861 15.1528 12.4861 15.1105V15.1037H12.533L12.5339 15.1086C12.5442 15.1457 12.5714 15.146 12.6091 15.1466H13.3787C13.4194 15.146 13.4491 15.1457 13.4519 15.1076V15.0998L13.4587 15.1017Z" fill="#1A1919"/>
<path d="M13.7664 15.1525C13.8399 15.1525 13.9288 15.1466 13.9988 15.1466H14.0046V15.2043H13.9783C13.9242 15.2052 13.8753 15.2102 13.8748 15.2824V16.0558C13.8754 16.1276 13.9243 16.1321 13.9783 16.133H14.0046V16.1906H13.9988C13.9274 16.1906 13.839 16.1837 13.7654 16.1837C13.6932 16.1838 13.6063 16.1906 13.5486 16.1906H13.5417V16.133H13.5691C13.6222 16.1321 13.6711 16.1276 13.6716 16.0558V15.2824C13.6713 15.2102 13.6223 15.2052 13.5691 15.2043H13.5417V15.1466H13.5486C13.6062 15.1467 13.6947 15.1525 13.7664 15.1525Z" fill="#1A1919"/>
<path fill-rule="evenodd" clip-rule="evenodd" d="M16.9617 15.1193C16.9661 15.1307 16.9707 15.1437 16.9753 15.1554L17.2468 15.9279C17.2646 15.9796 17.2824 16.0342 17.3015 16.0783C17.3189 16.1173 17.3461 16.1326 17.3933 16.133H17.408V16.1906H17.4021C17.3356 16.1879 17.2684 16.1847 17.198 16.1847C17.1261 16.1847 17.0523 16.1879 16.9773 16.1906H16.9705V16.133H16.9929C17.0272 16.133 17.0788 16.1252 17.0789 16.0968C17.0792 16.08 17.0652 16.0395 17.0486 15.9923L16.9929 15.8253H16.6667L16.6208 15.9748C16.606 16.0253 16.5894 16.0641 16.5896 16.088C16.5898 16.124 16.6445 16.1329 16.6931 16.133H16.7156V16.1906H16.7097C16.6507 16.1879 16.5898 16.1847 16.531 16.1847C16.4781 16.1847 16.4251 16.1879 16.3718 16.1906H16.366V16.133H16.3806C16.4355 16.1326 16.4811 16.101 16.5027 16.0412L16.739 15.3634C16.7579 15.3088 16.7847 15.2356 16.7976 15.1769C16.844 15.1608 16.9037 15.1313 16.9324 15.1134C16.9361 15.112 16.9402 15.1105 16.946 15.1105C16.9499 15.1102 16.9571 15.1112 16.9617 15.1193ZM16.699 15.7296H16.9578L16.8289 15.3351L16.699 15.7296Z" fill="#1A1919"/>
<path d="M17.6873 15.1525C17.7624 15.1525 17.836 15.1466 17.9119 15.1466H17.9177V15.2043H17.8748C17.8175 15.2057 17.7823 15.203 17.781 15.2775V16.0392C17.7814 16.0942 17.817 16.1088 17.863 16.1154C17.889 16.1172 17.9167 16.1183 17.9451 16.1183C17.981 16.1183 18.0184 16.1164 18.0564 16.1125C18.1166 16.1053 18.1686 16.0705 18.1941 16.0353C18.2168 16.0038 18.2301 15.9638 18.239 15.9318L18.24 15.9269H18.2957L18.2947 15.9347C18.278 16.019 18.2578 16.1017 18.24 16.1857L18.238 16.1906H18.2332C18.1031 16.1906 17.9729 16.1847 17.8435 16.1847C17.7137 16.1847 17.5839 16.1906 17.4539 16.1906H17.448V16.133H17.4744C17.5276 16.1317 17.5781 16.1281 17.5789 16.0412V15.2814C17.5781 15.2098 17.5279 15.2052 17.4744 15.2043H17.448V15.1466H17.4539C17.5324 15.1466 17.6094 15.1525 17.6873 15.1525Z" fill="#1A1919"/>
<path fill-rule="evenodd" clip-rule="evenodd" d="M18.2732 15.1837C18.3003 15.1838 18.3257 15.1968 18.3259 15.2248C18.3259 15.2478 18.3103 15.2649 18.2888 15.2716L18.3142 15.3078C18.3259 15.3236 18.3396 15.3383 18.3484 15.3439V15.3498H18.3181C18.3037 15.3494 18.2908 15.3182 18.2625 15.2775H18.2449V15.3293C18.2449 15.3394 18.2492 15.3392 18.2683 15.3419V15.3498H18.1931V15.3419C18.2117 15.3393 18.2155 15.3394 18.2156 15.3283V15.213C18.2156 15.1968 18.2135 15.1907 18.1931 15.1916V15.1837H18.2732ZM18.2449 15.2677H18.2634C18.2835 15.2677 18.2927 15.2522 18.2927 15.2277C18.2927 15.203 18.2785 15.1945 18.2625 15.1945H18.2449V15.2677Z" fill="#1A1919"/>
<path fill-rule="evenodd" clip-rule="evenodd" d="M18.2703 15.1115C18.3593 15.1115 18.4255 15.1804 18.4255 15.2677C18.4253 15.3548 18.3591 15.422 18.2703 15.422C18.1815 15.422 18.1152 15.3549 18.115 15.2677C18.115 15.1803 18.1814 15.1115 18.2703 15.1115ZM18.2703 15.1408C18.2003 15.1408 18.1472 15.2008 18.1472 15.2677C18.1474 15.3344 18.2005 15.3937 18.2703 15.3937C18.3398 15.3936 18.3931 15.3344 18.3933 15.2677C18.3933 15.2008 18.3406 15.1408 18.2703 15.1408Z" fill="#1A1919"/>
<path fill-rule="evenodd" clip-rule="evenodd" d="M10.1326 13.3214C10.3525 13.3216 10.5881 13.4607 10.5906 13.7482C10.5906 13.7646 10.5911 13.7808 10.5886 13.797L10.5642 13.8136H9.80151C9.79607 13.8381 9.79601 13.8791 9.80151 13.9709C9.81761 14.2283 9.98337 14.4394 10.2 14.4396C10.3493 14.4396 10.466 14.3581 10.5662 14.258L10.6042 14.2961C10.4795 14.4614 10.3253 14.6025 10.1033 14.6027C9.67174 14.6027 9.58472 14.1844 9.58472 14.0109C9.58484 13.4793 9.94287 13.3214 10.1326 13.3214ZM10.1218 13.4093C9.95648 13.4093 9.84183 13.5312 9.80933 13.7267H10.282C10.3496 13.7267 10.3572 13.691 10.3572 13.6584C10.3572 13.5203 10.2737 13.4095 10.1218 13.4093Z" fill="#1A1919"/>
<path d="M12.0886 13.3214C12.1753 13.3214 12.2925 13.3462 12.3982 13.4005L12.4167 13.6769H12.3542C12.327 13.5064 12.232 13.4084 12.0583 13.4084C11.95 13.4085 11.8474 13.4715 11.8474 13.588C11.8477 13.9054 12.4763 13.8077 12.4763 14.2336C12.4763 14.4125 12.3325 14.6027 12.0095 14.6027C11.9014 14.6026 11.7739 14.565 11.6794 14.5109L11.6492 14.1984L11.698 14.1847C11.7334 14.3637 11.8416 14.5156 12.0398 14.5158C12.1995 14.5158 12.2594 14.4182 12.2595 14.3234C12.2595 14.0031 11.6687 14.1059 11.6687 13.6691C11.6688 13.5171 11.7905 13.3216 12.0886 13.3214Z" fill="#1A1919"/>
<path d="M14.2595 12.6271C14.4791 12.6272 14.6903 12.6984 14.8992 12.7716L14.9265 13.1593H14.8591C14.8075 12.8422 14.5817 12.714 14.2781 12.714C13.9657 12.7141 13.5134 12.9233 13.5134 13.5744C13.5135 14.1223 13.9035 14.5155 14.321 14.5158C14.5894 14.5158 14.8128 14.3311 14.8669 14.0461L14.9294 14.0627L14.8669 14.4591C14.7529 14.5297 14.4465 14.6026 14.2673 14.6027C13.6327 14.6027 13.2312 14.1926 13.2312 13.5822C13.2314 13.026 13.7278 12.6271 14.2595 12.6271Z" fill="#1A1919"/>
<path d="M16.7449 13.3625C16.7662 13.3627 16.7664 13.3817 16.7664 13.4113V14.4123C16.7664 14.4611 16.7958 14.464 16.8416 14.464C16.8743 14.464 16.9154 14.4621 16.9509 14.4621V14.5187C16.8342 14.5294 16.611 14.5864 16.5593 14.6027L16.5466 14.5949V14.3752C16.3841 14.5079 16.2589 14.6026 16.0662 14.6027C15.9198 14.6027 15.7675 14.5077 15.7673 14.2804V13.5851C15.7673 13.5145 15.7566 13.4472 15.6052 13.4337V13.382C15.7031 13.3793 15.9195 13.3625 15.9548 13.3625C15.9848 13.3625 15.9851 13.3818 15.9851 13.4416V14.1418C15.9851 14.2235 15.9852 14.456 16.2205 14.4562C16.3124 14.4562 16.4348 14.3858 16.5486 14.2912V13.5607C16.5486 13.5065 16.4185 13.4764 16.321 13.4494V13.4005C16.565 13.384 16.7178 13.3625 16.7449 13.3625Z" fill="#1A1919"/>
<path fill-rule="evenodd" clip-rule="evenodd" d="M17.2849 12.4884C17.3008 12.4886 17.3064 12.5059 17.3064 12.5275V13.5177C17.4149 13.4257 17.5615 13.3214 17.7107 13.3214C18.0253 13.3216 18.2155 13.5962 18.2156 13.8918C18.2156 14.2471 17.9543 14.6027 17.5662 14.6027C17.3658 14.6026 17.2598 14.5378 17.1892 14.508L17.1082 14.5705L17.0515 14.5402C17.0758 14.3802 17.0896 14.2223 17.0896 14.0568V12.8908C17.0896 12.7142 17.0482 12.7088 16.9451 12.6789V12.6359C17.0535 12.6007 17.1673 12.5515 17.2244 12.5187C17.2543 12.5027 17.2766 12.4884 17.2849 12.4884ZM17.5642 13.4689C17.4635 13.4689 17.3796 13.5335 17.3064 13.5959V14.255C17.3064 14.3581 17.404 14.5324 17.5857 14.5324C17.8758 14.5324 17.9977 14.2475 17.9978 14.006C17.9978 13.7131 17.7758 13.4689 17.5642 13.4689Z" fill="#1A1919"/>
<path fill-rule="evenodd" clip-rule="evenodd" d="M6.39331 12.6681C7.09573 12.6681 7.4781 13.137 7.47827 13.6173C7.47827 13.8862 7.32126 14.5615 6.36108 14.5617C6.22292 14.5617 6.09492 14.5568 5.96753 14.5568C5.8457 14.5568 5.72602 14.5589 5.60425 14.5617V14.4914C5.7665 14.475 5.84536 14.4694 5.85327 14.2853V12.9689C5.85319 12.7255 5.726 12.7409 5.60425 12.7384V12.6681C5.70971 12.6732 5.81784 12.673 5.92358 12.673C6.03747 12.673 6.19243 12.6681 6.39331 12.6681ZM6.1189 12.7658V14.2414C6.1189 14.4503 6.2683 14.4747 6.40112 14.4748C6.98734 14.4748 7.17944 14.0323 7.17944 13.6281C7.17924 13.121 6.85422 12.755 6.33081 12.755C6.21934 12.755 6.16785 12.7629 6.1189 12.7658Z" fill="#1A1919"/>
<path d="M7.95386 13.3214C7.96692 13.3217 7.97241 13.3387 7.97241 13.3605V14.4015C7.97241 14.4912 8.03214 14.4914 8.10815 14.4914H8.15405V14.5617C8.06197 14.5617 7.96704 14.5568 7.86987 14.5568C7.77229 14.5568 7.6742 14.5588 7.57397 14.5617V14.4914H7.62476C7.70071 14.4914 7.75562 14.4913 7.75562 14.4015V13.6662C7.75555 13.5472 7.71446 13.5308 7.61401 13.4767V13.4337C7.74154 13.3954 7.8943 13.3443 7.90503 13.3361C7.92406 13.3253 7.94008 13.3214 7.95386 13.3214Z" fill="#1A1919"/>
<path d="M9.09937 13.3214C9.32917 13.3217 9.41078 13.49 9.41089 13.7013V14.4015C9.41089 14.4913 9.47077 14.4914 9.54663 14.4914H9.59546V14.5617C9.50019 14.5617 9.40495 14.5568 9.30737 14.5568C9.20972 14.5568 9.11199 14.5588 9.0144 14.5617V14.4914H9.06323C9.13922 14.4914 9.19312 14.4913 9.19312 14.4015V13.6994C9.19312 13.5445 9.09893 13.4689 8.94409 13.4689C8.85719 13.4689 8.71846 13.5388 8.62866 13.5988V14.4015C8.62866 14.4913 8.68939 14.4914 8.76538 14.4914H8.81323V14.5617C8.71854 14.5617 8.62376 14.5568 8.52612 14.5568C8.42868 14.5568 8.33072 14.5588 8.23315 14.5617V14.4914H8.28198C8.35788 14.4914 8.41187 14.4913 8.41187 14.4015V13.6828C8.41187 13.5826 8.38195 13.5557 8.25464 13.5041V13.4523C8.37109 13.4144 8.48265 13.3785 8.61304 13.3214C8.62119 13.3215 8.62862 13.3273 8.62866 13.3488V13.5255C8.78356 13.4145 8.91731 13.3214 9.09937 13.3214Z" fill="#1A1919"/>
<path d="M11.4236 13.3214C11.4914 13.3214 11.5789 13.3682 11.5789 13.466C11.5787 13.539 11.5268 13.6046 11.4509 13.6046C11.367 13.6045 11.3667 13.5394 11.2722 13.5392C11.2262 13.5392 11.074 13.6019 11.074 13.7648V14.4015C11.074 14.4912 11.1279 14.4914 11.2039 14.4914H11.3562V14.5617C11.207 14.5588 11.0931 14.5568 10.9763 14.5568C10.8651 14.5568 10.7507 14.5588 10.6531 14.5617V14.4914H10.7263C10.802 14.4914 10.8562 14.4913 10.8562 14.4015V13.6398C10.8562 13.5559 10.7563 13.5384 10.7156 13.5168V13.4767C10.9126 13.393 11.0211 13.3222 11.0466 13.3214C11.0625 13.3214 11.071 13.3303 11.071 13.3576V13.6017H11.0769C11.1445 13.496 11.2584 13.3217 11.4236 13.3214Z" fill="#1A1919"/>
<path d="M15.4011 12.4884C15.4177 12.4884 15.4236 12.5057 15.4236 12.5275V14.4015C15.4236 14.4913 15.4835 14.4914 15.5593 14.4914H15.6052V14.5617C15.5133 14.5617 15.4178 14.5568 15.3201 14.5568C15.2225 14.5568 15.1247 14.5588 15.0242 14.5617V14.4914H15.0759C15.1521 14.4914 15.2058 14.4912 15.2058 14.4015V12.8908C15.2058 12.7142 15.1655 12.7088 15.0623 12.6789V12.6359C15.1706 12.6007 15.2844 12.5515 15.3416 12.5187C15.3708 12.5028 15.393 12.4886 15.4011 12.4884Z" fill="#1A1919"/>
<path d="M7.86401 12.6378C7.93443 12.6379 7.99683 12.6954 7.99683 12.7687C7.99675 12.842 7.93712 12.9044 7.86401 12.9044C7.79339 12.9044 7.73128 12.8392 7.7312 12.7687C7.7312 12.7007 7.7963 12.6378 7.86401 12.6378Z" fill="#1A1919"/>
</svg>
