<svg width="24" height="24" viewBox="0 0 24 24" fill="none" xmlns="http://www.w3.org/2000/svg">
<path d="M21.1096 15.7733C21.1094 16.7909 20.2799 17.619 19.259 17.619H4.76196C3.74102 17.6189 2.9104 16.7904 2.9104 15.7713V7.75568C2.9104 6.7384 3.74097 5.91012 4.76294 5.90997H19.259C20.2788 5.90997 21.1096 6.7384 21.1096 7.75568V15.7733Z" fill="#F7F7F7"/>
<path fill-rule="evenodd" clip-rule="evenodd" d="M5.85317 12.9691C5.85317 12.7252 5.7257 12.7412 5.60376 12.7386V12.6681C5.70949 12.6732 5.81791 12.6732 5.92392 12.6732C6.03781 12.6732 6.19243 12.6681 6.39332 12.6681C7.0959 12.6681 7.4786 13.1372 7.4786 13.6177C7.4786 13.8865 7.32122 14.5619 6.3607 14.5619C6.22244 14.5619 6.09476 14.5566 5.96728 14.5566C5.84529 14.5566 5.7257 14.5591 5.60376 14.5619V14.4913C5.76638 14.4749 5.84529 14.4696 5.85317 14.2852V12.9691ZM6.11906 14.2416C6.11906 14.4506 6.26844 14.4749 6.40132 14.4749C6.98753 14.4749 7.17991 14.0328 7.17991 13.6286C7.17991 13.1212 6.85437 12.755 6.3308 12.755C6.21933 12.755 6.16801 12.7629 6.11906 12.7659V14.2416Z" fill="#1A1919"/>
<path fill-rule="evenodd" clip-rule="evenodd" d="M7.57373 14.4914H7.62515C7.7011 14.4914 7.75541 14.4914 7.75541 14.4017V13.6665C7.75541 13.5473 7.71479 13.5308 7.61426 13.4767V13.4334C7.74179 13.395 7.89385 13.3438 7.90458 13.3357C7.92368 13.3248 7.93973 13.3219 7.95354 13.3219C7.96682 13.3219 7.97242 13.3382 7.97242 13.3601V14.4017C7.97242 14.4914 8.0322 14.4914 8.10828 14.4914H8.15419V14.562C8.06194 14.562 7.96682 14.5566 7.86947 14.5566C7.7718 14.5566 7.67404 14.5591 7.57373 14.562L7.57373 14.4914ZM7.86399 12.9042C7.79333 12.9042 7.73106 12.8391 7.73106 12.7686C7.73106 12.7006 7.79628 12.6381 7.86399 12.6381C7.93441 12.6381 7.99699 12.6953 7.99699 12.7686C7.99699 12.8419 7.93715 12.9042 7.86399 12.9042Z" fill="#1A1919"/>
<path fill-rule="evenodd" clip-rule="evenodd" d="M8.41219 13.6827C8.41219 13.5826 8.38223 13.5554 8.25492 13.5038V13.4523C8.37138 13.4143 8.48254 13.3789 8.61293 13.3218C8.62114 13.3218 8.62901 13.3273 8.62901 13.349V13.5254C8.78391 13.4143 8.91688 13.3218 9.09893 13.3218C9.32922 13.3218 9.41059 13.4901 9.41059 13.7017V14.4016C9.41059 14.4914 9.47047 14.4914 9.54633 14.4914H9.59529V14.562C9.50001 14.562 9.40518 14.5566 9.30761 14.5566C9.20988 14.5566 9.11212 14.5591 9.01445 14.562V14.4914H9.06341C9.13939 14.4914 9.19342 14.4914 9.19342 14.4016V13.6992C9.19342 13.5444 9.09893 13.4685 8.94409 13.4685C8.85719 13.4685 8.71881 13.5389 8.62901 13.5989V14.4016C8.62901 14.4914 8.68898 14.4914 8.76497 14.4914H8.81371V14.562C8.71881 14.562 8.62382 14.5566 8.52597 14.5566C8.42852 14.5566 8.33073 14.5591 8.23315 14.562V14.4914H8.28208C8.35797 14.4914 8.41219 14.4914 8.41219 14.4016L8.41219 13.6827Z" fill="#1A1919"/>
<path fill-rule="evenodd" clip-rule="evenodd" d="M9.80158 13.8132C9.79604 13.8376 9.79604 13.8782 9.80158 13.9705C9.81757 14.2282 9.98344 14.4397 10.2003 14.4397C10.3497 14.4397 10.4664 14.3583 10.5666 14.2581L10.6045 14.2961C10.4797 14.4616 10.3251 14.6028 10.1028 14.6028C9.67125 14.6028 9.58447 14.1847 9.58447 14.0112C9.58447 13.4793 9.94251 13.3218 10.1322 13.3218C10.3523 13.3218 10.5885 13.4602 10.591 13.7479C10.591 13.7644 10.591 13.7805 10.5885 13.7968L10.5639 13.8132L9.80158 13.8132ZM10.282 13.7263C10.3497 13.7263 10.3576 13.691 10.3576 13.6583C10.3576 13.5201 10.2736 13.4089 10.1216 13.4089C9.95623 13.4089 9.8422 13.5307 9.8097 13.7263H10.282Z" fill="#1A1919"/>
<path fill-rule="evenodd" clip-rule="evenodd" d="M10.6533 14.4914H10.7266C10.8023 14.4914 10.8566 14.4914 10.8566 14.4016V13.6394C10.8566 13.5554 10.7563 13.5389 10.7156 13.5172V13.4766C10.9136 13.3925 11.0222 13.3218 11.047 13.3218C11.0629 13.3218 11.071 13.33 11.071 13.3573V13.6015H11.0768C11.1444 13.4957 11.2585 13.3218 11.4239 13.3218C11.4918 13.3218 11.5785 13.3679 11.5785 13.4657C11.5785 13.5389 11.5272 13.6043 11.4512 13.6043C11.3668 13.6043 11.3668 13.5389 11.2718 13.5389C11.2258 13.5389 11.0738 13.6015 11.0738 13.7644V14.4016C11.0738 14.4914 11.128 14.4914 11.204 14.4914H11.3558V14.562C11.2066 14.5591 11.093 14.5566 10.9762 14.5566C10.865 14.5566 10.751 14.5591 10.6533 14.562V14.4914Z" fill="#1A1919"/>
<path fill-rule="evenodd" clip-rule="evenodd" d="M11.698 14.1847C11.7334 14.3637 11.8417 14.5159 12.0401 14.5159C12.1999 14.5159 12.2596 14.4181 12.2596 14.3232C12.2596 14.0029 11.6683 14.1061 11.6683 13.6693C11.6683 13.5172 11.7904 13.3219 12.0889 13.3219C12.1756 13.3219 12.2922 13.3465 12.3979 13.4008L12.417 13.6773H12.3546C12.3275 13.5065 12.2327 13.4088 12.0588 13.4088C11.9503 13.4088 11.8473 13.4711 11.8473 13.5878C11.8473 13.9055 12.4766 13.8076 12.4766 14.2336C12.4766 14.4126 12.333 14.6027 12.01 14.6027C11.9016 14.6027 11.7738 14.5647 11.6792 14.5104L11.6492 14.1983L11.698 14.1847Z" fill="#1A1919"/>
<path fill-rule="evenodd" clip-rule="evenodd" d="M14.9264 13.159H14.8588C14.8071 12.8419 14.5819 12.7142 14.2783 12.7142C13.9659 12.7142 13.5129 12.923 13.5129 13.5742C13.5129 14.1224 13.9038 14.5159 14.3215 14.5159C14.5899 14.5159 14.8128 14.3313 14.867 14.0463L14.9294 14.0625L14.867 14.4587C14.753 14.5294 14.4463 14.6027 14.2671 14.6027C13.6325 14.6027 13.231 14.193 13.231 13.5825C13.231 13.0262 13.7275 12.6272 14.2593 12.6272C14.4789 12.6272 14.6905 12.698 14.8995 12.7713L14.9264 13.159Z" fill="#1A1919"/>
<path fill-rule="evenodd" clip-rule="evenodd" d="M15.0244 14.4914H15.0758C15.152 14.4914 15.2062 14.4914 15.2062 14.4017V12.8908C15.2062 12.7142 15.1655 12.7089 15.0623 12.679V12.6355C15.1708 12.6003 15.2848 12.5516 15.342 12.5188C15.3714 12.5027 15.3933 12.4889 15.4013 12.4889C15.4179 12.4889 15.4233 12.5053 15.4233 12.5271V14.4017C15.4233 14.4914 15.483 14.4914 15.5589 14.4914H15.6048V14.562C15.5128 14.562 15.4179 14.5566 15.3202 14.5566C15.2225 14.5566 15.1249 14.5591 15.0244 14.562L15.0244 14.4914Z" fill="#1A1919"/>
<path fill-rule="evenodd" clip-rule="evenodd" d="M16.7663 14.4126C16.7663 14.4616 16.796 14.4642 16.842 14.4642C16.8747 14.4642 16.9152 14.4616 16.9508 14.4616V14.5187C16.834 14.5294 16.6114 14.5864 16.5598 14.6027L16.5463 14.5945V14.3747C16.3837 14.5076 16.2587 14.6027 16.0658 14.6027C15.9193 14.6027 15.7675 14.5076 15.7675 14.28V13.5852C15.7675 13.5145 15.7567 13.4467 15.605 13.4333V13.3816C15.7027 13.379 15.9193 13.3628 15.9547 13.3628C15.9848 13.3628 15.9848 13.3816 15.9848 13.4415V14.1414C15.9848 14.2228 15.9848 14.4559 16.2208 14.4559C16.3129 14.4559 16.435 14.3856 16.5489 14.2907V13.5607C16.5489 13.5065 16.4187 13.4767 16.3212 13.4497V13.4009C16.5652 13.3843 16.7173 13.3628 16.7444 13.3628C16.7663 13.3628 16.7663 13.3816 16.7663 13.4116L16.7663 14.4126Z" fill="#1A1919"/>
<path fill-rule="evenodd" clip-rule="evenodd" d="M17.3062 13.5172C17.4147 13.4252 17.5613 13.3219 17.7105 13.3219C18.0253 13.3219 18.2152 13.5962 18.2152 13.8919C18.2152 14.2472 17.9546 14.6028 17.5665 14.6028C17.3659 14.6028 17.2601 14.5374 17.1894 14.5076L17.1082 14.57L17.0513 14.5403C17.0756 14.3802 17.0893 14.2229 17.0893 14.0573V12.8908C17.0893 12.7142 17.0484 12.7089 16.9453 12.679V12.6355C17.054 12.6003 17.1678 12.5516 17.2248 12.5188C17.2547 12.5027 17.2763 12.4889 17.2846 12.4889C17.3007 12.4889 17.3062 12.5054 17.3062 12.5271L17.3062 13.5172ZM17.3062 14.2553C17.3062 14.3583 17.404 14.5321 17.5857 14.5321C17.8759 14.5321 17.998 14.2472 17.998 14.0056C17.998 13.7126 17.7758 13.4685 17.5642 13.4685C17.4634 13.4685 17.3794 13.5337 17.3062 13.5962V14.2553Z" fill="#1A1919"/>
<path fill-rule="evenodd" clip-rule="evenodd" d="M7.06547 15.8929L7.06843 15.89V15.3366C7.06843 15.2154 6.98417 15.1977 6.93991 15.1977H6.90737V15.1534C6.97689 15.1534 7.04479 15.1592 7.11409 15.1592C7.17462 15.1592 7.23539 15.1534 7.2957 15.1534V15.1977H7.27375C7.21154 15.1977 7.14214 15.2095 7.14214 15.3852V16.0569C7.14214 16.1086 7.1436 16.1603 7.15085 16.2061H7.09474L6.33456 15.3585V15.9669C6.33456 16.0955 6.35954 16.1395 6.47322 16.1395H6.49836V16.1839C6.43487 16.1839 6.37145 16.1782 6.30797 16.1782C6.24169 16.1782 6.17368 16.1839 6.10718 16.1839V16.1395H6.12791C6.22974 16.1395 6.26075 16.0701 6.26075 15.9524V15.3304C6.26075 15.2477 6.19262 15.1977 6.12646 15.1977H6.10718V15.1534C6.16317 15.1534 6.22085 15.1592 6.27684 15.1592C6.32128 15.1592 6.36408 15.1534 6.40834 15.1534L7.06547 15.8929Z" fill="#1A1919"/>
<path fill-rule="evenodd" clip-rule="evenodd" d="M7.15079 16.2123L7.09001 16.2102L6.34078 15.3752V15.9669C6.34255 16.0952 6.36206 16.1318 6.47322 16.1332H6.50485V16.1902H6.49829C6.43444 16.1902 6.37089 16.1843 6.3079 16.1843C6.24181 16.1843 6.17396 16.1902 6.10707 16.1902H6.10059V16.1332H6.12786C6.22542 16.1326 6.25332 16.0699 6.25438 15.9523V15.3306C6.2541 15.2519 6.18961 15.2041 6.12646 15.2041H6.10059V15.1469H6.10707C6.16351 15.1469 6.22128 15.1527 6.27668 15.1527C6.32072 15.1527 6.36336 15.1469 6.41313 15.1492L7.06196 15.8795V15.3365C7.06121 15.2193 6.98286 15.205 6.93991 15.2041H6.90084V15.1469H6.90737C6.97711 15.1469 7.04507 15.1527 7.11403 15.1527C7.17412 15.1527 7.23462 15.1469 7.29564 15.1469H7.30214V15.2041H7.27368C7.21272 15.2056 7.1502 15.211 7.14839 15.3851V16.0569C7.14839 16.1086 7.15001 16.1601 7.1571 16.2049L7.15847 16.2123H7.15079ZM7.09474 16.1994H7.1436C7.13701 16.155 7.13583 16.106 7.13583 16.0569V15.3851C7.13583 15.2079 7.21011 15.1912 7.27368 15.1911H7.28923V15.1597C7.23104 15.1602 7.17275 15.1655 7.11403 15.1655C7.04641 15.1655 6.98068 15.1602 6.91397 15.1597L6.91381 15.1911H6.93991C6.98529 15.1912 7.07474 15.2114 7.07474 15.3365L7.07278 15.8946L7.06989 15.8975L7.06485 15.9022L6.40828 15.1597C6.36442 15.1597 6.32171 15.1655 6.27667 15.1655C6.22259 15.1655 6.16714 15.1602 6.1136 15.1597L6.11332 15.1911H6.12645C6.19569 15.1912 6.26694 15.2441 6.26694 15.3305V15.9523C6.26694 16.0704 6.23403 16.1459 6.12785 16.1463L6.1136 16.1459V16.1776C6.17753 16.1771 6.24342 16.1716 6.3079 16.1716C6.36949 16.1716 6.43095 16.1771 6.49188 16.1776V16.1463H6.47322C6.35701 16.1459 6.32824 16.0952 6.32815 15.9669V15.3419L7.09474 16.1994ZM7.06196 15.89V15.8894L7.06077 15.8885L7.06196 15.89Z" fill="#1A1919"/>
<path fill-rule="evenodd" clip-rule="evenodd" d="M7.51682 15.2272C7.40597 15.2272 7.40164 15.2539 7.37953 15.3615H7.33521C7.34102 15.3202 7.34833 15.2789 7.35293 15.2361C7.35884 15.1945 7.3618 15.1534 7.3618 15.1107H7.3972C7.40908 15.155 7.44597 15.1534 7.48603 15.1534H8.24752C8.28758 15.1534 8.32441 15.1519 8.32742 15.1076L8.36269 15.1136C8.35697 15.1534 8.35094 15.1933 8.34664 15.2332C8.34372 15.273 8.34372 15.3128 8.34372 15.3526L8.29937 15.3691C8.29635 15.3145 8.28904 15.2272 8.1901 15.2272H7.94795V16.0126C7.94795 16.1265 7.99971 16.1395 8.07047 16.1395H8.09862V16.1839C8.04102 16.1839 7.93763 16.1782 7.85806 16.1782C7.76936 16.1782 7.66594 16.1839 7.6083 16.1839V16.1395H7.63648C7.71785 16.1395 7.75897 16.1323 7.75897 16.0157V15.2272L7.51682 15.2272Z" fill="#1A1919"/>
<path fill-rule="evenodd" clip-rule="evenodd" d="M8.0988 16.1902C8.0406 16.1902 7.93734 16.1844 7.85808 16.1844C7.76953 16.1844 7.66623 16.1902 7.60835 16.1902H7.60203V16.1332H7.63653C7.7179 16.1313 7.75059 16.1302 7.75242 16.0157V15.2335H7.51687V15.2206H7.76521V16.0157C7.76521 16.1342 7.71743 16.1462 7.63653 16.1463H7.61466V16.1775C7.67289 16.1771 7.77236 16.1717 7.85808 16.1717C7.93494 16.1717 8.03357 16.1771 8.09208 16.1775V16.1463H8.07052C7.99908 16.1462 7.94163 16.1286 7.94163 16.0126V15.2206H8.19015C8.28918 15.221 8.30231 15.3051 8.30539 15.3601L8.33736 15.3483C8.33736 15.3097 8.33752 15.2711 8.34013 15.2323C8.34452 15.1942 8.34986 15.1566 8.3554 15.1188L8.33298 15.1151C8.3261 15.158 8.28448 15.1603 8.2475 15.1598H7.47836C7.44359 15.1598 7.40577 15.1582 7.39249 15.117H7.3681C7.36788 15.1578 7.36508 15.1974 7.35951 15.2367C7.3551 15.2773 7.34832 15.3162 7.34297 15.3554H7.37447C7.39385 15.2524 7.40652 15.2191 7.51687 15.2206V15.2335C7.40751 15.2357 7.4099 15.2539 7.38583 15.363L7.38477 15.3681H7.32788L7.32866 15.3604C7.33469 15.3192 7.34219 15.2777 7.34648 15.2349C7.35264 15.1939 7.35541 15.153 7.35541 15.1106V15.1041H7.40231L7.40344 15.1087C7.41336 15.146 7.4407 15.1463 7.47837 15.1469H8.2475C8.28862 15.1463 8.31858 15.1457 8.3211 15.1071L8.3216 15.1001L8.32831 15.1014L8.37005 15.108L8.369 15.1146C8.36312 15.1542 8.35736 15.1939 8.35288 15.2335C8.35015 15.2731 8.35015 15.3127 8.35015 15.3526V15.3571L8.34585 15.3588L8.2936 15.378L8.29326 15.3694C8.28918 15.3138 8.28349 15.2335 8.19015 15.2335H7.95451V16.0126C7.95594 16.1239 8.0001 16.1318 8.07052 16.1332H8.10505V16.1902H8.0988Z" fill="#1A1919"/>
<path fill-rule="evenodd" clip-rule="evenodd" d="M8.40991 16.1395H8.43072C8.48369 16.1395 8.53996 16.1323 8.53996 16.0554V15.282C8.53996 15.205 8.48369 15.1977 8.43072 15.1977H8.40991V15.1534C8.49968 15.1534 8.65358 15.1592 8.77734 15.1592C8.90157 15.1592 9.05491 15.1534 9.15529 15.1534C9.1527 15.2169 9.1541 15.3145 9.15849 15.3794L9.11398 15.3911C9.10689 15.2951 9.08919 15.2185 8.93411 15.2185H8.72913V15.6051H8.9045C8.99305 15.6051 9.01233 15.5551 9.0211 15.4752H9.06536C9.06241 15.5329 9.06085 15.5905 9.06085 15.648C9.06085 15.7042 9.06241 15.7602 9.06536 15.8163L9.0211 15.8251C9.01233 15.7366 9.00792 15.6791 8.90592 15.6791H8.72913V16.0229C8.72913 16.119 8.81439 16.119 8.90894 16.119C9.08617 16.119 9.16434 16.1071 9.20866 15.939L9.24984 15.9491C9.23068 16.0276 9.21308 16.1056 9.19983 16.1839C9.10521 16.1839 8.93544 16.1782 8.80285 16.1782C8.66966 16.1782 8.49414 16.1839 8.40991 16.1839V16.1395Z" fill="#1A1919"/>
<path fill-rule="evenodd" clip-rule="evenodd" d="M9.19961 16.1902C9.1049 16.1902 8.93501 16.184 8.80257 16.184C8.66957 16.184 8.49408 16.1902 8.40975 16.1902H8.40356V16.1332H8.43056C8.48397 16.1323 8.53258 16.1276 8.53327 16.0554V15.282C8.53258 15.2098 8.48397 15.205 8.43056 15.2041H8.40356V15.1469H8.40975C8.49996 15.1469 8.65352 15.1527 8.77725 15.1527C8.90135 15.1527 9.05466 15.1469 9.15519 15.1469H9.16173L9.16151 15.1537C9.16054 15.1758 9.15995 15.2021 9.15995 15.2298C9.15995 15.2809 9.16151 15.3368 9.1644 15.3788L9.16468 15.3841L9.1597 15.3856L9.10779 15.3992L9.10757 15.3916C9.09886 15.2958 9.08601 15.2261 8.93401 15.2246H8.73501L8.73489 15.5986H8.90434C8.98944 15.5977 9.00465 15.5542 9.0147 15.4746L9.01504 15.4686H9.0718L9.07171 15.4754C9.06885 15.5331 9.06711 15.5905 9.06711 15.648C9.06711 15.7038 9.06885 15.7598 9.07171 15.816L9.0718 15.8213L9.06645 15.8226L9.01504 15.8328L9.0147 15.8259C9.00446 15.7357 9.00381 15.6863 8.90583 15.6852H8.73501V16.0228C8.73523 16.1126 8.81258 16.1121 8.90879 16.1126C9.08658 16.1115 9.15777 16.1028 9.20225 15.9372L9.20375 15.9312L9.20997 15.9323L9.25728 15.9445L9.25594 15.9506C9.23678 16.0287 9.21917 16.1068 9.20583 16.1849L9.20471 16.1902L9.19961 16.1902ZM9.19413 16.1774C9.20704 16.1028 9.22387 16.0282 9.24197 15.9539L9.21292 15.9466C9.16872 16.1117 9.08303 16.1265 8.90878 16.1254C8.81575 16.1254 8.72275 16.1254 8.72225 16.0228V15.6726H8.90583C9.00894 15.6715 9.01933 15.7337 9.0267 15.8177L9.05858 15.8111C9.05572 15.7567 9.05426 15.7021 9.05426 15.648C9.05426 15.5925 9.05572 15.5372 9.05858 15.4815H9.0267C9.0184 15.5586 8.99429 15.6124 8.90434 15.6115H8.72225V15.2119H8.93401C9.08751 15.2106 9.11295 15.2901 9.11964 15.383L9.15146 15.3743C9.14888 15.3327 9.14713 15.2791 9.14713 15.2298C9.14713 15.2046 9.14782 15.1806 9.14866 15.1597C9.04835 15.1602 8.89861 15.1655 8.77725 15.1655C8.65594 15.1655 8.50661 15.1602 8.41626 15.1597V15.1911H8.43056C8.48307 15.1912 8.5459 15.2003 8.54624 15.282V16.0554C8.5459 16.1369 8.48307 16.1459 8.43056 16.1463H8.41626V16.1774C8.5022 16.1772 8.67286 16.1716 8.80257 16.1716C8.93289 16.1716 9.09899 16.1772 9.19413 16.1774Z" fill="#1A1919"/>
<path fill-rule="evenodd" clip-rule="evenodd" d="M9.44923 15.3097C9.44923 15.2021 9.3901 15.1977 9.34428 15.1977H9.31763V15.1534C9.36491 15.1534 9.45644 15.1592 9.54658 15.1592C9.63498 15.1592 9.70596 15.1534 9.78419 15.1534C9.96994 15.1534 10.1357 15.2035 10.1357 15.4133C10.1357 15.5461 10.047 15.6272 9.93044 15.6732L10.1828 16.0509C10.2242 16.1134 10.2535 16.1309 10.326 16.1395V16.1839C10.2772 16.1839 10.23 16.1782 10.1814 16.1782C10.1357 16.1782 10.0882 16.1839 10.0427 16.1839C9.92888 16.0349 9.83137 15.8755 9.73548 15.7054H9.63818V16.0216C9.63818 16.1352 9.69122 16.1395 9.75887 16.1395H9.78565V16.1839C9.70133 16.1839 9.61604 16.1782 9.53172 16.1782C9.46086 16.1782 9.39144 16.1839 9.31763 16.1839V16.1395H9.34428C9.39909 16.1395 9.44923 16.1146 9.44923 16.06V15.3097ZM9.63818 15.6522H9.71031C9.85812 15.6522 9.93771 15.5962 9.93771 15.4219C9.93771 15.2907 9.85355 15.2065 9.72201 15.2065C9.67769 15.2065 9.6588 15.211 9.63818 15.2125L9.63818 15.6522Z" fill="#1A1919"/>
<path fill-rule="evenodd" clip-rule="evenodd" d="M10.3261 16.1902C10.2766 16.1902 10.2297 16.1843 10.1811 16.1843C10.1361 16.1843 10.0889 16.1902 10.0375 16.1877C9.92418 16.0391 9.82714 15.8806 9.73181 15.7121H9.64456V16.0213C9.64618 16.1324 9.69072 16.1316 9.75896 16.1332H9.79209V16.1902H9.78555C9.70117 16.1902 9.61538 16.1843 9.53171 16.1843C9.4612 16.1843 9.39184 16.1902 9.31769 16.1902H9.31128V16.1332H9.34434C9.39744 16.1328 9.44232 16.1096 9.44254 16.06V15.3097C9.44142 15.205 9.39019 15.2055 9.34434 15.2041H9.31128V15.1469H9.31769C9.36546 15.1469 9.45663 15.1527 9.54664 15.1527C9.63479 15.1527 9.70559 15.1469 9.78428 15.1469C9.9704 15.1473 10.1417 15.1985 10.1421 15.413C10.1421 15.5463 10.0541 15.6295 9.94023 15.676L10.1881 16.0474C10.2294 16.1086 10.2551 16.1239 10.3269 16.1332L10.3323 16.134V16.1902L10.3261 16.1902ZM9.63818 15.699H9.73905L9.74089 15.7023C9.83703 15.8719 9.93404 16.0314 10.0427 16.1776C10.0877 16.1776 10.1351 16.1716 10.1811 16.1716C10.2282 16.1716 10.2738 16.1768 10.3196 16.1774V16.145C10.2504 16.1366 10.2179 16.1157 10.1776 16.0545L9.92061 15.6702L9.92789 15.6672C10.0435 15.6217 10.1292 15.5428 10.1292 15.413C10.1292 15.2082 9.96985 15.1607 9.78428 15.1597C9.70652 15.1597 9.63557 15.1657 9.54665 15.1657C9.45993 15.1657 9.37231 15.1602 9.324 15.1597V15.1911H9.34435C9.39019 15.1912 9.45539 15.1988 9.45539 15.3097V16.06C9.45539 16.1192 9.3999 16.1462 9.34435 16.1463H9.324V16.1774C9.39498 16.1772 9.46239 16.1716 9.53172 16.1716C9.61417 16.1716 9.69753 16.1772 9.77918 16.1774V16.1463H9.75896C9.69171 16.1462 9.63165 16.1378 9.63165 16.0213V15.699L9.63818 15.699ZM9.63818 15.6585H9.63165V15.2065L9.63728 15.206C9.65753 15.2044 9.6774 15.2003 9.72207 15.2003C9.85653 15.2003 9.94409 15.2877 9.94421 15.4223C9.94381 15.5986 9.85933 15.6585 9.71037 15.6585L9.63818 15.6585ZM9.71037 15.6459C9.85653 15.6445 9.93018 15.5938 9.93161 15.4223C9.93074 15.2933 9.85065 15.2133 9.72207 15.2127C9.68222 15.2127 9.66337 15.2164 9.64456 15.2183V15.6459H9.71037Z" fill="#1A1919"/>
<path fill-rule="evenodd" clip-rule="evenodd" d="M11.3285 15.8929L11.3311 15.89V15.3366C11.3311 15.2154 11.2472 15.1977 11.2029 15.1977H11.1706V15.1534C11.24 15.1534 11.3076 15.1592 11.3772 15.1592C11.4379 15.1592 11.498 15.1534 11.559 15.1534V15.1977H11.5367C11.4747 15.1977 11.4053 15.2095 11.4053 15.3852V16.0569C11.4053 16.1086 11.4068 16.1603 11.4141 16.2061H11.3582L10.5979 15.3585V15.9669C10.5979 16.0955 10.6229 16.1395 10.7365 16.1395H10.7617V16.1839C10.6982 16.1839 10.6347 16.1782 10.5712 16.1782C10.5045 16.1782 10.4368 16.1839 10.3704 16.1839V16.1395H10.3909C10.4928 16.1395 10.524 16.0701 10.524 15.9524V15.3304C10.524 15.2477 10.456 15.1977 10.3896 15.1977H10.3704V15.1534C10.4263 15.1534 10.4843 15.1592 10.5403 15.1592C10.5841 15.1592 10.6272 15.1534 10.6715 15.1534L11.3285 15.8929Z" fill="#1A1919"/>
<path fill-rule="evenodd" clip-rule="evenodd" d="M11.4138 16.2123L11.3532 16.2102L10.6038 15.3752V15.9668C10.6055 16.0954 10.625 16.1318 10.7363 16.1332H10.7676V16.1902H10.7612C10.6974 16.1902 10.634 16.184 10.5707 16.184C10.5048 16.184 10.4366 16.1902 10.3701 16.1902H10.3635V16.1332H10.3907C10.4882 16.1328 10.5161 16.0699 10.5171 15.952V15.3303C10.5169 15.2516 10.4525 15.2041 10.3894 15.2041H10.3635V15.1469H10.3701C10.4265 15.1469 10.4843 15.1527 10.54 15.1527C10.5834 15.1527 10.6261 15.1469 10.6756 15.1488L11.3247 15.8795V15.3365C11.3243 15.2193 11.2456 15.2048 11.2027 15.2041H11.1638V15.1469H11.1702C11.2399 15.1469 11.308 15.1527 11.377 15.1527C11.4371 15.1527 11.4976 15.1469 11.5585 15.1469H11.565V15.2041H11.5365C11.4756 15.2055 11.4128 15.211 11.4114 15.3851V16.0569C11.4114 16.1086 11.4127 16.1597 11.4202 16.205L11.4209 16.2123H11.4138ZM11.3579 16.1994H11.4063C11.3998 16.1553 11.3985 16.106 11.3985 16.0569V15.3851C11.3986 15.2079 11.4733 15.1915 11.5365 15.1911H11.552V15.1597C11.4939 15.1602 11.4356 15.1655 11.377 15.1655C11.3092 15.1655 11.2434 15.1602 11.1766 15.1597V15.1911H11.2027C11.2482 15.1915 11.3376 15.2114 11.3376 15.3365L11.3355 15.8946L11.3328 15.8975L11.3282 15.9023L10.6713 15.1597C10.6274 15.1597 10.5846 15.1655 10.54 15.1655C10.4852 15.1655 10.4301 15.1602 10.3764 15.1597V15.1911H10.3894C10.4589 15.1915 10.5299 15.2439 10.5299 15.3303V15.952C10.5299 16.0704 10.4965 16.1459 10.3907 16.1463L10.3764 16.1462V16.1775C10.4402 16.1771 10.506 16.1716 10.5707 16.1716C10.6326 16.1716 10.694 16.1771 10.755 16.1775V16.1463H10.7363C10.6201 16.1462 10.5912 16.0954 10.5908 15.9668V15.3422L11.3579 16.1994ZM11.3247 15.89V15.8896L11.3236 15.8885L11.3247 15.89Z" fill="#1A1919"/>
<path fill-rule="evenodd" clip-rule="evenodd" d="M11.7962 15.9728C11.7813 16.0229 11.7635 16.0616 11.7635 16.0879C11.7635 16.1323 11.8257 16.1396 11.8743 16.1396H11.8907V16.1839C11.8315 16.1807 11.7712 16.1782 11.7118 16.1782C11.6586 16.1782 11.6058 16.1807 11.5525 16.1839V16.1396H11.5615C11.6189 16.1396 11.6678 16.1056 11.6897 16.0435L11.926 15.3661C11.9452 15.3114 11.9718 15.2376 11.9808 15.1828C12.0278 15.1667 12.0871 15.1373 12.115 15.1194C12.1196 15.1179 12.1223 15.1164 12.1268 15.1164C12.1313 15.1164 12.134 15.1164 12.1372 15.121C12.1416 15.1327 12.1459 15.146 12.1505 15.1578L12.4222 15.93C12.44 15.9815 12.4575 16.0362 12.4764 16.0807C12.4944 16.1221 12.5254 16.1396 12.5743 16.1396H12.5831V16.1839C12.5166 16.1807 12.45 16.1782 12.3795 16.1782C12.3071 16.1782 12.2331 16.1807 12.1578 16.1839V16.1396H12.1741C12.2078 16.1396 12.2658 16.1337 12.2658 16.0968C12.2658 16.0777 12.2524 16.0378 12.2359 15.9904L12.1784 15.8192H11.8433L11.7962 15.9728ZM12.0117 15.3188H12.0087L11.8715 15.7366H12.1473L12.0117 15.3188Z" fill="#1A1919"/>
<path fill-rule="evenodd" clip-rule="evenodd" d="M12.5827 16.1902C12.5164 16.1874 12.4498 16.1841 12.3795 16.1841C12.3072 16.1841 12.2335 16.1874 12.1582 16.1902L12.1514 16.1906V16.1329H12.1741C12.2083 16.1329 12.259 16.1252 12.2592 16.0968C12.2595 16.08 12.2463 16.0395 12.23 15.9926L12.1738 15.8255H11.8481L11.8022 15.9747C11.7874 16.0249 11.7694 16.0639 11.7697 16.088C11.7702 16.124 11.8253 16.1329 11.8743 16.1329H11.897V16.1906L11.8903 16.1902C11.8313 16.1874 11.771 16.1841 11.712 16.1841C11.6593 16.1841 11.6059 16.1874 11.553 16.1902L11.5461 16.1906V16.1329H11.5615C11.6163 16.1328 11.6622 16.1014 11.6835 16.0415L11.9199 15.3638C11.939 15.3092 11.9658 15.2357 11.9786 15.1767C12.0249 15.161 12.0843 15.1312 12.1126 15.1134C12.1168 15.1119 12.1208 15.11 12.1268 15.11C12.1304 15.1098 12.1384 15.1108 12.1431 15.1185C12.1473 15.1306 12.152 15.1439 12.1565 15.1558L12.4283 15.9279C12.4457 15.9796 12.4634 16.0341 12.4827 16.0779C12.4998 16.1172 12.5269 16.1328 12.5743 16.1329H12.5893V16.1906L12.5827 16.1902ZM12.1643 16.1771C12.2373 16.1745 12.309 16.1717 12.3795 16.1717C12.448 16.1717 12.5124 16.1745 12.5765 16.1771V16.1462H12.5743C12.5237 16.1465 12.4889 16.1266 12.4708 16.0831C12.4516 16.0385 12.4336 15.9837 12.4162 15.932L12.1444 15.1598C12.1399 15.148 12.1357 15.1348 12.1319 15.1243C12.1304 15.1229 12.1307 15.1229 12.1296 15.1229H12.1268C12.1238 15.1229 12.122 15.1238 12.1182 15.1247C12.0898 15.1431 12.0306 15.1723 11.9867 15.1838C11.9777 15.2397 11.9511 15.3135 11.932 15.3682L11.6958 16.0456C11.6733 16.1098 11.6214 16.1463 11.5615 16.1462H11.559V16.1771C11.6096 16.1745 11.6607 16.1717 11.712 16.1717C11.7691 16.1717 11.8273 16.1745 11.8838 16.1771V16.1462H11.8743C11.8261 16.1455 11.7589 16.1403 11.7572 16.0879C11.7573 16.0587 11.7754 16.0209 11.7899 15.971L11.7962 15.9728L11.7899 15.9708L11.8385 15.8131H12.1828L12.2419 15.9884C12.2585 16.0359 12.2719 16.0752 12.2719 16.0968C12.2697 16.142 12.2076 16.1453 12.1741 16.1462H12.1643V16.1771ZM11.8625 15.743L12.0038 15.3122H12.0118H12.0162L12.1565 15.743H11.8625ZM11.8802 15.7301H12.1386L12.0102 15.3345L11.8802 15.7301Z" fill="#1A1919"/>
<path fill-rule="evenodd" clip-rule="evenodd" d="M12.6481 15.2272C12.5374 15.2272 12.5329 15.2539 12.5107 15.3615H12.4663C12.4721 15.3202 12.4797 15.2789 12.4843 15.2361C12.49 15.1945 12.4929 15.1534 12.4929 15.1107H12.5286C12.5401 15.155 12.5771 15.1534 12.617 15.1534H13.3789C13.4186 15.1534 13.4554 15.1519 13.4584 15.1076L13.4937 15.1136C13.4882 15.1534 13.4823 15.1933 13.4777 15.2332C13.4744 15.273 13.4744 15.3128 13.4744 15.3526L13.4303 15.3691C13.4277 15.3145 13.4203 15.2272 13.3212 15.2272H13.0791V16.0126C13.0791 16.1265 13.1308 16.1395 13.2016 16.1395H13.2298V16.1839C13.1721 16.1839 13.0689 16.1782 12.989 16.1782C12.9006 16.1782 12.797 16.1839 12.7395 16.1839V16.1395H12.7676C12.8489 16.1395 12.8901 16.1323 12.8901 16.0157V15.2272L12.6481 15.2272Z" fill="#1A1919"/>
<path fill-rule="evenodd" clip-rule="evenodd" d="M13.2297 16.1902C13.1717 16.1902 13.0682 16.1843 12.9888 16.1843C12.9006 16.1843 12.7972 16.1902 12.7394 16.1902H12.7329V16.1332H12.7674C12.8489 16.1313 12.8815 16.1302 12.8835 16.0157L12.8834 15.2335H12.648V15.2206H12.8964V16.0157C12.8964 16.1342 12.8485 16.1459 12.7674 16.1462H12.7457V16.1776C12.8041 16.1771 12.9032 16.1717 12.9888 16.1717C13.066 16.1717 13.1648 16.1771 13.2231 16.1776V16.1462H13.2014C13.1302 16.1459 13.0727 16.1288 13.0726 16.0126V15.2206H13.321C13.4202 15.221 13.4331 15.3051 13.436 15.3601L13.4681 15.3483C13.4681 15.3097 13.4683 15.2711 13.4713 15.2325C13.4753 15.1944 13.4809 15.1566 13.4862 15.119L13.4639 15.1151C13.4572 15.158 13.4155 15.1604 13.3788 15.1598H12.6093C12.5745 15.1602 12.5368 15.1582 12.5234 15.1169H12.4993C12.4989 15.1577 12.496 15.1974 12.4902 15.2367C12.4862 15.2775 12.4791 15.3165 12.4735 15.3554H12.5052C12.5246 15.2524 12.5374 15.2189 12.648 15.2206V15.2335C12.5385 15.2354 12.5409 15.2539 12.5168 15.363L12.5158 15.3681H12.4587L12.4596 15.3608C12.4659 15.3192 12.4731 15.2777 12.4774 15.2352C12.4835 15.1939 12.4862 15.153 12.4862 15.1106V15.1041H12.5331L12.5343 15.1087C12.5447 15.146 12.5715 15.1463 12.6093 15.1469H13.3788C13.4196 15.1463 13.4494 15.1457 13.452 15.1072L13.4523 15.1001L13.4591 15.1014L13.501 15.108L13.5 15.1146C13.4939 15.1542 13.4883 15.1939 13.4839 15.2335C13.4809 15.2731 13.4809 15.3128 13.4809 15.3526V15.3571L13.4766 15.3588L13.4243 15.378L13.4241 15.3694C13.4202 15.3138 13.4144 15.2335 13.321 15.2335H13.0853V16.0126C13.0868 16.1239 13.131 16.1318 13.2014 16.1332H13.2358V16.1902L13.2297 16.1902Z" fill="#1A1919"/>
<path fill-rule="evenodd" clip-rule="evenodd" d="M13.5481 16.1395H13.5688C13.622 16.1395 13.6779 16.1323 13.6779 16.0554V15.282C13.6779 15.205 13.622 15.1977 13.5688 15.1977H13.5481V15.1534C13.6057 15.1534 13.6941 15.1592 13.7664 15.1592C13.8404 15.1592 13.929 15.1534 13.9985 15.1534V15.1977H13.9778C13.9244 15.1977 13.8683 15.205 13.8683 15.282V16.0554C13.8683 16.1323 13.9244 16.1395 13.9778 16.1395H13.9985V16.1839C13.9276 16.1839 13.8389 16.1782 13.7652 16.1782C13.6927 16.1782 13.6057 16.1839 13.5481 16.1839V16.1395Z" fill="#1A1919"/>
<path fill-rule="evenodd" clip-rule="evenodd" d="M13.9988 16.1902C13.9274 16.1902 13.8391 16.184 13.7654 16.184C13.6932 16.184 13.606 16.1902 13.5483 16.1902H13.542V16.1332H13.5691C13.6222 16.1323 13.6713 16.1276 13.6717 16.0554V15.282C13.6713 15.2098 13.6222 15.205 13.5691 15.2041H13.542V15.1469H13.5483C13.606 15.1469 13.6948 15.1527 13.7666 15.1527C13.8402 15.1527 13.9288 15.1469 13.9988 15.1469H14.0049V15.2041H13.9781C13.924 15.205 13.8755 15.2098 13.875 15.282V16.0554C13.8755 16.1276 13.924 16.1323 13.9781 16.1332H14.0049V16.1902H13.9988ZM13.992 16.1774V16.1462H13.9781C13.9251 16.1462 13.8625 16.1369 13.8625 16.0554V15.282C13.8625 15.2003 13.9251 15.1912 13.9781 15.1911H13.992V15.1597C13.924 15.1602 13.8385 15.1655 13.7666 15.1655C13.6965 15.1655 13.612 15.1602 13.5547 15.1597V15.1911H13.5691C13.6215 15.1912 13.6844 15.2003 13.6846 15.282V16.0554C13.6844 16.1369 13.6215 16.1462 13.5691 16.1462H13.5547V16.1774C13.6116 16.1768 13.6951 16.1716 13.7654 16.1716C13.837 16.1716 13.9224 16.1771 13.992 16.1774Z" fill="#1A1919"/>
<path fill-rule="evenodd" clip-rule="evenodd" d="M14.5871 15.1313C14.9018 15.1313 15.1527 15.3263 15.1527 15.6408C15.1527 15.9804 14.909 16.2061 14.5947 16.2061C14.2815 16.2061 14.0425 15.9935 14.0425 15.676C14.0425 15.3691 14.2801 15.1313 14.5871 15.1313ZM14.6094 16.1411C14.8959 16.1411 14.9458 15.8885 14.9458 15.6732C14.9458 15.4574 14.8295 15.1962 14.5843 15.1962C14.326 15.1962 14.2491 15.4266 14.2491 15.6243C14.2491 15.8885 14.3703 16.1411 14.6094 16.1411Z" fill="#1A1919"/>
<path fill-rule="evenodd" clip-rule="evenodd" d="M14.0364 15.676C14.037 15.3655 14.2773 15.1253 14.5875 15.1248V15.1377C14.284 15.1377 14.0492 15.3723 14.0489 15.676C14.0495 15.9899 14.2851 16.1993 14.5952 16.1994C14.9064 16.1993 15.1465 15.9768 15.1469 15.6406C15.1466 15.33 14.8997 15.138 14.5875 15.1377V15.1248C14.9045 15.1251 15.1589 15.3221 15.1594 15.6406C15.1591 15.9837 14.9126 16.2117 14.5952 16.2123C14.2794 16.2117 14.037 15.997 14.0364 15.676ZM14.2431 15.6242C14.2436 15.4256 14.3211 15.1896 14.5847 15.1896C14.8354 15.1902 14.9523 15.4563 14.9528 15.6732C14.9523 15.8885 14.9017 16.1471 14.6099 16.1471V16.1346C14.8906 16.1344 14.9394 15.8885 14.9398 15.6732C14.9398 15.4593 14.8247 15.203 14.5847 15.2026C14.3314 15.2029 14.2566 15.4276 14.2559 15.6242C14.256 15.8872 14.3761 16.1342 14.6099 16.1346V16.1471C14.3649 16.1469 14.2436 15.89 14.2431 15.6242Z" fill="#1A1919"/>
<path fill-rule="evenodd" clip-rule="evenodd" d="M16.1476 15.8929L16.1507 15.89V15.3366C16.1507 15.2154 16.0663 15.1977 16.022 15.1977H15.9899V15.1534C16.0591 15.1534 16.1271 15.1592 16.1963 15.1592C16.257 15.1592 16.3175 15.1534 16.3781 15.1534V15.1977H16.3559C16.294 15.1977 16.2244 15.2095 16.2244 15.3852V16.0569C16.2244 16.1086 16.2259 16.1603 16.2334 16.2061H16.1772L15.4168 15.3585V15.9669C15.4168 16.0955 15.442 16.1395 15.5555 16.1395H15.5808V16.1839C15.5172 16.1839 15.4539 16.1782 15.3904 16.1782C15.3239 16.1782 15.2559 16.1839 15.1895 16.1839V16.1395H15.2102C15.3123 16.1395 15.343 16.0701 15.343 15.9524V15.3304C15.343 15.2477 15.2754 15.1977 15.2086 15.1977H15.1895V15.1534C15.2456 15.1534 15.3031 15.1592 15.3593 15.1592C15.4035 15.1592 15.4461 15.1534 15.4906 15.1534L16.1476 15.8929Z" fill="#1A1919"/>
<path fill-rule="evenodd" clip-rule="evenodd" d="M16.2336 16.2123L16.1725 16.2102L15.4233 15.3752V15.9669C15.425 16.0954 15.4445 16.1316 15.5554 16.1329H15.5872V16.1902H15.5809C15.517 16.1902 15.4536 16.1843 15.3904 16.1843C15.3243 16.1843 15.2563 16.1902 15.1894 16.1902H15.1833V16.1329H15.2102C15.3075 16.1326 15.3356 16.0699 15.3368 15.9523V15.3303C15.3367 15.2516 15.2722 15.2041 15.2087 15.2041H15.1833V15.1469H15.1894C15.246 15.1469 15.3036 15.1527 15.3593 15.1527C15.4031 15.1527 15.4456 15.1469 15.4956 15.1492L16.1443 15.8795V15.3365C16.1438 15.2193 16.0652 15.205 16.0221 15.2041H15.9832V15.1469H15.99C16.0593 15.1469 16.1274 15.1527 16.1962 15.1527C16.2567 15.1527 16.3169 15.1469 16.3782 15.1469H16.3845V15.2041H16.3559C16.2951 15.2056 16.2323 15.2112 16.2311 15.3851V16.0569C16.2311 16.1086 16.2322 16.1601 16.2394 16.205L16.2407 16.2123H16.2336ZM16.1773 16.1994H16.2257C16.2195 16.155 16.218 16.106 16.218 16.0569V15.3851C16.218 15.2077 16.2926 15.1915 16.3559 15.1911H16.3719V15.1597C16.3133 15.1602 16.2553 15.1655 16.1962 15.1655C16.129 15.1655 16.063 15.1602 15.9962 15.1597V15.1911H16.0221C16.0677 15.1915 16.1568 15.2117 16.1568 15.3365L16.1553 15.8946L16.1524 15.8975L16.1477 15.9023L15.4907 15.1597C15.447 15.1597 15.404 15.1655 15.3593 15.1655C15.3049 15.1655 15.2494 15.1602 15.1958 15.1597V15.1911H15.2087C15.2781 15.1915 15.3494 15.2439 15.3494 15.3303V15.9523C15.3494 16.0704 15.3165 16.1459 15.2102 16.1463L15.1958 16.1462V16.1775C15.2599 16.1771 15.3256 16.1716 15.3904 16.1716C15.452 16.1716 15.5132 16.1771 15.5744 16.1775V16.1463H15.5554C15.4395 16.1462 15.4105 16.0954 15.4105 15.9669V15.3419L16.1773 16.1994ZM16.1443 15.89V15.8896L16.1432 15.8885L16.1443 15.89Z" fill="#1A1919"/>
<path fill-rule="evenodd" clip-rule="evenodd" d="M16.6153 15.9728C16.6008 16.0229 16.583 16.0616 16.583 16.0879C16.583 16.1323 16.6452 16.1396 16.6936 16.1396H16.71V16.1839C16.6509 16.1807 16.5904 16.1782 16.5312 16.1782C16.4781 16.1782 16.425 16.1807 16.3721 16.1839V16.1396H16.3805C16.4384 16.1396 16.4872 16.1056 16.5088 16.0435L16.7455 15.3661C16.7646 15.3114 16.7913 15.2376 16.7998 15.1828C16.8472 15.1667 16.9062 15.1373 16.9346 15.1194C16.9387 15.1179 16.9417 15.1164 16.9463 15.1164C16.9506 15.1164 16.9534 15.1164 16.9564 15.121C16.9609 15.1327 16.9653 15.146 16.9697 15.1578L17.2414 15.93C17.259 15.9815 17.2768 16.0362 17.2961 16.0807C17.3138 16.1221 17.3448 16.1396 17.3935 16.1396H17.4026V16.1839C17.336 16.1807 17.2695 16.1782 17.1986 16.1782C17.1264 16.1782 17.0525 16.1807 16.9771 16.1839V16.1396H16.9934C17.0272 16.1396 17.0851 16.1337 17.0851 16.0968C17.0851 16.0777 17.0718 16.0378 17.0554 15.9904L16.9978 15.8192H16.6627L16.6153 15.9728ZM16.8312 15.3188H16.8282L16.6905 15.7366H16.9671L16.8312 15.3188Z" fill="#1A1919"/>
<path fill-rule="evenodd" clip-rule="evenodd" d="M17.4017 16.1902C17.3352 16.1876 17.2689 16.1843 17.1985 16.1843C17.1264 16.1843 17.0524 16.1876 16.9772 16.1902L16.9707 16.1906V16.1332H16.9932C17.0275 16.1332 17.0783 16.1252 17.0784 16.0968C17.0788 16.08 17.0654 16.0397 17.0488 15.9926L16.9928 15.8256H16.6669L16.6213 15.9748C16.6064 16.0253 16.589 16.0639 16.5892 16.0879C16.5892 16.124 16.6445 16.1332 16.6933 16.1332H16.7159V16.1906L16.7093 16.1902C16.6503 16.1876 16.5898 16.1843 16.531 16.1843C16.4781 16.1843 16.4252 16.1876 16.3719 16.1902L16.3655 16.1906V16.1332H16.3803C16.4353 16.1329 16.4814 16.1014 16.503 16.0415L16.7391 15.3638C16.758 15.3092 16.7847 15.2358 16.7977 15.177C16.844 15.1609 16.9034 15.1313 16.9321 15.1134C16.9359 15.112 16.94 15.1102 16.946 15.1102C16.9499 15.1099 16.9576 15.1108 16.9621 15.1188C16.9666 15.1305 16.971 15.1439 16.9758 15.1558L17.2472 15.9279C17.265 15.9796 17.2826 16.0342 17.3018 16.0782C17.3192 16.1172 17.3459 16.1328 17.3931 16.1332H17.4084V16.1906L17.4017 16.1902ZM16.9832 16.1772C17.0562 16.1745 17.1281 16.1717 17.1985 16.1717C17.2671 16.1717 17.3313 16.1745 17.3957 16.1771L17.3956 16.1462H17.3931C17.3431 16.1463 17.3083 16.1266 17.2899 16.0831C17.2704 16.0385 17.2528 15.9837 17.2351 15.9322L16.9635 15.1598C16.9591 15.148 16.9544 15.1348 16.951 15.1246C16.9497 15.1229 16.9499 15.1229 16.949 15.1229H16.946C16.9429 15.1229 16.9412 15.1239 16.9377 15.1249C16.9088 15.1429 16.8498 15.1726 16.8062 15.1838C16.797 15.2397 16.7702 15.3134 16.7512 15.3682L16.5147 16.0457C16.4923 16.1098 16.4407 16.1463 16.3803 16.1462H16.3781V16.1771C16.429 16.1745 16.4797 16.1717 16.531 16.1717C16.5882 16.1717 16.6466 16.1745 16.7033 16.1771V16.1462H16.6933C16.6454 16.1455 16.578 16.1404 16.5761 16.0878C16.5765 16.0587 16.5947 16.021 16.6092 15.971L16.6151 15.9729L16.6092 15.9708L16.6577 15.8131H17.0019L17.0612 15.9884C17.0774 16.0359 17.0909 16.0752 17.0909 16.0968C17.0888 16.142 17.0267 16.1454 16.9932 16.1462H16.9832V16.1772ZM16.6816 15.7429L16.8233 15.3122H16.831H16.8355L16.9751 15.7429H16.6816ZM16.6994 15.7301H16.9577L16.8292 15.3347L16.6994 15.7301Z" fill="#1A1919"/>
<path fill-rule="evenodd" clip-rule="evenodd" d="M17.7746 16.0391C17.7746 16.0985 17.8156 16.116 17.863 16.1221C17.9234 16.1265 17.9899 16.1265 18.058 16.119C18.12 16.1115 18.1731 16.0763 18.1996 16.0391C18.2231 16.0067 18.2364 15.9653 18.2454 15.9329H18.2881C18.2719 16.0171 18.2512 16.0999 18.2335 16.1839C18.1039 16.1839 17.9735 16.1782 17.8438 16.1782C17.7138 16.1782 17.584 16.1839 17.4541 16.1839V16.1395H17.4746C17.5278 16.1395 17.5856 16.1323 17.5856 16.0407V15.282C17.5856 15.205 17.5278 15.1977 17.4746 15.1977H17.4541V15.1534C17.5322 15.1534 17.6091 15.1592 17.6873 15.1592C17.7627 15.1592 17.8363 15.1534 17.9119 15.1534V15.1977H17.8748C17.8186 15.1977 17.7746 15.1993 17.7746 15.2775L17.7746 16.0391Z" fill="#1A1919"/>
<path fill-rule="evenodd" clip-rule="evenodd" d="M18.2335 16.1902C18.1033 16.1902 17.9732 16.1843 17.8437 16.1843C17.7139 16.1843 17.5839 16.1902 17.4537 16.1902H17.4475V16.1332H17.4744C17.5278 16.1318 17.5785 16.1281 17.5791 16.0407V15.2817C17.5785 15.2098 17.528 15.205 17.4744 15.2041H17.4475V15.1469H17.4537C17.5324 15.1469 17.6092 15.1527 17.687 15.1527C17.7622 15.1527 17.8358 15.1469 17.9117 15.1469H17.9177V15.2041H17.8746C17.8174 15.2055 17.7818 15.203 17.7805 15.2775V16.0391C17.7809 16.0943 17.8171 16.1091 17.8632 16.1156C17.8892 16.1174 17.9167 16.1184 17.9451 16.1184C17.9812 16.1184 18.0187 16.1167 18.0569 16.1127C18.117 16.1055 18.1687 16.0708 18.1943 16.0356C18.2171 16.004 18.23 15.9635 18.2389 15.9314L18.2401 15.9265H18.2958L18.2945 15.9343C18.2778 16.0187 18.2575 16.1011 18.2396 16.1852L18.2384 16.1902L18.2335 16.1902ZM18.2281 16.1774C18.2451 16.0973 18.2644 16.0188 18.2804 15.9392H18.25C18.2409 15.9714 18.2277 16.011 18.2046 16.0431C18.177 16.0813 18.1223 16.1174 18.0583 16.1254C18.0197 16.1293 17.9813 16.1313 17.9451 16.1313C17.9165 16.1313 17.8889 16.13 17.862 16.1281C17.814 16.1229 17.7676 16.1022 17.7676 16.0391V15.2775C17.7676 15.1954 17.8195 15.1911 17.8746 15.1911H17.9051V15.1597C17.8323 15.1602 17.7605 15.1657 17.687 15.1657C17.6108 15.1657 17.5359 15.1602 17.4604 15.1597V15.1911H17.4745C17.5271 15.1911 17.5916 15.2003 17.5916 15.2817V16.0407C17.5916 16.1363 17.5274 16.1462 17.4745 16.1462H17.4604V16.1774C17.5879 16.1772 17.7155 16.1716 17.8437 16.1716C17.9721 16.1716 18.1003 16.1772 18.2281 16.1774Z" fill="#1A1919"/>
<path fill-rule="evenodd" clip-rule="evenodd" d="M9.04883 9.94128C9.04883 8.56033 10.1683 7.44089 11.5491 7.44089C12.93 7.44089 14.0496 8.56033 14.0496 9.94128C14.0496 11.3222 12.9301 12.4417 11.5491 12.4417C10.1682 12.4417 9.04883 11.3222 9.04883 9.94128Z" fill="white"/>
<path fill-rule="evenodd" clip-rule="evenodd" d="M13.0614 9.89206C13.0604 9.25175 12.6601 8.70566 12.0962 8.4894V11.2946C12.6601 11.0781 13.0604 10.5325 13.0614 9.89206ZM11.0203 11.2941V8.48968C10.4568 8.70663 10.0572 9.25194 10.0557 9.89206C10.0572 10.5321 10.4568 11.0773 11.0203 11.2941ZM11.5585 7.52099C10.249 7.5215 9.18814 8.58261 9.18793 9.89206C9.18815 11.2014 10.249 12.2623 11.5585 12.2625C12.868 12.2623 13.9291 11.2014 13.9294 9.89206C13.9291 8.58261 12.868 7.5215 11.5585 7.52099ZM11.5527 12.4863C10.1198 12.4931 8.94043 11.3322 8.94043 9.91912C8.94043 8.37472 10.1198 7.30651 11.5527 7.30679H12.2242C13.6402 7.30651 14.9325 8.37422 14.9325 9.91912C14.9325 11.3317 13.6402 12.4863 12.2242 12.4863H11.5527Z" fill="#0069AA"/>
<path fill-rule="evenodd" clip-rule="evenodd" d="M5.60107 16.1395H5.62181C5.67489 16.1395 5.731 16.1323 5.731 16.0554V15.282C5.731 15.205 5.6749 15.1977 5.62181 15.1977H5.60107V15.1534C5.65864 15.1534 5.74721 15.1592 5.81975 15.1592C5.89351 15.1592 5.98198 15.1534 6.05138 15.1534V15.1977H6.03054C5.97767 15.1977 5.92145 15.205 5.92145 15.282V16.0554C5.92145 16.1323 5.97767 16.1395 6.03054 16.1395H6.05138V16.1839C5.98058 16.1839 5.89178 16.1782 5.81824 16.1782C5.74576 16.1782 5.65864 16.1839 5.60107 16.1839V16.1395Z" fill="#1A1919"/>
<path fill-rule="evenodd" clip-rule="evenodd" d="M6.05122 16.1902C5.9798 16.1902 5.89145 16.1843 5.81796 16.1843C5.7457 16.1843 5.65886 16.1902 5.60091 16.1902H5.59448V16.1332H5.62153C5.67512 16.1318 5.72385 16.1276 5.7243 16.0554V15.282C5.72385 15.2097 5.67512 15.205 5.62153 15.2041H5.59448V15.1469H5.60091C5.65886 15.1469 5.74738 15.1527 5.81958 15.1527C5.89301 15.1527 5.98142 15.1469 6.05122 15.1469H6.05781V15.2041H6.03065C5.97701 15.205 5.928 15.2097 5.92772 15.282V16.0554C5.928 16.1276 5.97701 16.1318 6.03065 16.1332H6.05781V16.1902H6.05122ZM6.04485 16.1776L6.0449 16.1462H6.03065C5.97784 16.1462 5.91509 16.1369 5.91475 16.0554V15.282C5.91509 15.2003 5.97784 15.1912 6.03065 15.1912H6.04485V15.1597C5.97673 15.1598 5.89117 15.1657 5.81958 15.1657C5.74945 15.1657 5.66456 15.1602 5.60739 15.1597V15.1912H5.62153C5.67417 15.1912 5.73704 15.2003 5.73704 15.282V16.0554C5.73704 16.1369 5.67417 16.1462 5.62153 16.1462H5.60739V16.1776C5.66456 16.1771 5.74794 16.1716 5.81796 16.1716C5.88988 16.1716 5.97522 16.1772 6.04485 16.1776Z" fill="#1A1919"/>
<path fill-rule="evenodd" clip-rule="evenodd" d="M18.2701 15.1115C18.3592 15.1115 18.4257 15.1799 18.4257 15.2673C18.4257 15.3547 18.3592 15.4223 18.2701 15.4223C18.1813 15.4223 18.1147 15.3547 18.1147 15.2673C18.1147 15.1799 18.1813 15.1115 18.2701 15.1115ZM18.2701 15.3934C18.3399 15.3934 18.3932 15.3342 18.3932 15.2673C18.3932 15.2004 18.3405 15.1406 18.2701 15.1406C18.2002 15.1406 18.147 15.2004 18.147 15.2673C18.147 15.3342 18.2002 15.3934 18.2701 15.3934ZM18.1928 15.3493V15.3417C18.2119 15.339 18.2154 15.3395 18.2154 15.3279V15.2127C18.2154 15.1965 18.2138 15.1909 18.1935 15.1918V15.1838H18.2731C18.3004 15.1838 18.3256 15.1969 18.3256 15.2252C18.3256 15.2483 18.3104 15.2654 18.2888 15.2721L18.3144 15.3077C18.3263 15.3238 18.3399 15.339 18.3486 15.3444V15.3493H18.3184C18.3039 15.3493 18.291 15.3188 18.2625 15.2778H18.2453V15.3293C18.2453 15.3395 18.2489 15.339 18.268 15.3417V15.3493H18.1928ZM18.2453 15.2673H18.2636C18.2837 15.2673 18.2929 15.2522 18.2929 15.2277C18.2929 15.2029 18.2786 15.1942 18.2626 15.1942H18.2453L18.2453 15.2673Z" fill="#1A1919"/>
</svg>
