<svg width="24" height="24" viewBox="0 0 24 24" fill="none" xmlns="http://www.w3.org/2000/svg">
<path d="M21.1096 15.7733C21.1094 16.7909 20.2799 17.619 19.259 17.619H4.76196C3.74102 17.6189 2.9104 16.7904 2.9104 15.7713V7.75568C2.9104 6.7384 3.74097 5.91012 4.76294 5.90997H19.259C20.2788 5.90997 21.1096 6.7384 21.1096 7.75568V15.7733Z" fill="#F7F7F7"/>
<path d="M17.4545 14.4429C17.4545 15.4463 16.6571 16.26 15.6729 16.26H6V9.07736C6 8.07365 6.79747 7.25998 7.7818 7.25998H17.4545L17.4545 14.4429Z" fill="white"/>
<path d="M14.3011 11.9176C14.5774 11.9237 14.8552 11.9051 15.1304 11.9272C15.4091 11.9802 15.4762 12.4105 15.2287 12.5514C15.0597 12.6442 14.8591 12.586 14.6759 12.6024H14.3011V11.9176ZM15.2902 11.1425C15.3515 11.3634 15.1427 11.5618 14.934 11.5314H14.3011C14.3055 11.323 14.2924 11.0968 14.3075 10.8994C14.5611 10.9067 14.8169 10.8846 15.069 10.911C15.1773 10.9388 15.268 11.0296 15.2902 11.1425ZM16.8133 7.86559C16.8251 8.28758 16.815 8.73187 16.8184 9.16243C16.8176 10.9129 16.8201 12.6633 16.8171 14.4139C16.806 15.0699 16.2359 15.6399 15.5971 15.653C14.9577 15.6557 14.3182 15.6535 13.6786 15.6542V13.0078C14.3754 13.0042 15.0725 13.0153 15.769 13.0023C16.0921 12.9816 16.446 12.7642 16.4611 12.4015C16.4991 12.0374 16.1624 11.7855 15.8428 11.7457C15.7199 11.7424 15.7235 11.7091 15.8428 11.6946C16.1477 11.6274 16.3871 11.3056 16.2974 10.9833C16.2209 10.6444 15.8536 10.5132 15.548 10.5138C14.925 10.5095 14.3018 10.5132 13.6788 10.512C13.6828 10.0179 13.6704 9.52334 13.6855 9.02966C13.7348 8.38547 14.3193 7.85423 14.9491 7.86575C15.5706 7.86566 16.192 7.86561 16.8133 7.86559Z" fill="url(#paint0_linear_9821_908)"/>
<path d="M6.63804 9.09641C6.65395 8.44142 7.22646 7.87605 7.86443 7.86648C8.50148 7.86448 9.13863 7.86619 9.77568 7.86561C9.77393 10.0571 9.77913 12.2488 9.77305 14.4401C9.74851 15.0871 9.18225 15.6417 8.55123 15.6532C7.91297 15.6556 7.27464 15.6535 6.63636 15.6542V12.9186C7.25634 13.068 7.90649 13.1316 8.53898 13.0325C8.91705 12.9705 9.3307 12.7811 9.4587 12.3811C9.55289 12.0389 9.49986 11.6788 9.51388 11.3276V10.512H8.4193C8.41438 11.0514 8.42937 11.5918 8.41138 12.1305C8.38187 12.4617 8.06031 12.6721 7.75407 12.6609C7.37427 12.665 6.62166 12.3801 6.62166 12.3801C6.61977 11.3695 6.63267 10.1037 6.63804 9.09641Z" fill="url(#paint1_linear_9821_908)"/>
<path d="M10.184 10.8409C10.1264 10.8534 10.1724 10.6408 10.1577 10.5601C10.1616 10.0502 10.1494 9.53962 10.1643 9.03C10.2136 8.38309 10.8025 7.85052 11.4349 7.86566H13.2971C13.2954 10.0571 13.3006 12.2488 13.2945 14.4402C13.2699 15.0872 12.7036 15.6418 12.0726 15.6532C11.4343 15.6557 10.796 15.6536 10.1576 15.6542V12.6571C10.5936 13.0219 11.1861 13.0787 11.7292 13.0796C12.1386 13.0795 12.5457 13.0151 12.9433 12.9188V12.3697C12.4952 12.5975 11.9685 12.7422 11.4717 12.6113C11.1252 12.5233 10.8737 12.1818 10.8793 11.8171C10.8392 11.4378 11.0571 11.0374 11.4226 10.9247C11.8763 10.7798 12.3708 10.8906 12.7961 11.079C12.8872 11.1276 12.9797 11.188 12.9433 11.0326V10.601C12.232 10.4285 11.475 10.3649 10.7604 10.5527C10.5535 10.6122 10.352 10.7024 10.184 10.8409Z" fill="url(#paint2_linear_9821_908)"/>
<defs>
<linearGradient id="paint0_linear_9821_908" x1="2.79134" y1="11.514" x2="20.9902" y2="11.514" gradientUnits="userSpaceOnUse">
<stop stop-color="#007B40"/>
<stop offset="1" stop-color="#55B330"/>
</linearGradient>
<linearGradient id="paint1_linear_9821_908" x1="2.61099" y1="11.8765" x2="20.8102" y2="11.8765" gradientUnits="userSpaceOnUse">
<stop stop-color="#1D2970"/>
<stop offset="1" stop-color="#006DBA"/>
</linearGradient>
<linearGradient id="paint2_linear_9821_908" x1="10.153" y1="11.6689" x2="13.2965" y2="11.6689" gradientUnits="userSpaceOnUse">
<stop stop-color="#6E2B2F"/>
<stop offset="1" stop-color="#E30138"/>
</linearGradient>
</defs>
</svg>
