<svg width="24" height="24" viewBox="0 0 24 24" fill="none" xmlns="http://www.w3.org/2000/svg">
<path d="M21.1096 15.7733C21.1094 16.7909 20.2799 17.619 19.259 17.619H4.76196C3.74102 17.6189 2.9104 16.7904 2.9104 15.7713V7.75568C2.9104 6.7384 3.74097 5.91012 4.76294 5.90997H19.259C20.2788 5.90997 21.1096 6.7384 21.1096 7.75568V15.7733Z" fill="#F7F7F7"/>
<path fill-rule="evenodd" clip-rule="evenodd" d="M5.18066 10.2605V12.5316C5.18066 12.5316 5.16096 12.9847 5.48203 13.3402C5.80312 13.6958 6.37627 13.7703 6.73117 13.7589C7.08604 13.7474 7.78314 13.6729 8.05354 13.5754V10.2605H7.17476V12.9789C7.17476 12.9789 6.76638 13.0879 6.47345 13.0191C6.18053 12.9502 6.02563 12.7094 6.02563 12.3825V10.2605H5.18066Z" fill="#052C18"/>
<path fill-rule="evenodd" clip-rule="evenodd" d="M8.4225 13.7359L9.7547 10.2605H10.7912L11.2869 11.5882L11.1968 11.905L10.5828 12.0061L10.2617 11.1276L9.33223 13.7359H8.4225Z" fill="#052C18"/>
<path fill-rule="evenodd" clip-rule="evenodd" d="M10.78 12.5832L11.163 13.7015L12.0981 13.6958L11.5517 12.2505C11.5517 12.2505 11.3362 12.3595 11.1503 12.4412C10.9339 12.5364 10.78 12.5832 10.78 12.5832Z" fill="#052C18"/>
<path fill-rule="evenodd" clip-rule="evenodd" d="M12.1431 10.2605V11.0175H13.1571V13.7359H14.0021V11.0175H15.016V10.2605H12.1431Z" fill="#052C18"/>
<path fill-rule="evenodd" clip-rule="evenodd" d="M15.7596 10.2605V13.7359H16.6046V12.7036C16.6046 12.7036 17.1136 12.7208 17.3967 12.6455C17.6798 12.5703 18.3177 12.3143 18.3177 11.4584C18.3177 10.6024 17.7727 10.2368 17.0186 10.1831C16.6067 10.1573 15.7596 10.2605 15.7596 10.2605ZM16.6046 10.9831V11.9466C16.6046 11.9466 17.0206 12.0274 17.289 11.8376C17.4918 11.6943 17.4594 11.4132 17.4397 11.3272C17.4199 11.2412 17.346 11.0692 17.1742 11.0061C16.9325 10.9173 16.6046 10.9831 16.6046 10.9831Z" fill="#052C18"/>
<path fill-rule="evenodd" clip-rule="evenodd" d="M18.2216 10.2879L18.2211 10.3417L18.3167 10.3422L18.3172 10.6108L18.3795 10.6098L18.3806 10.3419L18.4735 10.3401L18.473 10.289L18.2216 10.2879Z" fill="#052C18"/>
<path fill-rule="evenodd" clip-rule="evenodd" d="M18.5121 10.289L18.5126 10.6116L18.5707 10.6105L18.5701 10.3594L18.6383 10.6095L18.6935 10.6084L18.7629 10.353L18.766 10.611L18.8231 10.61L18.8221 10.2869L18.7317 10.2874L18.6689 10.5137L18.6061 10.2869L18.5121 10.289Z" fill="#052C18"/>
<path fill-rule="evenodd" clip-rule="evenodd" d="M8.7463 12.8886L8.81813 12.6993C8.81813 12.6993 8.40409 12.8262 8.17387 12.8724C8.17174 12.9273 8.17174 12.9402 8.17174 12.9402C8.17174 12.9402 8.32172 12.9294 8.46537 12.9165C8.60901 12.9036 8.7463 12.8886 8.7463 12.8886Z" fill="#43B748"/>
<path fill-rule="evenodd" clip-rule="evenodd" d="M15.0103 10.2605C15.0103 10.2605 15.2863 10.1186 15.9918 10.0196C16.5755 9.9378 17.4367 10.054 17.4367 10.054C17.4367 10.054 17.4367 10.054 17.441 9.98953C16.9509 9.83898 16.1862 9.77017 15.9581 9.76156C15.7299 9.75296 15.1384 9.77876 14.6399 9.85619C14.1414 9.93361 13.3908 10.2605 13.3908 10.2605H15.0103Z" fill="#43B748"/>
<path fill-rule="evenodd" clip-rule="evenodd" d="M9.81308 12.3789C9.81308 12.3789 10.3814 12.2219 12.1431 11.0175H13.1571L13.1542 11.1609C13.1542 11.1609 11.3446 12.4068 9.69688 12.7165C9.79618 12.4262 9.81308 12.3789 9.81308 12.3789Z" fill="#43B748"/>
</svg>
