<svg width="24" height="24" viewBox="0 0 24 24" fill="none" xmlns="http://www.w3.org/2000/svg">
<path d="M21.1096 15.7733C21.1094 16.7909 20.2799 17.619 19.259 17.619H4.76196C3.74102 17.6189 2.9104 16.7904 2.9104 15.7713V7.75568C2.9104 6.7384 3.74097 5.91012 4.76294 5.90997H19.259C20.2788 5.90997 21.1096 6.7384 21.1096 7.75568V15.7733Z" fill="#F7F7F7"/>
<path d="M7.65137 7.39H11.0303C11.502 7.39 11.7954 7.78725 11.6854 8.27637L10.1122 15.2551C10.001 15.7425 9.52883 16.14 9.05691 16.14H5.67825C5.27895 16.1397 5.00683 15.8542 5.00012 15.4703C4.99895 15.4012 5.00625 15.3292 5.02316 15.2548L6.597 8.27608C6.70695 7.78725 7.17916 7.39 7.65137 7.39Z" fill="#E21836"/>
<path d="M10.6877 7.39H14.6165C15.0997 7.39 14.8819 7.78725 14.7681 8.27637L13.1561 15.2554C13.0429 15.7425 13.0782 16.14 12.5937 16.14H8.61103C8.20562 16.14 7.9297 15.8615 7.91716 15.4849C7.91482 15.4117 7.92241 15.3344 7.94078 15.2551L9.60649 8.27608C9.72141 7.78725 10.1502 7.39 10.634 7.39" fill="#00447C"/>
<path d="M14.4131 7.39H17.7383C18.0834 7.39 18.3331 7.60204 18.3993 7.90712C18.4121 7.96662 18.4179 8.02962 18.4165 8.09525C18.415 8.15358 18.4074 8.21425 18.3934 8.27608L16.8205 15.2551C16.7093 15.7425 16.2366 16.14 15.7643 16.14H12.3868C11.9916 16.14 11.7221 15.862 11.709 15.4864C11.7064 15.4126 11.7137 15.3353 11.7318 15.2554L13.3587 8.27637C13.4689 7.78725 13.9406 7.39 14.4131 7.39Z" fill="#007B84"/>
<path d="M10.3564 10.0491C10.2616 9.99225 10.0924 10.01 9.97664 10.0885C9.86114 10.1652 9.84539 10.274 9.93989 10.3315C10.0329 10.3866 10.203 10.3705 10.3179 10.2915C10.4328 10.2133 10.45 10.1054 10.3564 10.0491ZM17.0484 10.4163L16.7069 11.0137L16.6301 10.3067L16.2685 10.3924L16.4009 11.5483L15.9882 12.2171C15.9771 12.2328 15.9672 12.2436 15.9535 12.2483C15.9383 12.2556 15.9191 12.257 15.8922 12.257H15.8806L15.7919 12.5303L16.0106 12.5306C16.1652 12.53 16.2743 12.4466 16.3291 12.3483L17.5419 10.3067L17.0484 10.4163ZM11.171 12.0567L11.0532 12.2611C11.0278 12.3058 10.9846 12.3483 10.889 12.3483H10.8304L10.7481 12.6035H10.9429C11.1725 12.6035 11.2807 12.4778 11.2807 12.4778H11.8891L11.9769 12.2057H11.4659L11.5476 12.057L11.171 12.0567ZM7.74656 10.5648C7.68998 10.7835 7.6471 10.9265 7.54852 11.0271C7.48056 11.0965 7.37556 11.1295 7.27931 11.1292C7.13552 11.1292 7.01389 11.0385 7.02177 10.8891C7.02235 10.878 7.02381 10.8664 7.02585 10.8544C7.09643 10.4615 7.40414 9.43167 7.40414 9.43167H6.83043L6.53293 10.6071C6.53293 10.6071 6.46002 10.8894 6.45856 11.0093C6.45739 11.1006 6.47227 11.1753 6.50639 11.2383C6.61606 11.438 6.94039 11.4733 7.12589 11.4733C7.44323 11.4733 7.63077 11.443 7.78418 11.3497C8.02889 11.2009 8.09977 10.9997 8.17531 10.7153C8.26048 10.3956 8.50023 9.43167 8.50023 9.43167H8.03502L7.74656 10.5648ZM8.70468 11.4733L8.91031 10.6365C8.95493 10.6173 8.99868 10.5983 9.0401 10.5983C9.13868 10.5983 9.16085 10.6803 9.15589 10.713C9.15181 10.7526 8.98381 11.4733 8.98381 11.4733H9.39331L9.53652 10.8702C9.59602 10.6473 9.62606 10.5342 9.58814 10.442C9.54848 10.339 9.44698 10.3067 9.35306 10.3067C9.29181 10.3067 9.17923 10.328 9.07714 10.3749C9.0401 10.3927 9.0051 10.4134 8.96806 10.4338L8.9981 10.3061L8.56264 10.3743L8.28148 11.4733H8.70468ZM12.1682 11.4733L12.3739 10.6365C12.4185 10.6173 12.4622 10.5983 12.5036 10.5983C12.6022 10.5983 12.6244 10.6803 12.6194 10.713C12.6154 10.7526 12.4474 11.4733 12.4474 11.4733H12.8569L13.0001 10.8702C13.0596 10.6473 13.0896 10.5342 13.0517 10.442C13.012 10.339 12.9105 10.3067 12.8166 10.3067C12.7554 10.3067 12.6428 10.328 12.5407 10.3749C12.5036 10.3927 12.4686 10.4134 12.4316 10.4338L12.4616 10.3061L12.0262 10.3743L11.745 11.4733H12.1682ZM9.66689 11.4733H10.0901L10.3089 10.5983L9.87543 10.6625L9.66689 11.4733ZM15.0406 9.6125C14.9198 9.43663 14.6704 9.43313 14.3823 9.43167H13.6995L13.1669 11.4733H13.6274L13.8214 10.7442H13.9071C14.2009 10.7442 14.4823 10.7401 14.7264 10.5639C14.8971 10.4397 15.0277 10.2746 15.0846 10.0515C15.0992 9.99692 15.1109 9.93188 15.1126 9.86684C15.1146 9.78138 15.0884 9.67871 15.0406 9.6125ZM14.55 10.0704C14.5164 10.2066 14.4251 10.3213 14.3102 10.3764C14.2157 10.423 14.0999 10.4163 13.9821 10.416H13.9086L14.0929 9.72334C14.1344 9.72334 14.2038 9.72334 14.2738 9.72334C14.4925 9.72334 14.5619 9.86246 14.5614 9.97855C14.5614 10.0086 14.5576 10.0395 14.55 10.0704ZM13.0123 13.2233C13.0123 13.2233 12.9904 13.2872 12.9834 13.3088C12.9776 13.3272 12.9543 13.3692 12.8881 13.3692H12.7659V13.2233H12.4377V13.9525C12.4357 14.0059 12.4899 14.0983 12.7288 14.0983H13.0006L13.0841 13.8428L12.8391 13.8431C12.7661 13.8431 12.7676 13.8093 12.7667 13.7556C12.7659 13.6973 12.7659 13.5879 12.7659 13.5879H12.9974C13.2104 13.5879 13.257 13.4112 13.2734 13.3584L13.3051 13.2233H13.0123Z" fill="#FEFEFE"/>
<path d="M13.1155 12.0567C12.6775 12.0567 12.592 12.2521 12.592 12.2521L12.6521 12.0567H12.2992L11.722 13.8309C11.7158 13.8513 11.708 13.8834 11.7085 13.9181C11.7103 14.0003 11.7593 14.0983 11.9897 14.0983L12.1991 14.098L12.2925 13.8067C12.2925 13.8067 12.1875 13.8067 12.151 13.8067C12.1052 13.8067 12.1145 13.7688 12.1145 13.7688L12.3213 13.1411H12.8399C13.2687 13.1411 13.3483 12.8786 13.3868 12.759L13.6155 12.0567C13.6155 12.0567 13.2745 12.0567 13.1155 12.0567ZM12.9621 12.9317H12.3785L12.4386 12.7555H13.0234L12.9621 12.9317ZM13.115 12.4994C13.115 12.4994 12.8198 12.4965 12.7723 12.5053C12.5631 12.5414 12.4753 12.6534 12.4753 12.6534L12.5739 12.3483H13.164L13.115 12.4994ZM15.6481 10.3749C15.6481 10.3749 15.6452 10.3866 15.6399 10.4073C15.595 10.3589 15.5206 10.3067 15.4034 10.3067C15.2575 10.3067 15.1301 10.3589 14.9805 10.4866C14.8489 10.6004 14.783 10.7567 14.7439 10.9063C14.7288 10.9618 14.7197 11.0495 14.7197 11.1088C14.7197 11.4733 15.0353 11.4733 15.112 11.4733C15.2272 11.4733 15.3191 11.4293 15.3935 11.3721C15.3841 11.408 15.3669 11.4733 15.3669 11.4733H15.7901L16.0835 10.3067L15.6481 10.3749ZM15.2371 11.2155C15.2188 11.2155 15.1094 11.2155 15.112 11.0956C15.1132 11.0364 15.1272 10.9702 15.1485 10.8941C15.198 10.7168 15.2648 10.5619 15.4401 10.5619C15.5772 10.5619 15.5746 10.6718 15.516 10.8923C15.499 10.9556 15.4515 11.07 15.4145 11.1257C15.3605 11.2068 15.299 11.2155 15.2371 11.2155ZM11.6409 10.4505C11.5543 10.3417 11.3965 10.307 11.232 10.3067C11.1331 10.3067 10.8968 10.3157 10.7081 10.4755C10.5725 10.591 10.5069 10.748 10.4658 10.8982C10.4243 11.0513 10.3736 11.3272 10.6396 11.4302C10.7215 11.464 10.8408 11.4733 10.9181 11.4733C11.115 11.4736 11.3183 11.4226 11.4746 11.2706C11.5951 11.1475 11.6537 10.9641 11.6744 10.8885C11.7418 10.6386 11.698 10.5216 11.6409 10.4505ZM10.9587 11.2152C10.9403 11.2152 10.8309 11.2152 10.8335 11.0953C10.8347 11.0361 10.851 10.958 10.87 10.8938C10.9193 10.727 10.9867 10.5616 11.1617 10.5616C11.2988 10.5616 11.2961 10.6715 11.2375 10.892C11.2206 10.9553 11.173 11.0697 11.136 11.1254C11.082 11.2068 11.0205 11.2155 10.9587 11.2152ZM10.7889 12.6735L10.704 12.9317H10.9508L10.8785 13.156H10.6311L10.5419 13.4293H10.7883L10.632 13.9073C10.611 13.9706 10.6101 14.098 10.8473 14.098H11.3218L11.4169 13.8067C11.4169 13.8067 11.1453 13.8067 11.0724 13.8067C10.9995 13.8067 11.019 13.755 11.019 13.755L11.1264 13.4249H11.6356L11.7237 13.1563H11.2142L11.2885 12.9317H11.7882L11.8748 12.6735H10.7889ZM16.2877 12.9072L16.3752 12.64H15.1978L15.112 12.9072H15.4652L15.3932 13.1239H15.0338L14.9571 13.3607H15.2727L14.9918 13.7297C14.9694 13.762 14.9218 13.8067 14.8437 13.8067H14.7019L14.7296 13.7224H14.6077L15.0566 12.3483H15.2161L15.2663 12.1973C15.2663 12.1973 15.2663 12.3084 15.2663 12.348C15.2663 12.4746 15.3028 12.5306 15.5058 12.5306H15.6452L15.7335 12.2579H15.6685C15.6256 12.2588 15.6052 12.2451 15.6087 12.2177V12.0567C15.6087 12.0567 15.3757 12.0567 15.2441 12.0567C14.9014 12.0567 14.6891 12.0727 14.6045 12.0952C14.5021 12.1214 14.3691 12.1993 14.3691 12.1993L14.4149 12.0567H14.036L13.493 13.7256H13.4113L13.3185 14.0079H14.1568L14.1273 14.0983H14.4858L14.515 14.0079H14.6322L14.6016 14.0983H14.8991C14.9746 14.0983 15.0356 14.0814 15.0863 14.0531C15.1394 14.0237 15.1811 13.982 15.2167 13.9344L15.4372 13.641L15.4708 13.9487C15.4792 14.0047 15.5008 14.0983 15.7309 14.0983H15.8966L15.9925 13.8067H15.8843C15.807 13.8067 15.7904 13.7498 15.786 13.72L15.7475 13.4214H15.5682L15.6411 13.3607H16.1378L16.216 13.1239H15.7537L15.8269 12.9072H16.2877ZM14.323 12.3483H14.7031L14.622 12.5971C14.622 12.5971 14.4873 12.6053 14.4199 12.6205C14.3053 12.6467 14.2099 12.6928 14.2099 12.6928L14.323 12.3483ZM14.2545 13.7256H13.8736L13.9748 13.4153H14.3548L14.2545 13.7256ZM14.4525 13.1131C14.4525 13.1131 14.3516 13.1256 14.2851 13.1408C14.1688 13.1743 14.0358 13.2233 14.0358 13.2233L14.1524 12.8681H14.5339L14.4525 13.1131Z" fill="#FEFEFE"/>
</svg>
