<svg>
<path d="M22.21 0.0497656C20.01 0.0497656 18.88 0.629766 16.72 2.18977L9.41 7.45977H4.74C3.38 7.45977 2.3 7.45976 1.45 8.31977L0.24 9.42977L7 9.16977L0 14.1698H3L10.16 9.00977L12.58 8.99977C13.0968 8.961 13.5982 8.80595 14.0467 8.54621C14.4952 8.28647 14.8792 7.92875 15.17 7.49977H12.42L18.2 3.27977L13.91 10.2798C13.1351 11.4941 12.6209 12.8562 12.4 14.2798H14.88C14.9943 13.1145 15.3777 11.9916 16 10.9998L21.85 1.22977C22.26 0.559765 22.62 0.00976562 22.62 0.00976562L22.21 0.0497656Z"/>
<path d="M26.5201 0.689745L20.3501 10.9997C19.7567 11.9619 19.3876 13.0454 19.2701 14.1697H16.8501C17.1203 12.6173 17.7131 11.1389 18.5901 9.82974L22.9001 2.63974C23.1834 2.01953 23.6492 1.50054 24.2353 1.15209C24.8214 0.80365 25.4999 0.642351 26.1801 0.689745H26.5201Z"/>
<path d="M26.0001 11.5498C25.4591 12.1033 24.7608 12.4769 24.0001 12.6198C23.5001 12.6198 23.4801 12.1198 23.8201 11.4698C25.1201 8.96976 26.4901 7.64977 28.1701 7.65977H28.4801L26.0001 11.5498ZM28.2801 6.25977C25.1601 6.25977 23.2301 8.07976 21.5401 12.0598C21.1101 13.0598 20.8701 14.3098 22.3201 14.2898C23.4532 14.1917 24.5417 13.8024 25.4801 13.1598C25.4031 13.5041 25.3728 13.8573 25.3901 14.2098H27.5901C27.7459 13.0699 28.1412 11.9759 28.7501 10.9998L31.5001 6.42977C30.4438 6.31776 29.3823 6.26102 28.3201 6.25977H28.2801Z"/>
<path d="M48.5902 11.5498C48.0319 12.1126 47.3117 12.4867 46.5302 12.6198C46.0202 12.6198 46.0002 12.1198 46.3402 11.4698C47.6402 8.96976 49.0102 7.64977 50.7002 7.65977H51.0002L48.5902 11.5498ZM50.8702 6.25977C47.7402 6.25977 45.8702 8.07976 44.1202 12.0598C43.7002 13.0598 43.4602 14.3098 44.9002 14.2898C46.0364 14.1916 47.1281 13.8024 48.0702 13.1598C47.99 13.5036 47.9663 13.8583 48.0002 14.2098H50.1902C50.3366 13.0751 50.7144 11.9825 51.3002 10.9998L54.0002 6.42977C52.9605 6.31888 51.9158 6.26214 50.8702 6.25977Z"/>
<path d="M43.7401 16.4205H43.0001C42.5466 16.4198 42.1057 16.2709 41.7447 15.9965C41.3836 15.7221 41.1221 15.3373 41.0001 14.9005L39.9101 10.7905L37.9101 14.2105H35.5601L42.0801 3.21052C42.3622 2.58942 42.8278 2.06961 43.4142 1.721C44.0006 1.37239 44.6796 1.21169 45.3601 1.26052H45.6001L41.2701 8.58052L44.5201 6.34052H47.1201L41.6601 10.1105L43.7401 16.4205Z"/>
<path d="M33.86 8.50047C33.86 8.71047 33.92 8.83047 34.33 9.11047L35 9.55047C35.3085 9.72846 35.5604 9.98999 35.7267 10.3049C35.893 10.6198 35.9669 10.9753 35.94 11.3305C35.69 12.9605 34.49 14.3305 31.94 14.3305C30.9513 14.3211 29.9662 14.2105 29 14.0005L30 12.3205C30.7041 12.4698 31.4205 12.5535 32.14 12.5705C33.14 12.5705 33.49 12.1305 33.54 11.7805C33.59 11.4305 33.47 11.3205 33.02 11.0105L32.48 10.6305C31.63 10.0205 31.41 9.54047 31.48 8.79047C31.7 7.34047 33.37 6.23047 35.7 6.23047C36.5019 6.23624 37.3029 6.28297 38.1 6.37047L37.17 8.00047C36.4487 7.9335 35.7244 7.90346 35 7.91047C34.34 7.93047 33.91 8.16047 33.86 8.50047Z"/>
<path d="M55.2301 11.0003C55.568 10.9943 55.8999 11.0892 56.1836 11.2728C56.4673 11.4563 56.6899 11.7203 56.8229 12.031C56.9559 12.3416 56.9933 12.6849 56.9303 13.0168C56.8673 13.3488 56.7068 13.6545 56.4693 13.8949C56.2318 14.1353 55.928 14.2994 55.5968 14.3663C55.2655 14.4333 54.9219 14.4 54.6097 14.2707C54.2975 14.1414 54.0309 13.922 53.8439 13.6405C53.657 13.359 53.5582 13.0282 53.5601 12.6903C53.5601 12.2455 53.7354 11.8186 54.048 11.5023C54.3606 11.1859 54.7853 11.0055 55.2301 11.0003ZM55.2301 14.0503C55.501 14.0602 55.7687 13.989 55.9988 13.8458C56.2289 13.7025 56.411 13.4938 56.5216 13.2463C56.6323 12.9988 56.6664 12.7239 56.6198 12.4569C56.5731 12.1899 56.4476 11.9429 56.2596 11.7477C56.0715 11.5525 55.8294 11.4179 55.5643 11.3612C55.2992 11.3046 55.0233 11.3284 54.7718 11.4297C54.5204 11.531 54.305 11.7051 54.1532 11.9298C54.0015 12.1544 53.9203 12.4192 53.9201 12.6903C53.9227 13.0369 54.0616 13.3686 54.3067 13.6137C54.5518 13.8588 54.8835 13.9976 55.2301 14.0003V14.0503ZM55.0001 13.5503H54.6501V11.7103H55.2901C55.3695 11.7048 55.4493 11.7157 55.5243 11.7424C55.5994 11.7691 55.6682 11.8109 55.7263 11.8653C55.7845 11.9197 55.8308 11.9856 55.8624 12.0587C55.8941 12.1318 55.9103 12.2106 55.9101 12.2903C55.9092 12.411 55.87 12.5284 55.7981 12.6255C55.7262 12.7225 55.6254 12.7942 55.5101 12.8303L55.9201 13.5503H55.5201L55.1401 12.8603H55.0001V13.5503ZM55.2401 12.5503C55.4401 12.5503 55.5601 12.4503 55.5601 12.2803C55.5601 12.1103 55.4401 12.0003 55.2401 12.0003H55.0001V12.5503H55.2401Z"/>
</svg>
