<svg>
<path d="M39.72 1.52054L30.44 17.0005C29.5513 18.4593 29.0043 20.1003 28.84 21.8005H25.22C25.6113 19.4696 26.4979 17.2497 27.82 15.2905L34.29 4.45054C35.58 2.30054 36.87 1.52054 39.21 1.52054H39.72Z"/>
<path d="M39.01 17.8105C38.1697 18.6553 37.0854 19.2149 35.91 19.4105C35.15 19.4105 35.12 18.6705 35.64 17.6805C37.59 13.9405 39.64 11.9605 42.17 11.9705H42.63L39.01 17.8105ZM42.44 9.87054C37.75 9.87054 34.87 12.6005 32.33 18.5805C31.69 20.0805 31.33 21.9405 33.5 21.9205C35.2026 21.7692 36.838 21.1839 38.25 20.2205C38.123 20.737 38.0758 21.2698 38.11 21.8005H41.4C41.6232 20.1033 42.1916 18.4698 43.07 17.0005L47.18 10.1405C45.6056 9.97017 44.0236 9.88005 42.44 9.87054Z"/>
<path d="M72.82 17.8105C71.9836 18.6551 70.9025 19.2149 69.73 19.4105C68.97 19.4105 68.94 18.6705 69.45 17.6805C71.44 13.9405 73.44 12.0005 75.99 12.0005H76.44L72.82 17.8105ZM76.24 9.87054C71.55 9.87054 68.67 12.6005 66.12 18.5805C65.49 20.0805 65.12 21.9405 67.29 21.9205C68.9926 21.7692 70.628 21.1839 72.04 20.2205C71.916 20.7374 71.8722 21.2703 71.91 21.8005H75.2C75.42 20.0996 75.9958 18.4641 76.89 17.0005L81 10.1405C79.419 9.96949 77.8303 9.87937 76.24 9.87054Z"/>
<path d="M65.55 25.1105H64.44C63.7585 25.1145 63.0949 24.8931 62.5523 24.4807C62.0097 24.0684 61.6187 23.4882 61.44 22.8305L59.84 16.6605L56.79 21.8005H53.28L63.07 5.24055C64.33 3.09055 65.64 2.31055 67.98 2.31055H68.34L61.84 13.3105L66.71 9.95055H70.63L62.44 15.5905L65.55 25.1105Z"/>
<path d="M33.26 0.560547C29.96 0.560547 28.26 1.43055 25.02 3.77055L14.02 11.6705H7.02C5.02 11.6705 3.36 11.7505 2.08 12.9605L0.3 14.6305L10.49 14.2405L0 21.8005H4.53L15.27 14.0605C17.35 13.9805 18.79 13.9205 18.8 13.9305C19.5771 13.8727 20.331 13.6392 21.0048 13.2478C21.6786 12.8563 22.2548 12.317 22.69 11.6705H18.58L27.25 5.41055L20.81 15.8505C19.6478 17.6545 18.8747 19.6809 18.54 21.8005H22.26C22.4372 20.0972 22.9979 18.4562 23.9 17.0005L32.67 2.39055C33.28 1.39055 33.82 0.560547 33.82 0.560547H33.26Z"/>
<path d="M50.73 13.2305C50.73 13.5405 50.81 13.7305 51.44 14.1405L52.44 14.8005C52.8996 15.0702 53.2745 15.4633 53.5219 15.9353C53.7694 16.4072 53.8796 16.9391 53.84 17.4705C53.47 19.9305 51.67 21.9105 47.84 21.9105C46.364 21.9285 44.8899 21.7978 43.44 21.5205L44.89 19.0005C45.9496 19.2229 47.0276 19.3468 48.11 19.3705C49.55 19.3705 50.11 18.7105 50.21 18.1805C50.21 17.8605 50.1 17.5005 49.42 17.0305L48.62 16.4605C47.34 15.5505 47.01 14.8305 47.18 13.7005C47.5 11.5205 50.01 9.86053 53.5 9.86053C54.7029 9.86643 55.9046 9.93652 57.1 10.0705L55.7 12.4405C54.6225 12.3502 53.541 12.3168 52.46 12.3405C51.44 12.3805 50.8 12.7305 50.73 13.2305Z"/>
<path d="M80.69 18.2705C81.0591 18.2646 81.4216 18.3686 81.7314 18.5693C82.0412 18.77 82.2843 19.0584 82.4296 19.3977C82.575 19.737 82.6162 20.1119 82.5478 20.4747C82.4795 20.8374 82.3047 21.1716 82.0459 21.4348C81.787 21.6979 81.4556 21.8781 81.094 21.9523C80.7324 22.0265 80.3569 21.9915 80.0153 21.8516C79.6737 21.7118 79.3814 21.4734 79.1757 21.1669C78.9699 20.8605 78.86 20.4997 78.86 20.1305C78.8599 19.6424 79.0518 19.1738 79.3941 18.8258C79.7365 18.4778 80.2019 18.2784 80.69 18.2705ZM80.69 21.6205C80.9866 21.6305 81.2794 21.5516 81.531 21.3941C81.7825 21.2365 81.9812 21.0075 82.1017 20.7362C82.2222 20.465 82.2589 20.164 82.2072 19.8717C82.1555 19.5795 82.0177 19.3093 81.8114 19.0959C81.6052 18.8825 81.3399 18.7355 81.0496 18.6739C80.7592 18.6122 80.4571 18.6387 80.1819 18.7498C79.9068 18.861 79.671 19.0518 79.505 19.2978C79.3389 19.5438 79.2502 19.8337 79.25 20.1305C79.2447 20.3235 79.2779 20.5155 79.3477 20.6954C79.4176 20.8753 79.5227 21.0395 79.6568 21.1782C79.7909 21.317 79.9514 21.4276 80.1288 21.5036C80.3062 21.5795 80.497 21.6193 80.69 21.6205ZM80.44 21.1305H80.06V19.1305H80.76C80.847 19.1265 80.9339 19.14 81.0156 19.1702C81.0973 19.2005 81.1721 19.2468 81.2355 19.3065C81.299 19.3662 81.3498 19.4381 81.3849 19.5178C81.42 19.5975 81.4387 19.6834 81.44 19.7705C81.4398 19.9043 81.3971 20.0346 81.318 20.1424C81.2389 20.2503 81.1275 20.3302 81 20.3705L81.45 21.1605H81.01L80.59 20.4005H80.44V21.1305ZM80.72 20.0005C80.95 20.0005 81.07 19.8905 81.07 19.7005C81.07 19.5105 80.95 19.4005 80.72 19.4005H80.44V20.0005H80.72Z"/>
</svg>
