<svg>
<path d="M70.61 2.14944L54.17 29.7394C52.5776 32.3083 51.5863 35.2037 51.27 38.2094H44.83C45.27 34.7194 46.63 31.3994 49.46 26.6294L60.96 7.35945C63.26 3.53945 65.55 2.14944 69.71 2.14944H70.61Z"/>
<path d="M69.34 31.1095C68.14 32.2195 65.81 33.8995 63.85 33.9594C62.49 33.8995 62.44 32.6294 63.35 30.8895C66.82 24.2394 70.47 20.7195 74.97 20.7295H75.79L69.34 31.1095ZM75.42 16.9995C67.08 16.9995 61.96 21.8595 57.42 32.4895C56.29 35.1595 55.64 38.4894 59.49 38.4194C62.5171 38.1595 65.4267 37.1265 67.94 35.4194C67.7172 36.3384 67.6362 37.286 67.7 38.2295H73.56C73.9532 35.1953 74.975 32.2764 76.56 29.6595L83.87 17.4694C81.0638 17.1615 78.2431 17.0046 75.42 16.9995Z"/>
<path d="M129.46 31.1095C128.26 32.2195 125.93 33.8995 123.97 33.9594C122.61 33.8995 122.56 32.6294 123.47 30.8895C126.94 24.2394 130.59 20.7195 135.09 20.7295H135.9L129.46 31.1095ZM135.56 16.9995C127.22 16.9995 122.1 21.8595 117.56 32.4895C116.42 35.1595 115.78 38.4894 119.63 38.4194C122.657 38.1595 125.567 37.1265 128.08 35.4194C127.853 36.3377 127.772 37.286 127.84 38.2295H133.68C134.075 35.1958 135.097 32.2774 136.68 29.6595L143.99 17.4694C141.19 17.1622 138.376 17.0053 135.56 16.9995Z"/>
<path d="M116.56 44.0894H114.65C113.431 44.094 112.244 43.6955 111.275 42.9558C110.305 42.2161 109.607 41.1767 109.29 39.9994L106.38 28.9994L100.95 38.1394H94.72L112.12 8.69944C114.36 4.86944 116.7 3.48944 120.85 3.48944H121.49L109.94 23.0694L118.6 17.0694H125.6L110.99 27.1594L116.56 44.0894Z"/>
<path d="M59.13 0.439453C53.26 0.439453 50.23 1.98945 44.47 6.13945L24.99 20.1395H12.56C8.96 20.1395 6.07 20.2795 3.79 22.4295L0.570001 25.4295L18.69 24.7295L0 38.2095H8.06L27.14 24.4395C30.84 24.2995 33.41 24.1995 33.43 24.2095C37.88 24.0895 40.34 20.2095 40.34 20.2095H33.02L48.44 9.06945L37 27.6295C34.55 31.8995 33.37 34.9395 33 38.2095H39.56C39.881 35.2048 40.872 32.3103 42.46 29.7395L58.07 3.73945C59.15 1.94945 60.07 0.489453 60.07 0.489453L59.13 0.439453Z"/>
<path d="M90.18 22.9994C90.1 23.5494 90.33 23.8894 91.45 24.6194L93.24 25.7894C94.0592 26.2675 94.7273 26.9665 95.1676 27.8066C95.608 28.6467 95.8029 29.5938 95.73 30.5394C95.08 34.8995 91.87 38.4194 85.05 38.4294C82.4033 38.469 79.7596 38.2378 77.16 37.7395L79.81 33.2794C81.6923 33.6717 83.6075 33.886 85.53 33.9194C88.09 33.9194 89.12 32.7694 89.26 31.8194C89.34 31.2594 89.07 30.6094 87.86 29.7594L86.44 28.7594C84.17 27.1394 83.57 25.8594 83.87 23.8494C84.44 19.9794 88.87 17.0294 95.12 17.0294C97.2582 17.0349 99.3946 17.1551 101.52 17.3894L99.03 21.6094C97.1143 21.4511 95.1918 21.391 93.27 21.4294C91.48 21.4594 90.32 22.0694 90.18 22.9994Z"/>
<path d="M140.43 34.3595C140.842 34.3455 141.249 34.455 141.598 34.6738C141.948 34.8926 142.224 35.2108 142.392 35.5876C142.559 35.9644 142.61 36.3826 142.538 36.7887C142.467 37.1947 142.275 37.5701 141.989 37.8666C141.702 38.1631 141.334 38.3674 140.93 38.4531C140.527 38.5388 140.107 38.5021 139.725 38.3477C139.343 38.1933 139.015 37.9282 138.784 37.5864C138.554 37.2447 138.43 36.8418 138.43 36.4295C138.43 35.8924 138.638 35.3762 139.011 34.99C139.385 34.6037 139.893 34.3776 140.43 34.3595ZM140.43 38.0895C140.761 38.1014 141.087 38.0143 141.368 37.8393C141.649 37.6644 141.871 37.4095 142.006 37.1074C142.141 36.8053 142.182 36.4698 142.125 36.144C142.068 35.8181 141.915 35.5167 141.685 35.2785C141.456 35.0404 141.16 34.8762 140.837 34.8071C140.513 34.7381 140.176 34.7672 139.869 34.8909C139.563 35.0146 139.3 35.2272 139.114 35.5013C138.929 35.7754 138.83 36.0986 138.83 36.4295C138.823 36.6442 138.86 36.8581 138.937 37.0586C139.014 37.2591 139.131 37.4421 139.28 37.5968C139.429 37.7515 139.608 37.8748 139.805 37.9594C140.003 38.044 140.215 38.0882 140.43 38.0895ZM140.18 37.5295H139.75V35.2795H140.56C140.657 35.2741 140.754 35.2883 140.845 35.3215C140.937 35.3546 141.021 35.4059 141.092 35.4722C141.163 35.5386 141.219 35.6186 141.259 35.7075C141.298 35.7964 141.319 35.8923 141.32 35.9895C141.319 36.1384 141.271 36.2833 141.183 36.4035C141.095 36.5238 140.972 36.6133 140.83 36.6595L141.33 37.5295H140.84L140.37 36.6895H140.21L140.18 37.5295ZM140.47 36.3195C140.72 36.3195 140.86 36.1995 140.86 35.9995C140.86 35.7995 140.72 35.6495 140.47 35.6495H140.18V36.3195H140.47Z"/>
</svg>
