<svg>
<path d="M194.18 5L148.98 80.86C144.589 87.9232 141.854 95.889 140.98 104.16H123.29C124.49 94.56 128.29 85.42 136.02 72.33L167.65 19.33C173.97 8.82 180.27 5.02 191.65 5.02L194.18 5Z"/>
<path d="M190.75 84.6C187.43 87.66 181.04 92.28 175.63 92.44C171.91 92.28 171.77 88.79 174.27 83.98C183.75 65.69 193.75 56 206.17 56.06H208.41L190.75 84.6ZM207.45 45.78C184.53 45.78 170.45 59.13 158 88.35C154.89 95.69 153.12 104.79 163.71 104.68C169.71 104.6 179.83 101.3 186.94 96.4C186.32 98.9234 186.098 101.528 186.28 104.12H202.36C202.92 97.85 205.36 90.04 210.62 80.55L230.67 47C222.941 46.1737 215.173 45.7664 207.4 45.78H207.45Z"/>
<path d="M356.02 84.6C352.71 87.66 346.31 92.28 340.91 92.44C337.19 92.28 337.05 88.79 339.55 83.98C349.09 65.69 359.12 55.98 371.49 56.06H373.75L356.02 84.6ZM372.75 45.78C349.83 45.78 335.75 59.13 323.31 88.35C320.2 95.69 318.42 104.79 329.02 104.68C335.02 104.6 345.14 101.3 352.24 96.4C351.625 98.9242 351.402 101.528 351.58 104.12H367.66C368.22 97.85 370.66 90.04 375.93 80.55L396 47C388.278 46.1748 380.516 45.7675 372.75 45.78Z"/>
<path d="M320.45 120.29H315.2C311.875 120.293 308.641 119.203 305.996 117.188C303.351 115.174 301.441 112.346 300.56 109.14L292.56 78.99L277.62 104.12H260.49L308.32 23.12C314.49 12.61 320.92 8.79001 332.32 8.79001H334.07L302.32 62.49L326.15 46.07H345.28L305.28 73.73L320.45 120.29Z"/>
<path d="M162.61 0.25C146.47 0.25 138.14 4.52 122.3 15.94L68.75 54.57H34.44C24.52 54.57 16.59 54.96 10.33 60.86L1.46 69.05L51.3 67.13L0 104.13H22.17L74.64 66.25C84.8 65.87 91.87 65.61 91.93 65.63C104.16 65.29 110.93 54.58 110.93 54.58H90.82L133.21 24L101.75 75C95.01 86.72 91.75 95.1 90.64 104.09H108.85C109.729 95.8202 112.464 87.8556 116.85 80.79L159.75 9.19C162.75 4.27 165.35 0.25 165.35 0.25H162.61Z"/>
<path d="M248.01 62.2C247.79 63.73 248.42 64.66 251.5 66.65L256.41 69.88C261.73 73.42 263.88 78.64 263.25 82.95C261.46 94.95 252.64 104.62 233.89 104.63C226.614 104.745 219.346 104.112 212.2 102.74L219.48 90.47C226.26 91.65 230.13 92.26 235.2 92.25C242.26 92.25 245.08 89.07 245.47 86.46C245.7 84.91 244.96 83.13 241.6 80.81L237.75 78.05C231.51 73.6 229.87 70.05 230.69 64.54C232.26 53.91 244.55 45.78 261.62 45.78C267.497 45.8078 273.368 46.1416 279.21 46.78L272.36 58.37C267.095 57.9387 261.812 57.7718 256.53 57.87C251.56 58.05 248.37 59.74 248.01 62.2Z"/>
<path d="M381.68 96.74C382.426 96.7281 383.159 96.9385 383.785 97.3443C384.411 97.7502 384.902 98.3331 385.196 99.019C385.49 99.705 385.573 100.463 385.435 101.196C385.297 101.929 384.943 102.605 384.42 103.137C383.897 103.669 383.227 104.033 382.496 104.183C381.765 104.333 381.006 104.262 380.315 103.979C379.625 103.696 379.034 103.215 378.618 102.595C378.202 101.975 377.98 101.246 377.98 100.5C377.975 99.5115 378.361 98.5611 379.054 97.8566C379.748 97.152 380.692 96.7506 381.68 96.74ZM381.68 103.52C382.277 103.538 382.865 103.377 383.371 103.059C383.876 102.74 384.274 102.278 384.515 101.732C384.756 101.185 384.828 100.58 384.723 99.9919C384.618 99.4041 384.339 98.8612 383.923 98.4326C383.508 98.004 382.973 97.7092 382.389 97.5859C381.805 97.4627 381.197 97.5166 380.644 97.7408C380.09 97.965 379.616 98.3492 379.283 98.8443C378.949 99.3394 378.77 99.9229 378.77 100.52C378.761 100.909 378.829 101.296 378.971 101.658C379.113 102.02 379.325 102.351 379.596 102.63C379.867 102.909 380.191 103.132 380.549 103.285C380.906 103.437 381.291 103.517 381.68 103.52ZM381.21 102.52H380.44V98.43H381.85C382.027 98.4192 382.204 98.4444 382.371 98.5041C382.538 98.5638 382.691 98.6567 382.821 98.7773C382.951 98.898 383.055 99.0437 383.127 99.2057C383.199 99.3678 383.238 99.5427 383.24 99.72C383.237 99.991 383.149 100.254 382.987 100.472C382.825 100.689 382.599 100.85 382.34 100.93L383.26 102.52H382.37L381.52 101H381.21V102.52ZM381.74 100.33C382.2 100.33 382.45 100.1 382.45 99.73C382.45 99.36 382.2 99.11 381.74 99.11H381.21V100.33H381.74Z"/>
</svg>
