<svg>
<g>
<path d="M194.2 4.70001L149 80.6C144.3 88.4 141.7 96.3 141 103.9H123.3C124.5 94.3 128.3 85.2 136 72.1L167.6 19.1C173.9 8.60001 180.2 4.80001 191.6 4.80001H194.2V4.70001Z"/>
<path d="M190.7 84.3C187.4 87.4 181 92 175.6 92.1C171.9 91.9 171.7 88.4 174.2 83.6C183.7 65.3 193.8 55.6 206.1 55.7H208.3L190.7 84.3ZM207.4 45.5C184.5 45.5 170.4 58.9 158 88.1C154.9 95.4 153.1 104.5 163.7 104.4C169.7 104.3 179.8 101 186.9 96.1C186.3 98.5 186 101.8 186.2 103.8H202.3C202.9 97.5 205.3 89.7 210.6 80.2L230.7 46.7C223 45.9 215.3 45.5 207.4 45.5Z"/>
<path d="M356 84.3C352.7 87.4 346.3 92 340.9 92.1C337.2 91.9 337 88.4 339.5 83.6C349 65.3 359.1 55.6 371.4 55.7H373.6L356 84.3ZM372.7 45.5C349.8 45.5 335.7 58.9 323.3 88.1C320.2 95.4 318.4 104.5 329 104.4C335 104.3 345.1 101 352.2 96.1C351.6 98.5 351.3 101.8 351.5 103.8H367.6C368.2 97.5 370.6 89.7 375.9 80.2L396 46.8C388.4 45.9 380.6 45.5 372.7 45.5Z"/>
<path d="M320.5 120H315.2C308.4 120 302.4 115.4 300.6 108.9L292.6 78.7L277.7 103.8H260.6L308.4 22.8C314.6 12.3 321 8.5 332.4 8.5H334.2L302.4 62.2L326.2 45.8H345.3L305.2 73.5L320.5 120Z"/>
<path d="M162.6 0C146.5 0 138.1 4.3 122.3 15.7L68.7 54.3H34.4C24.5 54.3 16.5 54.7 10.3 60.6L1.4 68.8C1.4 68.8 27.2 67.8 51.2 66.9L0 103.9H22.2L74.6 66C84.8 65.6 91.8 65.4 91.9 65.4C104.1 65.1 110.9 54.3 110.9 54.3H90.8L133.2 23.7L101.7 74.8C95 86.5 91.7 94.9 90.6 103.9H108.8C109.5 96.3 112.1 88.4 116.8 80.6L159.7 9C162.7 4.1 165.3 0.1 165.3 0.1L162.6 0Z"/>
<path d="M248 62C247.8 63.5 248.4 64.5 251.5 66.5L256.4 69.7C261.7 73.2 263.9 78.5 263.2 82.8C261.4 94.8 252.6 104.5 233.8 104.5C225.6 104.5 221.9 104.2 212.1 102.6L219.4 90.3C226.2 91.5 230 92.1 235.1 92.1C242.2 92.1 245 88.9 245.4 86.3C245.6 84.8 244.9 83 241.5 80.7L237.6 77.9C231.4 73.4 229.7 69.9 230.5 64.4C232.1 53.8 244.4 45.6 261.4 45.6C266.8 45.6 272.6 45.9 279 46.6L272.1 58.2C267.9 57.9 261.1 57.5 256.3 57.7C251.6 57.8 248.4 59.5 248 62Z"/>
<path d="M381.7 96.5C383.8 96.5 385.4 98.2 385.4 100.3C385.4 102.4 383.7 104.1 381.7 104.1C379.6 104.1 378 102.4 378 100.3C378 98.2 379.6 96.5 381.7 96.5ZM381.7 103.3C383.3 103.3 384.6 102 384.6 100.3C384.6 98.6 383.3 97.3 381.7 97.3C380.1 97.3 378.8 98.6 378.8 100.3C378.8 102 380.1 103.3 381.7 103.3ZM381.2 102.3H380.4V98.2H381.8C382.6 98.2 383.2 98.8 383.2 99.5C383.2 100.1 382.8 100.5 382.3 100.7L383.2 102.3H382.3L381.4 100.8H381.1V102.3H381.2ZM381.7 100.1C382.2 100.1 382.4 99.9 382.4 99.5C382.4 99.1 382.1 98.9 381.7 98.9H381.2V100.1H381.7V100.1Z"/>
<path d="M49.6 163.1H37L34.4 170.2H28L39.9 139.1H46.9L58.8 170.2H52.2L49.6 163.1ZM39 157.6H47.6L43.3 145.8L39 157.6Z"/>
<path d="M80.4 170.2V139.1H86.5V170.2H80.4Z"/>
<path d="M122 158.2H118.8V170.2H112.7V139.1H124.9C131 139.1 134.8 143.3 134.8 148.7C134.8 153 132.3 156.3 128.2 157.5L134.9 170.2H128.1L122 158.2ZM123.7 153C126.8 153 128.6 151.2 128.6 148.7C128.6 146.1 126.8 144.4 123.7 144.4H118.8V153.1H123.7V153Z"/>
<path d="M159.3 170.2V139.1H165.4V164.4H179.3V170.2H159.3V170.2Z"/>
<path d="M203 170.2V139.1H209.1V170.2H203Z"/>
<path d="M255.5 170.2L241.4 148.1V170.2H235.3V139.1H242.9L255.9 159.7V139.1H262V170.2H255.5Z"/>
<path d="M288.1 170.2V139.1H307.6V144.8H294.2V151.9H306.4V157.3H294.2V164.5H307.6V170.2H288.1V170.2Z"/>
<path d="M348.3 148.2C348 146.5 346.6 143.8 342.6 143.8C339.7 143.8 337.7 145.7 337.7 147.8C337.7 149.5 338.8 150.9 341.1 151.3L345.4 152.1C351.1 153.2 354.1 156.9 354.1 161.3C354.1 166.1 350.1 170.9 342.9 170.9C334.6 170.9 331 165.6 330.5 161.1L336.1 159.6C336.4 162.7 338.5 165.4 342.9 165.4C346.1 165.4 347.9 163.8 347.9 161.6C347.9 159.8 346.5 158.4 344.1 157.9L339.8 157C334.8 156 331.6 152.8 331.6 148.1C331.6 142.6 336.6 138.3 342.4 138.3C350 138.3 352.9 142.9 353.6 146.4L348.3 148.2Z"/>
</g>
</svg>
