<svg>
<g>
<path d="M6.79999 22.2H5.09999L4.69999 23.2H3.79999L5.49999 19H6.49999L7.99999 23.2H7.19999L6.79999 22.2ZM5.39999 21.5H6.59999L5.99999 19.9L5.39999 21.5Z"/>
<path d="M11 23.2V19H11.8V23.2H11Z"/>
<path d="M16.7 21.6H16.3V23.2H15.5V19H17.2C18 19 18.6 19.6 18.6 20.3C18.6 20.9 18.3 21.3 17.7 21.5L18.6 23.2H17.7L16.7 21.6ZM16.9 20.9C17.3 20.9 17.6 20.7 17.6 20.3C17.6 19.9 17.4 19.7 16.9 19.7H16.2V20.9H16.9V20.9Z"/>
<path d="M21.7 23.2V19H22.5V22.5H24.4V23.3H21.7V23.2Z"/>
<path d="M27.7 23.2V19H28.5V23.2H27.7Z"/>
<path d="M34.9 23.2L33 20.2V23.2H32.2V19H33.2L35 21.8V19H35.8V23.2H34.9Z"/>
<path d="M39.3 23.2V19H42V19.8H40.2V20.8H41.9V21.5H40.2V22.5H42V23.3H39.3V23.2Z"/>
<path d="M47.5 20.2C47.5 20 47.3 19.6 46.7 19.6C46.3 19.6 46 19.9 46 20.1C46 20.3 46.1 20.5 46.5 20.6L47.1 20.7C47.9 20.9 48.3 21.4 48.3 21.9C48.3 22.6 47.8 23.2 46.8 23.2C45.7 23.2 45.2 22.5 45.1 21.9L45.9 21.7C45.9 22.1 46.2 22.5 46.8 22.5C47.2 22.5 47.5 22.3 47.5 22C47.5 21.8 47.3 21.6 47 21.5L46.4 21.4C45.7 21.3 45.3 20.8 45.3 20.2C45.3 19.4 46 18.9 46.8 18.9C47.8 18.9 48.2 19.5 48.3 20L47.5 20.2Z"/>
<path d="M26.5 0.599976L20.3 11C19.7 12.1 19.3 13.1 19.2 14.2H16.8C17 12.9 17.5 11.6 18.5 9.89997L22.8 2.69998C23.7 1.29998 24.5 0.699976 26.1 0.699976H26.5V0.599976Z"/>
<path d="M26 11.5C25.5 11.9 24.7 12.5 23.9 12.6C23.4 12.6 23.4 12.1 23.7 11.4C25 8.89995 26.4 7.59995 28.1 7.59995H28.4L26 11.5ZM28.3 6.19995C25.2 6.19995 23.3 7.99995 21.6 12C21.2 13 20.9 14.2 22.4 14.2C23.2 14.2 24.6 13.7 25.6 13.1C25.5 13.4 25.5 13.9 25.5 14.2H27.7C27.8 13.3 28.1 12.3 28.8 11L31.5 6.39995C30.4 6.29995 29.4 6.19995 28.3 6.19995Z"/>
<path d="M48.5 11.5C48 11.9 47.2 12.5 46.4 12.6C45.9 12.6 45.9 12.1 46.2 11.4C47.5 8.89995 48.9 7.59995 50.6 7.59995H51L48.5 11.5ZM50.8 6.19995C47.7 6.19995 45.8 7.99995 44.1 12C43.7 13 43.4 14.2 44.9 14.2C45.7 14.2 47.1 13.7 48.1 13.1C48 13.4 48 13.9 48 14.2H50.2C50.3 13.3 50.6 12.3 51.3 11L54 6.39995C53 6.29995 51.9 6.19995 50.8 6.19995Z"/>
<path d="M43.7 16.4H43C42.1 16.4 41.3 15.8 41 14.9L39.9 10.8L37.9 14.2H35.6L42.1 3.19995C42.9 1.79995 43.8 1.19995 45.4 1.19995H45.6L41.3 8.49995L44.5 6.29995H47.1L41.6 9.99995L43.7 16.4Z"/>
<path d="M22.2 0C20 0 18.9 0.6 16.7 2.1L9.4 7.4H4.7C3.3 7.4 2.3 7.5 1.4 8.3L0.2 9.4C0.2 9.4 3.7 9.3 7 9.1L0 14.1H3L10.2 9C11.6 8.9 12.6 8.9 12.6 8.9C14.3 8.9 15.2 7.4 15.2 7.4H12.5L18.3 3.2L14 10.2C13.1 11.8 12.6 12.9 12.5 14.2H15C15.1 13.2 15.4 12.1 16.1 11L22 1.2C22.2 0.5 22.5 0 22.5 0H22.2Z"/>
<path d="M33.8 8.39998C33.8 8.59998 33.9 8.69998 34.3 8.99998L35 9.49998C35.7 9.99998 36 10.7 35.9 11.3C35.7 12.9 34.5 14.3 31.9 14.3C30.8 14.3 30.3 14.3 28.9 14L29.9 12.3C30.8 12.5 31.4 12.5 32 12.5C33 12.5 33.3 12.1 33.4 11.7C33.4 11.5 33.3 11.2 32.9 10.9L32.4 10.5C31.5 9.89998 31.3 9.39998 31.4 8.69998C31.6 7.29998 33.3 6.09998 35.6 6.09998C36.3 6.09998 37.1 6.09998 38 6.19998L37.1 7.79998C36.5 7.79998 35.6 7.69998 34.9 7.69998C34.3 7.89998 33.9 8.09998 33.8 8.39998Z"/>
<path d="M55.2 10.9C56.1 10.9 56.9 11.7 56.9 12.6C56.9 13.5 56.1 14.3 55.2 14.3C54.3 14.3 53.5 13.5 53.5 12.6C53.5 11.7 54.3 10.9 55.2 10.9ZM55.2 14C55.9 14 56.5 13.4 56.5 12.6C56.5 11.8 55.9 11.2 55.2 11.2C54.5 11.2 53.9 11.8 53.9 12.6C53.9 13.4 54.5 14 55.2 14ZM55 13.5H54.7V11.7H55.3C55.7 11.7 55.9 12 55.9 12.3C55.9 12.6 55.7 12.8 55.5 12.8L55.9 13.5H55.5L55.1 12.8H55V13.5ZM55.2 12.5C55.4 12.5 55.5 12.4 55.5 12.2C55.5 12 55.4 11.9 55.2 11.9H55V12.4H55.2V12.5Z"/>
</g>
</svg>
