<svg>
  <g>
    <path d="M308.6,200.3l-66.7,113c-6.6,11.4-11.4,23.4-12,34.3H204c1.8-14.4,7.2-27.7,18.6-47.5l47.5-79.4
      c9.6-15.6,18.6-21,35.5-21C305,200.3,308.6,200.3,308.6,200.3z M303.2,318.7c-4.8,4.8-15,11.4-22.2,11.4c-6,0-6-5.4-2.4-12.6
      c14.4-27.1,29.5-41.5,47.5-41.5h3L303.2,318.7L303.2,318.7z M328.4,261c-34.3,0-54.7,19.8-73.9,63.1c-4.8,11.4-7.2,24.6,8.4,24
      c9,0,24-5.4,34.3-12.6c-0.6,4.2-1.2,9.6-1.2,12h24c1.2-9.6,4.2-20.4,12-34.9l29.5-49.9C351.9,262.2,339.8,261,328.4,261L328.4,261z
      M549.1,318.7c-4.8,4.8-15,11.4-22.2,11.4c-6,0-6-5.4-2.4-12.6c14.4-27.1,29.5-41.5,47.5-41.5h3L549.1,318.7L549.1,318.7z
      M574.3,261c-34.3,0-54.7,19.8-73.9,63.1c-4.8,11.4-7.2,24.6,8.4,24c9,0,24-5.4,34.3-12.6c-1.2,3.6-1.8,8.4-1.2,11.4h24
      c1.2-9.6,4.2-20.4,12-34.9l29.5-49.9C597.8,262.2,585.7,261,574.3,261L574.3,261z"/>
    <path d="M496.2,371.7h-7.8c-10.2,0-18.6-6.6-21.6-16.8l-11.4-44.5l-21.6,37.3h-25.3l70.3-120.2
      c9.6-15.6,18.6-21,35.5-21h3l-47.5,80l35.5-24.6h28.3l-59.5,41.5L496.2,371.7L496.2,371.7z M261.7,193.7c-24,0-36.7,6.6-60.1,23.4
      l-80,57.1H71.1c-15,0-26.5,0.6-36.1,9.6l-13.2,12c0,0,38.5-1.8,74.5-2.4L20,348.2h33.1l78.2-56.5c15.6-0.6,25.3-1.2,25.3-1.2
      c18-0.6,28.3-16.2,28.3-16.2h-29.5l62.5-45.7l-46.9,75.8c-10.2,17.4-15,29.5-16.8,43.3h27.1c1.2-11.4,4.8-22.8,12-34.3l63.7-106.4
      c4.8-7.8,9-13.2,9-13.2H261.7L261.7,193.7z M389.1,285.1c-0.6,2.4,0.6,3.6,5.4,6.6l7.2,4.8c7.8,5.4,11.4,13.2,10.2,19.2
      c-3,18-16.2,33.1-43.9,33.1c-12,0-17.4-0.6-32.5-2.4l11.4-18c10.2,1.8,15.6,2.4,23.4,2.4c10.8,0,15-4.8,15.6-8.4
      c0.6-2.4-0.6-4.8-6-8.4l-6-4.2c-9.6-6.6-11.4-12-10.8-19.8c2.4-15.6,20.4-27.7,46.3-27.7c7.8,0,16.8,0.6,25.9,1.8l-10.2,17.4
      c-6.6-0.6-16.2-1.2-23.4-0.6C393.3,279.7,389.1,281.5,389.1,285.1L389.1,285.1z M606.2,321.8c7.2,0,13.8,6.6,13.8,13.8
      s-6,13.8-13.8,13.8c-7.2,0-13.2-6.6-13.2-13.8C593.5,328.4,599,321.8,606.2,321.8z M606.2,347c6,0,10.8-4.8,10.8-11.4
      c0-6.6-5.4-10.8-10.8-10.8c-6,0-10.8,4.8-10.8,11.4C595.4,342.8,600.8,347,606.2,347z M604.4,343.4H602v-15h5.4
      c2.4,0,5.4,2.4,5.4,4.8c0,2.4-1.8,3.6-3,4.2l3,6h-3l-3-5.4h-1.2L604.4,343.4L604.4,343.4z M606.8,335c1.8,0,2.4-1.2,2.4-2.4
      c0-1.8-1.2-2.4-2.4-2.4h-2.4v4.2h2.4V335z"/>
  </g>
</svg>
