<svg>
   <defs>
    <radialGradient id="oneworld_svg__a" cx="23.632%" cy="17.875%" r="162.725%">
      <stop offset="0" stop-color="#fff" stop-opacity=".5"></stop>
      <stop offset=".283" stop-color="#adabd3" stop-opacity=".595"></stop>
      <stop offset=".58" stop-color="#5c58a8" stop-opacity=".695"></stop>
      <stop offset=".791" stop-color="#2a248c" stop-opacity=".766"></stop>
      <stop offset="1" stop-color="#161082" stop-opacity=".8"></stop>
    </radialGradient>
    <radialGradient id="oneworld_svg__b" cx="20.432%" cy="15.711%" gradientTransform="matrix(.61524 .78834 -1.01126 .78922 .237 -.128)" r="77.841%">
      <stop offset="0" stop-color="#fff" stop-opacity=".9"></stop>
      <stop offset=".283" stop-color="#adabd3" stop-opacity=".615"></stop>
      <stop offset=".58" stop-color="#5c58a8" stop-opacity=".316"></stop>
      <stop offset=".791" stop-color="#2a248c" stop-opacity=".104"></stop>
      <stop offset="1" stop-color="#161082" stop-opacity="0"></stop>
    </radialGradient>
  </defs>

   <g fill="none" fill-rule="evenodd" transform="translate(1.5 1.5)">
      <path d="M0 10.483c0 5.78 4.7 10.482 10.483 10.482 5.781 0 10.482-4.7 10.482-10.482C20.965 4.7 16.262 0 10.483 0 4.703 0 0 4.7 0 10.483zm1.07 0c0-5.192 4.222-9.414 9.413-9.414 5.19 0 9.412 4.223 9.412 9.414 0 5.19-4.222 9.412-9.412 9.412-5.191 0-9.414-4.222-9.414-9.412z" fill="#fff" fill-rule="nonzero"></path>
      <circle cx="10.483" cy="10.483" fill="#161082" r="9.902"></circle>
      <circle cx="9.952" cy="9.952" fill="url(#oneworld_svg__a)" opacity=".5" r="9.902" transform="translate(.531 .531)"></circle>
      <circle cx="9.952" cy="9.952" fill="url(#oneworld_svg__b)" r="9.902" transform="translate(.531 .531)"></circle>
      <path d="M7.762 10.571c.044-.266.223-.446.49-.446.268 0 .446.225.446.446zm1.65.402c.044-.758-.357-1.383-1.16-1.383-.67 0-1.204.49-1.204 1.206 0 .757.49 1.203 1.248 1.203.491 0 .982-.224 1.116-.757h-.67c-.088.177-.222.266-.4.266-.313 0-.492-.223-.492-.535zm9.233.803c.58 0 .803-.49.803-.981s-.224-.982-.803-.982c-.535 0-.758.49-.758.982s.223.981.758.981m1.071.178h-.268v-.446c-.134.313-.49.491-.803.491-.67 0-1.025-.58-1.025-1.204 0-.625.312-1.205 1.025-1.205.357 0 .669.18.803.49V8.788h.267v3.167M9.546 9.68h.312l.58 1.964.535-1.964h.312l.536 1.964.58-1.964h.356l-.713 2.275h-.313l-.579-1.917-.536 1.917h-.312zm5.532 1.116c0 .669-.358 1.204-1.072 1.204-.713 0-1.07-.535-1.07-1.204s.357-1.205 1.07-1.205c.67.045 1.07.58 1.07 1.206m-1.873 0c0 .49.268.98.803.98.536 0 .803-.49.803-.981s-.267-.982-.803-.982c-.535.045-.803.535-.803.982m2.275-1.116h.268v.536a.872.872 0 01.847-.58v.267c-.49-.044-.847.358-.847.804v1.204h-.267V9.68m1.427-.848h.312v3.122h-.268V8.832zM2.275 10.795c0-.267.09-.625.446-.625s.446.357.446.625-.09.624-.446.624-.446-.312-.446-.624m-.758 0c0 .669.491 1.204 1.204 1.204.714 0 1.205-.49 1.205-1.204 0-.67-.491-1.205-1.206-1.205-.713.045-1.204.535-1.204 1.206m2.811-1.117h.714v.313c.133-.224.446-.357.713-.357.758 0 .803.535.803.892v1.427H5.8v-1.07c0-.313.043-.624-.358-.624-.267 0-.401.223-.401.49V12h-.715V9.677" fill="#fff" fill-rule="nonzero"></path>
   </g>
</svg>
