<svg>
    <defs>
        <circle id="path-1" cx="10" cy="10" r="10"></circle>
    </defs>
    <g id="Flight-Search-Auro-by-stages" stroke="none" stroke-width="1" fill="none" fill-rule="evenodd">
        <g id="Components-Documentation_3-Copy" transform="translate(-66.000000, -124.000000)">
            <g id="AS" transform="translate(66.000000, 124.000000)">
                <mask id="mask-2" fill="white">
                    <use xlink:href="#path-1"></use>
                </mask>
                <g id="Oval"></g>
                <g id="AS_Eskimo" mask="url(#mask-2)" fill-rule="nonzero">
                    <g transform="translate(1.111111, 1.111111)">
                        <path d="M7.40546448,17.1744991 C7.02659381,17.2240437 6.76429872,17.2808743 6.52094718,17.2531876 C5.46156648,17.1278689 3.43897996,16.6703097 2.67395264,15.431694 C1.90892532,14.1930783 0.568306011,13.143898 0.340983607,11.5730419 C0.119489982,10.0415301 -0.167577413,8.66448087 0.122404372,7.4856102 C0.118662876,7.81306726 0.133257664,8.14047699 0.166120219,8.46630237 C0.21420765,8.92969035 0.409471767,9.3726776 0.569763206,10.6622951 C0.649908925,11.3151184 0.912204007,11.7959927 1.29836066,12.3147541 C1.4571949,12.5318761 1.62622951,12.7300546 1.76320583,12.9530055 C1.78692244,13.065063 1.82057081,13.174786 1.86375228,13.2808743 C2.04881603,13.7180328 2.4276867,14.4276867 2.91001821,14.5923497 C2.99978888,14.6122787 3.08520204,14.6483201 3.16211293,14.698725 C3.23298307,14.7716581 3.29198658,14.8552464 3.33697632,14.9464481 C3.46997488,15.104375 3.62506381,15.2422864 3.79744991,15.3559199 L3.89216758,15.5016393 C4.79708561,16.8102004 6.3431694,17.0637523 7.40546448,17.1744991 Z M17.2400729,5.73260474 C16.9661202,3.53952641 16.1340619,3.5701275 15.603643,2.78032787 C15.073224,1.99052823 12.6032787,0.716939891 11.2874317,0.198178506 C10.3169399,-0.183606557 9.52276867,0.0714025501 8.66448087,0.250637523 C9.98469945,0.396357013 12.1996357,1.0287796 12.7868852,1.51111111 C12.9324369,1.64809284 13.0637665,1.79943923 13.1788707,1.96284153 L13.1919854,1.98032787 C13.7956096,2.17086708 14.3337504,2.52676693 14.7453552,3.00765027 C14.8910747,3.15336976 15.0193078,3.31074681 15.1635701,3.45500911 C15.267031,3.55992714 15.3923497,3.62695811 15.4958106,3.73333333 L16.3322404,4.59016393 C16.3915379,4.63787437 16.4267365,4.70933823 16.4284153,4.78542805 C16.4284153,4.81894353 16.4138434,4.87577413 16.3715847,4.83788707 C16.329326,4.8 16.2550091,4.77814208 16.2258652,4.82477231 C16.1908925,4.89617486 16.2622951,4.99089253 16.3322404,5.08415301 C16.4086202,5.21493772 16.471599,5.35310053 16.5202186,5.49653916 C16.6678585,5.78829468 16.7836446,6.09510355 16.8655738,6.41165756 C16.9563433,6.71750267 17.0663375,7.01731005 17.1948998,7.30928962 C17.4430627,7.92114031 17.5293834,8.58661335 17.4455373,9.24153005 C17.3799636,9.6582878 17.3173042,10.0648452 17.2663024,10.4772313 C17.3304189,10.1857923 17.420765,9.82440801 17.5577413,9.35956284 C17.9497268,8.09763206 17.5125683,7.92714026 17.2400729,5.73260474 Z" id="Tropical_Green" fill="#B3D57D"></path>
                        <path d="M1.56065574,12.0786885 C1.50236794,11.932969 1.4295082,11.7959927 1.35810565,11.6590164 L1.3143898,11.5715847 C1.09286289,11.1538723 0.915111796,10.7143778 0.783970856,10.2601093 C0.642826365,9.77538144 0.623803367,9.2632623 0.72859745,8.76939891 C0.841940259,8.41342442 0.975241809,8.06411598 1.12786885,7.72313297 C1.3435337,7.14025501 1.41930783,6.50346084 1.59854281,5.90601093 C1.68690808,5.65985693 1.80327599,5.42467639 1.94535519,5.20510018 C2.09430294,4.95155617 2.2686025,4.71378617 2.46557377,4.49544627 C2.93849695,3.92577542 3.48371681,3.42023464 4.08743169,2.99162113 C4.22287396,2.87928439 4.37409628,2.78747084 4.53624772,2.71912568 C4.66494872,2.69662385 4.79028938,2.6579445 4.90928962,2.60400729 C5.19052823,2.43060109 5.34644809,2.1129326 5.63788707,1.94826958 C6.02112933,1.73114754 6.43934426,1.33770492 6.88233151,1.26047359 C7.05353214,1.24920522 7.2238667,1.22730506 7.39234973,1.19489982 C7.64007286,1.12058288 7.88051002,1.02003643 8.13114754,0.954462659 C8.24250876,0.909932497 8.35902648,0.879579139 8.47795993,0.864116576 C8.72568306,0.864116576 8.98069217,0.920947177 9.22695811,0.897632058 C9.50091075,0.87140255 9.76320583,0.751912568 10.0386157,0.711111111 C10.0663024,0.711111111 10.101275,0.711111111 10.1173042,0.730054645 C10.1333333,0.748998179 10.1173042,0.789799636 10.0969035,0.816029144 C10.0196721,0.922404372 9.9424408,1.07103825 10.0269581,1.1715847 C10.0825891,1.22575886 10.1596666,1.25198663 10.2367942,1.24298725 C10.5282332,1.24298725 10.8269581,1.13661202 11.1111111,1.22258652 C11.27054,1.25909551 11.4329562,1.28104366 11.596357,1.28816029 L12.1340619,1.35227687 C12.1692588,1.35444893 12.203793,1.36283582 12.2360656,1.37704918 C12.2678047,1.39317737 12.2875924,1.42596856 12.2870674,1.46156648 C12.2797814,1.51693989 12.2083789,1.54462659 12.1952641,1.60728597 C12.1900347,1.65002308 12.2130019,1.69124631 12.2520947,1.70928962 C12.4734,1.79594636 12.7035626,1.85800718 12.9384335,1.89435337 L12.9617486,1.90163934 L13.0083789,1.91183971 L13.1978142,1.97449909 L13.1846995,1.95701275 C13.0695953,1.79361045 12.9382657,1.64226406 12.792714,1.50528233 C12.1486339,0.982149362 9.53734062,0.276867031 8.30601093,0.218579235 C7.07468124,0.160291439 5.78360656,0.748998179 4.31766849,1.31147541 C2.85173042,1.87395264 2.13187614,3.38214936 1.09581056,4.38469945 C0.0597449909,5.38724954 0.058287796,7.42149362 0.166120219,8.46630237 C0.21420765,8.92969035 0.409471767,9.3726776 0.569763206,10.6622951 C0.649908925,11.3151184 0.912204007,11.7959927 1.29836066,12.3147541 C1.4571949,12.5318761 1.62622951,12.7300546 1.76320583,12.9530055 C1.72010462,12.6564439 1.65235327,12.363992 1.56065574,12.0786885 Z" id="Breeze_Blue" fill="#48A9C5"></path>
                        <path d="M17.1948998,7.30928962 C17.0663375,7.01731005 16.9563433,6.71750267 16.8655738,6.41165756 C16.7845098,6.09316487 16.6692054,5.78438364 16.5216758,5.49071038 C16.4730562,5.34727175 16.4100774,5.20910894 16.3336976,5.07832423 C16.2637523,4.98506375 16.1879781,4.89034608 16.2273224,4.81894353 C16.2608379,4.7723133 16.336612,4.79417122 16.3730419,4.83205829 C16.4094718,4.86994536 16.4313297,4.81311475 16.4298725,4.77959927 C16.4281937,4.70350946 16.3929951,4.63204559 16.3336976,4.58433515 L15.4972678,3.72750455 C15.3938069,3.62112933 15.2684882,3.55409836 15.1650273,3.44918033 C15.0193078,3.30346084 14.8852459,3.15774135 14.7468124,3.00182149 C14.2872183,2.47043486 13.677655,2.09047373 12.9981785,1.91183971 L12.9690346,1.90746812 C13.2896175,2.00218579 13.2517304,2.14936248 13.4061931,2.39708561 C13.5723133,2.67249545 13.9497268,2.9143898 14.2003643,3.11111111 C14.364033,3.23207133 14.5188867,3.36452484 14.6637523,3.50746812 C14.8837887,3.7435337 14.9843352,4.03642987 15.1344262,4.30892532 C15.192714,4.41384335 15.2043716,4.54790528 15.2903461,4.63242259 C15.3763206,4.71693989 15.5322404,4.73588342 15.596357,4.84371585 C15.6604736,4.95154827 15.596357,5.10018215 15.596357,5.23278689 C15.6123862,5.49945355 16.7446266,6.25282332 15.9956284,6.50200364 C15.9761258,6.50594114 15.9580209,6.51499358 15.9431694,6.52823315 C15.930548,6.54705897 15.9263249,6.57028602 15.9315118,6.59234973 C15.954827,6.78469945 16.1092896,6.93333333 16.2229508,7.0863388 C16.4493662,7.38039722 16.5819051,7.73586549 16.6032787,8.10637523 C16.6120219,8.21712204 16.5916211,8.86120219 16.4575592,9.04043716 C16.4400729,9.06520947 16.448816,9.08415301 16.4779599,9.09143898 C16.5916211,9.11912568 16.7213115,9.21530055 16.7111111,9.30710383 C16.6819672,9.5723133 16.515847,9.80837887 16.4867031,10.0750455 C16.4400729,10.4801457 16.7198543,10.8837887 16.6324226,11.2830601 C16.5551913,11.6284153 16.2156648,11.8965392 16.2156648,12.2506375 C16.2293194,12.335471 16.2228301,12.4223268 16.1967213,12.5041894 C16.1483069,12.5681852 16.0840091,12.6184179 16.0102004,12.6499089 C15.6182149,12.8874317 15.4273224,13.3551913 15.087796,13.6510018 C14.8852459,13.824408 14.6346084,13.9322404 14.4189435,14.0881603 C14.168306,14.2688525 13.8360656,14.8007286 13.5183971,14.8167577 C13.4097823,14.807419 13.3020907,14.7893892 13.196357,14.7628415 C13.0279667,14.7614561 12.8624995,14.8068587 12.7183971,14.8939891 C12.410929,15.0397086 12.104918,15.1096539 11.7959927,15.2349727 C11.4535519,15.3806922 11.1344262,15.6459016 10.8357013,15.8571949 C10.2149362,16.2943534 9.59271403,16.7533698 8.86557377,17.0025501 C8.75628415,17.0404372 8.5989071,17.0506375 8.56247723,16.9428051 C8.52604736,16.8349727 8.70819672,16.7256831 8.73442623,16.5930783 C8.61930783,16.568306 8.51876138,16.6644809 8.42404372,16.7387978 C8.21563693,16.8638485 7.97634412,16.9279628 7.73333333,16.9238616 C7.27437165,16.9534006 6.8136191,16.9106199 6.36794171,16.7970856 C6.11287941,16.7410217 5.86904864,16.6425042 5.64663024,16.5056466 C5.10892532,16.1355191 4.49253188,15.9795993 4.01165756,15.5205829 C3.9427955,15.4571596 3.87029879,15.3977999 3.79453552,15.3428051 L3.88925319,15.4885246 C4.88888889,16.9457195 6.67395264,17.1045537 7.72167577,17.2051002 C8.18652095,17.248816 8.66010929,17.1453552 9.95846995,17.2429872 C11.2568306,17.3406193 11.3296903,16.8845173 13.3872495,16.1500911 C14.1639344,15.873224 14.8910747,15.491439 15.3340619,14.7744991 C15.5769277,14.3859138 15.8168792,13.9914997 16.0539162,13.5912568 C16.1602914,13.4105647 16.2870674,13.2313297 16.3817851,13.0462659 C16.4765027,12.8612022 16.6324226,12.575592 16.7067395,12.6295082 C16.7417122,12.6528233 16.7256831,12.7504554 16.7635701,12.7752277 C16.8014572,12.8 16.8043716,12.7664845 16.8174863,12.7489982 C17.1234973,12.2739526 17.1540984,11.7916211 17.1919854,11.2276867 C17.2371585,10.5486339 17.3377049,9.90746812 17.4455373,9.23861566 C17.5288747,8.58465458 17.4425624,7.92025072 17.1948998,7.30928962 L17.1948998,7.30928962 Z" id="Atlas_Blue" fill="#2774AE"></path>
                        <path d="M10.3460838,8.94134791 C10.1829168,9.02214136 10.0019283,9.0602442 9.82003643,9.05209472 C9.65477583,9.05485022 9.48956563,9.04412862 9.32604736,9.02003643 C9.27067395,9.02003643 9.24590164,8.95300546 9.24153005,8.87431694 C9.23132969,8.72859745 9.32750455,8.75482696 9.42367942,8.75774135 C9.51985428,8.76065574 9.60728597,8.73879781 9.75009107,8.74462659 C9.92278675,8.76682647 10.097614,8.76682647 10.2703097,8.74462659 C10.3573305,8.73321324 10.4384695,8.69442978 10.5020036,8.63387978 C10.5369763,8.60619308 10.5588342,8.62222222 10.5923497,8.69362477 C10.6258652,8.76502732 10.504918,8.85100182 10.3460838,8.94134791 Z M7.14025501,8.7431694 C7.08051002,8.70528233 7.04262295,8.69508197 7.00182149,8.66593807 C6.96102004,8.63679417 6.94936248,8.64262295 6.9129326,8.66593807 C6.80318871,8.75604046 6.67315116,8.81805837 6.53406193,8.84663024 C6.40043362,8.88751801 6.26255608,8.91294224 6.12313297,8.92240437 C6.07795993,8.92240437 6.03278689,8.90928962 5.99781421,8.97777778 C5.96284153,9.04626594 5.98032787,9.09143898 6.02404372,9.11038251 C6.14441909,9.15548161 6.27352027,9.17242926 6.40145719,9.15992714 C6.5557491,9.14558434 6.70676574,9.10672338 6.84881603,9.04480874 C6.95868983,9.00889847 7.0623903,8.95631102 7.15628415,8.88888889 C7.17917785,8.87014396 7.19103755,8.84109188 7.1878023,8.81168054 C7.18456705,8.78226921 7.16667588,8.75648972 7.14025501,8.7431694 Z M10.6754098,10.8998179 C10.6185792,10.8998179 10.6040073,10.9114754 10.5763206,10.9449909 C10.5486339,10.9785064 10.5530055,10.9959927 10.5763206,11.1009107 C10.618546,11.2642792 10.6415314,11.4320233 10.6448087,11.6007286 C10.6579792,11.8279216 10.6343598,12.0557503 10.5748634,12.2754098 C10.5209472,12.4051002 10.63898,12.4065574 10.6593807,12.4065574 C10.6797814,12.4065574 10.7497268,12.4065574 10.7730419,12.4065574 C10.8196721,12.4065574 10.8357013,12.3657559 10.8531876,12.298725 C10.8806966,12.0861767 10.8914159,11.8717914 10.8852459,11.6575592 C10.8906074,11.4415122 10.8446633,11.2272729 10.751184,11.0324226 C10.7147541,10.9362477 10.7089253,10.8969035 10.6754098,10.8998179 Z M16.635337,11.2903461 C16.5581056,11.6357013 16.2185792,11.9038251 16.2185792,12.2579235 C16.2322337,12.342757 16.2257445,12.4296127 16.1996357,12.5114754 C16.1512213,12.5754711 16.0869234,12.6257038 16.0131148,12.6571949 C15.6211293,12.8947177 15.4302368,13.3624772 15.0907104,13.6582878 C14.8881603,13.831694 14.6375228,13.9395264 14.4218579,14.0954463 C14.1712204,14.2761384 13.83898,14.8080146 13.5213115,14.8240437 C13.4126966,14.814705 13.3050051,14.7966752 13.1992714,14.7701275 C13.0308811,14.7687421 12.8654139,14.8141447 12.7213115,14.901275 C12.4138434,15.0469945 12.1078324,15.1169399 11.7989071,15.2422587 C11.4564663,15.3879781 11.1373406,15.6531876 10.8386157,15.8644809 C10.2178506,16.3016393 9.59562842,16.7606557 8.86848816,17.0098361 C8.75919854,17.0477231 8.60182149,17.0579235 8.56539162,16.9500911 C8.52896175,16.8422587 8.71111111,16.732969 8.73734062,16.6003643 C8.62222222,16.575592 8.52167577,16.6717668 8.42695811,16.7460838 C8.21855132,16.8711345 7.97925851,16.9352488 7.73624772,16.9311475 C7.27728604,16.9606866 6.81653349,16.9179059 6.3708561,16.8043716 C6.1157938,16.7483077 5.87196303,16.6497902 5.64954463,16.5129326 C5.11183971,16.1428051 4.49544627,15.9868852 4.01457195,15.5278689 C3.81930783,15.3428051 3.47832423,15.1504554 3.33697632,14.9449909 C3.29198658,14.8537892 3.23298307,14.7702009 3.16211293,14.6972678 C3.08520204,14.6468629 2.99978888,14.6108215 2.91001821,14.5908925 C2.4276867,14.4306011 2.04881603,13.7165756 1.86375228,13.2794171 C1.70054645,12.8903461 1.71803279,12.4692168 1.56065574,12.0772313 C1.50236794,11.9315118 1.4295082,11.7945355 1.35810565,11.6575592 L1.3143898,11.5701275 C1.09286289,11.1524151 0.915111796,10.7129206 0.783970856,10.2586521 C0.643069646,9.77438265 0.624047785,9.2627947 0.72859745,8.76939891 C0.841940259,8.41342442 0.975241809,8.06411598 1.12786885,7.72313297 C1.3435337,7.14025501 1.41930783,6.50346084 1.59854281,5.90601093 C1.68690808,5.65985693 1.80327599,5.42467639 1.94535519,5.20510018 C2.09430294,4.95155617 2.2686025,4.71378617 2.46557377,4.49544627 C2.93849695,3.92577542 3.48371681,3.42023464 4.08743169,2.99162113 C4.22287396,2.87928439 4.37409628,2.78747084 4.53624772,2.71912568 C4.66494872,2.69662385 4.79028938,2.6579445 4.90928962,2.60400729 C5.19052823,2.43060109 5.34644809,2.1129326 5.63788707,1.94826958 C6.02112933,1.73114754 6.43934426,1.33770492 6.88233151,1.26047359 C7.05353214,1.24920522 7.2238667,1.22730506 7.39234973,1.19489982 C7.64007286,1.12058288 7.88051002,1.02003643 8.13114754,0.954462659 C8.24250876,0.909932497 8.35902648,0.879579139 8.47795993,0.864116576 C8.72568306,0.864116576 8.98069217,0.920947177 9.22695811,0.897632058 C9.50091075,0.87140255 9.76320583,0.751912568 10.0386157,0.711111111 C10.0663024,0.711111111 10.101275,0.711111111 10.1173042,0.730054645 C10.1333333,0.748998179 10.1173042,0.789799636 10.0969035,0.816029144 C10.0196721,0.922404372 9.9424408,1.07103825 10.0269581,1.1715847 C10.0825891,1.22575886 10.1596666,1.25198663 10.2367942,1.24298725 C10.5282332,1.24298725 10.8269581,1.13661202 11.1111111,1.22258652 C11.27054,1.25909551 11.4329562,1.28104366 11.596357,1.28816029 L12.1340619,1.35227687 C12.1692588,1.35444893 12.203793,1.36283582 12.2360656,1.37704918 C12.2678047,1.39317737 12.2875924,1.42596856 12.2870674,1.46156648 C12.2797814,1.51693989 12.2083789,1.54462659 12.1952641,1.60728597 C12.1900347,1.65002308 12.2130019,1.69124631 12.2520947,1.70928962 C12.4734,1.79594636 12.7035626,1.85800718 12.9384335,1.89435337 C13.2852459,1.98761384 13.2400729,2.13770492 13.3930783,2.39125683 C13.5591985,2.66666667 13.936612,2.90856102 14.1872495,3.10528233 C14.3509182,3.22624255 14.505772,3.35869606 14.6506375,3.50163934 C14.870674,3.73770492 14.9712204,4.03060109 15.1213115,4.30309654 C15.1795993,4.40801457 15.1912568,4.5420765 15.2772313,4.62659381 C15.3632058,4.71111111 15.5191257,4.73005464 15.5832423,4.83788707 C15.6473588,4.94571949 15.5832423,5.09435337 15.5832423,5.22695811 C15.5992714,5.49362477 16.7315118,6.24699454 15.9825137,6.49617486 C15.9630111,6.50011236 15.9449062,6.5091648 15.9300546,6.52240437 C15.9174332,6.54123019 15.9132101,6.56445724 15.9183971,6.58652095 C15.9417122,6.77887067 16.0961749,6.92750455 16.2098361,7.08051002 C16.4362515,7.37456844 16.5687904,7.73003671 16.5901639,8.10054645 C16.5989071,8.21129326 16.5785064,8.85537341 16.4444444,9.03460838 C16.4269581,9.05938069 16.4357013,9.07832423 16.4648452,9.0856102 C16.5785064,9.1132969 16.7081967,9.20947177 16.6979964,9.30127505 C16.6688525,9.56648452 16.5027322,9.80255009 16.4735883,10.0692168 C16.4444444,10.4918033 16.7242259,10.8910747 16.635337,11.2903461 Z M3.49726776,5.23278689 C3.53078324,5.07249545 3.6852459,4.97777778 3.67213115,4.81602914 C3.67213115,4.80728597 3.67213115,4.78834244 3.62695811,4.80582878 C3.44480874,4.88888889 3.25974499,5.19344262 3.12568306,5.32604736 C2.90807529,5.54074074 2.69921069,5.76369156 2.49908925,5.99489982 C2.33369734,6.16883107 2.19342169,6.36502078 2.08233151,6.57777778 C1.82963729,7.15930242 1.73271156,7.79660164 1.8010929,8.42695811 C1.83012085,8.76558997 1.88863037,9.10104458 1.97595628,9.4295082 C2.04881603,9.70783242 2.04444444,10.0269581 2.12167577,10.2863388 C2.14630692,10.3651167 2.19789862,10.4327019 2.26739526,10.4772313 C2.29071038,10.4903461 2.34608379,10.4903461 2.34608379,10.3956284 C2.34608379,9.76320583 2.34608379,9.13806922 2.37959927,8.50127505 C2.38834244,8.33369763 2.40291439,8.16466302 2.42331512,7.99708561 C2.4785761,7.54584627 2.59475229,7.10418068 2.76867031,6.68415301 C2.9435337,6.26739526 3.51038251,5.92641166 3.49726776,5.4571949 C3.48780318,5.38269161 3.48780318,5.30729017 3.49726776,5.23278689 L3.49726776,5.23278689 Z M12.0510018,7.9140255 C11.9504554,7.93005464 11.6590164,7.97377049 11.6138434,7.97377049 C11.5686703,7.97377049 11.5045537,7.98251366 11.5060109,8.03497268 C11.5074681,8.08743169 11.6852459,8.14863388 11.9285974,8.1151184 C12.171949,8.08160291 12.284153,8.05391621 12.276867,7.96939891 C12.2695811,7.8848816 12.1515483,7.89653916 12.052459,7.9140255 L12.0510018,7.9140255 Z M11.7333333,8.36429872 C11.7333333,8.3424408 11.670674,8.33369763 11.6255009,8.33515483 C11.4436,8.31777632 11.2708119,8.24734365 11.1285974,8.13260474 C10.9770977,7.98590118 10.8340618,7.83070233 10.7001821,7.66775956 C10.5861855,7.52101269 10.4013979,7.44787922 10.2178506,7.47686703 C9.943898,7.50309654 9.68160291,7.58615665 9.71074681,7.71001821 C9.72531876,7.77413479 9.87686703,7.75519126 10.0327869,7.72604736 C10.1887067,7.69690346 10.4145719,7.65901639 10.4786885,7.76102004 C10.5662682,7.93029542 10.6843352,8.08195474 10.8269581,8.20837887 C11.0163387,8.37505192 11.2595649,8.46768486 11.5118397,8.46921676 C11.7741348,8.46193078 11.7377049,8.38615665 11.7333333,8.36429872 Z M6.10564663,6.42477231 C6.12896175,6.49180328 6.20619308,6.52677596 6.40437158,6.51074681 C6.60255009,6.49471767 7.36174863,6.38542805 7.56138434,6.53843352 C7.67358834,6.62440801 7.69398907,6.64335155 7.70710383,6.8575592 C7.72021858,7.07176685 7.74644809,7.0557377 7.77704918,7.06010929 C7.80765027,7.06448087 7.90091075,7.02076503 7.99854281,6.84444444 C8.09617486,6.66812386 8.50564663,6.49034608 9.0579235,6.44371585 C9.61020036,6.39708561 10.0779599,6.39708561 10.6346084,6.68998179 C11.1912568,6.98287796 11.8003643,7.43460838 12.0830601,7.30200364 C12.2287796,7.23351548 12.3249545,6.99307832 12.1777778,6.40437158 C12.0933444,6.01796294 11.9196824,5.65666597 11.670674,5.34936248 C11.5744991,5.24590164 11.4375228,5.12786885 11.3442623,5.18324226 C11.2510018,5.23861566 11.3675774,5.55774135 11.4637523,5.70054645 C11.5599271,5.84335155 11.5657559,5.93078324 11.3938069,5.87103825 C11.1986617,5.8039751 11.0216312,5.69276999 10.8765027,5.54608379 C10.7016393,5.37413479 10.4393443,4.87431694 10.2834244,4.95591985 C10.1275046,5.03752277 10.3271403,5.3726776 10.2455373,5.40910747 C10.1639344,5.44553734 10.0051002,5.26338798 9.86375228,5.06229508 C9.72240437,4.86120219 9.61748634,4.62513661 9.42659381,4.56393443 C9.23570128,4.50273224 8.74608379,4.44590164 8.02331512,4.76648452 C7.43437593,5.03607538 6.89766157,5.40753303 6.43788707,5.86375228 C6.09398907,6.20619308 6.08233151,6.35774135 6.10564663,6.42477231 Z M5.8287796,7.9417122 C5.84918033,7.99562842 5.90163934,8.07723133 6.06484517,8.02331512 C6.228051,7.96939891 6.53114754,7.87759563 6.69143898,7.83679417 C6.84280446,7.80555404 6.99774427,7.7952574 7.15191257,7.80619308 C7.23788707,7.81639344 7.23934426,7.73333333 7.19271403,7.7143898 C7.14608379,7.69544627 6.82404372,7.61238616 6.67978142,7.56867031 C6.59563115,7.53479404 6.50163661,7.53479404 6.41748634,7.56867031 C6.35919854,7.58615665 6.0867031,7.67067395 5.95409836,7.7143898 C5.82149362,7.75810565 5.77923497,7.81930783 5.8287796,7.9417122 Z M4.67176685,3.77413479 C4.66302368,3.77413479 4.62367942,3.79307832 4.60182149,3.80619308 C4.52896175,3.84845173 4.456102,3.88051002 4.37741348,3.91693989 C4.21857923,3.99125683 4.0859745,4.06265938 4.0582878,4.25355191 C4.05186469,4.27790787 4.05186469,4.30351289 4.0582878,4.32786885 C4.06047495,4.33566168 4.06392044,4.34304488 4.06848816,4.34972678 C4.10928962,4.40364299 4.27395264,4.3147541 4.32058288,4.2870674 C4.37754209,4.24637908 4.42237029,4.19097345 4.45027322,4.12677596 C4.47941712,4.07723133 4.5129326,4.0276867 4.54499089,3.98105647 C4.57704918,3.93442623 4.61785064,3.87759563 4.65282332,3.82513661 C4.66302368,3.81056466 4.68196721,3.78870674 4.67176685,3.77413479 Z M12.515847,8.86120219 C12.3949826,8.78224607 12.2634852,8.7209133 12.1253188,8.67905282 C12.0536497,8.66466169 11.9811239,8.65492669 11.9081967,8.64990893 C11.8513661,8.64116576 11.8367942,8.64116576 11.8295082,8.64990893 C11.8222222,8.65865209 11.8397086,8.68196721 11.8979964,8.71693989 C11.9791136,8.76214578 12.056149,8.81431531 12.1282332,8.87285974 C12.1952641,8.93406193 12.2564663,8.9996357 12.217122,9.06375228 C12.1777778,9.12786885 12.0510018,9.10746812 11.9577413,9.06375228 C11.8644809,9.02003643 11.7318761,8.90346084 11.6823315,8.88888889 C11.6327869,8.87431694 11.5934426,8.86411658 11.6065574,8.91657559 C11.6196721,8.96903461 11.6429872,9.0287796 11.6065574,9.06229508 C11.5170387,9.10004351 11.4134766,9.07793474 11.3471767,9.00692168 C11.2422587,8.91657559 11.2116576,8.86120219 11.0775956,8.74462659 C10.997093,8.68495831 10.912893,8.6304473 10.8255009,8.58142077 C10.7564678,8.52016687 10.6776599,8.47091189 10.5923497,8.43570128 C10.3347928,8.37352444 10.066801,8.36805522 9.80692168,8.41967213 C9.4003643,8.4867031 9.30710383,8.56539162 9.18178506,8.55081967 C9.10746812,8.5420765 9.09143898,8.51876138 9.06812386,8.44298725 C9.04480874,8.36721311 9.0287796,8.35846995 8.99089253,8.33952641 C8.95300546,8.32058288 8.90783242,8.32932605 8.83497268,8.29726776 C8.66716675,8.23609956 8.52493501,8.1200549 8.43132969,7.96794171 C8.30018215,7.77704918 8.25500911,7.66193078 8.19089253,7.5715847 C8.12677596,7.48123862 8.0845173,7.4579235 8.00874317,7.46229508 C7.90091075,7.46229508 7.83825137,7.61675774 7.79599271,7.84408015 C7.75373406,8.07140255 7.73770492,8.28123862 7.62695811,8.34535519 C7.53878519,8.39100463 7.43518518,8.39631746 7.3428051,8.35992714 C7.26917185,8.32863965 7.18962,8.31372368 7.10965392,8.31621129 C6.98330288,8.31627238 6.85972214,8.35324531 6.75409836,8.42258652 C6.63156433,8.50541137 6.49468629,8.56470871 6.35045537,8.59744991 C6.26334885,8.61690961 6.17532074,8.63198625 6.0867031,8.64262295 C6.04007286,8.64262295 6.01530055,8.64262295 5.98761384,8.74462659 C5.95992714,8.84663024 5.89581056,8.96903461 5.83169399,8.97923497 C5.77881868,8.98399082 5.72626581,8.9671739 5.6859745,8.93260474 C5.61328947,8.87601097 5.53685468,8.82440532 5.4571949,8.77814208 C5.34748722,8.72344543 5.2152796,8.74324745 5.12641166,8.8276867 C4.91441934,9.08260469 4.78214697,9.39428097 4.74608379,9.72386157 C4.67759563,10.1843352 4.63096539,10.6229508 4.74608379,10.6637523 C4.86120219,10.7045537 5.05500911,10.1464481 5.24735883,10.2265938 C5.41347905,10.295082 5.33624772,11.6546448 5.32459016,11.9489982 C5.3129326,12.2433515 5.25318761,12.6775956 5.3712204,12.9836066 C5.48925319,13.2896175 5.59417122,13.4309654 6.06193078,13.8127505 C6.28868007,13.9871439 6.50518965,14.1744612 6.71038251,14.3737705 C6.84520401,14.4934744 6.99165123,14.5994045 7.14754098,14.6899818 C7.19837128,14.7197516 7.25958852,14.7260969 7.31544402,14.7073853 C7.37129952,14.6886737 7.41634057,14.6467319 7.43897996,14.5923497 C7.48513834,14.4066359 7.58680114,14.2394006 7.73041894,14.1129326 C7.93005464,13.9584699 7.97668488,13.8214936 7.92714026,13.7326047 C7.87759563,13.6437158 7.79016393,13.6378871 7.656102,13.6612022 C7.41901094,13.7267083 7.1708715,13.742093 6.92750455,13.7063752 C6.56903461,13.6495446 6.0284153,13.5081967 5.98178506,13.2531876 C5.94972678,13.0754098 6.08961749,12.8990893 6.12750455,12.754827 C6.16539162,12.6105647 6.24553734,12.336612 6.09398907,12.2127505 C5.99635701,12.1326047 5.9132969,12.2477231 5.86083789,12.3191257 C5.80837887,12.3905282 5.67431694,12.4648452 5.67723133,12.2754098 C5.67698318,12.0928655 5.68671233,11.9104441 5.70637523,11.7289617 C5.71249226,11.5742776 5.70174277,11.4193873 5.67431694,11.267031 C5.65198407,11.1440506 5.6969821,11.0185006 5.79234973,10.9377049 C5.89872495,10.8663024 6.11876138,10.7599271 6.20473588,10.7103825 C6.30522251,10.6709898 6.37430061,10.5775645 6.38251366,10.4699454 C6.40868011,10.2904575 6.46587803,10.1168914 6.55154827,9.95701275 C6.60325809,9.87098862 6.64019872,9.77691317 6.66083789,9.67868852 C6.66958106,9.61311475 6.71038251,9.55774135 6.81675774,9.53296903 C6.92313297,9.50819672 6.96247723,9.51839709 6.93770492,9.60874317 C6.89383295,9.70052996 6.86575258,9.79905757 6.85464481,9.90018215 C6.86107763,9.9807625 6.91322589,10.0504824 6.98870674,10.0794171 C7.09941865,10.1513614 7.23952238,10.1607385 7.35883424,10.1041894 C7.57035043,10.0163507 7.79480433,9.96368276 8.02331512,9.94826958 C8.19757748,9.98195524 8.36695113,10.0372709 8.52750455,10.1129326 L8.85974499,10.2003643 C8.91986385,10.223436 8.98712226,10.2186318 9.04335155,10.1872495 C9.08669148,10.1523562 9.10258401,10.093495 9.08269581,10.0415301 C9.06229508,9.96284153 8.9704918,9.78797814 9.05500911,9.75009107 C9.13952641,9.71220401 9.22695811,9.8287796 9.29398907,9.98469945 C9.36147653,10.1647102 9.45209745,10.3351755 9.56357013,10.4918033 C9.67480666,10.587994 9.80787489,10.6555286 9.95118397,10.6885246 C10.1071038,10.7453552 10.2120219,10.7307832 10.2775956,11.0032787 C10.3251351,11.1627911 10.3511095,11.3279491 10.354827,11.4943534 C10.354827,11.7639344 10.3081967,11.8091075 10.3067395,11.9985428 C10.3067395,12.2229508 10.3315118,12.2899818 10.2469945,12.3919854 C10.2178506,12.4255009 10.1872495,12.4517304 10.1537341,12.4225865 C10.1202186,12.3934426 10.1537341,12.3642987 10.1537341,12.3249545 C10.169061,12.2391735 10.169061,12.1513547 10.1537341,12.0655738 C10.1537341,11.9854281 10.1537341,11.9810565 10.1464481,11.9606557 C10.1464481,11.9140255 10.1202186,11.8936248 10.0808743,11.8979964 C9.99635701,11.9067395 9.94535519,11.9723133 9.82149362,11.9810565 C9.69763206,11.9897996 9.41056466,11.9956284 9.23861566,12.0087432 C9.06666667,12.0218579 8.69216758,12.0480874 8.40655738,12.0553734 C8.14556926,12.0674958 7.88404564,12.0606777 7.62404372,12.0349727 C7.33260474,12.0043716 7.28014572,11.9868852 7.22622951,11.9883424 C7.1723133,11.9897996 6.9129326,12.0174863 6.86484517,12.1952641 C6.84007286,12.2899818 6.85027322,12.3249545 6.91584699,12.3409836 C6.98142077,12.3570128 7.26557377,12.3744991 7.3996357,12.3919854 C7.53369763,12.4094718 7.83679417,12.4546448 7.98251366,12.456102 C8.12823315,12.4575592 8.32641166,12.4444444 8.43424408,12.4429872 C8.5420765,12.4415301 8.8,12.4604736 8.80582878,12.8204007 C8.80582878,12.9428051 8.80582878,13.0506375 8.89763206,13.1118397 C9.12165401,13.2405149 9.35384236,13.3544187 9.59271403,13.4528233 C9.81043931,13.5668515 10.0624658,13.5969287 10.3009107,13.5373406 C10.4466302,13.4761384 10.5034608,13.3814208 10.4466302,13.2459016 C10.3897996,13.1103825 10.3912568,13.0040073 10.4466302,12.9544627 C10.5020036,12.904918 10.5704918,12.8553734 10.8531876,12.8714026 C11.0091075,12.8801457 11.2116576,12.9530055 11.3063752,12.8174863 C11.3952246,12.6624699 11.5240541,12.5341436 11.6794171,12.4459016 C11.9111111,12.2870674 12.0276867,12.1777778 12.0204007,11.7843352 C11.9903658,11.2746419 11.9937732,10.763528 12.0306011,10.2542805 C12.0845173,9.83752277 12.3482696,9.63205829 12.4939891,9.34499089 C12.6469945,9.08998179 12.7038251,8.96320583 12.515847,8.86120219 Z M7.58907104,11.6386157 C8.18889527,11.7276584 8.79401967,11.776341 9.4003643,11.7843352 C9.57585976,11.7712994 9.74784621,11.728426 9.90892532,11.6575592 C10.0386157,11.6021858 10.0823315,11.5715847 10.1041894,11.5205829 C10.1154809,11.4151566 10.1050667,11.3085348 10.0735883,11.207286 C10.0342637,11.1247485 9.97818622,11.0513019 9.90892532,10.9916211 C9.84976934,10.9393043 9.78748025,10.890641 9.72240437,10.8459016 C9.65537341,10.8007286 9.57668488,10.7905282 9.13224044,10.8284153 C8.84379656,10.8426883 8.56058304,10.9108968 8.29726776,11.0295082 C8.14937669,11.0996317 8.01707142,11.1987368 7.90819672,11.3209472 C7.79307832,11.4098361 7.63424408,11.4666667 7.56284153,11.5526412 C7.49143898,11.6386157 7.55264117,11.6327869 7.58907104,11.6386157 Z M6.58652095,10.9522769 C6.5428051,10.8765027 6.47431694,10.9377049 6.4291439,10.9639344 C6.38397086,10.9901639 6.24116576,11.0936248 6.13770492,11.1708561 C6.0571597,11.2365883 5.9999315,11.3265184 5.97449909,11.4273224 C5.94681239,11.5118397 5.94681239,11.6313297 6.01092896,11.6648452 C6.06132963,11.683101 6.11693316,11.6804782 6.16539162,11.6575592 C6.21308191,11.6405179 6.25819419,11.6169811 6.29945355,11.5876138 C6.35718348,11.5475908 6.41219216,11.5037785 6.46411658,11.4564663 C6.52762662,11.3930599 6.57725115,11.3171344 6.60983607,11.2335155 C6.6582038,11.1433739 6.64907212,11.0332231 6.58652095,10.9522769 Z M14.729326,6.09544627 C14.789071,6.20910747 14.8429872,6.32422587 14.8939891,6.44225865 C15.1545905,7.05444959 15.2817611,7.71514077 15.267031,8.38032787 C15.267031,8.49981785 15.2786885,8.65136612 15.3923497,8.68925319 C15.5060109,8.72714026 15.5060109,7.40546448 15.484153,7.29180328 C15.4477231,7.10382514 15.4156648,6.92604736 15.3908925,6.73806922 C15.3632058,6.52531876 15.2364299,6.3708561 15.154827,6.17704918 C15.0862682,5.99817028 14.9977938,5.82757616 14.8910747,5.66848816 C14.7976349,5.56517937 14.737243,5.43627563 14.7176685,5.29836066 C14.7176685,5.24444444 14.7322404,5.19344262 14.7322404,5.13952641 C14.7322404,4.83351548 14.295082,4.71693989 14.2003643,4.43715847 C14.1724038,4.28757629 14.1122393,4.14586659 14.0240437,4.02185792 C13.845502,3.82053971 13.6451199,3.63970703 13.4265938,3.48269581 C13.2065574,3.31948998 12.8437158,3.29763206 12.5770492,3.25100182 C12.4944434,3.22400572 12.403983,3.23692864 12.3322404,3.2859745 C12.4381773,3.40704706 12.5669159,3.50607676 12.7111111,3.57741348 C12.9991822,3.7590283 13.2544025,3.98813532 13.4659381,4.25500911 C13.6801457,4.52459016 13.8185792,4.84663024 14.048816,5.10601093 C14.3144589,5.40737961 14.5429327,5.73957172 14.729326,6.09544627 L14.729326,6.09544627 Z M15.4812386,11.1737705 C15.4302368,11.2014572 15.3996357,11.2859745 15.3661202,11.3311475 C15.3107468,11.4069217 15.2553734,11.476867 15.2058288,11.5584699 C15.1562842,11.6400729 15.0775956,11.7041894 15.0265938,11.7901639 C15.0122422,11.81301 14.9995794,11.8368744 14.9887067,11.8615665 C14.9574039,11.9283771 14.9443327,12.0022796 14.9508197,12.0757741 C14.9508197,12.1340619 14.9770492,12.1894353 14.9843352,12.2477231 C14.9850778,12.3645284 14.9516476,12.4790014 14.8881603,12.5770492 C14.8044189,12.7632319 14.7070063,12.9429582 14.5967213,13.1147541 C14.6229508,13.129326 14.6520947,13.1045537 14.6710383,13.0812386 C14.8536471,12.875056 15.0248788,12.6590706 15.1839709,12.4342441 C15.2724692,12.2975419 15.3443778,12.1507897 15.3981785,11.9970856 C15.4885246,11.7581056 15.4273224,11.4885246 15.5220401,11.2684882 C15.551184,11.2087432 15.5570128,11.1315118 15.4812386,11.1737705 L15.4812386,11.1737705 Z" id="Midnight_Blue" fill="#01426A"></path>
                        <path d="M2.43351548,8.00437158 C2.41311475,8.171949 2.39854281,8.34098361 2.38979964,8.50856102 C2.36065574,9.1424408 2.35336976,9.76757741 2.35628415,10.4029144 C2.35628415,10.4976321 2.30091075,10.4976321 2.27759563,10.4845173 C2.20809898,10.4399878 2.15650728,10.3724027 2.13187614,10.2936248 C2.04735883,10.0342441 2.05173042,9.71074681 1.98615665,9.43679417 C1.89883074,9.10833056 1.84032121,8.77287594 1.81129326,8.43424408 C1.73964995,7.80368929 1.83356786,7.16534884 2.08378871,6.58214936 C2.19487889,6.36939237 2.33515453,6.17320265 2.50054645,5.9992714 C2.70163934,5.76903461 2.91001821,5.54462659 3.12714026,5.33041894 C3.26120219,5.19781421 3.44626594,4.89326047 3.6284153,4.81020036 C3.66775956,4.79271403 3.67213115,4.81020036 3.67358834,4.82040073 C3.6867031,4.98214936 3.52786885,5.07686703 3.49872495,5.23715847 C3.48926037,5.31166176 3.48926037,5.38706319 3.49872495,5.46156648 C3.51183971,5.93078324 2.94499089,6.27176685 2.7701275,6.68852459 C2.59895162,7.1099054 2.48571565,7.55255513 2.43351548,8.00437158 L2.43351548,8.00437158 Z M4.08014572,4.34972678 C4.12094718,4.40364299 4.2856102,4.3147541 4.33224044,4.2870674 C4.38919965,4.24637908 4.43402785,4.19097345 4.46193078,4.12677596 C4.49107468,4.07723133 4.52459016,4.0276867 4.55664845,3.98105647 C4.58870674,3.93442623 4.6295082,3.87759563 4.66448087,3.82513661 C4.67468124,3.81056466 4.68925319,3.78287796 4.67905282,3.77413479 C4.66885246,3.76539162 4.63096539,3.79307832 4.60910747,3.80619308 C4.53624772,3.84845173 4.46338798,3.88051002 4.38469945,3.91693989 C4.22586521,3.99125683 4.09326047,4.06265938 4.06557377,4.25355191 C4.05915066,4.27790787 4.05915066,4.30351289 4.06557377,4.32786885 C4.06909459,4.33596233 4.07402898,4.34336391 4.08014572,4.34972678 Z M15.2743169,8.38032787 C15.2743169,8.49981785 15.2859745,8.65136612 15.3996357,8.68925319 C15.5132969,8.72714026 15.5132969,7.40546448 15.491439,7.29180328 C15.4550091,7.10382514 15.4229508,6.92604736 15.3981785,6.73806922 C15.3704918,6.52531876 15.2437158,6.3708561 15.1621129,6.17704918 C15.0935541,5.99817028 15.0050798,5.82757616 14.8983607,5.66848816 C14.8022712,5.56609618 14.7392982,5.4371031 14.7176685,5.29836066 C14.7176685,5.24444444 14.7322404,5.19344262 14.7322404,5.13952641 C14.7322404,4.83351548 14.295082,4.71693989 14.2003643,4.43715847 C14.1724038,4.28757629 14.1122393,4.14586659 14.0240437,4.02185792 C13.845502,3.82053971 13.6451199,3.63970703 13.4265938,3.48269581 C13.2065574,3.31948998 12.8437158,3.29763206 12.5770492,3.25100182 C12.4944434,3.22400572 12.403983,3.23692864 12.3322404,3.2859745 C12.4381773,3.40704706 12.5669159,3.50607676 12.7111111,3.57741348 C12.9991822,3.7590283 13.2544025,3.98813532 13.4659381,4.25500911 C13.6801457,4.52459016 13.8185792,4.84663024 14.048816,5.10601093 C14.3171356,5.40508858 14.5485453,5.73532452 14.7380692,6.08961749 C14.7978142,6.20327869 14.8517304,6.31839709 14.9027322,6.43642987 C15.1611536,7.05107654 15.2853554,7.71381729 15.267031,8.38032787 L15.2743169,8.38032787 Z M14.9887067,11.8615665 C14.9574039,11.9283771 14.9443327,12.0022796 14.9508197,12.0757741 C14.9508197,12.1340619 14.9770492,12.1894353 14.9843352,12.2477231 C14.9850778,12.3645284 14.9516476,12.4790014 14.8881603,12.5770492 C14.8044189,12.7632319 14.7070063,12.9429582 14.5967213,13.1147541 C14.6229508,13.129326 14.6520947,13.1045537 14.6710383,13.0812386 C14.8536471,12.875056 15.0248788,12.6590706 15.1839709,12.4342441 C15.2724692,12.2975419 15.3443778,12.1507897 15.3981785,11.9970856 C15.4885246,11.7581056 15.4273224,11.4885246 15.5220401,11.2684882 C15.5453552,11.2131148 15.551184,11.1358834 15.4754098,11.1781421 C15.424408,11.2058288 15.3938069,11.2903461 15.3602914,11.3355191 C15.304918,11.4112933 15.2495446,11.4812386 15.2,11.5628415 C15.1504554,11.6444444 15.0717668,11.708561 15.020765,11.7945355 C15.0085902,11.8161362 14.99788,11.8385303 14.9887067,11.8615665 L14.9887067,11.8615665 Z" id="Calm_Blue" fill="#8BA6C1"></path>
                        <path d="M10.6375228,6.68998179 C10.0765027,6.39854281 9.61748634,6.39854281 9.06083789,6.44371585 C8.50418944,6.48888889 8.09908925,6.66666667 8.00145719,6.84444444 C7.90382514,7.02222222 7.81056466,7.06448087 7.77996357,7.06010929 C7.74936248,7.0557377 7.72604736,7.07176685 7.71001821,6.8575592 C7.69398907,6.64335155 7.67358834,6.62440801 7.56429872,6.53843352 C7.36466302,6.39271403 6.6273224,6.49180328 6.40728597,6.51074681 C6.18724954,6.52969035 6.13187614,6.49180328 6.10856102,6.42477231 C6.0852459,6.35774135 6.09690346,6.20619308 6.44225865,5.86375228 C6.90203315,5.40753303 7.43874752,5.03607538 8.0276867,4.76648452 C8.75628415,4.44590164 9.24007286,4.50127505 9.43096539,4.56393443 C9.62185792,4.62659381 9.72240437,4.85537341 9.86812386,5.06229508 C10.0138434,5.26921676 10.168306,5.44699454 10.2499089,5.40910747 C10.3315118,5.3712204 10.1362477,5.03606557 10.287796,4.95591985 C10.4393443,4.87577413 10.7060109,5.37413479 10.8808743,5.54608379 C11.0260028,5.69276999 11.2030333,5.8039751 11.3981785,5.87103825 C11.5701275,5.93078324 11.5628415,5.84189435 11.4681239,5.70054645 C11.3734062,5.55919854 11.2553734,5.23861566 11.3486339,5.18324226 C11.4418944,5.12786885 11.5788707,5.24590164 11.6750455,5.34936248 C11.9245515,5.65891844 12.0977629,6.02281202 12.1806922,6.41165756 C12.3264117,6.99453552 12.2360656,7.24080146 12.0859745,7.30928962 C11.8032787,7.43169399 11.1839709,6.97559199 10.6375228,6.68998179 Z M6.06047359,8.02331512 C6.22367942,7.96794171 6.52677596,7.87759563 6.6870674,7.83679417 C6.83843287,7.80555404 6.99337268,7.7952574 7.14754098,7.80619308 C7.23351548,7.81639344 7.23497268,7.73333333 7.18834244,7.7143898 C7.1417122,7.69544627 6.81967213,7.61238616 6.67540984,7.56867031 C6.59125957,7.53479404 6.49726502,7.53479404 6.41311475,7.56867031 C6.35482696,7.58615665 6.08233151,7.67067395 5.94972678,7.7143898 C5.81712204,7.75810565 5.77923497,7.828051 5.82440801,7.95045537 C5.84480874,7.99562842 5.89726776,8.07723133 6.06047359,8.02331512 Z M9.70346084,7.71001821 C9.71803279,7.77413479 9.86958106,7.75519126 10.0255009,7.72604736 C10.1814208,7.69690346 10.407286,7.65901639 10.4714026,7.76102004 C10.5589822,7.93029542 10.6770492,8.08195474 10.8196721,8.20837887 C11.0109389,8.37670263 11.2570539,8.46944913 11.5118397,8.46921719 C11.775592,8.46921719 11.7391621,8.38615665 11.7347905,8.36429872 C11.7304189,8.3424408 11.6721311,8.33369763 11.6269581,8.33515483 C11.4450572,8.31777632 11.2722691,8.24734365 11.1300546,8.13260474 C10.9785549,7.98590118 10.835519,7.83070233 10.7016393,7.66775956 C10.5876427,7.52101269 10.4028551,7.44787922 10.2193078,7.47686703 C9.943898,7.50309654 9.68160291,7.58615665 9.71074681,7.71001821 L9.70346084,7.71001821 Z M11.5118397,8.03497268 C11.5118397,8.09763206 11.6910747,8.14863388 11.9344262,8.1151184 C12.1777778,8.08160291 12.2899818,8.05391621 12.2826958,7.96939891 C12.2754098,7.8848816 12.1500911,7.89508197 12.0510018,7.91256831 C11.9519126,7.93005464 11.6590164,7.9723133 11.6138434,7.9723133 C11.5686703,7.9723133 11.5118397,7.98251366 11.5118397,8.03497268 Z M6.16539162,11.6575592 C6.21308191,11.6405179 6.25819419,11.6169811 6.29945355,11.5876138 C6.35718348,11.5475908 6.41219216,11.5037785 6.46411658,11.4564663 C6.52762662,11.3930599 6.57725115,11.3171344 6.60983607,11.2335155 C6.65590207,11.1442185 6.6462506,11.0363491 6.58506375,10.9566485 C6.54134791,10.8808743 6.47285974,10.9420765 6.4276867,10.968306 C6.38251366,10.9945355 6.23970856,11.0979964 6.13624772,11.1752277 C6.05702124,11.2400329 6.00038997,11.3282961 5.97449909,11.4273224 C5.94681239,11.5118397 5.94681239,11.6313297 6.01092896,11.6648452 C6.06132963,11.683101 6.11693316,11.6804782 6.16539162,11.6575592 Z M9.4003643,11.7901639 C9.57620531,11.7752819 9.74820553,11.7304337 9.90892532,11.6575592 C10.0386157,11.6021858 10.0823315,11.5715847 10.1041894,11.5205829 C10.1154809,11.4151566 10.1050667,11.3085348 10.0735883,11.207286 C10.0342637,11.1247485 9.97818622,11.0513019 9.90892532,10.9916211 C9.84976934,10.9393043 9.78748025,10.890641 9.72240437,10.8459016 C9.65537341,10.8007286 9.57668488,10.7905282 9.13224044,10.8284153 C8.84379656,10.8426883 8.56058304,10.9108968 8.29726776,11.0295082 C8.14937669,11.0996317 8.01707142,11.1987368 7.90819672,11.3209472 C7.79307832,11.4098361 7.63424408,11.4666667 7.56284153,11.5526412 C7.49143898,11.6386157 7.56284153,11.6415301 7.59635701,11.6473588 C8.19393755,11.7336387 8.79661615,11.7798862 9.4003643,11.7857923 L9.4003643,11.7901639 Z M8.01457195,7.4564663 C7.90673953,7.4564663 7.84408015,7.61092896 7.80182149,7.83825137 C7.75956284,8.06557377 7.7435337,8.27540984 7.63278689,8.33952641 C7.54461397,8.38517585 7.44101396,8.39048868 7.34863388,8.35409836 C7.27500063,8.32281087 7.19544878,8.3078949 7.1154827,8.31038251 C6.98913166,8.3104436 6.86555092,8.34741653 6.75992714,8.41675774 C6.6360701,8.50230283 6.49713076,8.56361414 6.35045537,8.59744991 C6.26334885,8.61690961 6.17532074,8.63198625 6.0867031,8.64262295 C6.04007286,8.64262295 6.01530055,8.64262295 5.98761384,8.74462659 C5.95992714,8.84663024 5.89581056,8.96903461 5.83169399,8.97923497 C5.77881868,8.98399082 5.72626581,8.9671739 5.6859745,8.93260474 C5.61328947,8.87601097 5.53685468,8.82440532 5.4571949,8.77814208 C5.34748722,8.72344543 5.2152796,8.74324745 5.12641166,8.8276867 C4.91441934,9.08260469 4.78214697,9.39428097 4.74608379,9.72386157 C4.67759563,10.1843352 4.63096539,10.6229508 4.74608379,10.6637523 C4.86120219,10.7045537 5.05500911,10.1464481 5.24735883,10.2265938 C5.41347905,10.295082 5.33624772,11.6546448 5.32459016,11.9489982 C5.3129326,12.2433515 5.25318761,12.6775956 5.3712204,12.9836066 C5.48925319,13.2896175 5.59417122,13.4309654 6.06193078,13.8127505 C6.28868007,13.9871439 6.50518965,14.1744612 6.71038251,14.3737705 C6.84520401,14.4934744 6.99165123,14.5994045 7.14754098,14.6899818 C7.19837128,14.7197516 7.25958852,14.7260969 7.31544402,14.7073853 C7.37129952,14.6886737 7.41634057,14.6467319 7.43897996,14.5923497 C7.48513834,14.4066359 7.58680114,14.2394006 7.73041894,14.1129326 C7.93005464,13.9584699 7.97668488,13.8214936 7.92714026,13.7326047 C7.87759563,13.6437158 7.79016393,13.6378871 7.656102,13.6612022 C7.41901094,13.7267083 7.1708715,13.742093 6.92750455,13.7063752 C6.56903461,13.6495446 6.0284153,13.5081967 5.98178506,13.2531876 C5.94972678,13.0754098 6.08961749,12.8990893 6.12750455,12.754827 C6.16539162,12.6105647 6.24553734,12.336612 6.09398907,12.2127505 C5.99635701,12.1326047 5.9132969,12.2477231 5.86083789,12.3191257 C5.80837887,12.3905282 5.67431694,12.4648452 5.67723133,12.2754098 C5.67698318,12.0928655 5.68671233,11.9104441 5.70637523,11.7289617 C5.71249226,11.5742776 5.70174277,11.4193873 5.67431694,11.267031 C5.65198407,11.1440506 5.6969821,11.0185006 5.79234973,10.9377049 C5.89872495,10.8663024 6.11876138,10.7599271 6.20473588,10.7103825 C6.30522251,10.6709898 6.37430061,10.5775645 6.38251366,10.4699454 C6.40868011,10.2904575 6.46587803,10.1168914 6.55154827,9.95701275 C6.60325809,9.87098862 6.64019872,9.77691317 6.66083789,9.67868852 C6.66958106,9.61311475 6.71038251,9.55774135 6.81675774,9.53296903 C6.92313297,9.50819672 6.96247723,9.51839709 6.93770492,9.60874317 C6.89383295,9.70052996 6.86575258,9.79905757 6.85464481,9.90018215 C6.86107763,9.9807625 6.91322589,10.0504824 6.98870674,10.0794171 C7.09941865,10.1513614 7.23952238,10.1607385 7.35883424,10.1041894 C7.57035043,10.0163507 7.79480433,9.96368276 8.02331512,9.94826958 C8.19757748,9.98195524 8.36695113,10.0372709 8.52750455,10.1129326 L8.85974499,10.2003643 C8.91986385,10.223436 8.98712226,10.2186318 9.04335155,10.1872495 C9.08669148,10.1523562 9.10258401,10.093495 9.08269581,10.0415301 C9.06229508,9.96284153 8.9704918,9.78797814 9.05500911,9.75009107 C9.13952641,9.71220401 9.22695811,9.8287796 9.29398907,9.98469945 C9.36147653,10.1647102 9.45209745,10.3351755 9.56357013,10.4918033 C9.67480666,10.587994 9.80787489,10.6555286 9.95118397,10.6885246 C10.1071038,10.7453552 10.2120219,10.7307832 10.2775956,11.0032787 C10.3251351,11.1627911 10.3511095,11.3279491 10.354827,11.4943534 C10.354827,11.7639344 10.3081967,11.8091075 10.3067395,11.9985428 C10.3067395,12.2229508 10.3315118,12.2899818 10.2469945,12.3919854 C10.2178506,12.4255009 10.1872495,12.4517304 10.1537341,12.4225865 C10.1202186,12.3934426 10.1537341,12.3642987 10.1537341,12.3249545 C10.169061,12.2391735 10.169061,12.1513547 10.1537341,12.0655738 C10.1537341,11.9854281 10.1537341,11.9810565 10.1464481,11.9606557 C10.1464481,11.9140255 10.1202186,11.8936248 10.0808743,11.8979964 C9.99635701,11.9067395 9.94535519,11.9723133 9.82149362,11.9810565 C9.69763206,11.9897996 9.41056466,11.9956284 9.23861566,12.0087432 C9.06666667,12.0218579 8.69216758,12.0480874 8.40655738,12.0553734 C8.14556926,12.0674958 7.88404564,12.0606777 7.62404372,12.0349727 C7.33260474,12.0043716 7.28014572,11.9868852 7.22622951,11.9883424 C7.1723133,11.9897996 6.9129326,12.0174863 6.86484517,12.1952641 C6.84007286,12.2899818 6.85027322,12.3249545 6.91584699,12.3409836 C6.98142077,12.3570128 7.26557377,12.3744991 7.3996357,12.3919854 C7.53369763,12.4094718 7.83679417,12.4546448 7.98251366,12.456102 C8.12823315,12.4575592 8.32641166,12.4444444 8.43424408,12.4429872 C8.5420765,12.4415301 8.8,12.4604736 8.80582878,12.8204007 C8.80582878,12.9428051 8.80582878,13.0506375 8.89763206,13.1118397 C9.12165401,13.2405149 9.35384236,13.3544187 9.59271403,13.4528233 C9.81043931,13.5668515 10.0624658,13.5969287 10.3009107,13.5373406 C10.4466302,13.4761384 10.5034608,13.3814208 10.4466302,13.2459016 C10.3897996,13.1103825 10.392714,13.0040073 10.4466302,12.9544627 C10.5005464,12.904918 10.5704918,12.8553734 10.8531876,12.8714026 C11.0091075,12.8801457 11.2116576,12.9530055 11.3063752,12.8174863 C11.3952246,12.6624699 11.5240541,12.5341436 11.6794171,12.4459016 C11.9111111,12.2870674 12.0276867,12.1777778 12.0204007,11.7843352 C11.9903658,11.2746419 11.9937732,10.763528 12.0306011,10.2542805 C12.0845173,9.83752277 12.3482696,9.63205829 12.4939891,9.34499089 C12.6236794,9.09143898 12.68051,8.96466302 12.4939891,8.86265938 C12.3731247,8.78370326 12.2416273,8.7223705 12.1034608,8.68051002 C12.0317918,8.66611889 11.959266,8.65638389 11.8863388,8.65136612 C11.8295082,8.64262295 11.8149362,8.64262295 11.8076503,8.65136612 C11.8003643,8.66010929 11.8178506,8.68342441 11.8761384,8.71839709 C11.9572557,8.76360298 12.0342911,8.81577251 12.1063752,8.87431694 C12.1734062,8.93551913 12.2346084,9.0010929 12.1952641,9.06520947 C12.1559199,9.12932605 12.0291439,9.10892532 11.9358834,9.06520947 C11.842623,9.02149362 11.7318761,8.90346084 11.6823315,8.88888889 C11.6327869,8.87431694 11.5934426,8.86411658 11.6065574,8.91657559 C11.6196721,8.96903461 11.6429872,9.0287796 11.6065574,9.06229508 C11.5170387,9.10004351 11.4134766,9.07793474 11.3471767,9.00692168 C11.2422587,8.91657559 11.2116576,8.86120219 11.0775956,8.74462659 C10.997093,8.68495831 10.912893,8.6304473 10.8255009,8.58142077 C10.7564678,8.52016687 10.6776599,8.47091189 10.5923497,8.43570128 C10.3347928,8.37352444 10.066801,8.36805522 9.80692168,8.41967213 C9.4003643,8.4867031 9.30710383,8.56539162 9.18178506,8.55081967 C9.10746812,8.5420765 9.09143898,8.51876138 9.06812386,8.44298725 C9.04480874,8.36721311 9.0287796,8.35846995 8.99089253,8.33952641 C8.95300546,8.32058288 8.90783242,8.32932605 8.83497268,8.29726776 C8.66716675,8.23609956 8.52493501,8.1200549 8.43132969,7.96794171 C8.30018215,7.77704918 8.25500911,7.66193078 8.19089253,7.5715847 C8.12677596,7.48123862 8.08306011,7.45209472 8.01457195,7.4564663 Z M10.6681239,12.410929 C10.6477231,12.410929 10.5224044,12.410929 10.5836066,12.2797814 C10.643103,12.0601219 10.6667224,11.8322932 10.6535519,11.6051002 C10.6502745,11.4363948 10.6272892,11.2686508 10.5850638,11.1052823 C10.5602914,11.0003643 10.5515483,10.9857923 10.5850638,10.9493625 C10.6185792,10.9129326 10.6273224,10.9114754 10.684153,10.9041894 C10.7176685,10.9041894 10.7234973,10.9406193 10.7599271,11.0499089 C10.8477262,11.2401751 10.8906036,11.4480808 10.8852459,11.6575592 C10.891518,11.8693265 10.8812867,12.0812606 10.8546448,12.291439 C10.8371585,12.3584699 10.8211293,12.396357 10.7744991,12.3992714 C10.751184,12.4080146 10.6812386,12.4065574 10.6608379,12.4065574 L10.6681239,12.410929 Z M6.12021858,8.92240437 C6.25964169,8.91294224 6.39751923,8.88751801 6.53114754,8.84663024 C6.67023677,8.81805837 6.80027432,8.75604046 6.91001821,8.66593807 C6.94644809,8.63533698 6.95810565,8.63096539 6.9989071,8.66593807 C7.03970856,8.70091075 7.07759563,8.70528233 7.13734062,8.7431694 C7.1641679,8.75591738 7.18268848,8.78141324 7.18651753,8.81086748 C7.19034658,8.84032171 7.17896035,8.86970546 7.15628415,8.88888889 C7.0623903,8.95631102 6.95868983,9.00889847 6.84881603,9.04480874 C6.70630794,9.10687319 6.55478759,9.14573718 6.4,9.15992714 C6.27206307,9.17242926 6.1429619,9.15548161 6.02258652,9.11038251 C5.97887067,9.09143898 5.96429872,9.04189435 5.99635701,8.97777778 C6.0284153,8.9136612 6.07504554,8.92386157 6.12021858,8.92240437 Z M9.42367942,8.76357013 C9.51985428,8.76357013 9.60728597,8.74462659 9.75009107,8.75045537 C9.92278675,8.77265525 10.097614,8.77265525 10.2703097,8.75045537 C10.3573305,8.73904202 10.4384695,8.70025856 10.5020036,8.63970856 C10.5369763,8.61202186 10.5588342,8.628051 10.5923497,8.69945355 C10.6258652,8.7708561 10.504918,8.84517304 10.340255,8.93843352 C10.177088,9.01922697 9.99609951,9.05732981 9.81420765,9.04918033 C9.65102704,9.05202272 9.48786013,9.04276848 9.32604736,9.02149362 C9.27067395,9.02149362 9.24590164,8.95300546 9.24153005,8.87577413 C9.23132969,8.72859745 9.32604736,8.76065574 9.42367942,8.76357013 L9.42367942,8.76357013 Z" id="_100_Opaque_White" fill="#FFFFFF"></path>
                    </g>
                </g>
            </g>
        </g>
    </g>
</svg>
