<svg width="346" height="53" viewBox="0 0 346 53" fill="none" xmlns="http://www.w3.org/2000/svg">
<path d="M54.8143 1.72986C50.5272 1.70877 46.0222 2.01098 41.4962 2.44672C40.3576 2.55214 39.3737 3.20575 38.2281 3.9718C36.8647 4.88545 35.438 5.88343 35.0163 7.6053C34.679 8.98982 35.677 9.21472 36.4922 9.02496C36.9912 8.90549 37.9119 8.76493 38.5725 8.72979C45.3335 8.42758 51.8414 9.60126 57.4498 11.6534C59.5301 12.4125 60.1908 13.8954 59.6074 15.4978C56.2199 24.7889 50.6186 31.8591 43.9419 40.5738C43.3656 41.3329 42.3325 42.0497 41.5454 42.1411C35.3748 42.872 28.9019 42.4363 22.9562 39.2947C21.3187 38.4303 21.1219 36.2516 22.1129 34.2908C23.9472 30.6643 25.648 27.1924 28.7473 23.9666C30.7433 21.8933 32.6268 21.816 34.8055 22.3361C38.0946 23.1162 41.3978 24.1282 41.0745 26.8129C40.9129 28.1553 40.5123 28.4645 40.2311 29.0268C39.943 29.6031 39.5354 30.1934 38.9169 30.9735C38.4179 31.6061 38.9801 32.2737 39.8657 32.4986C41.2643 32.8641 42.0092 32.5689 42.7612 32.4986C43.8927 32.3932 44.4831 31.6342 45.0805 30.4956C46.7953 27.2206 48.6156 24.2126 49.0794 21.2819C49.3184 19.7779 50.0212 17.3954 46.1277 17.2829L26.5335 16.7066C24.3618 16.6434 22.4221 17.9154 20.897 19.1805C11.7676 26.7567 5.86402 36.1954 0.522715 45.9432C-0.791528 48.3398 0.529743 49.1199 2.73655 49.4221C8.8158 50.2514 14.9513 51.2564 20.904 51.0526C27.5104 50.8277 28.7754 51.6711 42.8104 49.5767C46.0363 49.0918 48.461 47.1521 50.2883 44.8398C59.6074 33.0117 70.1284 21.7176 74.7247 8.87035C75.2097 7.51393 75.5962 6.51595 73.5159 5.39147C68.5049 2.68567 61.9618 1.765 54.8143 1.72986ZM100.335 3.61337C97.608 3.64851 94.5157 3.8453 91.4726 6.06616C73.79 18.9767 71.1967 30.081 64.5903 41.9654C62.9317 44.9453 62.9458 47.9111 68.6104 48.0728C82.0128 48.4523 95.0006 47.5386 107.637 46.14C109.015 45.9854 109.865 45.5497 110.694 44.7977C112.205 43.4272 114.075 42.0216 114.194 39.9554C114.243 39.105 114.539 38.0226 112.261 38.1702C103.343 38.7325 93.9816 39.5056 85.4495 36.61C79.2649 34.5086 81.7809 31.9153 82.3923 29.9053C84.2267 23.9174 89.3642 14.7106 95.1271 9.27797C96.2305 8.23782 97.095 6.97278 99.0769 6.97278C105.346 6.97278 110.856 7.97076 115.312 10.2478C116.169 10.6836 117.982 10.6906 116.429 14.8653L114.792 19.2578C113.548 22.6031 111.91 26.6935 108.017 26.0328C104.629 25.4635 100.623 24.1563 102.507 20.073C102.893 19.2367 103.729 18.302 103.547 17.1705C103.427 16.3974 103.167 16.299 102.949 15.9757C102.689 15.5821 101.944 15.3361 101.164 15.6032C100.419 15.8632 100.068 16.2709 99.2245 17.318C97.2145 19.813 95.1974 22.2377 94.0097 25.1403C92.9625 27.6914 95.0569 29.3641 97.2145 29.7577C104.798 31.1352 110.413 31.0298 116.134 30.4253C118.158 30.2145 119.69 28.7948 121.574 26.328C125.713 20.9164 128.595 15.561 131.251 10.1635C132.783 7.05008 131.04 6.55109 128.946 6.06616C119.423 3.86638 109.886 3.4939 100.349 3.61337H100.335ZM140.303 15.8562L125.608 46.8147H136.192L137.633 42.9563H145.181L145.455 46.8147H156.039L151.358 15.8562H140.303ZM163.327 15.8562L158.197 46.8147H168.191L173.328 15.8562H163.327ZM177.953 15.8562L172.822 46.8147H182.598L184.25 36.8771H184.432L187.166 46.8147H198.699L194.384 36.7576C193.984 35.851 193.449 35.3661 193.014 34.9092L193.056 34.6632C197.006 33.2647 198.938 31.2968 199.718 26.6161C201.012 18.815 196.247 15.8562 190.048 15.8562H177.953ZM218.856 15.8562L217.19 25.9133L222.749 25.6252L219.235 46.8077H229.229L232.743 25.6252L238.204 25.9133L239.87 15.8562H218.856ZM246.659 15.8562L231.963 46.8147H242.54L243.981 42.9563H251.536L251.81 46.8147H262.387L257.707 15.8562H246.652H246.659ZM269.605 15.8562L264.468 46.8147H274.096L275.881 36.0548H282.01L280.225 46.8147H289.853L294.991 15.8562H285.355L283.626 26.2858H277.498L279.227 15.8562H269.598H269.605ZM299.559 15.8562L294.421 46.8147H304.422L309.553 15.8562H299.559ZM312.294 15.8562L310.628 25.9133L316.187 25.6252L312.673 46.8077H322.667L326.181 25.6252L331.642 25.9133L333.307 15.8562H312.294ZM336.006 15.8562L330.869 46.8147H340.863L346 15.8562H336.006ZM186.33 24.318H187.096C188.811 24.318 190.259 24.6061 189.865 26.9816C189.486 29.2798 187.792 29.5679 186.154 29.5679H185.459L186.33 24.318ZM144.028 26.1663H144.394C144.359 27.4806 144.316 28.837 144.394 30.1512L144.654 35.612H140.641L144.028 26.1663ZM250.384 26.1663H250.749C250.714 27.4806 250.672 28.837 250.749 30.1512L251.009 35.612H246.996L250.384 26.1663Z" fill="#E20025"/>
</svg>
