<?xml version="1.0" encoding="UTF-8" standalone="no"?>
<!-- File created by AtomCrusher for the English Wikipedia -->
<svg xmlns="http://www.w3.org/2000/svg" version="1.1" width="430" height="60">
  <path d="m 18.367224,28.85762 c -0.196127,0.02628 -0.414496,-0.256785 -0.507505,-0.390233 -0.02831,-0.03842 -0.135469,-0.266894 -0.109184,-0.301267 0.04246,-0.03235 0.264873,0.04246 0.323509,0.09099 0.145579,0.11525 0.262851,0.277004 0.335641,0.554009 0.002,0.03235 -0.02629,0.0465 -0.04246,0.0465 m -4.731317,-2.622444 c -0.133448,0.04853 -0.461,-0.323509 -0.551987,-0.461 -0.16782,-0.252741 -0.337663,-0.533789 -0.515592,-0.782487 -0.165799,-0.22039 -0.349794,-0.378101 -0.392255,-0.76429 -0.004,-0.04448 -0.03033,-0.159732 -0.002,-0.15771 0.179952,0.01415 0.351816,0.329574 0.442803,0.452912 0.0647,0.08896 0.141535,0.17793 0.200171,0.270939 0.08896,0.135469 0.12536,0.297224 0.218369,0.424605 0.113228,0.153667 0.250719,0.299246 0.372035,0.454935 0.0647,0.0829 0.151645,0.155688 0.192083,0.268916 0.0182,0.05864 0.07481,0.272961 0.03639,0.29318 m -1.354694,-0.05257 c -0.101096,-0.0081 -0.143557,-0.07077 -0.206236,-0.117272 -0.165799,-0.123338 -0.305312,-0.321487 -0.309356,-0.608601 -0.004,-0.02831 0.0081,-0.03639 0.02831,-0.03639 0.198149,-0.002 0.398321,0.30329 0.475154,0.444825 0.02224,0.04246 0.07481,0.157711 0.06672,0.238588 0,0.05459 -0.02426,0.07886 -0.05459,0.07886 m -4.5028385,0.909869 c -0.00809,0.02224 -0.024263,0.04853 -0.056614,0.05055 C 7.5074358,27.136957 7.442734,26.817492 7.3497253,26.671913 7.2728919,26.548575 7.2041463,26.41715 7.125291,26.293812 7.0686769,26.210913 6.9979094,26.121948 6.951405,26.024896 6.892769,25.901558 6.8664839,25.770132 6.7936944,25.658926 6.7572996,25.60029 6.6966417,25.549742 6.6541812,25.49515 6.5369092,25.337439 6.4317688,25.171641 6.3569574,24.973492 6.340782,24.902724 6.3205627,24.833979 6.3043872,24.763211 6.2599048,24.643917 6.2053126,24.512492 6.164874,24.38511 6.142633,24.32243 6.130501,24.191005 6.142633,24.146522 c 0.01011,-0.0182 0.018197,-0.03235 0.034373,-0.02831 0.1637764,0.02426 0.321487,0.422584 0.4023642,0.570185 0.088965,0.155688 0.2264562,0.281048 0.3032895,0.44078 0.068746,0.147601 0.093009,0.331597 0.1698422,0.473132 0.06268,0.109184 0.1637763,0.196127 0.232522,0.301268 0.086943,0.135469 0.1496228,0.311377 0.2183685,0.461 0.076833,0.169842 0.1880395,0.301267 0.2547632,0.465044 0.028307,0.06874 0.038417,0.188039 0.020219,0.262851 M 6.9433172,20.955916 C 6.9008567,20.881105 6.8563742,20.79214 6.8260453,20.713284 6.7916725,20.622297 6.7876286,20.539398 6.7512339,20.452455 6.6238522,20.171407 6.4823171,19.862052 6.3569574,19.585047 6.3023653,19.467775 6.2295758,19.251429 6.2801241,19.103828 c 0.00809,-0.02022 0.050548,-0.0081 0.068746,0.01213 0.04246,0.03842 0.072789,0.06268 0.1091842,0.105141 0.026285,0.04044 0.032351,0.08492 0.060658,0.125359 0.06268,0.09503 0.1455789,0.190062 0.1920833,0.297224 0.1051404,0.228478 0.1334475,0.483242 0.2385878,0.705654 0.066724,0.145579 0.1799518,0.27296 0.2547633,0.420561 0.036395,0.0829 0.060658,0.167821 0.084921,0.252742 0.016176,0.0647 0.012132,0.151644 0.016176,0.202193 0.00202,0.07683 -0.00607,0.123337 -0.032351,0.127381 -0.19815,-0.01213 -0.256786,-0.254762 -0.3295755,-0.396297 M 49.741518,39.913535 c -0.248697,-0.915934 -2.935843,-0.521658 -5.145813,-0.723851 -2.011821,-0.183995 -4.591804,-0.543899 -7.693445,-1.621588 -2.903492,-1.006921 -5.709931,-2.159422 -8.158489,-3.483786 0,0 -0.988724,-0.521658 -1.093865,-0.580294 -0.204215,-0.123338 -0.363947,-0.212303 -0.564118,-0.337662 -0.119294,-0.07077 -0.30329,-0.179952 -0.436737,-0.238588 -0.171864,-0.07077 -0.287114,-0.163776 -0.434715,-0.254763 -0.151645,-0.09503 -0.357882,-0.194106 -0.511549,-0.285093 -0.224434,-0.139513 -0.363947,-0.246675 -0.57625,-0.39832 -0.131425,-0.09907 -0.198149,-0.127381 -0.374057,-0.234544 -0.10514,-0.06268 -0.297224,-0.165798 -0.390232,-0.228478 -0.196128,-0.129403 -0.321487,-0.236566 -0.519636,-0.374057 -0.119294,-0.08492 -0.208259,-0.137491 -0.351816,-0.226456 -0.141535,-0.08694 -0.279027,-0.198149 -0.402365,-0.289136 -0.06672,-0.05257 -0.171864,-0.111206 -0.232522,-0.175908 -0.145579,-0.139513 -0.289136,-0.262851 -0.438758,-0.384167 -0.137492,-0.103118 -0.268917,-0.2305 -0.402365,-0.333618 -0.08694,-0.06268 -0.234543,-0.186018 -0.319465,-0.248698 -0.222412,-0.159732 -0.361925,-0.279026 -0.582316,-0.438759 -0.141535,-0.10514 -0.260829,-0.244653 -0.402364,-0.349794 -0.15771,-0.117272 -0.303289,-0.252741 -0.467066,-0.370013 -0.10514,-0.07279 -0.226456,-0.165798 -0.307333,-0.248697 -0.10514,-0.127382 -0.204215,-0.214325 -0.315421,-0.339685 -0.08088,-0.08896 -0.236566,-0.188039 -0.327553,-0.279026 -0.133447,-0.173886 -0.327553,-0.357882 -0.509526,-0.493351 -0.107163,-0.09907 -0.139514,-0.145579 -0.181974,-0.198149 -0.03033,-0.04448 -0.07077,-0.09503 -0.157711,-0.190062 -0.08694,-0.08896 -0.119294,-0.113228 -0.153666,-0.151645 -0.04044,-0.03235 -0.08694,-0.07481 -0.206237,-0.192083 -0.0364,-0.03842 -0.09908,-0.12536 -0.161755,-0.210281 -0.05459,-0.07481 -0.10514,-0.149623 -0.141535,-0.188039 -0.107162,-0.113228 -0.17793,-0.192084 -0.254763,-0.272961 -0.05459,-0.05459 -0.113228,-0.11525 -0.183996,-0.190061 -0.04246,-0.0465 -0.07481,-0.101097 -0.113228,-0.151645 -0.03033,-0.05055 -0.06672,-0.103119 -0.103118,-0.145579 -0.0647,-0.07077 -0.11525,-0.0465 -0.127382,-0.03842 -0.03842,0.02628 -0.05459,0.103119 -0.01213,0.194106 0.05864,0.107162 0.139513,0.226456 0.190061,0.295201 0.01213,0.01618 0.02224,0.03033 0.02831,0.03842 0.02022,0.03437 0.03842,0.06672 0.05864,0.101097 0.02831,0.05055 0.05864,0.10514 0.09503,0.153666 0.0829,0.111206 0.169842,0.204215 0.256785,0.291158 0.03033,0.02831 0.05864,0.05864 0.08492,0.08897 0.05864,0.06066 0.103118,0.12536 0.147601,0.194105 0.04853,0.06672 0.09907,0.139514 0.161754,0.208259 0.03033,0.02831 0.05661,0.0647 0.07886,0.09705 0.02831,0.0364 0.05661,0.07683 0.08897,0.109184 0.05055,0.04853 0.09907,0.09705 0.1476,0.145579 0.08088,0.08694 0.167821,0.171864 0.246676,0.24061 0.06268,0.05257 0.12536,0.119294 0.190061,0.181974 0.163777,0.196127 0.343729,0.392254 0.49133,0.580294 0.0829,0.10514 0.238587,0.183995 0.333618,0.256785 0.10514,0.07886 0.18804,0.216346 0.270939,0.321487 0.0647,0.07683 0.206237,0.202193 0.27296,0.28307 0.163777,0.210281 0.277005,0.323509 0.493351,0.485263 0.131426,0.09301 0.2305,0.183996 0.331597,0.309356 0.06066,0.07886 0.246675,0.258807 0.317443,0.34575 0.17793,0.226456 0.258807,0.438759 0.232522,0.444824 -0.121316,0.03235 -0.416518,-0.228478 -0.592426,-0.341706 -0.143557,-0.09907 -0.16782,-0.137491 -0.305311,-0.240609 -0.03033,-0.02629 -0.248698,-0.17793 -0.323509,-0.272961 -0.05864,-0.05257 -0.22039,-0.228478 -0.270939,-0.289136 -0.246675,-0.315421 -0.329574,-0.333619 -0.612645,-0.610623 -0.206236,-0.202193 -0.463022,-0.382145 -0.663193,-0.562097 -0.06066,-0.06268 -0.119294,-0.125359 -0.17793,-0.194105 -0.06672,-0.06672 -0.149622,-0.127382 -0.21028,-0.194105 -0.09503,-0.117272 -0.220391,-0.349794 -0.331597,-0.432694 -0.117272,-0.09099 -0.204215,-0.173886 -0.323509,-0.26285 -0.04246,-0.02831 -0.07886,-0.0829 -0.123338,-0.117272 -0.05864,-0.04044 -0.125359,-0.08896 -0.169842,-0.143557 -0.137491,-0.175908 -0.270938,-0.35586 -0.414495,-0.531768 -0.06268,-0.08492 -0.153667,-0.153667 -0.216347,-0.24061 -0.133447,-0.190061 -0.246676,-0.384167 -0.382145,-0.562097 -0.192083,-0.248697 -0.465044,-0.426627 -0.64904,-0.677346 -0.190061,-0.258807 -0.303289,-0.558053 -0.481219,-0.828992 -0.07683,-0.117272 -0.196127,-0.200171 -0.281048,-0.311377 -0.04853,-0.0647 -0.07481,-0.139513 -0.121316,-0.210281 -0.09503,-0.145579 -0.206237,-0.287114 -0.30329,-0.424605 -0.125359,-0.186018 -0.21028,-0.386189 -0.337662,-0.582316 -0.0182,-0.02629 -0.06268,-0.157711 -0.141535,-0.254763 -0.07481,-0.09503 -0.141535,-0.204215 -0.226456,-0.343728 -0.08896,-0.13547 -0.129404,-0.226457 -0.192084,-0.319465 -0.06268,-0.09705 -0.103118,-0.186018 -0.145579,-0.25072 -0.04044,-0.06874 -0.131425,-0.192083 -0.163776,-0.24061 -0.11525,-0.177929 -0.147601,-0.260829 -0.266895,-0.424605 -0.07279,-0.101096 -0.153667,-0.183996 -0.222412,-0.159732 -0.05257,0.03842 -0.03235,0.101096 -0.02022,0.145579 0.05257,0.145579 0.05257,0.119293 0.109185,0.224434 0.09705,0.173886 0.131425,0.256785 0.234544,0.416517 0.0465,0.07683 0.129403,0.25072 0.196127,0.343729 0.0647,0.09705 0.133447,0.212302 0.17793,0.291158 0.05055,0.08492 0.121316,0.307333 0.192083,0.400342 0.05055,0.06672 0.123338,0.202193 0.173886,0.299246 0.09908,0.198149 0.224434,0.353837 0.327553,0.507504 0.06874,0.127382 0.137491,0.260829 0.204215,0.386189 0.137491,0.206237 0.301267,0.39832 0.434715,0.610623 0.0829,0.147601 0.163776,0.295202 0.244653,0.442803 0.0829,0.121315 0.194106,0.224434 0.272961,0.347772 0.09705,0.1476 0.149623,0.309355 0.246676,0.454934 0.07683,0.113228 0.173886,0.222412 0.250719,0.33564 0.131425,0.194106 0.248697,0.386189 0.386189,0.572207 0.07683,0.101096 0.175908,0.186017 0.250719,0.289136 0.103118,0.139513 0.186018,0.305311 0.29318,0.422583 0.129403,0.121316 0.165798,0.194105 0.266895,0.309355 0.149623,0.183996 0.52368,0.709698 0.458978,0.713742 -0.218369,0.03033 -0.640952,-0.448869 -0.818882,-0.622755 -0.137491,-0.137491 -0.291158,-0.234544 -0.386189,-0.363947 -0.141535,-0.190062 -0.244653,-0.404386 -0.386188,-0.588382 -0.05055,-0.06874 -0.127382,-0.119294 -0.17793,-0.183996 -0.09705,-0.125359 -0.190062,-0.258807 -0.301268,-0.367991 -0.0465,-0.04448 -0.09705,-0.08492 -0.139513,-0.135469 -0.171864,-0.220391 -0.317443,-0.456956 -0.483241,-0.687457 -0.07279,-0.09301 -0.161755,-0.175907 -0.232522,-0.266894 -0.05257,-0.07481 -0.08492,-0.155689 -0.131426,-0.236566 -0.06672,-0.103119 -0.155688,-0.202193 -0.222412,-0.305312 -0.05055,-0.07683 -0.08088,-0.153666 -0.133448,-0.232522 -0.09099,-0.137491 -0.212302,-0.256785 -0.303289,-0.396298 -0.07077,-0.113228 -0.09099,-0.260829 -0.165798,-0.376079 -0.18804,-0.287114 -0.392255,-0.580294 -0.576251,-0.867408 -0.04853,-0.07481 -0.06874,-0.157711 -0.113228,-0.2305 -0.151645,-0.236566 -0.291158,-0.491329 -0.440781,-0.723851 -0.05459,-0.08694 -0.07683,-0.186018 -0.131425,-0.270939 -0.06875,-0.10514 -0.173886,-0.18804 -0.242632,-0.289136 -0.05257,-0.08088 -0.07481,-0.169842 -0.11525,-0.260829 -0.05459,-0.123338 -0.131425,-0.242632 -0.194105,-0.357882 -0.03842,-0.07077 -0.05864,-0.143557 -0.103118,-0.210281 -0.179952,-0.281048 -0.327553,-0.578272 -0.473132,-0.889649 -0.07683,-0.159732 -0.190062,-0.309355 -0.264873,-0.473132 -0.08694,-0.179951 -0.169842,-0.363947 -0.248698,-0.537833 -0.0465,-0.119294 -0.08896,-0.238588 -0.129403,-0.357882 -0.08694,-0.186017 -0.222412,-0.34575 -0.305312,-0.539855 -0.05864,-0.131426 -0.09099,-0.252742 -0.145579,-0.363948 -0.03437,-0.06672 -0.09907,-0.123337 -0.145579,-0.09301 -0.048526,0.02831 -0.054592,0.08694 -0.02426,0.190062 0.05661,0.198149 0.165799,0.422583 0.216347,0.535811 0.103118,0.222413 0.155689,0.454935 0.256785,0.681391 0.05257,0.127382 0.137491,0.246676 0.194105,0.367991 0.09907,0.216347 0.194106,0.432693 0.29318,0.636908 0.05459,0.119294 0.09908,0.234544 0.163777,0.347772 0.03235,0.05864 0.08492,0.12536 0.111206,0.190062 0.0647,0.145579 0.0829,0.299246 0.149623,0.436737 0.06874,0.143557 0.179951,0.262851 0.246675,0.402364 0.341706,0.727895 0.685435,1.421417 1.097908,2.066413 0.113228,0.179952 0.173886,0.39832 0.289136,0.57625 0.119294,0.18804 0.283071,0.329575 0.400343,0.511548 0.09907,0.151645 0.123337,0.361926 0.214324,0.52368 0.129404,0.242632 0.307334,0.446847 0.454935,0.675325 0.03842,0.0647 0.05055,0.13547 0.09099,0.202193 0.05459,0.08694 0.127382,0.171864 0.183996,0.260829 0.07279,0.119294 0.111206,0.254763 0.194105,0.363948 0.08694,0.121316 0.212303,0.218368 0.299246,0.341706 0.107162,0.147601 0.183996,0.321487 0.297224,0.473132 0.07683,0.103118 0.198149,0.175908 0.277004,0.281048 0.12536,0.163776 0.560075,0.733961 0.685435,0.893693 0.190061,0.244654 0.533789,0.604557 0.6915,0.926044 0.05055,0.09907 0.222412,0.335641 0.186018,0.382145 -0.09099,0.06066 -0.521658,-0.410452 -0.594448,-0.479197 -0.179952,-0.171864 -0.33564,-0.410452 -0.491329,-0.608601 -0.03842,-0.04448 -0.450891,-0.446847 -0.485263,-0.491329 -0.04044,-0.05257 -0.0829,-0.111207 -0.119294,-0.163777 -0.11525,-0.171864 -0.186018,-0.378101 -0.307334,-0.539855 -0.05257,-0.06875 -0.131425,-0.119294 -0.179951,-0.186018 -0.09503,-0.125359 -0.159733,-0.266895 -0.254764,-0.394276 -0.143557,-0.202193 -0.333618,-0.380123 -0.481219,-0.580294 -0.157711,-0.218369 -0.272961,-0.477176 -0.436737,-0.695544 -0.08088,-0.107163 -0.183996,-0.202193 -0.260829,-0.319465 -0.03437,-0.05055 -0.0465,-0.101097 -0.08088,-0.153667 -0.05864,-0.08897 -0.137492,-0.190061 -0.181974,-0.287114 -0.04246,-0.09301 -0.07279,-0.179952 -0.12536,-0.262851 -0.169842,-0.264873 -0.339684,-0.545921 -0.507504,-0.810794 -0.07886,-0.119294 -0.121316,-0.246676 -0.196128,-0.36597 -0.127381,-0.196127 -0.289136,-0.372035 -0.414495,-0.570184 -0.149623,-0.234544 -0.2305,-0.517614 -0.384167,-0.752158 -0.09705,-0.155689 -0.212303,-0.299246 -0.309355,-0.454934 -0.109185,-0.167821 -0.161755,-0.363948 -0.260829,-0.537834 -0.08492,-0.155689 -0.200172,-0.299246 -0.274983,-0.452912 -0.0829,-0.169842 -0.137491,-0.335641 -0.218368,-0.511549 -0.04448,-0.09301 -0.113229,-0.188039 -0.153667,-0.281048 -0.05459,-0.121316 -0.0647,-0.24061 -0.121316,-0.353838 C 10.028783,18.359757 9.8083926,18.052424 9.6547259,17.726893 9.5475636,17.498415 9.448489,17.259827 9.3595241,17.015174 9.3109977,16.881726 9.2887565,16.754345 9.2280986,16.631007 9.0926293,16.331761 8.926831,16.018362 8.7974274,15.725182 8.7408134,15.56545 8.6862212,15.409761 8.6275853,15.25205 8.6174756,15.207568 8.6114098,15.165107 8.5952344,15.116581 8.5325545,14.977068 8.4496554,14.839577 8.3950633,14.704107 8.3465369,14.542353 8.2959887,14.38262 8.2434185,14.220866 8.0351597,13.699208 7.8471201,13.108804 7.6489709,12.564905 7.6247078,12.467852 7.618642,12.342492 7.5802253,12.23533 7.4771069,11.960348 7.3739884,11.677277 7.2749138,11.400273 c -0.058636,-0.141535 -0.1920834,-0.09503 -0.1617544,0.05055 0.040439,0.190062 0.064702,0.238588 0.099075,0.390233 0.014154,0.07886 0.028307,0.153666 0.044482,0.2305 0.024263,0.09301 0.070768,0.190061 0.095031,0.279026 0.054592,0.16782 0.058636,0.331597 0.1132281,0.491329 0.082899,0.224435 0.1637763,0.442803 0.2385878,0.673303 0.018197,0.11525 0.044482,0.2305 0.066724,0.347772 0.034373,0.107162 0.078855,0.218369 0.1172719,0.315421 0.1152501,0.285092 0.2264562,0.560075 0.3255308,0.839101 0.042461,0.161755 0.084921,0.321487 0.1233378,0.483242 0.04246,0.08896 0.1051404,0.179952 0.143557,0.266895 0.036395,0.07886 0.044483,0.151644 0.076833,0.234544 0.07279,0.179951 0.1374913,0.363947 0.2203904,0.547943 0.068746,0.149623 0.1496229,0.301267 0.2082588,0.461 0.028307,0.07885 0.028307,0.145579 0.056614,0.222412 0.173886,0.477176 0.3619255,0.976593 0.5681624,1.429505 0.050548,0.111206 0.064702,0.228478 0.117272,0.341706 0.040439,0.09705 0.1010965,0.198149 0.1435571,0.291158 0.020219,0.06066 0.04246,0.123338 0.06268,0.183996 0.06268,0.133447 0.1718635,0.242631 0.2345435,0.376079 0.175908,0.370013 0.333619,0.723851 0.556031,1.039272 0.204215,0.295202 0.295202,0.683413 0.444825,1.033207 0.07885,0.165798 0.173886,0.307333 0.268917,0.45089 0.0465,0.07683 0.07481,0.161754 0.11525,0.244654 0.101096,0.181973 0.155688,0.339684 0.274982,0.501438 0.09503,0.133448 0.08694,0.161755 0.16782,0.347772 0.02224,0.05459 0.113228,0.402364 0.09503,0.402364 -0.03033,0.02022 -0.202193,-0.0829 -0.260829,-0.1476 -0.07683,-0.08694 -0.202193,-0.204215 -0.285092,-0.392255 -0.04448,-0.09503 -0.129404,-0.258807 -0.173886,-0.349794 -0.107162,-0.2305 -0.291158,-0.426627 -0.424606,-0.63893 -0.07886,-0.123338 -0.121315,-0.258807 -0.188039,-0.392254 -0.111206,-0.244654 -0.24061,-0.491329 -0.359904,-0.744071 -0.05055,-0.10514 -0.123337,-0.206237 -0.181973,-0.299245 -0.0647,-0.09705 -0.09301,-0.200172 -0.155689,-0.299246 C 9.9256646,20.399885 9.7719979,20.161297 9.6628136,19.928775 9.5819364,19.756911 9.5394759,19.585047 9.4626425,19.417227 9.4363574,19.364657 9.3938969,19.312087 9.3595241,19.261538 9.3049319,19.174595 9.2826907,19.079565 9.2341644,18.982512 9.1735065,18.85513 9.0825196,18.729771 9.0218617,18.598345 8.8985239,18.333472 8.8277564,18.05849 8.7064405,17.797661 8.6457826,17.676345 8.54873,17.571205 8.4921159,17.449889 8.403151,17.263871 8.3950633,17.029327 8.3060983,16.835222 8.0776202,16.317608 7.8127473,15.78584 7.618642,15.245985 7.588313,15.154998 7.5761815,15.049857 7.5478744,14.954827 7.4629534,14.720283 7.3517472,14.501914 7.2668261,14.271414 7.2284094,14.166274 7.2162778,14.069221 7.1778612,13.962059 7.1212471,13.80637 7.0464357,13.640572 6.9898216,13.480839 6.9756681,13.428269 6.9675804,13.371655 6.9473611,13.317063 6.8765935,13.169462 6.8361549,12.991532 6.7674093,12.835844 6.7289926,12.754966 6.6723786,12.672067 6.6400277,12.585124 6.5854356,12.429436 6.601611,12.233308 6.544997,12.087729 6.4661417,11.867339 6.3731329,11.628751 6.2942776,11.412405 6.2457513,11.285023 6.2376635,11.163707 6.1931811,11.034304 6.1426328,10.888725 6.0860188,10.72697 6.0314266,10.581391 5.9788564,10.431768 5.9808784,10.270014 5.9303301,10.112303 5.8939354,9.9909874 5.8433871,9.8676497 5.8029485,9.7544216 5.7281371,9.5421189 5.6957862,9.3176846 5.6169309,9.1195354 5.6047993,9.0831407 5.5906458,9.044724 5.5785142,9.0103512 5.5582949,8.9557591 5.5219002,8.9031889 5.467308,8.9193643 c -0.06268,0.016176 -0.06268,0.095031 -0.058636,0.1476009 0.012131,0.1577106 0.070767,0.2992457 0.1132281,0.4266274 0.05257,0.1334474 0.076833,0.2770044 0.1132281,0.404386 0.020219,0.082899 0.018197,0.1718644 0.038417,0.2588074 0.026285,0.125359 0.074812,0.244653 0.1071624,0.367991 0.030329,0.121316 0.014153,0.24061 0.04246,0.335641 0.078855,0.264872 0.1678202,0.564118 0.2567852,0.816859 0.036395,0.131426 0.042461,0.283071 0.082899,0.396299 0.048526,0.133447 0.099075,0.268916 0.145579,0.404386 0.044482,0.113228 0.05257,0.22039 0.099075,0.327553 0.050548,0.111206 0.1071623,0.228478 0.1496228,0.355859 0.050548,0.163777 0.044482,0.325531 0.1010966,0.48122 0.093009,0.250719 0.2082588,0.489307 0.2931799,0.729917 0.028307,0.08896 0.038417,0.183995 0.068746,0.27296 0.074811,0.208259 0.1273816,0.432693 0.204215,0.642974 0.1091842,0.299246 0.2486974,0.592426 0.3578816,0.887628 0.1051404,0.291158 0.1213159,0.640951 0.2426317,0.913912 0.06268,0.135469 0.1920834,0.216347 0.2507194,0.347772 0.042461,0.0829 0.030329,0.179952 0.058636,0.279026 0.034373,0.111207 0.086943,0.224435 0.1294036,0.327553 0.024263,0.09503 0.048526,0.186018 0.074811,0.277005 0.038417,0.111206 0.11525,0.222412 0.1637764,0.329574 0.080877,0.173886 0.1213158,0.35586 0.2183685,0.511549 0.078855,0.117272 0.173886,0.226456 0.2385877,0.357881 0.066724,0.143557 0.090987,0.299246 0.1577106,0.450891 0.099075,0.222412 0.2163466,0.434715 0.2992457,0.665215 0.078855,0.210281 0.1071623,0.432693 0.2062369,0.618711 0.1010965,0.181973 0.2244343,0.34575 0.3235089,0.525702 0.06268,0.137491 0.1253599,0.27296 0.1900609,0.40843 0.05055,0.109184 0.149623,0.204215 0.212303,0.319465 0.07683,0.137491 0.151645,0.28307 0.214325,0.420561 0.05055,0.109184 0.06874,0.208259 0.129403,0.301268 0.08694,0.143557 0.153667,0.258807 0.248698,0.400342 0.07886,0.127382 0.171864,0.289136 0.228478,0.438759 0.04448,0.113228 0.09099,0.232522 0.155688,0.327553 0.07077,0.09705 0.161755,0.183995 0.220391,0.291158 0.05864,0.10514 0.141535,0.446846 0.111206,0.463022 -0.07481,0.02629 -0.285092,-0.173886 -0.341706,-0.244654 C 11.148932,24.706597 11.068055,24.435658 10.91641,24.223356 10.754656,23.990834 10.65356,23.86143 10.526178,23.596557 10.45541,23.444912 10.328029,23.16993 10.241086,23.03446 10.154143,22.907079 10.044958,22.791829 9.9782348,22.650294 9.9256646,22.531 9.8993795,22.389465 9.8468093,22.272193 9.767954,22.104372 9.6082215,21.993166 9.5273443,21.817258 9.4343355,21.623153 9.3938969,21.422982 9.2948223,21.241008 9.246296,21.152043 9.1836161,21.052969 9.1411556,20.95996 9.0845415,20.84471 9.0582564,20.731482 9.0036643,20.61421 8.8924581,20.375622 8.7246379,20.175451 8.6174756,19.938885 8.5002036,19.696253 8.4375238,19.433402 8.3182299,19.188749 8.257572,19.055301 8.1483878,18.942073 8.0857079,18.808626 8.0028088,18.632718 7.9603482,18.448722 7.8774491,18.270792 7.8248789,18.16363 7.7500675,18.05849 7.6995192,17.953349 7.6287516,17.799683 7.6024666,17.631862 7.5296771,17.47213 7.3699446,17.108182 7.2021243,16.734125 7.0403699,16.374222 6.979712,16.234709 6.9635365,16.091151 6.9008567,15.949616 6.8401988,15.826279 6.7795409,15.704963 6.7148391,15.581625 6.5773478,15.264182 6.5267996,14.892147 6.3832425,14.572682 6.310453,14.408905 6.2214881,14.255239 6.1547644,14.081353 6.0536679,13.80637 6.0172731,13.5233 5.9141547,13.242252 5.760488,12.813602 5.6371502,12.366756 5.4834835,11.94215 5.4369791,11.814769 5.4329352,11.689409 5.3844089,11.555962 5.3399264,11.432624 5.293422,11.307264 5.2469176,11.183926 5.2145667,11.080808 5.1943474,10.937251 5.1680623,10.807847 5.0528123,10.445922 4.9375623,10.083996 4.8243342,9.7180268 4.7960272,9.6310838 4.7919833,9.4753952 4.7616543,9.364189 4.743457,9.3015092 4.7090841,9.2287197 4.684821,9.1700837 4.6585359,9.0871845 4.6585359,9.016417 4.6322508,8.929474 4.5473297,8.6646011 4.4765622,8.3552457 4.3916411,8.0903729 4.3673779,8.0074737 4.3592902,7.8881798 4.3330051,7.795171 4.2157331,7.41707 4.1570971,6.954048 4.0034304,6.604254 3.9791673,6.5355084 3.9346848,6.4627189 3.8679611,6.4809163 c -0.066724,0.016175 -0.05257,0.093009 -0.046504,0.1556886 0.020219,0.1718641 0.084921,0.319465 0.1132281,0.4630221 0.012132,0.064702 0.012132,0.1536667 0.016175,0.2305 0.00809,0.064702 0.016175,0.1435571 0.036395,0.2123027 0.070768,0.2244343 0.1536667,0.4893072 0.2183685,0.7096976 0.022241,0.1071623 0.00202,0.2729606 0.032351,0.3962984 0.097053,0.3578816 0.1678202,0.7845089 0.2972237,1.1059959 0.1192939,0.2931794 0.1415352,0.6449954 0.2264562,0.9624384 0.024263,0.137492 0.032351,0.277005 0.05257,0.414496 0.022241,0.133448 0.095031,0.224434 0.1354694,0.335641 0.032351,0.0829 0.028307,0.153666 0.060658,0.240609 0.066724,0.228478 0.1213158,0.452913 0.202193,0.683413 0.056614,0.159732 0.1435571,0.309355 0.2001711,0.463022 0.022241,0.07077 0.016176,0.133447 0.034373,0.210281 0.040439,0.159732 0.066724,0.317443 0.1112062,0.473131 0.1132281,0.3134 0.2203904,0.653084 0.3315966,0.962439 0.06268,0.173886 0.082899,0.341706 0.1415351,0.509527 0.2486975,0.675324 0.4994168,1.344583 0.7440704,2.01182 0.040439,0.149623 0.082899,0.299246 0.1213158,0.446847 0.054592,0.149623 0.1435571,0.277005 0.2062369,0.412474 0.080877,0.173886 0.1051404,0.35586 0.1738861,0.539855 0.074811,0.216347 0.1779298,0.382145 0.260829,0.606579 0.038417,0.105141 0.076833,0.224435 0.1253597,0.329575 0.036395,0.07683 0.1031184,0.151645 0.1415351,0.2305 0.066724,0.131426 0.076833,0.299246 0.1395132,0.432693 0.066724,0.133448 0.1779299,0.244654 0.2567851,0.36597 0.068746,0.117272 0.076833,0.264873 0.1354694,0.396298 0.093009,0.204215 0.2123027,0.392254 0.3012676,0.608601 0.036395,0.09099 0.05257,0.171864 0.093009,0.258807 0.046504,0.09907 0.1213158,0.194105 0.1678202,0.299246 0,0 0.00404,0 0.00809,0.01011 0.00404,0.01415 0.012132,0.03437 0.014154,0.05662 0.012132,0.04044 0.026285,0.09301 0.040439,0.131425 0.020219,0.05661 0.084921,0.161754 0.1112062,0.200171 0.016175,0.02022 0.064702,0.07279 0.1010965,0.121316 0.018197,0.0182 0.034373,0.04044 0.05257,0.0647 0.086943,0.139513 0.097053,0.33564 0.1698421,0.491329 0.072789,0.147601 0.2001711,0.268917 0.2729606,0.424605 0.058636,0.117272 0.086943,0.410452 0.016176,0.422584 -0.3032896,0 -0.3255308,-0.424606 -0.4266274,-0.647018 -0.082899,-0.173886 -0.2042149,-0.317443 -0.2952018,-0.483241 -0.020219,-0.03235 -0.048526,-0.09907 -0.068746,-0.167821 -0.018197,-0.05864 -0.044482,-0.121316 -0.068746,-0.169842 -0.038417,-0.08088 -0.038417,-0.06874 -0.064702,-0.127381 -0.028307,-0.05661 -0.1132281,-0.163777 -0.1374913,-0.214325 -0.00202,-0.002 -0.00404,-0.0061 -0.00404,-0.01011 C 8.5022256,21.865785 8.4253922,21.600912 8.3424931,21.47353 8.2959887,21.404785 8.2353308,21.334017 8.1888264,21.263249 8.1140149,21.141934 8.0735763,20.998377 8.0129184,20.864929 7.9563044,20.745635 7.8653175,20.626341 7.8087035,20.49896 7.7419797,20.349337 7.7379359,20.161297 7.6651464,20.009653 7.6307736,19.926753 7.5640499,19.843854 7.5236113,19.767021 7.4386902,19.593135 7.3881419,19.409139 7.3032209,19.239297 7.2648042,19.156398 7.1899927,19.079565 7.1495541,18.996665 7.0828304,18.851086 7.0464357,18.69742 6.9716243,18.563972 6.8118918,18.276858 6.6400277,17.959415 6.5106241,17.656126 6.4317688,17.478196 6.4034618,17.298244 6.3286504,17.12638 6.2619267,16.974735 6.1689179,16.827134 6.1021942,16.683577 6.0536679,16.588546 6.0435582,16.491494 6.0051415,16.384331 5.9404398,16.216511 5.8656283,16.042625 5.8029485,15.874805 5.7665537,15.757533 5.7362248,15.504792 5.69983,15.403695 5.6533256,15.276314 5.5886239,15.138822 5.5340318,15.013463 5.4491107,14.829467 5.4248475,14.635362 5.3419484,14.449344 5.2772466,14.303765 5.206479,14.154142 5.1539088,14.006541 5.1074044,13.881182 5.0952729,13.76391 5.0447246,13.64866 5.0063079,13.559695 4.9537377,13.46062 4.9213868,13.369633 4.8789263,13.260449 4.8506193,13.080497 4.8182684,12.934918 4.7636763,12.775186 4.6969526,12.623541 4.6484262,12.46583 4.6180973,12.346536 4.6140534,12.075598 4.5877683,12.002808 4.4179262,11.513501 4.2642595,10.989821 4.1085708,10.500514 4.0378033,10.274058 4.0034304,10.047601 3.9407506,9.829233 3.9185094,9.7382461 3.9164874,9.62704 3.8922243,9.538075 3.8477418,9.3965399 3.7891058,9.2509609 3.7446233,9.1053819 3.7203602,9.0063073 3.7041847,8.9052108 3.6859874,8.8081582 3.6637461,8.7070616 3.609154,8.6019213 3.5687154,8.5008247 3.4757066,8.2056229 3.4231364,7.8922237 3.3361934,7.6030876 3.3078864,7.4837937 3.3078864,7.3281051 3.2755355,7.2189209 3.1602855,6.8630611 3.1360223,6.4485654 3.0308819,6.0745083 3.0066188,5.965324 2.9924652,5.8561398 2.9661801,5.7570652 2.7821845,5.0574773 2.6992853,4.2729683 2.4950704,3.6016874 2.4566537,3.4722838 2.5072019,3.3085075 2.4728291,3.1689943 2.4303686,3.0112837 2.387908,2.8737924 2.3434256,2.7363012 2.3232063,2.6635117 2.3211843,2.6089195 2.3090528,2.5442178 2.272658,2.4309897 2.2221098,2.3400028 2.1594299,2.3541563 c -0.074811,0.022241 -0.058636,0.090987 -0.056614,0.1860176 0.00809,0.1577106 0.024263,0.2871141 0.054592,0.4124738 0.026285,0.1071623 0.00809,0.1961273 0.038417,0.291158 0.064702,0.2163465 0.084921,0.52368 0.1233377,0.7218291 0.012132,0.080877 0,0.1920834 0.016175,0.2871142 0.022241,0.1010965 0.099074,0.2305 0.1192939,0.3396843 0.022241,0.143557 0.020219,0.3315966 0.04246,0.4893071 0.028307,0.1314255 0.068746,0.2588071 0.1031184,0.3821449 0.028307,0.1071623 0.00809,0.2102807 0.040439,0.3093553 0.030329,0.1031185 0.084921,0.204215 0.1051404,0.3174431 0.016176,0.1233378 -0.00202,0.3032896 0.024263,0.4144957 0.1577106,0.6146669 0.204215,1.3425618 0.3841668,1.9309436 0.022241,0.084921 0.026285,0.1759079 0.046504,0.260829 0.1496228,0.5176142 0.2648729,1.0675792 0.4205615,1.579128 0.020219,0.07885 0.018197,0.161754 0.038417,0.250719 0.050548,0.179952 0.093009,0.374057 0.1334474,0.554009 0.018197,0.08694 0.016175,0.163776 0.040439,0.244654 0.05257,0.188039 0.1172719,0.370013 0.1799518,0.55603 0.022241,0.09301 0.032351,0.181974 0.048526,0.270939 0.016176,0.07077 0.05257,0.151645 0.074811,0.22039 0.032351,0.107163 0.022241,0.210281 0.054592,0.309356 0.024263,0.05661 0.070768,0.121316 0.084921,0.181974 0.024263,0.111206 0.038417,0.22039 0.068746,0.327552 0.044482,0.129404 0.1132281,0.256785 0.1657983,0.384167 0.040439,0.107162 0.040439,0.216347 0.080877,0.321487 0.07279,0.17793 0.1516448,0.392254 0.2224123,0.58636 0.056614,0.15771 0.064702,0.319465 0.1213159,0.479197 0.038417,0.107163 0.088965,0.216347 0.1253596,0.321487 0.024263,0.08088 0.038417,0.161755 0.066724,0.248698 0.026285,0.07481 0.1112062,0.196127 0.1657983,0.299245 0.046504,0.111207 0.024263,0.262851 0.058636,0.384167 0.038417,0.123338 0.1071623,0.222412 0.1496229,0.335641 0.038417,0.11525 0.036395,0.238587 0.068746,0.355859 0.032351,0.09099 0.095031,0.17793 0.1314255,0.262851 0.036395,0.101097 0.07279,0.198149 0.1091842,0.297224 0.028307,0.06268 0.082899,0.131426 0.11525,0.192083 0.05257,0.113229 0.097053,0.24061 0.1435571,0.357882 0.066724,0.165798 0.07279,0.372035 0.1253597,0.566141 0.014153,0.05661 0.01011,0.188039 -0.020219,0.202193 C 6.0961284,18.800538 6.0091854,18.6772 5.9566152,18.602389 5.8656283,18.472985 5.7786853,18.33145 5.7119616,18.177784 5.6876985,18.119148 5.6755669,18.064556 5.6553476,18.003898 5.6047993,17.876516 5.5663826,17.728915 5.5077467,17.601533 5.4733738,17.520656 5.4208036,17.435735 5.3924966,17.350814 5.352058,17.227476 5.3702554,17.081897 5.3217291,16.974735 5.2812905,16.88577 5.208501,16.812981 5.1680623,16.724016 5.1397553,16.641117 5.1235799,16.556195 5.0892071,16.473296 5.0447246,16.374222 4.9860886,16.287279 4.9294746,16.192248 4.889036,16.101261 4.8951017,16.012296 4.8627509,15.905134 4.828378,15.777752 4.7879394,15.652393 4.7333473,15.537143 4.6807771,15.419871 4.6120315,15.302599 4.5594613,15.181283 4.5351981,15.114559 4.5230666,15.045813 4.5048692,14.97909 4.4725183,14.888103 4.423992,14.79105 4.3896191,14.702085 4.3693998,14.63334 4.3512025,14.562572 4.3228954,14.49787 4.2804349,14.398796 4.2278647,14.28759 4.1874261,14.178405 4.1570971,14.091462 4.1530533,13.996432 4.1207024,13.909489 4.0661103,13.7538 4.0135401,13.579914 3.958948,13.428269 3.9265971,13.310997 3.9164874,13.191703 3.8800927,13.072409 3.8356102,12.934918 3.7749523,12.797427 3.724404,12.657914 3.6859874,12.546707 3.6758777,12.427414 3.6435268,12.312164 3.5909566,12.164563 3.5161452,12.027071 3.465597,11.871383 3.435268,11.746023 3.4292022,11.620663 3.4029171,11.503391 3.317996,11.214255 3.2249872,10.89479 3.1340004,10.597567 3.02886,10.267992 3.0187503,9.8939348 2.9237196,9.5603163 2.854974,9.3217285 2.7700529,9.0912284 2.6972634,8.8566845 2.6709783,8.7333467 2.6669344,8.6201186 2.6366055,8.5028467 2.5719037,8.2359519 2.4748511,7.8922237 2.3858861,7.6152192 2.3414036,7.4696402 2.3555572,7.3200174 2.3130966,7.1643287 2.2706361,7.0066182 2.2686142,6.8206006 2.2180659,6.6527803 2.185715,6.5516838 2.1472983,6.4768724 2.1230352,6.3454469 2.0947281,6.2140215 2.0967501,6.0603547 2.0785527,5.9612802 2.0603553,5.8622056 1.8905132,5.2798896 1.8702939,5.1707054 1.8500746,5.0635431 1.8500746,4.8653939 1.837943,4.7946263 1.8258114,4.7481219 1.7388684,4.4974025 1.7287587,4.4306788 1.7166272,4.3659771 1.7166272,4.2911656 1.692364,4.1617621 1.664057,4.0323585 1.5892455,3.7452444 1.577114,3.6623453 1.5629604,3.5774242 1.5629604,3.409604 1.546785,3.3267048 1.5285876,3.2438057 1.4739955,3.0497004 1.4355788,2.9122091 1.3890744,2.7443889 1.4274911,2.5684809 1.3809867,2.4107704 1.344592,2.2934984 1.3061753,2.1802703 1.2616928,2.0690641 1.2354077,1.9760553 1.2030568,1.8446299 1.196991,1.7859939 1.1909253,1.695007 1.1848595,1.5130333 1.1787937,1.4442876 1.1767717,1.3512788 1.1363331,1.1935683 1.1282454,1.056077 1.1161138,0.86803747 1.0756752,0.66988829 1.0453463,0.55463826 1.0291708,0.48589263 1.0352366,0.40501541 1.0210831,0.34233557 0.97255677,0.1583399 0.9280743,-0.01150225 0.8350655,6.293312e-4 0.7683418,0.01073898 0.7420567,0.06735303 0.77238566,0.18664693 c 0.0323509,0.14355706 0.0465044,0.25678516 0.0849211,0.39629836 0.0161754,0.0748114 0.0222412,0.26285095 0.0222412,0.32553079 0.006066,0.10109652 0.0101097,0.12333772 0.0222412,0.22241232 0.008088,0.036395 0.0242632,0.1294036 0.0363948,0.1698422 0.0141535,0.064702 0.0343728,0.1597325 0.0323509,0.2062369 0,0.064702 -0.002022,0.1334474 -0.002022,0.2264562 0,0.048526 0.002022,0.064702 0.0202193,0.1476009 0.0202193,0.080877 0.028307,0.099075 0.0343728,0.1657983 0.00404,0.058636 -0.00202,0.11525 0.00202,0.1657983 0,0.064702 0.00809,0.1273816 0.028307,0.1860176 0.034373,0.1233377 0.1132281,0.291158 0.082899,0.4711098 -0.036395,0.1920834 0.022241,0.3740571 0.066724,0.5398554 0.020219,0.1071623 0,0.2244343 0.020219,0.3275527 0.038417,0.1415351 0.074811,0.291158 0.1112062,0.4407808 0.030329,0.1213159 0.01011,0.2305001 0.042461,0.3477721 0.042461,0.1597325 0.1536668,0.378101 0.1698422,0.4508904 0.012132,0.072789 0.01011,0.2689168 0.030329,0.3942765 0.022241,0.1233377 0.05257,0.2668948 0.060658,0.3457501 0.01011,0.080877 -0.00202,0.11525 0.00607,0.173886 0.00809,0.058636 0.086943,0.3396843 0.099075,0.4124738 0.016175,0.072789 0.012131,0.1112062 0.028307,0.1860176 0.014153,0.078855 0.078855,0.3801229 0.090987,0.4771756 0.016175,0.099074 0.012132,0.1556886 0.030329,0.2547632 0.028307,0.1496228 0.088965,0.2749825 0.1192939,0.4185396 0.020219,0.1091842 0.014153,0.1759079 0.026285,0.260829 0.032351,0.1354693 0.076833,0.2567852 0.1010965,0.3841668 0.020219,0.1010965 0.022241,0.1981492 0.040439,0.3012676 0.046504,0.2163466 0.076833,0.434715 0.1374913,0.6510616 0.036395,0.1273816 0.1091842,0.2446536 0.1476009,0.3679913 0.030329,0.1132281 0.040439,0.2365659 0.070768,0.3477721 0.030329,0.09503 0.097053,0.1839952 0.1213158,0.2871142 0.016175,0.08896 0.014153,0.179952 0.030329,0.270939 0.022241,0.101096 0.066724,0.202193 0.086943,0.307333 0.016175,0.07886 0.00809,0.155689 0.030329,0.238588 0.026285,0.09099 0.07279,0.173886 0.095031,0.260829 0.020219,0.111206 0.020219,0.222412 0.048526,0.33564 0.032351,0.129404 0.086943,0.256785 0.1273816,0.376079 0.038417,0.111206 0.018197,0.234544 0.05257,0.35586 0.072789,0.262851 0.1597325,0.554009 0.2466755,0.800684 0.038417,0.131426 0.032351,0.268917 0.080877,0.412474 0.036395,0.09503 0.076833,0.159733 0.117272,0.242632 0.030329,0.08492 0.00202,0.17793 0.028307,0.274982 0.042461,0.159733 0.064702,0.37608 0.1233377,0.531768 0.06268,0.175908 0.1657983,0.319465 0.2264562,0.491329 0.06268,0.179952 0.066724,0.359904 0.1273817,0.547943 0.054592,0.159733 0.1374912,0.307334 0.1981491,0.452913 0.050548,0.127381 0.032351,0.297224 0.080877,0.434715 0.056614,0.147601 0.1597325,0.260829 0.2183684,0.412474 0.06268,0.173886 0.1051404,0.347772 0.1577106,0.519636 0.020219,0.07481 0.032351,0.147601 0.046504,0.22039 0.064702,0.226456 0.1860176,0.414496 0.2648729,0.628821 0.030329,0.09907 0.038417,0.183995 0.066724,0.277004 0.054592,0.155689 0.117272,0.315421 0.1900615,0.461 0.058636,0.133448 0.1455789,0.264873 0.2062369,0.39832 0.054592,0.123338 0.064702,0.246676 0.1172719,0.376079 0.050548,0.123338 0.1091843,0.256786 0.1556887,0.384167 0.030329,0.07886 0.032351,0.149623 0.066724,0.222413 0.1536667,0.341706 0.3396843,0.687456 0.4973948,1.021074 0.082899,0.183996 0.1233378,0.382145 0.2123027,0.570185 0.066724,0.145579 0.1496229,0.285092 0.2163466,0.442803 0.040439,0.09907 0.05257,0.194105 0.095031,0.287114 0.084921,0.183995 0.2062369,0.370013 0.2871141,0.549965 0.022241,0.04853 0.088965,0.242631 0.060658,0.317443 -0.00404,0.01011 -0.00404,0.02426 -0.018197,0.03033 -0.056614,0.01415 -0.1698422,-0.0829 -0.234544,-0.147601 C 6.7431461,23.335728 6.7087733,22.92932 6.5571285,22.652316 6.514668,22.571438 6.4600759,22.484495 6.4236811,22.401596 6.4014399,22.340938 6.3893083,22.284324 6.3610013,22.22771 6.2659706,22.047758 6.1466767,21.886004 6.0637775,21.695943 6.0010977,21.558451 5.99301,21.402763 5.934374,21.273359 5.6856765,20.735526 5.3965405,20.219933 5.1579527,19.680078 5.0487685,19.435424 5.0245053,19.15842 4.9294746,18.891525 4.8708386,18.733814 4.7758079,18.606433 4.7090841,18.45681 4.6585359,18.34156 4.6464043,18.220244 4.5918122,18.10095 4.5230666,17.949305 4.423992,17.805748 4.365356,17.637928 4.3309832,17.530766 4.3148077,17.421582 4.2743691,17.316441 4.2238209,17.197147 4.1449656,17.098073 4.0923954,16.984845 4.017584,16.815003 4.0054524,16.647182 3.9508602,16.453077 3.9185094,16.347937 3.8760488,16.240774 3.8436979,16.145744 3.8174128,16.056779 3.8052813,15.96377 3.7749523,15.878849 3.7021628,15.674634 3.580847,15.496704 3.5040136,15.288445 3.4534654,15.148932 3.465597,14.971002 3.4029171,14.835533 3.3543908,14.724327 3.2654258,14.635362 3.2209434,14.51809 3.1703951,14.394752 3.2168995,14.249173 3.1764609,14.105616 3.1400662,13.968125 3.0834521,13.840743 3.0389696,13.709317 3.0147065,13.626418 3.0066188,13.547563 2.9843775,13.468708 2.9196757,13.302909 2.8610398,13.135089 2.8024038,12.969291 2.7700529,12.88437 2.7700529,12.805515 2.7356801,12.728681 2.6891757,12.629607 2.6184081,12.536598 2.5799914,12.429436 2.5375309,12.265659 2.5253993,12.095817 2.4869826,11.938106 2.4222809,11.723782 2.3434256,11.55394 2.2807457,11.349725 2.2686142,11.285023 2.2686142,11.222343 2.2483949,11.149554 2.1978466,10.96758 2.1735834,10.763365 2.1230352,10.581391 2.1028159,10.492426 2.1068597,10.417615 2.0846185,10.330672 2.0340702,10.158808 1.9774562,9.9869436 1.924886,9.8231672 1.896579,9.713983 1.8925351,9.6068207 1.8642281,9.5037022 1.7813289,9.2347855 1.7044956,8.9173424 1.6256403,8.6585353 1.605421,8.5817019 1.6094648,8.5109344 1.5872236,8.4260133 1.5225218,8.2197764 1.4376008,7.9731009 1.3910964,7.7607982 1.3688551,7.6374605 1.3668332,7.5181666 1.3405481,7.4049385 1.3081972,7.2613814 1.257649,7.1238901 1.2293419,6.9803331 c -0.01011,-0.066724 0,-0.1152501 -0.00607,-0.1718641 C 1.2111446,6.7154602 1.2030568,6.6244733 1.1868814,6.5314645 1.0918507,6.1574074 0.9482936,5.7004511 0.86741639,5.3284159 0.84113129,5.1929466 0.83708743,5.0574773 0.82293392,4.9240299 0.80675848,4.8310211 0.80069268,4.7218368 0.77440759,4.6247842 0.74407863,4.5277315 0.7016181,4.426635 0.68544265,4.3255385 0.66522335,4.165806 0.66522335,4.0080954 0.64096018,3.8544287 c 0,-0.01011 -0.006066,-0.022241 -0.008088,-0.034373 C 0.60052158,3.6279725 0.50549085,3.2397618 0.48324961,3.0840732 0.45898645,2.9000775 0.43674521,2.7100161 0.41248205,2.5300643 0.40843819,2.4107704 0.38821888,2.2854107 0.37406537,2.160051 0.34575834,1.9679676 0.30127588,1.8001474 0.27903464,1.5999763 0.26488113,1.4685508 0.27094692,1.3512788 0.25477148,1.2380507 0.24668376,1.1672832 0.24263989,1.0459673 0.15165303,1.0459673 c -0.08694301,0 -0.07481143,0.1031185 -0.08087722,0.1860176 -0.01213158,0.1981492 0.0262851,0.4589782 0.04246054,0.582316 0.0262851,0.2284781 0.008088,0.4529124 0.030329,0.6854344 0.0161754,0.1314255 0.0566141,0.260829 0.0707676,0.3841668 0.0323509,0.2203904 0.0545921,0.4448247 0.0828991,0.6551054 l 0,0.012132 c 0.008088,0.099075 0.0202193,0.1961273 0.0384167,0.2891361 0.002022,0.01011 0.002022,0.020219 0.006066,0.028307 0,0.00607 0,0.01011 0.002022,0.014153 0.002022,0.00607 0.002022,0.00809 0.004044,0.016175 l 0.002022,0 c 0.008088,0.044482 0.0161754,0.086943 0.028307,0.1294036 0.0222412,0.082899 0.0141535,0.1516448 0.0384167,0.2385878 0.0667237,0.2547632 0.0505483,0.5317677 0.12333775,0.7784432 0.10109652,0.3700132 0.15366671,0.7804651 0.26082902,1.1444126 0.0262851,0.1071623 0,0.2143246 0.030329,0.3295746 0.028307,0.117272 0.058636,0.2284782 0.086943,0.3457501 0.028307,0.1374913 0.008088,0.2810484 0.0465044,0.4225835 0.0323509,0.1294035 0.0707675,0.260829 0.10514038,0.3841668 0.040439,0.1516447 0.044482,0.3073334 0.084921,0.4711098 0.048526,0.1637763 0.1031185,0.3437281 0.1334474,0.5115483 0.032351,0.1900615 0.05257,0.4043861 0.088965,0.6065792 0.030329,0.1657983 0.1213159,0.3659694 0.1617545,0.5479431 0.012132,0.060658 0.00607,0.1213158 0.016175,0.1819737 0.022241,0.1314251 0.06268,0.2588081 0.088965,0.3841671 0.014154,0.05864 0.01011,0.111205 0.028307,0.173885 0.058636,0.238588 0.1354693,0.539857 0.2102807,0.778443 0.018197,0.0647 0.026285,0.133448 0.042461,0.202193 0.048526,0.169843 0.099075,0.295202 0.1192939,0.386189 0.016175,0.07885 0.024263,0.173886 0.046504,0.260829 0.036395,0.129404 0.074811,0.242632 0.099075,0.35586 0.020219,0.08896 0.034373,0.16782 0.058636,0.256785 0.028307,0.107162 0.070768,0.206237 0.11525,0.311377 0.072789,0.214325 0.080877,0.442803 0.1577106,0.653084 0.046504,0.123338 0.1051403,0.244653 0.1455789,0.376079 0.034373,0.121316 0.042461,0.268917 0.078855,0.406408 0.074812,0.206237 0.1536667,0.442803 0.2284782,0.651062 0.088965,0.248697 0.143557,0.517614 0.2264562,0.752158 0.036395,0.09503 0.028307,0.186017 0.060658,0.287114 0.068746,0.232522 0.1496228,0.497395 0.2264562,0.733961 0.040439,0.125359 0.040439,0.246675 0.090987,0.365969 0.078855,0.198149 0.1941053,0.363947 0.2689167,0.568162 0.060658,0.175908 0.074811,0.349794 0.1435571,0.509527 0.086943,0.216346 0.1839956,0.436737 0.2709386,0.665215 0.056614,0.157711 0.076833,0.313399 0.1415352,0.461 0.054592,0.127382 0.1273816,0.258807 0.1880395,0.388211 0.038417,0.113228 0.076833,0.222412 0.1132281,0.33564 0.032351,0.08694 0.1233377,0.232522 0.1860176,0.347772 0.070768,0.155689 0.080877,0.321487 0.1415351,0.489307 0.090987,0.254764 0.2183685,0.513571 0.3235089,0.752158 0.042461,0.09301 0.048526,0.179952 0.086943,0.279027 0.064702,0.169842 0.173886,0.297224 0.2446536,0.454934 0.068746,0.149623 0.086943,0.307334 0.1516447,0.450891 0.099075,0.212302 0.1698422,0.321487 0.1698422,0.624776 -0.00202,0.02831 -0.00809,0.04853 -0.040439,0.06066 -0.054592,0.02224 -0.119294,-0.07481 -0.1577107,-0.109185 C 5.6492818,23.448956 5.6250186,23.295289 5.5219002,23.074899 5.3682335,22.741281 5.1721062,22.425859 5.0204614,22.102351 4.9395842,21.932508 4.9072333,21.746491 4.828378,21.570583 4.7798517,21.465442 4.7090841,21.35828 4.6625797,21.25314 4.5918122,21.099473 4.5554174,20.939741 4.4765622,20.802249 4.365356,20.602078 4.2743691,20.359447 4.1833822,20.135012 4.1490094,20.050091 4.1449656,19.967192 4.1085708,19.884293 4.0681322,19.795328 4.0034304,19.718495 3.9650138,19.631552 3.9083997,19.496082 3.869983,19.324218 3.813369,19.180661 3.6900312,18.911744 3.55254,18.626652 3.4473996,18.34156 3.3523688,18.080731 3.3078864,17.830012 3.2128557,17.563117 3.172417,17.453933 3.1198469,17.336661 3.0814302,17.225454 3.0511012,17.12638 3.0490793,17.039437 3.0147065,16.946428 2.9277635,16.70784 2.8165573,16.453077 2.7114169,16.224599 2.6628906,16.109349 2.6487371,16.000165 2.6042546,15.878849 2.5537063,15.729226 2.4869826,15.569493 2.4344124,15.425936 2.3636449,15.233853 2.361623,15.009419 2.2888335,14.809248 2.1351667,14.376554 1.9329737,13.925664 1.7995263,13.47073 1.7752631,13.365589 1.7833509,13.258427 1.751,13.153287 1.6802324,12.92683 1.605421,12.674089 1.5346534,12.429436 1.4557981,12.160519 1.4638859,11.877449 1.3809867,11.614598 1.2738244,11.272891 1.1504866,10.917032 1.0453463,10.581391 1.0150173,10.480295 1.0291708,10.373132 0.99681993,10.263948 0.92605237,10.005141 0.8350655,9.6978075 0.74812249,9.4571978 0.70566196,9.335882 0.70566196,9.2044565 0.65915756,9.0912284 0.60456544,8.9517152 0.46505224,9.0022635 0.47718382,9.1579521 c 0.0101097,0.1415351 0.058636,0.3214869 0.0727895,0.3942764 0.0161754,0.097053 0.0161754,0.1941054 0.0384167,0.2972238 0.0424605,0.1819737 0.10109652,0.3336187 0.15164478,0.4994167 0.0566141,0.173886 0.0566141,0.333619 0.10311845,0.511549 0.028307,0.08694 0.0626798,0.183995 0.0889649,0.266894 0.0525702,0.17793 0.0525702,0.367992 0.11322815,0.529746 0.046504,0.123338 0.080877,0.279026 0.1213158,0.414496 0.024263,0.08896 0.020219,0.161754 0.048526,0.250719 0.046504,0.161755 0.097053,0.321487 0.1496229,0.483242 0.024263,0.09099 0.016175,0.171864 0.034373,0.256785 0.036395,0.129403 0.066724,0.258807 0.1031184,0.378101 0.032351,0.113228 0.028307,0.270938 0.068746,0.392254 0.070768,0.220391 0.1536667,0.454935 0.2264562,0.665215 0.084921,0.232522 0.095031,0.473132 0.1779298,0.71172 0.1516448,0.416517 0.2891361,0.897737 0.4387589,1.32032 0.040439,0.107163 0.028307,0.218369 0.060658,0.335641 0.050548,0.179952 0.090987,0.359903 0.1536667,0.539855 0.030329,0.08492 0.086943,0.171864 0.1213158,0.248698 0.050548,0.103118 0.060658,0.214324 0.1091842,0.321487 0.038417,0.0829 0.093009,0.169842 0.1253597,0.256785 0.046504,0.133447 0.030329,0.299245 0.082899,0.424605 0.038417,0.101097 0.093009,0.212303 0.1334474,0.317443 0.044482,0.11525 0.042461,0.24061 0.090987,0.349794 0.038417,0.09301 0.1071623,0.183996 0.1516448,0.277005 0.044482,0.08694 0.05257,0.179951 0.084921,0.279026 0.040439,0.101097 0.095031,0.204215 0.1374913,0.299246 0.046504,0.10514 0.048526,0.226456 0.099075,0.337662 0.040439,0.09503 0.1051403,0.186018 0.143557,0.289136 0.038417,0.107162 0.040439,0.222412 0.078855,0.335641 0.064702,0.163776 0.1657983,0.307333 0.2365659,0.463022 0.05257,0.11525 0.058636,0.246675 0.1112061,0.365969 0.058636,0.137491 0.1415352,0.270939 0.204215,0.402364 0.080877,0.181974 0.1415351,0.372035 0.2224123,0.541878 0.1334474,0.303289 0.1799518,0.634886 0.319465,0.932109 0.1010966,0.224435 0.2406098,0.430672 0.3396843,0.647018 0.05257,0.123338 0.070768,0.252741 0.1273817,0.36597 0.060658,0.131425 0.171864,0.242631 0.2305,0.378101 0.048526,0.131425 0.086943,0.266894 0.1435571,0.394276 0.078855,0.16782 0.1860176,0.319465 0.2628509,0.483241 0.044482,0.09301 0.064702,0.183996 0.1071624,0.277005 0.082899,0.183996 0.2224123,0.333618 0.3073334,0.51357 0.040439,0.117272 0.084921,0.234544 0.1253597,0.35586 0.090987,0.192083 0.2345439,0.35586 0.3295746,0.549965 0.064702,0.143557 0.1112062,0.29318 0.1961273,0.424605 0.1294035,0.204215 0.2143246,0.337663 0.3417062,0.545922 0.082899,0.133447 0.1941053,0.329574 0.260829,0.475153 0.066724,0.145579 0.1779299,0.264873 0.2426317,0.406408 0.066724,0.139513 0.1516447,0.291158 0.2264562,0.422584 0.084921,0.149623 0.1698421,0.256785 0.2648729,0.39832 0.1496228,0.228478 0.2446535,0.473132 0.3942764,0.705654 0.1031184,0.161754 0.2224123,0.32553 0.3356404,0.481219 0.3053115,0.41854 0.7400263,1.160588 0.9240223,1.411308 0.155688,0.202193 0.28307,0.444824 0.426627,0.655105 0.107162,0.16782 0.244654,0.329575 0.363948,0.483241 0.09907,0.12536 0.175907,0.262851 0.270938,0.396299 l 0.07683,0.101096 c 3.884128,4.939576 7.87744,8.207016 11.258108,10.352284 l -0.002,0.002 c 1.783343,1.112062 2.74376,1.43557 2.74376,1.43557 0.224434,0.09503 0.07279,0.258807 -0.04448,0.331597 L 5.2853343,59.663752 c -0.06268,0.04246 -0.2163465,0.155688 -0.1536667,0.281048 0.046504,0.09503 0.2486974,0.04246 0.3032896,0.02426 C 21.527501,54.321811 33.202127,49.677437 40.339542,46.290704 c 7.236489,-3.433238 9.666849,-5.398554 9.401976,-6.377169" style="fill:#006b6e;stroke:none" />
  <path d="m 269.40443,33.77922 0,-1.1464 1.39109,0 c 1.7146,0 3.48581,0 4.54732,0.3477 2.80442,0.8331 4.22179,2.9723 4.22179,6.3347 0,2.7499 -1.74897,6.8362 -6.58138,6.8362 -1.39514,0 -2.85295,-0.556 -3.57882,-0.8876 l 0,-11.4846 z m 5.65332,15.2211 c 6.55712,0 10.46753,-4.9659 10.46753,-9.7558 0,-2.6508 -0.98064,-7.372 -7.61054,-9.0441 -1.47601,-0.3781 -3.12793,-0.4004 -5.28735,-0.4004 l -11.66654,-0.012 0.19815,0.1941 c 0,0 1.9916,0.2972 1.9916,3.7972 l 0,21.7721 c 0,3.498 -1.9916,3.7912 -1.9916,3.7912 l -0.19815,0.2082 10.61918,0 -0.19613,-0.2082 c 0,0 -1.97947,-0.2932 -1.97947,-3.7912 l 0,-7.5883 c 0.92402,0.4125 2.79431,1.0373 5.65332,1.0373 m 154.8738,1.3082 -2.33937,7.9664 c 0,0 -5.06898,1.7247 -9.41411,1.7247 -11.53916,0 -17.13182,-7.928 -17.13182,-15.1079 0,-8.9268 6.77954,-15.5769 17.56451,-15.5769 5.9647,0 10.1784,2.0583 10.1784,2.0583 l 0,6.4318 -0.17389,-0.1436 c 0,0 -2.51932,-5.4491 -9.52531,-5.4491 -6.75729,0 -11.04985,4.9982 -11.04985,12.6391 0,7.6469 4.42803,11.8384 10.80924,11.8384 7.04845,0 10.81935,-6.2154 10.81935,-6.2154 l 0.26285,-0.1658 z m -74.98329,-16.5293 0,21.7721 c 0,3.498 1.99565,3.7912 1.99565,3.7912 l 0.20017,0.2082 -10.63333,0 0.20421,-0.2082 c 0,0 1.98351,-0.2932 1.98351,-3.7912 l 0,-21.7721 c 0,-3.5 -1.98351,-3.7972 -1.98351,-3.7972 l -0.20421,-0.1941 10.63333,0 -0.20017,0.1941 c 0,0 -1.99565,0.2972 -1.99565,3.7972 m 24.84144,-3.9913 c 3.50603,0 4.01151,-0.3356 4.01151,-0.3356 l 0,5.3136 -0.20219,-0.1618 c 0,0 -1.45984,-2.0098 -4.96789,-2.0098 l -7.53573,0 0,9.5112 6.27,0 c 3.49794,0 3.79315,-1.5306 3.79315,-1.5306 l 0.20825,-0.2062 0,6.3933 -0.20825,-0.2062 c 0,0 -0.29521,-1.5367 -3.79315,-1.5367 l -6.27,0 0,10.5242 0,0.01 c 0,3.498 1.97542,3.7912 1.97542,3.7912 l 0.21028,0.2082 -10.61917,0 0.19006,-0.2082 c 0,0 1.98553,-0.2932 1.98553,-3.7912 l 0,-21.762 c 0,-3.502 -1.98553,-3.7952 -1.98553,-3.7952 l -0.19006,-0.2062 17.12777,0 z m -37.37539,20.6864 0.25275,-0.1658 -2.32927,7.9664 c 0,0 -5.06696,1.7247 -9.42219,1.7247 -11.52703,0 -17.11969,-7.928 -17.11969,-15.1079 0,-8.9268 6.7674,-15.5709 17.56249,-15.5709 5.97076,0 10.16829,2.0523 10.16829,2.0523 l 0,6.4318 -0.16782,-0.1436 c 0,0 -2.52539,-5.4491 -9.51521,-5.4491 -6.76538,0 -11.04985,4.9982 -11.04985,12.6391 0,7.6469 4.41186,11.8384 10.80318,11.8384 7.03025,0 10.81732,-6.2154 10.81732,-6.2154 m 53.43963,-16.6951 0,21.7721 c 0,3.498 1.98755,3.7912 1.98755,3.7912 l 0.20017,0.2082 -10.63131,0 0.20018,-0.2082 c 0,0 1.98755,-0.2932 1.98755,-3.7912 l 0,-21.7721 c 0,-3.5 -1.98755,-3.7972 -1.98755,-3.7972 l -0.20018,-0.1941 10.63131,0 -0.20017,0.1941 c 0,0 -1.98755,0.2972 -1.98755,3.7972 m -103.88072,14.3921 4.58574,-9.6487 4.18944,9.6487 -8.77518,0 z m 19.01827,7.3255 -13.06975,-27.2011 -12.98888,27.2011 c -1.94712,3.7203 -4.08835,3.7992 -4.08835,3.7992 l -0.20017,0.2062 8.88032,0 -0.19411,-0.2062 c 0,0 -2.49101,-0.4914 -0.91593,-3.7992 l 2.34342,-4.8021 11.12668,0 2.26456,4.8021 c 1.57509,3.3078 -0.90987,3.7992 -0.90987,3.7992 l -0.20017,0.2062 12.24481,0 -0.20421,-0.2062 c 0,0 -2.25445,-0.016 -4.08835,-3.7992 m -124.31636,0.014 c 0,-3.502 -0.0121,-18.2702 -0.0121,-21.7721 0,-3.502 1.98756,-3.7568 1.98756,-3.7568 l 0.20422,-0.1941 -10.63131,0 0.1941,0.1941 c 0,0 1.98958,0.2548 1.98958,3.7568 0,3.5019 0.0162,8.5467 0.0162,8.5467 l -14.6226,0 0,-8.5467 c 0,-3.502 1.99362,-3.7447 1.99362,-3.7447 l 0.1941,-0.2021 -10.62322,0 0.20826,0.2021 c 0,0 1.98149,0.2427 1.98149,3.7447 l 0,21.7721 c 0,3.5081 -1.98149,3.8093 -1.98149,3.8093 l -0.20826,0.1982 10.62322,0 -0.1941,-0.1982 c 0,0 -1.99362,-0.3012 -1.99362,-3.8093 l 0,-10.3098 14.6226,0 0,10.3098 c 0,3.5081 -1.98149,3.8093 -1.98149,3.8093 l -0.20624,0.1982 10.63535,0 -0.20623,-0.1982 c 0,0 -1.98958,-0.3012 -1.98958,-3.8093 m -55.79315,-25.7189 c -3.50603,0 -3.99938,-0.3357 -3.99938,-0.3357 l -0.0121,5.9162 0.20421,-0.1496 c 0,0 1.59935,-2.5638 5.09325,-2.5638 l 4.99012,0 0,22.8518 c 0,3.5081 -1.97543,3.8093 -1.97543,3.8093 l -0.20623,0.1982 10.62726,0 -0.19815,-0.1982 c 0,0 -1.98958,-0.3012 -1.98958,-3.8093 l 0.0263,-22.8518 4.87083,0 c 3.50603,0 5.18827,2.5638 5.18827,2.5638 l 0.20624,0.1496 0.0121,-5.9162 c 0,0 -0.49537,0.3357 -4.0014,0.3357 l -18.8363,0 z m 70.34498,18.3793 4.59382,-9.6487 4.18136,9.6487 -8.77518,0 z m 19.03041,7.3255 -13.07785,-27.2011 -12.99292,27.2011 c -1.94308,3.7203 -4.08632,3.7992 -4.08632,3.7992 l -0.2022,0.2062 8.88639,0 -0.19006,-0.2062 c 0,0 -2.489,-0.4914 -0.91998,-3.7992 l 2.3333,-4.8021 11.14084,0 2.26052,4.8021 c 1.58115,3.3078 -0.90583,3.7992 -0.90583,3.7992 l -0.20219,0.2062 12.24279,0 -0.20421,-0.2062 c 0,0 -2.25648,-0.016 -4.08228,-3.7992 m 20.98157,-25.7048 0.20624,0.2021 c 0,0 2.62648,0.7381 0.64499,3.8195 -0.97052,1.4982 -3.89626,5.6856 -6.56116,9.7335 -2.67704,-4.0479 -5.56031,-8.2616 -6.52275,-9.7578 -1.97947,-3.0855 0.65713,-3.7952 0.65713,-3.7952 l 0.19208,-0.2021 -12.24077,0 0.19815,0.2021 c 0,0 1.77121,0.2932 4.09643,3.7952 0.97458,1.478 5.9465,8.4254 8.62152,12.4794 l 0,9.2422 c 0,3.5081 -1.98756,3.8093 -1.98756,3.8093 l -0.19815,0.1982 10.62727,0 -0.20422,-0.1982 c 0,0 -1.97947,-0.3012 -1.97947,-3.8093 0,-1.4821 -0.0202,-5.1964 -0.0202,-9.2422 2.67906,-4.054 7.6611,-10.9731 8.64173,-12.4551 2.30096,-3.498 4.94767,-3.8195 4.94767,-3.8195 l 0.20623,-0.2021 -9.32514,0 z M 84.990284,56.68972 c -6.393344,0 -10.805196,-4.1915 -10.805196,-11.8384 0,-7.6409 4.288514,-12.6391 11.037718,-12.6391 7.005989,0 9.525314,5.4491 9.525314,5.4491 l 0.165798,0.1436 0,-6.4318 c 0,0 -4.193483,-2.0523 -10.17031,-2.0523 -10.78902,0 -17.560465,6.6441 -17.560465,15.5709 0,7.1799 5.592659,15.1079 17.123729,15.1079 4.349172,0 9.422195,-1.7247 9.422195,-1.7247 l 2.331286,-7.9664 -0.256785,0.1658 c 0,0 -3.78101,6.2154 -10.813284,6.2154 m 22.603156,-8.5184 4.58979,-9.6487 4.18337,9.6487 -8.77316,0 z m 19.02839,7.3255 -13.07784,-27.2011 -12.99091,27.2011 c -1.943073,3.7203 -4.092385,3.7992 -4.092385,3.7992 l -0.194105,0.2062 8.89649,0 -0.21432,-0.2062 c 0,0 -2.48293,-0.4914 -0.90178,-3.7992 l 2.32724,-4.8021 11.13679,0 2.26254,4.8021 c 1.57104,3.3078 -0.91189,3.7992 -0.91189,3.7992 l -0.1941,0.2062 12.24683,0 -0.21028,-0.2062 c 0,0 -2.2585,-0.016 -4.08228,-3.7992" style="fill:#006b6e;stroke:none" />
</svg>
