<?xml version="1.0" encoding="UTF-8" standalone="no"?>
<!-- Created with Inkscape (http://www.inkscape.org/) -->

<svg
   xmlns:dc="http://purl.org/dc/elements/1.1/"
   xmlns:cc="http://creativecommons.org/ns#"
   xmlns:rdf="http://www.w3.org/1999/02/22-rdf-syntax-ns#"
   xmlns:svg="http://www.w3.org/2000/svg"
   xmlns="http://www.w3.org/2000/svg"
   xmlns:sodipodi="http://sodipodi.sourceforge.net/DTD/sodipodi-0.dtd"
   xmlns:inkscape="http://www.inkscape.org/namespaces/inkscape"
   width="190.22142"
   height="93.160004"
   viewBox="0 0 50.329418 24.648584"
   version="1.1"
   id="svg5162"
   inkscape:version="0.92.0 r15299"
   sodipodi:docname="ravn alaska.svg">
  <defs
     id="defs5156">
    <clipPath
       id="clipPath4540"
       clipPathUnits="userSpaceOnUse">
      <path
         inkscape:connector-curvature="0"
         id="path4538"
         d="m 1458,6096 h 325 v -209 h -325 z" />
    </clipPath>
    <clipPath
       id="clipPath4530"
       clipPathUnits="userSpaceOnUse">
      <path
         inkscape:connector-curvature="0"
         id="path4528"
         d="m 1460,6337 h 308 v -427 h -308 z" />
    </clipPath>
    <clipPath
       id="clipPath4516"
       clipPathUnits="userSpaceOnUse">
      <path
         inkscape:connector-curvature="0"
         id="path4514"
         d="m 1071,5835 h 54 v -74 h -54 z" />
    </clipPath>
  </defs>
  <sodipodi:namedview
     id="base"
     pagecolor="#ffffff"
     bordercolor="#666666"
     borderopacity="1.0"
     inkscape:pageopacity="0.0"
     inkscape:pageshadow="2"
     inkscape:zoom="4.2384207"
     inkscape:cx="94.610712"
     inkscape:cy="46.079996"
     inkscape:document-units="mm"
     inkscape:current-layer="layer1"
     showgrid="false"
     fit-margin-top="0"
     fit-margin-left="0"
     fit-margin-right="0"
     fit-margin-bottom="0"
     units="px"
     inkscape:window-width="1280"
     inkscape:window-height="744"
     inkscape:window-x="-4"
     inkscape:window-y="-4"
     inkscape:window-maximized="1" />
  <metadata
     id="metadata5159">
    <rdf:RDF>
      <cc:Work
         rdf:about="">
        <dc:format>image/svg+xml</dc:format>
        <dc:type
           rdf:resource="http://purl.org/dc/dcmitype/StillImage" />
        <dc:title></dc:title>
      </cc:Work>
    </rdf:RDF>
  </metadata>
  <g
     inkscape:label="Layer 1"
     inkscape:groupmode="layer"
     id="layer1"
     transform="translate(-104.99139,-265.64461)">
    <g
       id="g5237"
       transform="translate(0.13229108,-0.13228468)">
      <path
         d="m 105.83806,289.02319 h 0.84666 l -0.42333,-1.27 v 0 z m 0.16933,-1.778 h 0.508 l 1.05833,3.00567 h -0.55033 l -0.21167,-0.80433 h -1.10066 l -0.254,0.80433 h -0.46567 l 1.016,-3.00567"
         style="fill:#a91b2d;fill-opacity:1;fill-rule:nonzero;stroke:none;stroke-width:0.04233333"
         id="path4504"
         inkscape:connector-curvature="0" />
      <path
         d="m 111.97639,287.24519 h 0.46567 v 2.54 h 1.397 v 0.46567 h -1.86267 v -3.00567"
         style="fill:#a91b2d;fill-opacity:1;fill-rule:nonzero;stroke:none;stroke-width:0.04233333"
         id="path4506"
         inkscape:connector-curvature="0" />
      <path
         d="m 119.00372,289.02319 h 0.80434 l -0.42334,-1.27 v 0 z m 0.16934,-1.778 h 0.46566 l 1.05834,3.00567 h -0.508 l -0.254,-0.80433 h -1.05834 l -0.29633,0.80433 h -0.46567 l 1.05834,-3.00567"
         style="fill:#a91b2d;fill-opacity:1;fill-rule:nonzero;stroke:none;stroke-width:0.04233333"
         id="path4508"
         inkscape:connector-curvature="0" />
      <g
         transform="matrix(0.04233333,0,0,-0.04233333,79.591564,534.1755)"
         id="g4510">
        <g
           id="g4512"
           clip-path="url(#clipPath4516)">
          <path
             d="m 1082,5786 v 0 c 0,-3 0,-5 1,-7 1,-2 2,-3 3,-5 2,-1 4,-2 6,-2 2,-1 4,-1 6,-1 2,0 4,0 6,1 2,1 3,1 4,2 1,1 2,2 3,4 0,1 1,2 1,4 0,2 -1,4 -2,6 -1,1 -2,2 -4,2 -2,1 -5,2 -8,3 -3,1 -7,2 -11,3 -3,1 -5,2 -7,3 -2,2 -3,3 -4,5 -1,1 -2,3 -2,5 -1,1 -1,3 -1,5 0,4 1,7 2,9 1,3 3,5 5,7 2,2 5,3 8,4 3,0 5,1 8,1 4,0 7,-1 10,-2 3,0 5,-2 8,-4 2,-2 4,-4 5,-7 1,-3 2,-6 2,-10 h -11 c -1,5 -2,8 -5,10 -2,2 -5,3 -9,3 -1,0 -3,0 -4,-1 -2,0 -3,0 -4,-1 -1,-1 -2,-2 -3,-3 0,-1 -1,-3 -1,-4 0,-3 1,-5 2,-6 2,-2 3,-3 6,-4 0,0 1,0 3,0 1,-1 3,-1 5,-2 2,-1 4,-1 6,-2 2,0 3,-1 4,-1 2,-1 4,-2 6,-3 1,-1 2,-3 4,-4 1,-2 1,-4 2,-5 0,-2 1,-4 1,-6 0,-4 -1,-7 -3,-10 -1,-3 -3,-5 -5,-7 -3,-2 -5,-3 -9,-4 -2,-1 -6,-1 -9,-1 -3,0 -7,0 -10,1 -3,1 -6,3 -9,5 -2,2 -4,4 -5,8 -2,3 -2,7 -2,11 h 11"
             style="fill:#a91b2d;fill-opacity:1;fill-rule:nonzero;stroke:none"
             id="path4518"
             inkscape:connector-curvature="0" />
        </g>
      </g>
      <path
         d="m 131.66156,287.24519 h 0.508 v 1.35467 l 1.18533,-1.35467 h 0.59267 l -1.05833,1.18534 1.143,1.82033 h -0.59267 l -0.889,-1.43933 -0.381,0.42333 v 1.016 h -0.508 v -3.00567"
         style="fill:#a91b2d;fill-opacity:1;fill-rule:nonzero;stroke:none;stroke-width:0.04233333"
         id="path4520"
         inkscape:connector-curvature="0" />
      <path
         d="m 139.15456,289.02319 h 0.84667 l -0.42334,-1.27 v 0 z m 0.16933,-1.778 h 0.508 l 1.05834,3.00567 h -0.508 l -0.254,-0.80433 h -1.10067 l -0.254,0.80433 h -0.46567 l 1.016,-3.00567"
         style="fill:#a91b2d;fill-opacity:1;fill-rule:nonzero;stroke:none;stroke-width:0.04233333"
         id="path4522"
         inkscape:connector-curvature="0" />
      <g
         transform="matrix(0.04233333,0,0,-0.04233333,79.591564,534.1755)"
         id="g4524">
        <g
           id="g4526"
           clip-path="url(#clipPath4530)">
          <path
             d="m 1607,6338 v 0 c 22,-19 62,-117 -32,-272 -34,-56 -84,-126 -113,-151 -2,-2 -1,-3 5,1 29,17 188,148 224,202 20,32 75,118 8,174 -47,39 -92,46 -92,46"
             style="fill:#a91b2d;fill-opacity:1;fill-rule:nonzero;stroke:none"
             id="path4532"
             inkscape:connector-curvature="0" />
        </g>
      </g>
      <g
         transform="matrix(0.04233333,0,0,-0.04233333,79.591564,534.1755)"
         id="g4534">
        <g
           id="g4536"
           clip-path="url(#clipPath4540)">
          <path
             d="m 1729,6092 v 0 c -1,-37 -59,-108 -164,-156 -51,-23 -92,-40 -100,-43 -7,-3 -4,-4 3,-3 19,2 69,12 90,18 64,15 172,42 212,83 28,30 2,66 -7,75 -8,9 -34,30 -34,26"
             style="fill:#a91b2d;fill-opacity:1;fill-rule:nonzero;stroke:none"
             id="path4542"
             inkscape:connector-curvature="0" />
        </g>
      </g>
      <path
         d="m 152.99756,283.85853 v 0 c -0.127,-0.16934 -0.21167,1.651 -5.50334,1.69333 -3.04799,0 -5.54566,-0.16933 -5.96899,-0.127 -0.0847,0.0423 -0.16934,0.0847 0.0423,0.127 0.42333,0.16933 2.32833,0.508 2.96333,0.635 1.48167,0.29633 5.969,1.27 7.874,0.93133 1.86267,-0.33866 1.35467,-1.69333 1.27,-1.905 -0.21167,-0.508 -0.55033,-1.18533 -0.67733,-1.35466"
         style="fill:#a91b2d;fill-opacity:1;fill-rule:nonzero;stroke:none;stroke-width:0.04233333"
         id="path4544"
         inkscape:connector-curvature="0" />
      <path
         d="m 119.93506,282.80019 v 0 c -0.127,0.381 -0.381,0.71967 -0.71967,1.016 -0.381,0.254 -0.84667,0.46567 -1.43933,0.46567 -0.381,0 -0.71967,-0.127 -1.016,-0.381 -0.254,-0.254 -0.42334,-0.59267 -0.42334,-1.143 0,-0.42333 0.127,-0.71967 0.29634,-0.97367 0.29633,-0.381 0.762,-0.635 1.31233,-0.80433 0.59267,-0.127 1.27,-0.21167 1.905,-0.21167 0.0423,0 0.127,0 0.16933,0 v 1.524 c 0,0.127 -0.0423,0.29634 -0.0847,0.508 z m 1.86266,0.381 v -3.429 c 0,-0.97366 -0.16933,-1.905 -0.67733,-2.667 -0.29633,-0.33866 -0.635,-0.67733 -1.10067,-0.889 -0.46566,-0.21166 -1.05833,-0.33866 -1.778,-0.33866 -1.143,0 -2.286,0.33866 -3.048,0.80433 l -0.0847,0.0847 0.46567,1.31233 0.0847,-0.0847 c 0.635,-0.42333 1.48167,-0.67733 2.32833,-0.67733 v 0 c 0.0423,0 0.0423,0 0.0423,0 0.46567,0 0.80434,0.0847 1.05834,0.21167 0.381,0.21166 0.59266,0.508 0.71966,0.84666 0.127,0.33867 0.16934,0.71967 0.16934,0.97367 v 0.0847 c -1.73567,0 -3.09034,0.29633 -4.02167,0.889 -0.508,0.29633 -0.84667,0.67733 -1.10067,1.143 -0.254,0.42333 -0.381,0.93133 -0.381,1.524 0,0.67733 0.254,1.35467 0.71967,1.905 0.508,0.508 1.22767,0.84667 2.20133,0.84667 1.22767,0 2.20134,-0.59267 2.75167,-1.27 l 0.127,1.05833 h 1.6935 v -0.127 c -0.12717,-0.635 -0.1695,-1.397 -0.1695,-2.20133"
         style="fill:#000000;fill-opacity:1;fill-rule:nonzero;stroke:none;stroke-width:0.04233333"
         id="path4546"
         inkscape:connector-curvature="0" />
      <path
         d="m 127.51289,281.31853 v 0 c -0.254,0.71966 -0.46566,1.43933 -0.67733,2.11666 -0.16933,-0.67733 -0.42333,-1.397 -0.67733,-2.11666 v 0 l -1.82034,-5.24934 h -1.98966 l 3.556,9.44034 h 1.73566 l 3.64067,-9.44034 h -1.94733 l -1.82034,5.24934"
         style="fill:#000000;fill-opacity:1;fill-rule:nonzero;stroke:none;stroke-width:0.04233333"
         id="path4548"
         inkscape:connector-curvature="0" />
      <path
         d="m 140.21289,277.88953 v 0 c -0.29633,-0.762 -0.80433,-1.31234 -1.35466,-1.60867 -0.55034,-0.29633 -1.143,-0.42333 -1.60867,-0.42333 -0.762,0 -1.43933,0.21166 -1.94733,0.55033 -0.46567,0.29633 -0.80434,0.635 -1.016,0.97367 l -0.0847,-1.31234 h -1.69334 v 0.0847 c 0.0847,0.762 0.0847,1.524 0.0847,2.49767 v 6.858 h 1.86267 v -5.67267 c 0,-0.254 0.0423,-0.55033 0.127,-0.71966 v 0 c 0.127,-0.46567 0.42333,-0.889 0.762,-1.18534 0.381,-0.29633 0.84667,-0.508 1.35467,-0.508 0.381,0 0.67733,0.0847 0.93133,0.21167 0.381,0.21167 0.635,0.55033 0.80433,0.97367 0.16934,0.42333 0.254,0.93133 0.254,1.48166 v 5.41867 h 1.86267 v -5.588 c 0,-0.80433 -0.127,-1.48167 -0.33867,-2.032"
         style="fill:#000000;fill-opacity:1;fill-rule:nonzero;stroke:none;stroke-width:0.04233333"
         id="path4550"
         inkscape:connector-curvature="0" />
      <path
         d="m 107.10806,273.57153 v 0 c 0.127,-0.0423 0.33866,-0.0847 0.55033,-0.0847 0.29633,-0.0423 0.635,-0.0423 1.016,-0.0423 0.889,0 1.60866,0.16933 2.11666,0.55033 0.25401,0.21167 0.46568,0.46567 0.59267,0.762 0.127,0.254 0.21167,0.635 0.21167,1.05833 0,0.71967 -0.254,1.31234 -0.762,1.73567 -0.46567,0.42333 -1.18534,0.67733 -2.07433,0.67733 h -1.651 z m 6.39233,10.49866 v 0 c -0.127,-0.635 -0.33867,-1.397 -0.55033,-2.32833 v 0 c -0.16934,-0.71967 -0.381,-1.31233 -0.71967,-1.778 -0.254,-0.42333 -0.635,-0.71967 -1.05833,-0.93133 0.59266,-0.254 1.18533,-0.635 1.60866,-1.18534 0.42334,-0.59266 0.71967,-1.31233 0.71967,-2.20133 0,-1.10067 -0.381,-2.032 -1.05833,-2.667 v 0 c -0.42334,-0.33867 -0.93134,-0.635 -1.56634,-0.80433 -0.635,-0.21167 -1.397,-0.29634 -2.286,-0.29634 -1.18533,0 -2.413,0.127 -3.302,0.29634 h -0.0847 v 13.335 h 1.905 v -5.75734 h 1.48166 c 0.381,0 0.71967,0.0423 0.97367,0.16934 0.42333,0.127 0.762,0.381 1.016,0.762 0.254,0.381 0.42334,0.889 0.59267,1.56633 v 0 c 0.16933,0.80433 0.33866,1.524 0.46566,2.07433 0.0847,0.254 0.127,0.508 0.21167,0.67734 0.0423,0.21166 0.127,0.33866 0.16933,0.46566 l 0.0423,0.0423 h 1.98967 l -0.0847,-0.16933 c -0.127,-0.21167 -0.29633,-0.67733 -0.46567,-1.27"
         style="fill:#000000;fill-opacity:1;fill-rule:nonzero;stroke:none;stroke-width:0.04233333"
         id="path4552"
         inkscape:connector-curvature="0" />
    </g>
  </g>
</svg>
