<svg>
<style type="text/css">
	.am0{fill:#00285E;}
	.am1{fill:#E62310;}
</style>
<path class="am0" d="M115,301.1c2.1,0,3.6,0.7,4.8,1.2c2.5,1.2,5.4,2.5,9,4.3c0,0,5.8-4.2,6.2-4.4c2-1.3,3.9-0.3,4.5,0.8
	c2.2,4.1,6.2,12.6,8.3,20.4c0.3,0.9,0,2.4-1.5,2.8c-0.8,0.3-2.3,0.5-3.8,0.7c-2.1,0.3-2.1,2-2.1,3c0,1.3,0,9.9,0,12.8
	c0.1,1.8-1.3,7.7-8.2,7.7c-0.5,0-15.7,0-15.6,0c-5.9,0-10.6-4.9-10.7-10.3c0-3.5,0-27.7,0-30.5C106,304.6,110.7,301.1,115,301.1"/>
<path class="am0" d="M90.3,350.6H39.7v5.6h59.4c0,0,2.1-5,2.1-10.5c0-0.3,0-38.2,0-38.2c0-3,1.2-8.1,7.4-9.5c0.2,0,0.3-0.1,0.5-0.1
	c17.5-4.1,35.6-0.4,45.8,4c1.8,0.9,2.3-0.6,2.2-1.2c0.2-8.6-6.3-18.4-18.3-18.9c-9.7-0.2-15.2,3.3-17.2,4.3c-0.1,0.1-0.4,0-0.6-0.2
	c-1.8-1.8-5.6-4.4-10-5.7c-0.6-0.1-0.7-1.1,0-1.2c9.2-1,17.3,0.1,20.7,0.6c0.8,0.1,1.3-0.3,1-1c-0.2-0.6-0.4-0.8-0.8-1.6
	c-0.8-1.8-3-3.6-5.8-4.4c-7.2-2-19.6-3.8-30.6-3.8c-12.4-0.1-25.4,2.4-28.7,3.1c-0.8,0.2-1.9,0.5-2.1,0.5c-0.9,0.2-1.1,1-0.7,1.5
	c0.2,0.3,0.9,0.8,1.2,1.2c0.4,0.5,0.6,1.2-0.2,2l-22.9,20.6h15.7l0.2,0c1,0,2,0.9,2,2.1c0,1-0.8,2.1-1.9,2.1H37.8l-6.2,5.7h26.7
	l0.1,0c1,0,1.9,1.1,1.8,2.1c0,0.9-0.8,2-1.8,2H27.1l-6.2,5.6h53.8l0.2,0c1.1,0,1.9,1.1,1.9,2c0,1.1-0.8,2.1-1.8,2.1H20.8v5.6h53.8
	l0.2,0c1.2,0,1.9,1.1,1.9,2.1c0,0.9-0.9,1.9-2,1.9H20.8l0,5.7h70.4c1.2,0,1.9,1,1.9,2.1c0,1-0.8,2-1.9,2H39.7v5.6h51.7
	c1,0,1.8,1.2,1.8,2.1c0,1-0.8,2-1.8,2H90.3"/>
<path class="am0" d="M58.6,370v5.8c0,0,7.6,0,11.9,0c10.7-0.1,17.7-5.8,17.7-5.8H58.6"/>
<path class="am0" d="M58.6,360.4v5.6H93c1.6-1.6,3.6-4.5,4.2-5.6H58.6"/>
<path class="am0" d="M613,325.5c0-0.1,0-0.2,0-0.3c-0.2-4.4-1.7-8.3-3.7-11.4c-4.2-6.7-11.7-10.3-20.7-10.2
	c-9-0.1-16.5,3.5-20.7,10.2c-2.1,3-3.5,6.9-3.7,11.4c0,0.1,0,0.2,0,0.3c-1.2,14.7,7.3,24.8,21.9,26c0.9,0.1,1.7,0.1,2.6,0.1
	c0.8,0,1.7,0,2.6-0.1C605.7,350.3,614.2,340.2,613,325.5 M589.7,344.6c-0.4,0-0.8,0-1.1,0.1c-0.4,0-0.7,0-1.1-0.1
	c-2.1-0.2-3.8-1-5.4-2.1c-0.5-0.4-0.9-0.8-1.3-1.2c-2.2-2.5-3.4-6.8-3.7-10.2c-0.7-7.9,0.9-19.5,10.7-20.3c0.2,0,0.5,0,0.7,0
	c0.1,0,0.1,0,0.1,0c0.1,0,0.1,0,0.1,0c0.2,0,0.5,0,0.7,0c9.7,0.8,11.3,12.4,10.7,20.3c-0.3,3.4-1.4,7.6-3.7,10.2
	c-0.4,0.5-0.9,0.9-1.3,1.2C593.5,343.7,591.7,344.5,589.7,344.6"/>
<path class="am0" d="M516.1,314.6c0-3.6,0.4-10,0.4-10h-12c0,0,0.4,6.4,0.4,10l0,26.1c0,3.6-0.3,9.8-0.3,9.8h12c0,0-0.3-6.2-0.3-9.8
	L516.1,314.6"/>
<path class="am0" d="M446.4,343.5c-2.5,0-5.8,0-8.3,0c-0.1-4.6-0.2-9.1-0.2-13.1v-0.7h13.8v-6.5h-13.8c0-7,0.2-11.6,0.2-11.6l17.1,0
	v-6.9c-12,0-29.3,0-29.3,0s0.3,6.3,0.3,10v26.1c0,3.3-0.2,9-0.3,9.9h30.4l0-7.3C456.3,343.3,450.3,343.5,446.4,343.5"/>
<path class="am0" d="M247.2,343.5c-2.5,0-5.8,0-8.3,0c-0.1-4.6-0.2-9.1-0.2-13.1v-0.7h13.8v-6.5h-13.8c0-7,0.2-11.6,0.2-11.6l17.1,0
	v-6.9c-12,0-29.3,0-29.3,0s0.3,6.4,0.3,10v26.1c0,3.3-0.2,9-0.3,9.9h30.4l0-7.3C257.2,343.3,251.2,343.5,247.2,343.5"/>
<path class="am0" d="M485.5,325.8l13.2-21.2h-9.1l-0.1,0.2c-2.8,4.8-6.2,10.6-7.6,12.7l-0.5,0.9l-7.7-13.7h-13.7l13.2,23.8
	l-13.8,22.2h9.1c5.9-10.1,8.9-14.7,8.9-14.7l8.2,14.7h13.7L485.5,325.8"/>
<path class="am0" d="M553.4,344.3c-10.6,0-16.4-7.8-16.1-17.4c0.3-8.4,4.1-15.5,13.2-16.1c3.5-0.2,6.4,0.4,11.3,1.7l-0.5-7.2
	c0,0-4.1-1.3-10.1-1.5c-7.6-0.3-14.4,1.2-19.9,6.2c-4.9,4.5-7.8,11.1-7.8,17.5c0,7.1,2.9,13.7,8.4,18.2c5.7,4.8,11.8,5.9,19.1,5.9
	c4.8,0,7.6-0.3,12.2-1.6l-0.7-7.1C561.6,343.2,558.2,344.3,553.4,344.3"/>
<path class="am0" d="M400,297.7l13.3,0l0.4,3.1c3,30.7,4.8,49.8,4.8,49.8h-13.9l-1.4-19l-1.3-17l-11.7,36c-3.1,0-7.4,0-7.4,0
	s-3.7-12.8-4.4-14.6l-6.7-21.6c0,0-1,12-1.4,17.2c-0.8,10.3-1.5,19-1.5,19h-10.3c0,0,4.2-43,4.5-45.6c0.3-2.7,0.8-7.3,0.8-7.3h13.6
	l11.3,31L400,297.7"/>
<path class="am0" d="M352.8,325.6c0-0.1,0-0.2,0-0.3c-0.2-4.4-1.6-8.3-3.7-11.3c-4.2-6.6-11.7-10.2-20.6-10.1
	c-9-0.1-16.4,3.5-20.6,10.1c-2,3-3.5,6.9-3.7,11.3c0,0.1,0,0.2,0,0.3c-1.2,14.6,7.3,24.7,21.8,25.8c0.9,0.1,1.7,0.1,2.6,0.1
	c0.8,0,1.7,0,2.5-0.1C345.5,350.3,354,340.2,352.8,325.6 M329.6,344.6c-0.4,0-0.8,0.1-1.1,0.1c-0.4,0-0.7,0-1.1-0.1
	c-2.1-0.2-3.8-0.9-5.3-2.1c-0.4-0.4-0.9-0.8-1.3-1.3c-2.2-2.5-3.4-6.8-3.7-10.2c-0.7-7.9,0.9-19.4,10.6-20.2c0.3,0,0.5,0,0.7,0h0.2
	c0.2,0,0.5,0,0.7,0c9.7,0.8,11.3,12.3,10.6,20.2c-0.3,3.4-1.4,7.6-3.7,10.2c-0.4,0.5-0.8,0.9-1.3,1.3
	C333.3,343.7,331.5,344.4,329.6,344.6"/>
<path class="am0" d="M223.9,350.6c-0.4-1-2.9-6.8-4.7-11.5l-15.5-41.3h-12.1c0,0-3.5,9.7-4,11.3l-11.3,32.1
	c-1.5,4.1-3.5,9.5-3.5,9.5h9.9c0,0,2.8-8.9,3.4-10.5l1.5-4.5h17.1l2.3,6.8c0.5,1.3,2.5,8.1,2.5,8.2H223.9 M190,328l5.8-17.1l0.3-1
	l6,18.1H190z"/>
<path class="am0" d="M304.7,350.6c-2.9-4.1-3.9-5.8-6.1-8.8l-8.2-12.8c4-2,7.7-5.2,8.2-12.1c0.3-4.3-1.9-7.8-3.3-9
	c-2-1.8-3.9-2.5-6.7-2.8c-2.2-0.3-3.8-0.3-5.1-0.4h-19.4c0,0,0.2,6.4,0.2,10v26c0,3.6-0.2,10-0.2,10h11.9c0,0-0.4-6.4-0.4-10
	l0.1-8.3c0,0,2.6,0,4.4,0l7.6,13.8c1,1.8,2.5,4,2.8,4.5H304.7 M283.6,324.9c-1.8,0.9-5.8,0.7-7.8,0.6l0.2-13.1l1.1-0.1
	c3.7-0.3,6.3,0.2,7.4,0.7c1.6,0.7,2.6,2.3,2.7,4.9C287.3,321.7,285.8,323.7,283.6,324.9"/>
<path class="am0" d="M611.7,346.1c0-2.5,2-4.5,4.5-4.5c2.5,0,4.5,2,4.5,4.5c0,2.5-2,4.5-4.5,4.5
	C613.8,350.6,611.7,348.6,611.7,346.1 M619.7,346.1c0-2.1-1.5-3.7-3.4-3.7c-1.9,0-3.4,1.5-3.4,3.7c0,2.1,1.5,3.6,3.4,3.6
	C618.2,349.7,619.7,348.2,619.7,346.1 M614.5,343.5h1.9c1.2,0,1.9,0.4,1.9,1.5c0,0.9-0.5,1.3-1.3,1.4l1.4,2.2h-1l-1.3-2.2h-0.6v2.2
	h-0.9V343.5z M615.5,345.7h0.8c0.6,0,1-0.1,1-0.8c0-0.6-0.6-0.7-1-0.7h-0.9V345.7z"/>
<path class="am1" d="M486.1,363.5c-89.1-19.4-127,11.1-127,11.1s41.5-24.5,127-5.9c87.3,19,127-13.5,127-13.5
	S568.8,381.5,486.1,363.5"/>
</svg>
