<svg>
<g>
	<path class="st0" d="M569.1,276.3c-2.5,2.9-1.8-0.9-3.6,0.9c-1.6,1.5-6.5,5.8-9.6,12.7c-4.8,10.9-1.8,28,7.8,34.6
		c-0.4,1.6-1.8,5.9-2.8,6.8c-3.8-8.4-7.2-16.5-14.9-20.9c-1.4-0.8-4.3-1.3-4.3-1.3c-2.3-0.3-6.3-0.8-10.5,0.7
		c-2.1,0.7,0.5,1.5-1.2,2c-2.1,1-0.7,0.2-2.9,1.6c-1.6,1.1-3.7,3.2-4.1,7.2c0,0.5,0.1,3.7,0.1,3.7c-11.2,3.4-13.6,16.3-12,19.8
		c1.8,3.8,3,3.9,4.8,4.9c1.9,0.8-2.5,1.6,2.3,2.4c5.5,0.7,9.9-0.1,13.1-0.9c4.6-1.1,15.9-5.4,26.3-14c-5.9,11.1-16.2,21.5-22.9,26.1
		c0.6,2.7-2.1,4-1.9,7.4c0.1,0.8-1.1,2.5-1.5,3.3c-0.3,0.4,0.2,1.1,1,0.5c12.4-10,24.3-22.4,31.3-37.7c15,21.5,28.4,21.7,34.2,22.3
		c4.8,0.5,7.8-0.5,9.4-0.9c5.5-1.3,9.5-3.3,12-5c2.3-1.6-1.2-1.7,0.8-3c1.2-0.7,2.8-2.8,4-5.2c1.2-2.4,2.2-8.9-3.4-15.2
		c2.7-1.2,5.5-5.2,5.8-9.6c0.2-2.8-0.3-6-5.3-8.7c0,0-1.5-0.9-2.3-1c-6.5-1-0.1-3.2-5.9-2.5c-0.8,0-0.4,0-2.7,0.3
		c-11.1,1.2-14.4,4.2-23.8,9.5c-8.8,5-16.7,11.8-20.4,14c1.5-2.5,2.2-4.9,2.2-4.9c1.1-2.3,9.1-6.8,13.1-9.2
		c4.2-2.6,21.5-11.4,26.4-23.9c0.8-2,1.6-4.4,1.8-6.5c0.5-4.5-1.7-1.4-1.8-2.8c-0.3-1.5-0.2-2.3-1.1-4.3c-3.6-8.4-16.9-7-21.5-2.4
		C583.3,270.7,572.8,272.4,569.1,276.3"/>
	<path class="st1" d="M164.6,307.8H150c0.9,0.9,1.3,1.3,1.8,2.2c0.4,0.7,0.7,1.5,0.9,2.3c0.3,1.3,0.4,2.4,0.5,5.2c0,1.2,0,2.1,0,2.8
		v24.4c0,1.9-0.1,4.4-0.1,5.6c-0.1,0.9-0.2,1.7-0.4,2.4c-0.4,1.5-1.1,2.9-2.1,3.9l-0.6,0.6h18.4c-0.9-0.9-1.3-1.3-1.8-2.2
		c-0.4-0.7-0.7-1.5-0.9-2.3c-0.3-1.2-0.4-2.4-0.5-5.2c0-1.2,0-2.2,0-3v-10.5c0-4,0-4.6,0.3-7.1c0.4-3.2,1.1-4.9,2.8-6.7
		c1.8-1.9,3.2-2.6,6.1-2.8l0.7,0c1.1,0,2.1,0.1,3.3,0.5c1.2,0.4,1.7,0.6,2.8,1.3l0.1-11.7c-0.9-0.3-1.1-0.3-2.4-0.4
		c-0.9-0.1-1.6-0.1-2-0.1c-2.5,0-5.3,1-7.6,2.9c-1.7,1.3-3.4,3.3-4.1,4.8c-0.1,0.3-0.3,0.7-0.5,1.3L164.6,307.8z"/>
	<path class="st1" d="M242.9,357.1l4.3-12.9c-0.9,0.7-1.1,0.8-2.4,1.4c-1.1,0.5-2.1,0.9-3.2,1.2c-2.6,0.7-5.4,1-10,1h-4.3H221v-38.3
		c0-4.7,0-5.7,0.2-8.1c0.1-1.5,0.3-2.8,0.6-3.9c0.5-2,1.6-4.2,2.7-5.7l0.5-0.6h-21.3c1.1,1.2,1.5,1.7,2.2,3.3
		c0.5,1.1,0.9,2.2,1.2,3.2c0.5,2,0.8,4.8,0.8,8.3v3.7v29.2l0,3.6c0,0.8,0,1.8-0.1,3.1c-0.1,1.7-0.3,3-0.5,4
		c-0.2,1.3-0.7,2.6-1.3,4.1c-0.7,1.5-1,2.1-2.1,3.3H242.9z"/>
	<path class="st1" d="M268.5,296.7c0-4.1-3.3-7.5-7.3-7.5c-4.1,0-7.5,3.4-7.5,7.6c0,4,3.3,7.2,7.4,7.2
		C265.2,304,268.5,300.7,268.5,296.7"/>
	<path class="st1" d="M252.3,357.1h18.4c-0.9-0.9-1.3-1.3-1.8-2.2c-0.4-0.7-0.7-1.5-0.9-2.3c-0.3-1.3-0.4-2.4-0.5-5.2
		c0-1.2,0-2.2,0-3v-36.5h-14.8c0.6,0.8,0.9,1.1,1.2,1.7c0.6,1.1,1.1,2.4,1.3,3.8c0.2,1,0.2,2.1,0.3,4.2c0,0.7,0,1.5,0,2.3v24.8
		c0,1.9-0.1,4.4-0.1,5.6c-0.1,0.9-0.2,1.7-0.4,2.4c-0.4,1.5-1.1,2.9-2.1,3.9L252.3,357.1"/>
	<path class="st1" d="M292.8,307.8H278c0.9,0.9,1.3,1.3,1.8,2.2c0.4,0.7,0.7,1.5,0.9,2.3c0.3,1.3,0.4,2.4,0.5,5.2c0,1.2,0,2.1,0,2.8
		v24.4c0,1.9-0.1,4.4-0.1,5.6c-0.1,0.9-0.2,1.7-0.4,2.4c-0.4,1.5-1.1,2.9-2.1,3.9l-0.6,0.6h18.4c-0.9-0.9-1.3-1.3-1.8-2.2
		c-0.4-0.7-0.7-1.5-0.9-2.3c-0.3-1.3-0.4-2.4-0.5-5.2c0-1.2,0-2.2,0-3v-5c0-6.7,0-8.1,0.2-10.4c0.2-2.5,0.8-4.9,1.8-6.8
		c1.6-3.2,4-5.2,7.4-6.4c1.5-0.5,2.9-0.8,4.3-0.8c2.4,0,4.8,0.8,6.4,2c0.9,0.7,1.6,1.6,2.2,2.7c1.2,2.1,1.4,3.3,1.4,7.1l0,3.6v14.3
		c0,1.9-0.1,4.4-0.1,5.6c-0.1,0.9-0.2,1.7-0.4,2.4c-0.4,1.5-1.1,2.9-2.1,3.9l-0.6,0.6h18.5c-0.9-0.9-1.3-1.3-1.8-2.2
		c-0.4-0.7-0.7-1.5-0.9-2.3c-0.3-1.2-0.4-2.3-0.5-5.2c0-1.6,0-2.6,0-3v-16.7c0-4.1,0-4.7-0.3-6.8c-0.3-2.5-1-4.7-2-6.5
		c-1.9-3.5-5.9-6.2-10.6-7.3c-1.8-0.4-3.8-0.6-5.9-0.6c-5.8,0-10.2,1.4-13.9,4.6c-1.9,1.6-2.5,2.4-3.7,4.8V307.8z"/>
	<path class="st1" d="M483.9,309c-2-0.7-2.8-0.9-5-1.3c-3.4-0.7-6.9-1-10.4-1c-6.7,0-11.2,1.2-14.7,3.9c-3,2.4-4.9,6.1-4.9,9.9
		c0,2.7,0.9,5.5,2.4,7.6c0.9,1.2,2.1,2.3,3.5,3.3c1.7,1.1,3.5,2.1,5.3,2.9c1,0.4,2.7,1.1,5.1,2.1c4.2,1.7,6.2,2.6,7.6,3.7
		c1.3,1,2.2,2.6,2.2,4c0,1.2-0.8,3-1.6,3.8c-0.6,0.6-1.5,1-2.6,1.4c-1.5,0.5-2.8,0.7-4.4,0.7c-3.7,0-7.9-0.9-11.6-2.4
		c-1-0.4-2.4-1.1-4.3-2c-1.4-0.7-2.4-1.3-3.2-1.8c-0.2-0.1-0.5-0.4-1-0.7l4,12.6c2.4,0.9,3.3,1.1,6.5,1.7c5,0.9,8.3,1.3,11.4,1.3
		c4.2,0,7.7-0.7,11-2.3c2-0.9,3.7-2.3,5-3.8c2.1-2.4,3.3-5.8,3.3-9.1c0-3.4-1.3-6.8-3.6-9.3c-1.4-1.5-3-2.8-4.9-3.9
		c-2.7-1.6-5.7-2.9-10.1-4.5c-3-1.1-4-1.6-5.2-2.5c-1.4-1-2.1-2.1-2.1-3.5c0-1.3,0.7-2.4,1.8-3.1c1.4-0.8,3.2-1.2,5.7-1.2
		c2.8,0,6.6,0.6,10,1.6c1.9,0.6,2.7,0.9,4.7,1.8V309z"/>
	<path class="st1" d="M89,337l1.5,3.7c0.3,0.8,1.1,2.4,2.3,4.9c0.9,1.9,1.6,3.3,2.1,4.2c0.7,1.2,1.5,2.5,2.6,3.8
		c1.3,1.7,1.9,2.2,3.6,3.4h-24c1.2-0.8,1.6-1.2,2.4-2.1c0.9-1.1,1.2-2,1.2-3.2c0-1.1,0-1.2-1.1-4l-1-2.7l-0.8-2.2l-4-10.5l-24.5,0
		l-3.7,9.6c-1.3,3.4-1.5,4-2,5.6c-0.5,1.6-0.7,2.9-0.7,3.9c0,1.1,0.3,2,0.9,2.9c0.3,0.5,0.7,1,1.1,1.4c0.4,0.4,0.7,0.6,1.5,1.3
		l-19.7,0c0.4-0.3,0.7-0.6,1-0.8c1.8-1.5,2.7-2.8,4-5.4c0.6-1.1,1.1-2.3,1.7-3.6c1.1-2.4,1.8-4.1,2.8-6.5L56,291.1h13.5L89,337z
		 M70.7,324.5l-9.3-23.7l-9.1,23.7H70.7z"/>
	<path class="st1" d="M111.1,332.7c0.3,3.9,0.5,5.2,1.6,7.9c0.8,2,2,3.9,3.6,5.5c2.9,2.8,6.5,4.1,11.3,4.1c3.9,0,6.4-0.6,10.9-2.6
		c2.3-1,2.8-1.3,4.2-2.3l-3.6,10.2c-1.7,0.8-2.4,1-4.4,1.5c-3.3,0.8-6.2,1.2-9.6,1.2c-3.2,0-6.1-0.4-9-1.1c-3.1-0.8-6.1-2.4-8.7-4.5
		c-5.9-4.8-9.2-12.5-9.2-21.1c0-8,2.9-14.7,8.2-19.4c4.3-3.7,9.6-5.5,16-5.5c6.3,0,11.4,1.8,15,5.3c2.3,2.2,4.1,5,5.2,8.1
		c1.2,3.3,1.9,7.5,1.9,10.9c0,0.5,0,0.9-0.1,1.7H111.1z M131.8,319.5c-0.7-1.3-1.6-2.5-2.6-3.3c-1.7-1.5-3.8-2.1-6.4-2.1
		c-2.9,0-5.5,0.9-7.4,2.7c-0.9,0.8-1.7,1.9-2.4,3.2c-1,1.7-1.2,2.6-1.5,4.7h21.7C132.9,322.3,132.7,321.3,131.8,319.5"/>
	<path class="st1" d="M427.5,357.1v-7.7c-1.2,2-1.7,2.7-3.3,4.1c-1.4,1.3-2.8,2.3-4.2,3c-2.5,1.2-6.1,1.9-9.6,1.9
		c-5.2,0-9.9-1.5-13.1-4.2c-1.8-1.5-3.2-3.4-3.9-5.7c-0.8-2.4-1.2-6-1.2-10.1l0-5.1l0-9.4l0-2.9c0-1.5,0-2.4,0-2.7
		c0-0.7-0.2-1.3-0.5-2c-0.3-0.6-0.8-1.2-1.3-1.6c-1.3-1-2.9-1.4-4.9-1.4c-1.8,0-3.6,0.4-5.1,1.1c-1,0.5-1.5,0.8-2.7,1.9
		c1.1,1.8,1.4,2.4,1.8,3.5c0.6,1.6,1,4.2,1,6.2c0,4.6-1.9,9.2-5,12.2c-3.5,3.4-9.3,5.3-15.9,5.3c-0.8,0-1.7,0-2.6-0.1
		c-1.6-0.1-1.9-0.1-3-0.4l-0.5,0.5c-0.4,0.5-0.7,1.2-0.7,1.8c0,0.8,0.5,1.7,1.1,2c0.4,0.3,1.1,0.4,1.8,0.5c2.2,0.3,3.8,0.4,8.7,0.5
		c7.1,0.2,9.7,0.5,12.8,1.6c2.2,0.7,4.3,2.2,5.9,4.1c2.2,2.6,3.4,6,3.4,9.6c0,3.6-1.2,7.1-3.3,9.9c-1.6,2.1-3.7,3.9-6.1,5
		c-4.7,2.2-10.7,3.4-17.1,3.4c-5.7,0-12.3-1.1-17-2.8c-1.9-0.7-3.8-1.7-5.5-3.1c-3-2.3-4.3-4.7-4.3-7.9c0-2.4,0.9-4.4,2.6-5.7
		c1.6-1.3,3.7-1.9,6-1.9c0.8,0,1.6,0,2.5,0.1c1.2,0.1,1.7,0.2,3,0.5c-0.8,0.7-0.9,0.9-1.5,2.1c-0.6,1.2-0.8,2.1-0.8,3.1
		c0,2.1,1.2,4.3,3,5.6c1.2,0.9,2.5,1.5,4,1.9c2.5,0.7,5.4,1.1,8.4,1.1c4.4,0,8.3-0.8,11.3-2.3c1.3-0.6,2.4-1.5,3.4-2.6
		c1.3-1.5,1.9-3,1.9-4.7c0-2.3-1.1-4.4-3-5.4c-1.2-0.7-2.5-1.1-3.9-1.3c-2.7-0.4-3.9-0.5-11.9-0.7c-6.5-0.2-8.9-0.6-11-1.7
		c-2.3-1.2-3.8-3.9-3.8-6.8c0-2,0.6-3.7,2-5.7c0.8-1.1,1.2-1.5,2.3-2.6c-2.5-1.1-3.4-1.7-5-3.2c-3.3-3.1-5.1-7.5-5.1-12.6
		c0-5.9,2.6-11.3,7-14.6c3.6-2.7,8.6-4.1,14.8-4.1c4.3,0,7.2,0.6,10.7,2.4c1.9,1,2.6,1.4,4.1,2.8l2.5-4.1h27.7v24.9c0,2.9,0,5,0,6.4
		c0,1.7,0.2,3.3,0.5,4.8c0.3,1.5,1.1,2.8,2.1,3.8c1.6,1.5,4,2.4,6.6,2.4c1.3,0,2.6-0.2,4-0.7c3.1-1,5.5-3.1,7.2-6
		c0.6-1,1-2.1,1.3-3.2c0.7-2.4,0.9-5.1,0.9-9.7v-4.1v-6c0-0.4,0-1.4,0-2.8c0-3-0.1-4-0.5-5.2c-0.2-0.8-0.5-1.6-0.9-2.3
		c-0.5-1-0.9-1.3-1.8-2.2H439l0,36.6c0,0.5,0,1.5,0,3c0,2.9,0.1,3.9,0.5,5.2c0.2,0.8,0.5,1.6,0.9,2.3c0.5,0.9,0.8,1.3,1.8,2.2H427.5
		z M366,316.8c-1.8-1.5-4.2-2.3-7-2.3c-3,0-5.7,1-7.6,2.8c-1.8,1.9-2.8,4.5-2.8,7.8c0,1.5,0.2,3.1,0.7,4.5c0.5,1.4,1.2,2.6,2.1,3.6
		c1.8,1.9,4.6,3,7.6,3c3.1,0,5.9-1.1,7.7-3c1.8-1.8,2.8-4.7,2.8-7.8C369.5,321.7,368.4,318.8,366,316.8"/>
</g>
</svg>
