<svg width="281" height="105" viewBox="0 0 281 105" fill="none" xmlns="http://www.w3.org/2000/svg">
<path d="M274.444 99.1243V99.7301H273.084V103.764H272.404V99.7301H271.045V99.1243H274.444ZM276.631 99.1243L277.665 102.833H277.68L278.729 99.1243H279.601L280.281 103.764H279.586L279.099 99.9813L278.02 103.764H277.266L276.217 99.9961H276.202L275.729 103.764H275.064L275.744 99.1243H276.66H276.631Z" fill="#45586A"/>
<path d="M158.294 52.6647V39.2617C158.294 36.7053 157.127 35.1389 154.94 35.1389C152.043 35.1389 150.122 38.2273 150.122 42.3945V52.6647H145.408V37.4293C145.408 35.7447 145.246 33.3065 145.187 31.9174H148.97C149.398 31.9174 149.531 32.0947 149.531 32.479C149.531 32.9075 149.576 35.065 149.576 35.065H149.679C150.255 34.0897 151.704 31.4741 156.033 31.4741C160.363 31.4741 163.023 34.533 163.023 37.9613V52.6499H158.309L158.294 52.6647ZM121.484 48.1133C121.602 48.1133 121.78 48.1872 121.824 48.5566C121.913 49.5467 121.957 51.1574 121.957 51.6599C121.026 52.1327 118.987 53.0489 116.475 53.0489C110.194 53.0489 106.337 49.3989 106.337 42.2615C106.337 35.5822 109.766 31.4741 116.475 31.4741C118.706 31.4741 120.745 32.2425 121.957 32.8632C121.957 33.602 121.883 35.2719 121.824 35.9812C121.794 36.2767 121.661 36.4097 121.484 36.4097C121.292 36.4097 121.233 36.3654 121.115 36.3063C119.607 35.5674 118.174 35.198 116.888 35.198C112.884 35.198 111.243 37.8136 111.243 42.232C111.243 46.1923 112.559 49.2659 116.888 49.2659C118.543 49.2659 120.051 48.6749 120.982 48.2315C121.233 48.1133 121.277 48.069 121.469 48.069L121.484 48.1133ZM137.754 52.6647C137.37 52.6647 137.059 52.5317 137.015 51.985C136.971 51.32 136.867 50.0048 136.867 50.0048H136.808C136.527 50.389 134.813 53.0489 130.498 53.0489C126.183 53.0489 124.011 49.8718 124.011 46.3844C124.011 41.5522 128.71 39.114 135.685 39.114H136.616V38.3603C136.616 36.1881 135.064 35.0206 132.183 35.0206C129.582 35.0206 127.425 35.9368 126.597 36.3654C126.538 36.3949 126.39 36.4836 126.242 36.4836C126.035 36.4836 125.902 36.3506 125.888 36.0994C125.858 35.3162 125.769 33.8237 125.755 32.8779C126.597 32.5381 129.434 31.5037 132.523 31.5037C138.685 31.5037 141.33 34.3852 141.33 38.9366V47.0346C141.33 49.99 141.611 51.9111 141.699 52.6943H137.754V52.6647ZM136.616 42.1433H135.818C129.907 42.1433 128.74 44.1973 128.74 46.2809C128.74 47.9951 129.863 49.6058 132.065 49.6058C135.005 49.6058 136.616 46.7686 136.616 43.7836V42.1285V42.1433ZM77.5512 48.1133C77.8024 48.1133 77.891 48.3498 77.9058 48.5862C77.9797 49.4728 78.0684 51.4678 78.0536 51.985C77.5512 52.1475 75.0242 53.0637 71.6255 53.0637C65.0052 53.0637 61.045 49.6502 61.045 42.2911C61.045 35.9812 64.4289 31.5037 70.5172 31.5037C76.6054 31.5037 79.3392 35.4935 79.3392 40.4587C79.3392 41.0498 79.2653 42.0251 79.1767 43.3403H65.8771C65.8771 46.8868 68.1233 49.4285 72.2905 49.4285C74.5957 49.4285 76.4281 48.601 77.1522 48.2463C77.3 48.1724 77.3738 48.1281 77.5364 48.1281L77.5512 48.1133ZM65.9362 40.1631H74.6401C74.8174 36.8235 73.0737 34.9468 70.4137 34.9468C67.7538 34.9468 66.0545 36.9565 65.9215 40.1631H65.9362ZM52.9027 52.6647V39.3947C52.9027 37.0156 51.8978 35.1536 49.4448 35.1536C46.711 35.1536 45.115 38.1682 45.115 42.365V52.6647H40.4159V39.3356C40.4159 37.1634 39.4997 35.1389 36.9875 35.1389C34.2094 35.1389 32.643 38.1534 32.643 42.5127V52.6647H27.9143V37.5476C27.9143 35.597 27.7369 32.8336 27.6926 31.9174H31.4608C31.8894 31.9174 32.0224 32.0652 32.0371 32.4937C32.0371 33.0553 32.0667 35.065 32.0667 35.065H32.1849C32.4805 34.4739 34.0173 31.4741 38.347 31.4741C42.3812 31.4741 43.9181 34.3704 44.3023 35.2571C44.6865 34.4739 46.4598 31.4741 50.5235 31.4741C54.5873 31.4741 57.6166 33.7498 57.6166 38.3012V52.6647H52.9027ZM87.6736 42.5423V52.6647H82.9597V37.252C82.9597 35.7743 82.7971 32.9518 82.7232 31.9174H86.5357C86.9495 31.9174 87.0677 32.0947 87.0677 32.4937C87.0677 33.0996 87.1121 35.065 87.1121 35.065H87.2303C87.5997 34.1783 88.9297 31.4889 92.8604 31.4889C94.1608 31.4889 95.1362 31.9026 95.2987 31.9617C95.2987 32.8484 95.1953 34.8138 95.1509 35.331C95.1214 35.6708 94.9736 35.7743 94.811 35.7743C94.6485 35.7743 94.5746 35.7447 94.4859 35.7004C94.1904 35.5822 93.5107 35.3605 92.5649 35.3605C90.0528 35.3605 87.6884 37.1781 87.6884 42.5127L87.6736 42.5423ZM97.7813 52.6647V31.9174H102.48V52.6647H97.7813ZM97.7222 28.8881V24.3367H102.54V28.8881H97.7222ZM20.7769 52.6647L18.6194 46.5469H7.07831L4.92082 52.6647H0L10.3441 25.4302H15.8265L26.008 52.6647H20.7916H20.7769ZM12.8858 30.3806H12.7971L8.37872 42.8378H17.2894L12.8858 30.3806ZM153.935 87.0515C160.068 87.0515 162.993 84.5393 162.993 80.8302C162.993 77.1211 160.393 75.6138 157.629 74.7124C156.846 74.4612 156.063 74.1952 155.339 73.9588C153.447 73.3381 152.472 72.5106 152.472 71.2841C152.472 69.9985 153.654 69.0971 156.107 69.0971C158.279 69.0971 160.068 69.9837 160.777 70.3236C160.895 70.3827 160.999 70.4418 161.191 70.4418C161.338 70.4418 161.516 70.3531 161.545 69.9837C161.59 69.2892 161.663 68.0331 161.663 66.8214C161.102 66.5554 159.033 65.4914 155.708 65.4914C150.654 65.4914 147.536 68.1365 147.536 71.6092C147.536 75.0819 149.842 76.5153 152.383 77.3576C152.96 77.5644 154.038 77.9191 154.674 78.126C157.334 79.0126 158.073 79.8106 158.073 81.0371C158.073 82.6478 156.358 83.4458 153.388 83.4458C150.965 83.4458 149.295 82.5592 148.615 82.2488C148.482 82.1897 148.408 82.1306 148.216 82.1306C147.876 82.1306 147.861 82.5887 147.861 82.6626C147.832 82.8843 147.728 85.0418 147.728 85.7511C148.29 85.9875 150.699 87.0662 153.935 87.0662V87.0515ZM142.896 82.1011C143.162 82.1011 143.236 82.3227 143.266 82.5592C143.34 83.4458 143.414 85.4555 143.414 85.9579C142.896 86.1205 140.369 87.0515 136.971 87.0515C130.365 87.0515 126.39 83.6379 126.39 76.2788C126.39 69.9689 129.774 65.4766 135.862 65.4766C141.951 65.4766 144.684 69.4813 144.684 74.4464C144.684 75.0228 144.625 76.0128 144.522 77.3132H131.222C131.222 80.8598 133.483 83.4015 137.65 83.4015C139.941 83.4015 141.788 82.5739 142.512 82.2193C142.66 82.1454 142.734 82.1011 142.896 82.1011ZM131.281 74.1509H140C140.177 70.8112 138.419 68.9345 135.759 68.9345C133.099 68.9345 131.4 70.9442 131.267 74.1509H131.281ZM118.263 86.6525V73.2495C118.263 70.693 117.095 69.1266 114.893 69.1266C111.997 69.1266 110.076 72.2151 110.076 76.3675V86.6525H105.377V71.4023C105.377 69.7325 105.214 67.2795 105.14 65.9052H108.923C109.352 65.9052 109.47 66.0825 109.47 66.4667C109.47 66.8952 109.529 69.0527 109.529 69.0527H109.633C110.194 68.0774 111.642 65.4619 115.987 65.4619C120.331 65.4619 122.962 68.5207 122.962 71.9491V86.6377H118.263V86.6525ZM75.3789 76.53V86.6525H70.6502V71.2398C70.6502 69.762 70.4876 66.9248 70.4285 65.9052H74.2263C74.6401 65.9052 74.7583 66.0825 74.773 66.4815C74.773 67.0874 74.8026 69.0527 74.8026 69.0527H74.9208C75.2903 68.1661 76.6202 65.4619 80.551 65.4619C81.8514 65.4619 82.8267 65.8904 82.9892 65.9495C82.9892 66.8361 82.8858 68.8015 82.8414 69.3187C82.8119 69.6586 82.6641 69.762 82.5016 69.762C82.339 69.762 82.2651 69.7325 82.1765 69.6882C81.8809 69.5699 81.2012 69.3483 80.2554 69.3483C77.7433 69.3483 75.3937 71.1659 75.3937 76.5005L75.3789 76.53ZM90.3779 86.6525V58.354H85.6787V86.6525H90.3779ZM60.8233 86.6525V65.9052H65.5372V86.6525H60.8233ZM60.7642 62.8758V58.3244H65.5816V62.8758H60.7642ZM95.5351 86.6525V65.9052H100.234V86.6525H95.5351ZM95.476 62.8758V58.3244H100.293V62.8758H95.476ZM53.6711 86.6525L51.5284 80.5199H39.9873L37.8298 86.6525H32.909L43.2383 59.4032H48.7207L58.9023 86.6525H53.6859H53.6711ZM45.78 64.3683H45.7061L41.3025 76.8404H50.2132L45.7948 64.3683H45.78Z" fill="#45586A"/>
<path d="M219.679 94.3074C225.56 103.972 234.944 103.78 237.441 103.78H267.631L232.018 60.5413C215.586 61.221 206.897 71.7572 208.67 76.1756L219.679 94.3074Z" fill="url(#paint0_linear_3798_3900)"/>
<path d="M208.67 76.175C208.626 76.1011 207.695 73.9141 207.695 71.2838C207.695 61.4125 216.443 55.7528 226.388 53.7136L232.018 60.5407C215.586 61.2204 206.897 71.7566 208.67 76.175Z" fill="url(#paint1_linear_3798_3900)"/>
<path d="M222.398 44.0789C207.384 44.0789 196.168 46.5467 196.168 52.428C196.168 54.5855 196.848 56.4622 198.68 59.7723L208.655 76.1751C208.611 76.1012 207.68 73.9142 207.68 71.2838C207.68 61.4126 216.428 55.7529 226.373 53.7136C229.255 53.1226 232.225 52.8418 235.121 52.8418C237.56 52.8418 239.85 52.9748 241.608 53.6102C240.574 49.8272 237.826 44.0936 222.398 44.0936V44.0789Z" fill="url(#paint2_linear_3798_3900)"/>
<path d="M182.898 33.8387C187.021 40.6067 188.558 42.2913 198.385 42.3061H217.167L191.277 9.61872C185.558 2.55518 182.278 1.25478 177.032 1.15134H163.008L182.913 33.8387H182.898Z" fill="url(#paint3_linear_3798_3900)"/>
<defs>
<linearGradient id="paint0_linear_3798_3900" x1="238.032" y1="59.4034" x2="238.032" y2="126.019" gradientUnits="userSpaceOnUse">
<stop stop-color="#EC1C24"/>
<stop offset="0.15" stop-color="#E71B23"/>
<stop offset="0.3" stop-color="#DB1A21"/>
<stop offset="0.45" stop-color="#C6171D"/>
<stop offset="0.61" stop-color="#A91418"/>
<stop offset="0.76" stop-color="#840F11"/>
<stop offset="0.81" stop-color="#770E0F"/>
</linearGradient>
<linearGradient id="paint1_linear_3798_3900" x1="207.695" y1="64.9443" x2="232.003" y2="64.9443" gradientUnits="userSpaceOnUse">
<stop stop-color="#69231D"/>
<stop offset="0.23" stop-color="#882820"/>
<stop offset="0.57" stop-color="#AF2E25"/>
<stop offset="0.84" stop-color="#C83228"/>
<stop offset="1" stop-color="#D1342A"/>
</linearGradient>
<linearGradient id="paint2_linear_3798_3900" x1="205.02" y1="61.3831" x2="232.121" y2="45.0985" gradientUnits="userSpaceOnUse">
<stop offset="0.1" stop-color="#EFF2F3"/>
<stop offset="0.33" stop-color="#DCE2E5"/>
<stop offset="0.79" stop-color="#ACBAC1"/>
<stop offset="1" stop-color="#95A7B0"/>
</linearGradient>
<linearGradient id="paint3_linear_3798_3900" x1="190.08" y1="47.6702" x2="190.08" y2="1.63899" gradientUnits="userSpaceOnUse">
<stop stop-color="#1C2F72"/>
<stop offset="0.05" stop-color="#19397B"/>
<stop offset="0.26" stop-color="#1062A2"/>
<stop offset="0.46" stop-color="#0983C1"/>
<stop offset="0.66" stop-color="#049AD8"/>
<stop offset="0.84" stop-color="#01A9E5"/>
<stop offset="1" stop-color="#00AEEA"/>
</linearGradient>
</defs>
</svg>
