<svg width="187" height="91" viewBox="0 0 187 91" fill="none" xmlns="http://www.w3.org/2000/svg">
<g clip-path="url(#clip0_3817_9306)">
<path d="M3.87858 79.5352H5.761L9.65426 90.5728H7.75716L6.81045 87.6519H2.77409L1.82737 90.5728H0L3.87858 79.5352ZM6.34077 86.1805L4.82529 81.4359H4.78126L3.25111 86.1805H6.34077Z" fill="#AC1F2D"/>
<path d="M26.1226 79.5352H27.8912V88.9032H33.0284V90.5728H26.1226V79.5352Z" fill="#AC1F2D"/>
<path d="M52.9352 79.5352H54.8176L58.7109 90.5728H56.8138L55.8671 87.6519H51.8344L50.8877 90.5728H49.0603L52.9389 79.5352H52.9352ZM55.3974 86.1805L53.8819 81.4359H53.8379L52.3077 86.1805H55.3974Z" fill="#AC1F2D"/>
<path d="M76.1883 86.8929C76.1883 87.3149 76.2543 87.6745 76.3864 87.9754C76.5185 88.2726 76.702 88.5184 76.9368 88.7092C77.1717 88.9001 77.4432 89.0395 77.7514 89.1276C78.056 89.2156 78.3899 89.2597 78.7495 89.2597C79.1348 89.2597 79.4651 89.212 79.7403 89.1129C80.0155 89.0138 80.2356 88.8891 80.4044 88.7349C80.5732 88.5808 80.698 88.401 80.7714 88.2029C80.8484 88.0011 80.8851 87.7992 80.8851 87.5937C80.8851 87.1718 80.7971 86.8599 80.6246 86.658C80.4485 86.4562 80.2577 86.3168 80.0522 86.2324C79.6926 86.0893 79.2743 85.9498 78.8009 85.8214C78.3239 85.693 77.7368 85.5242 77.0396 85.3187C76.6066 85.1939 76.2433 85.0325 75.9571 84.8307C75.6709 84.6288 75.4397 84.405 75.2709 84.1592C75.1021 83.9133 74.981 83.6491 74.9113 83.3702C74.8416 83.0914 74.8049 82.8088 74.8049 82.5189C74.8049 81.9612 74.9113 81.4805 75.1241 81.0732C75.337 80.6659 75.6158 80.3283 75.9681 80.0604C76.3167 79.7925 76.713 79.5944 77.157 79.466C77.601 79.3375 78.0487 79.2715 78.5 79.2715C79.0284 79.2715 79.5275 79.3449 79.9935 79.4953C80.4595 79.6458 80.8705 79.8696 81.2264 80.1668C81.5787 80.4677 81.8612 80.8347 82.0667 81.2713C82.2759 81.708 82.3786 82.218 82.3786 82.7941H80.6099C80.5622 82.0823 80.3421 81.5796 79.9458 81.286C79.5495 80.9924 79.0431 80.8457 78.4303 80.8457C78.2211 80.8457 78.012 80.8677 77.7918 80.9154C77.5753 80.9631 77.3772 81.0401 77.1974 81.1466C77.0176 81.253 76.8708 81.4034 76.7534 81.5869C76.6359 81.7704 76.5772 82.0052 76.5772 82.2841C76.5772 82.6767 76.6873 82.9813 76.9112 83.2051C77.1313 83.4253 77.4212 83.5941 77.7808 83.7078C77.8175 83.7188 77.9679 83.7629 78.2285 83.8399C78.489 83.917 78.7789 84.0014 79.0981 84.0968C79.4174 84.1885 79.7329 84.2803 80.0375 84.3683C80.3457 84.4564 80.5622 84.5224 80.6943 84.5628C81.0246 84.6765 81.3108 84.8307 81.5566 85.0251C81.8025 85.2196 82.008 85.4435 82.1731 85.6967C82.3382 85.9498 82.4593 86.2214 82.5401 86.5076C82.6208 86.7975 82.6611 87.0837 82.6611 87.3736C82.6611 87.9937 82.5437 88.5184 82.3162 88.9588C82.085 89.3954 81.7805 89.755 81.4025 90.0339C81.0246 90.3128 80.5953 90.5146 80.1146 90.643C79.6339 90.7715 79.1422 90.8375 78.6431 90.8375C78.067 90.8375 77.5239 90.7605 77.0139 90.6063C76.5039 90.4522 76.0599 90.2137 75.6819 89.8945C75.3039 89.5752 75.0031 89.1643 74.7756 88.6652C74.548 88.1662 74.4306 87.5754 74.4233 86.8966H76.1919L76.1883 86.8929Z" fill="#AC1F2D"/>
<path d="M99.7019 79.5359H101.471V84.5593L105.973 79.5359H108.153L104.12 83.9392L108.435 90.5699H106.226L102.913 85.3006L101.471 86.8601V90.5699H99.7019V79.5322V79.5359Z" fill="#AC1F2D"/>
<path d="M128.217 79.5352H130.099L133.993 90.5728H132.096L131.149 87.6519H127.116L126.169 90.5728H124.342L128.221 79.5352H128.217ZM130.679 86.1805L129.164 81.4359H129.12L127.589 86.1805H130.679Z" fill="#AC1F2D"/>
<path d="M159.172 0.833008C162.577 3.74286 168.97 19.1067 154.112 43.2369C148.722 51.9885 140.932 62.8683 136.271 66.7432C135.934 67.1028 136.117 67.3083 137.108 66.7212C141.669 64.0132 166.816 43.5121 172.375 35.0981C175.666 30.1187 184.256 16.8244 173.744 8.10581C166.236 1.87879 159.172 0.833008 159.172 0.833008Z" fill="#AC1F2D"/>
<path d="M178.404 39.1634C178.228 44.9097 169.193 55.9913 152.556 63.488C144.443 67.1427 137.985 69.7407 136.671 70.2434C135.688 70.6177 136.139 70.7975 137.284 70.6617C140.161 70.3168 148.175 68.7499 151.448 67.9463C161.484 65.4841 178.624 61.3817 184.862 54.9456C189.364 50.3001 185.177 44.7042 183.878 43.2364C182.624 41.82 178.422 38.5286 178.404 39.1634Z" fill="#AC1F2D"/>
<path d="M179.222 67.1177C178.807 66.4572 178.389 73.2126 158.725 73.2934C147.346 73.3411 137.959 72.7099 136.459 72.9154C136.132 72.9594 135.831 73.1172 136.598 73.3741C138.114 73.8805 145.361 75.2198 147.57 75.6748C153.254 76.8454 169.957 80.346 176.976 79.0837C183.996 77.8214 182.022 72.8897 181.717 72.0311C181.049 70.156 179.637 67.7782 179.222 67.1177Z" fill="#AC1F2D"/>
<path d="M62.8755 64.6227V51.8935C62.8755 48.4736 62.2407 44.9289 60.2335 42.2062C59.2318 40.8485 57.8814 39.7 56.1238 38.9037C54.3624 38.1075 52.1975 37.6525 49.5518 37.6525C45.1889 37.6525 40.9874 38.8597 38.0959 40.6651L37.839 40.8265L39.5049 45.7435L39.9232 45.461C42.2313 43.8978 45.4751 42.9951 48.6381 42.9951H48.6418C48.6858 42.9951 48.7335 42.9951 48.7776 42.9951C50.4398 42.9951 51.7021 43.3034 52.6745 43.7914C54.1239 44.5216 54.9385 45.6591 55.4119 46.8884C55.8816 48.114 55.988 49.424 55.988 50.4184V50.7376C49.5041 50.7486 44.4256 51.8715 40.925 54.0621C39.1673 55.163 37.8133 56.539 36.8996 58.1682C35.9859 59.8011 35.5236 61.6799 35.5236 63.7788C35.5236 66.329 36.4336 68.8719 38.25 70.7764C40.0627 72.6845 42.7817 73.9394 46.3154 73.9357C50.9756 73.9357 54.5753 71.7855 56.6338 69.2425L57.0852 73.1615H63.4333L63.3672 72.7175C63.0186 70.4278 62.8792 67.5583 62.8792 64.6191L62.8755 64.6227ZM55.8669 63.1696C55.3972 64.5383 54.4762 65.896 53.1368 66.9088C51.7938 67.9216 50.0362 68.5967 47.8675 68.5967C46.3924 68.5967 45.0531 68.1637 44.0844 67.2721C43.1193 66.3841 42.4882 65.03 42.4845 63.0742C42.4845 61.5734 42.8918 60.3992 43.5927 59.4525C44.6421 58.0325 46.3961 57.1041 48.5207 56.5427C50.638 55.9812 53.1075 55.7831 55.5183 55.7831C55.7238 55.7831 55.9293 55.7868 56.1311 55.7904V61.3166C56.1311 61.845 56.065 62.5128 55.8669 63.1696Z" fill="#231F20"/>
<path d="M84.2058 57.6762C83.2113 60.4723 82.3233 63.0042 81.5931 65.5104C80.9253 63.0042 80.0923 60.4723 79.0943 57.6725L72.3242 38.3604H64.8826L78.1145 73.1649H84.5507L98.2156 38.3604H90.9061L84.2058 57.6762Z" fill="#231F20"/>
<path d="M131.596 45.1968C130.426 42.2576 128.54 40.3568 126.492 39.212C124.445 38.0634 122.25 37.6561 120.43 37.6561C117.546 37.6561 115.08 38.4707 113.125 39.6927C111.51 40.7018 110.248 41.9897 109.36 43.3291L109.048 38.3607H102.788L102.817 38.7753C103.026 41.5751 103.096 44.3785 103.096 47.9599V73.1688H110.053V52.3192C110.053 51.2991 110.193 50.2753 110.453 49.5671V49.5597L110.457 49.5524C110.996 47.9012 112.027 46.3784 113.4 45.2775C114.772 44.1767 116.478 43.4905 118.39 43.4905C119.799 43.4905 120.959 43.7657 121.909 44.2501C123.333 44.9766 124.316 46.1729 124.959 47.7177C125.597 49.2589 125.883 51.1413 125.883 53.1631V73.1688H132.84V52.532C132.84 49.5744 132.378 47.1599 131.596 45.2005V45.1968Z" fill="#231F20"/>
<path d="M31.9129 67.8078C31.2964 65.5438 30.6066 62.6559 29.8066 59.2397C29.2159 56.6638 28.3499 54.4731 27.139 52.7448C26.0675 51.2147 24.7208 50.0551 23.0879 49.3359C25.429 48.4186 27.5389 46.9618 29.0984 44.9876C30.8047 42.8337 31.8542 40.0669 31.8542 36.7865C31.8542 32.8382 30.3607 29.3816 27.8728 27.1212C26.3354 25.7305 24.4199 24.7031 22.0495 24.0279C19.6754 23.3527 16.8426 23.0225 13.4373 23.0225C9.12209 23.0225 4.45458 23.4591 1.22548 24.0462L0.909912 24.1049V73.1652H8.00658V51.9339H13.5768C14.9822 51.9889 16.1894 52.1834 17.2242 52.543C18.7763 53.0824 19.9542 53.9777 20.9046 55.3648C21.8513 56.7518 22.5595 58.6489 23.0989 61.1588C23.7558 64.2154 24.3539 66.784 24.8933 68.7765C25.1611 69.7746 25.418 70.6259 25.6565 71.3268C25.895 72.0276 26.1189 72.5744 26.3354 72.9707L26.4454 73.1688H33.8614L33.5568 72.6001C33.0798 71.7157 32.5294 70.0718 31.9166 67.8078H31.9129ZM8.00291 29.1651C8.50195 29.055 9.18447 28.9559 10.0431 28.8825C11.0742 28.7945 12.3549 28.7394 13.874 28.7394C17.1691 28.7394 19.9029 29.4256 21.7889 30.8347C22.732 31.5392 23.4695 32.4272 23.9759 33.517C24.4823 34.6068 24.7612 35.9095 24.7612 37.4433C24.7612 40.144 23.7374 42.3457 21.9064 43.9015C20.0753 45.4573 17.404 46.3637 14.0942 46.3637H8.00658V29.1651H8.00291Z" fill="#231F20"/>
</g>
<defs>
<clipPath id="clip0_3817_9306">
<rect width="186.897" height="90.0045" fill="white" transform="translate(0 0.833008)"/>
</clipPath>
</defs>
</svg>
