<svg width="146" height="101" viewBox="0 0 146 101" fill="none" xmlns="http://www.w3.org/2000/svg">
<g clip-path="url(#clip0_3817_8140)">
<path d="M122.885 46.3881C120.849 48.3207 119.203 48.6881 114.803 48.6881H105.028C103.926 49.6943 102.864 50.3492 101.531 50.7485V50.8683H114.811C120.896 50.8683 122.677 50.0377 125.904 46.3881H122.885Z" fill="#C20831"/>
<path d="M56.1385 59.2866H40.1506C35.7504 59.2866 34.0973 58.9192 32.0689 56.9946H29.0582C32.2845 60.6442 34.0653 61.4747 40.1586 61.4747H58.3586C57.576 60.8039 56.8333 60.0692 56.1465 59.2945L56.1385 59.2866Z" fill="#C20831"/>
<path d="M71.895 49.3281L59.4209 40.264H66.2249L66.9277 38.0839H55.0207C57.4803 31.3996 63.5976 26.4723 70.9366 25.7456L71.6634 23.5015C62.791 23.9807 55.3561 29.9621 52.7127 38.0839L70.0422 50.6697L71.895 49.3281Z" fill="#C20831"/>
<path d="M67.0234 11.6103C68.908 11.6103 70.074 10.045 70.074 8.59159C70.074 7.13815 69.3952 6.51524 68.6924 6.51524C68.0775 6.51524 67.5744 7.01836 67.5744 7.62529C67.5744 8.28014 68.1733 8.72735 68.6126 8.72735C68.0456 9.59782 67.1831 9.8933 66.0571 9.81344C66.1848 9.62178 66.2647 9.42213 66.2647 9.17456C66.2647 8.54367 65.7456 8.0725 65.1626 8.0725C64.5797 8.0725 64.0606 8.59159 64.0606 9.24644C64.0606 10.4922 65.2265 11.6183 67.0234 11.6183V11.6103Z" fill="#C20831"/>
<path d="M60.3312 21.2899H60.459C60.3711 20.3396 60.0437 19.7806 59.4448 19.549C57.2966 18.7424 56.1306 16.9615 56.1306 14.981C56.1306 12.713 57.584 11.3075 59.3969 11.3075C61.9763 11.3075 62.9107 14.3182 65.8575 14.3182C66.9116 14.3182 67.7821 13.6953 67.7821 13.1682V12.8488H67.2311C63.5336 12.8488 62.9586 9.1273 59.3969 9.1273C56.3542 9.1273 53.9504 11.5311 53.9504 14.981C53.9504 18.4309 56.6337 21.2899 60.3312 21.2899Z" fill="#C20831"/>
<path d="M44.1278 50.8683V50.7485C42.7941 50.3412 41.732 49.6943 40.622 48.6881H30.8552C26.4549 48.6881 24.7938 48.3207 22.7654 46.3881H19.7547C22.981 50.0377 24.7699 50.8683 30.8552 50.8683H44.1278Z" fill="#C20831"/>
<path d="M63.27 60.9961L61.3613 62.3776C64.6675 64.5179 68.6046 65.7637 72.8212 65.7637C77.461 65.7637 81.7494 64.2623 85.2393 61.7228H85.2473L78.6269 41.3586H76.335L81.1026 56.0208L75.6003 52.0279L73.7475 53.3695L83.3706 60.3572C80.3519 62.3856 76.7263 63.5835 72.8212 63.5835C69.3393 63.5835 66.073 62.6332 63.262 60.9881L63.27 60.9961Z" fill="#C20831"/>
<path d="M70.673 7.46574L72.8292 5.90049L74.9854 7.46574L74.1628 4.93419L76.319 3.36895H73.6517L72.8292 0.837402L72.0066 3.36895H69.3393L71.4955 4.93419L70.673 7.46574Z" fill="#C20831"/>
<path d="M26.1995 45.5681H39.4801V45.4563C38.1464 45.057 37.0843 44.4021 35.9743 43.3959H26.1995C21.2322 43.3959 19.7708 42.9327 17.3031 40.2734H51.0198C51.1635 39.5307 51.3472 38.804 51.5708 38.0932H12.5435L14.0529 39.8821C18.0059 44.5618 19.4833 45.5681 26.1995 45.5681Z" fill="#C20831"/>
<path d="M48.7755 56.1717V56.0599C47.4418 55.6526 46.3797 55.0058 45.2696 53.9916H35.4948C31.0946 53.9916 29.4415 53.6242 27.4051 51.6916H24.3944C27.6207 55.3332 29.4016 56.1717 35.4948 56.1717H48.7755Z" fill="#C20831"/>
<path d="M70.8166 40.2654H86.2295L80.7272 44.2664L81.4379 46.4465L91.069 39.4508C91.5322 41.0959 91.7877 42.8289 91.7877 44.6257C91.7877 50.2478 89.336 55.2949 85.4389 58.7688L86.1656 61.0129C90.9173 57.1317 93.9679 51.2301 93.9679 44.6257C93.9679 42.3417 93.6005 40.1536 92.9297 38.0932H71.5114L70.8086 40.2734L70.8166 40.2654Z" fill="#C20831"/>
<path d="M60.403 61.7148V61.7307L77.7245 49.1449L77.0137 46.9647L64.5397 56.0288L66.64 49.5681L64.7872 48.2185L61.1137 59.5346C56.6975 56.0607 53.8625 50.6782 53.8625 44.6328C53.8625 43.2512 54.0142 41.9016 54.3017 40.5999L52.3931 39.2183C51.9379 40.9513 51.6903 42.7641 51.6903 44.6408C51.6903 51.6604 55.1322 57.8895 60.4109 61.7387L60.403 61.7148Z" fill="#C20831"/>
<path d="M71.4637 14.5577C72.0626 15.2525 72.422 15.7875 72.8053 16.642C72.8133 16.658 72.8213 16.666 72.8373 16.6819C72.8452 16.666 72.8532 16.65 72.8692 16.642C73.2525 15.7795 73.6119 15.2445 74.2108 14.5577C73.9792 13.9587 73.2925 12.8647 72.8373 12.4174C72.3741 12.8647 71.6873 13.9587 71.4637 14.5577Z" fill="#C20831"/>
<path d="M68.972 18.2304C69.6349 18.1266 70.2977 18.0627 70.9765 18.0147C70.5692 16.0742 69.4672 14.7485 68.3811 14.7485C67.8061 14.7485 67.3828 15.1398 67.1592 15.6509C67.7901 15.7627 68.5408 16.5373 68.972 18.2224V18.2304Z" fill="#C20831"/>
<path d="M72.8292 7.7542C71.8629 7.7542 71.0802 8.53682 71.0802 9.49513C71.0802 10.4534 71.8629 11.2361 72.8292 11.2361C73.7955 11.2361 74.5701 10.4534 74.5701 9.49513C74.5701 8.53682 73.7875 7.7542 72.8292 7.7542Z" fill="#C20831"/>
<path d="M62.0802 20.3236C62.6392 20.0681 63.2062 19.8285 63.7812 19.6049C63.5017 18.7504 62.9666 17.8001 61.9684 17.8001C61.4653 17.8001 61.0819 18.1994 60.9142 18.6626C61.3694 18.8303 61.7607 19.2296 62.0802 20.3236Z" fill="#C20831"/>
<path d="M65.0268 16.2104C64.5316 16.2104 64.0525 16.5618 63.8528 17.0729C64.324 17.1448 64.9549 17.5281 65.4261 19.0374C66.033 18.8538 66.6479 18.694 67.2788 18.5583C66.8316 17.0649 66.025 16.2104 65.0268 16.2104Z" fill="#C20831"/>
<path d="M81.8055 17.0729C81.6138 16.5538 81.1347 16.2104 80.6395 16.2104C79.6333 16.2104 78.8347 17.0569 78.3875 18.5583C79.0184 18.702 79.6333 18.8617 80.2402 19.0454C80.7034 17.5281 81.3343 17.1448 81.8055 17.0809V17.0729Z" fill="#C20831"/>
<path d="M77.8762 12.8399V13.1593C77.8762 13.6864 78.7467 14.3093 79.8008 14.3093C82.7477 14.3093 83.682 11.2986 86.2615 11.2986C88.0743 11.2986 89.5277 12.7041 89.5277 14.9721C89.5277 16.9526 88.3698 18.7335 86.2135 19.5401C85.6146 19.7717 85.2872 20.3307 85.1993 21.281H85.3271C89.0246 21.281 91.7159 18.446 91.7159 14.9721C91.7159 11.4982 89.3121 9.11842 86.2694 9.11842C82.6997 9.11842 82.1327 12.8399 78.4352 12.8399H77.8762Z" fill="#C20831"/>
<path d="M84.7442 18.6539C84.5765 18.1908 84.1852 17.7915 83.6901 17.7915C82.6918 17.7915 82.1568 18.7498 81.8773 19.5963C82.4522 19.8199 83.0272 20.0515 83.5783 20.315C83.8977 19.213 84.281 18.8137 84.7442 18.646V18.6539Z" fill="#C20831"/>
<path d="M75.5843 8.58364C75.5843 10.0371 76.7503 11.6023 78.6349 11.6023C80.5196 11.6023 81.5977 10.4763 81.5977 9.2305C81.5977 8.56767 81.0467 8.05657 80.4877 8.05657C79.9287 8.05657 79.3776 8.52774 79.3776 9.15863C79.3776 9.41418 79.4575 9.61383 79.5853 9.79751C78.4672 9.88535 77.6048 9.58189 77.0298 8.71142C77.477 8.71142 78.0679 8.2642 78.0679 7.60936C78.0679 7.00242 77.5728 6.49931 76.9499 6.49931C76.2471 6.49931 75.5683 7.09826 75.5683 8.57566L75.5843 8.58364Z" fill="#C20831"/>
<path d="M77.2772 14.7583C76.1911 14.7583 75.097 16.0839 74.6898 18.0245C75.3606 18.0724 76.0314 18.1363 76.6862 18.2401C77.1175 16.5551 77.8682 15.7805 78.499 15.6687C78.2754 15.1576 77.8522 14.7662 77.2772 14.7662V14.7583Z" fill="#C20831"/>
<path d="M121.248 51.6916H118.237C116.201 53.6242 114.556 53.9916 110.148 53.9916H100.373C99.2707 54.9978 98.2085 55.6526 96.8669 56.0599V56.1717H110.14C116.225 56.1717 118.014 55.3412 121.24 51.6916H121.248Z" fill="#C20831"/>
<path d="M116.6 56.9946H113.589C111.561 58.9192 109.908 59.2865 105.5 59.2865H89.5118C88.825 60.0692 88.0903 60.7959 87.3077 61.4667H105.5C111.585 61.4667 113.374 60.6362 116.6 56.9866V56.9946Z" fill="#C20831"/>
<path d="M72.8291 23.4778L66.2088 43.85L68.0615 45.1916L72.8291 30.5294L74.9374 36.998H77.2294L73.5558 25.6899C80.9907 25.9695 87.3475 30.5374 90.1985 36.998H92.5544C89.4878 29.0999 81.8133 23.4778 72.8371 23.4778H72.8291Z" fill="#C20831"/>
<path d="M84.6403 24.58V22.3439C81.406 20.4832 77.0855 19.1256 72.829 19.1256C68.5725 19.1256 64.2442 20.4912 61.0098 22.3439V24.58C64.4757 22.5356 68.5166 21.2977 72.829 21.2977C77.1414 21.2977 81.1744 22.5276 84.6403 24.58Z" fill="#C20831"/>
<path d="M128.347 40.2646C125.88 42.9239 124.418 43.3871 119.451 43.3871H109.676C108.574 44.3933 107.512 45.0482 106.17 45.4475V45.5593H119.451C126.159 45.5593 127.645 44.553 131.598 39.8733L133.107 38.0844H94.0877C94.3033 38.7952 94.487 39.5219 94.6387 40.2646H128.355H128.347Z" fill="#C20831"/>
<path d="M15.4742 94.7769V93.3794H12.5513V99.84H15.3783V97.3564C15.7297 96.3182 17.9099 96.6296 17.9099 96.6296V93.5231C15.8735 93.3714 15.4822 94.7689 15.4822 94.7689L15.4742 94.7769Z" fill="#C20831"/>
<path d="M76.0393 94.7769V93.3794H73.1085V99.84H75.9355V97.3564C76.2789 96.3182 78.467 96.6296 78.467 96.6296V93.5231C76.4306 93.3714 76.0313 94.7689 76.0313 94.7689L76.0393 94.7769Z" fill="#C20831"/>
<path d="M121.056 93.0662C121.056 93.0662 117.167 92.9624 116.912 96.2926C116.912 96.2926 116.864 100.038 121.104 99.8303C121.104 99.8303 124.802 100.142 124.954 96.4523C124.954 96.4523 125.105 93.0662 121.056 93.0662ZM122.206 96.3964C122.103 97.8019 121.008 97.6981 121.008 97.6981C119.859 97.6422 119.811 96.3485 119.811 96.3485C119.962 94.7353 121.112 94.8391 121.112 94.8391C122.262 94.895 122.214 96.4044 122.214 96.4044L122.206 96.3964Z" fill="#C20831"/>
<path d="M23.3882 93.0662C23.3882 93.0662 19.499 92.9624 19.2435 96.2926C19.2435 96.2926 19.1956 100.038 23.4361 99.8303C23.4361 99.8303 27.1336 100.142 27.2853 96.4523C27.2853 96.4523 27.4371 93.0662 23.3882 93.0662ZM24.5382 96.3964C24.4343 97.8019 23.3403 97.6981 23.3403 97.6981C22.1903 97.6422 22.1424 96.3485 22.1424 96.3485C22.2941 94.7353 23.4441 94.8391 23.4441 94.8391C24.5941 94.895 24.5461 96.4044 24.5461 96.4044L24.5382 96.3964Z" fill="#C20831"/>
<path d="M32.3962 96.5817L31.3021 93.3794H27.8362L30.5195 98.9615H28.4352V100.822H31.7653C33.2986 101.078 34.241 98.6022 34.241 98.6022L36.5729 93.3794H33.3944L32.4042 96.5817H32.3962Z" fill="#C20831"/>
<path d="M42.7143 94.1997C42.7143 94.1997 41.6202 93.1136 40.3824 93.1695C40.3824 93.1695 37.5554 93.0178 37.4595 96.4278C37.4595 96.4278 37.1082 99.5263 40.1348 99.8378C40.1348 99.8378 41.8758 99.9895 42.7223 98.6479V99.8378H45.5972V93.3772H42.7223V94.1997H42.7143ZM42.8181 96.6274C42.7143 98.025 41.5723 97.9691 41.5723 97.9691C40.3345 97.9691 40.3345 96.5715 40.3345 96.5715C40.3824 94.8625 41.724 95.0702 41.724 95.0702C42.9619 95.0702 42.8181 96.6274 42.8181 96.6274Z" fill="#C20831"/>
<path d="M63.35 94.1997C63.35 94.1997 62.256 93.1136 61.0181 93.1695C61.0181 93.1695 58.1911 93.0178 58.0873 96.4278C58.0873 96.4278 57.7439 99.5263 60.7626 99.8378C60.7626 99.8378 62.5035 99.9895 63.35 98.6479V99.8378H66.225V93.3772H63.35V94.1997ZM63.4538 96.6274C63.35 98.025 62.208 97.9691 62.208 97.9691C60.9702 97.9691 60.9702 96.5715 60.9702 96.5715C61.0261 94.8625 62.3598 95.0702 62.3598 95.0702C63.6056 95.0702 63.4538 96.6274 63.4538 96.6274Z" fill="#C20831"/>
<path d="M113.014 94.7769V93.3794H110.092V99.84H112.919V97.3564C113.262 96.3182 115.45 96.6296 115.45 96.6296V93.5231C113.414 93.3714 113.022 94.7689 113.022 94.7689L113.014 94.7769Z" fill="#C20831"/>
<path d="M105.276 94.1997C105.276 94.1997 104.19 93.1136 102.952 93.1695C102.952 93.1695 100.125 93.0178 100.021 96.4278C100.021 96.4278 99.6697 99.5263 102.696 99.8378C102.696 99.8378 104.429 99.9895 105.276 98.6479V99.8378H108.151V93.3772H105.276V94.1997ZM105.372 96.6274C105.276 98.025 104.134 97.9691 104.134 97.9691C102.896 97.9691 102.896 96.5715 102.896 96.5715C102.952 94.8625 104.286 95.0702 104.286 95.0702C105.531 95.0702 105.38 96.6274 105.38 96.6274H105.372Z" fill="#C20831"/>
<path d="M50.4046 92.2445H47.4259V99.8471H50.4046V92.2445Z" fill="#C20831"/>
<path d="M71.0962 93.3794H68.1175V99.84H71.0962V93.3794Z" fill="#C20831"/>
<path d="M71.0962 92.2124H68.1175V93.0669H71.0962V92.2124Z" fill="#C20831"/>
<path d="M96.1961 93.2753C94.8544 92.9638 93.6645 94.561 93.6645 94.561C92.9218 93.1155 91.4843 93.2753 91.4843 93.2753C89.5997 93.2753 88.9528 94.8245 88.9528 94.8245V93.3791H86.0779V99.8397H88.9129V96.4297C89.0646 95.4953 89.8073 95.5992 89.8073 95.5992C90.6538 95.4474 90.5021 96.5894 90.5021 96.5894V99.8477H93.5287V96.3259C93.6326 95.5513 94.3753 95.5512 94.3753 95.5512C95.07 95.4474 95.2218 96.4377 95.2218 96.4377V99.8477H98.2964V95.0322C97.905 93.1714 96.22 93.2753 96.22 93.2753H96.1961Z" fill="#C20831"/>
<path d="M126.311 96.6356C126.311 96.6356 126.311 99.6863 129.985 99.846C129.985 99.846 132.364 99.846 133.107 98.7599V97.2585C133.107 97.2585 132.364 97.7217 130.927 97.7217C130.927 97.7217 129.242 97.8255 129.242 96.3721C129.242 96.3721 129.338 95.1343 130.536 95.1902C130.536 95.1902 131.773 94.9266 133.115 95.5495V93.585C133.115 93.585 132.029 93.1218 129.697 93.0659C129.697 93.0659 126.423 93.018 126.319 96.6356H126.311Z" fill="#C20831"/>
<path d="M21.3518 84.1625C21.5275 85.0569 21.9028 85.4163 22.8691 85.3444C23.8354 85.2725 25.5843 83.5875 24.7298 80.2574C24.7298 80.2574 23.9392 81.615 23.9392 81.9025C23.9392 82.19 24.1468 82.5813 23.9073 82.6851C23.6677 82.7969 21.775 83.3 21.9427 81.5032C20.0501 82.2539 15.1307 84.442 10.7225 84.442C8.08711 84.442 6.76943 84.7614 5.67536 83.6035C5.15627 82.8847 3.80665 81.8226 2.91222 83.7552C1.98585 85.0729 1.94592 86.3027 1.36295 86.1909C0.74803 86.0791 0.468522 84.7934 0.292831 83.2521C-0.362016 85.4402 0.181028 88.2673 0.947678 88.2353C1.69836 88.2353 2.16154 86.8617 2.55285 86.0232C2.93618 85.1847 3.0959 84.8253 3.6629 84.7934C5.79515 84.9052 3.55908 87.1253 10.443 86.7979C13.6453 86.4784 17.7741 85.8316 20.5612 83.859C21.0802 83.4278 21.216 83.324 21.3518 84.1465V84.1625Z" fill="#C20831"/>
<path d="M145.573 77.7017C145.23 78.3087 144.479 79.7142 144.096 79.9298C144.096 80.968 144.263 87.6043 144.024 88.0675C144.607 86.9894 145.709 85.6637 145.637 84.6575C145.565 83.6592 145.741 78.1729 145.565 77.7017H145.573Z" fill="#C20831"/>
<path d="M137.284 79.8986L136.461 79.1399L134.736 80.3618L135.734 81.2961L137.284 79.8986Z" fill="#C20831"/>
<path d="M140.622 81.4723C140.662 80.9053 140.518 80.7935 140.726 80.474C140.933 80.1546 141.588 79.3241 141.588 79.3241C140.79 78.8928 140.454 78.821 140.79 77.6071C140.79 77.6071 139.304 78.789 139.416 79.6116C139.52 80.4341 139.656 80.506 139.656 80.8653L139.624 82.2309C139.624 82.2309 139.624 82.7341 138.929 82.7341L133.634 82.8059C133.634 82.8059 132.812 84.3872 132.604 84.459C132.604 84.459 135.599 85.026 135.735 85.1378C133.946 85.5691 130.504 85.8885 129.466 85.7448C131.055 84.491 131.398 83.1972 130.464 82.5504C129.537 81.9035 128.675 81.616 124.339 83.7004C124.267 82.199 124.307 80.6897 124.371 80.506C124.434 80.3303 125.025 80.0827 124.882 79.364C124.746 78.6453 124.091 77.9984 124.267 77.4633C123.548 78.7171 122.989 79.7872 123.061 80.2584C123.133 80.7216 123.476 80.9053 123.508 81.4084L123.58 84.0597C123.101 84.3472 122.063 84.9222 121.863 85.066C120.729 85.3535 119.284 84.3871 118.836 83.7403C118.349 82.4146 117.391 80.6178 116.393 80.5459C115.842 80.514 114.947 82.1591 114.604 82.8059C114.26 83.4528 113.606 84.3872 113.749 84.8104C113.885 85.2417 115.466 86.0323 117.495 85.9604C116.64 86.9267 111.713 88.1485 110.818 88.2124C113.709 88.8273 115.945 88.6516 116.6 88.468C117.255 88.2923 118.293 86.8548 118.293 86.8548C120.042 87.3499 121.216 87.9649 124.283 88.0687C127.341 88.1805 131.199 88.0367 132.844 87.8211C134.497 87.6055 138.314 87.0704 139.073 86.9986C139.831 86.9267 141.548 86.7111 141.796 86.8548L143.481 84.8424C143.481 84.8424 140.215 84.2035 139.927 83.916C140.654 82.9497 140.59 82.0553 140.622 81.4723ZM115.738 83.8761C115.394 83.8042 115.187 83.1972 115.187 82.5105C116.049 82.2948 116.808 83.1573 116.704 83.7643C116.6 83.9799 116.081 83.9399 115.738 83.8761ZM122.973 85.7368C124.067 85.1298 127.749 83.7643 128.954 84.4431C128.923 85.7368 124.554 85.9125 122.973 85.7368Z" fill="#C20831"/>
<path d="M104.038 86.7014C102.641 86.4858 101.403 86.6535 100.94 86.5417C103.416 87.6677 104.653 88.2667 107.129 88.051C109.605 87.8354 112.551 84.8806 112.288 83.4272C112.032 81.9737 109.916 81.7102 105.628 84.8806C105.628 84.8806 105.915 83.3473 105.755 80.9036C106.378 80.5522 106.554 79.9613 106.45 79.9613C106.346 79.8894 106.011 79.6099 105.779 79.554C105.676 79.2905 105.755 78.3721 105.859 78.1565C105.085 78.2922 104.645 79.4502 104.542 80.3606C104.438 81.271 104.797 81.3269 104.853 81.7581L105.164 85.4157C104.701 85.791 104.134 86.382 104.03 86.7014H104.038ZM108.319 84.3615C109.533 84.3056 109.892 84.9285 109.924 85.3837C108.838 86.2702 105.739 86.4299 105.252 86.4059C105.763 85.7112 107.113 84.4174 108.319 84.3615Z" fill="#C20831"/>
<path d="M98.0489 84.7698C98.0489 84.7698 98.0249 78.2373 97.8972 77.9419C97.7694 78.2134 96.6034 80.2578 96.6034 80.2578C96.7073 82.0067 96.9389 86.8462 96.4517 87.9802C97.5378 86.5267 98.0489 85.3129 98.0489 84.7778V84.7698Z" fill="#C20831"/>
<path d="M91.8356 86.3591C92.0672 87.6209 92.3786 88.2758 93.2252 88.3237C93.7682 88.3476 94.5908 86.8782 94.8303 85.9838C95.0619 85.0974 95.7168 83.3165 94.6227 82.9252C93.9519 82.6776 93.5686 83.2766 93.1533 83.0529C92.9696 82.8613 93.0016 82.2464 93.0016 82.2464L93.0734 80.9207C93.5127 80.3856 93.6963 80.0662 93.6404 79.635C93.5925 79.2037 92.8658 79.044 92.8658 78.8843C92.8658 78.7246 92.6821 78.0537 92.8179 77.7583C92.5623 78.0537 91.3964 79.9863 91.3964 80.4495C91.3964 80.9127 91.9953 81.0405 91.9953 81.4158C91.9953 81.4158 92.0991 83.4842 92.0512 83.8356C91.1967 84.4824 87.6829 86.2313 85.9021 85.9359C85.1035 85.8241 85.0236 84.698 84.9996 84.0272L85.1035 78.2694C85.1035 78.2694 84.4087 79.5631 84.1212 79.7308L84.0174 83.3085C83.9934 83.8196 84.0174 84.5144 82.9073 84.9456C81.7973 85.3689 79.8327 86.2393 77.3571 84.9456L71.8628 81.1044C71.8628 81.1044 71.6551 80.8089 71.9905 80.753C71.9905 80.753 78.1078 80.186 78.571 80.162C79.0341 80.1301 79.2018 80.3217 79.09 80.8009C78.9782 81.2321 77.7404 82.1425 77.2533 82.4221C78.8744 81.9349 80.6074 80.753 80.4556 78.9721C80.3838 78.1975 79.5053 78.3253 78.5949 78.3253C78.5949 78.3253 70.2097 77.894 70.2097 80.769C70.0819 82.3102 70.4652 82.3102 71.0642 82.8134L72.7971 84.3706C72.4058 85.4487 71.3277 85.2012 70.6808 84.722C70.034 84.2349 69.9861 83.3245 70.0899 82.9731C65.9292 84.746 64.2601 85.2331 61.6248 85.1772C58.9894 85.1293 57.496 85.0734 56.5138 83.6199C55.9947 82.9012 54.3895 82.6776 53.567 84.0272C52.6406 85.3449 51.9698 85.848 51.5305 85.7761C50.9076 85.6643 51.275 83.4922 51.4267 83.1647C51.5785 82.8373 51.4507 82.5179 51.1392 83.0849C50.133 84.746 49.7976 88.2198 51.6583 88.2198C52.409 88.2198 53 86.8862 53.3833 86.0397C53.7746 85.2012 53.9263 85.0414 54.4933 85.0175C55.8589 84.9935 54.677 87.6289 61.1057 87.549C64.6355 87.5011 69.1316 85.5765 69.4909 85.3369C69.9062 86.5188 70.7607 87.7327 71.5513 87.6528C72.3579 87.573 73.5638 87.1897 73.7714 85.6324L74.0589 85.5525C75.2169 86.5508 77.0297 88.1639 79.657 88.1879C82.2924 88.2119 83.7379 85.9598 83.9136 85.3928C84.2729 86.6626 84.7681 88.0841 86.3413 88.108C87.9145 88.132 91.2207 86.9022 91.8436 86.3591H91.8356ZM92.9536 84.9456C93.9838 84.7859 94.4869 86.0317 94.1036 86.3032C92.7859 86.5667 92.8818 85.4088 92.9536 84.9456Z" fill="#C20831"/>
<path d="M54.4854 80.2028C54.174 80.2028 53.2396 79.6678 53.2396 79.6678L51.5386 81.0174L52.6726 81.6084C52.6726 81.6084 53.7587 80.698 54.2219 80.7459C54.6851 80.8018 55.3559 81.3848 55.3559 81.3848C55.3559 81.3848 56.8493 80.099 57.0569 80.0431C56.6975 79.564 56.0746 79.2924 56.0746 79.2924C56.0746 79.2924 54.7809 80.2028 54.4775 80.2028H54.4854Z" fill="#C20831"/>
<path d="M70.0421 87.5646L69.2196 86.8139C69.2196 86.8139 67.878 87.5327 67.5665 87.4927C67.255 87.4608 66.4964 86.8539 66.4964 86.8539C66.2568 87.0695 64.9471 87.8202 64.6756 87.892L65.7776 88.5708C65.7776 88.5708 67.0474 87.8202 67.3269 87.932C67.5984 88.0358 68.2932 88.499 68.2932 88.499L70.0501 87.5646H70.0421Z" fill="#C20831"/>
<path d="M47.5696 84.9852C47.5696 84.9852 47.0265 78.5565 46.8987 78.261C46.771 78.5325 45.605 80.577 45.605 80.577C45.9724 82.7332 46.5633 87.349 46.0682 88.483C47.1543 87.0296 47.5696 85.5282 47.5696 84.9852Z" fill="#C20831"/>
<path d="M41.4124 86.0642C41.644 87.326 41.5242 88.1645 42.6183 88.3242C43.337 88.436 43.6245 87.326 43.8561 86.4395C44.0877 85.5531 44.9422 83.5965 43.8561 83.2052C43.1853 82.9657 42.794 83.5486 42.3867 83.341C42.203 83.1573 42.227 82.5344 42.227 82.5344L42.2669 81.4883C42.7062 80.9532 42.778 80.5779 42.7221 80.1546C42.6742 79.7234 42.0593 79.6036 42.0593 79.4439C42.0593 79.2841 41.8756 78.6053 42.0034 78.3178C41.7478 78.6133 40.5819 80.5459 40.5819 81.0011C40.5819 81.4563 41.2367 81.4563 41.2367 81.8316C41.2367 81.8316 41.2926 83.7722 41.2367 84.1236C40.3822 84.7705 37.1719 86.0961 36.0059 84.7705C36.5889 84.2274 37.5951 83.8761 37.8986 83.8441L38.3538 81.616C37.2198 81.3285 32.8435 80.6098 30.7831 81.041L29.8568 82.9417C29.8568 82.9417 30.7512 83.0535 31.0227 83.1573C31.2942 83.2691 31.6376 83.6205 31.7414 83.8361C29.8488 83.8681 27.0936 84.5469 25.9277 85.3055C24.7537 86.0562 22.35 88.1405 21.9746 87.8131C21.5993 87.4857 21.5993 87.7013 22.1104 85.8406C21.4875 86.3357 20.6809 88.2603 21.5594 88.6357C23.0767 89.2746 25.9596 86.3756 27.7165 86.2319C29.3377 85.5531 32.2925 85.617 32.6039 85.2496C33.8977 86.4316 34.8081 86.9427 36.0618 87.1822C39.1524 87.7572 40.7975 85.7847 41.4124 86.0562V86.0642ZM42.3787 85.058C43.4089 84.8982 43.7523 86.1041 43.337 86.4954C42.203 86.7111 42.2989 85.5052 42.3787 85.058ZM33.8098 83.4528L33.0192 82.4865C33.3626 82.4546 35.3271 82.4865 35.5987 82.6622L33.8098 83.4528Z" fill="#C20831"/>
<path d="M34.4965 80.2576L36.0059 79.2115L35.3191 78.5327L33.4664 79.5708L34.4965 80.2576Z" fill="#C20831"/>
<path d="M3.66289 80.5372C4.00629 80.4334 4.97258 80.9685 5.0764 80.9285C5.18022 80.8966 6.62568 79.7147 6.62568 79.7147C6.62568 79.7147 5.55556 79.2834 5.45973 79.2435C5.04446 79.2435 4.5653 80.1459 4.35767 80.2098C4.15003 80.2817 3.46324 79.8904 2.77645 79.6029C2.60076 79.7786 1.74626 80.7529 1.16329 81.0723C1.40287 81.1442 2.50493 81.5435 2.50493 81.5435C2.50493 81.5435 3.32748 80.649 3.67088 80.5372H3.66289Z" fill="#C20831"/>
<path d="M19.6588 86.0954C19.3873 86.0635 18.2852 86.9898 18.0776 86.9898C17.838 86.918 16.9756 86.343 16.736 86.3829C16.4964 86.4149 14.9471 87.7405 14.9471 87.7405L16.3926 88.3794C16.3926 88.3794 17.7342 87.453 17.9099 87.4131C18.0856 87.3732 18.8762 88.02 19.0439 88.052C19.2196 88.0919 20.8328 86.8381 20.8328 86.8381C20.8328 86.8381 19.9383 86.1194 19.6588 86.0794V86.0954Z" fill="#C20831"/>
<path d="M27.9243 87.6686L27.1656 87.0297L25.792 87.7485L26.4788 88.603L27.9243 87.6686Z" fill="#C20831"/>
</g>
<defs>
<clipPath id="clip0_3817_8140">
<rect width="145.646" height="100.003" fill="white" transform="translate(0 0.837402)"/>
</clipPath>
</defs>
</svg>
