<svg width="250" height="102" viewBox="0 0 250 102" fill="none" xmlns="http://www.w3.org/2000/svg">
<g clip-path="url(#clip0_3812_4294)">
<path d="M238.058 16.4837C233.285 21.2271 222.941 25.3056 217.858 27.2118C210.913 29.8274 207.824 30.7435 203.938 32.0144C199.534 33.4477 190.727 36.1076 190.727 36.1076C208.977 41.5603 221.833 43.2006 221.833 43.2006C221.833 43.2006 227.818 41.3535 237.319 36.2702C242.462 33.6546 244.989 31.8962 246.791 30.2116C247.456 29.6057 249.185 27.8177 249.614 25.5273C249.643 25.3647 249.717 24.9214 249.717 24.4929C249.717 24.4929 249.717 24.1825 249.688 23.9313C249.688 23.621 249.629 23.4289 249.629 23.4289C249.629 23.4289 249.525 22.8822 249.392 22.498C249.259 22.1138 248.668 20.9316 247.708 20.178C247.072 19.6608 245.979 18.3752 241.989 16.9713C240.629 16.4985 238.442 16.0699 238.442 16.0699L238.058 16.4985V16.4837Z" fill="url(#paint0_linear_3812_4294)"/>
<path d="M249.702 24.3599C249.702 24.3599 249.673 23.8574 249.555 23.4289C249.451 23.0447 249.289 22.6753 249.038 22.2911C248.727 21.833 248.313 21.301 247.693 20.6951C247.22 20.2518 246.703 19.8676 246.097 19.4539C243.6 17.8284 240.393 16.8975 237.556 16.5132C233.152 15.9222 228.098 16.0256 227.626 16.0108C226 15.9813 215.494 16.0699 212.804 16.129C200.82 16.3803 186.132 16.4098 182.29 16.4098C142.599 16.5871 125.324 15.7301 106.099 11.888C89.7411 8.63709 80.668 5.54869 80.668 5.54869C95.0904 5.04627 179.275 1.55889 194.628 1.14513C204.692 0.864365 211.829 0.805257 217.533 1.14513C220.459 1.30768 223.192 1.55889 226.606 2.13519C229.68 2.66716 232.458 3.55379 234.083 4.15964C237.497 5.43047 240.393 7.26282 241.812 9.13951C241.812 9.13951 242.24 9.56804 242.802 10.3364C243.437 11.2231 244.191 12.3313 244.442 12.7303C246.525 15.8778 247.515 17.8727 247.855 18.5525C248.225 19.2766 248.55 20.0302 248.875 20.769C249.185 21.5079 249.318 21.9512 249.422 22.2615C249.643 23.0299 249.688 23.7392 249.702 23.9018L249.732 24.3894L249.702 24.3599Z" fill="#E1251B"/>
<path d="M10.2111 64.7454C11.1273 64.2725 11.541 63.1642 11.541 62.2185V38.9151C11.541 37.9251 11.1273 36.8463 10.2111 36.3587H21.3234C26.2737 36.3587 31.1058 38.3832 31.1058 44.0132C31.1058 46.9982 28.505 49.3477 25.6974 49.8797C29.7315 49.8354 33.6327 52.3031 33.6327 56.7658C33.6327 63.1347 26.9535 64.7602 22.2544 64.7602H10.1963L10.2111 64.7454ZM19.2103 38.7969C18.6931 38.7969 18.3385 38.7969 17.3927 38.9151V48.8601H18.5158C21.9145 48.8601 25.2098 47.8109 25.2098 43.8654C25.2098 39.92 22.5795 38.8117 19.2103 38.8117V38.7969ZM19.9196 51.4017C19.1068 51.4017 18.3828 51.4017 17.3927 51.4756V61.9673C18.6192 62.2037 19.9491 62.2924 21.1904 62.2924C24.0424 62.2924 26.9387 61.0216 26.9387 56.6623C26.9387 52.3031 23.5104 51.4017 19.9344 51.4017H19.9196ZM44.6416 38.7969C44.1391 38.7969 43.6811 38.8856 43.1786 38.9447V48.7566C43.6515 48.7862 44.0653 48.8453 44.5234 48.8453C47.7152 48.8453 50.0795 47.0868 50.0795 43.6142C50.0795 40.1416 47.7595 38.7969 44.6268 38.7969H44.6416ZM58.9605 64.9079C57.867 64.9079 56.6701 64.9523 55.6357 64.6419C53.6999 64.0656 51.04 59.7212 49.9761 58.0071C48.321 55.229 46.8877 51.4017 43.1934 51.3574V62.2037C43.1934 63.1495 43.622 64.3021 44.5381 64.7306H36.0118C36.9132 64.2577 37.3417 63.1938 37.3417 62.2037V38.9003C37.3417 37.9103 36.9132 36.8316 36.0118 36.3439H46.2818C50.7445 36.3439 56.345 38.0581 56.345 43.4221C56.345 47.9291 52.6212 50.2343 48.4688 50.2343C54.3796 50.2639 57.8522 64.1395 64.3689 64.1691C62.6252 64.6863 60.7929 64.8932 58.9753 64.8932L58.9605 64.9079ZM64.7827 64.7454C65.492 64.4203 66.2308 63.4893 66.2308 62.2185V38.9151C66.2308 37.6147 65.492 36.7133 64.7827 36.3587H73.5159C72.7623 36.7133 72.0825 37.6295 72.0825 38.9151V62.2185C72.0825 63.4893 72.7623 64.4203 73.5159 64.7454H64.7827ZM83.7416 64.7454C84.6726 64.3169 85.1306 63.2086 85.1306 62.2185V39.6096H78.8504C77.4023 39.6096 75.6733 39.787 74.4321 40.5258L76.3826 36.3587H97.2035C98.888 36.3587 100.617 36.3144 102.257 35.9745C101.459 38.1172 99.1097 39.6983 97.7503 39.6983C96.0952 39.654 93.3615 39.5505 91.0119 39.5505V62.2333C91.0119 63.2233 91.4995 64.3316 92.4305 64.7602H83.7564L83.7416 64.7454ZM103.292 64.7454C103.986 64.4203 104.725 63.4893 104.725 62.2185V38.9151C104.725 37.6147 103.986 36.7133 103.292 36.3587H112.025C111.286 36.7133 110.577 37.6295 110.577 38.9151V62.2185C110.577 63.4893 111.286 64.4203 112.025 64.7454H103.292ZM129.048 58.3174C129.048 52.909 116.31 51.6825 116.31 43.0527C116.31 37.7034 121.394 35.9597 125.871 35.9597C127.866 35.9597 130.747 36.2405 132.58 37.068L132.89 42.373C131.767 40.0234 128.959 38.324 126.359 38.324C124.305 38.324 122.147 39.3437 122.147 41.6932C122.147 47.3085 135.107 48.668 135.107 56.8544C135.107 62.7948 129.92 65.2478 124.689 65.2478C121.955 65.2478 118.231 64.7158 115.911 63.1495C115.778 62.2037 115.704 61.2137 115.704 60.2384C115.704 59.0858 115.808 57.9184 115.97 56.7806C117.418 60.0611 120.389 62.6323 124.112 62.6323C126.935 62.6323 129.048 61.391 129.048 58.3174ZM156.341 64.7454C156.962 64.4646 157.612 63.4893 157.612 62.2185V51.6529C156.09 51.4756 153.962 51.4017 151.583 51.4017C149.204 51.4017 147.032 51.4756 145.465 51.6529V62.2185C145.465 63.4893 146.101 64.4203 146.736 64.7454H138.328C138.949 64.4646 139.614 63.4893 139.614 62.2185V38.9151C139.614 37.6147 138.949 36.669 138.328 36.3587H146.736C146.115 36.669 145.465 37.6295 145.465 38.9151V48.4611C147.017 48.6236 149.13 48.7123 151.583 48.7123C154.036 48.7123 156.09 48.6089 157.612 48.4611V38.9151C157.612 37.6147 156.947 36.669 156.341 36.3587H164.749C164.114 36.669 163.493 37.6295 163.493 38.9151V62.2185C163.493 63.4893 164.114 64.4203 164.749 64.7454H156.341Z" fill="#0033A1"/>
<path d="M21.0573 101.407C21.3233 101.126 21.5745 100.919 21.5745 100.417C21.5745 100.254 21.5154 99.9588 21.3085 99.4269C21.3085 99.4269 18.9737 93.0875 18.7077 92.3487C16.9493 92.127 15.1317 92.127 13.3437 92.127C11.5556 92.127 9.93017 92.1714 8.24559 92.3487C8.00916 92.9841 5.51183 99.2939 5.51183 99.2939C5.17196 100.151 5.05374 100.432 5.05374 100.624C5.05374 101.052 5.42317 101.244 5.71871 101.392H0C0.842291 100.964 1.58114 100.092 1.93579 99.2052L11.334 74.9561C11.3783 74.8527 11.3931 74.7492 11.3931 74.6015C11.3931 73.9365 10.9498 73.3011 10.3587 72.9908H17.7324L27.2932 99.1757C27.6774 100.225 28.5197 100.993 29.2142 101.377H21.0868L21.0573 101.407ZM13.6392 78.4139L9.33908 89.4672C10.6247 89.6149 11.9546 89.6445 13.255 89.6445C14.7475 89.6445 16.2104 89.6445 17.6586 89.4672L13.6392 78.4139ZM30.6476 101.407C31.3569 101.082 32.0809 100.151 32.0809 98.8801V75.5767C32.0809 74.2764 31.3569 73.375 30.6476 73.0203H39.3808C38.6419 73.375 37.9474 74.2911 37.9474 75.5767V98.8801C37.9474 100.151 38.6419 101.082 39.3808 101.407H30.6476ZM52.6506 75.4585C52.1777 75.4585 51.7196 75.5472 51.232 75.6063V85.4183C51.6901 85.4478 52.1038 85.5069 52.5471 85.5069C55.7538 85.5069 58.1033 83.7484 58.1033 80.2758C58.1033 76.8032 55.7685 75.4585 52.6358 75.4585H52.6506ZM67.6788 101.57C66.5853 101.57 65.4179 101.614 64.354 101.304C62.4182 100.727 59.7583 96.3828 58.6944 94.6687C57.0541 91.8906 54.9115 88.019 51.232 88.019V98.8654C51.232 99.8111 51.6457 100.964 52.5471 101.392H44.0356C44.9518 100.919 45.3803 99.8554 45.3803 98.8654V75.562C45.3803 74.5719 44.9518 73.4932 44.0356 73.0055H54.3204C58.783 73.0055 64.354 74.7197 64.354 80.0837C64.354 84.5907 60.2755 86.896 57.2019 86.896C63.3344 87.2506 67.0286 100.831 73.102 100.831C71.3435 101.348 69.5112 101.555 67.6788 101.555V101.57ZM103.099 75.7836L94.4696 101.407C93.7603 101.407 93.051 101.156 92.6668 100.89C91.8097 100.062 90.4798 96.634 89.9922 95.3632L86.091 85.5069L80.4757 101.407H77.8011L68.1517 75.7245C67.7379 74.631 67.0286 73.5818 65.9795 73.0203H74.3728C74.0182 73.3011 73.7817 73.6114 73.7817 74.2025C73.7817 74.4832 73.9295 74.8822 74.0329 75.1925L80.328 92.1861L87.022 73.0203L94.3957 91.4916L99.9814 74.764C100.114 74.3059 100.203 74.1434 100.203 73.8626C100.203 73.508 100.055 73.3011 99.7006 73.0203H105.257C104.237 73.5671 103.484 74.7345 103.129 75.7984L103.099 75.7836ZM113.414 78.4139L109.114 89.4672C110.414 89.6149 111.744 89.6445 113.044 89.6445C114.522 89.6445 116 89.6445 117.448 89.4672L113.429 78.4139H113.414ZM120.817 101.407C121.113 101.126 121.334 100.919 121.334 100.417C121.334 100.254 121.246 99.9588 121.083 99.4269C121.083 99.4269 118.763 93.0875 118.482 92.3487C116.709 92.127 114.891 92.127 113.103 92.127C111.419 92.127 109.705 92.1714 108.005 92.3487C107.769 92.9841 105.286 99.2939 105.286 99.2939C104.932 100.151 104.828 100.432 104.828 100.624C104.828 101.052 105.183 101.244 105.478 101.392H99.7598C100.602 100.964 101.341 100.092 101.681 99.2052L111.109 74.9561C111.138 74.8527 111.168 74.7492 111.168 74.6015C111.168 73.9365 110.724 73.3011 110.104 72.9908H117.477L127.023 99.1757C127.422 100.225 128.265 100.993 128.959 101.377H120.817V101.407ZM146.47 75.9905L139.746 87.7826V98.8654C139.746 99.7668 140.116 100.964 141.017 101.392H132.653C133.511 100.919 133.895 99.7372 133.895 98.8654V87.7382L128.043 78.3696C127.526 77.4978 125.088 73.4045 122.117 73.4045C122.93 73.0942 125.383 72.6361 127.023 72.6361C129.772 72.6361 131.131 72.8873 132.816 75.5324L138.224 84.1031C138.682 83.2608 142.968 75.8132 142.968 75.8132C143.485 74.9118 143.84 74.2616 143.84 73.9513C143.84 73.5375 143.662 73.2715 143.249 73.0055H149.278C148.095 73.5671 147.105 74.8674 146.47 75.9905ZM162.208 94.979C162.208 89.5706 149.47 88.3441 149.47 79.7143C149.47 74.365 154.538 72.6213 159.016 72.6213C161.025 72.6213 163.892 72.9021 165.724 73.7296L166.035 79.0346C164.897 76.685 162.104 74.9857 159.503 74.9857C157.435 74.9857 155.292 76.0053 155.292 78.3548C155.292 83.9701 168.251 85.3296 168.251 93.5161C168.251 99.4564 163.109 101.909 157.834 101.909C155.1 101.909 151.361 101.377 149.056 99.7963C148.908 98.8506 148.834 97.8605 148.834 96.8852C148.834 95.7326 148.938 94.5652 149.115 93.4274C150.548 96.7079 153.548 99.2791 157.272 99.2791C160.109 99.2791 162.222 98.0378 162.222 94.9642L162.208 94.979Z" fill="#0033A1"/>
</g>
<defs>
<linearGradient id="paint0_linear_3812_4294" x1="231.97" y1="10.7207" x2="210.662" y2="47.6189" gradientUnits="userSpaceOnUse">
<stop stop-color="#E7E7F5"/>
<stop offset="0.06" stop-color="#C8CCE9"/>
<stop offset="0.17" stop-color="#929DD4"/>
<stop offset="0.27" stop-color="#6A7BC5"/>
<stop offset="0.35" stop-color="#5166BC"/>
<stop offset="0.4" stop-color="#495FB9"/>
<stop offset="0.9" stop-color="#0033A1"/>
</linearGradient>
<clipPath id="clip0_3812_4294">
<rect width="249.732" height="100.998" fill="white" transform="translate(0 0.911865)"/>
</clipPath>
</defs>
</svg>
