<?xml version="1.0" encoding="utf-8"?>
<!-- Generator: Adobe Illustrator 23.0.3, SVG Export Plug-In . SVG Version: 6.00 Build 0)  -->
<svg version="1.1"
	 id="logosvg.com" inkscape:version="0.91 r13725" sodipodi:docname="Japan_Airlines_logo2.svg" xmlns:cc="http://creativecommons.org/ns#" xmlns:dc="http://purl.org/dc/elements/1.1/" xmlns:inkscape="http://www.inkscape.org/namespaces/inkscape" xmlns:rdf="http://www.w3.org/1999/02/22-rdf-syntax-ns#" xmlns:sodipodi="http://sodipodi.sourceforge.net/DTD/sodipodi-0.dtd" xmlns:svg="http://www.w3.org/2000/svg"
	 xmlns="http://www.w3.org/2000/svg" xmlns:xlink="http://www.w3.org/1999/xlink" x="0px" y="0px" viewBox="0 0 400 300"
	 style="enable-background:new 0 0 400 300;" xml:space="preserve">
<style type="text/css">
	.st0{fill:#CC0000;}
</style>
<path id="red" class="st0" d="M24.7,159.5l0.1,1.6h-1.4L24.7,159.5z M37.7,156.3L37.7,156.3c1.5-0.9,2.4-1.8,2.9-2.6l0,0
	C39,161.7,31.8,168,23.1,168c-8.7,0-15.9-6.2-17.6-14.3l0,0c0.6,0.8,1.4,1.7,2.9,2.7l0,0c-1.3-1.2-2.7-2.8-3.3-4.7
	c-0.1-1.1-0.1-2.8,0.1-4h0c0.4,1.7,1.5,4.1,3.9,6l0,0c-2.1-2.3-3.4-5.1-3.6-8c0.4-1.6,1-3.1,1.8-4.5l0,0c-0.4,2.9,0.3,6.8,3.1,10
	l0,0c-2.5-3.5-3.1-7.8-2-11.7c3.3-4.4,8.5-7.3,14.4-7.3c5.9,0,11.2,2.9,14.4,7.3c1.1,3.9,0.4,8.2-2,11.7l0,0c2.8-3.1,3.5-7,3.1-10
	l0,0c0.8,1.4,1.4,2.9,1.8,4.5c-0.2,2.9-1.5,5.7-3.6,8l0,0c2.4-1.9,3.6-4.3,3.9-6h0c0.2,1.2,0.2,2.8,0.1,4
	C40.4,153.5,39.1,155.1,37.7,156.3z M19.9,161.4l1.3-3.4h-2.4l-1.2,3.1c-0.4,1-1.3,1.1-2.5,0.9l-0.4,1.1c0.5,0.1,1,0.2,1.7,0.2
	C17.6,163.3,19.3,163.1,19.9,161.4z M27.3,163.1l-0.5-5.1h-2.2c-0.3,0-0.6,0.2-0.8,0.4l-4.1,4.8h2l0.8-1h2.2l0,1H27.3z M33.9,162
	h-3.1l1.6-4h-2.4l-2,5.1h5.6L33.9,162z M34.7,144.1c0-6.3-5.2-11.6-11.6-11.6c-6.4,0-11.6,5.2-11.6,11.6c0,4.4,2.4,7.9,5.3,9.7
	c0.2,1,0.7,2,1.2,2.8l0,0c-1.4-3.9-0.3-8.8,5.9-13.5c1.7-1.3,1.1-2.8-0.6-2.9l-9.7-0.6v-0.1l9-0.8c1.6-2,4.3-1.9,5.8-0.1
	c0.6,0.7,1.4,1.6,1.8,1.9l0,0c-3.1,1.8-7.3,5.2-7.7,8.6c-0.6,4.4,4.9,6.7,8.6,3.1C33.2,150.4,34.7,147.5,34.7,144.1z"/>
<path id="text" d="M386,146c0.1-1.2-0.2-2.1-2.8-2.1c-2.6,0-4,0.9-4.5,2.1c-1.3,3.2,16.5,0.1,13.7,7.4c-1.9,4.9-8.3,6.4-15.3,6.4
	c-7,0-11.5-1.5-10.4-6.4h8.9c-0.2,1.3,0.6,2.1,3.2,2.1c2.6,0,4.3-0.9,4.8-2.1c1.2-3.2-16.3-0.1-13.5-7.4c1.6-4.1,7.7-6,14.7-6
	c6.9,0,10.9,1.5,10.1,6H386z M235.4,140.5l-7.1,18.6h8.9l7.1-18.6H235.4z M302.5,140.5l-7.1,18.6h8.9l7.1-18.6H302.5z M362.2,151.4
	l1.4-3.6h-10.6l1.4-3.8h12.7l1.4-3.6H347l-7.1,18.6h21.6l1.5-3.9h-12.7l1.4-3.8H362.2z M181.4,150.3l-5.3-9.8h-8.3l-7.1,18.6h7.2
	l4.2-11l6,11h7.2l7.1-18.6h-7.2L181.4,150.3z M334.3,140.5l-3.7,9.8l-5.3-9.8h-8.3l-7.1,18.6h7.2l4.2-11l6,11h7.2l7.1-18.6H334.3z
	 M82.2,140.5h-8.9L69,151.8c-1.4,3.5-4.8,3.9-8.9,3.4l-1.5,3.9c1.7,0.4,3.8,0.6,6.2,0.6c4.3,0,10.3-0.5,12.7-6.9L82.2,140.5z
	 M123.2,152.4h-4.9l-2.6,6.8h-8.9l7.1-18.6h13.8c8.2,0,10.9,2.2,9.5,5.9C135.8,150.2,131.3,152.4,123.2,152.4z M126.3,144.1h-4.9
	l-1.8,4.7h4.9c1.6,0,3.3-1,3.8-2.4C128.8,145.1,127.9,144.1,126.3,144.1z M265.9,151.7l2.4,7.4h-9.7l-1.8-6.8h-2.7l-2.6,6.8h-8.9
	l7.1-18.6h13.8c8.2,0,10.9,2.2,9.5,5.9C272.1,149,269.8,150.8,265.9,151.7z M262.3,144.1h-4.9l-1.8,4.7h4.9c1.6,0,3.3-1,3.8-2.4
	C264.8,145.1,263.9,144.1,262.3,144.1z M288.7,140.5h-8.9l-7.1,18.6h20.1l1.5-3.9H283L288.7,140.5z M102.7,140.5l1.8,18.6h-8.9
	l-0.1-3.7h-8l-2.9,3.7h-7.3l14.9-17.2c0.7-0.8,1.8-1.4,2.7-1.4H102.7z M95.4,151.9l-0.2-6l-4.8,6H95.4z M156.6,140.5l1.8,18.6h-8.9
	l-0.1-3.7h-8l-3,3.7H131l14.9-17.2c0.7-0.8,1.8-1.4,2.7-1.4H156.6z M149.2,151.9l-0.2-6l-4.8,6H149.2z M224.3,140.5l1.8,18.6h-8.9
	l-0.1-3.7h-8l-2.9,3.7h-7.3l14.9-17.2c0.7-0.8,1.8-1.4,2.7-1.4H224.3z M216.9,151.9l-0.2-6l-4.8,6H216.9z"/>
</svg>
