<svg width="375" height="86" viewBox="0 0 375 86" fill="none" xmlns="http://www.w3.org/2000/svg">
<path d="M0.0167236 81.8892V85.5711H300.936L303.535 81.8892H0.0167236Z" fill="#F99D1C"/>
<path d="M325.56 78.2761C325.56 78.2761 336.923 61.2993 337.956 59.6166C339.205 57.5674 339.272 54.302 338.139 52.5527C337.556 51.6363 320.612 24.8299 320.612 24.8299C319.096 21.931 319.463 19.9485 320.479 18.549C322.145 16.0833 325.094 11.7183 325.094 11.7183C325.094 11.7183 345.669 44.0059 346.519 45.4387C348.735 49.1206 348.119 52.7359 346.303 55.8181C344.77 58.4337 331.441 78.2928 331.441 78.2928H325.544L325.56 78.2761Z" fill="#F99D1C"/>
<path d="M321.895 80.108C321.895 80.108 335.04 60.8487 336.023 59.2493C337.173 57.3001 337.039 54.5511 336.023 52.9018C335.473 52.0188 317.214 23.2798 317.214 23.2798C317.214 23.2798 313.965 28.1779 312.949 29.6773C311.932 31.1767 311.316 33.0594 313.082 36.0582C313.082 36.0582 326.16 56.7003 326.71 57.5833C327.776 59.266 327.726 62.3648 326.543 64.3141C325.56 65.8801 312.082 85.556 312.082 85.556H351.001C354.966 85.556 357.132 84.0232 359.031 81.2743C360.681 78.9418 367.095 69.6287 368.078 68.1626C369.044 66.6965 370.993 65.7302 371.876 65.7302H374.925L368.994 56.7003H359.531C357.715 56.7003 355.532 58.2997 354.383 60.0157C353.483 61.3652 347.002 71.0615 345.836 72.6276C345.17 73.5106 344.603 73.6938 344.087 73.7105C343.804 73.7105 342.954 73.7105 342.854 73.7105C343.237 72.9275 354.116 57.1168 356.265 53.6182C358.848 49.3365 359.431 43.672 356.365 38.2241C355.249 36.2581 332.641 0.571777 332.641 0.571777C332.641 0.571777 329.626 4.90345 328.376 6.76941C327.36 8.2855 327.043 10.2681 328.509 13.167C328.509 13.167 347.485 43.3554 348.402 44.7382C350.601 48.1702 350.334 52.7685 348.402 55.9173C346.819 58.4996 333.707 78.2921 333.707 78.2921H344.103C347.869 78.2921 348.785 76.8926 349.835 75.743C350.868 74.5768 356.515 66.0134 357.165 65.1138C357.815 64.2141 359.464 61.6984 361.63 61.6984H368.461V61.8983C367.011 62.1982 365.579 63.0646 364.529 64.4973C363.496 65.8968 356.632 76.0596 355.816 77.2425C354.783 78.7419 353.583 80.1414 350.601 80.1414H321.962L321.895 80.108Z" fill="#F99D1C"/>
<path d="M238.56 58.1155H234.878V74.8758H238.56V58.1155Z" fill="#02205F"/>
<path d="M5.63119 68.095H10.3461C11.429 68.095 12.1621 68.7114 12.1621 69.9276C12.1621 71.1438 11.429 71.7603 10.3461 71.7603H0.199916V74.9091H9.97955C13.7781 74.9091 15.6441 72.41 15.6441 69.861C15.6441 67.312 13.7781 64.8296 9.97955 64.8296C8.34683 64.8296 5.23136 64.8296 5.23136 64.8296C4.18175 64.8296 3.46533 64.2298 3.46533 63.0636C3.46533 61.8974 4.18175 61.281 5.23136 61.281H15.3942V58.1322H5.61454C1.84929 58.1322 0 60.348 0 63.1302C0 65.9125 1.84929 68.1117 5.61454 68.1117L5.63119 68.095Z" fill="#02205F"/>
<path d="M55.9954 74.8758H63.4759V63.93H59.794V71.6271H55.479C52.3635 71.6271 50.2809 69.8278 50.2809 66.3957C50.2809 62.9637 52.3635 61.1644 55.479 61.1644H63.4759V58.0989H55.9954C49.6812 58.0989 46.5657 62.6305 46.5657 66.4957C46.5657 70.3609 49.6812 74.8592 55.9954 74.8592V74.8758Z" fill="#02205F"/>
<path d="M23.0913 58.1155H19.4093V74.8758H23.0913V58.1155Z" fill="#02205F"/>
<path d="M31.3215 61.181H37.4192C38.9186 61.181 39.8682 62.5471 39.8682 63.8133V74.8924H43.5335V63.3468C43.5335 60.4979 41.501 58.1155 38.2355 58.1155H33.404L31.3048 60.9144V58.1155H27.6229V74.8758H31.3048V61.1643L31.3215 61.181Z" fill="#02205F"/>
<path d="M129.068 61.181H134.849C136.199 61.181 137.065 62.4805 137.065 63.6467C137.065 64.8129 136.215 66.0791 134.849 66.0791H130.334L137.665 74.8758H142.03L136.832 68.6281C139.064 67.9117 140.497 65.8625 140.497 63.5468C140.497 60.6645 138.264 58.1155 135.016 58.1155H125.453V74.8758H129.068V61.181Z" fill="#02205F"/>
<path d="M158.107 74.8758V71.8103L148.277 71.8269V67.5286H156.841V64.4797H148.277V61.181H158.107V58.1155H144.579V74.8758H158.107Z" fill="#02205F"/>
<path d="M232.296 74.8758V71.8103L223.732 71.8269V58.1155H220.034V74.8758H232.296Z" fill="#02205F"/>
<path d="M79.4533 70.0109L81.6191 74.8758H85.6343L77.4207 58.1155H73.6222L65.4086 74.8758H69.4571L71.6229 70.0109H79.4533ZM75.5381 60.9977L78.2038 67.0621H72.9058L75.5548 60.9977H75.5381Z" fill="#02205F"/>
<path d="M91.2155 66.7455L93.3147 69.5278H97.08C100.245 69.5278 102.478 66.8955 102.478 63.8633C102.478 60.8311 100.245 58.1322 97.08 58.1322H87.5169V74.8924H91.2155V66.7455ZM91.2155 61.181H96.9134C98.2629 61.181 99.1292 62.5971 99.1292 63.8633C99.1292 65.1295 98.2629 66.4956 96.9134 66.4956H91.2155V61.181Z" fill="#02205F"/>
<path d="M113.59 75.5921C118.605 75.5921 122.687 71.5104 122.687 66.479C122.687 61.4476 118.605 57.3491 113.59 57.3491C108.576 57.3491 104.494 61.4309 104.494 66.479C104.494 71.527 108.559 75.5921 113.59 75.5921ZM113.59 60.7478C116.739 60.7478 119.305 63.3135 119.305 66.479C119.305 69.6444 116.739 72.1934 113.59 72.1934C110.442 72.1934 107.859 69.6278 107.859 66.479C107.859 63.3302 110.425 60.7478 113.59 60.7478Z" fill="#02205F"/>
<path d="M183.481 70.0109L185.647 74.8758H189.662L181.448 58.1155H177.65L169.436 74.8758H173.484L175.65 70.0109H183.481ZM179.565 60.9977L182.231 67.0621H176.933L179.582 60.9977H179.565Z" fill="#02205F"/>
<path d="M204.573 61.181H210.354C211.703 61.181 212.57 62.4805 212.57 63.6467C212.57 64.8129 211.72 66.0791 210.354 66.0791H205.839L213.169 74.8758H217.534L212.336 68.6281C214.569 67.9117 216.002 65.8625 216.002 63.5468C216.002 60.6645 213.769 58.1155 210.52 58.1155H200.957V74.8758H204.573V61.181Z" fill="#02205F"/>
<path d="M195.826 58.1155H192.144V74.8758H195.826V58.1155Z" fill="#02205F"/>
<path d="M285.675 68.095H290.39C291.473 68.095 292.206 68.7114 292.206 69.9276C292.206 71.1438 291.473 71.7603 290.39 71.7603H280.244V74.9091H290.024C293.822 74.9091 295.688 72.41 295.688 69.861C295.688 67.312 293.822 64.8296 290.024 64.8296C288.391 64.8296 285.276 64.8296 285.276 64.8296C284.226 64.8296 283.51 64.2298 283.51 63.0636C283.51 61.8974 284.226 61.281 285.276 61.281H295.438V58.1322H285.659C281.894 58.1322 280.044 60.348 280.044 63.1302C280.044 65.9125 281.894 68.1117 285.659 68.1117L285.675 68.095Z" fill="#02205F"/>
<path d="M276.529 74.8758V71.8103L266.699 71.8269V67.5286H275.263V64.4797H266.699V61.181H276.529V58.1155H263.017V74.8758H276.529Z" fill="#02205F"/>
<path d="M246.773 61.181H252.871C254.371 61.181 255.32 62.5471 255.32 63.8133V74.8924H259.002V63.3468C259.002 60.4979 256.97 58.1155 253.704 58.1155H248.873L246.773 60.9144V58.1155H243.091V74.8758H246.773V61.1643V61.181Z" fill="#02205F"/>
</svg>
