<svg width="368" height="69" viewBox="0 0 368 69" fill="none" xmlns="http://www.w3.org/2000/svg">
<g clip-path="url(#clip0_3797_2628)">
<path d="M207.662 47.893C212.494 45.4548 214.237 40.5044 214.237 36.5442C214.237 32.1111 212.878 28.6089 210.277 26.0525C210.055 25.8308 209.804 25.6092 209.553 25.4171L213.705 18.4867H207.558L204.913 22.9198C202.889 22.24 200.761 21.9297 198.825 21.9297C194.953 21.9297 191.111 23.304 188.259 25.7126C185.998 27.6189 183.294 31.0471 183.294 36.5442C183.294 46.0902 190.476 48.4249 197.421 50.6858L201.278 51.8975C205.401 53.124 207.898 53.8777 207.898 57.1138C207.898 58.5915 207.366 59.8476 206.332 60.8377C204.721 62.3745 201.899 63.1872 198.795 63.0247C196.076 62.8769 190.284 62.3154 189.574 56.375H183.619C183.619 63.9556 190.387 68.7286 198.781 68.7286C204.174 68.7286 208.164 67.2066 210.839 64.6206C212.937 62.5961 214.045 59.9806 214.045 57.0547C214.045 52.8876 211.784 49.6514 207.647 47.8782L207.662 47.893ZM206.701 42.3516C205.696 44.0362 203.908 45.706 201.677 46.1936C201.677 46.1936 197.48 45.0114 194.746 44.0657C191.067 42.7949 189.338 40.401 189.338 36.5442C189.338 30.4265 194.244 27.6336 198.81 27.6336C203.376 27.6336 208.223 30.4708 208.223 36.5147C208.223 38.9676 207.617 40.7852 206.686 42.3368L206.701 42.3516Z" fill="#00636A"/>
<path d="M137.678 53.137H143.795V22.9032H137.678V53.137Z" fill="#00636A"/>
<path d="M137.308 15.3375C137.308 13.4165 138.564 12.057 140.751 12.057C142.938 12.057 144.15 13.4312 144.15 15.3375C144.15 17.3619 142.894 18.7362 140.751 18.7362C138.609 18.7362 137.308 17.3619 137.308 15.3375Z" fill="#00636A"/>
<path d="M23.0669 14.0241H16.7128L0 53.139H6.57578L10.8315 43.2088H28.9482L33.204 53.139H39.7798L23.0669 14.0241ZM13.0481 37.8004L19.8603 21.8264L26.6725 37.8004H13.0481Z" fill="#00636A"/>
<path d="M113.946 14.0243H107.488V53.1391H133.954V47.7455H113.946V14.0243Z" fill="#00636A"/>
<path d="M257.342 23.4206C254.076 24.8687 252.288 27.499 252.141 30.5135C251.815 37.6065 257.224 39.2615 264.479 40.2664C270.272 41.0791 273.567 41.9362 273.434 44.8325C273.39 45.7191 272.666 46.8126 271.602 47.3446C267.701 49.2952 257.83 48.246 253.175 45.3792L251.904 50.5364C254.712 52.3392 258.908 53.4032 262.913 53.5953C267.257 53.8021 271.631 53.5066 274.794 51.9846C277.867 50.4921 279.478 47.7436 279.611 44.8177C279.936 37.8725 273.449 36.3652 267.376 35.3013C260.46 34.1044 257.977 33.3951 258.155 30.4101C258.243 28.9915 259.529 28.1049 260.578 27.7798C264.332 26.6124 272.252 27.3808 276.877 29.9225L278.104 24.7209C272.03 21.7064 262.883 20.938 257.342 23.391V23.4206Z" fill="#00636A"/>
<path d="M164.128 22.3714C157.42 22.3714 152.898 23.3467 150.814 23.923L150.578 23.9969V53.152H156.77V28.297C158.883 27.8094 160.523 27.6616 163.818 27.6616C168.887 27.6616 172.256 28.9324 172.256 35.1388V53.152H178.374V35.4343C178.374 26.775 173.586 22.3862 164.143 22.3862L164.128 22.3714Z" fill="#00636A"/>
<path d="M240.304 47.8025C238.309 48.231 236.492 48.3936 233.256 48.3936C228.039 48.3936 224.818 47.1523 224.818 40.9755V22.9032H218.7V40.6799C218.7 49.295 223.488 53.669 232.931 53.669C239.24 53.669 243.201 52.8858 246.245 52.1174L246.496 52.0583V22.9032H240.304V47.8172V47.8025Z" fill="#00636A"/>
<path d="M89.0169 22.3714C84.9828 22.3714 81.5988 23.1546 79.3527 24.7653C75.9836 27.1444 74.6536 30.7648 74.6536 35.4196V53.1372H80.7713V35.124C80.7713 32.9222 81.1999 31.3411 81.983 30.218C83.3869 28.1788 85.9581 27.6468 89.2238 27.6468C90.7458 27.6468 92.4895 27.8389 94.2037 28.164L95.4301 23.0216C93.5387 22.6374 91.396 22.3714 89.0464 22.3714H89.0169Z" fill="#00636A"/>
<path d="M69.319 35.0503C68.595 26.7456 63.6299 22.3568 54.8523 22.3568C45.3211 22.3568 40.2969 27.4992 40.2969 37.2373V38.7741C40.2969 48.5121 45.8679 53.6545 56.3891 53.6545C60.6745 53.6545 64.7529 53.0191 68.2108 51.837L66.9252 46.6946L66.6444 46.798C64.6495 47.5664 60.9109 48.3791 56.3891 48.3791C51.8673 48.3791 46.7545 46.9901 46.6215 40.4439H69.4225V37.2373C69.4225 36.4836 69.3929 35.7448 69.3338 35.0355L69.319 35.0503ZM54.8523 27.647C58.5023 27.647 62.8319 28.9621 63.1422 35.0503H46.6215C46.8727 30.2034 49.6951 27.647 54.8523 27.647Z" fill="#00636A"/>
<path d="M367.091 36.1288C365.761 40.3845 361.358 44.3891 356.068 45.1871C356.91 46.5022 357.309 48.1425 357.102 49.9601C356.54 54.8956 351.797 58.8706 346.743 58.9002C343.315 58.9297 338.69 57.4373 335.409 52.2948C332.483 47.714 332.055 40.4141 332.277 38.2123C328.7 41.877 326.469 45.4087 325.42 47.8913C323.041 53.477 322.125 60.2597 322.184 63.4367C322.184 63.4367 321.755 63.8357 321.342 63.9244C320.012 63.6879 318.874 63.2003 318.017 62.4467C316.968 61.5305 316.746 60.6291 316.746 60.6291C318.327 52.7234 320.839 47.7878 324.592 42.1578C329.661 34.5624 337.463 29.8485 346.714 27.0261C353.408 24.9869 360.353 24.5436 365.141 28.5777C367.712 30.7499 367.86 33.8088 367.121 36.114L367.091 36.1288ZM327.696 31.9321C326.1 34.5772 321.8 38.833 318.357 41.02C311.219 45.5861 306.092 45.8816 303.52 44.2561C303.225 44.064 302.959 43.8571 302.722 43.6207C300.713 41.5371 301.053 37.7838 303.387 34.7249C304.54 33.2029 306.003 32.1537 307.436 31.6809C306.328 31.1489 305.574 30.0554 305.412 28.5334C305.102 25.4597 307.407 21.4404 310.584 19.8297C313.391 18.3963 319.421 16.9777 323.854 23.5978C325.583 26.169 327.149 29.8337 327.666 31.9616L327.696 31.9321ZM356.984 4.15124C356.6 0.338766 352.521 -1.06505 348.044 0.855963C345.901 1.77214 344.039 3.29417 342.724 5.02309C342.946 3.29417 342.443 1.75736 341.187 0.855963C338.719 -0.932058 334.257 0.397873 331.198 3.72271C330.134 4.89009 326.646 9.10155 326.469 15.2488C326.38 18.2338 327.71 24.8539 332.07 29.42C343.699 25.0312 349.95 18.3076 352.314 15.5443C355.063 12.3377 356.23 9.50053 356.718 7.43174C357.102 5.77672 357.043 4.62411 356.999 4.15124H356.984Z" fill="#72BE44"/>
<path d="M367.091 36.1303C367.269 35.5688 367.402 34.9629 367.461 34.3423C367.091 36.8101 365.451 39.7802 362.806 41.4205C360.471 42.8686 357.767 43.8439 354.708 43.5632C355.196 44.036 355.595 44.4202 356.068 45.1739C361.358 44.3759 365.747 40.3713 367.091 36.1155V36.1303Z" fill="#00AE52"/>
<path d="M352.3 15.5441C355.048 12.3375 356.215 9.50032 356.703 7.43154C356.733 7.31332 356.747 7.20988 356.777 7.10645C356.201 9.41166 351.339 15.3816 344.601 20.4649C337.611 25.7403 333.606 28.3856 332.07 29.42C343.684 25.0312 349.935 18.3222 352.3 15.5589V15.5441Z" fill="#00AE52"/>
<path d="M318.357 41.0363C321.785 38.8346 326.1 34.5936 327.696 31.9485C324.622 34.8448 320.115 39.1892 312.372 42.6027C308.53 44.243 304.777 44.8636 303.52 44.2725C306.092 45.898 311.219 45.6025 318.357 41.0363Z" fill="#00AE52"/>
<path d="M332.956 33.5867C324.637 39.5566 321.8 50.2847 321.342 63.9387C321.755 63.8501 322.184 63.4511 322.184 63.4511C322.125 60.274 323.041 53.4766 325.42 47.9056C326.469 45.4379 328.701 41.8914 332.277 38.2267C332.543 35.7885 332.809 34.3551 333.001 33.5571C332.986 33.5571 332.956 33.5867 332.942 33.6015L332.956 33.5867Z" fill="#00AE52"/>
</g>
<defs>
<clipPath id="clip0_3797_2628">
<rect width="367.507" height="68.7288" fill="white"/>
</clipPath>
</defs>
</svg>
