<svg clip-rule="evenodd" fill-rule="evenodd" viewBox="0 0 560 400" xmlns="http://www.w3.org/2000/svg"><path d="m122.52 155.497c4.615-1.176 9.342-1.885 14.092-2.2-8.649.76-17.311 3.143-24.618 7.942-4.575 3.025-8.653 7.134-10.687 12.304-1.653 4.134-1.727 8.873-.152 13.041 1.862 5.033 5.689 9.105 10.034 12.141 3.652 2.565 7.752 4.416 11.964 5.852 4.309 1.436 8.702 2.808 12.591 5.21 2.491 1.529 4.775 3.542 6.127 6.171.997-1.951 2.531-3.589 4.267-4.902 4.094-3.08 9.031-4.691 13.839-6.272 5.185-1.718 10.235-4.06 14.504-7.511 3.897-3.125 7.19-7.237 8.563-12.097 1.203-4.119.792-8.639-.982-12.528-2.259-5.003-6.384-8.932-10.967-11.835-7.201-4.522-15.622-6.808-24.044-7.513 8.172.509 16.302 2.24 23.849 5.451 4.828 2.071 9.424 4.773 13.353 8.278 3.247 2.913 6.044 6.418 7.739 10.465 1.315 3.084 1.921 6.469 1.702 9.819-.218 4.142-1.636 8.193-3.944 11.63-3.103 4.657-7.589 8.225-12.399 10.993-2.93 1.683-6.01 3.087-9.167 4.284-4.606 1.771-9.164 3.79-13.211 6.65-3.96 2.759-7.41 6.306-9.792 10.52-1.566 2.732-2.649 5.723-3.314 8.799-1.218-5.544-3.944-10.758-7.906-14.837-4.839-5.081-11.202-8.356-17.679-10.845-4.68-1.761-9.249-3.899-13.368-6.76-4.457-3.08-8.434-7.076-10.748-12.031-2.35-5.006-2.859-10.906-1.172-16.19 1.723-5.485 5.48-10.112 9.891-13.701 6.285-5.065 13.853-8.337 21.635-10.33zm7.647-.003c1.501-.293 3.006-.591 4.537-.676-5.685.699-11.278 2.506-16.188 5.481-3.79 2.346-7.243 5.546-9.059 9.688-1.564 3.485-1.607 7.596-.156 11.122 1.535 3.809 4.556 6.827 7.932 9.071 4.938 3.258 10.661 5.139 16.433 6.257 2.89.541 5.966 1.161 8.195 3.228 2.299-2.134 5.489-2.721 8.463-3.281 4.67-.912 9.268-2.356 13.478-4.602 3.851-2.067 7.456-4.892 9.671-8.725 2.001-3.407 2.582-7.646 1.4-11.434-1.176-3.893-3.925-7.114-7.1-9.563-4.746-3.625-10.478-5.766-16.308-6.891-.821-.177-1.659-.26-2.493-.342 1.898.08 3.76.49 5.613.883 6.141 1.391 12.152 3.838 17.107 7.786 3.342 2.683 6.194 6.175 7.448 10.326 1.262 4.083.737 8.66-1.376 12.371-2.255 4.018-5.937 7.013-9.865 9.306-3.279 1.909-6.796 3.372-10.391 4.56-3.608 1.214-7.364 1.982-10.879 3.477-1.894.806-3.711 2.008-4.769 3.823-1.072-1.833-2.911-3.04-4.826-3.846-3.937-1.657-8.16-2.441-12.162-3.91-5.487-1.957-10.889-4.566-15.154-8.613-2.901-2.753-5.124-6.365-5.664-10.376-.545-3.695.336-7.53 2.261-10.71 1.908-3.207 4.683-5.823 7.75-7.915 4.839-3.268 10.408-5.326 16.1-6.496zm-9.245 5.287c3.471-2.175 7.362-3.669 11.373-4.469-3.663.902-7.205 2.409-10.269 4.632-2.618 1.927-4.896 4.501-5.907 7.64-.948 2.854-.625 6.063.773 8.715 1.925 3.709 5.398 6.355 9.084 8.16 6.171 2.97 13.205 3.88 19.986 3.226 5.69-.591 11.402-2.331 16.019-5.801 2.913-2.2 5.383-5.291 6.019-8.968.593-3.169-.386-6.485-2.291-9.038-2.609-3.547-6.525-5.898-10.585-7.437-1.21-.46-2.449-.832-3.703-1.144 3.304.646 6.513 1.803 9.494 3.365 3.625 1.94 7.001 4.653 8.981 8.324 1.543 2.823 1.995 6.249 1.087 9.348-.99 3.469-3.429 6.338-6.241 8.502-3.713 2.835-8.111 4.685-12.644 5.719-2.514.587-5.107.747-7.619 1.36-.99.224-1.908.726-2.603 1.467-1.575-1.704-4.058-1.723-6.183-2.12-5.366-.676-10.661-2.36-15.19-5.36-3.03-2.018-5.77-4.693-7.209-8.09-1.307-3.029-1.309-6.574-.013-9.608 1.495-3.574 4.414-6.371 7.642-8.425zm19.889-1.769c2.46-.272 5.014.431 6.975 1.94 2.257 1.7 3.72 4.4 3.908 7.222.198 2.495-.589 5.058-2.166 7.007-1.691 2.128-4.292 3.509-7.009 3.673-2.569.186-5.185-.709-7.114-2.413-2.092-1.814-3.357-4.531-3.399-7.3-.076-2.628.942-5.263 2.77-7.152 1.577-1.661 3.754-2.74 6.034-2.977zm227.374 8.465c.456-1.818.743-3.675 1.062-5.518 1.959.251 3.918.502 5.882.752-.378 1.592-.771 3.181-1.187 4.765 2.612 0 5.221-.004 7.834.004-.008 13.701 0 27.402-.004 41.102.04 2.476-2.215 4.628-4.657 4.634-1.849.025-3.692.004-5.54.011-.452-1.841-.91-3.68-1.358-5.518 1.662-.019 3.333.068 4.995 0 .731-.027 1.307-.695 1.227-1.421.011-5.493.004-10.976.008-16.467h-9.224c-.074 8.117-.771 16.456-4.041 23.983-1.67-1.197-3.336-2.403-5.01-3.595 3.002-6.335 3.699-13.463 3.707-20.389h-3.602c0-1.712-.004-3.424 0-5.134h3.602v-17.212h6.308m-.973 5.183v12.029h9.228v-12.025zm-121.177 3.814c3.464-4.442 6.848-9.061 8.981-14.313 1.693.598 3.382 1.199 5.071 1.799-.471 1.176-.982 2.335-1.526 3.481h28.11v4.735l-30.77.002c-1.623 2.571-3.403 5.033-5.286 7.418l-4.581-3.122zm74.656-13.796h5.521v4.775h21.249v5.058h-21.249v4.341h19.277v29.246c-.04 1.229.163 2.523-.334 3.688-.646 1.628-2.259 2.869-4.037 2.894-1.896.027-3.796.008-5.696.011l-1.269-5.006c1.554-.011 3.114.023 4.668-.011.545 0 1.098-.378 1.21-.935.089-.524.04-1.062.047-1.592v-23.341c-3.321-.008-6.642.019-9.96.013 1.262.515 2.527 1.026 3.792 1.539-.619 1.562-1.3 3.103-2.086 4.59 1.744.004 3.488 0 5.233 0v4.547h-10.902c-.004 1.303-.004 2.605 0 3.908 3.644.002 7.292.002 10.936 0 .004 1.493.004 2.989 0 4.482h-10.936v10.57h-5.307c0-3.523 0-7.049-.004-10.57h-11.151c0-1.495-.004-2.989 0-4.48l11.151-.002c.004-1.303.004-2.605 0-3.908h-11.174c-.004-1.514-.004-3.032 0-4.547 1.93 0 3.859.004 5.789 0-.498-1.628-1.21-3.186-2.098-4.634l3.994-1.465c-3.515-.008-7.024.023-10.539.011v30.839h-5.407v-35.843h19.277v-4.343h-21.46c-.004-1.685-.004-3.369-.004-5.054 7.155-.004 14.309 0 21.464 0 .004-1.598.004-3.186.004-4.78m-2.654 19.169c1.051 1.938 1.86 3.998 2.512 6.101h5.882c1.028-1.978 1.963-4.007 2.643-6.131-3.68.03-7.359.009-11.037.03zm74.009-19.181h6.374l.004 6.141h9.656l-.004 5.544c-8.193-.008-16.387 0-24.584-.004v-5.54h8.554c0-2.048-.004-4.094 0-6.141zm50.397-.076h6.215v4.826c6.865.004 13.731 0 20.596.002v12.538c-2.001 0-3.999.004-6.004 0v-7.007c-11.704-.002-23.412-.002-35.115 0v7.007c-2.004.004-4.003.004-6.004 0v-12.538h20.313c0-1.613-.004-3.22 0-4.828zm-203.163.477c3.409 1.649 6.661 3.61 9.747 5.804-1.056 1.573-2.115 3.141-3.171 4.71-3.12-2.17-6.308-4.252-9.684-6.002 1.034-1.507 2.071-3.01 3.108-4.512zm128.803 12.031c1.499-.359 3.002-.714 4.505-1.072 1.214 2.69 2.025 5.54 2.668 8.413l-4.71 1.503c-.54-3.019-1.374-5.985-2.462-8.844zm64.704 6.245c2.491-1.651 4.438-4.013 5.841-6.629 1.915.823 3.83 1.642 5.744 2.466-1.569 3.002-3.737 5.696-6.382 7.818-3.999 3.251-8.955 5.157-14.001 6.029-.899-1.94-1.788-3.876-2.683-5.814 4.007-.576 8.083-1.579 11.482-3.87zm15.886-6.28h5.953c0 1.792-.011 3.581 0 5.369-.047 1.379 1.206 2.593 2.573 2.569 4.018.013 8.041.002 12.061.006v5.478c-4.851-.002-9.703.004-14.558-.004-3.076.042-6.031-2.616-6.019-5.746-.017-2.559-.009-5.115-.009-7.672zm-195.525 13.853c.585-4.552 1.182-9.107 1.541-13.686h29.813c-.256 4.56-.502 9.126-.739 13.689 1.083 0 2.172-.004 3.255 0l-.004 4.455h-3.458c-.163 3.12-.327 6.24-.486 9.361.923 0 1.852-.002 2.776.002v4.554h-3.135c-.175 1.718-.627 3.523-1.887 4.784-1.357 1.381-3.353 1.833-5.221 1.927-1.526.047-3.048.011-4.573.023l-.958-4.91c1.328.203 2.66.429 4.009.426.813-.017 1.718-.127 2.326-.73.422-.397.555-.977.686-1.514l-26.617-.004c.79-4.625 1.427-9.274 2.103-13.914l-3.45-.002-.004-4.455c1.343-.008 2.683-.004 4.024-.008m6.57-9.065c-.319 3.029-.673 6.05-1.035 9.065 3.496.004 6.992-.008 10.49.008.249.047.446-.135.655-.237-.363.042-.572-.308-.825-.502-1.738-1.643-3.597-3.162-5.481-4.632 1.104-1.153 2.212-2.301 3.319-3.447 2.143 1.63 4.205 3.369 6.164 5.217-1.018 1.079-1.991 2.202-3.04 3.255l-.194.386c2.789-.103 5.582-.017 8.371-.044.156-3.025.31-6.048.46-9.065-6.293-.004-12.589-.004-18.884-.004m-1.571 13.526c-.439 3.122-.899 6.241-1.391 9.359h12.319c-2.022-2.058-4.169-3.99-6.479-5.715l3.234-3.479c2.464 1.727 4.769 3.68 6.937 5.765-.986 1.144-1.972 2.282-2.956 3.431h7.598c.169-3.12.31-6.24.46-9.359-6.574-.004-13.148-.004-19.722-.002zm-22.163-16.208c2.721 1.26 5.28 2.831 7.796 4.457 1.051.69 2.09 1.4 3.07 2.187-1.037 1.664-2.071 3.329-3.11 4.991-3.428-2.447-6.939-4.803-10.676-6.76.975-1.624 1.946-3.249 2.92-4.875zm151.241 1.191c5.263-.008 10.524.015 15.787-.013 0 9.319-.004 18.643 0 27.96-.011.445.059 1.047.576 1.184.678.133 1.775.228 2.008-.633.435-1.754.568-3.57.79-5.36 1.782.479 3.555.958 5.333 1.44-.412 2.242-.538 4.606-1.604 6.665-.817 1.623-2.398 2.954-4.264 3.076-1.651.07-3.31.009-4.961.034-1.522.047-2.89-1.058-3.433-2.426-.378-.901-.281-1.892-.289-2.839 0-7.904-.004-15.806 0-23.71-1.476 0-2.958 0-4.431.002-.019 4.778.122 9.58-.456 14.333-.627 5.411-2.025 10.851-4.968 15.489-1.585-1.408-3.165-2.82-4.746-4.235 2.079-2.994 3.11-6.568 3.762-10.115 1.246-6.88.813-13.898.895-20.852zm39.126 13.906c12.981 0 25.965 0 38.95.002v5.706c-5.548.002-11.096 0-16.644 0v8.453h21.341v5.77h-48.753l.004-5.77h21.185c.004-2.799.004-5.599.004-8.402h-16.091c.002-1.919.002-3.838.006-5.759zm-58.286 1.733 4.45-1.408c1.243 2.956 2.052 6.065 2.812 9.167-1.607.435-3.213.868-4.82 1.298-.673-3.057-1.393-6.107-2.441-9.057zm-130.371 7.888c1.567-2.92 3.068-5.88 4.311-8.955 1.814.735 3.627 1.467 5.442 2.204-1.277 3.409-2.837 6.701-4.455 9.962-1.638 3.169-3.283 6.363-5.379 9.262-1.813-1.053-3.618-2.109-5.43-3.163 1.972-3.017 3.792-6.141 5.512-9.31zm-129.305 17.627c4.963-.937 10.153.015 14.675 2.179 5.333 2.55 9.878 6.61 13.271 11.428 2.185 3.105 3.885 6.563 4.923 10.218-1.953-2.894-4.313-5.506-6.884-7.868-3.443-3.127-7.38-5.833-11.829-7.292-3.158-.978-6.623-1.311-9.825-.35-1.697.515-3.317 1.48-4.322 2.972-.882 1.273-1.258 2.947-.779 4.442.519 1.651 2.111 2.916 3.849 2.975 2.018.118 3.948-1.425 4.315-3.403.338-1.681-.446-3.485-1.851-4.45 1.68.686 3.181 1.86 4.075 3.46 1.402 2.409 1.389 5.548.015 7.961-1.079 1.955-2.996 3.325-5.052 4.115-2.806 1.087-5.968.99-8.816.112-2.901-.899-5.462-2.854-7.072-5.432-1.885-2.991-2.481-6.766-1.594-10.186.726-2.89 2.447-5.495 4.756-7.362 2.322-1.906 5.225-2.956 8.143-3.521zm57.843.212c3.963-.902 8.179-.75 12.029.578 2.59.832 5.006 2.288 6.81 4.343 1.767 1.982 2.968 4.473 3.344 7.106.519 3.54-.483 7.281-2.742 10.064-3.547 4.467-10.172 6.118-15.418 3.925-2.204-.927-4.182-2.593-5.075-4.854-1.041-2.512-.72-5.559.906-7.754.889-1.265 2.2-2.17 3.612-2.759-1.562 1.068-2.343 3.203-1.689 5.006.587 1.721 2.362 2.962 4.188 2.842 1.822-.074 3.469-1.472 3.897-3.236.433-1.704-.198-3.54-1.355-4.824-1.512-1.708-3.792-2.516-6.004-2.795-3.302-.382-6.68.272-9.711 1.592-3.245 1.385-6.186 3.407-8.852 5.704-2.934 2.557-5.599 5.438-7.79 8.664 1.835-6.449 5.692-12.243 10.706-16.665 3.754-3.291 8.244-5.841 13.144-6.939zm146.276 4.386c3.325 6.855 6.65 13.714 9.971 20.571h-3.437l-2.259-4.645c-2.835.004-5.673-.006-8.51.004-.752 1.547-1.51 3.095-2.259 4.642h-3.485l9.979-20.571m0 6.794c-.969 2.092-1.934 4.176-2.89 6.27 1.94.002 3.882 0 5.825 0-.975-2.094-1.955-4.184-2.935-6.27zm-59.154 13.778c3.323-6.859 6.65-13.714 9.973-20.571 3.325 6.857 6.648 13.716 9.969 20.571h-3.429c-.756-1.548-1.505-3.101-2.263-4.647-2.839.008-5.677-.008-8.518.008-.747 1.547-1.499 3.095-2.251 4.64h-3.481m7.089-7.511c1.94 0 3.884 0 5.823-.002-.978-2.094-1.961-4.178-2.939-6.276-.958 2.096-1.928 4.182-2.884 6.278zm94.868 7.51c3.321-6.855 6.642-13.714 9.967-20.569 3.325 6.855 6.65 13.714 9.975 20.567l-3.441.002c-.75-1.548-1.503-3.095-2.25-4.644-2.839-.008-5.677 0-8.516-.004-.756 1.548-1.507 3.103-2.259 4.647h-3.477m7.083-7.511c1.94 0 3.885.002 5.825-.002-.99-2.075-1.919-4.182-2.958-6.234-.952 2.08-1.913 4.157-2.867 6.236zm-79.998-12.723c4.932 4.556 9.846 9.137 14.763 13.712l.004-12.785h3.217v20.13c-4.953-4.564-9.897-9.143-14.837-13.725l-.004 12.903h-3.139c-.004-6.745-.004-13.492-.004-20.235zm42.108 0c4.929 4.562 9.842 9.143 14.759 13.72v-12.794l3.209.002c0 6.707.004 13.418 0 20.123-4.953-4.56-9.889-9.139-14.826-13.716l-.004 12.901c-1.051 0-2.098-.002-3.139.002-.004-6.747-.004-13.49 0-20.237zm96.159.004c4.932 4.556 9.846 9.139 14.759 13.716l.004-12.793h3.217c0 6.711.004 13.418 0 20.13-4.953-4.564-9.897-9.143-14.837-13.72l-.004 12.899-3.143-.004c.004-6.743.004-13.486.004-20.229zm38.42 2.145c1.852-2.063 5.132-2.493 7.541-1.195 1.191.619 2.115 1.674 2.679 2.884l-2.82 1.377c-.794-1.617-3.048-2.419-4.617-1.463-.69.393-1.058 1.262-.813 2.025.264.802.961 1.351 1.643 1.788 1.554 1.013 3.454 1.377 4.944 2.521 1.218.876 2.126 2.227 2.289 3.739.334 2.643-1.303 5.358-3.76 6.357-2.063.834-4.556.766-6.456-.437-1.678-1.075-2.732-2.939-3.099-4.868l3.15-.608c.304 1.324 1.168 2.593 2.483 3.076 1.6.619 3.675-.192 4.241-1.86.378-.954-.038-2.042-.798-2.673-1.214-1.125-2.894-1.429-4.294-2.238-1.41-.766-2.721-1.904-3.274-3.448-.629-1.672-.27-3.673.959-4.978zm-222.788-1.224h3.175c.002 2.493 0 4.989 0 7.484l8.643-.004c0-2.493-.002-4.987.002-7.482h3.175v19.308h-3.175c-.004-2.983 0-5.968-.002-8.951-2.88 0-5.761-.002-8.643 0v8.951h-3.175c-.002-6.433 0-12.869 0-19.306zm39.071 0h3.175v19.308h-3.175c0-6.435-.002-12.87 0-19.308zm102.037 19.31c-.004-6.437-.004-12.87 0-19.308h3.173v19.308zm7.25-19.31c2.405.019 4.809-.034 7.218.027 2.858.163 5.329 2.884 5.01 5.774-.074 2.212-1.697 4.123-3.752 4.816 2.012 2.894 4.03 5.793 6.046 8.689l-3.711.002-7.229-10.803c1.425-.104 3.013.312 4.29-.515 1.246-.737 1.623-2.51.92-3.743-.513-.887-1.491-1.493-2.516-1.51-1.035-.027-2.067 0-3.099-.008v16.575h-3.173zm16.959.089h3.188v16.498h6.357c-.004.908-.004 1.814-.004 2.723-3.181-.002-6.361 0-9.538 0-.004-6.409-.004-12.815-.004-19.22zm11.786 19.221-.004-19.308h3.181v19.308zm29.317 0v-19.321l11.886.002c-.004.91-.004 1.82 0 2.732h-8.683c-.004 1.547-.004 3.099 0 4.647 2.81 0 5.626-.002 8.434 0v2.732h-8.434c-.004 2.158-.004 4.315 0 6.471l8.683.004c-.004.91-.004 1.818 0 2.732h-11.886z" fill="#e60012"/></svg>