<svg width="379" height="41" viewBox="0 0 379 41" fill="none" xmlns="http://www.w3.org/2000/svg">
<g clip-path="url(#clip0_3817_7639)">
<path d="M370.735 6.22587V1.37406H369.265V0.715446H372.843V1.37406H371.328V6.22587H370.735Z" fill="black"/>
<path d="M373.414 6.22587V0.715446H374.314L375.39 4.62324L375.587 5.43553C375.587 5.21599 375.719 4.93059 375.829 4.53542L376.905 0.715446H377.717V6.22587H377.146V1.61556L375.829 6.22587H375.302L373.985 1.54969V6.22587H373.414Z" fill="black"/>
<path d="M7.15694 1.37363H18.6388L17.8046 8.15739C23.798 3.98615 27.4643 1.37363 27.4643 1.37363H44.1054L29.2865 12.8116C37.7826 28.7941 38.9462 39.1563 38.9462 39.1563H26.4544C24.6981 31.8237 21.8953 24.7911 18.1339 18.2562L16.2459 19.4417L13.1504 39.2002H1.16353L7.15694 1.37363Z" fill="#231F20"/>
<path d="M40.0659 40.2099H25.6861L25.4885 39.4415C23.8053 32.548 21.2221 25.9032 17.8046 19.683L17.146 20.0781L14.0066 40.2099H0L6.30077 0.385498H19.7805L19.0779 6.0496C23.9078 2.69066 26.8496 0.583083 26.8935 0.561129L27.135 0.385498H47.0472L30.5818 13.0968C38.7047 28.6182 39.8902 38.6731 39.9341 39.0902L40.0659 40.2099ZM27.2448 38.2121H37.7827C35.9312 29.4744 32.7699 21.0661 28.4083 13.2724L28.0132 12.526L41.1855 2.3833H27.7717C26.8496 3.04192 23.3809 5.4788 18.3754 8.96947L16.663 10.155L17.629 2.29549H8.01317L2.32711 38.1242H12.2722L15.3238 18.9365L18.4632 17.0046L18.9901 17.8388C22.6784 24.2128 25.4519 31.0697 27.2448 38.2121Z" fill="#FFC425"/>
<path d="M71.0209 39.2002H81.3831L85.0494 15.0509C85.0494 15.0509 95.8727 20.715 97.3656 27.872L96.0483 39.1124H106.52L111.197 1.37363H101.537L99.8683 12.3506C95.6166 8.13543 90.8672 4.44718 85.73 1.37363H77.0582L71.0209 39.2002Z" fill="#231F20"/>
<path d="M107.399 40.2099H94.9068L96.3558 28.0035C95.1703 22.8443 88.5841 18.4096 85.8179 16.7411L82.2614 40.2099H69.8574L76.2021 0.385498H85.9935L86.2131 0.517221C90.8819 3.26146 95.2288 6.52527 99.1659 10.2428L100.681 0.385498H112.316L107.399 40.2099ZM97.1681 38.2121H105.642L110.033 2.3833H102.371L100.527 14.436L99.1439 13.009C95.0093 8.9402 90.4136 5.37635 85.4447 2.3833H77.9145L72.2065 38.2121H80.527L84.2811 13.6017L85.5106 14.2604C85.9716 14.5019 96.7729 20.2099 98.3536 27.762V27.9157L97.1681 38.2121Z" fill="#FFC425"/>
<path d="M67.4424 39.2002H40.1098L45.6202 1.37363H73.4139L72.0966 9.97956H56.7728L56.4216 12.8994H68.584L67.4205 20.4735H54.5994L52.7772 30.5943H68.7597L67.4424 39.2002Z" fill="#231F20"/>
<path d="M68.2987 40.2099H38.9683L44.7421 0.385498H74.5775L72.9529 10.9892H57.5852V11.9113H69.7915L68.3206 21.4612H55.4776L54.0067 29.6061H69.9672L68.2987 40.2099ZM41.2734 38.2121H66.5863L67.5961 31.6259H51.5698L53.7652 19.4854H66.5643L67.4205 13.9311H55.302L55.8728 9.01338H71.2405L72.2723 2.42721H46.4765L41.2734 38.2121Z" fill="#FFC425"/>
<path d="M114.007 1.37363L109.352 39.2002H118.507L121.339 18.3001C124.361 23.086 126.454 28.3916 127.508 33.9532H132.162C137.827 22.8006 143.315 17.9708 143.139 18.4757C142.964 18.9807 140.154 39.2002 140.154 39.2002H151.372L156.707 1.37363H147.925C142.181 4.82771 137.109 9.29167 132.953 14.546C128.957 4.73258 123.139 1.37363 123.139 1.37363H114.007Z" fill="#231F20"/>
<path d="M152.25 40.21H139.078L139.254 39.0684C140.154 32.592 141.186 25.2155 141.8 21.1759C138.332 25.1862 135.382 29.6062 133.019 34.3483L132.755 34.8971H126.652L126.52 34.0629C125.649 29.577 124.113 25.2447 121.954 21.2198L119.385 40.166H108.233L113.128 0.341686H123.447L123.688 0.47341C127.969 3.55427 131.284 7.79138 133.26 12.6798C137.248 7.79138 142.071 3.64941 147.508 0.451456H157.849L152.25 40.21ZM141.273 38.2122H150.582L155.609 2.3834H148.299C142.759 5.78625 137.87 10.1404 133.853 15.2484L132.799 16.6315L132.141 15.0288C130.333 10.0307 127.142 5.63989 122.942 2.3834H114.973L110.582 38.2122H117.651L120.725 15.5338L122.195 17.7292C125.145 22.3761 127.23 27.5279 128.343 32.9213H131.57C133.619 28.8891 136.056 25.0545 138.836 21.4833C142.415 17.0925 143.096 17.312 143.557 17.4877L144.413 17.8389L144.127 18.7171C143.996 19.5733 142.393 30.4185 141.295 38.2122H141.273Z" fill="#FFC425"/>
<path d="M176.092 1.37437C156.334 1.04506 154.138 18.8058 154.138 18.8058C151.943 38.5643 170.494 39.2009 170.494 39.2009C194.138 40.8694 197.497 20.9572 197.497 20.9572C200.768 -0.996649 176.092 1.37437 176.092 1.37437ZM183.754 21.6378C183.754 21.6378 181.559 31.6268 173.611 31.6268C173.611 31.6268 164.83 31.2975 166.454 21.1329C166.454 21.1329 167.289 9.80467 175.939 8.64111C175.939 8.64111 187.091 7.65319 183.754 21.6378Z" fill="#231F20"/>
<path d="M173.348 40.2981H170.538C165.445 39.9834 160.666 37.7588 157.146 34.0632C155.441 31.9263 154.211 29.4529 153.538 26.7964C152.865 24.1473 152.77 21.3812 153.253 18.6955C154.036 13.3241 156.824 8.45031 161.061 5.05477C165.291 1.65924 170.655 -0.00926059 176.063 0.38591C177.095 0.38591 188.489 -0.558108 194.834 6.09392C198.258 9.67241 199.51 14.7218 198.588 21.1104C198.566 21.3299 195.075 40.2981 173.341 40.2981H173.348ZM175.543 2.38371C157.387 2.38371 155.302 18.2344 155.214 18.915C154.79 21.3153 154.87 23.7814 155.456 26.1451C156.041 28.5089 157.117 30.7335 158.617 32.6581C161.793 35.9366 166.074 37.9124 170.626 38.2125C193.085 39.7932 196.465 21.5714 196.619 20.803C197.431 15.0731 196.356 10.5945 193.37 7.47702C187.552 1.37384 176.29 2.36176 176.18 2.38371H175.543ZM173.589 32.6142C171.145 32.4606 168.855 31.3482 167.223 29.5187C166.337 28.3113 165.715 26.9282 165.408 25.4646C165.093 24.001 165.101 22.4862 165.423 21.0226C165.649 18.9296 166.184 16.8806 167.003 14.9413C167.677 13.046 168.847 11.3702 170.392 10.0895C171.936 8.80889 173.802 7.96732 175.785 7.65265C177.168 7.5502 178.551 7.74778 179.854 8.23809C181.149 8.72839 182.327 9.49678 183.293 10.4847C185.488 12.9874 185.906 16.8074 184.698 21.8568C184.61 22.3618 182.13 32.6142 173.611 32.6142H173.589ZM176.004 9.6285C168.299 10.6603 167.42 21.0884 167.42 21.1763C167.142 22.3618 167.113 23.5912 167.34 24.7913C167.574 25.9842 168.057 27.1184 168.76 28.1137C170.018 29.5041 171.76 30.3603 173.633 30.5067C180.659 30.5067 182.744 21.3958 182.766 21.308C183.798 16.9172 183.469 13.69 181.778 11.7361C181.068 11.0336 180.227 10.4847 179.297 10.1188C178.368 9.75291 177.373 9.59191 176.378 9.6285H176.004Z" fill="#FFC425"/>
<path d="M201.405 1.37363L195.741 39.2002H206.564L210.955 9.97956H218.639C219.868 10.265 220.951 10.9675 221.712 11.97C222.473 12.9726 222.854 14.2093 222.788 15.468C222.656 16.895 222.115 18.2489 221.237 19.3758C220.351 20.5028 219.158 21.3444 217.805 21.8127H211.987L210.626 31.4724C214.775 37.7951 229.726 39.2221 229.726 39.2221L231.35 28.9916C229.221 28.4794 227.135 27.8061 225.115 26.9719C227.172 26.2108 229.03 24.996 230.552 23.408C232.075 21.8273 233.216 19.9247 233.897 17.8391C235.06 11.0114 233.568 9.0575 233.568 9.0575C232.924 7.0231 231.694 5.22288 230.048 3.87638C228.394 2.52987 226.381 1.68831 224.259 1.46145L201.405 1.37363Z" fill="#231F20"/>
<path d="M229.55 40.2978C228.913 40.2978 214.072 38.7391 209.791 32.087L209.572 31.7797L211.131 20.8027H217.717C218.851 20.3783 219.846 19.6392 220.578 18.6659C221.31 17.6999 221.756 16.5437 221.866 15.3362C221.895 14.341 221.588 13.3603 220.988 12.5627C220.388 11.765 219.539 11.1942 218.573 10.9454H211.987L207.596 40.1661H194.49L200.461 0.341686H224.127C226.44 0.561225 228.635 1.4467 230.45 2.88834C232.265 4.32998 233.619 6.27656 234.343 8.48658C234.716 9.1452 235.836 11.6479 234.76 17.9268V18.0365C233.538 21.7541 230.984 24.8861 227.581 26.8181C228.635 27.1694 229.952 27.5865 231.423 27.9377L232.323 28.1573L230.501 40.2978H229.55ZM205.686 38.2122L210.077 8.99152H218.858C220.329 9.32083 221.632 10.1697 222.532 11.3772C223.432 12.5846 223.871 14.0775 223.776 15.5777C223.63 17.2023 223.008 18.7537 221.983 20.0343C220.966 21.315 219.598 22.2663 218.039 22.7786H212.836L211.628 31.1869C215.141 35.929 225.679 37.6633 228.862 38.0804L230.179 29.694C228.313 29.2037 226.476 28.589 224.691 27.8499L222.364 26.84L224.757 25.9838C226.659 25.274 228.386 24.147 229.799 22.6908C231.211 21.2345 232.287 19.4782 232.946 17.5535C233.977 11.4723 232.77 9.54037 232.77 9.51842V9.40865C232.199 7.5572 231.094 5.91798 229.601 4.68124C228.108 3.45182 226.286 2.68344 224.362 2.47121H202.408L196.897 38.2122H205.686Z" fill="#FFC425"/>
<path d="M238.024 1.37363L232.536 39.2002H261.669L262.327 30.5943L245.005 30.8138L246.652 20.4735H260.329L261.317 12.8994H247.662L248.013 9.97956H264.984L265.818 1.37363H238.024Z" fill="#231F20"/>
<path d="M262.547 40.2099H231.372L237.146 0.385498H266.937L265.906 10.9892H248.913L248.803 11.9113H262.547L261.295 21.4612H247.596L246.279 29.8037L263.491 29.5842L262.547 40.2099ZM233.655 38.2121H260.702L261.229 31.6259L243.82 31.8674L245.774 19.4854H259.429L260.154 13.9311H246.52L247.091 9.01338H264.061L264.698 2.42721H238.88L233.655 38.2121Z" fill="#FFC425"/>
<path d="M272.799 39.2002H284.501C291.482 20.0564 296.158 13.9752 296.158 13.9752C297.717 17.4 298.727 21.059 299.144 24.7984H292.865L289.155 33.7776L300.307 33.6239L300.483 39.2002H311.965C311.584 26.1742 308.745 13.3458 303.6 1.37363H293.282C279.297 17.5317 272.799 39.2002 272.799 39.2002Z" fill="#231F20"/>
<path d="M313.041 40.21H299.583L299.407 34.6338L287.728 34.8094L292.25 23.8324H298.068C297.695 21.1614 297.029 18.5416 296.092 16.0169C291.819 23.5178 288.277 31.4139 285.51 39.5953L285.269 40.254H271.57L271.965 38.9587C271.965 38.7391 278.551 17.0048 292.623 0.758897L292.931 0.429588H304.259L304.522 1.00039C309.704 13.097 312.558 26.0644 312.931 39.2221L313.041 40.21ZM301.515 38.2122H310.845C310.348 25.8888 307.655 13.7629 302.898 2.38349H293.699C282.13 15.8851 275.763 33.3824 274.138 38.2122H283.71C290.538 19.6612 295.082 13.6239 295.28 13.3604L296.18 12.1969L296.926 13.4702C298.58 17.0121 299.634 20.8028 300.044 24.6886L300.176 25.7863H293.436L290.56 32.7677L301.186 32.592L301.515 38.2122Z" fill="#FFC425"/>
<path d="M318.924 1.37363H330.538L325.423 39.2002H313.941L318.924 1.37363Z" fill="#231F20"/>
<path d="M326.213 40.2099H312.711L317.958 0.385498H331.592L326.213 40.2099ZM314.995 38.2121H324.457L329.309 2.3833H319.715L314.995 38.2121Z" fill="#FFC425"/>
<path d="M333.524 1.37363L328.518 39.2002H340.176L343.776 10.1552H352.119C353.472 10.4918 354.643 11.3334 355.39 12.5116C356.136 13.6898 356.392 15.1095 356.114 16.4779C355.939 20.4735 351.284 21.8127 351.284 21.8127H345.071L343.908 31.4505C348.555 36.0681 354.731 38.827 361.273 39.2002H377.234V37.5976C370.516 34.4289 364.01 30.8211 357.761 26.7962C360.593 26.2035 363.117 24.6155 364.888 22.325C366.659 20.0344 367.559 17.1951 367.42 14.3045C368.079 4.16178 357.102 1.37363 357.102 1.37363H333.524Z" fill="#231F20"/>
<path d="M361.185 40.21C354.446 39.7929 348.079 36.9462 343.271 32.1969L342.898 31.8456L344.215 20.8687H351.174C351.833 20.6491 355.038 19.3978 355.148 16.4779V16.3242C355.375 15.2265 355.185 14.0849 354.599 13.1336C354.014 12.1822 353.092 11.4797 352.009 11.187H344.698L341.032 40.254H327.355L332.623 0.429588H357.387C357.519 0.429588 369.133 3.52509 368.474 14.3264C368.584 17.0633 367.83 19.7637 366.33 22.0542C364.83 24.3447 362.656 26.1083 360.11 27.1036C365.788 30.6235 371.65 33.8434 377.673 36.7413L378.244 37.0048V40.232H361.142L361.185 40.21ZM345.005 31.0553C349.418 35.2777 355.177 37.8098 361.273 38.2122H376.246C369.696 35.0875 363.352 31.5456 357.256 27.6085L355.456 26.401L357.651 25.8302C360.263 25.3107 362.605 23.869 364.244 21.7688C365.884 19.6685 366.718 17.0487 366.586 14.3923V14.2386C367.157 5.45703 358.222 2.69084 357.124 2.38349H334.38L329.66 38.2122H339.385L343.03 9.14529H352.492C354.087 9.5185 355.477 10.4991 356.363 11.8822C357.248 13.2653 357.563 14.9338 357.234 16.5437C356.992 21.1541 351.899 22.6469 351.679 22.7128H345.971L345.005 31.0553Z" fill="#FFC425"/>
</g>
<defs>
<clipPath id="clip0_3817_7639">
<rect width="378.244" height="39.9692" fill="white" transform="translate(0 0.328857)"/>
</clipPath>
</defs>
</svg>
