<svg width="340" height="49" viewBox="0 0 340 49" fill="none" xmlns="http://www.w3.org/2000/svg">
<g clip-path="url(#clip0_3814_4998)">
<path fill-rule="evenodd" clip-rule="evenodd" d="M301.393 13.9411H292.868V17.7014C291.343 16.1555 289.683 14.9961 287.885 14.2231C286.09 13.4502 284.168 13.0637 282.12 13.0637C277.67 13.0637 273.89 14.7454 270.778 18.1088C267.665 21.4722 266.108 25.7861 266.108 31.0504C266.108 36.1269 267.715 40.3729 270.933 43.7884C274.15 47.2041 277.963 48.9119 282.37 48.9119C284.335 48.9119 286.158 48.5619 287.84 47.8621C289.52 47.1624 291.198 46.0186 292.868 44.4309V48.0344H301.393V13.9411ZM277.263 23.7649C279.018 21.8952 281.223 20.9604 283.875 20.9603C286.59 20.9604 288.838 21.8795 290.613 23.7179C292.388 25.5564 293.275 27.9586 293.275 30.9251C293.275 33.9544 292.388 36.4036 290.613 38.2734C288.838 40.1431 286.6 41.0779 283.908 41.0779C281.295 41.0779 279.098 40.1274 277.31 38.2264C275.525 36.3254 274.63 33.9021 274.63 30.9564C274.63 28.0319 275.508 25.6346 277.263 23.7649ZM307.253 13.9411H315.84V48.0344H307.253V13.9411ZM328.323 13.9411H320.99V48.0344H329.483V34.2466L329.45 32.5859C329.45 27.8229 329.905 24.6266 330.813 22.9972C331.723 21.3677 332.835 20.553 334.15 20.553C334.798 20.553 335.623 20.8037 336.628 21.305L339.29 13.9411C338.078 13.3562 336.92 13.0637 335.813 13.0637C334.245 13.0637 332.803 13.5025 331.488 14.3798C330.17 15.2573 329.115 16.542 328.323 18.2341V13.9411Z" fill="#FBB040"/>
<path fill-rule="evenodd" clip-rule="evenodd" d="M8.492 0.780029V17.7013C10.0379 16.1555 11.7091 14.9961 13.5057 14.2231C15.3023 13.4502 17.2242 13.0637 19.2715 13.0637C23.7211 13.0637 27.5023 14.7454 30.6151 18.1087C33.7278 21.4721 35.2841 25.7861 35.2841 31.0503C35.2841 36.1268 33.6756 40.3728 30.4583 43.7883C27.2413 47.2041 23.4287 48.9118 19.0208 48.9118C17.0571 48.9118 15.2292 48.5618 13.537 47.8621C11.8449 47.1623 10.1632 46.0186 8.492 44.4308V48.0343H0V0.780029H8.492ZM17.4854 20.9603C14.7905 20.9603 12.5552 21.8795 10.7795 23.7178C9.00382 25.5563 8.11597 27.9586 8.11597 30.9251C8.11597 33.9543 9.00382 36.4036 10.7795 38.2733C12.5552 40.1431 14.7905 41.0778 17.4854 41.0778C20.0966 41.0778 22.2954 40.1273 24.0815 38.2263C25.8676 36.3253 26.7608 33.9021 26.7608 30.9563C26.7608 28.0318 25.8833 25.6346 24.1285 23.7648C22.3737 21.8952 20.1593 20.9603 17.4854 20.9603ZM71.7743 13.9411H63.2508V17.7013C61.7258 16.1555 60.0651 14.9961 58.2686 14.2231C56.4718 13.4502 54.5501 13.0637 52.5028 13.0637C48.0531 13.0637 44.2718 14.7454 41.1591 18.1087C38.0466 21.4721 36.4901 25.7861 36.4901 31.0503C36.4901 36.1268 38.0988 40.3728 41.3158 43.7883C44.5331 47.2041 48.3456 48.9118 52.7533 48.9118C54.7171 48.9118 56.5398 48.5618 58.2216 47.8621C59.9031 47.1623 61.5796 46.0186 63.2508 44.4308V48.0343H71.7743V13.9411ZM54.2576 20.9603C51.6043 20.9603 49.4006 21.8952 47.6456 23.7648C45.8908 25.6346 45.0136 28.0318 45.0136 30.9563C45.0136 33.9021 45.9066 36.3253 47.6926 38.2263C49.4788 40.1273 51.6776 41.0778 54.2888 41.0778C56.9838 41.0778 59.2191 40.1431 60.9948 38.2733C62.7703 36.4036 63.6583 33.9543 63.6583 30.9251C63.6583 27.9586 62.7703 25.5563 60.9948 23.7178C59.2191 21.8795 56.9733 20.9603 54.2576 20.9603ZM84.6371 0.780029H76.1451V48.0343H84.6371V34.3406C84.6371 30.6848 84.7626 28.3451 85.0133 27.3216C85.4936 25.3369 86.3553 23.7701 87.5983 22.6211C88.8413 21.4721 90.3298 20.8976 92.0638 20.8976C93.4008 20.8976 94.5236 21.2423 95.4323 21.9317C96.3411 22.6211 96.9836 23.6656 97.3596 25.0653C97.7356 26.4651 97.9236 29.1388 97.9236 33.0873V48.0343H106.353V25.5041C106.353 21.5766 105.361 18.5997 103.376 16.5733C101.057 14.2336 98.2056 13.0637 94.8213 13.0637C93.0873 13.0637 91.3743 13.4241 89.6823 14.1447C87.9901 14.8655 86.3083 15.9466 84.6371 17.388V0.780029ZM136.095 13.9411H144.618V48.0343H136.095V44.4308C134.423 46.0186 132.747 47.1623 131.065 47.8621C129.384 48.5618 127.561 48.9118 125.597 48.9118C121.189 48.9118 117.377 47.2041 114.16 43.7883C110.943 40.3728 109.334 36.1268 109.334 31.0503C109.334 25.7861 110.89 21.4721 114.003 18.1087C117.116 14.7454 120.897 13.0637 125.347 13.0637C127.394 13.0637 129.316 13.4502 131.112 14.2231C132.909 14.9961 134.57 16.1555 136.095 17.7013V13.9411ZM120.49 23.7648C122.244 21.8952 124.448 20.9603 127.101 20.9603C129.817 20.9603 132.063 21.8795 133.839 23.7178C135.614 25.5563 136.502 27.9586 136.502 30.9251C136.502 33.9543 135.614 36.4036 133.839 38.2733C132.063 40.1431 129.828 41.0778 127.133 41.0778C124.521 41.0778 122.323 40.1273 120.537 38.2263C118.75 36.3253 117.857 33.9021 117.857 30.9563C117.857 28.0318 118.735 25.6346 120.49 23.7648ZM148.895 13.9411H157.481V17.858C158.943 16.2495 160.568 15.0483 162.354 14.2544C164.14 13.4606 166.088 13.0637 168.198 13.0637C170.329 13.0637 172.251 13.586 173.964 14.6304C175.677 15.675 177.055 17.2 178.1 19.2055C179.458 17.2 181.124 15.675 183.098 14.6304C185.072 13.586 187.229 13.0637 189.569 13.0637C191.992 13.0637 194.123 13.6277 195.961 14.7558C197.8 15.8839 199.121 17.3567 199.925 19.1741C200.73 20.9916 201.132 23.9476 201.132 28.0421V48.0343H192.514V30.7371C192.514 26.8723 192.034 24.2558 191.073 22.8874C190.112 21.5191 188.671 20.835 186.749 20.8349C185.286 20.835 183.975 21.2528 182.816 22.0884C181.657 22.924 180.795 24.0782 180.231 25.5511C179.667 27.0238 179.385 29.3896 179.385 32.6486V48.0343H170.767V31.5203C170.767 28.4706 170.543 26.2613 170.094 24.8929C169.645 23.5246 168.971 22.5062 168.073 21.8377C167.174 21.1692 166.088 20.835 164.814 20.8349C163.393 20.835 162.103 21.258 160.944 22.104C159.784 22.9501 158.917 24.1357 158.343 25.6606C157.768 27.1856 157.481 29.5881 157.481 32.8678V48.0343H148.895V13.9411ZM239.272 13.9411H230.748V17.7013C229.223 16.1555 227.562 14.9961 225.766 14.2231C223.969 13.4502 222.047 13.0637 220 13.0637C215.55 13.0637 211.769 14.7454 208.657 18.1087C205.544 21.4721 203.987 25.7861 203.987 31.0503C203.987 36.1268 205.596 40.3728 208.813 43.7883C212.03 47.2041 215.843 48.9118 220.251 48.9118C222.214 48.9118 224.037 48.5618 225.719 47.8621C227.401 47.1623 229.077 46.0186 230.748 44.4308V48.0343H239.272V13.9411ZM221.755 20.9603C219.102 20.9603 216.898 21.8952 215.143 23.7648C213.388 25.6346 212.511 28.0318 212.511 30.9563C212.511 33.9021 213.404 36.3253 215.19 38.2263C216.976 40.1273 219.175 41.0778 221.786 41.0778C224.481 41.0778 226.716 40.1431 228.492 38.2733C230.268 36.4036 231.156 33.9543 231.156 30.9251C231.156 27.9586 230.268 25.5563 228.492 23.7178C226.716 21.8795 224.471 20.9603 221.755 20.9603ZM259.185 23.9999L264.48 18.7041C263.123 16.8867 261.468 15.4922 259.515 14.5208C257.56 13.5494 255.478 13.0637 253.263 13.0637C250.025 13.0637 247.366 14.0194 245.288 15.9309C243.209 17.8424 242.17 20.1456 242.17 22.8404C242.17 27.0186 244.927 30.4968 250.443 33.2753L253.325 34.7168C255.81 35.9701 257.055 37.2548 257.055 38.5711C257.055 39.2813 256.71 39.9081 256.02 40.4511C255.33 40.9943 254.423 41.2658 253.295 41.2658C252.25 41.2658 251.053 40.9056 249.706 40.1848C248.359 39.4641 247.183 38.5188 246.181 37.3488L240.916 43.0833C243.883 46.9691 247.852 48.9118 252.825 48.9118C256.563 48.9118 259.545 47.8986 261.77 45.8723C263.995 43.8458 265.108 41.3181 265.108 38.2891C265.108 36.0118 264.49 34.0273 263.258 32.3351C262.025 30.6431 259.76 28.9823 256.458 27.3528L253.325 25.7861C251.968 25.1175 251.115 24.59 250.773 24.2035C250.428 23.8171 250.255 23.3941 250.255 22.9344C250.255 22.3286 250.525 21.822 251.07 21.4146C251.613 21.0073 252.365 20.8036 253.325 20.8036C255.08 20.8036 257.033 21.869 259.185 23.9999Z" fill="#0399D7"/>
</g>
<defs>
<clipPath id="clip0_3814_4998">
<rect width="339.29" height="48.1318" fill="white" transform="translate(0 0.780029)"/>
</clipPath>
</defs>
</svg>
