<svg>
<path id="red" fill="#E0001B" d="M11.102,108.46h-0.003l0.965,2.525L16.34,122.2l23.375,61.339
	h77.004l-61.703-61.971c-8.221-8.224-19.376-13.108-31.001-13.108l0,0h-12.91H11.102z"/>
<path id="kangoo" fill="#FFFFFF" d="M87.502,177.641c-7.468-7.854-16.602-14.129-26.848-18.253l-3.117-1.255
	c-1.608-0.646-2.719-2.238-2.671-4.07c0.068-2.663,2.623-4.049,5.77-4.957c1.8-0.518,3.782-0.882,5.616-1.236
	c0.385-0.074,0.759-0.147,1.127-0.224c0.116-0.022,0.242-0.047,0.354-0.07v-0.002c2.354-0.495,4.229-1.053,4.729-2.053l0.278-0.555
	c-3.258-2.785-7.127-4.877-11.39-6.047c-0.039,0.16-0.14,0.94,0.724,2.352c0.024,0.041,0.04,0.084,0.061,0.126
	c0.035,0.07,0.069,0.141,0.093,0.213c0.021,0.061,0.034,0.122,0.046,0.183c0.014,0.064,0.022,0.128,0.027,0.192
	c0.005,0.06,0.011,0.12,0.009,0.179c-0.003,0.099-0.016,0.198-0.037,0.294c-0.012,0.057-0.03,0.112-0.049,0.167
	c-0.024,0.077-0.054,0.152-0.09,0.225c-0.021,0.045-0.048,0.089-0.075,0.132c-0.044,0.071-0.094,0.139-0.148,0.204
	c-0.027,0.032-0.053,0.066-0.082,0.096c-0.088,0.088-0.186,0.167-0.294,0.235c-0.029,0.018-0.063,0.031-0.095,0.048
	c-0.088,0.048-0.182,0.088-0.281,0.121c-0.045,0.015-0.092,0.027-0.14,0.039c-0.106,0.025-0.221,0.039-0.339,0.045
	c-0.686,0.033-1.546-0.271-2.512-1.155l-0.242-0.218c-15.96-14.625-28.936-12.67-38.011-19.894
	c-0.068-0.054-0.136-0.108-0.204-0.163c-0.316-0.258-0.628-0.529-0.936-0.812c-0.067-0.062-0.135-0.125-0.201-0.189
	c-0.309-0.292-0.612-0.594-0.91-0.913c-0.055-0.058-0.106-0.118-0.16-0.176c-0.305-0.333-0.605-0.678-0.899-1.044
	c-0.025-0.032-0.051-0.065-0.076-0.097c-0.286-0.359-0.566-0.738-0.842-1.131c-0.049-0.069-0.098-0.136-0.146-0.206
	c-0.271-0.395-0.536-0.81-0.797-1.24c-0.061-0.099-0.12-0.197-0.18-0.297c-0.253-0.429-0.501-0.876-0.744-1.341
	c-0.061-0.114-0.119-0.23-0.179-0.347c-0.242-0.476-0.479-0.967-0.711-1.482c-0.052-0.115-0.102-0.235-0.152-0.351
	c-0.22-0.5-0.435-1.016-0.645-1.554c-0.022-0.059-0.047-0.114-0.07-0.173l0.027,0.07c-0.01-0.025-0.02-0.046-0.03-0.071
	l4.276,11.215v0.001c8.43,14.398,30.556,15.916,32.961,38.305c0.099,0.918,0.804,1.656,1.721,1.8
	c0.884,0.139,1.766,0.296,2.646,0.466l0,0c1.894,0.363,3.776,0.809,5.646,1.318c0.347,0.095,0.693,0.185,1.038,0.283
	c0.341,0.099,0.682,0.207,1.021,0.311c0.422,0.128,0.844,0.254,1.265,0.39c0.311,0.101,0.618,0.207,0.927,0.312
	c0.449,0.15,0.897,0.302,1.344,0.462c0.293,0.104,0.583,0.216,0.875,0.323c0.459,0.17,0.919,0.344,1.376,0.522
	c0.281,0.11,0.563,0.228,0.844,0.342c0.463,0.188,0.925,0.38,1.385,0.578c0.276,0.119,0.55,0.241,0.825,0.363
	c0.462,0.206,0.923,0.416,1.382,0.632c0.271,0.126,0.54,0.256,0.809,0.386c0.46,0.222,0.916,0.449,1.372,0.683
	c0.268,0.136,0.534,0.271,0.801,0.412c0.454,0.236,0.904,0.48,1.354,0.729c0.264,0.146,0.529,0.29,0.792,0.438
	c0.446,0.254,0.889,0.514,1.331,0.774c0.264,0.156,0.529,0.312,0.792,0.472c0.435,0.265,0.865,0.537,1.295,0.812
	c0.268,0.17,0.534,0.337,0.799,0.51c0.417,0.272,0.83,0.556,1.244,0.838c0.272,0.188,0.547,0.368,0.818,0.56
	c0.387,0.271,0.769,0.554,1.153,0.832c0.292,0.215,0.588,0.423,0.878,0.642c0.283,0.213,0.563,0.437,0.846,0.655
	c0.365,0.281,0.732,0.561,1.095,0.851c-0.013-0.012-0.025-0.021-0.039-0.032c0.015,0.012,0.028,0.021,0.042,0.032l0.006,0.007
	c0.072,0.057,0.146,0.084,0.242,0.084c0.097,0,0.191-0.037,0.267-0.103C87.642,178.035,87.649,177.793,87.502,177.641z"/>
<path id="q" fill="#323232" d="M124.973,161.666c8.313,0,15.311-4.113,15.311-9.754
	c0-5.642-6.996-9.753-15.311-9.753c-8.311,0-15.306,4.112-15.306,9.753S116.662,161.666,124.973,161.666 M124.537,169.758
	c-15.224,0-24.891-7.914-24.891-17.848c0-10.101,10.238-17.842,25.326-17.842c15.091,0,25.326,7.784,25.326,17.451
	c0,4.33-1.924,7.874-5.6,10.848h8.968l-2.144,3.676c-1.359,2.318-3.019,3.715-6.606,3.715H124.537L124.537,169.758z"/>
<path id="a_1_" fill="#323232" d="M171.158,156.506h15.832l-7.349-13.08
	c-0.173-0.305-0.308-0.393-0.567-0.393c-0.264,0-0.393,0.088-0.568,0.393L171.158,156.506z M191.06,163.724h-23.97l-3.413,6.036
	h-9.927l16.619-28.78c1.312-2.275,3.194-4.024,6.954-4.024h3.717c3.766,0,5.642,1.749,6.954,4.024l16.621,28.78H194.47
	L191.06,163.724z"/>
<path id="n" fill="#323232" d="M251.939,136.955v32.803h-8.879l-26.066-21.737v21.737h-8.883
	v-32.803h5.557c2.842,0,4.285,0.743,5.902,2.143l23.49,19.556v-21.699H251.939z"/>
<path id="t" fill="#323232" d="M283.513,144.348v25.412h-8.877v-25.412h-18.197v-7.39h45.271
	v7.391L283.513,144.348L283.513,144.348z"/>
<path id="a" fill="#323232" d="M311.371,156.506h15.832l-7.348-13.08
	c-0.174-0.305-0.307-0.393-0.564-0.393c-0.264,0-0.396,0.088-0.57,0.393L311.371,156.506z M331.273,163.724h-23.967l-3.412,6.036
	h-9.93l16.621-28.78c1.313-2.275,3.193-4.024,6.953-4.024h3.719c3.762,0,5.641,1.749,6.953,4.024l16.621,28.78h-10.146
	L331.273,163.724z"/>
<path id="s" fill="#323232" d="M347.888,167.396l-0.828-0.264l2.23-7.127
	c6.383,2.054,13.209,2.885,19.373,2.885c10.105,0,12.6-1.184,12.6-2.448c0-0.522-0.35-0.917-1.139-1.18
	c-1.008-0.351-3.809-0.921-12.074-2.274c-9.141-1.488-13.25-2.232-16.268-3.634c-3.016-1.396-4.855-3.631-4.855-6.908
	c0-2.494,1.229-4.506,3.193-6.082c3.5-2.712,9.488-3.802,16.006-3.802c8.4,0,15.443,0.699,23.27,2.624l0.699,0.218l-1.879,6.954
	c-8.746-1.881-13.6-2.405-20.248-2.494c-4.684-0.042-7.916,0.306-9.623,0.831c-0.965,0.309-1.359,0.746-1.359,1.269
	c0,0.482,0.309,0.918,1.27,1.225c1.051,0.354,2.756,0.747,11.721,2.188c9.713,1.578,12.906,2.229,15.572,3.281
	c3.631,1.398,5.818,3.98,5.818,7.215c0,4.069-3.148,7.088-8.617,8.75c-3.365,1.004-7.871,1.573-12.943,1.573
	C361.845,170.196,353.357,169.145,347.888,167.396"/>
</svg>
