<svg width="284" height="76" viewBox="0 0 284 76" fill="none" xmlns="http://www.w3.org/2000/svg">
<g clip-path="url(#clip0_3814_5225)">
<path d="M21.97 56.9684C17.49 59.3784 12.52 59.8984 8.35002 58.5584C8.45002 39.3184 37.16 23.8884 56.42 20.9584C56.38 21.7984 56.36 22.8384 56.3 23.6084C56.68 23.6284 57.02 23.4384 57.33 23.2884C57.54 22.6084 57.72 21.7384 57.86 20.7684C58.3 20.7184 58.73 20.6684 59.16 20.6284C59.55 20.5984 59.49 20.0284 59.14 20.0084C58.7 20.0084 58.26 20.0184 57.8 20.0384C57.57 19.2884 57.35 18.6484 57.07 18.1084C56.68 17.9984 56.29 17.9684 55.93 18.1284C56.13 18.8784 56.26 19.4084 56.37 20.1084C34.81 21.4684 1.16002 37.1284 0.77002 59.8884C6.96002 62.4584 14.95 61.6584 21.73 57.1384L21.98 56.9684H21.97Z" fill="url(#paint0_linear_3814_5225)"/>
<path fill-rule="evenodd" clip-rule="evenodd" d="M11.4195 32.5413C5.22484 27.5034 2.09849 20.2727 2.62104 13.6984C8.99432 11.6305 16.895 13.0687 23.2862 18.1155C25.9927 20.2548 28.132 22.805 29.6595 25.5383C29.655 25.7125 29.6505 25.8822 29.6505 26.0564C29.0521 26.3199 28.4625 26.5923 27.873 26.8692C26.6939 25.516 25.2915 24.2833 23.6926 23.2248C18.1768 19.5804 11.683 18.9596 6.67189 21.0721C6.68975 25.0515 8.36458 29.1827 11.4239 32.5369M45.72 20.7237C46.0862 15.7797 44.6123 11.1348 41.8076 7.89233C36.8411 9.53143 32.5089 13.9753 30.6197 19.9779C30.8832 18.5621 31.2718 17.1374 31.7943 15.7261C34.6214 8.08884 40.6151 2.73832 47.1313 1.18408C50.6685 6.05672 51.8923 12.9749 50.0522 19.8707C48.6319 20.1029 47.1849 20.3888 45.72 20.7193V20.7237ZM72.7807 39.6471C68.8415 45.0646 61.6018 48.5438 53.4644 48.2177C49.4894 48.0569 45.8003 47.0074 42.6561 45.3102C45.0366 47.9721 46.9124 51.3217 47.9888 55.1493C50.1906 62.9875 48.4845 70.8391 44.13 75.9261C37.7612 73.8538 32.2141 68.0432 30.0078 60.205C29.0833 56.9134 28.8466 53.6218 29.2084 50.5312C29.8158 49.6514 30.3428 48.7403 30.785 47.8068C30.508 50.692 30.8877 53.7826 32.0176 56.8107C34.3401 63.0009 39.2261 67.3197 44.523 68.5568C47.6985 64.1398 48.5381 57.6772 46.2157 51.4825C45.0813 48.4589 43.335 45.8774 41.2269 43.89C43.8843 45.0467 46.9437 45.6407 50.1683 45.4978C56.7738 45.203 62.3923 41.8891 65.206 37.2353C61.9859 32.8495 56.0994 30.0537 49.4939 30.3484C46.2648 30.4913 43.2725 31.3578 40.7312 32.7468C42.6249 30.6075 44.1166 27.9367 44.983 24.8863C46.2336 24.453 47.4796 24.0555 48.7078 23.7027C47.3412 26.7933 45.443 29.4596 43.2099 31.5856C46.4747 30.143 50.2398 29.3971 54.2147 29.5534C62.3521 29.8795 69.2881 33.9303 72.7807 39.6471ZM32.8885 33.7159C34.9251 33.7159 36.5776 35.3684 36.5776 37.405C36.5776 39.4416 34.9251 41.0941 32.8885 41.0941C30.8519 41.0941 29.1994 39.4416 29.1994 37.405C29.1994 35.3684 30.8519 33.7159 32.8885 33.7159Z" fill="#ED1C24"/>
<path fill-rule="evenodd" clip-rule="evenodd" d="M134.517 44.8685C135.607 42.3675 136.5 39.8351 137.197 37.2715L137.201 37.2626C137.898 34.699 138.443 32.0863 138.836 29.4199V28.482C138.532 27.2315 137.965 26.2757 137.13 25.6147C136.299 24.9537 135.339 24.4758 134.263 24.1721C133.186 23.8684 132.047 23.6942 130.855 23.6496C129.658 23.6005 128.55 23.5781 127.532 23.5781C125.464 23.5781 123.704 23.73 122.244 24.0471C120.784 24.3642 119.569 24.7661 118.608 25.2664C117.648 25.7666 116.893 26.3159 116.349 26.9189C115.804 27.5218 115.415 28.1113 115.183 28.6919C114.741 29.7594 114.303 30.8982 113.861 32.1175C113.423 33.3323 113.012 34.5829 112.628 35.8557C112.244 37.1286 111.909 38.4104 111.619 39.6967C111.329 40.9829 111.128 42.229 111.011 43.4349C110.918 44.48 111.003 45.3688 111.27 46.0968C111.538 46.8292 111.94 47.4411 112.472 47.9413C113.003 48.4415 113.633 48.8345 114.366 49.1248C115.098 49.4151 115.88 49.634 116.715 49.7858C117.546 49.9332 118.394 50.027 119.252 50.0627C120.109 50.0985 120.931 50.1163 121.721 50.1163C122.811 50.1163 123.896 50.0717 124.973 49.9779C126.049 49.8886 127.134 49.7501 128.224 49.5625C129.569 49.3347 130.81 48.8122 131.945 47.9994C133.079 47.1865 133.937 46.1459 134.517 44.8685ZM130.694 30.992C130.297 33.0108 129.787 34.9893 129.162 36.9232H129.167C128.541 38.857 127.822 40.7864 127.009 42.7114C126.893 43.2428 126.639 43.6627 126.246 43.9619C125.848 44.2656 125.393 44.4844 124.87 44.6229C124.348 44.7614 123.803 44.8462 123.235 44.8819C122.664 44.9177 122.164 44.9355 121.721 44.9355C121.257 44.9847 120.828 44.9489 120.435 44.8328C120.042 44.7167 119.716 44.5336 119.462 44.2924C119.207 44.0512 119.024 43.752 118.921 43.3902C118.818 43.0329 118.823 42.622 118.939 42.1576C119.359 40.188 119.868 38.2407 120.471 36.3158C121.074 34.3908 121.721 32.5239 122.418 30.7151C122.579 30.273 122.834 29.9201 123.182 29.6522C123.53 29.3887 123.919 29.1788 124.348 29.0269C124.776 28.8795 125.223 28.7768 125.687 28.7321C126.152 28.683 126.581 28.6607 126.974 28.6607C127.322 28.6607 127.737 28.6875 128.224 28.7321C128.711 28.7768 129.158 28.8751 129.564 29.0269C129.971 29.1788 130.288 29.411 130.52 29.7236C130.752 30.0363 130.81 30.4606 130.694 30.992Z" fill="#ED1C24"/>
<path d="M91.9139 44.1045H93.62L93.6244 44.109L103.571 32.0413L98.2157 49.7453H106.005L113.758 23.8369H106.769C105.862 23.8369 104.982 24.0512 104.124 24.48C103.263 24.9088 102.535 25.4938 101.932 26.2352L96.9562 32.4968L95.8084 26.5479C95.7146 26.1325 95.5449 25.7618 95.3037 25.4358C95.0581 25.1097 94.7633 24.8239 94.415 24.5827C94.0666 24.3371 93.6825 24.154 93.2671 24.0244C92.8518 23.8949 92.432 23.8324 92.0166 23.8324H89.0874L89.0733 23.8271L74.1025 23.6708C74.1025 23.6708 77.0636 27.7484 82.2132 28.2129C82.4364 28.2327 82.6648 28.2474 82.8972 28.2574L76.4385 49.7409H84.1248L89.5513 31.7242L91.9139 44.1045Z" fill="#ED1C24"/>
<path d="M136.957 49.7318L136.956 49.7362L136.951 49.7318H136.957Z" fill="#ED1C24"/>
<path d="M136.957 49.7318L144.883 23.7206H152.534L149.787 32.6932L159.385 23.7206H166.687L153.195 35.6141L159.975 49.7318H152.534L147.943 38.8119L144.602 49.7318H136.957Z" fill="#ED1C24"/>
<path d="M175.977 23.7251L170.376 42.1572C170.215 42.6216 170.207 43.0147 170.358 43.3407C170.51 43.6667 170.751 43.9392 171.086 44.158C171.421 44.3769 171.828 44.5466 172.306 44.6627C172.779 44.7788 173.275 44.8726 173.784 44.9396C174.315 44.8949 174.829 44.8235 175.316 44.7297C175.803 44.6359 176.267 44.493 176.705 44.2965C177.147 44.1 177.54 43.8409 177.888 43.5149C178.237 43.1889 178.536 42.7735 178.791 42.2643L184.427 23.7296C184.449 23.7072 184.498 23.6938 184.565 23.6938H192.39L185.954 44.8726C185.258 46.1499 184.351 47.137 183.226 47.8471C182.1 48.5528 180.894 49.0753 179.608 49.4103C178.322 49.7452 177.022 49.9507 175.713 50.0177C174.405 50.0891 173.217 50.1204 172.149 50.1204C171.363 50.1204 170.55 50.1025 169.715 50.0668C168.88 50.0311 168.081 49.9373 167.317 49.7899C166.553 49.6381 165.839 49.4192 165.178 49.1289C164.517 48.8386 163.958 48.4456 163.507 47.9454C163.056 47.4451 162.735 46.8333 162.551 46.1008C162.364 45.3728 162.364 44.484 162.551 43.439L168.603 23.7206H175.977V23.7251Z" fill="#ED1C24"/>
<path d="M197.084 42.8183C197.384 43.189 197.701 43.4078 198.022 43.4793C199.992 43.783 201.939 43.8634 203.864 43.7205C205.789 43.582 207.714 43.314 209.639 42.921L207.794 49.3568C205.222 49.799 202.752 50.0535 200.385 50.1205C198.022 50.192 195.642 50.0491 193.257 49.7052C191.216 49.4506 189.818 48.5618 189.067 47.0433C188.313 45.5248 188.286 43.4436 188.978 40.7996C189 40.6611 189.036 40.5003 189.081 40.3127C189.125 40.1252 189.206 39.8304 189.322 39.424C189.438 39.0175 189.594 38.4548 189.791 37.7357C189.987 37.0167 190.264 36.0475 190.626 34.8327C190.983 33.6134 191.443 32.1083 192.002 30.3129C192.311 29.3175 192.655 28.2053 193.035 26.9772L193.037 26.9703L193.038 26.9672C193.342 25.9831 193.669 24.9247 194.02 23.7922H201.778L197.397 38.294C197.281 38.897 197.147 39.4776 196.995 40.0314C196.843 40.5896 196.745 41.1658 196.7 41.7687C196.656 42.0948 196.781 42.4431 197.084 42.8138V42.8183Z" fill="#ED1C24"/>
<path d="M219.326 42.9214C219.567 43.1759 219.866 43.3412 220.215 43.4082C222.162 43.6851 224.105 43.8191 226.039 43.8101C227.973 43.7967 229.893 43.6092 231.796 43.234L229.951 49.6698C225.128 50.4112 220.295 50.5139 215.449 49.9824C214.36 49.8663 213.471 49.509 212.787 48.9061C212.104 48.3032 211.586 47.5752 211.242 46.7132C210.894 45.8557 210.684 44.9267 210.617 43.9307C210.545 42.9348 210.594 41.9969 210.755 41.1126C210.938 40.1389 211.171 39.0268 211.452 37.7718C211.733 36.5168 212.082 35.2484 212.515 33.9622C212.944 32.6759 213.448 31.4164 214.029 30.1882C214.61 28.96 215.297 27.8658 216.097 26.9011C216.896 25.9408 217.807 25.1682 218.826 24.5876C219.844 24.007 221.005 23.7167 222.305 23.7167H237.678L235.797 29.9426H224.288C223.94 29.9426 223.613 30.0408 223.314 30.2373C223.011 30.4339 222.778 30.684 222.618 30.9832C222.172 31.7583 221.764 32.5511 221.396 33.3622H233.332L231.461 38.9762L219.481 39.2317C219.286 40.1589 219.138 41.0954 219.036 42.0415C218.991 42.3676 219.089 42.6579 219.33 42.9124L219.326 42.9214Z" fill="#ED1C24"/>
<path d="M243.059 42.8183C243.359 43.189 243.676 43.4078 243.997 43.4793C245.967 43.783 247.914 43.8634 249.839 43.7205C251.764 43.582 253.689 43.314 255.614 42.921L253.769 49.3568C251.197 49.799 248.727 50.0535 246.36 50.1205C243.997 50.192 241.617 50.0491 239.232 49.7052C237.191 49.4506 235.793 48.5618 235.043 47.0433C234.288 45.5248 234.261 43.4436 234.953 40.7996C234.976 40.6611 235.011 40.5003 235.056 40.3127C235.101 40.1252 235.181 39.8304 235.297 39.424C235.413 39.0175 235.57 38.4548 235.766 37.7357C235.963 37.0167 236.24 36.0475 236.601 34.8327C236.959 33.6134 237.419 32.1083 237.977 30.3129C238.287 29.3169 238.631 28.2041 239.011 26.9752C239.316 25.9889 239.644 24.9277 239.996 23.7922H247.753L243.372 38.294C243.256 38.897 243.122 39.4776 242.97 40.0314C242.818 40.5896 242.72 41.1658 242.675 41.7687C242.631 42.0948 242.756 42.4431 243.059 42.8138V42.8183Z" fill="#ED1C24"/>
<path d="M265.301 42.9214C265.542 43.1759 265.842 43.3412 266.19 43.4082C268.137 43.6851 270.08 43.8191 272.014 43.8101C273.948 43.7967 275.868 43.6092 277.771 43.234L275.926 49.6698C271.103 50.4112 266.27 50.5139 261.424 49.9824C260.335 49.8663 259.446 49.509 258.763 48.9061C258.079 48.3032 257.561 47.5752 257.217 46.7132C256.869 45.8557 256.659 44.9267 256.592 43.9307C256.521 42.9348 256.57 41.9969 256.73 41.1126C256.914 40.1389 257.146 39.0268 257.427 37.7718C257.709 36.5168 258.057 35.2484 258.49 33.9622C258.919 32.6759 259.424 31.4164 260.004 30.1882C260.585 28.96 261.273 27.8658 262.072 26.9011C262.872 25.9408 263.783 25.1682 264.801 24.5876C265.819 24.007 266.98 23.7167 268.28 23.7167H283.653L281.773 29.9426H270.263C269.915 29.9426 269.589 30.0408 269.289 30.2373C268.986 30.4339 268.754 30.684 268.593 30.9832C268.09 31.8578 267.635 32.7551 267.231 33.6757H280.741L278.869 39.2897L265.386 39.5773C265.225 40.3914 265.1 41.2128 265.011 42.0415C264.966 42.3676 265.064 42.6579 265.306 42.9124L265.301 42.9214Z" fill="#ED1C24"/>
<path d="M130.881 58.9683L130.886 58.9678V68.7091C130.989 68.7269 131.1 68.7403 131.221 68.7448C131.341 68.7493 131.453 68.7493 131.556 68.7493C131.658 68.7493 131.766 68.7448 131.882 68.7359C131.993 68.7269 132.101 68.718 132.194 68.7091V60.0312C132.346 60.0134 132.485 60 132.61 59.991C132.735 59.9821 132.869 59.9776 133.016 59.9776C133.633 59.9776 134.124 60.1339 134.486 60.451C134.847 60.7637 135.03 61.246 135.03 61.8981C135.03 62.2509 134.959 62.5502 134.812 62.8003C134.669 63.0459 134.486 63.2603 134.267 63.4345C134.052 63.6131 133.811 63.756 133.557 63.8632C133.298 63.9749 133.056 64.0597 132.824 64.1223L132.721 64.1491V64.2027L135.674 68.7091C135.906 68.7359 136.134 68.7493 136.366 68.7493C136.656 68.7493 136.915 68.7359 137.147 68.7091L134.463 64.6091L134.615 64.5287C134.821 64.4215 135.03 64.283 135.249 64.1178C135.468 63.9481 135.665 63.7516 135.834 63.5283C136.004 63.3005 136.147 63.0414 136.259 62.7556C136.37 62.4698 136.424 62.1482 136.424 61.7954C136.424 61.2103 136.321 60.7235 136.111 60.3394C135.906 59.9553 135.633 59.6516 135.298 59.4238C134.963 59.2005 134.584 59.0397 134.155 58.9504C133.726 58.8611 133.298 58.8164 132.86 58.8164C132.663 58.8164 132.48 58.8209 132.319 58.8298C132.249 58.8355 132.179 58.8405 132.112 58.8453C132.022 58.8517 131.935 58.8579 131.851 58.8655C131.699 58.8789 131.547 58.8968 131.395 58.9147C131.24 58.9324 131.072 58.9501 130.886 58.9678V58.9638L130.881 58.9683Z" fill="#58595B"/>
<path fill-rule="evenodd" clip-rule="evenodd" d="M78.064 66.4671H81.5611L82.2042 68.7136C82.3069 68.7314 82.4141 68.7448 82.5302 68.7538C82.6463 68.7627 82.758 68.7672 82.8697 68.7672C82.9858 68.7672 83.1108 68.7627 83.2403 68.7538C83.3699 68.7448 83.486 68.7314 83.5887 68.7136L80.5964 58.9817C80.4758 58.9638 80.3552 58.9504 80.2257 58.9415C80.1006 58.9326 79.9755 58.9281 79.855 58.9281C79.7165 58.9281 79.587 58.9326 79.4575 58.9415C79.3324 58.9504 79.2118 58.9638 79.1002 58.9817L76.0989 68.7136C76.1927 68.7314 76.2954 68.7448 76.4115 68.7538C76.5276 68.7627 76.6438 68.7672 76.7643 68.7672C76.876 68.7672 76.9877 68.7627 77.0993 68.7538C77.211 68.7448 77.3226 68.7314 77.4343 68.7136L78.064 66.4671ZM81.2172 65.2612H78.4079L79.8058 60.2948L81.2172 65.2612Z" fill="#58595B"/>
<path d="M106.433 58.9415C106.322 58.9504 106.215 58.9638 106.112 58.9817H106.121V68.7136C106.215 68.7314 106.317 68.7448 106.433 68.7538C106.55 68.7627 106.661 68.7672 106.773 68.7672C106.893 68.7672 107.005 68.7627 107.112 68.7538C107.219 68.7448 107.322 68.7314 107.425 68.7136V58.9817C107.322 58.9638 107.215 58.9504 107.103 58.9415C106.992 58.9326 106.88 58.9281 106.768 58.9281C106.657 58.9281 106.545 58.9326 106.433 58.9415Z" fill="#58595B"/>
<path d="M159.997 58.9415C159.889 58.9504 159.787 58.9638 159.693 58.9817L159.688 58.9862V68.718H164.606C164.633 68.5304 164.646 68.3295 164.646 68.1106C164.646 68.0655 164.645 68.0193 164.644 67.9716C164.643 67.9204 164.642 67.8668 164.642 67.8114C164.637 67.6997 164.628 67.597 164.61 67.4988H160.993V58.9817C160.89 58.9638 160.783 58.9504 160.671 58.9415C160.559 58.9326 160.448 58.9281 160.336 58.9281C160.215 58.9281 160.104 58.9326 159.997 58.9415Z" fill="#58595B"/>
<path d="M187.223 58.9817C187.325 58.9638 187.433 58.9504 187.544 58.9415C187.656 58.9326 187.768 58.9281 187.879 58.9281C187.991 58.9281 188.103 58.9326 188.214 58.9415C188.326 58.9504 188.433 58.9638 188.536 58.9817V68.7136C188.433 68.7314 188.33 68.7448 188.223 68.7538C188.116 68.7627 188.004 68.7672 187.884 68.7672C187.772 68.7672 187.66 68.7627 187.544 68.7538C187.428 68.7448 187.325 68.7314 187.232 68.7136V58.9817H187.223Z" fill="#58595B"/>
<path d="M212.64 58.9415C212.532 58.9504 212.43 58.9638 212.336 58.9817H212.345V68.7136C212.43 68.7314 212.528 68.7448 212.635 68.7538C212.742 68.7627 212.85 68.7672 212.961 68.7672C213.064 68.7672 213.167 68.7627 213.274 68.7538C213.377 68.7448 213.479 68.7314 213.573 68.7136V61.4426L217.602 68.7136C217.695 68.7314 217.794 68.7448 217.901 68.7538C218.008 68.7627 218.111 68.7672 218.205 68.7672C218.298 68.7672 218.397 68.7627 218.504 68.7538C218.611 68.7448 218.714 68.7314 218.807 68.7136V58.9817C218.714 58.9638 218.615 58.9504 218.513 58.9415C218.41 58.9326 218.312 58.9281 218.218 58.9281C218.106 58.9281 217.995 58.9326 217.883 58.9415C217.771 58.9504 217.664 58.9638 217.561 58.9817V66.2929L213.542 58.9817C213.448 58.9638 213.35 58.9504 213.243 58.9415C213.135 58.9326 213.033 58.9281 212.939 58.9281C212.845 58.9281 212.747 58.9326 212.64 58.9415Z" fill="#58595B"/>
<path d="M242.827 58.9817H247.896C247.923 59.1603 247.936 59.3613 247.936 59.5757C247.936 59.674 247.936 59.7767 247.932 59.8883C247.932 59.9955 247.918 60.0938 247.901 60.1876H244.14V62.9745H247.141C247.159 63.0638 247.173 63.1621 247.181 63.2648C247.19 63.3675 247.195 63.4702 247.195 63.5685C247.195 63.6667 247.195 63.7695 247.181 63.8811C247.173 63.9883 247.159 64.0866 247.141 64.1804H244.14V67.5122H248.003C248.03 67.6908 248.043 67.8918 248.043 68.1062C248.043 68.2044 248.043 68.3116 248.039 68.4188C248.035 68.526 248.026 68.6242 248.008 68.718H242.836V58.9862L242.827 58.9817Z" fill="#58595B"/>
<path d="M271.714 67.5255C271.406 67.4407 271.111 67.3469 270.83 67.2397L270.826 67.2441C270.759 67.4407 270.696 67.6461 270.634 67.8515C270.571 68.057 270.535 68.2624 270.517 68.4589C270.696 68.5215 270.875 68.5795 271.044 68.6331C271.214 68.6867 271.388 68.7314 271.576 68.7671C271.764 68.8028 271.96 68.8296 272.174 68.8475C272.389 68.8654 272.63 68.8743 272.893 68.8743C273.988 68.8743 274.841 68.6108 275.448 68.0704C276.056 67.53 276.359 66.7975 276.359 65.8686C276.359 65.4845 276.31 65.145 276.212 64.8547C276.114 64.5689 275.971 64.3143 275.783 64.1044C275.596 63.8945 275.368 63.7069 275.104 63.5506C274.841 63.3943 274.537 63.2424 274.193 63.0995L273.474 62.8003C273.295 62.7243 273.121 62.6439 272.96 62.5546C272.795 62.4653 272.657 62.3626 272.536 62.2509C272.416 62.1393 272.317 62.0053 272.246 61.8579C272.174 61.706 272.139 61.5363 272.139 61.3487C272.139 60.8887 272.286 60.5448 272.576 60.3126C272.867 60.0848 273.282 59.9687 273.822 59.9687C274.207 59.9687 274.55 60.0044 274.854 60.0759C275.158 60.1518 275.426 60.2322 275.658 60.3215C275.801 59.9508 275.895 59.5757 275.939 59.196C275.658 59.0844 275.332 58.9951 274.966 58.9236C274.595 58.8521 274.207 58.8164 273.796 58.8164C272.835 58.8164 272.094 59.0486 271.563 59.5131C271.031 59.9776 270.768 60.6208 270.768 61.4425C270.768 61.7864 270.812 62.0812 270.897 62.3313C270.982 62.5814 271.103 62.8003 271.25 62.9878C271.397 63.1799 271.576 63.3407 271.781 63.4702C271.987 63.5997 272.21 63.7203 272.46 63.8275L273.193 64.1401C273.483 64.2696 273.738 64.3858 273.956 64.493C274.175 64.6001 274.354 64.7207 274.501 64.8503C274.644 64.9842 274.756 65.1406 274.827 65.3192C274.899 65.4979 274.935 65.7122 274.935 65.9668C274.935 66.4804 274.765 66.8868 274.416 67.1905C274.068 67.4943 273.546 67.6461 272.844 67.6461C272.398 67.6461 272.023 67.6059 271.714 67.5255Z" fill="#58595B"/>
</g>
<defs>
<linearGradient id="paint0_linear_3814_5225" x1="32.06" y1="37.9284" x2="7.37002" y2="52.9784" gradientUnits="userSpaceOnUse">
<stop stop-color="#ED1C24"/>
<stop offset="1" stop-color="#F58220"/>
</linearGradient>
<clipPath id="clip0_3814_5225">
<rect width="284" height="75" fill="white" transform="translate(0 0.858398)"/>
</clipPath>
</defs>
</svg>
