<svg>
  <g>
    <path style="fill:#01426a;fill-opacity:1;fill-rule:nonzero;stroke:none" d="M308.6,200.3l-66.7,113c-6.6,11.4-11.4,23.4-12,34.3H204c1.8-14.4,7.2-27.7,18.6-47.5l47.5-79.4
      c9.6-15.6,18.6-21,35.5-21C305,200.3,308.6,200.3,308.6,200.3z M303.2,318.7c-4.8,4.8-15,11.4-22.2,11.4c-6,0-6-5.4-2.4-12.6
      c14.4-27.1,29.5-41.5,47.5-41.5h3L303.2,318.7L303.2,318.7z M328.4,261c-34.3,0-54.7,19.8-73.9,63.1c-4.8,11.4-7.2,24.6,8.4,24
      c9,0,24-5.4,34.3-12.6c-0.6,4.2-1.2,9.6-1.2,12h24c1.2-9.6,4.2-20.4,12-34.9l29.5-49.9C351.9,262.2,339.8,261,328.4,261L328.4,261z
      M549.1,318.7c-4.8,4.8-15,11.4-22.2,11.4c-6,0-6-5.4-2.4-12.6c14.4-27.1,29.5-41.5,47.5-41.5h3L549.1,318.7L549.1,318.7z
      M574.3,261c-34.3,0-54.7,19.8-73.9,63.1c-4.8,11.4-7.2,24.6,8.4,24c9,0,24-5.4,34.3-12.6c-1.2,3.6-1.8,8.4-1.2,11.4h24
      c1.2-9.6,4.2-20.4,12-34.9l29.5-49.9C597.8,262.2,585.7,261,574.3,261L574.3,261z"/>
    <path style="fill:#01426a;fill-opacity:1;fill-rule:nonzero;stroke:none" d="M496.2,371.7h-7.8c-10.2,0-18.6-6.6-21.6-16.8l-11.4-44.5l-21.6,37.3h-25.3l70.3-120.2
      c9.6-15.6,18.6-21,35.5-21h3l-47.5,80l35.5-24.6h28.3l-59.5,41.5L496.2,371.7L496.2,371.7z M261.7,193.7c-24,0-36.7,6.6-60.1,23.4
      l-80,57.1H71.1c-15,0-26.5,0.6-36.1,9.6l-13.2,12c0,0,38.5-1.8,74.5-2.4L20,348.2h33.1l78.2-56.5c15.6-0.6,25.3-1.2,25.3-1.2
      c18-0.6,28.3-16.2,28.3-16.2h-29.5l62.5-45.7l-46.9,75.8c-10.2,17.4-15,29.5-16.8,43.3h27.1c1.2-11.4,4.8-22.8,12-34.3l63.7-106.4
      c4.8-7.8,9-13.2,9-13.2H261.7L261.7,193.7z M389.1,285.1c-0.6,2.4,0.6,3.6,5.4,6.6l7.2,4.8c7.8,5.4,11.4,13.2,10.2,19.2
      c-3,18-16.2,33.1-43.9,33.1c-12,0-17.4-0.6-32.5-2.4l11.4-18c10.2,1.8,15.6,2.4,23.4,2.4c10.8,0,15-4.8,15.6-8.4
      c0.6-2.4-0.6-4.8-6-8.4l-6-4.2c-9.6-6.6-11.4-12-10.8-19.8c2.4-15.6,20.4-27.7,46.3-27.7c7.8,0,16.8,0.6,25.9,1.8l-10.2,17.4
      c-6.6-0.6-16.2-1.2-23.4-0.6C393.3,279.7,389.1,281.5,389.1,285.1L389.1,285.1z M606.2,321.8c7.2,0,13.8,6.6,13.8,13.8
      s-6,13.8-13.8,13.8c-7.2,0-13.2-6.6-13.2-13.8C593.5,328.4,599,321.8,606.2,321.8z M606.2,347c6,0,10.8-4.8,10.8-11.4
      c0-6.6-5.4-10.8-10.8-10.8c-6,0-10.8,4.8-10.8,11.4C595.4,342.8,600.8,347,606.2,347z M604.4,343.4H602v-15h5.4
      c2.4,0,5.4,2.4,5.4,4.8c0,2.4-1.8,3.6-3,4.2l3,6h-3l-3-5.4h-1.2L604.4,343.4L604.4,343.4z M606.8,335c1.8,0,2.4-1.2,2.4-2.4
      c0-1.8-1.2-2.4-2.4-2.4h-2.4v4.2h2.4V335z"/>
  </g>
  <g>
    <path style="fill:#01426a;fill-opacity:1;fill-rule:nonzero;stroke:none" d="M415.6,431.8c0-9.6,0-19.8,0-29.5c3,0,6,0,9,0c0,15,0,30.1,0,45.7c-3,0-6,0-9,0c-0.6,0-1.2-0.6-1.2-1.2
      c-6-9.6-12-19.2-18-28.3c-0.6-0.6-1.2-1.2-1.8-2.4c0,10.8,0,21.6,0,31.9c-3,0-6,0-9,0c0-15,0-30.1,0-45.7c3.6,0,7.2,0,10.2,0
      c0.6,0,1.2,0.6,1.2,1.2c5.4,9,11.4,18,16.8,26.5C414.4,430.6,414.4,431.2,415.6,431.8C415,431.8,415,431.8,415.6,431.8z"/>
    <path style="fill:#01426a;fill-opacity:1;fill-rule:nonzero;stroke:none" d="M204.6,402.3c4.8,0,9,0,13.8,0c2.4,0,4.8,0,7.2,0c6.6,1.2,10.8,5.4,11.4,12c0.6,6.6-2.4,11.4-9,14.4
      c0,0-0.6,0-1.2,0.6c3,6,6.6,12,9.6,18.6c-3.6,0-6.6,0-9.6,0c-0.6,0-0.6-0.6-1.2-1.2c-2.4-4.8-4.8-9.6-7.2-14.4
      c-0.6-1.8-1.8-2.4-3.6-2.4c-0.6,0-1.2,0-1.8,0c0,6,0,11.4,0,17.4c-3,0-6,0-9,0C204.6,433,204.6,417.3,204.6,402.3z M213,422.8
      c3,0,5.4,0,8.4,0c3.6,0,6-2.4,6-6s-1.8-6-5.4-6.6c-2.4-0.6-5.4,0-7.8,0c-0.6,0-1.2,0.6-1.2,1.2C213,414.9,213,418.5,213,422.8z"/>
    <path style="fill:#01426a;fill-opacity:1;fill-rule:nonzero;stroke:none" d="M79.5,448c2.4-6,4.2-11.4,6.6-16.8c3.6-9,7.2-18.6,10.8-27.7c0.6-1.2,1.2-1.8,2.4-1.2c2.4,0,4.8,0,7.8,0
      c0.6,0,1.2,0.6,1.8,1.2c5.4,15,11.4,29.5,16.8,44.5c0,0,0,0,0,0.6c-3,0-6,0-9,0c-0.6,0-1.2-0.6-1.2-1.2c-1.2-2.4-1.8-5.4-3-7.8
      c-0.6-1.2-0.6-1.2-1.8-1.2c-5.4,0-10.8,0-15.6,0c-1.2,0-1.2,0.6-1.8,1.2c-1.2,3-1.8,5.4-3,8.4c0,0.6-1.2,1.2-1.2,1.2
      C84.9,448,82.5,448,79.5,448z M108.4,429.4c-2.4-6-4.2-11.4-6.6-17.4c-2.4,6-4.2,11.4-6,17.4C100,429.4,104.2,429.4,108.4,429.4z"
      />
    <path style="fill:#01426a;fill-opacity:1;fill-rule:nonzero;stroke:none" d="M525.6,434.8c2.4-0.6,5.4-1.2,7.8-2.4v0.6c1.2,6.6,7.2,9.6,13.2,7.8c2.4-0.6,4.2-2.4,4.2-4.8
      c0-2.4-1.2-4.2-4.2-5.4c-3-0.6-5.4-1.2-8.4-1.8c-6.6-1.2-10.8-5.4-11.4-11.4c-0.6-4.2,0.6-8.4,4.2-11.4c6.6-6.6,18.6-6,24.6,0
      c1.8,1.8,3,4.2,3.6,7.2c-2.4,0.6-5.4,1.8-7.8,2.4c0-0.6-0.6-0.6-0.6-1.2c-1.8-6-9-6-12-4.2c-1.8,1.2-3,3-3,5.4s1.8,3.6,4.2,4.2
      c3,0.6,6,1.2,8.4,1.8c5.4,1.2,9.6,4.2,11.4,10.2c1.2,6-1.8,12.6-7.8,15c-6.6,3-13.2,2.4-19.2-1.2
      C528.6,443.8,526.2,439.6,525.6,434.8z"/>
    <path style="fill:#01426a;fill-opacity:1;fill-rule:nonzero;stroke:none" d="M463.1,402.3c9.6,0,18.6,0,28.3,0c0,2.4,0,5.4,0,8.4c-6.6,0-13.2,0-19.8,0c0,3.6,0,7.2,0,10.8
      c0.6,0,1.2,0,2.4,0c4.8,0,9,0,13.8,0c1.8,0,1.8,0.6,1.8,1.8c0,1.8,0,3.6,0,6c-6,0-12,0-18,0c0,3.6,0,7.2,0,10.8
      c6.6,0,13.2,0,19.8,0c0,3,0,5.4,0,8.4c-9.6,0-18.6,0-28.3,0C463.1,433,463.1,417.3,463.1,402.3z"/>
    <path style="fill:#01426a;fill-opacity:1;fill-rule:nonzero;stroke:none" d="M281.5,439.6c7.2,0,13.8,0,20.4,0c0,3,0,5.4,0,8.4c-9.6,0-19.2,0-29.5,0c0-15,0-30.7,0-45.7c3,0,5.4,0,8.4,0
      C281.5,414.3,281.5,427,281.5,439.6z"/>
    <path style="fill:#01426a;fill-opacity:1;fill-rule:nonzero;stroke:none" d="M156.5,448c0-15,0-30.7,0-45.7c3,0,6,0,9,0c0,15,0,30.1,0,45.7C162.5,448,159.5,448,156.5,448z"/>
    <path style="fill:#01426a;fill-opacity:1;fill-rule:nonzero;stroke:none" d="M346.5,448c-3,0-5.4,0-8.4,0c0-15,0-30.7,0-45.7c3,0,5.4,0,8.4,0C346.5,417.3,346.5,433,346.5,448z"/>
  </g>
</svg>
