<svg>
<g>
<path style="fill: #01426a" d="M70.6 1.70001L54.2 29.3C52.5 32.1 51.6 35 51.3 37.8H44.9C45.3 34.3 46.7 31 49.5 26.2L61 6.90001C63.3 3.10001 65.6 1.70001 69.7 1.70001H70.6V1.70001Z"/>
<path style="fill: #01426a" d="M69.3 30.7C68.1 31.8 65.8 33.5 63.8 33.6C62.4 33.5 62.4 32.3 63.3 30.5C66.8 23.8 70.4 20.3 74.9 20.3H75.7L69.3 30.7ZM75.4 16.6C67.1 16.6 61.9 21.5 57.4 32.1C56.3 34.8 55.6 38.1 59.5 38C61.7 38 65.4 36.8 67.9 35C67.7 35.9 67.6 37.1 67.7 37.8H73.5C73.7 35.5 74.6 32.7 76.5 29.2L83.9 17C81.1 16.7 78.3 16.6 75.4 16.6Z"/>
<path style="fill: #01426a" d="M129.5 30.7C128.3 31.8 126 33.5 124 33.6C122.6 33.5 122.6 32.3 123.5 30.5C127 23.8 130.6 20.3 135.1 20.3H135.9L129.5 30.7ZM135.5 16.6C127.2 16.6 122 21.5 117.5 32.1C116.4 34.8 115.7 38.1 119.6 38C121.8 38 125.5 36.8 128 35C127.8 35.9 127.7 37.1 127.8 37.8H133.6C133.8 35.5 134.7 32.7 136.6 29.2L144 17C141.2 16.7 138.4 16.6 135.5 16.6Z"/>
<path style="fill: #01426a" d="M116.5 43.6H114.6C112.1 43.6 109.9 41.9 109.3 39.5L106.4 28.5L101 37.6H94.8L112.2 8.2C114.4 4.4 116.8 3 120.9 3H121.5L109.9 22.5L118.6 16.5H125.6L111 26.7L116.5 43.6Z"/>
<path style="fill: #01426a" d="M59.1 0C53.2 0 50.2 1.6 44.4 5.7L25 19.8H12.5C8.9 19.8 6 19.9 3.7 22.1L0.5 25.1C0.5 25.1 9.9 24.7 18.6 24.4L0 37.8H8.1L27.1 24C30.8 23.9 33.4 23.8 33.4 23.8C37.8 23.7 40.3 19.8 40.3 19.8H33L48.4 8.6L37 27.2C34.5 31.5 33.4 34.5 33 37.8H39.6C39.9 35 40.8 32.2 42.5 29.3L58.1 3.3C59.2 1.5 60.1 0 60.1 0L59.1 0Z"/>
<path style="fill: #01426a" d="M90.2 22.5C90.1 23.1 90.3 23.4 91.5 24.1L93.3 25.3C95.2 26.6 96 28.5 95.8 30.1C95.2 34.5 91.9 38 85.1 38C82.1 38 80.8 37.9 77.2 37.3L79.8 32.8C82.3 33.2 83.7 33.5 85.5 33.4C88.1 33.4 89.1 32.2 89.2 31.3C89.3 30.7 89 30.1 87.8 29.2L86.4 28.2C84.1 26.6 83.5 25.3 83.8 23.3C84.4 19.4 88.8 16.5 95 16.5C96.9 16.5 99.1 16.6 101.4 16.9L99 21.1C97.5 21 95 20.9 93.2 20.9C91.5 21 90.3 21.6 90.2 22.5Z"/>
<path style="fill: #01426a" d="M140.4 33.9C141.5 33.9 142.5 34.8 142.5 36C142.5 37.1 141.6 38.1 140.4 38.1C139.3 38.1 138.4 37.2 138.4 36C138.4 34.9 139.3 33.9 140.4 33.9ZM140.4 37.6C141.3 37.6 142 36.9 142 35.9C142 35 141.3 34.2 140.4 34.2C139.5 34.2 138.8 34.9 138.8 35.9C138.8 36.9 139.5 37.6 140.4 37.6ZM140.2 37.1H139.8V34.9H140.6C141 34.9 141.4 35.2 141.4 35.6C141.4 35.9 141.2 36.2 140.9 36.3L141.4 37.2H140.9L140.4 36.4H140.2V37.1V37.1ZM140.5 35.9C140.8 35.9 140.9 35.8 140.9 35.6C140.9 35.4 140.8 35.3 140.5 35.3H140.2V36H140.5V35.9Z"/>
<path style="fill: #01426a" d="M18.1 59.3H13.5L12.6 61.9H10.3L14.6 50.6H17.2L21.5 61.9H19.1L18.1 59.3ZM14.3 57.3H17.4L15.8 53L14.3 57.3Z"/>
<path style="fill: #01426a" d="M29.3 61.9V50.6H31.5V61.9H29.3V61.9Z"/>
<path style="fill: #01426a" d="M44.4 57.6H43.3V62H41.1V50.6H45.5C47.7 50.6 49.1 52.1 49.1 54.1C49.1 55.7 48.2 56.9 46.7 57.3L49.1 61.9H46.6L44.4 57.6ZM45.1 55.7C46.2 55.7 46.9 55.1 46.9 54.1C46.9 53.1 46.2 52.5 45.1 52.5H43.3V55.6H45.1V55.7Z"/>
<path style="fill: #01426a" d="M58 61.9V50.6H60.2V59.8H65.2V61.9H58Z"/>
<path style="fill: #01426a" d="M73.8 61.9V50.6H76V61.9H73.8V61.9Z"/>
<path style="fill: #01426a" d="M92.9 61.9L87.8 53.9V61.9H85.6V50.6H88.3L93 58.1V50.6H95.2V61.9H92.9V61.9Z"/>
<path style="fill: #01426a" d="M104.8 61.9V50.6H111.9V52.7H107V55.3H111.4V57.3H107V59.9H111.9V62H104.8V61.9Z"/>
<path style="fill: #01426a" d="M126.6 53.9C126.5 53.3 126 52.3 124.5 52.3C123.4 52.3 122.7 53 122.7 53.7C122.7 54.3 123.1 54.8 123.9 55L125.5 55.3C127.6 55.7 128.7 57 128.7 58.6C128.7 60.3 127.2 62.1 124.6 62.1C121.6 62.1 120.3 60.2 120.1 58.6L122.1 58.1C122.2 59.2 123 60.2 124.6 60.2C125.8 60.2 126.4 59.6 126.4 58.8C126.4 58.1 125.9 57.6 125 57.5L123.4 57.2C121.6 56.8 120.4 55.7 120.4 54C120.4 52 122.2 50.5 124.3 50.5C127 50.5 128.1 52.2 128.4 53.4L126.6 53.9Z"/>
</g>
</svg>
