<svg>
  <defs>
    <style>.cls-1{fill:#87181b;}.cls-2{fill:#fff;}.cls-3{fill:#a7a9ac;}</style>
  </defs>
  <polygon class="cls-1"
    points="499.99 161.29 200.38 161.29 105.75 118.64 18.11 55.94 18.11 25.56 500 25.56 499.99 161.29" />
  <path class="cls-2"
    d="M285.91,65.27a23.11,23.11,0,0,0-4-.36q-13.43,0-13.42,13.3v28.66H254V51.73h13.66v6.65A18.87,18.87,0,0,1,271.4,54a15.84,15.84,0,0,1,4-2.42,14.22,14.22,0,0,1,4.24-1q2.17-.18,4.35-.18h1.93Z" />
  <path class="cls-2"
    d="M311.79,50.28q11.73,0,17.6,5.56t5.86,16.21v34.82H321.71c-.16-.64-.32-1.33-.48-2.05a17.64,17.64,0,0,1-.37-2.42,16.37,16.37,0,0,1-6.89,4.17,31.32,31.32,0,0,1-9.8,1.39q-8.34,0-13.36-4.11t-5-11.37a18.74,18.74,0,0,1,1.88-9.07,13.65,13.65,0,0,1,5.26-5.32,27.44,27.44,0,0,1,8-2.9c3.1-.64,6.47-1.21,10.1-1.69a20.81,20.81,0,0,0,6.83-1.94,4.1,4.1,0,0,0,2.48-3.75,5.07,5.07,0,0,0-2.9-4.71,13.26,13.26,0,0,0-6.41-1.58,9.57,9.57,0,0,0-6.47,2.24,9.12,9.12,0,0,0-3.09,6h-13.9q.72-9.2,6.29-14.33T311.79,50.28Zm8.95,29.63c-1.45,1.21-4,2.17-7.62,2.9-5,1-8.38,2.11-10.16,3.45a6.5,6.5,0,0,0-2.66,5.5q0,6.17,6.53,6.17a18.7,18.7,0,0,0,5.39-.79,13,13,0,0,0,4.53-2.36,11.4,11.4,0,0,0,3.09-4A12.9,12.9,0,0,0,321,85.23c0-.65,0-1.53-.06-2.66S320.82,80.55,320.74,79.91Z" />
  <path class="cls-2" d="M370,106.87H354.72L335,51.73h16.21l11.49,36.4,11.73-36.4h15.35Z" />
  <path class="cls-2"
    d="M407,59.83a18,18,0,0,1,6.8-7.07,21.59,21.59,0,0,1,10.91-2.48A21,21,0,0,1,432,51.49a15.59,15.59,0,0,1,9.52,9.25,21,21,0,0,1,1.39,7.92v38.21H428.37V73.5c0-4.27-.71-7.16-2.12-8.65s-3.85-2.24-7.31-2.24q-11.37,0-11.37,12.7v31.56H393.06V51.73H407Z" />
  <path class="cls-3"
    d="M308.24,141.89a8.29,8.29,0,0,0,5.39,1.64,12.89,12.89,0,0,0,4-.57,6.58,6.58,0,0,0,2.74-1.65l.72-.75.09,1a6.39,6.39,0,0,0,.15,1c0,.18.07.34.11.51h4.93V128.71c0-2.87-.79-5.08-2.35-6.56s-4-2.24-7.17-2.24c-3.37,0-5.82.7-7.3,2.06a8.3,8.3,0,0,0-2.48,5.29h5a4.32,4.32,0,0,1,1.41-2.44,4.52,4.52,0,0,1,3.06-1.06,6.13,6.13,0,0,1,2.95.72,2.66,2.66,0,0,1,1.49,2.43,2.21,2.21,0,0,1-1.31,2,9.1,9.1,0,0,1-3.07.87c-1.52.21-2.95.45-4.26.72a11.15,11.15,0,0,0-3.29,1.18,5.37,5.37,0,0,0-2.06,2.09,7.56,7.56,0,0,0-.74,3.63A5.44,5.44,0,0,0,308.24,141.89Zm4.59-7.51a12,12,0,0,1,4.52-1.55,7.25,7.25,0,0,0,3-1.14l.66-.55.11.86c0,.29.06.67.08,1.17s0,.88,0,1.15a6,6,0,0,1-.53,2.57,5.39,5.39,0,0,1-1.44,1.87,6.17,6.17,0,0,1-2.1,1.09,8.48,8.48,0,0,1-2.42.35c-2.13,0-3.26-1.07-3.26-3.1A3.26,3.26,0,0,1,312.83,134.38Z" />
  <rect class="cls-3" x="329.81" y="111.98" width="5.23" height="31.09" />
  <path class="cls-3"
    d="M339.81,141.89a8.28,8.28,0,0,0,5.39,1.64,12.83,12.83,0,0,0,4-.57,6.56,6.56,0,0,0,2.75-1.65l.71-.75.1,1a8.05,8.05,0,0,0,.14,1c0,.18.08.34.12.51H358V128.71c0-2.87-.79-5.08-2.35-6.56s-4-2.24-7.17-2.24c-3.36,0-5.81.7-7.3,2.06a8.29,8.29,0,0,0-2.47,5.29h5a4.25,4.25,0,0,1,1.4-2.44,4.57,4.57,0,0,1,3.07-1.06,6.16,6.16,0,0,1,2.95.72,2.65,2.65,0,0,1,1.48,2.43,2.2,2.2,0,0,1-1.3,2,9.1,9.1,0,0,1-3.07.87c-1.52.21-3,.45-4.27.72a11.09,11.09,0,0,0-3.28,1.18,5.4,5.4,0,0,0-2.07,2.09,7.56,7.56,0,0,0-.73,3.63A5.44,5.44,0,0,0,339.81,141.89Zm4.59-7.51a11.83,11.83,0,0,1,4.52-1.55,7.14,7.14,0,0,0,3-1.14l.67-.55.1.86a10.18,10.18,0,0,1,.08,1.17c0,.51,0,.88,0,1.15a6,6,0,0,1-.53,2.57,5.3,5.3,0,0,1-1.45,1.87,6,6,0,0,1-2.09,1.09,8.55,8.55,0,0,1-2.43.35c-2.12,0-3.25-1.07-3.25-3.1A3.26,3.26,0,0,1,344.4,134.38Z" />
  <path class="cls-3"
    d="M363.66,141.61a10.81,10.81,0,0,0,3.38,1.61,15.05,15.05,0,0,0,4.22.57,12,12,0,0,0,7.26-2,6.67,6.67,0,0,0,2.67-5.75c0-2.26-1.15-3.93-3.5-5.09a44.14,44.14,0,0,0-7-1.91c-1.79-.37-4.18-1-4.18-2.63a2.36,2.36,0,0,1,1.34-2.08,5.57,5.57,0,0,1,2.84-.71c3.12,0,4.22,1.6,4.56,3.09h5.22a7,7,0,0,0-.8-2.52,7.62,7.62,0,0,0-2-2.35,9.36,9.36,0,0,0-3-1.52,12.44,12.44,0,0,0-3.72-.54,12.85,12.85,0,0,0-4.3.64,9,9,0,0,0-3,1.68,6.81,6.81,0,0,0-1.73,2.39,7.13,7.13,0,0,0-.58,2.8,5.32,5.32,0,0,0,3.49,5.13,43.34,43.34,0,0,0,6.91,2,9.11,9.11,0,0,1,3,1.09A2.09,2.09,0,0,1,376,137.1a2.48,2.48,0,0,1-1.5,2.19,6.66,6.66,0,0,1-3.24.76,6.21,6.21,0,0,1-3.74-1.05,3.47,3.47,0,0,1-1.45-2.51h-5.44a6.44,6.44,0,0,0,.84,2.67A7.9,7.9,0,0,0,363.66,141.61Z" />
  <polygon class="cls-3"
    points="403.61 120.53 397.27 120.53 388.86 130.29 388.86 111.98 383.63 111.98 383.63 143.07 388.86 143.07 388.86 135.93 392.5 132.17 397.82 143.07 403.7 143.07 396.23 128.63 403.61 120.53" />
  <path class="cls-3"
    d="M405.93,141.89a8.28,8.28,0,0,0,5.39,1.64,12.83,12.83,0,0,0,4-.57,6.56,6.56,0,0,0,2.75-1.65l.71-.75.1,1a8.05,8.05,0,0,0,.14,1c0,.18.08.34.12.51h4.92V128.71c0-2.87-.79-5.08-2.35-6.56s-4-2.24-7.16-2.24c-3.37,0-5.82.7-7.31,2.06a8.29,8.29,0,0,0-2.47,5.29h5a4.3,4.3,0,0,1,1.4-2.44,4.57,4.57,0,0,1,3.07-1.06,6.16,6.16,0,0,1,2.95.72,2.65,2.65,0,0,1,1.48,2.43,2.21,2.21,0,0,1-1.3,2,9.1,9.1,0,0,1-3.07.87c-1.52.21-3,.45-4.27.72a11.09,11.09,0,0,0-3.28,1.18,5.37,5.37,0,0,0-2.06,2.09,7.44,7.44,0,0,0-.74,3.63A5.44,5.44,0,0,0,405.93,141.89Zm4.59-7.51a11.83,11.83,0,0,1,4.52-1.55,7.14,7.14,0,0,0,3-1.14l.67-.55.1.86c0,.29.07.67.09,1.17s0,.88,0,1.15a6,6,0,0,1-.53,2.57,5.3,5.3,0,0,1-1.45,1.87,6,6,0,0,1-2.09,1.09,8.55,8.55,0,0,1-2.43.35c-2.12,0-3.25-1.07-3.25-3.1A3.26,3.26,0,0,1,410.52,134.38Z" />
  <path class="cls-3"
    d="M179.85,3.89s-6.94,19-15,31.93c0,0,14.73-10.58,30.48-30.32L181.13,29.83C199,19.28,219.28,0,219.28,0s-8.08,15-32.9,38c0,0,17-8.54,40.72-25.3l-8.63,10.57L200.7,37.54s14.28-3.26,20.54-10a51.68,51.68,0,0,1-20,20.31s3.38,2.13,5.75.58c0,0-2.71,3.87-7.27,4.06,0,0,2.36,2.9,4.4,3.48,0,0-4.07,2.71-6.1,2.9,0,0,2.2,3.49,4.57,2.32,0,0-2.71,4.45-7.27,5.23l4.56,1.74s-1.86,4.64-8.46,7c0,0,6.94,2.71-5.58,11.22s-.17.58-.17.58,4.74,4.07-6.26,8.51c0,0,6.26.58-2.88,7.55,0,0,4.06,4.25-8.12,7.54,0,0,9.31,2.32-2.88,8.51,0,0,1.53,5.23-7.78,6.39,0,0,4.74,5.61-12,5.42,0,0,8.63,11.6,33,15.86,0,0,17.94,6,32.15,3.87,0,0,.3,7.66-10.53,10.75,0,0-14.25-.55-30.59-9,0,0-3.72,5.8-12.86,3.48,0,0-4.23,7.54-21,.58,0,0-2,5.42-7.45,1.55,0,0-8,10.64-19.29-3.29,0,0-7.44,3.67-36.21-14.12,0,0-16.58,3.87-22-1.94,0,0-8.4-1.42-14.72,3.87,0,0-.51-5,8.29-12.19a10.45,10.45,0,0,0,3.21-6.77s-.16-3.67,6.94-6.77A30.52,30.52,0,0,0,59,114s-15.56-12.38-26.06-14.5a10.54,10.54,0,0,1,3-1s-13-11-21.66-15.86c0,0-17.09-8.32-13.88-27.67C.4,55,2.77,59.42,5,60.2c0,0-7.27-19.54-.17-36.95,0,0,2,9.48,5.59,13.93,0,0,5.2-27,8.08-30.3l-.24,15.68s.11,18.68,3.66,22.94c0,0-1.18-14.13,5.08-19.93,0,0,.34,12,8.8,29.21A49.07,49.07,0,0,1,41,35.63s-1,11,6.76,22.63c0,0-2-5,.51-9.48,0,0,2,9.87,11.17,20.12V65.81s1,7.74,21.32,18.37l2.71,5.23s10.66,5.8,13.88,10.06a100.17,100.17,0,0,0,3.72-9.87s1.86-6.19,11.17-13.15l21.49-17.22a101.92,101.92,0,0,0,17.77-23.6l.09,6.36S159.75,35.46,179.85,3.89Z" />
  <path class="cls-1" d="M510.48,161.29v-12h-4.41v-1.89h11.07v1.89h-4.41v12Z" />
  <path class="cls-1"
    d="M530.6,161.29V150.71l-3.38,10.58H525l-3.36-10.56v10.56h-2.1V147.35h3.32l3.32,11.11,3.31-11.11h3.24v13.94Z" />
</svg>
