<svg width="390" height="82" viewBox="0 0 390 82" fill="none" xmlns="http://www.w3.org/2000/svg">
<path d="M0.502441 65.3941H2.15746V81.5602H0.502441V65.3941ZM5.05377 66.9309H9.54598V81.5602H11.201V66.9309H15.6932V65.3941H5.05377V66.9309ZM18.2644 69.2509H19.9786V65.3941H18.2644V69.2509ZM29.3768 72.7679L27.574 72.4723C26.7612 72.3393 26.0224 72.0586 25.5495 71.63C25.0766 71.2015 24.855 70.5513 24.855 69.7386C24.855 67.921 26.0519 66.7093 28.1503 66.7093C29.7757 66.7093 30.8397 67.1969 31.7707 68.1279L32.8346 67.0196C31.5047 65.7931 30.1895 65.2464 28.2094 65.2464C25.1358 65.2464 23.2295 67.0344 23.2295 69.7829C23.2295 71.0981 23.6433 72.1029 24.4412 72.827C25.1358 73.4624 26.0519 73.8466 27.2784 74.0535L29.0812 74.3342C30.1895 74.5116 30.6328 74.6741 31.1057 75.1322C31.6376 75.6198 31.8741 76.2848 31.8741 77.1567C31.8741 79.0629 30.485 80.1564 28.1946 80.1564C26.4509 80.1564 25.254 79.7574 23.9684 78.4127L22.8601 79.5653C24.2935 81.0874 25.845 81.6932 28.1503 81.6932C31.4012 81.6932 33.5143 79.9495 33.5143 77.0975C33.5143 75.7676 33.0415 74.6741 32.2139 73.9205C31.5194 73.2555 30.8397 72.9895 29.3916 72.7531M52.2221 78.2945L43.9765 65.3646H42.4101V81.5454H44.0651V68.5712L52.3107 81.5454H53.8771V65.3646H52.2221V78.2945ZM67.0582 66.8275C68.5211 68.3495 68.6246 69.7681 68.6246 73.4624C68.6246 77.1567 68.5211 78.5753 67.0582 80.0973C66.0977 81.1021 64.8121 81.6784 63.2014 81.6784C61.5907 81.6784 60.2756 81.0874 59.3151 80.0973C57.8521 78.5753 57.7635 77.1714 57.7635 73.4624C57.7635 69.7534 57.8521 68.3495 59.3151 66.8275C60.2756 65.8227 61.5759 65.2464 63.2014 65.2464C64.8269 65.2464 66.0977 65.8374 67.0582 66.8275ZM66.9695 73.4624C66.9695 70.1523 66.8513 68.9702 65.876 67.921C65.152 67.1674 64.2358 66.7832 63.1866 66.7832C62.1375 66.7832 61.2213 67.1674 60.512 67.921C59.5367 68.9702 59.4185 70.1523 59.4185 73.4624C59.4185 76.7725 59.5219 77.9546 60.512 79.0038C61.2213 79.7574 62.1375 80.1416 63.1866 80.1416C64.2358 80.1416 65.152 79.7574 65.876 79.0038C66.8513 77.9546 66.9695 76.7872 66.9695 73.4624ZM70.9298 66.9309H75.422V81.5602H77.077V66.9309H81.5693V65.3941H70.9298V66.9309ZM94.8982 76.4178C94.8982 78.7969 93.7456 80.1416 91.7211 80.1416C90.4355 80.1416 89.8444 79.6688 89.2681 79.0777L88.1598 80.2451C89.1203 81.2351 90.2286 81.6932 91.7211 81.6932C94.5583 81.6932 96.5532 79.7574 96.5532 76.6542V65.3941H94.8982V76.4326V76.4178ZM109.793 76.0779C109.793 78.5309 108.286 80.1416 106.025 80.1416C103.764 80.1416 102.272 78.5309 102.272 76.0779V65.3794H100.617V76.2109C100.617 79.4323 102.878 81.6784 106.025 81.6784C109.173 81.6784 111.448 79.4323 111.448 76.2109V65.3794H109.793V76.0779ZM120.95 72.7531L119.147 72.4576C118.335 72.3246 117.596 72.0438 117.108 71.6153C116.635 71.1867 116.414 70.5365 116.414 69.7238C116.414 67.9062 117.61 66.6945 119.709 66.6945C121.319 66.6945 122.383 67.1822 123.329 68.1131L124.393 67.0048C123.063 65.7783 121.748 65.2316 119.768 65.2316C116.694 65.2316 114.803 67.0196 114.803 69.7681C114.803 71.0833 115.217 72.0881 116 72.8122C116.694 73.4476 117.625 73.8318 118.837 74.0387L120.655 74.3195C121.763 74.4968 122.191 74.6593 122.679 75.1174C123.211 75.6051 123.447 76.27 123.447 77.1419C123.447 79.0481 122.058 80.1416 119.768 80.1416C118.024 80.1416 116.827 79.7426 115.542 78.3979L114.433 79.5505C115.867 81.0726 117.418 81.6784 119.738 81.6784C122.989 81.6784 125.102 79.9347 125.102 77.0828C125.102 75.7528 124.63 74.6593 123.802 73.9057C123.093 73.2407 122.428 72.9748 120.98 72.7383M126.979 66.9014H131.471V81.5307H133.126V66.9014H137.619V65.3646H126.979V66.9014ZM151.066 65.3646L156.755 81.5454H154.996L153.755 77.8807H146.972L145.731 81.5454H143.958L149.677 65.3646H151.066ZM153.267 76.3735L150.386 67.8323L147.46 76.3735H153.267ZM169.079 78.2797L160.833 65.3498H159.267V81.5307H160.922V68.5564L169.168 81.5307H170.734V65.3498H169.079V78.2797ZM185.777 65.3498L191.466 81.5307H189.693L188.452 77.866H181.669L180.428 81.5307H178.654L184.373 65.3498H185.777ZM187.979 76.3587L185.097 67.8176L182.171 76.3587H187.979ZM193.978 81.5159H195.633V65.3498H193.978V81.5159ZM207.307 74.1717L210.987 81.5011H209.051L205.519 74.3195H201.78V81.5011H200.125V65.335H206.081C208.785 65.335 210.676 67.0344 210.676 69.8272C210.676 72.1916 209.302 73.7284 207.292 74.1717M205.918 72.8122C207.721 72.8122 209.006 71.8369 209.006 69.8568C209.006 67.8767 207.721 66.8866 205.918 66.8866H201.766V72.8122H205.918ZM216.07 65.335H214.415V81.5159H224.005V79.9643H216.07V65.335ZM226.901 81.5159H228.556V65.3498H226.901V81.5159ZM242.861 78.2649L234.615 65.335H233.049V81.5159H234.704V68.5416L242.949 81.5159H244.516V65.335H242.861V78.2649ZM249.008 81.5159H258.643V79.9643H250.663V74.1274H257.46V72.5906H250.663V66.8866H258.643V65.3498H249.008V81.5307V81.5159ZM261.76 81.5159H263.814V79.388H261.76V81.5159ZM273.39 81.5159H275.045V65.3498H273.39V81.5159ZM277.956 66.8866H282.448V81.5159H284.103V66.8866H288.596V65.3498H277.956V66.8866ZM291.167 69.2066H292.896V65.3498H291.167V69.2066ZM302.294 72.7235L300.491 72.428C299.678 72.295 298.939 72.0142 298.452 71.5857C297.979 71.1572 297.757 70.507 297.757 69.6943C297.757 67.8767 298.954 66.665 301.053 66.665C302.663 66.665 303.742 67.1526 304.673 68.0836L305.737 66.9753C304.407 65.7488 303.107 65.202 301.112 65.202C298.038 65.202 296.132 66.9901 296.132 69.7386C296.132 71.0537 296.546 72.0586 297.329 72.7827C298.023 73.4181 298.939 73.8023 300.166 74.0091L301.984 74.2899C303.092 74.4672 303.535 74.6298 304.008 75.0879C304.54 75.5755 304.776 76.2405 304.776 77.1123C304.776 79.0186 303.387 80.1121 301.082 80.1121C299.338 80.1121 298.142 79.7131 296.856 78.3684L295.748 79.521C297.196 81.043 298.733 81.6489 301.053 81.6489C304.304 81.6489 306.417 79.9052 306.417 77.0532C306.417 75.7233 305.944 74.6298 305.102 73.8761C304.407 73.2112 303.727 72.9452 302.279 72.7088M315.298 81.5011H316.953V65.335H315.298V81.5011ZM326.676 72.7088L324.873 72.4132C324.06 72.2802 323.322 71.9995 322.834 71.5709C322.361 71.1424 322.139 70.4922 322.139 69.6795C322.139 67.8619 323.336 66.6502 325.435 66.6502C327.045 66.6502 328.124 67.1378 329.055 68.0688L330.134 66.9605C328.804 65.734 327.489 65.1873 325.509 65.1873C322.435 65.1873 320.543 66.9753 320.543 69.7238C320.543 71.039 320.957 72.0438 321.74 72.7679C322.435 73.4033 323.351 73.7875 324.578 73.9944L326.38 74.2751C327.489 74.4525 327.932 74.615 328.405 75.0731C328.937 75.5607 329.173 76.2257 329.173 77.0975C329.173 79.0038 327.769 80.0973 325.494 80.0973C323.75 80.0973 322.553 79.6983 321.268 78.3536L320.159 79.5062C321.593 81.0282 323.144 81.6341 325.449 81.6341C328.7 81.6341 330.814 79.8904 330.814 77.0384C330.814 75.7085 330.341 74.615 329.513 73.8614C328.804 73.1964 328.139 72.9304 326.691 72.694M341.453 74.1569L345.147 81.4863H343.197L339.665 74.3047H335.941V81.4863H334.286V65.3202H340.241C342.945 65.3202 344.852 67.0196 344.852 69.8125C344.852 72.1768 343.477 73.7136 341.468 74.1569M340.094 72.7974C341.896 72.7974 343.182 71.8221 343.182 69.842C343.182 67.8619 341.896 66.8718 340.094 66.8718H335.956V72.7974H340.094ZM353.718 65.3202L359.407 81.5011H357.649L356.407 77.8364H349.625L348.369 81.5011H346.595L352.314 65.3202H353.718ZM355.92 76.3291L353.038 67.788L350.112 76.3291H355.92ZM361.919 81.4863H371.554V79.9347H363.574V74.0978H370.372V72.561H363.574V66.8571H371.554V65.3202H361.919V81.5011V81.4863ZM376.652 79.9347V65.3055H374.997V81.4863H384.587V79.9347H376.652Z" fill="#A19689"/>
<path d="M387.69 81.5449H389.744V79.417H387.69V81.5449Z" fill="#A19689"/>
<path d="M40.3856 37.9679C40.1935 37.9679 12.8412 37.9679 11.7625 37.9679C11.7625 37.9679 11.733 37.9679 11.7182 37.9679C10.9498 37.9679 10.3144 37.3324 10.3144 36.564C10.3144 36.5493 10.3144 36.5345 10.3144 36.5049V33.3574C10.3144 33.3574 10.3144 33.3279 10.3144 33.2983C10.3144 32.5299 10.935 31.8945 11.7182 31.8945H37.0608C37.8735 31.8945 38.4646 31.2739 38.4646 30.4907V24.4025C38.4646 23.5898 37.844 22.9987 37.0608 22.9987H11.7182C10.9498 22.9987 10.3144 22.3781 10.3144 21.5949C10.3144 21.5949 10.3144 21.5801 10.3144 21.5653V18.2257C10.3144 17.4425 10.935 16.8219 11.7182 16.8219C11.7182 16.8219 11.733 16.8219 11.7477 16.8219H39.233C40.0457 16.8219 40.6368 16.1865 40.6368 15.4181V8.81276C40.6368 8.00002 40.0014 7.40894 39.233 7.40894H10.4769C4.69909 7.40894 0.014777 12.0933 0 17.8711V46.0361C0 46.8489 0.620631 47.4399 1.40381 47.4399H35.7456C36.2628 47.4399 36.913 47.2626 37.2233 46.6124C37.4007 46.243 40.888 38.751 40.9915 38.5146C41.1245 38.2338 40.8142 37.9383 40.3856 37.9383M83.2981 37.9383H56.4483C55.6651 37.9383 55.0445 37.3029 55.0445 36.5345V8.81276C55.0445 8.00002 54.409 7.40894 53.6406 7.40894H47.0353C46.2225 7.40894 45.6315 8.02957 45.6315 8.81276V46.0361C45.6315 46.8489 46.2521 47.4399 47.0353 47.4399H78.732C79.2788 47.4399 79.9733 47.3069 80.2984 46.6124C80.4757 46.243 83.9483 38.7806 84.0518 38.5442C84.1552 38.3225 84.0518 37.9383 83.3129 37.9383M183.353 29.8996C183.353 30.6532 182.748 31.2739 181.994 31.2886H169.108L175.522 17.5312C175.832 16.881 176.246 16.1865 177.59 16.1865H181.964C182.733 16.1865 183.368 16.8219 183.368 17.5903V29.8848L183.353 29.8996ZM191.111 7.40894H175.595C172.611 7.40894 169.123 8.99008 167.527 12.4036L152.292 45.1052C151.598 46.5681 152.366 47.4399 153.844 47.4399H159.474C161.188 47.4399 161.838 46.8193 162.429 45.5632C163.109 44.1003 164.409 41.337 164.941 40.1696H183.028V45.6815C183.028 46.8784 183.605 47.4399 184.772 47.4399H191.082C192.234 47.4399 192.826 46.8784 192.826 45.6962V9.1674C192.826 7.98524 192.249 7.42371 191.097 7.40894M236.669 37.9383H209.804C209.036 37.9383 208.401 37.3029 208.401 36.5345V8.81276C208.401 8.00002 207.78 7.40894 206.997 7.40894H200.391C199.579 7.40894 198.988 8.02957 198.988 8.81276V46.0361C198.988 46.8489 199.608 47.4399 200.391 47.4399H232.088C232.635 47.4399 233.329 47.3069 233.654 46.6124C233.832 46.243 237.304 38.7806 237.423 38.5442C237.526 38.3225 237.423 37.9383 236.684 37.9383M386.848 7.48282H326.44C325.287 7.48282 323.898 8.33989 323.41 9.38906L320.78 15.0487C320.292 16.0831 320.972 16.9845 322.11 16.9845H382.518C383.671 16.9845 385.06 16.1274 385.548 15.0782L388.193 9.41861C388.68 8.38422 388.015 7.4976 386.848 7.4976M339.03 31.9093H343.197L344.32 34.7908C344.748 35.8991 345.664 34.8203 345.664 34.8203L348.206 31.9093H351.191C352.787 31.9093 353.452 31.8649 352.861 30.2986C352.255 28.7322 351.871 27.7421 351.871 27.7421L354.545 24.6833C354.944 24.2843 355.609 23.0135 354.235 23.0135H350.098C350.098 23.0135 349.344 21.0481 348.96 20.0285C348.561 18.9941 348.31 19.1715 347.585 20.0285C346.61 21.1664 344.97 23.0135 344.97 23.0135H342.118C340.522 23.0135 339.887 23.043 340.492 24.6094L341.438 27.0772L338.69 30.2542C338.291 30.6384 337.611 31.924 339 31.924M372.618 37.9826H312.209C311.057 37.9826 309.668 38.8397 309.18 39.8889L306.535 45.5485C306.047 46.5829 306.727 47.4843 307.88 47.4843H368.288C369.441 47.4843 370.83 46.6272 371.317 45.578L373.962 39.9184C374.45 38.884 373.77 37.9826 372.618 37.9826Z" fill="#150252"/>
<path d="M104.548 7.40873H81.8352C81.0668 7.40873 80.4314 6.78809 80.4314 6.00491V1.83779C80.4314 1.02505 79.796 0.433967 79.0276 0.433967H72.1563C71.3583 0.433967 70.7672 1.0546 70.7524 1.82301V15.4179C70.7524 16.2158 71.3731 16.8217 72.1415 16.8217H98.7697C99.5381 16.8217 100.159 17.4571 100.159 18.2255C100.159 18.4176 100.114 18.5949 100.041 18.7723L87.7756 45.0754C87.0811 46.5679 87.8347 47.4397 89.4011 47.4397H97.4398C98.1491 47.4397 98.6811 47.1442 98.9175 46.6122L111.36 19.9249C114.906 12.3295 108.744 7.39395 104.533 7.39395M160.671 7.39395H152.617C151.745 7.39395 151.199 7.70427 150.977 8.35446L137.678 36.8889C137.678 36.8889 137.279 37.9381 136.761 37.9381C136.289 37.9381 136.2 37.5243 136.067 36.8889L130.008 8.44312C129.846 7.76338 129.122 7.40873 128.353 7.40873H120.935C119.975 7.40873 119.132 8.33968 119.487 9.89127L125.886 37.9381H110.488C109.66 37.9381 109.158 38.1302 108.818 38.8247C108.818 38.8247 106.336 44.2036 105.922 45.0606C105.464 46.0211 105.449 47.4249 107.547 47.4249H136.377C144.386 47.4249 147.091 42.3416 149.618 36.5195L161.868 9.87649C162.547 8.41357 161.572 7.39395 160.671 7.39395ZM258.007 7.39395H235.295C234.526 7.39395 233.891 6.77332 233.891 5.99013V1.82301C233.891 1.01027 233.27 0.419189 232.487 0.419189H225.616C224.818 0.419189 224.227 1.03983 224.212 1.80823V15.4031C224.212 16.2011 224.833 16.8069 225.601 16.8069H252.229C252.998 16.8069 253.618 17.4423 253.618 18.2107C253.618 18.4028 253.574 18.5802 253.515 18.7575L241.25 45.0606C240.555 46.5531 241.309 47.4249 242.861 47.4249H250.914C251.623 47.4249 252.155 47.1294 252.392 46.5974L264.834 19.9101C268.381 12.3147 262.219 7.37918 258.007 7.37918M310.466 7.37918H303.446C302.752 7.37918 302.235 7.68949 301.984 8.17713C301.939 8.22147 292.984 27.5351 292.984 27.5498L282.507 9.10809C281.887 7.98503 280.778 7.37918 279.463 7.37918H272.193C270.553 7.37918 270.538 8.31013 271.055 9.12286L274.986 15.5952L260.667 46.228C260.076 47.5136 261.199 48.0012 262.366 48.0012C262.366 48.0012 268.824 48.548 272.075 44.7355C273.109 43.5238 273.863 42.4155 274.454 41.1595L281.177 26.7371C281.177 26.7371 292.63 46.4349 292.748 46.627C293.162 47.3067 293.679 47.4397 294.432 47.4397H302.102C303.757 47.4397 303.757 46.4644 303.225 45.6517L299.265 38.5587C299.265 38.5587 312.416 10.3641 312.653 9.83216C313.229 8.54656 312.49 7.40873 310.466 7.40873" fill="#A19689"/>
</svg>
