<svg width="198" height="101" viewBox="0 0 198 101" fill="none" xmlns="http://www.w3.org/2000/svg">
<g clip-path="url(#clip0_4326_4212)">
<path d="M170.532 31.1238C170.119 31.1238 167.966 31.548 167.966 32.0358C167.966 32.7358 168.666 32.6615 168.666 34.1251C168.666 35.3022 167.139 35.9916 164.222 35.9916H152.344C132.608 35.9916 123.774 47.4559 123.774 55.028C123.774 57.5308 124.686 59.2701 126.425 59.2701C128.027 59.2701 129.617 58.2308 129.617 57.5308C129.617 56.4173 127.825 54.7523 127.825 51.4116C127.825 45.2288 135.885 37.3703 153.946 37.3703C157.424 37.3703 157.7 37.646 157.7 38.0702C157.7 38.6217 150.054 53.363 142.418 63.3743C138.526 68.4436 130.466 77.14 125.672 77.14C122.957 77.14 121.292 76.5036 120.603 74.0644C120.115 72.2615 119.914 71.7737 119.288 71.7737C118.8 71.7737 115.735 72.9615 115.735 74.2129C115.735 77.4793 117.888 79.9079 121.229 79.9079C130.052 79.9079 137.423 71.4343 144.793 62.9501C146.257 62.8759 147.508 62.8017 150.287 62.8017C154.455 62.8017 154.805 62.8759 154.805 63.2259C154.805 63.9894 152.853 76.6309 152.853 78.1687C152.853 78.3808 154.243 79.9079 154.667 79.9079C155.918 79.9079 161.454 78.1581 164.859 77.1718C164.88 79.1019 165.378 79.6322 166.948 79.6322C168.273 79.6322 169.79 79.0065 172.993 77.6914C176.959 76.09 177.511 76.0264 177.511 75.6022C177.511 75.3901 177.447 75.178 177.235 75.178C176.959 75.178 174.382 76.44 172.717 76.44C170.84 76.44 170.278 75.6658 170.278 72.5373C170.278 68.783 174.318 50.998 174.318 50.1602C174.318 49.6724 174.106 49.4603 173.894 49.4603C173.343 49.4603 171.879 49.8739 168.825 50.4359C163.894 51.3374 163.681 51.3374 163.681 51.6874C163.681 52.0373 163.894 52.1116 166.046 52.1116C168.613 52.1116 168.889 52.5252 168.889 54.3281C168.889 56.6188 165.527 72.3676 164.943 76.2703C163.989 76.3764 163.003 76.44 161.9 76.44C159.121 76.44 158.845 75.9416 158.845 71.0101C158.845 62.5259 161.126 48.633 163.077 37.3809C167.595 37.3809 171.625 35.228 171.625 33.0009C171.625 31.6116 171.211 31.1132 170.585 31.1132L170.532 31.1238ZM27.0434 35.2916C22.9392 35.2916 19.2591 35.631 13.6277 38.8974C4.59207 44.1894 0 54.6144 0 66.4286C0 74.9128 3.46792 79.9079 13.5429 79.9079C20.4257 79.9079 25.3572 77.3415 30.6386 74.9765L30.5855 73.7145C26.9055 75.3158 21.6771 77.543 17.3714 77.543C10.075 77.543 5.69502 71.6995 5.69502 63.1516C5.69502 44.1788 16.8199 36.9567 24.3284 36.9567C27.7327 36.9567 34.3398 39.3853 34.3398 41.4003C34.3398 41.676 34.2656 42.6517 34.1277 44.4546H34.8913C35.867 38.8232 36.7578 39.661 36.7578 38.4096C36.7578 37.4339 33.0778 35.281 27.0328 35.281L27.0434 35.2916ZM174.828 36.8294C172.463 36.8294 171.975 38.6323 171.975 40.7109C171.975 41.6866 172.463 42.2487 173.364 42.2487C175.517 42.2487 176.694 40.4458 176.694 38.4944C176.694 37.0309 176.418 36.8294 174.828 36.8294ZM157.955 40.2973L158.103 40.4458C157.202 47.0529 155.314 59.7686 155.176 60.6064C155.102 61.02 154.837 61.1578 150.52 61.1578C147.254 61.1578 146.278 61.1578 146.278 60.8821C146.278 60.5321 154.412 48.0922 157.955 40.3079V40.2973ZM56.8335 48.2194C56.4836 48.2194 54.1186 48.9194 53.355 50.3087C51.2021 50.3087 51.8172 49.4815 48.063 49.4815C45.1465 49.4815 38.7516 53.5645 37.5744 56.0037C32.4309 66.5665 32.2294 71.0844 32.2294 75.1886C32.2294 78.9428 32.9823 79.6322 34.3716 79.6322C37.8501 79.6322 43.3437 76.8536 47.1615 75.6022C47.1615 76.3658 46.96 77.1294 46.96 77.8187C46.96 79.208 47.4373 79.6322 48.2115 79.6322C48.9856 79.6322 49.8871 79.6322 56.4836 77.14C58.1486 76.5143 58.9228 76.3658 58.9228 75.9522C58.9228 75.7401 58.7849 75.6022 58.5728 75.6022C58.3607 75.6022 55.4442 76.5779 54.3307 76.5779C53.2171 76.5779 52.7399 75.8143 52.7399 73.2478C52.7399 68.4543 57.5335 49.3436 57.5335 49.0679C57.5335 48.7179 57.3214 48.23 56.8335 48.23V48.2194ZM101.8 49.0573C96.3805 49.0573 90.4098 54.7523 89.2962 57.4566C86.5813 64.1273 85.7434 69.3451 85.7434 72.8872C85.7434 77.4793 88.2463 79.6216 91.8627 79.6216C96.7305 79.6216 96.8684 78.3065 104.865 73.3008C104.865 72.7494 104.865 72.463 104.663 72.463C104.112 72.463 99.859 76.1431 96.0411 76.1431C92.2233 76.1431 91.1733 72.6752 91.1733 69.2709C91.1733 68.0937 91.2582 66.8316 91.4597 65.5802C95.0018 63.9788 98.4697 62.3138 103.889 59.3974C104.79 58.9095 106.254 54.9538 106.254 52.663C106.254 50.3723 105.14 49.0573 101.81 49.0573H101.8ZM69.581 49.4815C69.0932 49.4815 66.9403 50.3087 64.1618 50.7329C59.9939 51.3586 59.3682 51.0086 59.3682 51.6343C59.3682 52.4721 64.0239 51.6343 64.0239 53.0979C64.0239 61.5821 57.4911 96.7385 57.4911 98.6792C57.4911 99.1671 57.6289 99.6549 57.9153 100.069C59.9303 99.517 61.8816 98.6792 63.8966 98.4777V97.9262C63.4088 97.852 62.9103 97.0142 62.9103 94.575C62.9103 92.6978 64.586 82.1456 65.1374 78.3914C66.1131 79.0913 67.2267 79.6428 67.9903 79.6428C69.0296 79.6428 73.1974 78.402 77.991 76.1113C80.2817 74.9977 84.4496 65.4636 84.4496 55.3886C84.4496 50.8708 83.2088 49.4921 80.1439 49.4921C77.8531 49.4921 77.3653 50.3829 69.6553 52.96C69.6553 51.8464 70.0053 50.3935 70.0053 49.9057C70.0053 49.6936 69.931 49.5027 69.581 49.5027V49.4815ZM187.098 49.4815C186.748 49.4815 185.571 49.9587 181.679 50.5844C177.574 51.2101 177.023 50.8071 177.023 51.4965C177.023 52.0479 177.362 52.0479 179.239 52.0479C181.88 52.0479 182.156 52.1964 182.156 54.2114C182.156 60.2564 176.949 78.3914 176.949 79.2186C176.949 79.5686 177.214 79.6428 177.702 79.6428C178.052 79.6428 178.476 79.1656 180.427 78.8156C181.954 78.5399 182.23 78.6671 182.368 77.4793C182.506 76.2279 184.659 64.4879 186.324 56.8415C186.462 56.2158 189.176 53.2357 191.393 53.2357C193.758 53.2357 194.734 54.2008 195.296 56.3537L196.409 56.1522C196.961 55.1129 198 52.5994 198 51.6343C198 51.4222 197.586 51.0192 196.961 50.4571C196.547 50.1072 195.996 49.8951 194.394 49.8951C191.828 49.8951 192.729 50.3935 186.886 54.5614C186.886 53.7978 187.639 50.3829 187.639 49.9693C187.639 49.6936 187.363 49.4921 187.087 49.4921L187.098 49.4815ZM99.2333 50.7223C101.323 50.7223 101.673 52.3873 101.673 54.1266C101.673 59.4822 99.3076 60.8715 91.6612 64.0637C91.8733 60.1716 94.3761 50.7223 99.2439 50.7223H99.2333ZM46.5358 51.1465C46.6313 51.1465 46.7267 51.1465 46.8222 51.1465C47.9357 51.1465 52.093 52.3343 52.093 53.2357C52.093 53.7872 47.66 71.6464 47.31 74.0114C47.1721 74.9128 43.1422 76.1537 40.0772 76.1537C38.4122 76.1537 37.638 75.3159 37.638 72.0494C37.638 67.5316 40.5333 51.3798 46.5252 51.1359L46.5358 51.1465ZM75.2018 52.2494C77.7683 52.2494 79.0303 53.5115 79.0303 58.5808C79.0303 72.6858 74.5867 77.4157 70.8325 77.4157C68.4675 77.4157 67.2161 75.528 66.6646 73.7887L65.9859 74.1387C66.1237 72.1873 68.7644 57.2551 69.3159 54.1266C70.3552 53.5009 74.4489 52.2388 75.2124 52.2388L75.2018 52.2494Z" fill="#1F4FA2"/>
<path d="M77.5986 1.18516C77.8744 1.36545 78.1713 1.64119 78.4788 1.80026C78.8288 2.03358 79.0833 2.29871 79.4651 2.63808C80.3666 3.27439 81.3741 4.00616 82.2437 4.78034C83.177 5.39544 83.8239 6.15902 84.7996 6.75292C86.8676 8.18463 88.6069 9.9451 90.3037 11.8116C90.887 12.5222 91.7354 13.01 92.3823 13.7842C92.5838 13.8372 92.6369 14.1554 92.8171 14.3251C93.3686 15.0356 93.7822 15.7886 94.0155 16.6582C94.0792 16.9021 94.1852 17.1461 94.2701 17.3794C94.3973 18.0263 94.7261 18.5778 94.8852 19.2035C95.5003 20.614 95.9033 22.1093 96.8896 23.3607C97.5577 24.644 98.7349 25.7257 99.7742 26.7544C99.8378 26.8817 99.8378 26.9771 99.7318 27.0726C99.6257 27.1998 99.3712 27.0938 99.3712 27.3271C99.2333 27.4332 99.0742 27.8468 98.8303 27.6877C98.7243 27.9634 98.2895 27.868 98.3107 28.2073C98.194 28.3134 97.9713 28.4088 97.9925 28.6103C98.0349 28.7376 98.2152 28.6846 98.3107 28.7482C98.3849 28.5785 98.4379 28.3134 98.6712 28.3134C98.7349 28.43 98.894 28.4194 98.9682 28.3876C98.9894 28.1437 99.2545 28.1543 99.4454 28.1649C99.6787 28.2179 99.6151 27.7407 99.8802 27.9104C99.9757 28.0377 100.103 28.2498 100.283 28.2498C100.4 28.1967 100.357 28.0589 100.304 27.9952C100.188 27.8574 100.029 27.7725 100.018 27.6347C100.156 27.6453 100.326 27.624 100.304 27.4438C100.262 27.3271 100.464 27.3695 100.495 27.4225C100.601 27.5392 100.548 28.0164 100.814 27.7831C100.824 27.6771 100.909 27.6028 101.036 27.6453C101.27 27.8892 101.407 27.4862 101.62 27.4544C101.62 27.2741 101.916 27.3907 101.842 27.168C101.598 27.0726 101.132 27.5286 101.079 27.0302C101.238 26.9241 101.397 27.0938 101.482 26.8711C101.386 26.6802 101.588 26.4787 101.8 26.6272C101.927 26.7014 101.874 26.4469 101.842 26.4044C101.8 26.3514 101.768 26.2666 101.8 26.2135C101.853 26.2029 101.959 26.1075 102.054 26.1499C102.044 26.1923 102.076 26.2454 102.129 26.2135C102.224 26.2348 102.288 26.1923 102.309 26.1075C102.192 26.1075 102.235 25.9802 102.266 25.9272C102.309 25.906 102.309 25.8636 102.309 25.8105C102.542 25.6833 102.542 26.1817 102.712 25.9272C103.051 25.906 102.903 26.3514 103.147 26.2878C103.21 26.4044 103.253 26.2348 103.327 26.3302C103.391 26.2772 103.348 26.1923 103.369 26.1075C103.189 26.0014 103.21 25.8212 103.03 25.8105C102.988 25.6833 103.306 25.9378 103.21 25.6727C103.083 25.503 102.924 25.8424 102.744 25.6727C102.701 25.6091 102.585 25.5772 102.627 25.4924C102.913 25.6515 102.85 25.0046 103.062 25.3863C103.2 25.4394 103.253 25.6197 103.465 25.5878C103.539 25.5772 103.592 25.5136 103.645 25.45C103.603 25.3969 103.571 25.3121 103.603 25.2697C103.444 25.2273 103.285 25.2803 103.136 25.1636C103.083 24.9197 103.316 24.8031 103.497 24.7606C103.974 24.4107 104.568 24.3364 105.172 24.2834C105.406 24.3894 105.66 24.5379 105.936 24.4213C106.774 24.0289 107.431 23.488 108.269 23.1062C108.439 23.1062 108.63 23.1062 108.704 23.2653C108.63 23.435 108.46 23.6047 108.364 23.7319C107.94 24.1349 107.399 24.4425 106.869 24.6864C106.689 24.9621 106.381 25.3015 106.18 25.6303C105.787 26.2984 105.49 27.0514 105.162 27.6665C105.066 28.377 104.61 28.9179 104.578 29.639C104.525 29.7133 104.536 29.8299 104.419 29.8936C104.441 30.0633 104.409 30.3072 104.313 30.4769C104.016 32.5449 105.512 33.9236 106.434 35.4719C107.643 36.9142 109.107 38.505 110.74 39.661C110.634 39.6716 111.164 40.0958 111.641 40.2549C113.084 41.676 114.409 42.9698 115.481 44.5924C115.682 45.0803 115.778 45.5999 116.17 46.0135C116.181 46.0348 116.159 46.0666 116.149 46.0772C116.997 47.1589 117.411 48.4103 118.036 49.5769C118.196 50.4253 118.736 51.2207 118.991 52.0585C119.192 52.4191 119.298 52.8433 119.532 53.1615C119.723 53.6387 120.03 54.1054 120.115 54.5826C120.486 54.9856 120.423 55.6325 120.73 56.0779C120.953 56.7779 121.017 57.5202 121.388 58.1566C121.526 58.6126 121.398 59.1747 121.642 59.5777C121.621 59.6307 121.589 59.6943 121.6 59.7579C121.695 59.8216 121.653 60.1291 121.716 60.2352C121.642 60.9033 121.844 61.9532 121.823 62.6426C121.897 62.8653 121.621 62.7804 121.536 62.7592C121.494 62.2714 121.123 61.932 121.101 61.4442C120.995 61.3169 120.826 61.2639 120.879 61.0836C120.942 61.0624 120.995 60.9882 121.059 60.9245C121.038 60.7018 120.836 60.5746 120.72 60.3412C120.38 60.2988 120.762 59.7579 120.433 59.6837C120.041 59.3974 120.02 58.9944 119.85 58.602C119.5 58.4429 119.914 58.0505 119.627 57.8278C119.744 58.1035 119.383 58.4747 119.67 58.6444C119.564 59.111 119.977 59.4292 119.733 59.9064C119.808 60.0761 120.03 60.2776 119.85 60.4579C119.924 60.5321 120.009 60.6488 119.914 60.7442C119.818 60.9351 119.595 60.9139 119.415 60.967C119.458 60.8715 119.235 60.8715 119.341 60.7442C119.362 60.5746 119.15 60.617 119.118 60.4579C118.948 60.1609 119.171 59.6413 118.8 59.5034C118.747 59.3762 118.758 59.2171 118.758 59.0686C118.535 59.0792 118.439 58.952 118.323 58.7823C118.344 58.6444 118.196 58.6762 118.249 58.5277C118.45 58.5171 118.588 58.2944 118.768 58.2414C118.588 57.7217 118.397 57.2233 118.333 56.6612C118.217 56.4491 118.27 56.1946 118.111 56.0037C117.697 56.4597 118.153 57.0536 118.005 57.5839C117.983 58.0081 118.249 58.4959 117.888 58.8883C117.867 58.9095 117.835 58.9413 117.824 58.9626C117.718 59.3868 118.259 60.0867 117.602 60.2034C117.485 59.8958 117.379 59.5565 117.262 59.2913C117.188 58.952 117.008 58.6338 116.785 58.3899C116.605 58.6232 116.371 58.3368 116.17 58.2732C116.159 57.9763 115.799 57.849 115.746 57.5521C115.555 57.2763 115.215 57.1172 115.375 56.7461C115.481 56.6718 115.778 56.7673 115.671 56.5233C115.597 56.2794 116.127 56.4279 115.894 56.1204C115.767 56.0673 115.831 55.9295 115.756 55.8658C115.809 55.3674 115.64 54.9007 115.756 54.4023C115.618 54.3069 115.587 54.1796 115.597 54.0417C115.799 54.0205 115.671 53.7978 115.714 53.6811C115.618 53.6599 115.47 53.5857 115.534 53.4584C115.459 53.2994 115.693 53.2781 115.534 53.1615C115.375 52.9812 115.671 52.8009 115.491 52.6524C115.396 52.3979 115.809 52.2494 115.555 52.0373C115.364 52.2282 115.184 52.5888 115.311 52.8645C115.565 52.907 115.268 53.1721 115.311 53.3418C115.215 53.3948 115.353 53.5645 115.194 53.5645C115.099 53.8614 115.237 54.2856 115.088 54.519C114.887 54.6144 115.406 54.4023 115.088 55.0598C114.961 55.378 115.014 55.8128 115.046 56.1628C114.876 56.1734 115.29 56.0249 115.003 56.4809C114.94 56.5021 114.749 56.7355 114.781 56.7991C114.675 56.9264 114.59 56.8945 114.462 56.8415C114.441 56.4809 114.07 56.2582 114.059 55.8976C114.197 55.7598 114.759 55.8552 114.494 55.4628C114.208 55.3356 114.59 54.9962 114.303 54.8477C114.325 54.7841 114.25 54.6144 114.378 54.6674C114.42 54.6462 114.42 54.6144 114.378 54.5932H114.303C114.325 54.3387 114.25 53.872 114.378 53.6917C114.25 53.5963 114.187 53.416 114.155 53.2569C114.452 53.0872 113.953 52.6206 114.378 52.6418C114.208 52.3237 114.685 52.2282 114.515 51.9101C114.346 51.8358 114.272 51.6555 114.272 51.4753C114.579 51.4965 114.452 51.1571 114.494 50.9662C114.272 50.8708 114.494 50.5738 114.272 50.5314C113.858 50.892 114.388 51.4965 113.932 51.8146C113.953 52.0691 113.688 52.2176 113.794 52.504C113.688 52.6312 113.54 52.7797 113.656 52.9388C113.614 53.0024 113.731 53.0979 113.678 53.1933C113.402 53.3524 113.625 53.7024 113.36 53.8508C113.264 54.0735 113.19 54.6356 113.253 54.6568C113.37 54.9326 113.137 55.081 112.957 55.2401C112.882 55.2507 112.84 55.3568 112.734 55.3144C112.66 55.2507 112.66 55.1553 112.628 55.0598C112.861 54.9962 112.967 54.5932 112.872 54.5826C112.829 54.3599 112.925 54.1584 113.094 54.0417C113.211 53.5115 112.723 53.013 113.094 52.5782C113.211 52.1116 112.681 51.5495 113.275 51.2631C113.466 51.1253 113.402 50.7965 113.572 50.6162C113.275 50.5208 113.614 49.9057 113.253 50.139C113.296 50.3617 113.19 50.5526 113.063 50.6799C113.084 50.9132 113.052 51.1147 112.957 51.295C112.861 51.2738 112.797 51.3374 112.776 51.4116C112.755 51.9101 112.235 52.0798 112.373 52.6949C112.437 52.8327 112.257 52.7903 112.257 52.907C112.034 53.2781 112.617 53.4372 112.257 53.7448C112.278 53.8826 112.161 53.9781 112.151 54.116C111.907 54.222 111.875 53.819 111.748 53.6811C111.769 53.5433 111.684 53.4266 111.811 53.3842C111.981 53.1827 111.811 52.8327 111.97 52.6206C111.854 52.4827 111.737 52.3449 111.79 52.1434C111.832 52.0373 112.023 51.9631 111.854 51.857C111.79 51.804 111.779 51.7404 111.79 51.6661C111.843 51.6874 111.854 51.6237 111.896 51.6025C111.917 51.295 111.97 51.1995 112.193 51.0192C112.543 51.0404 112.235 50.5102 112.596 50.542C112.829 50.4465 112.617 50.2663 112.638 50.139C112.394 50.0117 112.957 49.5451 112.479 49.4815C112.257 49.6087 112.31 49.9693 112.299 50.245C112.257 50.4147 112.076 50.2344 112.044 50.4041C112.151 50.7011 111.917 50.8389 111.726 50.9874C111.302 50.998 111.801 51.5389 111.429 51.6768C111.334 51.7192 111.26 51.8358 111.185 51.8995C111.079 52.154 111.419 52.663 111.026 52.5994C110.846 52.4191 110.889 52.1752 110.708 52.0161C110.687 51.8995 110.729 51.8252 110.814 51.7616C110.772 51.5813 110.719 51.2419 111.005 51.2207C111.079 51.0829 110.835 51.0616 110.931 50.9238C110.835 50.8601 110.74 50.9662 110.676 51.0404C110.655 51.2101 110.655 51.3904 110.496 51.5071C110.337 51.5813 110.337 51.3904 110.273 51.3268C110.114 51.0192 110.454 50.6162 110.019 50.4465C110.125 50.2769 110.316 50.1708 110.242 49.9057C110.199 49.842 110.125 49.8845 110.061 49.8633C109.881 49.9693 109.923 50.3299 109.658 50.3405C109.425 50.2663 109.372 50.086 109.255 49.9057C109.308 49.736 109.573 49.7996 109.573 49.5875C109.733 49.4921 109.987 49.4815 110.008 49.2481C109.955 48.6649 110.772 48.6437 110.623 48.0073C110.687 47.9437 110.878 47.9543 110.804 47.7846C110.645 47.8801 110.167 47.7316 110.22 48.124C110.082 48.2937 109.923 48.5376 109.86 48.7815C109.584 48.9088 109.51 49.0785 109.245 49.2906C109.255 49.4072 109.245 49.5239 109.139 49.5875C108.969 49.5875 108.831 49.5239 108.661 49.5451C108.481 49.3436 108.142 49.0148 108.587 48.8876C109.096 48.9512 108.757 48.2725 109.17 48.1876C109.34 48.1982 109.34 48.0604 109.467 47.9649C109.489 47.8695 109.425 47.8058 109.351 47.7846C109.054 47.6892 109.128 48.071 108.81 47.9437C108.714 48.3149 108.439 48.474 108.333 48.8133C108.078 49.0042 107.898 48.7391 107.611 48.6755C107.484 48.7179 107.315 48.633 107.208 48.4952C107.198 48.4209 107.208 48.3573 107.283 48.3149C107.357 48.3043 107.463 48.3361 107.527 48.2725C107.548 48.071 107.177 48.23 107.092 48.1346C106.996 48.1558 106.933 48.2937 106.805 48.2407C106.646 48.0604 107.155 47.8377 106.763 47.7422C106.954 47.6149 106.784 47.4453 106.943 47.3392C106.89 47.265 106.805 47.318 106.721 47.2968C106.562 47.424 106.477 47.7634 106.243 47.6998C106.307 47.5195 106.084 47.5407 106.042 47.4453C105.734 47.6043 105.671 47.1589 105.342 47.265C105.363 46.9468 104.515 46.862 104.981 46.6499C105.162 46.5544 105.077 46.2893 105.204 46.1302C105.066 46.0242 105.087 46.2893 104.95 46.2893C104.716 46.4165 104.494 46.2257 104.366 46.0666C104.207 45.9711 104.313 45.7696 104.186 45.6636C104.006 45.7696 103.836 45.7696 103.666 45.6636C103.56 45.5469 103.359 45.4303 103.486 45.2606C103.645 45.0591 103.9 45.0697 104.101 44.9636C103.91 44.4334 103.666 45.2182 103.369 44.8576C103.253 44.9742 103.083 45.0909 102.945 45.0379C102.722 44.9 102.532 44.7515 102.606 44.4864C102.659 44.4228 102.797 44.5076 102.786 44.3803C102.627 44.3273 102.436 44.4228 102.277 44.3061C102.118 44.1894 102.001 44.0304 102.054 43.8395C101.757 43.6168 101.365 43.5531 101.28 43.1395C101.227 43.0653 101.1 43.1395 101.036 43.0653C100.729 42.885 101.238 42.1532 100.559 42.3441C100.464 42.2911 100.336 42.2063 100.336 42.0896C100.41 42.026 100.262 41.9729 100.23 41.9093C100.029 41.8457 99.9333 41.676 99.8272 41.5487C99.6575 41.1245 99.0212 40.9336 99.053 40.4458C98.7349 40.4988 98.8515 40.0534 98.5122 40.1488C98.2577 39.958 98.3213 39.9261 98.2152 39.7458C98.1516 39.5762 98.2258 39.2898 97.9713 39.2792C97.7168 38.9186 97.2714 38.802 97.0592 38.3672C96.7093 38.5899 96.3911 38.8974 96.476 39.3853C96.3063 39.5443 96.4654 40.2867 96.5184 40.2973C96.3381 40.6685 96.5608 41.0715 96.3275 41.4215C96.3487 41.6124 96.3169 41.8881 96.2214 42.079C96.4123 42.6093 95.8503 43.0759 96.1472 43.638C96.0836 43.7971 96.1684 44.1258 95.9245 44.2319C95.5851 44.0304 95.32 44.3273 94.9806 44.1152C94.9064 44.2319 94.7367 44.3167 94.5776 44.3379C94.3337 44.1152 94.3761 43.6168 93.8459 43.7546C93.8034 43.8713 93.6231 44.041 93.5277 43.8607C93.3898 43.9773 93.252 43.8077 93.0929 43.8607C92.9762 43.691 92.9126 43.3198 92.6581 43.638C92.552 43.5956 92.5308 43.7546 92.4354 43.7546C92.2551 43.3304 91.5657 43.7334 91.6294 43.0971C91.5021 42.9804 91.5763 42.7896 91.5657 42.6199C91.6294 42.5562 91.799 42.5562 91.7884 42.3972C91.6506 42.2805 91.5445 42.4714 91.4173 42.4714C91.4279 42.6305 91.29 42.7471 91.1309 42.6941C90.9718 42.6729 90.8552 42.5244 90.6961 42.4714C90.7067 42.2805 90.537 42.2911 90.4416 42.3972C90.4522 42.5244 90.2401 42.535 90.1446 42.4714C90.081 42.4502 90.028 42.3759 89.9643 42.3335C90.1022 42.1108 89.7204 42.0366 89.8265 41.8139C89.4341 41.6866 88.9993 41.6548 88.6599 41.4109C88.4266 41.6018 88.4054 41.2412 88.2569 41.1882C88.2357 40.9655 88.5326 41.0821 88.5008 40.87C88.3311 40.7321 88.2993 40.5943 88.0766 40.5094C87.8327 40.5731 87.6736 40.5518 87.4827 40.3928C87.5039 40.1913 87.4085 40.0958 87.5569 39.8837C87.2388 39.714 87.7478 39.3853 87.3767 39.2898C87.3661 39.1307 87.2706 38.9186 87.0797 39.0459C86.9418 39.0671 86.7828 39.0353 86.7934 38.8232C86.6025 38.505 86.9843 38.3141 86.857 37.9854C86.9737 37.7733 87.3661 37.8157 87.4085 37.646C87.4509 37.4233 87.7054 37.5294 87.8115 37.3597C87.6948 37.2854 87.5357 37.2006 87.4085 37.2854C87.1327 37.4127 86.8888 37.699 86.6025 37.4233C86.4328 37.19 86.1995 37.0733 86.1995 36.7764C86.3798 36.734 86.4858 36.5749 86.5601 36.4052C86.507 36.3628 86.4858 36.3097 86.401 36.3416C86.3904 36.4476 86.3055 36.5961 86.1995 36.4794C86.2525 36.2991 86.0404 36.3416 86.0086 36.1825C86.1677 35.9492 86.1358 35.6522 86.3798 35.4613C86.2737 35.3235 86.104 35.1644 86.2207 34.9841C86.3161 34.8144 86.3373 34.5917 86.4752 34.475C86.4328 34.2735 86.4964 34.0508 86.7721 34.0402C87.1858 33.8281 87.61 34.019 88.013 33.7433C88.2993 33.616 88.416 34.0932 88.6705 33.8175C88.925 34.0084 89.0947 33.6478 89.2114 34.072C89.3916 33.9554 89.6144 33.7963 89.8689 33.8175C89.9643 33.9342 89.9431 34.1675 90.1552 34.1781C90.1658 34.072 90.2613 33.9978 90.3779 34.0402C90.4522 34.1145 90.4734 34.2629 90.6006 34.2948C90.6219 34.2205 90.5476 33.8599 90.7809 34.0402C90.8764 34.5387 91.5657 33.6266 91.2582 34.4008C91.2158 34.4432 91.1627 34.475 91.1839 34.5387C91.2051 34.6129 91.29 34.5599 91.343 34.5811C91.4491 33.9766 92.1808 34.4008 92.1808 33.7433C92.5308 33.6903 92.5732 33.3191 92.7959 33.1282C92.7853 32.8949 92.499 32.7252 92.605 32.4388C91.9687 32.1419 91.693 31.5586 91.5233 30.9011C91.0991 30.5829 90.4628 30.4238 90.5052 29.7981C90.5052 29.5012 90.2295 29.2254 90.028 29.077C89.9007 28.8755 89.6144 28.674 89.5083 28.4937C89.6356 28.3876 89.4447 28.3346 89.4871 28.2392C89.5083 28.0058 89.4765 27.6665 89.1477 27.6559C88.872 27.6453 89.1265 27.1574 88.7447 27.1362C88.6069 27.062 88.5114 26.8817 88.6069 26.7014C88.7341 26.6484 88.6599 26.4999 88.6493 26.415C88.522 26.3408 88.2569 26.4257 88.2463 26.2348C88.2993 25.9484 88.3099 25.7363 88.1296 25.503C88.013 25.4818 87.8221 25.5772 87.8115 25.3969C87.5782 25.0894 88.4478 24.6864 87.6948 24.7818C87.6418 24.6652 87.5039 24.7182 87.4721 24.6016C87.1858 24.1986 87.8751 24.0925 87.5888 23.7849C87.4297 23.838 87.2706 24.0395 87.1115 23.8592C86.9843 23.7213 87.0585 23.3926 86.9737 23.2441C87.4297 23.1911 87.207 22.6714 87.663 22.629C87.716 22.5653 87.8009 22.5229 87.8221 22.4487C87.3661 22.2472 87.3554 22.9683 86.9843 22.9683C86.9312 23.032 86.8464 22.9789 86.7616 22.9896C86.6237 22.8729 86.5813 22.6502 86.6449 22.4805C86.8994 22.4381 87.0479 22.1199 87.26 22.0033C87.5039 21.8866 87.6524 21.7063 87.6948 21.4624C87.3767 21.123 87.1221 21.8124 86.7509 21.7806C86.6449 21.8866 86.507 21.9078 86.3904 21.9608C86.2101 21.8018 86.401 21.6427 86.454 21.4942C86.6449 21.5684 86.5707 21.3351 86.6343 21.2715C86.857 20.8685 87.663 21.07 87.5145 20.3913C87.3873 20.317 87.1964 20.2004 87.0797 20.3913C86.857 20.6458 86.56 20.8791 86.2101 20.8897C86.1146 20.7943 85.9556 20.8261 85.9131 20.7094C85.8601 20.4655 86.1571 20.4231 86.2737 20.2746C86.6237 20.2322 86.8676 19.7868 87.26 19.7762C87.3236 19.6065 87.1858 19.4898 87.0373 19.5959C86.7297 19.8822 86.2313 19.7337 85.9131 19.9989C85.7753 20.0095 85.6798 19.8928 85.5526 19.8822C85.4889 19.7231 85.4889 19.4474 85.6904 19.4156C85.8283 19.4262 85.9662 19.3944 86.051 19.2989C86.0934 19.1929 85.8813 18.8323 86.1676 18.9808C86.1676 19.055 86.2631 19.0974 86.3055 19.1611C86.5494 19.2565 86.6237 18.9596 86.7403 18.8217C86.7297 18.7475 86.8464 18.6308 86.6979 18.5778C86.2843 18.6308 85.9662 18.8959 85.5313 18.8959C85.3617 18.7899 85.5313 18.6202 85.5313 18.4929C85.7753 18.3975 85.9874 18.3551 86.1464 18.1748C86.2631 18.1323 86.3904 18.2914 86.4646 18.1323C86.454 18.0369 86.4646 17.9308 86.5813 17.9096C86.7085 17.9202 86.8358 18.0369 86.9843 17.9521C87.1009 17.7612 86.9418 17.7081 86.8252 17.6127C86.7828 17.5703 86.7297 17.5172 86.6873 17.4748C86.0404 17.4748 85.4571 17.9945 84.8314 17.6975C84.7359 17.4748 84.9905 17.5597 85.0541 17.443C85.245 17.2627 85.6268 17.6021 85.7753 17.2203C86.0298 17.3794 86.1783 16.9021 86.3692 17.2203C86.5919 17.1991 86.6873 17.1248 86.91 17.1142C87.1327 16.8703 87.3873 16.7112 87.4509 16.3401C87.1115 16.3295 86.7509 16.0537 86.4328 16.3189C86.1783 16.2234 86.0616 16.4779 85.8177 16.4249C85.5632 16.7218 85.1602 16.6794 84.7572 16.6794C84.7041 16.6158 84.5875 16.5416 84.6935 16.4567C84.9693 16.234 85.4147 16.4567 85.6374 16.0961C85.8707 15.778 86.7403 16.3825 86.5176 15.6613C86.051 15.5871 85.4571 15.3644 85.0223 15.6613C84.7678 15.6719 84.4284 15.5235 84.2163 15.725C83.983 15.5447 83.5694 15.9159 83.4527 15.5235C83.3148 15.1841 83.6754 15.1841 83.8133 15.0462C84.1208 15.2265 84.386 15.025 84.6935 15.0886C84.7572 15.0356 84.7678 14.972 84.7572 14.9084C84.2269 14.4947 83.4739 14.7493 82.9012 14.6856C82.9225 14.3887 82.4664 14.5478 82.5831 14.2508C82.7634 14.2402 82.9755 14.0811 83.1239 14.2508C83.4633 14.1978 83.7178 14.3251 84.036 14.2932C84.2799 14.4205 84.492 14.3145 84.7359 14.4735C85.3723 14.2508 84.7147 15.0038 85.2768 14.9402C85.7541 14.8023 86.104 15.0568 86.5919 15.0992C86.6449 14.8765 86.8782 15.0462 87.0161 15.025C86.91 14.8871 87.2494 14.4735 86.9524 14.5478C86.8252 14.5902 86.7616 14.7811 86.6131 14.7705C86.5494 14.675 86.6025 14.5372 86.4752 14.4841C86.3373 14.4735 86.3479 14.6114 86.2207 14.6644C86.0828 14.675 85.9874 14.5584 85.8601 14.5478C85.5632 14.1978 86.454 14.2084 85.9343 13.9327C85.9343 13.5721 85.1177 13.9433 85.3192 13.3494C85.4571 13.0524 86.051 13.5191 85.8177 12.9464C85.5207 12.5328 85.0647 12.8297 84.6511 12.6919C84.5769 12.5116 84.2163 12.6176 84.1102 12.4479C83.983 12.2146 83.8133 12.4373 83.6754 12.257C83.4845 12.4479 83.2406 12.204 83.0603 12.257C82.7846 11.9071 82.1801 12.2146 81.8831 11.854C81.4483 11.6101 80.9923 11.7374 80.5045 11.6101C80.4514 11.4723 80.2499 11.3874 80.3242 11.2071C80.462 11.1011 80.7166 11.2177 80.9074 11.2283C81.2468 11.3344 81.6286 11.1541 81.8937 11.5253C82.424 11.6207 83.0073 11.5889 83.4739 11.8434C83.93 11.451 84.2481 12.2676 84.7784 12.1404C84.9693 12.2676 85.245 12.1934 85.4783 12.2146C85.5419 12.151 85.4995 12.0343 85.5207 11.9601C85.1814 11.5359 84.5344 11.5359 84.0996 11.1965C83.7603 11.1541 83.4421 11.1329 83.1876 10.942C82.9861 10.8359 82.7209 10.8359 82.4982 10.7829C82.3179 10.5602 81.968 10.942 81.9043 10.6026C81.5544 10.6238 81.3529 10.5284 81.0983 10.2845C80.8438 10.2314 80.6211 10.1042 80.3348 10.1042C80.1757 10.1784 79.9954 10.1678 79.8151 10.2102C79.8151 10.1042 79.7621 10.0299 79.6772 9.96631C79.1046 9.96631 79.3167 9.31939 79.0197 9.05426C79.1258 8.82094 79.2212 9.05426 79.3591 9.05426C79.5182 9.25575 79.8894 9.07547 80.0484 9.3512C80.2075 9.3512 80.2817 9.5527 80.4196 9.59512C80.7272 9.7542 81.1196 9.7542 81.4059 9.99812C81.8089 10.0936 82.1801 10.1996 82.5088 10.4754C82.6997 10.1996 82.9224 10.5284 83.1558 10.4754C83.5694 10.7087 84.089 10.7299 84.439 11.0162C84.6299 10.9208 85.1283 11.2177 85.0965 10.9102C84.9905 10.8041 85.0329 10.539 84.7996 10.592C84.5451 10.1572 83.9193 10.4223 83.7497 9.93449C83.4103 10.0511 83.1982 9.65875 82.8376 9.7542C82.7316 9.59512 82.5301 9.73299 82.4028 9.63754C82.1271 9.20273 81.565 9.40423 81.3423 8.91639C80.9181 9.03304 80.759 8.38612 80.356 8.75731C80.059 8.68307 79.8151 8.46036 79.4439 8.5346C79.3061 8.64065 79.3061 8.89518 79.0833 8.87397C78.9773 8.82094 79.0091 8.59823 78.8288 8.61944C78.7864 8.20584 78.3728 8.02555 78.1819 7.70739C78.2243 7.63315 78.3092 7.66497 78.3622 7.60134C78.6804 7.67557 79.3061 7.42105 79.4864 7.82405C79.7939 7.91949 79.9848 8.17402 80.3242 8.07857C80.5257 8.21644 80.8226 8.23765 81.0241 8.32249C81.3104 8.55581 81.6074 8.46036 81.9043 8.69368C82.0104 8.65126 82.1483 8.56641 82.2649 8.65126C82.4028 8.87397 82.6679 8.81033 82.8058 9.01183C83.1027 9.1391 83.4421 9.17091 83.686 9.41483C83.9406 9.3512 84.0466 9.65875 84.3011 9.71178C84.5875 9.72239 84.789 10.0087 85.1071 9.84965C84.8102 9.56331 84.5026 9.06486 83.9406 9.1497C83.7603 9.10728 83.8451 8.81033 83.6012 8.86336C83.3785 8.7361 83.1239 8.29068 82.7952 8.3437C82.0634 8.59823 81.8831 7.44226 81.1196 7.76042C80.7696 7.50589 80.5469 7.10289 80.0378 7.10289C79.7515 6.57263 79.0197 7.00744 78.8288 6.44536C78.3622 6.49839 78.4258 5.97873 78.0228 5.86208C78.044 5.61815 77.6835 5.62876 77.7683 5.35302C77.6729 5.3 77.7047 5.21516 77.7047 5.13031C77.8001 5.08789 77.8425 5.03487 77.9592 5.08789C78.0865 5.24697 78.4895 4.83337 78.5001 5.22576C78.6804 5.27879 78.8924 5.39544 78.9349 5.59694C79.2106 5.64997 79.4227 5.94692 79.6984 5.88329C79.8575 5.93631 80.059 5.93631 80.2181 5.88329C79.8787 5.62876 79.55 5.21516 79.1152 5.11971C78.9985 5.05608 78.7758 4.95002 78.797 4.86518C78.6273 4.67429 78.2667 4.58945 78.2031 4.32431C77.8425 4.01676 77.6729 3.51832 77.2592 3.22137C77.3335 3.03047 76.9411 2.75474 77.3335 2.70171C77.5032 2.72292 77.6092 2.6805 77.7365 2.70171C77.3653 2.42597 77.3229 1.98055 76.9305 1.83208C76.729 1.73663 76.8669 1.40787 76.676 1.31242C76.6866 1.20637 76.6123 0.909424 76.8562 0.909424C77.1002 1.01548 77.4926 0.909424 77.5774 1.20637" fill="white"/>
<path d="M82.8164 13.0312C82.827 13.1055 82.8164 13.1691 82.7422 13.2115C82.371 13.3282 82.0422 12.8403 81.7241 13.2115C81.565 13.2009 81.4377 13.1161 81.3211 13.01C81.2256 12.5964 81.618 12.8934 81.7983 12.7555C82.1165 12.7131 82.4664 12.6176 82.6361 12.9782C82.7104 12.9676 82.7316 13.0949 82.8164 13.0418" fill="white"/>
<path d="M84.895 13.2857C85.0011 13.413 84.842 13.5191 84.7572 13.6251C84.5663 13.5191 84.2163 13.816 84.0996 13.5085C83.9724 13.6357 83.8981 13.413 83.7815 13.4342C83.5906 13.4342 83.3785 13.4554 83.23 13.3706C83.1664 13.3494 83.2088 13.2115 83.1876 13.1479C83.4845 13.1055 83.8239 13.2009 84.1421 13.2115C84.2163 13.1373 84.2163 12.9676 84.3966 13.0312C84.5238 13.1903 84.6829 13.2857 84.895 13.2857Z" fill="white"/>
<path d="M104.08 26.0227C103.91 26.0227 103.825 25.8636 103.762 25.7681C103.857 25.4606 103.878 25.906 104.048 25.8318C104.037 25.906 104.207 25.9484 104.091 26.0227" fill="white"/>
<path d="M97.6956 29.2997C97.5365 29.13 97.4516 29.4588 97.2926 29.2997C97.4198 29.0982 97.844 29.2785 97.8334 28.9285C97.8546 29.0876 97.8228 29.2148 97.6956 29.2997Z" fill="white"/>
<path d="M97.1547 29.8087C97.0486 29.7981 97.0486 29.6178 96.9956 29.5224C97.0699 29.5224 97.1335 29.5118 97.1865 29.4482C97.1759 29.5754 97.3562 29.7345 97.1441 29.8087" fill="white"/>
<path d="M77.3971 1.23819C77.6729 1.41848 77.9698 1.69421 78.2774 1.85329C78.6273 2.08661 78.8819 2.35174 79.253 2.69111C80.1545 3.32742 81.162 4.05918 82.0316 4.83337C82.9649 5.44847 83.6012 6.21205 84.5875 6.80594C86.6555 8.23765 88.3948 9.99812 90.081 11.8646C90.6643 12.5752 91.5127 13.063 92.1596 13.8372C92.3611 13.8902 92.4141 14.2084 92.5944 14.3781C93.1459 15.0886 93.5595 15.8416 93.7928 16.7112C93.8565 16.9552 93.9625 17.1991 94.0474 17.4324C94.1746 18.0793 94.5034 18.6308 94.6625 19.2565C95.2776 20.667 95.6806 22.1623 96.6669 23.4138C97.335 24.6864 98.5122 25.7787 99.5409 26.8074C99.6045 26.9347 99.6045 27.0302 99.4985 27.1256C99.3924 27.2529 99.1379 27.1468 99.1379 27.3801C99 27.4862 98.8409 27.8998 98.597 27.7407C98.491 28.0164 98.0561 27.921 98.0774 28.2604C97.9607 28.3664 97.738 28.4619 97.7592 28.6634C97.8016 28.7906 97.9819 28.7376 98.0774 28.8012C98.1516 28.6315 98.2046 28.3664 98.4379 28.3664C98.5016 28.4831 98.6606 28.4725 98.7349 28.4407C98.7561 28.1967 99.0212 28.2073 99.2121 28.2179C99.4454 28.271 99.3818 27.7937 99.6469 27.9634C99.7424 28.0907 99.8696 28.3028 100.05 28.3028C100.167 28.2498 100.124 28.1119 100.071 28.0483C99.9545 27.9104 99.7954 27.8255 99.7848 27.6877C99.9227 27.6983 100.092 27.6771 100.071 27.4968C100.029 27.3801 100.23 27.4225 100.262 27.4756C100.368 27.5922 100.315 28.0695 100.58 27.8362C100.591 27.7301 100.676 27.6559 100.803 27.6983C101.036 27.9422 101.174 27.5392 101.386 27.5074C101.386 27.3271 101.683 27.4438 101.609 27.221C101.365 27.1256 100.898 27.5816 100.845 27.0832C101.004 26.9771 101.163 27.1468 101.248 26.9241C101.153 26.7332 101.354 26.5317 101.566 26.6802C101.694 26.7544 101.641 26.4999 101.609 26.4575C101.566 26.4044 101.535 26.3196 101.566 26.2666C101.62 26.256 101.726 26.1605 101.821 26.2029C101.81 26.2454 101.842 26.2984 101.895 26.2666C101.991 26.2878 102.054 26.2454 102.076 26.1605C101.959 26.1605 102.001 26.0333 102.033 25.9802C102.076 25.959 102.076 25.9166 102.076 25.8636C102.309 25.7363 102.309 26.2348 102.479 25.9802C102.818 25.959 102.669 26.4044 102.913 26.3408C102.977 26.4575 103.019 26.2878 103.094 26.3832C103.157 26.3302 103.115 26.2454 103.136 26.1605C102.956 26.0545 102.977 25.8742 102.797 25.8636C102.754 25.7363 103.072 25.9908 102.977 25.7257C102.85 25.556 102.691 25.8954 102.51 25.7257C102.468 25.6621 102.351 25.6303 102.394 25.5454C102.68 25.7045 102.616 25.0576 102.829 25.4394C102.966 25.4924 103.019 25.6727 103.232 25.6409C103.306 25.6303 103.359 25.5666 103.412 25.503C103.369 25.45 103.338 25.3651 103.369 25.3227C103.21 25.2803 103.051 25.3333 102.903 25.2167C102.85 24.9727 103.083 24.8561 103.263 24.8137C103.741 24.4637 104.334 24.3894 104.939 24.3364C105.172 24.4425 105.427 24.5909 105.703 24.4743C106.54 24.0819 107.198 23.541 108.036 23.1592C108.205 23.1592 108.396 23.1592 108.471 23.3183C108.396 23.488 108.227 23.6577 108.131 23.7849C107.707 24.1879 107.166 24.4955 106.636 24.7394C106.455 25.0152 106.148 25.3545 105.946 25.6833C105.554 26.3514 105.268 27.1044 104.928 27.7195C104.833 28.43 104.377 28.9709 104.345 29.6921C104.292 29.7663 104.303 29.883 104.186 29.9466C104.207 30.1163 104.175 30.3602 104.08 30.5299C103.783 32.5979 105.278 33.9766 106.201 35.525C107.41 36.9673 108.873 38.5581 110.496 39.7034C110.39 39.714 110.92 40.1382 111.398 40.2973C112.84 41.7184 114.155 43.0123 115.226 44.6349C115.428 45.1227 115.523 45.6424 115.915 46.056C115.926 46.0772 115.905 46.109 115.894 46.1196C116.743 47.2013 117.156 48.4528 117.782 49.6193C117.941 50.4678 118.482 51.2631 118.736 52.101C118.938 52.4615 119.044 52.8857 119.277 53.1933C119.468 53.6705 119.776 54.1372 119.861 54.6144C120.232 55.0174 120.168 55.6643 120.476 56.1097C120.698 56.8097 120.762 57.5521 121.133 58.1884C121.271 58.6444 121.144 59.2065 121.388 59.6095C121.366 59.6625 121.335 59.7261 121.345 59.7898C121.441 59.8534 121.398 60.161 121.462 60.267C121.388 60.9351 121.589 61.9851 121.568 62.6638C121.642 62.8865 121.366 62.8017 121.282 62.7804C121.239 62.2926 120.868 61.9532 120.847 61.4654C120.741 61.3381 120.571 61.2851 120.624 61.1048C120.688 61.0836 120.741 61.0094 120.804 60.9457C120.783 60.723 120.582 60.5958 120.465 60.3625C120.126 60.32 120.507 59.7792 120.179 59.7049C119.786 59.4186 119.765 59.0156 119.595 58.6232C119.245 58.4641 119.659 58.0717 119.373 57.849C119.489 58.1247 119.129 58.4959 119.415 58.6656C119.309 59.1322 119.723 59.4504 119.479 59.9276C119.553 60.0973 119.776 60.2988 119.595 60.4791C119.67 60.5533 119.754 60.67 119.659 60.7654C119.564 60.9563 119.341 60.9351 119.161 60.9882C119.203 60.8927 118.98 60.8927 119.086 60.7654C119.108 60.5958 118.895 60.6382 118.864 60.4791C118.694 60.1822 118.917 59.6625 118.545 59.5246C118.492 59.3974 118.503 59.2383 118.503 59.0898C118.28 59.1004 118.185 58.9732 118.068 58.8035C118.089 58.6656 117.941 58.6974 117.994 58.549C118.196 58.5383 118.333 58.3156 118.514 58.2626C118.333 57.743 118.142 57.2445 118.079 56.693C117.962 56.4915 118.015 56.2264 117.856 56.0355C117.443 56.4915 117.899 57.0854 117.75 57.6051C117.729 58.0293 117.994 58.5171 117.633 58.9095C117.612 58.9307 117.58 58.9626 117.57 58.9838C117.464 59.408 118.005 60.1079 117.347 60.2246C117.23 59.917 117.124 59.5777 117.008 59.3125C116.933 58.9732 116.753 58.655 116.53 58.4111C116.35 58.6444 116.117 58.3581 115.915 58.2944C115.905 57.9975 115.544 57.8702 115.491 57.5733C115.3 57.2975 114.961 57.1385 115.12 56.7779C115.226 56.7036 115.523 56.7991 115.417 56.5552C115.343 56.3112 115.873 56.4597 115.64 56.1522C115.512 56.0991 115.576 55.9613 115.502 55.8976C115.555 55.3992 115.385 54.9326 115.502 54.4341C115.364 54.3387 115.332 54.2114 115.343 54.0735C115.544 54.0523 115.417 53.8296 115.459 53.713C115.364 53.6917 115.215 53.6175 115.279 53.4902C115.205 53.3312 115.438 53.31 115.279 53.1933C115.12 53.013 115.417 52.8327 115.237 52.6949C115.141 52.4403 115.555 52.2919 115.3 52.0798C115.109 52.2706 114.929 52.6312 115.056 52.907C115.311 52.9494 115.014 53.2145 115.056 53.3842C114.961 53.4372 115.099 53.6069 114.94 53.6069C114.844 53.9039 114.982 54.3281 114.834 54.5614C114.632 54.6568 115.152 54.4447 114.834 55.1022C114.706 55.4204 114.759 55.8552 114.791 56.1946C114.622 56.2052 115.035 56.0567 114.749 56.5127C114.685 56.534 114.494 56.7673 114.526 56.8309C114.42 56.9582 114.335 56.9264 114.208 56.8733C114.187 56.5127 113.816 56.29 113.805 55.9295C113.943 55.7916 114.505 55.887 114.24 55.4946C113.953 55.3674 114.335 55.028 114.049 54.8795C114.07 54.8159 113.996 54.6462 114.123 54.6992C114.166 54.678 114.166 54.6462 114.123 54.625H114.049C114.07 54.3705 113.996 53.9039 114.123 53.7236C113.996 53.6281 113.932 53.4478 113.9 53.2887C114.197 53.1191 113.699 52.6524 114.123 52.6736C113.953 52.3555 114.431 52.26 114.261 51.9419C114.091 51.8676 114.017 51.6874 114.017 51.5071C114.325 51.5283 114.197 51.1889 114.24 51.0086C114.017 50.9132 114.24 50.6162 114.017 50.5738C113.603 50.9344 114.134 51.5389 113.678 51.8464C113.699 52.101 113.434 52.2494 113.54 52.5252C113.434 52.6524 113.285 52.8009 113.402 52.96C113.36 53.0236 113.476 53.1191 113.423 53.2145C113.147 53.3736 113.37 53.713 113.105 53.872C113.01 54.0947 112.935 54.6568 112.999 54.6674C113.116 54.9432 112.882 55.0916 112.702 55.2507C112.628 55.2613 112.585 55.3674 112.479 55.325C112.405 55.2613 112.405 55.1659 112.373 55.0704C112.607 55.0068 112.713 54.6038 112.617 54.5932C112.575 54.3705 112.67 54.169 112.84 54.0523C112.957 53.5221 112.469 53.0236 112.84 52.5888C112.957 52.1222 112.426 51.5601 113.02 51.2738C113.211 51.1359 113.147 50.8071 113.317 50.6268C113.02 50.5314 113.36 49.9163 112.999 50.1496C113.041 50.3723 112.935 50.5632 112.808 50.6905C112.829 50.9238 112.797 51.1253 112.702 51.3056C112.607 51.2844 112.543 51.348 112.522 51.4222C112.5 51.9207 111.981 52.0904 112.119 52.6949C112.182 52.8327 112.002 52.7903 112.002 52.8964C111.779 53.2675 112.363 53.4266 112.002 53.7342C112.023 53.872 111.907 53.9675 111.896 54.1054C111.652 54.2114 111.62 53.8084 111.493 53.6705C111.514 53.5327 111.429 53.416 111.557 53.3736C111.726 53.1721 111.557 52.8221 111.716 52.61C111.599 52.4721 111.482 52.3343 111.535 52.1328C111.578 52.0267 111.769 51.9525 111.599 51.8464C111.535 51.7934 111.525 51.7298 111.535 51.6555C111.588 51.6768 111.599 51.6131 111.641 51.5919C111.663 51.2844 111.716 51.1889 111.938 51.0086C112.288 51.0298 111.981 50.5102 112.341 50.5314C112.575 50.4359 112.363 50.2556 112.384 50.1284C112.14 50.0011 112.702 49.5345 112.225 49.4709C112.002 49.5981 112.055 49.9587 112.044 50.2344C112.002 50.4041 111.822 50.2238 111.79 50.3935C111.896 50.6905 111.663 50.8283 111.472 50.9768C111.048 50.9874 111.546 51.5283 111.175 51.6555C111.079 51.698 111.005 51.8146 110.931 51.8783C110.825 52.1328 111.164 52.6418 110.772 52.5782C110.592 52.3979 110.634 52.154 110.454 51.9949C110.432 51.8783 110.475 51.804 110.56 51.7404C110.517 51.5601 110.464 51.2207 110.751 51.1995C110.825 51.0616 110.581 51.0404 110.676 50.9026C110.581 50.8389 110.485 50.945 110.422 51.0192C110.401 51.1889 110.401 51.3692 110.242 51.4859C110.083 51.5601 110.082 51.3692 110.019 51.3056C109.86 50.998 110.199 50.595 109.764 50.4253C109.87 50.2556 110.061 50.1496 109.987 49.8845C109.945 49.8208 109.87 49.8633 109.807 49.842C109.626 49.9481 109.669 50.3087 109.404 50.3193C109.17 50.245 109.117 50.0648 109.001 49.8845C109.054 49.7148 109.319 49.7784 109.319 49.5663C109.478 49.4709 109.733 49.4603 109.754 49.2269C109.701 48.6437 110.517 48.6224 110.369 47.9861C110.432 47.9225 110.623 47.9331 110.549 47.7634C110.39 47.8589 109.913 47.7104 109.966 48.1028C109.828 48.2725 109.669 48.5164 109.605 48.7603C109.33 48.8876 109.255 49.0573 108.99 49.2588C109.001 49.3754 108.99 49.4921 108.884 49.5557C108.714 49.5557 108.577 49.4921 108.407 49.5133C108.227 49.3118 107.887 48.983 108.333 48.8558C108.831 48.9194 108.502 48.2407 108.916 48.1558C109.086 48.1664 109.086 48.0285 109.213 47.9331C109.234 47.8377 109.17 47.774 109.096 47.7528C108.799 47.6574 108.873 48.0392 108.555 47.9119C108.46 48.2831 108.184 48.4422 108.078 48.7815C107.824 48.9724 107.643 48.7073 107.357 48.6437C107.23 48.6861 107.06 48.6012 106.954 48.4634C106.943 48.3891 106.954 48.3255 107.028 48.2831C107.102 48.2725 107.208 48.3043 107.272 48.2407C107.293 48.0392 106.922 48.1982 106.837 48.1028C106.742 48.124 106.678 48.2619 106.551 48.2088C106.392 48.0285 106.901 47.8058 106.509 47.7104C106.699 47.5831 106.53 47.4134 106.689 47.3074C106.636 47.2332 106.551 47.2862 106.466 47.265C106.307 47.3922 106.222 47.7316 105.989 47.668C106.052 47.4877 105.83 47.5089 105.787 47.4134C105.48 47.5725 105.416 47.1271 105.087 47.2332C105.109 46.915 104.26 46.8302 104.727 46.618C104.907 46.5226 104.822 46.2575 104.95 46.0984C104.812 45.9923 104.833 46.2575 104.695 46.2575C104.462 46.3847 104.239 46.1938 104.112 46.0348C103.953 45.9393 104.059 45.7378 103.931 45.6318C103.751 45.7378 103.581 45.7378 103.412 45.6318C103.306 45.5151 103.104 45.3984 103.232 45.2288C103.391 45.0273 103.645 45.0379 103.847 44.9318C103.656 44.4016 103.412 45.1863 103.115 44.8258C102.998 44.9424 102.828 45.0591 102.691 45.0061C102.468 44.8682 102.277 44.7197 102.351 44.4546C102.404 44.3909 102.542 44.4758 102.532 44.3485C102.372 44.2955 102.182 44.3909 102.033 44.2743C101.874 44.1576 101.757 43.9986 101.81 43.8077C101.513 43.5849 101.121 43.5213 101.036 43.1077C100.983 43.0335 100.856 43.1077 100.792 43.0335C100.485 42.8532 100.994 42.1214 100.315 42.3123C100.22 42.2593 100.092 42.1744 100.092 42.0578C100.167 41.9942 100.018 41.9411 99.9863 41.8775C99.7848 41.8139 99.6894 41.6442 99.5833 41.5169C99.4136 41.0927 98.7879 40.9018 98.8091 40.4246C98.491 40.4776 98.6076 40.0322 98.2682 40.1276C98.0137 39.9367 98.0774 39.9049 97.9713 39.7246C97.9077 39.555 97.9819 39.2686 97.7274 39.258C97.4729 38.8974 97.0274 38.7808 96.8153 38.346C96.4654 38.5687 96.1472 38.8762 96.232 39.3641C96.0624 39.5231 96.2214 40.2655 96.2745 40.2761C96.0942 40.6473 96.3169 41.0503 96.0836 41.4003C96.1048 41.5912 96.073 41.8669 95.9775 42.0578C96.1684 42.5881 95.6063 43.0547 95.9033 43.6168C95.8396 43.7758 95.9245 44.1046 95.6806 44.2107C95.3412 44.0092 95.0761 44.3061 94.7367 44.094C94.6625 44.2107 94.4928 44.2955 94.3337 44.3167C94.0898 44.094 94.1322 43.5956 93.6019 43.7334C93.5595 43.8501 93.3792 44.0198 93.2838 43.8395C93.1459 43.9561 93.008 43.7864 92.849 43.8395C92.7323 43.6698 92.6687 43.2986 92.4142 43.6168C92.3081 43.5743 92.2869 43.7334 92.1914 43.7334C92.0111 43.3092 91.3218 43.7122 91.396 43.0759C91.2688 42.9592 91.343 42.7683 91.3324 42.5987C91.396 42.535 91.5657 42.535 91.5551 42.3759C91.4173 42.2593 91.3112 42.4502 91.1839 42.4502C91.1945 42.6093 91.0567 42.7259 90.8976 42.6729C90.7385 42.6517 90.6219 42.5032 90.4628 42.4502C90.4734 42.2593 90.3037 42.2699 90.2083 42.3759C90.2189 42.5032 90.0068 42.5138 89.9113 42.4502C89.8477 42.429 89.7946 42.3547 89.731 42.3123C89.8689 42.0896 89.4871 42.0154 89.5931 41.7927C89.2008 41.6654 88.7659 41.6336 88.4266 41.3897C88.1933 41.5806 88.172 41.22 88.0236 41.167C88.0024 40.9442 88.2993 41.0609 88.2675 40.8488C88.0978 40.7109 88.066 40.5731 87.8433 40.4882C87.5994 40.5518 87.4403 40.5306 87.2494 40.3716C87.2706 40.1701 87.1752 40.0746 87.3236 39.8731C87.0055 39.7034 87.5145 39.3747 87.1433 39.2792C87.1327 39.1201 87.0373 38.908 86.8464 39.0353C86.7085 39.0565 86.5494 39.0247 86.5601 38.8126C86.3692 38.4944 86.7509 38.3141 86.6237 37.9748C86.7403 37.7733 87.1221 37.8051 87.1752 37.6354C87.2176 37.4127 87.4721 37.5187 87.5781 37.3491C87.4615 37.2748 87.3024 37.19 87.1752 37.2748C86.8994 37.4021 86.6555 37.6884 86.3798 37.4127C86.2101 37.1794 85.9768 37.0627 85.9768 36.7658C86.157 36.7234 86.2631 36.5643 86.3373 36.3946C86.2843 36.3522 86.2631 36.2991 86.1783 36.331C86.1677 36.437 86.0828 36.5855 85.9768 36.4688C86.0298 36.2885 85.8177 36.331 85.7859 36.1719C85.9449 35.9386 85.9131 35.6416 86.1571 35.4507C86.051 35.3129 85.8813 35.1538 85.998 34.9735C86.0934 34.8038 86.1146 34.5811 86.2525 34.475C86.2101 34.2735 86.2737 34.0508 86.5494 34.0402C86.963 33.8387 87.3873 34.019 87.7903 33.7433C88.0766 33.616 88.1933 34.0933 88.4478 33.8175C88.7023 34.0084 88.872 33.6478 88.9887 34.072C89.1689 33.9554 89.3917 33.7963 89.6462 33.8175C89.7416 33.9342 89.7204 34.1675 89.9325 34.1781C89.9431 34.072 90.0386 33.9978 90.1552 34.0402C90.2295 34.1145 90.2507 34.2629 90.3779 34.2948C90.3991 34.2205 90.3249 33.8599 90.5582 34.0402C90.6537 34.5387 91.343 33.6266 91.0355 34.4008C90.993 34.4432 90.94 34.475 90.9612 34.5387C90.9824 34.6129 91.0673 34.5599 91.1203 34.5811C91.2264 33.9766 91.9581 34.4008 91.9581 33.7433C92.3081 33.6903 92.3505 33.3191 92.5732 33.1282C92.5626 32.8949 92.2763 32.7252 92.3823 32.4388C91.746 32.1419 91.4703 31.5586 91.3006 30.9011C90.8764 30.5829 90.2401 30.4238 90.2825 29.8087C90.2825 29.5118 90.0068 29.236 89.8053 29.0876C89.678 28.8861 89.3916 28.6846 89.2856 28.5043C89.4129 28.3982 89.222 28.3452 89.2644 28.2498C89.2856 28.0164 89.2538 27.6771 88.925 27.6665C88.6493 27.6559 88.9038 27.168 88.522 27.1468C88.3841 27.0726 88.2887 26.8923 88.3842 26.712C88.5114 26.659 88.4372 26.5105 88.4266 26.4257C88.2993 26.3514 88.0342 26.4363 88.0236 26.2454C88.0766 25.959 88.0872 25.7469 87.9069 25.5136C87.7903 25.4924 87.5994 25.5878 87.5888 25.4076C87.3554 25.1 88.2251 24.697 87.4721 24.7924C87.4191 24.6758 87.2812 24.7288 87.2494 24.6122C86.9631 24.2092 87.6524 24.1137 87.3661 23.7956C87.207 23.8486 87.0479 24.0501 86.8888 23.8698C86.7615 23.7319 86.8358 23.4032 86.7509 23.2547C87.207 23.2017 86.9843 22.682 87.4403 22.6396C87.4933 22.576 87.5782 22.5335 87.5994 22.4593C87.1433 22.2578 87.1327 22.9789 86.7616 22.9789C86.7085 23.0426 86.6237 22.9896 86.5388 23.0002C86.401 22.8835 86.3586 22.6608 86.4222 22.5017C86.6767 22.4593 86.8252 22.1411 87.0373 22.0245C87.2812 21.9078 87.4297 21.7275 87.4721 21.4836C87.1539 21.1442 86.8994 21.8336 86.5282 21.8018C86.4222 21.9078 86.2843 21.929 86.1676 21.9821C85.9874 21.823 86.1783 21.6639 86.2313 21.5154C86.4222 21.5897 86.3479 21.3563 86.4116 21.2927C86.6343 20.8897 87.4403 21.0912 87.2918 20.4125C87.1646 20.3382 86.9737 20.2216 86.857 20.4125C86.6343 20.667 86.3373 20.9003 85.9874 20.9109C85.8919 20.8155 85.7328 20.8473 85.6904 20.7306C85.6374 20.4867 85.9343 20.4443 86.051 20.2958C86.401 20.2534 86.6449 19.808 87.0267 19.7974C87.0903 19.6277 86.9524 19.511 86.804 19.6171C86.4964 19.9034 86.0086 19.755 85.6798 20.0201C85.5419 20.0307 85.4465 19.914 85.3192 19.9034C85.2556 19.7443 85.2556 19.4686 85.4571 19.4368C85.595 19.4474 85.7328 19.4156 85.8177 19.3201C85.8601 19.2141 85.648 18.8535 85.9343 19.002C85.9343 19.0762 86.0298 19.1186 86.0722 19.1823C86.3161 19.2777 86.3904 18.9808 86.507 18.8429C86.4964 18.7687 86.6131 18.652 86.4646 18.599C86.051 18.652 85.7328 18.9171 85.298 18.9171C85.1283 18.8111 85.298 18.6414 85.298 18.5141C85.5419 18.4187 85.7541 18.3763 85.9131 18.196C86.0298 18.1536 86.1571 18.3126 86.2313 18.1536C86.2207 18.0581 86.2313 17.9521 86.3479 17.9309C86.4752 17.9415 86.6025 18.0581 86.7509 17.9733C86.8676 17.7824 86.7085 17.7293 86.5919 17.6339C86.5494 17.5915 86.4964 17.5385 86.454 17.496C85.8071 17.496 85.2238 18.0157 84.5981 17.7187C84.5026 17.496 84.7572 17.5809 84.8208 17.4642C85.0117 17.2839 85.3935 17.6233 85.5419 17.2415C85.7965 17.4006 85.9449 16.9233 86.1358 17.2415C86.3585 17.2203 86.454 17.1461 86.6767 17.1355C86.8994 16.8915 87.1539 16.7325 87.2176 16.3613C86.8782 16.3507 86.5176 16.0749 86.1995 16.3401C85.9449 16.2446 85.8283 16.4991 85.5844 16.4461C85.3298 16.7431 84.9268 16.7006 84.5238 16.7006C84.4708 16.637 84.3542 16.5628 84.4602 16.4779C84.7359 16.2552 85.1814 16.4779 85.4041 16.1174C85.6374 15.7992 86.4964 16.4037 86.2843 15.6825C85.8177 15.6083 85.2238 15.3856 84.789 15.6825C84.5344 15.6931 84.1951 15.5447 83.9936 15.7462C83.7603 15.5659 83.3467 15.9371 83.23 15.5447C83.0921 15.2053 83.4527 15.2053 83.5906 15.0674C83.8981 15.2477 84.1633 15.0462 84.4708 15.1099C84.5344 15.0568 84.5451 14.9932 84.5344 14.9296C84.0042 14.516 83.2618 14.7705 82.6785 14.7069C82.6997 14.4099 82.2437 14.569 82.3604 14.272C82.5407 14.2614 82.7528 14.1024 82.9012 14.272C83.2406 14.219 83.4951 14.3463 83.8133 14.3145C84.0572 14.4417 84.2693 14.3357 84.5132 14.4947C85.1496 14.272 84.492 15.025 85.0541 14.9614C85.5313 14.8235 85.8813 15.078 86.3692 15.1205C86.4222 14.8977 86.6555 15.0674 86.7934 15.0462C86.6873 14.9084 87.0267 14.4947 86.7297 14.569C86.6025 14.6114 86.5388 14.8023 86.3904 14.7917C86.3267 14.6962 86.3798 14.5584 86.2525 14.5054C86.1146 14.4947 86.1252 14.6326 85.998 14.6856C85.8601 14.6962 85.7646 14.5796 85.6374 14.569C85.3404 14.219 86.2313 14.2296 85.7116 13.9539C85.7116 13.5933 84.895 13.9645 85.0965 13.3706C85.2344 13.0736 85.8283 13.5403 85.595 12.9676C85.298 12.554 84.842 12.8509 84.4284 12.7131C84.3542 12.5328 83.9936 12.6388 83.8875 12.4691C83.7603 12.2358 83.5906 12.4585 83.4527 12.2783C83.2618 12.4691 83.0179 12.2252 82.8376 12.2783C82.5619 11.9283 81.9574 12.2358 81.6604 11.8753C81.2256 11.6313 80.7696 11.7586 80.2817 11.6313C80.2287 11.4935 80.0272 11.4086 80.1015 11.2283C80.2393 11.1223 80.4938 11.2389 80.6847 11.2495C81.0241 11.3556 81.4059 11.1753 81.6604 11.5465C82.1907 11.6419 82.774 11.6101 83.23 11.8646C83.686 11.4723 84.0042 12.2889 84.5344 12.1616C84.7253 12.2889 85.0011 12.2146 85.2344 12.2358C85.298 12.1722 85.2556 12.0555 85.2768 11.9813C84.9374 11.5571 84.3011 11.5571 83.8557 11.2177C83.5163 11.1753 83.1982 11.1541 82.9437 10.9632C82.7422 10.8571 82.477 10.8571 82.2543 10.8041C82.074 10.5814 81.7241 10.9632 81.6604 10.6238C81.3104 10.645 81.1089 10.5496 80.865 10.3057C80.6105 10.2526 80.3878 10.1254 80.1015 10.1254C79.9424 10.1996 79.7621 10.189 79.5818 10.2314C79.5818 10.1254 79.5288 10.0511 79.4439 9.98752C78.8712 9.98752 79.0833 9.3406 78.7864 9.07547C78.8924 8.84215 78.9879 9.07547 79.1258 9.07547C79.2848 9.27697 79.656 9.09668 79.8151 9.37241C79.9742 9.37241 80.0484 9.57391 80.1863 9.61633C80.4938 9.77541 80.8862 9.77541 81.162 10.0193C81.565 10.1148 81.9362 10.2208 82.2543 10.4966C82.4452 10.2208 82.6679 10.5496 82.9012 10.4966C83.3148 10.7299 83.8345 10.7511 84.1739 11.0374C84.3648 10.942 84.8526 11.2389 84.8314 10.9314C84.7253 10.8253 84.7678 10.5602 84.5344 10.6132C84.2799 10.1784 83.6542 10.4435 83.4845 9.9557C83.1452 10.0724 82.9331 9.67997 82.5725 9.77541C82.4664 9.61633 82.2649 9.7542 82.1377 9.65875C81.8619 9.22394 81.2999 9.42544 81.0771 8.9376C80.6529 9.05426 80.4939 8.40734 80.1015 8.77852C79.8045 8.70428 79.5606 8.48157 79.1894 8.55581C79.0515 8.66186 79.0515 8.91639 78.8288 8.89518C78.7228 8.84215 78.7546 8.61944 78.5743 8.64065C78.5319 8.22705 78.1183 8.04676 77.9274 7.7286C77.9698 7.65436 78.0546 7.68618 78.1077 7.62255C78.4258 7.69678 79.0515 7.44226 79.2318 7.84526C79.5394 7.9407 79.7303 8.19523 80.0696 8.09978C80.2711 8.23765 80.5681 8.25886 80.7696 8.3437C81.0559 8.57702 81.3529 8.48157 81.6498 8.71489C81.7559 8.67247 81.8937 8.58762 82.0104 8.67247C82.1483 8.89518 82.4134 8.83154 82.5513 9.03304C82.8482 9.16031 83.1876 9.19212 83.4315 9.43604C83.686 9.37241 83.7921 9.67997 84.0466 9.73299C84.3329 9.7436 84.5344 10.0299 84.842 9.87086C84.5451 9.58452 84.2375 9.08607 83.6754 9.17091C83.4951 9.12849 83.58 8.83154 83.3361 8.88457C83.1133 8.75731 82.8588 8.31189 82.5407 8.36491C81.8089 8.61944 81.6286 7.46347 80.865 7.78163C80.5151 7.5271 80.2923 7.1241 79.7833 7.1241C79.497 6.59384 78.7652 7.02865 78.5743 6.46657C78.1077 6.5196 78.1713 5.99994 77.7789 5.88329C77.8001 5.63937 77.4395 5.64997 77.5244 5.38484C77.4289 5.33181 77.4607 5.24697 77.4607 5.16213C77.5562 5.11971 77.5986 5.06668 77.7153 5.11971C77.8425 5.27879 78.2455 4.86518 78.2561 5.25758C78.4364 5.3106 78.6485 5.42726 78.691 5.62876C78.9667 5.68179 79.1788 5.97873 79.4545 5.9151C79.6136 5.96813 79.8151 5.96813 79.9742 5.9151C79.6348 5.66058 79.3061 5.24697 78.8819 5.15152C78.7652 5.08789 78.5425 4.98184 78.5637 4.897C78.394 4.7061 78.0334 4.62126 77.9698 4.35613C77.6092 4.04858 77.4395 3.56074 77.0259 3.26379C77.1002 3.07289 76.7078 2.79716 77.1002 2.74413C77.2699 2.76534 77.3759 2.72292 77.5032 2.74413C77.132 2.4684 77.0896 2.02298 76.7078 1.8745C76.5063 1.77905 76.6441 1.45029 76.4532 1.35484C76.4639 1.24879 76.3896 0.951845 76.6335 0.951845C76.8775 1.0579 77.2699 0.951845 77.3547 1.24879" fill="#1F4FA2"/>
<path d="M82.6043 13.0736C82.6149 13.1479 82.6043 13.2115 82.5301 13.2539C82.1589 13.3706 81.8301 12.8827 81.5119 13.2539C81.3529 13.2433 81.2256 13.1585 81.1089 13.0524C81.0135 12.6388 81.4059 12.9358 81.5862 12.7979C81.9043 12.7555 82.2543 12.66 82.424 13.0206C82.4982 13.01 82.5089 13.1373 82.6043 13.0842" fill="#1F4FA2"/>
<path d="M84.6829 13.3388C84.789 13.466 84.6299 13.5721 84.5451 13.6781C84.3542 13.5721 84.0042 13.869 83.8875 13.5615C83.7603 13.6887 83.686 13.466 83.5694 13.4872C83.3785 13.4872 83.1664 13.5085 83.0179 13.4236C82.9543 13.4024 82.9967 13.2645 82.9755 13.2009C83.2724 13.1585 83.6118 13.2539 83.93 13.2645C84.0042 13.1903 84.0042 13.0206 84.1845 13.0842C84.3117 13.2433 84.4708 13.3388 84.6829 13.3388Z" fill="#1F4FA2"/>
<path d="M103.857 26.0651C103.688 26.0651 103.603 25.906 103.539 25.8105C103.634 25.503 103.656 25.9484 103.825 25.8742C103.815 25.9484 103.984 25.9908 103.868 26.0651" fill="#1F4FA2"/>
<path d="M97.4729 29.3421C97.3138 29.1724 97.2289 29.5012 97.0699 29.3421C97.1971 29.1406 97.6213 29.3209 97.6107 28.9709C97.6319 29.13 97.6001 29.2573 97.4729 29.3421Z" fill="#1F4FA2"/>
<path d="M96.932 29.8405C96.8259 29.8299 96.8259 29.6497 96.7729 29.5542C96.8471 29.5542 96.9108 29.5436 96.9638 29.48C96.9532 29.6072 97.1335 29.7663 96.9214 29.8405" fill="#1F4FA2"/>
</g>
<defs>
<clipPath id="clip0_4326_4212">
<rect width="198" height="99.1591" fill="white" transform="translate(0 0.909424)"/>
</clipPath>
</defs>
</svg>
