<?xml version="1.0" encoding="utf-8"?>
<!-- Generator: Adobe Illustrator 19.2.1, SVG Export Plug-In . SVG Version: 6.00 Build 0)  -->
<svg version="1.1" id="layer" xmlns="http://www.w3.org/2000/svg" xmlns:xlink="http://www.w3.org/1999/xlink" x="0px" y="0px"
	 viewBox="0 0 652 652" style="enable-background:new 0 0 652 652;" xml:space="preserve">
<style type="text/css">
	.st0{fill:#2E5C99;}
	.st1{fill:url(#SVGID_1_);}
	.st2{fill:#CE210F;}
</style>
<g>
	<g>
		<g>
			<path class="st0" d="M26.1,371.5c1.3-0.7,1.9-2.3,1.9-3.6v-33.5c0-1.4-0.6-3-1.9-3.7h16c7.1,0,14.1,2.9,14.1,11
				c0,4.3-3.7,7.7-7.8,8.4c5.8-0.1,11.4,3.5,11.4,9.9c0,9.2-9.6,11.5-16.4,11.5L26.1,371.5L26.1,371.5z M39,334.1
				c-0.7,0-1.3,0-2.6,0.2v14.3H38c4.9,0,9.6-1.5,9.6-7.2C47.6,335.8,43.9,334.1,39,334.1z M40,352.3c-1.2,0-2.2,0-3.6,0.1v15.1
				c1.8,0.3,3.7,0.5,5.5,0.5c4.1,0,8.3-1.8,8.3-8.1C50.1,353.7,45.2,352.3,40,352.3z M75.6,334.1c-0.7,0-1.4,0.1-2.1,0.2v14.1
				c0.7,0,1.3,0.1,1.9,0.1c4.6,0,8-2.5,8-7.5C83.4,335.9,80.1,334.1,75.6,334.1z M96.2,371.7c-1.6,0-3.3,0.1-4.8-0.4
				c-2.8-0.8-6.6-7.1-8.1-9.5c-2.4-4-4.4-9.5-9.8-9.6v15.6c0,1.4,0.6,3,1.9,3.6H63.2c1.3-0.7,1.9-2.2,1.9-3.6v-33.5
				c0-1.4-0.6-3-1.9-3.7H78c6.4,0,14.5,2.5,14.5,10.2c0,6.5-5.4,9.8-11.3,9.8c8.5,0,13.5,20,22.9,20.1
				C101.5,371.4,98.8,371.7,96.2,371.7z M104.6,371.5c1-0.5,2.1-1.8,2.1-3.6v-33.5c0-1.9-1.1-3.2-2.1-3.7h12.6
				c-1.1,0.5-2.1,1.8-2.1,3.7v33.5c0,1.8,1,3.2,2.1,3.6H104.6z M131.9,371.5c1.3-0.6,2-2.2,2-3.6v-32.5h-9c-2.1,0-4.6,0.3-6.4,1.3
				l2.8-6h30c2.4,0,4.9-0.1,7.3-0.6c-1.1,3.1-4.5,5.4-6.5,5.4c-2.4-0.1-6.3-0.2-9.7-0.2v32.6c0,1.4,0.7,3,2,3.6L131.9,371.5
				L131.9,371.5z M160,371.5c1-0.5,2.1-1.8,2.1-3.6v-33.5c0-1.9-1.1-3.2-2.1-3.7h12.6c-1.1,0.5-2.1,1.8-2.1,3.7v33.5
				c0,1.8,1,3.2,2.1,3.6H160z M197.1,362.2c0-7.8-18.3-9.5-18.3-22c0-7.7,7.3-10.2,13.7-10.2c2.9,0,7,0.4,9.7,1.6l0.5,7.6
				c-1.6-3.4-5.7-5.8-9.4-5.8c-3,0-6.1,1.5-6.1,4.9c0,8.1,18.6,10,18.6,21.8c0,8.5-7.5,12.1-15,12.1c-3.9,0-9.3-0.8-12.6-3
				c-0.2-1.4-0.3-2.8-0.3-4.2c0-1.7,0.1-3.3,0.4-5c2.1,4.7,6.4,8.4,11.7,8.4C194.1,368.4,197.1,366.7,197.1,362.2z M236.4,371.5
				c0.9-0.4,1.8-1.8,1.8-3.6v-15.2c-2.2-0.2-5.2-0.4-8.7-0.4c-3.5,0-6.6,0.1-8.8,0.4v15.2c0,1.8,0.9,3.2,1.8,3.6h-12.1
				c0.9-0.4,1.9-1.8,1.9-3.6v-33.5c0-1.9-1-3.2-1.9-3.7h12.1c-0.9,0.5-1.8,1.8-1.8,3.7V348c2.2,0.2,5.3,0.4,8.8,0.4
				c3.4,0,6.5-0.1,8.7-0.4v-13.7c0-1.9-0.9-3.2-1.8-3.7h12.1c-0.9,0.5-1.8,1.8-1.8,3.7v33.5c0,1.8,0.9,3.2,1.8,3.6H236.4z"/>
			<path class="st0" d="M293.3,371.5c0.4-0.4,0.7-0.7,0.7-1.4c0-0.2-0.1-0.7-0.4-1.4c0,0-3.4-9.1-3.7-10.2c-2.5-0.3-5.1-0.3-7.7-0.3
				c-2.4,0-4.9,0.1-7.3,0.3c-0.3,0.9-3.9,10-3.9,10c-0.5,1.2-0.7,1.6-0.7,1.9c0,0.6,0.5,0.9,1,1.1H263c1.2-0.6,2.3-1.9,2.8-3.1
				l13.5-34.9c0.1-0.1,0.1-0.3,0.1-0.5c0-1-0.6-1.9-1.5-2.3h10.6l13.7,37.7c0.6,1.5,1.8,2.6,2.8,3.2L293.3,371.5L293.3,371.5z
				 M282.7,338.4l-6.2,15.9c1.8,0.2,3.8,0.3,5.6,0.3c2.1,0,4.3,0,6.3-0.3L282.7,338.4z M307.1,371.5c1-0.5,2.1-1.8,2.1-3.6v-33.5
				c0-1.9-1-3.2-2.1-3.7h12.6c-1.1,0.5-2.1,1.8-2.1,3.7v33.5c0,1.8,1,3.2,2.1,3.6H307.1z M338.8,334.1c-0.7,0-1.3,0.1-2,0.2v14.1
				c0.7,0,1.3,0.1,1.9,0.1c4.6,0,8-2.5,8-7.5C346.7,335.9,343.3,334.1,338.8,334.1z M360.4,371.7c-1.6,0-3.3,0.1-4.8-0.4
				c-2.8-0.8-6.6-7.1-8.1-9.5c-2.4-4-5.4-9.6-10.7-9.6v15.6c0,1.4,0.6,3,1.9,3.6h-12.3c1.3-0.7,1.9-2.2,1.9-3.6v-33.5
				c0-1.4-0.6-3-1.9-3.7h14.8c6.4,0,14.4,2.5,14.4,10.2c0,6.5-5.9,9.8-10.3,9.8c8.8,0.5,14.1,20.1,22.9,20.1
				C365.7,371.4,363.1,371.7,360.4,371.7z M411.4,334.6L399,371.5c-1,0-2-0.4-2.6-0.8c-1.2-1.2-3.2-6.1-3.9-7.9l-5.6-14.2l-8.1,22.9
				H375l-13.9-37c-0.6-1.6-1.6-3.1-3.1-3.9H370c-0.5,0.4-0.9,0.8-0.9,1.7c0,0.4,0.2,1,0.4,1.4l9.1,24.5l9.6-27.6l10.6,26.6l8-24.1
				c0.2-0.7,0.3-0.9,0.3-1.3c0-0.5-0.2-0.8-0.7-1.2h8C413,331.4,411.9,333.1,411.4,334.6z M426.3,338.4l-6.2,15.9
				c1.9,0.2,3.8,0.3,5.6,0.3c2.1,0,4.3,0,6.3-0.3L426.3,338.4z M436.9,371.5c0.4-0.4,0.7-0.7,0.7-1.4c0-0.2-0.1-0.7-0.4-1.4
				c0,0-3.3-9.1-3.7-10.2c-2.5-0.3-5.2-0.3-7.7-0.3c-2.4,0-4.9,0.1-7.3,0.3c-0.4,0.9-3.9,10-3.9,10c-0.5,1.2-0.7,1.6-0.7,1.9
				c0,0.6,0.5,0.9,0.9,1.1h-8.2c1.2-0.6,2.3-1.9,2.8-3.1l13.6-34.9c0-0.1,0.1-0.3,0.1-0.5c0-1-0.6-1.9-1.5-2.3h10.6l13.7,37.7
				c0.6,1.5,1.8,2.6,2.8,3.2L436.9,371.5L436.9,371.5z M473.9,334.9l-9.7,17v16c0,1.3,0.5,3,1.8,3.6h-12c1.2-0.7,1.8-2.4,1.8-3.6
				v-16l-8.4-13.5c-0.8-1.3-4.3-7.1-8.5-7.1c1.2-0.4,4.7-1.1,7.1-1.1c4,0,5.9,0.4,8.3,4.2l7.8,12.3c0.7-1.2,6.8-11.9,6.8-11.9
				c0.7-1.3,1.3-2.2,1.3-2.7c0-0.6-0.3-1-0.9-1.4h8.7C476.2,331.4,474.8,333.3,473.9,334.9z M496.5,362.2c0-7.8-18.3-9.5-18.3-22
				c0-7.7,7.3-10.2,13.7-10.2c2.9,0,7,0.4,9.6,1.6l0.5,7.6c-1.6-3.4-5.7-5.8-9.4-5.8c-3,0-6.1,1.5-6.1,4.9c0,8.1,18.6,10,18.6,21.8
				c0,8.5-7.4,12.1-15,12.1c-3.9,0-9.3-0.8-12.6-3c-0.2-1.4-0.3-2.8-0.3-4.2c0-1.7,0.2-3.3,0.4-5c2.1,4.7,6.4,8.4,11.7,8.4
				C493.5,368.4,496.5,366.7,496.5,362.2z"/>
		</g>
	</g>
	
		<linearGradient id="SVGID_1_" gradientUnits="userSpaceOnUse" x1="600.5634" y1="360.2899" x2="569.8984" y2="307.177" gradientTransform="matrix(1 0 0 -1 0 654)">
		<stop  offset="0" style="stop-color:#E6EBEF"/>
		<stop  offset="7.640000e-002" style="stop-color:#BBCEE5"/>
		<stop  offset="0.1854" style="stop-color:#85A9D8"/>
		<stop  offset="0.2796" style="stop-color:#5D8FCF"/>
		<stop  offset="0.3543" style="stop-color:#457EC9"/>
		<stop  offset="0.4" style="stop-color:#3C78C7"/>
		<stop  offset="0.9" style="stop-color:#2E5C99"/>
	</linearGradient>
	<path class="st1" d="M609.3,302c-6.9,6.8-21.8,12.7-29.1,15.4c-10,3.8-14.4,5.1-20,6.9c-6.3,2.1-19,5.9-19,5.9
		c26.3,7.8,44.8,10.2,44.8,10.2s8.6-2.7,22.3-10c7.4-3.8,11-6.3,13.6-8.7c1-0.9,3.4-3.4,4.1-6.7c0-0.2,0.2-0.9,0.2-1.5
		c0,0,0-0.4,0-0.8c0-0.4-0.1-0.7-0.1-0.7s-0.1-0.8-0.3-1.3c-0.2-0.5-1-2.2-2.4-3.3c-0.9-0.7-2.5-2.6-8.2-4.6
		c-1.9-0.7-5.1-1.3-5.1-1.3L609.3,302z"/>
	<path class="st2" d="M626.1,313.4c0,0,0-0.7-0.2-1.3c-0.1-0.6-0.4-1.1-0.8-1.6c-0.4-0.7-1.1-1.4-1.9-2.3c-0.7-0.6-1.4-1.2-2.3-1.8
		c-3.6-2.3-8.2-3.7-12.3-4.2c-6.3-0.8-13.6-0.7-14.3-0.7c-2.3,0-17.5,0.1-21.3,0.2c-17.3,0.4-38.4,0.4-43.9,0.4
		c-57.1,0.3-82-1-109.7-6.5c-23.5-4.7-36.6-9.1-36.6-9.1c20.8-0.7,141.9-5.7,164-6.3c14.5-0.4,24.7-0.5,33,0
		c4.2,0.2,8.1,0.6,13.1,1.4c4.4,0.8,8.4,2,10.8,2.9c4.9,1.8,9.1,4.5,11.1,7.2c0,0,0.6,0.6,1.4,1.7c0.9,1.3,2,2.9,2.4,3.5
		c3,4.5,4.4,7.4,4.9,8.4c0.5,1,1,2.1,1.5,3.2c0.4,1.1,0.6,1.7,0.8,2.1c0.3,1.1,0.4,2.1,0.4,2.4L626.1,313.4z"/>
</g>
</svg>
