<svg width="328" height="73" viewBox="0 0 328 73" fill="none" xmlns="http://www.w3.org/2000/svg">
<g clip-path="url(#clip0_3817_8697)">
<path d="M202.114 7.29238C199.211 11.6136 196.022 17.0008 192.512 23.9131C188.978 30.8664 185.788 38.0001 183.812 43.4201H195.603C196.325 41.157 197.202 38.8775 198.129 36.7292H217.505C218.44 38.8693 219.276 41.0176 220.038 43.4201H231.83C229.73 37.9837 226.68 30.9074 223.154 23.9541C219.637 17.0336 216.488 11.6136 213.528 7.29238H202.106H202.114ZM207.813 15.8282C210.248 20.1822 212.429 24.6019 214.856 30.0382H200.786C203.155 24.7085 205.345 20.2888 207.813 15.8282ZM117.592 7.29238C117.018 12.8353 116.723 19.4361 116.723 25.3562C116.723 31.2272 117.018 37.1391 117.6 43.4201H128.776C128.292 38.7463 128.063 34.7366 127.899 30.0054H139.141C139.961 30.9074 141.305 32.6293 142.716 34.8596C144.356 37.4425 145.627 39.9844 147.037 43.4119H159.533C157.893 40.2796 156.114 37.4589 153.449 33.6953C151.924 31.547 150.481 29.8004 149.161 28.4885C153.851 26.8404 156.745 22.8881 156.745 18.0749C156.745 15.328 155.761 12.7206 154.039 10.9248C151.604 8.40753 147.816 7.28418 141.756 7.28418H117.6L117.592 7.29238ZM128.235 14.0571H138.066C141.683 14.0571 143.445 14.4999 144.569 15.697C145.241 16.3694 145.635 17.4436 145.635 18.5751C145.635 20.5266 144.626 22.2486 142.863 23.3309H127.882C127.882 20.6578 128.005 17.6158 128.227 14.0653M72.9202 7.30058C72.3872 13.0239 72.0428 19.5099 72.0428 25.3808C72.0428 31.2354 72.4364 37.6557 72.9202 43.4283H107.4C107.219 41.0176 107.08 38.8201 106.949 36.2208H83.4813C83.3009 33.5149 83.2189 31.0222 83.2107 28.5869H104.858V21.773H83.2107C83.2107 19.7887 83.2763 16.8942 83.4813 14.4917H106.924C107.039 11.958 107.178 9.82607 107.408 7.29238H72.9202V7.30058ZM23.714 7.30058C23.14 12.696 22.8366 19.5017 22.8366 25.3644C22.8366 31.2354 23.1072 36.9833 23.714 43.4283H45.0167C52.5522 43.4283 57.1932 42.5509 60.0795 40.583C62.3016 39.0579 63.6792 36.0322 63.6792 32.6785C63.6792 28.7345 61.4242 25.5776 57.4638 23.9623C60.0959 22.4863 61.7686 19.6329 61.7686 16.558C61.7686 13.7045 60.9487 11.7284 59.0955 10.1623C55.9879 7.52197 50.2973 7.30058 44.2378 7.30058H23.7058H23.714ZM34.349 14.1391H43.8032C47.6242 14.1391 48.8952 14.4261 49.9857 15.533C50.5433 16.0988 50.8795 17.0992 50.8795 18.2061C50.8795 19.7313 50.2645 21.0514 49.1412 21.9206H34.0128C34.0456 19.2147 34.1604 16.7056 34.349 14.1473M34.0046 28.4639H47.6078C49.5757 28.4639 50.5761 28.7345 51.4617 29.4807C52.2898 30.1858 52.667 31.0632 52.667 32.2439C52.667 33.4903 52.3062 34.4578 51.5682 35.1876C50.5105 36.1798 49.0182 36.6062 46.4107 36.6062H34.3408C34.103 33.7281 34.0128 30.8336 33.9964 28.4557M167.725 7.29238C167.151 12.4664 166.831 19.2803 166.839 25.6596C166.855 31.7766 167.093 37.6639 167.725 43.4201H177.343C177.991 37.6967 178.204 31.793 178.22 25.6596C178.237 19.2885 177.876 12.4172 177.351 7.29238H167.725ZM0.877951 7.29238C0.312174 12.4664 -0.0158122 19.2803 0.000587137 25.6596C0.0169865 31.7766 0.254777 37.6639 0.877951 43.4201H10.5044C11.1521 37.6967 11.3653 31.793 11.3817 25.6596C11.3981 19.2885 11.0373 12.4172 10.5044 7.29238H0.877951Z" fill="url(#paint0_linear_3817_8697)"/>
<path d="M248.836 55.2011L231.854 72.3466C290.81 72.3466 304.716 58.4892 312.826 39.6218L319.64 21.8613C299.772 22.4353 269.802 34.1444 248.844 55.2093" fill="url(#paint1_linear_3817_8697)"/>
<path d="M288.44 15.1061L269.326 34.4655C287.472 21.4363 305.569 13.5728 323.592 11.5393L327.987 0.0761719C301.297 0.0761719 297.664 5.91433 288.44 15.1061Z" fill="url(#paint2_linear_3817_8697)"/>
</g>
<defs>
<linearGradient id="paint0_linear_3817_8697" x1="114.079" y1="73.5971" x2="114.079" y2="10.4925" gradientUnits="userSpaceOnUse">
<stop stop-color="#A61C22"/>
<stop offset="0.8" stop-color="#DA1C2D"/>
<stop offset="1" stop-color="#DA1C2D"/>
</linearGradient>
<linearGradient id="paint1_linear_3817_8697" x1="234.128" y1="76.8972" x2="321.826" y2="26.2643" gradientUnits="userSpaceOnUse">
<stop stop-color="#A61C22"/>
<stop offset="0.5" stop-color="#DC1C2E"/>
<stop offset="1" stop-color="#DC1C2E"/>
</linearGradient>
<linearGradient id="paint2_linear_3817_8697" x1="265.142" y1="33.0865" x2="324.031" y2="-0.91341" gradientUnits="userSpaceOnUse">
<stop stop-color="#ED7417"/>
<stop offset="0.85" stop-color="#FACD08"/>
<stop offset="1" stop-color="#FACD08"/>
</linearGradient>
<clipPath id="clip0_3817_8697">
<rect width="327.987" height="72.2705" fill="white" transform="translate(0 0.0761719)"/>
</clipPath>
</defs>
</svg>
