<svg>
<g>
	<path fill-rule="evenodd" clip-rule="evenodd" fill="#E03A3E" d="M173.858,28.321c-0.499,0.52-2.25,3.169-2.25,6.452
		c0,0.786,0.014,19.606,0,20.281c-0.028,1.432-0.902,3.472-1.622,4.192c-0.51,0.508-3.63,3.346-3.907,3.644l1.77,0.028
		c0.575-0.552,6.589-5.88,7.218-6.597c0.818-0.931,2.767-3.286,2.767-6.986c0-0.871,0.01-18.701,0.01-19.488
		c0-2.924,1.362-4.546,2.064-5.329c0.72-0.804,3.089-2.781,3.51-3.227l-1.856-0.055C181.111,21.685,174.476,27.675,173.858,28.321
		L173.858,28.321z"/>
	<path fill-rule="evenodd" clip-rule="evenodd" fill="#E03A3E" d="M158.973,102.068l7.362,6.432h4.929
		c5.014,0,9.595-2.146,12.617-5.168c3.026-3.027,4.14-7.088,4.14-10.891c0-2.766,0-10.037,0-10.541c0-3.543-2.226-5.604-2.844-6.223
		c-0.337-0.336-2.482-2.358-2.482-2.358v8.088c0,0,2.363,2.439,2.83,2.934c2.183,2.32,2.159,6.545-4.754,13.285
		c-1.211,1.18-4.665,4.441-9.419,4.441C170.674,102.068,158.973,102.068,158.973,102.068L158.973,102.068z"/>
	<path fill-rule="evenodd" clip-rule="evenodd" fill="#E03A3E" d="M179.451,58.803c-0.822,0.868-1.608,2.991-1.608,4.862
		c0,1.04,0,3.993,0,3.993s3.251,0,4.048,0c1.573,0,3.651-1.433,4.101-2.191c0.027-0.056,0-3.96,0-3.96s1.039,1.489,2.162,2.274
		c0.422-0.533,4.107-5.002,7.193-5.027c5.153-0.042,3.988,6.459,1.883,8.538c-0.683,0.67-3.726,3.461-4.667,4.357
		c-2.433,2.316-6.6,1.207-6.6-4.779c0,0-4.469,4.244-5.14,4.807c-0.674,0.561-2.98,3.005-2.98,3.005s0,9.505,0,10.517
		c0,5.045-1.66,6.736-3.036,8.254c-0.534,0.588-6.215,5.771-6.973,6.332l-1.857,0.043c0,0,3.325-3.023,3.991-3.715
		c0.759-0.787,1.641-2.383,1.641-5.045c0-0.674-0.085-16.528-0.085-16.528s-24.714,0-25.837,0c-8.987,0-10.908-9.973-10.964-12.641
		c-0.014-0.786,0-8.752,0-9.988c0-1.64-1.049-4.406-2.724-5.259h2.534c0.292,0.123,1.885,0.766,1.885,6.88
		c0,0-0.108,7.117-0.108,7.496c0,3.1,2.465,6.656,6.027,6.656c0.73,0,29.244-0.028,29.244-0.028
		c0.028-0.787,0.814-3.771,2.219-5.347c0.797-0.889,7.07-6.628,7.786-7.18l1.857-0.021
		C183.162,55.367,180.129,58.087,179.451,58.803L179.451,58.803z M189.052,64.792c0,0,1.693,2.247,2.5,2.893
		c3.149,2.528,4.645-0.186,2.531-3.09C193.247,63.451,190.007,63.781,189.052,64.792L189.052,64.792z"/>
	<path fill-rule="evenodd" clip-rule="evenodd" fill="#E03A3E" d="M157.695,83.633c0,1.412-4.511,5.16-4.774,5.424
		c-0.327-1.52-1.464-3.201-4.827-6.564l4.936-4.936C156.337,80.867,157.695,81.573,157.695,83.633L157.695,83.633z"/>
	<path fill-rule="evenodd" clip-rule="evenodd" fill="#E03A3E" d="M166.255,27.053c0.99,0.99,3.12,3.676,1.843,4.956
		c-1.131,1.131-2.882,2.922-2.882,2.922c-0.088-0.646-1.728-2.201-1.728-2.201s0.014,4.767,0,5.357
		c-0.056,2.152-0.867,2.766-0.867,2.766s3.978,3.946,3.978,9.016c0,2.458,0.01,4.719,0.01,5.206c0,1.039-0.263,1.843-0.985,2.64
		c-0.358,0.396-4.045,4.1-4.605,4.605c-1.068,0.962-2.191,1.124-3.034,1.124c-0.59,0-13.316,0-13.709,0
		c-2.16,0-4.381-1.685-4.381-3.37c0-0.422,0.027-5.084,0.027-5.084c0.703,0.815,1.418,1.766,3.146,1.742
		c1.348-0.021,2.767-1.081,3.146-1.46c0.393-0.397,10.37-10.827,10.37-10.827s-4.673-4.332-7.751-6.39
		c-1.502-1.007-3.497,0.264-3.798,1.587c-0.944,4.15,0,10.374,0,10.374s-3.051-3.043-3.785-3.776
		c-1.523-1.528-1.468-4.982,0.348-6.797c0.288-0.288,3.054-3.416,6.568-3.416c0.562,0,4.852,0,5.473,0
		c3.672,0,7.689,3.658,7.689,3.658s0.59-0.646,0.59-1.271c0-1.882-0.071-6.958-0.071-6.958c-2.763-2.763-3.138-5.614-1.815-6.937
		c2.473-2.471,3.371-3.342,3.371-3.342S163.373,24.174,166.255,27.053L166.255,27.053z M149.056,54.597
		c-1.352,1.415-1.586,1.77-2.85,2.527c0.112,0,14.958,0,15.439,0c4.185,0,3.353-2.597,2.602-3.907
		c-1.537-2.686-6.396-7.677-6.396-7.677S149.337,54.298,149.056,54.597L149.056,54.597z"/>
	<path fill-rule="evenodd" clip-rule="evenodd" fill="#E03A3E" d="M131.451,68.65h-2.535c0,0,2.724,1.496,2.724,5.354
		c0,1.017,0,11.48,0,12.322c0,8.018,6.614,15.432,14.65,15.432c1.352,0,5.813,0,6.712,0c4.03,0,5.445-0.975,7.881-3.137
		c0.893-0.795,2.054-2.098,2.479-2.57c1.404-1.572,2.899-2.844,2.899-6.973c0-1.012,0-3.473,0-4.033
		c0-3.486-2.018-4.936-2.993-5.912c-0.625-0.625-2.342-2.265-2.342-2.265v8.261c0,0,1.691,1.801,2.436,2.387
		c3.486,2.752,0.713,7.531-2.521,7.531c-0.646,0-13.842,0.004-14.741,0.027c-5.427,0.135-12.765-4.707-12.765-12.848
		c0-1.096,0-5.986,0-6.695C133.335,68.65,131.451,68.65,131.451,68.65L131.451,68.65z"/>
	<path fill-rule="evenodd" clip-rule="evenodd" fill="#E03A3E" d="M147.605,83.654c0,1.408-4.511,5.16-4.773,5.424
		c-0.323-1.52-1.464-3.201-4.827-6.564l4.936-4.936C146.251,80.889,147.605,81.59,147.605,83.654L147.605,83.654z"/>
	<path fill-rule="evenodd" clip-rule="evenodd" fill="#E03A3E" d="M95.997,138.455c-0.804,0-7.008-0.01-7.895-0.01
		c-2.49,0-2.3-2.068-2.518-3.834v-11.33c0,0,1.728-0.041,3.686-0.041c2.188,0,4.912-0.324,7.562,1.176c0,0-1.906-4.596-7.576-4.596
		h-3.672c0,0,0-0.652,0-2.227v-1.402c0,0,0-3.164-0.772-4.098c0,0,4.883,0.018,5.216,0.018c4.515,0.004,8.005-0.066,11.634,2.352
		c0,0-0.695-5.975-9.415-5.975c-5.03,0-16.321,0-17.034,0c0,0,2.957,2.531,2.875,7.686l0.082,20.643
		c0,5.182,2.074,5.324,2.074,5.324c0.201,0,1.25,0,5.817,0c0.766,0,1.689,0,2.696,0c2.465,0,5.673,0,8.274,0
		c3.805,0,5.129-2.721,5.129-4.193l0.057-1.98C102.218,135.967,101.01,138.455,95.997,138.455L95.997,138.455z"/>
	<path fill-rule="evenodd" clip-rule="evenodd" fill="#E03A3E" d="M140.687,136.711v-14.439c0-5.604-4.578-7.092-7.987-7.092
		c-4.514,0-5.866,3.771-6.441,5.066c-1.007-3.516-4.525-5.107-7.411-5.107c-5.452,0-6.835,5.191-6.835,5.191
		s-0.129-5.014-4.507-5.014l-4.29,0.01c0,0,2.485,1.023,2.485,5.355l-0.007,16.031c0,5.295,2.134,5.387,2.134,5.387h7.071
		c-0.182-0.092-2.714-2.002-2.714-5.432v-14.221c0.088-0.633,1.156-2.781,4.206-2.781c1.727,0,3.627,1.801,3.584,3.826
		l-0.007,13.215c0,5.371,2.107,5.385,2.107,5.385h7.098c0,0-2.714-1.91-2.714-5.43l-0.021-14.227c0.267-0.793,1.2-2.725,3.879-2.725
		c2.134,0,3.922,1.803,3.879,3.828c0,0-0.014,12.063-0.007,13.182c0.032,5.406,2.106,5.357,2.106,5.357
		c3.697,0,7.099,0.014,7.099,0.014S140.687,140.221,140.687,136.711L140.687,136.711z"/>
	<path fill-rule="evenodd" clip-rule="evenodd" fill="#E03A3E" d="M153.09,136.703c0,3.561,2.724,5.389,2.724,5.389
		s-3.376-0.014-7.07-0.014c0,0-2.169,0.031-2.169-5.334v-0.023l0.007-16.078c0-4.24-2.457-5.33-2.457-5.33h4.29
		c1.512,0,4.662,0,4.662,5.996l-0.011,15.369L153.09,136.703L153.09,136.703z"/>
	<path fill-rule="evenodd" clip-rule="evenodd" fill="#E03A3E" d="M174.873,117.336c0,0-0.682-1.928-3.619-1.928
		c-4.441,0-5.522,5.277-5.522,5.277c-0.361-4.172-1.479-5.404-4.612-5.404l-4.291,0.012c0,0,2.486,1.018,2.486,5.35l-0.008,16.053
		c0,5.299,2.135,5.385,2.135,5.385h7.07c-0.183-0.086-2.714-1.996-2.714-5.426l0.007-13.145c0.186-1.193,0.801-2.109,1.734-2.713
		c2.331-1.51,5.512-1.152,7.334,1.074C174.873,121.871,174.873,119.031,174.873,117.336L174.873,117.336z"/>
	<path fill-rule="evenodd" clip-rule="evenodd" fill="#E03A3E" d="M207.869,118.305c2.394,0,4.182,1.045,4.182,1.045l0.021-4.039
		h-5.947l0.003-6.127c0,0-1.562,2.703-4.76,5.33c-2.008,1.648-6.225,3.686-6.225,3.686l4.49,0.08l-0.007,18.631
		c0,5.168,2.16,5.168,2.16,5.168c3.879,0,7.063,0.014,7.063,0.014s-2.731-1.828-2.731-5.227l0.007-18.572
		C207.988,118.301,206.703,118.305,207.869,118.305L207.869,118.305z"/>
	<path fill-rule="evenodd" clip-rule="evenodd" fill="#E03A3E" d="M229.367,126.393c-3.966,4.15-7.08,3.5-9.573,6.541
		c0,0.004,0.4,4.121,3.55,5.574c1.078,0.498,5.444,2.074,8.274-2.809l-0.021,4.322c0,0-1.815,2.109-7.58,2.109
		c-6.946,0-11.704-5.463-11.704-12.871c0-7.283,3.88-14.045,11.203-14.082C230.695,115.139,234.581,120.938,229.367,126.393
		L229.367,126.393z M225.025,124.693c1.176-2.17,2.099-7.678-1.913-7.377c-4.648,0.35-3.764,12.709-3.764,12.709
		C220.904,128.338,223.234,127.992,225.025,124.693L225.025,124.693z"/>
	<path fill-rule="evenodd" clip-rule="evenodd" fill="#E03A3E" d="M149.804,113.146c1.822,0,3.3-1.445,3.3-3.229
		s-1.478-3.23-3.3-3.23c-1.822,0-3.3,1.447-3.3,3.23S147.982,113.146,149.804,113.146L149.804,113.146z"/>
	<path fill-rule="evenodd" clip-rule="evenodd" fill="#E03A3E" d="M182.241,139.055c-1.614,0-2.766-1.678-2.766-3.396
		c0-6.686,5.473-7.609,6.936-9.393l0.012,11.27C185.777,138.111,185.12,139.055,182.241,139.055L182.241,139.055z M186.411,123.686
		c-1.646,2.883-14.441,3.494-12.479,13.391c0.776,3.924,3.392,5.068,6.682,5.068c3.194,0,5.115-1.668,5.918-3.219
		c0.478,2.98,1.984,3.152,1.984,3.152c3.695,0,7.07,0.014,7.07,0.014s-2.753-1.828-2.753-5.361v-15.045c0-3.6-3.991-6.4-8.232-6.4
		c-4.076,0-6.639,1.963-6.639,1.963c0,1.203,0,4.668,0,4.668s1.454-3.699,5.143-3.699c3.599,0,3.865,1.793,3.845,2.689
		C186.949,120.906,187.312,122.117,186.411,123.686L186.411,123.686z"/>
	<path fill-rule="evenodd" clip-rule="evenodd" fill="#E03A3E" d="M245.022,134.822c0.038,1.891-1.654,4.377-5.256,4.377
		c-3.687,0-5.16-3.773-5.16-3.773v4.781c0,0,2.66,1.896,6.736,1.896c4.838,0,9.728-3.676,9.619-8.795
		c-0.035-1.801-0.678-3.336-1.661-4.658c-1.636-2.195-4.616-3.729-6.923-5.146c-1.316-0.813-2.015-2.262-2.032-2.77
		c-0.039-0.896,0.396-2.707,3.999-2.707c3.514,0,5.009,3.699,5.009,3.699l-0.014-4.479c0,0-2.688-2.135-6.765-2.135
		c-4.241,0-8.093,2.801-8.02,6.4c0.067,3.158,1.397,5.205,3.982,7.133c1.021,0.762,2.24,1.502,3.65,2.285
		C244.246,132.072,244.994,133.471,245.022,134.822L245.022,134.822z"/>
</g>
</svg>
