<svg width="321" height="38" viewBox="0 0 321 38" fill="none" xmlns="http://www.w3.org/2000/svg">
<path d="M100.647 2.55891C100.647 2.55891 84.7027 3.74108 76.1172 2.9579C76.1172 2.9579 75.0976 2.67713 74.8168 3.8593C74.8168 3.8593 74.2553 4.76069 75.1567 5.38133C76.0581 6.00196 78.6589 7.524 78.6589 13.1836V24.0891C78.6589 24.0891 79.1613 30.0885 75.0385 32.3494C75.0385 32.3494 74.1962 32.6302 74.6395 33.8123C74.6395 33.8123 74.6986 34.8911 75.8808 34.7137C77.063 34.5364 83.7422 34.034 92.904 34.6546C92.904 34.6546 93.7019 34.7137 93.9235 34.1966C94.1452 33.6941 94.2043 33.635 94.2043 33.635C94.2043 33.635 95.0023 32.8371 93.8054 32.0539C92.6232 31.2559 90.6431 30.0738 90.4657 25.0496C90.2884 20.0254 90.4657 19.9072 90.4657 19.9072H91.2046C91.2046 19.9072 93.7462 19.6855 95.4456 23.5275C95.4456 23.5275 98.7261 31.4332 99.2285 32.4085C99.731 33.369 100.691 35.4083 104.253 35.0684C107.814 34.7285 124.438 33.5464 142.067 35.1275C142.067 35.1275 143.988 35.4083 144.727 33.5464C144.727 33.5464 147.786 25.3451 148.51 24.0447C148.51 24.0447 154.953 23.8822 158.455 23.9265C158.455 23.9265 159.755 26.1283 159.755 28.7882C159.755 31.448 157.435 32.0687 157.435 32.0687C157.435 32.0687 156.475 32.4676 156.933 33.6498C156.933 33.6498 157.095 34.7729 158.233 34.6694C159.371 34.5512 169.479 33.5907 184.743 34.5512C184.743 34.5512 185.763 34.9502 186.103 33.5907C186.103 33.5907 186.723 32.512 185.645 32.0096C185.645 32.0096 181.625 31.1082 181.625 24.7245C181.625 18.3408 181.684 13.819 181.684 13.819C181.684 13.819 184.743 18.1635 188.349 24.6654C191.969 31.1673 193.89 33.9306 193.89 33.9306C193.89 33.9306 195.693 37.4327 199.254 35.5708C202.816 33.7089 206.658 31.5515 208.859 30.0294C208.859 30.0294 209.702 29.6304 209.258 28.5665L208.918 27.8868C208.918 27.8868 208.859 27.4878 207.677 27.3843C207.677 27.3843 205.017 28.005 204.973 24.2221C204.914 20.4391 204.751 15.0603 204.973 9.57801C204.973 9.57801 205.091 6.17929 208.194 5.21878C208.194 5.21878 209.317 5.10056 208.815 3.75585L208.475 3.07611C208.475 3.07611 208.475 2.51459 207.677 2.61802C206.879 2.73624 202.476 3.12044 197.777 2.73624C197.777 2.73624 196.757 2.73624 196.654 3.8593C196.654 3.8593 196.373 4.87891 197.156 5.21878C197.954 5.55865 200.717 6.57827 200.895 10.9227C201.057 15.2672 201.116 21.3258 201.116 21.3258C201.116 21.3258 194.673 11.8241 190.551 4.53904C190.551 4.53904 189.871 2.55892 187.447 2.72146C185.024 2.89879 179.202 3.17955 174.961 2.78057C174.961 2.78057 173.779 2.60325 173.601 3.96273C173.601 3.96273 173.261 5.1449 174.281 5.66209C174.281 5.66209 177.665 7.80476 177.665 8.54362C177.665 9.28247 177.606 24.3107 177.606 24.3107C177.606 24.3107 177.887 30.4727 176.246 29.6748C176.246 29.6748 175.286 30.2954 172.966 26.0544C170.646 21.8134 167.646 15.7696 162.785 4.00706C162.785 4.00706 161.765 0.726562 159.681 0.726562C159.681 0.726562 158.44 0.785672 157.14 1.50975C155.839 2.2486 151.717 4.56859 147.416 5.80986C147.416 5.80986 146.279 6.14974 146.618 7.28757C146.618 7.28757 146.456 8.12986 147.697 8.58795C148.938 9.04603 150.017 9.54845 150.357 10.1691C150.357 10.1691 149.057 14.351 146.678 18.6511C144.298 22.9512 141.254 30.0738 132.492 30.0738H129.049C129.049 30.0738 128.147 30.192 128.147 28.9359V19.8333H130.408C130.408 19.8333 134.088 19.0353 135.831 23.7935C135.831 23.7935 136.171 25.2564 137.412 24.6949C137.412 24.6949 138.816 24.5176 138.713 23.1138C138.595 21.71 138.491 17.8531 138.772 14.4692C138.772 14.4692 138.89 13.4496 137.752 13.2279C137.752 13.2279 136.851 12.7698 136.171 13.5087C135.491 14.2476 134.073 15.9912 130.851 15.9912C127.63 15.9912 128.191 15.9912 128.191 15.9912V7.50922C128.191 7.50922 128.132 6.9477 128.531 6.88859C128.93 6.82948 133.851 5.64732 136.733 7.96731C139.614 10.2873 139.777 11.2478 140.412 12.0901C140.412 12.0901 140.974 13.5087 142.451 12.5482C142.451 12.5482 143.589 12.3856 143.013 10.6272C142.451 8.86871 142.274 8.24808 141.314 3.84452C141.314 3.84452 141.136 1.98261 139.215 2.14516C137.294 2.30771 125.251 3.7263 113.946 2.8249C113.946 2.8249 112.764 2.54414 112.528 3.78541C112.528 3.78541 112.025 4.6277 112.986 5.42566C112.986 5.42566 116.326 6.9477 116.326 12.829V22.6705C116.326 22.6705 116.887 30.4727 114.124 30.4727C114.124 30.4727 112.942 30.9752 110.902 26.9706C108.863 22.9512 108.76 22.8478 108.76 22.8478C108.76 22.8478 107.119 17.5872 100.056 17.3655C100.056 17.3655 109.838 15.7253 108.937 8.38107C108.937 8.38107 108.774 2.78057 101.416 2.55891H100.618H100.647ZM90.4214 16.405V10.8636C90.4214 10.8636 90.4805 6.74082 93.761 6.74082C97.0415 6.74082 96.6278 10.7602 96.6573 11.2626C96.6869 11.7798 96.48 16.405 90.4362 16.405H90.4214ZM150.224 20.1288C150.224 20.1288 152.308 15.2081 153.224 13.8042C153.224 13.8042 155.765 17.3064 156.667 20.1879C156.667 20.1879 153.785 20.646 150.224 20.1288Z" fill="#00529B"/>
<path d="M259.545 22.5681C259.545 22.5681 259.766 29.9714 257.003 29.469C257.003 29.469 256.043 30.0896 253.723 25.8486C251.403 21.6076 248.403 15.5638 243.541 3.80125C243.541 3.80125 242.522 0.520752 240.438 0.520752C240.438 0.520752 239.197 0.579859 237.896 1.31871C236.596 2.05756 232.473 4.37756 228.173 5.61883C228.173 5.61883 227.05 5.9587 227.375 7.09653C227.375 7.09653 227.198 7.93882 228.454 8.39691C229.695 8.855 230.774 9.35742 231.114 9.97806C231.114 9.97806 229.813 14.16 227.434 18.4601C225.055 22.7602 222.971 29.0257 217.371 31.8628C217.371 31.8628 216.292 32.0845 216.632 33.3849C217.031 34.8478 217.755 34.4636 217.755 34.4636C224.257 33.7839 226.237 34.3454 227.7 34.4636C229.178 34.5818 228.941 33.3849 228.941 33.3849C229.34 32.646 228.823 32.2027 228.823 32.2027L228.203 31.4048C228.203 31.4048 225.764 30.7841 229.222 23.8389C229.222 23.8389 235.665 23.6616 239.167 23.7207C239.167 23.7207 240.468 25.9225 240.468 28.5823C240.468 31.2422 238.148 31.8628 238.148 31.8628C238.148 31.8628 237.187 32.2618 237.645 33.444C237.645 33.444 237.822 34.567 238.945 34.4636C240.083 34.3454 258.85 33.5622 274.115 34.5227C274.115 34.5227 275.194 34.5818 275.474 33.6213C275.474 33.6213 276.095 32.4391 275.016 31.7594C275.016 31.7594 272.017 30.3999 271.795 25.5974C271.573 20.7948 271.632 11.6922 271.632 11.6922C271.632 11.6922 271.411 6.60889 274.632 5.02775C274.632 5.02775 275.489 4.62877 275.031 3.50571C275.031 3.50571 274.809 2.42699 273.79 2.5452C272.77 2.66342 262.086 3.22495 257.062 2.60431C257.062 2.60431 255.924 2.54521 255.703 3.50571C255.703 3.50571 255.141 4.40711 256.102 5.14596C257.062 5.88482 259.545 7.5694 259.545 12.83V22.6124V22.5681ZM233.936 13.4063C236.995 17.7656 237.379 19.79 237.379 19.79C234.956 20.189 230.936 19.7309 230.936 19.7309C232.118 16.5686 233.936 13.3916 233.936 13.3916V13.4063Z" fill="#00529B"/>
<path d="M304.541 2.11646C304.541 2.11646 292.098 3.57938 280.572 2.45633C280.572 2.45633 279.109 2.05735 278.932 3.59416C278.932 3.59416 278.814 4.61377 279.434 5.01275C280.055 5.41173 282.597 6.93377 282.774 12.2535C282.951 17.5732 283.055 16.0364 282.951 23.2772C282.951 23.2772 283.395 30.2372 279.449 31.9217C279.449 31.9217 278.43 32.1434 278.991 33.6211C278.991 33.6211 279.331 34.7589 280.292 34.3599C280.292 34.3599 289.557 33.7393 297.581 34.4191C297.581 34.4191 298.482 34.7589 298.763 33.5768C298.763 33.5768 299.502 32.7788 298.364 31.9365C297.226 31.0942 295.202 29.6165 294.965 26.0553C294.743 22.494 294.788 19.6716 294.788 19.6716H295.586C295.586 19.6716 298.246 19.3317 300.048 23.5136C301.851 27.6955 303.107 30.7543 303.107 30.7543C303.107 30.7543 304.289 34.094 306.21 35.1579C306.21 35.1579 307.008 35.8968 309.949 35.5569C309.949 35.5569 314.752 35.2761 319.495 33.0743C319.495 33.0743 320.574 32.8527 320.234 31.5966C320.234 31.5966 320.456 30.6361 319.096 30.3554C317.737 30.0746 316.717 28.7742 315.771 26.8532C314.811 24.9322 313.333 22.1098 313.333 22.1098C313.333 22.1098 311.353 17.189 304.91 17.1299C304.91 17.1299 313.791 15.6079 313.791 8.92867C313.791 2.24945 305.871 2.14601 305.871 2.14601H304.511L304.541 2.11646ZM294.817 16.1842V10.6428C294.817 10.6428 294.936 6.52001 298.039 6.52001C301.142 6.52001 301.201 10.0222 301.038 11.16C300.876 12.2978 300.58 16.1842 294.817 16.1842Z" fill="#00529B"/>
<path d="M74.403 19.0503C74.403 29.3942 66.0097 37.7876 55.6658 37.7876C45.3218 37.7876 36.9285 29.3942 36.9285 19.0503C36.9285 8.70635 45.3218 0.312988 55.6658 0.312988C66.0097 0.312988 74.403 8.70635 74.403 19.0503Z" fill="white"/>
<path d="M63.7045 7.7605C69.4084 9.51897 73.5608 14.8387 73.5608 21.1189C73.5608 22.0351 73.4721 22.9365 73.3096 23.7936V23.9118C72.8515 26.3796 71.8614 28.6552 70.428 30.591L70.3985 30.6206C72.9106 27.4287 74.403 23.4095 74.403 19.0503C74.403 8.69157 66.0097 0.298096 55.651 0.298096C50.9371 0.298096 46.6222 2.04178 43.327 4.92331L43.2826 4.95286C40.6819 7.33196 39.0564 10.7602 39.0564 14.5579C39.0564 16.1391 39.3372 17.6463 39.8396 19.0354L39.8691 19.0945C41.1695 21.9465 44.051 23.9414 47.3906 23.9414C51.9567 23.9414 55.6658 20.2471 55.6658 15.681L55.6362 12.1197C55.6362 10.4795 56.5524 9.06088 57.8971 8.3368H57.9119C58.9611 7.74572 60.1728 7.42063 61.4584 7.42063C62.2416 7.42063 62.9804 7.53884 63.6897 7.7605H63.7045Z" fill="#EC1B2E"/>
<path d="M41.3025 31.1089C44.7456 35.2022 49.9028 37.8029 55.6658 37.8029C60.3797 37.8029 64.6946 36.0592 67.9899 33.1925L68.0342 33.1629C70.635 30.7838 72.2604 27.3556 72.2604 23.5579C72.2604 21.9767 71.9797 20.4695 71.4625 19.0804L71.4329 19.0213C70.1325 16.1546 67.251 14.1745 63.8966 14.1745C59.3305 14.1745 55.6215 17.8835 55.6215 22.4496L55.651 26.0109C55.651 27.6511 54.7349 29.0697 53.3901 29.8086H53.3754C52.3262 30.3996 51.1145 30.7247 49.8437 30.7247C49.0605 30.7247 48.3216 30.6065 47.6123 30.3701C41.9084 28.6116 37.7561 23.2919 37.7561 17.0117C37.7561 16.0955 37.8447 15.1941 38.0073 14.337V14.2188C38.4654 11.751 39.4702 9.49014 40.8888 7.53957L40.9184 7.51002C38.421 10.7019 36.9138 14.7212 36.9138 19.0804C36.9138 22.095 37.6231 24.9321 38.8791 27.459L38.7313 27.5772C38.7313 27.5772 37.9925 28.1388 36.5296 26.4542C35.0666 24.7548 26.4073 14.2927 26.4073 14.2927C26.4073 14.2927 31.8896 8.41142 37.2684 6.03231C37.2684 6.03231 38.687 5.589 38.3471 4.33295L38.1255 3.5941C38.1255 3.5941 38.0664 2.79614 36.8251 2.97347C35.5838 3.13601 29.7026 3.5941 23.8213 3.03257C23.8213 3.03257 22.9199 3.03257 22.58 3.77142C22.58 3.77142 22.0185 4.73193 22.58 5.29346C23.1416 5.85499 25.1808 7.27358 25.1808 9.1946C25.1808 9.1946 25.6241 10.6132 22.5209 12.8741C19.4177 15.135 17.4967 16.6127 16.1963 17.2776L16.2555 11.9579C16.2555 11.9579 16.0929 7.49524 19.3143 5.3969C19.3143 5.3969 20.1123 5.05703 19.8167 4.31818L19.5951 3.75665C19.5951 3.75665 19.4177 2.85525 18.4572 2.95869C18.4572 2.95869 12.8567 3.57932 1.72964 3.0769C1.72964 3.0769 0.990784 3.0178 0.71002 3.57932L0.488374 4.03741C0.488374 4.03741 0.0893847 5.05703 0.71002 5.50034C1.33066 5.95843 3.93141 7.48046 4.04962 12.1648C4.04962 12.1648 4.33038 21.0458 3.9314 24.4888C3.53242 27.9319 3.25168 29.912 0.488374 32.3502C0.488374 32.3502 -0.250484 32.9117 0.0893874 33.7688L0.488374 34.5077C0.488374 34.5077 0.769132 35.0692 1.72964 34.9658C2.69015 34.8475 9.65012 34.1678 18.4572 34.8475C18.4572 34.8475 19.0779 35.0692 19.3586 34.4486L19.7576 33.6506C19.7576 33.6506 20.2157 32.8526 19.3586 32.232C18.5016 31.6114 16.2555 29.7938 16.1963 26.2916C16.1372 22.7895 16.1373 20.5729 16.1373 20.5729C16.1373 20.5729 17.6593 21.1936 25.8014 33.2368C25.8014 33.2368 28.6829 38.4384 34.7859 35.217C34.7859 35.217 39.2485 32.7935 41.1104 31.2124L41.3025 31.0942V31.1089Z" fill="#00529B"/>
</svg>
