<svg width="368" height="40" viewBox="0 0 368 40" fill="none" xmlns="http://www.w3.org/2000/svg">
<g clip-path="url(#clip0_3797_3731)">
<path d="M45.8929 4.13525H42.7945C42.7281 4.13564 42.6644 4.16241 42.6175 4.20971C42.5705 4.25701 42.5439 4.32107 42.5435 4.38795V36.1168C42.5435 36.184 42.5698 36.2484 42.617 36.296C42.664 36.3436 42.7279 36.3705 42.7945 36.3709H48.2149C48.2817 36.3705 48.3458 36.3438 48.393 36.2962C48.4404 36.2486 48.4671 36.184 48.4673 36.1168V6.7382C48.469 6.39694 48.4034 6.05875 48.2748 5.74302C48.1462 5.42728 47.9568 5.14022 47.7175 4.89837C47.4782 4.65651 47.194 4.46457 46.8808 4.33362C46.5678 4.20267 46.232 4.13525 45.8929 4.13525Z" fill="#01426A"/>
<path d="M207.225 4.13527H204.127C204.06 4.13564 203.996 4.16241 203.95 4.20971C203.903 4.25703 203.876 4.32107 203.876 4.38795V36.1168C203.876 36.184 203.902 36.2484 203.949 36.296C203.996 36.3436 204.06 36.3705 204.127 36.3709H209.554C209.62 36.3705 209.683 36.3438 209.731 36.2962C209.779 36.2486 209.804 36.184 209.806 36.1168V6.73822C209.806 6.39646 209.742 6.05776 209.612 5.74164C209.483 5.42552 209.293 5.13826 209.052 4.89631C208.814 4.65438 208.529 4.46258 208.215 4.33197C207.901 4.20136 207.565 4.13447 207.225 4.13527Z" fill="#01426A"/>
<path d="M257.215 4.13525H254.118C254.052 4.13525 253.989 4.16183 253.941 4.20917C253.893 4.25653 253.866 4.3208 253.866 4.38795V36.1168C253.866 36.184 253.893 36.2486 253.941 36.2962C253.987 36.3438 254.052 36.3705 254.118 36.3709H259.537C259.604 36.3705 259.669 36.3438 259.717 36.2962C259.763 36.2486 259.79 36.184 259.79 36.1168V6.7382C259.792 6.39694 259.727 6.05875 259.598 5.74302C259.468 5.42728 259.28 5.14022 259.04 4.89837C258.8 4.65651 258.516 4.46457 258.203 4.33362C257.89 4.20267 257.555 4.13525 257.215 4.13525Z" fill="#01426A"/>
<path d="M364.944 4.13525H361.845C361.778 4.13564 361.715 4.16237 361.667 4.20963C361.619 4.25688 361.592 4.32092 361.592 4.38795V36.1168C361.592 36.184 361.619 36.2486 361.667 36.2962C361.713 36.3438 361.778 36.3705 361.845 36.3709H367.266C367.332 36.3705 367.395 36.3436 367.443 36.296C367.489 36.2484 367.516 36.184 367.516 36.1168V6.7382C367.518 6.397 367.454 6.05883 367.324 5.7431C367.195 5.42738 367.007 5.14033 366.767 4.89846C366.529 4.65657 366.245 4.46463 365.931 4.33366C365.618 4.20269 365.282 4.13525 364.944 4.13525Z" fill="#01426A"/>
<path d="M114.893 3.31685H128.139C129.196 3.31685 129.591 2.80123 129.591 1.8949V0.331968C129.591 0.264824 129.564 0.200577 129.517 0.153237C129.47 0.105896 129.406 0.0793141 129.339 0.0793152H97.6909C97.6243 0.079696 97.5604 0.106382 97.5132 0.15364C97.466 0.200899 97.4391 0.264943 97.4384 0.331968V3.06272C97.4387 3.13 97.4654 3.19442 97.5128 3.24199C97.56 3.28956 97.6241 3.31647 97.6909 3.31685H110.352V36.1093C110.352 36.1765 110.379 36.241 110.426 36.2887C110.473 36.3361 110.537 36.363 110.604 36.3634H116.442C116.509 36.363 116.573 36.3361 116.62 36.2887C116.667 36.241 116.694 36.1765 116.694 36.1093V6.06962C116.688 5.48535 116.514 4.91527 116.195 4.42725C115.876 3.93924 115.424 3.55381 114.893 3.31685Z" fill="#01426A"/>
<path d="M20.1566 2.32679C19.2809 0.374569 18.6344 0.0793159 17.8726 0.0793159H16.8159C16.7415 0.0838215 16.6695 0.107366 16.6067 0.147724C16.5439 0.188082 16.4923 0.243937 16.4569 0.309958L0.0279516 36.1329C0.0106971 36.1567 0.000980258 36.1851 7.04613e-05 36.2147C-0.000839356 36.2442 0.00707883 36.2732 0.0228297 36.2981C0.0385806 36.3231 0.0614489 36.3425 0.0883907 36.3542C0.115333 36.3659 0.145129 36.369 0.173905 36.3634H2.94685C3.02125 36.3588 3.09326 36.3354 3.15608 36.2949C3.21891 36.2546 3.27048 36.1989 3.30588 36.1329L8.4577 24.6649H20.0413C20.4601 24.7023 20.8792 24.5962 21.2307 24.364C21.5823 24.1318 21.8456 23.7871 21.978 23.3853L22.5735 22.0971L28.7805 36.1343C28.8151 36.2007 28.8667 36.2567 28.9296 36.2968C28.9926 36.3371 29.0649 36.3601 29.1394 36.3634H35.2182C35.2466 36.3688 35.276 36.3655 35.3027 36.3538C35.3295 36.3423 35.352 36.3229 35.3677 36.2983C35.3833 36.2736 35.3913 36.2448 35.3907 36.2156C35.39 36.1865 35.3808 36.1581 35.3641 36.1343L20.1566 2.32679ZM9.77556 21.7167L16.1344 7.56057L22.3969 21.7167H9.77556Z" fill="#01426A"/>
<path d="M192.218 4.13487H186.799C186.732 4.13485 186.668 4.16139 186.62 4.20869C186.573 4.256 186.546 4.32028 186.545 4.38756V18.4687H171.244V6.71728C171.244 6.377 171.177 6.04001 171.048 5.72565C170.919 5.41126 170.729 5.12562 170.49 4.88501C170.251 4.64439 169.967 4.45354 169.655 4.32333C169.342 4.19311 169.008 4.12608 168.67 4.12608H165.571C165.505 4.12646 165.441 4.15314 165.394 4.2004C165.346 4.24765 165.319 4.31172 165.319 4.37872V36.1076C165.319 36.1749 165.346 36.2394 165.393 36.287C165.44 36.3346 165.504 36.3613 165.571 36.3617H170.992C171.058 36.3613 171.123 36.3346 171.17 36.287C171.217 36.2394 171.244 36.1749 171.244 36.1076V21.1729H186.545V36.1091C186.545 36.1767 186.572 36.2413 186.62 36.2889C186.667 36.3365 186.732 36.3632 186.799 36.3632H192.218C192.285 36.3628 192.349 36.3361 192.396 36.2884C192.443 36.2408 192.47 36.1765 192.47 36.1091V4.38021C192.468 4.31447 192.44 4.25229 192.393 4.2066C192.346 4.16089 192.283 4.13518 192.218 4.13487Z" fill="#01426A"/>
<path d="M144.138 5.95966C143.528 4.66114 142.981 4.13525 142.117 4.13525H141.26C141.186 4.13892 141.113 4.16214 141.05 4.20259C140.987 4.24304 140.936 4.29933 140.901 4.3659L126.444 36.1346C126.427 36.1584 126.418 36.1868 126.417 36.216C126.417 36.2452 126.425 36.2738 126.44 36.2985C126.456 36.3231 126.479 36.3425 126.505 36.354C126.532 36.3657 126.561 36.369 126.59 36.3636H129.071C129.145 36.3601 129.218 36.3371 129.281 36.297C129.344 36.2567 129.395 36.2007 129.43 36.1346L134.007 25.852H144.24C144.593 25.8735 144.943 25.7775 145.236 25.5785C145.529 25.3797 145.748 25.089 145.86 24.7518L146.405 23.5532L152.199 36.1346C152.234 36.2003 152.286 36.2557 152.349 36.2958C152.412 36.3358 152.484 36.3592 152.558 36.3636H158.18C158.208 36.369 158.238 36.3657 158.264 36.354C158.291 36.3425 158.314 36.3231 158.329 36.2985C158.345 36.2738 158.353 36.2452 158.352 36.216C158.352 36.1868 158.342 36.1584 158.325 36.1346L144.138 5.95966ZM135.201 23.155L140.615 10.9908L146.216 23.155H135.201Z" fill="#01426A"/>
<path d="M245.87 4.13525H217.8C217.733 4.13564 217.668 4.16237 217.622 4.20963C217.574 4.25688 217.547 4.32092 217.547 4.38795V6.55021C217.547 6.61759 217.572 6.68226 217.62 6.72991C217.668 6.77756 217.733 6.80433 217.8 6.80433H228.858V36.1095C228.858 36.1767 228.886 36.241 228.931 36.2887C228.979 36.3363 229.042 36.3632 229.109 36.3636H234.53C234.597 36.3632 234.661 36.3365 234.707 36.2889C234.755 36.2413 234.782 36.1767 234.782 36.1095V9.18108C234.784 8.64265 234.611 8.11845 234.287 7.68905C233.966 7.25967 233.511 6.94883 232.997 6.80433H244.97C245.81 6.80433 246.123 6.39594 246.123 5.6747V4.38795C246.123 4.32092 246.096 4.25688 246.048 4.20963C246.002 4.16237 245.937 4.13564 245.87 4.13525Z" fill="#01426A"/>
<path d="M350.984 4.13525H348.504C348.437 4.13564 348.372 4.16237 348.326 4.20963C348.278 4.25688 348.251 4.32092 348.251 4.38795V24.4918C348.251 31.102 344.95 34.4085 338.533 34.4085C331.235 34.4085 328.846 30.2705 328.846 24.5417V6.72646C328.846 6.03924 328.577 5.38015 328.092 4.8942C327.61 4.40825 326.956 4.13525 326.274 4.13525H323.175C323.108 4.13564 323.043 4.16241 322.997 4.20971C322.949 4.25701 322.924 4.32107 322.924 4.38795V25.1264C322.924 32.5208 328.297 37.2097 338.236 37.2097C346.449 37.2097 351.225 32.753 351.225 24.9764V4.38795C351.225 4.32291 351.2 4.26051 351.154 4.21357C351.11 4.16663 351.049 4.13861 350.984 4.13525Z" fill="#01426A"/>
<path d="M94.8529 38.291C94.6838 38.291 94.1831 38.3467 93.7542 38.3467C85.59 38.3467 78.0153 27.1594 75.7416 21.4245C80.2177 20.3053 82.731 17.3116 82.731 13.2133C82.731 7.40953 78.2941 4.13525 70.5561 4.13525H60.1372C60.0706 4.13564 60.0069 4.16237 59.9595 4.20963C59.9123 4.25688 59.8854 4.32092 59.8848 4.38795V36.1168C59.8852 36.184 59.9119 36.2486 59.9591 36.2962C60.0063 36.3438 60.0704 36.3705 60.1372 36.3709H65.5576C65.6244 36.3705 65.6885 36.3438 65.7357 36.2962C65.7829 36.2486 65.8096 36.184 65.81 36.1168V22.259H69.7798C73.1701 30.41 80.7811 39.7612 90.2048 39.7612C92.7778 39.7612 95.0398 39.0563 95.0398 38.4657C95.0398 38.3701 94.9872 38.291 94.8529 38.291ZM69.7505 19.6722H65.81V6.80433H69.7505C74.4325 6.80433 76.4115 9.3926 76.4115 13.2133C76.4115 17.034 74.79 19.6722 69.7505 19.6722Z" fill="#01426A"/>
<path d="M312.312 0.0793152H309.458C309.391 0.0793141 309.328 0.105896 309.28 0.153237C309.232 0.200577 309.205 0.264824 309.205 0.331968V26.4951L288.364 2.21956C287.117 0.768246 286.294 0.0793152 284.795 0.0793152H283.246C283.179 0.079696 283.116 0.106382 283.068 0.15364C283.022 0.200899 282.995 0.264943 282.993 0.331968V36.1093C282.995 36.1765 283.02 36.241 283.068 36.2887C283.116 36.3361 283.179 36.363 283.246 36.3634H286.1C286.167 36.363 286.232 36.3361 286.28 36.2884C286.326 36.2408 286.353 36.1765 286.353 36.1093V9.38498L309.366 36.1709C309.477 36.2855 309.625 36.3542 309.784 36.3634H312.329C312.394 36.3607 312.454 36.3325 312.498 36.2849C312.542 36.2373 312.565 36.1742 312.563 36.1093V0.331968C312.563 0.264943 312.536 0.200899 312.49 0.15364C312.442 0.106382 312.377 0.079696 312.312 0.0793152Z" fill="#01426A"/>
</g>
<defs>
<clipPath id="clip0_3797_3731">
<rect width="367.516" height="39.6819" fill="white" transform="translate(0 0.0793152)"/>
</clipPath>
</defs>
</svg>
