<svg width="296" height="52" viewBox="0 0 296 52" fill="none" xmlns="http://www.w3.org/2000/svg">
<path d="M26.6891 51.8273C12.5357 52.2791 0.0730207 40.5599 0.000139796 26.4938C-0.0435887 14.0166 10.1743 0.912649 26.6308 0.912649C42.5043 0.883497 53.3781 13.1858 53.3052 26.4501C53.2032 42.411 39.0789 52.3666 26.6745 51.8273H26.6891ZM7.68179 17.238C15.8444 17.4712 23.8468 17.719 31.8199 17.9522C34.9684 15.6492 37.8982 13.0838 41.8484 12.1509C32.1115 2.1662 14.037 4.64415 7.68179 17.238ZM34.1959 45.6324C41.9504 42.3673 46.5565 37.047 47.81 29.2488C48.7575 23.4766 46.2066 15.6346 42.9416 13.4773C42.2565 15.6783 42.1107 15.8678 35.9887 22.4125C35.4057 30.0213 34.8226 37.7029 34.1959 45.6324ZM6.69061 33.8111C8.99364 34.5107 11.3404 35.225 13.6726 35.9246C15.3197 34.4379 23.0014 25.3715 23.4095 24.3657C17.8851 22.5146 12.3899 20.678 6.77806 18.7976C4.81028 23.8556 4.76655 28.7532 6.67603 33.8111H6.69061ZM28.4091 29.4528C23.9197 32.2806 19.678 34.9772 15.4217 37.6592C15.9319 40.0788 16.4129 42.3382 16.8939 44.6412C21.9081 46.988 27.0244 47.469 32.505 46.0988C31.1494 40.5307 29.7939 35.1084 28.4091 29.4382V29.4528ZM7.50687 35.1084C8.38144 38.0819 12.9292 42.8775 15.6258 43.6937C14.897 41.6968 14.1973 39.7436 13.4685 37.7758C11.4862 36.9012 9.54754 36.0412 7.50687 35.1084Z" fill="#0A3B58"/>
<path d="M268.814 1.94751H280.198C281.073 7.64679 281.962 13.2586 282.836 18.885H283.055C283.857 13.2586 284.673 7.64679 285.547 1.94751H295.896C293.477 18.2437 291.13 34.5544 288.783 50.8506H277.633C276.758 45.1513 275.869 39.5395 274.921 33.9131H274.703C273.901 39.5395 273.012 45.1513 272.21 50.8506H261.715C264.062 34.4815 266.409 18.2437 268.828 1.94751H268.814Z" fill="#0A3B58"/>
<path d="M187.042 50.8506H175.293C177.64 34.5544 180.06 18.2437 182.406 1.94751H194.082C193.207 8.20069 192.318 14.4539 191.371 20.7799C192.697 20.9257 193.863 20.9257 195.263 20.7799C196.21 14.5268 197.099 8.27357 198.047 1.94751H209.649C207.23 18.3166 204.883 34.5544 202.536 50.8506H190.933C191.881 44.0289 192.916 37.2947 193.863 30.4002H189.971C189.024 37.149 188.062 43.9561 187.042 50.8506Z" fill="#0A3B58"/>
<path d="M89.8476 38.0673C90.2849 34.6273 90.6493 30.6189 91.2469 26.6104C91.8299 22.2521 92.5004 17.821 93.7394 13.5356C94.2496 11.7135 94.993 9.94983 95.8675 8.25899C97.777 4.54207 100.925 2.28276 105.196 1.43734C108.272 0.810564 111.362 0.810564 114.452 1.43734C118.854 2.41394 121.42 5.15427 122.09 9.45424C122.6 12.5444 122.454 15.7074 122.017 18.7976C121.216 24.7738 120.326 30.6772 119.233 36.5805C118.796 38.971 117.98 41.4344 117.032 43.6791C115.05 48.3143 111.304 50.7777 106.1 51.4045C103.462 51.6814 100.809 51.6814 98.2435 51.1275C93.6957 50.1509 91.0574 47.4106 90.3869 42.9795C90.0954 41.5801 90.0954 40.0934 89.8767 38.0673H89.8476ZM102.325 41.7113C104.089 42.411 105.036 42.2069 105.706 40.793C106.362 39.248 106.96 37.7029 107.252 36.012C108.126 31.1582 108.869 26.3189 109.525 21.465C109.89 18.5789 110.108 15.7074 110.327 12.8213C110.4 12.0488 110.108 11.2763 109.963 10.5766C108.053 10.2268 107.324 10.4308 106.654 11.9176C106.071 13.04 105.634 14.2352 105.327 15.5034C104.38 20.3572 103.491 25.1965 102.762 30.0504C102.325 32.9948 102.106 36.0266 101.96 39.0439C101.96 39.9622 102.252 40.9388 102.325 41.7113Z" fill="#0A3B58"/>
<path d="M127.425 1.94751H138.955C138.955 2.22445 139.028 2.51598 139.028 2.79293C138.066 9.39594 137.045 15.9989 136.083 22.602C135.209 28.4324 134.392 34.3358 133.591 40.1663C133.518 40.793 133.591 41.3615 133.591 41.9883C135.209 42.2652 135.719 42.0612 136.083 40.793C136.593 38.8981 136.958 36.9303 137.337 34.9626C138.59 26.8145 139.756 18.6664 140.937 10.5766C141.229 8.33187 141.593 6.07257 141.899 3.90071C141.972 3.27394 142.118 2.70547 142.191 2.00581H153.72V2.85123C152.54 10.8681 151.374 18.8705 150.193 26.8874C149.537 31.2456 148.939 35.6768 148.138 40.0205C147.846 41.7113 147.263 43.4605 146.52 45.0784C144.975 48.5184 142.191 50.5591 138.372 51.4045C135.296 52.0313 132.206 52.1041 129.116 51.4774C124.714 50.5591 122.294 47.9645 122.076 43.6791C121.93 41.2157 122.148 38.6941 122.44 36.2307C123.533 27.9368 124.787 19.643 126.04 11.422C126.478 8.11323 126.988 5.09596 127.44 1.93293L127.425 1.94751Z" fill="#0A3B58"/>
<path d="M246.716 32.3097C246.279 35.327 245.842 38.2859 245.39 41.3032C244.953 44.3205 244.515 47.2794 244.064 50.3696H233.496C235.843 34.4232 238.116 18.5352 240.478 2.58886C240.988 2.51598 241.28 2.51598 241.658 2.51598C245.186 2.51598 248.699 2.4431 252.299 2.51598C254.209 2.58886 256.191 2.79293 258.028 3.21563C261.628 4.06105 263.392 6.2329 263.61 9.81865C263.756 12.4132 263.392 14.9495 262.881 17.4857C262.444 19.4535 261.934 21.4213 261.263 23.3891C260.462 25.6338 259.062 27.4704 256.716 28.6656C257.372 35.91 258.042 43.0669 258.771 50.2384C257.736 50.5882 250.331 50.6611 247.547 50.3842C247.329 44.4079 247.11 38.4463 246.891 32.3972C246.891 32.3243 246.818 32.3243 246.746 32.3243L246.716 32.3097ZM248.262 21.5525C249.209 21.5525 249.879 21.6254 250.535 21.5525C251.789 21.4067 252.299 20.503 252.445 19.5118C252.882 17.0484 253.247 14.5268 253.626 12.0634C253.698 11.5678 253.553 11.0868 253.48 10.6641C252.153 10.0956 250.914 10.2414 249.588 10.3871C249.224 14.104 248.786 17.6898 248.262 21.5525Z" fill="#0A3B58"/>
<path d="M61.8759 34.4815C65.3304 33.8548 68.6975 33.2134 72.3707 32.5138C72.2979 33.2134 72.225 33.7819 72.1521 34.2629C72.0063 36.3036 71.7877 38.3442 71.7148 40.312C71.7148 41.5073 72.0792 41.93 72.808 42.134C73.7701 42.3381 74.7904 41.9883 75.1548 41.0117C75.5921 39.9622 75.8836 38.7669 76.1022 37.6446C76.248 36.668 76.1751 35.6039 76.248 34.5544C76.3209 32.8053 75.665 31.3914 74.4114 30.1233C73.7555 29.4965 73.085 28.8551 72.3562 28.2284C71.4816 27.4558 70.5196 26.6833 69.645 25.8379C67.1525 23.5203 65.6803 20.7071 65.4616 17.34C65.3159 14.7454 65.5345 12.2091 66.2633 9.67288C67.8084 4.76071 71.3213 2.00581 76.5395 1.17497C78.7405 0.825141 80.9415 0.825141 83.1425 1.17497C87.253 1.80174 89.6727 3.98817 90.3286 7.92374C90.693 10.0373 90.4744 12.1363 89.8913 14.3227C86.5825 14.7454 83.3612 15.1681 79.9795 15.6637C79.9066 13.9146 80.9998 12.3549 80.4168 10.6786C78.5073 10.0519 77.3412 10.5329 76.7436 12.2966C76.0148 14.8183 76.3063 17.1505 78.4344 19.0454C79.7609 20.2406 81.0727 21.363 82.3991 22.4853C84.2357 24.1033 85.8537 25.8524 86.6554 28.1118C87.1656 29.4528 87.53 30.925 87.6174 32.3243C87.909 36.1141 87.3988 39.9185 85.9266 43.4896C84.09 48.1249 80.4897 50.6611 75.3589 51.3608C73.2307 51.6377 71.0297 51.7106 68.9016 51.3608C64.864 50.734 62.1528 48.3435 61.2637 44.4808C60.6806 41.3178 60.8264 38.009 61.8467 34.5107L61.8759 34.4815Z" fill="#0A3B58"/>
<path d="M213.308 1.94751H235.114C234.677 5.03766 234.239 8.05493 233.714 11.218H223.657C223.22 14.3081 222.782 17.1942 222.33 20.2843H230.77C229.968 23.5203 229.225 26.6104 228.496 29.7734H221.004C220.421 33.709 219.823 37.4988 219.167 41.5801C220.931 41.7259 222.622 41.653 224.298 41.653H229.589C229.152 44.8161 228.788 47.8333 228.336 50.8652H206.238C208.512 34.4961 210.932 18.2583 213.293 1.96208L213.308 1.94751Z" fill="#0A3B58"/>
<path d="M155.105 50.7923C157.015 37.5863 158.924 24.5114 160.906 11.2325C158.56 11.2325 156.286 11.2325 153.866 11.1597C154.376 7.92374 154.814 4.90647 155.265 1.8892H181.109C180.672 5.05223 180.234 7.99662 179.71 11.1597H172.524C170.541 24.4386 168.632 37.5863 166.722 50.7923H155.105Z" fill="#0A3B58"/>
</svg>
