<?xml version="1.0" encoding="utf-8"?>
<!-- Generator: Adobe Illustrator 14.0.0, SVG Export Plug-In . SVG Version: 6.00 Build 43363)  -->
<!DOCTYPE svg PUBLIC "-//W3C//DTD SVG 1.1//EN" "http://www.w3.org/Graphics/SVG/1.1/DTD/svg11.dtd">
<svg version="1.1"
	 id="aa" xmlns:dc="http://purl.org/dc/elements/1.1/" xmlns:cc="http://creativecommons.org/ns#" xmlns:rdf="http://www.w3.org/1999/02/22-rdf-syntax-ns#" xmlns:svg="http://www.w3.org/2000/svg" xmlns:sodipodi="http://sodipodi.sourceforge.net/DTD/sodipodi-0.dtd" xmlns:inkscape="http://www.inkscape.org/namespaces/inkscape" inkscape:version="0.48.2 r9819" sodipodi:docname="New document 1"
	 xmlns="http://www.w3.org/2000/svg" xmlns:xlink="http://www.w3.org/1999/xlink" x="0px" y="0px" width="400px" height="300px"
	 viewBox="0 0 400 300" enable-background="new 0 0 400 300" xml:space="preserve">
<g id="layer1-8" transform="matrix(0.72462467,0,0,-0.72462467,-193.02879,488.4987)" inkscape:label="Layer 1">
	<g id="g5423" transform="matrix(0.07116922,0,0,0.07116922,677.12796,-316.7662)">
		<path id="path3016" sodipodi:nodetypes="ccccccccc" inkscape:connector-curvature="0" fill="#EB2023" d="M1020.941,10872.867
			l129.013-214.454c39.994-64.251,105.93-93.413,188.038-93.413h331.992l-388.687,470.984l-55.143,31.396l-145.488-47.473
			l-73.719-106.688L1020.941,10872.867z"/>
		<path id="path3018" sodipodi:nodetypes="cccccc" inkscape:connector-curvature="0" fill="#E21E28" d="M1281.297,11035.984
			l-81.142,98.355l-214.416-115.341l22.743-116.439l12.46-29.692C1016.056,10951.774,1151.526,11043.389,1281.297,11035.984z"/>
		<path id="path3014" sodipodi:nodetypes="ccccccccc" inkscape:connector-curvature="0" fill="#E8E8E8" d="M1020.941,10872.867
			l-116.023,191.825c-13.994,21.796-17.819,40.826-17.819,63.001c0,24.409,10.396,37.778,50.352,58.986
			c46.546,22.279,140.242,31.983,236.837,31.983c156.944,0,194.59-50.389,210.61-104.755c0,0-22.137,8.814-74.287,8.814
			c-165.352,0-297.528-80.262-297.528-201.795C1013.083,10895.42,1020.941,10872.867,1020.941,10872.867z"/>
		<path id="path3012" sodipodi:nodetypes="ccccccc" inkscape:connector-curvature="0" fill="#05AEE9" d="M522.594,11689.023h156.054
			c65.823,0,92.807-26.928,119.45-53.344c30.45-27.704,122.897-152.798,318.263-396.943H904.918
			c-86.482,0-113.826,14.732-147.287,65.728L522.594,11689.023z"/>
	</g>
</g>
<g id="g2995" transform="translate(343.0214,678.6423)">
	<path id="path2997" inkscape:connector-curvature="0" fill="#334357" d="M45.747-508.072l0.585,2.094h0.01l0.592-2.094h0.495
		l0.383,2.621h-0.396l-0.271-2.139h-0.009l-0.613,2.137h-0.423l-0.595-2.129h-0.007l-0.272,2.129h-0.378l0.382-2.621h0.519V-508.072
		z M44.514-508.072v0.336h-0.772v2.283H43.36v-2.283h-0.771v-0.338h1.925V-508.072z"/>
</g>
<g id="g3081">
	<g>
		<g id="g3083">
			<g id="g3089" transform="translate(254.3689,693.6163)">
				<path id="path3091" inkscape:connector-curvature="0" fill="#334357" d="M-55.705-555.156h-0.089l-4.581,12.947h9.261
					L-55.705-555.156z M-47.509-532.007l-2.241-6.361h-11.991l-2.247,6.359h-5.119l10.74-28.31h5.704l10.575,28.312H-47.509z
					 M-4.06-561.452h5.006v4.732H-4.06V-561.452z M-4.004-553.57h4.892v21.563h-4.892V-553.57z M-40.138-561.454h5.01v4.734h-5.01
					V-561.454L-40.138-561.454z M-40.078-553.57h4.894v21.563h-4.894V-553.57z M-9.346-561.425h-4.894v29.418h4.894V-561.425z
					 M-24.944-542.524v10.516h-4.908v-16.022c0-1.539-0.177-4.472-0.235-5.537h3.951c0.429,0,0.549,0.182,0.563,0.602
					c0.009,0.637,0.042,2.671,0.042,2.671h0.112c0.385-0.932,1.777-3.724,5.843-3.724c1.362,0,2.369,0.44,2.535,0.505
					c0,0.929-0.098,2.965-0.146,3.504c-0.03,0.354-0.186,0.47-0.361,0.47c-0.167,0-0.244-0.039-0.338-0.074
					c-0.304-0.129-1.017-0.344-2.006-0.344C-22.502-549.96-24.944-548.075-24.944-542.524 M19.626-532.007v-13.926
					c0-2.659-1.215-4.279-3.493-4.279c-3.01,0-5.009,3.204-5.009,7.526v10.679H6.229v-15.841c0-1.742-0.16-4.284-0.242-5.718h3.935
					c0.443,0,0.569,0.181,0.574,0.581c0.014,0.46,0.051,2.691,0.051,2.691h0.112c0.59-1.013,2.097-3.726,6.608-3.726
					c4.652,0,7.251,3.18,7.251,6.75v15.264H19.626z M33.169-545.004h9.059c0.187-3.476-1.639-5.423-4.392-5.423
					C34.951-550.427,33.3-548.342,33.169-545.004 M45.244-536.742c0.272,0,0.352,0.237,0.373,0.481
					c0.082,0.922,0.163,3.001,0.149,3.53c-0.522,0.166-3.154,1.134-6.688,1.134c-6.864,0-10.993-3.551-10.993-11.197
					c0-6.563,3.521-11.228,9.851-11.228c6.214,0,9.171,4.156,9.171,9.315c0,0.606-0.067,1.631-0.175,2.994H33.108
					c0,3.683,2.346,6.323,6.682,6.323c2.389,0,4.288-0.855,5.043-1.219C44.982-536.681,45.069-536.742,45.244-536.742
					 M56.706-531.595c6.372,0,9.421-2.605,9.421-6.479c0-3.812-2.709-5.416-5.577-6.363c-0.824-0.265-1.631-0.536-2.384-0.789
					c-1.962-0.65-2.981-1.504-2.981-2.777c0-1.344,1.227-2.285,3.772-2.285c2.265,0,4.114,0.924,4.849,1.277
					c0.123,0.056,0.23,0.134,0.427,0.134c0.154,0,0.345-0.096,0.369-0.477c0.051-0.722,0.137-2.033,0.137-3.292
					c-0.595-0.272-2.737-1.373-6.183-1.373c-5.265,0-8.5,2.738-8.5,6.354c0,3.502,2.397,5.102,5.031,5.976
					c0.608,0.206,1.733,0.574,2.393,0.798c2.751,0.914,3.536,1.742,3.536,3.029c0,1.678-1.789,2.508-4.865,2.508
					c-2.525,0-4.261-0.926-4.956-1.252c-0.141-0.063-0.225-0.136-0.422-0.136c-0.362,0-0.367,0.481-0.371,0.562
					c-0.015,0.231-0.131,2.466-0.131,3.21C50.845-532.721,53.347-531.595,56.706-531.595 M-231.802-555.156h-0.091l-4.583,12.947
					h9.257L-231.802-555.156z M-223.605-532.007l-2.244-6.359h-11.991l-2.244,6.359h-5.117l10.741-28.313h5.7l10.574,28.313
					H-223.605z M-143.623-561.454h5.006v4.732h-5.006V-561.454z M-143.564-553.57h4.889v21.563h-4.889V-553.57z M-154.072-542.524
					v10.516h-4.9v-16.022c0-1.542-0.177-4.474-0.24-5.541h3.955c0.428,0,0.554,0.185,0.556,0.602
					c0.012,0.635,0.051,2.674,0.051,2.674h0.108c0.389-0.932,1.776-3.724,5.843-3.724c1.357,0,2.374,0.437,2.542,0.505
					c0,0.927-0.101,2.965-0.147,3.506c-0.032,0.352-0.188,0.466-0.361,0.466c-0.167,0-0.251-0.034-0.34-0.071
					c-0.309-0.131-1.018-0.348-1.999-0.348C-151.618-549.961-154.072-548.075-154.072-542.524 M-190.219-532.007v-13.797
					c0-2.484-1.052-4.413-3.589-4.413c-2.857,0-4.504,3.126-4.504,7.506v10.704h-4.892v-13.839c0-2.26-0.944-4.37-3.568-4.37
					c-2.896,0-4.519,3.12-4.519,7.661v10.55h-4.902v-15.706c0-2.028-0.181-4.897-0.238-5.858h3.918c0.439,0,0.586,0.146,0.596,0.602
					c0.012,0.573,0.046,2.674,0.046,2.674h0.112c0.298-0.615,1.908-3.726,6.402-3.726c4.188,0,5.79,3.004,6.187,3.931
					c0.387-0.815,2.245-3.931,6.463-3.931c4.388,0,7.382,2.354,7.382,7.084v14.93h-4.894V-532.007z M-176.681-545.007h9.06
					c0.187-3.469-1.631-5.421-4.391-5.421C-174.895-550.429-176.543-548.342-176.681-545.007 M-164.599-536.742
					c0.269,0,0.35,0.237,0.371,0.481c0.084,0.922,0.163,3.004,0.149,3.53c-0.521,0.166-3.153,1.134-6.686,1.134
					c-6.866,0-10.997-3.555-10.997-11.2c0-6.555,3.52-11.223,9.856-11.223c6.207,0,9.169,4.154,9.169,9.315
					c0,0.606-0.069,1.632-0.179,2.989h-13.823c0,3.686,2.347,6.326,6.678,6.326c2.39,0,4.293-0.855,5.048-1.223
					C-164.864-536.684-164.776-536.742-164.599-536.742 M-103.201-542.948h-0.833c-6.15,0-7.36,2.139-7.36,4.31
					c0,1.775,1.173,3.457,3.471,3.457c3.053,0,4.723-2.948,4.723-6.051V-542.948z M-102.021-532.007
					c-0.396,0-0.723-0.131-0.765-0.703c-0.047-0.705-0.145-2.064-0.145-2.064h-0.067c-0.289,0.396-2.073,3.18-6.553,3.18
					c-4.291,0-6.754-3.307-6.754-6.937c0-5.035,4.887-7.563,12.138-7.563h0.966v-0.792c0-2.258-1.606-3.467-4.608-3.467
					c-2.702,0-4.945,0.948-5.817,1.391c-0.059,0.028-0.217,0.121-0.362,0.121c-0.232,0-0.363-0.145-0.375-0.398
					c-0.038-0.812-0.122-2.37-0.135-3.358c0.884-0.336,3.813-1.423,7.036-1.423c6.407,0,9.158,2.973,9.158,7.722v8.408
					c0,3.066,0.286,5.075,0.387,5.881h-4.104V-532.007z M-118.938-536.742c0.128,0,0.311,0.085,0.354,0.464
					c0.094,1.027,0.133,2.707,0.138,3.235c-0.978,0.481-3.096,1.448-5.695,1.448c-6.531,0-10.538-3.792-10.538-11.209
					c0-6.95,3.562-11.215,10.538-11.215c2.313,0,4.442,0.807,5.695,1.45c0,0.768-0.074,2.506-0.138,3.239
					c-0.03,0.308-0.178,0.454-0.354,0.454c-0.196,0-0.262-0.052-0.378-0.102c-1.576-0.773-3.058-1.146-4.392-1.146
					c-4.159,0-5.869,2.722-5.869,7.321c0,4.1,1.367,7.314,5.869,7.314c1.721,0,3.288-0.613,4.259-1.08
					C-119.188-536.692-119.144-536.742-118.938-536.742 M-80.674-532.007v-13.926c0-2.661-1.213-4.282-3.485-4.282
					c-3.014,0-5.015,3.2-5.015,7.53v10.679h-4.892v-15.841c0-1.742-0.16-4.284-0.235-5.724h3.926c0.448,0,0.578,0.187,0.579,0.584
					c0.011,0.457,0.048,2.691,0.048,2.691h0.107c0.596-1.016,2.1-3.728,6.612-3.728c4.656,0,7.255,3.182,7.255,6.747v15.268h-4.9
					V-532.007z"/>
			</g>
		</g>
	</g>
</g>
</svg>
