<svg width="218" height="97" viewBox="0 0 218 97" fill="none" xmlns="http://www.w3.org/2000/svg">
<path fill-rule="evenodd" clip-rule="evenodd" d="M13.1935 59.2056C13.124 59.4836 13.1379 59.5252 13.0545 59.4836C12.4152 58.9693 10.5806 57.2598 9.95515 56.6761C9.32973 56.0924 8.13448 54.772 7.85652 54.3412C8.52363 54.1049 12.8877 53.7575 12.9989 53.7575C13.1796 53.7575 13.2629 58.9276 13.1935 59.2056Z" fill="#473729"/>
<path fill-rule="evenodd" clip-rule="evenodd" d="M19.5172 50.2968C18.5582 50.5191 15.6813 50.4775 15.6118 50.3663C15.5423 50.2551 15.3477 45.6409 15.3477 45.6409C15.4589 45.7798 15.584 46.03 15.6535 46.0995C15.723 46.169 17.085 47.7117 17.2796 47.9341C17.4741 48.1564 18.6694 49.5324 18.9473 49.7408C19.2253 49.9493 19.5172 50.2829 19.5172 50.2829V50.2968Z" fill="#473729"/>
<path fill-rule="evenodd" clip-rule="evenodd" d="M33.9992 34.4249C33.6934 34.9531 33.5406 35.1893 33.4294 35.3839C33.3321 35.5785 33.1097 35.8148 32.9846 36.0093C32.8596 36.2039 32.7206 36.3707 32.4982 36.6348C32.0673 36.0371 31.4141 35.1476 31.025 34.5778C30.6219 34.008 30.1633 33.0629 29.9131 32.7015C30.4829 31.9649 30.8026 31.5341 31.0111 31.2422C31.289 30.8531 31.7477 30.172 32.0395 29.6717C32.3314 29.1714 32.4843 28.9212 32.4843 28.9212C32.8873 29.4493 33.4016 30.2832 33.7629 30.8114C34.1243 31.3395 34.569 32.0622 34.7636 32.3263C34.8192 32.4097 34.8887 32.4931 34.9304 32.5903C34.9721 32.6598 34.986 32.7293 35.0416 32.7988C35.0694 32.8405 35.0694 32.8266 35.0555 32.8683C34.9999 33.0073 34.8609 33.1324 34.7636 33.2575C34.6663 33.3825 34.569 33.5076 34.4857 33.6466C34.3467 33.8551 34.2077 34.0775 34.0687 34.2998C34.0409 34.3554 33.9992 34.3971 33.9714 34.4388L33.9992 34.4249Z" fill="#473729"/>
<path fill-rule="evenodd" clip-rule="evenodd" d="M18.7806 61.471C18.8918 61.3042 21.0321 58.191 21.1016 58.0659C21.1711 57.9547 21.3795 57.4961 21.5046 57.2459C21.6297 56.9958 21.9077 56.4954 22.0189 56.2869C22.1301 56.0785 24.1731 52.5483 24.1731 52.5483C24.4233 52.7707 24.326 52.6456 24.4928 52.7429C24.6596 52.8402 25.2433 53.1737 25.3545 53.2432C25.4657 53.3127 25.563 53.3822 25.563 53.3822C25.3406 53.688 24.5762 55.0639 24.3816 55.4391C24.187 55.8144 21.7965 60.4286 21.6853 60.6788C21.5741 60.929 21.2406 61.6239 21.1294 61.9297C21.0182 62.2354 20.9209 62.291 20.8236 62.4578C20.6985 62.6802 20.6291 62.8469 20.5457 63.0137C20.4345 63.2361 20.3372 63.3751 20.3372 63.3751C20.1009 63.1527 19.4477 62.972 19.2948 62.7774C19.128 62.5829 18.2802 62.1242 18.2802 62.1242C18.5165 61.7907 18.6138 61.7073 18.7806 61.471Z" fill="#473729"/>
<path fill-rule="evenodd" clip-rule="evenodd" d="M15.8758 60.2896C15.7924 60.0117 15.3477 54.0493 15.2921 53.7436C15.2365 53.4378 15.2921 53.0347 15.2365 52.868C15.4728 52.7012 21.6714 51.9924 21.8243 51.9368C21.9772 51.8812 22.1023 52.0341 21.9772 52.1869C21.8382 52.3398 16.8765 60.3174 16.6402 60.5954C16.404 60.8595 16.2511 60.9846 16.1121 61.068C15.9036 60.7066 16.0287 60.7205 15.8897 60.2896H15.8758Z" fill="#473729"/>
<path fill-rule="evenodd" clip-rule="evenodd" d="M12.9016 50.6303C12.7765 50.6998 6.93923 52.1035 6.66126 52.2286C6.3833 52.3537 6.56398 52.1174 6.49449 52.1452C6.59178 51.8812 13.805 43.6951 13.805 43.6951C13.7633 44.4039 12.9989 50.5608 12.9155 50.6442L12.9016 50.6303Z" fill="#473729"/>
<path fill-rule="evenodd" clip-rule="evenodd" d="M4.59041 49.6853C4.45142 49.7686 4.34025 49.5602 4.34025 49.5602C4.06228 48.9486 3.75651 48.49 3.65922 48.2954C3.56194 48.1008 3.50634 47.8646 3.50634 47.8646C4.07617 47.2808 7.1199 44.3622 7.87041 43.5005C8.62091 42.6388 10.789 40.4985 11.2338 39.9564C11.6646 39.4144 11.9009 39.192 11.9565 39.0948C12.0121 38.9975 12.165 38.7751 12.165 38.7751C12.2623 39.1642 12.3318 39.3866 12.4568 39.7619C12.5819 40.151 12.8043 40.8042 12.8877 41.0822C11.4979 42.7778 9.6077 44.5568 9.24634 44.9876C8.88499 45.4185 5.43821 48.7402 5.22974 49.0181C5.02126 49.2961 4.59041 49.6992 4.59041 49.6992V49.6853Z" fill="#473729"/>
<path fill-rule="evenodd" clip-rule="evenodd" d="M1.92194 45.0293C1.75516 44.7097 1.69957 44.3622 1.64398 44.1954C1.58838 44.0286 1.51888 43.5561 1.46329 43.2781C1.4077 43.0002 1.33822 42.472 1.32432 42.3331C1.44941 42.2775 1.67176 42.069 1.89413 41.93C2.10261 41.791 4.59041 39.4839 4.96567 39.0948C5.34092 38.6917 6.17482 37.9412 6.74465 37.3992C7.30058 36.8571 9.03786 34.9948 9.34362 34.7724C9.64939 34.55 10.247 34.0219 10.3999 33.9524C9.87177 33.6327 6.78635 32.1039 6.03584 31.7703C5.28533 31.4368 2.11651 29.7551 1.69956 29.5327C1.28261 29.3103 0.476514 28.9351 0.379226 28.9073C0.393124 28.5459 0.532106 28.0734 0.573801 27.6981C0.615496 27.3229 0.712792 26.767 0.712792 26.6141C1.19923 26.7531 5.66059 29.2687 6.07754 29.4771C6.49448 29.6856 7.21718 29.9358 7.45345 30.047C7.68972 30.1442 10.664 31.7425 10.928 31.8676C11.1921 31.9927 11.4006 32.1039 11.4006 32.1039C11.484 32.1873 11.4979 32.2151 11.484 32.632C11.484 33.049 11.5118 33.6049 11.4701 33.9663C11.4284 34.3276 11.4701 35.8842 11.4701 35.8842C10.5111 36.8154 9.42703 38.1358 8.53754 38.928C7.64805 39.7202 4.28464 43.028 4.28464 43.028C4.06227 43.2364 2.89482 44.4734 2.61685 44.6263C2.32499 44.793 2.10262 44.932 1.94974 45.0571L1.92194 45.0293Z" fill="#473729"/>
<path fill-rule="evenodd" clip-rule="evenodd" d="M2.39448 33.1741C2.67244 33.3131 3.31176 33.5215 3.63143 33.6883C3.95109 33.8551 4.17348 33.8829 4.40975 33.9802C4.63212 34.0636 5.82737 34.3415 5.95246 34.3693C5.95246 34.3693 5.82738 34.4527 5.56331 34.6473C5.28534 34.8558 4.13178 35.8286 3.52026 36.3012C2.90873 36.7737 1.4911 37.8995 1.17144 38.1219C0.837883 38.3581 0.559914 38.4415 0.559914 38.4415C0.337541 37.2185 0.184655 35.9954 0.14296 35.4673C0.101266 34.9392 -0.0238064 33.1602 0.00399016 32.7988C0.0317868 32.4375 0.00399016 32.3819 0.00399016 32.3819C0.518227 32.5209 0.657191 32.5765 1.00465 32.7154C1.47719 32.8822 2.17212 33.0768 2.3667 33.1741H2.39448Z" fill="#473729"/>
<path fill-rule="evenodd" clip-rule="evenodd" d="M11.9704 28.6432C10.8446 28.1985 2.50568 24.5432 2.43619 24.5015C2.3667 24.4598 1.3521 24.1541 1.3521 24.1541C1.366 23.7788 1.5467 23.0422 1.63008 22.8615C1.71347 22.6948 1.93585 22.2778 1.93585 22.2778C2.21382 22.4307 2.57516 22.5558 2.92262 22.7504C3.27007 22.9449 6.91143 24.6266 7.81482 25.0158C8.71821 25.4049 11.8314 26.6836 11.9843 26.7253C12.165 26.7809 12.304 26.8504 12.304 26.8504C12.1372 27.2534 12.1094 27.5453 12.0816 27.7954C12.0538 28.0456 11.9843 28.3375 11.9982 28.4209C11.9982 28.5181 11.9704 28.6154 11.9704 28.6154V28.6432Z" fill="#473729"/>
<path fill-rule="evenodd" clip-rule="evenodd" d="M13.4575 23.9039C13.5409 23.8066 13.4853 23.6815 13.4992 23.5843C13.5131 23.487 12.8043 20.8463 12.6653 20.2765C12.5263 19.7205 11.6646 17.1076 11.6369 17.0382C11.6091 16.9687 11.5396 16.7324 11.4423 16.7463C11.2338 16.7741 5.32703 18.1222 4.95178 18.1917C4.57652 18.2751 4.31245 18.3585 4.18737 18.4002C3.9372 18.4836 3.50634 18.7337 3.50634 18.7337C3.74261 18.9005 4.09007 18.9978 4.28464 19.1229C4.47922 19.248 12.6514 23.5148 12.8043 23.6398C12.9711 23.7649 13.4575 23.89 13.4575 23.89V23.9039Z" fill="#473729"/>
<path fill-rule="evenodd" clip-rule="evenodd" d="M6.3555 14.6893C6.18872 14.7727 6.03584 14.8144 6.03584 14.8144C6.32771 14.328 6.92533 13.3829 7.27279 12.9382C7.60635 12.4934 8.69042 11.1036 9.27415 10.5615C9.84398 10.0195 10.7613 9.14392 11.0253 8.92155C11.2894 8.69918 11.4284 8.60189 11.4284 8.60189C11.5118 8.56019 11.6647 8.56019 11.6647 8.56019C11.7619 8.61579 11.7758 8.68528 11.8453 8.90765C11.9426 9.19952 12.2901 11.6178 12.3318 11.9514C12.3735 12.271 12.5819 13.3273 12.5958 13.4663C12.3457 13.5358 7.59245 14.3975 7.31448 14.4948C7.1477 14.5504 6.56396 14.5782 6.36939 14.6754L6.3555 14.6893Z" fill="#473729"/>
<path fill-rule="evenodd" clip-rule="evenodd" d="M15.1809 20.7212C15.0697 20.1653 14.764 17.6497 14.7501 17.2883C14.7223 16.927 14.3887 15.2592 14.3887 15.2592C14.5972 15.2592 14.6528 15.2175 14.9307 15.2453C15.2087 15.2731 19.7812 15.7317 19.9202 15.7734C20.0592 15.8151 20.3233 15.8429 20.4206 15.9402C19.6979 16.3571 18.8084 17.0104 17.7521 17.9832C16.6958 18.9561 15.3477 20.4988 15.1809 20.7073V20.7212Z" fill="#473729"/>
<path fill-rule="evenodd" clip-rule="evenodd" d="M22.6999 14.0361C22.1856 14.0361 16.0565 12.9521 15.7507 12.8826C15.445 12.8131 14.8751 12.7297 14.8751 12.7297C14.7362 11.6873 14.3748 10.0195 14.2636 9.46358C14.1524 8.89375 13.9301 7.96257 13.8745 7.53172C13.8189 7.05918 13.8467 6.98969 14.1385 7.32325C14.2914 7.49003 22.2134 13.5219 22.4497 13.7165C22.6999 13.911 22.8111 14.0361 22.6999 14.0222V14.0361Z" fill="#473729"/>
<path fill-rule="evenodd" clip-rule="evenodd" d="M27.0639 12.549C26.6053 12.6463 25.7158 12.8687 25.5351 12.9104C25.3684 12.9521 25.3823 13.0215 25.2989 12.9521C25.2572 12.9243 24.6734 12.5073 24.3816 12.271C24.0897 12.0348 16.9043 5.72494 16.7514 5.61376C16.5985 5.50257 16.6124 5.46088 16.7236 5.40528C16.8209 5.34969 17.7938 4.68257 18.0162 4.488C18.2246 4.29342 18.308 4.27952 18.308 4.27952C18.447 4.4602 20.7402 6.67003 21.1989 7.07308C21.9911 7.75409 23.5199 9.10223 24.0758 9.58867C24.6179 10.0751 25.6741 11.1175 25.9938 11.4232C26.3273 11.729 26.925 12.3127 26.9528 12.3544C26.9945 12.3961 27.0639 12.5351 27.0639 12.5351V12.549Z" fill="#473729"/>
<path fill-rule="evenodd" clip-rule="evenodd" d="M22.1301 3.12596C21.9911 2.97308 21.8521 2.8619 22.1578 2.76461C22.4636 2.66732 23.1307 2.38935 23.5755 2.25037C24.0202 2.12529 24.1592 2.06969 24.1592 2.06969C24.8124 2.90359 25.6324 3.668 26.3273 4.36291C27.0222 5.05783 30.9555 8.85206 31.3724 9.26901C31.7894 9.68596 33.0541 11.1731 33.0541 11.1731C33.3182 10.7839 35.0972 5.55817 35.2778 5.2663C35.4585 4.97444 36.626 2.30596 36.7094 2.06969C36.7927 1.83342 37.2653 0.957829 37.2653 0.957829C37.5572 1.01342 37.7934 1.02732 37.988 1.08291C38.2104 1.15241 38.7524 1.208 38.9053 1.24969C39.0582 1.27749 39.1694 1.37478 39.1694 1.37478C39.0026 1.56935 38.9609 1.83342 38.808 2.20868C38.6551 2.59783 37.8907 4.40461 37.5294 5.2802C37.168 6.15579 35.6809 10.5616 35.5141 10.8534C35.3473 11.1453 35.0972 11.5761 35.0277 11.7429C34.569 11.6456 31.0111 11.7846 31.0111 11.7846C30.9555 11.7429 30.8443 11.59 30.6775 11.4649C30.5246 11.3538 27.9673 8.76867 27.606 8.42121C27.2446 8.05986 23.3253 4.27952 23.1168 4.01545C22.9639 3.82088 22.4358 3.45952 22.1161 3.11207L22.1301 3.12596Z" fill="#473729"/>
<path fill-rule="evenodd" clip-rule="evenodd" d="M32.2063 6.48935C31.8172 5.97511 30.9416 5.01613 30.1911 4.16833C29.4406 3.30664 28.5789 2.26427 28.3565 2.04189C28.148 1.81952 27.5921 1.1941 27.5921 1.1941C28.5372 0.93003 28.9819 0.888335 29.6907 0.818844C30.6497 0.721556 31.7477 0.693759 32.3036 0.665963C32.8456 0.638166 33.2904 0.638166 33.6379 0.624268C33.9853 0.624268 34.305 0.624268 34.305 0.624268C33.9992 1.75003 32.2202 6.50325 32.2202 6.50325L32.2063 6.48935Z" fill="#473729"/>
<path fill-rule="evenodd" clip-rule="evenodd" d="M37.4321 12.3683C37.6267 12.0487 37.9324 11.6178 38.0853 11.3399C38.2521 11.0619 41.129 6.30867 41.3653 5.93342C41.6155 5.55816 42.63 4.01545 42.8107 3.70969C42.9914 3.40393 43.3944 2.62562 43.3944 2.62562C43.8809 2.59782 44.6036 3.00087 44.9928 3.15376C45.3819 3.29274 45.785 3.6402 45.9378 3.72359C46.0907 3.82087 46.2297 3.90426 46.2297 3.90426C45.7155 4.64087 45.5209 4.91884 45.4375 5.07172C45.2568 5.41918 44.1033 6.75342 43.7975 7.14257C43.4917 7.53172 43.1304 8.17104 42.769 8.56019C42.4077 8.96324 40.6704 11.451 40.3924 11.8402C40.1145 12.2293 39.9477 12.5212 39.8782 12.6602C39.7531 12.9382 39.7809 13.0215 39.5863 12.9521C39.3501 12.8826 38.7246 12.6741 38.4189 12.5907C38.0992 12.5073 37.4321 12.3544 37.4321 12.3544V12.3683Z" fill="#473729"/>
<path fill-rule="evenodd" clip-rule="evenodd" d="M42.8385 14.0639C43.2833 13.3551 44.4785 11.4649 44.9511 10.8256C45.4236 10.1724 46.9941 8.05986 47.3555 7.61511C47.7168 7.17037 48.8843 5.64155 49.0789 5.40528C49.2734 5.18291 49.1622 5.50257 49.1483 5.97511C49.1205 6.40596 48.8287 10.5754 48.8426 10.9646C48.8426 11.3538 48.7175 11.5622 48.6341 11.7151C48.37 11.9236 48.2033 12.0487 47.8697 12.146C47.5222 12.2432 43.5195 13.9249 43.2694 13.9944C43.0192 14.0639 42.8524 14.0639 42.8524 14.0639H42.8385Z" fill="#473729"/>
<path fill-rule="evenodd" clip-rule="evenodd" d="M48.7175 19.4143C48.3701 19.1086 47.7447 18.511 47.2582 18.0801C46.7718 17.6493 45.924 16.9543 45.5626 16.6347C45.2013 16.315 44.6731 15.8564 44.5758 15.8286C44.9928 15.634 45.646 15.5923 45.9657 15.5089C46.2992 15.4255 48.0226 15.092 48.2033 15.0225C48.4257 14.9391 48.6063 14.8696 48.7036 14.8557C48.9399 14.814 48.8982 14.7306 48.8843 15.1615C48.8565 15.5923 48.7731 18.8723 48.7731 19.053C48.7731 19.2198 48.8287 19.5116 48.7314 19.4143H48.7175Z" fill="#473729"/>
<path fill-rule="evenodd" clip-rule="evenodd" d="M51.2748 21.0131C51.108 21.2215 51.0524 21.2632 51.0663 21.1798C51.0524 20.749 51.0663 20.2904 51.0941 20.0541C51.0941 19.8317 51.1775 19.1646 51.1775 18.97C51.1775 18.7754 51.2609 17.5941 51.2748 17.2049C51.2748 16.8158 51.4138 15.2453 51.4138 15.0785C52.1087 14.87 52.7758 14.8005 53.2344 14.731C53.707 14.6615 56.6812 14.05 56.987 13.9944C57.2789 13.9388 57.4873 13.8832 57.5985 13.8693C57.7097 13.8415 57.5707 13.9666 57.3205 14.1473C57.0843 14.328 56.6256 14.7866 56.2921 15.009C55.9585 15.2314 53.8877 17.7609 53.4012 18.3446C52.9148 18.9283 51.4277 20.7907 51.2887 21.0131H51.2748Z" fill="#473729"/>
<path fill-rule="evenodd" clip-rule="evenodd" d="M52.5673 26.5863C52.4422 26.1693 52.2338 25.0992 52.1782 24.8351C52.1226 24.571 52.0809 24.1124 51.9975 24.0012C52.2199 23.8066 52.2338 23.7232 52.4006 23.5704C52.5673 23.4175 54.527 21.2493 54.8883 20.9297C55.2497 20.61 56.7368 19.109 56.9175 18.9005C57.0982 18.692 57.3483 18.2195 57.5568 17.9971C57.7653 17.7748 58.9883 16.3154 59.169 16.1765C59.3497 16.0236 59.5721 15.8568 59.5721 15.8568C59.7805 16.0653 59.9056 16.2182 60.1419 16.5934C60.3782 16.9687 60.6144 17.2327 60.6839 17.3856C60.7673 17.5385 60.948 17.8859 61.0175 17.9554C59.9334 18.8449 60.1697 18.6504 59.989 18.7893C59.7944 18.9283 59.4748 19.2758 59.4331 19.3314C59.3636 19.4287 59.1968 19.6649 58.9606 19.8873C58.7104 20.1097 53.7765 25.4883 53.5958 25.6551C53.429 25.8219 53.2761 26.0026 53.1789 26.1137C53.0816 26.2249 52.7341 26.4751 52.5673 26.6002V26.5863Z" fill="#473729"/>
<path fill-rule="evenodd" clip-rule="evenodd" d="M56.57 12.0765C56.167 12.1321 56.1392 12.1321 55.889 12.1877C55.7222 12.2293 51.2748 12.8131 51.2748 12.8131C51.2748 12.8131 51.3165 12.2015 51.3304 11.9236C51.3443 11.6456 51.5805 8.22664 51.65 7.92087C51.7334 7.54562 51.7195 7.42054 51.7612 7.10087C51.789 6.9341 51.7612 6.82291 51.8307 6.75342C51.8863 6.71172 51.9558 6.80901 52.0253 6.8924C52.1087 6.98969 52.0809 6.9202 52.2616 7.12867C52.4422 7.32325 52.9565 7.7402 53.1927 8.03206C53.429 8.32392 55.347 10.4504 55.5972 10.7422C55.8473 11.0341 56.0419 11.326 56.2365 11.5761C56.4311 11.8263 56.57 12.0765 56.57 12.0765Z" fill="#473729"/>
<path fill-rule="evenodd" clip-rule="evenodd" d="M54.7494 30.8392C54.6243 31.0198 54.5409 31.1032 54.7633 31.2283C54.9995 31.3534 60.4338 33.3409 61.1009 33.5493C61.768 33.7578 63.3524 34.3832 63.6443 34.4944C63.9222 34.6056 64.1724 34.7585 64.1724 34.7585C64.2002 35.1615 64.228 35.4951 64.228 36.0093C64.228 36.5236 64.2002 36.9822 64.1307 37.2046C63.5609 37.01 62.5324 36.5653 62.046 36.3707C61.5595 36.1761 60.1836 35.6619 59.5721 35.4395C58.9605 35.2171 57.8487 34.8002 57.3067 34.5917C56.7507 34.3832 53.5958 33.1741 53.3178 33.1046C53.3873 32.6876 53.4012 31.951 53.4568 31.6314C53.5124 31.3117 53.429 30.7002 53.3873 30.3805C53.3456 30.0609 53.3456 29.5744 53.3317 29.4354C53.3039 29.2131 53.4012 29.1714 53.5819 29.0185C53.7626 28.8656 54.6104 28.1012 55.1246 27.6704C55.6388 27.2395 62.1155 21.6524 62.2961 21.4995C62.4768 21.3466 62.8243 21.027 62.8243 21.027C62.8243 21.027 63.4219 22.528 63.547 22.9727C63.6721 23.4314 63.686 23.8483 63.686 23.8483C62.8243 24.3765 62.2961 24.7517 61.7124 25.2243C61.1287 25.6968 60.4477 26.1554 60.1836 26.3778C59.9195 26.6002 55.5694 29.908 55.3887 30.047C55.1385 30.2415 54.8606 30.6863 54.7494 30.8531V30.8392Z" fill="#473729"/>
<path fill-rule="evenodd" clip-rule="evenodd" d="M64.4504 32.1456C64.1307 31.9649 63.4636 31.7981 63.0606 31.6453C62.6575 31.4924 59.989 30.5751 59.7111 30.4917C59.4887 30.4222 59.3636 30.4222 59.2941 30.3805C59.2246 30.3388 59.5582 30.1859 59.6833 30.0609C59.8083 29.9358 63.7833 26.892 63.9778 26.7253C64.1724 26.5724 64.3531 26.3222 64.3531 26.628C64.3531 26.9337 64.3531 27.3368 64.3531 27.4619C64.3809 28.0456 64.506 29.3242 64.506 30.047C64.506 30.4222 64.506 30.8531 64.506 31.131C64.506 31.409 64.4782 31.9093 64.4643 32.1456H64.4504Z" fill="#473729"/>
<path fill-rule="evenodd" clip-rule="evenodd" d="M63.5053 41.4436C63.408 41.6242 63.269 41.8605 63.1578 42.0968C63.0605 42.3192 62.8799 42.611 62.7687 42.7778C62.6019 43.028 62.5324 43.2642 62.31 43.4449C62.1571 43.3615 59.2385 41.6937 58.8494 41.4853C58.4602 41.2907 53.1789 38.2886 53.0538 38.1914C52.9287 38.0941 52.9287 37.9551 52.9148 37.7327C52.9148 37.5103 52.9148 36.6903 52.9148 36.4402C52.9148 36.19 52.9148 35.7731 52.9148 35.7731C53.4846 36.0649 54.2073 36.4124 54.6104 36.6348C55.0134 36.8432 58.1267 38.4693 58.6965 38.789C59.2524 39.0947 60.6422 39.748 61.0175 40.0259C61.3788 40.3039 61.8653 40.568 62.1849 40.7764C62.5046 40.9849 62.8799 41.1378 63.0605 41.2212C63.2551 41.3185 63.5192 41.4575 63.5192 41.4575L63.5053 41.4436Z" fill="#473729"/>
<path fill-rule="evenodd" clip-rule="evenodd" d="M60.1836 46.989C59.711 47.1836 53.568 47.7951 53.2067 47.809C52.8314 47.8229 52.3311 47.8646 52.3311 47.8646C52.3033 47.2253 52.2199 46.433 52.1782 45.8771C52.1504 45.3212 52.067 44.3066 52.0114 43.8619C51.9558 43.431 51.8307 42.2219 51.789 41.8188C51.7334 41.4158 51.7751 41.1795 51.789 40.9849C51.8029 40.8042 51.8863 40.8598 52.0114 40.9849C52.1087 41.0822 53.6375 42.1663 54.3741 42.75C55.1107 43.3337 59.1968 46.1829 59.4748 46.4469C59.7527 46.711 60.1836 46.9751 60.1836 46.9751V46.989Z" fill="#473729"/>
<path fill-rule="evenodd" clip-rule="evenodd" d="M49.7877 49.1293C48.6897 49.2683 45.1317 49.5463 44.965 49.5185C44.7982 49.4907 44.7426 49.4212 44.8816 49.3239C45.0206 49.2266 46.0351 48.5178 46.2992 48.3232C46.5633 48.1286 47.2443 47.5032 47.6334 47.0863C48.0226 46.6832 48.7731 45.6825 48.9955 45.4046C49.2179 45.1266 49.329 44.9598 49.6209 44.7097C49.6348 44.9598 49.6487 45.2795 49.6765 45.5575C49.7043 45.8354 49.885 48.7541 49.7877 49.1154V49.1293Z" fill="#473729"/>
<path fill-rule="evenodd" clip-rule="evenodd" d="M52.1504 58.0381L52.0253 58.0798L51.9975 57.9825C51.9141 57.7185 51.7751 51.2558 51.7473 51.0612C52.6229 50.9917 58.9467 50.3385 59.308 50.2273C59.3358 50.3663 59.2663 50.3663 59.2524 50.4775C59.2385 50.5886 58.0849 52.3259 58.0155 52.4371C57.9599 52.5344 56.3616 54.4107 55.9168 54.9249C55.4721 55.4391 52.345 57.8436 52.1365 58.0659L52.1504 58.0381Z" fill="#473729"/>
<path fill-rule="evenodd" clip-rule="evenodd" d="M49.5931 58.3717C49.6348 58.6219 49.8711 59.3168 49.746 59.553C49.6348 59.5808 49.329 59.5808 49.1622 59.3585C48.9955 59.1361 42.4355 52.8819 42.1714 52.5483C41.9073 52.2147 41.6572 51.9646 41.6572 51.9646C42.1853 51.9229 47.2304 51.9229 47.5917 51.9646C47.9531 52.0202 48.7592 51.9646 48.7592 51.9646C48.9538 52.3676 49.4958 57.8713 49.5792 58.3856L49.5931 58.3717Z" fill="#473729"/>
<path fill-rule="evenodd" clip-rule="evenodd" d="M44.9233 62.4022C44.6036 61.8602 44.4785 61.6239 44.2839 61.3598C44.0755 61.1097 42.6301 59.4558 42.0602 58.8442C41.4904 58.2327 37.3626 53.5212 37.2097 53.4239C37.0568 53.3266 37.1402 53.3405 37.3348 53.271C37.5155 53.2154 37.8907 53.1181 38.2104 53.0486C38.5301 52.9791 38.7941 52.868 38.7941 52.868C39.3223 53.41 39.5307 53.6463 40.184 54.3273C40.8372 55.0083 45.507 60.0256 46.0073 60.5815C46.4938 61.1375 46.6884 61.3598 46.7996 61.4988C46.6884 61.5961 46.5216 61.7351 46.1463 61.8463C45.7711 61.9575 45.3958 62.2632 44.9372 62.4022H44.9233Z" fill="#473729"/>
<path fill-rule="evenodd" clip-rule="evenodd" d="M41.4904 63.7781C41.2819 63.9032 40.6565 64.0422 40.3924 64.1534C40.1284 64.2646 38.9192 64.5008 38.9192 64.5008C38.405 63.653 37.6684 62.8469 37.0985 62.1242C36.5426 61.3876 34.9443 59.3446 34.5968 58.872C34.2355 58.3995 30.8026 54.8276 30.8026 54.8276C30.4968 55.2863 30.2884 55.3697 29.9965 55.9812C29.7046 56.5927 25.5629 64.7788 25.5352 64.9456C25.2155 64.8066 24.4789 64.6815 24.1731 64.5564C23.8674 64.4313 23.4782 64.2785 23.3253 64.1673C23.506 63.5975 23.8118 63.0137 24.1175 62.569C24.4233 62.1242 24.3816 62.3605 24.5206 62.0547C24.6596 61.749 25.3823 60.4286 25.5907 60.0256C25.7853 59.6364 28.3982 54.4663 28.4816 54.2995C28.565 54.1188 28.6484 53.9381 28.7735 53.7575C29.5796 53.8686 31.6504 53.9242 32.1507 53.9242C33.2209 54.8137 33.9575 55.4808 34.9443 56.6344C35.9172 57.788 36.5982 58.5524 37.3487 59.3307C38.0853 60.109 41.2541 63.5975 41.5043 63.7781H41.4904Z" fill="#473729"/>
<path fill-rule="evenodd" clip-rule="evenodd" d="M29.0514 65.571C28.6623 65.571 28.4816 65.4181 28.3148 65.4042L28.1897 65.3764L28.2175 65.3069C28.5094 64.8066 28.5789 64.4452 28.8846 63.9032C29.1765 63.3473 29.9131 61.7212 30.066 61.3876C30.2189 61.068 30.5246 60.3313 30.7053 60.0256C30.886 59.7198 31.1084 59.2195 31.2334 59.1222C31.5531 59.5252 31.9284 59.9422 32.3036 60.3591C32.6789 60.7761 33.7212 61.7629 34.2355 62.291C34.7497 62.8191 35.0138 63.1527 35.3612 63.5975C35.6948 64.0422 36.0701 64.5425 36.2229 64.7649C36.3897 65.0012 36.3341 65.0568 35.7921 65.168C35.2223 65.2791 35.1389 65.293 34.4023 65.4598C33.6518 65.6266 32.9985 65.71 32.4982 65.71C31.9979 65.71 31.9701 65.7378 31.4141 65.7378C30.7748 65.7239 30.6636 65.7378 30.6636 65.7378C30.1355 65.7656 29.3433 65.5988 29.0514 65.5849V65.571Z" fill="#473729"/>
<path fill-rule="evenodd" clip-rule="evenodd" d="M32.3175 46.4747C32.248 46.2802 32.0118 45.7937 31.9006 45.4741C31.7894 45.1544 31.6087 44.3344 31.5531 43.9592C31.5114 43.5839 31.3585 42.5832 31.3585 42.4303C31.3585 42.2775 31.4141 41.7354 31.4975 41.4158C31.5809 41.0961 31.5948 40.9432 31.6782 40.7625C31.7338 40.6514 31.8728 40.151 31.9562 39.9425C32.0395 39.7341 32.0534 39.5534 32.1229 39.3588C32.1785 39.192 32.2063 39.0531 32.2897 38.8446C32.4982 39.0531 32.6511 39.3449 32.7761 39.6507C32.9012 39.9564 33.0263 40.3734 33.0819 40.7764C33.1514 41.1656 33.2348 42.0551 33.1653 42.5832C33.0958 43.1114 33.068 43.7229 32.9568 44.2232C32.8595 44.7097 32.7067 45.5297 32.5816 45.8076C32.4565 46.0856 32.4565 46.3358 32.3036 46.4886L32.3175 46.4747Z" fill="#473729"/>
<path fill-rule="evenodd" clip-rule="evenodd" d="M27.7033 43.4032C27.6755 43.2086 27.6616 42.9446 27.6894 42.7778C27.7033 42.5971 27.7867 41.9995 27.87 41.5964C27.9534 41.1934 28.1897 40.6375 28.3287 40.29C28.4677 39.9564 28.8707 39.3866 29.1209 39.0947C29.3711 38.8168 29.6907 38.4415 29.7602 38.3859C29.8575 38.2747 29.8992 38.3303 29.927 38.5805C29.927 38.7195 29.9965 38.8863 29.9687 39.2754C29.9409 39.6646 29.7602 40.3873 29.6212 40.7764C29.4823 41.1656 29.3294 41.5825 28.968 41.9578C28.6067 42.347 28.2036 42.8751 28.0646 43.0419C27.9395 43.2086 27.8284 43.3337 27.7033 43.3893V43.4032Z" fill="#473729"/>
<path fill-rule="evenodd" clip-rule="evenodd" d="M24.9792 40.568C24.7429 40.7069 24.5762 40.7486 24.7152 40.568C24.8541 40.3873 25.2294 39.609 25.3684 39.3449C25.5074 39.0808 26.0633 38.2331 26.2996 38.0246C26.5358 37.8022 27.0918 37.1907 27.5921 36.8988C28.0924 36.607 28.1341 36.607 28.3287 36.5653C28.4677 36.5375 28.4538 36.607 28.287 36.8849C28.1202 37.1768 28.0646 37.4409 27.7589 37.9412C27.467 38.4415 27.2585 38.789 26.7304 39.331C26.2023 39.887 25.7992 40.0815 25.4935 40.2761C25.1877 40.4707 25.1321 40.4707 24.9792 40.568Z" fill="#473729"/>
<path fill-rule="evenodd" clip-rule="evenodd" d="M25.2711 36.5653C25.5073 36.3985 25.7436 36.2317 25.9938 36.0788C26.0772 36.0232 26.1745 35.9676 26.2579 35.912C26.3552 35.8564 26.4246 35.7731 26.5219 35.7175C26.5775 35.6897 26.6053 35.6619 26.647 35.6202C26.7026 35.5785 26.7721 35.5368 26.8277 35.4951C26.8972 35.4256 26.8555 35.3839 26.7721 35.3561C26.5219 35.2866 26.4246 35.2727 26.2162 35.3144C25.8409 35.3839 25.6463 35.37 25.3962 35.4117C25.1738 35.4534 25.1599 35.4951 24.9097 35.5507C24.6596 35.6063 24.3399 35.7592 24.1314 35.8703C23.9229 35.9676 23.3114 36.1761 22.8945 36.4819C22.4775 36.7876 21.9911 37.149 21.8521 37.3436C22.269 37.3575 23.0196 37.3992 23.5616 37.2602C24.1036 37.1351 24.7151 36.9683 25.2711 36.5653Z" fill="#473729"/>
<path fill-rule="evenodd" clip-rule="evenodd" d="M26.9667 32.8405C26.4385 32.9795 26.2718 33.0629 25.9382 33.1741C25.6185 33.2853 25.5073 33.2436 25.2016 33.3965C24.2843 33.7161 23.5894 33.7717 23.0057 33.7856C22.4219 33.7995 21.7131 33.8134 21.0321 33.7578C20.3511 33.7022 19.7396 33.5493 19.4616 33.5215C19.267 33.5076 18.9752 33.3965 18.9057 33.3825C18.8362 33.3687 18.8084 33.327 19.0585 33.188C19.3087 33.049 19.5311 33.049 19.7118 32.9656C20.0453 32.8127 20.2816 32.7432 20.5179 32.6459C20.8653 32.507 21.4213 32.3541 21.9077 32.229C22.3941 32.1039 22.9779 32.0483 23.367 32.0761C23.7701 32.1039 24.2287 32.1317 24.5623 32.1178C24.8958 32.1178 25.3684 32.2151 25.688 32.2846C25.9938 32.3541 26.4663 32.4375 26.647 32.5765C26.8277 32.7154 26.7999 32.6876 26.9528 32.7988L26.9667 32.8405Z" fill="#473729"/>
<path fill-rule="evenodd" clip-rule="evenodd" d="M32.5816 25.4744C32.4148 25.7524 32.4148 25.7941 32.248 25.5439C32.1507 25.3771 31.9284 24.4737 31.8172 24.029C31.706 23.5843 31.6087 22.4724 31.6504 21.5273C31.6782 20.8463 31.7199 20.1931 31.7894 19.79C31.845 19.387 31.9423 18.5809 32.3314 18.1639C32.7484 18.7615 32.7484 19.0951 32.9151 19.7483C33.0819 20.3876 33.1097 21.43 33.1097 21.7358C33.1097 21.9998 33.1097 22.1388 33.1097 22.5558C33.1097 22.8198 33.0124 23.3897 32.9985 23.6815C32.9707 23.9734 32.9012 24.307 32.8734 24.5988C32.8456 24.9185 32.79 25.0436 32.7344 25.1965C32.665 25.3771 32.5955 25.4744 32.5955 25.4744H32.5816Z" fill="#473729"/>
<path fill-rule="evenodd" clip-rule="evenodd" d="M34.708 26.5168C35.0277 26.2527 35.528 25.7524 35.8199 25.1409C36.0978 24.5293 36.2646 24.0707 36.4314 23.5704C36.6121 23.0422 36.8067 21.6941 36.8067 21.6941C36.3619 22.0415 35.7921 22.792 35.5141 23.0422C35.2361 23.2924 34.9582 23.9178 34.847 24.2514C34.7358 24.5849 34.5829 25.3076 34.4856 25.6134C34.4023 25.9192 34.444 25.9192 34.444 26.0998C34.444 26.211 34.4717 26.4056 34.5134 26.4751C34.5551 26.5307 34.5968 26.5585 34.7219 26.5168H34.708Z" fill="#473729"/>
<path fill-rule="evenodd" clip-rule="evenodd" d="M36.4175 28.1985C36.5704 27.6287 37.0568 26.7392 37.8629 26.072C38.6551 25.4049 38.5856 25.4466 39.0165 25.252C39.4473 25.0714 39.4612 25.0297 39.7392 24.9046C40.0172 24.7795 39.8226 25.0158 39.6975 25.252C39.5724 25.4883 39.3639 26.0304 39.0999 26.35C38.8358 26.6697 38.7107 26.8503 38.2799 27.1839C37.849 27.5314 37.3487 27.9205 37.0151 28.0595C36.6677 28.1985 36.4314 28.1985 36.4314 28.1985H36.4175Z" fill="#473729"/>
<path fill-rule="evenodd" clip-rule="evenodd" d="M38.2104 30.3249C38.0714 30.3666 37.9463 30.4083 37.8073 30.4361C37.7101 30.45 37.5711 30.4917 37.5989 30.3527C37.5989 30.2554 37.6545 30.1581 37.6962 30.0748C37.7656 29.9358 37.8351 29.7412 37.9185 29.6022C38.0158 29.4632 38.1409 29.3659 38.266 29.2687C38.5579 29.0324 38.8775 28.81 39.225 28.6571C39.6419 28.4904 39.7809 28.3375 40.1006 28.1846C40.4202 28.0317 40.6287 27.9344 41.004 27.851C41.3792 27.7676 41.6711 27.7259 41.8378 27.712C41.3931 28.3097 41.1012 28.7266 40.5453 29.1297C39.9894 29.5327 39.4195 29.9358 39.086 30.0331C38.7524 30.1304 38.4189 30.2415 38.2104 30.2971V30.3249Z" fill="#473729"/>
<path fill-rule="evenodd" clip-rule="evenodd" d="M46.2575 32.7293C45.6738 32.9378 44.7982 33.2019 43.9921 33.2714C43.186 33.3548 42.5328 33.3687 41.5599 33.3825C40.587 33.3825 39.767 33.2992 39.4613 33.2436C39.1555 33.188 38.9192 33.1046 38.7802 33.0768C38.6274 33.049 38.266 32.9378 38.1826 32.8405C38.0992 32.7432 37.8629 32.5903 38.1826 32.4931C38.5162 32.3958 39.8921 31.8815 40.3785 31.7565C40.865 31.6314 41.4348 31.5758 41.7406 31.5897C42.3104 31.6175 42.5467 31.6314 42.9775 31.6731C43.3945 31.7148 43.7836 31.7564 44.145 31.8537C44.5063 31.951 45.1596 32.1039 45.5209 32.229C45.8684 32.3541 46.0073 32.4653 46.0907 32.5487C46.1741 32.632 46.2714 32.7293 46.2714 32.7293H46.2575Z" fill="#473729"/>
<path fill-rule="evenodd" clip-rule="evenodd" d="M43.6585 36.8706C43.1165 36.8984 42.4633 36.8845 41.8657 36.7873C41.2541 36.6761 40.6287 36.4676 40.2395 36.3008C39.8504 36.1201 39.0443 35.7449 38.7941 35.5503C38.5578 35.3557 38.5162 35.2029 38.5162 35.2029C38.8497 35.1195 39.1416 35.1612 39.4334 35.1612C39.7392 35.1612 40.2534 35.1334 40.7677 35.3279C41.2958 35.5225 41.8657 35.8283 42.2409 35.9951C42.6162 36.1618 43.186 36.4398 43.3667 36.5788C43.5473 36.7178 43.6446 36.8845 43.6446 36.8845L43.6585 36.8706Z" fill="#473729"/>
<path fill-rule="evenodd" clip-rule="evenodd" d="M40.6565 41.0405C40.4619 40.971 40.1006 40.7903 39.9199 40.6375C39.7392 40.4846 39.3362 40.2761 38.9748 40.0676C38.6134 39.8592 38.266 39.609 38.0853 39.3866C37.9046 39.1642 37.4182 38.2886 37.0985 37.7605C36.7789 37.2324 36.7233 37.0656 36.9873 37.2463C37.2514 37.4409 37.5155 37.5381 37.849 37.7466C38.1826 37.9551 38.7663 38.3859 39.3084 38.9697C39.8643 39.5395 40.1145 39.9842 40.3785 40.3734C40.5731 40.6792 40.6287 40.832 40.6565 41.0266V41.0405Z" fill="#473729"/>
<path fill-rule="evenodd" clip-rule="evenodd" d="M36.7789 43.6812C36.1395 42.9585 35.4585 42.0412 35.0555 41.0127C34.6385 39.9842 34.569 39.3727 34.5273 38.9836C34.5135 38.8585 34.5134 38.4554 34.5134 38.4554C34.5134 38.2608 34.5412 38.3303 34.7219 38.511C35.0555 38.8168 35.389 39.2754 35.6948 39.6646C35.9867 40.0537 35.8616 39.9564 36.1118 40.2205C36.348 40.4846 36.6816 41.0961 36.7511 41.7354C36.8206 42.3747 36.9456 43.1947 36.7789 43.6673V43.6812Z" fill="#473729"/>
<path fill-rule="evenodd" clip-rule="evenodd" d="M27.3558 30.4357C26.8833 30.394 26.244 30.3523 25.5769 30.1716C24.9097 29.9771 24.3677 29.8103 23.9369 29.5184C23.5199 29.2266 23.1308 29.032 22.8111 28.7818C22.6165 28.6289 22.4497 28.4066 22.3941 28.3371C22.3386 28.2815 22.2552 28.1286 22.2552 28.1286C22.5053 28.0869 22.547 28.1147 22.686 28.1286C22.8945 28.1703 22.8806 28.1703 22.9918 28.212C23.0891 28.2537 24.0897 28.4205 24.4789 28.5455C24.868 28.6706 25.2433 28.6984 25.8131 29.1432C26.383 29.5879 26.8972 29.9493 27.1474 30.1022C27.3975 30.255 27.7589 30.4218 27.3558 30.4357Z" fill="#473729"/>
<path fill-rule="evenodd" clip-rule="evenodd" d="M28.5789 28.671C28.2592 28.5181 27.8145 28.2541 27.5643 28.1151C27.3141 27.9761 26.9528 27.8093 26.6331 27.5731C26.3135 27.3368 25.9243 27.0588 25.6741 26.7809C25.4101 26.5029 25.285 26.3778 25.0209 25.9053C24.7569 25.4327 24.5067 24.9046 24.4094 24.7378C24.326 24.571 24.2148 24.3904 24.7013 24.571C25.1877 24.7517 25.3128 24.8629 25.6602 25.0019C26.0077 25.1409 26.3135 25.4188 26.4385 25.5022C26.5636 25.5856 26.8277 25.7802 26.9111 25.8775C26.9945 25.9748 27.1057 26.0998 27.3836 26.3778C27.6616 26.6697 27.9535 27.0449 28.1758 27.5175C28.3982 27.9761 28.5094 28.3097 28.5372 28.4348C28.5372 28.4765 28.565 28.671 28.565 28.671H28.5789Z" fill="#473729"/>
<path fill-rule="evenodd" clip-rule="evenodd" d="M29.7463 26.7809C29.2182 26.2249 28.6623 25.4049 28.3843 24.8073C28.1063 24.2236 27.9118 23.6537 27.7728 23.1951C27.6338 22.7365 27.5365 22.2222 27.4948 22.0137C27.4531 21.7914 27.4948 21.7219 27.4948 21.7219C27.8562 22.0832 28.0646 22.4168 28.3843 22.8337C28.704 23.2507 29.0097 23.8066 29.107 24.029C29.2043 24.2514 29.3711 24.4598 29.4406 24.6822C29.524 24.9602 29.6073 25.1131 29.6351 25.3354C29.6768 25.5856 29.7463 25.9053 29.7602 26.1971C29.7741 26.489 29.7463 26.7809 29.7463 26.7809Z" fill="#473729"/>
<path d="M110.233 95.8136L108.579 94.938L106.994 95.8136V75.4387L108.676 76.2726L110.233 75.4387V95.8136Z" fill="#473729"/>
<path d="M145.312 81.7346L149.44 95.8136L150.996 94.938L152.539 95.8136L158.515 75.4387L156.625 76.2726L155.221 75.4387L150.996 90.838L146.493 75.4387L145.312 76.2726L144.131 75.4387L139.641 90.838L135.402 75.4387L133.999 76.2726L132.122 75.4387L138.099 95.8136L139.641 94.938L141.184 95.8136L145.312 81.7346Z" fill="#473729"/>
<path d="M181.851 95.7997V87.6831L174.749 75.4387L177.014 76.2726L178.32 75.4387L183.588 84.8478L188.814 75.4387L190.134 76.2726L192.399 75.4387L185.325 87.6831V95.7997L183.546 94.9241L181.851 95.7997Z" fill="#473729"/>
<path d="M201.586 96.1055C197.097 96.1055 192.969 94.1458 193.706 89.6289L195.304 90.4211L197.014 89.6289C196.611 91.8526 198.89 93.298 201.586 93.298C204.602 93.298 206.451 92.0333 206.451 90.296C206.451 85.4872 194.178 87.8499 194.178 80.6645C194.178 77.037 197.597 75.1468 201.767 75.1468C206.159 75.1468 209.953 76.9953 209.063 81.2621L207.41 80.4421L205.644 81.2621C206.089 79.1496 204.644 77.8987 201.781 77.8987C199.46 77.8987 197.542 79.0106 197.542 80.7062C197.542 84.9729 209.814 82.9299 209.814 90.1153C209.814 94.118 206.353 96.1194 201.6 96.1194L201.586 96.1055Z" fill="#473729"/>
<path d="M126.23 89.0451C128.161 88.0028 129.635 85.376 129.732 82.6241C129.732 82.5268 129.746 81.9709 129.732 81.8875C129.51 77.9265 126.674 75.4387 123.116 75.4387H115.458V95.8136L117.029 94.938L118.558 95.8136V89.879H122.143C122.143 89.879 122.477 89.879 122.991 89.8234L127.689 95.8136L128.954 94.938L131.844 95.8136L126.216 89.0451H126.23ZM118.572 78.3573H123.033C124.979 78.3573 126.48 79.9557 126.633 81.957C126.633 82.0265 126.674 82.1377 126.66 82.4573C126.66 82.7909 126.605 83.0967 126.605 83.1523C126.355 85.5428 124.715 87.0855 122.741 87.0855H118.572V78.3573Z" fill="#473729"/>
<path d="M97.335 87.058L94.2913 78.8025L91.2754 87.058H97.335ZM96.0703 75.4252L103.7 95.7862L101.755 94.9245L100.462 95.7862L98.2662 89.8377H90.3858L88.1482 95.7862L86.8557 94.9245L84.9099 95.7862L92.5401 75.4252L94.3052 76.2591L96.0703 75.4252Z" fill="#473729"/>
<path d="M164.311 87.058H170.357L167.285 78.8025L164.311 87.058ZM169.092 75.4252L176.722 95.7862L174.846 94.9245L173.47 95.7862L171.274 89.8377H163.394L161.156 95.7862L159.808 94.9245L157.918 95.7862L165.548 75.4252L167.341 76.2591L169.092 75.4252Z" fill="#473729"/>
<path d="M120.976 3.18185H78.614V63.153L84.3818 60.3038V8.94964H118.127L120.976 3.18185Z" fill="#473729"/>
<path d="M120.976 17.1632L118.113 11.3815H86.8141V60.3035L92.5819 63.1527L92.5958 41.5408H115.723L112.86 35.7591H92.5958V33.3408H112.873L115.723 27.573H92.5958V17.1632H120.976Z" fill="#473729"/>
<path d="M130.913 2.63943V63.1526L136.681 60.3035V5.48858L130.913 2.63943Z" fill="#473729"/>
<path d="M144.881 2.63943V63.1526L139.113 60.3035V5.48858L144.881 2.63943Z" fill="#473729"/>
<path d="M204.032 2.63943V63.1526L209.8 60.3035V5.48858L204.032 2.63943Z" fill="#473729"/>
<path d="M218 2.63943V63.1526L212.232 60.3035V5.48858L218 2.63943Z" fill="#473729"/>
<path d="M183.991 41.7214V5.48858L178.223 2.63943V40.6652C178.223 46.2523 176.875 49.8658 170.885 49.8658C166.896 49.8658 164.241 47.8506 161.573 44.793L159.391 50.7414C162.143 53.0485 164.964 55.6336 171.635 55.6336C178.306 55.6336 183.991 50.8526 183.991 41.7214Z" fill="#473729"/>
<path d="M192.191 41.6519V2.63943L186.423 5.48858V42.2774C186.423 52.5343 179.14 58.0658 171.469 58.0658C163.797 58.0658 159.877 54.5218 157.709 52.5204L151.747 54.7302C156.069 59.1638 161.517 63.8197 171.302 63.8197C181.086 63.8197 192.191 57.3848 192.191 41.6519Z" fill="#473729"/>
</svg>
