<svg width="284" height="88" viewBox="0 0 284 88" fill="none" xmlns="http://www.w3.org/2000/svg">
<path d="M184.259 68.0732V87.6758H187.319V68.0732H184.259ZM237.751 68.0732V87.6758H253.475V84.8132H240.824V78.6924H251.852V76.0409H240.824V70.7379H253.066V68.0864H237.751V68.0732ZM108.118 68.0732V87.6758H111.178V68.0732H108.118ZM158.747 87.6758H173.033V85.0243H161.807V68.0864H158.747V87.689V87.6758ZM135.266 79.1013C133.023 79.1013 130.767 78.4945 129.343 77.6767V70.329H137.31C141.189 70.329 142.613 72.3737 142.613 74.2073C142.613 76.8588 140.569 79.1013 135.266 79.1013ZM87.9082 79.9192H78.9248L83.4099 70.7379L87.895 79.9192H87.9082ZM205.299 87.6758V71.5426L218.768 86.8579C219.177 87.4648 219.784 87.6758 220.602 87.6758H222.435V68.0732H219.573V83.5864L206.302 68.8911C205.893 68.2711 205.484 68.0732 204.468 68.0732H202.424V87.6758H205.299ZM129.356 87.6758V80.526C130.781 81.3439 132.825 81.7528 135.081 81.7528C136.308 81.7528 137.126 81.7528 138.141 81.5549L142.231 87.6758H145.502L141.017 80.7371C143.88 79.5103 145.713 77.0566 145.713 74.2073C145.713 70.5268 142.653 67.8754 137.139 67.8754H126.322V87.6758H129.382H129.356ZM91.5887 87.6758H94.6491L85.4678 68.8911C85.0589 68.2711 84.6499 68.0732 84.0431 68.0732H81.8006L72.2103 87.6758H75.2708L77.7244 82.5707H89.1614L91.6151 87.6758H91.5887ZM275.927 67.6643C270.624 67.6643 267.155 69.9068 267.155 73.3762C267.155 76.6477 269.806 77.8745 274.093 78.6792L276.138 79.0881C279.198 79.6949 280.834 80.7239 280.834 82.3596C280.834 83.9954 279.198 85.2222 275.122 85.2222C271.455 85.2222 268.592 83.9954 267.775 83.3886L266.957 86.2511C267.774 86.6601 270.637 87.8869 274.924 87.8869C280.649 87.8869 283.908 85.6443 283.908 82.1749C283.908 78.9035 281.045 77.2809 276.56 76.463L274.515 76.0541C271.244 75.4473 270.228 74.8273 270.228 73.1915C270.228 71.5558 272.062 70.329 275.742 70.329C278.803 70.329 281.045 70.9358 282.074 71.3447L282.694 68.8911C281.467 68.4822 279.225 67.6643 275.953 67.6643H275.927Z" fill="#224099"/>
<path d="M170.87 46.6764V22.6811L185.908 21.6917V15.5049H147.204V21.6917L162.242 22.6811V46.6764H170.87ZM100.123 46.6764L103.659 39.4871H82.7635V15.5049H73.8064V46.6764H100.123ZM133.406 34.6194H121.797L127.654 22.127L133.392 34.6194H133.406ZM199.64 34.6194L205.51 22.127L211.262 34.6194H199.64ZM250.599 39.0385C250.942 40.1466 252.261 40.9117 253.699 40.9117H262.656L269.291 22.5624L275.597 46.6632H284L277.035 19.027C276.375 16.2568 274.832 15.4917 272.286 15.4917H263.553L257.261 33.7356L252.274 18.2487C251.615 16.27 250.388 15.4917 248.409 15.4917H238.568L230.495 46.6632H239.017L245.204 22.5624L250.625 39.0254L250.599 39.0385ZM226.498 46.6632L211.671 17.4704C210.906 16.0326 210.128 15.4917 208.36 15.4917H200.181L184.589 46.6632H194.1L196.857 40.9117H214.322L217.079 46.6632H226.498ZM148.668 46.6632L133.854 17.4704C133.076 16.0326 132.311 15.4917 130.53 15.4917H122.351L106.759 46.6632H116.257L119.027 40.9117H136.492L139.144 46.6632H148.668Z" fill="#224099"/>
<path d="M12.7034 56.5304V46.9666C36.5097 38.3217 49.0548 33.7619 50.3388 33.287C53.5048 32.1393 54.0324 31.0444 52.6473 30.5431C54.072 31.0576 54.072 31.2159 54.072 35.4372C54.072 39.9487 54.0193 41.5185 52.1461 42.2044L12.7166 56.5436L12.7034 56.5304ZM21.8584 78.5207C21.8584 76.5419 22.0826 74.8402 20.3149 75.4602L12.7166 78.2173V87.7283L20.0907 85.0504C21.9243 84.3777 21.8584 82.5177 21.8584 80.7896V78.5075V78.5207ZM33.7175 58.5619C33.7175 56.57 33.9286 54.8947 32.1609 55.5279L12.7166 62.5985V72.136L31.7256 65.2368C33.5856 64.564 33.7043 63.2449 33.7043 61.253V58.5619H33.7175ZM52.6605 15.0035C54.1248 15.518 53.5048 16.5601 50.3388 17.721C48.7954 18.275 17.1094 29.7384 5.28982 34.0257C4.97322 34.1312 4.683 34.2368 4.41917 34.3423C3.31108 34.738 2.42726 35.0546 1.84683 35.2789C0.606829 35.6482 0.0923536 35.5295 0.0263961 34.3687C0.0263961 35.0942 0.0264049 36.5716 1.29279 37.0202L11.6217 40.7665C11.6217 40.7665 12.3605 40.9908 13.0464 40.7534C14.7349 40.1597 21.6077 37.6402 52.1065 26.5593C53.9797 25.8865 54.0588 24.3959 54.0588 19.8844C54.0588 15.6763 54.0588 15.4784 52.6605 14.9903" fill="#224099"/>
<path d="M42.1864 36.2676C42.1864 36.2676 49.7584 33.5105 50.3388 33.2995C53.5048 32.1518 54.0324 31.0444 52.6473 30.5431C52.7265 30.5695 52.7792 30.5952 52.8452 30.6216C52.7265 30.5556 52.5813 30.5029 52.4231 30.4501C51.9613 30.2786 46.9486 28.4582 46.9486 28.4582L33.823 33.2335L42.1996 36.2676H42.1864ZM20.6975 28.4714L33.8362 23.7092C33.8362 23.7092 6.83319 13.8948 2.08424 12.1799C0.936582 11.7709 0.0263714 11.3092 0.0263714 12.5228V17.3377C0.0263714 20.042 1.37192 21.4007 3.95746 22.3637L20.7107 28.4714H20.6975Z" fill="#EE3F60"/>
<path d="M0.0131843 34.3819C0.0659503 35.5427 0.580413 35.6614 1.82041 35.2921C2.40084 35.081 3.28467 34.7512 4.39276 34.3555C4.66978 34.2499 4.96 34.1444 5.2634 34.0389C7.18936 33.3397 9.64298 32.4559 12.4132 31.4533C7.82255 29.7912 4.06298 28.4193 2.05787 27.6806C0.910211 27.2584 0 26.7835 0 28.0104V34.3555C0 34.5006 -7.24561e-06 34.6325 0.0131843 34.7512C0.0131843 34.6193 0.0131843 34.4874 0.0131843 34.3687V34.3819Z" fill="#EE3F60"/>
<path d="M16.7268 11.5206L42.0809 20.7151C46.566 19.0925 49.8507 17.9053 50.352 17.7206C53.4784 16.573 54.1248 15.544 52.7133 15.0296C40.4188 10.584 19.5234 3.01209 14.7745 1.25762C13.6268 0.835487 12.7166 0.360593 12.7166 1.5874V6.40231C12.7166 9.10657 14.1545 10.5444 16.74 11.5206H16.7268Z" fill="#EE3F60"/>
</svg>
