<?xml version="1.0" encoding="utf-8"?>
<!-- Generator: Adobe Illustrator 19.2.1, SVG Export Plug-In . SVG Version: 6.00 Build 0)  -->
<svg version="1.1" id="layer" xmlns="http://www.w3.org/2000/svg" xmlns:xlink="http://www.w3.org/1999/xlink" x="0px" y="0px"
	 viewBox="0 0 652 652" style="enable-background:new 0 0 652 652;" xml:space="preserve">
<style type="text/css">
	.st0{fill:#413691;}
	.st1{fill:url(#path656_1_);}
	.st2{fill:#EF3138;}
</style>
<g id="Page-1">
	<g id="logo_hawaiian_airlines_logoroll">
		<g id="hawaiian_airlines_logo" transform="translate(0.000000, 8.000000)">
			<g id="g556" transform="translate(0.000000, 9.931034)">
				<g id="Group">
					<g id="g558">
						<g id="g564" transform="translate(76.640843, 18.091173)">
							<path id="path566" class="st0" d="M379.7,361c0-0.4-0.2-0.6-0.6-0.6h-0.8c-0.1,0-0.1,0-0.1,0.1v0.9c0,0.1,0,0.1,0.1,0.1h0.8
								C379.5,361.5,379.7,361.3,379.7,361L379.7,361z M377.6,363.7c-0.1,0-0.1-0.1-0.1-0.1V360c0-0.1,0.1-0.1,0.1-0.1h1.5
								c0.9,0,1.4,0.4,1.4,1.2c0,0.6-0.3,0.9-0.8,1.1l0.8,1.5c0.1,0.1,0,0.1-0.1,0.1H380c-0.1,0-0.1-0.1-0.2-0.1l-0.8-1.4h-0.7
								c-0.1,0-0.1,0-0.1,0.1v1.4c0,0.1-0.1,0.1-0.1,0.1H377.6L377.6,363.7z M381.8,361.8c0-1.7-1.3-2.9-2.9-2.9
								c-1.7,0-2.9,1.2-2.9,2.9s1.3,2.9,2.9,2.9C380.5,364.6,381.8,363.4,381.8,361.8L381.8,361.8z M375.3,361.8
								c0-2,1.5-3.5,3.5-3.5s3.5,1.5,3.5,3.5s-1.5,3.6-3.5,3.6C376.8,365.3,375.3,363.8,375.3,361.8L375.3,361.8z"/>
						</g>
						<g id="g568" transform="translate(0.024121, 0.074050)">
							<path id="path570" class="st0" d="M71.6,274.7v53.7c0,2.4,0,5.8-3.3,5.8h-9.1v-24.3H32.7v18.5c0,2.4,0.2,5.8-3.1,5.8h-9.3
								v-53.7c0-2.4,0-5.8,3.3-5.8h9.1v25.6h26.6v-19.8c0-2.3-0.2-5.8,3.1-5.8H71.6z"/>
						</g>
						<g id="g572" transform="translate(10.284890, 0.065845)">
							<path id="path574" class="st0" d="M106.2,308.3l-8.5-25l-12.1,33l0.5,0.1c1.6-3,5.6-8.2,12.6-8.2L106.2,308.3L106.2,308.3
								L106.2,308.3z M125.9,334.2H115l-5.7-16.6H85.6l-4.1,12.2c-0.7,1.9-1.6,4.4-4.7,4.4h-9l19.4-54.6c0.7-1.9,1.6-4.9,4.9-4.9
								h14.7l20.5,57.6C127.6,333.4,127.1,334.2,125.9,334.2L125.9,334.2z"/>
						</g>
						<g id="g576" transform="translate(20.347104, 0.074050)">
							<path id="path578" class="st0" d="M200.7,274.7l-19.8,55.1c-0.4,1.2-1.2,4.4-4.3,4.4h-7.6l-11.3-31.7l-10,27.4
								c-0.4,1.2-1.2,4.4-4.3,4.4h-8.3l-20.5-57.6c-0.4-1.2,0.2-1.9,1.4-1.9h10.9l14.8,44.3l10.7-31.6l-3.9-10.8
								c-0.4-1.2,0.2-1.9,1.4-1.9h11l13.7,43.1l11.9-38.8c0.6-1.9,1.6-4.3,4.7-4.3H200.7L200.7,274.7z"/>
						</g>
						<g id="g580" transform="translate(35.038663, 0.065845)">
							<path id="path582" class="st0" d="M220.5,308.3l-8.5-25l-12.1,33l0.5,0.1c1.6-3,5.6-8.2,12.6-8.2L220.5,308.3L220.5,308.3
								L220.5,308.3z M240.2,334.2h-10.9l-5.7-16.6H200l-4.1,12.2c-0.7,1.9-1.6,4.4-4.7,4.4h-9l19.4-54.6c0.7-1.9,1.6-4.9,4.9-4.9
								h14.7l20.5,57.6C242,333.4,241.4,334.2,240.2,334.2L240.2,334.2z"/>
						</g>
						<g id="g584" transform="translate(46.761322, 0.141520)">
							<path id="path586" class="st0" d="M236.9,280.4c0-2.4,0-5.8,2.9-5.8h9.5v45.8v7.9c0,2.4,0,5.8-2.9,5.8h-9.5V280.4z"/>
						</g>
						<g id="g588" transform="translate(51.237106, 0.141520)">
							<path id="path590" class="st0" d="M257.6,280.4c0-2.4,0-5.8,2.9-5.8h9.5v44.8v8.9c0,2.4,0,5.8-2.9,5.8h-9.5V280.4z"/>
						</g>
						<g id="g592" transform="translate(54.548669, 0.065845)">
							<path id="path594" class="st0" d="M311.4,308.3l-8.5-25l-12.1,33l0.5,0.1c1.6-3,5.6-8.2,12.6-8.2L311.4,308.3L311.4,308.3
								L311.4,308.3z M331.1,334.2h-10.9l-5.7-16.6h-23.7l-4.1,12.2c-0.7,1.9-1.6,4.4-4.7,4.4h-9l19.4-54.6c0.7-1.9,1.6-4.9,4.9-4.9
								H312l20.5,57.6C332.9,333.4,332.3,334.2,331.1,334.2L331.1,334.2z"/>
						</g>
						<g id="g596" transform="translate(66.314677, 0.074050)">
							<path id="path598" class="st0" d="M379.9,274.7v53.7c0,2.4,0,5.8-2.9,5.8h-7.8l-29.4-39.3v33.5c0,2.4,0,5.8-3.2,5.8h-8.8
								v-53.7c0-2.4,0-5.8,2.9-5.8h8.1l29.1,40.1v-34.3c0-2.4-0.5-5.8,2.8-5.8H379.9z"/>
						</g>
						<g id="g600" transform="translate(37.522825, 14.053986)">
							<path id="path602" class="st0" d="M211.2,358.8l-4.7-13.5h-0.1l-4.8,13.5H211.2z M204.5,340c0.1-0.2,0.2-0.4,0.5-0.4h2.9
								c0.3,0,0.5,0.2,0.6,0.4l10.3,28.9c0.1,0.2-0.1,0.4-0.3,0.4h-3.1c-0.3,0-0.5-0.1-0.6-0.4l-2.3-6.5h-12.2l-2.3,6.5
								c-0.1,0.3-0.3,0.4-0.6,0.4h-3.1c-0.3,0-0.4-0.2-0.3-0.4L204.5,340z"/>
						</g>
						<g id="g604" transform="translate(43.574507, 14.111946)">
							<path id="path606" class="st0" d="M222.2,339.9c0-0.2,0.2-0.4,0.4-0.4h3c0.3,0,0.4,0.2,0.4,0.4v22.9v6c0,0.2-0.2,0.4-0.4,0.4
								h-3c-0.3,0-0.4-0.2-0.4-0.4V339.9z"/>
						</g>
						<g id="g608" transform="translate(46.729699, 14.116679)">
							<path id="path610" class="st0" d="M253.4,348c0-3.1-2.1-4.9-5.6-4.9h-7.1c-0.2,0-0.3,0.1-0.3,0.2v9.4c0,0.2,0.1,0.2,0.3,0.2
								h7.1C251.3,353,253.4,351.1,253.4,348L253.4,348z M254.1,369.2c-0.3,0-0.4-0.1-0.6-0.4l-6-12.2h-6.7c-0.2,0-0.3,0.1-0.3,0.2
								v11.9c0,0.2-0.2,0.4-0.4,0.4h-3c-0.3,0-0.4-0.2-0.4-0.4v-28.9c0-0.2,0.2-0.4,0.4-0.4H248c5.6,0,9.4,3.4,9.4,8.5
								c0,4.1-2.3,7-5.9,8.1l6.4,12.5c0.2,0.2,0.1,0.5-0.3,0.5L254.1,369.2L254.1,369.2z"/>
						</g>
						<g id="g612" transform="translate(52.525614, 14.111946)">
							<path id="path614" class="st0" d="M263.5,339.9c0-0.2,0.2-0.4,0.4-0.4h3c0.3,0,0.4,0.2,0.4,0.4v25.4c0,0.2,0.1,0.2,0.3,0.2
								H282c0.3,0,0.4,0.2,0.4,0.4v2.7c0,0.2-0.2,0.4-0.4,0.4h-18.1c-0.3,0-0.4-0.2-0.4-0.4V339.9z"/>
						</g>
						<g id="g616" transform="translate(57.408978, 14.111946)">
							<path id="path618" class="st0" d="M286.4,339.9c0-0.2,0.2-0.4,0.4-0.4h3c0.3,0,0.4,0.2,0.4,0.4V361v7.7
								c0,0.2-0.2,0.4-0.4,0.4h-3c-0.3,0-0.4-0.2-0.4-0.4V339.9z"/>
						</g>
						<g id="g620" transform="translate(60.564394, 14.111946)">
							<path id="path622" class="st0" d="M300.9,339.9c0-0.2,0.2-0.4,0.4-0.4h2.8c0.4,0,0.6,0.1,0.8,0.4l13.6,22.3h0.2v-22.3
								c0-0.2,0.2-0.4,0.4-0.4h2.8c0.3,0,0.4,0.2,0.4,0.4v28.9c0,0.2-0.2,0.4-0.4,0.4h-2.8c-0.3,0-0.6-0.1-0.8-0.4l-13.7-22.2h-0.1
								v22.2c0,0.2-0.2,0.4-0.4,0.4h-2.8c-0.3,0-0.4-0.2-0.4-0.4V339.9L300.9,339.9z"/>
						</g>
						<g id="g624" transform="translate(66.763209, 14.111946)">
							<path id="path626" class="st0" d="M329.8,339.9c0-0.2,0.2-0.4,0.4-0.4h18.1c0.3,0,0.4,0.2,0.4,0.4v2.7c0,0.2-0.2,0.4-0.4,0.4
								H334c-0.2,0-0.3,0.1-0.3,0.2v8.7c0,0.2,0.1,0.2,0.3,0.2h12.2c0.3,0,0.4,0.2,0.4,0.4v2.7c0,0.2-0.2,0.4-0.4,0.4H334
								c-0.2,0-0.3,0.1-0.3,0.2v9c0,0.2,0.1,0.2,0.3,0.2h14.3c0.3,0,0.4,0.2,0.4,0.4v2.7c0,0.2-0.2,0.4-0.4,0.4h-18.1
								c-0.3,0-0.4-0.2-0.4-0.4V339.9z"/>
						</g>
						<g id="g628" transform="translate(71.902384, 13.971399)">
							<path id="path630" class="st0" d="M353.7,366.1c-0.2-0.2-0.3-0.4-0.1-0.7l2-2.2c0.2-0.2,0.4-0.2,0.6-0.1c2,1.6,5,3.1,8.4,3.1
								c4.2,0,6.6-2.1,6.6-5.1c0-2.6-1.5-4.2-6.3-4.9l-1.5-0.2c-5.9-0.8-8.8-3.6-8.8-8.2c0-5.3,3.9-8.7,9.8-8.7
								c3.5,0,6.9,1.1,9.2,2.7c0.3,0.2,0.3,0.4,0.1,0.6l-1.5,2.4c-0.2,0.2-0.4,0.2-0.6,0.1c-2.5-1.5-4.7-2.2-7.3-2.2
								c-3.7,0-5.7,2-5.7,4.8c0,2.5,1.7,4.2,6.3,4.7l1.5,0.2c5.9,0.8,8.8,3.4,8.8,8.3c0,5.2-3.7,9-11,9
								C360,369.9,355.9,368.1,353.7,366.1"/>
						</g>
					</g>
				</g>
			</g>
			<g id="Group_1_" transform="translate(79.448276, 0.000000)">
				<g id="g638" transform="translate(0.000000, 0.112508)">
					<g id="g644">
						<g id="g646">
							
								<linearGradient id="path656_1_" gradientUnits="userSpaceOnUse" x1="-28.5103" y1="727.6081" x2="-28.7307" y2="724.4297" gradientTransform="matrix(17.9654 0 0 -30.4448 952.382 22396.9219)">
								<stop  offset="0" style="stop-color:#D2068A"/>
								<stop  offset="0.737" style="stop-color:#413691"/>
								<stop  offset="1" style="stop-color:#413691"/>
							</linearGradient>
							<path id="path656" class="st1" d="M388.7,299.4c0,35,25.5,64.1,59.1,69.9l0,0c-0.3,2.5-0.6,4.9-1,6.8l0,0
								c-2.3,11.2-10.1,21.5-14.4,24l0,0c11.3-1,20.3-4.3,25.7-9.5l0,0l0,0c-0.4,0-3.9-0.1-4.2-0.1l0,0c2.1-0.8,4.3-1.8,6.3-3l0,0
								l0,0l0,0l0,0l0,0l0,0l0,0c0.8-6.5,0.5-14.3-1.2-23.9l0,0c-2.3-12.4-7-16.6-7.8-17.4l0,0c-0.1-0.1-0.1-0.1-0.1-0.1l0,0
								c0-0.1,0.1-0.1,0.2-0.1l0,0c4-2.5,7.5-5.4,9.1-6.8l0,0c1.2-1,0.8-1.5-0.5-1l0,0c-3.4,1.5-8.9,3.4-16,4.3l0,0
								c-6.2,0.8-13.6,0.6-21.6-0.9l0,0c0,0-5.6-0.8-4.8-6.4l0,0c0.2-1.6,1-3.2,1.7-4.8l0,0c0.2-0.5,0.7-2,0.5-3.2l0,0
								c-0.1-0.3-0.5-0.9-0.7-1.2l0,0c-0.4-0.6-0.6-1.5-0.1-2.5l0,0c0.4-0.8,1.8-2.1,3.9-2.3l0,0c1-0.1,2.1-0.1,3.3-0.1l0,0
								c1.5,0,3,0,4.2-0.2l0,0c3.2-0.6,5.2-2.7,4.8-3.4l0,0c-0.3-0.4-3.2,0.1-4.1,0.3l0,0c-1.4,0.3-4.1-0.9-5.5-1.3l0,0
								c-2.1-0.7-3.3-1.2-5.1-0.4l0,0c-1.2,0.5-2.1,2.8-2.4,1.7l0,0c-0.1-0.5,0.1-1,0.5-1.6l0,0c0.4-0.6,1.2-1.6,1.2-2.2l0,0
								c0.1-0.6,0.3-1.6-1.6-2.9l0,0c-1.4-1-2.3-1.6-2.8-2.2l0,0c-1.8-1.8-2.1-3.6,1.4-6.5l0,0c2.5-2,7.9-7.5,9.5-10.9l0,0
								c0.3-0.5,1.6-2.6,0.1-4.8l0,0c-1.1-1.6-1.3-1.9-1.6-2.5l0,0c-0.8-1.5-0.3-2.9,1.1-4.9l0,0c0.6-1,1.2-2.2,2.5-6.3l0,0
								c1.6-4.7,3.9-8.8,7.3-12.3l0,0l0,0c0.3-0.7,0.6-6.1,3.8-11.1l0,0c1-2,2.5-4.1,4.3-6.1l0,0c1.3-1.3,3.3-2.9,5.9-4.4l0,0
								c2.7-1.5,5.9-3,9.8-4.1l0,0c4.6-1.3,10-2.2,16-2.2l0,0c4.5,0.1,8.7,0.4,13.8,1.7l0,0l0,0l0,0c0,0,0.3,0.1,0.6,0.2l0,0
								c-9.1-4.2-19.1-6.5-29.8-6.5l0,0C420.7,228.4,388.7,260.2,388.7,299.4 M417.2,308.1c-0.1,0.3,0.1,0.4,0.4,0.5l0,0
								c1.3,0.6,1.9,0.9,4.3,2.3l0,0c2.8,1.6,4,0.3,4.6-0.8l0,0c0.2-0.3,0.4-1.5,0.1-1.8l0,0c-0.3-0.4-0.8-0.1-1.3,0.4l0,0
								c-0.6,0.6-2.1,0.3-2.6,0.2l0,0c-0.5-0.1-2.8-0.6-4.2-0.9l0,0c-0.3-0.1-0.5-0.1-0.7-0.1l0,0
								C417.4,307.9,417.2,307.9,417.2,308.1"/>
						</g>
					</g>
				</g>
				<g id="g660" transform="translate(6.993562, 0.000000)">
					<g id="g666" transform="translate(0.010605, 8.040664)">
						<path id="path668" class="st0" d="M442.7,267.4c-0.4-0.1-9.8-2.2-13-2c-3.2,0.2-5.8,2-7.5,3.9c-0.9,1-1.3,2-1.5,2.9
							c-0.1,1.5,1,2.2,2.2,1.8c0.9-0.3,1.6-1,2.6-2.3c0.6-0.9,1-2,1.9-2.5c1.5-1,4.1-1.1,8.3-1.1c3.2,0.1,5.9,0.3,6.5,0.3
							C443.5,268.3,443.2,267.5,442.7,267.4"/>
					</g>
					<g id="g670" transform="translate(0.724499, 9.182782)">
						<path id="path672" class="st0" d="M436.5,274.8c-1.7-1-4.1-1-4.6-1.1c-0.5-0.1-0.6-0.6,0.1-0.9c1-0.4,2.8-0.1,2.8-0.4
							c0.1-0.3-0.3-0.9-1.7-1.4c-0.7-0.3-2.1-0.4-3.2-0.4c-2.9,0.3-4.5,2.1-4.8,2.4c-0.3,0.3-0.8,0.8-1,1.6c-0.2,1,0.5,1.8,1.1,2.7
							c0.3,0.5,0.6,0.9,0.7,1.2c0.1,0.5,0.1,0.8-0.4,1.1c-0.5,0.4-0.2,1.1,0.8,0.8c1.2-0.3,1.8-0.6,2.7-1.4c1.2-1,1.2-1.7,2.1-2.5
							c0.8-0.8,3.6-0.8,5-0.6C437.9,276.3,438.3,275.9,436.5,274.8"/>
					</g>
					<g id="g674" transform="translate(1.361417, 0.815349)">
						<path id="path676" class="st0" d="M524.1,296.5c0-3.2-0.9-9.5-1.1-10.8c-0.4-3.8-1.3-9.1-4.3-16.5c-3.2-8-5.9-13.6-13.9-21.4
							c-9.4-9.1-20.5-12.9-23.1-13.6c-0.4-0.1-0.6-0.2-0.6-0.2l0,0c-5-1.3-9.3-1.6-13.8-1.7c-15.9-0.3-27.6,6.3-31.7,10.7
							c-1.9,2-3.3,4.1-4.3,6.1c-3.2,5-3.6,10.5-3.8,11.1l0,0c0.3-0.2,4.1-4.4,8.4-5.6c1,1.7,3.3,4,7.7,6.2c4.5,2.3,9.5,3.6,9.5,3.6
							s6.2,1.8,12.5,3.9c5,1.8,10.2,8.1,10.2,9.5c0,2.7-2.7,5.3-5.4,13.5c-2.9,8.8-3.9,17.2-3,27c0,0,0,0,0,0.1v0.1
							c0.6,5.8,1.9,12.2,3.8,19.5l0,0c1.6,5.9,2.1,11.8,1.9,17.4c-1.4,14.5-10.4,25.4-21.2,31.5l0,0l0,0c-2.1,1.1-4.1,2.2-6.3,3
							c0.3,0,3.9,0.1,4.2,0.1c9.1-0.1,21.9-1.8,32.9-13.1c3.8-3.9,6.8-8,8.7-11.9c0.8-1.6,4-7.3,5.9-18.7c0.3-1.5,1-6.4,1-6.4
							s0.5,3.5,0.6,6.6c0.1,4.3,0.3,9.6-2.3,17.7c0.9-0.2,5.2-3.3,10.2-10.1c1.9-2.5,3.6-5,5.1-7.7
							C519.1,335.1,524.3,321.8,524.1,296.5"/>
					</g>
					<g id="g678" transform="translate(5.977226, 0.048019)">
						<path id="path680" class="st2" d="M480.1,272.4c-0.1,0.5,0.1,0.6,0.6,0.3c2-1.6,5.2-3.9,9.7-4.8c5.4-1,8.3-3.5,9.8-6.4
							c0.8-1.7,1.5-4.9,4.1-6.7c0.8-0.6,0-0.8-0.7-0.7c-0.6,0.1-4.2,1.1-6.5,3.5c-1.6-1.6-1.4-3.8-1.2-5.1c0.1-0.4-0.2-0.6-0.7-0.3
							c-1.7,1.4-2.9,3.2-3.3,4.5c0,0-1.4-1-0.6-3.4c0.1-0.4-0.2-0.3-0.3-0.1c-2.5,1.8-2.3,4.5-2.3,4.8c0,0-2.5-1.4-6.4-1.9
							c-0.6-2.5-4.8-3.2-5.5-0.6c-0.6,2.3,3.4,4.1,5.1,2.2c0,0,5.5,0.6,10.3,5.3c0.5,0.5,0.6,0.9,0.3,1.1c-0.2,0.2-0.9-0.2-1.8-0.8
							c-1-0.6-7.6-4.8-13.3-2c-0.3,0.1-0.3,0.4-0.1,0.4c1.1,0.3,3.5,1.1,4.1,2.7c-1.6,0.4-4,1.3-5.8,4.9c-0.5,1,0.1,1.1,0.6,0.7
							c0.6-0.4,4.2-2.3,5.5-2.2C481.8,268.1,480.6,269.8,480.1,272.4 M525.8,245.7c-0.2,1.8,0.3,6.9,1.7,11.5
							c1.5,4.9-1.2,9.4-5.7,11.9c-1.4-2.2-4.3-3.2-6.9-3.4c-1.5-0.1-1.1,0.6-0.3,0.8c10.6,4.4,6.9,16.5,5.5,19.1
							c-1.4,2.6-1,6.1-1,6.1c-3.3-1-6.3-0.3-9,0.1c-5.2,0.8-8.8-0.1-11.5-1.3c-2.2-1-5.6-3.2-6.1-7.4c-0.1-0.8-0.6-1.3-0.9,0.1
							c-0.5,2.5-0.1,5.5,1.6,7.4c-1.9,9.5-20.9,8.8-20.9,8.8c-1.2-4.1-9.9-5.3-11.8-11.3c-0.9-2.8-0.2-5.8-0.2-5.8
							c5,1.1,7.8-1.1,9.4-3.1c0.9-1.1,0.2-1.2-0.5-0.8c-6.3,3.9-12.1,0-13.3-5.5c-1.6-6-7.6-8-7.6-8c4.3-2.7,3.1-7.3,5.4-11.2
							c5.9-10.3,14.4-7.2,14.4-7.2c0.8,2.5,3.3,4.3,5.8,4.9c1.4,0.4,1.2-0.3,0.6-0.8c-6-4.3-4.5-11,0.2-14.1
							c8.3-5.5,9.7-7.9,9.7-7.9c1.5,1.1,5.6,2.1,9.8,2.5c9.5,0.8,11.7,5.6,11.9,7.5c-1.1,0.6-3,2.3-3.9,5.1
							c-0.5,1.4,0.3,1.2,0.8,0.6c3.7-4.9,8.2-4,12.5-2.1C518,243.4,521.9,246.5,525.8,245.7"/>
					</g>
				</g>
			</g>
		</g>
	</g>
</g>
</svg>
