<?xml version="1.0" encoding="utf-8"?>
<!-- Generator: Adobe Illustrator 19.2.1, SVG Export Plug-In . SVG Version: 6.00 Build 0)  -->
<svg version="1.1" id="layer" xmlns="http://www.w3.org/2000/svg" xmlns:xlink="http://www.w3.org/1999/xlink" x="0px" y="0px"
	 viewBox="0 0 652 652" style="enable-background:new 0 0 652 652;" xml:space="preserve">
<style type="text/css">
	.st0{fill:#003A7D;}
	.st1{fill:url(#SVGID_1_);}
	.st2{fill:url(#SVGID_2_);}
	.st3{fill:none;}
</style>
<g>
	<g>
		<path class="st0" d="M623.5,257c-4.1,0.4-37.9,2.5-37.9,2.5s-1.2-0.4-3.3,1.6c-1.6,2.1-103.9,117.5-103.9,117.5
			s-14,15.3-33.8,16.9l0,0h139.8l42-136C626.4,259.4,627.6,256.5,623.5,257z"/>
	</g>
	<g>
		
			<linearGradient id="SVGID_1_" gradientUnits="userSpaceOnUse" x1="-1280.7385" y1="284.9639" x2="-1266.3424" y2="279.6755" gradientTransform="matrix(1.0275 1.230000e-002 1.260000e-002 -0.9999 1835.911 659.9219)">
			<stop  offset="6.860500e-002" style="stop-color:#8B350B"/>
			<stop  offset="0.1507" style="stop-color:#913C0E"/>
			<stop  offset="0.2756" style="stop-color:#A34E14"/>
			<stop  offset="0.2965" style="stop-color:#A65215"/>
			<stop  offset="0.4558" style="stop-color:#B76519"/>
			<stop  offset="0.8895" style="stop-color:#E8A71F"/>
		</linearGradient>
		<path class="st1" d="M523.3,362.1c-0.8,0.4-1.6,1.2-2.1,2.1c-0.4,1.2,0.8,2.5,2.1,3.3c1.6,0.8,3.7,1.2,7.4,1.2
			c4.1,0,6.2-0.8,6.2-0.8s0.8-2.5,1.6-4.1c0.8-1.6,2.1-4.5,2.9-6.2C533.6,358,527.5,359.6,523.3,362.1z"/>
		
			<linearGradient id="SVGID_2_" gradientUnits="userSpaceOnUse" x1="-1267.9082" y1="315.1521" x2="-1224.4764" y2="295.1348" gradientTransform="matrix(1.0275 1.230000e-002 1.260000e-002 -0.9999 1835.911 659.9219)">
			<stop  offset="0" style="stop-color:#E79000"/>
			<stop  offset="2.356468e-002" style="stop-color:#E89400"/>
			<stop  offset="5.870681e-002" style="stop-color:#ECA022"/>
			<stop  offset="7.000000e-002" style="stop-color:#EDA42C"/>
			<stop  offset="0.1001" style="stop-color:#F0B24D"/>
			<stop  offset="0.2" style="stop-color:#FBDDAA"/>
			<stop  offset="0.222" style="stop-color:#FADAA3"/>
			<stop  offset="0.2562" style="stop-color:#F9D48F"/>
			<stop  offset="0.2986" style="stop-color:#F7C96C"/>
			<stop  offset="0.3469" style="stop-color:#F4BB35"/>
			<stop  offset="0.35" style="stop-color:#F4BA30"/>
			<stop  offset="0.66" style="stop-color:#EEA900"/>
			<stop  offset="0.98" style="stop-color:#E78E00"/>
		</linearGradient>
		<path class="st2" d="M598.8,314.7c0,0-3.3,4.1-15.7,3.7c-8.2,0-12.4-2.5-22.3-2.9c-11.1,0-19,3.7-21.4,8.7
			c-1.2,2.5-7.4,16.5-7.4,16.5s3.3-3.7,9.1-5.4c7.8-2.5,15.3-2.1,22.7-0.8c5.4,0.8,8.7,2.1,13.6,1.6c4.5,0,7-1.2,8.7-2.1
			c2.5-1.2,4.5-3.3,7.4-7.8C595.9,323.3,598.4,316.3,598.8,314.7z M522.1,362.5c1.6-3.7,4.1-9.9,7.4-15.7c0.4-1.2,1.6-2.5,2.9-3.3
			c4.1-3.7,13.6-6.6,25.1-5.8c8.2,0.8,11.5,1.6,16.5,2.1c2.1,0,4.5,0.4,6.6,0c5.4-0.8,7-2.1,7-2.1s-3.3,8.7-8.2,14
			c-5.8,6.6-11.5,7-22.7,6.2c-16.1-1.6-27.2,0.4-33.4,4.5c-0.8,0.4-1.6,1.6-2.1,2.5C521.3,365,521.3,364.1,522.1,362.5z"/>
	</g>
	<path class="st0" d="M242.2,318.8h-16.9c0,0.4,0,0.4,0.4,0.8c0.8,0.4,1.6,1.2,2.5,2.1c1.2,1.2,1.2,1.6,1.2,3.7v31.7h10.3v-25.6l0,0
		l22.7,25.6h9.1v-38.3H257c0,0.4,0,0.8,0.4,0.8c0.8,0.4,1.6,1.2,2.5,2.1c0.8,0.8,1.2,1.2,1.2,3.3v14.8L242.2,318.8z M432.2,357.1
		l-8.2-13.6h-9.5v13.6H403v-31.7c0-2.1-0.4-2.5-0.8-3.3c-0.8-1.2-1.6-1.6-2.5-2.1c-0.4-0.4-0.8-0.4-0.8-0.8h29.7
		c8.7,0,14.8,4.1,14.8,12c0,6.2-2.9,9.5-8.2,11.5l9.1,14.4H432.2z M380.3,357.1v-31.7c0-2.1-0.4-2.5-0.8-3.3
		c-0.8-1.2-1.6-1.6-2.5-2.1c-0.4-0.4-0.4-0.4-0.4-0.8h15.7v38.3h-12V357.1z M362.1,357.1l-3.3-7.4h-19.4l-2.9,7.4h-10.7l14.8-32.6
		c0-0.4,0.4-0.8,0.4-1.6c0-0.8-0.8-1.6-2.5-2.9c-0.4-0.4-0.4-0.4-0.4-1.2h19.4l17.7,38.3H362.1z M303.2,357.1H283v-31.7
		c0-2.1-0.4-2.5-1.2-3.3c-0.8-1.2-1.6-1.6-2.5-2.1c-0.4-0.8-0.4-0.8-0.4-1.2h23.9c14,0,21.4,7.4,21.4,19
		C324.2,348.9,317.6,357.1,303.2,357.1z M141.6,357.1v-31.7c0-2.1-0.4-2.5-0.8-3.3c-0.8-1.2-1.6-1.6-2.5-2.1
		c-0.4-0.4-0.4-0.4-0.4-0.8h15.7v29.3h18.1v9.1h-30.1V357.1z M96.7,357.1v-31.7c0-2.1-0.4-2.5-0.8-3.3c-0.8-1.2-1.6-1.6-2.5-2.1
		c-0.4-0.4-0.4-0.4-0.4-0.8h40v7.8h-24.3v6.6h18.1v7.8h-18.1v7.4h24.3v8.2C132.9,357.1,96.7,357.1,96.7,357.1z M73.2,358.4
		c-13.6,0-25.6-5.8-25.6-20.2c0-11.5,8.7-21,25.6-21c6.6,0,11.5,1.2,16.1,3.3l-2.9,9.1c-2.5-1.6-7-3.3-12.4-3.3
		c-10.3,0-14.4,5.8-14.4,11.5c0,7.8,6.2,12,14.4,12c5.4,0,9.9-1.6,12.8-3.3l2.9,8.2C85.9,356.3,80.2,358.4,73.2,358.4z M30.3,357.1
		v-39.6c0-2.1-0.4-2.5-0.8-3.3c-1.2-1.2-2.1-1.6-2.5-2.1c-0.4-0.4-0.4-0.4-0.4-0.8h15.7v45.8H30.3z M426,326.2h-11.5v9.5h12.4
		c3.7,0,5.8-1.6,5.8-4.9C432.6,328.7,431.4,326.2,426,326.2z M349.4,327.9l-6.6,14.4h12.8L349.4,327.9z M301.5,327h-7v21.4h7
		c8.2,0,11.1-3.7,11.1-10.7C312.7,330.3,309,327,301.5,327z M211.7,357.1l-3.3-7.4H189l-3.3,7.4H175l14.8-32.6
		c0-0.4,0.4-0.8,0.4-1.6c0-0.8-0.8-1.6-2.5-2.9c-0.4-0.4-0.4-0.4-0.4-1.2h19.4l17.7,38.3H211.7z M198.9,327.9l-6.6,14.4h12.8
		L198.9,327.9z"/>
	<line class="st3" x1="198.5" y1="327.5" x2="198.5" y2="327.5"/>
</g>
</svg>
