<?xml version="1.0" encoding="utf-8"?>
<!-- Generator: Adobe Illustrator 14.0.0, SVG Export Plug-In . SVG Version: 6.00 Build 43363)  -->
<!DOCTYPE svg PUBLIC "-//W3C//DTD SVG 1.1//EN" "http://www.w3.org/Graphics/SVG/1.1/DTD/svg11.dtd">
<svg version="1.1"
	 id="lufthansa" xmlns:dc="http://purl.org/dc/elements/1.1/" xmlns:cc="http://creativecommons.org/ns#" xmlns:rdf="http://www.w3.org/1999/02/22-rdf-syntax-ns#" xmlns:svg="http://www.w3.org/2000/svg" xmlns:sodipodi="http://sodipodi.sourceforge.net/DTD/sodipodi-0.dtd" xmlns:inkscape="http://www.inkscape.org/namespaces/inkscape" inkscape:version="0.48.1 " sodipodi:docname="AJAX.svg"
	 xmlns="http://www.w3.org/2000/svg" xmlns:xlink="http://www.w3.org/1999/xlink" x="0px" y="0px" width="400px" height="300px"
	 viewBox="0 0 400 300" enable-background="new 0 0 400 300" xml:space="preserve">
<rect id="bg" x="12.977" y="89.835" fill="#F9BA00" width="376.045" height="117.916"/>
<path id="circle" inkscape:connector-curvature="0" fill="#00235F" d="M93.498,148.5c0,15.484-12.471,27.896-28.019,27.896
	c-15.379,0-27.892-12.471-27.892-27.852c0-15.704,12.512-28.068,28.396-28.068C81.082,120.477,93.498,133.171,93.498,148.5
	 M40.484,148.5c0,13.809,11.188,24.99,24.994,24.99c13.868,0,25.114-11.129,25.114-24.944c0-14.089-11.078-25.155-25.276-25.155
	C51.731,123.39,40.484,134.732,40.484,148.5z M59.388,147.374l-0.342,0.675c-1.285-0.281-3.631-1.18-6.092-2.299l-0.336,0.622
	l1.008,0.555c3.576,1.849,4.753,2.235,6.823,2.235c4.135,0,7.269-2.346,8.727-6.482c2.567-0.502,5.869-0.724,9.78-0.724
	c3.355,0,6.266,0.165,10.011,0.616l-0.949,1.172c-1.734-0.229-4.926-0.45-7.219-0.45c-2.737,0-4.472,0.058-5.365,0.112l-0.445,1.008
	c2.293-0.112,3.126-0.112,4.921-0.112c3.02,0,5.419,0.112,7.375,0.277l-0.947,1.229c-3.522-0.104-5.143-0.166-7.767-0.166
	c-1.458,0-2.521,0.061-4.253,0.107l-0.45,1.009c1.506-0.108,3.577-0.166,5.76-0.166c2.07,0,4.525,0.058,5.983,0.111l-0.954,1.237
	c-0.996-0.064-2.958-0.064-4.471-0.064c-2.4,0-5.419,0.111-6.985,0.34l-0.45,0.891c2.852-0.274,4.64-0.388,7.772-0.388
	c1.23,0,2.01,0,3.414,0.112l-1.068,1.285c-1.901-0.113-2.508-0.113-3.24-0.113c-5.311,0-8.772,0.78-12.248,2.74
	c3.187,3.184,8.498,5.365,13.257,5.365c0.39,0,0.611,0,1.62-0.055l-2.298,2.299c-12.632-3.301-14.869-4.197-26.445-11.074
	c-4.58-2.629-8.331-4.418-11.354-5.313l0.396-1.396c0.731,0.106,2.292,0.558,3.75,1.061l0.667-1.512L59.388,147.374z"/>
<path id="text" inkscape:connector-curvature="0" fill="#00235F" d="M140.119,129.818v29.92h15.771v7.373h-25.108v-37.293H140.119
	 M175.398,167.111l-0.275-2.622c-2.186,2.292-4.646,3.354-7.718,3.354c-3.804,0-6.877-1.566-8.443-4.246
	c-1.176-2.018-1.344-3.023-1.344-7.441v-15.879h8.779v15.541c0,3.921,1.117,5.541,3.859,5.541c2.904,0,4.362-1.903,4.362-5.541
	v-15.541h8.773v26.834H175.398L175.398,167.111z M203.303,135.747h-1.459c-3.246,0-4.081,0.78-4.081,3.745v0.785h5.197v5.923h-5.197
	v20.911h-8.773V146.2h-3.805v-5.923h3.805v-0.785c0-7.042,2.623-9.674,9.5-9.674h4.813V135.747L203.303,135.747z M216.775,131.888
	v8.389h4.979v5.923h-4.979v10.625c0.06,3.917,0.289,4.141,3.637,4.141h1.735v6.146h-6.597c-5.202,0-7.555-2.4-7.555-7.875V146.2
	h-3.686v-5.923h3.686v-8.389H216.775L216.775,131.888z M232.876,129.818v13.475c1.633-2.628,3.919-3.801,7.334-3.801
	c3.686,0,6.655,1.564,8.271,4.417c1.176,2.069,1.349,3.188,1.349,7.661v15.541h-8.729V151.91c0-3.861-1.171-5.592-3.858-5.592
	c-2.905,0-4.363,1.897-4.363,5.592v15.201h-8.771v-37.293H232.876L232.876,129.818z M253.567,148.832
	c0-6.09,4.759-9.675,12.699-9.675c8.33,0,12.464,3.466,12.464,10.508v13.704c0,2.346,0,2.346,0.727,3.742h-8.103l-0.503-2.229
	c-2.796,2.457-5.203,3.349-8.722,3.349c-5.934,0-10.229-3.521-10.229-8.381c0-4.031,2.622-6.884,7.766-8.338
	c0.785-0.222,3.36-0.726,7.771-1.563c1.907-0.395,2.629-1.006,2.629-2.289c0-1.512-1.566-2.521-3.913-2.521
	c-2.853,0-4.525,1.346-4.584,3.695L253.567,148.832L253.567,148.832z M270.286,154.251c-1.115,0.34-1.453,0.446-2.345,0.731
	c-1.063,0.275-2.014,0.494-3.188,0.725c-2.851,0.727-4.254,1.85-4.254,3.577c0,1.737,1.344,2.741,3.534,2.741
	c4.248,0,6.253-1.898,6.253-5.869V154.251L270.286,154.251z M289.807,140.277l0.281,3.016c2.064-2.628,4.52-3.801,7.767-3.801
	c3.749,0,6.774,1.619,8.341,4.417c1.109,2.069,1.338,3.246,1.338,7.661v15.541h-8.779V151.91c0-3.969-1.122-5.592-3.857-5.592
	c-2.856,0-4.304,1.897-4.304,5.592v15.201h-8.786v-26.834H289.807z M326.823,148.663c-0.229-2.517-1.292-3.465-3.968-3.465
	c-2.186,0-3.522,0.838-3.522,2.239c0,1.282,1.278,2.064,4.188,2.512l3.023,0.562c6.374,1.063,9.337,3.742,9.337,8.386
	c0,5.703-4.864,9.334-12.471,9.334c-9.001,0-13.923-3.575-13.923-10.057h8.553v0.329c0,2.238,1.85,3.642,4.813,3.642
	c2.566,0,4.134-0.955,4.134-2.468c0-1.565-1.458-2.459-4.866-3.073l-2.79-0.445c-6.378-1.118-9.123-3.412-9.123-7.656
	c0-5.822,4.86-9.343,12.867-9.343c5.588,0,9.056,1.507,10.849,4.751c0.779,1.346,0.89,1.792,1.117,4.754L326.823,148.663
	L326.823,148.663z M339.063,148.832c0.062-6.044,4.813-9.675,12.806-9.675c8.336,0,12.409,3.466,12.409,10.508v13.704
	c0,2.293,0,2.293,0.732,3.742h-8.16l-0.443-2.229c-3.248,2.622-5.15,3.349-8.72,3.349c-5.996,0-10.292-3.521-10.292-8.381
	c0-4.031,2.627-6.884,7.765-8.338c0.786-0.222,3.362-0.779,7.777-1.563c1.843-0.395,2.624-1.006,2.624-2.289
	c0-1.512-1.567-2.521-3.858-2.521c-2.852,0-4.586,1.402-4.586,3.695L339.063,148.832L339.063,148.832z M355.849,154.251
	c-1.123,0.34-1.521,0.446-2.414,0.731c-0.953,0.164-2.01,0.394-3.188,0.725c-2.85,0.727-4.248,1.85-4.248,3.577
	c0,1.737,1.338,2.741,3.582,2.741c4.248,0,6.268-1.898,6.268-5.869V154.251z"/>
</svg>
