<svg width="146" height="96" viewBox="0 0 146 96" fill="none" xmlns="http://www.w3.org/2000/svg">
<path d="M83.2102 0.799784C82.8548 1.15523 77.6652 5.82936 77.1853 6.34476C76.7943 6.75353 75.4259 8.83289 75.4259 11.3921C75.4259 12.0141 75.4259 26.7297 75.4259 27.2628C75.4081 28.3825 74.715 29.982 74.164 30.5507C73.773 30.9417 71.3205 33.1633 71.1072 33.3943H72.4934C72.9377 32.9855 77.6474 28.809 78.1451 28.2581C78.7849 27.5294 80.3133 25.6811 80.3133 22.7842C80.3133 22.1089 80.3133 8.15754 80.3133 7.53551C80.3133 5.24288 81.3796 3.98104 81.9306 3.35901C82.4993 2.73697 84.3476 1.19078 84.6853 0.83533L83.2279 0.782011L83.2102 0.799784Z" fill="#D71921"/>
<path d="M84.0989 41.5524V47.8794C84.0989 47.8794 85.9472 49.781 86.3204 50.172C88.0266 51.9848 88.0088 55.2904 82.606 60.5688C81.6641 61.493 78.9627 64.0522 75.2305 64.0522H65.5445L71.3028 69.0818H75.1594C79.0871 69.0818 82.6593 67.4112 85.023 65.0475C87.3868 62.6838 88.2576 59.5025 88.2576 56.5345V48.2881C88.2576 45.5156 86.5159 43.8984 86.0361 43.4185C85.7695 43.1519 84.0989 41.5702 84.0989 41.5702" fill="#D71921"/>
<path d="M46.4214 20.687H44.4309C45.7461 21.3623 46.5636 23.5128 46.5636 24.8102C46.5636 25.7699 46.5636 32.008 46.5636 32.63C46.6169 34.7094 48.1098 42.5292 55.1477 42.5292H75.3549C75.3549 42.5292 75.4259 54.9343 75.4259 55.4675C75.4259 57.5469 74.7328 58.7909 74.1463 59.413C73.631 59.9461 71.0184 62.3276 71.0184 62.3276L72.4757 62.2921C73.0622 61.8478 77.5053 57.7957 77.9318 57.3336C79.016 56.1429 80.3133 54.8277 80.3133 50.8822V42.6536C80.3133 42.6536 82.1261 40.7342 82.6415 40.3077C83.1747 39.8634 86.6581 36.5399 86.6581 36.5399C86.6581 39.739 88.1865 41.1607 89.7505 41.1607C90.4791 41.1607 91.2256 40.8586 91.8298 40.2899C92.5585 39.5968 94.94 37.4108 95.4732 36.8776C97.1082 35.2603 98.0324 30.1952 94.0336 30.1952H93.998C91.581 30.213 88.7019 33.7141 88.3642 34.1229C87.4934 33.5009 86.6758 32.3457 86.6758 32.3457V35.438C86.3204 36.0245 84.7031 37.162 83.459 37.162H80.2956V34.034C80.2956 32.5767 80.9176 30.9061 81.5574 30.2307C82.0906 29.6798 84.4543 27.5471 84.6853 27.3338H83.228C82.6593 27.7782 77.7541 32.2746 77.1321 32.9677C76.0302 34.194 75.4082 36.5399 75.3904 37.1442C75.3904 37.1442 53.0861 37.162 52.5174 37.162C49.7271 37.162 47.8077 34.3717 47.8077 31.9547C47.8077 31.6525 47.8966 26.0898 47.8966 26.0898C47.8966 21.309 46.6525 20.7936 46.4214 20.7047M92.754 37.9439C92.3097 37.9439 91.7232 37.7129 91.0301 37.162C90.3903 36.6643 89.0751 34.9049 89.0751 34.9049C89.5017 34.4606 90.4792 34.194 91.3678 34.194C92.0787 34.194 92.7185 34.3717 93.0206 34.7627C94.2113 36.3978 93.9447 37.9617 92.7718 37.9617" fill="#D71921"/>
<path d="M60.8882 44.8573L57.0316 48.7139C59.6619 51.3442 60.5505 52.6594 60.7993 53.8501C61.0126 53.6369 64.5315 50.7044 64.5315 49.6026C64.5315 47.9853 63.4652 47.4343 60.8882 44.8396" fill="#D71921"/>
<path d="M69.01 0.746554C69.01 0.746554 68.2991 1.4219 66.3797 3.35909C65.3489 4.38989 65.6332 6.62921 67.8015 8.77966C67.8015 8.77966 67.8548 12.7429 67.8548 14.218C67.8548 14.7156 67.3927 15.2133 67.3927 15.2133C67.3927 15.2133 64.247 12.3519 61.3679 12.3519H57.0847C54.33 12.3519 52.1796 14.8045 51.9485 15.0178C50.5267 16.4396 50.4912 19.141 51.6819 20.3317C52.2506 20.9004 54.6499 23.2819 54.6499 23.2819C54.6499 23.2819 53.9035 18.4123 54.6499 15.1599C54.8277 14.378 55.7518 13.6315 56.6937 13.6315C57.0136 13.6315 57.3335 13.7204 57.6357 13.9159C60.035 15.5332 63.6961 18.9099 63.6961 18.9099C63.6961 18.9099 55.894 27.0674 55.5741 27.3873C55.2719 27.6895 54.1701 28.507 53.1215 28.5248C53.1037 28.5248 53.086 28.5248 53.0682 28.5248C51.753 28.5248 51.2021 27.7961 50.6689 27.1563C50.6689 27.1563 50.6512 30.7996 50.6512 31.1373C50.6512 32.4525 52.3928 33.7676 54.0812 33.7676H64.8157C65.4733 33.7676 66.3619 33.6432 67.1972 32.8968C67.6415 32.5058 70.5207 29.6089 70.805 29.289C71.3737 28.6669 71.5692 28.0271 71.5692 27.2274C71.5692 26.8542 71.5692 25.0769 71.5692 23.1575C71.5692 19.1943 68.459 16.1019 68.459 16.1019C68.459 16.1019 69.0989 15.622 69.1344 13.9337C69.1344 13.4716 69.1344 9.73937 69.1344 9.73937C69.1344 9.73937 70.414 10.9479 70.4851 11.4633C70.4851 11.4633 71.8536 10.0593 72.7422 9.17066C73.7374 8.1754 72.0668 6.06049 71.3026 5.29628C69.0455 3.03919 69.0633 0.693237 69.0633 0.693237M55.6096 28.8269C56.6049 28.2404 56.7826 27.9561 57.8312 26.8542C58.0444 26.6231 64.7091 19.763 64.7091 19.763C64.7091 19.763 68.5124 23.6729 69.7209 25.77C70.3074 26.8008 70.9649 28.8269 67.6771 28.8269H55.5919" fill="#D71921"/>
<path d="M44.0044 37.8908H42.0139C42.0139 37.8908 44.1465 39.0638 44.1465 42.0851V51.7177C44.1465 57.9914 49.3183 63.7852 55.6097 63.7852H60.8703C64.0161 63.7852 65.1357 63.0209 67.0374 61.3326C67.7305 60.7105 68.6369 59.6975 68.9745 59.3243C70.0764 58.098 71.2494 57.1027 71.2494 53.8682V50.7047C71.2494 47.9855 69.6676 46.8481 68.9034 46.0839C68.4058 45.5863 67.0729 44.3066 67.0729 44.3066V50.7758C67.0729 50.7758 68.4058 52.1798 68.9745 52.6419C71.7115 54.7923 69.5255 58.5423 67.0018 58.5423C66.5042 58.5423 56.1784 58.5423 55.4675 58.5601C55.4142 58.5601 55.3609 58.5601 55.2898 58.5601C51.06 58.5601 45.4795 54.7923 45.4795 48.5009V43.2581C45.4795 37.873 44.0044 37.873 44.0044 37.873" fill="#D71921"/>
<path d="M52.9972 44.8749L49.1406 48.7315C51.7709 51.3618 52.6595 52.6769 52.9083 53.8677C53.1216 53.6544 56.6406 50.722 56.6406 49.6201C56.6406 48.0028 55.5742 47.4519 52.9972 44.8571" fill="#D71921"/>
<path d="M13.3293 69.0809H0C0 69.0809 2.31039 71.0536 2.25707 75.088V91.243C2.25707 95.2952 3.94547 95.4018 3.94547 95.4018H17.0792C20.065 95.4018 21.0958 93.2691 21.0958 92.1139L21.1313 90.5677C21.1313 90.5677 20.1894 92.5227 16.2617 92.5227C15.6397 92.5227 10.7701 92.5227 10.0769 92.5227C8.12197 92.5227 8.10419 90.8521 8.10419 89.5191V80.6507C8.10419 80.6507 12.0497 80.6507 12.6362 80.6507C13.9869 80.6507 15.4619 80.7218 16.9015 81.5393C16.9015 81.5393 15.4086 77.9493 10.9833 77.9493H8.10419V75.1057C8.10419 75.1057 8.1042 72.6354 7.49994 71.9067C7.49994 71.9067 11.321 71.9067 11.5876 71.9067C15.1243 71.9067 17.8435 71.8534 20.687 73.755C20.687 73.755 20.1361 69.0809 13.3293 69.0809Z" fill="#D71921"/>
<path d="M34.1407 74.2706C29.8753 74.2706 28.7912 78.3405 28.7912 78.3405C28.7912 78.3405 28.6846 74.4128 25.2723 74.4128H21.9133C21.9133 74.4128 23.8505 75.2126 23.8505 78.6071V91.1544C23.8505 95.2954 25.5211 95.3665 25.5211 95.3665H31.0483C30.9061 95.2954 28.9156 93.8025 28.9156 91.1189V79.9933C28.9867 79.4957 29.822 77.8251 32.2035 77.8251C33.5542 77.8251 35.0471 79.2291 35.0115 80.8109V91.1544C35.0115 95.3664 36.6466 95.3665 36.6466 95.3665H42.1916C42.1916 95.3665 40.0767 93.8736 40.0767 91.1189V79.9933C40.2721 79.3713 41.0008 77.8607 43.098 77.8607C44.7686 77.8607 46.1726 79.2647 46.137 80.8464C46.137 80.8464 46.137 90.2836 46.137 91.1544C46.1548 95.3131 47.7188 95.3487 47.7899 95.3487C50.6868 95.3487 53.3526 95.3487 53.3526 95.3487C53.3526 95.3487 51.2377 93.8913 51.2377 91.1366V79.8334C51.2377 75.4436 47.6477 74.2884 44.9818 74.2884C41.4451 74.2884 40.3966 77.2386 39.9345 78.2517C39.1525 75.4969 36.3978 74.2529 34.1407 74.2529" fill="#D71921"/>
<path d="M57.2804 74.4129H53.9214C53.9214 74.4129 55.8408 75.2659 55.8408 78.5894V91.19C55.8408 95.3309 57.4936 95.3665 57.5292 95.3665C60.4261 95.3665 63.0564 95.3665 63.0564 95.3665C63.0564 95.3665 60.9237 93.9447 60.9237 91.1544H60.9059V79.1048C60.9059 74.4129 58.4356 74.4129 57.2626 74.4129" fill="#D71921"/>
<path d="M67.215 74.3958H63.8561C63.8561 74.3958 65.7932 75.1956 65.7932 78.5901V91.1552C65.7932 95.2961 67.4638 95.3672 67.4638 95.3672H72.9911C72.8489 95.2961 70.8761 93.8032 70.8761 91.1196V80.8294C71.0361 79.8875 71.5159 79.1766 72.2446 78.7145C72.9733 78.2347 73.8264 78.0036 74.6617 78.0036C75.9057 78.0036 77.132 78.519 77.9851 79.5676V76.0131C77.9851 76.0131 77.4519 74.5025 75.1593 74.5025C71.6759 74.5025 70.8406 78.6256 70.8406 78.6256C70.5563 75.3555 69.6854 74.3958 67.2328 74.3958" fill="#D71921"/>
<path d="M102.44 69.6143C102.44 69.6143 101.214 71.7292 98.7077 73.7908C97.1437 75.0882 93.838 76.6699 93.838 76.6699L97.357 76.741V91.3143C97.357 95.3664 99.0453 95.3664 99.0453 95.3664C102.084 95.3664 104.573 95.3664 104.573 95.3664C104.573 95.3664 102.44 93.9269 102.44 91.2788V76.741C103.897 76.741 102.902 76.741 103.808 76.741C105.674 76.741 107.078 77.5585 107.078 77.5585V74.395H102.44V69.5965V69.6143Z" fill="#D71921"/>
<path d="M116.107 74.3065H116.054C110.331 74.3421 107.292 79.6205 107.292 85.3254C107.292 91.0303 111.024 95.4023 116.445 95.4023C120.959 95.4023 122.381 93.7495 122.381 93.7495V90.3728C121.154 92.5232 119.519 93.0742 118.186 93.0742C117.155 93.0742 116.285 92.7365 115.911 92.5765C113.441 91.4391 113.139 88.2223 113.139 88.2223C115.094 85.8408 117.529 86.3562 120.639 83.1039C124.709 78.8563 121.705 74.3243 116.125 74.3243M112.801 85.9474C112.801 85.9474 112.108 76.2793 115.751 75.9949C115.84 75.9949 115.911 75.9949 116 75.9949C118.862 75.9949 118.151 80.1181 117.262 81.7709C115.858 84.3479 114.045 84.6145 112.819 85.9474" fill="#D71921"/>
<path d="M58.3645 67.6595C56.9427 67.6595 55.7875 68.797 55.7875 70.1832C55.7875 71.5694 56.9427 72.7069 58.3645 72.7069C59.7863 72.7069 60.9415 71.5694 60.9415 70.1832C60.9415 68.797 59.7863 67.6595 58.3645 67.6595Z" fill="#D71921"/>
<path d="M85.5917 74.3955C82.4104 74.3955 80.4021 75.924 80.4021 75.924V79.5851C80.4021 79.5851 81.5396 76.6882 84.4364 76.6882C87.3333 76.6882 87.4578 78.0922 87.44 78.7853C87.44 78.7853 87.7244 79.7272 87.0135 80.9535C85.7339 83.2106 75.7103 83.6905 77.2565 91.4392C77.8607 94.5139 79.9045 95.4025 82.4815 95.4025C85.0585 95.4025 86.4803 94.1051 87.1023 92.8788C87.4755 95.207 88.6485 95.3492 88.6485 95.3492C91.5454 95.3492 94.1757 95.3492 94.1757 95.3492C94.1757 95.3492 92.0253 93.9096 92.0253 91.1549V79.3896C92.0253 76.5815 88.8974 74.3778 85.5917 74.3778M83.7434 92.9677C82.4815 92.9677 81.5751 91.6525 81.5751 90.3018C81.5751 85.0767 85.8582 84.3481 86.9957 82.9618V91.7769C86.498 92.2212 85.9827 92.9677 83.7256 92.9677" fill="#D71921"/>
<path d="M130.947 74.2529C127.623 74.2529 124.62 76.4389 124.673 79.2647C124.726 81.735 125.775 83.3346 127.783 84.8452C128.583 85.4495 129.543 86.0182 130.645 86.6402C132.262 87.5288 132.848 88.6307 132.866 89.6793C132.902 91.1544 131.569 93.1094 128.761 93.1094C125.953 93.1094 124.726 90.1591 124.726 90.1591V93.9091C124.726 93.9091 126.806 95.402 130.005 95.402C133.79 95.402 137.611 92.5229 137.522 88.5241C137.487 87.1201 136.989 85.9116 136.225 84.8808C134.945 83.1568 132.617 81.9661 130.805 80.8464C129.774 80.2066 129.223 79.087 129.205 78.6782C129.169 77.9851 129.525 76.5633 132.333 76.5633C135.141 76.5633 136.261 79.4602 136.261 79.4602V75.959C136.261 75.959 134.146 74.2884 130.964 74.2884" fill="#D71921"/>
<path d="M142.001 71.7472C142.179 71.5517 142.286 71.2851 142.286 70.9296C142.286 70.2898 141.948 69.9521 141.29 69.9521H140.917V71.996H141.433C141.664 71.996 141.841 71.9071 142.019 71.7472M143.779 74.6974H142.694L142.072 73.5422C141.664 72.8135 141.308 72.4225 141.006 72.4225H140.917V74.6796H139.869V69.5078H141.415C142.748 69.5078 143.405 69.9699 143.405 70.8941C143.405 71.3028 143.245 71.6583 142.925 71.9249C142.659 72.1559 142.375 72.2803 142.055 72.2981C142.357 72.4225 142.659 72.7424 142.925 73.2223L143.779 74.6618V74.6974ZM144.063 69.4723C143.37 68.7614 142.552 68.4237 141.575 68.4237C140.597 68.4237 139.78 68.7614 139.087 69.4723C138.411 70.1832 138.074 71.0363 138.074 72.0315C138.074 73.0268 138.411 73.8798 139.087 74.6085C139.78 75.3016 140.615 75.6571 141.575 75.6571C142.535 75.6571 143.37 75.3016 144.063 74.6085C144.756 73.8976 145.111 73.0445 145.111 72.0315C145.111 71.0185 144.756 70.1832 144.063 69.4723ZM144.667 74.9817C143.779 75.7815 142.748 76.1902 141.575 76.1902C140.402 76.1902 139.371 75.7993 138.5 74.9995C137.594 74.1997 137.132 73.1867 137.132 72.0315C137.132 70.8763 137.594 69.9166 138.5 69.0991C139.371 68.3171 140.402 67.9083 141.575 67.9083C142.748 67.9083 143.779 68.3171 144.667 69.0991C145.556 69.8988 146 70.8763 146 72.0315C146 73.1867 145.556 74.182 144.667 74.9995" fill="#D71921"/>
</svg>
