<svg width="295" height="93" viewBox="0 0 295 93" fill="none" xmlns="http://www.w3.org/2000/svg">
<path d="M23.5379 75.9677C24.5221 76.5221 25.3261 77.7836 25.4786 79.0866C25.742 81.3184 24.1062 83.4116 21.8329 83.6889C19.5595 83.9661 17.4108 82.2195 17.1891 79.8491C16.995 77.6034 18.3812 75.33 20.8209 74.1101C24.4667 72.2665 29.3045 72.7655 32.9641 74.1101C41.1428 77.1182 47.9768 84.8672 50.5275 88.7624C46.2579 73.417 28.9164 59.9153 13.3908 66.7355C8.09549 69.0643 4.64383 74.3874 5.05969 80.0847C5.51714 86.5167 10.5907 91.9923 18.298 92.0755C21.8883 92.1171 25.2845 90.4813 27.0589 88.1247C30.0392 84.174 28.8471 77.9915 23.5379 75.9815V75.9677ZM78.6122 75.9677C77.6279 76.5221 76.8239 77.7836 76.6714 79.0866C76.4081 81.3184 78.0438 83.4116 80.3172 83.6889C82.5906 83.9661 84.7392 82.2195 84.961 79.8491C85.1551 77.6034 83.7689 75.33 81.3291 74.1101C77.6834 72.2665 72.8455 72.7655 69.1859 74.1101C61.0072 77.1182 54.1871 84.8672 51.6226 88.7624C55.8921 73.417 73.2336 59.9153 88.7454 66.7355C94.0407 69.0643 97.4924 74.3874 97.0904 80.0847C96.6329 86.5167 91.5594 91.9923 83.852 92.0755C80.2617 92.1171 76.8655 90.4813 75.0912 88.1247C72.1108 84.174 73.303 77.9915 78.6122 75.9815V75.9677ZM51.1235 35.1298C65.4293 35.1298 77.0319 27.6859 77.0319 18.5091C77.0319 11.3424 69.976 5.24306 60.0646 2.90036C71.7781 5.28465 80.2617 12.2434 80.2617 20.4637C80.2617 29.9177 69.2136 36.6685 58.6923 38.2349C53.5356 38.9973 52.4266 39.1637 51.1235 40.5638C49.8205 39.1637 48.7115 38.9973 43.5548 38.2349C33.0335 36.6824 21.9853 29.9177 21.9853 20.4637C21.9853 12.2434 30.469 5.28465 42.1825 2.90036C32.2849 5.24306 25.2152 11.3424 25.2152 18.5091C25.2152 27.6859 36.8178 35.1298 51.1235 35.1298ZM51.1235 45.7343C53.7851 43.2807 57.2922 42.9758 60.3834 42.3243C74.8001 39.2607 84.2541 31.692 84.2541 22.1133C84.2541 18.2596 82.6183 14.6416 79.7627 11.5365C75.0357 6.35203 66.9125 2.56767 57.3476 1.40325C75.0496 3.27464 88.5236 13.0197 88.5236 24.7609C88.5236 35.2407 78.4735 42.9342 62.8925 47.2453C56.1416 49.1167 52.8702 50.3643 51.1235 53.3308C49.3769 50.3643 46.1054 49.1167 39.3546 47.2453C23.7736 42.9342 13.7235 35.2407 13.7235 24.7609C13.7235 13.0197 27.2114 3.2885 44.9133 1.40325C35.3346 2.56767 27.2252 6.35203 22.4983 11.5365C19.6427 14.6416 18.0069 18.2596 18.0069 22.1133C18.0069 31.692 27.4609 39.2607 41.8775 42.3243C44.9549 42.9758 48.4759 43.2807 51.1374 45.7343H51.1235ZM51.1235 61.7867C53.8821 56.2557 61.1043 53.3447 67.1759 51.3624C68.9364 50.7802 69.7127 50.5445 71.8336 49.7405C84.1016 45.1106 92.3495 36.5022 92.3772 26.6323C92.3772 12.7702 76.2001 1.40325 55.4347 0.00317383C81.6341 1.38939 102.219 15.2792 102.219 32.2049C102.219 43.5303 94.207 52.9842 79.0696 59.2638C72.9841 61.8006 55.0465 67.0543 51.1097 85.6434C46.9788 66.9989 29.2491 61.8006 23.1498 59.2638C8.01231 52.9842 0 43.5303 0 32.2049C0 15.2792 20.5853 1.38939 46.7847 0.00317383C26.0331 1.40325 9.85598 12.7702 9.85598 26.6323C9.86984 36.5022 18.1178 45.1106 30.3858 49.7405C32.5206 50.5445 33.283 50.7802 35.0435 51.3624C41.1012 53.3447 48.3234 56.2557 51.082 61.7867H51.1235ZM41.3923 15.4456C41.3923 10.0255 45.745 5.6312 51.1097 5.6312C56.4743 5.6312 60.827 10.0255 60.827 15.4456C60.827 20.8657 56.4743 25.26 51.1097 25.26C45.745 25.26 41.3923 20.8657 41.3923 15.4456Z" fill="#01426A"/>
<path d="M285.019 53.5106C281.789 53.566 278.823 55.1879 277.298 57.7801C276.175 59.6654 275.662 62.7705 277.575 65.7786C278.906 67.844 281.346 69.5491 284.853 70.8521C286.683 71.5314 290.841 73.4998 289.649 76.993C288.998 78.906 287.154 80.1675 284.964 80.1952C281.9 80.2506 279.766 77.6307 279.308 75.1494L274.429 76.092C274.997 79.3219 277.686 85.1163 284.742 85.1163C288.707 85.1163 291.132 83.3835 292.477 81.928C294.057 80.1952 295 77.8248 295 75.593C295 71.5868 292.533 68.6065 287.653 66.7212C283.397 65.0716 281.304 63.3666 281.166 61.5645C280.985 59.2911 283.314 58.196 285.116 58.3346C287.112 58.501 288.915 59.6238 289.58 61.2457L293.946 59.1248C292.394 55.6038 288.97 53.469 284.992 53.5245L285.019 53.5106Z" fill="#01426A"/>
<path d="M163.684 54.6055V84.3259H168.564V58.8057H173.235C175.425 58.8057 177.754 60.58 177.754 63.2277C177.754 66.4714 174.982 67.7052 173.235 67.7052H169.187L180.319 84.3397H186.03C186.03 84.3397 177.144 71.5588 176.714 70.9628C179.82 69.8677 182.537 67.2339 182.537 62.798C182.537 58.3621 178.711 54.6332 174.081 54.6332H163.684V54.6055Z" fill="#01426A"/>
<path d="M140.867 12.2846V24.2754H127.019V12.2846H121.917V43.2388H127.019V28.8914H140.867V43.2388H145.968V12.2846H140.867Z" fill="#01426A"/>
<path d="M189.662 12.2846H184.56V43.2388H189.662V12.2846Z" fill="#01426A"/>
<path d="M157.404 54.6055H152.511V84.3259H157.404V54.6055Z" fill="#01426A"/>
<path d="M212.811 54.6055H207.918V84.3259H212.811V54.6055Z" fill="#01426A"/>
<path d="M195.844 43.2388H200.876V22.5565C201.833 23.4991 224.664 44.5418 224.664 44.5418V12.2846H219.507V32.8006C218.55 31.8441 195.844 10.8014 195.844 10.8014V43.2388Z" fill="#01426A"/>
<path d="M268.385 43.2388V22.5565C269.341 23.4991 292.158 44.5418 292.158 44.5418V12.2846H286.988V32.8006C286.031 31.8441 263.325 10.8014 263.325 10.8014V43.2388H268.385Z" fill="#01426A"/>
<path d="M219.105 84.3261H223.943V64.4755C224.858 65.3766 246.774 85.5876 246.774 85.5876V54.6196H241.811V74.3177C240.896 73.4028 219.091 53.1918 219.091 53.1918V84.34L219.105 84.3261Z" fill="#01426A"/>
<path d="M149.281 43.2388H154.868C154.868 43.2388 158.333 36.0998 158.486 35.7809H172.14C172.292 36.0859 175.758 43.2388 175.758 43.2388H181.261L165.278 10.2607L149.295 43.2388H149.281ZM165.278 21.1425C165.763 22.1683 169.95 31.1232 169.991 31.1926H160.648C160.981 30.4579 164.835 22.1406 165.278 21.1425Z" fill="#01426A"/>
<path d="M233.715 43.2388C233.715 43.2388 237.181 36.0998 237.334 35.7809H250.974C251.126 36.0859 254.592 43.2388 254.592 43.2388H260.109L244.112 10.2607L228.115 43.2388H233.715ZM244.126 21.1425C244.597 22.1545 248.728 30.9569 248.839 31.1926H239.496C239.829 30.4579 243.669 22.1406 244.126 21.1425Z" fill="#01426A"/>
<path d="M118.507 84.3261H123.858C123.858 84.3261 127.185 77.4644 127.337 77.1732H140.451C140.604 77.4644 143.917 84.3261 143.917 84.3261H149.212L133.867 52.665L118.521 84.3261H118.507ZM133.867 63.117C134.31 64.0458 138.108 72.1552 138.386 72.7651H129.417C129.652 72.2661 133.423 64.0874 133.867 63.117Z" fill="#01426A"/>
<path d="M189.786 54.7447V84.3265H204.466V80.1263H194.68V54.7447H189.773H189.786Z" fill="#01426A"/>
<path d="M253.053 84.3122H271.351V80.0982H257.974V70.1313H270.977V65.9311H257.974V58.7643H271.351V54.578H253.053V84.3122Z" fill="#01426A"/>
</svg>
