<?xml version="1.0" encoding="UTF-8" standalone="no"?>
<svg
   xmlns:dc="http://purl.org/dc/elements/1.1/"
   xmlns:cc="http://creativecommons.org/ns#"
   xmlns:rdf="http://www.w3.org/1999/02/22-rdf-syntax-ns#"
   xmlns:svg="http://www.w3.org/2000/svg"
   xmlns="http://www.w3.org/2000/svg"
   xmlns:sodipodi="http://sodipodi.sourceforge.net/DTD/sodipodi-0.dtd"
   xmlns:inkscape="http://www.inkscape.org/namespaces/inkscape"
   viewBox="0 0 350 128.381"
   height="128.381"
   width="350"
   xml:space="preserve"
   id="svg2"
   version="1.1"
   inkscape:version="0.91 r13725"
   sodipodi:docname="Singapore_Airlines2.svg"><sodipodi:namedview
     pagecolor="#ffffff"
     bordercolor="#666666"
     borderopacity="1"
     objecttolerance="10"
     gridtolerance="10"
     guidetolerance="10"
     inkscape:pageopacity="0"
     inkscape:pageshadow="2"
     inkscape:window-width="1366"
     inkscape:window-height="705"
     id="namedview4166"
     showgrid="false"
     inkscape:zoom="2.072165"
     inkscape:cx="147.77182"
     inkscape:cy="102.55966"
     inkscape:window-x="-8"
     inkscape:window-y="-8"
     inkscape:window-maximized="1"
     inkscape:current-layer="g12" /><metadata
     id="metadata8"><rdf:RDF><cc:Work
         rdf:about=""><dc:format>image/svg+xml</dc:format><dc:type
           rdf:resource="http://purl.org/dc/dcmitype/StillImage" /><dc:title></dc:title></cc:Work></rdf:RDF></metadata><defs
     id="defs6" /><g
     transform="matrix(1.3333333,0,0,-1.3333333,0,128.38101)"
     id="g10"><g
       transform="scale(0.1,0.1)"
       id="g12"><g
         id="g5458"
         transform="matrix(1.4936131,0,0,1.4936131,-190.36118,-642.31656)"><path
           inkscape:connector-curvature="0"
           d="m 127.45013,467.7062 1216.67327,0 -24.14,-37.664 -1192.53327,0 0,37.664"
           style="fill:#fcb130;fill-opacity:1;fill-rule:evenodd;stroke:none"
           id="path50" /><g
           style="fill:#fcb130;fill-opacity:1"
           id="g4758"><path
             id="path52"
             style="fill:#fcb130;fill-opacity:1;fill-rule:evenodd;stroke:none"
             d="m 1565.7334,484.7692 -44.74,0 90.31,142.539 c 0,0 13.52,29.547 -4.17,60.758 l -125.89,208.49499 c 0,0 -11.02,19.36 0,37.88 l 37.25,55.77 147.74,-241.384 c 0,0 38.08,-50.56199 -3.33,-113.19499 l -97.17,-150.863"
             inkscape:connector-curvature="0" /><path
             id="path54"
             style="fill:#fcb130;fill-opacity:1;fill-rule:evenodd;stroke:none"
             d="m 1673.7234,528.4682 54.94,83.648 c 0,0 16.02,34.543 57.43,34.543 l 58.26,0 40.58,-64.089 c 0,0 -32.05,3.328 -46.41,-19.563 l -59.92,-90.305 c 0,0 -19.56,-42.242 -71.79,-42.242 l -282.16,0 107.37,164.805 c 0,0 15.18,19.348 -6.04,51.394 l -95.51,153.56199 c 0,0 -23.51,22.68 0.83,61.59 l 27.89,42.25 132.76,-215.15899 c 0,0 23.51,-29.551 0,-64.922 l -99.68,-155.442 210.17,0 c 0,0 23.72,-4.367 44.11,26.012 l 52.23,80.32 c 0,0 11.86,27.051 38.08,38.079 l -42.24,0 c 0,0 -22.06,-0.833 -38.91,-27.051 l -46.4,-71.789 c 0,0 -16.86,-30.379 -54.11,-30.379 l -73.45,0 88.64,137.543 c 0,0 48.28,63.465 14.36,121.73 l -146.91,243.03799 c 0,0 -11.02,21.02001 1.67,40.58001 l 32.04,48.07 167.3,-269.47001 c 0,0 24.56,-40.37 24.56,-71.58099 0,-31.215 -19.56,-66.59 -30.39,-84.484 l -73.66,-114.864 c 0,0 -8.32,-11.027 -2.49,-15.191 6.03,-4.16 11.86,3.332 16.85,9.367"
             inkscape:connector-curvature="0" /></g><g
           id="g5439"><path
             id="path16"
             style="fill:#1d4886;fill-opacity:1;fill-rule:evenodd;stroke:none"
             d="m 740.0514,645.4092 26.012,0 0,-103 63.465,0 0,-22.058 -89.477,0 0,125.058"
             inkscape:connector-curvature="0" /><path
             id="path18"
             style="fill:#1d4886;fill-opacity:1;fill-rule:evenodd;stroke:none"
             d="m 849.5044,520.3512 25.8008,0 0,125.059 -25.8008,0 z"
             inkscape:connector-curvature="0" /><path
             id="path20"
             style="fill:#1d4886;fill-opacity:1;fill-rule:evenodd;stroke:none"
             d="m 532.8014,520.3512 25.5938,0 0,125.059 -25.5938,0 z"
             inkscape:connector-curvature="0" /><path
             id="path24"
             style="fill:#1d4886;fill-opacity:1;fill-rule:evenodd;stroke:none"
             d="m 1059.8734,645.4092 98.01,0 0,-20.601 -72,0 0,-30.586 61.18,0 0,-22.684 -61.18,0 0,-30.375 72,0 0,-20.812 -98.01,0 0,125.058"
             inkscape:connector-curvature="0" /><path
             id="path26"
             style="fill:#1d4886;fill-opacity:1;fill-rule:evenodd;stroke:none"
             d="m 1197.8334,813.54119 98.01,0 0,-20.6 -71.99,0 0,-30.38 61.38,0 0,-22.67899 -61.38,0 0,-30.383 71.99,0 0,-20.597 -98.01,0 0,124.63899"
             inkscape:connector-curvature="0" /><path
             id="path28"
             style="fill:#1d4886;fill-opacity:1;fill-rule:evenodd;stroke:none"
             d="m 598.1374,520.3512 0,125.058 74.289,0 c 0,0 35.789,-0.621 35.789,-36.414 0,0 3.328,-29.757 -27.05,-41.824 l 37.66,-46.82 -32.043,0 -52.02,64.922 27.051,0 c 0,0 19.352,0.418 19.352,19.976 0,18.52 -15.606,19.977 -20.391,19.977 l -36.625,0 0,-104.875 -26.012,0"
             inkscape:connector-curvature="0" /><path
             id="path30"
             style="fill:#1d4886;fill-opacity:1;fill-rule:evenodd;stroke:none"
             d="m 1055.2934,688.9022 0,124.63899 74.29,0 c 0,0 35.79,-0.62 35.79,-36.42 0,0 3.12,-29.54 -27.05,-41.60999 l 37.66,-46.609 -32.04,0 -52.02,64.49899 27.05,0 c 0,0 19.35,0.42 19.35,19.98 0,18.73 -15.6,19.98 -20.39,19.98 l -36.62,0 0,-104.45899 -26.02,0"
             inkscape:connector-curvature="0" /><path
             id="path38"
             style="fill:#1d4886;fill-opacity:1;fill-rule:evenodd;stroke:none"
             d="m 534.6724,710.5382 35.168,0 0,57.22299 24.969,0 0,-78.85899 -65.547,0 c -9.781,0 -57.015,11.027 -57.429,60.75699 -0.418,49.312 42.656,63.882 59.304,63.882 l 64.297,0 0,-22.06 -58.055,0 c 0,0 -38.914,0 -38.914,-40.99 0,-31.83499 32.254,-39.95299 36.207,-39.95299"
             inkscape:connector-curvature="0" /><path
             id="path40"
             style="fill:#1d4886;fill-opacity:1;fill-rule:evenodd;stroke:none"
             d="m 909.2234,645.4092 26.223,0 0,-19.351 16.437,19.351 31.004,0 c 0,0 42.446,2.29 42.446,-43.074 l 0,-81.984 -26.422,0 0,85.941 c 0,0 -0.836,17.063 -18.731,17.063 l -44.734,0 0,-103.004 -26.223,0 0,125.058"
             inkscape:connector-curvature="0" /><path
             id="path42"
             style="fill:#1d4886;fill-opacity:1;fill-rule:evenodd;stroke:none"
             d="m 332.0014,813.54119 26.007,0 0,-19.14 16.438,19.14 31.008,0 c 0,0 42.656,2.29 42.656,-43.07 l 0,-81.56899 -26.43,0 0,85.51899 c 0,0 -1.039,17.06 -18.933,17.06 l -44.739,0 0,-102.57899 -26.007,0 0,124.63899"
             inkscape:connector-curvature="0" /><path
             id="path44"
             style="fill:#1d4886;fill-opacity:1;fill-rule:evenodd;stroke:none"
             d="m 270.4074,688.9022 25.5938,0 0,124.64099 -25.5938,0 z"
             inkscape:connector-curvature="0" /><path
             id="path46"
             style="fill:#1d4886;fill-opacity:1;fill-rule:evenodd;stroke:none"
             d="m 1186.3934,520.5582 0,21.226 72.41,0 c 0,0 14.36,-2.703 14.36,14.774 0,17.48 -10.82,15.605 -14.77,15.605 l -41.83,0 c 0,0 -32.25,-2.285 -32.25,35.582 0,37.664 31.84,37.664 31.84,37.664 l 79.48,0 0,-22.054 -69.71,0 c 0,0 -15.19,0 -15.19,-14.36 0,-14.359 10.2,-17.062 19.77,-17.062 l 37.25,0 c 0,0 31.42,3.332 31.42,-34.125 0,-37.457 -32.25,-37.25 -32.25,-37.25 l -80.53,0"
             inkscape:connector-curvature="0" /><path
             id="path48"
             style="fill:#1d4886;fill-opacity:1;fill-rule:evenodd;stroke:none"
             d="m 130.15723,688.9022 0,21.222 72.4142,0 c 0,0 14.355,-2.707 14.355,14.774 0,17.48 -10.82,15.605 -14.773,15.605 l -41.824,0 c 0,0 -32.2543,-2.285 -32.2543,35.37799 0,37.87 31.8403,37.66 31.8403,37.66 l 79.484,0 0,-22.06 -69.707,0 c 0,0 -15.191,0 -15.191,-14.36 0,-14.35 10.406,-17.06 19.769,-17.06 l 37.246,0 c 0,0 31.422,3.33 31.422,-33.91299 0,-37.453 -32.254,-37.246 -32.254,-37.246 l -80.5272,0"
             inkscape:connector-curvature="0" /><path
             d="m 966.34498,821.24262 c -37.496,0 -68.14496,-30.56793 -68.14496,-68.21104 0,-37.79259 30.64896,-68.08646 68.14496,-68.08646 37.94412,0 68.14502,30.36862 68.14502,68.08646 0,37.66802 -30.2009,68.21104 -68.14502,68.21104 m 0,-111.21047 c -23.5284,0 -42.5502,19.18287 -42.5502,42.99943 0,23.49267 19.0467,43.04917 42.5502,43.04917 23.7026,0 43.12282,-19.5565 43.12282,-43.04917 0,-23.81656 -19.42022,-42.99943 -43.12282,-42.99943"
             id="path4192"
             inkscape:connector-curvature="0"
             style="fill:#1d4886" /><path
             d="m 698.30471,813.54762 -27.51324,0 -59.33895,-124.6425 29.24787,0 15.78035,35.84182 56.52017,0 15.58762,-35.84182 29.15149,0 m -94.00755,54.19554 20.83971,51.02948 20.59878,-50.90577 -41.43849,-0.12371 z"
             id="path4194"
             inkscape:connector-curvature="0"
             style="fill:#1d4886" /><path
             d="m 454.64025,645.40511 -27.51183,0 -59.33591,-125.055 29.24637,0 15.77954,35.96046 56.51728,0 15.58682,-35.96046 29.14999,0 m -94.00273,54.37495 20.83864,51.19829 20.59773,-51.07416 -41.43637,-0.12413 z"
             id="path4194-3"
             inkscape:connector-curvature="0"
             style="fill:#1d4886" /><path
             d="m 843.21492,813.54762 -69.2449,0 0,-124.6425 26.56201,0 0,60.52795 15.34746,-21.12423 27.33543,0 c 23.95172,0 40.0001,19.91218 40.0001,42.61945 0,22.63297 -16.04838,42.61933 -40.0001,42.61933 m -0.94261,-62.13575 -41.76446,0 0,39.2059 41.76446,0 c 9.37767,0 15.78253,-10.36418 15.78253,-19.73901 0.024,-9.64686 -6.38069,-19.46689 -15.78253,-19.46689"
             id="path4190"
             inkscape:connector-curvature="0"
             style="fill:#1d4886" /></g></g></g></g></svg>