<svg width="352" height="81" viewBox="0 0 352 81" fill="none" xmlns="http://www.w3.org/2000/svg">
<g clip-path="url(#clip0_3817_7213)">
<path d="M40.5481 64.9274H43.6148L43.4814 61.27L40.5481 64.9274Z" fill="#E60012"/>
<path d="M79.7723 43.6901C80.0315 41.1586 79.9612 37.5309 79.5704 34.8494C79.5704 34.7975 79.5112 34.7975 79.5056 34.8494C78.6815 38.7438 76.1649 44.0123 70.7223 48.3142C70.6723 48.3568 70.6149 48.2883 70.6612 48.242C75.4334 43.1457 78.2778 36.8586 78.7223 30.392C77.8223 26.829 76.426 23.3809 74.6686 20.3383C74.6408 20.3049 74.5963 20.3142 74.6075 20.3642C75.5723 26.9012 74.026 35.542 67.6852 42.5438C67.6426 42.5883 67.5723 42.5327 67.613 42.4827C73.076 34.6216 74.4964 25.042 72.1186 16.4272C64.8352 6.59382 53.1463 0.206787 39.9667 0.206787C26.7871 0.206787 15.0963 6.59382 7.81672 16.4272C5.43894 25.0401 6.85746 34.6216 12.3167 42.4827C12.3556 42.5327 12.2889 42.5901 12.2445 42.5438C5.90746 35.542 4.36116 26.9012 5.32783 20.3642C5.33523 20.3142 5.28709 20.3031 5.26486 20.3383C3.50746 23.3827 2.10931 26.8309 1.21116 30.392C1.65375 36.8586 4.50005 43.1457 9.27412 48.242C9.31857 48.2883 9.25931 48.3568 9.21487 48.3142C3.77042 44.0142 1.25005 38.7438 0.427827 34.8494C0.416716 34.7975 0.364864 34.7975 0.359308 34.8494C-0.0277291 37.5309 -0.0962472 41.1586 0.163012 43.6901C1.53523 47.9938 4.47042 51.6068 7.47412 54.2049C7.52597 54.2512 7.47412 54.3197 7.42227 54.2864C4.06672 52.1938 2.18709 50.1549 0.913011 48.3568C0.883382 48.3142 0.844493 48.3309 0.855604 48.3753C4.54264 66.3179 20.626 80.1309 39.9704 80.1309C59.3149 80.1309 75.4019 66.3179 79.0834 48.3753C79.0926 48.3309 79.0556 48.3142 79.0278 48.3568C77.7519 50.1549 75.8704 52.1938 72.5167 54.2864C72.4575 54.3197 72.4093 54.2512 72.4649 54.2049C75.4667 51.6049 78.4019 47.9938 79.7797 43.6901H79.7723ZM25.1278 69.7475C23.6612 69.7475 22.3908 69.6049 21.3408 69.3716L22.2704 66.9438C24.7667 67.2401 26.9056 67.0198 27.7389 64.8383L30.3889 57.942H35.8352L32.9167 65.542C31.4278 69.4327 27.7482 69.7475 25.1278 69.7475ZM43.7815 69.3716L43.6945 67.1198H38.776L36.9612 69.3716H32.463L41.5926 58.7938C42.0241 58.2883 42.6723 57.942 43.2667 57.942H48.1408L49.2315 69.3716H43.7815ZM50.6982 69.3716L55.0834 57.942H60.5315L57.0686 66.9475H63.9945L63.0649 69.3716H50.6982ZM58.0389 45.2364C49.8667 53.1864 37.6556 48.1068 38.9001 38.342C39.8538 30.8123 49.0871 23.3086 56.076 19.242C56.1075 19.2235 56.1075 19.1809 56.0797 19.1549C55.1667 18.2846 53.2667 16.3105 52.0371 14.8346C48.6556 10.7568 42.7278 10.5901 39.1945 15.0623L19.1 16.9309C19.0241 16.9364 19.0186 17.0494 19.1 17.0549L40.6426 18.3012C44.4649 18.516 45.7093 21.9864 42.0241 24.7772C28.3408 35.1494 25.9 46.1198 28.9612 54.8197C28.9815 54.8753 28.8926 54.9179 28.8593 54.8642C27.6 53.0883 26.663 50.9086 26.1482 48.6197C19.5778 44.4957 14.2408 36.6309 14.2408 26.9216C14.2408 12.8068 25.7408 1.19197 39.9667 1.19197C54.1926 1.19197 65.6926 12.8068 65.6926 26.9216C65.6926 34.5568 62.3464 41.042 58.0426 45.2346L58.0389 45.2364Z" fill="#ED1C24"/>
</g>
<defs>
<clipPath id="clip0_3817_7213">
<rect width="351.617" height="79.9241" fill="white" transform="translate(0 0.206787)"/>
</clipPath>
</defs>
</svg>
