<svg width="220" height="81" viewBox="0 0 220 81" fill="none" xmlns="http://www.w3.org/2000/svg">
<path d="M3 20.7074C3 19.6115 3.34773 16.8965 6.89136 16.8965C7.23909 16.8965 8.08727 16.8965 8.935 17.3174C10.87 18.2479 10.87 19.866 10.87 22.4029C14.2614 18.3369 18.5009 16.4756 23.9359 16.4756C34.7845 16.4756 42.8286 24.7729 42.8286 39.2651C42.8286 49.7683 38.2409 62.1324 24.8709 62.1324C17.8268 62.1324 14.5227 59.3406 10.87 56.116V73.8206C10.87 74.9297 10.5441 77.7206 6.89136 77.7206C6.21773 77.7206 5.54364 77.5551 4.95682 77.2997C3.26136 76.3701 3 75.0947 3 73.8206V20.7074ZM23.0014 23.0015C15.0227 23.0015 10.7182 29.0947 10.7182 38.8324C10.7182 48.6597 14.7836 55.8619 22.9145 55.8619C27.3936 55.8619 30.2845 53.5797 31.8936 51.3742C34.2632 48.1497 34.785 43.4083 34.785 39.4315C34.785 34.9447 34.4373 23.0015 23.0014 23.0015Z" fill="#231F20"/>
<path d="M83.2445 55.9497C78.07 61.622 71.7218 62.1324 67.6564 62.1324C63.2432 62.1324 57.1345 61.5456 52.3077 56.2051C47.0682 50.4442 46.8945 42.6438 46.8945 39.5206C46.8945 35.4547 47.3073 28.3292 52.1336 22.8229C57.395 16.9856 64.4386 16.4756 68.07 16.4756C80.5263 16.4756 88.8318 24.4415 88.8318 38.9215C88.8318 42.7329 88.4182 50.1888 83.2445 55.9497ZM77.6568 51.2847C80.6136 47.4738 80.7877 42.0565 80.7877 39.431C80.7877 31.2097 78.07 23.001 67.7436 23.001C65.4391 23.001 60.96 23.3324 57.7427 27.8192C55.5254 31.0442 54.8514 35.5306 54.8514 39.5206C54.8514 43.8288 55.6127 48.4938 57.9823 51.5401C59.6777 53.656 62.9823 55.8615 67.8086 55.8615C71.6354 55.8615 75.3527 54.3442 77.6568 51.2847Z" fill="#231F20"/>
<path d="M101.267 24.8634C102.876 20.0329 107.724 16.8975 112.725 16.8975C113.637 16.8975 117.376 16.8975 117.376 20.7084C117.376 23.6784 115.006 24.1884 113.812 24.3538C111.703 24.6852 109.485 25.0297 107.202 26.4702C101.615 30.3702 101.615 36.2975 101.615 41.3834V58.2334C101.615 59.597 101.354 61.7897 97.7237 61.7897C94.2451 61.7897 93.8973 59.4184 93.8973 58.2334V20.4538C93.8973 19.4338 94.2451 16.8975 97.6364 16.8975C100.941 16.8975 101.267 19.4338 101.267 20.4538V24.8634Z" fill="#231F20"/>
<path d="M128.464 24.0102H123.964C123.029 24.0102 120.747 23.6789 120.747 20.7089C120.747 17.6625 123.029 17.4079 123.964 17.4079H128.551V7.49067C128.551 6.39476 128.878 3.8584 132.356 3.8584C136.008 3.8584 136.248 6.30567 136.248 7.49067V17.4079H141.509C142.532 17.4079 144.726 17.6625 144.726 20.7089C144.726 23.6789 142.444 24.0102 141.509 24.0102H136.248V45.5257C136.248 50.6111 136.334 51.2107 136.596 52.2175C137.183 54.6775 138.791 55.0984 141.096 55.2766C143.117 55.3525 145.249 55.5316 145.249 58.4889C145.249 61.4579 142.532 61.7898 140.248 61.7898C128.465 61.7898 128.465 55.442 128.465 48.8393L128.464 24.0102Z" fill="#231F20"/>
<path d="M155.075 41.4586C155.227 45.2699 156.075 48.6599 158.38 51.464C161.25 55.0208 164.728 55.6072 168.12 55.6072C174.815 55.6072 177.185 52.1404 178.705 49.769C180.055 47.4749 180.49 46.6336 182.36 46.6336C184.207 46.6336 186.751 47.7299 186.751 50.1895C186.751 50.5336 186.751 50.7763 186.665 51.0309C186.338 52.6499 184.881 54.5108 183.969 55.5299C178.12 62.1327 170.49 62.1327 168.12 62.1327C162.597 62.1327 157.011 61.0363 152.684 56.2054C148.879 51.884 147.096 45.779 147.096 39.6863C147.096 29.0054 152.858 16.5518 167.858 16.5518C169.728 16.5518 171.598 16.7304 173.359 17.1508C177.185 18.0813 180.49 19.9427 183.121 23.4986C185.904 27.3986 187.36 32.9049 187.36 37.6468C187.36 41.2031 184.643 41.4577 183.533 41.4577L155.075 41.4586ZM179.38 35.1108C179.055 29.5158 175.989 23.3336 167.947 23.3336C166.163 23.3336 162.684 23.4995 159.728 26.1254C156.336 29.0954 155.575 33.1613 155.14 35.1113L179.38 35.1108Z" fill="#231F20"/>
<path d="M200.23 24.8634C201.86 20.0329 206.688 16.8975 211.687 16.8975C212.6 16.8975 216.339 16.8975 216.339 20.7084C216.339 23.6784 213.969 24.1884 212.774 24.3538C210.664 24.6852 208.469 25.0297 206.165 26.4702C200.577 30.3702 200.577 36.2975 200.577 41.3834V58.2334C200.577 59.597 200.317 61.7897 196.686 61.7897C193.208 61.7897 192.859 59.4184 192.859 58.2334V20.4538C192.859 19.4338 193.208 16.8975 196.599 16.8975C199.903 16.8975 200.229 19.4338 200.229 20.4538L200.23 24.8634Z" fill="#231F20"/>
</svg>
