<svg width="308" height="34" viewBox="0 0 308 34" fill="none" xmlns="http://www.w3.org/2000/svg">
<path d="M45.0256 34.0031H54.5273C56.8768 34.0031 58.517 33.0278 59.3889 31.2103C60.4233 29.0528 74.2841 0.119385 74.2841 0.119385H64.7825C62.433 0.119385 60.7927 1.09467 59.9209 2.91225C58.8865 5.06969 45.0256 34.0031 45.0256 34.0031Z" fill="#001F60"/>
<path d="M227.359 34.0031H236.861C239.211 34.0031 240.851 33.0278 241.723 31.2103C242.757 29.0528 256.618 0.119385 256.618 0.119385H247.116C244.767 0.119385 243.127 1.09467 242.255 2.91225C241.22 5.06969 227.359 34.0031 227.359 34.0031Z" fill="#001F60"/>
<path d="M32.9823 0.119385C30.6771 0.119385 29.3472 0.40015 27.6626 1.28677C27.1011 1.58231 21.0129 4.75938 16.6094 7.09415C13.122 8.94128 10.6986 11.542 9.16176 14.7339C4.7582 23.9252 0 33.9884 0 33.9884H9.50162C11.8512 33.9884 13.4914 33.0131 14.3633 31.1955C14.7475 30.3975 16.8902 25.9201 19.0476 21.4279H34.5192C36.6323 21.4279 37.4598 21.0437 38.2725 19.3443L39.0705 17.645C39.0705 17.645 28.2832 17.645 20.4514 17.645C22.136 14.1132 24.6629 8.82306 24.6629 8.82306C25.7268 6.60651 26.9829 5.70511 29.8053 5.70511H49.8429C52.1925 5.70511 53.8327 4.72982 54.7046 2.91225L56.0493 0.119385C56.0493 0.119385 39.8536 0.119385 32.9971 0.119385H32.9823Z" fill="#001F60"/>
<path d="M178.728 0.134162H174.354C172.005 0.134162 170.364 1.10945 169.493 2.92702C168.902 4.16829 162.621 17.3199 159.4 24.0434C159.267 23.3341 158.779 22.4179 158.351 21.8269C152.484 13.8029 145.569 4.31607 143.263 1.09467C142.48 0.00117111 141.165 -0.131823 139.88 0.54792C138.801 1.12422 138.284 1.39021 137.161 1.98129C133.865 3.72498 131.959 5.95631 130.363 9.26637C125.96 18.4577 118.674 34.0031 118.674 34.0031H123.019C125.368 34.0031 127.009 33.0278 127.881 31.2103C128.353 30.2202 133.688 19.0192 136.776 12.5173C136.85 13.0936 137.16 13.6847 137.441 14.0689C142.259 20.5117 149.647 30.3975 150.386 31.3728C151.642 33.0426 152.957 33.9883 155.307 33.9883H162.474L178.743 0.119385L178.728 0.134162Z" fill="#001F60"/>
<path d="M125.812 0.134162H121.438C119.088 0.134162 117.448 1.10945 116.576 2.92702C115.985 4.16829 109.705 17.3199 106.483 24.0434C106.35 23.3341 105.863 22.4179 105.434 21.8269C99.5677 13.8029 92.652 4.31607 90.3468 1.09467C89.5636 0.00117111 88.2485 -0.131823 86.9629 0.54792C85.8841 1.12422 85.3669 1.39021 84.2439 1.98129C80.9486 3.72498 79.0424 5.95631 77.4464 9.26637C73.0429 18.4577 65.7578 34.0031 65.7578 34.0031H70.1022C72.4518 34.0031 74.0921 33.0278 74.9639 31.2103C75.4368 30.2202 80.7713 19.0192 83.8597 12.5173C83.9336 13.0936 84.2439 13.6847 84.5246 14.0689C89.3419 20.5117 96.7305 30.3975 97.4693 31.3728C98.7254 33.0426 100.041 33.9883 102.39 33.9883H109.557L125.826 0.119385L125.812 0.134162Z" fill="#001F60"/>
<path d="M228.483 7.90688C227.995 7.56701 221.39 2.5576 220.991 2.24728C219.114 0.828683 216.735 0.119385 214.223 0.119385H203.746C201.441 0.119385 200.111 0.40015 198.426 1.28677C197.865 1.58231 191.924 4.70027 187.521 7.03504C183.826 8.98561 181.492 11.5273 179.881 14.8816C175.477 24.073 170.763 34.0031 170.763 34.0031H180.265C182.615 34.0031 184.255 33.0278 185.127 31.2103C185.467 30.4862 187.55 26.1713 189.826 21.4426H211.607C210.011 24.7823 208.504 27.915 207.425 30.1759C206.465 32.1708 207.514 34.0031 210.056 34.0031H218.597C218.597 34.0031 228.66 13.005 229.177 11.9262C230.093 10.0496 229.99 9.00038 228.468 7.90688H228.483ZM191.658 17.645C194.126 12.5025 195.796 9.00038 195.796 9.00038C196.963 6.57695 198.057 5.70511 201.071 5.70511H216.646C218.227 5.70511 218.73 6.57695 218.168 7.72956C216.838 10.5224 215.139 14.0689 213.425 17.645C207.292 17.645 198.278 17.645 191.658 17.645Z" fill="#001F60"/>
<path d="M306.387 7.90688C305.9 7.56701 299.767 2.86792 299.368 2.5576C297.373 1.05034 294.743 0.119385 291.965 0.119385H282.094C279.774 0.119385 278.458 0.40015 276.774 1.28677C276.212 1.58231 270.774 4.43428 266.371 6.76905C262.012 9.07427 259.943 11.276 258.096 15.1329C253.692 24.3242 249.111 34.0031 249.111 34.0031H258.613C260.962 34.0031 262.603 33.0278 263.475 31.2103C263.859 30.4123 266.371 25.2403 268.528 20.7481C268.528 20.7481 270.05 20.7481 274.07 20.7481C276.7 20.7481 277.616 21.5609 278.68 23.3637C280.675 26.7476 282.951 30.5749 283.335 31.2103C284.591 33.3234 285.699 34.0031 288.507 34.0031H299.353C299.353 34.0031 296.531 29.4518 293.309 23.9843C292.807 23.1272 292.231 22.5361 290.605 22.2554C290.103 22.1667 288.078 21.8416 285.965 21.487L286.069 20.7481C290.177 20.7481 293.664 20.7481 294.861 20.7481C300.801 20.7481 303.447 19.4478 304.732 16.9504C305.338 15.7683 306.919 12.2661 307.082 11.9262C308.013 10.0496 307.894 9.00038 306.372 7.90688H306.387ZM296.073 7.74434C295.083 9.81312 294.255 11.6159 292.999 14.2315C292.098 16.1229 290.443 16.9504 286.527 16.9504H269.917C271.602 13.4187 273.966 8.52752 273.966 8.52752C274.897 6.57695 276.301 5.71988 278.769 5.71988H294.536C296.117 5.71988 296.62 6.59173 296.058 7.74434H296.073Z" fill="#001F60"/>
</svg>
