<svg width="404" height="77" viewBox="0 0 404 77" fill="none" xmlns="http://www.w3.org/2000/svg">
<g clip-path="url(#clip0_3821_15668)">
<path d="M194.232 38.5847H157.014C156.463 38.5847 156.004 39.0358 156.004 39.5871V42.6588C156.004 43.2173 156.455 43.6684 157.014 43.6684C157.014 43.6684 170.375 43.6684 170.382 43.6684C170.933 43.6684 171.377 44.1194 171.377 44.6708V75.8316C171.377 76.3829 171.835 76.834 172.38 76.834H178.831C179.382 76.834 179.84 76.3829 179.84 75.8316V44.6779C179.84 44.1194 180.284 43.6755 180.836 43.6755H194.218C194.769 43.6755 195.227 43.2244 195.227 42.6659V39.5943C195.227 39.0429 194.776 38.5918 194.218 38.5918L194.232 38.5847Z" fill="#3F464B"/>
<path d="M139.894 54.0722H127.808C119.781 54.0722 119.137 53.0125 119.137 49.146C119.137 43.5826 122.008 44.1626 130.772 44.1125C130.844 44.1268 151.794 44.1411 151.794 44.1411C152.324 44.1411 152.754 43.7115 152.754 43.1816L152.768 39.5371C152.768 39.0073 152.338 38.5777 151.809 38.5777L126.77 38.6063C116.695 38.6063 111.239 39.9381 111.239 48.8167C111.239 58.8909 116.545 59.7859 131.703 59.7859H138.426C144.577 59.7859 146.166 60.6022 146.166 64.977C146.166 70.1108 144.219 70.8197 137.102 70.8197H111.576C111.046 70.8197 110.617 71.2493 110.617 71.7791V75.8604C110.617 76.3902 111.046 76.8198 111.576 76.8198H139.064C146.689 76.8198 154.143 76.0465 154.143 66.8172V63.5951C154.143 57.1367 149.618 54.065 139.894 54.065V54.0722Z" fill="#3F464B"/>
<path d="M266.127 60.9672C265.826 60.5662 265.74 60.2798 265.848 60.0435C265.912 59.886 266.084 59.664 266.779 59.4134C266.872 59.3991 276.144 57.022 276.144 49.2676C276.144 46.2245 274.11 43.2531 270.559 41.1265C266.549 38.7064 261.616 38.6348 260.972 38.6348C260.607 38.6062 260.105 38.5918 259.396 38.5918C259.396 38.5918 238.503 38.5847 238.467 38.5847C237.83 38.5847 237.315 39.1002 237.315 39.7375C237.315 39.7518 237.315 39.7589 237.322 39.7733C237.322 39.7876 237.315 39.8019 237.315 39.8162V75.8244C237.308 76.3757 237.759 76.8268 238.31 76.8268H244.733C245.284 76.8268 245.735 76.3757 245.735 75.8244V44.9715C245.728 44.0622 246.422 43.6898 247.031 43.6898C247.06 43.6898 257.263 43.6898 257.263 43.6898C258.265 43.6898 259.883 43.7543 260.893 43.833C261.96 43.9261 264.108 44.2483 265.346 44.8784C267.258 45.8307 268.304 47.4274 268.196 49.2533C267.924 53.7856 262.962 55.146 260.334 55.2463C258.91 55.3537 257.384 55.3608 256.797 55.3608H253.224L267.473 75.6884C268.024 76.4903 269.048 76.791 270.044 76.791L278.242 76.7767C278.242 76.7767 277.483 75.8029 266.12 60.9457L266.127 60.9672Z" fill="#3F464B"/>
<path d="M315.818 71.3995H290.436C289.884 71.3995 289.426 70.9484 289.426 70.3899V40.2602C289.426 39.3437 288.674 38.5847 287.75 38.5847H282.724C281.8 38.5847 281.049 39.3365 281.049 40.2602V75.1585C281.049 76.075 281.8 76.834 282.724 76.834H315.811C316.362 76.834 316.82 76.3829 316.82 75.8316V72.4019C316.82 71.8505 316.362 71.3995 315.811 71.3995H315.818Z" fill="#3F464B"/>
<path d="M356.652 38.277H351.59C350.666 38.277 349.914 39.0288 349.914 39.9525V62.9293C349.914 67.9557 345.504 71.0846 338.422 71.0846C331.341 71.0846 326.938 67.9557 326.938 62.9293V39.9525C326.938 39.0288 326.186 38.277 325.262 38.277H320.2C319.276 38.277 318.524 39.0288 318.524 39.9525V63.5808C318.524 71.2565 326.895 76.8342 338.422 76.8342C349.95 76.8342 358.328 71.2565 358.328 63.5808V39.9525C358.328 39.0288 357.576 38.277 356.652 38.277Z" fill="#3F464B"/>
<path d="M386.395 57.6592C386.209 57.4444 386.209 57.0005 386.395 56.7857C386.395 56.7857 400.458 40.4463 400.458 40.4392C400.622 40.2458 400.73 40.0024 400.73 39.7231C400.73 39.0931 400.221 38.5847 399.591 38.5847H394.508C393.391 38.5847 392.138 39.0859 391.558 39.7303L381.698 51.1578C381.562 51.301 381.369 51.3941 381.154 51.3941C380.939 51.3941 380.732 51.2939 380.596 51.1364L370.736 39.7303C370.178 39.0859 368.91 38.5847 367.793 38.5847H362.717C362.087 38.5847 361.578 39.0931 361.578 39.7231C361.578 40.0024 361.686 40.2458 361.858 40.4463L375.913 56.7785C376.106 56.9933 376.106 57.4373 375.906 57.6521L359.101 76.8268H366.683C368.302 76.8197 369.068 76.3256 369.619 75.6669L380.51 63.0436H380.517C380.653 62.8718 380.903 62.7286 381.147 62.7286C381.369 62.7286 381.598 62.8503 381.741 63.0078L392.66 75.674C393.219 76.3328 393.942 76.8268 395.603 76.8268H403.193L386.388 57.6592H386.395Z" fill="#3F464B"/>
<path d="M226.41 76.8268H233.57L213.65 39.4439C213.65 39.4439 213.622 39.4224 213.615 39.4081C213.292 38.9069 212.734 38.5847 212.097 38.5847H207.235C206.598 38.5847 206.039 38.9141 205.717 39.4153C205.71 39.4296 205.696 39.4367 205.688 39.4439L185.747 76.834H192.872C193.939 76.834 194.869 76.2325 195.335 75.3447C197.569 70.8267 209.24 47.2198 209.24 47.2198C209.319 47.0551 209.476 46.9405 209.662 46.9405C209.834 46.9405 209.984 47.0336 210.063 47.1768C210.063 47.1768 222.013 71.4281 223.99 75.4234C224.469 76.2683 225.364 76.834 226.395 76.834L226.41 76.8268Z" fill="#3F464B"/>
<path d="M40.4404 33.0007L67.2764 6.16459C70.1548 3.52967 73.4842 1.4604 77.5798 0.350586H50.7079C50.3857 0.350586 50.0635 0.357746 49.7413 0.372066C49.5838 0.379226 49.4263 0.393547 49.2688 0.407867C49.1542 0.415027 49.0396 0.422187 48.9179 0.436507C48.0873 0.515268 47.2424 0.658471 46.4119 0.837473C46.3689 0.844633 46.326 0.858954 46.2902 0.866114C46.1255 0.901914 45.9679 0.944875 45.8033 0.987836C43.2185 1.67521 40.8485 2.88526 38.815 4.50345C38.2494 4.95454 37.698 5.4271 37.1897 5.94263L4.5324 38.5927H26.9579C32.2205 38.5856 36.982 36.4447 40.4332 33.0007H40.4404Z" fill="#96694C"/>
<path d="M37.2397 44.1847L10.554 70.8704C7.77588 73.4481 4.32471 75.6534 0 76.8348H26.9721C27.2943 76.8348 27.6165 76.8277 27.9387 76.8133C28.0963 76.8062 28.2538 76.7918 28.4113 76.7775C28.5259 76.7704 28.6404 76.7632 28.755 76.7489C29.5856 76.6701 30.4305 76.5269 31.261 76.3479C31.304 76.3408 31.3398 76.3264 31.3828 76.3193C31.5474 76.2835 31.705 76.2405 31.8696 76.2047C34.4544 75.5173 36.8244 74.3073 38.8579 72.6891C39.4236 72.238 39.9749 71.7654 40.4833 71.2499L73.1477 38.5998H50.7222C45.4595 38.607 40.6981 40.7479 37.2469 44.1919L37.2397 44.1847Z" fill="#85754E"/>
<path d="M84.3819 21.3942C84.3819 21.3942 84.3604 21.3369 84.3604 21.3011C84.3604 21.1866 84.4391 21.0863 84.5465 21.0505C87.5251 20.1341 96.0099 19.282 96.0099 19.282C96.0099 19.282 87.4893 18.7307 84.5179 17.8142C84.4105 17.7784 84.3317 17.6781 84.3317 17.5564C84.3317 17.5206 84.3389 17.492 84.3461 17.4633C84.7112 16.4466 87.4177 12.888 87.4177 12.888L82.8925 16.0528C82.8925 16.0528 82.8353 16.0671 82.8066 16.0671C82.6777 16.0671 82.5775 15.974 82.5489 15.8523C81.6252 11.3414 81.0238 2.99991 81.0166 2.94263C81.0166 2.99991 80.4152 11.3414 79.4843 15.8523C79.4557 15.974 79.3555 16.0599 79.2266 16.0599C79.1979 16.0599 79.1693 16.0528 79.1406 16.0456L74.6155 12.8809C74.6155 12.8809 77.3578 16.3822 77.723 17.3917C77.723 17.3917 77.7373 17.449 77.7373 17.4848C77.7373 17.6065 77.6585 17.6996 77.5511 17.7354C74.5725 18.6519 66.0233 19.2677 66.0233 19.2677C66.0233 19.2677 74.5439 20.1627 77.5225 21.072C77.6299 21.1078 77.7086 21.2081 77.7086 21.3298C77.7086 21.3584 77.7086 21.3942 77.6871 21.4229C77.322 22.4324 74.6155 25.6545 74.6155 25.6545L79.1621 22.8477C79.1621 22.8477 79.2194 22.8334 79.2481 22.8334C79.3769 22.8334 79.4772 22.9265 79.5058 23.0482C80.4295 27.5591 81.0094 35.9078 81.0166 35.965C81.0166 35.9078 81.6395 27.5591 82.5632 23.0482C82.5918 22.9265 82.6921 22.8406 82.8209 22.8406C82.8496 22.8406 82.8782 22.8406 82.9069 22.8549L87.4177 25.6617C87.4177 25.6617 84.747 22.3966 84.3819 21.3871V21.3942Z" fill="#96694C"/>
</g>
<defs>
<clipPath id="clip0_3821_15668">
<rect width="403.193" height="76.4843" fill="white" transform="translate(0 0.350586)"/>
</clipPath>
</defs>
</svg>
