<svg>
  <defs
     id="defs4">
    <clipPath
       clipPathUnits="userSpaceOnUse"
       id="clipPath3151">
      <path
         d="m 190.636,589.727 234.532,0 0,54.819 -234.532,0 0,-54.819 z"
         id="path3153" />
    </clipPath>
    <clipPath
       clipPathUnits="userSpaceOnUse"
       id="clipPath44048">
      <path
         d="m 203.262,624.717 143.86,0 0,30.418 -143.86,0 0,-30.418 z"
         id="path44050" />
    </clipPath>
    <clipPath
       clipPathUnits="userSpaceOnUse"
       id="clipPath44084">
      <path
         d="m 429.16,613.423 108.016,0 0,51.912 -108.016,0 0,-51.912 z"
         id="path44086" />
    </clipPath>
    <clipPath
       clipPathUnits="userSpaceOnUse"
       id="clipPath60303">
      <path
         d="m 501.4608,74.18813 107.4711,0 0,-78.433031 -107.4711,0 0,78.433031 z"
         id="path60305" />
    </clipPath>
    <clipPath
       clipPathUnits="userSpaceOnUse"
       id="clipPath60309">
      <path
         d="m 520,19 69,0 0,39 -69,0 0,-39 z"
         id="path60311" />
    </clipPath>
    <clipPath
       clipPathUnits="userSpaceOnUse"
       id="clipPath61247">
      <path
         d="M 155.379,978 30,978 l 0,-42.473 125.379,0 0,42.473 z"
         id="path61249" />
    </clipPath>
    <clipPath
       clipPathUnits="userSpaceOnUse"
       id="clipPath63360">
      <path
         d="m 401,88.301 159.468,0 0,-51.324 -159.468,0"
         id="path63362" />
    </clipPath>
    <clipPath
       clipPathUnits="userSpaceOnUse"
       id="clipPath63368">
      <path
         d="m 401,88.2974 0,-51.2944 159.376,0 0,51.2944"
         id="path63370" />
    </clipPath>
    <clipPath
       clipPathUnits="userSpaceOnUse"
       id="clipPath63360-4">
      <path
         d="m 401,88.301 159.468,0 0,-51.324 -159.468,0"
         id="path63362-0" />
    </clipPath>
    <clipPath
       clipPathUnits="userSpaceOnUse"
       id="clipPath63368-9">
      <path
         d="m 401,88.2974 0,-51.2944 159.376,0 0,51.2944"
         id="path63370-4" />
    </clipPath>
    <clipPath
       clipPathUnits="userSpaceOnUse"
       id="clipPath63960">
      <path
         d="m 140.4,208.404 217.811,0 0,34.463 -217.811,0 0,-34.463 z"
         id="path63962" />
    </clipPath>
    <clipPath
       clipPathUnits="userSpaceOnUse"
       id="clipPath64439">
      <path
         d="m 0,0 623.622,0 0,538.583 L 0,538.583 0,0 z"
         id="path64441" />
    </clipPath>
    <clipPath
       clipPathUnits="userSpaceOnUse"
       id="clipPath66235">
      <path
         d="m 233.575,551.99 332.816,0 0,199.192 -332.816,0 0,-199.192 z"
         id="path66237" />
    </clipPath>
  </defs>
  <metadata
     id="metadata7">
  </metadata>
  <g
     id="layer1"
     transform="translate(-2159.1223,1386.7892)">
    <g
       id="g65983"
       transform="matrix(3.0867258,0,0,-3.0867258,1061.6287,1272.4026)">
      <g
         transform="matrix(1.5646851,0,0,1.5646851,-104.14949,-230.62515)"
         id="g66231"
         style="fill:#473729;fill-opacity:1">
        <g
           id="g66233"
           clip-path="url(#clipPath66235)"
           style="fill:#473729;fill-opacity:1">
          <g
             id="g66239"
             transform="matrix(0.4672546,0,0,-0.4656219,486.2948,582.70111)"
             style="fill:#473729;fill-opacity:1">
            <g
               id="g66241"
               transform="translate(-384.9388,-128.1905)"
               style="fill:#473729;fill-opacity:1">
              <path

                 d="m 0,0 c -0.147,0.573 -0.108,0.663 -0.289,0.563 -1.303,-1.043 -5.025,-4.53 -6.299,-5.719 -1.28,-1.193 -3.689,-3.885 -4.279,-4.739 1.346,-0.469 10.24,-1.18 10.471,-1.184 C -0.017,-11.083 0.146,-0.571 0,0"
                 style="fill:#473729;fill-opacity:1;fill-rule:evenodd;stroke:none"
                 id="path66243" />
            </g>
          </g>
          <g
             id="g66245"
             transform="matrix(0.4672546,0,0,-0.4656219,486.2948,582.70111)"
             style="fill:#473729;fill-opacity:1">
            <g
               id="g66247"
               transform="translate(-372.0638,-146.3165)"
               style="fill:#473729;fill-opacity:1">
              <path

                 d="m 0,0 c -1.938,0.462 -7.813,0.375 -7.938,0.147 -0.129,-0.227 -0.531,-9.6 -0.531,-9.6 0.223,0.296 0.473,0.793 0.609,0.939 0.135,0.146 2.905,3.281 3.315,3.721 0.405,0.441 2.836,3.254 3.391,3.685 C -0.594,-0.682 0,0 0,0"
                 style="fill:#473729;fill-opacity:1;fill-rule:evenodd;stroke:none"
                 id="path66249" />
            </g>
          </g>
          <g
             id="g66251"
             transform="matrix(0.4672546,0,0,-0.4656219,486.2948,582.70111)"
             style="fill:#473729;fill-opacity:1">
            <g
               id="g66253"
               transform="translate(-342.6165,-178.5802)"
               style="fill:#473729;fill-opacity:1">
              <path

                 d="m 0,0 c -0.61,1.063 -0.941,1.564 -1.153,1.955 -0.209,0.392 -0.641,0.884 -0.894,1.274 -0.246,0.389 -0.54,0.732 -0.975,1.268 -0.879,-1.205 -2.193,-3.031 -2.996,-4.194 -0.809,-1.162 -1.746,-3.074 -2.248,-3.812 1.156,-1.508 1.813,-2.365 2.24,-2.971 0.554,-0.783 1.496,-2.175 2.099,-3.19 0.603,-1.01 0.915,-1.521 0.915,-1.521 0.816,1.087 1.859,2.768 2.595,3.853 0.737,1.086 1.633,2.549 2.021,3.073 0.127,0.169 0.25,0.344 0.353,0.526 0.076,0.139 0.119,0.279 0.218,0.412 0.052,0.071 0.063,0.063 0.029,0.14 -0.115,0.296 -0.392,0.543 -0.586,0.798 -0.195,0.252 -0.382,0.514 -0.56,0.781 C 0.764,-1.175 0.495,-0.725 0.203,-0.291 0.138,-0.191 0.059,-0.103 0,0"
                 style="fill:#473729;fill-opacity:1;fill-rule:evenodd;stroke:none"
                 id="path66255" />
            </g>
          </g>
          <g
             id="g66257"
             transform="matrix(0.4672546,0,0,-0.4656219,486.2948,582.70111)"
             style="fill:#473729;fill-opacity:1">
            <g
               id="g66259"
               transform="translate(-373.5579,-123.5997)"
               style="fill:#473729;fill-opacity:1">
              <path

                 d="m 0,0 c 0.229,-0.347 4.582,-6.676 4.715,-6.912 0.139,-0.236 0.569,-1.167 0.826,-1.671 0.257,-0.505 0.83,-1.522 1.058,-1.96 0.226,-0.436 4.378,-7.603 4.378,-7.603 0.499,0.446 0.299,0.187 0.649,0.403 0.348,0.212 1.514,0.869 1.752,1.023 0.234,0.154 0.42,0.287 0.42,0.287 -0.443,0.623 -2.001,3.417 -2.39,4.173 C 11.022,-11.508 6.153,-2.118 5.925,-1.618 5.695,-1.119 5.015,0.311 4.791,0.927 4.562,1.541 4.364,1.675 4.181,1.995 3.933,2.435 3.795,2.797 3.616,3.138 3.382,3.585 3.181,3.881 3.181,3.881 2.704,3.425 1.383,3.056 1.048,2.673 0.722,2.282 -1.008,1.342 -1.008,1.342 -0.529,0.653 -0.341,0.508 0,0"
                 style="fill:#473729;fill-opacity:1;fill-rule:evenodd;stroke:none"
                 id="path66261" />
            </g>
          </g>
          <g
             id="g66263"
             transform="matrix(0.4672546,0,0,-0.4656219,486.2948,582.70111)"
             style="fill:#473729;fill-opacity:1">
            <g
               id="g66265"
               transform="translate(-379.4642,-125.9757)"
               style="fill:#473729;fill-opacity:1">
              <path

                 d="m 0,0 c -0.179,-0.555 -1.074,-12.68 -1.177,-13.305 -0.108,-0.629 -0.004,-1.437 -0.119,-1.791 0.484,-0.342 13.084,-1.771 13.391,-1.883 0.307,-0.105 0.57,0.195 0.298,0.497 C 12.117,-16.181 2.016,0.057 1.533,0.605 1.061,1.154 0.752,1.4 0.446,1.571 0.019,0.834 0.279,0.864 0,0"
                 style="fill:#473729;fill-opacity:1;fill-rule:evenodd;stroke:none"
                 id="path66267" />
            </g>
          </g>
          <g
             id="g66269"
             transform="matrix(0.4672546,0,0,-0.4656219,486.2948,582.70111)"
             style="fill:#473729;fill-opacity:1">
            <g
               id="g66271"
               transform="translate(-385.5101,-145.6359)"
               style="fill:#473729;fill-opacity:1">
              <path

                 d="M 0,0 C -0.269,0.147 -12.122,2.982 -12.684,3.243 -13.244,3.511 -12.878,3.005 -13.036,3.07 -12.825,2.536 1.82,-14.123 1.82,-14.123 1.738,-12.669 0.171,-0.17 0,0"
                 style="fill:#473729;fill-opacity:1;fill-rule:evenodd;stroke:none"
                 id="path66273" />
            </g>
          </g>
          <g
             id="g66275"
             transform="matrix(0.4672546,0,0,-0.4656219,486.2948,582.70111)"
             style="fill:#473729;fill-opacity:1">
            <g
               id="g66277"
               transform="translate(-402.4232,-147.5519)"
               style="fill:#473729;fill-opacity:1">
              <path

                 d="m 0,0 c -0.279,0.166 -0.499,-0.264 -0.499,-0.264 -0.569,-1.233 -1.188,-2.178 -1.394,-2.572 -0.203,-0.398 -0.311,-0.868 -0.311,-0.868 1.15,-1.176 7.358,-7.13 8.883,-8.878 1.518,-1.745 5.937,-6.112 6.828,-7.214 0.889,-1.101 1.344,-1.546 1.473,-1.751 0.127,-0.204 0.429,-0.657 0.429,-0.657 0.186,0.777 0.35,1.232 0.588,1.994 0.246,0.798 0.719,2.132 0.879,2.682 -2.83,3.462 -6.67,7.064 -7.405,7.943 -0.738,0.877 -7.755,7.621 -8.168,8.19 C 0.89,-0.829 0,0 0,0"
                 style="fill:#473729;fill-opacity:1;fill-rule:evenodd;stroke:none"
                 id="path66279" />
            </g>
          </g>
          <g
             id="g66281"
             transform="matrix(0.4672546,0,0,-0.4656219,486.2948,582.70111)"
             style="fill:#473729;fill-opacity:1">
            <g
               id="g66283"
               transform="translate(-407.847,-157.0157)"
               style="fill:#473729;fill-opacity:1">
              <path

                 d="m 0,0 c -0.347,-0.643 -0.458,-1.37 -0.566,-1.706 -0.116,-0.335 -0.246,-1.311 -0.365,-1.858 -0.117,-0.552 -0.242,-1.639 -0.296,-1.935 0.262,-0.108 0.72,-0.536 1.149,-0.808 0.432,-0.269 5.491,-4.964 6.243,-5.772 0.752,-0.807 2.472,-2.359 3.61,-3.447 1.142,-1.092 4.658,-4.887 5.28,-5.334 0.627,-0.445 1.832,-1.538 2.155,-1.68 -1.072,-0.643 -7.347,-3.761 -8.873,-4.451 -1.528,-0.683 -7.973,-4.103 -8.828,-4.537 -0.852,-0.44 -2.498,-1.206 -2.687,-1.285 0.032,-0.739 0.311,-1.684 0.397,-2.453 0.086,-0.771 0.275,-1.884 0.275,-2.21 0.99,0.288 10.052,5.391 10.904,5.831 0.857,0.438 2.322,0.941 2.796,1.15 0.477,0.21 6.525,3.453 7.059,3.707 0.536,0.249 0.968,0.481 0.968,0.481 0.175,0.176 0.207,0.215 0.182,1.065 -0.022,0.851 0.05,1.976 -0.041,2.705 -0.094,0.727 0.007,3.899 0.007,3.899 -1.943,1.897 -4.165,4.589 -5.974,6.194 -1.804,1.607 -8.658,8.326 -8.658,8.326 -0.462,0.43 -2.833,2.947 -3.379,3.251 C 0.771,-0.541 0.323,-0.255 0,0"
                 style="fill:#473729;fill-opacity:1;fill-rule:evenodd;stroke:none"
                 id="path66285" />
            </g>
          </g>
          <g
             id="g66287"
             transform="matrix(0.4672546,0,0,-0.4656219,486.2948,582.70111)"
             style="fill:#473729;fill-opacity:1">
            <g
               id="g66289"
               transform="translate(-406.8939,-181.1447)"
               style="fill:#473729;fill-opacity:1">
              <path

                 d="m 0,0 c 0.557,0.274 1.878,0.713 2.517,1.04 0.643,0.331 1.09,0.385 1.578,0.581 0.454,0.18 2.888,0.745 3.134,0.796 0,0 -0.252,0.181 -0.778,0.57 C 5.893,3.401 3.53,5.39 2.301,6.361 1.068,7.33 -1.813,9.604 -2.478,10.073 c -0.665,0.469 -1.244,0.653 -1.244,0.653 -0.44,-2.5 -0.76,-4.978 -0.85,-6.039 -0.089,-1.061 -0.337,-4.694 -0.276,-5.429 0.06,-0.739 0.023,-0.853 0.023,-0.853 1.054,0.292 1.318,0.399 2.046,0.674 C -1.82,-0.568 -0.406,-0.199 0,0"
                 style="fill:#473729;fill-opacity:1;fill-rule:evenodd;stroke:none"
                 id="path66291" />
            </g>
          </g>
          <g
             id="g66293"
             transform="matrix(0.4672546,0,0,-0.4656219,486.2948,582.70111)"
             style="fill:#473729;fill-opacity:1">
            <g
               id="g66295"
               transform="translate(-387.4202,-190.3468)"
               style="fill:#473729;fill-opacity:1">
              <path

                 d="m 0,0 c -2.286,-0.911 -19.249,-8.346 -19.392,-8.417 -0.138,-0.075 -2.212,-0.696 -2.212,-0.696 0.041,-0.758 0.399,-2.269 0.559,-2.616 0.16,-0.347 0.622,-1.174 0.622,-1.174 0.573,0.321 1.307,0.556 2.008,0.966 0.698,0.407 8.125,3.815 9.951,4.618 1.828,0.802 8.164,3.381 8.468,3.478 0.353,0.114 0.649,0.249 0.649,0.249 -0.325,0.815 -0.394,1.417 -0.444,1.92 C 0.16,-1.166 0.022,-0.575 0.047,-0.388 0.06,-0.193 0,0 0,0"
                 style="fill:#473729;fill-opacity:1;fill-rule:evenodd;stroke:none"
                 id="path66297" />
            </g>
          </g>
          <g
             id="g66299"
             transform="matrix(0.4672546,0,0,-0.4656219,486.2948,582.70111)"
             style="fill:#473729;fill-opacity:1">
            <g
               id="g66301"
               transform="translate(-384.3821,-199.9835)"
               style="fill:#473729;fill-opacity:1">
              <path

                 d="m 0,0 c 0.171,-0.211 0.048,-0.453 0.082,-0.651 0.035,-0.201 -1.4,-5.572 -1.686,-6.713 -0.292,-1.142 -2.048,-6.433 -2.089,-6.577 -0.045,-0.144 -0.202,-0.631 -0.406,-0.605 -0.432,0.063 -12.444,2.784 -13.207,2.947 -0.759,0.161 -1.3,0.344 -1.541,0.428 -0.497,0.176 -1.398,0.668 -1.398,0.668 0.473,0.336 1.187,0.538 1.571,0.788 0.384,0.25 17.004,8.943 17.333,9.199 C -1.009,-0.254 0,0 0,0"
                 style="fill:#473729;fill-opacity:1;fill-rule:evenodd;stroke:none"
                 id="path66303" />
            </g>
          </g>
          <g
             id="g66305"
             transform="matrix(0.4672546,0,0,-0.4656219,486.2948,582.70111)"
             style="fill:#473729;fill-opacity:1">
            <g
               id="g66307"
               transform="translate(-398.8343,-218.714)"
               style="fill:#473729;fill-opacity:1">
              <path

                 d="m 0,0 c -0.35,0.158 -0.657,0.251 -0.657,0.251 0.59,-0.977 1.815,-2.902 2.514,-3.809 0.693,-0.903 2.891,-3.725 4.066,-4.824 1.173,-1.101 3.036,-2.872 3.556,-3.33 0.524,-0.456 0.811,-0.664 0.811,-0.664 0.183,-0.072 0.475,-0.077 0.475,-0.077 0.203,0.121 0.214,0.262 0.376,0.697 0.191,0.595 0.902,5.522 0.996,6.188 0.091,0.664 0.506,2.794 0.539,3.091 C 12.158,-2.342 2.515,-0.575 1.936,-0.371 1.586,-0.247 0.421,-0.192 0,0"
                 style="fill:#473729;fill-opacity:1;fill-rule:evenodd;stroke:none"
                 id="path66309" />
            </g>
          </g>
          <g
             id="g66311"
             transform="matrix(0.4672546,0,0,-0.4656219,486.2948,582.70111)"
             style="fill:#473729;fill-opacity:1">
            <g
               id="g66313"
               transform="translate(-380.8831,-206.462)"
               style="fill:#473729;fill-opacity:1">
              <path

                 d="m 0,0 c -0.224,-1.129 -0.834,-6.245 -0.88,-6.969 -0.049,-0.722 -0.735,-4.12 -0.735,-4.12 0.415,-0.003 0.547,-0.092 1.116,-0.032 0.57,0.062 9.858,0.992 10.15,1.075 0.292,0.086 0.814,0.148 1.004,0.353 C 9.188,-8.85 7.366,-7.528 5.224,-5.534 3.083,-3.542 0.339,-0.416 0,0"
                 style="fill:#473729;fill-opacity:1;fill-rule:evenodd;stroke:none"
                 id="path66315" />
            </g>
          </g>
          <g
             id="g66317"
             transform="matrix(0.4672546,0,0,-0.4656219,486.2948,582.70111)"
             style="fill:#473729;fill-opacity:1">
            <g
               id="g66319"
               transform="translate(-365.597,-220.0489)"
               style="fill:#473729;fill-opacity:1">
              <path

                 d="m 0,0 c -1.042,0.013 -13.51,-2.196 -14.138,-2.335 -0.623,-0.136 -1.792,-0.299 -1.792,-0.299 -0.289,-2.134 -1.004,-5.508 -1.234,-6.653 -0.236,-1.15 -0.684,-3.054 -0.795,-3.94 -0.127,-0.974 -0.068,-1.09 0.549,-0.417 0.322,0.351 16.412,12.605 16.9,13.01 C -0.011,-0.225 0.238,0.004 0,0"
                 style="fill:#473729;fill-opacity:1;fill-rule:evenodd;stroke:none"
                 id="path66321" />
            </g>
          </g>
          <g
             id="g66323"
             transform="matrix(0.4672546,0,0,-0.4656219,486.2948,582.70111)"
             style="fill:#473729;fill-opacity:1">
            <g
               id="g66325"
               transform="translate(-356.7122,-223.0822)"
               style="fill:#473729;fill-opacity:1">
              <path

                 d="m 0,0 c -0.938,0.205 -2.752,0.651 -3.096,0.746 -0.337,0.096 -0.324,0.221 -0.488,0.088 -0.087,-0.067 -1.266,-0.91 -1.864,-1.387 -0.608,-0.476 -15.22,-13.313 -15.523,-13.531 -0.301,-0.223 -0.275,-0.303 -0.065,-0.424 0.209,-0.115 2.171,-1.459 2.615,-1.862 0.438,-0.404 0.587,-0.41 0.587,-0.41 0.286,0.377 4.936,4.854 5.878,5.671 1.608,1.397 4.731,4.135 5.849,5.124 1.113,0.989 3.246,3.12 3.909,3.725 0.666,0.611 1.88,1.815 1.962,1.898 C -0.146,-0.276 0,0 0,0"
                 style="fill:#473729;fill-opacity:1;fill-rule:evenodd;stroke:none"
                 id="path66327" />
            </g>
          </g>
          <g
             id="g66329"
             transform="matrix(0.4672546,0,0,-0.4656219,486.2948,582.70111)"
             style="fill:#473729;fill-opacity:1">
            <g
               id="g66331"
               transform="translate(-366.7552,-242.2423)"
               style="fill:#473729;fill-opacity:1">
              <path

                 d="m 0,0 c -0.286,-0.318 -0.555,-0.539 0.057,-0.744 0.612,-0.203 1.987,-0.775 2.888,-1.035 0.894,-0.257 1.199,-0.358 1.199,-0.358 1.336,1.706 2.986,3.246 4.404,4.659 1.417,1.416 9.423,9.117 10.267,9.975 0.845,0.857 3.423,3.885 3.423,3.885 0.546,-0.795 4.16,-11.414 4.518,-12.021 0.357,-0.603 2.736,-6.019 2.919,-6.498 0.182,-0.479 1.13,-2.266 1.13,-2.266 0.586,0.12 1.085,0.152 1.472,0.261 0.44,0.129 1.56,0.262 1.872,0.332 0.314,0.068 0.537,0.261 0.537,0.261 -0.326,0.404 -0.426,0.92 -0.748,1.699 -0.317,0.783 -1.858,4.458 -2.599,6.246 -0.744,1.789 -3.772,10.728 -4.11,11.321 -0.338,0.593 -0.856,1.46 -0.991,1.814 -0.923,-0.19 -8.156,0.081 -8.156,0.081 C 17.971,17.519 17.735,17.21 17.416,16.97 17.1,16.731 11.906,11.495 11.157,10.771 10.409,10.05 2.452,2.344 2.031,1.823 1.707,1.419 0.637,0.695 0,0"
                 style="fill:#473729;fill-opacity:1;fill-rule:evenodd;stroke:none"
                 id="path66333" />
            </g>
          </g>
          <g
             id="g66335"
             transform="matrix(0.4672546,0,0,-0.4656219,486.2948,582.70111)"
             style="fill:#473729;fill-opacity:1">
            <g
               id="g66337"
               transform="translate(-346.261,-235.3937)"
               style="fill:#473729;fill-opacity:1">
              <path

                 d="m 0,0 c -0.798,-1.042 -2.568,-2.987 -4.101,-4.732 -1.531,-1.742 -3.289,-3.879 -3.73,-4.324 -0.434,-0.452 -1.548,-1.727 -1.548,-1.727 1.919,-0.546 2.827,-0.617 4.257,-0.759 1.941,-0.187 4.177,-0.248 5.303,-0.318 1.096,-0.071 2.017,-0.071 2.715,-0.076 0.705,-0.002 1.354,-0.027 1.354,-0.027 C 3.642,-9.66 0,0 0,0"
                 style="fill:#473729;fill-opacity:1;fill-rule:evenodd;stroke:none"
                 id="path66339" />
            </g>
          </g>
          <g
             id="g66341"
             transform="matrix(0.4672546,0,0,-0.4656219,486.2948,582.70111)"
             style="fill:#473729;fill-opacity:1">
            <g
               id="g66343"
               transform="translate(-335.6282,-223.4288)"
               style="fill:#473729;fill-opacity:1">
              <path

                 d="m 0,0 c 0.4,-0.663 1.005,-1.539 1.342,-2.096 0.333,-0.56 6.178,-10.219 6.682,-10.986 0.504,-0.77 2.566,-3.913 2.943,-4.527 0.376,-0.621 1.197,-2.204 1.197,-2.204 0.98,-0.057 2.463,0.774 3.248,1.062 0.789,0.284 1.603,0.977 1.91,1.166 0.313,0.185 0.584,0.37 0.584,0.37 -1.053,1.51 -1.432,2.052 -1.608,2.372 -0.372,0.705 -2.7,3.425 -3.33,4.222 -0.629,0.801 -1.357,2.079 -2.09,2.892 C 10.146,-6.915 6.603,-1.846 6.042,-1.07 5.487,-0.29 5.132,0.321 4.996,0.608 4.735,1.161 4.808,1.342 4.4,1.215 3.922,1.068 2.654,0.648 2.016,0.489 1.377,0.332 0,0 0,0"
                 style="fill:#473729;fill-opacity:1;fill-rule:evenodd;stroke:none"
                 id="path66345" />
            </g>
          </g>
          <g
             id="g66347"
             transform="matrix(0.4672546,0,0,-0.4656219,486.2948,582.70111)"
             style="fill:#473729;fill-opacity:1">
            <g
               id="g66349"
               transform="translate(-324.6536,-220.0011)"
               style="fill:#473729;fill-opacity:1">
              <path

                 d="m 0,0 c 0.896,-1.453 3.34,-5.273 4.296,-6.599 0.953,-1.323 4.162,-5.628 4.895,-6.53 0.73,-0.9 3.109,-4.023 3.505,-4.486 0.407,-0.46 0.179,0.207 0.133,1.165 -0.043,0.887 -0.642,9.366 -0.635,10.15 0.006,0.785 -0.255,1.205 -0.426,1.534 -0.547,0.421 -0.864,0.675 -1.564,0.881 C 9.505,-3.679 1.362,-0.27 0.842,-0.133 0.324,0.002 0,0 0,0"
                 style="fill:#473729;fill-opacity:1;fill-rule:evenodd;stroke:none"
                 id="path66351" />
            </g>
          </g>
          <g
             id="g66353"
             transform="matrix(0.4672546,0,0,-0.4656219,486.2948,582.70111)"
             style="fill:#473729;fill-opacity:1">
            <g
               id="g66355"
               transform="translate(-312.6956,-209.0978)"
               style="fill:#473729;fill-opacity:1">
              <path

                 d="m 0,0 c -0.7,-0.608 -1.98,-1.832 -2.964,-2.71 -0.975,-0.88 -2.718,-2.299 -3.462,-2.934 -0.746,-0.639 -1.8,-1.582 -2.011,-1.633 0.851,-0.405 2.164,-0.492 2.837,-0.652 0.674,-0.16 4.193,-0.851 4.557,-0.996 0.447,-0.179 0.817,-0.309 1.006,-0.34 C 0.442,-9.35 0.364,-9.521 0.318,-8.644 0.271,-7.765 0.085,-1.086 0.097,-0.738 0.111,-0.396 0.218,0.191 0,0"
                 style="fill:#473729;fill-opacity:1;fill-rule:evenodd;stroke:none"
                 id="path66357" />
            </g>
          </g>
          <g
             id="g66359"
             transform="matrix(0.4672546,0,0,-0.4656219,486.2948,582.70111)"
             style="fill:#473729;fill-opacity:1">
            <g
               id="g66361"
               transform="translate(-307.4954,-205.8517)"
               style="fill:#473729;fill-opacity:1">
              <path

                 d="m 0,0 c -0.333,0.419 -0.446,0.496 -0.432,0.333 -0.041,-0.873 0.015,-1.817 0.043,-2.276 0.027,-0.458 0.166,-1.801 0.166,-2.209 0,-0.408 0.175,-2.801 0.192,-3.596 0.012,-0.803 0.292,-3.979 0.277,-4.321 1.418,-0.429 2.757,-0.561 3.7,-0.711 0.95,-0.148 7.024,-1.383 7.621,-1.488 0.596,-0.102 1.005,-0.219 1.236,-0.268 0.231,-0.048 -0.065,0.196 -0.555,0.572 -0.491,0.376 -1.41,1.299 -2.083,1.749 -0.672,0.452 -4.894,5.594 -5.878,6.793 C 3.299,-4.225 0.263,-0.453 0,0"
                 style="fill:#473729;fill-opacity:1;fill-rule:evenodd;stroke:none"
                 id="path66363" />
            </g>
          </g>
          <g
             id="g66365"
             transform="matrix(0.4672546,0,0,-0.4656219,486.2948,582.70111)"
             style="fill:#473729;fill-opacity:1">
            <g
               id="g66367"
               transform="translate(-304.848,-194.5206)"
               style="fill:#473729;fill-opacity:1">
              <path

                 d="m 0,0 c -0.25,-0.844 -0.667,-3.03 -0.778,-3.56 -0.123,-0.534 -0.205,-1.465 -0.367,-1.699 0.441,-0.393 0.469,-0.569 0.808,-0.87 0.337,-0.3 4.32,-4.719 5.05,-5.379 0.725,-0.663 3.753,-3.702 4.117,-4.132 0.367,-0.437 0.883,-1.392 1.294,-1.833 0.417,-0.442 2.911,-3.419 3.281,-3.715 0.376,-0.296 0.83,-0.646 0.83,-0.646 0.425,0.43 0.678,0.743 1.166,1.507 0.479,0.766 0.956,1.306 1.11,1.603 0.156,0.3 0.545,1.014 0.677,1.155 -2.195,1.798 -1.71,1.406 -2.1,1.681 -0.383,0.28 -1.046,0.984 -1.126,1.092 -0.128,0.185 -0.467,0.692 -0.966,1.136 C 12.493,-13.215 2.44,-2.27 2.1,-1.936 1.753,-1.599 1.455,-1.239 1.245,-1.003 1.033,-0.767 0.339,-0.27 0,0"
                 style="fill:#473729;fill-opacity:1;fill-rule:evenodd;stroke:none"
                 id="path66369" />
            </g>
          </g>
          <g
             id="g66371"
             transform="matrix(0.4672546,0,0,-0.4656219,486.2948,582.70111)"
             style="fill:#473729;fill-opacity:1">
            <g
               id="g66373"
               transform="translate(-296.7308,-224.0353)"
               style="fill:#473729;fill-opacity:1">
              <path

                 d="m 0,0 c -0.812,0.109 -0.888,0.109 -1.379,0.221 -0.339,0.077 -9.396,1.268 -9.396,1.268 0,0 0.09,-1.237 0.119,-1.8 0.029,-0.562 0.503,-7.527 0.64,-8.139 0.167,-0.759 0.143,-1.015 0.231,-1.658 0.045,-0.326 -0.006,-0.565 0.15,-0.7 0.115,-0.095 0.254,0.121 0.382,0.271 0.177,0.202 0.119,0.065 0.484,0.468 0.365,0.405 1.424,1.241 1.891,1.84 0.47,0.605 4.375,4.925 4.883,5.513 0.503,0.583 0.91,1.189 1.305,1.686 C -0.3,-0.529 0,0 0,0"
                 style="fill:#473729;fill-opacity:1;fill-rule:evenodd;stroke:none"
                 id="path66375" />
            </g>
          </g>
          <g
             id="g66377"
             transform="matrix(0.4672546,0,0,-0.4656219,486.2948,582.70111)"
             style="fill:#473729;fill-opacity:1">
            <g
               id="g66379"
               transform="translate(-300.4232,-185.882)"
               style="fill:#473729;fill-opacity:1">
              <path

                 d="m 0,0 c -0.252,0.377 -0.431,0.539 0.039,0.79 0.469,0.249 11.525,4.285 12.886,4.717 1.357,0.432 4.593,1.692 5.168,1.924 0.575,0.234 1.072,0.523 1.072,0.523 0.064,0.826 0.126,1.484 0.119,2.543 -0.006,1.056 -0.056,1.969 -0.201,2.423 -1.162,-0.401 -3.262,-1.298 -4.25,-1.702 C 13.843,10.81 11.051,9.767 9.794,9.314 8.538,8.866 6.293,8.012 5.176,7.584 4.048,7.159 -2.385,4.698 -2.925,4.556 c 0.14,-0.837 0.166,-2.338 0.274,-3.001 0.112,-0.661 -0.067,-1.899 -0.14,-2.547 -0.074,-0.649 -0.078,-1.628 -0.115,-1.926 -0.064,-0.448 0.139,-0.547 0.513,-0.85 0.368,-0.3 2.085,-1.878 3.141,-2.748 1.059,-0.868 14.216,-12.238 14.584,-12.54 0.37,-0.3 1.083,-0.947 1.083,-0.947 0,0 1.227,3.041 1.479,3.969 0.256,0.93 0.284,1.785 0.284,1.785 -1.748,1.074 -2.835,1.849 -4.017,2.808 -1.182,0.96 -2.57,1.887 -3.122,2.34 -0.551,0.455 -9.374,7.18 -9.746,7.475 C 0.779,-1.218 0.225,-0.334 0,0"
                 style="fill:#473729;fill-opacity:1;fill-rule:evenodd;stroke:none"
                 id="path66381" />
            </g>
          </g>
          <g
             id="g66383"
             transform="matrix(0.4672546,0,0,-0.4656219,486.2948,582.70111)"
             style="fill:#473729;fill-opacity:1">
            <g
               id="g66385"
               transform="translate(-280.7054,-183.215)"
               style="fill:#473729;fill-opacity:1">
              <path

                 d="m 0,0 c -0.648,-0.354 -2.015,-0.703 -2.826,-1.02 -0.812,-0.318 -6.254,-2.165 -6.798,-2.338 -0.45,-0.145 -0.698,-0.145 -0.845,-0.239 -0.143,-0.091 0.543,-0.383 0.793,-0.639 0.244,-0.256 8.331,-6.449 8.727,-6.772 0.396,-0.317 0.773,-0.819 0.761,-0.191 -0.013,0.613 0,1.448 0.012,1.687 0.066,1.2 0.298,3.775 0.298,5.255 0,0.76 0,1.64 -0.025,2.204 C 0.074,-1.49 0.037,-0.479 0,0"
                 style="fill:#473729;fill-opacity:1;fill-rule:evenodd;stroke:none"
                 id="path66387" />
            </g>
          </g>
          <g
             id="g66389"
             transform="matrix(0.4672546,0,0,-0.4656219,486.2948,582.70111)"
             style="fill:#473729;fill-opacity:1">
            <g
               id="g66391"
               transform="translate(-282.6116,-164.3243)"
               style="fill:#473729;fill-opacity:1">
              <path

                 d="m 0,0 c -0.201,0.354 -0.491,0.857 -0.706,1.32 -0.21,0.461 -0.564,1.036 -0.791,1.387 -0.327,0.5 -0.471,0.994 -0.941,1.37 C -2.751,3.913 -8.684,0.503 -9.482,0.1 c -0.797,-0.404 -11.53,-6.503 -11.79,-6.707 -0.265,-0.206 -0.265,-0.479 -0.278,-0.935 -0.011,-0.457 -0.027,-2.119 -0.011,-2.64 0.017,-0.518 0.002,-1.362 0.002,-1.362 1.169,0.606 2.643,1.309 3.458,1.74 0.816,0.431 7.152,3.743 8.298,4.37 1.144,0.621 3.965,1.957 4.717,2.518 0.745,0.556 1.715,1.103 2.372,1.532 0.655,0.43 1.426,0.724 1.785,0.902 C -0.52,-0.285 0,0 0,0"
                 style="fill:#473729;fill-opacity:1;fill-rule:evenodd;stroke:none"
                 id="path66393" />
            </g>
          </g>
          <g
             id="g66395"
             transform="matrix(0.4672546,0,0,-0.4656219,486.2948,582.70111)"
             style="fill:#473729;fill-opacity:1">
            <g
               id="g66397"
               transform="translate(-289.3724,-153.0372)"
               style="fill:#473729;fill-opacity:1">
              <path

                 d="m 0,0 c -0.957,0.406 -13.439,1.639 -14.199,1.671 -0.756,0.031 -1.794,0.11 -1.794,0.11 -0.052,-1.287 -0.238,-2.907 -0.298,-4.03 -0.063,-1.129 -0.216,-3.2 -0.339,-4.085 -0.127,-0.884 -0.353,-3.334 -0.466,-4.145 -0.111,-0.816 -0.033,-1.303 0.008,-1.684 0.037,-0.377 0.205,-0.252 0.462,-0.018 0.197,0.195 3.302,2.399 4.81,3.585 1.502,1.184 9.809,6.987 10.38,7.515 C -0.863,-0.551 0,0 0,0"
                 style="fill:#473729;fill-opacity:1;fill-rule:evenodd;stroke:none"
                 id="path66399" />
            </g>
          </g>
          <g
             id="g66401"
             transform="matrix(0.4672546,0,0,-0.4656219,486.2948,582.70111)"
             style="fill:#473729;fill-opacity:1">
            <g
               id="g66403"
               transform="translate(-310.5179,-148.6847)"
               style="fill:#473729;fill-opacity:1">
              <path

                 d="m 0,0 c -2.245,0.28 -9.469,0.86 -9.803,0.801 -0.331,-0.064 -0.446,-0.212 -0.156,-0.406 0.294,-0.19 2.338,-1.645 2.878,-2.034 0.542,-0.389 1.914,-1.67 2.71,-2.505 0.797,-0.833 2.319,-2.848 2.768,-3.406 0.449,-0.556 0.691,-0.911 1.272,-1.41 0.029,0.502 0.064,1.162 0.113,1.732 C -0.173,-6.657 0.193,-0.724 0,0"
                 style="fill:#473729;fill-opacity:1;fill-rule:evenodd;stroke:none"
                 id="path66405" />
            </g>
          </g>
          <g
             id="g66407"
             transform="matrix(0.4672546,0,0,-0.4656219,486.2948,582.70111)"
             style="fill:#473729;fill-opacity:1">
            <g
               id="g66409"
               transform="translate(-305.7151,-130.5558)"
               style="fill:#473729;fill-opacity:1">
              <path

                 d="M 0,0 -0.242,0.072 -0.298,-0.14 c -0.182,-0.532 -0.451,-13.668 -0.511,-14.089 1.769,-0.132 14.639,-1.471 15.383,-1.686 0.045,0.28 -0.078,0.287 -0.115,0.509 -0.037,0.223 -2.387,3.77 -2.515,3.976 -0.125,0.207 -3.358,4.023 -4.26,5.05 C 6.786,-5.345 0.413,-0.456 0,0"
                 style="fill:#473729;fill-opacity:1;fill-rule:evenodd;stroke:none"
                 id="path66411" />
            </g>
          </g>
          <g
             id="g66413"
             transform="matrix(0.4672546,0,0,-0.4656219,486.2948,582.70111)"
             style="fill:#473729;fill-opacity:1">
            <g
               id="g66415"
               transform="translate(-310.8978,-129.9005)"
               style="fill:#473729;fill-opacity:1">
              <path

                 d="M 0,0 C 0.082,0.495 0.563,1.934 0.306,2.394 0.07,2.443 -0.549,2.455 -0.879,1.989 -1.214,1.524 -14.563,-11.195 -15.085,-11.874 c -0.524,-0.674 -1.033,-1.175 -1.033,-1.175 1.061,-0.095 11.334,-0.095 12.069,0.009 0.734,0.101 2.37,-0.019 2.37,-0.019 C -1.292,-12.239 -0.168,-1.052 0,0"
                 style="fill:#473729;fill-opacity:1;fill-rule:evenodd;stroke:none"
                 id="path66417" />
            </g>
          </g>
          <g
             id="g66419"
             transform="matrix(0.4672546,0,0,-0.4656219,486.2948,582.70111)"
             style="fill:#473729;fill-opacity:1">
            <g
               id="g66421"
               transform="translate(-320.3909,-121.6905)"
               style="fill:#473729;fill-opacity:1">
              <path

                 d="m 0,0 c -0.659,-1.091 -0.894,-1.582 -1.305,-2.106 -0.415,-0.522 -3.352,-3.883 -4.51,-5.12 -1.154,-1.241 -9.56,-10.826 -9.87,-11.036 -0.304,-0.211 -0.129,-0.178 0.257,-0.3 0.38,-0.115 1.142,-0.307 1.781,-0.45 0.636,-0.143 1.175,-0.369 1.175,-0.369 1.064,1.108 1.493,1.575 2.831,2.958 1.339,1.387 10.832,11.599 11.831,12.717 0.997,1.123 1.395,1.581 1.6,1.861 C 3.552,-1.634 3.231,-1.37 2.465,-1.137 1.697,-0.9 0.935,-0.279 0,0"
                 style="fill:#473729;fill-opacity:1;fill-rule:evenodd;stroke:none"
                 id="path66423" />
            </g>
          </g>
          <g
             id="g66425"
             transform="matrix(0.4672546,0,0,-0.4656219,486.2948,582.70111)"
             style="fill:#473729;fill-opacity:1">
            <g
               id="g66427"
               transform="translate(-327.3841,-118.8829)"
               style="fill:#473729;fill-opacity:1">
              <path

                 d="m 0,0 c -0.434,0.266 -1.683,0.536 -2.225,0.765 -0.536,0.225 -3.004,0.698 -3.004,0.698 -1.033,-1.72 -2.553,-3.359 -3.691,-4.844 -1.134,-1.489 -4.374,-5.647 -5.099,-6.609 -0.725,-0.961 -7.724,-8.219 -7.724,-8.219 -0.622,0.946 -1.046,1.109 -1.638,2.354 -0.599,1.239 -9.006,17.895 -9.084,18.226 -0.637,-0.29 -2.14,-0.528 -2.761,-0.793 -0.612,-0.263 -1.405,-0.553 -1.732,-0.793 0.378,-1.161 0.988,-2.334 1.619,-3.254 0.625,-0.916 0.525,-0.413 0.816,-1.046 0.29,-0.632 1.762,-3.317 2.166,-4.113 0.408,-0.797 5.708,-11.292 5.878,-11.645 0.173,-0.362 0.335,-0.722 0.6,-1.114 1.642,0.232 5.856,0.328 6.874,0.339 2.165,1.798 3.688,3.153 5.679,5.514 1.992,2.358 3.369,3.905 4.879,5.479 C -6.938,-7.485 -0.508,-0.38 0,0"
                 style="fill:#473729;fill-opacity:1;fill-rule:evenodd;stroke:none"
                 id="path66429" />
            </g>
          </g>
          <g
             id="g66431"
             transform="matrix(0.4672546,0,0,-0.4656219,486.2948,582.70111)"
             style="fill:#473729;fill-opacity:1">
            <g
               id="g66433"
               transform="translate(-352.681,-115.253)"
               style="fill:#473729;fill-opacity:1">
              <path

                 d="m 0,0 c -0.791,-0.022 -1.152,-0.31 -1.491,-0.343 l -0.241,-0.059 0.047,-0.153 c 0.6,-1.012 0.746,-1.741 1.348,-2.865 0.6,-1.13 2.085,-4.45 2.401,-5.102 0.317,-0.652 0.927,-2.141 1.303,-2.758 0.374,-0.622 0.82,-1.639 1.062,-1.851 0.659,0.819 1.424,1.675 2.186,2.527 0.77,0.857 2.892,2.851 3.942,3.936 1.042,1.087 1.59,1.746 2.281,2.658 0.687,0.912 1.43,1.923 1.764,2.385 0.331,0.467 0.217,0.582 -0.873,0.806 -1.153,0.226 -1.333,0.242 -2.839,0.581 C 9.376,0.1 8.024,0.275 7.005,0.264 5.98,0.253 5.921,0.331 4.812,0.307 3.505,0.275 3.289,0.305 3.289,0.305 2.206,0.36 0.614,0.019 0,0"
                 style="fill:#473729;fill-opacity:1;fill-rule:evenodd;stroke:none"
                 id="path66435" />
            </g>
          </g>
          <g
             id="g66437"
             transform="matrix(0.4672546,0,0,-0.4656219,486.2948,582.70111)"
             style="fill:#473729;fill-opacity:1">
            <g
               id="g66439"
               transform="translate(-346.0501,-154.0704)"
               style="fill:#473729;fill-opacity:1">
              <path

                 d="m 0,0 c -0.147,-0.382 -0.616,-1.392 -0.84,-2.049 -0.223,-0.651 -0.598,-2.316 -0.7,-3.08 -0.095,-0.767 -0.409,-2.795 -0.391,-3.098 0.023,-0.303 0.118,-1.423 0.282,-2.071 0.162,-0.647 0.191,-0.974 0.359,-1.326 0.111,-0.233 0.393,-1.23 0.559,-1.655 0.163,-0.428 0.2,-0.783 0.349,-1.195 0.121,-0.343 0.171,-0.613 0.339,-1.04 0.428,0.416 0.724,1.01 0.982,1.636 0.261,0.625 0.507,1.483 0.633,2.285 0.131,0.802 0.314,2.603 0.168,3.67 -0.141,1.07 -0.209,2.33 -0.413,3.328 C 1.118,-3.6 0.806,-1.936 0.565,-1.377 0.323,-0.821 0.323,-0.316 0,0"
                 style="fill:#473729;fill-opacity:1;fill-rule:evenodd;stroke:none"
                 id="path66441" />
            </g>
          </g>
          <g
             id="g66443"
             transform="matrix(0.4672546,0,0,-0.4656219,486.2948,582.70111)"
             style="fill:#473729;fill-opacity:1">
            <g
               id="g66445"
               transform="translate(-355.4153,-160.3155)"
               style="fill:#473729;fill-opacity:1">
              <path

                 d="M 0,0 C -0.045,-0.383 -0.082,-0.925 -0.041,-1.279 -0.002,-1.633 0.168,-2.854 0.337,-3.673 0.51,-4.491 0.99,-5.634 1.279,-6.319 1.571,-7 2.383,-8.163 2.893,-8.744 c 0.513,-0.579 1.152,-1.322 1.292,-1.438 0.21,-0.238 0.279,-0.105 0.328,0.407 0.025,0.278 0.144,0.626 0.074,1.409 -0.069,0.785 -0.429,2.249 -0.698,3.045 -0.27,0.799 -0.586,1.635 -1.327,2.416 C 1.82,-2.126 1.002,-1.034 0.733,-0.697 0.47,-0.353 0.261,-0.096 0,0"
                 style="fill:#473729;fill-opacity:1;fill-rule:evenodd;stroke:none"
                 id="path66447" />
            </g>
          </g>
          <g
             id="g66449"
             transform="matrix(0.4672546,0,0,-0.4656219,486.2948,582.70111)"
             style="fill:#473729;fill-opacity:1">
            <g
               id="g66451"
               transform="translate(-360.9525,-166.0929)"
               style="fill:#473729;fill-opacity:1">
              <path

                 d="m 0,0 c -0.486,0.277 -0.821,0.362 -0.546,0.009 0.272,-0.355 1.035,-1.949 1.321,-2.485 0.284,-0.542 1.412,-2.25 1.896,-2.696 0.478,-0.449 1.608,-1.701 2.624,-2.3 1.022,-0.596 1.091,-0.605 1.491,-0.676 0.277,-0.045 0.244,0.08 -0.091,0.662 C 6.36,-6.903 6.229,-6.354 5.631,-5.342 5.031,-4.325 4.625,-3.626 3.54,-2.503 2.455,-1.382 1.65,-0.972 1.032,-0.58 0.415,-0.19 0.292,-0.197 0,0"
                 style="fill:#473729;fill-opacity:1;fill-rule:evenodd;stroke:none"
                 id="path66453" />
            </g>
          </g>
          <g
             id="g66455"
             transform="matrix(0.4672546,0,0,-0.4656219,486.2948,582.70111)"
             style="fill:#473729;fill-opacity:1">
            <g
               id="g66457"
               transform="translate(-360.3743,-174.2238)"
               style="fill:#473729;fill-opacity:1">
              <path

                 d="M 0,0 C 0.477,-0.348 0.965,-0.684 1.464,-1.003 1.646,-1.121 1.828,-1.23 2.013,-1.344 2.212,-1.465 2.354,-1.62 2.543,-1.749 2.647,-1.816 2.722,-1.876 2.812,-1.941 2.923,-2.015 3.073,-2.098 3.17,-2.199 3.299,-2.344 3.227,-2.432 3.068,-2.471 2.569,-2.601 2.364,-2.636 1.947,-2.559 c -0.762,0.14 -1.152,0.101 -1.675,0.197 -0.451,0.083 -0.492,0.179 -0.998,0.29 -0.509,0.112 -1.172,0.435 -1.596,0.642 -0.429,0.21 -1.668,0.622 -2.51,1.248 -0.838,0.62 -1.85,1.361 -2.127,1.742 0.854,0.029 2.382,0.105 3.48,-0.16 C -2.386,1.139 -1.12,0.812 0,0"
                 style="fill:#473729;fill-opacity:1;fill-rule:evenodd;stroke:none"
                 id="path66459" />
            </g>
          </g>
          <g
             id="g66461"
             transform="matrix(0.4672546,0,0,-0.4656219,486.2948,582.70111)"
             style="fill:#473729;fill-opacity:1">
            <g
               id="g66463"
               transform="translate(-356.93,-181.8175)"
               style="fill:#473729;fill-opacity:1">
              <path

                 d="m 0,0 c -1.068,0.295 -1.419,0.462 -2.078,0.688 -0.654,0.226 -0.886,0.137 -1.496,0.465 -1.862,0.647 -3.273,0.769 -4.471,0.805 -1.199,0.033 -2.633,0.054 -4.026,-0.061 -1.391,-0.113 -2.625,-0.433 -3.186,-0.47 -0.401,-0.03 -0.98,-0.254 -1.128,-0.284 -0.152,-0.029 -0.193,-0.113 0.314,-0.397 0.509,-0.287 0.96,-0.284 1.315,-0.451 0.672,-0.316 1.165,-0.461 1.644,-0.645 0.696,-0.269 1.824,-0.58 2.826,-0.851 0.994,-0.267 2.168,-0.369 2.971,-0.313 0.805,0.053 1.764,0.103 2.438,0.096 0.683,-0.007 1.646,0.211 2.301,0.351 0.612,0.129 1.578,0.324 1.946,0.605 C -0.257,-0.185 -0.316,-0.233 0,0"
                 style="fill:#473729;fill-opacity:1;fill-rule:evenodd;stroke:none"
                 id="path66465" />
            </g>
          </g>
          <g
             id="g66467"
             transform="matrix(0.4672546,0,0,-0.4656219,486.2948,582.70111)"
             style="fill:#473729;fill-opacity:1">
            <g
               id="g66469"
               transform="translate(-345.5091,-196.7775)"
               style="fill:#473729;fill-opacity:1">
              <path

                 d="m 0,0 c -0.346,0.56 -0.346,0.663 -0.688,0.146 -0.207,-0.327 -0.65,-2.164 -0.872,-3.071 -0.221,-0.9 -0.411,-3.175 -0.345,-5.074 0.048,-1.373 0.15,-2.727 0.277,-3.537 0.117,-0.811 0.299,-2.458 1.107,-3.315 0.834,1.205 0.86,1.903 1.184,3.214 0.327,1.309 0.387,3.418 0.405,4.049 0.02,0.536 0.004,0.81 -0.006,1.665 C 1.058,-5.38 0.871,-4.235 0.823,-3.646 0.774,-3.056 0.62,-2.374 0.566,-1.776 0.507,-1.124 0.398,-0.867 0.271,-0.567 0.123,-0.208 0,0 0,0"
                 style="fill:#473729;fill-opacity:1;fill-rule:evenodd;stroke:none"
                 id="path66471" />
            </g>
          </g>
          <g
             id="g66473"
             transform="matrix(0.4672546,0,0,-0.4656219,486.2948,582.70111)"
             style="fill:#473729;fill-opacity:1">
            <g
               id="g66475"
               transform="translate(-341.1907,-194.6739)"
               style="fill:#473729;fill-opacity:1">
              <path

                 d="m 0,0 c 0.663,-0.544 1.676,-1.547 2.253,-2.812 0.573,-1.254 0.904,-2.171 1.235,-3.181 0.358,-1.07 0.768,-3.826 0.768,-3.826 -0.9,0.713 -2.063,2.235 -2.617,2.753 -0.563,0.518 -1.14,1.775 -1.37,2.451 -0.231,0.673 -0.549,2.152 -0.734,2.781 -0.173,0.629 -0.097,0.622 -0.093,1 0,0.236 0.067,0.634 0.142,0.757 C -0.338,0.046 -0.241,0.087 0,0"
                 style="fill:#473729;fill-opacity:1;fill-rule:evenodd;stroke:none"
                 id="path66477" />
            </g>
          </g>
          <g
             id="g66479"
             transform="matrix(0.4672546,0,0,-0.4656219,486.2948,582.70111)"
             style="fill:#473729;fill-opacity:1">
            <g
               id="g66481"
               transform="translate(-337.7025,-191.2443)"
               style="fill:#473729;fill-opacity:1">
              <path

                 d="M 0,0 C 0.32,-1.159 1.304,-2.964 2.933,-4.313 4.558,-5.673 4.402,-5.598 5.271,-5.976 6.14,-6.354 6.162,-6.436 6.738,-6.683 7.309,-6.932 6.906,-6.452 6.657,-5.981 6.4,-5.509 5.972,-4.409 5.439,-3.757 4.903,-3.102 4.643,-2.747 3.768,-2.05 2.894,-1.353 1.881,-0.561 1.185,-0.271 0.488,0.02 0,0 0,0"
                 style="fill:#473729;fill-opacity:1;fill-rule:evenodd;stroke:none"
                 id="path66483" />
            </g>
          </g>
          <g
             id="g66485"
             transform="matrix(0.4672546,0,0,-0.4656219,486.2948,582.70111)"
             style="fill:#473729;fill-opacity:1">
            <g
               id="g66487"
               transform="translate(-334.054,-186.9142)"
               style="fill:#473729;fill-opacity:1">
              <path

                 d="m 0,0 c -0.275,0.08 -0.543,0.178 -0.828,0.225 -0.199,0.03 -0.471,0.123 -0.438,-0.158 0.023,-0.187 0.105,-0.398 0.191,-0.568 0.141,-0.293 0.271,-0.674 0.461,-0.95 0.186,-0.284 0.454,-0.471 0.718,-0.677 C 0.712,-2.602 1.341,-3.063 2.056,-3.364 2.89,-3.709 3.194,-4.012 3.839,-4.318 4.486,-4.629 4.918,-4.817 5.676,-5.002 6.426,-5.185 7.021,-5.263 7.379,-5.287 6.471,-4.083 5.886,-3.232 4.751,-2.399 3.615,-1.567 2.459,-0.755 1.791,-0.55 1.117,-0.344 0.429,-0.12 0,0"
                 style="fill:#473729;fill-opacity:1;fill-rule:evenodd;stroke:none"
                 id="path66489" />
            </g>
          </g>
          <g
             id="g66491"
             transform="matrix(0.4672546,0,0,-0.4656219,486.2948,582.70111)"
             style="fill:#473729;fill-opacity:1">
            <g
               id="g66493"
               transform="translate(-317.7034,-182.0402)"
               style="fill:#473729;fill-opacity:1">
              <path

                 d="m 0,0 c -1.188,0.41 -2.978,0.961 -4.612,1.116 -1.627,0.16 -2.975,0.197 -4.95,0.213 -1.973,0.017 -3.648,-0.166 -4.281,-0.278 -0.635,-0.109 -1.093,-0.272 -1.392,-0.328 -0.3,-0.053 -1.046,-0.293 -1.217,-0.493 -0.174,-0.197 -0.657,-0.499 0.016,-0.708 0.672,-0.204 3.466,-1.233 4.46,-1.503 0.997,-0.264 2.135,-0.372 2.781,-0.33 1.16,0.066 1.645,0.082 2.502,0.157 0.856,0.076 1.637,0.16 2.382,0.365 0.748,0.198 2.057,0.505 2.787,0.758 0.72,0.252 0.996,0.488 1.17,0.65 C -0.182,-0.216 0,0 0,0"
                 style="fill:#473729;fill-opacity:1;fill-rule:evenodd;stroke:none"
                 id="path66495" />
            </g>
          </g>
          <g
             id="g66497"
             transform="matrix(0.4672546,0,0,-0.4656219,486.2948,582.70111)"
             style="fill:#473729;fill-opacity:1">
            <g
               id="g66499"
               transform="translate(-322.971,-173.6027)"
               style="fill:#473729;fill-opacity:1">
              <path

                 d="m 0,0 c -1.116,0.059 -2.424,0.038 -3.655,-0.183 -1.233,-0.218 -2.521,-0.645 -3.303,-1.003 -0.785,-0.358 -2.435,-1.131 -2.934,-1.517 -0.491,-0.389 -0.561,-0.716 -0.561,-0.716 0.679,-0.163 1.269,-0.098 1.878,-0.089 0.608,0.007 1.658,-0.054 2.724,0.338 1.071,0.396 2.221,1.031 2.992,1.37 0.767,0.342 1.924,0.909 2.297,1.186 C -0.195,-0.333 0,0 0,0"
                 style="fill:#473729;fill-opacity:1;fill-rule:evenodd;stroke:none"
                 id="path66501" />
            </g>
          </g>
          <g
             id="g66503"
             transform="matrix(0.4672546,0,0,-0.4656219,486.2948,582.70111)"
             style="fill:#473729;fill-opacity:1">
            <g
               id="g66505"
               transform="translate(-329.0833,-165.1241)"
               style="fill:#473729;fill-opacity:1">
              <path

                 d="M 0,0 C -0.392,-0.146 -1.132,-0.511 -1.491,-0.813 -1.854,-1.119 -2.677,-1.545 -3.412,-1.979 -4.147,-2.41 -4.86,-2.898 -5.228,-3.357 -5.592,-3.816 -6.592,-5.585 -7.229,-6.656 -7.87,-7.725 -7.984,-8.082 -7.455,-7.698 c 0.53,0.388 1.072,0.598 1.74,1.027 0.666,0.429 1.856,1.311 2.975,2.484 1.117,1.172 1.652,2.052 2.17,2.864 C -0.179,-0.709 -0.071,-0.377 0,0"
                 style="fill:#473729;fill-opacity:1;fill-rule:evenodd;stroke:none"
                 id="path66507" />
            </g>
          </g>
          <g
             id="g66509"
             transform="matrix(0.4672546,0,0,-0.4656219,486.2948,582.70111)"
             style="fill:#473729;fill-opacity:1">
            <g
               id="g66511"
               transform="translate(-336.9651,-159.7589)"
               style="fill:#473729;fill-opacity:1">
              <path

                 d="m 0,0 c -1.311,-1.472 -2.673,-3.336 -3.503,-5.425 -0.834,-2.096 -0.977,-3.329 -1.066,-4.117 -0.031,-0.264 -0.033,-1.069 -0.033,-1.069 -0.014,-0.409 0.047,-0.256 0.436,0.124 0.671,0.634 1.365,1.567 1.966,2.354 0.596,0.788 0.346,0.6 0.838,1.129 0.491,0.532 1.146,1.785 1.292,3.088 C 0.075,-2.618 0.332,-0.959 0,0"
                 style="fill:#473729;fill-opacity:1;fill-rule:evenodd;stroke:none"
                 id="path66513" />
            </g>
          </g>
          <g
             id="g66515"
             transform="matrix(0.4672546,0,0,-0.4656219,486.2948,582.70111)"
             style="fill:#473729;fill-opacity:1">
            <g
               id="g66517"
               transform="translate(-356.1409,-186.7072)"
               style="fill:#473729;fill-opacity:1">
              <path

                 d="m 0,0 c -0.972,-0.085 -2.264,-0.158 -3.613,-0.538 -1.352,-0.382 -2.465,-0.732 -3.323,-1.337 -0.852,-0.599 -1.641,-0.998 -2.292,-1.502 -0.392,-0.299 -0.735,-0.769 -0.85,-0.906 -0.108,-0.125 -0.279,-0.423 -0.279,-0.423 0.503,-0.073 0.585,-0.042 0.868,-0.01 0.437,0.085 0.405,0.098 0.627,0.183 0.195,0.071 2.228,0.423 3.024,0.689 0.801,0.262 1.549,0.298 2.705,1.21 1.151,0.909 2.206,1.64 2.712,1.946 C 0.089,-0.381 0.815,-0.023 0,0"
                 style="fill:#473729;fill-opacity:1;fill-rule:evenodd;stroke:none"
                 id="path66519" />
            </g>
          </g>
          <g
             id="g66521"
             transform="matrix(0.4672546,0,0,-0.4656219,486.2948,582.70111)"
             style="fill:#473729;fill-opacity:1">
            <g
               id="g66523"
               transform="translate(-353.639,-190.2989)"
               style="fill:#473729;fill-opacity:1">
              <path

                 d="m 0,0 c -0.652,-0.301 -1.553,-0.856 -2.063,-1.133 -0.513,-0.274 -1.24,-0.63 -1.895,-1.108 -0.655,-0.475 -1.433,-1.057 -1.95,-1.624 -0.526,-0.563 -0.779,-0.82 -1.321,-1.787 -0.541,-0.969 -1.043,-2.024 -1.23,-2.372 -0.184,-0.35 -0.396,-0.701 0.585,-0.33 0.982,0.375 1.236,0.581 1.939,0.868 0.699,0.287 1.337,0.86 1.597,1.028 0.261,0.158 0.778,0.565 0.953,0.767 0.183,0.209 0.403,0.447 0.972,1.03 0.566,0.584 1.152,1.359 1.62,2.304 0.458,0.944 0.689,1.603 0.736,1.872 C -0.041,-0.405 0,0 0,0"
                 style="fill:#473729;fill-opacity:1;fill-rule:evenodd;stroke:none"
                 id="path66525" />
            </g>
          </g>
          <g
             id="g66527"
             transform="matrix(0.4672546,0,0,-0.4656219,486.2948,582.70111)"
             style="fill:#473729;fill-opacity:1">
            <g
               id="g66529"
               transform="translate(-351.2757,-194.1193)"
               style="fill:#473729;fill-opacity:1">
              <path

                 d="m 0,0 c -1.075,-1.13 -2.209,-2.809 -2.77,-4 -0.554,-1.193 -0.955,-2.339 -1.243,-3.29 -0.287,-0.944 -0.488,-1.968 -0.569,-2.407 -0.078,-0.441 -0.008,-0.591 -0.008,-0.591 0.734,0.738 1.169,1.409 1.813,2.253 0.648,0.847 1.271,1.979 1.466,2.436 0.191,0.463 0.526,0.865 0.676,1.341 0.176,0.565 0.33,0.883 0.405,1.315 0.088,0.521 0.221,1.149 0.264,1.745 C 0.071,-0.603 0,0 0,0"
                 style="fill:#473729;fill-opacity:1;fill-rule:evenodd;stroke:none"
                 id="path66531" />
            </g>
          </g>
          <g
             id="g66533"
             transform="matrix(0.4672546,0,0,-0.4656219,486.2948,582.70111)"
             style="fill:#473729;fill-opacity:1">
            <g
               id="g66535"
               transform="translate(-188.2405,-53.755)"
               style="fill:#473729;fill-opacity:1">
              <path

                 d="M 0,0 -3.363,-1.772 -6.595,0 l 0,-41.429 3.421,1.701 L 0,-41.429 0,0 z"
                 style="fill:#473729;fill-opacity:1;fill-rule:nonzero;stroke:none"
                 id="path66537" />
            </g>
          </g>
          <g
             id="g66539"
             transform="matrix(0.4672546,0,0,-0.4656219,486.2948,582.70111)"
             style="fill:#473729;fill-opacity:1">
            <g
               id="g66541"
               transform="translate(-116.8987,-82.381)"
               style="fill:#473729;fill-opacity:1">
              <path

                 d="m 0,0 8.39,28.626 3.151,-1.772 3.146,1.772 12.146,-41.429 -3.829,1.701 -2.848,-1.701 -8.615,31.325 -9.143,-31.325 -2.398,1.701 -2.396,-1.701 -9.138,31.325 -8.621,-31.325 -2.848,1.701 -3.819,-1.701 12.139,41.429 3.149,-1.772 3.139,1.772 L 0,0 z"
                 style="fill:#473729;fill-opacity:1;fill-rule:nonzero;stroke:none"
                 id="path66543" />
            </g>
          </g>
          <g
             id="g66545"
             transform="matrix(0.4672546,0,0,-0.4656219,486.2948,582.70111)"
             style="fill:#473729;fill-opacity:1">
            <g
               id="g66547"
               transform="translate(-42.5892,-53.7667)"
               style="fill:#473729;fill-opacity:1">
              <path

                 d="m 0,0 0,-16.526 -14.463,-24.891 4.609,1.701 2.66,-1.701 10.715,19.145 10.641,-19.145 2.667,1.701 4.602,-1.701 L 7.044,-16.526 7.044,0 3.449,-1.775 0,0 z"
                 style="fill:#473729;fill-opacity:1;fill-rule:nonzero;stroke:none"
                 id="path66549" />
            </g>
          </g>
          <g
             id="g66551"
             transform="matrix(0.4672546,0,0,-0.4656219,486.2948,582.70111)"
             style="fill:#473729;fill-opacity:1">
            <g
               id="g66553"
               transform="translate(-2.4632,-53.1632)"
               style="fill:#473729;fill-opacity:1">
              <path

                 d="m 0,0 c -9.141,0 -17.534,-3.991 -16.034,-13.175 l 3.256,1.625 3.486,-1.625 c -0.826,4.519 3.82,7.456 9.292,7.456 6.145,0 9.89,-2.56 9.89,-6.102 0,-9.793 -24.953,-4.97 -24.953,-19.582 0,-7.386 6.966,-11.221 15.434,-11.221 8.924,0 16.643,3.764 14.839,12.424 l -3.367,-1.661 -3.602,1.661 c 0.901,-4.293 -2.021,-6.851 -7.87,-6.851 -4.719,0 -8.611,2.26 -8.611,5.721 0,8.664 24.954,4.517 24.954,19.133 C 16.714,-4.065 9.671,0 0,0"
                 style="fill:#473729;fill-opacity:1;fill-rule:nonzero;stroke:none"
                 id="path66555" />
            </g>
          </g>
          <g
             id="g66557"
             transform="matrix(0.4672546,0,0,-0.4656219,486.2948,582.70111)"
             style="fill:#473729;fill-opacity:1">
            <g
               id="g66559"
               transform="translate(-171.2825,-71.5323)"
               style="fill:#473729;fill-opacity:1">
              <path

                 d="m 0,0 0,-17.732 9.068,0 c 3.957,0 7.02,3.261 7.334,7.308 0.013,0.13 0.075,0.372 0.069,1.009 -0.005,0.666 -0.1,1.288 -0.114,1.418 -0.517,4.852 -3.851,8 -7.868,8 L 0,0 z m 15.581,4.021 c 3.934,-2.13 6.938,-7.476 7.12,-13.068 0.004,-0.189 0.028,-1.316 0.015,-1.504 -0.459,-8.056 -6.226,-13.11 -13.46,-13.11 l -15.572,0 0,41.438 0.018,-0.007 3.191,-1.765 L 0,17.777 0,5.71 7.306,5.699 c 0,0 0.668,0 1.734,-0.1 l 9.548,12.178 2.564,-1.772 5.881,1.772 L 15.581,4.021 z"
                 style="fill:#473729;fill-opacity:1;fill-rule:nonzero;stroke:none"
                 id="path66561" />
            </g>
          </g>
          <g
             id="g66563"
             transform="matrix(0.4672546,0,0,-0.4656219,486.2948,582.70111)"
             style="fill:#473729;fill-opacity:1">
            <g
               id="g66565"
               transform="translate(-217.0345,-95.1837)"
               style="fill:#473729;fill-opacity:1">
              <path

                 d="m 0,0 15.506,41.417 -3.954,-1.761 -2.64,1.761 -4.46,-12.091 -16.022,0 -4.546,12.091 -2.632,-1.761 -3.961,1.761 L -7.196,0 -3.6,1.701 0,0 z m -9.731,23.644 12.307,0 L -3.6,6.846 -9.731,23.644 z"
                 style="fill:#473729;fill-opacity:1;fill-rule:nonzero;stroke:none"
                 id="path66567" />
            </g>
          </g>
          <g
             id="g66569"
             transform="matrix(0.4672546,0,0,-0.4656219,486.2948,582.70111)"
             style="fill:#473729;fill-opacity:1">
            <g
               id="g66571"
               transform="translate(-68.5374,-95.1837)"
               style="fill:#473729;fill-opacity:1">
              <path

                 d="M 0,0 15.514,41.417 11.707,39.656 8.92,41.417 4.458,29.326 l -16.026,0 -4.542,12.091 -2.745,-1.761 -3.852,1.761 L -7.19,0 -3.557,1.701 0,0 z m -9.724,23.644 12.306,0 -6.258,-16.798 -6.048,16.798 z"
                 style="fill:#473729;fill-opacity:1;fill-rule:nonzero;stroke:none"
                 id="path66573" />
            </g>
          </g>
          <g
             id="g66575"
             transform="matrix(0.4672546,0,0,-0.4656219,486.2948,582.70111)"
             style="fill:#473729;fill-opacity:1">
            <g
               id="g66577"
               transform="translate(-166.3909,-242.1222)"
               style="fill:#473729;fill-opacity:1">
              <path

                 d="m 0,0 -86.146,0 0,121.951 11.736,-5.791 0,-104.421 68.619,0 C -5.791,11.722 0,0 0,0"
                 style="fill:#473729;fill-opacity:1;fill-rule:nonzero;stroke:none"
                 id="path66579" />
            </g>
          </g>
          <g
             id="g66581"
             transform="matrix(0.4672546,0,0,-0.4656219,486.2948,582.70111)"
             style="fill:#473729;fill-opacity:1">
            <g
               id="g66583"
               transform="translate(-166.3909,-213.7023)"
               style="fill:#473729;fill-opacity:1">
              <path

                 d="m 0,0 -5.819,-11.744 -63.657,0 0.006,99.484 11.735,5.81 0.01,-43.968 47.042,0 -5.83,-11.74 -41.216,0 0,-4.937 41.239,0 5.796,-11.728 -47.035,0 L -57.729,0 0,0 z"
                 style="fill:#473729;fill-opacity:1;fill-rule:nonzero;stroke:none"
                 id="path66585" />
            </g>
          </g>
          <g
             id="g66587"
             transform="matrix(0.4672546,0,0,-0.4656219,486.2948,582.70111)"
             style="fill:#473729;fill-opacity:1">
            <g
               id="g66589"
               transform="translate(-146.1927,-243.2208)"
               style="fill:#473729;fill-opacity:1">
              <path

                 d="m 0,0 0,123.05 11.737,-5.791 0,-111.465 L 0,0 z"
                 style="fill:#473729;fill-opacity:1;fill-rule:nonzero;stroke:none"
                 id="path66591" />
            </g>
          </g>
          <g
             id="g66593"
             transform="matrix(0.4672546,0,0,-0.4656219,486.2948,582.70111)"
             style="fill:#473729;fill-opacity:1">
            <g
               id="g66595"
               transform="translate(-117.7786,-243.2208)"
               style="fill:#473729;fill-opacity:1">
              <path

                 d="m 0,0 0,123.05 -11.738,-5.791 0,-111.465 L 0,0 z"
                 style="fill:#473729;fill-opacity:1;fill-rule:nonzero;stroke:none"
                 id="path66597" />
            </g>
          </g>
          <g
             id="g66599"
             transform="matrix(0.4672546,0,0,-0.4656219,486.2948,582.70111)"
             style="fill:#473729;fill-opacity:1">
            <g
               id="g66601"
               transform="translate(2.5163,-243.2208)"
               style="fill:#473729;fill-opacity:1">
              <path

                 d="m 0,0 0,123.05 11.734,-5.791 0,-111.465 L 0,0 z"
                 style="fill:#473729;fill-opacity:1;fill-rule:nonzero;stroke:none"
                 id="path66603" />
            </g>
          </g>
          <g
             id="g66605"
             transform="matrix(0.4672546,0,0,-0.4656219,486.2948,582.70111)"
             style="fill:#473729;fill-opacity:1">
            <g
               id="g66607"
               transform="translate(30.9255,-243.2208)"
               style="fill:#473729;fill-opacity:1">
              <path

                 d="m 0,0 0,123.05 -11.732,-5.791 0,-111.465 L 0,0 z"
                 style="fill:#473729;fill-opacity:1;fill-rule:nonzero;stroke:none"
                 id="path66609" />
            </g>
          </g>
          <g
             id="g66611"
             transform="matrix(0.4672546,0,0,-0.4656219,486.2948,582.70111)"
             style="fill:#473729;fill-opacity:1">
            <g
               id="g66613"
               transform="translate(-38.2405,-163.754)"
               style="fill:#473729;fill-opacity:1">
              <path

                 d="m 0,0 0,-73.673 -11.736,-5.794 0,77.326 c 0,11.359 -2.743,18.698 -14.912,18.698 -8.109,0 -13.498,-4.1 -18.948,-10.303 l -4.444,12.101 c 5.606,4.704 11.345,9.946 24.903,9.946 C -11.574,28.301 0,18.583 0,0"
                 style="fill:#473729;fill-opacity:1;fill-rule:nonzero;stroke:none"
                 id="path66615" />
            </g>
          </g>
          <g
             id="g66617"
             transform="matrix(0.4672546,0,0,-0.4656219,486.2948,582.70111)"
             style="fill:#473729;fill-opacity:1">
            <g
               id="g66619"
               transform="translate(-21.5609,-163.882)"
               style="fill:#473729;fill-opacity:1">
              <path

                 d="m 0,0 0,-79.339 -11.741,5.794 0,74.807 c 0,20.854 -14.814,32.11 -30.403,32.11 -15.593,0 -23.583,-7.196 -27.969,-11.265 l -12.124,4.486 c 8.794,9.022 19.865,18.484 39.757,18.484 C -22.594,45.077 0,31.979 0,0"
                 style="fill:#473729;fill-opacity:1;fill-rule:nonzero;stroke:none"
                 id="path66621" />
            </g>
          </g>
        </g>
      </g>
    </g>
  </g>
</svg>
