<?xml version="1.0" encoding="utf-8"?>
<!-- Generator: Adobe Illustrator 23.0.3, SVG Export Plug-In . SVG Version: 6.00 Build 0)  -->
<svg version="1.1" id="logosvg.com" xmlns="http://www.w3.org/2000/svg" xmlns:xlink="http://www.w3.org/1999/xlink" x="0px"
	 y="0px" viewBox="0 0 400 300" style="enable-background:new 0 0 400 300;" xml:space="preserve">
<style type="text/css">
	.st0{fill:#E31837;}
	.st1{fill:#98002E;}
	.st2{fill:#003D79;}
</style>
<path id="red_1_" class="st0" d="M48,121v35.6l-33.6,16.2L48,121z M48,179v-15.3L11.7,179H48z"/>
<path id="red" class="st1" d="M48,163.7L84.3,179H48V163.7z M48,121v35.6l33.6,16.2L48,121z M89.6,170.8c0,1.3-1.1,2.4-2.4,2.4
	s-2.4-1.1-2.4-2.4c0-1.4,1.1-2.4,2.4-2.4S89.6,169.4,89.6,170.8z M89.3,170.8c0-1.1-0.9-2-2-2s-2,0.9-2,2s0.9,2,2,2
	S89.3,171.9,89.3,170.8z M87.6,170.9l0.8,1.2h-0.4l-0.8-1.2h-0.5l0,1.2h-0.3v-2.7h1.1c0.6,0,0.9,0.3,0.9,0.8
	C88.3,170.6,88,170.9,87.6,170.9z M88,170.1c0-0.3-0.3-0.5-0.6-0.5h-0.6v0.9h0.4C87.5,170.6,88,170.6,88,170.1z"/>
<path id="text" class="st2" d="M112.7,172.8H129c16.8,0,26.8-8.7,26.8-23.1c0-14.4-10-23.1-26.8-23.1h-16.3V172.8z M123,134.6h6
	c10.9,0,16.3,5.4,16.3,15.1s-5.5,15.1-16.3,15.1h-6V134.6z M190.8,152.8h19.6v-8h-19.6v-10.1H213v-8h-32.5v46.2h33.3v-8h-22.9V152.8
	z M272.6,164.8h-19.9v-38.2h-10.4v46.2h30.3V164.8z M328.3,126.6h-41.5v8h15.5v38.2h10.4v-38.2h15.6V126.6z M388.3,172.8h-10.8
	l-4.5-11.6h-18.8l-4.5,11.6h-10.1l19.3-46.4h10.4L388.3,172.8z M370,153.5l-6.4-16.4l-6.5,16.4H370z"/>
</svg>
