<svg width="320" height="68" viewBox="0 0 320 68" fill="none" xmlns="http://www.w3.org/2000/svg">
<path d="M116.955 62.4367C100.21 62.4367 92.8845 49.9524 93.0782 34.1224C93.2719 18.2044 102.604 5.68481 118.769 5.68481C125.777 5.68481 130.549 7.70978 132.081 8.41412L130.056 15.5455C127.925 14.5947 123.858 13.4149 120.178 13.4149C113.117 13.4149 104.929 17.5529 104.841 33.6998C104.753 48.438 110.546 54.7418 119.332 54.7418C123.611 54.7418 127.644 53.1923 129.193 52.3647L131.447 58.8974C129.07 60.0772 124.21 62.4543 116.955 62.4543" fill="#4D4A47"/>
<path d="M150.147 25.7401C144.565 25.7401 141.959 30.2478 141.959 40.9362C141.959 51.6245 144.459 56.009 150.041 56.0266C155.623 56.0266 158.124 51.6245 158.124 40.9362C158.124 30.2478 155.746 25.7401 150.165 25.7401H150.147ZM150.024 62.3304C139.459 62.3304 131.376 56.3963 131.376 40.9538C131.376 25.5112 139.459 19.5771 150.024 19.5771C160.589 19.5771 168.671 25.5112 168.671 40.9538C168.671 56.3963 160.589 62.3304 150.024 62.3304Z" fill="#4D4A47"/>
<path d="M183.444 20.2636L184.113 24.877C187.389 20.5278 191.033 19.436 195.576 19.436C205.825 19.436 207.585 27.3422 207.585 33.2234V61.8019H197.672V36.5866C197.672 32.8889 198.094 26.1624 191.791 26.1624C184.554 26.1624 183.884 36.0055 183.884 39.5272V61.8019H173.971V20.2812H183.427" fill="#4D4A47"/>
<path d="M230.846 55.8681C238.418 55.8681 238.418 43.2604 238.418 40.8129C238.418 35.7769 237.837 26.1098 231.11 26.1098C223.715 26.1098 223.627 38.2949 223.627 40.8129C223.627 47.1167 224.542 55.8681 230.846 55.8681ZM248.331 6.31799V61.7493H239.51L239.175 54.6003C237.168 58.1219 233.875 62.5945 227.413 62.5945C217.746 62.5945 213.115 52.5929 213.115 40.989C213.115 25.8633 220.757 19.3834 227.994 19.3834C235.231 19.3834 237.661 24.7716 238.418 26.4444V6.31799H248.331Z" fill="#4D4A47"/>
<path d="M272.349 25.7582C266.768 25.7582 264.162 30.2835 264.162 40.9542C264.162 51.6249 266.768 56.0446 272.349 56.0446C277.931 56.0446 280.432 51.6601 280.432 40.9718C280.432 30.2835 277.949 25.7758 272.349 25.7758V25.7582ZM272.349 62.3484C261.784 62.3484 253.702 56.4144 253.702 40.9718C253.702 25.5292 261.784 19.5952 272.349 19.5952C282.914 19.5952 290.874 25.5292 290.874 40.9718C290.874 56.4144 282.914 62.3484 272.349 62.3484Z" fill="#4D4A47"/>
<path d="M304.978 20.2463L305.224 30.5824C308.499 20.4047 313.729 19.5771 315.648 19.5771C317.251 19.5771 318.747 19.9998 319.593 20.2463L317.814 28.9096C317.057 28.7511 315.877 28.399 314.627 28.399C311.845 28.399 309.75 30.0718 308.816 31.4276C306.791 34.2097 305.946 37.3088 305.946 46.8878V61.7669H296.033V20.2463H304.942" fill="#4D4A47"/>
<path d="M32.4347 0.419189C13.9283 0.419189 0 15.4744 0 33.9808C0 52.4873 13.9283 67.4192 32.4347 67.4192C50.9412 67.4192 64.8694 52.4873 64.8694 33.9808C64.8694 15.4744 50.9412 0.419189 32.4347 0.419189ZM32.4347 64.4434C15.6539 64.4434 3.01105 50.8497 3.01105 34.0336C3.01105 17.2176 15.6539 3.48305 32.4347 3.48305C49.2155 3.48305 61.8584 17.2 61.8584 34.0336C61.8584 50.8673 49.2155 64.4434 32.4347 64.4434Z" fill="#4D4A47"/>
<path d="M46.8735 28.2757L38.6328 34.914L41.6614 37.837L58.8473 24.4899H33.4559C30.0575 24.4899 28.7897 24.5603 27.9973 24.7892C27.2225 25.0181 26.2189 25.5112 25.673 26.6909C25.2856 27.5537 25.2504 29.1209 25.8139 30.0893C26.5886 31.4276 27.9093 32.6073 31.2901 36.1819C27.9445 34.1217 19.0346 28.2933 19.0346 28.2933C19.0346 28.2933 21.0068 28.2933 21.5174 28.2933C21.5174 27.3424 21.5174 24.4899 21.5174 24.4899H5.77551L52.1032 54.6179V49.3177L30.2688 29.5083C29.406 28.7159 29.6877 28.2757 30.5153 28.2757H46.8735Z" fill="#4D4A47"/>
</svg>
