<svg width="333" height="66" viewBox="0 0 333 66" fill="none" xmlns="http://www.w3.org/2000/svg">
<path d="M132.023 28.7229H123.883V53.0454H130.45V36.9115L130.547 36.798L144.962 53.0454H150.751V28.7229H144.184V42.2787L132.023 28.7229Z" fill="#001B71"/>
<path d="M224.675 28.7229H217.281V53.0292H224.675V28.7229Z" fill="#001B71"/>
<path d="M68.1192 53.0454V28.7229H75.4646V47.3053H87.1718V53.0454H68.1192Z" fill="#001B71"/>
<path d="M7.52376 28.7229H0V53.0292H7.52376V28.7229Z" fill="#001B71"/>
<path d="M250.927 43.8029C254.235 42.5219 256.197 40.3491 256.197 36.3926C256.197 31.3335 252.111 28.7229 246.744 28.7229H230.366V53.0454H237.761V44.3218H243.728L248.916 53.0292H256.7L250.927 43.8029ZM245.528 39.6518H237.744V33.5064H245.138C248.365 33.5064 249.241 34.9333 249.241 36.6196C249.241 38.5492 247.83 39.6518 245.528 39.6518Z" fill="#001B71"/>
<path d="M169.122 28.7229H156.426V53.0454H169.268C178.495 53.0454 182.84 47.808 182.84 40.8842C182.84 33.3442 178.106 28.7229 169.122 28.7229ZM168.198 47.662H163.788V34.009H168.214C173.144 34.009 175.317 36.1008 175.317 40.868C175.317 45.3271 173.549 47.6783 168.198 47.662Z" fill="#001B71"/>
<path d="M203.06 28.7229H194.726L183.797 53.0454H190.721L192.829 48.3755H205.006L207.098 53.0454H214.038L203.06 28.7229ZM194.937 43.7056L198.926 33.9442L202.915 43.7056H194.937Z" fill="#001B71"/>
<path d="M109.662 28.7229H101.328L90.3986 53.0454H97.3224L99.4304 48.3755H111.608L113.7 53.0454H120.64L109.662 28.7229ZM101.522 43.7056L105.527 33.9442L109.516 43.7056H101.522Z" fill="#001B71"/>
<path d="M40.0348 53.0454V28.7229H62.8331V33.7658H47.364V38.2087H58.7794V43.2191H47.364V47.8891H62.9304V53.0454H40.0348Z" fill="#001B71"/>
<path d="M32.203 44.6947C30.7436 46.7702 28.1817 47.7269 25.4251 47.7269C21.3227 47.7269 18.7283 44.6461 18.7283 40.8517C18.7283 37.0574 21.3227 34.0252 25.4251 34.0252C27.9547 34.0252 30.6139 35.063 32.1543 37.0899C32.1706 37.1223 36.0297 32.7118 36.0297 32.7118C33.3218 29.9715 29.4627 28.1392 25.4251 28.1392C17.7716 28.1392 12.064 33.8469 12.064 40.8842C12.064 47.9215 17.7716 53.6292 25.4251 53.6292C29.5924 53.6292 33.2894 51.7969 35.9973 48.9917C35.9973 48.9917 32.2192 44.6785 32.203 44.6947Z" fill="#001B71"/>
<path d="M313.841 0.34668L256.683 65.2067H312.739L332.878 0.34668H313.841ZM292.373 52.9806C291.465 53.0941 290.557 53.1427 289.649 53.1265C288.254 53.1103 287.378 52.9319 286.714 52.6725C286.146 52.4455 285.643 51.8293 285.822 51.3591C285.984 51.0023 286.243 50.6943 286.6 50.4997C288.238 49.4457 291.189 48.8944 294.448 48.6836C294.156 49.316 292.373 52.9806 292.373 52.9806ZM309.723 44.4677C307.355 47.2567 305.02 47.4513 300.415 47.0297C288.319 45.9595 285.984 49.2998 285.595 49.7214C285.676 49.4133 285.773 49.1052 285.919 48.8295C286.681 47.0945 287.605 45.1649 288.643 42.8624C289.227 41.6625 289.551 41.6139 290.086 41.2247C292.275 39.7816 295.794 38.4357 300.48 38.8411C303.934 39.1492 305.442 39.8464 307.566 39.9599C308.474 40.0248 309.382 39.9761 310.274 39.814C312.544 39.3275 313.128 38.6465 313.128 38.6465C313.128 38.6465 311.506 42.1814 309.723 44.4677ZM312.495 37.1547C311.75 37.5925 310.777 38.0141 308.896 38.079C306.82 38.1438 305.555 37.6898 303.269 37.3169C300.14 36.8142 297.107 36.6196 293.832 37.6574C292.438 38.0952 291.124 38.7924 289.973 39.7005C289.973 39.7005 292.389 34.2685 293.021 32.874C294.059 30.7498 297.513 29.2256 302.053 29.2742C306.139 29.3229 307.971 30.3769 311.328 30.4255C316.338 30.4093 317.992 28.7391 317.992 28.7391C317.7 29.3553 316.176 32.5497 315.463 33.9117C314.279 35.7602 313.436 36.6034 312.495 37.1547Z" fill="#001B71"/>
</svg>
