<svg width="313" height="76" viewBox="0 0 313 76" fill="none" xmlns="http://www.w3.org/2000/svg">
<g clip-path="url(#clip0_3817_9543)">
<path d="M203.189 37.7408C200.509 38.7208 197.519 38.5308 194.439 38.7208H194.229C199.119 36.7708 206.619 35.0908 207.259 28.3908C207.499 24.6208 205.539 21.3508 203.239 18.6008L203.139 18.8508C203.639 22.7008 204.769 27.0208 203.539 30.9408C203.299 29.8208 203.579 28.2708 203.339 26.8908C202.989 22.8808 201.379 18.6508 202.509 14.5008C207.219 18.9008 209.209 25.4308 207.309 31.8808C206.619 34.1308 205.409 36.4308 203.199 37.7608" fill="#B78E47"/>
<path d="M198.099 28.2512C194.579 28.8712 191.779 34.8512 187.919 31.0712C187.029 30.2612 186.599 29.2612 185.999 28.2912C185.519 29.7012 185.559 31.3512 184.529 32.5412C183.809 33.4812 182.689 34.1012 181.499 33.7212C180.079 33.2712 179.389 31.8212 178.819 30.5812C178.129 31.8512 177.699 33.3712 176.659 34.5412C176.079 35.1312 175.449 35.6812 174.559 35.6312C173.189 35.3712 172.649 33.9212 172.399 32.7512C172.249 32.1112 172.649 31.4712 172.199 30.9912C170.379 31.8312 168.629 33.1412 166.759 34.0212C157.949 38.3312 147.709 40.7412 137.279 39.0212C133.209 38.1412 128.609 35.7912 127.239 31.3612L126.799 28.9812C125.869 28.7412 125.039 29.7612 124.449 30.5012C122.589 32.8912 122.879 36.2212 120.689 38.3712C119.649 38.9612 118.529 38.3712 117.649 37.7812C115.489 35.6812 115.889 32.3112 116.389 29.5712C117.599 24.8612 123.579 23.2912 125.099 18.8412L124.949 18.6312L120.489 20.0112C120.789 18.9712 120.699 17.6712 121.659 16.9812C123.289 16.4412 125.099 16.2312 126.549 15.3112C126.319 18.0612 125.039 20.5812 123.439 22.8612C120.349 25.9712 116.179 28.9912 116.569 33.6712C117.009 34.9912 118.399 35.6812 119.649 35.7312C120.489 35.5812 120.929 34.7112 121.289 34.0212C122.499 31.0812 123.049 27.2212 126.559 25.9512C126.959 25.9012 127.249 26.0912 127.309 26.4912C127.249 30.0812 129.849 33.0012 132.939 34.5212C141.509 38.5812 152.269 36.6112 160.849 34.0212C164.499 32.9212 168.799 30.4812 173.139 28.0412C173.089 29.7112 172.699 31.8312 174.619 32.6612C175.489 32.8412 176.269 32.4612 176.919 31.9112C177.759 31.1812 178.149 30.3012 178.539 29.4212C177.649 26.2912 177.259 22.9512 176.609 19.7812C176.579 18.8512 176.579 17.7012 176.819 16.8412L177.059 17.0712C177.839 21.0812 178.229 25.2612 179.749 28.9812C180.089 29.6512 180.729 30.5412 181.509 30.7412C182.449 30.9312 183.369 30.7412 184.009 30.0712C186.659 27.4212 184.569 23.6912 184.129 20.8512C183.829 19.0312 183.129 17.3612 183.769 15.4612H183.959C185.539 20.0112 185.129 25.6112 189.299 28.8812C190.379 29.6212 192.089 29.4712 193.179 28.7512C193.669 28.4012 193.219 27.6212 193.369 27.1212C193.809 22.2412 193.219 17.2812 190.239 13.6512L190.139 13.7612C190.639 17.1312 191.599 20.8512 190.639 24.3212C190.529 19.3212 188.189 14.4912 189.709 9.45117C193.559 13.6512 194.639 19.3912 194.049 25.2112C194.109 25.7012 194.549 26.0412 194.989 26.1912C196.409 26.5812 197.539 25.7012 198.759 25.6712C198.709 26.5912 198.519 27.4312 198.119 28.2712" fill="#B78E47"/>
<path d="M179.969 17.0708C179.589 15.8108 180.029 14.4808 179.839 13.1708C178.669 14.9308 176.699 17.0708 174.549 17.6708C172.779 18.2608 171.029 18.8408 169.309 19.4308C173.479 16.5408 180.029 14.2908 180.579 8.26078L180.919 6.80078L181.099 6.85078C180.479 10.1408 180.479 13.7608 179.969 17.0808" fill="#B78E47"/>
<path d="M168.819 40.8708C167.489 41.2308 166.119 41.4108 164.889 41.9608C165.289 40.9308 165.329 39.4108 166.609 38.9708C167.979 38.5708 169.499 38.3808 170.729 37.7908C170.229 38.8808 170.089 40.3508 168.819 40.8808" fill="#B78E47"/>
<path d="M162.299 15.7613C154.609 18.6913 146.429 20.8813 138.449 23.0913C138.449 23.0913 138.899 22.1513 138.929 21.8813L139.429 21.6713C147.379 19.9113 155.049 17.3512 162.649 15.0312L162.299 15.7613Z" fill="#B78E47"/>
<path d="M152.359 25.8008C152.019 26.0908 151.619 25.7508 151.469 25.8208C151.009 26.7708 150.079 26.9608 149.619 26.6808C149.179 26.3908 149.229 25.6608 149.429 25.2108C149.559 24.9108 149.659 24.5808 149.899 24.3208C150.019 24.7208 149.469 25.2108 149.869 25.6108C150.149 25.8408 150.599 25.6108 150.879 25.4608C151.379 25.2108 151.539 24.6708 151.769 24.2908C151.769 24.6208 152.169 25.0608 152.599 24.8108C153.029 24.5208 152.799 23.8908 153.139 23.5908C153.029 24.3708 153.139 25.4608 152.359 25.8008Z" fill="#B78E47"/>
<path d="M90.499 23.8908C89.279 26.6208 88.879 30.6508 90.499 33.3308C92.959 30.7408 91.909 26.5308 90.499 23.8908ZM97.849 32.7008C99.579 30.0008 98.689 26.3408 97.069 23.9708C96.199 26.8308 95.739 30.6908 97.559 33.1408L97.849 32.7008ZM103.239 37.9908C102.019 38.7208 100.149 38.5708 98.979 37.8208L97.499 36.7608C96.419 37.8208 95.209 38.9108 93.589 38.9108C92.209 38.9108 91.129 37.8908 90.239 36.8508C87.749 38.7708 84.469 38.9608 81.419 39.4008C84.169 38.0908 86.949 36.9508 89.309 34.7508C88.189 29.7008 88.719 23.9208 90.569 19.4108L90.839 19.9008C92.889 24.3008 93.529 30.1908 91.419 34.8008C91.899 35.5708 92.789 35.6708 93.579 35.8708C94.709 35.8708 95.779 35.5208 96.359 34.5808C94.889 29.9408 95.239 24.2408 97.119 19.2208L97.289 19.5908C98.869 23.1108 100.459 27.0408 99.299 31.2508C99.249 32.0408 98.449 33.8208 98.459 34.2808C98.469 34.4608 98.959 35.0408 99.589 35.2608C101.509 35.9508 103.309 35.1108 104.639 33.7008C106.689 31.4408 107.469 28.1708 106.399 25.2708C105.849 23.6508 105.219 22.0908 104.259 20.6608L104.069 20.5108C103.669 24.2908 105.219 28.2108 103.939 31.5908C103.509 26.7308 102.949 21.1008 103.449 16.2608L103.639 16.4908C106.479 20.4608 108.539 24.9308 107.619 30.3108C107.269 33.2808 106.049 36.3308 103.209 37.9408" fill="#B78E47"/>
<path d="M88.429 17.9608C87.769 18.5908 86.289 18.9708 85.159 19.3108C86.239 18.3408 88.199 17.8108 88.979 16.3308C88.319 15.9508 87.219 17.5608 86.969 16.2308C86.969 15.2508 87.569 14.4208 88.399 13.9208C88.599 13.8408 88.929 13.8408 89.069 14.0308C89.039 14.2708 88.929 14.5108 88.749 14.7208C88.309 14.4708 87.849 14.7608 87.619 15.1008C87.369 15.2508 87.319 15.6008 87.419 15.8008C88.259 16.1808 88.999 14.6008 89.469 15.6008C89.429 16.4808 89.069 17.3508 88.439 17.9508" fill="#B78E47"/>
<path d="M83.739 26.3408C82.119 27.4208 82.809 28.8808 82.319 31.2808C81.799 33.8308 80.749 36.4708 78.259 37.9408C76.929 38.4708 72.819 39.0608 70.359 39.2208L71.209 38.8708C75.889 37.2708 81.779 33.4308 82.079 27.8108C82.459 26.2408 82.079 24.0808 83.989 23.4308C84.139 23.4308 84.189 23.5408 84.279 23.6808C84.139 24.6608 84.409 25.9408 83.749 26.3308" fill="#B78E47"/>
<path d="M67.049 37.1508C64.549 38.0308 61.899 38.5708 59.209 39.1108L58.749 39.1408C63.659 36.6008 70.669 33.5808 72.039 27.3608C71.799 25.6908 71.109 23.8308 69.349 23.2408C67.819 22.8008 66.359 23.2808 65.269 24.3108C64.789 24.8608 64.449 25.4508 64.359 26.1808C64.939 28.4908 68.169 29.6108 67.929 32.2108V33.4308C65.319 31.2408 63.319 28.3408 63.809 24.6208C63.709 22.7608 65.079 21.0408 66.749 20.3208C68.309 19.5408 70.219 20.0208 71.449 21.2408C73.689 23.8408 73.159 28.1008 72.139 31.0808C71.289 33.4908 69.579 36.2208 67.049 37.1608" fill="#B78E47"/>
<path d="M58.329 28.7408C57.549 30.2108 57.099 32.3608 55.189 32.7508C54.499 32.8408 53.959 32.4608 53.529 32.1108C52.799 31.2308 52.589 30.2008 52.699 28.9708H52.399C43.489 36.4608 31.909 40.1408 19.969 37.7708C16.499 37.0408 12.289 34.7008 11.459 30.8708C11.359 30.2908 11.459 29.6008 10.959 29.2108C8.28903 29.8208 6.99903 34.4108 5.67903 37.2608C5.06903 38.3008 4.75903 38.5208 4.06903 38.7108C2.59903 38.8108 1.27903 37.8208 0.639031 36.6108C-0.560969 33.1208 -0.0909688 29.3008 2.21903 26.8208C4.76903 24.0608 8.57903 22.6908 10.039 19.1808L9.95903 19.0308C8.43903 19.4608 6.81903 19.5608 5.34903 20.1008C5.62903 19.0808 5.62903 17.8008 6.61903 17.1608C8.37903 16.7808 10.249 16.5808 11.819 15.7508C11.039 19.8508 8.43903 23.5308 4.80903 26.0708C2.60903 27.9908 0.689031 30.1408 0.679031 32.9008C0.679031 34.4808 1.49903 34.9808 2.32903 35.4708C2.81903 35.7108 3.49903 35.9008 4.08903 35.6708C6.43903 33.4108 6.43903 29.9008 9.06903 27.5408C9.81903 27.0508 10.509 26.1708 11.539 26.5108C11.829 27.7308 12.079 29.0108 12.709 30.0908C16.239 35.0708 22.319 35.6708 28.249 35.7708C37.939 35.3708 46.369 31.9508 53.649 25.7808H53.899C53.949 26.9308 53.129 29.1208 54.839 29.7008C55.509 29.9008 56.159 29.6008 56.699 29.2008C57.819 28.0208 58.119 26.3708 59.389 25.3908L59.789 25.1108C59.549 26.2708 59.629 27.8908 58.369 28.7208" fill="#B78E47"/>
<path d="M57.689 21.6308C56.849 21.1408 56.019 20.7708 55.229 20.1108C55.379 19.1908 55.959 18.4508 56.409 17.6708C57.339 18.0708 58.239 18.5608 58.809 19.2308C58.519 20.0608 58.219 20.9108 57.689 21.6308Z" fill="#B78E47"/>
<path d="M49.8089 39.4611C48.4389 39.8511 46.9689 40.0411 45.6489 40.6711C46.0189 39.6911 45.9489 38.0311 47.2989 37.6511C48.6689 37.2011 50.1989 37.0511 51.4689 36.3711C51.0689 37.4911 50.9289 38.7811 49.8089 39.4611Z" fill="#B78E47"/>
<path d="M42.409 17.3608C35.609 19.3208 28.639 21.0408 21.589 22.4608C21.349 22.3108 21.769 21.9708 21.919 21.7808L22.179 21.4908C29.769 19.9208 37.309 18.0108 44.659 16.0508C44.569 17.0508 43.059 17.1708 42.409 17.3608Z" fill="#B78E47"/>
<path d="M34.719 25.5004C34.469 25.4304 34.359 25.3404 34.229 25.1404C33.659 26.1504 32.049 26.9104 31.719 25.6904C31.779 25.0104 32.029 24.2804 32.459 23.8904C32.419 24.2304 32.079 24.6004 32.269 25.0104C32.499 25.3804 33.009 25.2104 33.299 25.0604C34.119 24.6304 33.979 24.0404 34.419 23.8404C34.469 24.0404 34.379 24.4804 34.769 24.4404C35.149 24.4804 35.429 24.0404 35.499 23.7504L35.609 23.1504C35.899 23.6504 35.679 24.3204 35.499 24.7604C35.189 25.6104 34.949 25.3804 34.719 25.5004Z" fill="#B78E47"/>
<path d="M38.0391 66.2109C38.0391 67.7709 38.0391 68.5509 39.3691 69.5109V69.5909H34.2991V69.5109C35.5791 68.8609 35.3891 67.1709 35.3891 65.9409V62.0909L31.0691 55.1409C30.3691 53.9909 29.8491 53.1409 28.5991 52.4609H30.9691C31.7991 52.4609 32.5791 52.6409 32.9191 53.1909L37.0791 59.9809L40.3091 55.1409C40.7491 54.4909 41.3491 53.2409 39.8891 52.5409V52.4609H44.4391L38.0391 62.0909V66.2109Z" fill="#B78E47"/>
<path d="M46.359 63.1716L45.009 66.8416C44.459 68.3016 44.279 69.0516 45.529 69.5216V69.6016H40.739V69.5216C42.249 68.7716 42.689 67.3116 43.259 65.8216L47.609 54.9716C47.969 54.0316 48.469 52.9416 47.219 52.5516V52.4716H51.329L56.739 65.8216C57.339 67.3016 57.809 68.7616 59.289 69.5216V69.6016H53.949V69.5216C55.229 68.9516 55.019 68.6616 54.309 66.8416L52.899 63.1716H46.339H46.359ZM49.609 54.6916L47.029 61.2516H52.159L49.609 54.6916Z" fill="#B78E47"/>
<path d="M67.329 67.7209C69.099 67.8209 70.629 67.2309 71.939 66.1309H72.019L70.669 69.5909H59.969V69.5109C61.299 69.0409 61.139 67.1209 61.139 65.9409V56.1309C61.139 54.9309 61.299 53.0309 59.969 52.5409V52.4609H64.939V52.5409C63.609 53.0309 63.799 54.9609 63.799 56.1309V67.4809L67.339 67.7109L67.329 67.7209Z" fill="#B78E47"/>
<path d="M80.2191 56.1416C80.2191 54.9416 80.3791 53.0416 79.0491 52.5516V52.4716H84.0191V52.5516C82.7191 53.0416 82.8791 54.9416 82.8791 56.1416V70.8916C82.8791 73.6516 80.8791 75.1616 77.0491 75.5716V75.4916C79.9391 73.6416 80.2191 72.0816 80.2191 69.2716V56.1316V56.1416Z" fill="#B78E47"/>
<path d="M118.399 56.0416C118.399 54.8416 118.579 52.9416 117.249 52.5516V52.4716H123.629C129.559 52.4716 133.259 55.7016 133.259 60.8816C133.259 66.0616 129.329 69.6016 123.499 69.6016H117.249V69.5216C118.549 68.6416 118.399 67.3916 118.399 65.8516V56.0416ZM121.049 67.5416C121.669 67.6716 122.299 67.7216 122.949 67.7216C126.829 67.7216 130.289 65.6916 130.289 61.1916C130.289 56.6916 127.739 54.3516 123.389 54.3516C122.609 54.3516 121.829 54.4516 121.049 54.6416V67.5516V67.5416Z" fill="#B78E47"/>
<path d="M137.259 63.1716L135.909 66.8416C135.359 68.3016 135.179 69.0516 136.429 69.5216V69.6016H131.639V69.5216C133.149 68.7716 133.589 67.3116 134.159 65.8216L138.509 54.9716C138.869 54.0316 139.369 52.9416 138.119 52.5516V52.4716H142.229L147.639 65.8216C148.239 67.3016 148.709 68.7616 150.189 69.5216V69.6016H144.849V69.5216C146.129 68.9516 145.919 68.6616 145.209 66.8416L143.799 63.1716H137.239H137.259ZM140.509 54.6916L137.929 61.2516H143.059L140.509 54.6916Z" fill="#B78E47"/>
<path d="M153.469 66.2116C153.469 67.6716 153.439 68.7116 154.819 69.5116V69.5916H150.209V69.5116C151.589 68.7016 151.589 67.6616 151.589 66.2116V55.8316C151.589 54.3716 151.589 53.3316 150.239 52.5516V52.4716H154.039V52.5016C154.139 52.8116 154.249 52.9416 154.429 53.1516L154.789 53.6716L164.309 65.6916V55.8316C164.309 54.3716 164.339 53.3316 162.959 52.5516V52.4716H167.539V52.5516C166.189 53.3316 166.189 54.3716 166.189 55.8316V70.4316C164.339 69.8016 163.539 68.9516 162.389 67.4616L153.459 56.1416V66.2116H153.469Z" fill="#B78E47"/>
<path d="M169.299 56.1416C169.299 54.9416 169.479 53.0416 168.149 52.5516V52.4716H173.089V52.5516C171.789 53.0416 171.949 54.9716 171.949 56.1416V65.9516C171.949 67.1216 171.789 69.0216 173.089 69.5216V69.6016H168.149V69.5216C169.449 69.0516 169.299 67.1316 169.299 65.9516V56.1416Z" fill="#B78E47"/>
<path d="M178.809 63.1716L177.459 66.8416C176.909 68.3016 176.729 69.0516 177.979 69.5216V69.6016H173.189V69.5216C174.699 68.7716 175.139 67.3116 175.709 65.8216L180.059 54.9716C180.419 54.0316 180.919 52.9416 179.669 52.5516V52.4716H183.779L189.189 65.8216C189.789 67.3016 190.259 68.7616 191.739 69.5216V69.6016H186.399V69.5216C187.679 68.9516 187.469 68.6616 186.759 66.8416L185.349 63.1716H178.789H178.809ZM182.059 54.6916L179.479 61.2516H184.609L182.059 54.6916Z" fill="#B78E47"/>
<path d="M194.999 66.2116C194.999 67.6716 194.969 68.7116 196.349 69.5116V69.5916H191.739V69.5116C193.119 68.7016 193.119 67.6616 193.119 66.2116V55.8316C193.119 54.3716 193.119 53.3316 191.769 52.5516V52.4716H195.569V52.5016C195.669 52.8116 195.779 52.9416 195.959 53.1516L196.319 53.6716L205.839 65.6916V55.8316C205.839 54.3716 205.869 53.3316 204.489 52.5516V52.4716H209.069V52.5516C207.719 53.3316 207.719 54.3716 207.719 55.8316V70.4316C205.869 69.8016 205.069 68.9516 203.919 67.4616L194.989 56.1416V66.2116H194.999Z" fill="#B78E47"/>
<path d="M93.359 52.4716C87.379 52.4716 84.709 57.2416 84.709 61.2916C84.709 64.4816 87.029 70.0016 93.079 70.0016C98.699 70.0016 101.749 65.5816 101.749 61.0116C101.749 57.4116 98.699 52.4716 93.369 52.4716M93.299 68.1916C89.759 68.1916 87.669 64.5616 87.609 60.9616C87.549 57.2616 89.699 54.1916 93.249 54.2816C96.869 54.3716 98.849 57.8316 98.849 61.5716C98.849 65.3116 96.719 68.1816 93.289 68.1816" fill="#B78E47"/>
<path d="M21.9391 52.2411C15.8791 52.2411 13.1791 57.0811 13.1791 61.1811C13.1791 64.4111 15.5291 70.0011 21.6591 70.0011C27.3491 70.0011 30.4391 65.5211 30.4391 60.8911C30.4391 57.2411 27.3491 52.2411 21.9491 52.2411M21.8691 68.1711C18.2891 68.1711 16.1691 64.4911 16.0991 60.8511C16.0391 57.1011 18.2191 53.9911 21.8191 54.0811C25.4891 54.1711 27.4991 57.6711 27.4991 61.4711C27.4991 65.2711 25.3391 68.1711 21.8691 68.1711Z" fill="#B78E47"/>
<path d="M6.72905 52.4716C10.2191 52.4716 12.1191 54.2916 12.1191 56.6716C12.1191 59.0516 10.1091 60.7616 7.97905 61.2616L11.7291 65.9816C12.8191 67.3316 14.4691 68.6916 15.9491 69.6316H13.5491C12.1691 69.6316 11.3091 69.2916 10.5291 68.3316L7.47905 64.2716L4.95905 60.7216C7.03905 60.4116 9.46905 59.4416 9.46905 57.0016C9.46905 55.1216 7.84905 54.0316 6.10905 54.1116C5.50905 54.1416 4.93905 54.2116 4.33905 54.3216V65.9916C4.33905 67.1916 4.17905 69.0916 5.50905 69.5616V69.6416H0.529053V69.5616C1.85905 69.0916 1.67905 67.1616 1.67905 65.9916V56.1716C1.67905 54.9716 1.85905 53.0716 0.529053 52.5716V52.4916H6.72905V52.4716Z" fill="#B78E47"/>
<path d="M108.749 52.4716C112.239 52.4716 114.139 54.2916 114.139 56.6716C114.139 59.0516 112.129 60.7616 109.999 61.2616L113.749 65.9816C114.839 67.3316 116.489 68.6916 117.969 69.6316H115.569C114.189 69.6316 113.329 69.2916 112.549 68.3316L109.499 64.2716L106.979 60.7216C109.059 60.4116 111.489 59.4416 111.489 57.0016C111.489 55.1216 109.869 54.0316 108.129 54.1116C107.529 54.1416 106.959 54.2116 106.359 54.3216V65.9916C106.359 67.1916 106.199 69.0916 107.529 69.5616V69.6416H102.549V69.5616C103.879 69.0916 103.699 67.1616 103.699 65.9916V56.1716C103.699 54.9716 103.879 53.0716 102.549 52.5716V52.4916H108.749V52.4716Z" fill="#B78E47"/>
<path d="M268.139 11.2108C267.339 11.2908 266.509 11.4108 265.649 11.5808C265.549 11.6008 265.519 11.7308 265.609 11.7908C267.539 13.0608 269.199 15.1508 270.359 16.9008C271.519 15.1508 273.179 13.0608 275.109 11.7908C275.199 11.7308 275.169 11.6008 275.069 11.5808C274.209 11.4108 273.379 11.2908 272.579 11.2108C272.409 11.0108 272.159 10.8608 271.869 10.7508V10.6208L272.129 10.3408L273.289 9.18082C273.289 9.18082 271.249 3.18082 270.499 0.94082C270.479 0.87082 270.419 0.84082 270.359 0.84082C270.299 0.84082 270.239 0.87082 270.219 0.94082C269.469 3.18082 267.439 9.16082 267.429 9.18082L268.589 10.3408L268.839 10.6208V10.7508C268.559 10.8608 268.309 11.0108 268.139 11.2108Z" fill="#B78E47"/>
<path d="M244.329 64.6908C244.089 64.6908 243.899 64.9108 243.929 65.1508C244.169 66.7108 244.259 67.8808 244.299 68.3408C244.299 68.4608 244.399 68.5508 244.529 68.5508H296.209C296.329 68.5508 296.429 68.4608 296.429 68.3408C296.459 67.8808 296.559 66.7108 296.799 65.1508C296.839 64.9108 296.649 64.6908 296.399 64.6908H244.329ZM300.169 53.6208C299.039 53.9308 297.239 53.9408 295.929 51.7708C296.939 51.6708 297.699 50.7108 297.429 49.6308C297.279 49.0308 296.779 48.5408 296.179 48.4008C295.049 48.1508 294.059 48.9908 294.059 50.0708C294.059 50.7308 294.439 51.3008 294.989 51.5908C293.589 52.6408 289.989 54.6408 287.429 50.0308C287.359 49.9108 287.199 49.8708 287.089 49.9708C286.159 50.7908 282.309 53.7608 279.209 49.4908C280.069 49.3108 280.699 48.4808 280.549 47.5308C280.429 46.8008 279.819 46.2008 279.069 46.1108C278.029 45.9808 277.139 46.7908 277.139 47.8108C277.139 48.5308 277.579 49.1408 278.209 49.4008C276.969 50.5108 273.839 52.5508 270.539 48.7808C270.449 48.6808 270.289 48.6808 270.199 48.7808C266.899 52.5508 263.769 50.5108 262.529 49.4008C263.239 49.1108 263.709 48.3808 263.579 47.5408C263.469 46.7908 262.849 46.1908 262.099 46.1008C261.059 45.9808 260.179 46.7908 260.179 47.8008C260.179 48.6308 260.759 49.3108 261.539 49.4808C258.439 53.7608 254.589 50.7808 253.659 49.9608C253.549 49.8608 253.389 49.9008 253.319 50.0208C250.749 54.6308 247.149 52.6308 245.749 51.5808C246.409 51.2408 246.819 50.5008 246.639 49.6708C246.499 49.0508 246.009 48.5508 245.389 48.4008C244.259 48.1308 243.249 48.9808 243.249 50.0608C243.249 50.9508 243.929 51.6808 244.799 51.7608C243.489 53.9308 241.689 53.9108 240.559 53.6108C240.359 53.5608 240.209 53.7708 240.309 53.9508C241.809 56.4208 242.749 59.4008 243.349 62.0208C243.389 62.2008 243.549 62.3308 243.739 62.3308H296.999C297.189 62.3308 297.349 62.2008 297.389 62.0208C297.979 59.4008 298.929 56.4208 300.429 53.9508C300.539 53.7708 300.379 53.5508 300.179 53.6108L300.169 53.6208ZM256.979 58.0308L252.869 59.5308C252.819 59.5408 252.759 59.5408 252.709 59.5308L248.599 58.0208C248.499 57.9808 248.499 57.8408 248.599 57.8008L252.709 56.3008C252.759 56.2908 252.819 56.2908 252.869 56.3008L256.979 57.8208C257.079 57.8608 257.079 58.0008 256.979 58.0308ZM261.669 59.5108H261.609C260.739 59.5108 260.019 58.8008 260.019 57.9208C260.019 57.3608 260.299 56.8608 260.789 56.5608C261.039 56.4208 261.309 56.3408 261.599 56.3408H261.649C261.919 56.3408 262.199 56.4308 262.419 56.5608C262.909 56.8608 263.199 57.3508 263.199 57.9208C263.199 58.7708 262.509 59.4908 261.669 59.5108ZM274.559 58.0308L270.449 59.5308C270.399 59.5408 270.339 59.5408 270.289 59.5308L266.179 58.0208C266.079 57.9808 266.079 57.8408 266.179 57.8008L270.289 56.3008C270.339 56.2908 270.399 56.2908 270.449 56.3008L274.559 57.8208C274.659 57.8608 274.659 58.0008 274.559 58.0308ZM279.059 59.5108C278.219 59.4908 277.529 58.7708 277.529 57.9208C277.529 57.3508 277.819 56.8608 278.309 56.5608C278.529 56.4308 278.799 56.3508 279.079 56.3408H279.129C279.419 56.3408 279.699 56.4208 279.939 56.5608C280.439 56.8608 280.719 57.3608 280.719 57.9208C280.719 58.8008 280.009 59.5108 279.129 59.5108H279.059ZM292.129 58.0208L288.019 59.5308C288.019 59.5308 287.919 59.5408 287.869 59.5308L283.749 58.0308C283.649 57.9908 283.649 57.8508 283.749 57.8208L287.859 56.3008C287.909 56.2908 287.969 56.2908 288.019 56.3008L292.129 57.8008C292.229 57.8408 292.229 57.9808 292.129 58.0208Z" fill="#B78E47"/>
<path d="M310.399 27.8508C305.609 20.6408 298.689 20.6908 294.989 21.3708C292.589 15.7008 284.239 13.7108 284.239 13.7108C283.779 13.0108 282.749 12.0808 280.449 11.9008C276.669 11.6008 273.119 16.4508 273.119 16.4508C272.279 17.5208 271.559 18.6208 271.059 19.4708C270.739 20.0008 270.499 20.4308 270.369 20.6908C270.239 20.4308 269.999 20.0008 269.679 19.4708C269.169 18.6208 268.449 17.5208 267.619 16.4508C267.619 16.4508 264.079 11.6008 260.289 11.9008C257.989 12.0808 256.959 13.0108 256.499 13.7108C256.499 13.7108 248.149 15.7008 245.749 21.3708C242.049 20.6908 235.129 20.6408 230.339 27.8508C224.679 36.3808 231.809 45.9808 236.019 48.6508C236.129 48.7208 236.269 48.6808 236.329 48.5608C237.989 45.4408 240.569 43.0908 241.489 42.3308C241.619 42.2208 241.589 42.0108 241.429 41.9508C240.169 41.4608 236.189 39.4508 235.819 33.3108C235.449 27.2408 240.799 25.0908 244.749 24.8908C244.749 24.8908 244.169 27.9108 245.519 33.0208C245.539 33.0608 246.579 37.5008 246.109 40.7408C246.089 40.8508 246.159 40.9508 246.269 40.9908C250.569 42.3408 251.749 43.0308 253.159 43.9208C253.269 43.9908 253.419 43.9508 253.479 43.8308C254.139 42.5408 255.399 40.6808 257.079 38.3408C257.139 38.2508 257.139 38.1308 257.059 38.0508C255.999 36.9808 249.749 30.4408 252.069 23.0108C252.069 22.9908 252.429 21.4708 253.829 19.8108C255.019 18.4008 257.229 16.6208 261.039 15.8708C261.549 16.2808 262.109 16.8208 262.699 17.5408C262.709 17.5508 264.379 19.2408 265.509 22.5408C266.539 25.5608 267.309 30.6708 265.219 37.5008C265.189 37.5908 265.219 37.6908 265.299 37.7508C267.679 39.5308 269.089 40.7908 270.209 41.8908C270.299 41.9808 270.439 41.9808 270.529 41.8908C271.649 40.7908 273.059 39.5408 275.439 37.7508C275.519 37.6908 275.549 37.5908 275.519 37.5008C273.429 30.6708 274.199 25.5708 275.229 22.5408C276.359 19.2408 278.029 17.5508 278.039 17.5408C278.629 16.8308 279.189 16.2808 279.699 15.8708C283.509 16.6208 285.719 18.4108 286.909 19.8108C288.309 21.4708 288.669 22.9908 288.669 23.0108C290.989 30.4408 284.739 36.9808 283.679 38.0508C283.599 38.1308 283.589 38.2508 283.659 38.3408C285.339 40.6808 286.599 42.5408 287.259 43.8308C287.319 43.9508 287.469 43.9908 287.579 43.9208C288.989 43.0308 290.169 42.3408 294.469 40.9908C294.579 40.9608 294.639 40.8508 294.629 40.7408C294.169 37.5008 295.199 33.0708 295.219 33.0208C296.569 27.9208 295.989 24.8908 295.989 24.8908C299.939 25.0908 305.289 27.2408 304.919 33.3108C304.549 39.4508 300.579 41.4608 299.319 41.9508C299.159 42.0108 299.119 42.2208 299.259 42.3308C300.179 43.0908 302.759 45.4408 304.419 48.5508C304.479 48.6708 304.629 48.7108 304.739 48.6408C308.949 45.9708 316.079 36.3608 310.419 27.8408L310.399 27.8508Z" fill="#B78E47"/>
</g>
<defs>
<clipPath id="clip0_3817_9543">
<rect width="312.517" height="74.7309" fill="white" transform="translate(0 0.84082)"/>
</clipPath>
</defs>
</svg>
