<svg>
<style type="text/css">
	.ay0{fill:#0B1560;}
</style>
<path id="blue" transform="translate(-1.751, -2.05831)" class="ay0" d="M46.7,132.9c1.9-1,4-1.5,6.2-1.5c9.6,0,19.2,0,28.8,0
	c-1.3,2.8-2.6,6.4-6.1,6.8c-8.9,0.2-17.8,0-26.8,0.1c-2.2,0-4.4,1.1-5.3,3.2c-1.9,3.8-3.6,7.6-5.5,11.4c7.6,0,15.3,0,22.9,0
	c-0.7,1.3-1.2,2.7-2.2,3.8c-1.3,1-3,0.8-4.5,0.9c-5.9-0.1-11.8,0.1-17.8-0.1c-2.1,4-3.9,8.2-6,12.2c-0.9,1.9-3,3.1-5.1,3.1
	c-4.2,0-8.3,0.2-12.5-0.1v-0.2c0.1,0,0.2,0.1,0.3,0.1c3.6-7.8,7.3-15.4,11-23.1c1.8-3.9,4.9-7,8.7-9.1
	C37.4,137.7,42.1,135.3,46.7,132.9z M86.5,134.8c1-2,3.2-3.3,5.4-3.3c4.1-0.1,8.1,0,12.2,0c-6,12.6-12.1,25.2-18.2,37.8
	c-0.8,2.1-2.9,3.5-5.2,3.5c-4.2,0.1-8.4,0-12.6,0C74.3,160.1,80.4,147.4,86.5,134.8z M120.4,131.6c1.3-0.7,2.9,0.1,3.6,1.3
	c6,8.2,12,16.4,18,24.6c0.7,0.9,1.2,1.9,1.7,2.9c3.8-7.6,7.4-15.3,11.1-22.9c1-1.9,1.6-4.2,3.6-5.2c2.8-1.5,6-0.7,9-0.9
	c-6.7,13.8-13.3,27.5-20,41.3c-3.4,0-6.8,0.1-10.1-0.1c-2.1-0.1-3.7-1.6-4.9-3.2c-4.7-6.2-9.3-12.4-14-18.6c-1-1.3-2-2.6-2.7-4
	c-3.8,7.5-7.3,15.2-11,22.8c-0.9,1.7-2.6,2.9-4.5,3c-2.2,0.1-4.4,0-6.6,0c4.7-10.1,9.5-20.1,14.3-30.1c1.5-3.3,3.9-6.3,7.1-8.2
	C116.8,133.4,118.5,132.5,120.4,131.6z M185.4,131.6c1.3-0.7,2.8,0.1,3.6,1.2c6,8.2,12,16.4,18,24.6c0.7,0.9,1.2,1.9,1.7,2.9
	c4.2-8.5,8.2-17.1,12.4-25.6c0.9-1.9,2.8-3.1,4.8-3.3c2.2-0.2,4.3,0,6.5-0.1c-6.6,13.8-13.3,27.5-19.9,41.3
	c-3.4-0.1-6.8,0.1-10.2-0.1c-2.2-0.1-3.9-1.9-5.1-3.6c-5.3-7.1-10.7-14.1-15.9-21.3c-0.2-0.1-0.5-0.4-0.7-0.6
	c-3.4,7.3-6.9,14.5-10.4,21.7c-0.8,1.8-2.3,3.4-4.3,3.6c-2.4,0.2-4.7,0-7.1,0.1c3.8-8.5,7.9-16.8,11.9-25.2c1.7-3.3,3-7,5.5-9.8
	C178.6,134.8,182.1,133.2,185.4,131.6z M256.4,133c1.9-1,4-1.6,6.1-1.5c4.5,0,9.1,0,13.6,0c3.3,0,6.5,1.2,9.1,3.3
	c2.9,2.2,5.9,4.4,8.8,6.6c1.3,0.9,1.4,2.6,0.7,3.9c-4.4,9.2-8.8,18.3-13.2,27.4c-3.8,0-7.5,0.1-11.3,0c-2,0.1-3.7-2.2-2.7-4
	c1.6-3.8,3.6-7.4,5.3-11.1c-8.9,0-17.8,0-26.7,0c-1.9,3.9-3.8,7.9-5.8,11.9c-0.9,1.8-2.7,3.3-4.8,3.3c-4.3,0.1-8.6,0-12.8,0.1
	c3.7-7.8,7.5-15.6,11.2-23.4c1.8-3.8,4.9-7,8.6-9.1C247.1,137.8,251.8,135.4,256.4,133 M253.8,141.5c-1.9,3.8-3.6,7.6-5.5,11.4
	c8.9,0,17.8,0,26.7,0c1.8-3.8,3.6-7.5,5.4-11.2c0.3-0.8,1-1.6,0.6-2.5c-0.7-1-2-0.8-3.1-0.9c-6.3,0-12.6,0-18.9,0
	C256.8,138.2,254.7,139.5,253.8,141.5z M309.8,136.1c0.8-2.3,2.7-4.4,5.3-4.6c4.3-0.2,8.6,0,13-0.1c-5.8,12.6-12,25-18,37.5
	c-0.8,2-2.7,3.7-4.9,3.8c-4.3,0.1-8.7,0-13,0C298.1,160.5,303.9,148.3,309.8,136.1L309.8,136.1z M347.3,135.8
	c3.5-1.6,6.9-4.3,11-4.3c4.7,0,9.5-0.1,14.2,0c4.3,0.1,8,2.6,11.2,5.3c2.3,2,5.2,3.4,7.1,5.9v1.5c-1.1,2.8-2.4,5.6-3.8,8.2
	c-1.6,2.8-5.1,3.7-8.1,4.1c-5,0.4-10-0.1-15,0.3c0.1,0.2,0.4,0.6,0.6,0.8c2.9,1.1,7,0.1,8.7,3.2c2.4,4,4.8,8,7.3,12.1
	c-4.9-0.1-9.7,0-14.6-0.1c-1.9,0.1-3.6-0.9-4.5-2.5c-2.2-3.5-4.2-7.1-6.4-10.7c-0.8-1.4-2.1-2.6-3.8-2.8c-2.8-0.3-5.6,0-8.4-0.1
	c-2.1,4.1-4,8.2-6,12.3c-0.9,2-2.7,3.7-5,3.7c-4.3,0.1-8.6,0-12.8,0.1c4-8.3,7.9-16.7,12-24.9C334.3,141.5,341.4,139.1,347.3,135.8
	 M349.7,141.2c-1.8,3.6-3.5,7.2-5.3,10.8c7.2,0,14.3,0,21.5,0c2.4,0,5.3-0.5,6.6-2.8c1.3-2.5,2.4-5,3.6-7.5c0.3-0.8,1-1.7,0.5-2.6
	c-0.7-0.9-2-0.8-3-0.8c-6.3,0-12.6,0-18.9,0C352.7,138.3,350.7,139.3,349.7,141.2L349.7,141.2z"/>
</svg>
