<svg width="456" height="69" viewBox="0 0 456 69" fill="none" xmlns="http://www.w3.org/2000/svg">
<path d="M126.891 25.7708C126.891 24.2253 128.165 22.9517 129.696 22.9517C131.227 22.9517 132.487 24.211 132.487 25.7708C132.487 27.3307 131.227 28.5757 129.696 28.5757C128.165 28.5757 126.891 27.3164 126.891 25.7708Z" fill="#0087BF"/>
<path d="M336.254 28.4318C337.771 28.4318 339.016 27.2154 339.016 25.627C339.016 24.0385 337.771 22.8364 336.254 22.8364C334.737 22.8364 333.435 24.1101 333.435 25.627C333.435 27.1439 334.694 28.4318 336.254 28.4318Z" fill="#0087BF"/>
<path d="M374.821 28.4618C376.338 28.4618 377.597 27.2168 377.597 25.6856C377.597 24.1543 376.338 22.895 374.821 22.895C373.304 22.895 372.031 24.14 372.031 25.6856C372.031 27.2311 373.276 28.4618 374.821 28.4618Z" fill="#0087BF"/>
<path d="M89.4551 4.80506C89.7556 4.90523 90.1133 4.7192 90.1992 4.41868C90.2708 4.07522 90.1133 3.74608 89.7985 3.67453C89.4694 3.58867 89.1545 3.74608 89.0544 4.06091C88.9542 4.39005 89.1402 4.70489 89.4551 4.81937M88.2959 4.54747C89.9273 1.27036 92.9039 0.912598 92.9039 0.912598C91.0006 2.40089 90.2708 5.84973 90.0847 7.09474C89.5839 9.97116 89.2404 15.8098 80.325 21.0189C70.05 26.9864 70.465 32.1811 67.4312 40.4096C61.1918 57.2388 32.3418 65.2098 21.2941 66.8841C10.232 68.5298 0 68.3438 0 68.3438C30.4671 63.7358 45.8938 50.9994 51.8184 37.4474C57.7429 23.881 62.7516 22.7791 75.2161 18.4144C86.1064 14.5791 86.7504 8.69752 87.9095 5.50627C88.024 5.20575 88.1385 4.93385 88.253 4.66195C87.8809 4.84799 87.1368 5.36317 86.6645 6.47939C85.9204 8.23958 85.076 8.13941 84.3319 8.38269C85.6771 7.12336 84.9902 6.92302 86.1064 5.59214C86.9364 4.56178 87.8952 4.56178 88.3102 4.56178L88.2959 4.54747Z" fill="#D71440"/>
<path d="M14.4537 57.7535C23.3978 54.6768 32.8141 50.8416 39.8263 39.6364C47.2105 27.8875 52.8202 24.6676 64.5978 21.4478C64.5978 21.4478 55.0527 24.5388 49.6433 36.4022C46.1515 44.0727 39.2253 50.1117 33.086 53.074C23.8271 57.5389 14.468 57.7392 14.468 57.7392" fill="#009247"/>
<path d="M75.8459 25.2397C75.8459 25.2397 73.642 27.6439 72.3255 31.4934C71.0232 35.3144 71.2236 40.1084 68.0752 45.5893C64.8983 51.0702 60.4764 55.8786 51.3176 60.7585C51.3176 60.7585 62.4512 61.4167 69.1915 54.4475C75.8888 47.4926 74.9729 40.6665 74.6867 33.6543C74.515 28.9605 75.8316 25.2397 75.8316 25.2397" fill="#F16122"/>
<path d="M122.384 32.0811C120.666 31.6231 118.863 32.0954 117.475 33.1687C116.86 33.6552 116.244 34.3278 115.786 34.8573C115.672 32.3673 115.028 32.0811 115.028 32.0811H110.119C112.381 33.8699 110.778 41.941 110.606 43.3435C108.917 56.8955 110.706 57.84 110.706 57.84H115.429C113.783 56.7953 114.284 49.3968 114.913 43.9874V44.5026C115.328 40.9822 116.731 36.9467 119.45 34.6284C122.426 32.0954 124.988 33.784 124.988 33.784C124.73 33.1687 124.072 32.4961 122.369 32.0954" fill="#0087BF"/>
<path d="M128.294 38.693C128.294 38.693 129.095 33.2693 127.163 32.0815C127.163 32.0815 133.345 32.1245 132.716 38.3495C132.716 38.3495 129.839 56.2234 132.487 57.8405H127.764C127.764 57.8405 125.56 56.7243 128.308 38.7073" fill="#0087BF"/>
<path d="M102.234 42.113C98.2416 38.4209 86.5499 35.4157 87.108 29.2622C87.3512 26.629 90.2134 25.2409 93.8339 25.0549C97.4974 24.8688 103.079 25.4842 104.209 29.7201C104.209 29.7201 106.413 24.0674 96.3669 22.6221C90.5282 21.7778 83.3443 23.9386 82.8005 30.0779C82.7719 30.407 82.7719 30.6932 82.7719 30.9937C82.8577 33.7843 84.4605 35.7734 86.7502 37.3619C92.0022 41.5263 100.517 44.3168 100.045 49.5259C99.7012 53.1035 96.0664 55.8225 90.5282 55.3359C85.0902 54.6204 81.3265 52.7314 81.3122 48.5098C81.3122 48.5098 78.1639 55.937 88.2099 58.0406V58.0835C89.0113 58.2553 89.8413 58.3411 90.6856 58.4127C90.9003 58.4127 91.1149 58.4556 91.3153 58.4556C98.0841 58.7132 104.853 55.6078 105.454 49.0536C105.712 46.077 104.409 43.8446 102.234 42.0987" fill="#0087BF"/>
<path d="M324.534 40.0515C320.713 25.0111 318.18 22.979 318.18 22.979H313.586L313.615 23.0076H313.586C313.586 23.0076 314.688 25.0397 307.59 40.0658C303.383 49.0098 300.549 55.7358 301.508 57.6105H306.073C305.458 56.4084 306.445 53.1313 308.363 48.5376V48.5948C311.311 42.4556 316.606 42.7561 319.396 43.901C319.396 43.901 318.38 41.9548 314.788 41.5111C313.458 41.3537 312.27 41.5827 311.325 41.9118C311.626 41.3394 311.898 40.7097 312.184 40.0801C315.647 32.7102 315.59 28.2739 315.275 25.7552C316.406 28.1022 318.023 32.3953 319.955 40.0658C322.216 49.0242 324.233 55.7501 326.537 57.6105H331.145C328.813 55.7501 326.809 49.0242 324.548 40.0658" fill="#0087BF"/>
<path d="M334.823 38.5065C334.823 38.5065 335.625 33.1544 333.678 31.938C333.678 31.938 339.861 31.9809 339.217 38.1631C339.217 38.1631 336.355 55.9654 339.002 57.5681H334.294C334.294 57.5681 332.104 56.4805 334.838 38.5208" fill="#0087BF"/>
<path d="M453.057 45.6769C450.109 42.9579 441.393 41.0689 441.823 36.5181C442.009 34.5433 443.984 33.5416 446.688 33.4128C449.379 33.2697 453.514 33.699 454.345 36.8473C454.345 36.8473 456.005 32.6686 448.534 31.581C444.198 30.98 438.302 32.5541 437.887 37.1049C437.873 37.3482 437.873 37.5628 437.873 37.8061C437.93 39.8382 439.404 41.7272 441.107 42.9006C444.985 45.9774 451.139 47.6517 450.767 51.5156C450.538 54.1201 447.905 56.1665 443.798 55.8087C439.776 55.2649 437 53.8911 436.986 50.7571C436.986 50.7571 434.668 56.2237 442.08 57.7836V57.8265C442.696 57.9553 443.325 58.0269 443.941 58.0841C444.084 58.1127 444.227 58.1127 444.384 58.1413V58.1127C449.407 58.3131 454.817 56.0091 455.26 51.1578C455.461 48.9969 454.645 46.9934 453.042 45.6769" fill="#0087BF"/>
<path d="M425.638 55.7363C422.475 55.8508 420.014 55.3928 418.597 52.5164C416.107 47.2788 424.865 46.2198 430.89 42.3703C435.269 39.5654 435.097 31.1651 424.393 31.4943C416.565 31.4656 412.758 39.0216 412.758 45.3755C412.758 54.7346 418.053 58.0832 423.377 58.0832C427.713 58.0832 430.918 55.7363 432.535 52.8169C431.276 54.4483 428.328 55.6504 425.638 55.7363ZM418.711 38.5064C420.443 35.215 423.434 33.7983 425.867 33.7983C430.618 33.7983 431.849 40.2952 423.906 43.5151C419.813 45.1751 417.28 47.9514 417.28 47.9514C416.35 44.1877 418.168 39.5225 418.711 38.5064Z" fill="#0087BF"/>
<path d="M366.578 41.7979C367.766 32.3959 366.392 22.9509 366.392 22.9509L361.641 22.8794C363.444 24.382 362.299 41.755 362.099 43.1288C360.425 56.6522 362.214 57.5967 362.214 57.5967H366.922C365.076 56.5091 365.92 47.193 366.564 41.7979" fill="#0087BF"/>
<path d="M407.263 48.5102C407.421 44.675 407.864 41.312 407.864 41.312C409.095 33.8133 403.9 31.1802 398.491 31.1802C394.155 31.1802 390.692 33.2838 388.574 37.0189C388.803 32.4395 387.744 31.9816 387.744 31.9816H383.007C385.239 33.7704 383.651 41.7843 383.493 43.1724C381.819 56.6815 383.608 57.5974 383.608 57.5974H388.287C386.499 56.5098 387.286 48.1525 387.944 42.7717C388.431 38.4642 392.781 34.3428 397.074 34.3428C401.367 34.3428 404.716 35.688 404.029 40.7825L403.099 50.7283C402.856 56.796 404.158 57.6117 404.158 57.6117H408.422C407.249 56.4382 407.177 51.3866 407.277 48.5245" fill="#0087BF"/>
<path d="M356.532 31.9528C354.829 31.5092 353.026 31.9814 351.667 33.0404C351.023 33.5413 350.436 34.1852 349.964 34.7147C349.863 32.2247 349.219 32.0387 349.219 32.0387H344.34C346.586 33.7989 344.984 41.7984 344.812 43.1722C343.137 56.6814 344.912 57.5972 344.912 57.5972H349.634C347.974 56.5812 348.475 49.197 349.105 43.8019V44.3028C349.52 40.811 350.922 36.8184 353.613 34.4571C356.589 31.9385 359.122 33.6271 359.122 33.6271C358.879 33.0261 358.221 32.3535 356.504 31.9385" fill="#0087BF"/>
<path d="M373.39 38.5491C373.39 38.5491 374.177 33.1827 372.26 31.9663C372.26 31.9663 378.427 32.0092 377.798 38.1914C377.798 38.1914 374.95 56.008 377.569 57.5965H372.861C372.861 57.5965 370.685 56.4945 373.404 38.5491" fill="#0087BF"/>
<path d="M201.821 48.6947C201.979 44.8452 202.422 41.4679 202.422 41.4679C203.653 33.9406 198.43 31.2788 192.977 31.2788C188.641 31.2788 185.178 33.454 183.046 37.1604C183.289 32.5811 182.23 32.1661 182.23 32.1661L177.436 32.0945C179.711 33.869 178.109 41.9401 177.923 43.3426C176.22 56.8946 178.023 57.8391 178.023 57.8391H182.731C180.928 56.7229 181.715 47.9792 182.388 42.5984V42.9419C182.874 38.5915 187.224 34.4701 191.561 34.4701C195.897 34.4701 199.231 35.8152 198.501 40.9384L197.6 50.9415C197.371 57.0521 198.673 57.8391 198.673 57.8391H202.937C201.764 56.6514 201.678 51.5711 201.807 48.709" fill="#034694"/>
<path d="M224.003 54.2339C221.584 51.3288 218.107 44.2022 216.032 42.628C216.032 42.628 218.379 40.0664 220.21 37.9199C224.418 32.9541 229.498 31.5374 229.498 31.5374C229.498 31.5374 222.171 30.9936 215.86 37.8912L211.495 42.4706V42.3275C212.797 32.8826 211.309 23.0655 211.309 23.0655L206.501 23.0083C208.347 24.5252 207.188 41.9268 207.002 43.3292C205.313 56.8956 207.116 57.8544 207.116 57.8544H211.824C210.021 56.7382 210.808 47.9802 211.481 42.5565C213.814 43.9732 216.919 50.9138 218.837 53.4325C220.768 55.9511 223.459 57.8544 223.459 57.8544H228.539C227.967 57.4967 226.278 57.0101 224.003 54.2482" fill="#034694"/>
<path d="M163.355 31.3513C159.891 31.4944 157.544 32.582 156.028 33.4978C154.382 34.471 153.309 36.0737 153.309 36.0737C156.614 34.1991 159.562 33.4978 162.825 33.4978C165.258 33.4978 168.979 34.3422 168.979 37.4762C168.979 43.1431 155.169 42.0698 151.963 46.9068C149.688 50.3699 151.262 55.1926 155.598 56.7095C155.598 56.7095 153.724 56.3804 151.377 55.1926C148.901 53.9476 144.236 53.9046 142.075 54.1336C141.889 50.7277 142.361 45.7333 142.819 42.2559C144.121 32.8396 142.619 22.9224 142.619 22.9224H137.825C139.642 24.4536 138.483 41.8695 138.325 43.2719C136.622 56.8383 138.397 57.9116 138.397 57.9116C138.397 57.9116 144.908 56.7811 148.887 57.5252C154.611 58.5269 158.618 58.2264 162.21 56.3374C165.057 54.8491 166.217 52.7598 166.217 52.7598C166.002 52.8886 165.701 53.0603 165.444 53.2607C159.834 57.468 154.053 56.3374 154.053 51.3001C154.067 45.1752 165.458 45.0321 168.764 41.6835C168.764 41.6835 168.177 46.2771 168.034 50.8708C167.877 56.9671 168.764 57.7971 168.764 57.7971H173.358C170.767 54.4627 173.358 41.5976 173.544 37.7767C173.744 34.1991 171.841 30.9935 163.326 31.3656" fill="#034694"/>
<path d="M234.492 58.0545C230.07 57.3819 226.65 52.2445 230.929 47.0068C235.193 41.8121 247.958 43.2288 247.958 37.5619C247.958 34.4422 244.252 33.5836 241.776 33.5836C238.513 33.5836 235.58 34.2991 232.26 36.1451C232.26 36.1451 233.376 34.5996 235.007 33.5836C236.51 32.682 238.843 31.5944 242.291 31.437C250.863 31.0649 252.724 34.2991 252.538 37.8481C252.323 41.6833 249.747 54.5485 252.352 57.9257H247.701C247.701 57.9257 246.828 57.0671 247.014 50.9708C247.143 46.3629 247.744 41.7692 247.744 41.7692C244.424 45.1465 233.033 45.2609 233.033 51.4002C233.033 56.4231 238.785 57.5394 244.409 53.375C244.696 53.1603 244.953 52.9886 245.154 52.8312C245.154 52.8312 241.275 59.1135 234.464 58.0545" fill="#034694"/>
<path d="M280.587 48.6661C280.758 44.8166 281.202 41.4536 281.202 41.4536C282.461 33.9406 277.238 31.2788 271.771 31.2788C267.449 31.2788 263.972 33.4254 261.854 37.1604C262.097 32.5524 261.053 32.1231 261.053 32.1231L256.244 32.0945C258.477 33.869 256.888 41.9401 256.717 43.314C255.042 56.8803 256.845 57.8105 256.845 57.8105H261.554C259.75 56.7229 260.537 47.9649 261.196 42.5841V42.9276C261.668 38.5915 266.033 34.4557 270.369 34.4557C274.705 34.4557 278.039 35.8152 277.309 40.9384L276.408 50.9128C276.179 57.0234 277.481 57.8105 277.481 57.8105H281.76C280.572 56.6371 280.501 51.5568 280.587 48.6804" fill="#034694"/>
</svg>
