<svg>
<style type="text/css">
	.st0{fill:#CC0000;}
</style>
<path d="M622.3,331.4c-2.9,7.5-12.9,9.8-23.7,9.8c-10.8,0-17.7-2.3-16.1-9.8h13.7c-0.4,2,0.9,3.3,4.9,3.3s6.7-1.3,7.4-3.3
	c1.9-4.9-25.2-0.1-20.9-11.3c2.4-6.3,11.9-9.2,22.7-9.2c10.7,0,16.8,2.3,15.5,9.2h-13.4c0.2-1.9-0.4-3.3-4.4-3.3
	c-4,0-6.2,1.4-6.9,3.3C599.2,325,626.6,320.2,622.3,331.4 M382.4,340.4h-13.7l11-28.7h13.7L382.4,340.4z M486.1,340.4h-13.7l11-28.7
	h13.7L486.1,340.4z M574.4,340.4H541l11-28.7h33.3l-2.1,5.5h-19.6l-2.2,5.8h16.3l-2.1,5.5h-16.3l-2.2,5.8h19.6L574.4,340.4z
	 M302,340.4h-11.1l-9.3-17l-6.5,17H264l11-28.7h12.9l8.2,15.1l5.8-15.1H313L302,340.4z M532.5,340.4h-11.1l-9.3-17l-6.5,17h-11.1
	l11-28.7h12.9l8.2,15.1l5.8-15.1h11.1L532.5,340.4z M135.5,330.8c-3.8,9.8-13,10.6-19.6,10.6c-3.2,0-6.4-0.3-9.5-1l2.3-6.1
	c6.3,0.7,11.7,0.2,13.8-5.3l6.7-17.3h13.7L135.5,330.8 M213.2,311.7h-21.3l-11,28.7h13.7l4-10.4h7.6c12.7,0,19.5-3.4,21.7-9.1
	C230.1,315.1,225.9,311.7,213.2,311.7 M214.2,320.8c-1.1,2.2-3.4,3.7-5.9,3.6h-7.6l2.8-7.3h7.6C213.6,317.2,215,318.7,214.2,320.8
	 M423.2,311.7h-21.3l-11,28.7h13.7l4-10.4h4.1l2.7,10.4h15l-3.7-11.5c6.1-1.4,9.7-4.2,11.2-8.1C440.1,315.1,435.9,311.7,423.2,311.7
	 M424.2,320.8c-1.1,2.2-3.4,3.7-5.9,3.6h-7.6l2.8-7.3h7.6C423.6,317.2,425,318.7,424.2,320.8 M453.2,334.3l8.7-22.6h-13.7l-11,28.7
	h31.1l2.3-6.1H453.2L453.2,334.3z M174.6,311.7h-12.3c-1.6,0.1-3.2,0.9-4.2,2.1l-23,26.6h11.3l4.6-5.6h12.4l0.2,5.6h13.7
	L174.6,311.7 M155.5,329.2l7.4-9.2l0.3,9.2H155.5z M257.8,311.7h-12.2c-1.6,0.1-3.2,0.9-4.2,2.1l-23,26.6h11.3l4.6-5.6h12.4l0.2,5.6
	h13.7L257.8,311.7 M238.7,329.2l7.4-9.2l0.3,9.2H238.7L238.7,329.2z M362.4,311.7h-12.3c-1.6,0.1-3.2,0.9-4.2,2.1l-23,26.6h11.3
	l4.6-5.6h12.4l0.2,5.6h13.7L362.4,311.7 M343.3,329.2l7.4-9.2l0.3,9.2H343.3z"/>
<path class="st0" d="M80.5,328.4c0.2-2,0.1-4-0.1-6c0,0,0,0,0,0c-0.9,3.7-3,6.9-6,9.2c0,0,0,0,0,0c0,0,0,0,0,0
	c3.2-3.3,5.1-7.6,5.5-12.2c-0.6-2.4-1.5-4.7-2.8-6.9c0,0-0.1,0,0,0c0.7,5.5-1,11-4.7,15.1c0,0,0,0,0,0s0,0,0,0
	c3.6-5.2,4.8-11.7,3.1-17.8c-9-12.1-26.1-14.7-38.2-5.7c-2.2,1.6-4.1,3.5-5.7,5.7c-1.7,6.1-0.5,12.6,3.1,17.8c0,0,0,0,0,0
	c0,0,0,0,0,0c0,0,0,0,0,0c-3.7-4.1-5.5-9.6-4.7-15.1c0,0,0,0,0,0c-1.2,2.1-2.2,4.5-2.8,6.9c0.4,4.6,2.3,8.9,5.5,12.2c0,0,0,0,0,0
	c0,0,0,0,0,0c-3-2.3-5.1-5.5-6-9.2c0,0,0,0,0,0c-0.3,2-0.3,4-0.1,6c1,2.8,2.7,5.3,5,7.2c0,0,0,0,0,0c0,0,0,0,0,0
	c-1.7-1-3.3-2.4-4.5-4.1c0,0,0,0,0,0c3.1,14.8,17.6,24.2,32.4,21.1c10.6-2.2,18.8-10.5,21.1-21.1c0,0,0,0,0,0
	c-1.2,1.6-2.7,3-4.5,4.1c0,0,0,0,0,0c0,0,0,0,0,0C77.8,333.7,79.5,331.2,80.5,328.4z M43.2,346.2c-0.9,0-1.7-0.1-2.6-0.3l0.6-1.7
	c1.7,0.2,3.2,0.1,3.7-1.4l1.8-4.7h3.7l-2,5.2C47.5,346,45,346.2,43.2,346.2z M55.9,345.9l-0.1-1.5h-3.4l-1.2,1.5h-3.1l6.2-7.2
	c0.3-0.3,0.7-0.6,1.1-0.6h3.3l0.7,7.8H55.9z M69.1,345.9h-8.5l3-7.8h3.7l-2.4,6.1h4.7L69.1,345.9z M65.7,329.5
	c-5.6,5.4-13.9,2-13.1-4.7c0.7-5.1,7-10.3,11.7-13c0,0,0,0,0-0.1c0,0,0,0,0,0c-1-0.9-1.9-1.9-2.8-2.9c-1.9-2.4-5.3-2.8-7.7-0.9
	c-0.4,0.3-0.8,0.7-1.1,1.1L39,310.2c0,0,0,0,0,0c0,0,0,0,0,0l14.7,0.8c2.6,0.2,3.5,2.5,0.9,4.4c-9.4,7.1-11,14.6-8.9,20.5
	c0,0,0,0,0,0c0,0,0,0,0,0c-0.9-1.3-1.5-2.7-1.8-4.3c-8.2-5.2-10.6-16.1-5.4-24.3c5.2-8.2,16.1-10.6,24.3-5.4
	c8.2,5.2,10.6,16.1,5.4,24.3C67.4,327.5,66.6,328.5,65.7,329.5z M53.7,342.9h2.1l-0.1-2.5L53.7,342.9z"/>
</svg>
