<?xml version="1.0" encoding="UTF-8" standalone="no"?>
<!-- Created with Inkscape (http://www.inkscape.org/) -->
<svg id="svg26389" xmlns:rdf="http://www.w3.org/1999/02/22-rdf-syntax-ns#" xmlns="http://www.w3.org/2000/svg" height="630" width="2670" version="1.1" xmlns:cc="http://creativecommons.org/ns#" xmlns:dc="http://purl.org/dc/elements/1.1/" viewBox="0 0 2670 630.00001">
 <metadata id="metadata26394">
  <rdf:RDF>
   <cc:Work rdf:about="">
    <dc:format>image/svg+xml</dc:format>
    <dc:type rdf:resource="http://purl.org/dc/dcmitype/StillImage"/>
    <dc:title/>
   </cc:Work>
  </rdf:RDF>
 </metadata>
 <g id="layer5" fill-rule="evenodd" transform="translate(580 -582.36)">
  <g fill="#2a0088">
   <path id="path27116" d="m1555.9 1052.4 80.21-310h88.682s22.491-2.1667 34.058 7 14.847 23.333 14.847 23.333l48.185 150.02 62.878-180.35h85.815s21.344 0 32.405 8.6667 14.386 21.667 14.386 21.667l70.344 279.67h-83.324l-62.85-238.38-65.966 181.72h-88.328s-10.643 1.0421-20.818-5.8333c-10.175-6.8755-10.495-13.167-10.495-13.167l-53.773-162.71-61.698 238.38z"/>
   <path id="path27065" d="m729.66 742.36v61.834l148.82 10v238.17h85.953v-238.17l148.82-10v-61.834z"/>
   <path id="path27022" d="m482.33 742.36-155 310h95.279l27.076-57h172.82l26.457 57h94.748l-147.05-289.67s-4.8041-10.669-13.137-15.438c-8.3327-4.7684-17.102-4.8965-17.102-4.8965h-84.094zm52.625 66.943 56.961 123.06h-114.81l57.848-123.06z"/>
   <path id="path26992" d="m0 742.36v310h261.67l35.667-71.333h-207.67v-238.67z"/>
   <path id="path27070" d="m1255.3 742.36-155 310h95.279l27.076-57h172.82l26.457 57h94.748l-147.05-289.67s-4.804-10.669-13.137-15.438c-8.3327-4.7684-17.102-4.8965-17.102-4.8965h-84.094zm52.625 66.943 56.961 123.06h-114.81l57.848-123.06z"/>
  </g>
  <g fill="#ed1651">
   <path id="path27278" d="m-532.68 841.98 68.786-19.648s-0.73658-4.5943-3.2031-6.8493-6.9031-3.6493-6.9031-3.6493l-95.605-34.728s-3.0352-1.0205-5.2527 0.2078-2.1388 4.4193-2.1388 4.4193v44.459s-0.2385 4.2567 5.927 13.798c6.1656 9.5409 20.77 7.111 20.77 7.111z"/>
   <path id="path27260" d="m-258.85 734.71 63.986-35.848s0.96342-6.1943-1.5031-8.4493-5.4031-2.9493-5.4031-2.9493l-276.34-98.614s-3.0352-1.0205-5.2527 0.2078-2.1388 4.4193-2.1388 4.4193v38.333s-0.0385 8.882 6.127 18.423c6.1656 9.5409 16.17 12.011 16.17 12.011z"/>
   <path id="path27258" d="m-258.85 846.29 63.986-33.148s1.3634-8.3943-1.1031-10.649c-2.4665-2.255-5.8031-3.4493-5.8031-3.4493l-367.84-133.61s-3.0352-1.0205-5.2527 0.2078-2.1388 4.4193-2.1388 4.4193v38.333s-0.0385 8.882 6.127 18.423c6.1656 9.5409 16.17 12.011 16.17 12.011z"/>
  </g>
  <g fill="#2a0088">
   <path id="path27194" d="m-201.77 687.46s3.7354 0.56621 6.9031 3.6493 3.2031 6.8493 3.2031 6.8493v50.754s-0.15239 6.9342-2.9966 13.17c-2.8442 6.2359-7.0096 7.7111-7.0096 7.7111l-8.6667 3.1481-276.16 100.31s-1.328 0.40995-3.0557 0.40995-3.0557-0.40995-3.0557-0.40995l-76.943-27.949s-1.9088-0.44406-4.6171-4.6869c-3.05-4.76-2.83-14.21-2.83-14.21s0.47846 4.8448 3.217 7.1455 10.037-0.22335 10.037-0.22335l353.41-128.37s14.033-5.7246 14.033-11.541c0-4.0162-5.4667-5.7407-5.4667-5.7407z"/>
   <path id="path27140" d="m-201.77 799.04s3.7354 0.56621 6.9031 3.6493 3.2031 6.8493 3.2031 6.8493v50.754s-0.15239 6.9342-2.9966 13.17c-2.8442 6.2359-7.0096 7.7111-7.0096 7.7111l-8.6667 3.1481-276.16 100.31v-68l276.16-100.31s14.033-5.7246 14.033-11.541c0-4.0162-5.4667-5.7407-5.4667-5.7407z"/>
   <path id="path27142" d="m-338.86 977.68c2.6431 2.6431 2.6431 8.4596 2.6431 8.4596v37.953s-0.15239 6.9342-2.9966 13.17c-2.8442 6.2359-7.0096 7.711-7.0096 7.711l-8.6667 3.1482-131.61 47.807v-68l131.61-47.807s13.387-5.0845 16.03-2.4414z"/>
   <path id="path27168" d="m-423.76 1119.6c2.6431 2.6431 2.6431 8.4595 2.6431 8.4595v37.953s-0.15239 6.9342-2.9966 13.17c-2.8442 6.2359-7.0096 7.711-7.0096 7.711l-8.6667 3.1482-46.71 17.807v-68l46.71-17.807s13.387-5.0845 16.03-2.4414z"/>
  </g>
 </g>
</svg>
