<svg width="274" height="94" viewBox="0 0 274 94" fill="none" xmlns="http://www.w3.org/2000/svg">
<g clip-path="url(#clip0_4336_4265)">
<path fill-rule="evenodd" clip-rule="evenodd" d="M69.6443 68.7661C69.6443 68.7661 76.6805 71.5279 75.9206 78.2134C75.9206 78.2134 72.3843 82.115 65.7573 78.3668C65.7573 78.3668 70.7184 75.9264 69.637 68.7661H69.6443Z" fill="#E6A823"/>
<path fill-rule="evenodd" clip-rule="evenodd" d="M2.746 0.311462C2.746 0.311462 14.546 48.7901 52.8613 66.0262C54.5199 66.7568 55.7328 66.2819 57.8882 67.1733C54.0888 72.5655 56.2296 80.0108 63.4996 79.1486C64.4056 79.039 65.3116 78.6956 66.1299 78.155C66.9921 79.2363 67.6862 79.9231 68.5045 80.5076C67.014 81.5233 64.7052 82.495 62.6593 82.685C58.5604 83.0941 54.761 82.0785 51.6996 77.8773C48.5066 73.5007 46.2635 70.7973 40.3526 72.3098C36.0344 73.435 27.6246 79.1706 25.4692 84.0002C23.4161 88.574 30.518 91.5697 38.5625 89.7796C34.2443 92.6949 26.0464 94.5288 17.0083 91.8473C17.0083 91.8473 12.2006 86.6889 8.65696 77.2416C11.4188 79.3751 16.2265 80.3688 19.1637 80.2008C19.3391 81.3041 18.7545 82.8969 18.3015 83.328C19.4048 82.9407 21.3849 81.1725 22.7877 79.4847C25.3304 76.511 28.6549 72.6678 32.0451 70.7242C27.5516 69.6283 -10.3765 48.1837 2.746 0.311462ZM74.0648 68.7003C93.2224 68.7442 112.358 60.5463 125.539 48.3956C122.565 65.7631 107.697 78.1038 77.7765 75.6854C77.3673 72.9893 75.811 70.5927 74.0648 68.693V68.7003Z" fill="#212558"/>
<path d="M62.7397 71.8349C62.7397 71.2252 63.0937 70.6926 63.6089 70.446L62.9589 66.4353L65.1424 70.5873C65.531 70.8656 65.7865 71.3208 65.7865 71.8349C65.7865 72.6822 65.0997 73.3472 64.2521 73.3472C64.1124 73.3472 63.9777 73.329 63.85 73.2948C63.1835 73.2245 62.5684 72.816 62.1406 72.1125C61.5123 71.075 58.9038 70.1032 55.9081 69.8256C57.9978 69.6062 60.935 70.0229 62.5497 71.0094C62.4986 71.5759 62.5817 72.0526 62.877 72.4721C62.7887 72.2787 62.7397 72.0629 62.7397 71.8349Z" fill="#212558"/>
<path fill-rule="evenodd" clip-rule="evenodd" d="M74.6274 72.7993C74.5836 73.6176 74.3717 75.0862 73.9406 76.1456C73.8749 76.2991 74.5909 76.7082 75.1023 77.2928C75.1023 77.2928 72.7277 76.1456 71.6537 75.7584C71.6537 75.7584 73.0346 76.8836 73.3999 77.2489C73.378 77.3366 73.3342 77.4681 73.2465 77.6142C72.9469 78.2645 72.1213 79.4263 70.9157 79.9889C74.1963 80.1204 75.9207 78.2207 75.9207 78.2207C76.1764 76.0214 75.5773 74.2533 74.6713 72.8723L74.6274 72.8066V72.7993Z" fill="#EE5228"/>
<path d="M142.761 72.7994L142.154 70.0157H135.337L133.803 72.7994H129.616L138.939 57.1124H143.148L147.137 72.7994H142.761ZM137.083 66.8885H141.482L140.254 61.1894L137.083 66.8885Z" fill="#E6A823"/>
<path d="M159.047 57.1195L155.92 72.7993H151.821L154.948 57.1195H159.047Z" fill="#E6A823"/>
<path d="M178.599 61.54C178.599 62.9647 178.278 64.2141 177.583 65.2955C176.911 66.3549 175.969 67.1733 174.712 67.7139L176.889 72.8066H172.228L170.825 68.4665H167.807L166.945 72.8066H162.846L165.973 57.1195H173.031C174.822 57.1195 176.202 57.5068 177.152 58.2666C178.124 59.0411 178.599 60.1444 178.599 61.5473V61.54ZM168.458 65.1859H171.417C172.41 65.1859 173.207 64.9302 173.769 64.4114C174.332 63.8926 174.61 63.162 174.61 62.2341C174.61 61.6276 174.434 61.1746 174.047 60.8531C173.66 60.5317 173.119 60.3782 172.41 60.3782H169.437L168.465 65.1859H168.458Z" fill="#E6A823"/>
<path d="M204.764 57.1195H208.972L201.205 72.7993H196.975L195.923 62.0806L191.239 72.7993H187.031L184.488 57.1195H188.865L189.968 68.5323L194.819 57.1414L198.831 57.1195L199.934 68.5323L204.764 57.1195Z" fill="#E6A823"/>
<path d="M221.985 72.7994L221.379 70.0157H214.584L213.027 72.7994H208.841L218.186 57.1124H222.394L226.362 72.7994H221.985ZM216.33 66.8885H220.706L219.479 61.1894L216.33 66.8885Z" fill="#E6A823"/>
<path d="M245.585 57.1195L238.162 67.7505L237.321 72.7993H233.244L234.041 67.7724L230.051 57.1195H234.15L236.737 63.8926L241.486 57.1195H245.585Z" fill="#E6A823"/>
<path d="M255.814 56.8125C256.917 56.8125 258.013 56.966 259.095 57.2874C260.176 57.6089 261.104 58.04 261.9 58.5807L260.001 61.8394C259.226 61.3645 258.386 60.9553 257.48 60.6338C256.552 60.3123 255.778 60.1589 255.127 60.1589C254.609 60.1589 254.199 60.2466 253.878 60.4365C253.578 60.6338 253.403 60.9115 253.359 61.2987C253.359 61.7736 253.578 62.139 254.009 62.3801C254.44 62.6358 255.149 62.9207 256.121 63.2203C257.093 63.5199 257.889 63.8048 258.539 64.1044C259.168 64.382 259.701 64.8131 260.154 65.3977C260.607 65.9822 260.841 66.7128 260.841 67.6408C260.841 68.7879 260.541 69.7742 259.935 70.5999C259.329 71.3963 258.51 72.0247 257.473 72.4338C256.435 72.843 255.295 73.0403 254.046 73.0403C252.731 73.0403 251.459 72.8211 250.203 72.3681C248.975 71.9151 247.916 71.3086 247.054 70.5122L248.953 67.2973C249.662 67.9842 250.553 68.5687 251.584 69.0217C252.621 69.4747 253.549 69.7085 254.389 69.7085C255.062 69.7085 255.551 69.577 255.946 69.3432C256.311 69.0874 256.508 68.7148 256.508 68.2399C256.508 67.9184 256.377 67.6334 256.143 67.4216C255.909 67.2024 255.602 67.0343 255.259 66.9028C254.893 66.7713 254.375 66.6032 253.703 66.384C252.731 66.1283 251.934 65.8433 251.306 65.5657C250.678 65.2881 250.144 64.857 249.691 64.3163C249.26 63.7537 249.019 63.023 249.019 62.139C249.019 61.0576 249.297 60.1297 249.881 59.3333C250.444 58.5368 251.24 57.9085 252.256 57.4774C253.271 57.0244 254.455 56.8052 255.814 56.8052V56.8125Z" fill="#E6A823"/>
<path d="M50.3771 44.1066L49.6245 35.4118H39.4831L35.6033 44.1066H30.2988L46.4316 9.37146H59.4226L63.2 44.1066H50.3771ZM41.2951 31.4225H49.2373L47.9879 16.5391L41.3024 31.4225H41.2951Z" fill="#212558"/>
<path d="M73.2026 9.37146H85.0684L78.6167 39.5108H89.7299L88.802 44.1066H65.8084L73.2026 9.37146Z" fill="#212558"/>
<path d="M99.5718 9.37146H122.609L121.725 13.5362H110.575L108.289 24.0868H117.626L116.764 28.1857H107.397L104.876 39.898H116.055L115.23 44.1066H92.1923L99.5718 9.37146Z" fill="#212558"/>
<path d="M134.329 31.7001C134.132 32.4965 134.007 33.1907 133.898 33.7679C133.766 34.3524 133.722 34.915 133.722 35.4045C133.722 36.6759 134.175 37.7134 135.059 38.466C135.965 39.2404 137.281 39.6131 139.027 39.6131C140.298 39.6131 141.358 39.3939 142.176 38.9628C142.994 38.5317 143.667 37.9472 144.207 37.2165C144.726 36.4859 145.157 35.6383 145.457 34.6958C145.756 33.746 146.041 32.7523 146.253 31.7001L150.893 9.37146H155.876L151.126 31.8097C150.761 33.556 150.22 35.2 149.534 36.727C148.847 38.2614 147.853 39.6204 146.56 40.7821C145.267 41.9439 143.586 42.8718 141.555 43.544C139.502 44.2162 136.959 44.5596 133.942 44.5596C129.755 44.5596 126.65 43.8728 124.64 42.5065C122.631 41.1255 121.623 39.0359 121.623 36.1863C121.623 34.915 121.798 33.271 122.12 31.3129C122.441 29.3474 122.872 27.2139 123.391 24.9051L126.715 9.37146H139.144L134.336 31.7001H134.329Z" fill="#212558"/>
<path d="M187.506 13.5362H178.701L172.191 44.1066H160.369L166.879 13.5362H158.185L159.156 9.37146H188.434L187.506 13.5362Z" fill="#212558"/>
<path d="M196.376 44.1066H184.554L191.948 9.37146H203.814L196.376 44.1066Z" fill="#212558"/>
<path d="M220.626 44.1066L219.851 35.4118H209.732L205.852 44.1066H200.548L216.688 9.37146H229.657L233.434 44.1066H220.626ZM211.537 31.4225H219.457L218.207 16.5391L211.544 31.4225H211.537Z" fill="#212558"/>
<path d="M266.489 44.1066H253.695L247.616 18.9941L242.261 44.1066H237.321L244.723 9.37146H257.794L263.537 34.8054L268.951 9.37146H274L266.489 44.1066Z" fill="#212558"/>
</g>
<defs>
<clipPath id="clip0_4336_4265">
<rect width="274" height="92.84" fill="white" transform="translate(0 0.311462)"/>
</clipPath>
</defs>
</svg>
