<svg width="454" height="64" viewBox="0 0 454 64" fill="none" xmlns="http://www.w3.org/2000/svg">
<path d="M52.1489 42.1987C51.8829 41.2234 49.0457 41.6519 46.7109 41.4303C44.583 41.2382 41.8641 40.854 38.5836 39.7161C35.5247 38.6522 32.5545 37.4405 29.9686 36.0367C29.9686 36.0367 28.9194 35.4899 28.8159 35.4308C28.5943 35.2978 28.4318 35.2091 28.2249 35.0761C28.1067 35.0023 27.8998 34.884 27.7668 34.8249C27.5895 34.751 27.4713 34.6476 27.3087 34.5589C27.1462 34.4555 26.9393 34.3521 26.7767 34.2634C26.5403 34.1156 26.3925 33.9974 26.1709 33.8349C26.0379 33.7314 25.964 33.7019 25.7719 33.5984C25.6684 33.5246 25.4616 33.4211 25.3581 33.362C25.1512 33.229 25.0183 33.1108 24.8114 32.963C24.6784 32.8744 24.5897 32.8153 24.442 32.7266C24.2942 32.6379 24.1464 32.5197 24.0134 32.4163C23.9395 32.3572 23.8361 32.2981 23.7622 32.239C23.6144 32.0912 23.4667 31.9582 23.3041 31.8252C23.1563 31.7218 23.0234 31.5888 22.8756 31.4705C22.7869 31.3967 22.6244 31.2784 22.5357 31.2046C22.2993 31.042 22.1515 30.909 21.9299 30.7465C21.7821 30.643 21.6491 30.4953 21.5013 30.377C21.3388 30.2588 21.1762 30.1111 21.0137 29.9928C20.8955 29.919 20.7772 29.8155 20.6886 29.7269C20.5704 29.5939 20.4669 29.5052 20.3487 29.3722C20.26 29.2835 20.0975 29.1801 20.0088 29.0767C19.8611 28.8993 19.669 28.7072 19.4769 28.5595C19.3587 28.456 19.3291 28.4117 19.2848 28.3526C19.2552 28.3083 19.2109 28.2492 19.1222 28.1605C19.0336 28.0718 19.004 28.0423 18.9597 27.9979C18.9153 27.9684 18.871 27.9093 18.7528 27.7911C18.7085 27.7467 18.6494 27.6581 18.5755 27.5694C18.5164 27.4955 18.4572 27.4069 18.4277 27.3773C18.3095 27.2591 18.2356 27.1704 18.1617 27.0965C18.1026 27.0374 18.0435 26.9783 17.9696 26.8897C17.9253 26.8453 17.8809 26.7862 17.8514 26.7271C17.8218 26.668 17.7775 26.6237 17.7332 26.5793C17.6593 26.5055 17.615 26.535 17.6002 26.535C17.5559 26.5646 17.5411 26.6385 17.6002 26.7419C17.6593 26.8601 17.748 26.9783 17.7923 27.0522C17.7923 27.067 17.8071 27.0818 17.8219 27.0965C17.8366 27.1261 17.8662 27.1704 17.8809 27.2C17.9105 27.2591 17.9401 27.3034 17.9844 27.3625C18.0731 27.4807 18.1617 27.5694 18.2504 27.6728C18.2799 27.7024 18.3095 27.732 18.339 27.7615C18.3981 27.8206 18.4425 27.8945 18.5016 27.9684C18.5459 28.0423 18.605 28.1162 18.6641 28.19C18.6937 28.2196 18.7232 28.2639 18.7528 28.2935C18.7823 28.3378 18.8119 28.3674 18.8414 28.4117C18.9006 28.456 18.9449 28.5151 19.004 28.5742C19.0927 28.6629 19.1813 28.7516 19.27 28.8255C19.3291 28.8846 19.403 28.9437 19.4769 29.0176C19.6542 29.2244 19.8463 29.4313 19.9941 29.6234C20.0827 29.7416 20.2453 29.8155 20.3487 29.8894C20.4669 29.9781 20.5408 30.1258 20.6295 30.2293C20.7034 30.3032 20.8511 30.4362 20.9102 30.5248C21.0876 30.7465 21.2058 30.8647 21.4274 31.042C21.5604 31.1455 21.6786 31.2341 21.7821 31.3671C21.8412 31.441 22.0481 31.6331 22.122 31.7365C22.3141 31.973 22.4027 32.1946 22.3732 32.2094C22.2402 32.239 21.9298 31.973 21.7525 31.84C21.6048 31.7365 21.5752 31.6922 21.4274 31.5888C21.3979 31.5592 21.1614 31.3967 21.0876 31.2932C21.0285 31.2341 20.8511 31.0568 20.8068 30.9829C20.5408 30.6578 20.4521 30.6283 20.1566 30.3327C19.9349 30.1258 19.669 29.9337 19.4621 29.7416C19.403 29.6677 19.3291 29.6086 19.27 29.5348C19.1961 29.4609 19.1074 29.4018 19.0483 29.3279C18.9449 29.2097 18.8119 28.9585 18.6937 28.8698C18.5755 28.7811 18.472 28.6925 18.3538 28.589C18.3095 28.5595 18.2651 28.5004 18.2208 28.4708C18.1617 28.4265 18.0878 28.3821 18.0435 28.323C17.8957 28.1309 17.748 27.9536 17.615 27.7615C17.5411 27.6728 17.4524 27.599 17.3785 27.5103C17.2308 27.3182 17.1125 27.1113 16.9795 26.9192C16.7727 26.6532 16.4919 26.4759 16.2998 26.2099C16.1077 25.9439 15.9747 25.6188 15.7974 25.3381C15.7087 25.2199 15.5905 25.1312 15.5018 25.013C15.4427 24.9391 15.428 24.8652 15.3689 24.7913C15.2654 24.6436 15.1472 24.4958 15.0438 24.348C14.9108 24.1559 14.8221 23.9343 14.6891 23.7422C14.6743 23.7126 14.6152 23.5796 14.5413 23.4762C14.4675 23.3727 14.3936 23.2545 14.3049 23.1067C14.2162 22.959 14.1719 22.8703 14.098 22.7669C14.0389 22.6634 13.9946 22.5748 13.9503 22.5009C13.9059 22.427 13.8173 22.294 13.7729 22.2497C13.6547 22.0576 13.6252 21.9689 13.4922 21.8064C13.4183 21.7029 13.3296 21.6143 13.2557 21.6438C13.1966 21.6882 13.2262 21.7473 13.2262 21.7916C13.2853 21.9394 13.2853 21.9246 13.3444 22.028C13.4478 22.2053 13.4774 22.294 13.5956 22.4713C13.6399 22.56 13.7286 22.7373 13.8025 22.8408C13.8764 22.9442 13.9355 23.0624 13.9946 23.1511C14.0389 23.2397 14.1276 23.4762 14.2015 23.5796C14.2606 23.6535 14.3345 23.8013 14.3788 23.8899C14.4822 24.0968 14.6152 24.2594 14.7187 24.4219C14.7926 24.5549 14.8664 24.6879 14.9403 24.8357C15.0881 25.0573 15.2506 25.2642 15.3984 25.4711C15.4871 25.6336 15.5757 25.7814 15.6644 25.9439C15.7531 26.0769 15.8713 26.1804 15.9452 26.3134C16.0486 26.4759 16.1077 26.6385 16.2111 26.7862C16.285 26.9044 16.4032 27.0227 16.4771 27.1409C16.6101 27.3478 16.7431 27.5399 16.8909 27.7467C16.9648 27.8502 17.083 27.9388 17.1569 28.0571C17.2603 28.2048 17.349 28.3821 17.4672 28.5004C17.6002 28.6334 17.6445 28.7072 17.748 28.8255C17.9105 29.0176 18.2947 29.5791 18.2356 29.5791C17.9992 29.6086 17.5558 29.1062 17.3637 28.9289C17.216 28.7811 17.0534 28.6777 16.95 28.5447C16.8022 28.3378 16.6988 28.1162 16.5362 27.9241C16.4771 27.8502 16.4033 27.7911 16.3441 27.732C16.2407 27.599 16.152 27.466 16.0338 27.3478C15.9895 27.3034 15.9304 27.2591 15.886 27.2C15.7087 26.9636 15.5462 26.7123 15.3689 26.4759C15.295 26.3725 15.1915 26.2838 15.1324 26.1951C15.0733 26.1213 15.0438 26.0326 14.9994 25.9439C14.9255 25.8405 14.8369 25.7223 14.763 25.6188C14.7039 25.5302 14.6743 25.4563 14.6152 25.3676C14.5266 25.2199 14.3936 25.1016 14.2901 24.9539C14.2163 24.8357 14.1867 24.6731 14.1128 24.5549C13.9207 24.2446 13.699 23.9343 13.5069 23.6387C13.4626 23.5648 13.4331 23.4762 13.3887 23.3875C13.2262 23.1363 13.0784 22.8703 12.9306 22.6191C12.8715 22.5304 12.842 22.427 12.7829 22.3383C12.709 22.2201 12.6056 22.1462 12.5317 22.028C12.4726 21.9394 12.4578 21.8507 12.4135 21.7473C12.3543 21.6143 12.2805 21.496 12.2066 21.3778C12.1622 21.3039 12.1475 21.2301 12.1031 21.1562C11.911 20.8606 11.7633 20.5503 11.6007 20.2252C11.5268 20.0627 11.3938 19.9001 11.3199 19.7228C11.2313 19.5307 11.1426 19.3386 11.054 19.1465C11.0096 19.0135 10.9653 18.8953 10.921 18.7771C10.8323 18.585 10.6845 18.4076 10.5959 18.2008C10.5368 18.0678 10.5072 17.9348 10.4481 17.8166C10.4185 17.7427 10.3447 17.6836 10.3003 17.7131C10.256 17.7427 10.2412 17.8018 10.2708 17.92C10.3299 18.1269 10.4481 18.3633 10.5072 18.4815C10.6106 18.718 10.6698 18.9692 10.7732 19.2056C10.8323 19.3386 10.921 19.4716 10.9801 19.5898C11.0835 19.8115 11.1869 20.0479 11.2904 20.2548C11.3495 20.3878 11.3938 20.506 11.4677 20.6242C11.4973 20.6833 11.5564 20.7572 11.5859 20.8311C11.6598 20.9789 11.6746 21.1414 11.7485 21.2892C11.8224 21.4369 11.9406 21.5699 12.0145 21.7177C12.3691 22.4861 12.7386 23.2102 13.1819 23.9047C13.3001 24.0968 13.3592 24.3332 13.4922 24.5106C13.6104 24.7027 13.7877 24.8652 13.9207 25.0573C14.0242 25.2199 14.0537 25.4415 14.1424 25.6041C14.2754 25.8553 14.4675 26.0769 14.63 26.3134C14.6743 26.3872 14.6891 26.4611 14.7334 26.5202C14.7925 26.6089 14.8664 26.6976 14.9255 26.801C14.9994 26.9192 15.0438 27.067 15.1324 27.1852C15.2211 27.3182 15.3541 27.4216 15.4427 27.5399C15.561 27.7024 15.6348 27.8797 15.7531 28.0423C15.8417 28.1457 15.9599 28.2344 16.0486 28.3378C16.1816 28.5151 16.6397 29.121 16.7727 29.2835C16.9795 29.5348 17.3342 29.919 17.5115 30.2588C17.5706 30.3623 17.748 30.6135 17.7036 30.6578C17.6002 30.7169 17.1569 30.2293 17.083 30.1554C16.8909 29.9781 16.7283 29.7269 16.5658 29.52C16.5215 29.4756 16.0929 29.0471 16.0486 29.0028C16.0043 28.9437 15.9599 28.8846 15.9156 28.8255C15.7974 28.6481 15.7235 28.4265 15.5905 28.2492C15.5314 28.1753 15.4575 28.1309 15.3984 28.0571C15.295 27.9241 15.2211 27.7763 15.1324 27.6433C14.9699 27.4364 14.7778 27.2443 14.63 27.0374C14.4675 26.801 14.3345 26.535 14.1719 26.2986C14.0833 26.1804 13.9798 26.0769 13.8912 25.9587C13.8616 25.8996 13.8468 25.8553 13.8025 25.7962C13.7434 25.7075 13.6547 25.5893 13.6104 25.4858C13.5661 25.3824 13.5365 25.2937 13.4774 25.2051C13.3001 24.9243 13.1227 24.6288 12.9454 24.348C12.8715 24.2298 12.8124 24.082 12.7385 23.9638C12.6056 23.7569 12.443 23.5648 12.2952 23.358C12.1327 23.1067 12.044 22.8112 11.8962 22.56C11.7928 22.3974 11.6746 22.2497 11.5711 22.0871C11.4529 21.9098 11.3938 21.7029 11.2904 21.5108C11.2017 21.3483 11.0835 21.2005 10.9948 21.038C10.9062 20.8606 10.8471 20.6833 10.7584 20.506C10.7141 20.4025 10.6402 20.3139 10.5959 20.2104C10.5368 20.0775 10.522 19.9592 10.4777 19.841C10.3151 19.5011 10.0934 19.1761 9.9309 18.8362C9.81268 18.585 9.70925 18.3338 9.62059 18.0826C9.56148 17.9348 9.54671 17.8018 9.4876 17.6688C9.33983 17.3585 9.16249 17.0186 9.0295 16.7083C8.97039 16.5457 8.91129 16.3684 8.85218 16.2059C8.85218 16.1615 8.8374 16.1172 8.82262 16.0581C8.76351 15.9103 8.67485 15.7626 8.61574 15.6148C8.55663 15.4375 8.5123 15.2749 8.45319 15.1124C8.23154 14.5656 8.03944 13.9302 7.83256 13.3687C7.80301 13.2652 7.803 13.1322 7.75867 13.0288C7.65523 12.7333 7.53701 12.4377 7.43357 12.1422C7.37447 11.9944 7.2267 12.0387 7.25626 12.2013C7.30059 12.4082 7.33015 12.4525 7.35971 12.615C7.37448 12.7037 7.38926 12.7776 7.40404 12.8663C7.41881 12.9697 7.47791 13.0731 7.50746 13.1618C7.56657 13.3391 7.56658 13.5164 7.62568 13.679C7.71435 13.9154 7.78823 14.1519 7.87689 14.3883C7.90644 14.5065 7.92123 14.6247 7.95078 14.7577C7.98033 14.8759 8.02467 14.9942 8.069 15.0976C8.18721 15.3931 8.30542 15.6887 8.40886 15.9842C8.4532 16.1468 8.49752 16.3241 8.54185 16.4866C8.58618 16.5753 8.6453 16.6787 8.68963 16.7674C8.73396 16.8561 8.73397 16.9299 8.76352 17.0186C8.83741 17.2107 8.9113 17.4028 8.99996 17.5949C9.07384 17.7575 9.1625 17.92 9.22161 18.0826C9.25116 18.1712 9.25115 18.2303 9.2807 18.319C9.45803 18.8214 9.66491 19.3534 9.88657 19.8262C9.94568 19.9445 9.96046 20.0775 10.0048 20.1957C10.0491 20.2991 10.1082 20.4025 10.1526 20.506C10.1673 20.5651 10.1969 20.639 10.2265 20.6981C10.3003 20.8459 10.4038 20.9493 10.4777 21.0971C10.6698 21.496 10.8323 21.8655 11.0687 22.1906C11.2904 22.5009 11.3791 22.9146 11.5416 23.2841C11.6155 23.4614 11.7189 23.6092 11.8224 23.7569C11.8667 23.8308 11.8962 23.9195 11.9406 24.0081C12.044 24.2002 12.1031 24.3628 12.2361 24.5401C12.3396 24.6731 12.3248 24.7174 12.4135 24.9095C12.443 24.9687 12.5317 25.3381 12.5169 25.3381C12.4873 25.3676 12.2952 25.2494 12.2361 25.1903C12.1474 25.1016 12.0292 24.9687 11.9406 24.7766C11.8962 24.6731 11.8076 24.5106 11.7633 24.4071C11.645 24.1559 11.4529 23.949 11.3199 23.7274C11.2313 23.5944 11.1869 23.4466 11.1278 23.3136C11.0096 23.0624 10.8766 22.7964 10.7436 22.5304C10.6845 22.427 10.6106 22.3088 10.5515 22.2201C10.4924 22.1167 10.4481 22.0132 10.389 21.9098C10.2412 21.6882 10.0787 21.4369 9.97523 21.1857C9.88656 21.0084 9.84223 20.8163 9.76835 20.6538C9.73879 20.5946 9.69448 20.5355 9.66492 20.4912C9.60581 20.4025 9.57626 20.2991 9.53193 20.1957C9.47283 20.0627 9.36937 19.9297 9.31026 19.7819C9.17727 19.5011 9.10339 19.2204 8.9704 18.9396C8.91129 18.8066 8.80786 18.7032 8.74875 18.5702C8.66009 18.3781 8.64531 18.1269 8.55664 17.92C8.32021 17.3733 8.03944 16.8117 7.83256 16.2354C7.80301 16.1468 7.78823 16.0285 7.75867 15.9251C7.67001 15.6739 7.5518 15.4522 7.46313 15.201C7.4188 15.0828 7.40403 14.9942 7.37448 14.8759C7.31537 14.7134 7.24148 14.5361 7.1676 14.3735C7.15282 14.3144 7.15282 14.2553 7.12327 14.1962C7.04938 14.0336 7.00505 13.8563 6.93116 13.6938C6.88683 13.6051 6.82773 13.5164 6.79817 13.4278C6.73906 13.2652 6.75383 13.0584 6.69472 12.8958C6.60606 12.6594 6.51741 12.4082 6.42875 12.1865C6.38442 12.0535 6.36963 11.9205 6.3253 11.7875C6.26619 11.6398 6.2071 11.4624 6.16277 11.3147C6.10366 11.1521 6.10365 10.9896 6.05932 10.8123C6.01499 10.6793 5.97066 10.5463 5.92633 10.4428C5.85245 10.2212 5.80811 9.98474 5.73422 9.77786C5.73422 9.73353 5.70467 9.70397 5.6899 9.65964C5.67512 9.60053 5.63078 9.54143 5.57168 9.5562C5.51257 9.57098 5.51258 9.65964 5.51258 9.71875C5.51258 9.8813 5.58647 10.0291 5.6308 10.1621C5.6899 10.3098 5.70466 10.4576 5.74899 10.5906C5.76377 10.6793 5.76379 10.7679 5.79334 10.8714C5.8229 11.0044 5.86721 11.1226 5.91154 11.2556C5.9411 11.3886 5.91154 11.5068 5.95587 11.6102C6.04453 11.891 6.13321 12.2013 6.22187 12.4673C6.2662 12.6003 6.2662 12.7628 6.31053 12.881C6.36964 13.0288 6.41397 13.1618 6.47308 13.3096C6.51741 13.4278 6.5322 13.546 6.57653 13.6494C6.63563 13.7677 6.69474 13.8859 6.73907 14.0189C6.79818 14.1962 6.78339 14.3587 6.8425 14.5213C6.93116 14.7873 7.06417 15.0385 7.15283 15.2897C7.18238 15.3784 7.19714 15.4818 7.2267 15.5705C7.30058 15.7921 7.3597 16.0285 7.44837 16.2502C7.56658 16.5605 7.71435 16.8708 7.81779 17.1812C7.93601 17.4915 7.95078 17.8609 8.069 18.1417C8.12811 18.2894 8.27587 18.3633 8.33497 18.5111C8.37931 18.5997 8.36454 18.7032 8.3941 18.8066C8.42365 18.9248 8.48275 19.0431 8.52708 19.1465C8.55664 19.2499 8.58619 19.3386 8.61574 19.442C8.66007 19.5603 8.73397 19.6785 8.79308 19.7819C8.88174 19.9592 8.92606 20.1513 9.0295 20.3139C9.10338 20.4321 9.20682 20.5503 9.2807 20.6981C9.35459 20.8459 9.38414 21.0232 9.44325 21.171C9.54669 21.4074 9.67969 21.629 9.76835 21.8655C9.85701 22.0871 9.8718 22.3236 9.99002 22.5157C10.0935 22.7078 10.2264 22.8851 10.3299 23.0772C10.389 23.225 10.4629 23.358 10.522 23.5057C10.5811 23.6239 10.6845 23.7274 10.7436 23.8456C10.8323 23.9934 10.9062 24.1411 10.9653 24.2889C11.0244 24.4071 11.0392 24.5106 11.0983 24.5992C11.187 24.747 11.2608 24.8652 11.3643 25.0278C11.4529 25.1608 11.5416 25.3381 11.6007 25.4858C11.645 25.6041 11.6894 25.7371 11.7633 25.8257C11.8371 25.9292 11.9406 26.0178 11.9997 26.136C12.0588 26.2543 12.1475 26.6089 12.1179 26.6237C12.044 26.6532 11.8224 26.4464 11.7633 26.3577C11.5859 26.1508 11.4973 25.8553 11.3495 25.6336C11.187 25.3972 11.0687 25.2494 10.9357 24.9687C10.8619 24.8061 10.7289 24.5253 10.6254 24.3776C10.5368 24.2446 10.4185 24.1264 10.3447 23.9638C10.2855 23.8456 10.256 23.6978 10.2117 23.5648C10.123 23.3875 9.96046 23.2693 9.8718 23.092C9.76836 22.8851 9.72403 22.6782 9.62059 22.4861C9.57626 22.3974 9.50237 22.294 9.45804 22.1906C9.39894 22.0724 9.36937 21.9541 9.31026 21.8211C9.19205 21.5699 9.01473 21.3631 8.89651 21.1118C8.77829 20.8606 8.70442 20.5799 8.5862 20.3139C8.5271 20.1809 8.40886 20.0627 8.33497 19.9149C8.24631 19.7228 8.20199 19.5307 8.11333 19.3386C8.05422 19.2204 7.98033 19.1169 7.92122 18.9987C7.84733 18.8362 7.81779 18.6589 7.7439 18.4963C7.56658 18.1121 7.38924 17.7131 7.2267 17.3437C7.16759 17.1959 7.15282 17.0482 7.07894 16.9004C7.01983 16.7674 6.94594 16.6492 6.88683 16.5162C6.73906 16.1763 6.67997 15.7921 6.5322 15.4522C6.45831 15.2749 6.35487 15.1124 6.29576 14.935C6.19232 14.6395 6.14799 14.344 6.04455 14.0484C5.882 13.5903 5.74899 13.1322 5.58644 12.6742C5.54211 12.5412 5.52735 12.4082 5.48302 12.2604C5.43869 12.1274 5.37957 11.9944 5.33524 11.8614C5.30568 11.758 5.27613 11.6102 5.24658 11.4624C5.12836 11.0782 5.01015 10.694 4.87715 10.3098C4.8476 10.2212 4.84761 10.0586 4.81806 9.94041C4.80328 9.8813 4.75894 9.79264 4.74417 9.73353C4.71461 9.64487 4.71462 9.57098 4.68507 9.48232C4.59641 9.20155 4.5225 8.87646 4.43384 8.5957C4.40428 8.50703 4.40429 8.38882 4.37474 8.28538C4.24175 7.8864 4.18264 7.39876 4.03487 7.02933C4.00532 6.95544 3.96098 6.88156 3.88709 6.89634C3.81321 6.91111 3.82799 6.99978 3.84277 7.05888C3.85754 7.23621 3.93143 7.39876 3.96098 7.54653C3.96098 7.62041 3.96098 7.70907 3.97575 7.78296C3.97575 7.85684 3.99053 7.93073 4.02008 8.00461C4.09397 8.24105 4.18264 8.52181 4.25652 8.75824C4.28607 8.87646 4.25653 9.03901 4.28608 9.172C4.38952 9.5562 4.46339 9.99951 4.59639 10.3394C4.72938 10.6497 4.74416 11.0191 4.83282 11.359C4.86238 11.5068 4.87717 11.6545 4.89194 11.8023C4.90672 11.9501 4.99537 12.0387 5.0397 12.157C5.06926 12.2456 5.06927 12.3195 5.09882 12.4082C5.17271 12.6446 5.23181 12.881 5.32047 13.1322C5.37958 13.2948 5.46824 13.4573 5.52735 13.6199C5.5569 13.6938 5.54212 13.7677 5.57168 13.8415C5.61601 14.0041 5.64556 14.1814 5.6899 14.344C5.80811 14.6691 5.92634 15.0385 6.04455 15.3636C6.10366 15.5409 6.1332 15.7182 6.19231 15.8956C6.4583 16.6048 6.7095 17.3141 6.97549 18.0234C7.01982 18.186 7.06417 18.3338 7.1085 18.4963C7.16761 18.6589 7.25626 18.7919 7.33015 18.9396C7.41881 19.1169 7.44836 19.309 7.50746 19.5159C7.59613 19.7376 7.69957 19.9149 7.78823 20.1513C7.83256 20.2696 7.87689 20.3878 7.92122 20.4912C7.96555 20.5799 8.03944 20.6538 8.069 20.7424C8.14288 20.8902 8.15767 21.0527 8.21678 21.2005C8.29066 21.3483 8.40887 21.4517 8.48275 21.5847C8.55664 21.7029 8.57143 21.8655 8.63053 21.9985C8.73397 22.2201 8.85218 22.4122 8.94084 22.6339C8.98517 22.7225 8.99996 22.8112 9.04429 22.9146C9.08862 23.0181 9.17727 23.1215 9.22161 23.225C9.22161 23.2397 9.2216 23.2545 9.23637 23.2841C9.23637 23.3284 9.26593 23.3875 9.2807 23.4171C9.29548 23.4762 9.36937 23.5944 9.39892 23.6239C9.4137 23.6535 9.45804 23.6978 9.50237 23.7569C9.51715 23.7717 9.53192 23.8013 9.56147 23.8308C9.65013 23.9786 9.66493 24.1855 9.73881 24.348C9.8127 24.5106 9.94568 24.6288 10.0343 24.7913C10.0935 24.9243 10.123 25.2199 10.0491 25.2346C9.72402 25.2346 9.70924 24.7913 9.6058 24.5549C9.51714 24.3776 9.38416 24.215 9.2955 24.0525C9.28072 24.0229 9.25116 23.949 9.22161 23.8752C9.20683 23.816 9.17727 23.7422 9.14772 23.6978C9.10338 23.6092 9.10338 23.6239 9.07383 23.5648C9.04427 23.5057 8.95562 23.3875 8.92607 23.3432C8.80785 23.1511 8.7192 22.8703 8.63053 22.7373C8.5862 22.6634 8.51232 22.5895 8.46799 22.5157C8.37932 22.3827 8.34976 22.2349 8.27588 22.1019C8.21677 21.9689 8.11334 21.8507 8.05423 21.7177C7.98034 21.5552 7.98034 21.3631 7.90645 21.2005C7.86212 21.1118 7.803 21.0232 7.75867 20.9493C7.67001 20.772 7.61092 20.5651 7.52226 20.3878C7.47792 20.2991 7.40404 20.2252 7.35971 20.1366C7.28582 19.9888 7.25626 19.8262 7.1676 19.6785C7.00505 19.3829 6.81295 19.0431 6.67995 18.718C6.59129 18.5259 6.57651 18.3338 6.48784 18.1564C6.41396 17.9939 6.32531 17.8461 6.25143 17.6836C6.2071 17.5801 6.19231 17.4767 6.14798 17.3733C6.08887 17.1959 6.00021 17.0186 5.9411 16.8413C5.89677 16.7231 5.86723 16.4571 5.83767 16.3389C5.79334 16.2059 5.71944 16.0581 5.66033 15.9251C5.57167 15.733 5.54212 15.5261 5.45346 15.3192C5.39435 15.1715 5.3057 15.0089 5.26137 14.8464C5.21704 14.7134 5.20226 14.5952 5.14315 14.477C5.09882 14.3883 5.05447 14.2701 5.01014 14.1814C4.96581 14.0632 4.93627 13.8711 4.90671 13.7233C4.84761 13.5608 4.77373 13.3982 4.7294 13.2209C4.69984 13.1027 4.69983 12.8071 4.67028 12.7333C4.49295 12.2161 4.33041 11.6693 4.16786 11.1521C4.09398 10.9157 4.06443 10.6793 3.99054 10.4428C3.96099 10.3542 3.96099 10.2359 3.94622 10.1325C3.90188 9.98474 3.84278 9.82219 3.78367 9.67442C3.75411 9.57098 3.73932 9.46754 3.72455 9.3641C3.69499 9.26066 3.63588 9.14245 3.60633 9.03901C3.50289 8.72869 3.45856 8.40359 3.35512 8.09328C3.32557 7.96028 3.32558 7.79774 3.29602 7.67952C3.17781 7.31009 3.14825 6.86678 3.04482 6.4678C3.01526 6.34959 3.00048 6.23137 2.97093 6.12793C2.77882 5.38908 2.69016 4.56156 2.48328 3.85227C2.43895 3.71927 2.48327 3.54195 2.45372 3.39418C2.40939 3.23163 2.36506 3.08386 2.32073 2.93609C2.30596 2.86221 2.30596 2.8031 2.2764 2.72921C2.24685 2.61099 2.18774 2.52233 2.11386 2.52233C2.03997 2.55189 2.05473 2.62577 2.05473 2.71444C2.05473 2.87698 2.06952 3.00998 2.11386 3.14297C2.14341 3.26119 2.11385 3.34985 2.15818 3.45329C2.23207 3.68972 2.24684 4.01481 2.29117 4.22169C2.29117 4.31035 2.29119 4.42857 2.30596 4.53201C2.32074 4.63545 2.40938 4.76844 2.42416 4.88666C2.45371 5.03443 2.43896 5.24131 2.46851 5.40386C2.49807 5.53685 2.54239 5.66984 2.57194 5.80283C2.60149 5.92105 2.57194 6.02449 2.61627 6.12793C2.64582 6.23137 2.70493 6.34959 2.73449 6.4678C2.74926 6.6008 2.73449 6.7929 2.76405 6.89634C2.9266 7.54653 2.9857 8.31493 3.1778 8.93557C3.20736 9.02423 3.20736 9.11289 3.22213 9.21633C3.38468 9.76308 3.5029 10.3394 3.66545 10.8861C3.68023 10.9748 3.68022 11.0635 3.70978 11.1521C3.76889 11.3442 3.8132 11.5511 3.85753 11.7432C3.87231 11.8319 3.87231 11.9058 3.90186 11.9944C3.96097 12.1865 4.03486 12.3934 4.09397 12.5855C4.12353 12.6742 4.12354 12.7776 4.15309 12.8663C4.16787 12.9401 4.21218 13.0288 4.22696 13.1027C4.25651 13.2209 4.25653 13.3243 4.28608 13.4278C4.31564 13.4869 4.35996 13.5608 4.37474 13.6199C4.40429 13.7381 4.41908 13.8563 4.44863 13.9598C4.49296 14.0928 4.56684 14.2257 4.62595 14.3735C4.67028 14.4917 4.67027 14.5952 4.71461 14.7134C4.78849 14.9055 4.87716 15.1271 4.95104 15.334C5.01015 15.4966 5.02492 15.6739 5.08403 15.8364C5.12836 15.9547 5.17269 16.0581 5.21702 16.1763C5.24657 16.265 5.26135 16.3536 5.29091 16.4423C5.32046 16.531 5.40914 16.6492 5.46825 16.7526C5.51258 16.8708 5.49779 17.0334 5.52735 17.1516C5.57168 17.2846 5.64556 17.388 5.6899 17.5062C5.73423 17.6245 5.73423 17.7575 5.76378 17.8757C5.79334 17.9643 5.86721 18.0678 5.91154 18.1564C5.95587 18.2599 5.98543 18.3633 6.02976 18.4668C6.05931 18.5406 6.11843 18.5997 6.14798 18.6736C6.20709 18.7918 6.25142 18.9248 6.31053 19.0431C6.38441 19.2204 6.38441 19.442 6.44352 19.6489C6.44352 19.708 6.44353 19.841 6.41398 19.8558C6.32532 19.8706 6.23665 19.7376 6.17754 19.6637C6.08888 19.5307 5.98543 19.3829 5.91154 19.2204C5.88199 19.1613 5.86722 19.1022 5.85244 19.0431C5.79333 18.9101 5.76378 18.7623 5.6899 18.6145C5.66034 18.5259 5.60123 18.4372 5.57168 18.3485C5.52734 18.2155 5.54212 18.0678 5.49779 17.9496C5.45345 17.8609 5.37957 17.787 5.33524 17.6836C5.30568 17.5949 5.29091 17.5062 5.24658 17.4176C5.20225 17.3141 5.14314 17.2255 5.08403 17.122C5.0397 17.0334 5.0397 16.9299 5.01014 16.8117C4.96581 16.6787 4.93626 16.5457 4.87715 16.4275C4.81805 16.3093 4.74417 16.1763 4.69984 16.0581C4.67028 15.9842 4.65549 15.9103 4.64072 15.8512C4.61116 15.7626 4.55207 15.6443 4.52252 15.5557C4.50774 15.4818 4.47818 15.4079 4.44863 15.3488C4.4043 15.2454 4.34518 15.1271 4.30085 15.0089C4.2713 14.9203 4.25651 14.8168 4.22696 14.7282C4.16785 14.5656 4.10874 14.3735 4.06441 14.2257C4.03486 14.1075 4.02008 13.9745 3.97575 13.8563C3.93142 13.7085 3.85754 13.5608 3.81321 13.413C3.76887 13.2948 3.76888 13.1618 3.72455 13.0436C3.66544 12.881 3.59155 12.7333 3.53244 12.5707C3.50288 12.4377 3.50289 12.3047 3.47334 12.1865C3.38468 11.8762 3.28123 11.5363 3.19257 11.226C3.08913 10.8714 3.07437 10.4872 2.97093 10.1325C2.89704 9.8813 2.80837 9.63009 2.73449 9.39366C2.70493 9.26066 2.70494 9.14245 2.67539 9.02423C2.6015 8.74347 2.49805 8.37404 2.40939 8.09328C2.36506 7.94551 2.37983 7.78296 2.3355 7.62041C2.29117 7.45786 2.29118 7.25098 2.23207 7.08844C2.20252 6.985 2.15818 6.89634 2.12862 6.76334C2.09907 6.63035 2.09907 6.4678 2.08429 6.34959C2.06952 6.24615 1.87743 5.62551 1.86265 5.52207C1.84787 5.40386 1.84786 5.19698 1.83309 5.12309C1.83309 5.07876 1.72965 4.81277 1.71487 4.73889C1.71487 4.665 1.71487 4.59112 1.67054 4.45812C1.64099 4.32513 1.5671 4.01481 1.55232 3.92615C1.55232 3.83749 1.55231 3.66017 1.52276 3.5715C1.50798 3.48284 1.44889 3.27596 1.40456 3.12819C1.36023 2.95087 1.40455 2.75876 1.34544 2.59622C1.31589 2.478 1.27156 2.35979 1.22722 2.24157C1.19767 2.13813 1.16811 2.00514 1.15333 1.94603C1.15333 1.85737 1.15334 1.66527 1.13857 1.59138C1.13857 1.48794 1.09424 1.32539 1.07947 1.17762C1.07947 0.985521 1.02036 0.763866 0.990809 0.645649C0.976032 0.571764 0.990802 0.483102 0.961248 0.423994C0.916917 0.231893 0.857802 0.0545673 0.76914 0.0693443C0.695254 0.0693443 0.66571 0.14323 0.710041 0.261446C0.739595 0.409216 0.754369 0.527434 0.7987 0.675204C0.813477 0.749089 0.82826 0.955967 0.82826 1.01508C0.82826 1.11851 0.828244 1.14807 0.857798 1.25151C0.857798 1.29584 0.887358 1.3845 0.887358 1.42883C0.902136 1.50272 0.931696 1.59138 0.916919 1.65049C0.916919 1.72437 0.916919 1.79826 0.916919 1.88692C0.916919 1.93125 0.916903 1.96081 0.946457 2.03469C0.961234 2.12335 0.976017 2.13813 0.976017 2.21202C0.976017 2.27112 0.976017 2.33023 0.976017 2.38934C0.976017 2.46323 0.976023 2.52233 1.00558 2.58144C1.04991 2.71444 1.12379 2.89176 1.09424 3.08386C1.0499 3.29074 1.12379 3.48284 1.16813 3.66016C1.1829 3.77838 1.16812 3.8966 1.18289 4.00004C1.22723 4.14781 1.25678 4.31035 1.30111 4.4729C1.33067 4.6059 1.30111 4.70933 1.34544 4.84233C1.38977 5.01965 1.50798 5.24131 1.52276 5.31519C1.52276 5.38908 1.52277 5.59596 1.55232 5.72895C1.58187 5.86194 1.61144 6.00971 1.61144 6.09838C1.61144 6.18704 1.61144 6.21659 1.61144 6.2757C1.61144 6.33481 1.70009 6.63035 1.71487 6.71901C1.71487 6.7929 1.71488 6.83723 1.74443 6.91111C1.75921 6.985 1.83308 7.31009 1.84786 7.41353C1.86263 7.51697 1.84786 7.57608 1.87742 7.67952C1.90697 7.84207 1.96607 7.97506 2.01041 8.12283C2.02518 8.24105 2.01041 8.30015 2.03997 8.40359C2.06952 8.55136 2.11386 8.66958 2.14342 8.81735C2.15819 8.92079 2.15819 9.02423 2.18774 9.12767C2.23208 9.3641 2.27639 9.58576 2.3355 9.82219C2.37983 9.95518 2.45372 10.0734 2.49805 10.2064C2.5276 10.3246 2.54239 10.4576 2.57194 10.5758C2.60149 10.6793 2.67537 10.7679 2.70493 10.8861C2.7197 10.9748 2.70493 11.0782 2.73449 11.1669C2.76404 11.2703 2.80837 11.3886 2.82315 11.492C2.83792 11.5807 2.82315 11.6545 2.85271 11.7432C2.88226 11.8319 2.92658 11.9205 2.95613 12.024C2.98569 12.1422 2.97092 12.2604 3.01525 12.3786C3.04481 12.5116 3.10391 12.6446 3.14824 12.7776C3.19257 12.8958 3.16303 13.0288 3.20736 13.147C3.28125 13.4278 3.3699 13.7381 3.47334 13.9893C3.51767 14.1371 3.50289 14.2701 3.562 14.4326C3.59155 14.5361 3.65066 14.5952 3.68022 14.6838C3.70977 14.7725 3.68022 14.8759 3.70978 14.9794C3.75411 15.1419 3.78366 15.3784 3.84277 15.5409C3.90187 15.733 4.0201 15.8808 4.0792 16.0581C4.13831 16.2502 4.15308 16.4423 4.21219 16.6344C4.2713 16.797 4.35996 16.9595 4.41907 17.1073C4.47818 17.2403 4.44862 17.4176 4.50773 17.5654C4.56684 17.7279 4.67029 17.8461 4.7294 18.0087C4.80328 18.186 4.84761 18.3781 4.89194 18.5554C4.90672 18.6293 4.9215 18.718 4.93627 18.7918C5.01016 19.0283 5.12836 19.2204 5.21702 19.4568C5.24657 19.5603 5.26135 19.6489 5.29091 19.7524C5.35002 19.9149 5.40913 20.0775 5.48302 20.24C5.54213 20.373 5.63078 20.5208 5.70466 20.6538C5.76377 20.7868 5.77857 20.9197 5.83767 21.0527C5.89678 21.1857 5.95589 21.3187 6.00022 21.4665C6.02978 21.5552 6.02976 21.629 6.07409 21.7029C6.23664 22.0576 6.42874 22.427 6.60606 22.7817C6.69473 22.9738 6.73907 23.1806 6.82773 23.3875C6.90162 23.5353 6.99026 23.6831 7.06415 23.8604C7.10848 23.9638 7.12327 24.0673 7.1676 24.1707C7.25626 24.3628 7.38926 24.5549 7.47793 24.747C7.50748 24.7913 7.56658 24.9982 7.53702 25.0869C7.53702 25.0869 7.53703 25.1164 7.52226 25.1164C7.46315 25.1312 7.34493 25.0278 7.27105 24.9687C7.03462 24.747 7.00505 24.3185 6.8425 24.0229C6.79817 23.9343 6.73905 23.8456 6.69472 23.7569C6.67995 23.6978 6.66518 23.6387 6.63562 23.5796C6.53219 23.3875 6.41396 23.225 6.3253 23.0181C6.26619 22.8703 6.25142 22.7078 6.19231 22.5748C5.92632 22.0132 5.63078 21.4665 5.37957 20.8902C5.26135 20.6242 5.23181 20.3434 5.14315 20.0627C5.08404 19.9001 4.9806 19.7524 4.90671 19.6046C4.84761 19.4864 4.83283 19.3534 4.7885 19.2352C4.71461 19.0726 4.61117 18.9248 4.55206 18.7475C4.50773 18.6293 4.49296 18.5111 4.44863 18.4076C4.38952 18.2894 4.31563 18.186 4.25652 18.053C4.18264 17.8757 4.16785 17.6984 4.10874 17.4915C4.07919 17.388 4.03488 17.2698 3.99054 17.1664C3.96099 17.0777 3.94621 16.9743 3.91666 16.8856C3.84277 16.6787 3.70977 16.4866 3.63589 16.265C3.57678 16.1172 3.59155 15.9251 3.53244 15.7921C3.47333 15.6739 3.38468 15.5852 3.34035 15.4522C3.28124 15.3192 3.34035 15.1715 3.29602 15.0089C3.25169 14.8612 3.19257 14.7282 3.14824 14.5952C3.11869 14.5065 3.1187 14.4178 3.08914 14.344C3.03004 14.1666 2.95614 13.9893 2.89704 13.812C2.86748 13.7233 2.86748 13.6347 2.82315 13.5608C2.77882 13.4573 2.69015 13.3539 2.6606 13.2505C2.61627 13.0731 2.6015 12.8958 2.55717 12.7333C2.48329 12.5116 2.40939 12.3343 2.3355 12.1126C2.32072 12.0387 2.32074 11.9796 2.30596 11.9058C2.24686 11.7136 2.23206 11.492 2.17295 11.2999C2.15818 11.2112 2.15818 11.1226 2.12862 11.0339C2.06952 10.8566 2.01042 10.6645 1.95131 10.5019C1.92175 10.3837 1.92174 10.2803 1.89219 10.1621C1.80352 9.8813 1.72964 9.54143 1.64098 9.27544C1.6262 9.18678 1.64098 9.12767 1.59665 9.02423C1.52276 8.80257 1.4341 8.55136 1.38977 8.32971C1.36022 8.19672 1.36023 8.0785 1.33067 7.96028C1.30112 7.81251 1.24201 7.66474 1.21246 7.51697C1.21246 7.44309 1.21246 7.39876 1.21246 7.33965C1.21246 7.23621 1.19768 7.14755 1.16813 7.04411C1.06469 6.64513 0.916923 6.17226 0.82826 5.77328C0.798706 5.62551 0.798685 5.49252 0.783908 5.34475C0.769131 5.24131 0.769133 5.13787 0.739579 5.03443C0.710025 4.93099 0.665698 4.82755 0.650921 4.72411C0.636144 4.54679 0.621368 4.38424 0.606591 4.22169C0.606591 4.22169 0.606591 4.19214 0.606591 4.17736C0.577037 3.97048 0.473597 3.5715 0.444043 3.40895C0.414489 3.21685 0.399707 3.00998 0.370153 2.81787C0.370153 2.68488 0.340601 2.56666 0.325824 2.43367C0.29627 2.22679 0.25195 2.04947 0.222396 1.84259C0.207619 1.69482 0.22239 1.5766 0.192836 1.45839C0.192836 1.3845 0.192848 1.25151 0.0894085 1.25151C-0.0140308 1.25151 0.000727342 1.35495 0.000727342 1.44361C0.000727342 1.65049 0.0302796 1.93125 0.0450566 2.06424C0.0746107 2.30068 0.045063 2.53711 0.074617 2.78832C0.074617 2.92131 0.13373 3.06908 0.148507 3.1873C0.178061 3.42373 0.207611 3.66017 0.237165 3.88182C0.237165 3.98526 0.251941 4.0887 0.281495 4.19214C0.281495 4.19214 0.281495 4.20692 0.281495 4.22169C0.281495 4.22169 0.281495 4.22169 0.281495 4.23647C0.281495 4.23647 0.281495 4.23647 0.281495 4.25125C0.281495 4.25125 0.296278 4.33991 0.311055 4.38424C0.340609 4.4729 0.311053 4.54679 0.355384 4.63545C0.429269 4.90144 0.414487 5.19698 0.488372 5.46296C0.591811 5.84717 0.650923 6.29048 0.76914 6.67468C0.798694 6.7929 0.769146 6.89634 0.7987 7.01455C0.828254 7.13277 0.857804 7.25099 0.887358 7.38398C0.916913 7.53175 0.887357 7.67952 0.931688 7.82729C0.961242 7.96028 1.00558 8.10805 1.04991 8.24105C1.09424 8.40359 1.09423 8.56614 1.13857 8.74347C1.1829 8.92079 1.242 9.11289 1.27155 9.27544C1.30111 9.46754 1.33068 9.70397 1.36023 9.91085C1.38979 10.0882 1.49322 10.2951 1.53755 10.4872C1.53755 10.5463 1.53754 10.6201 1.55232 10.6793C1.58187 10.8123 1.61143 10.96 1.64098 11.093C1.64098 11.1521 1.64099 11.2112 1.67054 11.2703C1.72965 11.5215 1.8183 11.8466 1.89219 12.0979C1.90696 12.1717 1.92176 12.2456 1.93654 12.3047C1.98087 12.4821 2.03996 12.6151 2.05473 12.7185C2.06951 12.8072 2.08431 12.8958 2.09909 12.9993C2.12864 13.1322 2.17296 13.2505 2.20251 13.3687C2.21729 13.4573 2.23206 13.546 2.26161 13.6347C2.29117 13.7529 2.3355 13.8563 2.37983 13.9598C2.45372 14.1814 2.46849 14.4326 2.54238 14.6543C2.58671 14.7873 2.6606 14.9055 2.70493 15.0533C2.73448 15.1863 2.74926 15.334 2.79359 15.4818C2.86747 15.7034 2.95614 15.9547 3.03002 16.1763C3.11869 16.4423 3.1778 16.7231 3.26646 16.9743C3.29602 17.0777 3.29601 17.1664 3.32556 17.2846C3.39945 17.5358 3.48811 17.8018 3.562 18.053C3.60633 18.186 3.60633 18.319 3.65066 18.4372C3.73932 18.6441 3.85754 18.8214 3.93142 19.0431C3.99053 19.2352 4.00532 19.4125 4.0792 19.575C4.16787 19.8115 4.27131 20.0331 4.35997 20.2843C4.41908 20.4469 4.43384 20.6094 4.50773 20.772C4.56684 20.905 4.64073 21.038 4.69984 21.1857C4.74417 21.3039 4.7885 21.4222 4.81806 21.5404C4.84761 21.629 4.95103 21.7916 5.01014 21.9098C5.08403 22.0724 5.09881 22.2497 5.15792 22.427C5.26136 22.693 5.37957 22.9738 5.49779 23.225C5.54212 23.3284 5.55689 23.4171 5.58644 23.5205C5.64555 23.6978 5.76378 23.8308 5.85244 23.9934C5.92633 24.1559 5.94111 24.3185 6.01499 24.4662C6.11843 24.6879 6.19231 24.8061 6.19231 25.1312C6.19231 25.1608 6.19231 25.1755 6.14798 25.1903C6.08887 25.2199 6.01499 25.1164 5.98543 25.0721C5.80811 24.9095 5.79334 24.747 5.67513 24.5106C5.51258 24.1559 5.3057 23.8308 5.14315 23.4762C5.05449 23.2988 5.02494 23.1067 4.93627 22.9146C4.89194 22.7964 4.81804 22.693 4.75893 22.5748C4.68505 22.4122 4.64073 22.2497 4.56685 22.1019C4.44863 21.895 4.35996 21.6438 4.25652 21.3926C4.21219 21.3039 4.21218 21.2153 4.18263 21.1266C4.1383 21.038 4.07921 20.9493 4.03487 20.8606C3.97577 20.7129 3.93143 20.5355 3.87233 20.3878C3.73933 20.107 3.59155 19.7967 3.48811 19.5011C3.38467 19.2204 3.34034 18.9544 3.2369 18.6736C3.19257 18.5554 3.14824 18.4372 3.10391 18.319C3.07436 18.2155 3.07436 18.1269 3.03002 18.0234C2.94136 17.7722 2.82314 17.5062 2.70493 17.255C2.64582 17.1368 2.63104 17.0186 2.58671 16.8856C2.5276 16.7378 2.4685 16.5605 2.40939 16.4127C2.33551 16.2059 2.33551 15.9694 2.24684 15.7626C2.0843 15.3045 1.87743 14.8316 1.72966 14.344C1.70011 14.2405 1.71487 14.1223 1.67054 14.0041C1.59665 13.7677 1.50799 13.5017 1.4341 13.2357C1.34544 12.9549 1.36022 12.6446 1.27155 12.3786C1.15334 12.024 1.03514 11.6398 0.916919 11.2851C0.887365 11.1817 0.902129 11.0635 0.857798 10.9452C0.783913 10.6645 0.695262 10.3542 0.591822 10.0882C0.547491 9.95518 0.547495 9.82219 0.503164 9.70397C0.444056 9.5562 0.296278 9.61531 0.311055 9.77786C0.311055 9.92563 0.370168 10.1177 0.384945 10.1916C0.399722 10.2951 0.39972 10.3985 0.429274 10.5019C0.473605 10.694 0.532714 10.8566 0.591822 11.0339C0.65093 11.2112 0.650919 11.3886 0.69525 11.5659C0.724804 11.6545 0.754354 11.758 0.783908 11.8466C0.843017 12.0387 0.843019 12.2308 0.902127 12.4082C0.946459 12.5412 0.990807 12.7037 1.03514 12.8515C1.06469 12.9401 1.04991 13.0288 1.07947 13.1175C1.13858 13.28 1.18291 13.4573 1.24202 13.6199C1.27157 13.7233 1.25679 13.7972 1.28634 13.9007C1.3159 14.0336 1.36022 14.1666 1.38977 14.2996C1.41933 14.4178 1.41933 14.5952 1.46366 14.7134C1.53755 14.9498 1.62621 15.201 1.7001 15.4079C1.78876 15.6591 1.80352 15.9103 1.89219 16.1615C2.05473 16.6049 2.20252 17.1073 2.35029 17.5506C2.39462 17.6688 2.37984 17.787 2.40939 17.9052C2.4685 18.0973 2.49805 18.2894 2.57194 18.4668C2.60149 18.5554 2.6606 18.6441 2.70493 18.7327C2.74926 18.8362 2.76404 18.9544 2.82315 19.0726C2.86748 19.1613 2.92658 19.2499 2.95613 19.3534C3.00047 19.5011 2.98571 19.6637 3.04482 19.7967C3.08915 19.9001 3.14824 20.0183 3.19257 20.1366C3.2369 20.2548 3.2369 20.3878 3.28123 20.506C3.32556 20.6094 3.39945 20.6981 3.44378 20.8015C3.48811 20.8902 3.50288 20.9936 3.53244 21.0971C3.57677 21.2005 3.63589 21.3187 3.68022 21.4074C3.72455 21.5256 3.73934 21.6438 3.78367 21.762C3.828 21.8655 3.90187 21.9541 3.93142 22.0724C3.97576 22.1906 3.97575 22.3088 4.02008 22.427C4.09397 22.6043 4.1974 22.7521 4.27129 22.9146C4.3304 23.0329 4.3304 23.1806 4.38951 23.2988C4.44862 23.4466 4.53729 23.5796 4.61118 23.7274C4.69984 23.9195 4.75893 24.1116 4.84759 24.3037C4.99536 24.6288 5.03971 24.9687 5.18748 25.2937C5.29092 25.5302 5.43868 25.7518 5.54212 25.9735C5.60122 26.1065 5.61602 26.2395 5.67513 26.3577C5.73423 26.4907 5.85245 26.6089 5.92633 26.7567C5.97066 26.8897 6.01498 27.0374 6.07409 27.1704C6.16275 27.3478 6.26619 27.5103 6.35486 27.6728C6.39919 27.7763 6.41397 27.865 6.47308 27.9684C6.56174 28.1605 6.70951 28.323 6.79817 28.5151C6.8425 28.6334 6.88683 28.7663 6.93116 28.8846C7.01982 29.0914 7.18239 29.254 7.27105 29.4609C7.34493 29.6086 7.38926 29.7712 7.47793 29.9042C7.61092 30.1258 7.69957 30.2588 7.83256 30.4805C7.92122 30.6283 8.03944 30.8351 8.11333 30.9829C8.18721 31.1307 8.30543 31.2637 8.36453 31.4114C8.43842 31.5592 8.52709 31.7218 8.60097 31.8547C8.68964 32.0173 8.7783 32.1355 8.88174 32.2833C9.04429 32.5197 9.14773 32.7857 9.2955 33.0221C9.39893 33.1995 9.53191 33.362 9.65013 33.5246C9.97522 33.9679 10.4333 34.751 10.6254 35.017C10.788 35.2239 10.921 35.4899 11.0687 35.7116C11.187 35.8889 11.3347 36.0514 11.4529 36.214C11.5564 36.347 11.645 36.4947 11.7337 36.6277L11.8076 36.7312C15.9156 41.9475 20.127 45.4053 23.6883 47.6662C25.565 48.8483 26.5846 49.1882 26.5846 49.1882C26.8211 49.2917 26.6585 49.4542 26.5403 49.5281L5.37957 63.0639C5.37957 63.0639 5.14313 63.2264 5.21702 63.3594C5.26135 63.4628 5.48301 63.4037 5.54212 63.389C22.5357 57.419 34.8598 52.5278 42.396 48.9518C50.0358 45.3314 52.607 43.2478 52.3262 42.2282L52.1489 42.1987ZM6.96072 22.1758C6.91639 22.1019 6.87206 21.9985 6.8425 21.9246C6.81295 21.8359 6.79817 21.7473 6.76861 21.6438C6.63562 21.3483 6.48785 21.0232 6.35486 20.7276C6.29575 20.6094 6.22186 20.373 6.28097 20.2252C6.28097 20.2104 6.34008 20.2252 6.35486 20.2252C6.39919 20.2696 6.42874 20.2843 6.47308 20.3287C6.50263 20.373 6.50264 20.4173 6.5322 20.4617C6.5913 20.5651 6.67997 20.6685 6.73907 20.772C6.85729 21.0084 6.87207 21.2744 6.99028 21.5108C7.06417 21.6586 7.18237 21.8064 7.25626 21.9541C7.30059 22.0428 7.31536 22.1315 7.34492 22.2201C7.35969 22.294 7.34493 22.3827 7.35971 22.427C7.35971 22.5009 7.3597 22.56 7.33015 22.56C7.12327 22.56 7.06415 22.294 6.97549 22.1462L6.96072 22.1758ZM7.84735 28.6629C7.84735 28.6629 7.81779 28.7072 7.78823 28.722C7.56658 28.722 7.49268 28.3821 7.38925 28.2196C7.31536 28.0866 7.24149 27.9536 7.15283 27.8206C7.09372 27.732 7.01982 27.6433 6.97549 27.5399C6.91638 27.4069 6.88683 27.2739 6.81294 27.1557C6.76861 27.0965 6.70952 27.0374 6.66518 26.9783C6.54697 26.8158 6.42874 26.6385 6.35486 26.4316C6.34008 26.3577 6.31054 26.2838 6.29576 26.2099C6.25143 26.0769 6.19231 25.9439 6.14798 25.8109C6.1332 25.7371 6.11843 25.6041 6.13321 25.5597C6.13321 25.545 6.14799 25.5302 6.16277 25.5302C6.3401 25.5597 6.50263 25.9735 6.5913 26.136C6.67996 26.2986 6.82773 26.4316 6.91639 26.6089C6.99028 26.7567 7.00505 26.9636 7.09371 27.1113C7.15282 27.2295 7.27104 27.3182 7.33015 27.4216C7.41881 27.5694 7.4927 27.7467 7.56658 27.9093C7.65525 28.0866 7.75868 28.2196 7.83256 28.3969C7.86211 28.4708 7.87691 28.6038 7.84735 28.6777V28.6629ZM12.6055 27.7024C12.5021 27.7024 12.4578 27.6285 12.3839 27.5842C12.2066 27.4512 12.0588 27.2443 12.0588 26.9488C12.0588 26.9192 12.0588 26.9044 12.0884 26.9044C12.2952 26.9044 12.5169 27.2295 12.5908 27.3773C12.6203 27.4216 12.6647 27.5399 12.6647 27.6285C12.6647 27.6876 12.6351 27.7172 12.6055 27.7172V27.7024ZM14.0389 27.7615C13.8911 27.8206 13.5513 27.4216 13.4478 27.2739C13.2705 27.0079 13.0932 26.7123 12.9011 26.4464C12.7238 26.2099 12.5317 26.0474 12.4873 25.6336C12.4873 25.5893 12.4578 25.4711 12.4873 25.4711C12.6794 25.4858 12.8568 25.8257 12.9602 25.9439C13.0341 26.0326 13.108 26.136 13.1671 26.2247C13.2557 26.3725 13.3001 26.535 13.4035 26.668C13.5217 26.8306 13.6695 26.9783 13.8025 27.1409C13.8764 27.2295 13.965 27.3034 14.0094 27.4216C14.0241 27.4807 14.0833 27.7172 14.0537 27.732L14.0389 27.7615ZM19.0336 30.5248C18.8267 30.5544 18.5902 30.2588 18.5016 30.1111C18.472 30.0667 18.3538 29.8303 18.3834 29.8007C18.4277 29.7712 18.6641 29.8451 18.7233 29.8894C18.871 30.0076 19.004 30.1849 19.0779 30.4805C19.0779 30.51 19.0483 30.5248 19.0336 30.5248Z" fill="#00777D"/>
<path d="M133.304 58.6455L119.503 29.9337L105.789 58.6455C103.735 62.5762 101.475 62.6649 101.475 62.6649L101.268 62.8865H110.666L110.444 62.6649C110.444 62.6649 107.814 62.1477 109.499 58.6455L111.952 53.577H123.714L126.093 58.6455C127.748 62.1329 125.133 62.6649 125.133 62.6649L124.926 62.8865H137.856L137.634 62.6649C137.634 62.6649 135.255 62.6501 133.319 58.6455H133.304ZM113.208 50.9171L118.054 40.7357L122.473 50.9171H113.208ZM89.3426 59.9163C82.5895 59.9163 77.9348 55.498 77.9348 47.4149C77.9348 39.3319 82.4566 34.0713 89.5939 34.0713C96.7312 34.0713 99.657 39.8196 99.657 39.8196L99.8343 39.9673V33.1699C99.8343 33.1699 95.4012 30.9977 89.0914 30.9977C77.6984 30.9977 70.561 38.0168 70.561 47.4297C70.561 55.0103 76.4571 63.3741 88.6334 63.3741C93.229 63.3741 98.5783 61.5566 98.5783 61.5566L101.046 53.1484L100.78 53.3258C100.78 53.3258 96.7903 59.8868 89.3574 59.8868L89.3426 59.9163ZM254.299 31.5149L254.52 31.7217C254.52 31.7217 257.298 32.5049 255.2 35.7559C254.166 37.337 251.092 41.7553 248.27 46.0259C245.447 41.7553 242.403 37.3075 241.384 35.7263C239.3 32.4606 242.078 31.7217 242.078 31.7217L242.285 31.5149H229.355L229.562 31.7217C229.562 31.7217 231.439 32.0321 233.892 35.7263C234.926 37.2927 240.172 44.6221 242.994 48.9074V58.6603C242.994 62.3693 240.896 62.6796 240.896 62.6796L240.689 62.8865H251.905L251.683 62.6796C251.683 62.6796 249.6 62.3545 249.6 58.6603C249.6 57.0939 249.585 53.178 249.585 48.9074C252.407 44.6221 257.668 37.3222 258.702 35.7559C261.14 32.0616 263.933 31.7217 263.933 31.7217L264.155 31.5149H254.299ZM232.148 58.6455L218.346 29.9337L204.633 58.6455C202.579 62.5762 200.318 62.6649 200.318 62.6649L200.111 62.8865H209.495L209.288 62.6649C209.288 62.6649 206.658 62.1477 208.327 58.6455L210.795 53.577H222.558L224.937 58.6455C226.607 62.1329 223.991 62.6649 223.991 62.6649L223.784 62.8865H236.714L236.492 62.6649C236.492 62.6649 234.113 62.6501 232.177 58.6455H232.148ZM212.066 50.9171L216.913 40.7357L221.331 50.9171H212.066ZM137.797 31.5149C134.088 31.5149 133.57 31.1602 133.57 31.1602V37.4109L133.777 37.2483C133.777 37.2483 135.462 34.5442 139.156 34.5442H144.417V58.6751C144.417 62.3841 142.333 62.6944 142.333 62.6944L142.111 62.9013H153.327L153.12 62.6944C153.12 62.6944 151.022 62.3693 151.022 58.6751L151.052 34.5442H156.194C159.888 34.5442 161.676 37.2483 161.676 37.2483L161.898 37.4109V31.1602C161.898 31.1602 161.381 31.5149 157.686 31.5149H137.797ZM196.698 58.6603C196.698 54.966 196.698 39.3762 196.698 35.682C196.698 31.9877 198.796 31.707 198.796 31.707L199.018 31.5001H187.787L187.994 31.707C187.994 31.707 190.092 31.9729 190.092 35.682C190.092 39.391 190.107 44.696 190.107 44.696H174.665V35.682C174.665 31.9877 176.778 31.7217 176.778 31.7217L176.985 31.5149H165.769L165.991 31.7217C165.991 31.7217 168.089 31.9729 168.089 35.682V58.6603C168.089 62.3693 165.991 62.6796 165.991 62.6796L165.769 62.8865H176.985L176.778 62.6796C176.778 62.6796 174.665 62.3545 174.665 58.6603V47.7696H190.107V58.6603C190.107 62.3693 188.009 62.6796 188.009 62.6796L187.787 62.8865H199.018L198.796 62.6796C198.796 62.6796 196.698 62.3545 196.698 58.6603Z" fill="#00777D"/>
<path d="M327.947 58.6455L314.146 29.9337L300.433 58.6455C298.379 62.5762 296.118 62.6649 296.118 62.6649L295.896 62.8865H305.279L305.073 62.6649C305.073 62.6649 302.442 62.1477 304.097 58.6455L306.565 53.577H318.313L320.707 58.6455C322.377 62.1329 319.746 62.6649 319.746 62.6649L319.539 62.8865H332.469L332.248 62.6649C332.248 62.6649 329.868 62.6501 327.933 58.6455H327.947ZM307.865 50.9171L312.712 40.7357L317.131 50.9171H307.865Z" fill="#00777D"/>
<path d="M419.639 31.707L419.846 31.5001H408.63L408.837 31.707C408.837 31.707 410.935 32.0173 410.935 35.7115V58.6898C410.935 62.3841 408.837 62.6944 408.837 62.6944L408.63 62.9161H419.846L419.639 62.6944C419.639 62.6944 417.541 62.3841 417.541 58.6898V35.7115C417.541 32.0173 419.639 31.707 419.639 31.707Z" fill="#00777D"/>
<path d="M349.699 59.9015C342.946 59.9015 338.291 55.4832 338.291 47.4002C338.291 39.3171 342.813 34.0565 349.95 34.0565C357.088 34.0565 359.999 39.8048 359.999 39.8048L360.176 39.9525V33.1551C360.176 33.1551 355.743 30.9829 349.448 30.9829C338.055 30.9829 330.903 38.002 330.903 47.4149C330.903 54.9956 336.799 63.3594 348.975 63.3594C353.571 63.3594 358.92 61.5418 358.92 61.5418L361.373 53.1337L361.107 53.311C361.107 53.311 357.117 59.872 349.685 59.872L349.699 59.9015Z" fill="#00777D"/>
<path d="M382.504 31.5149L382.711 31.7365C382.711 31.7365 384.81 32.0468 384.81 35.7411V58.7194C384.81 62.4136 382.711 62.724 382.711 62.724L382.504 62.9456H393.72L393.498 62.724C393.498 62.724 391.415 62.4136 391.415 58.7194V47.6071H398.035C401.729 47.6071 402.04 49.2325 402.04 49.2325L402.261 49.4542V42.7011L402.04 42.9227C402.04 42.9227 401.729 44.5334 398.035 44.5334H391.415V34.4998H399.38C403.089 34.4998 404.626 36.6277 404.626 36.6277L404.847 36.7903V31.1898C404.847 31.1898 404.315 31.5444 400.606 31.5444H382.519L382.504 31.5149Z" fill="#00777D"/>
<path d="M376.46 31.707L376.667 31.5001H365.437L365.658 31.707C365.658 31.707 367.757 32.0173 367.757 35.7115V58.6898C367.757 62.3841 365.658 62.6944 365.658 62.6944L365.437 62.9161H376.667L376.46 62.6944C376.46 62.6944 374.347 62.3841 374.347 58.6898V35.7115C374.347 32.0173 376.46 31.707 376.46 31.707Z" fill="#00777D"/>
<path d="M453.242 53.3405C453.242 53.3405 449.267 59.9015 441.819 59.9015C435.081 59.9015 430.411 55.4832 430.411 47.4002C430.411 39.3171 434.948 34.0565 442.07 34.0565C449.193 34.0565 452.134 39.8048 452.134 39.8048L452.311 39.9525V33.1551C452.311 33.1551 447.863 30.9829 441.568 30.9829C430.19 30.9829 423.023 38.002 423.023 47.4297C423.023 55.0103 428.919 63.3741 441.11 63.3741C445.706 63.3741 451.055 61.5566 451.055 61.5566L453.523 53.1484L453.242 53.3258V53.3405Z" fill="#00777D"/>
<path d="M290.015 51.7884C296.93 51.7884 301.068 46.5426 301.068 41.4888C301.068 38.6812 300.033 33.7013 293.029 31.9428C291.463 31.5439 289.734 31.5143 287.443 31.5143H275.134L275.341 31.7064C275.341 31.7064 277.439 32.0167 277.439 35.711V58.6893C277.439 62.3835 275.341 62.6939 275.341 62.6939L275.134 62.9155H286.35L286.143 62.6939C286.143 62.6939 284.059 62.3835 284.059 58.6893V50.6801C285.035 51.1087 287.015 51.7736 290.029 51.7736L290.015 51.7884ZM284.045 35.7258V34.514H285.522C287.325 34.514 289.202 34.514 290.325 34.8835C293.28 35.7553 294.788 38.0162 294.788 41.5775C294.788 44.4738 292.94 48.7887 287.842 48.7887C286.365 48.7887 284.828 48.1976 284.059 47.8577V35.7405L284.045 35.7258Z" fill="#00777D"/>
</svg>
