<svg>
<g>
	<path class="st0" d="M522,301.8l-23.5,34c-3.1,4.5-8.1,8.8-14.2,9.2v1h26.1c6.9,0,12-4.5,15.4-9.5l24.1-34.8H522z"/>
	<path class="st1" d="M284.1,328.8H297l-6.7-12.4L284.1,328.8z M306.8,346.1l-5.1-8.9h-22.1l-4.6,8.9h-11l22-40.5h10l24.9,40.5
		H306.8z M47.1,328.8h13.2l-6.9-12.4L47.1,328.8z M70.5,346.1l-5.2-8.9H42.6l-4.7,8.9H26.6l22.6-40.5h10.3l25.6,40.5H70.5z
		 M136.4,324.2c4.7,0,6.9-2.4,6.9-5.1c0-2.7-2-4.9-6.9-4.9h-12.6v10H136.4z M145.8,330.9l16.4,15.2h-12.6c-2.8,0-4.6-0.9-6.1-2.3
		L132.3,333c-0.2-0.2-0.5-0.3-1-0.3h-7.6v13.4h-11.8v-40.6h25.6c13.3,0,18.9,6,18.9,12.6C156.5,325.8,149.6,329.5,145.8,330.9
		 M237.9,324.2c4.7,0,6.9-2.4,6.9-5.1c0-2.7-2-4.9-6.9-4.9h-12.6v10H237.9z M247.4,330.9l16.4,15.2h-12.6c-2.8,0-4.6-0.9-6.1-2.3
		L233.9,333c-0.2-0.2-0.5-0.3-1-0.3h-7.6v13.4h-11.8v-40.6h25.6c13.3,0,18.9,6,18.9,12.6C258.1,325.8,251.2,329.5,247.4,330.9
		 M431,346.1v-40.6h41.1v8.7h-29.2v7h28.8v8.7h-28.8v7.4h29.1v8.7H431z M166.7,346.1v-40.6h39.6v8.7h-27.7v10.1h27.1v8.7h-27.1v13.1
		H166.7z M423.8,318.7c-5.4-2.6-11.4-4.8-19.4-4.8c-9.5,0-16.6,4.9-16.6,11.8c0,7,7.2,12,16.6,12c7.7,0,13.8-2,19.8-5.4v10
		c-5.3,2.6-12.4,4.6-20.3,4.6c-16.2,0-29-8.3-29-21.2c0-12.7,13-20.9,28.9-20.9c7.5,0,14.3,1.4,20,3.7V318.7z M362,346.1L333.5,322
		v24.1h-10v-40.6h8.5l28.1,23.7v-23.7h10v40.6H362z M89,305.6h11.8v40.6H89V305.6z"/>
	<path class="st2" d="M616.5,308.6L616.5,308.6c4.7,4.8,7.8,11.2,8.3,18.3c1.1,15.9-10.8,29.6-26.7,30.7c-7.5,0.5-14.4-1.8-19.9-6.1
		l0,0c5.6,5.3,13.4,8.2,21.6,7.6c15.9-1.1,27.8-14.9,26.7-30.7C626,320.4,622.2,313.4,616.5,308.6"/>
	<path class="st2" d="M565.5,341.3c-0.9,0.5-1.1,1.3-0.6,2.5c0.4,1.1,1.1,1.5,1.8,1.2c0.6-0.2,0.7-0.7,0.4-2l-0.1-0.5
		c-0.2-1.3-0.3-1.8-0.1-2.4c0.2-0.6,0.5-1,1-1.2c1.3-0.5,2.5,0.3,3.3,2.1c0.8,2,0.4,3.5-1.2,4.1l-0.4-1c1.1-0.5,1.3-1.5,0.8-2.9
		c-0.5-1.1-1.2-1.7-2-1.4c-0.6,0.3-0.8,0.8-0.5,2.2l0.1,0.6l0.1,0.5c0.2,1,0.2,1.3,0.1,1.8c-0.1,0.5-0.5,0.9-1,1.1
		c-1.2,0.5-2.4-0.2-3.1-1.9c-0.7-1.8-0.3-3.1,1.1-3.7L565.5,341.3z"/>
</g>
<polygon class="st2" points="564.7,330.9 569.1,327.2 569.1,328.6 565.4,331.7 566.6,333 569.2,333 569.2,334 561.8,334.2
	561.8,333.1 564.7,333.1 565.1,333.1 565.4,333 565.2,332.8 565,332.5 561.7,329 561.6,327.6 "/>
<g>
	<path class="st2" d="M568,319.4l2.9,1l-0.4,1l-2.9-1l-5.1,1.6l0.4-1.2l3.2-0.9l0.4-0.1c0.2-0.1,0.3-0.1,0.5-0.1
		c-0.3-0.3-0.3-0.4-0.6-0.7l-2-2.7l0.4-1.2L568,319.4z"/>
</g>
<polygon class="st2" points="573,305.8 571.4,307.7 576.1,311.5 575,312.9 570.3,309.1 568.7,311 567.7,310.1 571.9,304.9 "/>
<polygon class="st2" points="583,298.8 579.3,300.9 580.1,302.3 583.5,300.3 584.1,301.4 580.7,303.4 581.6,305 585.4,302.7
	586.1,303.9 580.8,307.1 577,300.7 582.3,297.6 "/>
<g>
	<path class="st2" d="M593.1,297.8c-0.4-0.7-0.6-1-0.8-1.5c-0.1,0.5-0.1,0.9-0.3,1.7l-0.3,1.4l2.2-0.3L593.1,297.8z M597.4,301.6
		l-1.9,0.1l-1-1.6l-3,0.5l-0.4,1.8l-1.8,0.5l1.9-8.1l1.8-0.3L597.4,301.6z"/>
	<path class="st2" d="M609.3,304l-1.6-0.6l0.6-2.2c0-0.3,0.2-0.6,0.3-1.1c0.1-0.5,0.2-0.8,0.3-1.1c0.1-0.3,0.2-0.6,0.3-0.9l0.2-0.5
		c-0.4,0.8-0.6,1-1,1.6c-0.2,0.3-0.3,0.5-0.5,0.7l-2.1,3l-1.4-0.4l-0.4-3.6c0-0.2,0-0.4-0.1-0.8c0-0.5-0.1-0.8-0.1-1.1
		c0-0.2,0-0.5,0-0.9l-0.2,0.9c-0.2,1-0.3,1.4-0.6,2.6l-0.6,2.4l-1.7-0.3l1.9-7.3l2.5,0.5l0.4,3.4c0.1,0.8,0.1,1.5,0.1,2.4
		c0.3-0.5,0.4-0.7,0.7-1.2c0.2-0.3,0.4-0.6,0.6-0.9l1.9-2.8l2.4,0.8L609.3,304z"/>
	<path class="st2" d="M609.1,328c2.1-1.4,3.9-2.2,5-2.2c0.6,0,1.4,0.2,1.4,1c0,0.8-0.8,1.5-2.3,2.1c-1.4,0.5-3.5,0.6-5.7,0.4
		C608.2,328.7,608.7,328.3,609.1,328 M579,330.6c-1.3-0.1-2-0.6-2-1.7c0-0.1,0.1-3.4,7.5-3.8c0.8,0,1.8-0.1,3.2,0.1
		c-0.1,0-0.8,0.7-0.8,0.7l-0.5,0.4C584.7,328.1,581.7,330.8,579,330.6 M595.1,318.3c-0.9,0.8-2.7,2.5-4.4,4.2l-2,1.9
		c-1.6-0.3-3.2-0.4-4.8-0.4c-3.6,0-6.9,1-8.4,2.6c-0.6,0.6-0.9,1.2-0.8,1.9c0,1.7,2,2.6,2.6,2.9c3.2,1.2,5.9,0.9,8.7-1.1
		c1.6-1.1,3.4-2.9,4.9-4.3c1.1,0.3,2.4,0.6,3.8,1l1.3,0.4c-1.7,1.6-3.4,3.4-5,4.8l-0.1,0.1c-2.2,1.9-3.8,3.4-6.1,3.9
		c-1.6,0.4-2.8,0-3.2-0.2c0,0-0.1,0.1-0.1,0.1c1.3,1.1,2.6,1.7,4.8,1.5c2.1-0.2,4.5-1.5,6.9-3.8l3.3-3.2l2.3-2.3
		c0,0,4.7,1.4,4.7,1.4c0,0,0.1,0,0.1,0c0,0-2.9,2.8-2.9,2.8l-2.5,2.5c-2.6,2.5-3.9,3.7-5.4,4.8c-2.4,1.7-4.6,2.7-6.4,2.8
		c-1,0.1-2.3,0-3.5-0.7c-0.1,0-0.1,0.1-0.1,0.1c1.2,1.1,2.8,2.4,5.4,2.3c3-0.1,5.7-1.5,9.8-5.3c1.9-1.7,3.7-3.7,5.4-5.4l3.1-3.1
		c2,0.4,3.8,0.6,5.8,0.6c2.9-0.1,5.4-1.5,5.4-3.1c0-1.2-1-1.8-1.5-2.2c-0.5-0.3-1.8-1-3.6-1c-2.2,0-4.5,1-6.8,2.9l-1.5,1.4
		c0,0-0.6-0.2-0.6-0.2l-4.3-1.2c1.3-1.2,2.3-2.2,3.3-3c2.3-2.1,4.9-3,6.4-3c1.1-0.1,3,0,3.8,0.6c0,0,0.1-0.1,0.1-0.1
		c-2.1-1.8-3.9-2-5.4-2c-1.5,0-3.8,0.5-6.7,2.7c-1.2,0.9-2.7,2.5-4.3,4.1c0,0-2.2-0.7-2.2-0.7l-0.5-0.2l-2.3-0.7
		c0,0,1.3-1.2,1.3-1.2c1.5-1.5,3-2.9,4.1-3.9c4.1-3.4,6.7-3.9,8.5-3.9c2,0,3.5,0.4,4.7,1.2c0,0,0.1-0.1,0.1-0.1
		c-2.3-2.1-4-2.8-6.8-2.8C601,314.4,598.1,315.8,595.1,318.3"/>
	<path class="st2" d="M613.5,298.4c0.1,0.1,0.4,0.2,0.5,0.1c0.1-0.1-0.1-0.2-0.2-0.3l-0.3-0.2l-0.2,0.3L613.5,298.4z M613.7,299.4
		l-0.2-0.1l0-0.7l-0.2-0.1l-0.3,0.5l-0.2-0.1l0.6-1.2l0.5,0.3c0.2,0.1,0.4,0.3,0.2,0.5c-0.1,0.2-0.3,0.2-0.5,0.1L613.7,299.4z
		 M614.4,299.1c0.3-0.5,0.1-1.1-0.4-1.4c-0.5-0.3-1.1-0.1-1.4,0.4c-0.3,0.5-0.1,1.1,0.4,1.4C613.5,299.7,614.1,299.6,614.4,299.1
		 M612.4,298.1c0.3-0.6,1-0.9,1.6-0.6c0.6,0.3,0.9,1,0.6,1.6c-0.3,0.6-1,0.9-1.6,0.6C612.4,299.4,612.1,298.7,612.4,298.1"/>
</g>
</svg>
