<svg width="368" height="92" viewBox="0 0 368 92" fill="none" xmlns="http://www.w3.org/2000/svg">
<g clip-path="url(#clip0_3821_15432)">
<path d="M50.013 36.4544C48.915 35.0504 46.755 33.3854 42.777 33.3854H9.531L0 68.2874H9.342L16.785 41.0264H25.119L17.676 68.2874H27.018L34.443 41.0264H38.025C39.51 41.0264 40.554 41.4044 41.148 42.1604C42.012 43.2494 41.742 44.8694 41.508 45.7424L35.352 68.2784H44.694L51.309 44.0594C52.083 41.2334 51.606 38.4524 50.013 36.4454V36.4544Z" fill="#00447C"/>
<path d="M88.713 36.7149C87.066 34.6359 84.15 33.3939 80.901 33.3939H60.714L58.725 40.6659H76.383C78.219 40.6659 79.488 41.0979 80.163 41.9529C80.847 42.8079 80.946 44.1039 80.487 45.8049L80.109 47.1729H65.34C58.68 47.1729 53.433 51.1869 51.669 57.6669C50.787 60.9159 51.102 63.6429 52.596 65.5239C54.027 67.3239 56.493 68.2869 59.715 68.2869H83.691L89.811 45.8679C90.855 42.0339 90.495 38.9469 88.722 36.7059L88.713 36.7149ZM76.329 61.0149H64.971C63.882 61.0149 62.37 60.9249 61.713 60.097C61.317 59.584 61.254 58.8099 61.524 57.7929C62.334 54.8409 64.692 54.4449 66.906 54.4449H78.111L76.32 61.0149H76.329Z" fill="#00447C"/>
<path d="M142.632 36.7064C140.994 34.6364 138.069 33.3854 134.82 33.3854H114.624L112.644 40.6574H130.302C132.138 40.6574 133.407 41.0894 134.082 41.9444C134.766 42.7994 134.865 44.0954 134.406 45.7964L134.037 47.1644H119.268C112.59 47.1644 107.352 51.1784 105.588 57.6584C104.697 60.9074 105.021 63.6344 106.515 65.5154C107.946 67.3154 110.403 68.2784 113.634 68.2784H137.61L143.721 45.8594C144.774 42.0254 144.414 38.9384 142.641 36.6884L142.632 36.7064ZM130.248 61.0154H118.89C117.81 61.0154 116.298 60.9254 115.632 60.0974C115.227 59.5844 115.173 58.8104 115.443 57.7934C116.253 54.8414 118.62 54.4454 120.825 54.4454H132.039L130.248 61.0154Z" fill="#00447C"/>
<path d="M175.608 33.3854L168.165 60.6464H158.985C157.518 60.6464 156.456 60.2684 155.871 59.5214C155.007 58.4324 155.286 56.7674 155.529 55.8764L161.667 33.3944H152.325L145.953 56.7404C144.963 60.3494 145.269 63.1844 146.844 65.1644C148.878 67.7474 152.559 68.2964 155.295 68.2964H166.086L165.123 71.7344C164.547 73.8404 162.09 76.0814 158.67 76.0814H141.525L139.536 83.3534H159.489C165.069 83.3534 172.611 78.5384 174.501 71.6174L184.95 33.4034H175.608V33.3854Z" fill="#00447C"/>
<path d="M217.458 49.9364C216.018 48.1274 213.561 47.1734 210.339 47.1734H200.718C199.575 47.1734 198 47.0834 197.325 46.2194C196.929 45.7244 196.866 44.9774 197.127 44.0144C197.928 41.0534 200.358 40.6574 202.626 40.6574H221.202L223.182 33.3854H200.943C194.274 33.3854 189.036 37.4084 187.263 43.8794C186.381 47.1014 186.714 49.8014 188.19 51.6824C189.621 53.4824 192.087 54.4454 195.336 54.4454H204.957C206.082 54.4454 207.666 54.5354 208.341 55.3904C208.737 55.8944 208.809 56.6594 208.53 57.6674C207.72 60.6194 205.299 61.0154 203.031 61.0154H182.592L180.612 68.2874H204.714C211.383 68.2874 216.63 64.2644 218.394 57.7934C219.276 54.5534 218.952 51.8354 217.458 49.9364Z" fill="#00447C"/>
<path d="M229.383 33.3854L219.852 68.2874H229.194L238.725 33.3854H229.383Z" fill="#00447C"/>
<path d="M273.078 36.7064C271.449 34.6364 268.524 33.3854 265.257 33.3854H245.07L243.09 40.6574H260.739C262.575 40.6574 263.844 41.0894 264.528 41.9444C265.203 42.7994 265.311 44.0954 264.843 45.7964L264.474 47.1644H249.696C243.027 47.1644 237.789 51.1784 236.025 57.6584C235.134 60.9074 235.458 63.6344 236.943 65.5154C238.374 67.3154 240.84 68.2784 244.071 68.2784H268.038L274.158 45.8594C275.211 42.0254 274.833 38.9384 273.069 36.6884L273.078 36.7064ZM260.685 61.0154H249.336C248.256 61.0154 246.735 60.9254 246.078 60.0974C245.673 59.5844 245.61 58.8104 245.889 57.7934C246.69 54.8414 249.057 54.4454 251.262 54.4454H262.485L260.676 61.0154H260.685Z" fill="#00447C"/>
<path d="M101.187 23.9264L89.091 68.2874H98.433L110.538 23.9264H101.187Z" fill="#00447C"/>
<path d="M191.664 77.2153C190.845 76.1443 189.387 76.0543 188.955 76.0543H178.848L178.236 78.2863H187.479C188.235 78.2863 188.838 78.5023 189.162 78.9343C189.423 79.2763 189.423 79.8433 189.315 80.3653C189.216 80.8423 188.793 82.2823 188.793 82.2823H181.764C178.461 82.2823 176.148 83.9563 175.365 87.1153C175.005 88.5553 175.347 89.6803 175.95 90.4813C176.589 91.3183 177.822 91.7683 179.505 91.7683H188.955L191.97 80.6263C192.375 79.1593 192.267 78.0073 191.664 77.2153ZM186.804 89.5723H180.648C179.505 89.5723 178.767 89.3383 178.398 88.8523C178.083 88.4383 177.957 87.8533 178.182 87.0523C178.65 85.3063 179.928 84.4783 181.953 84.4783H188.19L186.795 89.5633L186.804 89.5723Z" fill="#00447C"/>
<path d="M194.346 91.769L198.594 76.064H195.885L191.619 91.769H194.346Z" fill="#00447C"/>
<path d="M209.61 91.7687L215.055 71.7617H212.328L206.892 91.7687H209.61Z" fill="#00447C"/>
<path d="M214.983 91.769L219.249 76.064H216.522L212.274 91.769H214.983Z" fill="#00447C"/>
<path d="M221.913 76.064L217.656 91.769H220.374L224.037 78.296H229.095C230.202 78.296 230.931 78.521 231.345 79.115C231.822 79.808 231.624 80.735 231.291 81.995L228.636 91.769H231.39L234.243 81.248C234.711 79.556 234.531 78.26 233.865 77.405C233.199 76.523 231.93 76.064 230.103 76.064H221.913Z" fill="#00447C"/>
<path d="M238.995 82.5253C239.688 80.7703 241.524 78.2863 244.755 78.2863H250.236L250.839 76.0543H244.395C239.76 76.0543 236.61 80.0233 235.539 83.9563C234.855 86.4673 235.071 88.7083 236.133 90.0943C236.979 91.2013 238.302 91.7593 240.066 91.7593H246.573L247.167 89.5633H241.587C240.219 89.5633 239.229 89.2753 238.653 88.5913C237.978 87.8083 237.924 86.4133 238.311 84.9643L238.347 84.8563H248.094L248.679 82.6873H238.932L238.986 82.5163L238.995 82.5253Z" fill="#00447C"/>
<path d="M266.004 78.3767L266.616 76.1537H258.012C253.584 76.1537 252.198 78.9887 251.721 80.6987C251.388 81.9137 251.613 82.9847 252.108 83.6237C252.729 84.4427 253.728 84.8657 255.411 84.8657H259.65C262.233 84.8657 261.801 86.7917 261.603 87.4127C260.964 89.3927 258.858 89.5727 256.662 89.5727H249.273L248.688 91.7687H259.074C261.729 91.7687 263.934 90.1037 264.573 87.2777C264.879 85.9277 264.609 84.7667 263.961 83.9837C263.367 83.2727 262.377 82.7057 260.559 82.7057H256.923C256.563 82.7057 255.357 82.7417 254.943 82.1027C254.664 81.6887 254.664 81.2297 254.853 80.5727C255.411 78.6467 257.22 78.3857 258.021 78.3857H266.004V78.3767Z" fill="#00447C"/>
<path d="M205.731 76.0543C201.015 76.0543 200.097 80.4373 200.016 80.7523C199.926 81.0763 197.001 91.8583 197.001 91.8583H199.719C199.719 91.8583 202.527 81.4993 202.635 81.1663C202.797 80.6623 203.544 78.3133 206.172 78.3133H208.449L209.07 76.0543H205.731Z" fill="#00447C"/>
<path d="M287.451 34.5827L287.172 35.6177H294.93C295.821 35.6177 300.024 35.7797 298.773 40.2527C297.459 44.8967 296.487 48.5597 296.487 48.5597C295.875 50.6477 293.958 52.9427 290.799 53.0237H282.339L281.871 54.8057L301.572 54.8237C303.462 54.7517 306.396 53.3297 307.305 50.2877L309.753 41.4317C309.753 41.4317 311.058 36.2477 316.773 35.7797C316.773 35.7797 322.281 35.4827 321.084 41.2787L315.774 60.6377C314.784 64.2287 311.454 66.4517 308.421 66.4877H278.64L278.136 68.2877H313.65C334.602 67.4417 347.823 52.9247 352.719 43.7987C352.719 43.7987 356.652 36.3557 365.193 35.7797L367.299 35.6447C367.299 35.6447 367.443 35.6447 367.488 35.5097C367.542 35.3387 367.65 34.9517 367.758 34.5827H287.451Z" fill="#00447C"/>
<path d="M367.686 34.8437C367.713 34.7627 367.731 34.6727 367.758 34.5827C367.731 34.6727 367.713 34.7537 367.686 34.8437Z" fill="#E31B23"/>
<path d="M301.887 28.9127C300.681 33.3857 296.532 33.5207 295.938 33.5207H287.739L287.451 34.5827H367.758C367.884 34.1327 367.992 33.7007 368.001 33.6557C368.019 33.5657 367.983 33.5477 367.911 33.5297C367.848 33.5207 365.832 33.3857 365.832 33.3857C357.633 32.8007 357.795 25.3667 357.795 25.3667C357.939 16.2587 352.701 1.73272 332.217 0.886719H296.748L296.262 2.66872H325.998C329.022 2.73172 331.119 4.93672 330.129 8.51872L324.801 27.8867C322.776 33.6827 317.439 33.3857 317.439 33.3857C311.985 32.9177 313.515 27.7427 313.515 27.7427L315.954 18.8597C316.719 15.8537 314.577 14.4137 312.705 14.3597L293.031 14.3777L292.545 16.1327H300.969C304.065 16.2047 304.731 18.5267 304.182 20.6057C304.182 20.6057 303.129 24.2867 301.887 28.9127Z" fill="#E31B23"/>
<path d="M367.542 35.3297C367.542 35.3297 367.56 35.2577 367.569 35.2217C367.56 35.2577 367.551 35.2937 367.542 35.3297Z" fill="#E31B23"/>
</g>
<defs>
<clipPath id="clip0_3821_15432">
<rect width="368.006" height="90.9716" fill="white" transform="translate(0 0.886719)"/>
</clipPath>
</defs>
</svg>
