<svg width="335" height="67" viewBox="0 0 335 67" fill="none" xmlns="http://www.w3.org/2000/svg">
<path d="M25.1949 66.8332H92.9919L38.6567 12.2616C31.416 5.02082 21.604 0.720703 11.3635 0.720703H0L0.842302 2.93726L25.1949 66.8184V66.8332Z" fill="url(#paint0_linear_3817_9105)"/>
<path d="M4.61033 12.8233C12.0284 25.502 31.5193 26.832 33.6324 46.5445C33.7211 47.3573 34.3417 48.0075 35.1545 48.1257C46.385 49.8841 57.32 54.4946 66.8069 62.1195C66.8069 62.1195 66.9399 62.1934 67.0137 62.1934C67.0876 62.1934 67.1763 62.1639 67.2502 62.1048C67.3832 61.9718 67.398 61.7649 67.2502 61.6319C60.6744 54.7162 52.6357 49.1896 43.6069 45.5545L40.8584 44.4462C39.4398 43.8847 38.4645 42.4809 38.5089 40.8702C38.6566 34.9741 52.5914 36.1858 53.9952 33.3486L54.2316 32.861C51.3649 30.408 47.9514 28.5609 44.198 27.5413C44.1684 27.689 44.0798 28.3688 44.8334 29.6101C45.6609 30.9548 43.932 33.1122 41.3904 30.7922L41.1835 30.6001C22.3723 13.3553 8.26025 22.2954 0.797852 2.9375L4.566 12.8086L4.61033 12.8233Z" fill="white"/>
<path d="M49.8578 32.5509C49.8578 32.5509 46.7694 32.6986 44.8779 29.625C45.4394 30.5412 44.8188 31.8268 43.5775 31.8268V36.5259C45.602 35.9348 47.922 35.5801 49.8725 35.1664V32.5509H49.8578Z" fill="url(#paint1_linear_3817_9105)"/>
<path d="M37.4745 48.539C47.8775 50.5487 57.9702 55.0413 66.8069 62.1195C47.0943 45.2737 38.1099 48.3174 37.4745 48.539Z" fill="url(#paint2_linear_3817_9105)"/>
<path d="M8.57055 13.7108C5.5117 11.5386 2.91095 8.33197 0.842163 2.95312L4.61033 12.8233C12.0284 25.502 31.5045 26.832 33.6324 46.5445C31.4898 21.394 20.4365 25.1482 8.57055 13.7108Z" fill="url(#paint3_linear_3817_9105)"/>
<path d="M99.8779 54.7011C86.4752 54.7011 77.9636 47.7264 77.9636 38.9931C77.9636 30.2599 86.9776 23.2852 100.262 23.2852C113.547 23.2852 122.561 30.1417 122.561 38.6533C122.561 42.4658 120.861 45.5837 117.625 48.1992H125.516L123.625 51.4354C122.428 53.4746 120.965 54.7159 117.803 54.7159H99.8632L99.8779 54.7011ZM100.262 47.5786C107.577 47.5786 113.739 43.9582 113.739 38.9931C113.739 34.0281 107.577 30.4077 100.262 30.4077C92.9475 30.4077 86.7855 34.0281 86.7855 38.9931C86.7855 43.9582 92.9475 47.5786 100.262 47.5786Z" fill="#2A2928"/>
<path d="M158.454 49.3819H137.353L134.353 54.7016H125.605L140.234 29.359C141.387 27.3493 143.042 25.8125 146.352 25.8125H149.632C152.942 25.8125 154.597 27.3493 155.75 29.359L170.379 54.7016H161.439L158.439 49.3819H158.454ZM154.863 43.0277L148.391 31.5164C148.243 31.2505 148.125 31.1766 147.889 31.1766C147.652 31.1766 147.549 31.2505 147.386 31.5164L140.914 43.0277H154.863Z" fill="#2A2928"/>
<path d="M212.05 25.8125V54.7016H204.233L181.285 35.5653V54.7016H173.468V25.8125H178.359C180.856 25.8125 182.127 26.4627 183.56 27.704L204.248 44.9192V25.8125H212.065H212.05Z" fill="#2A2928"/>
<path d="M239.861 32.329V54.7015H232.044V32.329H216.025V25.8271H255.879V32.329H239.861Z" fill="#2A2928"/>
<path d="M281.902 49.3819H260.8L257.8 54.7016H249.052L263.682 29.359C264.834 27.3493 266.489 25.8125 269.799 25.8125H273.08C276.39 25.8125 278.045 27.3493 279.197 29.359L293.827 54.7016H284.887L281.887 49.3819H281.902ZM278.311 43.0277L271.838 31.5164C271.691 31.2505 271.572 31.1766 271.336 31.1766C271.1 31.1766 270.996 31.2505 270.834 31.5164L264.361 43.0277H278.311Z" fill="#2A2928"/>
<path d="M296.546 52.6181L295.807 52.3816L297.772 46.1014C303.387 47.9042 309.402 48.6431 314.84 48.6431C323.735 48.6431 325.937 47.6087 325.937 46.4856C325.937 46.0275 325.627 45.6729 324.932 45.4512C324.046 45.1409 321.578 44.6385 314.308 43.4563C306.254 42.1412 302.634 41.491 299.989 40.2645C297.329 39.038 295.718 37.0726 295.718 34.1763C295.718 31.9746 296.797 30.2161 298.526 28.827C301.599 26.4332 306.889 25.4727 312.623 25.4727C320.011 25.4727 326.218 26.0933 333.104 27.7779L333.725 27.97L332.07 34.0877C324.371 32.4326 320.085 31.9746 314.234 31.8859C310.111 31.8416 307.259 32.1519 305.766 32.61C304.924 32.876 304.569 33.2602 304.569 33.733C304.569 34.1616 304.835 34.5458 305.693 34.8117C306.623 35.1221 308.116 35.4619 316.007 36.7328C324.563 38.1218 327.37 38.6981 329.72 39.6143C332.912 40.8408 334.848 43.1164 334.848 45.9684C334.848 49.5444 332.07 52.2043 327.267 53.6672C324.297 54.5539 320.337 55.0563 315.874 55.0563C308.87 55.0563 301.392 54.1253 296.575 52.5885L296.546 52.6181Z" fill="#2A2928"/>
<defs>
<linearGradient id="paint0_linear_3817_9105" x1="58.9308" y1="66.5967" x2="13.6983" y2="0.543387" gradientUnits="userSpaceOnUse">
<stop stop-color="#B11116"/>
<stop offset="0.35" stop-color="#CB151C"/>
<stop offset="0.75" stop-color="#E41A21"/>
<stop offset="1" stop-color="#ED1C24"/>
</linearGradient>
<linearGradient id="paint1_linear_3817_9105" x1="42.1301" y1="69.2398" x2="45.9109" y2="2.26927" gradientUnits="userSpaceOnUse">
<stop offset="0.65" stop-color="white" stop-opacity="0"/>
<stop offset="0.68" stop-color="#EEEEEF" stop-opacity="0.17"/>
<stop offset="0.75" stop-color="#D1D2D3" stop-opacity="0.46"/>
<stop offset="0.81" stop-color="#BABCBE" stop-opacity="0.7"/>
<stop offset="0.86" stop-color="#AAACAE" stop-opacity="0.86"/>
<stop offset="0.91" stop-color="#A0A2A5" stop-opacity="0.96"/>
<stop offset="0.95" stop-color="#9D9FA2"/>
</linearGradient>
<linearGradient id="paint2_linear_3817_9105" x1="0" y1="33.8046" x2="92.9919" y2="33.8046" gradientUnits="userSpaceOnUse">
<stop stop-color="white" stop-opacity="0"/>
<stop offset="0.04" stop-color="#F7F7F7" stop-opacity="0.08"/>
<stop offset="0.18" stop-color="#DBDCDD" stop-opacity="0.36"/>
<stop offset="0.33" stop-color="#C5C6C8" stop-opacity="0.59"/>
<stop offset="0.48" stop-color="#B3B5B7" stop-opacity="0.77"/>
<stop offset="0.62" stop-color="#A7A8AB" stop-opacity="0.9"/>
<stop offset="0.76" stop-color="#9FA1A4" stop-opacity="0.97"/>
<stop offset="0.9" stop-color="#9D9FA2"/>
</linearGradient>
<linearGradient id="paint3_linear_3817_9105" x1="0.842163" y1="24.7493" x2="33.6324" y2="24.7493" gradientUnits="userSpaceOnUse">
<stop offset="0.25" stop-color="white" stop-opacity="0"/>
<stop offset="0.37" stop-color="#F3F4F4" stop-opacity="0.11"/>
<stop offset="0.6" stop-color="#D6D7D8" stop-opacity="0.41"/>
<stop offset="0.92" stop-color="#A8AAAC" stop-opacity="0.88"/>
<stop offset="1" stop-color="#9D9FA2"/>
</linearGradient>
</defs>
</svg>
