<svg width="24" height="24" viewBox="0 0 24 24" fill="none" xmlns="http://www.w3.org/2000/svg">
<path fill-rule="evenodd" clip-rule="evenodd" d="M12 20.5C16.6944 20.5 20.5 16.6944 20.5 12C20.5 7.30558 16.6944 3.5 12 3.5C7.30558 3.5 3.5 7.30558 3.5 12C3.5 16.6944 7.30558 20.5 12 20.5ZM12 22C17.5228 22 22 17.5228 22 12C22 6.47715 17.5228 2 12 2C6.47715 2 2 6.47715 2 12C2 17.5228 6.47715 22 12 22Z" fill="#DF0B37"/>
<path fill-rule="evenodd" clip-rule="evenodd" d="M12 20.5C16.6944 20.5 20.5 16.6944 20.5 12C20.5 7.30558 16.6944 3.5 12 3.5C7.30558 3.5 3.5 7.30558 3.5 12C3.5 16.6944 7.30558 20.5 12 20.5ZM15.1816 16.1728C15.2331 16.5838 15.608 16.8753 16.019 16.8238C16.43 16.7723 16.7214 16.3974 16.67 15.9864C16.4246 14.0275 14.5103 12.2626 12.0012 12.2626L11.9988 12.2626C9.48972 12.2626 7.5754 14.0275 7.33003 15.9864C7.27855 16.3974 7.57 16.7723 7.981 16.8238C8.392 16.8753 8.76692 16.5838 8.8184 16.1728C8.96095 15.0348 10.1729 13.7626 11.9988 13.7626L12.0012 13.7626C13.8271 13.7626 15.0391 15.0348 15.1816 16.1728ZM9.47192 9.70911C9.47192 10.4812 8.84599 11.1072 8.07385 11.1072C7.30172 11.1072 6.67578 10.4812 6.67578 9.70911C6.67578 8.93697 7.30172 8.31104 8.07385 8.31104C8.84599 8.31104 9.47192 8.93697 9.47192 9.70911ZM17.3235 9.70911C17.3235 10.4812 16.6975 11.1072 15.9254 11.1072C15.1533 11.1072 14.5273 10.4812 14.5273 9.70911C14.5273 8.93697 15.1533 8.31104 15.9254 8.31104C16.6975 8.31104 17.3235 8.93697 17.3235 9.70911Z" fill="#DF0B37"/>
</svg>
