<svg>
    <defs>
        <polygon id="path-1" points="0 0.102829587 111.601662 0.102829587 111.601662 111.896147 0 111.896147"></polygon>
        <polygon id="path-3" points="0 149 843 149 843 0 0 0"></polygon>
        <style>
            .cls-1 {
                fill: #120C80;
            }
        </style>
    </defs>
    <g id="Page-1" stroke="none" stroke-width="1" fill="none" fill-rule="evenodd">
        <g transform="translate(-50.000000, -231.000000)">
            <g transform="translate(50.000000, 231.000000)">
                <path class="cls-1" d="M130,41.0549006 L162.878549,41.0549006 L162.878549,54.4838323 C165.69187,51.865234 168.178927,49.0528741 171.139565,46.8885534 C180.302681,40.1888255 190.759154,38.2043953 201.890251,39.2716009 C207.66681,39.8251434 213.226726,41.1290242 218.288364,44.196265 C225.689742,48.6822564 229.893042,55.3819843 231.315517,63.6846879 C232.295175,69.4060717 232.844147,75.2657327 232.894842,81.0699095 C233.077255,101.990954 232.968067,122.914599 232.962868,143.836944 C232.962868,144.47328 232.894842,145.109182 232.851947,145.858653 L198.008015,145.858653 L198.008015,143.227918 C198.008015,124.758585 198.053077,106.288386 197.964254,87.8194865 C197.949089,84.6711866 197.716848,81.4379264 196.964665,78.3966938 C195.088106,70.8105177 190.117892,67.6760889 181.104259,67.9183992 C172.187682,68.1581087 165.638143,73.662757 163.914101,82.6226026 C163.332632,85.6451959 162.998136,88.7627194 162.983404,91.8386297 C162.898047,109.658623 162.941376,127.479483 162.941376,145.299476 L162.941376,148 L130,148 L130,41.0549006 Z" id="Fill-1"></path>
                <path class="cls-1" d="M332.488966,82.4580879 C332.978702,71.9245467 323.555643,62.2269456 312.726119,61.9729836 C300.549386,61.6876575 289.592635,71.3556371 289.563443,82.4580879 L332.488966,82.4580879 Z M365.751355,101.402432 L293.486558,101.402432 C293.049979,114.468623 301.0657,126.502848 316.652285,126.064187 C324.355168,125.846816 329.86121,122.234283 333.594793,115.741917 C334.47623,114.208998 335.436531,113.729389 337.147121,113.743764 C346.651656,113.825223 356.157499,113.782969 365.814097,113.782969 C363.996759,121.316013 360.550308,127.773529 355.267784,133.291866 C347.202391,141.717915 337.071743,146.061841 325.819147,147.912758 C312.784068,150.056841 299.911074,149.149025 287.590992,144.121188 C272.106799,137.801325 262.25239,126.400479 258.219476,110.172179 C255.079763,97.536808 255.029221,84.9136345 259.635091,72.5727379 C266.229533,54.9038671 278.975737,43.8528185 297.0598,39.0271053 C308.455309,35.9860958 319.950159,36.3790181 331.136092,40.1222347 C346.585865,45.2925171 356.456831,56.2006849 361.91146,71.2933445 C365.234606,80.4873779 366.607522,91.6482008 365.751355,101.402432 L365.751355,101.402432 Z" id="Fill-3"></path>
                <g id="Group-7" transform="translate(0.000000, 37.000000)">
                    <mask id="mask-2" fill="white">
                        <use xlink:href="#path-1"></use>
                    </mask>
                    <g id="Clip-6"></g>
                    <path class="cls-1" d="M34.9519876,56.286842 C35.3327008,59.8821728 35.4985302,63.5171611 36.1453519,67.0641183 C37.0804217,72.193021 38.9753054,76.9397292 43.0012279,80.5442117 C50.7331349,87.4655502 67.8621891,87.4590132 73.5242667,72.3211455 C76.7970109,63.5725074 76.8985922,54.6303751 75.2902202,45.5810366 C74.4115845,40.6382195 72.5323287,36.0523206 69.0290729,32.428663 C60.4150574,23.5187798 45.457414,25.6602895 39.4428403,36.5269043 C36.0385612,42.6773167 35.2167938,49.3803206 34.9519876,56.286842 M111.601662,54.0660171 C111.232236,68.1187486 108.712236,79.28127 101.894995,89.1594957 C93.789755,100.903371 82.5389643,107.895745 68.6900341,110.550624 C50.953662,113.950282 34.4141271,111.121955 20.0199566,99.6090521 C10.0515225,91.6356981 3.9279876,81.1068265 1.41753798,68.5972545 C-2.37743876,49.6845074 1.26473178,32.5716047 14.5523597,18.1536747 C22.8099721,9.19323891 33.3114915,4.1554179 45.0879876,1.50838288 C57.7040496,-1.32778833 69.8530109,0.136056031 81.3408248,5.82888093 C96.4143752,13.2984529 105.881414,25.5142973 109.767553,41.9024685 C110.87974,46.5929588 111.223988,51.4669198 111.601662,54.0660171" id="Fill-5" mask="url(#mask-2)"></path>
                </g>
                <path class="cls-1" d="M521,41.0607469 C519.519181,45.7551614 518.142455,50.1233164 516.763551,54.4910387 C507.34685,84.3234391 497.913162,114.15108 488.558742,144.002519 C488.080089,145.530832 487.483406,146.038828 485.903285,145.989067 C482.279634,145.873967 478.647708,145.890843 475.023186,145.98474 C473.697853,146.019356 473.139932,145.563285 472.76755,144.33224 C465.544202,120.466406 458.282092,96.6122557 451.026951,72.7563741 C449.545261,67.8836853 448.057038,63.01316 446.439025,57.7073336 C444.404206,64.9071089 442.482625,71.6936511 440.568449,78.4823569 C434.406065,100.339575 428.234534,122.193764 422.113961,144.062665 C421.723722,145.458571 421.200644,146.0583 419.626621,145.995557 C416.149745,145.856659 412.660239,145.862284 409.182928,145.991663 C407.527895,146.05354 406.798809,145.528669 406.271812,143.943238 C398.148649,119.512292 389.953623,95.1051448 381.779502,70.6910741 C378.698092,61.4878755 375.6267,52.2812153 372.554436,43.0749878 C372.374996,42.5388665 372.226043,41.9923603 372,41.2420502 L386.394867,41.2420502 C395.334222,71.2150796 404.281853,101.216235 413.353611,131.633652 C421.692799,101.20585 429.913086,71.2129161 438.152101,41.1516149 L452.681112,41.1516149 C460.896609,70.9922366 469.107314,100.812954 477.483087,131.236862 C477.925155,130.091059 478.204333,129.493494 478.389871,128.868236 C486.834459,100.429145 495.291677,71.9935156 503.660917,43.5327895 C504.226241,41.6098493 504.991912,40.9261757 507.047637,41.0062261 C511.583734,41.1819042 516.13159,41.0607469 521,41.0607469" id="Fill-8"></path>
                <path class="cls-1" d="M830.645774,94.799881 C830.683113,85.5524645 829.762678,78.6528556 827.456817,71.9949583 C823.957864,61.8928878 817.984158,53.8250064 807.693963,49.822904 C791.717046,43.6094441 772.623244,47.6093805 764.14917,65.9868232 C756.458333,82.6666537 756.309848,99.8156125 763.134521,116.719394 C768.521667,130.062046 778.60737,137.64867 793.498868,137.667769 C807.884562,137.685923 818.573757,131.423948 825.107972,118.506674 C829.229087,110.360388 830.541574,101.591629 830.645774,94.799881 L830.645774,94.799881 Z M830.560243,0 L843,0 L843,145.754671 L830.669653,145.754671 L830.669653,126.643863 C830.540706,126.622204 830.411758,126.601412 830.282376,126.579753 C829.388426,128.012263 828.573494,129.501084 827.587935,130.868184 C820.471501,140.745004 810.649773,146.128501 798.695415,147.612558 C786.462756,149.130836 775.330276,146.203007 765.583658,138.543609 C757.145186,131.913002 752.018106,123.027286 749.097464,112.955971 C744.690233,97.7610642 744.919907,82.5172084 750.211971,67.5267598 C754.718625,54.760664 762.730746,44.95965 775.689766,40.0535118 C790.933375,34.2818902 810.925469,35.604373 823.945273,49.2056298 C825.235183,50.5528036 826.372267,52.065017 827.438582,53.5984559 C828.462348,55.070384 829.301593,56.6700987 830.560243,58.7809597 L830.560243,0 Z" id="Fill-10"></path>
                <path class="cls-1" d="M579.553429,137.575609 C592.258762,137.339697 602.545745,131.068778 609.092244,118.965866 C615.196007,107.681068 616.729319,95.5270777 614.792732,82.9545062 C613.401216,73.9240712 610.218378,65.5762646 604.08296,58.5867893 C596.958434,50.4688342 587.809727,46.3051033 577.170637,47.3799077 C562.265938,48.8849802 552.01061,57.502029 545.971891,70.9537498 C539.738906,84.8370372 539.909322,99.0350177 545.125447,113.178024 C550.8242,128.627851 563.137099,137.547906 579.553429,137.575609 M529.001816,93.2926272 C528.944577,80.2075433 531.319564,68.6232032 537.816628,58.16691 C545.03742,46.5449107 555.508262,39.7575834 569.1008,37.6542911 C584.844572,35.2181254 598.540313,39.6385454 610.292529,50.0203858 C618.756969,57.4981332 623.931031,67.126788 626.255717,78.0951608 C629.44159,93.1251083 628.442509,107.885814 621.770691,121.924933 C615.311352,135.517335 604.4832,143.917951 589.753687,146.828537 C579.646226,148.82621 569.501473,148.36391 559.696252,144.706198 C548.679037,140.597008 540.816908,133.030957 535.5765,122.646086 C530.773624,113.127812 528.933736,102.955478 529.001816,93.2926272" id="Fill-12"></path>
                <mask id="mask-4" fill="white">
                    <use xlink:href="#path-3"></use>
                </mask>
                <g id="Clip-15"></g>
                <polygon id="Fill-14" class="cls-1" mask="url(#mask-4)" points="715 146 727 146 727 2 715 2"></polygon>
                <path class="cls-1" d="M698,50.7669722 C694.000862,51.2803145 690.006897,51.3627617 686.248276,52.3512602 C672.202155,56.0461965 664.028879,65.7198564 660.374569,79.4555597 C659.462931,82.8836275 659.288793,86.5855067 659.266379,90.1645829 C659.157328,107.209022 659.217241,124.254764 659.217241,141.300071 L659.217241,144 L647,144 L647,41.0850675 L659.207328,41.0850675 L659.207328,64.2466552 C662.82931,56.5764621 667.884914,50.2770622 674.859483,45.654378 C681.806897,41.0503528 689.446552,38.6949666 698,39.0316983 L698,50.7669722 Z" id="Fill-16" mask="url(#mask-4)"></path>
            </g>
        </g>
    </g>
</svg>
