<svg>
<style type="text/css">
	.st0{fill:#89181B;}
</style>
<path class="st0" d="M734.56,15.88c0,0-28.36,77.51-61.12,130.43c0,0,60.17-43.22,124.52-123.87l-58.17,99.37
	C812.92,78.74,895.58,0,895.58,0s-33,61.34-134.37,155c0,0,69.38-34.88,166.31-103.35l-35.25,43.19l-72.57,58.47
	c0,0,58.32-13.32,83.89-40.97c0,0-23.5,49.77-81.55,82.96c0,0,13.82,8.69,23.5,2.37c0,0-11.06,15.8-29.72,16.59
	c0,0,9.68,11.85,17.97,14.22c0,0-16.59,11.06-24.88,11.85c0,0,8.98,14.22,18.66,9.48c0,0-11.06,18.17-29.72,21.33l18.66,7.11
	c0,0-7.6,18.96-34.56,28.44c0,0,28.34,11.06-22.81,45.82c-51.14,34.76-0.69,2.37-0.69,2.37s19.35,16.59-25.57,34.76
	c0,0,25.57,2.37-11.75,30.81c0,0,16.59,17.38-33.17,30.81c0,0,38.01,9.48-11.75,34.76c0,0,6.22,21.33-31.79,26.07
	c0,0,19.35,22.91-49.07,22.12c0,0,35.25,47.4,134.77,64.79c0,0,73.26,24.49,131.32,15.8c0,0,1.21,31.3-43.02,43.94
	c0,0-58.21-2.28-124.92-36.83c0,0-15.21,23.7-52.53,14.22c0,0-17.28,30.82-85.7,2.37c0,0-8.29,22.12-30.41,6.32
	c0,0-32.48,43.45-78.79-13.43c0,0-30.41,15.01-147.91-57.68c0,0-67.73,15.8-89.85-7.9c0,0-34.31-5.79-60.13,15.8
	c0,0-2.07-20.54,33.87-49.77c0,0,12.44-11.06,13.13-27.65c0,0-0.69-15.01,28.34-27.65c0,0,11.75-6.32,17.28-11.06
	c0,0-63.59-50.56-106.44-59.26c0,0,8.29-3.95,12.44-3.95c0,0-53.22-45.03-88.47-64.79c0,0-69.81-33.97-56.67-112.98
	c0,0,9.68,18.17,18.66,21.33c0,0-29.72-79.8-0.69-150.91c0,0,8.29,38.71,22.81,56.89c0,0,21.26-110.29,33.01-123.72l-0.97,64.03
	c0,0,0.44,76.28,14.95,93.66c0,0-4.84-57.68,20.73-81.38c0,0,1.38,48.99,35.94,119.3c0,0,0.69-37.13,21.43-78.22
	c0,0-4.15,45.03,27.65,92.44c0,0-8.29-20.54,2.07-38.71c0,0,8.29,40.29,45.62,82.17l0-12.64c0,0,4.15,31.6,87.08,75.06L341,365.16
	c0,0,43.54,23.7,56.67,41.08c0,0,11.06-25.28,15.21-40.29c0,0,7.6-25.28,45.62-53.73l87.78-70.32c0,0,41.47-38.71,72.57-96.39
	l0.37,25.96C619.21,171.48,652.45,144.84,734.56,15.88z"/>
</svg>
