<svg width="856" height="830" xmlns="http://www.w3.org/2000/svg"><title>CATHAYPACIFIC</title><g transform="translate(88 88)"><path d="M659.6.2h-118c-12.1.1-24.9 7-32.9 16.8l-4.5 5.7-95.4 119.4L.4 653.6l486.1-.1h.6c9.6-.2 17.8-3.2 24.3-8.3 4.9-3.8 8.6-8.5 10.4-12.7l.1-.3 157.5-608v-.1c.2-1.2.3-2.3.3-3.5.2-11.3-8.9-20.4-20.1-20.4zm-118 1.5h118c10.4 0 18.8 8.4 18.8 18.8v.5c0 .8-.1 1.6-.2 2.4l-.1.4-157.4 607.9v-.1c-1.7 4-5.3 8.7-10.1 12.4-6.3 4.9-14.1 7.8-23.4 8h-.6l-483 .1L468.8 69.3l36.5-45.7 4.2-5.3.3-.4c7.7-9.4 20.1-16 31.8-16.2z" fill="#026674"/><path d="M659.6 1c10.8 0 19.6 8.8 19.6 19.6 0 1.2-.1 2.3-.3 3.4L521.5 632c-2.8 6.5-13.3 20.4-34.2 20.8H2C338.5 231.3 507.6 19.5 509.3 17.5c7.3-9 19.7-16.3 32.3-16.5h118z" fill-rule="evenodd" clip-rule="evenodd" fill="#026674"/><defs><filter id="a" filterUnits="userSpaceOnUse" x="173" y="117" width="443" height="537"><feColorMatrix values="1 0 0 0 0 0 1 0 0 0 0 0 1 0 0 0 0 0 1 0"/></filter></defs><mask maskUnits="userSpaceOnUse" x="173" y="117" width="443" height="537" id="b"><g filter="url(#a)"><path d="M659.6 1c10.8 0 19.6 8.8 19.6 19.6 0 1.2-.1 2.3-.3 3.4L521.5 632c-2.8 6.5-13.3 20.4-34.2 20.8H2C338.5 231.3 507.6 19.5 509.3 17.5c7.3-9 19.7-16.3 32.3-16.5h118z" fill-rule="evenodd" clip-rule="evenodd" fill="#fff"/></g></mask><path d="M456.1 375.5c2 .3 4.1-2.6 5.1-3.9.3-.4 1.4-2.7 1.1-3-.4-.3-2.6.4-3.2.9-1.5 1.2-2.6 2.8-3.4 5.5 0 .3.2.5.4.5m39-23.5c1.3.4 4.3-2.7 5.2-3.8 1.6-2.1 3.2-4.4 4.9-6.5 1.6-1.8 3.3-3.1 3.7-6.3 0-.4.3-1.3 0-1.3-1.7.1-3.3 2.7-4.2 3.8-.6.7-1.3 1.5-1.9 2.2-.8 1.1-1.2 2.5-2.1 3.5-1.1 1.3-2.4 2.5-3.5 3.8-.6.7-1.4 1.3-1.8 2.2-.1.4-.6 2.2-.3 2.4m10.6-.2c1-.1 1.4-.7 2.1-1.2 1.7-1.2 3.1-3.2 3.1-6.1 0-.3-.1-.4-.3-.4-2 0-4 3-4.8 4.4-.2.4-.7 1.6-.7 2.4 0 .7.3.9.6.9m40.4 9.7c.1.2.2.4.5.5 1.8-.1 2.4-3 3.2-4.4.7-1.1 1.2-2.4 1.9-3.5.5-.8 1.1-1.6 1.5-2.5.5-1.1.7-2.4 1.3-3.4.3-.5.8-1 1.2-1.5 1-1.5 1.9-3 2.5-4.8.1-.7.3-1.3.4-1.9.4-1.1.8-2.3 1.2-3.5.2-.6.3-1.8.2-2.2-.1-.2-.2-.3-.3-.3-1.4.2-2.7 3.9-3.4 5.3-.8 1.4-1.9 2.6-2.6 4.1-.6 1.4-.8 3.1-1.4 4.4-.5 1-1.4 1.8-2 2.8-.7 1.3-1.3 2.9-1.9 4.3-.7 1.6-1.6 2.8-2.2 4.3-.2.5-.3 1.6-.1 2.3m8.4-58.7c.4-.6.8-1.3 1.1-1.9.3-.7.4-1.4.7-2.1 1.2-2.2 2.6-4.7 3.8-6.9.5-.9 1.2-2.7.7-3.8-.1-.2-.5-.1-.7.1-.4.3-.7.5-1 .8-.3.3-.3.7-.6 1-.6.8-1.4 1.5-1.8 2.4-1 1.8-1.3 3.9-2.3 5.6-.6 1.2-1.7 2.2-2.4 3.4-.3.7-.6 1.3-.8 2-.2.5-.1 1.2-.2 1.6 0 .6.1 1 .3 1 1.9-.1 2.5-2 3.2-3.2M173.2 474.2c2.2-8.2 26.2-4.7 45.9-6.5 17.9-1.6 40.9-4.9 68.6-14.5 25.9-9 50.9-19.3 72.7-31.2 0 0 8.8-4.7 9.8-5.2 1.8-1.1 3.2-1.9 5-3 1.1-.6 2.7-1.6 3.9-2.1 1.5-.6 2.6-1.5 3.9-2.3 1.4-.9 3.2-1.7 4.6-2.6 2-1.2 3.2-2.2 5.1-3.6 1.2-.9 1.8-1.1 3.3-2.1.9-.6 2.6-1.5 3.5-2 1.7-1.2 2.9-2.1 4.6-3.3 1.1-.8 1.9-1.2 3.1-2 1.3-.8 2.5-1.8 3.6-2.6.6-.5 1.5-1 2.1-1.6 1.3-1.2 2.6-2.4 3.9-3.4 1.2-.9 2.4-2.1 3.6-3 .8-.6 2.1-1.7 2.8-2.2 2-1.4 3.2-2.5 5.2-3.9 1.3-.9 2.3-2.2 3.6-3.1 1.4-1 2.7-2.3 4.2-3.3.9-.7 2-1.5 2.7-2.2.9-1.1 1.8-1.9 2.8-3 .7-.8 2.1-1.7 2.9-2.5 1.2-1.6 2.9-3.2 4.5-4.4 1-.9 1.2-1.3 1.6-1.8.3-.4.6-.9 1.4-1.7.8-.8 1.1-1 1.4-1.4.4-.3.8-.7 1.8-1.7.3-.3.9-1.1 1.4-1.9.5-.7.9-1.3 1.3-1.7 1-1 1.6-1.7 2.3-2.4.5-.5 1-1 1.6-1.7.4-.4.7-.9 1-1.4.3-.5.6-.9.9-1.3.6-.6 1-.4 1.1-.3.3.2.5.9.1 1.7-.5 1-1.2 2-1.7 2.6-.1.1-.2.3-.3.3-.2.3-.3.6-.5.9-.3.5-.5.9-.8 1.4-.7 1-1.5 1.8-2.3 2.6l-.8.8c-.5.5-.9 1.1-1.3 1.7-.4.6-.9 1.2-1.4 1.9-.3.3-.5.6-.7.9-.3.3-.5.7-.8 1-.5.4-.9.9-1.3 1.3-.7.8-1.5 1.5-2.2 2.2-.6.5-1.1 1.1-1.7 1.6-1.5 1.8-3.1 3.5-4.4 5.2-.7.9-2.1 1.6-3 2.3-.9.7-1.7 1.9-2.4 2.9-.6.7-1.8 1.8-2.4 2.5-1.5 1.9-2.5 2.9-4.4 4.3-1.2.8-2.1 1.6-3 2.8-.5.7-2.2 2.3-2.8 3.1-1.6 2-2.3 3.9-2.1 4 1.1.3 3.7-2 5.3-3.1 1.3-.9 1.5-1.2 2.7-2.2.3-.2 2.2-1.6 2.9-2.4.5-.5 2-2 2.4-2.6 2.2-2.8 2.9-3 5.5-5.5 1.8-1.8 4.1-3.4 5.9-5 .5-.6 1.1-1.1 1.6-1.7.6-.6 1.3-1.1 1.9-1.7.8-1 2-3.1 3-3.9 1-.8 1.8-1.6 2.9-2.4.4-.3.7-.7 1.1-1 .5-.4 1.1-.8 1.5-1.3 1.2-1.6 2.4-3.2 3.7-4.8.6-.8 1.4-1.4 1.9-2.2 1.2-1.7 2.2-3.4 3.4-5 1.7-2.2 4.1-3.8 5.8-6.1 1.7-2.3 2.7-5 4.3-7.4.7-1 1.7-1.8 2.5-2.8.4-.6.7-1.2 1.1-1.9.8-1.3 1.8-2.6 2.7-3.8 1.1-1.7 1.9-3.5 3-5.2.2-.2.6-1.4 1.3-2.3.7-.9 1.3-1.8 2-3.1.8-1.2 1.2-2 1.7-2.9.6-.9.9-1.7 1.3-2.2.4-.6 1.2-1.7 1.5-2.2 1-1.6 1.3-2.3 2.4-3.8.6-.9 1.4-1.6 2-1.4.5.3.3.9.2 1.3-.5 1.3-.5 1.1-1 2-.9 1.6-1.2 2.3-2.1 3.7-.4.7-1.2 2.2-1.7 3.1-.6.9-1.2 1.9-1.6 2.6-.5.8-1.1 2.8-1.7 3.6-.5.6-1.1 1.8-1.6 2.7-.9 1.8-2 3.2-2.9 4.5-.6 1.1-1.2 2.3-1.8 3.5-1.2 1.8-2.7 3.6-3.9 5.5-.7 1.3-1.5 2.6-2.2 4-.7 1.1-1.7 2-2.4 3.1-.9 1.3-1.3 2.8-2.2 4.1-.7 1-1.6 2-2.2 3-1.2 1.7-2.2 3.5-3.4 5.1-.7.9-1.6 1.7-2.2 2.6-.9 1.2-1.7 2.7-2.6 3.8-1.2 1.1-1.5 1.7-2.4 2.8-1.3 1.6-4.7 6.4-4.1 6.4 1.9.3 5.7-4 7.3-5.6 1.2-1.2 2.6-2.1 3.4-3.3 1.3-1.7 2.2-3.6 3.4-5.3.5-.6 1.1-1.1 1.6-1.6.9-1.1 1.7-2.3 2.7-3.3.4-.4.9-.8 1.2-1.2 1.5-2 2.8-4.1 4.3-6.2.6-.8 1.4-1.6 2.1-2.4.5-.7.8-1.4 1.2-2.1.6-.9 1.4-1.8 2-2.7.5-.7.7-1.4 1.2-2.1.8-1.2 1.9-2.3 2.7-3.5.6-1 .8-2.3 1.5-3.4 1.7-2.6 3.5-5.2 5.1-7.8.4-.7.6-1.4 1-2.1 1.4-2.1 2.6-4.4 3.9-6.5.5-.8.7-1.7 1.2-2.4.6-.9 1.6-1.7 2.2-2.6.5-.7.7-1.5 1-2.3.5-1.1 1.2-2.2 1.7-3.2.3-.6.5-1.3.9-1.9 1.6-2.5 2.9-5.2 4.2-8 .7-1.4 1.7-2.8 2.4-4.2.8-1.6 1.5-3.3 2.2-4.8.4-1.1.8-2.1 1.2-3.2.8-1.7 2-3.1 2.7-4.8.5-1.2.8-2.3 1.3-3.3.3-.6.9-1.1 1.3-.8.4.3.5.8.2 1.7-.5 1.8-1.5 3.8-1.9 4.8-.9 2-1.4 4.1-2.3 6.1-.5 1.1-1.2 2.2-1.7 3.3-.9 1.9-1.7 3.9-2.6 5.7-.5 1.1-.9 2.1-1.5 3.1-.3.5-.8 1.1-1 1.7-.6 1.3-.7 2.7-1.3 3.9-.6 1.3-1.6 2.4-2.2 3.6-3 6.5-6.1 12.7-9.8 18.5-1 1.6-1.6 3.6-2.6 5.2-1.1 1.7-2.5 2.9-3.6 4.6-.9 1.4-1.1 3.2-1.9 4.7-1.2 2.2-2.7 4-4.1 6-.3.6-.5 1.2-.8 1.8-.5.8-1.1 1.5-1.6 2.3-.6 1.1-1 2.3-1.7 3.3-.8 1.1-1.9 2-2.7 3.1-1 1.3-1.6 2.9-2.6 4.2-.7.9-1.8 1.6-2.5 2.5-1.1 1.5-5 6.6-6.1 8-1.7 2.2-4.8 5.4-6.2 8.3-.5.9-2 3-1.7 3.4.8.5 4.7-3.7 5.3-4.3 1.6-1.5 3-3.7 4.4-5.4.3-.4 4-4 4.3-4.4.4-.5.7-1 1.1-1.5 1-1.5 1.7-3.4 2.7-4.8.5-.6 1.2-1.1 1.6-1.7.8-1.1 1.4-2.4 2.3-3.5 1.3-1.8 3-3.4 4.3-5.2 1.4-2 2.4-4.3 3.9-6.2.7-1 1.6-1.8 2.3-2.9.3-.5.4-.9.7-1.4.5-.8 1.2-1.7 1.6-2.6.4-.8.6-1.6 1.1-2.4 1.5-2.4 3-4.9 4.5-7.3.7-1.1 1.1-2.2 1.7-3.3 1.1-1.8 2.6-3.3 3.7-5.1 1.3-2.1 2.1-4.6 3.4-6.7.9-1.4 1.9-2.7 2.8-4.1 1-1.5 1.4-3.3 2.3-4.8.8-1.4 1.8-2.7 2.5-4.1.7-1.5 1.2-3 1.9-4.6.4-.8 1-1.7 1.4-2.5.5-1.1.6-2.2 1.1-3.2 1.3-2.9 3.3-5.7 4.6-8.6 1-2 1.8-4.2 2.6-6.4.4-1.2.6-2.3 1.2-3.4 1.2-2.7 2.7-5.5 3.8-8.1l1.5-4.2c.1-.4.1-.8.3-1.2.6-1.2 1.3-2.5 1.8-3.7.4-1.4.9-2.9 1.4-4.3 1.9-4.7 3.5-10 5.3-14.8.2-.9.3-2 .6-2.9l2.7-7.5c.5-1.3 1.7-.9 1.4.5-.4 1.7-.6 2.1-.9 3.5-.1.7-.3 1.4-.4 2.1-.2.8-.6 1.7-.8 2.5-.5 1.5-.5 3-1 4.4-.7 2-1.5 4-2.1 6-.2 1-.4 2.1-.6 3.1-.3 1-.7 2-1 2.8-1 2.6-2 5-2.9 7.5-.4 1.4-.8 2.9-1.1 4.3-.4.8-.9 1.6-1.3 2.4-.3.7-.4 1.4-.7 2.1-.6 1.6-1.2 3.3-2 4.9-.6 1.3-1.3 2.7-1.9 4.1-.3.7-.3 1.3-.5 2-1.6 4.3-3.2 8.7-5.1 12.8-.5 1-.6 2-1 3.1-.4.9-.9 1.8-1.3 2.6-.2.5-.4 1.1-.6 1.6-.6 1.2-1.5 2.2-2.1 3.4-1.6 3.3-3 6.5-5 9.3-1.8 2.6-2.6 6.1-4 9.2-.7 1.5-1.6 2.8-2.4 4-.4.7-.7 1.4-1 2.2-.9 1.6-1.4 3-2.5 4.5-.8 1.2-.8 1.4-1.5 3.1-.2.5-1 3.6-.8 3.6.3.2 1.8-.7 2.3-1.3.7-.8 1.8-1.8 2.5-3.5.4-.9 1.2-2.3 1.6-3.1 1-2.1 2.6-3.8 3.8-5.7.7-1.1 1.1-2.3 1.7-3.5 1-2.2 2.1-4.4 3.2-6.7.5-.9 1.1-1.8 1.6-2.7.6-.9.8-1.8 1.4-2.7 1.2-1.9 2.6-4 3.6-6.1.7-1.5 1.1-3.1 1.8-4.6.2-.5.6-.9.9-1.4.5-.8.7-1.6 1.1-2.5.5-1.1 1.4-2.3 1.9-3.4 1.1-2.4 1.7-4.8 2.8-7.2.5-1.1 1.4-2 1.9-3.1.8-1.7.9-3.8 1.7-5.5 2-4.6 4.4-9.4 6.1-14.2.3-.8.4-1.8.6-2.6.8-2.1 1.7-4.1 2.5-6.1.3-.9.5-1.8.8-2.8.5-1.4 1.2-2.9 1.7-4.3.1-.5.2-1 .4-1.5.6-1.3 1-2.9 1.6-4.3.3-.7.8-1.5 1.1-2.2.5-1.4.3-3.1.8-4.5.7-2 1.5-4.1 2.2-6 .4-1.1.5-2.2.9-3.4.5-1.3 1-2.8 1.4-4.1.5-1.3.5-2.8.9-4.2.3-1.1.8-2.2 1.1-3.2.7-1.9 1-3.9 1.7-5.7.1-.3.2-.7.3-1 .2-.5.5-1 1-.8.6.1.6.9.5 1.3-.1 1.4-.6 2.7-1 3.8-.5 1.2-.7 2.5-1 3.6-.2.7-.2 1.5-.3 2.3-.2 1.1-.7 2.2-1 3.3-.3 1.1-.1 2.2-.4 3-.7 2.4-1.5 5-2.3 7.3-.3 1.2-.4 2.5-.7 3.5-.4 1.2-.9 2.4-1.3 3.6-.4 1-.5 2-.9 2.9-.5 1-1 2-1.3 3.2-.5 1.5-.4 2.9-.9 4.3-.8 2.2-1.9 4.4-2.6 6.5-.3.8-.3 1.6-.6 2.4-.7 1.9-1.1 3.9-1.8 5.8-1 2.7-2.2 5.3-3.2 7.9-.9 2.6-1.1 5.7-2.2 8.2-.6 1.2-1.7 1.9-2.2 3.1-.4.7-.3 1.6-.5 2.5-.3 1-.8 2-1.2 2.9-.2.9-.4 1.7-.7 2.5-.3 1-1 2-1.5 2.9-.7 1.6-1.1 3.2-1.9 4.6-.7 1-1.6 2-2.1 3.2-.6 1.3-.8 2.7-1.4 4-.9 2-1.9 3.9-2.7 6-.7 1.9-1 3.9-1.8 5.5-.9 1.6-2 3.1-2.9 4.7-.6 1.2-1.1 2.4-1.7 3.7-.5 1-1.3 1.8-1.9 2.9-.7 1.2-1.4 2.5-1.9 3.8-.5 1-.6 1.9-1.2 2.7-.8 1.3-1.4 2.3-2.2 3.6-.7 1.1-1.5 2.6-2 3.9-.4 1-.8 2.1-1.4 2.9-.6.9-1.4 1.6-2 2.6-.5.9-1.3 4-1 4.1.7.2 2.5-1.6 3-2.2 1.5-1.8 2.2-4.2 3.6-6.1 1.4-2.1 2.3-3.2 3.5-5.6.6-1.4 1.8-3.8 2.5-5 .8-1.1 1.7-2.2 2.3-3.4.5-1.1.7-2.3 1.2-3.4.7-1.5 2.1-2.5 2.8-4.1.8-1.7 1.2-3.5 2.1-5.2.4-.8 1-1.7 1.4-2.5.5-1 .7-2 1.2-3.1 1-2.1 2.5-3.9 3.4-6 1-2.2 1.6-4.5 2.7-6.7.5-1.2 1.5-2.2 2.1-3.4.7-1.6 1.1-3.2 1.9-4.8.5-1 1.1-1.9 1.6-2.8.6-1.4.9-2.9 1.5-4.3 1.4-3.3 2.9-6.6 4.4-9.8.5-1.2.7-2.5 1.2-3.8.5-1.1 1.1-2.2 1.7-3.3 1.2-2.8 1.7-6.2 3-9 .6-1.5 1.4-2.8 2-4.4.9-2.5 1.2-5 2.1-7.5 1.4-3.8 2.5-7.8 3.8-11.6.4-1.1.5-2.3.9-3.5l1.2-3.3c.3-.9.5-2.2.7-3.4 1-3.2 2.1-6.5 3.1-9.8.3-.8.3-2.2.6-3.2.2-.6.5-1.2.7-1.7.2-.7.2-1.4.5-2.2.8-2.4 1.4-5.1 2.1-7.5.2-.7.3-1.8.5-2.6 1-3.4 1.6-7.5 2.9-10.7.2-.6.6-1.3 1.2-1.1.6.1.5.8.4 1.4-.2 1.5-.8 2.9-1 4.1-.1.6-.1 1.4-.1 2.1-.1.6-.1 1.3-.3 1.9-.6 2-1.4 4.4-1.9 6.4-.2 1 0 2.4-.3 3.5-.9 3.2-1.5 7-2.6 9.9-1.1 2.6-1.3 5.8-2 8.6-.2 1.2-.3 2.5-.5 3.7-.2 1.2-.8 2-1.2 3-.3.7-.3 1.4-.5 2.2-.6 2-1.1 4.1-1.8 6.1-.5 1.4-1.3 2.8-1.8 4.1-.2.6-.1 1.2-.3 1.9-.4 1.4-.6 2.8-1 4.2-1 2.8-2 5.8-3 8.6-.6 1.6-.7 3.1-1.3 4.6-2.2 6-4.5 12-6.6 18-.4 1.3-.7 2.7-1.1 4-.5 1.3-1.3 2.5-1.8 3.7-.7 1.6-.9 3.2-1.6 4.8-.7 1.9-1.6 3.4-2.3 5.4-.3.9-.7 2-1.1 2.9-.3.7-.9 1.4-1.3 2.1-.6 1.2-.7 2.7-1.2 3.9-.6 1.2-1.6 2.2-2.3 3.3-.6 1-.7 2.4-1.2 3.5-.8 1.8-1.9 3.5-2.7 5.4-.3.8-.5 1.5-.8 2.3-.4.9-1.1 1.7-1.5 2.7l-.1.1c0 .1-.1.3-.1.5-.1.4-.2.8-.4 1.2-.2.5-.8 1.4-1 1.8-.1.2-.6.7-.9 1.1-.2.2-.3.4-.5.6-.8 1.2-.9 3-1.5 4.4-.6 1.3-1.8 2.4-2.4 3.8-.5 1-.8 3.7-.1 3.8 2.7 0 2.9-3.8 3.8-5.8.7-1.6 1.8-2.8 2.6-4.3.2-.3.4-.9.6-1.5.2-.5.4-1.1.6-1.5.3-.7.3-.6.6-1.1.3-.5 1-1.5 1.2-1.9v-.1c1-1.7 1.7-4 2.5-5.2.4-.6 1-1.2 1.4-1.9.7-1.1 1-2.4 1.6-3.6.5-1.1 1.3-2.1 1.8-3.3.6-1.3.6-3 1.3-4.4.3-.7.9-1.5 1.3-2.2.8-1.6 1.2-3.2 2-4.7.3-.7 1-1.4 1.4-2.2.6-1.3.9-2.7 1.6-3.9 1.4-2.6 3-5.4 4.1-8.1.7-1.6 1-3.2 1.6-4.7.6-1.4 1.4-2.7 2-4 .4-.9.5-1.7.9-2.7.6-1.5 1.2-3.1 1.8-4.6.3-1 .6-3.3.9-4.2.4-1.1 1-2.4 1.5-3.5.8-1.6 1-3.4 1.7-5 .6-1.3 1.2-2.6 1.7-4 .4-1.1.5-2.2 1-3.2.3-.8.8-1.7 1.1-2.5.4-1 .6-2.6.9-3.9.5-1.4 1.1-2.8 1.5-4.2.3-1.1.3-3.5.5-4.1 1.5-4.4 2.9-9.1 4.3-13.4.6-2 .9-4.1 1.5-6 .2-.8.2-1.8.4-2.6.4-1.3.9-2.6 1.3-3.9.2-.9.4-1.8.5-2.7.2-.9.7-1.8 1-2.8.8-2.6 1.3-5.4 2.1-8 .3-1.1.3-2.5.5-3.4 1-3.2 1.2-6.9 2.2-10.2.2-1 .3-2 .6-2.8 1.6-6.3 2.4-13.3 4.2-19.3.3-1.2-.1-2.6.2-3.9.4-1.4.8-2.6 1.2-3.9.2-.7.2-1.1.3-1.7.3-1 .8-1.8 1.3-1.7.7.2.5.8.5 1.7-.1 1.4-.2 2.6-.5 3.7-.2 1-.1 1.8-.3 2.6-.6 1.9-.8 4.7-1.1 6.5-.1.7 0 1.7-.1 2.6-.2.9-.9 2.1-1.1 3-.2 1.3-.2 3-.4 4.4-.3 1.2-.6 2.3-.9 3.4-.3 1-.1 1.9-.4 2.8-.3.9-.8 1.8-.9 2.8-.1 1.1 0 2.7-.2 3.7-1.4 5.5-1.8 12-3.4 17.3-.2.8-.2 1.6-.4 2.3-1.3 4.6-2.4 9.6-3.7 14.1-.2.7-.2 1.4-.3 2.2-.5 1.6-.8 3.3-1.2 5-.2.8-.1 1.5-.4 2.2-.5 1.7-1 3.3-1.6 5-.2.8-.3 1.6-.4 2.4-.1.6-.5 1.4-.7 2-.3 1-.2 1.9-.5 2.8-.2.5-.6 1.1-.8 1.6-.2 1-.3 2-.6 2.9-.4 1.2-1 2.3-1.5 3.4-.4 1-.4 1.9-.7 2.9-.6 1.6-1.4 3.5-2 5.2-.5 1.4-.6 2.9-1.1 4.3-.3 1-.8 1.9-1.1 2.9-.2.7-.3 1.4-.6 2.2-.2.7-1 1.8-1.5 2.7-.4 1-.2 2.4-.5 3.4-.3 1.1-1 2-1.3 3-.3 1-.3 2.1-.6 3.2-.3.8-.8 1.6-1.2 2.4-.3.9-.6 1.8-1 2.7-.3.6-.7 1.2-1 1.7-.5 1-.9 2.2-1.3 3.2-.6 1.5-.6 3.3-1.1 5.1-.1.5-.1 1.7.2 1.8.7.1 1.5-1 1.9-1.6.8-1.2 1.6-2.4 2.2-3.8.2-.5.3-1 .5-1.6.5-1.1.8-2.5 1.3-3.6.3-.7.8-1.5 1-2.2.4-1.1.2-2.4.6-3.4.4-.8 1-1.4 1.4-2.2.3-.7.4-1.5.7-2.2.4-.9.9-1.7 1.4-2.5.4-.8.3-1.6.6-2.6.3-1.1.7-2.3 1.2-3.3s1.1-2.1 1.6-3.2c.2-.6.3-1.2.5-1.8.3-.8.7-1.7 1-2.5.2-.6.3-1.2.6-1.8.4-.9.8-1.9 1.2-2.9.3-.8.3-1.6.6-2.4.5-1.4 1-2.9 1.4-4.3.3-1 .4-2.1.7-3.2.4-1.2.9-2.5 1.4-3.7.3-1 .4-2.1.7-3.1.5-1.3 1.1-2.6 1.6-3.9.3-1.1.3-2.2.6-3.3.8-2.6 1.6-5.4 2.4-8.1.9-2.9 1-6.3 1.9-9.3.6-2.1 1.4-4.2 2-6.3.2-1.1.3-2.1.5-3.2.6-2.4 1.4-5.5 2.2-7.9.4-1.3.3-2.6.6-4 .4-1.4.4-3.1.8-4.6.3-.9.6-1.6.8-2.8.3-1.2.2-2.6.4-3.4.2-.9 1.7-6.1 1.9-7.1.2-1 .2-2.7.3-3.4.1-.4.9-2.7 1-3.3.1-.6.1-1.2.3-2.4.3-1.2.9-3.7 1-4.5.1-.8.1-2.3.3-3 .2-.7.6-2.5 1-3.7.4-1.5.1-3.1.5-4.5.3-1 .7-2.1 1.1-3.1.2-.8.5-2 .6-2.5.1-.8.1-2.4.2-3.1 0-.8.4-2.2.5-3.5.1-1.7.5-3.5.7-4.5.1-.6.1-1.3.2-1.9.4-1.6.8-3.2 1.7-3.1.6.1.8.6.6 1.7-.3 1.3-.4 2.3-.8 3.5-.1.7-.2 2.4-.2 2.9-.1.9-.1 1.1-.2 2-.1.3-.2 1.2-.3 1.5-.1.6-.3 1.4-.3 1.8v2c0 .4 0 .6-.2 1.3-.2.7-.3.9-.3 1.5v1.5c0 .6-.1 1.1-.3 1.7-.3 1.1-1 2.6-.7 4.2.3 1.7-.2 3.3-.6 4.8-.2 1 0 2-.2 2.9-.3 1.3-.7 2.6-1 3.9-.3 1.1-.1 2.1-.4 3.1-.4 1.4-1.4 3.4-1.5 4-.1.7-.1 2.4-.3 3.5-.2 1.1-.5 2.4-.5 3.1-.1.7 0 1-.1 1.6-.1.5-.8 3-.9 3.7-.1.7-.1 1-.3 1.7-.1.7-.7 3.4-.8 4.3-.1.9-.1 1.4-.3 2.3-.3 1.3-.8 2.5-1.1 3.7-.2 1-.1 1.6-.2 2.3-.3 1.2-.7 2.3-.9 3.4-.2.9-.2 1.8-.4 2.7-.4 1.9-.7 3.9-1.2 5.8-.3 1.1-1 2.2-1.3 3.3-.3 1-.4 2.1-.6 3.1-.3.9-.9 1.6-1.1 2.6-.1.8-.1 1.6-.3 2.4-.2.9-.6 1.8-.8 2.8-.1.7-.1 1.4-.3 2.1-.2.8-.6 1.6-.8 2.3-.2 1-.2 2-.4 3-.3 1.2-.8 2.3-1.1 3.4-.3 1-.2 2.1-.5 3.2-.6 2.4-1.4 5-2.2 7.2-.3 1.2-.3 2.4-.7 3.7-.3.9-.7 1.4-1 2.2-.3.8 0 1.6-.3 2.5-.4 1.4-.6 3.4-1.1 4.8-.6 1.6-1.5 2.9-2 4.4-.6 1.6-.6 3.2-1.1 4.9-.5 1.4-1.2 2.8-1.8 4.1-.5 1.1-.3 2.7-.7 3.9-.5 1.3-1.4 2.3-1.9 3.7-.6 1.6-.9 3.1-1.4 4.7-.2.7-.3 1.3-.4 2-.6 2-1.7 3.7-2.4 5.6-.3.9-.3 1.6-.6 2.5-.5 1.4-1 2.8-1.7 4.1-.5 1.2-1.3 2.4-1.8 3.6-.5 1.1-.6 2.2-1 3.4-.5 1.1-1 2.3-1.4 3.4-.3.7-.3 1.3-.6 2-1.4 3.1-3 6.2-4.4 9.1-.7 1.6-1.1 3.4-1.9 5.1-.6 1.3-1.3 2.6-1.9 4-.4.9-.5 1.7-.8 2.6-.8 1.6-1.8 3.3-2.6 4.9-.2.4-.8 2.2-.5 2.8 0 .1 0 .2.2.3.5.1 1.5-.7 2.1-1.3 2-1.9 2.3-5.5 3.6-8 .4-.7.9-1.5 1.2-2.2.2-.5.3-1 .6-1.6.8-1.6 1.9-3.1 2.6-4.8.6-1.2.6-2.6 1.2-3.8 2.2-4.8 4.8-9.4 6.9-14.3 1-2.2 1.2-4.7 2-7.1.5-1.4 1.4-2.6 2-3.9.5-1 .6-2.1 1-3.2.6-1.4 1.5-2.6 2-4.1.3-1 .5-1.9.8-2.9.5-1.1 1.2-2 1.6-3 .7-1.5.8-3 1.3-4.8.3-.9.7-1.9 1-2.8.2-.8.3-1.6.6-2.4.6-1.8 1.7-3.4 2.4-5.3.5-1.2.3-2.8.9-4.1.4-1 1.2-1.8 1.6-2.8.5-1.1 0-2.4.4-3.7.3-1.2.8-2.4 1.2-3.5.2-.7.3-1.4.5-2.2.6-1.5 1.1-3 1.6-4.5.3-.8.3-1.5.6-2.2.4-.9 1-1.7 1.4-2.7.4-1.5.5-3 .8-4.4.6-1.9 1.3-3.4 1.8-5.3.1-.6.1-1.1.3-1.8.5-1.6.7-3.5 1.1-5.1.2-.8.1-1.5.3-2.2.5-1.5 1-3.1 1.4-4.5.3-1 .3-1.9.5-2.9.7-2.4 1.4-5.2 2.1-7.6.2-.7.1-1.3.3-2.1.6-1.8 1.3-4.1 1.7-6 .2-1.1.2-2.2.5-3.2.3-1.3.7-2.5 1-3.8.1-.6 0-1 .1-1.5.1-.8.2-1.6.3-2.5.8-3.3 2.1-7.4 2.8-10.8.2-1.2.3-2.4.4-3.6.1-.8.2-1.8.4-2.7.3-.9.6-1.8.8-2.7.2-1.4.2-2.8.4-4.2 0-.1.1-.2.1-.3.3-1.7 1.1-5.2 1.3-6.6.2-1.6.4-3.3.6-5 0-1.1.2-2.2.3-3.3.3-1.7.6-3.2.8-5 .1-1.2.1-2.2.2-3.2.1-.6.1-1.7.9-1.7s.7.9.7 1.7c.1 1.8-.2 4.1-.4 5.2-.2 2-.1 4.1-.3 6.1-.1 1.2-.5 2.3-.6 3.4-.3 2-.5 4-.7 5.9v.1c-.1.9-.2 1.8-.3 2.6 0 .1 0 .2-.1.3v.2c-.1.4-.1.8-.3 1.2-.2.7-.1 1.4-.3 2.1-.6 2.3-.5 4.8-1.1 7-.9 3.3-1.4 7-2.3 10.2-.2 1 0 1.9-.3 2.9s-.5 2-.8 3.1c-.3 1.2-.1 2.5-.4 3.8-.3 1.2-.6 2.3-.9 3.4-.4 1.4-.4 2.8-.8 4.2-.4 1.5-.9 3.1-1.2 4.6-.3 1.7-.5 3.6-.8 5.4-.3 1.5-1.1 3.3-1.4 4.9-.1.5-.1 1.1-.1 1.6-.2 1.2-.6 2.3-.8 3.4-.1.5-.1 1-.3 1.6-.5 2.1-1.2 4.8-1.9 7-.2.6-.2 1.2-.4 1.8-.4 1.5-.9 2.6-1.1 3.5-.1.7-.2 1.6-.4 2.3-.3 1.2-.7 2.2-.9 3.2-.2.8-.3 1.5-.5 2.3-.3 1-.6 1.8-1 2.8-.6 1.9-.7 4-1.4 5.8-.4 1.1-.9 2.2-1.3 3.4-.3 1.1-.4 2.4-.7 3.6-.7 1.8-1.4 4-2 5.8-.8 2.2-1.3 4.6-2 6.7-.3.9-.3 1.7-.5 2.6-.6 2.1-1.3 4.5-2 6.6-.4 1.1-.4 2.2-.8 3.3-.7 1.8-1.7 3.3-2.4 5.1-.5 1.6-.7 3.1-1.3 4.6-.8 1.9-1.6 3.9-2.4 6-.5 1.4-.7 2.8-1.3 4.1-.5 1.1-1.1 2.3-1.7 3.5-.3 1-.7 2-1 3-.3.8-1.1 2.1-1.7 3.1-.6 1.4-.7 2.9-1.3 4.4-.8 2.3-1.9 4.6-2.9 6.7-.4.8-.4 1.6-.8 2.5-.6 1.5-1.6 2.7-2.2 4.1-.6 1.3-.8 2.8-1.4 4-.9 1.9-1.5 2.9-1.5 5.6 0 .3.1.4.4.5.5.2 1.1-.7 1.4-1 1.4-1.4 1.7-2.8 2.6-4.7 1.4-3 3.1-5.8 4.5-8.7.7-1.5 1-3.2 1.7-4.8.4-.9 1.1-1.9 1.5-2.8.6-1.4 1-2.8 1.7-4 1-1.8 1.8-4 2.6-6 .3-.8.3-1.5.7-2.2.4-.8.9-1.5 1.3-2.3.5-1.2.8-2.8 1.4-4 1.1-2.4 2.3-5 3.3-7.5.8-2.3 1.2-4.6 2.1-7l1.2-3c.3-.9.3-1.7.6-2.5.8-2.1 1.8-4.4 2.7-6.5.4-1 .6-2 1-3.1.5-1.3 1-2.8 1.5-4.1.6-1.7.6-3.7 1.3-5.5 1.4-3.9 3.2-7.9 4.4-12 .2-.9.1-1.9.4-2.8.6-2 1.3-4.3 1.9-6.5.7-2.4.6-4.9 1.4-7.3 1-3.1 2.1-6.2 3-9.2.3-.9.1-1.9.4-2.8.6-2.3 1.4-5.1 2.2-7.2.4-1.1.4-2.3.8-3.3.5-1.2 1.7-.8 1.6.6-.1 1.3-.5 2.9-.6 3.5-.1.9-.1 1.7-.3 2.7-.4 1.6-.9 3-1.4 4.5-.5 1.6-.5 3-.9 4.6-.3.8-.6 1.6-.8 2.4-.5 1.6-.5 3.3-1 4.7-.4 1.1-.7 2.5-1.1 3.7-.2.8-.2 1.4-.4 2.2-.4 1.4-.9 2.9-1.3 4.3-.2.8-.1 1.5-.3 2.3-.3 1.2-.6 2.3-.9 3.4-.3 1-.3 2.4-.6 3.5-.6 2-1.4 4.1-2 6-.8 2.1-.8 4.2-1.6 6.4-1.4 3.7-2.6 8-3.9 11.8-.4 1-.3 2-.5 3-.5 1.6-.8 3.2-1.4 4.8-.3.8-.8 1.5-1.1 2.2-.5.9-.5 1.9-1 2.9-.3.7-.8 1.5-1.1 2.3-.4 1.2-.3 2.7-.7 3.8-.3.9-.8 1.9-1.2 2.8-.4 1-.4 2.2-.8 3.1-.3.8-1 1.6-1.4 2.5-.4.8-.5 1.6-.8 2.5l-1.2 2.7c-.4.9-.4 2-.9 3-.4.9-.9 1.7-1.3 2.6-.3 1-.4 2-.7 3-.6 1.5-1.5 2.8-2.1 4.1-.5 1-.5 2.2-1 3.3-.5 1.2-1.3 2.4-1.8 3.6-.7 1.6-1.3 3.3-2 4.8-1.2 2.7-1.6 5.7-2.8 8.3-.9 2-2.1 3.9-3 5.8-.5 1.1-.6 2.3-1.1 3.3-.5 1.2-1.5 2.2-2.1 3.4-.4 1.2-.8 2.4-1.3 3.5-.7 1.5-1.7 2.9-2.3 4.3-.4.8-.6 1.6-1 2.5-.7 1.6-2 3-2.7 4.6-.4 1-.8 2.1-1.1 3.2-.8 1.7-2.1 3.2-2.9 4.9-.6 1.3-1 2.6-1.7 3.8-1.2 1.8-1.9 3-3 4.9-.7 1.2-1.7 2.9-2.3 4.3-.6 1.3-1.6 2.4-2.2 3.6-.6 1.2-1.4 2.6-2 3.8-.8 1.3-1.5 2.3-2.4 3.6-1.3 2-2.2 4.2-3.5 6.3-.9 1.4-2 2.9-3 4.3-2.7 3.7-6.6 10.4-8.2 12.6-1.4 1.8-2.5 4-3.8 5.9-1 1.5-2.2 2.9-3.2 4.3-.9 1.1-1.6 2.4-2.4 3.5l-.7.9c-34.6 44.2-70.2 73.5-100.4 92.7-15.9 10-24.5 12.8-24.5 12.8-2 .9-.6 2.3.4 3l178.9 116c.6.4 1.9 1.4 1.4 2.5-.4.9-2.2.4-2.7.2-143.5-50.5-247.6-92.1-311.2-122.4-64.5-30.7-86.2-48.3-83.8-57.1" mask="url(#b)" fill="#fff"/></g></svg>