<svg width="856" height="830" xmlns="http://www.w3.org/2000/svg" xmlns:xlink="http://www.w3.org/1999/xlink"><title>ALASKAAIRLINES</title><defs><path d="M131.1 2.884a59.91 59.91 0 014.222 6.373c2.899 4.477 5.543 9.161 8.744 13.415a26.088 26.088 0 0016.693 10.021 5.193 5.193 0 014.348 3.76c1.498 4.525 3.266 5.433 8.044 4.397 7.311-1.593 14.575-3.504 21.933-4.78a64.432 64.432 0 0125.772.622 19.121 19.121 0 015.415 2.23c4.11 2.518 8.235 5.099 12.106 7.967a104.974 104.974 0 018.075 7.249 36.439 36.439 0 004.954 4.62 16.7 16.7 0 006.483 2.215c2.644.334 3.551-1.18 3.042-3.856a23.669 23.669 0 01-.175-3.362 15 15 0 013.775 1.052c1.075.633 2.112 1.334 3.143 2.043l1.03.71c1.374.943 2.755 1.867 4.22 2.632a22.106 22.106 0 007.041 2.119 3.95 3.95 0 003.33-1.594 4.063 4.063 0 00-.59-3.664 47.361 47.361 0 00-6.372-5.783c-1.784-1.386-3.854-2.39-5.75-3.633a17.252 17.252 0 01-1.911-1.688l.24-.67c2.181.176 4.363.303 6.546.527a32.214 32.214 0 0112.837 4.205c2.342 1.37 4.78 2.581 7.12 3.983 3.33 2.008 4.62 4.684 3.106 8.237a135.64 135.64 0 01-7.582 15.072c-2.373 4.094-5.383 7.823-7.964 11.774-4.89 7.44-6.594 15.82-6.69 24.487-.174 15.359 0 30.717 0 46.076-.015 3.186-.079 6.34-.159 9.51-.605 2.248-1.21 4.494-1.831 6.756a26.552 26.552 0 01-9.86 10.053 44.129 44.129 0 00-14.956 14.244 7.056 7.056 0 01-6.866 3.186c-3.63-.191-7.23-.892-10.862-.988a45.148 45.148 0 00-10.163.67c-5.32 1.099-6.944 4.046-5.75 9.303.32 1.386.733 2.757 1.131 4.111 1.29 4.333.143 7.297-3.775 9.56a20.702 20.702 0 01-12.742 2.086 51.053 51.053 0 01-16.74-4.78c-7.837-3.728-15.642-7.535-23.462-11.327a8.412 8.412 0 01-4.875-7.584 73.614 73.614 0 00-.891-9.192 10.753 10.753 0 00-10.497-8.986 104.42 104.42 0 00-11.389 0c-8.147.47-16.186-.453-24.221-1.476l-2.922-.374-.73-.094c-6.372-.796-12.648-1.466-18.987-2.15-3.76-.399-4.476-1.339-3.68-4.956a9.158 9.158 0 015.4-6.292c4.779-2.39 9.796-2.12 14.893-1.307a189.747 189.747 0 0038.387 2.055 5917.542 5917.542 0 0051.623-2.517 30.91 30.91 0 006.562-1.593c1.226-.35 2.373-.988 3.6-1.338 1.752-.51 2.915.254 3.01 2.023.05.965.136 1.931.23 2.898l.057.58.029.29.057.581c.368 3.774.636 7.552-.883 11.28a1.96 1.96 0 00.637 1.848 2.28 2.28 0 002.023-.207 8.38 8.38 0 003.393-6.596l.093-3.26c.11-3.804.229-7.605.464-11.397.319-5.162 1.513-10.372 1.1-15.454a132.922 132.922 0 00-3.6-19.214 9.829 9.829 0 00-7.407-7.217c-3.759-1.116-7.438-2.55-11.15-3.935a17.808 17.808 0 01-9.986-8.763c-2.597-5.083-4.906-10.308-7.503-15.39a44.007 44.007 0 00-4.348-6.804 3.185 3.185 0 00-4.22-1.179c-1.594.956-1.387 2.533-.972 4.016.604 2.246 1.385 4.444 1.959 6.69.923 3.713-.908 6.055-4.779 6.103a11.375 11.375 0 01-3.36-.398c-6.117-1.928-12.456-3.41-18.27-6.023a34.719 34.719 0 00-26.266-1.593 256.184 256.184 0 01-14.988 4.461c-5.193 1.354-9.557-.67-13.3-4.062a6.103 6.103 0 01-1.816-6.373c.828-2.964 2.007-5.816 2.963-8.732.828-2.532.318-3.185-2.342-3.058-5.049.207-6.96 1.944-8.25 6.66a41.084 41.084 0 01-3.186 7.965c-3.536 6.851-6.482 13.861-7.263 21.636a8.7 8.7 0 01-5.001 6.628c-5.273 2.931-10.657 5.703-15.929 8.699a12.237 12.237 0 00-5.718 12.347c.373 1.77.613 3.564.717 5.37 0 6.372-.042 12.745-.127 19.117-.096 4.51-.383 9.018-.558 13.543-.005.599.054 1.197.175 1.784.446 2.438 1.928 3.186 4.078 1.928a14.348 14.348 0 002.867-2.518c.892-.908 1.593-2.007 2.548-2.867 2.644-2.486 5.177-2.246 7.28.717a12.587 12.587 0 011.767 9.304 55.987 55.987 0 01-4.921 17.27 33.997 33.997 0 00-2.199 6.58 9.465 9.465 0 003.68 10.021 39.637 39.637 0 0013.905 6.947c10.242 3.186 20.707 5.656 31.49 4.78 5.272-.43 10.465-1.594 15.705-2.39.826-.143 1.665-.191 2.5-.144 4.78.383 7.487 4.382 5.32 8.603a23.258 23.258 0 01-6.036 7.457 32.932 32.932 0 00-11.404 15.932c-.24.7-.574 1.386-.86 2.087-2.246 5.497-6.945 7.297-12.058 4.126a132.839 132.839 0 01-14.59-10.371c-9.955-8.253-19.64-16.825-29.435-25.269a379.798 379.798 0 01-7.136-6.373c-13.3-11.805-18.397-26.685-17.235-44.131 1.354-20.361 2.58-40.738 2.023-61.163-.127-4.637-.86-9.273-1.306-13.909a4.88 4.88 0 00-.111-.67c-1.227-4.89-4.11-5.846-7.693-2.261a89.93 89.93 0 00-6.371 7.966 70.956 70.956 0 01-4.572 5.608c-1.593 1.593-3.186 1.274-4.014-.877a14.338 14.338 0 01-.924-4.381c-.475-9.1.931-18.035 2.31-26.984l.302-1.964a71.711 71.711 0 018.347-24.854 47.053 47.053 0 014.778-6.867 10.877 10.877 0 0114.845-2.597c2.597 1.514 4.986 3.41 7.47 5.114 4.349 2.996 6.897 2.422 9.27-2.262.88-1.907 1.631-3.87 2.247-5.879a3.185 3.185 0 013.042-2.517c2.93-.319 5.83-.924 8.76-1.354 5.358-.787 10.01-3.22 14.615-5.804l.674-.38.337-.19c4.364-2.5 8.888-4.667 14.112-4.333 2.622.257 5.227.656 7.805 1.195 1.927.335 3.807 1.052 5.75 1.195 5.001.367 8.267-1.593 9.557-6.468.654-2.394 1.159-4.83 1.642-7.272l.413-2.093c.413-2.094.837-4.184 1.353-6.249a37.09 37.09 0 013.186-8.842c2.246-4.11 6.753-4.413 9.78-.797zm92.894 126.39a3.535 3.535 0 00-3.186 4.492c.215 1.236.449 2.472.688 3.708l.434 2.224c.721 3.709 1.411 7.422 1.681 11.163.733 10.308.558 20.616-2.835 30.59a2.39 2.39 0 001.593 3.266c5.129 2.07 8.888-.08 9.557-5.433v-.685c.382-4.876.669-9.766 1.099-16.856l-.064-.08a89.772 89.772 0 00-.956-13.909c-.732-3.671-1.956-7.248-3.216-10.817l-.446-1.26c-.593-1.68-1.183-3.36-1.721-5.05-.446-1.402-1.322-1.593-2.628-1.354zM84.416 45.2a55.386 55.386 0 01-9.462 5.194 67.916 67.916 0 01-21.678 4.35 3.998 3.998 0 00-3.966 3.855c-.27 2.087 1.035 3.043 2.82 3.44 3.165.712 6.332 1.317 8.177 1.702l.162.034.462-.015c12.203-.452 21.923-4.18 31.21-9.335.453-.27.866-.603 1.226-.988 1.896-1.896 1.8-3.792-.414-5.274-1.752-1.179-3.695-2.055-5.48-3.186a2.5 2.5 0 00-3.057.223zm133.732.67c-1.784.796-3.393 2.214-5.24 2.548a74.867 74.867 0 01-12.36 1.274c-8.315 0-16.63-.27-24.96-.413-2.995 0-3.918.86-3.823 3.919a9.643 9.643 0 00.733 3.712 3.569 3.569 0 002.246 1.88c5.356.672 10.682 1.144 13.5 1.417l.163.016.43-.003c15.575-.14 21.592-1.792 30.091-7.691a12.526 12.526 0 003.106-2.9c1.211-1.689.176-3.298-1.05-4.365-.447-.383-1.944.207-2.836.605z" id="a"/><path d="M118.01.667c7.01.653 12.616 3.282 16.582 9.209 3.966 5.926 7.789 11.486 11.946 17.015a39.072 39.072 0 006.515 6.245 3.57 3.57 0 003.09.399c.493-.208.605-1.865.493-2.82-.286-2.374-.891-4.78-1.178-7.106a11.148 11.148 0 01.159-3.999c.653-2.788 3.01-3.936 5.32-2.326a31.875 31.875 0 016.26 5.815c3.313 3.999 6.276 8.3 9.557 12.38a47.783 47.783 0 0022.809 15.772c1.426.208 2.874.208 4.3 0a13.078 13.078 0 00-.86-4.206 47.798 47.798 0 01-6.371-14.578 17.848 17.848 0 01-.398-3.792c0-3.027 1.959-4.509 4.778-3.346a20.22 20.22 0 015.703 3.57c7.486 6.707 12.01 15.421 15.928 24.439a102.18 102.18 0 018.537 33.92 33.83 33.83 0 01-.446 8.316c-1.593 8.252-6.706 11.55-14.925 9.113a82.856 82.856 0 01-15.227-6.373c-5.8-3.078-11.522-6.334-17.234-9.606l-3.809-2.182c-2.539-1.454-5.08-2.903-7.628-4.335-15.29-8.588-31.856-11.71-49.233-10.897-10.688.493-21.376 1.146-31.665 4.317a94.704 94.704 0 00-11.771 4.652 19.118 19.118 0 00-8.538 7.839 21.966 21.966 0 01-4.906 5.544c-2.42 1.992-3.95 1.322-4.523-1.72a33.476 33.476 0 01-.717-6.262c0-8.157-5.686-12.172-11.85-12.666-7.232-.59-14.543-.43-21.806-.318-3.695 0-7.375.716-11.15 1.115-3.544.183-7.095.183-10.64 0C.907 73.365-.893 70.608.7 66.769a36.894 36.894 0 015.59-9.432 152.725 152.725 0 0129.85-26.718c4.668-3.29 9.52-6.333 14.384-9.356l2.432-1.512a579.73 579.73 0 006.057-3.805h.127l-.015.095A167.405 167.405 0 0185.979 4.618 83.857 83.857 0 01118.011.667z" id="c"/><path d="M78.372.21a7.485 7.485 0 014.396 1.514 122.779 122.779 0 0110.64 9.48c4.062 4.221 4.158 9.75 3.537 15.071-.192 1.593-2.422 3.187-4.126 4.047-10.019 4.732-18.588 7.297-30.263 6.644-14.734-1.275-29.467-2.47-44.185-3.856-5.192-.494-10.353-1.402-15.53-2.183C.23 30.53-.344 29.223 1.52 27.311a20.489 20.489 0 014.779-3.68A58.48 58.48 0 0020.155 13.53c3.42-3.394 7.775-5.12 12.182-6.76l.968-.359.645-.24.644-.24c.322-.121.643-.244.964-.367A87.878 87.878 0 0161.345.673C67 .306 72.702.195 78.372.21z" id="e"/><path d="M37.414 7.65c4.173 4.78 8.41 9.56 12.742 14.212a33.78 33.78 0 0023.398 11.041c1.147.08 2.613-.111 2.756 1.593.143 1.705-1.131 2.2-2.405 2.518a31.45 31.45 0 01-21.232-2.518 46.911 46.911 0 01-20.707-18.672c-4.428-7.312-6.371-8.062-15.036-6.643-4.19.685-8.394 1.242-12.615 1.593A4.493 4.493 0 01.699 9.308c-.924-1.593.414-3.186 1.895-4.079C6.832 2.473 11.705 1.692 16.58.96c1.704-.27 3.504-.382 5.335-.557A19.353 19.353 0 0137.414 7.65z" id="g"/><path d="M11.325.244l6.18 11.63c1.864 4.094 3.823 8.157 5.543 12.3 2.837 6.786 4.117 13.96 5.343 21.14l.198 1.163.2 1.164.2 1.163c.112.574.335 1.132.494 1.705l.398 4.525a159.867 159.867 0 01-2.214-2.406 2.366 2.366 0 00-.223-.621L6.324 23.329.174 13.467C3.892 9.07 7.608 4.662 11.325.244z" id="i"/><path d="M35.225 1.81c5.193 1.848 10.577 3.186 15.928 4.78 1.307.382 2.724.812 2.405 2.437-.29 1.477-1.553 1.506-2.81 1.415l-.188-.014-.187-.015c-1.37-.111-2.278-.191-3.409-.239-8.384-.29-16.31 1.788-24.174 4.138l-.982.295-1.474.446-1.963.597-.491.148c-2.98.892-5.878 1.976-8.889 2.74C3.496 19.926.852 17.297.501 11.88c-.19-2.932 2.151-4.35 4.604-5.194 4.3-1.466 8.649-2.756 12.965-4.127.94-.302 1.912-.493 2.82-.86a19.317 19.317 0 0114.335.112z" id="k"/><path d="M24.37 2.937a43.163 43.163 0 011.624 4.366A21.605 21.605 0 0120.53 18.71a33.096 33.096 0 01-12.646 8.97 16.8 16.8 0 01-1.498.526c-4.125 1.083-6.499-.574-6.371-4.78a17.115 17.115 0 016.164-13.08c4.062-3.187 8.442-6.118 12.742-9.002C21.725-.52 22.92-.09 24.37 2.937z" id="m"/><path d="M26.932.57a3.601 3.601 0 012.326 2.247 3.33 3.33 0 01-1.673 2.74 41.625 41.625 0 01-7.613 2.055c-2.947.542-5.91.765-9.542 1.195-2.182-.43-5.032-.796-7.772-1.593C1.75 6.959 1.16 5.621.412 4.76c.94-.605 1.832-1.593 2.851-1.768 6.276-.956 12.583-1.769 18.89-2.533a13.36 13.36 0 014.78.11z" id="o"/><path d="M177.664 86.173c.34 1.07.701 2.135 1.072 3.199l.371 1.063.94 2.658c1.182 3.367 2.31 6.745 3 10.207.674 4.604.988 9.255.94 13.909l-.906 15.102-.113 1.833v.686c-.653 5.353-4.412 7.503-9.557 5.432a2.388 2.388 0 01-1.593-3.266c3.077-9.044 3.508-18.362 3.015-27.706l-.047-.838-.025-.418-.051-.814-.056-.813c-.243-3.352-.822-6.682-1.459-10.007l-.214-1.108-.453-2.325a186.55 186.55 0 01-.678-3.655 3.537 3.537 0 013.186-4.493c1.306-.255 2.182 0 2.628 1.354zM38.484.443c.549.348 1.113.672 1.682.988l1.284.704c.855.47 1.704.95 2.513 1.494 2.214 1.482 2.31 3.378.414 5.274-.36.385-.773.718-1.226.988l-.601.33-.603.329-.604.323c-.505.268-1.01.53-1.519.789l-.61.307-.612.303-.614.299-.617.293c-7.725 3.634-16.007 6.086-25.933 6.379l-1.023-.211-3.024-.613-1.525-.317-.902-.192-.915-.2-.46-.103-.45-.101a7.05 7.05 0 01-.374-.094l-.181-.054C1.094 16.89.079 15.928.32 14.065a3.998 3.998 0 013.966-3.856 67.913 67.913 0 0021.678-4.35A55.39 55.39 0 0035.426.666a2.5 2.5 0 013.058-.223zM172.042.73l.128.114.063.059.125.12.062.061.12.126.058.062.114.129.109.131c.8.997 1.208 2.256.271 3.563a12.526 12.526 0 01-3.106 2.9l-.424.29-.422.285-.417.278-.207.136-.412.267c-.138.088-.274.175-.41.26l-.407.254-.203.125-.404.244-.402.237-.401.231-.4.225c-.333.184-.666.363-.998.535l-.4.203-.2.1-.4.194c-.2.095-.402.189-.603.28l-.404.18c-.742.324-1.494.62-2.266.89l-.423.144c-1.77.59-3.651 1.046-5.754 1.392l-.509.08c-.77.119-1.57.223-2.404.315l-.562.058c-.19.02-.38.038-.573.056l-.584.051-.595.048-.302.023-.613.043-.76.047c-.512.03-1.038.056-1.576.08l-.818.033c-.552.02-1.118.038-1.698.053l-.881.02-.45.01-.914.013-.94.011-.477.003-4.344-.415-1.828-.181-1.706-.177-1.267-.136-1.296-.144-1.317-.152-1.062-.129-.799-.1a3.57 3.57 0 01-2.198-1.879 9.643 9.643 0 01-.733-3.712l-.005-.238c-.035-2.52.695-3.49 2.85-3.656l.203-.013.104-.005.215-.007.224-.002a729.76 729.76 0 014.916.099l6.242.15c4.68.112 9.357.202 14.033.166a74.867 74.867 0 0012.36-1.274c.99-.18 1.912-.67 2.828-1.208l.367-.218.55-.328c.491-.29.986-.567 1.496-.795l.242-.106.262-.11.276-.11.19-.07.175-.062.176-.059.174-.053c.577-.169 1.105-.237 1.34-.035z" id="q"/><path d="M13.556.196L34.884 2.06c.157.147.322.285.494.414l11.356 2.884.415-.095c9.27 3.839 18.651 7.456 27.81 11.55a743.031 743.031 0 01101.207 54.249l18.46 13.223-8.234 31.864-17.155-17.302h-.397a116.481 116.481 0 00-37.75-22.304c-2.182-.813-4.3-1.77-6.451-2.662a72.015 72.015 0 00-30.98-26.86 453.013 453.013 0 00-61.037-21.605l-.908.192-12.838-4.047L.097 16.909A4990.997 4990.997 0 0013.557.196z" id="s"/><path d="M11.169.46l18.78 4.636 12.837 4.063.908-.207a455.01 455.01 0 0161.021 21.603 72.02 72.02 0 0130.964 26.83c2.15.892 4.269 1.848 6.451 2.66a116.792 116.792 0 0137.606 22.178l.35.111h.192l17.154 17.335-4.65 17.97a102.458 102.458 0 00-16.423-14.991 8.832 8.832 0 01-.955-.94h-.494l-16.804-12.969c-8.219-6.42-15.148-13.829-18.78-23.802a16.599 16.599 0 00-6.705-7.966l-.956-.414c-7.008-1.8-14.049-3.505-21.025-5.45a64.814 64.814 0 01-9.334-3.425c-3.137-1.497-3.408-3.76-1.05-6.277 2.993-3.138 2.26-5.863-2.087-6.643-5.337-.956-10.784-1.386-16.168-2.151-2.758-.39-5.524-.702-8.291-1.004l-1.846-.201c-5.535-.605-11.071-1.24-16.558-2.475-5.16-1.148-10.815-.272-16.231-.096-3.472.127-6.913.653-10.37.988l-.891.175c-1.593-.096-3.186 0-4.778-.096-3.903-.239-5.83-1.912-7.089-5.91v-.75l.335-1.465c1.418-2.708 2.915-5.385 4.237-8.142a3.187 3.187 0 00.239-2.596 3.183 3.183 0 00-2.565-.86c-1.943.227-3.87.584-5.765 1.067-2.055.454-4.066.928-6.067 1.406l-2.998.718c-1 .239-2.002.477-3.01.712L11.17.46z" id="u"/><path d="M.24 1.222C2.727.792 4.654.012 6.454.22L7.86.382c8.915 1.038 17.84 2.2 26.435 5.015 5.846 1.912 10.481 5.751 14.91 9.734 5.16 4.62 9.97 9.687 14.94 14.466l.382.128c2.853 3.805 4.168 8.224 5.419 12.677l.295 1.055.1.352c1.417 5.05 4.89 8.491 8.951 11.47l-6.371 24.504-16.104-20.329-.43-.924c-4.205-6.516-8.123-13.255-12.742-19.47a108.127 108.127 0 00-30.773-27.482c-3.345-2.087-6.53-4.604-9.716-7.026A26.273 26.273 0 01.24 1.222z" id="w"/><path d="M196.92 0c10.816 0 19.585 8.77 19.585 19.59 0 1.157-.101 2.29-.293 3.393l-.055.3-.059.294v.004h.037l-34.987 135.245-18.445-13.048v-.16A743 743 0 0061.464 91.37c-5.166-2.31-10.403-4.467-15.651-6.599l-4.415-1.789c-1.939-.785-3.877-1.571-5.811-2.366l-1.933-.796-.414.095-11.373-2.884a6.267 6.267 0 01-.374-.305l-.12-.109L5.223 75.2l-5.177-.446 5.176-6.484 30.264-37.982 3.665-4.607c2.446-3.073 4.899-6.142 7.373-9.19C53.825 7.5 66.215.148 78.826.002L79.21 0h117.71z" id="y"/><path d="M96.295.268l3.185 7.265v.446l1.02 2.007a190.891 190.891 0 004.093 8.062c1.434 2.66 2.867 5.273 4.46 7.87a182.972 182.972 0 009.286 14.02c.255.35.494.702.749 1.036a3.85 3.85 0 010 .43c3.022 3.858 6.056 7.708 9.093 11.556l3.644 4.618c8.504 10.776 16.995 21.564 25.267 32.514a661.806 661.806 0 014.831 6.637l.951 1.33 1.242 1.688a940.116 940.116 0 017.463 10.752l2.96 4.32c.988 1.44 1.975 2.879 2.966 4.316l1.488 2.154H.213l23.88-30.203c.356-.624.747-1.192 1.17-1.693l.185-.214a6.14 6.14 0 00.636-.834L45.286 64.28l17.986-22.75-.012.223 1.831-2.293 8.076-10.197c2.862-3.56 5.68-7.12 8.48-10.675l2.796-3.556 3.186-4.06a633.625 633.625 0 016.008-7.454L96.055.554l.24-.286z" id="A"/><path d="M15.687.02l6.148 9.863 21.12 28.677c.104.196.179.405.224.621l2.198 2.406.366.956c3.393 14.227 10.099 27.085 18.063 39.24a70.95 70.95 0 0014.813 16.904 40.305 40.305 0 0014.336 7.01c3.376.712 6.28 2.85 7.964 5.864 4.284 8.682 11.627 14.354 19.113 19.915.462.35.908.733 1.338 1.115l1.227 1.115.59.51.509.462.334.892c.104.33.238.65.398.956.86 1.322 1.752 2.613 2.629 3.92h-44.17c-4.969-7.202-9.843-14.42-14.876-21.54l-1.21-1.721a255.567 255.567 0 00-5.782-7.966C48.61 92.792 35.756 76.733 23.014 60.53a3.858 3.858 0 000-.43c-.255-.334-.494-.685-.748-1.035a191.697 191.697 0 01-9.287-14.02 212.455 212.455 0 01-4.46-7.871 204.641 204.641 0 01-4.093-8.062l-1.02-2.007v-.446L.222 19.394 15.687.02z" id="C"/><path d="M.47.462a191.59 191.59 0 009.286 14.02A182.874 182.874 0 01.47.463z" id="E"/><path d="M.491.203c5.033 7.122 9.907 14.37 14.877 21.54l-2.136-3.077C8.972 12.506 4.778 6.307.492.203z" id="G"/><path d="M.101.075c2.278 1.737 4.604 3.426 6.85 5.21.17.136.33.285.477.446H3.462C2.586 4.424 1.694 3.134.834 1.81A5.803 5.803 0 01.436.968L.1.075z" id="I"/><path d="M334.919.936c.299.864.212 1.816-.24 2.612-.793 1.654-1.649 3.28-2.514 4.9l-.864 1.62-.431.81-.427.811-.335 1.467v.7l.05.154c.069.21.14.413.213.609l.112.29c1.262 3.182 3.161 4.584 6.562 4.832l.151.01c1.239.087 2.478.106 3.717.11l1.061.002.893-.175c.864-.088 1.727-.187 2.59-.287l1.294-.15c2.157-.25 4.314-.482 6.485-.551 1.014-.036 2.036-.096 3.062-.162l2.172-.142.701-.043c3.39-.205 6.768-.294 9.965.37l.33.072c4.68 1.046 9.396 1.66 14.117 2.193l1.573.176 3.148.345c2.623.29 5.244.592 7.858.967 1.584.22 3.172.414 4.763.602l2.863.336c2.863.34 5.724.699 8.557 1.196 4.072.734 4.964 3.157 2.583 6.092l-.157.188c-.08.095-.164.19-.251.285l-.089.095c-2.345 2.473-2.14 4.774.943 6.212l.109.05a62.134 62.134 0 009.318 3.44c4.07 1.135 8.16 2.187 12.258 3.228l3.513.89c1.171.298 2.342.595 3.514.896l1.756.452.956.398.185.115a16.676 16.676 0 016.584 7.85c3.09 8.489 8.57 15.153 15.2 20.879l.499.428.503.424.508.42.255.21.643.52.648.514.261.204.262.204 16.804 13.033.144.005c.095.002.19 0 .286-.005.299.333.618.647.956.94a102.478 102.478 0 0116.084 14.602l.402.453-10.848 42.22-.377-.281-.188-.142-.372-.286c-3.643-2.836-6.72-6.224-7.998-10.762l-.637-2.271-.162-.567-.246-.848-.084-.282-.17-.563-.175-.56c-.975-3.08-2.183-6.062-4.158-8.75l-.182-.243-.382-.128-.827-.817-1.647-1.637-1.641-1.634c-3.554-3.537-7.098-7.04-10.826-10.378l-.7-.627-.47-.416-.472-.414-.475-.412-.477-.408-.24-.203-.48-.402-.243-.2-.486-.396c-3.257-2.623-6.763-4.915-10.866-6.256-6.875-2.252-13.963-3.446-21.087-4.365l-1.125-.143-1.126-.14-1.689-.202-2.815-.328c-.873-.1-1.775.031-2.756.243l-.373.083-.573.134-.795.188-.412.095c-.417.093-.85.183-1.303.26a26.23 26.23 0 002.915 3.33l.478.365 2.384 1.826c2.23 1.703 4.48 3.375 6.854 4.836a108.136 108.136 0 0130.774 27.482c2.655 3.585 5.083 7.345 7.472 11.136l.955 1.517 1.429 2.279a447.398 447.398 0 002.4 3.784l.486.753.43.924 16.151 20.361-79.863 308.886.033-.011-.85 3.173-3.316 12.823a70.84 70.84 0 01-.513 1.452l-7.95 29.63c-2.85 6.59-13.507 20.677-34.861 20.84H104.614a4.159 4.159 0 00-.478-.446 160.63 160.63 0 00-3.412-2.623l-1.722-1.291c-.287-.216-.573-.43-.859-.647l-.856-.649-.122-.117a6.41 6.41 0 00-.257-.221l-.131-.108-.589-.51-1.226-1.115c-.43-.383-.877-.765-1.338-1.115l-1.285-.952-.767-.574-.765-.575-.506-.385-.506-.388-.503-.388-.5-.391-.623-.492-.618-.495-.245-.2-.49-.4-.242-.203-.485-.405-.48-.41a71.015 71.015 0 01-1.182-1.037l-.466-.423-.231-.212-.458-.43c-3.497-3.305-6.556-7.017-8.763-11.556a11.945 11.945 0 00-7.963-5.863 40.312 40.312 0 01-14.336-7.01 70.955 70.955 0 01-14.94-16.903l-.274-.422-.546-.844-.809-1.27-.534-.85-.53-.85-.524-.854c-6.526-10.677-11.89-21.854-14.814-34.215l-.083-.214-.16-.435-.123-.323-.048-.497-.12-1.317-.078-.883-.077-.9-.075-.927-.072-.245-.065-.209-.134-.416a7.6 7.6 0 01-.223-.835l-.163-.944-.565-3.305-.245-1.416-.166-.943-.17-.944c-1.054-5.812-2.33-11.574-4.632-17.079-1.004-2.416-2.088-4.805-3.188-7.19l-1.417-3.065-.47-1.021-.469-1.024-6.211-11.614a3185.911 3185.911 0 0121.136-26.622 1294.48 1294.48 0 017.147-8.842l5.388-6.612 8.506-10.802c8.591-10.824 17.192-21.625 25.804-32.406a69310.483 69310.483 0 0163.333-79.345l10.557-13.204 71.932-90.048L296.5 26.3c6.01-7.435 12.015-14.87 18.014-22.304 4.03-.957 8.044-1.928 12.074-2.853a44.799 44.799 0 015.766-1.05 3.185 3.185 0 012.565.844zM250.42 253.872a37.09 37.09 0 00-3.186 8.842c-.502 2.008-.917 4.04-1.319 6.074l-.343 1.745c-.459 2.326-.928 4.65-1.519 6.938l-.228.857c-1.29 4.875-4.555 6.835-9.556 6.468-.842-.062-1.672-.231-2.499-.431l-.55-.137-1.01-.256a23.928 23.928 0 00-1.691-.37 72.705 72.705 0 00-7.805-1.196c-3.811-.244-7.25.844-10.525 2.42l-.417.204-.415.21-.414.212-.43.226-.426.23-.639.353-.424.238-.423.241-.823.464-.823.46-.826.458-.276.15-.552.3-.554.295c-3.698 1.955-7.512 3.62-11.771 4.246-.977.143-1.95.306-2.923.471l-1.457.248c-1.457.245-2.915.476-4.38.635a3.185 3.185 0 00-3.043 2.518 46.613 46.613 0 01-2.246 5.878l-.07.14-.144.27c-.138.258-.277.502-.417.732l-.14.225c-1.78 2.79-3.748 3.404-6.54 2.058l-.232-.115c-.156-.08-.314-.165-.474-.257l-.243-.14a17.61 17.61 0 01-.496-.308l-.255-.167a107.547 107.547 0 01-2.11-1.48l-1.38-.994c-1.384-.992-2.778-1.964-4.239-2.816a10.877 10.877 0 00-14.845 2.597 47.053 47.053 0 00-4.779 6.867 71.709 71.709 0 00-8.28 24.403l-.066.451-.163 1.067c-.192 1.245-.385 2.49-.574 3.735l-.162 1.067-.16 1.067-.156 1.067-.152 1.068-.148 1.068c-.848 6.23-1.427 12.48-1.097 18.81.077 1.5.388 2.978.924 4.38.828 2.152 2.421 2.47 4.014.877a70.956 70.956 0 004.571-5.608 89.93 89.93 0 016.371-7.966c3.584-3.585 6.467-2.629 7.694 2.262.052.22.09.444.111.67.112 1.159.24 2.317.374 3.477l.242 2.086c.32 2.781.614 5.564.69 8.345.444 16.257-.242 32.483-1.224 48.695l-.153 2.494-.157 2.494-.16 2.493-.329 4.987c-1.162 17.446 3.935 32.326 17.234 44.132a379.795 379.795 0 007.136 6.373c1.837 1.583 3.67 3.17 5.501 4.76l5.493 4.77c6.103 5.297 12.22 10.58 18.441 15.738a132.78 132.78 0 0013.955 9.98l.635.391c5.062 3.14 9.718 1.406 11.99-3.962l.068-.164c.287-.7.622-1.386.86-2.087a32.932 32.932 0 0111.405-15.932 23.258 23.258 0 006.037-7.456c2.166-4.222-.542-8.221-5.32-8.603-.837-.048-1.676 0-2.5.143-1.14.173-2.277.364-3.413.56l-1.363.238-1.363.24c-3.178.556-6.358 1.09-9.567 1.352-9.223.75-18.212-.949-27.029-3.449l-.813-.233-.406-.118-.812-.24-1.014-.304-1.012-.31-.404-.126a39.637 39.637 0 01-13.906-6.946 9.465 9.465 0 01-3.679-10.022 33.997 33.997 0 012.198-6.58 55.987 55.987 0 004.922-17.27c.645-3.213.01-6.551-1.768-9.304-2.077-2.928-4.575-3.196-7.185-.804l-.094.087c-.441.397-.828.845-1.204 1.302l-.563.686c-.25.303-.507.6-.781.88-.84.963-1.804 1.81-2.867 2.517-2.119 1.24-3.588.532-4.058-1.82l-.02-.108a8.447 8.447 0 01-.175-1.784c.052-1.358.115-2.713.18-4.068l.128-2.71c.106-2.256.201-4.51.25-6.764.084-6.373.127-12.746.127-19.119a36.193 36.193 0 00-.717-5.369 12.237 12.237 0 015.718-12.347c2.26-1.284 4.54-2.527 6.822-3.758l4.337-2.335a437.029 437.029 0 004.77-2.606 8.7 8.7 0 005-6.628c.781-7.774 3.727-14.785 7.264-21.635a41.084 41.084 0 003.186-7.967l.082-.293.042-.144.106-.352.11-.34.09-.262c.046-.13.093-.257.14-.38l.097-.245c.033-.08.066-.16.1-.237l.101-.23c1.174-2.564 2.923-3.75 6.172-4.09l.29-.028c.148-.013.298-.024.451-.034l.31-.017.37-.016.25-.005h.237l.09.001.175.007c.056.002.111.006.165.01l.156.015c1.04.115 1.466.533 1.417 1.442l-.01.137a3.89 3.89 0 01-.041.294l-.03.158-.037.166-.043.174-.024.09-.052.184-.058.194c-.02.066-.042.133-.064.2a96.748 96.748 0 01-.86 2.489l-.67 1.86a72.203 72.203 0 00-1.25 3.75l-.183.633a6.104 6.104 0 001.716 6.284l.365.326c.31.274.626.538.945.792l.274.215c3.402 2.616 7.295 3.997 11.816 2.818a256.184 256.184 0 0014.988-4.461 34.719 34.719 0 0126.266 1.593c3.317 1.491 6.806 2.614 10.327 3.662l1.586.467 1.159.338a246.33 246.33 0 015.197 1.556c1.016.278 2.066.414 3.118.403l.243-.005c3.87-.048 5.702-2.39 4.778-6.102a64.64 64.64 0 00-.853-2.975l-.456-1.482c-.151-.495-.3-.99-.442-1.487l-.231-.833-.068-.257-.041-.173a7.63 7.63 0 01-.038-.172l-.034-.173-.016-.088-.027-.176c-.158-1.11.027-2.175 1.219-2.89a3.185 3.185 0 014.22 1.179 44.007 44.007 0 014.349 6.803c2.597 5.082 4.906 10.308 7.502 15.39a17.808 17.808 0 009.987 8.763l.742.278 2.223.834c2.714 1.016 5.428 2.005 8.185 2.823a9.829 9.829 0 017.367 7.063l.04.154a132.922 132.922 0 013.6 19.214c.236 2.904-.053 5.85-.403 8.805l-.267 2.217c-.176 1.479-.339 2.957-.43 4.432-.22 3.546-.339 7.1-.443 10.656l-.114 4.002a8.38 8.38 0 01-3.393 6.596 2.28 2.28 0 01-2.023.207 1.96 1.96 0 01-.637-1.849c1.138-2.793 1.273-5.615 1.114-8.442l-.028-.458-.042-.574-.047-.573-.04-.459-.093-.964-.097-.98a69.724 69.724 0 01-.257-3.179c-.096-1.768-1.259-2.533-3.011-2.023-.49.14-.968.326-1.444.521l-.712.295c-.475.196-.953.382-1.444.522a30.91 30.91 0 01-6.562 1.593 5927.296 5927.296 0 01-45.882 2.26l-5.74.258a189.735 189.735 0 01-37.485-1.972l-1.22-.19-.478-.071a49.979 49.979 0 00-.715-.099l-.476-.06-.233-.028-.466-.052c-4.117-.437-8.162-.253-12.048 1.69a9.162 9.162 0 00-5.4 6.294l-.05.232-.045.225-.06.323-.034.206-.015.101-.027.196-.022.19-.017.183-.012.176c-.089 1.613.494 2.39 2.093 2.81l.176.045.183.04.24.049.252.044.212.033.22.032.113.014.351.043 4.34.469c4.915.533 9.813 1.075 14.768 1.695l4.048.518 1.157.145 1.735.214 1.157.138c6.559.769 13.132 1.312 19.777.929 3.794-.208 7.596-.208 11.389 0 5.214.052 9.64 3.84 10.496 8.985.49 3.043.788 6.113.892 9.193a8.412 8.412 0 004.874 7.583l8.041 3.902c4.02 1.95 8.039 3.896 12.065 5.824l3.356 1.602a51.053 51.053 0 0016.741 4.78 20.7 20.7 0 0012.742-2.087c3.874-2.237 5.039-5.158 3.819-9.41l-.344-1.168a54.65 54.65 0 01-.83-3.092c-1.195-5.257.43-8.205 5.75-9.304 3.35-.606 6.76-.83 10.162-.67 1.709.046 3.41.225 5.112.421l1.914.223c1.277.146 2.555.277 3.837.344a7.054 7.054 0 006.787-3.068l.078-.118a43.98 43.98 0 0114.956-14.243 26.559 26.559 0 009.86-10.053c.465-1.697.922-3.385 1.377-5.07l.454-1.685v-9.48c0-4.096-.012-8.191-.027-12.287l-.023-6.143c-.034-9.215-.055-18.43.05-27.645.096-8.668 1.8-17.048 6.69-24.488a120.37 120.37 0 012.685-3.899l1.178-1.657c1.33-1.873 2.64-3.759 3.811-5.725l.29-.493c2.851-4.84 5.4-9.852 7.63-15.008 1.513-3.553.223-6.23-3.106-8.237a88.716 88.716 0 00-3.162-1.786l-1.592-.866c-.53-.29-1.058-.582-1.582-.88l-.784-.45v.015a32.212 32.212 0 00-12.886-4.285c-1.87-.192-3.74-.312-5.611-.454l-.935-.072-.24.669c.596.61 1.234 1.174 1.912 1.689.593.388 1.202.753 1.814 1.114l.736.431.6.356c.798.477 1.583.97 2.324 1.521l.276.21a47.361 47.361 0 016.371 5.783 4.063 4.063 0 01.59 3.665 3.95 3.95 0 01-3.33 1.593 22.106 22.106 0 01-7.04-2.119c-1.423-.743-2.768-1.636-4.104-2.552l-1.2-.827c-1.014-.697-2.033-1.384-3.09-2.006a15 15 0 00-3.774-1.052 23.669 23.669 0 00.175 3.362c.51 2.677-.399 4.19-3.043 3.856a16.7 16.7 0 01-6.483-2.215 36.439 36.439 0 01-4.953-4.62 104.974 104.974 0 00-8.076-7.249c-3.87-2.868-7.996-5.449-12.105-7.966a19.121 19.121 0 00-5.415-2.23 64.444 64.444 0 00-25.345-.697l-.427.075c-4.205.728-8.38 1.665-12.548 2.63l-4.17.97c-1.736.403-3.475.8-5.215 1.18l-.422.088-.273.052-.265.048-.26.043-.126.02-.25.035-.242.03-.118.013-.234.022-.227.017-.22.011c-2.436.098-3.778-.835-4.852-3.301l-.095-.225-.094-.233c-.047-.12-.093-.24-.139-.366l-.091-.254-.046-.13-.09-.267a5.193 5.193 0 00-4.348-3.76 26.088 26.088 0 01-16.693-10.022c-1.81-2.404-3.44-4.946-5.041-7.51l-1.84-2.962c-.615-.986-1.233-1.97-1.863-2.943a59.91 59.91 0 00-4.222-6.373c-3.026-3.616-7.533-3.313-9.779.797zm46.606 122.087a87.878 87.878 0 00-25.788 4.892c-.417.16-.835.318-1.254.476l-2.247.835-.539.201-.515.195-.514.198-.512.2-.255.101-.509.206-.268.11-.533.224c-2.925 1.248-5.703 2.756-8.055 5.023l-.202.197a58.48 58.48 0 01-13.857 10.1 20.489 20.489 0 00-4.779 3.68c-1.465 1.53-1.411 2.672.006 3.247l.146.056c.327.116.718.206 1.17.267.61.091 1.218.185 1.827.28l3.65.57c3.347.52 6.694 1.012 10.053 1.332 8.831.832 17.667 1.594 26.505 2.347l8.84.752c2.947.25 5.893.502 8.84.757 10.627.597 18.7-1.415 27.696-5.414l.637-.286.64-.292c.213-.099.428-.198.643-.3l.647-.304.254-.132.26-.142.211-.12.213-.126.106-.065.213-.134c1.384-.891 2.723-2.11 2.869-3.328l.04-.363.058-.546.035-.364.031-.364.028-.365c.01-.122.018-.243.025-.365l.022-.365.017-.364.013-.364.009-.364c.072-4.062-.722-8.033-3.814-11.248a122.779 122.779 0 00-10.64-9.48 7.485 7.485 0 00-4.396-1.512c-5.67-.016-11.373.095-17.027.461zm-99.75 3.462l-.173.087-.178.095-.092.05-.186.108-.19.116c-.065.04-.13.081-.197.125l-.203.132-1.436.963c-3.834 2.575-7.696 5.206-11.306 8.038a17.115 17.115 0 00-6.165 13.08c-.127 4.206 2.246 5.863 6.372 4.78.51-.143 1.003-.335 1.497-.526a33.096 33.096 0 0012.647-8.97 21.605 21.605 0 005.463-11.407 43.163 43.163 0 00-1.624-4.365l-.106-.217-.105-.207-.104-.2a10.744 10.744 0 00-.26-.455l-.103-.166-.104-.158c-.934-1.374-1.905-1.646-3.447-.903zm142.915-127.795c-1.816.175-3.632.287-5.432.557l-.812.123-.541.084-.541.085-.54.088-.539.09-.538.095-.537.099c-3.484.655-6.877 1.616-9.937 3.606a6.665 6.665 0 00-.453.299l-.146.108c-1.208.925-2.093 2.299-1.296 3.672a4.491 4.491 0 003.616 1.466c3.94-.327 7.865-.835 11.777-1.458l1.35-.218.495-.077.481-.072.467-.065.452-.06.437-.053.425-.047.49-.047.318-.026.31-.021.301-.017.295-.012c3.299-.11 5.237.712 7.283 3.17l.181.22.182.23.182.24.093.122.184.25.186.262.188.27.19.278.242.363.245.378.125.194.315.502.325.526.132.218a46.913 46.913 0 0020.706 18.672 31.452 31.452 0 0021.232 2.518l.153-.04.152-.041.151-.045.15-.047.146-.05c.097-.036.192-.074.285-.114l.137-.063c.742-.362 1.286-.945 1.238-2.018l-.006-.1v.016c-.091-1.103-.705-1.436-1.41-1.543l-.126-.017-.126-.012-.128-.01-.191-.009-.19-.005-.37-.008-.12-.005a33.778 33.778 0 01-23.398-11.04c-4.332-4.653-8.57-9.432-12.743-14.212a19.35 19.35 0 00-15.497-7.25zm67.758 16.538c-6.308.764-12.615 1.577-18.891 2.532-.612.106-1.177.503-1.735.935l-.223.174c-.297.233-.593.466-.893.66.16.183.312.389.462.6l.378.544.127.179.128.173c.345.456.71.834 1.151.958 1.37.406 2.775.7 4.115.945l.57.102.56.098 1.604.272.503.087.484.089.387-.047.758-.09 1.104-.125 2.098-.23 1.005-.114.655-.078.324-.04.642-.082a54.88 54.88 0 002.195-.334l.31-.055a41.625 41.625 0 007.613-2.056 3.33 3.33 0 001.673-2.74 3.601 3.601 0 00-2.326-2.246 13.36 13.36 0 00-4.778-.111zM192.745 254.79l-.224.086c-.42.17-.854.302-1.292.425l-.897.247c-.14.04-.281.08-.42.123l-.21.066c-.864.273-1.728.544-2.593.814l-2.597.808c-2.165.673-4.33 1.352-6.484 2.069l-1.292.435v.016l-.22.077-.11.04-.22.082-.216.086-.215.09-.107.046-.21.096-.209.1c-1.823.898-3.247 2.293-3.096 4.624.35 5.417 2.994 8.03 8.49 6.66 1.529-.389 3.03-.86 4.526-1.345l1.823-.596c.632-.205 1.265-.409 1.901-.606l4.68-1.418 1.223-.367.816-.241 1.224-.357.818-.235.409-.115.819-.228c6.417-1.766 12.924-3.092 19.734-2.857l1.52.06.383.018.399.021.207.012.433.029.229.017.62.049.232.015.233.01.194.004.19-.002.15-.007c.865-.052 1.593-.36 1.804-1.436.222-1.137-.405-1.69-1.249-2.05l-.139-.056-.214-.08-.145-.05-.221-.071-.219-.066-.219-.065c-1.126-.335-2.254-.66-3.382-.98l-3.378-.954c-3.091-.877-6.162-1.776-9.168-2.846a19.316 19.316 0 00-14.111-.197zm76.374-109.08a166.844 166.844 0 00-26.175 11.063l-.68.36-.222-.223.095.27c-2.034 1.3-4.085 2.58-6.138 3.857l-3.465 2.154c-4.49 2.796-8.959 5.624-13.27 8.663a152.722 152.722 0 00-29.849 26.718 36.865 36.865 0 00-5.59 9.432c-1.594 3.887.206 6.612 4.427 6.883 3.308.17 6.622.182 9.932.034l.708-.034.492-.054c.47-.053.939-.11 1.406-.17l.933-.121 1.395-.185c2.165-.286 4.312-.549 6.463-.582l.461-.004 2.422-.038 1.617-.024 1.547-.02c5.416-.062 10.84-.038 16.22.401 6.164.494 11.85 4.509 11.85 12.666.041 2.105.282 4.202.717 6.261.027.147.057.288.09.423l.049.2.026.096.055.187c.019.06.038.12.058.178l.061.17c.714 1.879 2.063 2.133 4.011.606l.173-.139a21.966 21.966 0 004.906-5.544 19.116 19.116 0 018.327-7.74l.21-.099a94.629 94.629 0 0111.772-4.652c8.09-2.493 16.425-3.43 24.814-3.956l1.048-.064.525-.03 1.05-.058 1.05-.056 1.575-.078 1.603-.076c17.377-.812 33.942 2.31 49.233 10.898a963.12 963.12 0 016.359 3.609l5.894 3.376c5.441 3.114 10.893 6.206 16.418 9.138a82.821 82.821 0 0015.228 6.373c8.218 2.437 13.331-.86 14.924-9.114.49-2.743.64-5.536.446-8.316a102.175 102.175 0 00-8.537-33.919l-.295-.676-.298-.674-.3-.673-.304-.671-.306-.67-.31-.668-.313-.665-.317-.663-.32-.661c-.163-.33-.326-.659-.49-.987l-.333-.654c-3.178-6.201-7.009-11.999-12.342-16.778a20.22 20.22 0 00-5.703-3.569c-2.819-1.163-4.778.319-4.778 3.346a17.913 17.913 0 00.398 3.792 47.798 47.798 0 006.371 14.578c.517 1.345.807 2.766.86 4.206a14.853 14.853 0 01-4.3 0 47.782 47.782 0 01-22.606-15.519l-.203-.254a168.194 168.194 0 01-3.29-4.252l-1.79-2.384c-1.461-1.945-2.931-3.877-4.477-5.743a31.875 31.875 0 00-6.26-5.815c-2.31-1.61-4.667-.462-5.32 2.326a11.15 11.15 0 00-.16 3.999c.288 2.326.893 4.732 1.18 7.105l.008.082.015.17c.067.97-.065 2.378-.517 2.569a3.568 3.568 0 01-3.09-.399 39.069 39.069 0 01-6.515-6.245c-3.741-4.976-7.212-9.977-10.76-15.248l-1.186-1.768c-3.966-5.927-9.573-8.555-16.581-9.208a83.856 83.856 0 00-32.032 3.95z" id="K"/></defs><g fill="none" fill-rule="evenodd"><g transform="translate(340.692 439.269)"><mask id="b" fill="#fff"><use xlink:href="#a"/></mask><path fill="#FDFDFD" mask="url(#b)" d="M.38 270.517H299.17V.37H.38z"/></g><g transform="translate(394.734 330.185)"><mask id="d" fill="#fff"><use xlink:href="#c"/></mask><path fill="#FDFEFE" mask="url(#d)" d="M.08 105.49h231.237V.47H.08z"/></g><g transform="translate(447.274 564.364)"><mask id="f" fill="#fff"><use xlink:href="#e"/></mask><path fill="#FCFDFD" mask="url(#f)" d="M.38 37.098h96.854V.17H.38z"/></g><path fill="#152E51" d="M700.688 281.658h.06v-.96h-.06z"/><g transform="translate(529.837 440.27)"><mask id="h" fill="#fff"><use xlink:href="#g"/></mask><path fill="#F8F8F9" mask="url(#h)" d="M.38 37.859h75.958V.39H.38z"/></g><g transform="translate(200.585 586.381)"><mask id="j" fill="#fff"><use xlink:href="#i"/></mask><path fill="#00C7E6" mask="url(#j)" d="M.16 55.072h29.723V.19H.16z"/></g><g transform="translate(383.225 442.27)"><mask id="l" fill="#fff"><use xlink:href="#k"/></mask><path fill="#F9F9FA" mask="url(#l)" d="M.48 18.924h53.141V.37H.481z"/></g><g transform="translate(388.73 567.867)"><mask id="n" fill="#fff"><use xlink:href="#m"/></mask><path fill="#F9F9FA" mask="url(#n)" d="M-.04 28.552h26.06V.21H-.04z"/></g><g transform="translate(597.389 456.782)"><mask id="p" fill="#fff"><use xlink:href="#o"/></mask><path fill="#F5F6F7" mask="url(#p)" d="M.38 8.857h28.882V.27H.38z"/></g><path fill="#47ABC6" d="M230.408 642.474h.42v-1.02h-.42z"/><path fill="#2875AC" d="M657.395 235.963h1.02v-.42h-1.02zM307.747 734.164h.66v-.6h-.66z"/><path fill="#2875AC" d="M308.288 734.584h.54v-.54h-.54z"/><path fill="#B1D27C" d="M230.408 641.453h.06v-.06h-.06z"/><g transform="translate(389.73 483.803)"><mask id="r" fill="#fff"><use xlink:href="#q"/></mask><path fill="#01426A" mask="url(#r)" d="M.28 141.078h183.74V.03H.28z"/></g><path fill="#1A3A62" d="M453.599 346.327h.3v-.36h-.3z"/><path fill="#184875" d="M541.746 202.277h.36v-1.56h-.36z"/><g transform="translate(536.842 162.557)"><mask id="t" fill="#fff"><use xlink:href="#s"/></mask><path fill="#C0E585" mask="url(#t)" d="M.04 116.159h194.609V.15H.04z"/></g><g transform="translate(525.834 179.07)"><mask id="v" fill="#fff"><use xlink:href="#u"/></mask><path fill="#00C7E6" mask="url(#v)" d="M.3 117.66h197.191V.45H.301z"/></g><g transform="translate(628.412 283.65)"><mask id="x" fill="#fff"><use xlink:href="#w"/></mask><path fill="#8BA6C1" mask="url(#x)" d="M.22 79.791H79.3V.171H.22z"/></g><path fill="#C84A9B" d="M701.348 364.401h.78v-1.02h-.78z"/><g transform="translate(550.353 88)"><mask id="z" fill="#fff"><use xlink:href="#y"/></mask><path fill="#01426A" mask="url(#z)" d="M.04 158.831h216.466V-.05H.04z"/></g><path fill="#B94E9D" d="M606.175 731.582h.3v-1.14h-.3z"/><g transform="translate(89 618.906)"><mask id="B" fill="#fff"><use xlink:href="#A"/></mask><path fill="#01426A" mask="url(#B)" d="M.18 121.323h178.817V.21H.18z"/></g><path fill="#B1D27C" d="M267.937 741.55h.96v-1.381h-.96z"/><g transform="translate(185.073 599.891)"><mask id="D" fill="#fff"><use xlink:href="#C"/></mask><path fill="#C0E585" mask="url(#D)" d="M.18 140.457h126.877V.01H.18z"/></g><g transform="translate(197.583 644.425)"><mask id="F" fill="#fff"><use xlink:href="#E"/></mask><path fill="#B1D27C" mask="url(#F)" d="M.46 14.501h9.307V.451H.46z"/></g><g transform="translate(252.625 718.482)"><mask id="H" fill="#fff"><use xlink:href="#G"/></mask><path fill="#B1D27C" mask="url(#H)" d="M.48 21.747h14.892V.19H.48z"/></g><path fill="#B1D27C" d="M193.54 644.936h4.563v-7.926h-4.563zM246.08 717.05h5.825v-8.045h-5.825z"/><g transform="translate(308.668 734.494)"><mask id="J" fill="#fff"><use xlink:href="#I"/></mask><path fill="#44A7C2" mask="url(#J)" d="M.1 5.734h7.386V.03H.1z"/></g><path fill="#1A3A62" d="M308.708 734.584h.12v-.06h-.12z"/><path fill="#1A3A62" d="M308.288 734.584h.54v-.48h-.54z"/><path fill="#1A3A62" d="M306.486 734.164h1.922v-1.741h-1.922zM308.768 739.808h6.905v-5.284h-6.905z"/><g transform="translate(211.594 189.077)"><mask id="L" fill="#fff"><use xlink:href="#K"/></mask><path fill="#01426A" mask="url(#L)" d="M.26 551.211h506.788V.05H.26z"/></g></g></svg>