<svg>
    <defs>
        <path d="M659.5555,1 C670.3635,1 679.1255,9.764 679.1255,20.575 C679.1255,21.731 679.025,22.864 678.833,23.965 L521.3915,631.934 C518.5705,638.453 508.106,652.3145 487.193,652.75 L486.556,652.759 L2,652.838 C338.535,231.2945 507.627,19.5075 509.275,17.477 C516.5705,8.4935 528.951,1.148 541.5525,1 L659.5555,1 Z" id="path-1"></path>
        <polygon id="path-3" points="0.466892476 0.127510204 368.598333 0.127510204 368.598333 219.671399 0.466892476 219.671399"></polygon>
    </defs>
    <g id="EL-AL" stroke="none" stroke-width="1" fill="none" fill-rule="evenodd">
        <g id="Mask-Raw" transform="translate(88.000000, 88.000000)">
            <path d="M659.5555,0.25 L541.5525,0.25 C529.417951,0.392464104 516.653519,7.20156168 508.692801,17.0041958 L504.143997,22.693252 L408.78043,142.119216 L0.441350848,653.588254 L486.556122,653.509 L487.203595,653.499925 C496.850749,653.299046 504.993321,650.296167 511.536706,645.215715 C516.398031,641.441257 520.090369,636.67697 521.967184,632.487618 L522.102948,632.178405 L679.55905,24.1530201 L679.57185,24.0938457 C679.773302,22.9386432 679.8755,21.7624542 679.8755,20.575 C679.8755,9.34991032 670.777837,0.25 659.5555,0.25 Z M541.561308,1.74994828 L659.5555,1.74994828 C669.949327,1.74994828 678.3755,10.1782545 678.3755,20.575 L678.3755,20.9873085 C678.353341,21.8108328 678.282538,22.6275948 678.159826,23.4338938 L678.099,23.806 L520.6795,631.689 L520.703183,631.636141 C518.963128,635.657204 515.375715,640.335962 510.616794,644.03091 C504.32299,648.917581 496.490164,651.80623 487.177385,652.000163 L486.545405,652.009075 L3.558,652.0875 L468.817257,69.3318426 L505.306926,23.640727 L509.555328,18.3259168 L509.857335,17.9496367 C517.549486,8.47771051 529.904809,1.88684959 541.561308,1.74994828 Z" id="BG" fill="#000000" fill-rule="nonzero"></path>
            <mask id="mask-2" fill="white">
                <use xlink:href="#path-1"></use>
            </mask>
            <use id="FG" fill="#FFFFFF" xlink:href="#path-1"></use>
            <g id="EL-AL" mask="url(#mask-2)">
                <g transform="translate(2.000000, 5.000000)">
                    <path d="M0.380708576,623.80358 C0.380708576,622.315386 0.628816339,620.777138 0.339506565,619.348829 C-1.3918736,610.807576 3.76375197,606.204452 9.78999395,601.688027 C14.9384539,597.82766 19.6829551,593.402404 24.4005854,589.008432 C26.5645867,586.992889 28.9014572,586.167008 31.753353,585.806803 C40.5472953,584.699371 49.3260107,583.452506 58.0814381,582.080507 C66.3800605,580.780013 74.6392724,579.237296 82.9208766,577.829544 C92.3579286,576.226048 101.850514,574.83081 111.320706,573.611652 C120.851806,572.385344 130.391863,571.17155 139.899675,569.762011 C152.663342,567.86892 165.39745,565.700536 178.155743,563.877162 C188.652403,562.376455 199.057702,560.32516 209.581233,558.973718 C219.909502,557.646409 230.136558,555.519141 240.392276,553.659121 C249.810518,551.951943 259.218012,550.182198 268.612967,548.356143 C280.518556,546.041174 292.398171,543.589452 304.307344,541.293253 C314.092821,539.407313 324.047586,538.206925 333.665568,535.702468 C343.30236,533.192648 353.088734,531.474745 362.77031,529.249156 C381.85132,524.861441 400.63048,519.311772 419.784937,515.195774 C431.987898,512.574228 443.911402,508.679896 456.011357,505.548878 C475.91999,500.396954 495.87699,495.430943 515.796371,490.320135 C521.900539,488.753285 527.826463,486.539316 533.810607,484.653376 C543.837923,481.495544 553.283036,477.052412 563.020146,473.286788 C565.508389,472.324154 564.791832,474.020607 565.075768,474.907267 C571.878578,496.184425 578.642874,517.474097 585.436727,538.754831 C587.480705,545.159877 589.644706,551.527383 591.634047,557.949411 C592.141011,559.586872 592.547657,561.314608 589.780852,561.807991 C586.373625,562.414888 584.658367,565.788129 581.561051,567.243253 C571.156647,572.132396 561.0111,577.413028 549.936716,580.947155 C533.836582,586.084778 518.166383,592.557753 502.114616,597.866094 C496.266618,599.8003 489.849853,600.011239 483.698213,601.038227 C473.695081,602.708759 463.700011,604.423981 453.695088,606.084681 C443.970517,607.698009 434.246843,609.331895 424.505254,610.837965 C412.610413,612.678321 400.71378,614.529403 388.784006,616.120385 C380.244442,617.260888 371.635908,617.88298 363.080221,618.917118 C354.705465,619.929806 346.388033,621.653966 337.990884,622.176845 C329.978884,622.674698 322.153189,624.195069 314.228071,625.113013 C305.234389,626.154302 296.222793,627.036493 287.212092,627.922259 C280.945803,628.538988 274.660705,628.967123 268.398895,629.621393 C260.730843,630.422247 253.078017,632.056133 245.422504,632.034681 C239.621978,632.017699 233.966554,632.828385 228.270824,633.277078 C214.040007,634.39881 199.825313,635.458869 185.547921,636.004987 C175.110377,636.406308 164.66925,637.189286 154.223644,637.749705 C137.592363,638.641728 120.963768,639.574866 104.331591,640.458845 C91.8017014,641.12384 79.2915169,642.385007 66.7383389,642.035527 C55.2886583,641.718224 43.9097376,643.299375 32.4860322,642.949001 C21.9911634,642.628123 11.9701178,639.299573 1.67588484,637.676413 C-0.0572867162,637.402013 0.41474502,636.309777 0.403100973,635.407028 C0.351150612,631.53951 0.380708576,627.671098 0.380708576,623.80358" id="Fill-1" fill="#003A7D"></path>
                    <g id="Group-5" stroke-width="1" fill="none" transform="translate(320.000000, 0.000000)">
                        <mask id="mask-4" fill="white">
                            <use xlink:href="#path-3"></use>
                        </mask>
                        <g id="Clip-4"></g>
                        <path d="M0.466892476,219.568351 C5.28001383,213.463127 9.60859879,207.999943 13.9067323,202.513412 C22.4349313,191.629249 30.9031231,180.69929 39.4787905,169.852841 C46.8990939,160.467371 54.4501595,151.186963 61.9062881,141.829331 C64.8941133,138.079453 68.0673342,134.432841 70.6413779,130.408188 C74.0752274,125.037494 78.8990964,122.519616 84.8989289,120.895208 C106.10389,115.153657 126.506366,106.924759 147.356657,100.072433 C169.073024,92.936351 189.619696,82.9232082 210.597167,74.0109633 C232.667308,64.6353714 254.833281,55.4294939 276.299766,44.6108816 C283.99682,40.7308 292.211548,37.629249 299.899645,33.7042694 C307.182917,29.9858204 314.615759,26.5816571 321.885596,22.8461469 C335.986412,15.6014122 350.079167,8.33782041 364.211329,1.15414694 C365.413266,0.542636735 367.478592,-0.226914286 368.10822,0.306473469 C369.269854,1.28973878 368.04463,2.92222857 367.719516,4.33651429 C361.660572,30.633249 355.610584,56.9290857 348.947985,83.0830449 C346.239596,93.7121878 343.776611,104.426637 341.806223,115.21382 C340.687579,121.337004 335.465155,121.597412 331.657827,123.145494 C318.931805,128.317739 306.152045,133.375045 293.357956,138.382963 C279.756902,143.707861 265.875516,148.312596 252.119519,153.237902 C232.405783,160.296759 212.400968,166.462147 192.349579,172.450637 C174.050941,177.916514 155.661844,183.103127 137.21274,188.036514 C120.678494,192.457167 104.053791,196.56982 87.3843051,200.448106 C66.7489653,205.248596 45.9765939,209.46182 25.3663318,214.36378 C18.2442735,216.057331 10.8965163,216.881657 3.99299199,219.527943 C3.21647985,219.825167 2.22949442,219.568351 0.466892476,219.568351" id="Fill-3" fill="#003A7D" mask="url(#mask-4)"></path>
                    </g>
                    <path d="M402.871143,418.324613 C397.966619,419.083587 393.996162,419.593158 390.07576,420.356617 C388.505275,420.661642 387.554224,421.449323 388.852087,423.443647 C390.7524,426.362914 392.235288,429.556703 394.018508,432.859942 C397.739582,428.66944 398.885491,423.228336 402.871143,418.324613 M404.983298,283.906463 C402.435841,288.646907 400.132404,292.925329 397.837905,297.208236 C397.576903,297.695378 397.1416,298.234554 397.188974,298.70824 C397.264057,299.453757 398.083712,299.412488 398.593204,299.296758 C402.3402,298.448072 406.065744,297.502495 409.816315,296.667265 C410.738763,296.461822 411.745232,296.451954 411.059653,295.150215 C409.148613,291.518626 407.164279,287.927407 404.983298,283.906463 M450.185907,370.615146 C447.037787,376.323595 444.102402,381.647175 441.123218,387.0506 C446.957341,387.733317 451.855609,384.141201 457.614649,384.405855 C455.122611,379.780244 452.751241,375.376224 450.185907,370.615146 M462.507554,308.631415 C457.676324,309.368857 453.648661,310.924483 449.328711,311.033036 C448.268611,311.05995 446.143943,311.439437 446.755332,312.725027 C448.781678,316.988197 450.165349,321.708007 453.678158,325.240015 C456.662705,319.625764 459.471164,314.342555 462.507554,308.631415 M336.407549,409.189121 C342.800325,407.916988 347.934568,406.895155 353.355734,405.816802 C350.955762,401.124803 348.713106,396.739623 346.232688,391.89242 C342.968368,397.638549 340.036558,402.801542 336.407549,409.189121 M349.24405,346.59534 C352.518202,340.740658 355.648445,335.14435 359.169299,328.849176 C354.168239,331.039075 349.396003,330.516047 344.890133,332.070776 C342.202343,332.998411 342.600104,333.805829 343.47339,335.49782 C345.372809,339.172471 347.289212,342.838152 349.24405,346.59534 M378.979574,400.571273 C379.628505,400.571273 380.088835,400.645735 380.517881,400.560507 C391.239545,398.423539 401.954953,396.250686 412.681087,394.135249 C415.341168,393.610427 416.902714,392.24589 418.242587,389.715081 C423.762971,379.297587 429.85899,369.185118 435.267643,358.712001 C437.199241,354.971859 440.791602,351.439851 437.381585,346.057958 C433.01158,339.15722 429.702567,331.579148 425.959147,324.280084 C424.777484,321.975352 424.166988,319.099148 422.403433,317.440351 C420.335971,315.494473 417.732202,318.322232 415.23927,318.166131 C414.084423,318.093463 412.973374,318.474744 411.83551,318.726838 C403.968785,320.473554 396.088652,322.315365 388.112877,323.344376 C384.827999,323.768719 382.622884,324.85694 381.177538,327.482844 C374.387001,339.824686 367.718028,352.23471 360.971289,364.599877 C360.300906,365.829845 359.624266,366.854369 360.412637,368.376802 C365.614811,378.427369 370.749054,388.513822 375.881509,398.602069 C376.591222,399.996211 377.364397,401.124803 378.979574,400.571273 M490.80667,396.929815 C490.720861,398.915168 489.796626,399.420253 488.261895,399.740529 C481.658172,401.121215 475.102716,402.736052 468.504356,404.144549 C460.900421,405.768357 453.266096,407.247727 445.651434,408.821297 C440.296412,409.928357 434.994127,411.543194 429.587261,412.037514 C426.746624,412.296785 425.702613,413.879325 424.806981,415.618864 C414.668103,435.324363 403.596945,454.505938 392.67059,473.770945 C390.568268,477.476997 389.461689,476.000292 388.12986,473.404916 C380.383804,458.303497 372.610932,443.214637 364.902417,428.093481 C364.100639,426.521706 363.408803,426.070449 361.471842,426.478644 C350.196888,428.857838 338.865621,430.973274 327.556701,433.194573 C319.37713,434.801336 311.231525,436.619822 303.007262,437.944885 C300.475001,438.35308 300.773545,436.015155 301.559234,434.464911 C304.813722,428.045036 308.082511,421.627853 311.534539,415.313839 C315.820523,407.474702 320.325499,399.757574 324.674946,391.952528 C327.957143,386.062858 331.094537,380.090652 334.399081,374.213541 C335.513705,372.231777 335.384097,370.553244 334.331148,368.582245 C328.104628,356.922224 321.628724,345.376138 315.993035,333.431725 C313.863003,328.919152 311.098343,324.723267 309.365178,319.957703 C308.388206,317.271691 309.750425,316.757634 311.235101,316.456198 C325.07807,313.649073 338.953218,311.002534 352.814958,308.283327 C358.740254,307.120645 364.653929,305.899648 370.572073,304.700183 C374.410241,303.92237 374.936716,300.113148 376.361504,297.559911 C384.681408,282.644198 392.579418,267.49254 400.648152,252.43508 C402.214168,249.512225 403.811468,246.598341 405.555358,243.78045 C407.879354,240.024159 409.012749,240.076193 410.973844,243.922197 C417.062712,255.858535 423.136386,267.802948 429.179668,279.762611 C430.727807,282.828111 433.058059,285.433381 433.877715,288.964492 C434.277263,290.682499 436.102494,291.671138 438.179788,291.236029 C450.850034,288.584108 463.487207,285.757246 476.207508,283.369978 C482.014816,282.279963 487.780113,281.099338 493.523063,279.723137 C495.128408,279.339165 497.523018,278.774869 498.592056,280.163629 C499.695954,281.596349 498.301556,283.491988 497.453298,285.022495 C486.995317,303.908913 476.615101,322.83929 465.969413,341.61895 C464.132563,344.857595 464.684065,347.609099 466.172316,350.247563 C473.038829,362.426127 479.426242,374.844225 485.483826,387.444441 C487.092746,390.792536 489.114622,393.938778 490.80667,396.929815" id="Fill-6" fill="#003A7D"></path>
                </g>
            </g>
        </g>
    </g>
</svg>
