<svg width="856" height="830" xmlns="http://www.w3.org/2000/svg" xmlns:xlink="http://www.w3.org/1999/xlink"><title>S7</title><defs><path d="M659.556 1c10.808 0 19.57 8.764 19.57 19.575 0 1.156-.101 2.289-.293 3.39L521.391 631.934c-2.82 6.519-13.285 20.38-34.198 20.816l-.637.009L2 652.838C338.535 231.295 507.627 19.508 509.275 17.477 516.571 8.493 528.951 1.148 541.553 1h118.003z" id="a"/><path id="c" d="M0 0h370.893v288.251H0z"/></defs><g transform="translate(88 88)" fill="none" fill-rule="evenodd"><path d="M659.556.25H541.552c-12.134.142-24.898 6.952-32.86 16.754l-4.548 5.69-95.364 119.425L.441 653.59l486.115-.08.648-.01c9.647-.2 17.79-3.203 24.333-8.283 4.861-3.775 8.553-8.539 10.43-12.728l.136-.31L679.559 24.153l.013-.06c.201-1.154.303-2.33.303-3.518 0-11.225-9.097-20.325-20.32-20.325zM541.56 1.75h117.995c10.393 0 18.82 8.428 18.82 18.825v.412c-.023.824-.093 1.64-.216 2.447l-.061.372-157.42 607.883.024-.053c-1.74 4.021-5.327 8.7-10.086 12.395-6.294 4.887-14.127 7.775-23.44 7.97l-.632.008-482.987.078 465.26-582.755 36.489-45.691 4.248-5.315.302-.376c7.692-9.472 20.048-16.063 31.704-16.2z" fill="#7CAF4D" fill-rule="nonzero"/><mask id="b" fill="#fff"><use xlink:href="#a"/></mask><use fill="#7CAF4D" xlink:href="#a"/><g mask="url(#b)"><g transform="translate(234 241)"><mask id="d" fill="#fff"><use xlink:href="#c"/></mask><path d="M364.899 0h-128.64l-18.28 45.647h42.639c28.691 0 34.21-.617 41.415-.617-10.401 23.763-73.087 183.295-73.087 183.295h53.053s79.364-198.59 87.774-219.41C372.103 4.267 370.946 0 364.9 0zm-193.46 0c-41.413 0-68.28 2.286-87.727 9.496-32.681 12.714-55.251 39.361-55.251 74.38 0 29.167 13.599 50.29 52.955 74.585 41.991 25.422 50.368 33.824 50.368 49.143 0 16.765-16.448 35.849-58.77 35.849-14.771 0-37.02-2.042-51.237-5.515l-6.783-1.708C11.209 246.36 2.619 270.328 0 279.024l6.717 1.973c12.788 4.074 43.138 7.254 64.882 7.254 72.336 0 115.494-43.644 115.494-89.347 0-28.083-12.764-49.424-55.913-76.314-21.644-13.296-32.674-21.918-39.373-28.593-5.43-6.967-6.03-12.153-6.03-17.63 0-5.23 1.165-11.257 4.617-15.672 3.734-5.457 10.583-8.935 19.852-11.804 9.527-3.157 27.18-3.24 54.672-3.24h25.6L208.796 0h-37.358z" fill="#FFF" mask="url(#d)"/></g></g></g></svg>