<svg width="857" height="830" viewBox="0 0 857 830" fill="none" xmlns="http://www.w3.org/2000/svg">
<path fill-rule="evenodd" clip-rule="evenodd" d="M749.132 77.085C759.986 77.085 768.785 85.878 768.785 96.7249C768.785 97.8847 768.684 99.0215 768.491 100.126L610.382 710.112C607.549 716.652 597.04 730.56 576.038 730.997L575.398 731.006L88.7852 731.085C426.749 308.143 596.559 95.6538 598.214 93.6166C605.54 84.6033 617.973 77.2335 630.628 77.085H749.132Z" fill="#ED1C24"/>
<path d="M537.727 344.61C551.793 289.121 530.45 252.292 521.412 240.399C515.12 241.755 508.392 244.297 502.583 246.903C456.341 267.643 435.521 312.649 429.262 345.106C445.673 295.231 483.508 280.129 491.666 277.933C493.453 279.822 516.658 305.054 513.466 349.522L537.727 344.61Z" fill="white"/>
<path d="M398.426 343.59L385.238 360.094C397.606 367.16 408.006 376.82 413.904 383.783L423.87 379.201C423.87 378.701 423.889 376.745 423.889 376.245C419.889 368.245 408.448 352.648 398.426 343.59Z" fill="white"/>
<path d="M570.349 334.95C571.051 337.199 572.596 343.622 572.824 345.992C534.789 348.147 493.234 358.842 459.835 370.79C305.967 427.931 262.518 513.445 262.763 568.099C320.67 590.817 372.087 558.139 380.959 551.678C366.954 558.979 338.824 570.864 304.887 560.548C306.339 496.254 359.747 444.465 418.429 408.977C463.837 381.515 512.426 363.959 542.403 357.013C556.752 353.363 569.539 351.441 573.091 350.719C573.091 351.719 572.909 357.083 572.516 365.567C575.016 365.567 578 363.962 578.288 363.644C579.02 361.962 580.198 356.915 581.234 349.646L588.643 348.874C590.644 348.417 590.222 345.398 588.263 345.398C586.304 345.398 582.268 345.521 580.782 345.627C580.042 342.156 577.121 334.904 576.779 334.804C573.645 333.889 571.303 334.521 570.349 334.95Z" fill="white"/>
<path d="M462.545 442.571C462.545 453.984 453.293 463.236 441.88 463.236C430.467 463.236 421.215 453.984 421.215 442.571C421.215 431.158 430.467 421.906 441.88 421.906C453.293 421.906 462.545 431.158 462.545 442.571Z" fill="white"/>
<path d="M530.28 365.982L509.479 372.618C507.4 377.71 504.14 395.156 485.701 416.568C543.137 386.585 601.098 411.012 622.181 441.489C605.758 470.413 553.329 504.176 488.507 478.782C518.116 506.951 526.504 546.155 522.904 575.316C520.667 593.433 511.112 610.972 506.81 616.339C484.897 611.129 453.679 592.804 437.341 551.213C431.511 536.348 428.606 520.256 430.195 500.57C427.472 507.035 421.413 515.462 421.361 515.919C415.656 566.581 438.855 632.884 504.419 657.672C539.618 618.363 543.985 540.476 496.596 486.695C561.067 520.26 633.707 498.251 664.557 454.947C653.698 436.954 638.153 424.413 623.142 415.926C594.445 399.702 564.19 397.931 547.728 398.654C525.911 399.612 504.019 407.477 499.653 409.958C505.954 404.121 520.846 388.227 530.28 365.982Z" fill="white"/>
</svg>
