<svg width="141" height="138" viewBox="0 0 141 138" fill="none" xmlns="http://www.w3.org/2000/svg">
<path fill-rule="evenodd" clip-rule="evenodd" d="M123.843 14.4101C125.642 14.4101 127.1 15.8712 127.1 17.6735C127.1 17.8663 127.083 18.0551 127.051 18.2387L100.847 119.595C100.377 120.682 98.6357 122.993 95.155 123.065L95.049 123.067L14.4 123.08C70.4125 52.8033 98.556 17.4956 98.8303 17.1571C100.045 15.6594 102.105 14.4348 104.203 14.4101H123.843Z" fill="#4FC7EA"/>
<path d="M67.4066 85.0486L67.2142 85.1813C71.1413 92.4095 78.5762 97.2927 87.0582 97.2927C99.6737 97.2927 109.891 86.5167 109.891 73.2381C109.891 69.5814 108.373 66.5028 106.578 64.1696C104.192 61.0663 100.794 59.5755 97.4087 59.5507C94.613 59.527 91.7212 60.4644 89.6852 62.3046C87.3597 64.4091 86.8421 67.1155 86.2391 71.5058C85.5766 76.3167 81.696 79.6358 76.7077 79.6358C70.2498 79.6358 66.2492 75.6673 66.514 69.5933C66.5377 69.1726 66.5745 68.7519 66.6469 68.342C67.8637 61.1741 75.5871 53.7766 87.203 53.8014C94.9988 53.8014 100.855 55.5456 106.711 61.4266L106.903 61.2939C102.975 54.0667 95.5532 49.1835 87.0582 49.1835C74.4546 49.1835 64.2251 59.9596 64.2251 73.2381C64.2251 76.8948 65.7434 79.9734 67.5384 82.3066C69.9126 85.4099 73.322 86.8888 76.7077 86.9255C79.5034 86.9611 82.3952 86.0118 84.4311 84.1716C86.7567 82.0671 87.2743 79.3607 87.8773 74.9705C88.5398 70.1596 92.4323 66.8405 97.4087 66.8405C103.88 66.8405 107.879 70.8089 107.614 76.883C107.591 77.3037 107.554 77.7243 107.481 78.1342C106.241 85.3021 98.5531 92.6997 86.9134 92.6749C79.1176 92.6738 73.2615 90.9296 67.4066 85.0486Z" fill="#051766"/>
</svg>
