<svg id="Layer_1" xmlns="http://www.w3.org/2000/svg" version="1.1" viewBox="0 0 142 139">
  <!-- Generator: Adobe Illustrator 29.5.1, SVG Export Plug-In . SVG Version: 2.1.0 Build 141)  -->
  <defs>
    <style>
      .st0 {fill: #072a5f;}
      .st1 {fill: #f7f7f7;fill-rule: evenodd;}
      .st2 {fill: #d90d07;}
      .st3 {fill: #959595;}

      .st4 {fill: #f29319;}
    </style>
  </defs>
  <path class="st1" d="M124.51,15.99c1.78,0,3.23,1.45,3.23,3.24,0,.19-.02.38-.05.56l-26.01,100.59c-.47,1.08-2.19,3.37-5.65,3.44H15.89C71.48,54.09,99.41,19.05,99.69,18.72c1.21-1.49,3.25-2.7,5.33-2.73h19.49Z"/>
  <path class="st0" d="M100.8,17.06c-3.17,19.49-6.34,38.99-9.52,58.48-9.93,16.2-19.85,32.39-29.78,48.59-15.36-.03-30.72-.05-46.07-.08,28.46-35.66,56.91-71.33,85.37-106.99Z"/>
  <path class="st4" d="M88.29,68.78l-1.6-34.37-.82,1.02.96,33.18-3.07,14.52-4.84-10.97-3.86-23.17-.98,1.23,3.55,22.59-.32,14.36-5.81-7.26-6.71-18.04-.69.86,6.1,17.5,1.29,11.78-8.71-6.13-8.23-10.97-.48.65,8.07,10.97,4.03,10.97-10-5.33-9.78-7.21-.17.21-.22.55,9.68,7.26,7.1,9.04-13.23-2.9-10.74-4.65-.51.64,11.08,4.66,10,7.91h-15.17l-12.99-3.69-.64.81,13.48,3.69,13.72,7.42-15.49.32-18.51-2.9-.11.14-.26.66,18.72,3.07,19.37,6.94c9.93-16.2,19.85-32.39,29.78-48.59-1-2.25-1.99-4.51-2.99-6.76h0Z"/>
  <path class="st2" d="M127.18,17c-22.06,35.67-44.12,71.33-66.18,107l36.86-.49,3.44-2.44c8.9-33.87,17.8-67.75,26.7-101.63-.27-.81-.55-1.63-.82-2.44Z"/>
  <path class="st3" d="M124.34,14.89c2.08,0,3.76,1.69,3.76,3.76,0,.22-.02.44-.06.65v.02s0,.02,0,.02l-26.2,101.36v.04s-.03.04-.03.04c-.52,1.21-2.41,3.69-6.14,3.77h-.11s0,0,0,0H14.9s-1.04.01-1.04.01l.65-.81L98.94,17.83h0s.25-.29.25-.29c1.31-1.45,3.37-2.61,5.5-2.64h19.65ZM104.35,15.91c-1.68.14-3.33,1.09-4.41,2.29l-.22.26c-.28.34-28.2,35.37-83.78,105.11h79.6s.1-.01.1-.01h.3c3-.2,4.51-2.2,4.93-3.14l26.19-101.29c.03-.15.04-.3.04-.46,0-1.53-1.24-2.76-2.76-2.76h-19.63l-.36.02Z"/>
</svg>