<svg>
    <defs>
        <path d="M659.5555,1 C670.3635,1 679.1255,9.764 679.1255,20.575 C679.1255,21.731 679.025,22.864 678.833,23.965 L521.3915,631.934 C518.5705,638.453 508.106,652.3145 487.193,652.75 L486.556,652.759 L2,652.838 C338.535,231.2945 507.627,19.5075 509.275,17.477 C516.5705,8.4935 528.951,1.148 541.5525,1 L659.5555,1 Z" id="path-1"></path>
        <polygon id="path-3" points="0 0.692582156 604.726451 0.692582156 604.726451 403.999328 0 403.999328"></polygon>
        <polygon id="path-5" points="0 0.0302676399 475.103982 0.0302676399 475.103982 479.176234 0 479.176234"></polygon>
    </defs>
    <g id="EMIRATES" stroke="none" stroke-width="1" fill="none" fill-rule="evenodd">
        <g id="Mask-Raw" transform="translate(88.000000, 88.000000)">
            <path d="M659.5555,0.25 L541.5525,0.25 C529.417951,0.392464104 516.653519,7.20156168 508.692801,17.0041958 L504.143997,22.693252 L408.78043,142.119216 L0.441350848,653.588254 L486.556122,653.509 L487.203595,653.499925 C496.850749,653.299046 504.993321,650.296167 511.536706,645.215715 C516.398031,641.441257 520.090369,636.67697 521.967184,632.487618 L522.102948,632.178405 L679.55905,24.1530201 L679.57185,24.0938457 C679.773302,22.9386432 679.8755,21.7624542 679.8755,20.575 C679.8755,9.34991032 670.777837,0.25 659.5555,0.25 Z M541.561308,1.74994828 L659.5555,1.74994828 C669.949327,1.74994828 678.3755,10.1782545 678.3755,20.575 L678.3755,20.9873085 C678.353341,21.8108328 678.282538,22.6275948 678.159826,23.4338938 L678.099,23.806 L520.6795,631.689 L520.703183,631.636141 C518.963128,635.657204 515.375715,640.335962 510.616794,644.03091 C504.32299,648.917581 496.490164,651.80623 487.177385,652.000163 L486.545405,652.009075 L3.558,652.0875 L468.817257,69.3318426 L505.306926,23.640727 L509.555328,18.3259168 L509.857335,17.9496367 C517.549486,8.47771051 529.904809,1.88684959 541.561308,1.74994828 Z" id="BG" fill="#000000" fill-rule="nonzero"></path>
            <mask id="mask-2" fill="white">
                <use xlink:href="#path-1"></use>
            </mask>
            <use id="FG" fill="#FFFFFF" xlink:href="#path-1"></use>
            <g id="EMIRATES" mask="url(#mask-2)">
                <g transform="translate(420.500000, 314.000000) scale(-1, 1) translate(-420.500000, -314.000000) translate(38.000000, -26.000000)">
                    <g id="Group-3" stroke-width="1" fill="none" transform="translate(0.000000, 276.000000)">
                        <mask id="mask-4" fill="white">
                            <use xlink:href="#path-3"></use>
                        </mask>
                        <g id="Clip-2"></g>
                        <path d="M604.726451,403.529492 C585.515378,403.67785 566.304305,403.932179 547.093231,403.960438 C503.233509,404.02402 459.373786,403.971035 415.514064,403.999328 C411.713163,403.999328 408.045739,403.734368 404.359247,402.339091 C357.483593,384.617311 311.065572,365.479061 266.989745,340.307564 C255.475813,333.730336 244.028619,333.006205 232.015739,331.589735 C208.202907,328.777987 184.231174,328.294056 160.459655,324.740516 C152.05064,323.483001 143.396917,323.405289 134.879849,322.935487 C110.329718,321.579066 85.9162419,318.385826 61.369289,316.898708 C40.9156136,315.662387 20.5350325,312.472679 -0.00127120419,311.840389 L-0.00127120419,1.10345082 C2.55384921,-0.143467291 4.12378639,1.70748197 5.99563455,3.1945996 C16.6642157,11.6616328 27.4535613,19.9449839 38.1380325,28.3943554 C62.9741843,48.037731 87.8230482,67.6634449 112.573394,87.433985 C144.073834,112.594885 174.945027,138.776633 207.058823,162.92375 C258.021399,201.239106 313.894001,228.69603 372.067483,250.434087 C426.119085,270.635574 477.923834,296.234484 526.566462,329.392615 C544.71608,341.766423 562.315902,355.139885 580.166786,368.057674 L580.11276,367.895186 C580.023776,369.537727 580.684802,370.025191 582.038635,369.442353 C590.527101,380.042924 597.451985,391.929268 604.726451,403.529492" id="Fill-1" fill="#222222" mask="url(#mask-4)"></path>
                    </g>
                    <g id="Group-6" stroke-width="1" fill="none">
                        <mask id="mask-6" fill="white">
                            <use xlink:href="#path-5"></use>
                        </mask>
                        <g id="Clip-5"></g>
                        <path d="M0,0.216266018 C5.1675,-0.646540146 8.89128,1.52461963 12.77088,5.59466018 C105.97032,103.364036 209.77188,184.74363 322.31208,252.569388 C329.19678,256.717223 335.97654,261.073687 342.80718,265.33114 C342.9471,268.28024 344.89962,270.111935 346.28292,272.290167 C387.8646,337.789178 429.459,403.281116 471.02478,468.797807 C472.99638,471.906031 475.85838,474.681862 474.92028,479.176234 C449.54388,458.719948 423.6873,439.084036 395.23584,424.175877 C328.88832,389.405496 262.67118,354.334547 198.591,314.571205 C167.5065,295.285366 136.93716,274.97406 106.04664,255.299251 C82.11714,240.058699 58.21626,224.747426 33.97512,210.139835 C22.71474,203.354076 12.48468,194.333509 0,190.111416 L0,0.216266018 Z" id="Fill-4" fill="#087F52" mask="url(#mask-6)"></path>
                    </g>
                    <path d="M579.845432,644.105921 C581.795767,641.332631 579.164564,639.963628 578.17508,638.404094 C546.918812,589.176441 515.592549,540.005241 484.240833,490.851683 C481.441005,486.462405 478.240292,482.440077 474.18054,479.38099 C475.119119,474.896447 472.255658,472.126686 470.27987,469.025259 C428.696053,403.651838 387.080421,338.303116 345.474333,272.947337 C344.093508,270.77034 342.139991,268.942651 342,266 C375.286143,283.754698 406.332423,305.676388 436.602387,328.96708 C518.4751,391.969444 591.006566,466.777695 659.576912,546.564459 C694.737031,587.4793 728.395424,629.883109 761.226595,673.101969 C762.578785,674.883789 763.848252,676.739706 765,678.34158 C764.357312,680.412727 763.113297,679.957569 762.146084,679.957569 C710.915585,679.985795 659.688269,679.989324 608.460952,679.968154 C607.118307,679.968154 605.77248,679.685885 604.433017,679.537694 C597.147099,667.950566 590.214342,656.07764 581.716226,645.489037 C581.33125,644.578721 581.5476,642.743975 579.788163,643.943616 L579.845432,644.105921 Z" id="Fill-7" fill="#CF0012"></path>
                </g>
            </g>
        </g>
    </g>
</svg>
