<svg>
    <defs>
        <path d="M659.5555,1 C670.3635,1 679.1255,9.764 679.1255,20.575 C679.1255,21.731 679.025,22.864 678.833,23.965 L521.3915,631.934 C518.5705,638.453 508.106,652.3145 487.193,652.75 L486.556,652.759 L2,652.838 C338.535,231.2945 507.627,19.5075 509.275,17.477 C516.5705,8.4935 528.951,1.148 541.5525,1 L659.5555,1 Z" id="path-1"></path>
        <polygon id="path-3" points="0 0.591216036 552.734906 0.591216036 552.734906 352.614452 0 352.614452"></polygon>
    </defs>
    <g id="HAINAN-AIRLINES" stroke="none" stroke-width="1" fill="none" fill-rule="evenodd">
        <g id="Mask-Raw" transform="translate(88.000000, 88.000000)">
            <path d="M659.5555,0.25 L541.5525,0.25 C529.417951,0.392464104 516.653519,7.20156168 508.692801,17.0041958 L504.143997,22.693252 L408.78043,142.119216 L0.441350848,653.588254 L486.556122,653.509 L487.203595,653.499925 C496.850749,653.299046 504.993321,650.296167 511.536706,645.215715 C516.398031,641.441257 520.090369,636.67697 521.967184,632.487618 L522.102948,632.178405 L679.55905,24.1530201 L679.57185,24.0938457 C679.773302,22.9386432 679.8755,21.7624542 679.8755,20.575 C679.8755,9.34991032 670.777837,0.25 659.5555,0.25 Z M541.561308,1.74994828 L659.5555,1.74994828 C669.949327,1.74994828 678.3755,10.1782545 678.3755,20.575 L678.3755,20.9873085 C678.353341,21.8108328 678.282538,22.6275948 678.159826,23.4338938 L678.099,23.806 L520.6795,631.689 L520.703183,631.636141 C518.963128,635.657204 515.375715,640.335962 510.616794,644.03091 C504.32299,648.917581 496.490164,651.80623 487.177385,652.000163 L486.545405,652.009075 L3.558,652.0875 L468.817257,69.3318426 L505.306926,23.640727 L509.555328,18.3259168 L509.857335,17.9496367 C517.549486,8.47771051 529.904809,1.88684959 541.561308,1.74994828 Z" id="BG" fill="#CF0012" fill-rule="nonzero"></path>
            <mask id="mask-2" fill="white">
                <use xlink:href="#path-1"></use>
            </mask>
            <use id="FG" fill="#CF0012" xlink:href="#path-1"></use>
            <g id="HAINAN" mask="url(#mask-2)">
                <g transform="translate(317.500000, 383.500000) scale(-1, 1) translate(-317.500000, -383.500000) translate(41.000000, 189.000000)">
                    <g id="Group-3" stroke-width="1" fill="none">
                        <mask id="mask-4" fill="white">
                            <use xlink:href="#path-3"></use>
                        </mask>
                        <g id="Clip-2"></g>
                        <path d="M139.731379,0.590901559 C141.353408,0.590901559 142.97465,0.590901559 144.584092,0.590901559 C134.155755,3.91885033 123.433218,6.19251626 113.120516,9.89940935 C93.8127135,16.839122 75.2042242,25.0257345 60.2228799,39.5757813 C48.8741872,50.5981866 42.2869582,63.6458214 44.5666083,79.9482891 C46.2169553,91.7435207 52.2047733,101.490723 59.8130464,110.335378 C72.8050065,125.441262 89.0496765,136.365394 106.378321,145.747017 C135.253888,161.381222 165.943422,172.387118 197.749968,180.263971 C219.313035,185.60457 241.215925,189.315394 263.151068,192.818663 C284.314527,196.199287 305.426856,199.89989 326.581662,203.332403 C349.416708,207.037723 372.152638,211.243848 394.695844,216.437429 C406.911402,219.251209 418.976714,222.638122 431.01764,226.140605 C435.526595,227.451973 438.724241,230.149396 441.29809,233.497 C445.917961,239.503503 451.772839,244.292196 456.66095,250.044759 C462.978365,257.4782 470.235015,264.104222 476.871802,271.277434 C489.328068,284.740178 501.933007,298.059049 514.572557,311.350403 C522.094301,319.261062 529.501197,327.28965 536.923826,335.296224 C542.105349,340.88526 547.536234,346.260452 552.735063,351.841625 C552.53762,352.099496 552.340176,352.356581 552.142732,352.614452 C549.859935,351.187514 547.519715,349.844699 545.303782,348.320273 C507.367038,322.241514 465.888891,303.291939 422.838274,287.476124 C383.930044,273.18159 344.164388,261.772378 303.916529,251.953632 C269.013025,243.438392 233.873533,236.03404 198.586941,229.292447 C169.194558,223.676681 139.887132,217.726784 111.902815,206.677648 C82.0242953,194.880057 53.8614134,180.271833 30.6078814,157.567407 C17.9038273,145.163663 7.61865661,131.124641 2.71717297,113.804055 C-3.73868905,90.9919216 1.45463385,70.6570775 16.749843,52.8254673 C29.8212526,37.5875029 46.6692669,27.7538192 64.9237733,20.0577902 C87.2254845,10.6549394 110.632409,5.45428241 134.454674,1.81893274 C136.230095,1.54769666 138.142389,1.71751403 139.731379,0.590901559" id="Fill-1" fill="#F4CE1F" mask="url(#mask-4)"></path>
                    </g>
                    <path d="M547.530305,362.085013 C542.377818,358.939979 536.635262,357.184192 531.181447,354.67413 C525.225679,351.933312 519.081876,349.420895 512.890867,347.145514 C495.861462,340.887627 478.917814,334.38721 461.578426,328.997406 C437.496511,321.512743 413.151818,315.089246 388.384635,310.233163 C370.920939,306.809495 353.338443,304.257834 335.685138,302.115098 C320.787064,300.306724 305.946423,299.940182 291.299326,303.983909 C286.099634,305.418679 281.131249,307.394234 276.874881,310.797495 C269.031677,317.06794 268.159161,325.211906 274.532698,333.001888 C279.011719,338.475676 284.769224,342.351437 291.194687,345.102459 C307.143871,351.932527 323.631199,353.461483 340.543376,349.324355 C342.549613,348.833801 344.501562,347.96101 346.346513,347.010514 C353.915924,343.108066 355.169232,336.869016 349.768129,330.355257 C347.163169,327.213362 344.034227,324.650713 340.71253,322.307047 C339.464729,321.426406 338.198834,320.571666 336.417611,319.344106 C341.179865,318.411663 345.168734,319.69338 349.18514,320.205125 C356.889087,321.184662 364.286985,323.253618 371.20968,326.828769 C383.000055,332.917121 389.52937,344.684115 388.558509,357.751664 C388.438135,359.385794 387.604957,360.392801 386.670287,361.452396 C375.473915,374.147909 361.222558,381.652978 344.956309,385.59624 C323.410119,390.818079 301.850555,389.470432 280.335835,385.332519 C260.228628,381.464606 240.887724,375.046602 222.33594,366.54002 C213.587177,362.527688 205.82737,356.625354 198.29651,350.510316 C192.868658,346.103187 187.981309,341.317744 184.127762,335.514305 C174.396336,320.859719 176.365595,305.512865 189.251925,293.573196 C197.387016,286.035162 206.906804,281.292887 217.478488,278.118028 C245.157467,269.802957 273.446971,267.719088 302.097597,269.689934 C327.878912,271.463774 353.063864,276.709159 377.841274,283.911263 C414.066032,294.441279 448.70547,308.960079 482.494421,325.574523 C504.253823,336.274858 525.631647,347.68787 546.462672,360.104748 C546.987441,360.417133 547.487033,360.769546 548,361.103907 C547.842648,361.431204 547.68687,361.758501 547.530305,362.085013" id="Fill-4" fill="#F4CE1F"></path>
                    <path d="M406,196 C395.36775,195.80707 384.921809,194.343166 374.458575,193.263547 C349.897094,190.729473 325.456675,187.263824 301.131816,183.015432 C281.317704,179.555295 261.549972,175.774659 242.078608,170.735648 C226.275271,166.646324 210.425553,162.718431 194.928803,157.42113 C171.272144,149.334616 147.200415,142.297797 125.218189,130.072349 C106.876476,119.872269 90.3915747,107.153078 78.6210251,89.4775594 C66.4133937,71.14293 68.9950063,54.9817137 85.4791213,40.3103879 C93.7978254,32.9058215 108.15156,24.4176984 119.902457,20 C118.808966,21.6631335 117.137678,22.1655384 115.705371,22.9726936 C108.2569,27.1699008 101.342989,32.0435434 95.6538508,38.5196845 C86.1300273,49.3607635 84.8533712,61.088532 92.0565733,73.5832949 C98.6057251,84.9448906 108.57685,92.9770695 118.639164,101.006098 C135.400779,114.382826 155.060026,121.725182 174.852127,128.881696 C200.17064,138.036018 226.063805,145.17757 252.256482,151.335573 C269.92056,155.488682 287.824405,158.063704 305.779347,160.450521 C329.107409,163.55236 352.528232,165.354088 376.052036,165.765146 C378.213076,165.802945 379.380461,166.99281 380.594228,168.338594 C388.787153,177.42598 397.038251,186.456669 405.730361,195.072362 C405.881296,195.221981 405.871863,195.533031 406,196" id="Fill-6" fill="#F4CE1F"></path>
                    <path d="M305,89.3917654 C296.017313,90.607307 287.635249,91.2060534 279.195161,90.9361075 C252.259645,90.0760471 227.893635,81.6763331 206.150451,65.7816949 C200.87814,61.9279023 196.134315,57.4573146 192.503133,51.9320543 C186.505527,42.8064682 188.228202,34.7536034 197.52453,29.0455018 C204.840214,24.5537265 213.001161,22.292929 221.289917,20.5068912 C225.863592,19.5212745 230.510188,18.8628888 235.132476,18.1142596 C236.416838,17.9063071 237.701199,17.8717791 238.746409,18.9907993 C246.176571,26.9416496 253.629473,34.8705276 261.074534,42.8080377 C261.608508,43.3769645 262.131505,43.9560927 262.670184,44.5210959 C273.5998,55.9781049 284.658792,67.3174049 295.381405,78.9658872 C298.418237,82.2656628 301.575037,85.5105074 305,89.3917654" id="Fill-8" fill="#F4CE1F"></path>
                    <path d="M137.927555,23 C136.28177,24.5623512 134.542368,26.0385578 133.005148,27.7011501 C121.999947,39.6055618 121.599515,51.48413 131.799918,64.0863136 C140.064242,74.2960244 150.483349,81.6966356 162.174556,87.6304378 C187.978445,100.726779 214.642988,111.576309 242.757426,118.640956 C273.788176,126.438616 305.292521,129.629885 337.262595,127.124641 C340.525843,126.86934 342.840326,127.571027 344.659973,130.111512 C348.012905,134.793867 352.469582,138.440136 356.409396,142.571165 C357.209474,143.409901 358.476854,144.269782 357.815236,145.47659 C357.311745,146.394423 355.911412,145.824302 354.925672,145.832133 C310.33608,146.173579 266.48835,140.726103 223.568931,128.621209 C195.061927,120.580778 167.658669,109.764139 142.367712,94.2009275 C131.275186,87.3759194 121.57198,78.8734395 114.217085,68.002764 C105.934666,55.7631712 107.57573,43.7005666 118.698937,33.8730249 C124.283748,28.938501 130.643463,25.3306052 137.927555,23" id="Fill-10" fill="#F4CE1F"></path>
                </g>
            </g>
        </g>
    </g>
</svg>
