<svg>
    <defs>
        <path d="M657.5555,2 C668.3635,2 677.1255,10.764 677.1255,21.575 C677.1255,22.731 677.025,23.864 676.833,24.965 L519.3915,632.934 C516.5705,639.453 506.106,653.3145 485.193,653.75 L484.556,653.759 L9.66338121e-13,653.838 C336.535,232.2945 505.627,20.5075 507.275,18.477 C514.5705,9.4935 526.951,2.148 539.5525,2 L657.5555,2 Z" id="path-1"></path>
    </defs>
    <g id="DELTA" stroke="none" stroke-width="1" fill="none" fill-rule="evenodd">
        <g id="Mask-Raw" transform="translate(88.000000, 88.000000)">
            <path d="M659.5555,0.25 L541.5525,0.25 C529.417951,0.392464104 516.653519,7.20156168 508.692801,17.0041958 L504.143997,22.693252 L408.78043,142.119216 L0.441350848,653.588254 L486.556122,653.509 L487.203595,653.499925 C496.850749,653.299046 504.993321,650.296167 511.536706,645.215715 C516.398031,641.441257 520.090369,636.67697 521.967184,632.487618 L522.102948,632.178405 L679.55905,24.1530201 L679.57185,24.0938457 C679.773302,22.9386432 679.8755,21.7624542 679.8755,20.575 C679.8755,9.34991032 670.777837,0.25 659.5555,0.25 Z M541.561308,1.74994828 L659.5555,1.74994828 C669.949327,1.74994828 678.3755,10.1782545 678.3755,20.575 L678.3755,20.9873085 C678.353341,21.8108328 678.282538,22.6275948 678.159826,23.4338938 L678.099,23.806 L520.6795,631.689 L520.703183,631.636141 C518.963128,635.657204 515.375715,640.335962 510.616794,644.03091 C504.32299,648.917581 496.490164,651.80623 487.177385,652.000163 L486.545405,652.009075 L3.558,652.0875 L468.817257,69.3318426 L505.306926,23.640727 L509.555328,18.3259168 L509.857335,17.9496367 C517.549486,8.47771051 529.904809,1.88684959 541.561308,1.74994828 Z" id="BG" fill="#01426A" fill-rule="nonzero"></path>
            <mask id="mask-2" fill="white">
                <use xlink:href="#path-1"></use>
            </mask>
            <use id="FG" fill="#003466" xlink:href="#path-1"></use>
            <g id="Asset-1-" mask="url(#mask-2)" fill-rule="nonzero">
                <g transform="translate(394.041328, 363.510548) scale(-1, 1) rotate(71.000000) translate(-394.041328, -363.510548) translate(104.041328, 135.510548)" id="Shape">
                    <path d="M558.108539,406.353741 L290.376002,279.622884 L290.376002,0.807923148 L558.108539,406.353741 Z M579.376002,454.807923 L290.376002,334.751456 L290.376002,454.807923 L579.376002,454.807923 Z" fill="#991932"></path>
                    <path d="M21.817326,406.652683 L289.62799,1.1068652 L289.62799,279.898242 L21.817326,406.652683 Z M0.627989904,455.106865 L289.62799,455.106865 L289.62799,335.050398 L0.627989904,455.106865 Z" fill="#E01A33"></path>
                </g>
            </g>
        </g>
    </g>
</svg>
