<svg>
    <defs>
        <path d="M659.5555,1 C670.3635,1 679.1255,9.764 679.1255,20.575 C679.1255,21.731 679.025,22.864 678.833,23.965 L521.3915,631.934 C518.5705,638.453 508.106,652.3145 487.193,652.75 L486.556,652.759 L2,652.838 C338.535,231.2945 507.627,19.5075 509.275,17.477 C516.5705,8.4935 528.951,1.148 541.5525,1 L659.5555,1 Z" id="path-1"></path>
    </defs>
    <g id="MALAYSIAAIRLINES" stroke="none" stroke-width="1" fill="none" fill-rule="evenodd">
        <g id="Mask-Raw" transform="translate(88.000000, 88.000000)">
            <path d="M659.5555,0.25 L541.5525,0.25 C529.417951,0.392464104 516.653519,7.20156168 508.692801,17.0041958 L504.143997,22.693252 L408.78043,142.119216 L0.441350848,653.588254 L486.556122,653.509 L487.203595,653.499925 C496.850749,653.299046 504.993321,650.296167 511.536706,645.215715 C516.398031,641.441257 520.090369,636.67697 521.967184,632.487618 L522.102948,632.178405 L679.55905,24.1530201 L679.57185,24.0938457 C679.773302,22.9386432 679.8755,21.7624542 679.8755,20.575 C679.8755,9.34991032 670.777837,0.25 659.5555,0.25 Z M541.561308,1.74994828 L659.5555,1.74994828 C669.949327,1.74994828 678.3755,10.1782545 678.3755,20.575 L678.3755,20.9873085 C678.353341,21.8108328 678.282538,22.6275948 678.159826,23.4338938 L678.099,23.806 L520.6795,631.689 L520.703183,631.636141 C518.963128,635.657204 515.375715,640.335962 510.616794,644.03091 C504.32299,648.917581 496.490164,651.80623 487.177385,652.000163 L486.545405,652.009075 L3.558,652.0875 L468.817257,69.3318426 L505.306926,23.640727 L509.555328,18.3259168 L509.857335,17.9496367 C517.549486,8.47771051 529.904809,1.88684959 541.561308,1.74994828 Z" id="BG" fill="#000000" fill-rule="nonzero"></path>
            <mask id="mask-2" fill="white">
                <use xlink:href="#path-1"></use>
            </mask>
            <use id="FG" fill="#FFFFFF" xlink:href="#path-1"></use>
            <g id="Group-4" mask="url(#mask-2)">
                <g transform="translate(407.000000, 386.000000) scale(-1, -1) translate(-407.000000, -386.000000) translate(238.000000, 249.000000)">
                    <path d="M4.56396289,137 L336,137 L334.096106,138.484 C332.507257,139.695208 330.903275,140.746131 329.213224,140.911972 C305.462118,143.246738 287.529725,154.0268 274.540048,174.141299 L273.167171,176.332183 C242.036242,227.527323 197.582642,259.898562 138.692545,270.885377 C130.599455,272.39453 122.341995,273.800738 114.153743,273.846735 C80.1328594,274.041188 46.1096854,274.012953 12.0858876,273.964588 L10.5920427,266.205065 C26.5017764,266.166259 42.4116991,266.180091 58.3207853,266.283745 L82.1836589,266.51124 C98.83916,266.725895 114.220789,263.523598 119.991062,246.084 C128.955749,218.995895 136.618448,191.393056 143.312224,163.632512 C147.298212,147.101912 134.916347,137.549779 118.736655,142.968714 C107.780056,146.637557 100.299031,153.771539 96.9856651,165.126333 C93.6420208,176.592835 90.4367938,188.103145 86.853082,199.490794 C83.0790462,211.478601 74.5555648,218.855712 62.3640235,219.1536 C42.0739717,219.6502 21.7621866,219.319205 1.45594372,219.038561 L0,211.515148 C5.31925144,211.473751 10.6433845,211.556787 15.9617672,211.664781 C28.7372567,211.923242 37.3450861,205.711399 41.4002822,193.887869 C45.2608288,182.62507 48.4552419,171.073144 51.1089621,159.453317 C53.9789595,146.882876 49.7745323,141.555936 37.1158324,141.0872 C26.3841616,140.692937 15.6287004,141.006157 4.88405303,141.006157 L3.33550884,137.86957 L3.33550884,137.86957 L3.9505469,137.451213 L3.9505469,137.451213 L4.56396289,137 Z" id="Path" fill="#CF0012" fill-rule="nonzero"></path>
                    <path d="M332.530462,132.264488 C304.292432,127.861908 298.155139,121.284321 295.579205,92.6237418 C291.058354,42.3335697 260.30922,6.49525105 210.450199,2.71472678 C156.498209,-1.37463521 102.101049,0.517817259 47.8962192,0.00965872514 C45.9815567,-0.0100543214 44.0474451,2.19342622 42.1241385,3.36087664 C46.2019806,5.96737947 49.3570678,6.34849837 52.5099939,6.34411769 C85.2126884,6.30031092 117.913222,6.10537079 150.615916,6.1798423 C157.034141,6.19298433 163.60796,6.46239597 169.827372,7.87954498 C179.30776,10.0414091 184.677891,18.342792 182.19272,27.6144949 C174.875511,54.9104934 167.662031,82.2787731 158.808338,109.079755 C156.342616,116.546619 149.474898,124.869905 142.550995,127.835624 C135.41315,130.891146 124.577803,130.212141 117.643094,126.633128 C113.755422,124.626778 112.659786,113.19102 113.554447,106.444778 C114.972075,95.7800196 119.278986,85.5314258 122.068861,75.0243719 C125.431406,62.368596 120.311952,54.6936499 107.767239,54.5293745 C83.3347632,54.2073948 58.8936428,54.3913832 34.4590055,54.6060364 C32.0343427,54.6279397 29.6248069,56.3101197 27.2066271,57.2234909 C38.4050255,60.5615668 49.0134658,61.0302992 59.5246603,62.3247893 C73.3422132,64.0288726 76.8495464,69.5485257 73.3054759,82.938065 C70.7079315,92.7464008 68.0412346,102.541595 65.184368,112.275459 C60.427966,128.481774 55.539742,132.227252 39.0727803,132.452857 C30.0894259,132.575516 21.0736563,132.060787 12.1378444,132.744172 C9.66780017,132.932541 7.35334925,135.219255 5,137 L336.169617,137 C336.776863,136.531268 337.386271,136.077867 338,135.687987 C335.277117,132.873402 333.917836,132.481332 332.530462,132.264488" id="Fill-4" fill="#004595" fill-rule="evenodd"></path>
                </g>
            </g>
        </g>
    </g>
</svg>
