<svg>
    <defs>
        <path d="M657.5555,2 C668.3635,2 677.1255,10.764 677.1255,21.575 C677.1255,22.731 677.025,23.864 676.833,24.965 L519.3915,632.934 C516.5705,639.453 506.106,653.3145 485.193,653.75 L484.556,653.759 L9.66338121e-13,653.838 C336.535,232.2945 505.627,20.5075 507.275,18.477 C514.5705,9.4935 526.951,2.148 539.5525,2 L657.5555,2 Z" id="path-1"></path>
        <polygon id="path-3" points="0.630726971 0.647333838 393.294233 0.647333838 393.294233 160.186869 0.630726971 160.186869"></polygon>
    </defs>
    <g id="LATAM-AIRLINES" stroke="none" stroke-width="1" fill="none" fill-rule="evenodd">
        <g id="Mask-Raw" transform="translate(88.000000, 88.000000)">
            <path d="M659.5555,0.25 L541.5525,0.25 C529.417951,0.392464104 516.653519,7.20156168 508.692801,17.0041958 L504.143997,22.693252 L408.78043,142.119216 L0.441350848,653.588254 L486.556122,653.509 L487.203595,653.499925 C496.850749,653.299046 504.993321,650.296167 511.536706,645.215715 C516.398031,641.441257 520.090369,636.67697 521.967184,632.487618 L522.102948,632.178405 L679.55905,24.1530201 L679.57185,24.0938457 C679.773302,22.9386432 679.8755,21.7624542 679.8755,20.575 C679.8755,9.34991032 670.777837,0.25 659.5555,0.25 Z M541.561308,1.74994828 L659.5555,1.74994828 C669.949327,1.74994828 678.3755,10.1782545 678.3755,20.575 L678.3755,20.9873085 C678.353341,21.8108328 678.282538,22.6275948 678.159826,23.4338938 L678.099,23.806 L520.6795,631.689 L520.703183,631.636141 C518.963128,635.657204 515.375715,640.335962 510.616794,644.03091 C504.32299,648.917581 496.490164,651.80623 487.177385,652.000163 L486.545405,652.009075 L3.558,652.0875 L468.817257,69.3318426 L505.306926,23.640727 L509.555328,18.3259168 L509.857335,17.9496367 C517.549486,8.47771051 529.904809,1.88684959 541.561308,1.74994828 Z" id="BG" fill="#C1C8CE" fill-rule="nonzero"></path>
            <mask id="mask-2" fill="white">
                <use xlink:href="#path-1"></use>
            </mask>
            <use id="FG" fill="#C1C8CE" xlink:href="#path-1"></use>
            <g id="LATAM" mask="url(#mask-2)">
                <g transform="translate(356.500000, 359.500000) scale(-1, 1) translate(-356.500000, -359.500000) translate(-20.000000, 65.000000)">
                    <path d="M313.348575,402.095376 L314.777463,402.708947 L314.777463,402.708947 L316.280621,403.365946 L319.358795,404.724109 C322.264986,406.002673 325.173489,407.249191 328.127399,408.291119 C346.148783,414.647215 364.039299,421.379194 381.907587,428.174588 L403.345817,436.339503 C408.706184,438.378342 414.068461,440.411641 419.435582,442.430961 C450.605679,454.159557 481.776595,465.883211 512.952423,477.596159 C527.381569,483.016959 541.824631,488.401522 556.255413,493.820675 C556.641865,493.965871 557.024077,494.122816 557.401562,494.309301 L558.195259,494.331773 L562,498.535414 L475.993553,516.061818 L453.939237,521.003535 L429.446589,526.482192 L429.446589,526.482192 L427.450021,526.92279 L427.450021,526.92279 L425.430867,527.360541 L425.430867,527.360541 L420.151882,528.495844 L420.151882,528.495844 C421.183353,529.819519 422.403817,530.532119 423.641322,531.087233 L424.136825,531.301954 L424.136825,531.301954 L425.367486,531.8076 C425.772807,531.97657 426.171105,532.151561 426.556012,532.349372 L426.631463,532.382203 L426.631463,532.382203 L426.789007,532.438852 C426.839487,532.459369 426.885592,532.483945 426.920302,532.519853 C427.197817,532.812224 427.128233,532.982705 426.745934,533 C423.387465,531.312795 419.99279,529.711486 416.572764,528.170341 L392.883121,533 L390.071657,517.118174 C385.390394,515.232002 380.713392,513.335857 376.067101,511.367037 L359.5448,504.362093 C345.771668,498.533287 331.975299,492.758509 318.066676,487.280805 L313.890632,485.646649 C294.598207,478.146358 275.435647,470.326368 256.290107,462.465182 L237.146059,454.600578 C226.508986,450.235186 215.865555,445.885731 205.196418,441.599969 C193.164217,436.767204 181.082079,432.057153 169.023682,427.280392 C168.863337,425.975258 169.540364,425.529152 170.355164,425.308892 L170.580272,425.253945 L170.580272,425.253945 L170.809059,425.207342 L170.809059,425.207342 L171.37642,425.108613 L171.37642,425.108613 C178.846707,423.80597 186.216018,422.034599 193.572361,420.2129 L199.590079,418.719676 C202.933632,417.893299 206.279464,417.0801 209.63584,416.319372 L216.813961,414.692697 C226.390578,412.514072 235.979141,410.265239 245.445106,407.570487 C247.772934,406.907976 250.172334,406.429107 252.573839,405.975564 L254.973473,405.5246 C257.368663,405.070352 259.742803,404.588659 262.026425,403.921206 C266.759294,402.536706 271.536311,401.384786 276.314916,400.258178 L280.41026,399.293878 C283.139425,398.648699 285.865138,397.992447 288.579458,397.28645 C296.472341,396.242714 303.587673,398.187514 310.476577,400.914266 L311.436405,401.299596 L311.436405,401.299596 L312.393627,401.693743 L312.393627,401.693743 L313.348575,402.095376 L313.348575,402.095376 Z" id="Path" fill="#CF0012"></path>
                    <path d="M283.384851,161.693181 C292.290628,164.335848 300.958939,167.715452 309.395517,171.505648 C315.695724,174.337252 322.067989,177.294815 328.381298,179.865506 C342.052763,185.43302 355.101085,192.130067 368.168241,198.838566 C375.726196,202.717913 382.702771,207.922275 390.141993,211.691204 C399.650441,216.507059 408.615994,222.039402 417.376016,227.87519 C435.018069,239.62774 453.39299,250.616361 468.772569,265.267584 C484.535368,280.285231 499.209921,296.477396 513.868915,312.603311 C520.137186,319.49911 526.882027,325.922158 533.019283,332.957002 C540.592797,341.639117 549.11044,349.491054 556.936158,357.963784 C566.124438,367.908752 575.470754,377.695864 584.801513,387.505059 C594.599832,397.804183 604.329369,408.171193 614.126052,418.476041 C623.546064,428.383386 633.03486,438.240838 642.253437,448.326487 C649.184155,455.909331 656.270455,463.376032 663.473031,470.646434 C676.201184,483.494983 688.036795,497.159806 700.727281,510.0378 C710.315977,519.767658 719.440386,529.968632 728.963573,539.785189 C737.110279,548.181853 744.902425,556.920404 753,565.66877 C751.106008,566.444149 749.657468,565.685128 748.216297,565.152669 C739.219628,561.826229 730.218865,558.507968 721.244305,555.119366 C705.530636,549.186247 689.888207,543.065826 674.115582,537.293835 C663.93486,533.569072 653.783617,529.798507 643.683143,525.852091 C634.733967,522.355525 625.556333,519.343163 616.508077,516.04126 C603.276332,511.213137 589.719506,507.053246 577.003635,501.103769 C570.175545,497.909012 564.976016,496.65906 561.405047,497.353914 C558.918746,494.692776 556.846904,493.978954 555.520372,493.484118 C541.085742,488.10227 526.638011,482.754774 512.205018,477.37129 C481.020878,465.738974 449.841651,454.096024 418.664062,442.448167 C388.242269,431.084125 357.976056,419.274322 327.331536,408.543342 C314.46991,404.039111 302.468893,395.685796 287.7665,397.616881 C289.046357,396.906117 290.770849,397.423855 292.11867,395.955706 C288.762217,393.246788 284.559896,392.18923 280.884093,391.019619 C269.231085,387.309579 257.835195,382.991832 246.562133,378.324837 C228.698172,370.930112 211.229715,362.675764 194.461372,353.031786 C163.753801,335.370655 135.776265,314.298838 112.705258,287.136863 C104.045954,276.942432 95.6601445,266.46664 89.2076323,254.790156 C82.9590129,243.483368 77.9345694,231.496078 72.4613979,219.768066 C68.5612309,211.409025 64.8174637,202.97719 60.9868987,194.586251 C50.7480392,172.156704 40.5296509,149.718977 30.2432983,127.311514 C24.630104,115.082123 18.8588722,102.924708 13.2260256,90.7034956 C8.85665947,81.2239181 4.60520726,71.6895406 0.248942673,62.2042377 C-0.0220955942,61.6153425 -0.210430342,61.3143516 0.448741274,61.0051816 C2.29114641,60.9642861 3.77653437,62.0210259 5.42323514,62.5935629 C28.8750054,70.7448545 52.4340446,78.5714358 75.6262405,87.4760225 C94.0617557,94.5542161 112.744563,100.989532 131.349579,107.619511 C155.064199,116.070976 178.826312,124.385849 202.539295,132.842221 C228.405844,142.066611 254.245371,151.366248 280.065246,160.720686 C281.194436,161.130459 281.837231,160.566918 282.703571,160.422148 C282.73223,160.950518 282.660991,161.478888 283.384851,161.693181 Z" id="Fill-1" fill="#004595"></path>
                    <path d="M283.384851,161.693181 C292.290628,164.335848 300.958939,167.715452 309.395517,171.505648 C315.695724,174.337252 322.067989,177.294815 328.381298,179.865506 C342.052763,185.43302 355.101085,192.130067 368.168241,198.838566 C375.726196,202.717913 382.702771,207.922275 390.141993,211.691204 C399.650441,216.507059 408.615994,222.039402 417.376016,227.87519 C435.018069,239.62774 453.39299,250.616361 468.772569,265.267584 C484.535368,280.285231 499.209921,296.477396 513.868915,312.603311 C520.137186,319.49911 526.882027,325.922158 533.019283,332.957002 C540.592797,341.639117 549.11044,349.491054 556.936158,357.963784 C566.124438,367.908752 575.470754,377.695864 584.801513,387.505059 C594.599832,397.804183 604.329369,408.171193 614.126052,418.476041 C623.546064,428.383386 633.03486,438.240838 642.253437,448.326487 C649.184155,455.909331 656.270455,463.376032 663.473031,470.646434 C676.201184,483.494983 688.036795,497.159806 700.727281,510.0378 C710.315977,519.767658 719.440386,529.968632 728.963573,539.785189 C737.110279,548.181853 744.902425,556.920404 753,565.66877 C751.106008,566.444149 749.657468,565.685128 748.216297,565.152669 C739.219628,561.826229 730.218865,558.507968 721.244305,555.119366 C705.530636,549.186247 689.888207,543.065826 674.115582,537.293835 C663.93486,533.569072 653.783617,529.798507 643.683143,525.852091 C634.733967,522.355525 625.556333,519.343163 616.508077,516.04126 C603.276332,511.213137 589.719506,507.053246 577.003635,501.103769 C570.175545,497.909012 564.976016,496.65906 561.405047,497.353914 C558.918746,494.692776 556.846904,493.978954 555.520372,493.484118 C541.085742,488.10227 526.638011,482.754774 512.205018,477.37129 C481.020878,465.738974 449.841651,454.096024 418.664062,442.448167 C388.242269,431.084125 357.976056,419.274322 327.331536,408.543342 C314.46991,404.039111 302.468893,395.685796 287.7665,397.616881 C289.046357,396.906117 290.770849,397.423855 292.11867,395.955706 C288.762217,393.246788 284.559896,392.18923 280.884093,391.019619 C269.231085,387.309579 257.835195,382.991832 246.562133,378.324837 C228.698172,370.930112 211.229715,362.675764 194.461372,353.031786 C163.753801,335.370655 135.776265,314.298838 112.705258,287.136863 C104.045954,276.942432 95.6601445,266.46664 89.2076323,254.790156 C82.9590129,243.483368 77.9345694,231.496078 72.4613979,219.768066 C68.5612309,211.409025 64.8174637,202.97719 60.9868987,194.586251 C50.7480392,172.156704 40.5296509,149.718977 30.2432983,127.311514 C24.630104,115.082123 18.8588722,102.924708 13.2260256,90.7034956 C8.85665947,81.2239181 4.60520726,71.6895406 0.248942673,62.2042377 C-0.0220955942,61.6153425 -0.210430342,61.3143516 0.448741274,61.0051816 C2.29114641,60.9642861 3.77653437,62.0210259 5.42323514,62.5935629 C28.8750054,70.7448545 52.4340446,78.5714358 75.6262405,87.4760225 C94.0617557,94.5542161 112.744563,100.989532 131.349579,107.619511 C155.064199,116.070976 178.826312,124.385849 202.539295,132.842221 C228.405844,142.066611 254.245371,151.366248 280.065246,160.720686 C281.194436,161.130459 281.837231,160.566918 282.703571,160.422148 C282.73223,160.950518 282.660991,161.478888 283.384851,161.693181 Z" id="Fill-1-Copy" fill="#004595"></path>
                    <g id="Group-5" stroke-width="1" fill="none" transform="translate(168.000000, 428.000000)">
                        <mask id="mask-4" fill="white">
                            <use xlink:href="#path-3"></use>
                        </mask>
                        <g id="Clip-4"></g>
                        <path d="M287.861729,114.216015 C294.148548,116.891231 300.702098,119.106354 307.080315,121.665618 C332.861777,132.015846 358.708522,142.213945 384.32864,152.949129 C389.588641,155.154048 395.337336,156.399823 400.294233,159.59357 C399.27301,161.191835 397.907648,160.497059 396.825804,160.497059 C277.906899,160.534163 158.988926,160.517466 40.0700204,160.605588 C37.0016869,160.608371 35.4041017,159.711376 34.1543854,156.957314 C22.9004097,132.149421 11.5708916,107.375849 0.180752821,82.6301051 C-6.20399211,68.7577582 -12.772464,54.9698234 -19.206638,41.119739 C-28.2903972,21.5658057 -37.333121,1.99424788 -46.3683838,-17.5828756 C-46.926093,-18.7906185 -47.263703,-20.1013257 -47.7057668,-21.3526662 C-33.9682131,-15.9725517 -20.2036132,-10.6675733 -6.49590347,-5.22438159 C34.8305379,11.1877504 75.8184367,28.4291621 117.334201,44.3858396 C141.14223,53.5357446 164.639695,63.5000877 188.16887,73.3549732 C207.43502,81.4260726 227.164684,88.4128006 245.904833,97.7203986 C260.338125,102.100554 274.018788,108.3285 287.861729,114.216015 Z" id="Fill-3" fill="#004595" mask="url(#mask-4)"></path>
                    </g>
                    <path d="M279.128491,161.85249 C253.423435,152.446917 227.698815,143.096444 201.947292,133.821631 C178.33976,125.319033 154.683316,116.958707 131.074153,108.461043 C112.551872,101.794822 93.9521463,95.3243275 75.5986126,88.2074416 C52.509551,79.2541788 29.0552774,71.3848143 5.70779569,63.1889645 C4.0684177,62.6132977 2.58963516,61.5507814 0.755423084,61.5919004 C0.249995756,60.5754374 -0.971997089,59.7020687 1.47280381,59.1979491 C16.7693173,56.0375386 32.0324074,52.7060729 47.2987583,49.3918771 C59.7306402,46.6936448 72.1413267,43.895082 84.578915,41.2248106 C102.709898,37.3316586 120.85963,33.5297909 138.994688,29.6604879 C164.633712,24.1916538 236.043792,7.49686911 261.675479,1.99596208 C263.740394,1.55269868 265.758843,0.889859531 267.822128,0.438372319 C271.04708,-0.267230646 273.434817,-0.251605406 276.208961,2.96143747 C284.28357,12.3110879 293.308708,20.8136859 301.680052,29.9125102 C311.597026,40.6931037 321.712909,51.2771482 331.726892,61.9598784 C341.556638,72.4444148 351.376602,82.9363526 361.235696,93.3937504 C371.279841,104.046875 366.241972,120.243715 376.556766,130.641901 C378.144786,132.242255 379.368409,134.211035 380.979255,136.290837 C358.13557,142.759686 304.456107,155.12459 281.755083,161.55232 C280.892595,161.697882 280.252659,162.264503 279.128491,161.85249 Z" id="Fill-6" fill="#CF0012"></path>
                </g>
            </g>
        </g>
    </g>
</svg>
