<svg width="856" height="830" xmlns="http://www.w3.org/2000/svg" xmlns:xlink="http://www.w3.org/1999/xlink"><title>ROYALAIRMAROC</title><defs><path d="M659.556 1c10.808 0 19.57 8.764 19.57 19.575 0 1.156-.101 2.289-.293 3.39L521.391 631.934c-2.82 6.519-13.285 20.38-34.198 20.816l-.637.009L2 652.838C338.535 231.295 507.627 19.508 509.275 17.477 516.571 8.493 528.951 1.148 541.553 1h118.003z" id="a"/><path id="c" d="M0 .183h353.082v413.371H0z"/></defs><g transform="translate(88 88)" fill="none" fill-rule="evenodd"><path d="M659.556.25H541.552c-12.134.142-24.898 6.952-32.86 16.754l-4.548 5.69-95.364 119.425L.441 653.59l486.115-.08.648-.01c9.647-.2 17.79-3.203 24.333-8.283 4.861-3.775 8.553-8.539 10.43-12.728l.136-.31L679.559 24.153l.013-.06c.201-1.154.303-2.33.303-3.518 0-11.225-9.097-20.325-20.32-20.325zM541.56 1.75h117.995c10.393 0 18.82 8.428 18.82 18.825v.412c-.023.824-.093 1.64-.216 2.447l-.061.372-157.42 607.883.024-.053c-1.74 4.021-5.327 8.7-10.086 12.395-6.294 4.887-14.127 7.775-23.44 7.97l-.632.008-482.987.078 465.26-582.755 36.489-45.691 4.248-5.315.302-.376c7.692-9.472 20.048-16.063 31.704-16.2z" fill="#000" fill-rule="nonzero"/><mask id="b" fill="#fff"><use xlink:href="#a"/></mask><use fill="#FFF" xlink:href="#a"/><g mask="url(#b)"><g transform="matrix(-1 0 0 1 603 158)"><path d="M39.508 311.76l42.006 162.174.178.4.197.416.216.432.234.447c.122.227.25.459.387.695l.282.479.3.49.321.5.34.51c.116.17.236.343.36.517l.379.525c.13.176.262.353.399.53l.419.536c.214.27.437.54.666.812l.47.544c5.44 6.183 14.83 12.687 29.05 12.983l.637.009 283.064.048c-85.75-12.072-233.427-41.806-359.905-183.047z" fill="#CF0012"/><mask id="d" fill="#fff"><use xlink:href="#c"/></mask><path d="M247.118 399.058C188.54 380.607 138.04 348.911 96.53 302.813c-28.83-32.017-51.498-68.15-68.604-107.727-9.204-21.295-17.462-43.126-24.329-65.296C.212 118.86.153 106.625.012 94.962-.2 77.545 2.432 60.405 9.877 44.431 22.325 17.722 43.21 3.115 72.176.583c24.91-2.176 47.991 4.712 69.874 15.932 38.383 19.68 74.756 42.55 107.073 71.615 47.52 42.738 72.29 91.313 71.515 89.022-6.532 16.68-19.623 49.71-25.8 65.483-4.25-10.817-8.07-21.407-12.521-31.714-16.433-38.036-40.345-70.632-70.478-98.613-23.236-21.575-49.086-39.388-76.725-54.596-9.893-5.444-19.504-11.635-29.87-15.927-14.788-6.122-30.32-7.692-45.632-1.39-15.826 6.515-24.718 19.241-28.808 35.543-5.747 22.905-3.097 45.501 3.652 67.731C54.687 210.315 89.14 268.141 139.26 316.067c37.289 35.66 80.138 62.632 127.378 82.513 11.626 4.893 23.495 9.194 35.253 13.767l-.311 1.208c-18.168-4.789-36.556-8.856-54.463-14.497z" fill="#CF0012" mask="url(#d)"/></g><path d="M298.451 481.704c1.01 5.299 1.78 9.346 2.549 13.394l-.706.68a17139.86 17139.86 0 01-6.294-8.696c1.612-1.946 2.757-3.331 4.451-5.378zM273 418.37l3.128-13.988c.302-.03.603-.058.904-.086L280 418.37h-7zm-24.414 28.149c-6.077-4.864-11.435-9.15-17.586-14.075h21l-3.414 14.075zM308 439.48h20.574l.426 1.08c-5.288 4.135-10.575 8.272-16.612 12.995-1.63-5.229-2.968-9.524-4.388-14.075zm-55.132 56.297l-.868-.692 4.625-20.42 9.375 9.232-13.132 11.88zm22.84-56.146c1.98 0 3.969.114 5.936-.024 3.597-.254 5.574.648 6.315 4.357.966 4.825 2.88 9.501 4.523 14.203 2.437 6.976 2.488 6.961-3.98 11.57-9.235 6.578-9.254 6.601-18.642-.11-3.751-2.68-9.347-4.927-10.55-8.39-1.255-3.616 1.616-8.498 2.949-12.758 3.425-10.935 1.07-8.828 13.45-8.848zM225.037 538c2.69-1.13 5.795-1.735 8.006-3.473a2666.73 2666.73 0 0045.276-36.358c2.824-2.321 4.476-1.997 7.162.065 15.47 11.886 31.084 23.58 46.687 35.292 1.246.935 2.771 1.501 4.166 2.238l.995-.8c-1.621-5.313-3.196-10.642-4.871-15.938-5.17-16.328-10.282-32.676-15.66-48.936-.976-2.949-.406-4.492 1.893-6.358 18.814-15.277 37.531-30.675 56.274-46.04.813-.667 1.596-1.375 3.036-2.622-1.663-.183-2.49-.372-3.311-.35-23.131.644-46.267 1.199-69.39 2.078-3.97.151-5.044-1.796-6.197-4.797a8170.042 8170.042 0 00-23.233-59.73c-.619-1.577-1.996-2.855-3.02-4.271-.973 1.591-2.388 3.064-2.85 4.793-5.435 20.34-10.835 40.692-15.95 61.113-.834 3.326-2.153 4.21-5.377 4.237-17.945.143-35.896.302-53.826.926-4.314.15-8.565 2.09-12.846 3.207v1.45c7.884 5.662 15.755 11.342 23.656 16.981 10.243 7.311 20.444 14.685 30.81 21.817 2.775 1.91 3.577 3.862 2.795 7.09-5.03 20.757-9.937 41.546-14.85 62.33-.348 1.475-.425 3.012-.627 4.52l1.252 1.536z" fill="#087F52"/></g></g></svg>