<svg>
  <defs>
    <path d="M659.556 1c10.808 0 19.57 8.764 19.57 19.575 0 1.156-.101 2.289-.293 3.39L521.391 631.934c-2.821 6.519-13.285 20.38-34.198 20.816l-.637.009L2 652.838 509.275 17.477C516.571 8.494 528.951 1.148 541.553 1h118.003z" id="A"/></defs><g transform="translate(88 88)" fill="none" fill-rule="evenodd"><path d="M659.556.25H541.553c-12.135.142-24.899 6.952-32.86 16.754L.441 653.588l486.762-.088c9.647-.201 17.79-3.204 24.333-8.284 4.861-3.774 8.554-8.539 10.43-12.728l.136-.309L679.572 24.094c.201-1.155.304-2.331.304-3.519 0-11.225-9.098-20.325-20.32-20.325zm-117.994 1.5h117.994c10.394 0 18.82 8.428 18.82 18.825v.412c-.022.824-.093 1.64-.216 2.447l-.061.372-157.42 607.883c-1.716 3.968-5.304 8.647-10.063 12.342-6.294 4.887-14.127 7.775-23.439 7.969l-.632.009-482.987.078L509.857 17.95c7.692-9.472 20.047-16.063 31.704-16.2z" fill="#000" fill-rule="nonzero"/><mask id="B" fill="#fff"><use xlink:href="#A"/></mask><use fill="#fff" xlink:href="#A"/><g mask="url(#B)" fill-rule="nonzero"><g transform="matrix(-1 0 0 1 769 -130)"><path d="M219.852.156c1.288 0 2.522.551 3.455 1.53l.335.387 292.203 419.083c-59.606-75.269-279.308-189.269-435-189.269-5.996 0-43.298-27.763-46.991-29.89L.94 12.234C.359 8.885 2.513 5.76 5.478 5.483L219.852.156z" fill="#ebbd3d"/><path d="M164.436 783.505L80.845 307.131l8.588.405c58.343 2.982 148.458 16.946 187.069 28.561 96.45 29.017 176.309 77.026 263.459 130.534l259.822 314.828c1.668 2.12 1.243 5.088-.387 6.697H495.983l-327.531-1.243c-1.877-.007-3.505-1.412-4.017-3.409z" fill="#cf0012"/></g></g></g></svg>
