<svg>
  <defs>
    <path d="M659.556 1c10.808 0 19.57 8.764 19.57 19.575 0 1.156-.101 2.289-.293 3.39L521.391 631.934c-2.821 6.519-13.285 20.38-34.198 20.816l-.637.009L2 652.838 509.275 17.477C516.571 8.494 528.951 1.148 541.553 1h118.003z" id="A"/></defs><g transform="translate(88 88)" fill="none" fill-rule="evenodd"><path d="M659.556.25H541.553c-12.135.142-24.899 6.952-32.86 16.754L.441 653.588l486.762-.088c9.647-.201 17.79-3.204 24.333-8.284 4.861-3.774 8.554-8.539 10.43-12.728l.136-.309L679.572 24.094c.201-1.155.304-2.331.304-3.519 0-11.225-9.098-20.325-20.32-20.325zm-117.994 1.5h117.994c10.394 0 18.82 8.428 18.82 18.825v.412c-.022.824-.093 1.64-.216 2.447l-.061.372-157.42 607.883c-1.716 3.968-5.304 8.647-10.063 12.342-6.294 4.887-14.127 7.775-23.439 7.969l-.632.009-482.987.078L509.857 17.95c7.692-9.472 20.047-16.063 31.704-16.2z" fill="#000" fill-rule="nonzero"/><mask id="B" fill="#fff"><use xlink:href="#A"/></mask><use fill="#fff" xlink:href="#A"/><g mask="url(#B)" fill-rule="nonzero"><g transform="matrix(-1 0 0 1 683.2865 25)"><path d="M613.287 507.445l-59.371-66.758.765-.687c-41.822 38.045-92.993 62.456-165.976 68.393l-9.203.716-4.816.391c-56.371 4.662-91.166 10.782-125.665 24.558-47.214 18.853-80.497 49.745-98.734 96.847L474.962 632c.194-.462.477-.896.85-1.276l4.829-4.9 3.836-3.852c27.477-27.445 40.832-37.472 60.535-48.335l4.625-2.525c8.067-4.455 13.92-8.572 22.122-16.069 13.149-12.019 24.045-23.991 32.81-35.352 3.056-3.961 5.625-7.558 7.721-10.718l.997-1.528z" fill="#cf0012"/><path d="M59.287 307.153L99.562 513c13.374-23.177 44.268-48.01 82.018-65.525 45.592-21.154 94.995-29.218 137.971-19.949l1.787.396c38.81 8.843 73.87.444 103.873-19.686 10.607-7.116 19.818-15.272 26.837-23.157l1.265-1.448.972-1.156-.412.043c-13.491 1.259-37.123 1.526-59.729-.511l-2.827-.267c-48.507-4.81-94.39-18.799-133.29-44.392l-1.939-1.289c-39.162-26.314-81.077-39.294-122.374-40.898-30.029-1.167-58.182 4.114-74.428 11.992z" fill="#004595"/><path d="M.287 0l37.964 194.227c5.86-4.117 16.206-6.774 29.491-8.184 19.977-2.121 43.731-.83 58.491 3.382 41.975 11.978 82.88 25.384 125.789 40.935l8.546 3.118C297.889 247.24 392.484 284.567 427.287 298L292.208 145.86c-.676-.112-1.333-.396-1.904-.858C196.159 68.801 69.386 8.08.287 0z" fill="#cf0012"/></g></g></g></svg>
