<svg>
    <mask id="mask0_1609_2180" style="mask-type:alpha" maskUnits="userSpaceOnUse" x="108" y="106" width="681" height="655">
        <path fill-rule="evenodd" clip-rule="evenodd" d="M650.1 106.008H768.201C779.432 106.008 788.538 115.117 788.538 126.353C788.538 127.542 788.435 128.719 788.234 129.876L788.221 129.935L630.634 738.576L630.498 738.885C628.62 743.079 624.924 747.848 620.059 751.626C613.51 756.712 605.361 759.718 595.705 759.919L595.057 759.928L108.538 760.007L517.217 248.021L612.66 128.474L617.213 122.779C625.18 112.966 637.955 106.15 650.1 106.008ZM768.201 107.511L650.109 107.511C638.443 107.648 626.077 114.245 618.379 123.727L618.076 124.103L613.824 129.424L577.304 175.161L111.658 758.507L595.047 758.428L595.68 758.419C605 758.225 612.84 755.333 619.139 750.442C623.901 746.743 627.492 742.06 629.233 738.034L629.21 738.087L786.76 129.589L786.821 129.217C786.944 128.409 787.015 127.592 787.032 126.767L787.037 126.355C787.037 115.947 778.604 107.511 768.201 107.511Z" fill="black"/>
        <path fill-rule="evenodd" clip-rule="evenodd" d="M768.2 106.758C779.017 106.758 787.786 115.531 787.786 126.353C787.786 127.51 787.686 128.644 787.494 129.746L629.921 738.33C627.098 744.856 616.625 758.731 595.694 759.167L595.057 759.176L110.097 759.256C446.912 337.285 616.145 125.284 617.794 123.251C625.096 114.259 637.487 106.906 650.099 106.758H768.2Z" fill="white"/>
    </mask>
    <g mask="url(#mask0_1609_2180)">
        <path d="M-113.415 634.685L185.492 908.28L665.569 721.18L779.758 156.106L640.142 170.252C599.986 171.411 562.76 191.571 539.834 224.566L67.4054 541.104L-113.415 634.685Z" fill="#F4F7FA"/>
        <path d="M798.935 59.6149L776.559 194.89C495.837 180.651 294.449 464.425 294.449 464.425L534.487 53.5122L798.935 59.6149Z" fill="#C4C5C5"/>
        <path d="M309.583 491.599C309.583 491.599 485.689 173.067 779.142 155.006L791.898 154.466L784.059 199.996C490.064 202.401 297.241 511.103 297.241 511.103L309.583 491.599Z" fill="#2A6BA8"/>
        <path d="M-237.843 805.266C388.217 822.297 635.567 700.638 844.111 574.425L893.472 658.298C671.313 765.938 391.704 860.011 -239.195 832.069" fill="#C4C5C5"/>
        <path d="M695.647 168.348L641.84 134.829L672.517 73.4265C678.03 72.667 683.592 72.1769 689.228 72.0054L844.866 67.5215L714.606 763.459L369.958 769.364L695.647 168.348Z" fill="#676767" fill-opacity="0.1"/>
        <path d="M-272.177 812.564C406.294 831.02 674.351 699.177 900.353 562.398L894.107 508.108C670.495 648.845 404.777 785.419 -273.899 778.967" fill="#2A6BA8"/>
    </g>
    <path fill-rule="evenodd" clip-rule="evenodd" d="M650.1 106.008H768.201C779.433 106.008 788.538 115.117 788.538 126.353C788.538 127.542 788.436 128.719 788.234 129.876L788.221 129.935L630.634 738.576L630.498 738.886C628.62 743.079 624.924 747.849 620.059 751.627C613.51 756.712 605.361 759.718 595.706 759.919L595.058 759.928L108.538 760.008L517.217 248.021L612.66 128.474L617.213 122.779C625.18 112.966 637.955 106.15 650.1 106.008ZM768.201 107.509L650.108 107.509C638.442 107.646 626.077 114.243 618.378 123.725L618.076 124.101L613.824 129.422L577.304 175.159L111.657 758.505L595.047 758.426L595.679 758.417C605 758.223 612.839 755.332 619.138 750.44C623.901 746.741 627.491 742.058 629.233 738.033L629.209 738.086L786.76 129.587L786.821 129.215C786.943 128.407 787.014 127.59 787.032 126.765L787.036 126.353C787.036 115.945 778.603 107.509 768.201 107.509Z" fill="black"/>
    <g clip-path="url(#clip0_1609_2180)">
        <path d="M448.715 369.222C449.823 369.953 451.028 371.077 452.304 371.765C453.734 372.72 454.786 373.83 456.328 375.207C460.03 377.806 464.152 380.826 467.699 384.001C471.498 386.544 474.148 389.663 478.172 392.108C486.626 397.994 493.763 405.187 500.689 412.871C503.072 415.78 506.564 417.803 509.199 420.978C510.041 421.188 510.251 422.509 510.994 423.197C513.265 426.105 514.962 429.182 515.915 432.792C516.182 433.804 516.602 434.801 516.967 435.757C517.5 438.412 518.817 440.688 519.504 443.231C522.042 449.005 523.683 455.144 527.692 460.286C530.44 465.526 535.249 469.979 539.484 474.222C539.75 474.756 539.75 475.121 539.329 475.543C538.909 476.076 537.843 475.655 537.843 476.596C537.268 477.018 536.623 478.718 535.628 478.085C535.207 479.195 533.413 478.83 533.511 480.207C533.034 480.628 532.137 481.05 532.193 481.85C532.347 482.384 533.09 482.174 533.511 482.426C533.833 481.738 534.044 480.628 534.997 480.628C535.263 481.106 535.894 481.05 536.217 480.951C536.315 479.94 537.381 479.996 538.166 480.052C539.119 480.263 538.853 478.31 539.96 478.999C540.325 479.532 540.858 480.375 541.601 480.375C542.077 480.165 541.923 479.575 541.713 479.322C541.236 478.746 540.605 478.423 540.549 477.833C541.124 477.889 541.811 477.776 541.713 477.032C541.559 476.554 542.344 476.709 542.512 476.919C542.933 477.397 542.722 479.35 543.83 478.409C543.886 477.987 544.194 477.664 544.727 477.833C545.681 478.844 546.255 477.2 547.111 477.032C547.111 476.287 548.331 476.765 548.008 475.866C546.999 475.5 545.106 477.355 544.895 475.29C545.526 474.868 546.213 475.557 546.536 474.658C546.171 473.857 546.957 473.07 547.854 473.646C548.387 473.969 548.176 472.901 548.008 472.747C547.854 472.536 547.686 472.171 547.854 471.946C548.064 471.89 548.485 471.525 548.919 471.679C548.863 471.834 549.018 472.044 549.228 471.946C549.592 472.059 549.859 471.834 549.971 471.525C549.494 471.525 549.648 470.991 549.817 470.78C549.971 470.668 549.971 470.513 549.971 470.302C550.924 469.769 550.924 471.834 551.611 470.78C552.985 470.668 552.41 472.522 553.406 472.269C553.672 472.747 553.827 472.059 554.149 472.424C554.415 472.213 554.261 471.848 554.303 471.525C553.56 471.103 553.672 470.359 552.929 470.302C552.775 469.769 554.037 470.836 553.672 469.726C553.14 469.038 552.509 470.415 551.766 469.726C551.611 469.46 551.135 469.361 551.289 468.982C552.453 469.614 552.186 466.973 553.083 468.56C553.658 468.771 553.883 469.516 554.724 469.403C555.046 469.347 555.257 469.08 555.467 468.827C555.313 468.617 555.144 468.251 555.313 468.083C554.682 467.928 553.995 468.139 553.406 467.661C553.196 466.65 554.149 466.172 554.892 466.018C556.841 464.585 559.28 464.276 561.762 464.065C562.715 464.486 563.767 465.118 564.889 464.641C568.324 463.053 571.016 460.82 574.451 459.232C575.138 459.232 575.937 459.232 576.245 459.864C575.923 460.553 575.236 461.241 574.871 461.775C573.133 463.419 570.903 464.683 568.73 465.694C567.987 466.804 566.725 468.237 565.926 469.558C564.342 472.311 563.122 475.388 561.748 477.931C561.384 480.839 559.477 483.073 559.365 486.037C559.154 486.36 559.21 486.838 558.734 487.091C558.846 487.779 558.678 488.79 558.313 489.479C557.093 497.95 563.234 503.626 566.992 509.976C571.955 515.904 577.928 522.423 584.601 527.143C584.181 527.2 586.354 528.942 588.303 529.574C594.219 535.404 599.617 540.7 604.006 547.373C604.847 549.382 605.226 551.504 606.81 553.204C606.866 553.302 606.754 553.414 606.712 553.471C610.203 557.924 611.885 563.052 614.423 567.828C615.054 571.326 617.283 574.558 618.335 578C619.176 579.475 619.611 581.231 620.55 582.509C621.349 584.462 622.611 586.373 622.933 588.339C624.462 589.983 624.209 592.624 625.471 594.479C626.368 597.345 626.635 600.407 628.163 603.006C628.738 604.861 628.219 607.193 629.215 608.836C629.102 609.047 629.004 609.314 629.06 609.581C629.425 609.848 629.271 611.112 629.537 611.534C629.215 614.287 630.07 618.586 629.958 621.382C630.28 622.281 629.116 621.972 628.794 621.859C628.64 619.851 627.097 618.474 626.999 616.451C626.579 615.917 625.892 615.706 626.102 614.976C626.368 614.863 626.579 614.61 626.845 614.343C626.733 613.444 625.948 612.91 625.471 611.955C624.097 611.801 625.625 609.567 624.307 609.258C622.723 608.092 622.611 606.448 621.924 604.804C620.494 604.172 622.19 602.529 621.027 601.629C621.503 602.739 620.017 604.271 621.181 604.959C620.76 606.87 622.443 608.19 621.447 610.157C621.756 610.845 622.667 611.688 621.924 612.433C622.246 612.756 622.555 613.234 622.19 613.599C621.826 614.4 620.872 614.287 620.129 614.498C620.284 614.133 619.386 614.133 619.807 613.599C619.919 612.911 619.008 613.065 618.91 612.433C618.223 611.211 619.12 609.089 617.592 608.513C617.381 607.979 617.437 607.347 617.437 606.715C616.54 606.771 616.119 606.237 615.643 605.549C615.741 604.959 615.11 605.128 615.32 604.495C616.162 604.439 616.694 603.54 617.437 603.329C616.694 601.208 615.909 599.143 615.643 596.867C615.166 596.024 615.376 594.956 614.745 594.17C613.049 596.024 614.9 598.454 614.325 600.632C614.213 602.374 615.334 604.397 613.848 605.984C613.736 606.097 613.638 606.195 613.582 606.308C613.161 608.05 615.376 610.916 612.684 611.393C612.208 610.115 611.787 608.738 611.31 607.628C610.988 606.251 610.259 604.931 609.362 603.919C608.618 604.875 607.665 603.709 606.824 603.442C606.768 602.219 605.296 601.686 605.085 600.477C604.286 599.368 602.912 598.679 603.557 597.19C603.978 596.881 605.197 597.302 604.777 596.291C604.468 595.279 606.628 595.926 605.674 594.647C605.141 594.436 605.408 593.846 605.099 593.594C605.31 591.528 604.623 589.618 605.099 587.609C604.511 587.244 604.412 586.71 604.468 586.134C605.31 586.021 604.777 585.122 604.945 584.645C604.581 584.532 603.936 584.279 604.202 583.745C603.88 583.113 604.833 583.001 604.202 582.523C603.571 581.779 604.777 581.034 604.048 580.458C603.683 579.404 605.366 578.814 604.314 577.915C603.515 578.716 602.786 580.191 603.305 581.301C604.356 581.456 603.151 582.579 603.305 583.254C602.94 583.464 603.459 584.153 602.828 584.153C602.464 585.375 602.982 587.117 602.407 588.072C601.566 588.438 603.725 587.595 602.407 590.292C601.875 591.613 602.085 593.369 602.253 594.802C601.566 594.858 603.263 594.212 602.099 596.122C601.833 596.235 601.047 597.176 601.202 597.443C600.781 597.977 600.403 597.808 599.884 597.597C599.786 596.122 598.299 595.209 598.243 593.734C598.818 593.144 601.104 593.565 600.038 591.936C598.874 591.402 600.403 590.025 599.239 589.393C599.337 589.126 599.028 588.438 599.561 588.648C599.715 588.536 599.715 588.438 599.561 588.339C599.449 588.339 599.351 588.339 599.239 588.339C599.337 587.286 599.028 585.375 599.561 584.631C599.028 584.265 598.762 583.521 598.664 582.832C599.884 582.144 597.823 580.233 599.561 580.289C598.874 578.955 600.823 578.59 600.136 577.269C599.449 576.96 599.127 576.215 599.127 575.471C600.388 575.583 599.87 574.15 600.024 573.406C599.127 573.04 600.024 571.818 599.127 571.607C597.43 573.097 599.603 575.583 597.753 576.848C597.851 577.901 596.743 578.491 597.164 579.657C596.743 580.191 596.112 580.767 596.589 581.456C596.435 581.722 596.897 582.088 596.687 582.523C595.579 583.155 596.477 584.588 595.369 585.221C595.005 586.12 594.682 588.452 594.949 588.508C595.425 589.618 594.472 590.264 593.729 590.896C593.406 590.952 593.252 591.374 592.831 591.219C592.509 590.952 592.509 590.587 592.411 590.166C593.364 589.899 593.785 588.255 593.42 588.199C593.266 587.3 593.631 586.457 594.318 585.979C594.794 583.816 592.789 581.736 594.318 579.994C594.794 578.084 592.621 575.752 595.061 574.586C595.86 574.01 595.593 572.675 596.28 571.931C595.061 571.565 596.435 569.022 594.963 569.978C595.117 570.877 594.696 571.678 594.163 572.197C594.262 573.153 594.107 573.996 593.743 574.74C593.378 574.628 593.112 574.895 593 575.218C592.888 577.283 590.784 577.971 591.359 580.458C591.626 581.034 590.883 580.823 590.883 581.301C589.985 582.832 592.369 583.479 590.883 584.743C590.981 585.319 590.518 585.698 590.462 586.274C589.453 586.696 589.354 585.052 588.822 584.476C588.934 583.886 588.555 583.422 589.088 583.254C589.775 582.411 589.088 580.978 589.719 580.135C589.242 579.559 588.766 579.025 588.976 578.182C589.13 577.761 589.929 577.438 589.242 577.016C588.976 576.805 588.92 576.538 588.976 576.215C589.186 576.328 589.242 576.061 589.396 575.948C589.509 574.67 589.719 574.305 590.616 573.56C592.046 573.673 590.77 571.495 592.257 571.593C593.21 571.228 592.369 570.484 592.411 569.95C591.401 569.416 593.729 567.505 591.78 567.252C590.883 567.786 591.093 569.261 591.037 570.385C590.883 571.074 590.14 570.329 589.985 571.017C590.406 572.24 589.453 572.816 588.667 573.406C586.929 573.462 588.99 575.682 587.448 576.215C587.083 576.37 586.761 576.848 586.438 577.114C586.018 578.168 587.392 580.233 585.807 579.98C585.064 579.236 585.232 578.224 584.489 577.592C584.377 577.114 584.601 576.791 584.91 576.524C584.756 575.78 584.545 574.403 585.709 574.305C586.032 573.729 585.022 573.673 585.401 573.083C585.036 572.816 584.601 573.237 584.335 573.56C584.237 574.249 584.237 574.993 583.592 575.471C582.961 575.794 582.961 574.993 582.695 574.726C582.064 573.462 583.438 571.818 581.643 571.13C582.064 570.441 582.863 570.02 582.54 568.91C582.386 568.643 582.064 568.798 581.797 568.756C581.054 569.177 581.223 570.666 580.157 570.708C579.204 570.385 578.993 569.655 578.517 568.91C578.727 568.222 579.834 568.489 579.834 567.589C580.465 567.224 581.531 567.168 581.629 566.213C581.419 563.824 584.742 563.726 584.167 561.127C584.433 560.86 585.232 560.916 584.91 560.228C584.279 560.593 582.316 560.017 582.526 561.605C581.938 562.293 581.307 563.305 581.04 564.302C579.933 564.836 579.61 565.524 578.503 566.367C578.559 566.845 578.503 567.323 578.082 567.589C577.395 567.589 576.82 567.323 576.133 567.435C575.39 566.592 574.016 565.257 575.825 564.738C577.886 565.005 576.512 562.195 578.208 561.872C578.895 561.928 578.895 561.338 579.428 560.973C579.54 560.607 579.274 560.34 578.951 560.228C577.731 559.863 578.054 561.394 576.736 560.86C576.371 562.391 575.208 563.038 574.773 564.414C573.722 565.215 572.978 564.091 571.815 563.838C571.282 563.993 570.595 563.684 570.174 563.094C570.118 562.771 570.174 562.518 570.497 562.349C570.819 562.293 571.24 562.462 571.506 562.195C571.618 561.352 570.076 562.04 569.712 561.619C569.347 561.731 569.081 562.251 568.548 562.04C567.917 561.296 569.978 560.397 568.394 559.975C569.193 559.441 568.506 558.753 569.137 558.331C568.927 558.008 568.548 558.219 568.24 558.177C567.609 558.711 567.23 560.087 566.277 559.821C566.543 559.076 565.646 559.188 565.435 558.767C564.16 559.399 563.907 557.601 562.575 558.022C562.687 556.702 559.196 556.379 561.089 555.48C561.832 555.114 561.454 553.99 561.986 553.358C561.412 552.937 561.51 553.99 560.921 553.99C559.967 554.524 559.07 553.723 558.537 553.091C557.906 552.726 558.327 551.869 557.794 551.448C557.051 551.869 556.364 551.869 555.677 551.448C555.257 550.97 554.401 550.492 554.934 549.804C555.565 548.961 556.631 549.003 557.472 548.582C556.673 546.404 555.677 549.635 554.457 548.16C553.981 548.638 553.294 549.115 552.719 548.905C551.822 548.329 551.022 547.739 551.345 546.629C551.555 546.362 552.144 546.741 552.088 546.207C551.457 545.997 550.658 546.362 550.027 545.884C549.396 545.407 548.919 544.774 549.13 543.974C547.91 543.075 546.326 542.808 545.961 541.108C545.751 540.785 545.218 541.108 544.952 540.785C543.69 540.04 545.793 537.02 543.003 537.82C542.638 537.61 542.105 537.244 542.105 536.767C542.428 536.5 541.783 536.289 541.685 536.022C540.844 535.755 540.465 535.067 540.044 534.533C539.357 532.791 536.764 531.99 536.876 530.037C535.558 530.248 536.035 528.45 534.661 528.815C533.609 528.014 533.889 527.902 533.441 527.171C533.174 526.483 533.497 525.317 532.431 525.261C531.366 523.772 529.571 523.308 528.674 521.496C527.244 522.395 525.926 523.673 526.29 525.682C525.603 526.314 526.234 529.391 526.445 529.447C525.701 530.979 526.599 532.622 525.645 534.055C525.758 534.856 525.589 535.966 525.225 536.753C526.024 538.93 523.697 540.827 524.902 543.159C524.636 543.791 525.014 545.168 524.005 545.603C522.631 544.76 521.523 545.969 520.149 545.126C519.827 545.603 519.14 545.969 518.509 546.025C517.5 545.126 517.668 543.06 515.495 543.636C515.34 544.114 514.597 544.803 514.177 544.058C513.602 544.536 513.069 543.847 512.382 544.058C511.905 543.37 511.639 541.838 510.587 543.159C510.167 543.004 510.055 543.636 509.69 543.636C508.947 541.894 506.143 543.524 506.409 540.939C505.877 540.461 506.199 539.675 506.143 538.972C506.409 538.705 507.096 538.705 507.04 538.073C506.465 537.596 506.031 538.396 505.512 538.396C505.568 539.029 504.979 539.506 504.348 539.295C503.717 539.183 503.241 538.607 502.554 538.396C502.61 537.596 501.923 537.652 501.502 538.073C501.558 538.607 500.661 538.649 500.282 538.396C500.016 538.298 499.806 538.031 499.539 537.82C500.114 536.921 498.53 536.598 498.95 535.699C497.366 535.165 495.572 535.067 494.197 534.055C493.244 534.856 493.146 533.367 492.557 533.156C492.445 532.257 493.665 532.735 493.567 531.836C492.88 531.26 492.725 530.726 491.828 530.346C490.819 530.613 490.188 530.501 489.388 529.869C489.501 529.026 489.066 528.647 489.711 527.804C488.393 527.115 490.51 525.738 488.968 525.373C488.912 524.741 488.547 523.842 487.748 524.362C487.173 524.474 486.528 524.306 486.584 523.463C485.785 522.142 487.384 521.397 486.851 520.021C487.327 519.178 488.912 519.332 489.122 518.644C489.276 517.745 490.342 518.166 490.762 517.478C490.286 517.155 489.655 516.846 489.122 517.155C488.014 517.689 487.005 518.855 485.841 517.731C485.154 516.775 484.201 516.298 484.201 515.076C484.944 514.921 485.365 514.233 485.687 513.544C485.477 513.39 485.365 513.179 485.056 513.277C485 513.699 484.692 514.331 484.215 513.853C484.425 513.109 483.584 513.277 483.416 512.631C484.047 511.676 483.949 510.454 484.944 509.667C484.523 509.091 483.836 508.445 484.313 507.714C484.678 507.026 484.79 506.127 485.379 505.649C485.224 504.806 485.477 503.907 486.598 503.851C488.295 503.008 490.033 503.738 491.674 502.628C492.838 502.095 493.314 504.061 494.366 502.952C495.417 503.752 496.104 502.263 496.581 504.019C497.324 503.542 498.221 502.909 499.273 502.952C499.637 503.429 499.595 504.385 500.437 504.441C500.493 504.019 500.857 503.696 501.334 503.865C501.656 504.188 501.698 504.764 502.231 504.918C502.329 504.595 502.021 503.12 502.974 503.865C503.339 505.93 506.199 502.165 504.923 505.354C504.769 505.508 504.559 505.677 504.601 505.93C504.713 506.253 505.021 506.042 505.232 506.084C505.652 503.598 508.667 505.34 508.667 502.642C510.097 502.432 510.251 500.9 511.204 500.1C511.148 499.144 509.985 498.456 510.419 497.29C507.825 496.068 506.662 493.679 505.975 490.982C504.236 489.661 501.642 489.029 501.797 486.472C501.797 485.25 500.689 484.14 499.848 483.508C499.315 482.665 498.151 481.864 497.731 481.12C498.263 480.698 497.464 480.488 497.618 480.052C497.731 479.097 497.562 477.72 496.244 477.664C495.137 477.608 496.132 475.599 494.604 475.543C494.029 475.219 493.651 474.489 494.029 473.744C494.562 473.534 494.24 472.901 494.183 472.578C493.651 472.255 492.599 472.635 492.543 471.834C492.753 470.668 492.809 469.769 492.066 468.813C491.59 468.701 490.791 469.136 490.748 468.392C489.795 467.127 493.342 465.484 490.272 465.849C490.061 465.371 489.473 465.582 489.374 465.104C488.211 463.461 491.015 463.039 489.851 461.761C489.22 461.972 488.533 462.814 487.902 462.084C487.37 461.508 487.692 460.173 487.327 459.541C489.178 459.33 488.281 457.209 490.132 456.998C490.342 456.731 490.706 456.577 490.762 456.254C488.912 455.411 488.856 458.375 487.327 458.375C487.117 458.642 486.753 458.431 486.43 458.487C485.855 458.01 485.687 457.111 485.953 456.422C487.005 456.268 487.594 454.933 488.491 454.456C489.501 453.978 490.075 453.233 490.286 452.236C488.968 450.859 487.958 453.669 486.43 453.556C486.01 453.978 485.421 454.09 484.944 454.301C484.201 453.669 485 452.98 485.21 452.39C486.01 452.713 485.687 451.758 485.953 451.491C486.851 449.848 490.188 450.648 489.543 447.895C489.01 447.572 488.225 447.094 487.748 447.895C486.851 448.948 485.631 449.904 484.201 449.96C483.836 449.595 483.149 449.693 482.981 449.215C482.771 448.204 483.991 448.049 484.467 447.417C485.897 447.263 486.893 445.408 488.491 445.352C488.758 444.664 488.169 444.186 487.594 444.607C486.318 445.773 484.313 445.183 482.995 446.251C482.42 446.307 482.042 445.83 481.509 445.773C481.172 445.127 481.172 443.961 482.014 443.863C482.589 443.919 483.121 443.75 483.5 443.385C483.654 442.964 482.813 441.475 483.977 442.065C483.977 442.388 484.341 442.542 484.551 442.809C485.561 443.174 485.869 441.966 486.346 441.432C486.29 441.109 486.767 440.632 486.192 440.421C484.495 440.632 483.177 441.741 481.439 441.741C480.752 441.32 481.439 440.632 481.439 440.098C482.448 439.733 483.29 439.522 483.977 438.777C484.453 438.623 484.986 439.255 485.295 438.623C485.238 438.257 485.295 437.78 485.771 437.724C486.304 437.78 486.823 438.257 487.412 437.878C487.888 437.077 487.257 436.867 486.781 436.501C486.626 436.347 486.416 436.136 486.192 435.925C483.556 435.925 481.172 438.047 478.579 436.824C478.214 435.925 479.21 436.248 479.476 435.771C480.275 435.026 481.803 436.403 482.434 434.872C483.5 435.504 484.075 433.551 484.86 434.872C485.757 434.773 486.178 434.506 487.075 434.45C487.972 433.439 489.024 432.807 489.29 431.275C487.916 431.219 486.43 430.109 485.112 431.163C484.061 430.798 483.584 431.795 482.575 431.584C481.537 432.792 479.897 432.624 478.256 432.624C478.046 432.357 477.569 432.048 477.99 431.725C479.097 430.826 480.948 431.725 481.845 430.236C482.799 428.915 486.346 431.402 485.435 428.437C483.528 428.114 481.102 427.215 479.308 428.437C478.256 428.494 476.882 427.847 476.027 428.704C475.074 427.96 473.391 429.505 472.914 427.861C472.34 426.485 473.812 426.485 474.401 425.909C475.662 426.653 476.728 425.796 477.99 426.063C478.256 425.852 478.312 425.586 478.256 425.319C476.083 423.619 473.027 424.686 470.643 424.419C470.755 423.197 468.849 423.843 469.325 422.621C470.068 422.565 470.91 421.933 471.54 422.621C472.914 422.411 473.966 422.944 475.298 422.776C476.307 423.31 477.149 422.888 478.158 423.52C480.752 422.621 478.046 425.698 480.373 425.431C482.322 424.855 483.752 425.909 485.771 426.063C485.982 425.164 486.935 425.852 487.51 425.74C487.089 425.15 488.463 423.464 487.243 423.773C486.711 423.928 486.444 424.729 485.869 424.672C485.603 424.307 485.813 423.717 485.295 423.506C484.72 423.45 484.762 424.04 484.229 424.251C483.654 424.307 483.276 423.829 482.743 423.773C481.523 422.34 485.168 422.396 483.065 421.23C483.065 419.741 479.728 421.287 480.528 418.842C481.102 417.62 483.542 419.531 482.589 417.198C481.369 415.499 479.518 416.721 477.836 416.145C477.513 415.4 476.041 415.822 475.62 415.133C475.088 414.178 474.401 415.077 473.826 414.333C473.027 415.133 472.031 414.122 471.288 414.333C470.18 412.9 467.699 414.178 466.479 412.689C464.684 411.677 462.834 412.211 460.829 411.677C460.618 411.101 459.777 410.778 460.086 410.034C460.661 409.612 461.67 410.09 462.469 410.146C463.843 410.567 465.428 409.823 466.493 411.368C468.666 411.734 471.036 411.635 472.942 412.689C474.793 411.101 476.111 414.431 478.284 413.911C479.083 414.445 480.191 414.122 481.144 414.234C481.411 413.967 481.257 413.49 481.299 413.181C479.925 411.438 477.275 411.438 475.48 410.062C474.106 409.907 472.788 409.795 471.723 409.008C470.881 408.587 469.816 408.587 468.919 408.376C468.176 407.477 466.745 409.008 466.493 407.631C465.063 407.744 464.222 407.308 463.212 406.311C462.161 406.1 461.263 405.566 460.1 405.566C459.469 405.889 458.726 405.833 457.983 405.988C457.983 405.566 457.772 405.243 457.408 404.976C455.08 404.976 455.922 402.335 454.716 401.211C455.136 400.256 455.557 401.211 456.09 401.211C456.721 402.054 458.263 401.323 458.894 402.433C459.525 402.433 459.847 403.276 460.422 403.445C461.698 404.077 463.282 404.077 464.446 405.088C466.086 405.454 467.615 405.931 468.947 407.041C469.746 405.931 470.643 407.252 471.597 407.041C473.293 407.997 475.41 408.109 476.826 409.261C477.625 408.896 479.63 410.104 479.518 408.839C479.097 408.418 479.252 407.308 478.298 407.519C477.247 405.721 474.709 406.831 474.022 404.822C472.648 405.299 471.751 403.712 470.265 404.077C469.844 403.445 468.989 403.965 468.47 403.599C467.362 401.801 465.035 402.644 464.138 400.635C462.399 401.113 461.754 398.458 460.114 400.003C458.894 399.68 457.899 398.781 456.356 399.104C455.781 399.525 455.781 400.593 454.87 400.481C454.449 400.27 454.548 399.371 453.819 399.427C453.664 397.727 451.968 396.996 451.169 395.662C451.323 395.339 451.701 395.507 451.912 395.24C453.23 395.563 455.767 394.496 456.51 396.139C457.786 396.505 458.572 397.572 459.946 397.193C460.787 397.769 462.007 397.825 462.806 398.205C463.969 399.16 465.189 398.781 466.395 399.736C466.816 399.581 467.404 399.202 467.881 399.581C468.456 400.481 469.521 400.214 470.096 401.071C471.316 401.604 472.69 401.703 473.686 402.714C474.737 402.447 475.172 403.726 476.223 403.937C477.387 403.993 478.228 405.159 479.504 404.512C478.284 403.346 477.022 401.281 474.751 401.647C474.008 401.492 474.387 400.27 473.377 400.481C472.48 399.947 471.414 398.148 470.096 398.359C467.082 399.413 466.339 394.65 463.226 395.971C461.796 394.917 460.899 393.274 458.782 393.274C457.618 391.096 454.604 392.908 453.819 390.576C451.912 390.787 452.178 388.666 450.538 388.188C450.608 387.176 449.136 387.233 449.444 386.123C449.08 385.912 449.178 385.547 449.178 385.224C449.542 385.069 449.753 384.858 450.229 385.069C450.762 385.701 452.403 384.015 452.445 385.645C453.188 385.856 454.029 386.334 454.239 387.176C455.347 387.387 456.244 388.609 457.352 388.342C457.983 388.553 458.838 388.553 459.469 388.342C458.095 387.289 456.721 385.589 454.968 385.224C454.492 384.957 453.594 384.535 453.65 384.156C452.963 383.355 451.477 383.046 451.225 381.936C449.767 380.658 449.08 378.649 447.383 377.427C447.706 376.64 446.065 375.516 447.706 375.305C448.393 375.418 448.813 375.193 449.346 375.305C447.804 374.195 447.65 372.341 446.065 371.765C445.224 371.4 445.799 370.009 445.014 369.644C445.056 369.222 444.747 368 445.743 368C446.752 368.421 448.337 368 448.715 369.222ZM470.068 417.803C469.704 418.013 469.648 417.479 469.325 417.536C468.638 416.046 467.208 416.482 465.89 416.637C465.147 417.212 463.563 416.004 463.941 417.69C464.418 418.168 464.951 418.491 465.582 418.533C466.9 417.002 468.232 419.011 469.76 418.533C470.068 418.379 470.124 418.112 470.068 417.803ZM470.068 417.803C469.704 418.013 469.648 417.479 469.325 417.536C468.638 416.046 467.208 416.482 465.89 416.637C465.147 417.212 463.563 416.004 463.941 417.69C464.418 418.168 464.951 418.491 465.582 418.533C466.9 417.002 468.232 419.011 469.76 418.533C470.068 418.379 470.124 418.112 470.068 417.803ZM478.579 418.856C477.681 418.856 477.05 418.435 476.518 417.803C475.775 417.536 475.775 418.224 475.466 418.547C474.148 418.491 472.774 418.126 471.554 418.28C471.611 418.547 471.442 419.081 471.709 419.179C472.34 419.545 473.195 419.446 473.98 419.446C474.457 419.39 474.779 420.289 475.298 419.769C475.775 421.034 477.205 419.826 477.99 420.247C478.368 419.811 478.999 419.39 478.579 418.856ZM478.579 418.856C477.681 418.856 477.05 418.435 476.518 417.803C475.775 417.536 475.775 418.224 475.466 418.547C474.148 418.491 472.774 418.126 471.554 418.28C471.611 418.547 471.442 419.081 471.709 419.179C472.34 419.545 473.195 419.446 473.98 419.446C474.457 419.39 474.779 420.289 475.298 419.769C475.775 421.034 477.205 419.826 477.99 420.247C478.368 419.811 478.999 419.39 478.579 418.856Z" fill="#2A6BA8"/>
    </g>
    <defs>
        <clipPath id="clip0_1609_2180">
        <rect width="185" height="254" fill="white" transform="translate(445 368)"/>
        </clipPath>
    </defs>
</svg>
