<svg>
    <defs>
        <path d="M659.5555,1 C670.3635,1 679.1255,9.764 679.1255,20.575 C679.1255,21.731 679.025,22.864 678.833,23.965 L521.3915,631.934 C518.5705,638.453 508.106,652.3145 487.193,652.75 L486.556,652.759 L2,652.838 C338.535,231.2945 507.627,19.5075 509.275,17.477 C516.5705,8.4935 528.951,1.148 541.5525,1 L659.5555,1 Z" id="path-1"></path>
    </defs>
    <g id="SINGAPORE-AIRLINES" stroke="none" stroke-width="1" fill="none" fill-rule="evenodd">
        <g id="Mask-Raw" transform="translate(88.000000, 88.000000)">
            <path d="M659.5555,0.25 L541.5525,0.25 C529.417951,0.392464104 516.653519,7.20156168 508.692801,17.0041958 L504.143997,22.693252 L408.78043,142.119216 L0.441350848,653.588254 L486.556122,653.509 L487.203595,653.499925 C496.850749,653.299046 504.993321,650.296167 511.536706,645.215715 C516.398031,641.441257 520.090369,636.67697 521.967184,632.487618 L522.102948,632.178405 L679.55905,24.1530201 L679.57185,24.0938457 C679.773302,22.9386432 679.8755,21.7624542 679.8755,20.575 C679.8755,9.34991032 670.777837,0.25 659.5555,0.25 Z M541.561308,1.74994828 L659.5555,1.74994828 C669.949327,1.74994828 678.3755,10.1782545 678.3755,20.575 L678.3755,20.9873085 C678.353341,21.8108328 678.282538,22.6275948 678.159826,23.4338938 L678.099,23.806 L520.6795,631.689 L520.703183,631.636141 C518.963128,635.657204 515.375715,640.335962 510.616794,644.03091 C504.32299,648.917581 496.490164,651.80623 487.177385,652.000163 L486.545405,652.009075 L3.558,652.0875 L468.817257,69.3318426 L505.306926,23.640727 L509.555328,18.3259168 L509.857335,17.9496367 C517.549486,8.47771051 529.904809,1.88684959 541.561308,1.74994828 Z" id="BG" fill="#004595" fill-rule="nonzero"></path>
            <mask id="mask-2" fill="white">
                <use xlink:href="#path-1"></use>
            </mask>
            <use id="FG" fill="#06266B" xlink:href="#path-1"></use>
            <g id="SINGAPORE" mask="url(#mask-2)" fill="#F99C1C" fill-rule="nonzero">
                <g transform="translate(340.500000, 415.500000) scale(-1, 1) translate(-340.500000, -415.500000) translate(191.000000, 214.000000)" id="Path">
                    <path d="M65.4127746,367.989659 C65.4127746,367.989659 119.529859,287.642048 124.40435,279.705694 C130.37998,269.992494 130.624485,254.548918 125.274857,246.254092 C122.547153,241.919689 41.8536005,115.089689 41.8536005,115.089689 C34.5999552,101.386769 36.3981934,92.0441032 41.2380031,85.3537828 C49.1974178,73.6810522 63.2313054,53 63.2313054,53 C63.2313054,53 161.184129,205.726124 165.254009,212.554318 C175.779858,229.981551 172.866608,247.039972 164.19969,261.666647 C156.933906,273.98566 93.4632088,368 93.4632088,368"></path>
                    <path d="M47.163227,377.14541 C47.163227,377.14541 109.652711,285.828795 114.296171,278.258944 C119.749296,269.012085 119.148967,255.996709 114.296171,248.148796 C111.690713,243.99859 24.9337868,107.673918 24.9337868,107.673918 C24.9337868,107.673918 9.5345925,130.849786 4.68179619,138.01377 C-0.169270074,145.134576 -3.05153698,154.023926 5.27347403,168.30699 C5.27347403,168.30699 67.4152176,266.212467 70.0327865,270.360945 C75.0931891,278.35048 74.8734725,293.016958 69.2231221,302.265544 C64.5796621,309.731769 0.503720217,403 0.503720217,403 L185.411695,403 C204.193142,403 214.499062,395.706484 223.588756,382.668655 C231.450113,371.584169 261.86616,327.463838 266.532111,320.53992 C271.13059,313.603913 280.403669,308.990846 284.548874,308.990846 L299,308.990846 L270.80707,266.165835 L225.820524,266.165835 C217.230815,266.165835 206.841851,273.782318 201.390457,281.851299 C197.117228,288.220819 166.34306,334.234045 160.819004,341.632913 C157.670309,345.805571 154.971427,346.719204 152.471502,346.741656 C151.094381,346.741656 147.10834,346.717477 146.623926,346.717477 C148.454321,343.042222 200.117139,267.989646 210.284655,251.473451 C222.568026,231.128289 225.348219,204.266804 210.734469,178.489933 C205.400718,169.141176 98.0302207,0 98.0302207,0 C98.0302207,0 83.7192292,20.5403231 77.7678498,29.3588626 C72.9392742,36.5366632 71.4583495,45.9355061 78.4166193,59.6779892 C78.4166193,59.6779892 168.545417,202.800501 172.841136,209.353094 C183.307952,225.674128 182.010413,247.485592 172.841136,262.338596 C165.360391,274.590597 103.080243,368.459857 103.080243,368.459857 L152.428251,368.459857 C170.30488,368.459857 174.692292,361.836453 179.624671,356.356386 C184.56051,350.829686 211.398809,310.213628 214.43159,305.937345 C217.535304,301.695603 225.36033,289.697484 235.65587,289.697484 L268.064937,289.697484 L268.064937,290.633569 C261.162029,292.020425 254.354274,296.193083 249.423625,302.944292 C244.489516,309.610873 211.929935,357.765694 208.006176,363.371839 C203.063417,370.446014 197.435558,377.152319 183.26297,377.152319"></path>
                </g>
            </g>
        </g>
    </g>
</svg>
