<svg width="856" height="830" xmlns="http://www.w3.org/2000/svg" xmlns:xlink="http://www.w3.org/1999/xlink"><title>BRITISHAIRWAYS</title><defs><path d="M659.556 1c10.808 0 19.57 8.764 19.57 19.575 0 1.156-.101 2.289-.293 3.39L521.391 631.934c-2.82 6.519-13.285 20.38-34.198 20.816l-.637.009L2 652.838C338.535 231.295 507.627 19.508 509.275 17.477 516.571 8.493 528.951 1.148 541.553 1h118.003z" id="a"/></defs><g transform="translate(88 88)" fill="none" fill-rule="evenodd"><path d="M659.556.25H541.552c-12.134.142-24.898 6.952-32.86 16.754l-4.548 5.69-95.364 119.425L.441 653.59l486.115-.08.648-.01c9.647-.2 17.79-3.203 24.333-8.283 4.861-3.775 8.553-8.539 10.43-12.728l.136-.31L679.559 24.153l.013-.06c.201-1.154.303-2.33.303-3.518 0-11.225-9.097-20.325-20.32-20.325zM541.56 1.75h117.995c10.393 0 18.82 8.428 18.82 18.825v.412c-.023.824-.093 1.64-.216 2.447l-.061.372-157.42 607.883.024-.053c-1.74 4.021-5.327 8.7-10.086 12.395-6.294 4.887-14.127 7.775-23.44 7.97l-.632.008-482.987.078 465.26-582.755 36.489-45.691 4.248-5.315.302-.376c7.692-9.472 20.048-16.063 31.704-16.2z" fill="#000" fill-rule="nonzero"/><mask id="b" fill="#fff"><use xlink:href="#a"/></mask><use fill="#FFF" xlink:href="#a"/><g mask="url(#b)" fill-rule="nonzero"><path d="M70 532.445l59.371-66.758-.765-.687c41.822 38.045 92.993 62.456 165.976 68.393l9.203.716 4.816.39c56.37 4.663 91.165 10.783 125.665 24.56 47.213 18.852 80.497 49.744 98.734 96.846L208.324 657a4.067 4.067 0 00-.85-1.276l-4.828-4.9-3.837-3.852c-27.476-27.445-40.832-37.473-60.534-48.335l-4.625-2.525c-8.067-4.455-13.92-8.572-22.122-16.069-13.149-12.019-24.045-23.991-32.81-35.352-3.056-3.961-5.625-7.557-7.721-10.718L70 532.445z" fill="#CF0012"/><path d="M624 332.153L583.724 538c-13.374-23.177-44.268-48.01-82.018-65.525-45.592-21.153-94.995-29.218-137.971-19.949l-1.787.396c-38.81 8.844-73.87.445-103.874-19.685-10.606-7.117-19.818-15.272-26.837-23.158l-1.265-1.447-.972-1.156.412.043c13.492 1.26 37.123 1.526 59.73-.51l2.826-.268c48.507-4.81 94.39-18.799 133.29-44.392l1.94-1.29c39.162-26.313 81.077-39.293 122.374-40.898 30.03-1.166 58.182 4.114 74.428 11.992z" fill="#004595"/><path d="M683 25l-37.964 194.227c-5.86-4.117-16.206-6.774-29.491-8.184-19.977-2.121-43.732-.83-58.491 3.381-41.976 11.978-82.88 25.384-125.79 40.936l-8.545 3.118C385.397 272.24 290.802 309.567 256 323l135.078-152.14a4.083 4.083 0 001.904-.858C487.127 93.801 613.9 33.08 683 25z" fill="#CF0012"/></g></g></svg>