<svg>
  <defs>
    <path d="M659.556 1c10.808 0 19.57 8.764 19.57 19.575 0 1.156-.101 2.289-.293 3.39L521.391 631.934c-2.821 6.519-13.285 20.38-34.198 20.816l-.637.009L2 652.838 509.275 17.477C516.571 8.494 528.951 1.148 541.553 1h118.003z" id="A"/><path id="B" d="M.001.127h603.581v437.871H.001z"/></defs><g transform="translate(88 88)" fill="none" fill-rule="evenodd"><path d="M659.556.25H541.553c-12.135.142-24.899 6.952-32.86 16.754L.441 653.588l486.762-.088c9.647-.201 17.79-3.204 24.333-8.284 4.861-3.774 8.554-8.539 10.43-12.728l.136-.309L679.572 24.094c.201-1.155.304-2.331.304-3.519 0-11.225-9.098-20.325-20.32-20.325zm-117.994 1.5h117.994c10.394 0 18.82 8.428 18.82 18.825v.412c-.022.824-.093 1.64-.216 2.447l-.061.372-157.42 607.883c-1.716 3.968-5.304 8.647-10.063 12.342-6.294 4.887-14.127 7.775-23.439 7.969l-.632.009-482.987.078L509.857 17.95c7.692-9.472 20.047-16.063 31.704-16.2z" fill="#000" fill-rule="nonzero"/><mask id="C" fill="#fff"><use xlink:href="#A"/></mask><use fill="#fff" xlink:href="#A"/><g mask="url(#C)"><g transform="translate(21 118)"><path d="M94 370c91.489-5.003 186.424-49.975 225.478-133.374C343.97 184.35 377.659 148.607 419 134c-55.885 13.452-84.983 29.982-111.784 55.732-39.804 38.052-30.234 49.199-82.296 105.698C174.391 348.089 111.613 364.23 94 370" fill="#009247"/><path d="M333 389.779c52.127-27.099 82.24-48.85 108.487-92.745C467.354 253.515 460.022 200.459 494 160c-20.85 74.05 15.059 108.788-30.888 173.68C418.326 396.66 333 389.779 333 389.779" fill="#f06022"/><mask id="D" fill="#fff"><use xlink:href="#B"/></mask><path d="M582.501 25.449c-2.289 0-3.823-1.531-3.823-3.837 0-1.914 1.534-3.837 3.823-3.837v-6.521c-3.823 3.837-6.896 8.062-8.816 11.894-6.509 0-16.09 5.373-19.54 16.119-1.907 6.517-6.513 9.21-6.513 9.21s11.497-1.158 14.943-11.516c1.916-6.138 6.522-10.358 10.355-11.511-9.194 17.654-6.518 48.347-54.427 75.211-61.691 30.692-126.076 31.463-163.631 100.531-16.872 31.075-29.894 69.068-59.019 100.535C211.928 393.046 93.125 425.657.001 437.934c118.803 1.54 267.496-24.937 369.813-98.225 59.019-42.591 68.987-88.254 87.37-142.356 22.616-66.001 106.55-63.695 125.316-141.208V25.449zm0-7.674c2.303 0 3.841 1.923 3.841 3.837 0 2.306-1.538 3.837-3.841 3.837v30.697c.769-2.684 1.152-5.368 1.538-8.052 4.21-29.166 10.728-39.911 19.544-47.969-7.665.77-15.334 5.377-21.083 11.129v6.521z" fill="#d6143f" mask="url(#D)"/></g></g></g></svg>
