<svg width="856" height="830" xmlns="http://www.w3.org/2000/svg" xmlns:xlink="http://www.w3.org/1999/xlink"><title>SRILANKANAIRLINES</title><defs><path d="M659.556 1c10.808 0 19.57 8.764 19.57 19.575 0 1.156-.101 2.289-.293 3.39L521.391 631.934c-2.82 6.519-13.285 20.38-34.198 20.816l-.637.009L2 652.838C338.535 231.295 507.627 19.508 509.275 17.477 516.571 8.493 528.951 1.148 541.553 1h118.003z" id="a"/><path id="c" d="M.001.127h603.581v437.87H.002z"/></defs><g transform="translate(88 88)" fill="none" fill-rule="evenodd"><path d="M659.556.25H541.552c-12.134.142-24.898 6.952-32.86 16.754l-4.548 5.69-95.364 119.425L.441 653.59l486.115-.08.648-.01c9.647-.2 17.79-3.203 24.333-8.283 4.861-3.775 8.553-8.539 10.43-12.728l.136-.31L679.559 24.153l.013-.06c.201-1.154.303-2.33.303-3.518 0-11.225-9.097-20.325-20.32-20.325zM541.56 1.75h117.995c10.393 0 18.82 8.428 18.82 18.825v.412c-.023.824-.093 1.64-.216 2.447l-.061.372-157.42 607.883.024-.053c-1.74 4.021-5.327 8.7-10.086 12.395-6.294 4.887-14.127 7.775-23.44 7.97l-.632.008-482.987.078 465.26-582.755 36.489-45.691 4.248-5.315.302-.376c7.692-9.472 20.048-16.063 31.704-16.2z" fill="#000" fill-rule="nonzero"/><mask id="b" fill="#fff"><use xlink:href="#a"/></mask><use fill="#FFF" xlink:href="#a"/><g mask="url(#b)"><path d="M115 488c91.489-5.003 186.424-49.975 225.478-133.374C364.97 302.35 398.658 266.607 440 252c-55.885 13.452-84.983 29.982-111.784 55.732-39.804 38.052-30.234 49.199-82.296 105.697C195.39 466.09 132.613 482.23 115 488" fill="#009247"/><path d="M354 507.779c52.127-27.1 82.24-48.85 108.487-92.745C488.354 371.515 481.022 318.459 515 278c-20.85 74.05 15.059 108.788-30.888 173.68C439.326 514.66 354 507.78 354 507.78" fill="#F06022"/><g transform="translate(21 118)"><mask id="d" fill="#fff"><use xlink:href="#c"/></mask><path d="M582.501 25.449c-2.29 0-3.823-1.531-3.823-3.837 0-1.914 1.534-3.837 3.823-3.837v-6.522c-3.823 3.838-6.895 8.062-8.816 11.895-6.509 0-16.09 5.372-19.54 16.118-1.907 6.517-6.513 9.21-6.513 9.21s11.497-1.157 14.943-11.516c1.916-6.138 6.522-10.358 10.354-11.511-9.194 17.654-6.517 48.347-54.426 75.211-61.691 30.692-126.077 31.463-163.631 100.53-16.872 31.076-29.894 69.069-59.02 100.536C211.929 393.046 93.126 425.657.003 437.934c118.802 1.54 267.495-24.936 369.813-98.224 59.019-42.591 68.986-88.254 87.37-142.356C479.8 131.352 563.735 133.658 582.5 56.146V25.449zm0-7.674c2.303 0 3.842 1.923 3.842 3.837 0 2.306-1.539 3.837-3.842 3.837v30.697c.77-2.684 1.152-5.368 1.539-8.053 4.21-29.165 10.727-39.911 19.544-47.968-7.665.77-15.334 5.377-21.083 11.128v6.522z" fill="#D6143F" mask="url(#d)"/></g></g></g></svg>