<svg width="856" height="830" xmlns="http://www.w3.org/2000/svg"><title>QUANTAS</title><g transform="translate(88 88)"><path d="M659.6.2h-118c-12.1.1-24.9 7-32.9 16.8l-4.5 5.7-95.4 119.4L.4 653.6l486.1-.1h.6c9.6-.2 17.8-3.2 24.3-8.3 4.9-3.8 8.6-8.5 10.4-12.7l.1-.3 157.5-608v-.1c.2-1.2.3-2.3.3-3.5.2-11.3-8.9-20.4-20.1-20.4zm-118 1.5h118c10.4 0 18.8 8.4 18.8 18.8v.5c0 .8-.1 1.6-.2 2.4l-.1.4-157.4 607.9v-.1c-1.7 4-5.3 8.7-10.1 12.4-6.3 4.9-14.1 7.8-23.4 8h-.6l-483 .1L468.8 69.3l36.5-45.7 4.2-5.3.3-.4c7.7-9.4 20.1-16 31.8-16.2z" fill="#cf0012"/><path d="M659.6 1c10.8 0 19.6 8.8 19.6 19.6 0 1.2-.1 2.3-.3 3.4L521.5 632c-2.8 6.5-13.3 20.4-34.2 20.8H2C338.5 231.3 507.6 19.5 509.3 17.5c7.3-9 19.7-16.3 32.3-16.5h118z" fill-rule="evenodd" clip-rule="evenodd" fill="#cf0012"/><defs><filter id="a" filterUnits="userSpaceOnUse" x="141" y="158" width="557" height="496"><feColorMatrix values="1 0 0 0 0 0 1 0 0 0 0 0 1 0 0 0 0 0 1 0"/></filter></defs><mask maskUnits="userSpaceOnUse" x="141" y="158" width="557" height="496" id="b"><g filter="url(#a)"><path d="M659.6 1c10.8 0 19.6 8.8 19.6 19.6 0 1.2-.1 2.3-.3 3.4L521.5 632c-2.8 6.5-13.3 20.4-34.2 20.8H2C338.5 231.3 507.6 19.5 509.3 17.5c7.3-9 19.7-16.3 32.3-16.5h118z" fill-rule="evenodd" clip-rule="evenodd" fill="#fff"/></g></mask><path d="M666.5 240.7C604.3 346.8 441.2 358 423.5 523c-.7 6.8-5.9 12.2-12.7 13.3-94 14.7-185.5 53.4-265.1 117.1l-.1.1c-.5.4-1.1.6-1.8.6s-1.4-.3-2-.8c-1.1-1.1-1.2-2.9-.1-4 55.1-57.9 122.4-104.1 197.9-134.5l23-9.2c11.8-4.8 20.1-16.5 19.7-30-1.3-49.3-117.9-39.3-129.7-62.9l-2-4.1c24-20.5 52.5-35.9 84-44.6.3 1.2 1 6.9-5.3 17.3-7 11.3 7.6 29.3 28.8 9.9l1.8-1.6C517.4 245.2 635.6 320 698 158l-31.5 82.7z" mask="url(#b)" fill-rule="evenodd" clip-rule="evenodd" fill="#fefefe"/></g></svg>