<svg>
<style type="text/css">
	.st0{fill-rule:evenodd;clip-rule:evenodd;fill:#002856;}
	.st1{fill:none;}
	.st2{fill:#E2E5EC;}
	.st3{fill:#ADB7C9;}
	.st4{fill:#7A8AA7;}
	.st5{fill-rule:evenodd;clip-rule:evenodd;fill:none;stroke:#002856;stroke-miterlimit:10;}
</style>
<path class="st0" d="M748.3,88c10.9,0,19.7,8.8,19.7,19.6c0,1.2-0.1,2.3-0.3,3.4L609.6,721c-2.8,6.5-13.3,20.4-34.3,20.9h-0.6
	L88,742c338-422.9,507.8-635.4,509.4-637.5c7.3-9,19.8-16.4,32.4-16.5H748.3z"/>
<path class="st1" d="M748.3,88c10.9,0,19.7,8.8,19.7,19.6c0,1.2-0.1,2.3-0.3,3.4L609.6,721c-2.8,6.5-13.3,20.4-34.3,20.9h-0.6
	L88,742c338-422.9,507.8-635.4,509.4-637.5c7.3-9,19.8-16.4,32.4-16.5H748.3z"/>
<g>
	<path class="st1" d="M164.6,725.8l12.3,12.3c3.1-3.5,5.6-8.2,1-12.8C173.5,720.9,168.9,722.3,164.6,725.8z"/>
	<path class="st1" d="M415.5,332.2c-2.9,3.6-5.7,7.2-8.7,10.8c1.1-0.8,2.2-1.8,3.5-3.1C411.8,338.5,414.7,335.6,415.5,332.2z"/>
	<path class="st1" d="M158.4,742l15.4,0l-12.7-12.7C158.8,731.6,154.5,736.5,158.4,742z"/>
	<path class="st1" d="M390.1,513.2c-4.4-4.4-9-3-13.3,0.5l12.3,12.3C392.2,522.5,394.7,517.8,390.1,513.2z"/>
	<path class="st1" d="M330.9,472.3c6.4-6.4,6.3-11.9,2.4-15.8c-3.9-3.9-9.4-4-15.8,2.4c-6.4,6.4-6.3,11.9-2.4,15.8
		C319,478.7,324.5,478.8,330.9,472.3z"/>
	<path class="st1" d="M224.8,578.4c5-5,6-9.5,4.4-13c-4.8,6-9.6,12-14.5,18.1C217.7,583.6,221.1,582.1,224.8,578.4z"/>
	<path class="st1" d="M501.1,236.6c3.9,3.9,8.3,4.4,15.3-2.7c2.5-2.5,9.1-9.1,2.7-15.5c-3.7-3.7-8.4-3.1-12.8,0.1
		c-2.4,3-4.8,6-7.3,9.1C497.9,230.9,498.5,234,501.1,236.6z"/>
	<path class="st1" d="M585,708.6c-4.5-4.5-10.5-2.5-15.6,2.6c-5.5,5.5-6.7,11.3-2.4,15.6c3.9,3.9,8.3,4.4,15.3-2.7
		C584.8,721.6,591.4,715,585,708.6z"/>
	<path class="st1" d="M439.4,350.5c-3.9-3.9-9.4-4-15.8,2.4c-6.4,6.4-6.3,11.9-2.4,15.8c3.9,3.9,9.4,4,15.8-2.4
		C443.4,359.9,443.3,354.4,439.4,350.5z"/>
	<path class="st1" d="M545.4,244.4c-3.9-3.9-9.4-4-15.8,2.4c-6.4,6.4-6.3,11.9-2.4,15.8c3.9,3.9,9.5,4,15.8-2.4
		C549.4,253.8,549.3,248.3,545.4,244.4z"/>
	<path class="st1" d="M496.2,407.1c-4.4-4.4-9-3-13.3,0.5l12.3,12.3C498.3,416.4,500.8,411.7,496.2,407.1z"/>
	<path class="st1" d="M602.3,301c-4.4-4.4-9-3-13.3,0.5l12.3,12.3C604.4,310.3,606.9,305.6,602.3,301z"/>
	<path class="st1" d="M284,619.2c-4.4-4.4-9-3-13.3,0.5L283,632C286.1,628.5,288.6,623.8,284,619.2z"/>
	
		<ellipse transform="matrix(0.7071 -0.7071 0.7071 0.7071 83.9254 497.4153)" class="st1" cx="642.4" cy="147.4" rx="12.9" ry="9.5"/>
	<path class="st1" d="M708.3,194.9c-4.4-4.4-9-3-13.3,0.5l12.3,12.3C710.4,204.2,712.9,199.5,708.3,194.9z"/>
	<path class="st1" d="M622.5,127.8c2.5-2.5,9.1-9.1,2.7-15.5c-4.5-4.5-10.5-2.6-15.6,2.6c-5.5,5.5-6.7,11.3-2.4,15.6
		C611.1,134.4,615.5,134.9,622.5,127.8z"/>
	<path class="st2" d="M198.1,739.1c-1.8-1.8-3.1-1.1-4.4,0.2L191,742l8,0C199.3,741.1,199.1,740.2,198.1,739.1z"/>
	<path class="st2" d="M357.7,508.6l13.1-13.1l4,4c1.3,1.3,2.6,2,4.2,0.4c1.6-1.6,0.9-2.9-0.4-4.2l-4-4l5.2-5.2
		c1.3-1.3,1.9-2.7,0.1-4.5c-1.7-1.8-3.1-1.2-4.5,0.2l-5.2,5.2l-1.6-1.6c-1.3-1.3-2.6-2-4.2-0.4c-1.6,1.6-0.9,2.9,0.4,4.2l1.6,1.6
		l-14.3,14.3c-4.2,4.2-4.2,9.3,0.6,14.1c2.4,2.4,4.2,3.1,5.7,1.6c1.8-1.8,0.7-3.3-0.8-4.8C355.3,514.1,354.5,511.8,357.7,508.6z"/>
	<path class="st2" d="M384,534.9c-0.9-0.9-2-1-3.9-0.7c-2.5,0.4-5,0.7-8.2-2.6c-6.2-6.2-1.2-11.9,1.3-14.4l14.7,14.7
		c1.2,1.2,2.6,1.7,4.5-0.1c7.4-7.4,7.7-15.7,1.2-22.2c-8.2-8.2-17.9-4.2-23.9,1.8c-9.8,9.8-7.2,17.8-1.4,23.6
		c3.7,3.7,7.3,5.3,10.8,5.4c2.4,0.1,4.2-0.6,5.1-1.5C385.6,537.7,385.2,536,384,534.9z M390.1,513.2c4.6,4.6,2.1,9.3-1,12.8
		l-12.3-12.3C381.1,510.2,385.7,508.8,390.1,513.2z"/>
	<path class="st2" d="M353.9,481.5c2,0.5,3.3,1.3,4.5,2.1c1,0.7,2.5,1.7,4.2,0c2.1-2.1,0.3-3.9-0.5-4.7c-2.6-2.6-7.4-2.9-10.8-1.4
		l2.6-2.5c1.3-1.3,2-2.6,0.2-4.4s-3.1-1.1-4.4,0.2L329.5,491c-1.4,1.4-2,2.8-0.2,4.5c1.8,1.8,3.2,1.2,4.5-0.1l9.6-9.7
		C348.1,481.1,351.6,481,353.9,481.5z"/>
	<path class="st2" d="M407.4,533.8l2.6-2.5c1.3-1.3,1.9-2.6,0.2-4.4c-1.8-1.8-3.1-1.1-4.4,0.2l-20.2,20.2c-1.4,1.4-1.9,2.7-0.2,4.5
		c1.8,1.7,3.2,1.1,4.5-0.2l9.5-9.5c4.6-4.7,8-4.9,10.4-4.4c2.8,0.7,4.1,2.1,5.3,2.9c1,0.7,2.5,1.7,4.2,0c2.1-2.1,0-4.2-0.8-5
		C415.8,532.8,410.7,532.4,407.4,533.8z"/>
	<path class="st2" d="M577,277.4l1.6,1.6l-14.3,14.3c-4.2,4.2-4.2,9.3,0.6,14.1c2.4,2.4,4.2,3.1,5.7,1.6c1.7-1.8,0.7-3.3-0.8-4.8
		c-2.3-2.3-3.1-4.6,0.1-7.8l13.1-13.1l4,4c1.3,1.3,2.6,2,4.2,0.4c1.6-1.6,0.9-2.9-0.4-4.2l-4-4l5.2-5.2c1.3-1.3,1.9-2.7,0.1-4.5
		c-1.7-1.8-3.1-1.2-4.5,0.2l-5.2,5.2l-1.6-1.6c-1.3-1.3-2.6-2-4.2-0.4C575,274.8,575.7,276.1,577,277.4z"/>
	<path class="st2" d="M629.7,160.1c6.6,6.6,15.6,7.2,24.1-1.3s7.8-17.5,1.3-24.1c-6.6-6.6-15.6-7.2-24.1,1.3
		S623.2,153.5,629.7,160.1z M651.5,138.3c3.9,3.9,4,9.4-2.4,15.8c-6.4,6.4-11.9,6.3-15.8,2.4c-3.9-3.9-4-9.4,2.4-15.8
		C642.1,134.3,647.6,134.4,651.5,138.3z"/>
	<path class="st2" d="M590.8,134.2l10-10.1c-0.5,2.1-0.8,6.2,3.9,10.9c7.6,7.6,16.6,3.5,22.6-2.5c6.2-6.3,10.2-15.5,2.4-23.3
		c-3.1-3-7.4-4.3-11.1-3.1l1.3-1.3c1.3-1.3,2-2.6,0.2-4.4c-1.8-1.8-3.1-1.1-4.4,0.2l-29.3,29.3c-1.3,1.4-1.8,2.7-0.1,4.5
		C588.1,136.1,589.5,135.5,590.8,134.2z M609.6,114.9c5.1-5.2,11.1-7.1,15.6-2.6c6.4,6.4-0.2,13-2.7,15.5c-7,7.1-11.4,6.6-15.3,2.7
		C602.9,126.2,604.1,120.4,609.6,114.9z"/>
	<path class="st2" d="M443,346.9c-6.6-6.6-15.6-7.2-24.1,1.3c-8.6,8.5-7.9,17.5-1.3,24.1c6.6,6.6,15.6,7.2,24.1-1.3
		S449.5,353.5,443,346.9z M421.2,368.7c-3.9-3.9-4-9.4,2.4-15.8c6.4-6.4,11.9-6.3,15.8-2.4c3.9,3.9,4,9.4-2.4,15.8
		C430.6,372.7,425.1,372.6,421.2,368.7z"/>
	<path class="st2" d="M549,240.8c-6.6-6.6-15.6-7.2-24.1,1.3c-8.5,8.5-7.8,17.5-1.3,24.1c6.6,6.6,15.6,7.2,24.1-1.3
		S555.5,247.4,549,240.8z M527.2,262.6c-3.9-3.9-4-9.4,2.4-15.8c6.4-6.4,11.9-6.3,15.8-2.4c3.9,3.9,4,9.4-2.4,15.8
		C536.7,266.6,531.1,266.5,527.2,262.6z"/>
	<path class="st2" d="M647.5,177.3c1.8,1.8,3.2,1.2,4.5-0.1l9.7-9.7c4.7-4.6,8.2-4.7,10.5-4.2c2,0.5,3.3,1.3,4.5,2.1
		c1,0.7,2.5,1.7,4.2,0c2.1-2.1,0.3-3.9-0.5-4.7c-2.6-2.6-7.4-2.9-10.8-1.4l2.5-2.5c1.3-1.3,2-2.6,0.2-4.4c-1.8-1.8-3.1-1.1-4.4,0.2
		l-20.2,20.2C646.3,174.2,645.8,175.6,647.5,177.3z"/>
	<path class="st2" d="M555.6,273.6c4.7-4.6,8.2-4.7,10.5-4.2c2,0.5,3.3,1.3,4.5,2.1c1,0.7,2.5,1.7,4.2,0c2.1-2.1,0.3-3.9-0.5-4.7
		c-2.6-2.6-7.4-2.9-10.8-1.4l2.5-2.5c1.3-1.3,2-2.6,0.2-4.4c-1.8-1.8-3.1-1.1-4.4,0.2l-20.2,20.2c-1.4,1.4-1.9,2.8-0.2,4.5
		c1.8,1.8,3.2,1.2,4.5-0.1L555.6,273.6z"/>
	<path class="st2" d="M590.9,732.3c-2.7,2.7-4.5,5.5-5.5,8.2c10.4-2.7,17.3-9,21.1-14.3C601.6,725.3,596.1,727.1,590.9,732.3z"/>
	<path class="st2" d="M490.1,428.8c-0.9-0.9-2-1-3.9-0.7c-2.5,0.4-5,0.7-8.2-2.6c-6.2-6.2-1.2-11.9,1.3-14.4l14.7,14.7
		c1.2,1.2,2.6,1.7,4.5-0.1c7.4-7.4,7.7-15.7,1.2-22.2c-8.2-8.2-17.9-4.2-23.9,1.8c-9.8,9.8-7.2,17.8-1.4,23.6
		c3.7,3.7,7.3,5.3,10.8,5.4c2.4,0.1,4.2-0.6,5.1-1.5C491.7,431.6,491.3,429.9,490.1,428.8z M496.2,407.1c4.6,4.6,2.1,9.3-1,12.8
		l-12.3-12.3C487.2,404.1,491.8,402.7,496.2,407.1z"/>
	<path class="st2" d="M463.8,402.5l13.1-13.1l4,4c1.3,1.3,2.6,2,4.2,0.4c1.6-1.6,0.9-2.9-0.4-4.2l-4-4l5.2-5.2
		c1.3-1.3,1.9-2.7,0.1-4.5c-1.7-1.8-3.1-1.2-4.5,0.2l-5.2,5.2l-1.6-1.6c-1.3-1.3-2.6-2-4.2-0.4c-1.6,1.6-0.9,2.9,0.4,4.2l1.6,1.6
		l-14.3,14.3c-4.2,4.2-4.2,9.3,0.6,14.1c2.4,2.4,4.1,3.1,5.7,1.6c1.7-1.8,0.7-3.3-0.8-4.8C461.4,408,460.6,405.7,463.8,402.5z"/>
	<path class="st2" d="M460.1,375.5c2,0.5,3.3,1.3,4.5,2.1c1,0.7,2.5,1.7,4.2,0c2.1-2.1,0.3-3.9-0.5-4.7c-2.6-2.6-7.4-2.9-10.8-1.4
		l2.5-2.5c1.3-1.3,2-2.6,0.2-4.4s-3.1-1.1-4.4,0.2L435.6,385c-1.4,1.4-1.9,2.8-0.2,4.5c1.8,1.8,3.2,1.2,4.5-0.1l9.7-9.7
		C454.3,375.1,457.8,375,460.1,375.5z"/>
	<path class="st2" d="M513.6,427.7l2.5-2.5c1.3-1.3,2-2.6,0.2-4.4c-1.8-1.8-3.1-1.1-4.4,0.2l-20.2,20.2c-1.4,1.4-1.9,2.7-0.2,4.5
		c1.8,1.7,3.2,1.1,4.5-0.2l9.6-9.5c4.6-4.7,8-4.9,10.4-4.4c2.8,0.7,4.1,2.1,5.3,2.9c1,0.7,2.5,1.7,4.2,0c2.1-2.1,0-4.2-0.8-5
		C522,426.7,516.9,426.3,513.6,427.7z"/>
	<path class="st2" d="M589.5,705.5c-3.1-3-7.4-4.3-11.1-3.1l1.2-1.4c1.3-1.3,2-2.6,0.2-4.4c-1.8-1.8-3.1-1.1-4.4,0.2l-29.3,29.3
		c-1.3,1.4-1.8,2.7-0.1,4.5c1.8,1.7,3.2,1.1,4.5-0.2l10.1-10c-0.5,2.1-0.8,6.2,3.9,10.9c7.6,7.5,16.6,3.5,22.6-2.5
		C593.3,722.5,597.3,713.3,589.5,705.5z M567,726.8c-4.3-4.3-3.1-10.1,2.4-15.6c5.1-5.1,11.1-7.1,15.6-2.6c6.4,6.4-0.2,13-2.7,15.5
		C575.3,731.2,570.9,730.7,567,726.8z"/>
	<path class="st2" d="M121.6,707.6l9.7-9.7c4.7-4.6,8.2-4.7,10.5-4.2c2,0.5,3.3,1.3,4.5,2.1c1,0.7,2.5,1.7,4.2,0
		c2.1-2.1,0.3-3.9-0.5-4.7c-2.6-2.6-7.4-2.9-10.8-1.4l2.5-2.5c1.3-1.3,2-2.6,0.2-4.4s-3.1-1.1-4.4,0.2l-11.7,11.7
		c-3.2,4-6.3,7.9-9.5,11.9c0.2,0.4,0.4,0.7,0.8,1.1C118.9,709.5,120.3,708.9,121.6,707.6z"/>
	<path class="st2" d="M181.5,721.7c-8.2-8.2-17.9-4.2-23.9,1.8c-7.2,7.2-7.7,13.4-5.2,18.5l5.9,0c-3.8-5.5,0.5-10.4,2.7-12.7
		l12.7,12.7l8.2,0C187.7,735.1,187.4,727.6,181.5,721.7z M176.9,738.1l-12.3-12.3c4.3-3.5,8.9-4.9,13.3-0.5
		C182.5,729.9,180,734.6,176.9,738.1z"/>
	<path class="st2" d="M247.9,587.6c2,0.5,3.3,1.3,4.5,2.1c1,0.7,2.5,1.7,4.2,0c2.1-2.1,0.3-3.9-0.5-4.7c-2.6-2.6-7.4-2.9-10.8-1.4
		l2.5-2.5c1.3-1.3,2-2.6,0.2-4.4s-3.1-1.1-4.4,0.2l-20.2,20.2c-1.4,1.4-1.9,2.8-0.2,4.5c1.8,1.8,3.2,1.2,4.5-0.1l9.7-9.7
		C242.1,587.2,245.6,587.1,247.9,587.6z"/>
	<path class="st2" d="M167.7,694.1c-1.7-1.8-3.1-1.2-4.5,0.2l-5.2,5.2l-1.6-1.6c-1.3-1.3-2.6-2-4.2-0.4s-0.9,2.9,0.4,4.2l1.6,1.6
		l-14.3,14.3c-4.2,4.2-4.2,9.3,0.6,14.1c2.4,2.4,4.2,3.1,5.7,1.6c1.7-1.8,0.7-3.3-0.8-4.8c-2.3-2.3-3.1-4.6,0.1-7.8l13.1-13.1l4,4
		c1.3,1.3,2.6,2,4.2,0.4c1.6-1.6,0.9-2.9-0.4-4.2l-4-4l5.2-5.2C168.9,697.3,169.5,695.9,167.7,694.1z"/>
	<path class="st2" d="M683,171.3l1.6,1.6l-14.3,14.3c-4.2,4.2-4.2,9.3,0.6,14.1c2.4,2.4,4.2,3.1,5.7,1.6c1.8-1.8,0.7-3.3-0.8-4.8
		c-2.3-2.3-3.1-4.6,0.1-7.8l13.1-13.1l4,4c1.3,1.3,2.6,2,4.2,0.4c1.6-1.6,0.9-2.9-0.4-4.2l-4-4l5.2-5.2c1.3-1.3,1.9-2.7,0.1-4.5
		c-1.7-1.8-3.1-1.2-4.5,0.2l-5.2,5.2l-1.6-1.6c-1.3-1.3-2.6-2-4.2-0.4C681,168.7,681.7,170,683,171.3z"/>
	<path class="st2" d="M521.2,238.6c6.2-6.3,10.2-15.5,2.4-23.3c-3.1-3-7.4-4.3-11.1-3.1l1.3-1.3c1-1,1.6-1.9,1.1-3.1
		c-2.8,3.5-5.6,7.1-8.6,10.7c4.4-3.2,9.1-3.8,12.8-0.1c6.4,6.4-0.2,13-2.7,15.5c-7,7.1-11.4,6.6-15.3,2.7c-2.6-2.6-3.2-5.7-2.1-8.9
		c-1.5,1.9-3,3.8-4.6,5.7c0.2,2.1,1.2,4.8,4.1,7.7C506.2,248.7,515.2,244.6,521.2,238.6z"/>
	<path class="st2" d="M335.6,477c8.5-8.5,7.8-17.5,1.3-24.1c-4-4-9-5.8-14.1-4.7c-5.3,6.7-10.8,13.5-16.3,20.3
		c0.4,3.6,2.1,6.9,5,9.7C318.1,484.9,327.1,485.5,335.6,477z M317.5,458.9c6.4-6.4,11.9-6.3,15.8-2.4c3.9,3.9,4,9.4-2.4,15.8
		c-6.4,6.5-11.9,6.4-15.8,2.4C311.2,470.8,311.1,465.3,317.5,458.9z"/>
	<path class="st2" d="M415.1,344.7c5.1-5.2,8.7-12.2,5.5-18.9c-1.7,2.1-3.4,4.3-5.1,6.4c-0.8,3.4-3.7,6.3-5.2,7.8
		c-1.2,1.3-2.4,2.3-3.5,3.1c-2.2,2.7-4.3,5.4-6.5,8.1C405.7,351.8,411.1,348.7,415.1,344.7z"/>
	<path class="st2" d="M229.5,583.1c7.6-7.6,7.8-15.7,3.1-22c-1.1,1.4-2.3,2.8-3.4,4.3c1.7,3.6,0.6,8-4.4,13
		c-3.7,3.7-7.1,5.2-10.1,5.1c-1.3,1.6-2.5,3.2-3.8,4.7C216.6,590.7,223.2,589.4,229.5,583.1z"/>
	<path class="st2" d="M619.7,321.7l2.5-2.5c1.3-1.3,1.9-2.6,0.2-4.4c-1.8-1.8-3.1-1.1-4.4,0.2l-20.2,20.2c-1.4,1.4-1.9,2.7-0.2,4.5
		c1.8,1.7,3.2,1.1,4.5-0.2l9.6-9.5c4.6-4.7,8-4.9,10.4-4.4c2.8,0.7,4.1,2.1,5.3,2.9c1,0.7,2.5,1.7,4.2,0c2.1-2.1,0-4.2-0.8-5
		C628.1,320.7,623,320.3,619.7,321.7z"/>
	<path class="st2" d="M703.7,233.6c1.8,1.7,3.2,1.1,4.5-0.2l9.6-9.4c4.6-4.7,8-4.9,10.4-4.4c2.8,0.7,4.1,2.1,5.3,2.9
		c1,0.7,2.5,1.7,4.2,0c2.1-2.1,0-4.2-0.8-5c-2.7-2.8-7.8-3.2-11.1-1.8l2.5-2.6c1.3-1.3,1.9-2.6,0.2-4.4c-1.8-1.8-3.1-1.1-4.4,0.2
		l-20.2,20.2C702.5,230.5,702,231.8,703.7,233.6z"/>
	<path class="st2" d="M686.6,216.7c3.7,3.7,7.3,5.3,10.8,5.4c2.4,0.1,4.2-0.6,5.1-1.5c1.4-1.2,0.9-2.8-0.2-4c-0.9-0.9-2-1-3.9-0.7
		c-2.5,0.4-5,0.7-8.2-2.6c-6.2-6.2-1.2-11.9,1.3-14.4l14.7,14.7c1.2,1.2,2.6,1.7,4.5-0.1c7.4-7.4,7.7-15.7,1.2-22.2
		c-8.2-8.2-17.9-4.2-23.9,1.8C678.2,202.9,680.8,210.9,686.6,216.7z M708.3,194.9c4.6,4.6,2.1,9.3-1,12.8L695,195.4
		C699.3,191.9,703.9,190.5,708.3,194.9z"/>
	<path class="st2" d="M301.4,639.9l2.5-2.5c1.3-1.3,1.9-2.6,0.2-4.4c-1.8-1.8-3.1-1.1-4.4,0.2l-20.2,20.2c-1.4,1.4-1.9,2.7-0.2,4.5
		c1.8,1.7,3.2,1.1,4.5-0.2l9.6-9.5c4.6-4.7,8-4.9,10.4-4.4c2.8,0.7,4.1,2.1,5.3,2.9c1,0.7,2.5,1.7,4.2,0c2.1-2.1,0-4.2-0.8-5
		C309.8,638.9,304.7,638.5,301.4,639.9z"/>
	<path class="st2" d="M277.9,641c-0.9-0.9-2-1-3.9-0.7c-2.5,0.4-5,0.7-8.2-2.6c-6.2-6.2-1.2-11.9,1.3-14.4l14.7,14.7
		c1.2,1.2,2.6,1.7,4.5-0.1c7.4-7.4,7.7-15.7,1.2-22.2c-8.2-8.2-17.9-4.2-23.9,1.8c-9.8,9.8-7.2,17.8-1.4,23.6
		c3.7,3.7,7.3,5.3,10.8,5.4c2.4,0.1,4.2-0.6,5.1-1.5C279.5,643.8,279.1,642.1,277.9,641z M284,619.2c4.6,4.6,2.1,9.3-1,12.8
		l-12.3-12.3C275,616.2,279.6,614.8,284,619.2z"/>
	<path class="st2" d="M251.6,614.7l13.1-13.1l4,4c1.3,1.3,2.6,2,4.2,0.4c1.6-1.6,0.9-2.9-0.4-4.2l-4-4l5.2-5.2
		c1.3-1.3,1.9-2.7,0.1-4.5c-1.7-1.8-3.1-1.2-4.5,0.2l-5.2,5.2l-1.6-1.6c-1.3-1.3-2.6-2-4.2-0.4c-1.6,1.6-0.9,2.9,0.4,4.2l1.6,1.6
		L246,611.6c-4.2,4.2-4.2,9.3,0.6,14.1c2.4,2.4,4.2,3.1,5.7,1.6c1.8-1.8,0.7-3.3-0.8-4.8C249.2,620.2,248.4,617.9,251.6,614.7z"/>
	<path class="st2" d="M600.1,319.7c1.2,1.2,2.6,1.7,4.5-0.1c7.4-7.4,7.7-15.7,1.2-22.2c-8.2-8.2-17.9-4.2-23.9,1.8
		c-9.8,9.8-7.2,17.8-1.4,23.6c3.7,3.7,7.3,5.3,10.8,5.4c2.4,0.1,4.2-0.6,5.1-1.5c1.4-1.2,0.9-2.8-0.2-4c-0.9-0.9-2-1-3.9-0.7
		c-2.5,0.4-5,0.7-8.2-2.6c-6.2-6.2-1.2-11.9,1.3-14.4L600.1,319.7z M602.3,301c4.6,4.6,2.1,9.3-1,12.8L589,301.5
		C593.3,298,597.9,296.6,602.3,301z"/>
</g>
<g>
	<polygon class="st1" points="402.5,741.9 402.7,741.9 402.6,741.8 	"/>
	<path class="st1" d="M349.3,705.2c-6.4,6.4-6.3,11.9-2.4,15.8c3.9,3.9,9.4,4,15.8-2.4c6.4-6.4,6.3-11.9,2.4-15.8
		C361.2,698.9,355.7,698.8,349.3,705.2z"/>
	<path class="st1" d="M577.2,490.7c-3.9-3.9-9.4-4-15.8,2.4c-6.4,6.4-6.3,11.9-2.4,15.8c3.9,3.9,9.4,4,15.8-2.4
		C581.2,500.1,581.1,494.6,577.2,490.7z"/>
	
		<ellipse transform="matrix(0.7071 -0.7071 0.7071 0.7071 -80.9193 592.0435)" class="st1" cx="674.2" cy="393.7" rx="12.9" ry="9.5"/>
	<path class="st1" d="M634,547.3c-4.4-4.4-9-3-13.3,0.5l12.3,12.3C636.1,556.6,638.6,551.9,634,547.3z"/>
	<path class="st1" d="M338.7,676.8c-4.5-4.5-10.5-2.5-15.6,2.6c-5.5,5.5-6.7,11.3-2.4,15.6c3.9,3.9,8.3,4.4,15.3-2.7
		C338.6,689.9,345.1,683.2,338.7,676.8z"/>
	<path class="st1" d="M654.3,374.1c2.5-2.5,9.1-9.2,2.7-15.5c-4.5-4.5-10.5-2.5-15.6,2.6c-5.5,5.5-6.7,11.3-2.4,15.6
		C642.9,380.7,647.3,381.2,654.3,374.1z"/>
	<path class="st1" d="M444.8,570.7c-4.5-4.5-10.5-2.5-15.6,2.6c-5.5,5.5-6.7,11.3-2.4,15.6c3.9,3.9,8.3,4.4,15.3-2.7
		C444.6,583.8,451.2,577.1,444.8,570.7z"/>
	<path class="st1" d="M528,653.4c-4.4-4.4-9-3-13.3,0.5l12.3,12.3C530.1,662.7,532.6,658,528,653.4z"/>
	<path class="st1" d="M471.1,596.7c-3.9-3.9-9.4-4-15.8,2.4c-6.4,6.4-6.3,11.9-2.4,15.8c4,4,9.5,4.1,15.8-2.4
		C475.1,606.1,475,600.6,471.1,596.7z"/>
	<path class="st1" d="M548.2,480.2c2.5-2.5,9.1-9.2,2.7-15.5c-4.5-4.5-10.5-2.5-15.6,2.6c-5.5,5.5-6.7,11.3-2.4,15.6
		C536.8,486.8,541.2,487.3,548.2,480.2z"/>
	<path class="st3" d="M449.3,567.7c-3.1-3-7.4-4.3-11.1-3.1l1.2-1.3c1.3-1.3,2-2.6,0.2-4.4s-3.1-1.1-4.4,0.2l-29.3,29.3
		c-1.3,1.4-1.8,2.7-0.1,4.5c1.8,1.7,3.2,1.1,4.5-0.2l10.1-10.1c-0.5,2.1-0.8,6.2,3.9,10.9c7.6,7.5,16.6,3.5,22.6-2.5
		C453.1,584.7,457.1,575.5,449.3,567.7z M442.1,586.2c-7,7.1-11.4,6.6-15.3,2.7c-4.3-4.3-3.1-10.1,2.4-15.6
		c5.1-5.1,11.1-7.1,15.6-2.6C451.2,577.1,444.6,583.8,442.1,586.2z"/>
	<path class="st3" d="M521.9,675.1c-0.9-0.9-2-1-3.9-0.7c-2.6,0.4-5,0.7-8.2-2.6c-6.2-6.2-1.2-11.9,1.3-14.4l14.7,14.7
		c1.2,1.2,2.6,1.7,4.5-0.1c7.4-7.4,7.7-15.7,1.2-22.2c-8.2-8.2-17.9-4.2-23.9,1.8c-9.8,9.8-7.2,17.8-1.4,23.6
		c3.7,3.7,7.3,5.3,10.8,5.4c2.4,0.1,4.2-0.6,5.1-1.5C523.5,677.9,523.1,676.2,521.9,675.1z M528,653.4c4.6,4.6,2.1,9.3-1,12.8
		l-12.3-12.3C519,650.4,523.6,649,528,653.4z"/>
	<path class="st3" d="M491.8,621.8c2,0.5,3.3,1.3,4.5,2.1c1,0.7,2.5,1.7,4.2,0c2.1-2.1,0.3-3.9-0.5-4.7c-2.6-2.6-7.4-2.9-10.8-1.4
		l2.5-2.6c1.3-1.3,2-2.6,0.2-4.4s-3.1-1.1-4.4,0.2l-20.2,20.2c-1.4,1.4-1.9,2.8-0.2,4.5c1.8,1.8,3.2,1.2,4.5-0.1l9.7-9.6
		C486,621.4,489.5,621.3,491.8,621.8z"/>
	<path class="st3" d="M474.8,593.1c-6.6-6.6-15.6-7.2-24.1,1.3c-8.6,8.5-7.9,17.6-1.3,24.1c6.6,6.6,15.6,7.2,24.1-1.3
		S481.3,599.7,474.8,593.1z M452.9,614.9c-3.9-3.9-4-9.4,2.4-15.8c6.4-6.4,11.9-6.3,15.8-2.4c3.9,3.9,4,9.4-2.4,15.8
		C462.4,619,456.9,618.9,452.9,614.9z"/>
	<path class="st3" d="M556.5,675.8c-2.7-2.8-7.8-3.2-11.1-1.8l2.5-2.5c1.3-1.3,1.9-2.6,0.2-4.4c-1.8-1.8-3.1-1.1-4.4,0.2l-20.2,20.2
		c-1.4,1.4-1.9,2.7-0.2,4.5c1.8,1.7,3.2,1.1,4.5-0.2l9.6-9.5c4.6-4.7,8-4.9,10.4-4.4c2.8,0.7,4.1,2.1,5.3,2.9c1,0.7,2.5,1.7,4.2,0
		C559.4,678.6,557.3,676.6,556.5,675.8z"/>
	<path class="st3" d="M495.6,648.8l13.1-13.1l4,4c1.3,1.3,2.6,2,4.2,0.4s0.9-2.9-0.4-4.2l-4-4l5.2-5.2c1.3-1.3,1.9-2.7,0.1-4.5
		c-1.7-1.8-3.1-1.2-4.5,0.2l-5.2,5.2l-1.6-1.6c-1.3-1.3-2.6-2-4.2-0.4c-1.6,1.6-0.9,2.9,0.4,4.2l1.6,1.6L490,645.7
		c-4.2,4.2-4.2,9.3,0.6,14.1c2.4,2.4,4.2,3.1,5.7,1.6c1.7-1.8,0.7-3.3-0.8-4.8C493.2,654.3,492.4,652,495.6,648.8z"/>
	<path class="st3" d="M601.6,542.7l13.1-13.1l4,4c1.3,1.3,2.6,2,4.2,0.4s0.9-2.9-0.4-4.2l-4-4l5.2-5.2c1.3-1.3,1.9-2.7,0.1-4.5
		c-1.7-1.8-3.1-1.2-4.5,0.2l-5.2,5.2l-1.6-1.6c-1.3-1.3-2.6-2-4.2-0.4c-1.6,1.6-0.9,2.9,0.4,4.2l1.6,1.6L596,539.6
		c-4.2,4.2-4.2,9.3,0.6,14.1c2.4,2.4,4.2,3.1,5.7,1.6c1.8-1.8,0.7-3.3-0.8-4.8C599.2,548.2,598.4,545.9,601.6,542.7z"/>
	<path class="st3" d="M628,569c-0.9-0.9-2-1-3.9-0.7c-2.5,0.4-5,0.7-8.2-2.6c-6.2-6.2-1.2-11.9,1.3-14.4l14.7,14.7
		c1.2,1.2,2.6,1.7,4.5-0.1c7.4-7.4,7.7-15.7,1.2-22.2c-8.2-8.2-17.9-4.1-23.9,1.8c-9.8,9.8-7.2,17.8-1.4,23.6
		c3.7,3.7,7.3,5.3,10.8,5.4c2.4,0.1,4.2-0.6,5.1-1.5C629.6,571.8,629.1,570.1,628,569z M634,547.3c4.6,4.6,2.1,9.3-1,12.8
		l-12.3-12.3C625,544.3,629.6,542.9,634,547.3z"/>
	<path class="st3" d="M580.8,487.1c-6.6-6.6-15.6-7.2-24.1,1.3s-7.8,17.5-1.3,24.1c6.6,6.6,15.6,7.2,24.1-1.3
		S587.3,493.7,580.8,487.1z M559,508.9c-3.9-3.9-4-9.4,2.4-15.8c6.4-6.4,11.9-6.3,15.8-2.4c3.9,3.9,4,9.4-2.4,15.8
		C568.4,512.9,562.9,512.8,559,508.9z"/>
	<path class="st3" d="M597.9,515.8c2,0.5,3.3,1.3,4.5,2.1c1,0.7,2.5,1.7,4.2,0c2.1-2.1,0.3-3.9-0.5-4.7c-2.6-2.6-7.4-2.9-10.8-1.4
		l2.5-2.6c1.3-1.3,2-2.6,0.2-4.4s-3.1-1.1-4.4,0.2l-20.2,20.2c-1.4,1.4-1.9,2.8-0.2,4.5c1.8,1.8,3.2,1.2,4.5-0.1l9.7-9.6
		C592.1,515.4,595.6,515.3,597.9,515.8z"/>
	<path class="st3" d="M724.1,274.5c0.4,0.3,0.7,0.6,1,0.7l2.2-8.3l-3.1,3.1C722.9,271.4,722.4,272.7,724.1,274.5z"/>
	<path class="st3" d="M375.2,732c4.7-4.6,8.2-4.7,10.5-4.2c2,0.5,3.3,1.3,4.5,2.1c1,0.7,2.5,1.7,4.2,0c2.1-2.1,0.3-3.9-0.5-4.7
		c-2.6-2.6-7.4-2.9-10.8-1.4l2.6-2.5c1.3-1.3,2-2.6,0.2-4.4s-3.1-1.1-4.4,0.2l-20.2,20.2c-1.4,1.4-1.9,2.8-0.2,4.5
		c0.1,0.1,0.1,0.1,0.2,0.1l4.1,0c0.1-0.1,0.2-0.2,0.3-0.2L375.2,732z"/>
	<path class="st3" d="M679.3,423.6c1.8,1.8,3.2,1.2,4.5-0.1l3.9-3.9l3-11.7l-11.3,11.3C678.1,420.5,677.6,421.9,679.3,423.6z"/>
	<path class="st3" d="M516.5,486.5l10-10c-0.5,2.1-0.8,6.2,3.9,10.9c7.6,7.6,16.6,3.5,22.6-2.5c6.2-6.3,10.2-15.5,2.4-23.3
		c-3.1-3-7.4-4.3-11.1-3.1l1.3-1.4c1.3-1.3,2-2.6,0.2-4.4s-3.1-1.1-4.4,0.2l-29.3,29.3c-1.3,1.4-1.8,2.7-0.1,4.5
		C513.8,488.4,515.2,487.8,516.5,486.5z M535.3,467.3c5.1-5.1,11.1-7.1,15.6-2.6c6.4,6.3-0.2,13-2.7,15.5c-7,7.1-11.4,6.6-15.3,2.7
		C528.6,478.6,529.8,472.8,535.3,467.3z"/>
	<path class="st3" d="M411.6,732.8c1.3-1.3,1.9-2.7,0.1-4.5c-1.7-1.8-3.1-1.2-4.5,0.2l-5.2,5.2l-1.6-1.6c-1.3-1.3-2.6-2-4.2-0.4
		c-1.6,1.6-0.9,2.9,0.4,4.2l1.6,1.6l-4.4,4.4l8.7,0l0.1-0.1l0.1,0.1l7.6,0l-3.9-3.9L411.6,732.8z"/>
	<path class="st3" d="M629.6,581.4c-1.4,1.4-1.9,2.7-0.2,4.5c1.8,1.7,3.2,1.1,4.5-0.2l9.6-9.5c1.7-1.7,3.2-2.8,4.5-3.5l3.3-12.6
		c-0.5,0.2-1,0.6-1.5,1.1L629.6,581.4z"/>
	<path class="st3" d="M622.6,380.5l10-10.1c-0.5,2.1-0.8,6.2,3.9,10.9c7.6,7.5,16.6,3.5,22.6-2.5c6.2-6.3,10.2-15.5,2.4-23.3
		c-3.1-3-7.4-4.3-11.1-3.1l1.3-1.3c1.3-1.3,2-2.6,0.2-4.4c-1.8-1.8-3.1-1.1-4.4,0.2l-29.3,29.3c-1.3,1.4-1.8,2.7-0.1,4.5
		C619.9,382.4,621.3,381.8,622.6,380.5z M641.4,361.2c5.1-5.1,11.1-7.1,15.6-2.6c6.4,6.3-0.2,13-2.7,15.5c-7,7.1-11.4,6.6-15.3,2.7
		C634.7,372.5,635.9,366.7,641.4,361.2z"/>
	<path class="st3" d="M343.2,673.7c-3.1-3-7.4-4.3-11.1-3.1l1.2-1.4c1.3-1.3,2-2.6,0.2-4.4s-3.1-1.1-4.4,0.2l-29.3,29.3
		c-1.3,1.4-1.8,2.7-0.1,4.5c1.8,1.7,3.2,1.1,4.5-0.2l10.1-10c-0.5,2.1-0.8,6.2,3.9,10.9c7.6,7.6,16.6,3.5,22.6-2.5
		C347,690.7,351,681.5,343.2,673.7z M336,692.3c-7,7.1-11.4,6.6-15.3,2.7c-4.3-4.3-3.1-10.1,2.4-15.6c5.1-5.1,11.1-7.1,15.6-2.6
		C345.1,683.2,338.6,689.9,336,692.3z"/>
	<path class="st3" d="M661.5,406.3c6.6,6.6,15.6,7.2,24.1-1.3s7.8-17.5,1.3-24.1c-6.6-6.6-15.6-7.2-24.1,1.3
		C654.3,390.8,655,399.8,661.5,406.3z M683.3,384.6c3.9,3.9,4,9.4-2.4,15.8c-6.4,6.4-11.9,6.3-15.8,2.4s-4-9.4,2.4-15.8
		C673.9,380.6,679.4,380.7,683.3,384.6z"/>
	<path class="st3" d="M344.6,700.5c-8.6,8.5-7.9,17.5-1.3,24.1c6.6,6.6,15.6,7.2,24.1-1.3s7.8-17.5,1.3-24.1
		C362.1,692.6,353.1,692,344.6,700.5z M362.7,718.6c-6.4,6.4-11.9,6.3-15.8,2.4c-3.9-3.9-4-9.4,2.4-15.8c6.4-6.4,11.9-6.3,15.8-2.4
		C369,706.7,369.1,712.2,362.7,718.6z"/>
</g>
<g>
	<path class="st1" d="M698.5,88h-6l3.5,3.5C696.9,90.4,697.8,89.3,698.5,88z"/>
	<path class="st1" d="M737.3,137.7c-5.5,5.5-6.7,11.3-2.4,15.6c3.9,3.9,8.3,4.4,15.3-2.7c2.6-2.4,9.1-9.1,2.7-15.5
		C748.4,130.6,742.4,132.6,737.3,137.7z"/>
	<path class="st1" d="M378.8,397c-4.3-4.4-9-3-13.3,0.5l12.3,12.3C380.9,406.3,383.4,401.6,378.8,397z"/>
	<path class="st1" d="M709,337.5l1.8-7.1C709.5,332.3,708.4,334.8,709,337.5z"/>
	<path class="st1" d="M275.2,507.8c-1.7,2.1-3.4,4.3-5.1,6.4l1.6,1.6C273.7,513.5,275.5,510.7,275.2,507.8z"/>
	<polygon class="st1" points="717.4,305.2 719.4,297.4 714.5,302.3 	"/>
	<path class="st1" d="M661.8,504.5c1.1,1.1,2.1,1.8,3.3,2.3l5.8-22.4c-2.3,0.8-4.6,2.4-6.7,4.5C658.7,494.4,657.5,500.2,661.8,504.5
		z"/>
	<path class="st1" d="M222.5,665.5c-4.5-4.5-10.5-2.5-15.6,2.6c-5.5,5.5-6.7,11.3-2.4,15.6c3.9,3.9,8.3,4.4,15.3-2.7
		C222.4,678.6,228.9,671.9,222.5,665.5z"/>
	
		<ellipse transform="matrix(0.7071 -0.7071 0.7071 0.7071 -213.0631 462.6175)" class="st1" cx="451.9" cy="488.5" rx="12.9" ry="9.5"/>
	<path class="st1" d="M538.1,362.8c2.5-2.5,9.1-9.2,2.7-15.5c-4.5-4.5-10.5-2.5-15.6,2.6c-5.5,5.5-6.7,11.3-2.4,15.6
		C526.7,369.4,531.1,369.9,538.1,362.8z"/>
	<path class="st1" d="M248.8,691.5c-3.9-3.9-9.4-4-15.8,2.4c-6.4,6.4-6.3,11.9-2.4,15.8c4,3.9,9.5,4.1,15.8-2.4
		C252.8,700.9,252.7,695.4,248.8,691.5z"/>
	<path class="st1" d="M432,468.9c2.5-2.5,9.1-9.2,2.7-15.5c-4.5-4.5-10.5-2.6-15.6,2.6c-5.5,5.5-6.7,11.3-2.4,15.6
		C420.6,475.5,425,476,432,468.9z"/>
	<path class="st1" d="M484.9,290.9c-4.3-4.4-9-3-13.3,0.5l12.3,12.3C487,300.2,489.5,295.5,484.9,290.9z"/>
	<path class="st1" d="M655,285.4c3.9,3.9,9.4,4,15.8-2.4c6.4-6.4,6.3-11.9,2.4-15.8c-3.9-3.9-9.4-4-15.8,2.4
		C651,276,651.1,281.5,655,285.4z"/>
	<path class="st1" d="M644.2,256.7c2.5-2.5,9.1-9.1,2.7-15.5c-4.5-4.5-10.5-2.5-15.6,2.6c-5.5,5.5-6.7,11.3-2.4,15.6
		C632.8,263.3,637.2,263.8,644.2,256.7z"/>
	<path class="st1" d="M590.9,184.8c-4.3-4.4-9-3-13.3,0.5l12.3,12.3C593,194.1,595.5,189.4,590.9,184.8z"/>
	<path class="st1" d="M573.7,592.4c-4.5-4.5-10.5-2.5-15.6,2.6c-5.5,5.5-6.7,11.3-2.4,15.6c3.9,3.9,8.3,4.4,15.3-2.7
		C573.6,605.4,580.1,598.8,573.7,592.4z"/>
	<path class="st1" d="M623.9,429.9c-4.3-4.4-9-3-13.3,0.5l12.3,12.3C626,439.2,628.5,434.5,623.9,429.9z"/>
	<path class="st1" d="M600,618.4c-3.9-3.9-9.4-4-15.8,2.4c-6.4,6.4-6.3,11.9-2.4,15.8c4,3.9,9.5,4,15.8-2.4
		C604,627.8,603.9,622.3,600,618.4z"/>
	<path class="st1" d="M517.8,536c-4.3-4.4-9-3-13.3,0.5l12.3,12.3C519.9,545.3,522.4,540.6,517.8,536z"/>
	<path class="st1" d="M411.7,642.1c-4.3-4.4-9-3-13.3,0.5l12.3,12.3C413.8,651.4,416.3,646.7,411.7,642.1z"/>
	<path class="st1" d="M354.9,585.4c-3.9-3.9-9.4-4-15.8,2.4c-6.4,6.4-6.3,11.9-2.4,15.8c3.9,4,9.4,4.1,15.8-2.4
		C358.9,594.8,358.8,589.3,354.9,585.4z"/>
	<path class="st1" d="M328.6,559.4c-4.5-4.5-10.5-2.5-15.6,2.6c-5.5,5.5-6.7,11.3-2.4,15.6c3.9,3.9,8.3,4.4,15.3-2.7
		C328.5,572.5,335,565.8,328.6,559.4z"/>
	<path class="st1" d="M452,701.1c-5.5,5.5-6.7,11.3-2.4,15.6c3.9,3.9,8.3,4.4,15.3-2.7c2.6-2.5,9.1-9.1,2.7-15.5
		C463.1,694,457.1,696,452,701.1z"/>
	
		<ellipse transform="matrix(0.7071 -0.7071 0.7071 0.7071 -106.9632 506.568)" class="st1" cx="558" cy="382.4" rx="12.9" ry="9.5"/>
	<path class="st1" d="M494,724.5c-3.9-3.9-9.4-4-15.8,2.4c-6,6-6.3,11.2-3.1,15l14.7,0c0.6-0.5,1.2-1,1.8-1.6
		C498,733.9,497.9,728.4,494,724.5z"/>
	<path class="st4" d="M266.8,528.8c1.4-1.3,1-2.9-0.2-4c-0.9-0.9-2-1-3.9-0.7c-0.2,0-0.4,0.1-0.6,0.1c-1.4,1.8-2.8,3.6-4.3,5.4
		c1.3,0.5,2.6,0.7,3.9,0.8C264.1,530.4,265.9,529.7,266.8,528.8z"/>
	<path class="st4" d="M166.4,647.5l9.5-9.5c4.6-4.7,8-4.9,10.4-4.4c2.8,0.7,4.1,2.1,5.3,2.9c1,0.7,2.5,1.7,4.2,0
		c2.1-2.2,0-4.2-0.8-5c-2.7-2.8-7.8-3.2-11.1-1.8l2.6-2.5c1.3-1.3,1.9-2.6,0.2-4.4c-1-1-1.8-1.2-2.6-1c-7,8.8-14.1,17.6-21.2,26.6
		C164.2,649.1,165.3,648.6,166.4,647.5z"/>
	<path class="st4" d="M431.6,666.6c2.8,0.7,4.1,2.1,5.3,2.9c1,0.7,2.5,1.7,4.2,0c2.1-2.2,0-4.2-0.8-5c-2.7-2.8-7.8-3.2-11.1-1.8
		l2.5-2.5c1.3-1.3,1.9-2.6,0.2-4.4c-1.8-1.8-3.1-1.1-4.4,0.2l-20.2,20.2c-1.4,1.4-2,2.7-0.2,4.5c1.8,1.7,3.2,1.1,4.5-0.2l9.6-9.5
		C425.8,666.3,429.2,666.1,431.6,666.6z"/>
	<path class="st4" d="M578.2,589.3c-3.1-3-7.4-4.3-11.1-3.1l1.4-1.4c1.3-1.3,2-2.6,0.2-4.4c-1.8-1.8-3.1-1.1-4.4,0.2L535,609.9
		c-1.4,1.4-2,2.7-0.2,4.5c1.8,1.7,3.2,1.1,4.5-0.2l10-10c-0.5,2.1-0.8,6.2,3.9,10.9c7.6,7.6,16.6,3.5,22.6-2.5
		C582,606.3,586,597.1,578.2,589.3z M571,607.9c-7,7.1-11.4,6.6-15.3,2.7c-4.3-4.3-3.1-10.1,2.4-15.6c5.1-5.1,11.1-7.1,15.6-2.6
		C580.1,598.8,573.6,605.4,571,607.9z"/>
	<path class="st4" d="M405.7,663.8c-0.9-0.9-2-1-3.9-0.7c-2.5,0.4-5,0.7-8.2-2.6c-6.2-6.2-1.2-11.9,1.3-14.4l14.7,14.7
		c1.2,1.2,2.7,1.7,4.5-0.1c7.4-7.4,7.7-15.7,1.2-22.2c-8.2-8.2-17.9-4.2-23.9,1.8c-9.8,9.8-7.2,17.8-1.4,23.6
		c3.7,3.7,7.3,5.3,10.8,5.4c2.4,0.1,4.2-0.6,5.1-1.5C407.3,666.6,406.8,664.9,405.7,663.8z M411.7,642.1c4.6,4.6,2.1,9.3-1,12.8
		l-12.3-12.3C402.7,639.1,407.4,637.7,411.7,642.1z"/>
	<path class="st4" d="M603.7,614.8c-6.6-6.6-15.6-7.2-24.1,1.3s-7.9,17.5-1.3,24.1c6.6,6.6,15.6,7.2,24.1-1.3
		S610.2,621.4,603.7,614.8z M581.8,636.6c-3.9-3.9-4-9.4,2.4-15.8c6.4-6.4,11.9-6.3,15.8-2.4c3.9,3.9,4,9.4-2.4,15.8
		C591.3,640.6,585.8,640.5,581.8,636.6z"/>
	<path class="st4" d="M290.3,734.5c1.3,1.3,2.6,2,4.2,0.4c1.6-1.6,0.9-2.9-0.4-4.2l-4-4l5.2-5.2c1.3-1.3,1.9-2.7,0.1-4.5
		s-3.1-1.2-4.5,0.2l-5.2,5.2l-1.6-1.6c-1.3-1.3-2.6-2-4.2-0.4c-1.6,1.6-0.9,2.9,0.4,4.2l1.6,1.6l-14.3,14.3c-0.5,0.5-0.9,1-1.3,1.5
		l8.5,0l11.5-11.5L290.3,734.5z"/>
	<path class="st4" d="M485.4,531.4l13.1-13.1l4,4c1.3,1.3,2.6,2,4.2,0.4c1.6-1.6,0.9-2.9-0.4-4.2l-4-4l5.2-5.2
		c1.3-1.3,1.9-2.7,0.1-4.5s-3.1-1.2-4.5,0.2l-5.2,5.2l-1.6-1.6c-1.3-1.3-2.6-2-4.2-0.4c-1.6,1.6-0.9,2.9,0.4,4.2l1.6,1.6l-14.3,14.3
		c-4.2,4.2-4.2,9.3,0.6,14.1c2.4,2.4,4.1,3.1,5.7,1.6c1.7-1.8,0.7-3.3-0.8-4.8C483,536.9,482.2,534.6,485.4,531.4z"/>
	<path class="st4" d="M461,692.3l1.4-1.4c1.3-1.3,2-2.6,0.2-4.4s-3.1-1.1-4.4,0.2L428.9,716c-1.4,1.4-2,2.7-0.2,4.5
		c1.8,1.7,3.2,1.1,4.5-0.2l10-10c-0.5,2.1-0.8,6.2,3.9,10.9c7.6,7.6,16.6,3.5,22.6-2.5c6.2-6.3,10.2-15.5,2.4-23.3
		C469,692.4,464.7,691.1,461,692.3z M464.9,714c-7,7.1-11.4,6.6-15.3,2.7c-4.3-4.3-3.1-10.1,2.4-15.6c5.1-5.1,11.1-7.1,15.6-2.6
		C474,704.9,467.5,711.5,464.9,714z"/>
	<path class="st4" d="M511.7,557.7c-0.9-0.9-2-1-3.9-0.7c-2.5,0.4-5,0.7-8.2-2.6c-6.2-6.2-1.2-11.9,1.3-14.4l14.7,14.7
		c1.2,1.2,2.7,1.7,4.5-0.1c7.4-7.4,7.7-15.7,1.2-22.2c-8.2-8.2-17.9-4.2-23.9,1.8c-9.8,9.8-7.2,17.8-1.4,23.6
		c3.7,3.7,7.3,5.3,10.8,5.4c2.4,0.1,4.2-0.6,5.1-1.5C513.3,560.5,512.9,558.8,511.7,557.7z M517.8,536c4.6,4.6,2.1,9.3-1,12.8
		l-12.3-12.3C508.8,533,513.5,531.6,517.8,536z"/>
	<path class="st4" d="M537.6,560.5c2.8,0.7,4.1,2.1,5.3,2.9c1,0.7,2.5,1.7,4.2,0c2.1-2.2,0-4.2-0.8-5c-2.7-2.8-7.8-3.2-11.1-1.8
		l2.5-2.5c1.3-1.3,2-2.6,0.2-4.4c-1.8-1.8-3.1-1.1-4.4,0.2l-20.2,20.2c-1.4,1.4-2,2.7-0.2,4.5c1.8,1.7,3.2,1.1,4.5-0.2l9.6-9.5
		C531.8,560.2,535.2,560,537.6,560.5z"/>
	<path class="st4" d="M367.8,424.2c2.4,0.1,4.2-0.6,5.1-1.5c1.4-1.2,1-2.9-0.2-4c-0.9-0.9-2-1-3.9-0.7c-2.5,0.4-5,0.7-8.2-2.6
		c-6.2-6.2-1.2-11.9,1.3-14.4l14.7,14.7c1.2,1.2,2.7,1.7,4.5-0.1c7.4-7.4,7.7-15.7,1.2-22.2c-3.9-3.9-8.1-5-12.1-4.5
		c-5.9,7.3-11.8,14.8-17.9,22.4c0.8,2.8,2.5,5.3,4.7,7.5C360.7,422.5,364.3,424.1,367.8,424.2z M378.8,397c4.6,4.6,2.1,9.3-1,12.8
		l-12.3-12.3C369.8,394,374.5,392.6,378.8,397z"/>
	<path class="st4" d="M275,521.7c6.1-6.1,7.4-12.8,4-18.6c-1.3,1.6-2.5,3.2-3.8,4.7c0.3,2.9-1.5,5.7-3.5,8l-1.6-1.6
		c-1.1,1.3-2.1,2.7-3.2,4l3.6,3.6C271.7,523,273.2,523.5,275,521.7z"/>
	<path class="st4" d="M497.6,720.9c-6.6-6.6-15.6-7.2-24.1,1.3c-6.8,6.7-7.8,13.8-4.6,19.7l6.2,0c-3.2-3.8-2.9-9,3.1-15
		c6.4-6.4,11.9-6.3,15.8-2.4c3.9,3.9,4,9.4-2.4,15.8c-0.6,0.6-1.2,1.1-1.8,1.6l9.1,0C504.5,734.4,503.3,726.7,497.6,720.9z"/>
	<path class="st4" d="M607.9,263.3c1.8,1.7,3.2,1.1,4.5-0.2l10-10.1c-0.5,2.1-0.8,6.2,3.9,10.9c7.6,7.5,16.6,3.5,22.6-2.5
		c6.2-6.3,10.2-15.5,2.4-23.3c-3.1-3-7.4-4.3-11.1-3.1l1.4-1.3c1.3-1.3,2-2.6,0.2-4.4c-1.8-1.8-3.1-1.1-4.4,0.2l-29.3,29.3
		C606.7,260.2,606.2,261.5,607.9,263.3z M631.3,243.8c5.1-5.1,11.1-7.1,15.6-2.6c6.4,6.4-0.2,13-2.7,15.5c-7,7.1-11.4,6.6-15.3,2.7
		C624.6,255.1,625.8,249.3,631.3,243.8z"/>
	<path class="st4" d="M514.8,738.6c-1.8-1.8-3.1-1.1-4.4,0.2l-3.1,3.1l8.2,0C516.1,740.9,516.1,739.9,514.8,738.6z"/>
	<path class="st4" d="M707.2,344.5l1.8-7c-0.6-2.7,0.5-5.2,1.8-7.1l3.1-11.9c-1.6,1-3,2.2-4.3,3.4
		C700.4,331.2,702.1,338.8,707.2,344.5z"/>
	<path class="st4" d="M669.2,306.2c1.8,1.8,3.2,1.2,4.5-0.1l9.7-9.6c4.7-4.6,8.2-4.7,10.5-4.2c2,0.5,3.3,1.3,4.5,2.1
		c1,0.7,2.5,1.7,4.2,0c2.1-2.1,0.3-3.9-0.5-4.7c-2.6-2.6-7.5-2.9-10.8-1.4l2.5-2.6c1.3-1.3,2-2.6,0.2-4.4s-3.1-1.1-4.4,0.2
		l-20.2,20.2C668,303.1,667.4,304.5,669.2,306.2z"/>
	<path class="st4" d="M586.3,223.4c1.8,1.7,3.2,1.1,4.5-0.2l9.6-9.4c4.6-4.7,8-4.9,10.4-4.4c2.8,0.7,4.1,2.1,5.3,2.9
		c1,0.7,2.5,1.7,4.2,0c2.1-2.2,0-4.2-0.8-5c-2.7-2.8-7.8-3.2-11.1-1.8l2.5-2.6c1.3-1.3,1.9-2.6,0.2-4.4c-1.8-1.8-3.1-1.1-4.4,0.2
		l-20.2,20.2C585.1,220.3,584.5,221.6,586.3,223.4z"/>
	<path class="st4" d="M651.4,289c6.6,6.6,15.6,7.2,24.1-1.3s7.8-17.5,1.3-24.1c-6.6-6.6-15.6-7.2-24.1,1.3S644.8,282.4,651.4,289z
		 M673.2,267.2c3.9,3.9,4,9.4-2.4,15.8c-6.4,6.4-11.9,6.3-15.8,2.4c-3.9-3.9-4-9.4,2.4-15.8C663.8,263.2,669.3,263.3,673.2,267.2z"
		/>
	<path class="st4" d="M670.4,474.5l-29.3,29.3c-1.4,1.4-1.9,2.7-0.2,4.5c1.8,1.7,3.2,1.1,4.5-0.2l10-10c-0.5,2.1-0.8,6.2,3.9,10.9
		c1.4,1.4,2.9,2.5,4.4,3.1l1.4-5.3c-1.2-0.5-2.3-1.3-3.3-2.3c-4.3-4.3-3.1-10.1,2.4-15.6c2.1-2.1,4.4-3.7,6.7-4.5l2.8-10.9
		C672.5,472.8,671.4,473.5,670.4,474.5z"/>
	<path class="st4" d="M501.9,369.3c1.8,1.7,3.2,1.1,4.5-0.2l10-10c-0.5,2.1-0.8,6.2,3.9,10.9c7.6,7.6,16.6,3.5,22.6-2.5
		c6.2-6.3,10.2-15.5,2.4-23.3c-3.1-3-7.4-4.3-11.1-3.1l1.4-1.4c1.3-1.3,2-2.6,0.2-4.4s-3.1-1.1-4.4,0.2l-29.3,29.3
		C500.7,366.2,500.2,367.5,501.9,369.3z M525.2,349.9c5.1-5.1,11.1-7.1,15.6-2.6c6.4,6.3-0.2,13-2.7,15.5c-7,7.1-11.4,6.6-15.3,2.7
		C518.5,361.2,519.7,355.4,525.2,349.9z"/>
	<path class="st4" d="M559.2,192.8c1.7-1.8,0.7-3.3-0.8-4.8c-2.3-2.3-3.1-4.6,0.1-7.8l13.1-13.1l4,4c1.3,1.3,2.6,2,4.2,0.4
		c1.6-1.6,0.9-2.9-0.4-4.2l-4-4l5.2-5.2c1.3-1.3,1.9-2.7,0.1-4.5c-1.8-1.8-3.1-1.2-4.5,0.2L571,159l-1.6-1.6c-1.3-1.3-2.6-2-4.2-0.4
		c-1.6,1.6-0.9,2.9,0.4,4.2l1.6,1.6l-14.3,14.3c-4.2,4.2-4.2,9.3,0.6,14.1C555.9,193.6,557.7,194.3,559.2,192.8z"/>
	<path class="st4" d="M569.2,206.6c3.7,3.7,7.3,5.3,10.8,5.4c2.4,0.1,4.2-0.6,5.1-1.5c1.4-1.2,0.9-2.9-0.2-4c-0.9-0.9-2-1-3.9-0.7
		c-2.5,0.4-5,0.7-8.2-2.6c-6.2-6.2-1.2-11.9,1.3-14.4l14.7,14.7c1.2,1.2,2.7,1.7,4.5-0.1c7.4-7.4,7.7-15.7,1.2-22.2
		c-8.2-8.2-17.9-4.2-23.9,1.8C560.8,192.8,563.4,200.8,569.2,206.6z M590.9,184.8c4.6,4.6,2.1,9.3-1,12.8l-12.3-12.3
		C581.9,181.8,586.6,180.4,590.9,184.8z"/>
	<path class="st4" d="M715.3,292.8l-5.2,5.2l-1.6-1.6c-1.3-1.3-2.6-2-4.2-0.4c-1.6,1.6-0.9,2.9,0.4,4.2l1.6,1.6L692,316.1
		c-4.2,4.2-4.2,9.3,0.6,14.1c2.4,2.4,4.2,3.1,5.7,1.6c1.7-1.8,0.7-3.3-0.8-4.8c-2.3-2.3-3.1-4.6,0.1-7.8l13.1-13.1l4,4
		c0.4,0.4,0.8,0.7,1.2,0.9l1.5-5.9l-2.9-2.9l4.9-4.9l1-4c-0.2-0.3-0.4-0.5-0.6-0.8C718,290.8,716.7,291.4,715.3,292.8z"/>
	<path class="st4" d="M618.1,639.4l2.5-2.5c1.3-1.3,2-2.6,0.2-4.4c-1.8-1.8-3.1-1.1-4.4,0.2l-20.2,20.2c-1.4,1.4-1.9,2.8-0.2,4.5
		c1.8,1.8,3.2,1.2,4.5-0.1l9.7-9.7c4.7-4.6,8.2-4.7,10.5-4.2c2,0.5,3.3,1.3,4.5,2.1c0.9,0.7,2.3,1.6,3.9,0.3l0.9-3.6
		c-0.3-0.6-0.8-1.1-1.1-1.4C626.3,638.2,621.5,637.9,618.1,639.4z"/>
	<path class="st4" d="M604.6,412.2l4,4c1.3,1.3,2.6,2,4.2,0.4c1.6-1.6,0.9-2.9-0.4-4.2l-4-4l5.2-5.2c1.3-1.3,1.9-2.7,0.1-4.5
		s-3.1-1.2-4.5,0.2l-5.2,5.2l-1.6-1.6c-1.3-1.3-2.6-2-4.2-0.4c-1.6,1.6-0.9,2.9,0.4,4.2l1.6,1.6l-14.3,14.3
		c-4.2,4.2-4.2,9.3,0.6,14.1c2.4,2.4,4.2,3.1,5.7,1.6c1.8-1.8,0.7-3.3-0.8-4.8c-2.3-2.3-3.1-4.6,0.1-7.8L604.6,412.2z"/>
	<path class="st4" d="M619.4,681.4c0.1,0.1,0.2,0.2,0.4,0.4l5.4-20.8l-6.4,6.4C614.6,671.5,614.6,676.6,619.4,681.4z"/>
	<path class="st4" d="M617.8,451.6c-0.9-0.9-2-1-3.9-0.7c-2.6,0.4-5,0.7-8.2-2.6c-6.2-6.2-1.2-11.9,1.3-14.4l14.7,14.7
		c1.2,1.2,2.7,1.7,4.5-0.1c7.4-7.4,7.7-15.7,1.2-22.2c-8.2-8.2-17.9-4.1-23.9,1.8c-9.8,9.8-7.2,17.8-1.4,23.6
		c3.7,3.7,7.3,5.3,10.8,5.4c2.4,0.1,4.2-0.6,5.1-1.5C619.4,454.4,619,452.7,617.8,451.6z M623.9,429.9c4.6,4.6,2.1,9.3-1,12.8
		l-12.3-12.3C614.9,426.9,619.6,425.5,623.9,429.9z"/>
	<path class="st4" d="M570.7,369.6c-6.6-6.6-15.6-7.2-24.1,1.3c-8.5,8.6-7.8,17.6-1.3,24.1c6.6,6.6,15.6,7.2,24.1-1.3
		S577.2,376.2,570.7,369.6z M548.9,391.5c-3.9-3.9-4-9.4,2.4-15.8c6.4-6.4,11.9-6.3,15.8-2.4c3.9,3.9,4,9.4-2.4,15.8
		C558.3,395.5,552.8,395.4,548.9,391.5z"/>
	<path class="st4" d="M696.8,117.1l9.6-9.5c4.6-4.7,8-4.9,10.4-4.4c2.8,0.7,4.1,2.1,5.3,2.9c1,0.7,2.5,1.7,4.2,0
		c2.1-2.2,0-4.2-0.8-5c-2.7-2.8-7.8-3.2-11.1-1.8l2.5-2.5c1.3-1.3,1.9-2.6,0.2-4.4c-1.8-1.8-3.1-1.1-4.4,0.2l-20.2,20.2
		c-1.4,1.4-2,2.7-0.2,4.5C694.1,119,695.5,118.4,696.8,117.1z"/>
	<path class="st4" d="M652.4,452.3c-2.7-2.8-7.8-3.2-11.1-1.8l2.5-2.5c1.3-1.3,1.9-2.6,0.2-4.4c-1.8-1.8-3.1-1.1-4.4,0.2L619.4,464
		c-1.4,1.4-2,2.7-0.2,4.5c1.8,1.7,3.2,1.1,4.5-0.2l9.6-9.5c4.6-4.7,8-4.9,10.4-4.4c2.8,0.7,4.1,2.1,5.3,2.9c1,0.7,2.5,1.7,4.2,0
		C655.3,455.1,653.2,453.1,652.4,452.3z"/>
	<path class="st4" d="M567.6,412.2l9.7-9.6c4.7-4.6,8.2-4.7,10.5-4.2c2,0.5,3.3,1.3,4.5,2.1c1,0.7,2.5,1.7,4.2,0
		c2.1-2.1,0.3-3.9-0.5-4.7c-2.6-2.6-7.5-2.9-10.8-1.4l2.5-2.6c1.3-1.3,2-2.6,0.2-4.4c-1.8-1.8-3.1-1.1-4.4,0.2l-20.2,20.2
		c-1.4,1.4-1.9,2.8-0.2,4.5C564.9,414.1,566.3,413.5,567.6,412.2z"/>
	<path class="st4" d="M90.3,739.1c-0.8,1-1.6,1.9-2.3,2.9l2.4,0C91.1,740.9,90.8,739.9,90.3,739.1z"/>
	<path class="st4" d="M675.2,100.5c3.7,3.7,7.3,5.3,10.8,5.4c2.4,0.1,4.2-0.6,5.1-1.5c1.4-1.2,1-2.9-0.2-4c-0.9-0.9-2-1-3.9-0.7
		c-2.5,0.4-5,0.7-8.2-2.6c-3.3-3.3-3.4-6.5-2.4-9.1h-6.2C669.5,92.9,671.8,97.1,675.2,100.5z"/>
	<path class="st4" d="M292.5,527.6c2.8,0.7,4.1,2.1,5.3,2.9c1,0.7,2.5,1.7,4.2,0c2.1-2.2,0-4.2-0.8-5c-2.7-2.8-7.8-3.2-11.1-1.8
		l2.5-2.5c1.3-1.3,1.9-2.6,0.2-4.4c-1.8-1.8-3.1-1.1-4.4,0.2l-20.2,20.2c-1.4,1.4-2,2.7-0.2,4.5c1.8,1.7,3.2,1.1,4.5-0.2l9.6-9.5
		C286.7,527.3,290.1,527.1,292.5,527.6z"/>
	<path class="st4" d="M333.1,556.4c-3.1-3-7.4-4.3-11.1-3.1l1.4-1.3c1.3-1.3,2-2.6,0.2-4.4s-3.1-1.1-4.4,0.2l-29.3,29.3
		c-1.4,1.4-1.9,2.7-0.2,4.5c1.8,1.7,3.2,1.1,4.5-0.2l10-10.1c-0.5,2.1-0.8,6.2,3.9,10.9c7.6,7.5,16.6,3.5,22.6-2.5
		C336.9,573.4,340.9,564.2,333.1,556.4z M325.9,574.9c-7,7.1-11.4,6.6-15.3,2.7c-4.3-4.3-3.1-10.1,2.4-15.6
		c5.1-5.1,11.1-7.1,15.6-2.6C335,565.8,328.5,572.5,325.9,574.9z"/>
	<path class="st4" d="M563.5,155.3c2.1-2.1,0.3-3.9-0.5-4.7c-0.4-0.4-1-0.8-1.5-1.1c-1.2,1.6-2.5,3.2-3.8,4.8c0.6,0.3,1.1,0.7,1.6,1
		C560.3,156,561.8,157,563.5,155.3z"/>
	<path class="st4" d="M266.9,712.5l2.6-2.5c1.3-1.3,2-2.6,0.2-4.4s-3.1-1.1-4.4,0.2L245.1,726c-1.4,1.4-2,2.8-0.2,4.5
		c1.8,1.8,3.2,1.2,4.5-0.1l9.6-9.7c4.7-4.6,8.2-4.7,10.5-4.2c2,0.5,3.3,1.3,4.5,2.1c1,0.7,2.5,1.7,4.2,0c2.1-2.1,0.3-3.9-0.5-4.7
		C275.1,711.3,270.3,711,266.9,712.5z"/>
	<path class="st4" d="M375.6,610.4c2,0.5,3.3,1.3,4.5,2.1c1,0.7,2.5,1.7,4.2,0c2.1-2.1,0.3-3.9-0.5-4.7c-2.6-2.6-7.4-2.9-10.8-1.4
		l2.5-2.5c1.3-1.3,2-2.6,0.2-4.4s-3.1-1.1-4.4,0.2l-20.2,20.2c-1.4,1.4-1.9,2.8-0.2,4.5c1.8,1.8,3.2,1.2,4.5-0.1l9.7-9.7
		C369.8,610,373.3,609.9,375.6,610.4z"/>
	<path class="st4" d="M453.1,298.9c1.7-1.8,0.7-3.3-0.8-4.8c-2.3-2.3-3.1-4.6,0.1-7.8l13.1-13.1l4,4c1.3,1.3,2.6,2,4.2,0.4
		c1.6-1.6,0.9-2.9-0.4-4.2l-4-4l5.2-5.2c1.3-1.3,1.9-2.7,0.1-4.5c-0.2-0.2-0.5-0.4-0.7-0.6c-9,11.3-18.5,23.2-28.5,35.7
		c0.5,0.8,1.2,1.7,2,2.5C449.8,299.7,451.5,300.4,453.1,298.9z"/>
	<path class="st4" d="M252.5,687.9c-6.6-6.6-15.6-7.2-24.1,1.3c-8.6,8.5-7.9,17.6-1.3,24.1c6.6,6.6,15.6,7.2,24.1-1.3
		S259,694.5,252.5,687.9z M230.6,709.7c-3.9-3.9-4-9.4,2.4-15.8c6.4-6.4,11.9-6.3,15.8-2.4c3.9,3.9,4,9.4-2.4,15.8
		C240.1,713.8,234.6,713.6,230.6,709.7z"/>
	<path class="st4" d="M480.2,329.5c1.8,1.7,3.2,1.1,4.5-0.2l9.5-9.5c4.6-4.7,8-4.9,10.4-4.4c2.8,0.7,4.1,2.1,5.3,2.9
		c1,0.7,2.5,1.7,4.2,0c2.1-2.2,0-4.2-0.8-5c-2.7-2.8-7.8-3.2-11.1-1.8l2.6-2.5c1.3-1.3,1.9-2.6,0.2-4.4c-1.8-1.8-3.1-1.1-4.4,0.2
		L480.4,325C479,326.4,478.4,327.7,480.2,329.5z"/>
	<path class="st4" d="M358.5,581.8c-6.6-6.6-15.6-7.2-24.1,1.3c-8.5,8.5-7.8,17.6-1.3,24.1c6.6,6.6,15.6,7.2,24.1-1.3
		S365,588.4,358.5,581.8z M336.7,603.6c-3.9-3.9-4-9.4,2.4-15.8c6.4-6.4,11.9-6.3,15.8-2.4c3.9,3.9,4,9.4-2.4,15.8
		C346.1,607.7,340.6,607.6,336.7,603.6z"/>
	<path class="st4" d="M379.3,637.5l13.1-13.1l4,4c1.3,1.3,2.6,2,4.2,0.4c1.6-1.6,0.9-2.9-0.4-4.2l-4-4l5.2-5.2
		c1.3-1.3,1.9-2.7,0.1-4.5s-3.1-1.2-4.5,0.2l-5.2,5.2l-1.6-1.6c-1.3-1.3-2.6-2-4.2-0.4c-1.6,1.6-0.9,2.9,0.4,4.2l1.6,1.6l-14.3,14.3
		c-4.2,4.2-4.2,9.3,0.6,14.1c2.4,2.4,4.1,3.1,5.7,1.6c1.7-1.8,0.7-3.3-0.8-4.8C376.9,643,376.1,640.7,379.3,637.5z"/>
	<path class="st4" d="M746.3,128.9l1.4-1.4c1.3-1.3,2-2.6,0.2-4.4c-1.8-1.8-3.1-1.1-4.4,0.2l-29.3,29.3c-1.4,1.4-2,2.7-0.2,4.5
		c1.8,1.7,3.2,1.1,4.5-0.2l10-10c-0.5,2.1-0.8,6.2,3.9,10.9c7.6,7.6,16.4,3.7,22.6-2.5c0.6-0.6,1.2-1.2,1.7-1.9l4.2-16.2
		c-0.7-1.8-1.8-3.5-3.5-5.2C754.3,129,750,127.7,746.3,128.9z M750.2,150.6c-7,7.1-11.4,6.6-15.3,2.7c-4.3-4.3-3.1-10.1,2.4-15.6
		c5.1-5.1,11.1-7.1,15.6-2.6C759.3,141.5,752.8,148.2,750.2,150.6z"/>
	<path class="st4" d="M291.3,742l14.6,0C300.9,739,295.7,739.6,291.3,742z"/>
	<path class="st4" d="M473.9,318.1c2.4,0.1,4.2-0.6,5.1-1.5c1.4-1.2,0.9-2.9-0.2-4c-0.9-0.9-2-1-3.9-0.7c-2.6,0.4-5,0.7-8.2-2.6
		c-6.2-6.2-1.2-11.9,1.3-14.4l14.7,14.7c1.2,1.2,2.7,1.7,4.5-0.1c7.4-7.4,7.7-15.7,1.2-22.2c-8.2-8.2-17.9-4.2-23.9,1.8
		c-9.8,9.8-7.2,17.8-1.4,23.6C466.8,316.4,470.4,318,473.9,318.1z M484.9,290.9c4.6,4.6,2.1,9.3-1,12.8l-12.3-12.3
		C475.9,287.9,480.6,286.5,484.9,290.9z"/>
	<path class="st4" d="M481.8,493.5c-1.8-1.8-3.1-1.1-4.4,0.2l-20.2,20.2c-1.4,1.4-1.9,2.8-0.2,4.5c1.8,1.8,3.2,1.2,4.5-0.1l9.7-9.7
		c4.7-4.6,8.2-4.7,10.5-4.2c2,0.5,3.3,1.3,4.5,2.1c1,0.7,2.5,1.7,4.2,0c2.1-2.1,0.3-3.9-0.5-4.7c-2.6-2.6-7.4-2.9-10.8-1.4l2.5-2.5
		C482.9,496.6,483.6,495.3,481.8,493.5z"/>
	<path class="st4" d="M439.2,501.2c6.6,6.6,15.6,7.2,24.1-1.3s7.8-17.5,1.3-24.1c-6.6-6.6-15.6-7.2-24.1,1.3
		S432.7,494.6,439.2,501.2z M461,479.4c3.9,3.9,4,9.4-2.4,15.8c-6.4,6.4-11.9,6.3-15.8,2.4c-3.9-3.9-4-9.4,2.4-15.8
		C451.6,475.4,457.1,475.5,461,479.4z"/>
	<path class="st4" d="M699.3,97.3c3-3,4.8-6.2,5.5-9.3h-6.3c-0.6,1.3-1.5,2.4-2.5,3.5l-3.5-3.5h-7.1l9.4,9.4
		C696,98.6,697.5,99.1,699.3,97.3z"/>
	<path class="st4" d="M227,662.4c-3.1-3-7.4-4.3-11.1-3.1l1.4-1.3c1.3-1.3,2-2.6,0.2-4.4s-3.1-1.1-4.4,0.2l-29.3,29.3
		c-1.4,1.4-2,2.7-0.2,4.5c1.8,1.7,3.2,1.1,4.5-0.2l10-10.1c-0.5,2.1-0.8,6.2,3.9,10.9c7.6,7.5,16.6,3.5,22.6-2.5
		C230.8,679.4,234.8,670.2,227,662.4z M219.8,681c-7,7.1-11.4,6.6-15.3,2.7c-4.3-4.3-3.1-10.1,2.4-15.6c5.1-5.1,11.1-7.1,15.6-2.6
		C228.9,671.9,222.4,678.6,219.8,681z"/>
	<path class="st4" d="M378.6,435.4l9.5-9.5c4.6-4.7,8-4.9,10.4-4.4c2.8,0.7,4.1,2.1,5.3,2.9c1,0.7,2.5,1.7,4.2,0
		c2.1-2.2,0-4.2-0.8-5c-2.7-2.8-7.8-3.2-11.1-1.8l2.6-2.5c1.3-1.3,1.9-2.6,0.2-4.4c-1.8-1.8-3.1-1.1-4.4,0.2l-20.2,20.2
		c-1.4,1.4-2,2.7-0.2,4.5C375.9,437.3,377.3,436.7,378.6,435.4z"/>
	<path class="st4" d="M395.8,475.5c1.8,1.7,3.2,1.1,4.5-0.2l10-10.1c-0.5,2.1-0.8,6.2,3.9,10.9c7.6,7.5,16.6,3.5,22.6-2.5
		c6.2-6.3,10.2-15.5,2.4-23.3c-3.1-3-7.4-4.3-11.1-3.1l1.4-1.3c1.3-1.3,2-2.6,0.2-4.4s-3.1-1.1-4.4,0.2L396,471
		C394.6,472.4,394.1,473.7,395.8,475.5z M419.1,456c5.1-5.2,11.1-7.1,15.6-2.6c6.4,6.3-0.2,13-2.7,15.5c-7,7.1-11.4,6.6-15.3,2.7
		C412.4,467.3,413.6,461.5,419.1,456z"/>
</g>
<path class="st5" d="M748.3,88c10.9,0,19.7,8.8,19.7,19.6c0,1.2-0.1,2.3-0.3,3.4L609.6,721c-2.8,6.5-13.3,20.4-34.3,20.9l-0.6,0
	L88,742c338-422.9,507.8-635.4,509.4-637.5c7.3-9,19.8-16.4,32.4-16.5H748.3z"/>
</svg>
