<svg>
    <defs>
        <linearGradient x1="69.5164081%" y1="19.6260574%" x2="23.4360929%" y2="114.457615%" id="linearGradient-1">
            <stop stop-color="#D2068A" offset="0%"></stop>
            <stop stop-color="#413691" offset="46.7545127%"></stop>
            <stop stop-color="#413691" offset="100%"></stop>
        </linearGradient>
        <path d="M659.5555,1 C670.3635,1 679.1255,9.764 679.1255,20.575 C679.1255,21.731 679.025,22.864 678.833,23.965 L521.3915,631.934 C518.5705,638.453 508.106,652.3145 487.193,652.75 L486.556,652.759 L2,652.838 C338.535,231.2945 507.627,19.5075 509.275,17.477 C516.5705,8.4935 528.951,1.148 541.5525,1 L659.5555,1 Z" id="path-2"></path>
    </defs>
    <g id="HAWAIIAN-AIRLINES" stroke="none" stroke-width="1" fill="none" fill-rule="evenodd">
        <g id="Mask-Raw" transform="translate(88.000000, 88.000000)">
            <path d="M659.5555,0.25 L541.5525,0.25 C529.417951,0.392464104 516.653519,7.20156168 508.692801,17.0041958 L504.143997,22.693252 L408.78043,142.119216 L0.441350848,653.588254 L486.556122,653.509 L487.203595,653.499925 C496.850749,653.299046 504.993321,650.296167 511.536706,645.215715 C516.398031,641.441257 520.090369,636.67697 521.967184,632.487618 L522.102948,632.178405 L679.55905,24.1530201 L679.57185,24.0938457 C679.773302,22.9386432 679.8755,21.7624542 679.8755,20.575 C679.8755,9.34991032 670.777837,0.25 659.5555,0.25 Z M541.561308,1.74994828 L659.5555,1.74994828 C669.949327,1.74994828 678.3755,10.1782545 678.3755,20.575 L678.3755,20.9873085 C678.353341,21.8108328 678.282538,22.6275948 678.159826,23.4338938 L678.099,23.806 L520.6795,631.689 L520.703183,631.636141 C518.963128,635.657204 515.375715,640.335962 510.616794,644.03091 C504.32299,648.917581 496.490164,651.80623 487.177385,652.000163 L486.545405,652.009075 L3.558,652.0875 L468.817257,69.3318426 L505.306926,23.640727 L509.555328,18.3259168 L509.857335,17.9496367 C517.549486,8.47771051 529.904809,1.88684959 541.561308,1.74994828 Z" id="BG" fill="#413691" fill-rule="nonzero"></path>
            <mask id="mask-3" fill="white">
                <use xlink:href="#path-2"></use>
            </mask>
            <use id="FG" fill="url(#linearGradient-1)" fill-rule="nonzero" xlink:href="#path-2"></use>
            <g id="HAWAIIAN" mask="url(#mask-3)">
                <g transform="translate(458.000000, 414.000000) scale(-1, 1) rotate(-180.000000) translate(-458.000000, -414.000000) translate(275.000000, 175.000000)">
                    <path d="M186.349505,291.555026 C178.04243,265.437623 175.124692,240.788596 177.855052,211.895603 C177.855052,211.859789 177.855052,211.815022 177.863975,211.770254 C177.872898,211.70758 177.88182,211.626998 177.88182,211.55537 C179.541451,194.248225 183.208699,175.427937 188.954947,153.849966 L188.954947,153.849966 C193.603697,136.345844 195.111641,118.922304 194.495971,102.223998 C190.480736,59.3277078 164.506625,27.0681933 133.312709,9 C133.294863,9.00895351 133.285941,9.01790703 133.268095,9.02686054 C133.285941,9.01790703 133.294863,9.00895351 133.312709,9.00895351 L133.312709,9.00895351 C135.561241,28.2948248 134.865267,51.3143119 129.797147,79.4373025 C123.185393,116.128807 109.399752,128.26082 107.445671,130.714083 C107.320753,130.866293 107.186912,131.000595 107.249371,131.170712 C107.285062,131.296061 107.650894,131.457225 107.76689,131.537806 C119.277231,138.763293 129.342087,147.501924 134.06222,151.531005 C137.684854,154.619968 136.257215,156.007763 132.643503,154.342409 C122.989093,149.901466 106.865693,144.233891 86.4415295,141.691092 C68.4889665,139.470621 47.2082197,139.739226 24.0536964,144.233891 C24.0536964,144.233891 7.83214598,146.642386 10.2234416,163.206389 C10.8837248,167.84431 13.2125612,172.598626 15.0684922,177.209686 C15.6573934,178.669109 17.209951,183.15482 16.371213,186.789947 C16.1570671,187.703206 15.006033,189.377513 14.3368271,190.416121 C13.1411793,192.251591 12.7039648,194.785436 13.9442263,197.740096 C15.006033,200.24708 19.2711051,203.918022 25.2761125,204.5 C32.1109351,205.144653 40.5518519,204.150813 47.0119193,205.296863 C56.4254153,206.980124 62.0467446,213.372933 60.9314015,215.468056 C60.1908137,216.864804 51.8034334,215.17259 48.948155,214.599565 C44.7455421,213.757935 37.1076723,217.16027 33.1102826,218.467483 C26.9000521,220.499931 23.6700184,222.120518 18.2985259,219.819464 C14.9435738,218.377948 12.3024412,211.600137 11.365553,214.751775 C10.9283385,216.211198 11.7581538,217.804923 12.9181106,219.523998 C14.0066855,221.144584 16.1927581,224.197733 16.4961314,225.925761 C16.8351957,227.886581 17.2991784,230.662171 11.891995,234.512182 C8.05521461,237.225097 5.42300483,239.436616 3.79906524,241.093016 C-1.38504961,246.348729 -2.28624685,251.783513 7.65369108,260.262491 C14.7561961,266.332975 30.4334591,282.574651 35.1982049,292.495145 C35.9566382,294.053057 39.7398821,300.257843 35.5818829,306.471582 C32.3786175,311.252759 31.7986391,312.174971 30.959901,313.804511 C28.6578328,318.263362 30.3085406,322.220815 34.0917845,328.165949 C35.9387927,331.066888 37.3842774,334.585619 41.3370535,346.995191 C45.727044,360.792558 52.8206263,373.014106 62.5018046,383.427044 L62.4750364,383.409137 L62.5107274,383.435997 C63.2423925,384.062743 74.2709053,396.320105 86.7449028,400 C89.8143271,394.977078 96.1762443,388.118686 108.953615,381.564713 C121.998668,374.867483 136.364288,371.142821 136.364288,371.142821 C136.364288,371.142821 154.28116,365.985597 172.430023,359.458484 C186.911638,354.265445 202,335.418296 202,331.523517 C202,323.483261 194.130139,315.980215 186.349505,291.555026" id="path634" fill="#FFFFFF" fill-rule="nonzero"></path>
                    <path d="M101.739506,339.883485 C100.698405,340.215036 73.172056,346.59029 64.0444731,345.955607 C54.9258653,345.339869 47.0637585,339.722446 42.2621293,333.934511 C39.6593771,330.798985 38.4836511,327.625567 38.0349007,324.944739 C37.6310253,320.293551 40.7902281,318.095841 44.5148563,319.346262 C47.2342836,320.265132 49.2267354,322.311276 52.0359128,326.716169 C53.7591143,329.425416 54.8002152,332.864074 57.4568175,334.644977 C61.8455962,337.5721 69.3846027,338.310985 81.6983134,337.969961 C91.1130965,337.704721 98.714928,337.21213 100.572755,337.126874 C104.001208,336.965835 103.220382,339.400368 101.739506,339.883485" id="path668" fill="#413691" fill-rule="nonzero"></path>
                    <path d="M85.7031751,313.981545 C80.7018077,316.976153 73.9722191,316.808313 72.6542322,317.055655 C71.3362453,317.302998 71.083122,318.654546 73.0644665,319.626248 C75.7702674,320.960129 80.8414619,319.847089 81.0247581,320.712787 C81.1905975,321.463647 80.03845,323.38055 76.1805017,324.864603 C74.1031449,325.677299 70.1491843,326.216152 67.2862724,325.915808 C59.0641291,325.041276 54.6824774,319.864757 53.7572681,318.910722 C52.8320587,317.965522 51.4355163,316.53447 51.0776524,314.343725 C50.5975909,311.446287 52.4305528,309.211373 54.1762308,306.340437 C55.0665265,304.891718 55.8520816,303.83168 56.1401185,302.736307 C56.5503528,301.172751 56.2797727,300.536728 54.9966994,299.520858 C53.5565151,298.381317 54.4031689,296.376078 57.3009944,297.188774 C60.5741406,298.125141 62.3634605,299.061508 64.8335948,301.172751 C68.3598644,304.167359 68.2987656,306.093094 70.7601716,308.584184 C73.2215775,311.075274 80.9723878,311.057606 84.9612619,310.492253 C89.6484073,309.829729 90.7132709,310.995771 85.7031751,313.981545" id="path672" fill="#413691" fill-rule="nonzero"></path>
                    <path d="M339.974235,275.409609 C339.884846,284.727277 337.265758,303.326846 336.845632,307.404443 C335.710396,318.67149 333.010858,334.346992 324.358035,356.004759 C314.918592,379.602961 307.2848,396.253152 284.18677,419.046566 C256.97686,445.890751 224.913146,457.014724 217.172088,459.321786 C216.027913,459.670528 215.384315,459.831485 215.312804,459.84937 C215.312804,459.84937 215.294926,459.858312 215.294926,459.858312 C200.670941,463.774952 188.379999,464.794351 175.481215,464.982135 C129.39242,465.670677 95.5766883,446.302088 83.7058737,433.505942 C78.1727154,427.541561 74.1323478,421.416223 71.1110109,415.630684 C61.8235287,400.768913 60.670415,384.825148 60,382.795291 L60.0268166,382.822118 C60.7508648,383.448065 71.8082425,395.6898 84.3047778,399.365003 C87.3797478,394.348485 93.7531596,387.498836 106.553616,380.953219 C119.622239,374.264528 134.004875,370.553556 134.004875,370.553556 C134.004875,370.553556 151.963058,365.393964 170.144712,358.884115 C184.652492,353.688755 199.768115,334.865634 199.768115,330.984762 C199.768115,322.954756 191.884035,315.461276 184.089344,291.058284 C175.75832,264.974177 172.84425,240.356575 175.570604,211.500418 C175.579543,211.464649 175.579543,211.419939 175.588482,211.38417 C175.59742,211.312633 175.59742,211.232155 175.606359,211.160618 C177.268988,193.88448 180.942863,175.079243 186.690554,153.528781 L186.699493,153.528781 C191.356642,136.046975 192.86731,118.645648 192.250529,101.968631 C188.2191,59.1270282 162.206999,26.9086407 130.956722,8.8634823 C130.938844,8.8724244 130.929905,8.8903086 130.912027,8.8992507 C130.912027,8.8813665 130.912027,8.8634823 130.912027,8.8455981 C124.97662,5.42971578 118.862435,2.50564897 112.667801,0.127050288 C113.570626,0.100223987 123.823506,-0.0160233167 124.905109,-5.40012479e-13 C151.149621,0.305892295 188.290611,5.37606317 220.104036,38.7479816 C231.089903,50.2654068 239.698031,62.3104159 245.132862,73.6668833 C247.35864,78.4151386 256.8249,95.2709977 262.17928,128.732337 C262.885451,133.203387 265.245312,147.582285 265.245312,147.582285 C265.245312,147.582285 266.729163,137.34358 266.91688,128.204753 C267.158229,115.667928 267.62305,99.9119477 260.176974,76.0186557 C262.706674,76.5730659 275.104881,85.8102555 289.791439,105.697487 C295.163698,112.958472 300.106891,120.541373 304.629957,128.365711 C325.725682,161.406772 340.707222,200.778839 339.974235,275.409609" id="path676" fill="#413691" fill-rule="nonzero"></path>
                    <path d="M227.886426,349.29538 C227.743717,347.879184 228.234277,347.353677 229.536492,348.395784 C235.235912,352.982834 244.699269,360.001467 257.587629,362.308352 C273.000145,365.060583 281.732121,372.578001 285.754716,381.084085 C288.154002,386.196642 290.107325,395.388557 297.60844,400.893018 C299.998807,402.647676 297.563843,403.271158 295.574844,402.905976 C293.701795,402.567514 283.515977,399.82419 276.888951,392.573979 C272.473908,397.294632 272.795002,403.769944 273.419351,407.519747 C273.704768,408.633109 272.830679,409.434729 271.350078,408.223391 C266.301766,404.161848 262.930278,398.782084 261.833206,394.898678 C261.833206,394.898678 257.810611,397.784512 259.879884,405.04363 C260.227736,406.254968 259.389324,405.800716 258.952279,405.497882 C251.700904,400.207187 252.325254,392.306772 252.262819,391.237944 C252.262819,391.237944 244.940089,395.290581 233.728554,396.831474 C231.784151,404.286544 219.823396,406.246061 217.861154,398.603946 C216.086218,391.674382 227.627766,386.401501 232.533371,392.155355 C232.533371,392.155355 248.338335,390.498672 262.377282,376.470314 C263.804367,375.045211 264.26817,373.905128 263.385161,373.085694 C262.734054,372.480025 260.709377,373.718084 258.238736,375.4193 C255.455921,377.352096 236.332984,389.652517 219.796638,381.199875 C218.958226,380.772344 218.895791,380.050885 219.680688,379.872748 C222.802436,378.964244 229.750555,376.56829 231.507653,372.025774 C227.09261,370.876784 220.01962,368.186902 214.94455,357.748023 C213.624496,355.040327 215.336998,354.666237 216.773002,355.770692 C218.494423,357.071099 228.814031,362.709163 232.676079,362.308352 C232.676079,362.308352 229.179721,357.195795 227.886426,349.29538 M359.749065,427.969976 C359.097958,422.688188 360.739105,407.822581 364.806297,393.981268 C369.078633,379.365055 361.488325,366.458965 348.332387,358.879198 C344.211679,365.256534 335.907829,368.445202 328.522665,368.712409 C324.196814,368.872733 325.383078,367.118075 327.514786,366.227386 C358.134676,353.419272 347.333427,317.773882 343.382186,310.203022 C339.341752,302.471838 340.305034,292.264537 340.305034,292.264537 C330.788162,295.043488 322.056187,293.208668 314.376686,291.99733 C299.169314,289.583562 289.037011,292.282351 281.12561,295.89855 C274.837517,298.775477 264.946035,305.313137 263.438677,317.800602 C263.15326,320.080767 261.681579,321.657288 260.780731,317.426513 C259.246615,310.203022 260.316929,301.385197 265.499031,295.836202 C259.835288,268.002157 205.15118,270.032929 205.15118,270.032929 C201.521033,282.048329 176.662999,285.700156 171.043852,303.166575 C168.376987,311.449987 170.562211,320.098581 170.562211,320.098581 C184.859817,316.66052 193.13691,323.536642 197.774935,329.299403 C200.477477,332.666209 198.319011,332.817626 196.392447,331.588475 C178.277389,320.160929 161.428868,331.579568 157.905752,347.692139 C153.205292,365.318883 136,371.20634 136,371.20634 C148.531589,379.088941 144.999554,392.707582 151.528467,404.233103 C168.71592,434.605612 193.163667,425.511673 193.163667,425.511673 C195.527277,418.305996 202.734055,413.095463 209.815964,410.957808 C213.94559,409.710843 213.294483,411.759428 211.421434,413.104369 C194.055595,425.591835 198.345769,445.48093 212.019026,454.761913 C235.869181,470.981367 239.954212,478 239.954212,478 C244.333578,474.686635 255.946481,471.809709 268.174815,470.731974 C295.557005,468.300392 302.005645,454.058269 302.55864,448.625063 C299.329861,446.923846 293.817745,441.802382 291.248993,433.625854 C289.964616,429.510868 292.033889,430.152165 293.398539,432.004799 C304.057079,446.585384 317.18626,443.842061 329.503786,438.203997 C337.281398,434.632333 348.555369,425.547301 359.749065,427.969976" id="path680" fill="#EF3138" fill-rule="nonzero"></path>
                    <path d="M7.06246766,254.330095 C6.79151256,253.651375 7.4418048,253.307608 8.24563827,252.928582 L8.24563827,252.928582 C12.1112644,251.174488 13.899568,250.275405 20.8450505,246.2119 L20.8450505,246.2119 C28.9646717,241.460862 32.4961198,245.392148 34.2302325,248.424351 L34.2302325,248.424351 C34.7179516,249.244103 35.4404986,252.611259 34.645697,253.801222 L34.645697,253.801222 C33.8508953,254.991185 32.3606423,254.22432 30.7891027,252.725848 L30.7891027,252.725848 C29.0188627,251.04227 24.7016447,251.950168 23.2565509,252.100015 L23.2565509,252.100015 C21.8295207,252.258677 15.2001525,253.889368 10.8829346,254.770822 L10.8829346,254.770822 C10.0791011,254.938298 9.41977704,255 8.87786684,255 L8.87786684,255 C7.77598276,255 7.20697705,254.70912 7.06246766,254.330095" id="path656-path" fill="#4F3190" fill-rule="evenodd" transform="translate(21.000000, 249.500000) scale(-1, -1) rotate(-180.000000) translate(-21.000000, -249.500000) "></path>
                </g>
            </g>
        </g>
    </g>
</svg>
