<svg>
    <path fill-rule="evenodd" clip-rule="evenodd" d="M748.347 88.0872C759.201 88.0872 768 96.8802 768 107.727C768 108.887 767.899 110.024 767.706 111.128L609.596 721.114C606.763 727.654 596.254 741.562 575.253 741.999L574.613 742.008L88 742.087C425.964 319.146 595.773 106.656 597.428 104.619C604.755 95.6055 617.188 88.2356 629.843 88.0872H748.347Z" fill="white" stroke="black"/>
    <path d="M493.667 429.129L493.667 429.129L493.6 429.196C481.668 441.128 465.222 448.51 446.995 448.543H370.095L483.016 335.688L483.016 335.688C484.792 333.912 486.703 332.264 488.653 330.711L488.653 330.711C495.672 325.109 503.876 320.924 512.805 318.551C512.808 318.55 512.81 318.549 512.812 318.549L513.645 318.353L514.492 318.154L514.499 318.152C514.558 318.137 514.626 318.122 514.702 318.105L514.705 318.105C514.775 318.089 514.852 318.072 514.923 318.054C517.789 317.429 520.722 316.967 523.59 316.671C523.591 316.67 523.593 316.67 523.595 316.67L524.183 316.621L524.78 316.571L524.791 316.57L524.801 316.569C525.287 316.508 525.804 316.476 526.313 316.444L526.396 316.439C527.482 316.374 528.601 316.341 529.72 316.341H574.42H607.696H619.849C607.002 320.399 596.38 327.249 587.101 335.729L587.092 335.737L587.084 335.745L493.667 429.129Z" fill="#96694C" stroke="black"/>
    <path d="M356.592 581.712C370.176 577.422 381.2 570.19 390.216 561.823L390.223 561.817L390.229 561.81L483.116 468.924L483.182 468.858C495.114 456.959 511.593 449.576 529.821 449.51H606.72L493.8 562.365L493.8 562.365C492.022 564.143 490.144 565.79 488.166 567.339L488.162 567.342C481.144 572.943 472.94 577.129 464.011 579.502C464.008 579.503 464.006 579.503 464.003 579.504L463.171 579.7L462.332 579.897C462.16 579.932 462.021 579.966 461.893 579.998C459.026 580.624 456.094 581.085 453.226 581.382C453.224 581.382 453.223 581.383 453.221 581.383L452.633 581.432L452.035 581.481L452.027 581.482L452.018 581.483C451.501 581.544 450.983 581.576 450.476 581.608L450.386 581.613C449.301 581.679 448.182 581.712 447.062 581.712H402.495H369.054H356.592Z" fill="#85754E" stroke="black"/>
    <path d="M646.541 389.291L646.541 389.291L646.545 389.304C646.893 390.258 647.751 391.681 648.802 393.241C649.864 394.815 651.154 396.574 652.4 398.215C653.458 399.609 654.486 400.92 655.32 401.966L642.165 393.79L642.115 393.759L642.059 393.74C642.054 393.738 642.049 393.736 642.043 393.734C641.954 393.705 641.786 393.648 641.602 393.648C641.071 393.648 640.612 393.939 640.367 394.378H640.264L640.182 394.778C638.566 402.659 637.228 413.881 636.289 423.143C635.888 427.11 635.559 430.721 635.313 433.562C635.079 430.721 634.764 427.11 634.374 423.145C633.465 413.882 632.152 402.66 630.535 394.778L630.453 394.378H630.346C630.114 393.966 629.685 393.648 629.115 393.648C628.932 393.648 628.763 393.705 628.675 393.734C628.669 393.736 628.664 393.738 628.658 393.74L628.604 393.758L628.554 393.789L615.271 401.976C616.118 400.932 617.167 399.622 618.244 398.232C619.505 396.605 620.809 394.863 621.878 393.305C622.929 391.774 623.786 390.372 624.132 389.423C624.193 389.286 624.236 389.094 624.236 388.934C624.236 388.276 623.823 387.767 623.275 387.567L623.263 387.563L623.251 387.559C618.008 385.951 607.953 384.369 599.249 383.191C595.071 382.626 591.192 382.153 588.285 381.812C591.205 381.564 595.102 381.21 599.297 380.764C608.028 379.835 618.116 378.503 623.351 376.892L623.363 376.888L623.375 376.884C623.933 376.681 624.335 376.132 624.335 375.517C624.335 375.303 624.28 375.138 624.246 375.037L624.243 375.027L624.243 375.027L624.239 375.017C623.901 374.072 623.033 372.603 621.963 370.972C620.882 369.324 619.563 367.463 618.286 365.716C617.218 364.255 616.177 362.871 615.329 361.755L628.431 370.913L628.49 370.954L628.559 370.977C628.564 370.979 628.569 370.981 628.575 370.983C628.664 371.012 628.832 371.069 629.016 371.069C629.547 371.069 630.006 370.778 630.251 370.339H630.354L630.436 369.939C632.052 362.058 633.374 350.843 634.296 341.59C634.69 337.627 635.012 334.02 635.252 331.182C635.491 334.02 635.814 337.627 636.21 341.59C637.136 350.844 638.467 362.058 640.083 369.939L640.165 370.339H640.275C640.517 370.755 640.965 371.069 641.503 371.069C641.686 371.069 641.855 371.012 641.943 370.983C641.949 370.981 641.954 370.979 641.96 370.977L642.028 370.954L642.088 370.913L655.318 361.665C654.462 362.825 653.394 364.289 652.295 365.838C651.035 367.614 649.732 369.503 648.664 371.173C647.607 372.826 646.749 374.308 646.412 375.249L646.412 375.249L646.408 375.26C646.37 375.373 646.316 375.568 646.316 375.75C646.316 376.407 646.728 376.917 647.276 377.116L647.288 377.121L647.3 377.125C652.554 378.736 662.618 380.018 671.32 380.897C675.347 381.303 679.096 381.625 681.966 381.853C679.106 382.175 675.371 382.616 671.359 383.141C662.684 384.278 652.661 385.818 647.433 387.427L647.421 387.43L647.409 387.435C646.851 387.637 646.449 388.187 646.449 388.801C646.449 389.016 646.504 389.18 646.538 389.281L646.541 389.291Z" fill="#96694C" stroke="black"/>
    <mask id="mask0_1716_1510" style="mask-type:alpha" maskUnits="userSpaceOnUse" x="86" y="87" width="683" height="656">
        <path fill-rule="evenodd" clip-rule="evenodd" d="M748.347 88.0872C759.201 88.0872 768 96.8802 768 107.727C768 108.887 767.899 110.024 767.706 111.128L609.596 721.114C606.763 727.654 596.254 741.562 575.253 741.999L574.613 742.008L88 742.087C425.964 319.146 595.773 106.656 597.428 104.619C604.755 95.6055 617.188 88.2356 629.843 88.0872H748.347Z" fill="white" stroke="black"/>
    </mask>
    <g mask="url(#mask0_1716_1510)">
        <path d="M856.083 839.405C708.18 856.382 237.364 974.536 163.191 975.401L793.409 333.106L856.083 839.405Z" fill="#85754E" stroke="black"/>
    </g>
</svg>
