<svg width="856" height="830" xmlns="http://www.w3.org/2000/svg" xmlns:xlink="http://www.w3.org/1999/xlink"><title>JAL</title><defs><path d="M659.556 1c10.808 0 19.57 8.764 19.57 19.575 0 1.156-.101 2.289-.293 3.39L521.391 631.934c-2.82 6.519-13.285 20.38-34.198 20.816l-.637.009L2 652.838C338.535 231.295 507.627 19.508 509.275 17.477 516.571 8.493 528.951 1.148 541.553 1h118.003z" id="a"/></defs><g transform="translate(88 88)" fill="none" fill-rule="evenodd"><path d="M659.556.25H541.552c-12.134.142-24.898 6.952-32.86 16.754l-4.548 5.69-95.364 119.425L.441 653.59l486.115-.08.648-.01c9.647-.2 17.79-3.203 24.333-8.283 4.861-3.775 8.553-8.539 10.43-12.728l.136-.31L679.559 24.153l.013-.06c.201-1.154.303-2.33.303-3.518 0-11.225-9.097-20.325-20.32-20.325zM541.56 1.75h117.995c10.393 0 18.82 8.428 18.82 18.825v.412c-.023.824-.093 1.64-.216 2.447l-.061.372-157.42 607.883.024-.053c-1.74 4.021-5.327 8.7-10.086 12.395-6.294 4.887-14.127 7.775-23.44 7.97l-.632.008-482.987.078 465.26-582.755 36.489-45.691 4.248-5.315.302-.376c7.692-9.472 20.048-16.063 31.704-16.2z" fill="#000" fill-rule="nonzero"/><mask id="b" fill="#fff"><use xlink:href="#a"/></mask><use fill="#FFF" xlink:href="#a"/><g mask="url(#b)"><path d="M330.494 341.097c0-48.328 39.178-87.507 87.506-87.507s87.505 39.179 87.505 87.507c0 18.425-5.7 35.517-15.424 49.618l-.152-.053c-51.743 66.266-131.625-12.406-18.155-76.554-6.052-3.934-19.366-25.115-34.495-25.115-9.683 0-20.576 6.354-22.997 11.8l-68.687 6.96 73.831 3.934c7.867.605 12.104 4.236 12.104 10.59 0 6.355-10.288 13.617-17.248 19.063-6.157 4.819-41.908 34.98-37.293 77.07.601 5.486 1.88 11.173 4.009 17.035-4.567-4.06-7.809-11.146-9.729-20.357a87.915 87.915 0 01-8.355-6.003c-19.777-16.044-32.42-40.538-32.42-67.988zm221.54 60.05c.632-5.295.966-10.682.966-16.147 0-4.737-.247-9.416-.723-14.027-7.01 19.919-20.585 36.117-37.683 46.637 18.41-15.63 31.305-37.801 34.875-63.402a134.077 134.077 0 00-12.084-32.271c.199 4.328.133 8.717-.22 13.149-2.278 28.618-15.944 53.546-36.13 70.617 18.941-18.584 30.639-44.512 30.483-73.142a101.872 101.872 0 00-3.43-25.719C503.62 272.44 463.43 250 418 250c-45.43 0-85.62 22.44-110.087 56.842a101.845 101.845 0 00-3.43 25.719c-.157 28.63 11.54 54.558 30.482 73.142-20.186-17.07-33.852-41.999-36.13-70.617a104.907 104.907 0 01-.22-13.15 134.077 134.077 0 00-12.084 32.272c3.57 25.6 16.465 47.772 34.875 63.402-17.098-10.52-30.673-26.719-37.683-46.638A136.513 136.513 0 00283 385c0 5.465.333 10.852.965 16.147a101.776 101.776 0 0027.079 33.848 95.872 95.872 0 01-24.56-19.393C300.349 475.42 353.968 520 418 520c64.033 0 117.652-44.58 131.515-104.398a95.846 95.846 0 01-24.559 19.393 101.774 101.774 0 0027.079-33.848z" fill="#CF0012"/><path d="M359.038 476.163c3.357.846 5.43.698 9.236.698 2.778 0 7.545-2.808 9.765-8.923L386.73 446H404l-7.888 21.693c-3.437 9.463-8.047 18.307-26.325 18.307-5.015 0-13.787-.84-13.787-.84l3.038-8.997M430.063 468.983l.386-11.17-9.875 11.17h9.49zM422.571 445h23.165L450 484h-18.328l-.664-6.482h-17.37L408.342 484H389l33.571-39zM468.937 445H487.4l-9.933 30.714H500L497.212 484H455l13.937-39" fill="#FFFFFE"/></g></g></svg>