<svg>
    <defs>
        <path d="M659.5555,1 C670.3635,1 679.1255,9.764 679.1255,20.575 C679.1255,21.731 679.025,22.864 678.833,23.965 L521.3915,631.934 C518.5705,638.453 508.106,652.3145 487.193,652.75 L486.556,652.759 L2,652.838 C338.535,231.2945 507.627,19.5075 509.275,17.477 C516.5705,8.4935 528.951,1.148 541.5525,1 L659.5555,1 Z" id="path-1"></path>
        <polygon id="path-3" points="3.97553517e-05 0 260 0 260 259.999841 3.97553517e-05 259.999841"></polygon>
    </defs>
    <g id="KOREAN-AIRLINES" stroke="none" stroke-width="1" fill="none" fill-rule="evenodd">
        <g id="Mask-Raw" transform="translate(88.000000, 88.000000)">
            <path d="M659.5555,0.25 L541.5525,0.25 C529.417951,0.392464104 516.653519,7.20156168 508.692801,17.0041958 L504.143997,22.693252 L408.78043,142.119216 L0.441350848,653.588254 L486.556122,653.509 L487.203595,653.499925 C496.850749,653.299046 504.993321,650.296167 511.536706,645.215715 C516.398031,641.441257 520.090369,636.67697 521.967184,632.487618 L522.102948,632.178405 L679.55905,24.1530201 L679.57185,24.0938457 C679.773302,22.9386432 679.8755,21.7624542 679.8755,20.575 C679.8755,9.34991032 670.777837,0.25 659.5555,0.25 Z M541.561308,1.74994828 L659.5555,1.74994828 C669.949327,1.74994828 678.3755,10.1782545 678.3755,20.575 L678.3755,20.9873085 C678.353341,21.8108328 678.282538,22.6275948 678.159826,23.4338938 L678.099,23.806 L520.6795,631.689 L520.703183,631.636141 C518.963128,635.657204 515.375715,640.335962 510.616794,644.03091 C504.32299,648.917581 496.490164,651.80623 487.177385,652.000163 L486.545405,652.009075 L3.558,652.0875 L468.817257,69.3318426 L505.306926,23.640727 L509.555328,18.3259168 L509.857335,17.9496367 C517.549486,8.47771051 529.904809,1.88684959 541.561308,1.74994828 Z" id="BG" fill="#4FC7EA" fill-rule="nonzero"></path>
            <mask id="mask-2" fill="white">
                <use xlink:href="#path-1"></use>
            </mask>
            <use id="FG" fill="#4FC7EA" xlink:href="#path-1"></use>
            <g id="KOREAN" mask="url(#mask-2)">
                <g transform="translate(293.000000, 252.000000)">
                    <g id="Group-3" stroke-width="1" fill="none">
                        <mask id="mask-4" fill="white">
                            <use xlink:href="#path-3"></use>
                        </mask>
                        <g id="Clip-2"></g>
                        <path d="M260.00004,129.999841 C260.00004,201.797211 201.797012,259.999841 130.00004,259.999841 C58.2026697,259.999841 3.97553517e-05,201.797211 3.97553517e-05,129.999841 C3.97553517e-05,58.2028685 58.2026697,-0.000159021407 130.00004,-0.000159021407 C201.797012,-0.000159021407 260.00004,58.2028685 260.00004,129.999841" id="Fill-1" fill="#FCFBFB" mask="url(#mask-4)"></path>
                    </g>
                    <path d="M21.287086,76 C20.7341587,78.5870127 20.1462259,81.1668504 19.6346687,83.7618354 C16.9599327,97.3287042 15.6981447,111.004395 16.5148063,124.839133 C17.3302746,138.649556 22.142731,151.105883 29.1326867,162.878186 C32.9828905,169.364054 37.4031265,175.423802 42.8739244,180.553183 C53.1281401,190.16818 64.4886081,198.114176 78.2199011,202.063257 C84.6537471,203.913629 91.199372,204.798156 97.9108751,204.473284 C102.847442,204.233717 107.708826,203.54491 112.327161,201.803758 C118.786068,199.368219 122.850283,194.387124 125.717947,188.316214 C128.969875,181.432129 130.267862,174.067315 130.836303,166.547439 C131.184767,161.930677 130.981894,157.307538 130.946491,152.681608 C130.885231,144.703724 132.932256,137.134419 136.605045,130.076538 C144.042912,115.785386 155.582385,106.506819 171.11288,102.287477 C177.109555,100.658337 183.251424,100.269687 189.414773,100.857246 C195.961989,101.481876 202.243482,103.175592 208.149461,106.167997 C215.881692,110.085587 222.399472,115.44736 227.526977,122.457009 C234.966833,132.628074 238.375093,144.03405 237.967358,156.633878 C237.828928,160.906236 237.850011,165.181384 237.697259,169.45733 C237.394542,177.930295 234.692756,185.700102 231.322684,193.314849 C225.825632,205.734104 218.237401,216.67091 208.225837,225.875334 C199.795088,233.627204 190.186087,239.517939 179.627164,243.862447 C169.710672,247.943071 159.378887,250.503376 148.757114,251.796882 C138.091982,253.095172 127.397016,253.488207 116.679773,252.24652 C97.6793617,250.045367 80.2144172,243.585409 64.2085643,233.178762 C48.9716384,223.272376 36.3080123,210.719186 26.3827685,195.450629 C16.9205515,180.895992 10.6911692,165.066184 8.18947158,147.854777 C6.04220429,133.081698 6.8274406,118.423421 10.340319,103.898281 C12.2019734,96.2006231 14.8818808,88.8138846 18.1083507,81.598152 C18.9854764,79.6365666 20.1402591,77.8523649 21.287086,76" id="Fill-4" fill="#004595"></path>
                    <path d="M239.327824,183 C239.143957,181.937561 239.578553,181.069088 239.766002,180.156893 C242.54391,166.628185 244.149366,152.997725 243.751783,139.147464 C243.324749,124.258214 238.73722,110.710826 231.06693,98.0760297 C229.114832,94.8604924 227.156367,91.6417753 224.835341,88.6869787 C220.445609,83.0989393 215.313244,78.2259495 209.782898,73.7798431 C201.339727,66.9914424 192.105769,61.6418853 181.620557,58.6314428 C173.803809,56.3873237 165.835829,55.619013 157.767159,56.6329605 C152.758566,57.2621565 147.764301,58.1330146 143.454961,61.1128519 C138.542281,64.5096358 135.395046,69.2383438 133.260275,74.6832938 C129.272504,84.8565543 128.628571,95.4924707 128.9382,106.273464 C129.124853,112.773301 127.935686,119.021936 125.633365,125.169217 C122.960921,132.304212 118.992651,138.506344 113.70388,143.884121 C107.117291,150.581501 99.2762668,155.212431 90.2007046,157.801555 C82.5650382,159.979694 74.8223148,160.40459 67.0433752,159.202242 C58.2440119,157.842495 50.2533463,154.368204 43.1625161,148.951474 C33.3801394,141.479424 26.9201093,131.762062 23.69686,119.903129 C22.6927535,116.209037 22.090608,112.429091 22.0344927,108.606219 C21.9421611,102.358776 22.0321048,96.1117299 22.3417341,89.867069 C22.7202142,82.2292735 25.2672936,75.2047753 28.2744392,68.3062752 C33.9667636,55.2505577 41.8901704,43.7815429 52.5795462,34.2684811 C62.0272208,25.8595927 72.7806715,19.6940284 84.6612049,15.443875 C87.8597794,14.2995571 91.0551701,13.0689881 94.35125,12.3010748 C96.2870303,11.8499457 98.2379339,11.2676512 100.287139,11.1452303 C101.228364,11.0891869 102.232869,10.5899638 103.237373,10.4146793 C115.29461,8.30609763 127.435821,7.44636868 139.650261,8.36651317 C142.748146,8.59982842 145.865532,8.99849145 148.941529,9.50447155 C164.085906,11.9970098 178.252841,17.1847964 191.452682,25.0264942 C199.142871,29.595419 206.304542,34.8650845 212.884365,40.9133949 C225.112336,52.1562489 234.930531,65.1996448 241.963256,80.261794 C250.564424,98.6821724 254.317387,118.005604 252.588556,138.333047 C252.366085,140.952378 252.160727,143.578864 251.75399,146.164808 C250.384935,154.859478 248.230663,163.357797 244.998658,171.56795 C243.619255,175.072448 242.03927,178.483939 240.403169,181.871581 C240.192637,182.308004 239.984891,182.767082 239.327824,183" id="Fill-6" fill="#CF0012"></path>
                </g>
            </g>
        </g>
    </g>
</svg>
