<svg width="856" height="830" xmlns="http://www.w3.org/2000/svg" xmlns:xlink="http://www.w3.org/1999/xlink"><title>MALAYSIAAIRLINES</title><defs><path d="M659.556 1c10.808 0 19.57 8.764 19.57 19.575 0 1.156-.101 2.289-.293 3.39L521.391 631.934c-2.82 6.519-13.285 20.38-34.198 20.816l-.637.009L2 652.838C338.535 231.295 507.627 19.508 509.275 17.477 516.571 8.493 528.951 1.148 541.553 1h118.003z" id="a"/><path id="c" d="M0 .243h349.043V132H0z"/></defs><g transform="translate(88 88)" fill="none" fill-rule="evenodd"><path d="M659.556.25H541.552c-12.134.142-24.898 6.952-32.86 16.754l-4.548 5.69-95.364 119.425L.441 653.59l486.115-.08.648-.01c9.647-.2 17.79-3.203 24.333-8.283 4.861-3.775 8.553-8.539 10.43-12.728l.136-.31L679.559 24.153l.013-.06c.201-1.154.303-2.33.303-3.518 0-11.225-9.097-20.325-20.32-20.325zM541.56 1.75h117.995c10.393 0 18.82 8.428 18.82 18.825v.412c-.023.824-.093 1.64-.216 2.447l-.061.372-157.42 607.883.024-.053c-1.74 4.021-5.327 8.7-10.086 12.395-6.294 4.887-14.127 7.775-23.44 7.97l-.632.008-482.987.078 465.26-582.755 36.489-45.691 4.248-5.315.302-.376c7.692-9.472 20.048-16.063 31.704-16.2z" fill="#000" fill-rule="nonzero"/><mask id="b" fill="#fff"><use xlink:href="#a"/></mask><use fill="#FFF" xlink:href="#a"/><g mask="url(#b)"><g transform="rotate(180 308.5 169)"><mask id="d" fill="#fff"><use xlink:href="#c"/></mask><path d="M349.043.243H36.26l-1.096 4.02h30.23c3.386 0 18.823.614 15.36 16.57a29.448 29.448 0 01-.398 1.589 2486.343 2486.343 0 00-8.897 32.454 25.172 25.172 0 01-1.129 3.074 25.662 25.662 0 01-4.896 7.298c-3.815 3.966-9.209 6.881-16.136 7.061H16.365l-1.812 6.968 76.727.068c3.74-.14 8.514-1.64 12.78-4.627 4.155-2.909 7.822-7.226 9.577-13.087l9.507-34.636s.57-2.261 2.152-5.339c3.16-6.14 10.355-15.531 25.191-16.74 0 0 .19-.01.527-.01 3.227-.004 20.488.924 16.283 21.492l-20.66 75.723c-2.332 8.474-7.984 14.967-14.693 18.828-4.416 2.545-9.277 3.966-13.972 4.023H1.974L0 132.001h138.334c32.133-1.305 59.573-10.905 82.225-24.221 34.887-20.518 58.384-49.873 69.939-71.502 0 0 15.323-29.078 48.591-31.361l8.2-.54s.583 0 .708-.506c.054-.155.119-.364.19-.6a.466.466 0 00.025-.076c.233-.773.538-1.866.831-2.952" fill="#163D81" mask="url(#d)"/></g><path d="M267.994 337c-.48 1.758-.928 3.472-.971 3.66a.51.51 0 00-.018.215c.021.17.168.213.39.256.09.015 1.273.097 2.707.195 2.355.158 5.39.356 5.39.356 26.927 1.934 30.712 22.98 31.239 29.51.035.482.057.889.068 1.199.01.31.014.53.01.637v.083c-.573 35.693 19.847 92.572 99.71 95.889h138.236l1.907-6.97H430.757c-10.305-.208-17.857-6.853-16.997-17.918.122-1.578.416-3.252.9-5.006l20.796-75.885a39.42 39.42 0 011.617-3.98c7.89-16.72 23.503-17.566 26.539-17.57.337 0 .523.011.523.011 15.943 1.376 16.563 13.118 15.872 18.906a24.47 24.47 0 01-.187 1.31c-.204 1.171-.416 1.885-.416 1.885l-9.495 34.781c-1.68 6.631.23 11.314 3.52 14.18 2.197 1.917 5.004 3.022 7.768 3.36.458.059.917.091 1.372.105l76.685-.068 1.892-6.843h-32.844c-2.265-.058-4.193-.422-5.824-1.034-7.061-2.647-8.452-9.883-6.703-16.518 0 0 4.097-14.421 8.936-32.534 1.323-4.93 3.556-8.511 6.133-11.119 6.58-6.66 15.405-6.922 17.069-6.922h31.95l.89-3.253L581 337H267.994z" fill="#163D81"/></g></g></svg>