<svg>
<style type="text/css">
	.st0{fill:#026674;}
	.st1{fill:#FFFFFF;}
</style>
<g id="CATHAYPACIFIC">
	<g id="Mask-Raw" transform="translate(88.000000, 88.000000)">
		<path id="BG" class="st0" d="M659.6,0.2h-118c-12.1,0.1-24.9,7-32.9,16.8l-4.5,5.7l-95.4,119.4L0.4,653.6l486.1-0.1l0.6,0
			c9.6-0.2,17.8-3.2,24.3-8.3c4.9-3.8,8.6-8.5,10.4-12.7l0.1-0.3l157.5-608l0-0.1c0.2-1.2,0.3-2.3,0.3-3.5
			C679.9,9.3,670.8,0.2,659.6,0.2z M541.6,1.7h118c10.4,0,18.8,8.4,18.8,18.8V21c0,0.8-0.1,1.6-0.2,2.4l-0.1,0.4L520.7,631.7l0-0.1
			c-1.7,4-5.3,8.7-10.1,12.4c-6.3,4.9-14.1,7.8-23.4,8l-0.6,0l-483,0.1L468.8,69.3l36.5-45.7l4.2-5.3l0.3-0.4
			C517.5,8.5,529.9,1.9,541.6,1.7z"/>
		<g>
			<path class="st0" d="M505.8,348.6c-0.2,0.4-0.7,1.6-0.7,2.4c0,0.5,0.2,0.8,0.5,0.8v0c1-0.1,1.4-0.7,2.1-1.2
				c1.7-1.2,3.1-3.2,3.1-6.1c0-0.3-0.1-0.4-0.3-0.4C508.6,344.2,506.6,347.2,505.8,348.6z"/>
			<path class="st0" d="M546.1,361.5c0.1,0.2,0.2,0.4,0.5,0.5c1.8-0.1,2.4-3,3.2-4.4c0.7-1.1,1.2-2.4,1.9-3.5
				c0.5-0.8,1.1-1.6,1.5-2.5c0.5-1.1,0.7-2.4,1.3-3.4c0.3-0.5,0.8-1,1.2-1.5c1-1.5,1.9-3,2.5-4.8c0.1-0.7,0.3-1.3,0.4-1.9
				c0.4-1.1,0.8-2.3,1.2-3.5c0.2-0.6,0.3-1.8,0.2-2.2c-0.1-0.2-0.2-0.3-0.3-0.3c-1.4,0.2-2.7,3.9-3.4,5.3c-0.8,1.4-1.9,2.6-2.6,4.1
				c-0.6,1.4-0.8,3.1-1.4,4.4c-0.5,1-1.4,1.8-2,2.8c-0.7,1.3-1.3,2.9-1.9,4.3c-0.7,1.6-1.6,2.8-2.2,4.3
				C546,359.7,545.9,360.8,546.1,361.5L546.1,361.5z"/>
			<path class="st0" d="M551.3,306c1.9-0.1,2.5-2,3.2-3.2c0.4-0.6,0.8-1.3,1.1-1.9c0.3-0.7,0.4-1.4,0.7-2.1c1.2-2.2,2.6-4.7,3.8-6.9
				c0.5-0.9,1.2-2.7,0.7-3.8c-0.1-0.2-0.5-0.1-0.7,0.1c-0.4,0.3-0.7,0.5-1,0.8c-0.3,0.3-0.3,0.7-0.6,1c-0.6,0.8-1.4,1.5-1.8,2.4
				c-1,1.8-1.3,3.9-2.3,5.6c-0.6,1.2-1.7,2.2-2.4,3.4c-0.3,0.7-0.6,1.3-0.8,2c-0.2,0.5-0.1,1.2-0.2,1.6
				C551,305.6,551.1,306,551.3,306z"/>
			<path class="st0" d="M495.1,352c1.3,0.4,4.3-2.7,5.2-3.8c1.6-2.1,3.2-4.4,4.9-6.5c1.6-1.8,3.3-3.1,3.7-6.3c0-0.4,0.3-1.3,0-1.3
				c-1.7,0.1-3.3,2.7-4.2,3.8c-0.6,0.7-1.3,1.5-1.9,2.2c-0.8,1.1-1.2,2.5-2.1,3.5c-1.1,1.3-2.4,2.5-3.5,3.8
				c-0.6,0.7-1.4,1.3-1.8,2.2C495.3,350,494.8,351.8,495.1,352L495.1,352z"/>
			<path class="st0" d="M456.1,375.5c2,0.3,4.1-2.6,5.1-3.9c0.3-0.4,1.4-2.7,1.1-3c-0.4-0.3-2.6,0.4-3.2,0.9
				c-1.5,1.2-2.6,2.8-3.4,5.5C455.7,375.3,455.9,375.5,456.1,375.5z"/>
			<path class="st1" d="M524,621.8l-2.6,10.1c-0.5,1.2-1.3,2.7-2.4,4.3"/>
			<g>
				<path class="st0" d="M679.1,20.6c0-10.8-8.8-19.6-19.6-19.6h-118c-12.6,0.1-25,7.5-32.3,16.5c-1.6,2-170.7,213.8-507.3,635.4
					l484.6-0.1l0.6,0c17-0.4,27.1-9.6,31.8-16.5C400.7,593.5,313.1,558,257,531.3c-64.5-30.7-86.2-48.3-83.8-57.1
					c2.2-8.2,26.2-4.7,45.9-6.5c17.9-1.6,40.9-4.9,68.6-14.5c25.9-9,50.9-19.3,72.7-31.2c0,0,8.8-4.7,9.8-5.2c1.8-1.1,3.2-1.9,5-3
					c1.1-0.6,2.7-1.6,3.9-2.1c1.5-0.6,2.6-1.5,3.9-2.3c1.4-0.9,3.2-1.7,4.6-2.6c2-1.2,3.2-2.2,5.1-3.6c1.2-0.9,1.8-1.1,3.3-2.1
					c0.9-0.6,2.6-1.5,3.5-2c1.7-1.2,2.9-2.1,4.6-3.3c1.1-0.8,1.9-1.2,3.1-2c1.3-0.8,2.5-1.8,3.6-2.6c0.6-0.5,1.5-1,2.1-1.6
					c1.3-1.2,2.6-2.4,3.9-3.4c1.2-0.9,2.4-2.1,3.6-3c0.8-0.6,2.1-1.7,2.8-2.2c2-1.4,3.2-2.5,5.2-3.9c1.3-0.9,2.3-2.2,3.6-3.1
					c1.4-1,2.7-2.3,4.2-3.3c0.9-0.7,2-1.5,2.7-2.2c0.9-1.1,1.8-1.9,2.8-3c0.7-0.8,2.1-1.7,2.9-2.5c1.2-1.6,2.9-3.2,4.5-4.4
					c1-0.9,1.2-1.3,1.6-1.8c0.3-0.4,0.6-0.9,1.4-1.7c0.8-0.8,1.1-1,1.4-1.4c0.4-0.3,0.8-0.7,1.8-1.7c0.3-0.3,0.9-1.1,1.4-1.9
					c0.5-0.7,0.9-1.3,1.3-1.7c1-1,1.6-1.7,2.3-2.4c0.5-0.5,1-1,1.6-1.7c0.4-0.4,0.7-0.9,1-1.4c0.3-0.5,0.6-0.9,0.9-1.3
					c0.6-0.6,1-0.4,1.1-0.3c0.3,0.2,0.5,0.9,0.1,1.7c-0.5,1-1.2,2-1.7,2.6c-0.1,0.1-0.2,0.3-0.3,0.3c-0.2,0.3-0.3,0.6-0.5,0.9
					c-0.3,0.5-0.5,0.9-0.8,1.4c-0.7,1-1.5,1.8-2.3,2.6c-0.3,0.3-0.5,0.5-0.8,0.8c-0.5,0.5-0.9,1.1-1.3,1.7c-0.4,0.6-0.9,1.2-1.4,1.9
					c-0.3,0.3-0.5,0.6-0.7,0.9c-0.3,0.3-0.5,0.7-0.8,1c-0.5,0.4-0.9,0.9-1.3,1.3c-0.7,0.8-1.5,1.5-2.2,2.2c-0.6,0.5-1.1,1.1-1.7,1.6
					c-1.5,1.8-3.1,3.5-4.4,5.2c-0.7,0.9-2.1,1.6-3,2.3c-0.9,0.7-1.7,1.9-2.4,2.9c-0.6,0.7-1.8,1.8-2.4,2.5c-1.5,1.9-2.5,2.9-4.4,4.3
					c-1.2,0.8-2.1,1.6-3,2.8c-0.5,0.7-2.2,2.3-2.8,3.1c-1.6,2-2.3,3.9-2.1,4c1.1,0.3,3.7-2,5.3-3.1c1.3-0.9,1.5-1.2,2.7-2.2
					c0.3-0.2,2.2-1.6,2.9-2.4c0.5-0.5,2-2,2.4-2.6c2.2-2.8,2.9-3,5.5-5.5c1.8-1.8,4.1-3.4,5.9-5c0.5-0.6,1.1-1.1,1.6-1.7
					c0.6-0.6,1.3-1.1,1.9-1.7c0.8-1,2-3.1,3-3.9c1-0.8,1.8-1.6,2.9-2.4c0.4-0.3,0.7-0.7,1.1-1c0.5-0.4,1.1-0.8,1.5-1.3
					c1.2-1.6,2.4-3.2,3.7-4.8c0.6-0.8,1.4-1.4,1.9-2.2c1.2-1.7,2.2-3.4,3.4-5c1.7-2.2,4.1-3.8,5.8-6.1c1.7-2.3,2.7-5,4.3-7.4
					c0.7-1,1.7-1.8,2.5-2.8c0.4-0.6,0.7-1.2,1.1-1.9c0.8-1.3,1.8-2.6,2.7-3.8c1.1-1.7,1.9-3.5,3-5.2c0.2-0.2,0.6-1.4,1.3-2.3
					c0.7-0.9,1.3-1.8,2-3.1c0.8-1.2,1.2-2,1.7-2.9c0.6-0.9,0.9-1.7,1.3-2.2c0.4-0.6,1.2-1.7,1.5-2.2c1-1.6,1.3-2.3,2.4-3.8
					c0.6-0.9,1.4-1.6,2-1.4c0.5,0.3,0.3,0.9,0.2,1.3c-0.5,1.3-0.5,1.1-1,2c-0.9,1.6-1.2,2.3-2.1,3.7c-0.4,0.7-1.2,2.2-1.7,3.1
					c-0.6,0.9-1.2,1.9-1.6,2.6c-0.5,0.8-1.1,2.8-1.7,3.6c-0.5,0.6-1.1,1.8-1.6,2.7c-0.9,1.8-2,3.2-2.9,4.5c-0.6,1.1-1.2,2.3-1.8,3.5
					c-1.2,1.8-2.7,3.6-3.9,5.5c-0.7,1.3-1.5,2.6-2.2,4c-0.7,1.1-1.7,2-2.4,3.1c-0.9,1.3-1.3,2.8-2.2,4.1c-0.7,1-1.6,2-2.2,3
					c-1.2,1.7-2.2,3.5-3.4,5.1c-0.7,0.9-1.6,1.7-2.2,2.6c-0.9,1.2-1.7,2.7-2.6,3.8c-1.2,1.1-1.5,1.7-2.4,2.8
					c-1.3,1.6-4.7,6.4-4.1,6.4c1.9,0.3,5.7-4,7.3-5.6c1.2-1.2,2.6-2.1,3.4-3.3c1.3-1.7,2.2-3.6,3.4-5.3c0.5-0.6,1.1-1.1,1.6-1.6
					c0.9-1.1,1.7-2.3,2.7-3.3c0.4-0.4,0.9-0.8,1.2-1.2c1.5-2,2.8-4.1,4.3-6.2c0.6-0.8,1.4-1.6,2.1-2.4c0.5-0.7,0.8-1.4,1.2-2.1
					c0.6-0.9,1.4-1.8,2-2.7c0.5-0.7,0.7-1.4,1.2-2.1c0.8-1.2,1.9-2.3,2.7-3.5c0.6-1,0.8-2.3,1.5-3.4c1.7-2.6,3.5-5.2,5.1-7.8
					c0.4-0.7,0.6-1.4,1-2.1c1.4-2.1,2.6-4.4,3.9-6.5c0.5-0.8,0.7-1.7,1.2-2.4c0.6-0.9,1.6-1.7,2.2-2.6c0.5-0.7,0.7-1.5,1-2.3
					c0.5-1.1,1.2-2.2,1.7-3.2c0.3-0.6,0.5-1.3,0.9-1.9c1.6-2.5,2.9-5.2,4.2-8c0.7-1.4,1.7-2.8,2.4-4.2c0.8-1.6,1.5-3.3,2.2-4.8
					c0.4-1.1,0.8-2.1,1.2-3.2c0.8-1.7,2-3.1,2.7-4.8c0.5-1.2,0.8-2.3,1.3-3.3c0.3-0.6,0.9-1.1,1.3-0.8c0.4,0.3,0.5,0.8,0.2,1.7
					c-0.5,1.8-1.5,3.8-1.9,4.8c-0.9,2-1.4,4.1-2.3,6.1c-0.5,1.1-1.2,2.2-1.7,3.3c-0.9,1.9-1.7,3.9-2.6,5.7c-0.5,1.1-0.9,2.1-1.5,3.1
					c-0.3,0.5-0.8,1.1-1,1.7c-0.6,1.3-0.7,2.7-1.3,3.9c-0.6,1.3-1.6,2.4-2.2,3.6c-3,6.5-6.1,12.7-9.8,18.5c-1,1.6-1.6,3.6-2.6,5.2
					c-1.1,1.7-2.5,2.9-3.6,4.6c-0.9,1.4-1.1,3.2-1.9,4.7c-1.2,2.2-2.7,4-4.1,6c-0.3,0.6-0.5,1.2-0.8,1.8c-0.5,0.8-1.1,1.5-1.6,2.3
					c-0.6,1.1-1,2.3-1.7,3.3c-0.8,1.1-1.9,2-2.7,3.1c-1,1.3-1.6,2.9-2.6,4.2c-0.7,0.9-1.8,1.6-2.5,2.5c-1.1,1.5-5,6.6-6.1,8
					c-1.7,2.2-4.8,5.4-6.2,8.3c-0.5,0.9-2,3-1.7,3.4c0.8,0.5,4.7-3.7,5.3-4.3c1.6-1.5,3-3.7,4.4-5.4c0.3-0.4,4-4,4.3-4.4
					c0.4-0.5,0.7-1,1.1-1.5c1-1.5,1.7-3.4,2.7-4.8c0.5-0.6,1.2-1.1,1.6-1.7c0.8-1.1,1.4-2.4,2.3-3.5c1.3-1.8,3-3.4,4.3-5.2
					c1.4-2,2.4-4.3,3.9-6.2c0.7-1,1.6-1.8,2.3-2.9c0.3-0.5,0.4-0.9,0.7-1.4c0.5-0.8,1.2-1.7,1.6-2.6c0.4-0.8,0.6-1.6,1.1-2.4
					c1.5-2.4,3-4.9,4.5-7.3c0.7-1.1,1.1-2.2,1.7-3.3c1.1-1.8,2.6-3.3,3.7-5.1c1.3-2.1,2.1-4.6,3.4-6.7c0.9-1.4,1.9-2.7,2.8-4.1
					c1-1.5,1.4-3.3,2.3-4.8c0.8-1.4,1.8-2.7,2.5-4.1c0.7-1.5,1.2-3,1.9-4.6c0.4-0.8,1-1.7,1.4-2.5c0.5-1.1,0.6-2.2,1.1-3.2
					c1.3-2.9,3.3-5.7,4.6-8.6c1-2,1.8-4.2,2.6-6.4c0.4-1.2,0.6-2.3,1.2-3.4c1.2-2.7,2.7-5.5,3.8-8.1c0.5-1.4,1-2.8,1.5-4.2
					c0.1-0.4,0.1-0.8,0.3-1.2c0.6-1.2,1.3-2.5,1.8-3.7c0.4-1.4,0.9-2.9,1.4-4.3c1.9-4.7,3.5-10,5.3-14.8c0.2-0.9,0.3-2,0.6-2.9
					c0.9-2.5,1.8-5,2.7-7.5c0.5-1.3,1.7-0.9,1.4,0.5c-0.4,1.7-0.6,2.1-0.9,3.5c-0.1,0.7-0.3,1.4-0.4,2.1c-0.2,0.8-0.6,1.7-0.8,2.5
					c-0.5,1.5-0.5,3-1,4.4c-0.7,2-1.5,4-2.1,6c-0.2,1-0.4,2.1-0.6,3.1c-0.3,1-0.7,2-1,2.8c-1,2.6-2,5-2.9,7.5
					c-0.4,1.4-0.8,2.9-1.1,4.3c-0.4,0.8-0.9,1.6-1.3,2.4c-0.3,0.7-0.4,1.4-0.7,2.1c-0.6,1.6-1.2,3.3-2,4.9c-0.6,1.3-1.3,2.7-1.9,4.1
					c-0.3,0.7-0.3,1.3-0.5,2c-1.6,4.3-3.2,8.7-5.1,12.8c-0.5,1-0.6,2-1,3.1c-0.4,0.9-0.9,1.8-1.3,2.6c-0.2,0.5-0.4,1.1-0.6,1.6
					c-0.6,1.2-1.5,2.2-2.1,3.4c-1.6,3.3-3,6.5-5,9.3c-1.8,2.6-2.6,6.1-4,9.2c-0.7,1.5-1.6,2.8-2.4,4c-0.4,0.7-0.7,1.4-1,2.2
					c-0.9,1.6-1.4,3-2.5,4.5c-0.8,1.2-0.8,1.4-1.5,3.1c-0.2,0.5-1,3.6-0.8,3.6c0.3,0.2,1.8-0.7,2.3-1.3c0.7-0.8,1.8-1.8,2.5-3.5
					c0.4-0.9,1.2-2.3,1.6-3.1c1-2.1,2.6-3.8,3.8-5.7c0.7-1.1,1.1-2.3,1.7-3.5c1-2.2,2.1-4.4,3.2-6.7c0.5-0.9,1.1-1.8,1.6-2.7
					c0.6-0.9,0.8-1.8,1.4-2.7c1.2-1.9,2.6-4,3.6-6.1c0.7-1.5,1.1-3.1,1.8-4.6c0.2-0.5,0.6-0.9,0.9-1.4c0.5-0.8,0.7-1.6,1.1-2.5
					c0.5-1.1,1.4-2.3,1.9-3.4c1.1-2.4,1.7-4.8,2.8-7.2c0.5-1.1,1.4-2,1.9-3.1c0.8-1.7,0.9-3.8,1.7-5.5c2-4.6,4.4-9.4,6.1-14.2
					c0.3-0.8,0.4-1.8,0.6-2.6c0.8-2.1,1.7-4.1,2.5-6.1c0.3-0.9,0.5-1.8,0.8-2.8c0.5-1.4,1.2-2.9,1.7-4.3c0.1-0.5,0.2-1,0.4-1.5
					c0.6-1.3,1-2.9,1.6-4.3c0.3-0.7,0.8-1.5,1.1-2.2c0.5-1.4,0.3-3.1,0.8-4.5c0.7-2,1.5-4.1,2.2-6c0.4-1.1,0.5-2.2,0.9-3.4
					c0.5-1.3,1-2.8,1.4-4.1c0.5-1.3,0.5-2.8,0.9-4.2c0.3-1.1,0.8-2.2,1.1-3.2c0.7-1.9,1-3.9,1.7-5.7c0.1-0.3,0.2-0.7,0.3-1
					c0.2-0.5,0.5-1,1-0.8c0.6,0.1,0.6,0.9,0.5,1.3c-0.1,1.4-0.6,2.7-1,3.8c-0.5,1.2-0.7,2.5-1,3.6c-0.2,0.7-0.2,1.5-0.3,2.3
					c-0.2,1.1-0.7,2.2-1,3.3c-0.3,1.1-0.1,2.2-0.4,3c-0.7,2.4-1.5,5-2.3,7.3c-0.3,1.2-0.4,2.5-0.7,3.5c-0.4,1.2-0.9,2.4-1.3,3.6
					c-0.4,1-0.5,2-0.9,2.9c-0.5,1-1,2-1.3,3.2c-0.5,1.5-0.4,2.9-0.9,4.3c-0.8,2.2-1.9,4.4-2.6,6.5c-0.3,0.8-0.3,1.6-0.6,2.4
					c-0.7,1.9-1.1,3.9-1.8,5.8c-1,2.7-2.2,5.3-3.2,7.9c-0.9,2.6-1.1,5.7-2.2,8.2c-0.6,1.2-1.7,1.9-2.2,3.1c-0.4,0.7-0.3,1.6-0.5,2.5
					c-0.3,1-0.8,2-1.2,2.9c-0.2,0.9-0.4,1.7-0.7,2.5c-0.3,1-1,2-1.5,2.9c-0.7,1.6-1.1,3.2-1.9,4.6c-0.7,1-1.6,2-2.1,3.2
					c-0.6,1.3-0.8,2.7-1.4,4c-0.9,2-1.9,3.9-2.7,6c-0.7,1.9-1,3.9-1.8,5.5c-0.9,1.6-2,3.1-2.9,4.7c-0.6,1.2-1.1,2.4-1.7,3.7
					c-0.5,1-1.3,1.8-1.9,2.9c-0.7,1.2-1.4,2.5-1.9,3.8c-0.5,1-0.6,1.9-1.2,2.7c-0.8,1.3-1.4,2.3-2.2,3.6c-0.7,1.1-1.5,2.6-2,3.9
					c-0.4,1-0.8,2.1-1.4,2.9c-0.6,0.9-1.4,1.6-2,2.6c-0.5,0.9-1.3,4-1,4.1c0.7,0.2,2.5-1.6,3-2.2c1.5-1.8,2.2-4.2,3.6-6.1
					c1.4-2.1,2.3-3.2,3.5-5.6c0.6-1.4,1.8-3.8,2.5-5c0.8-1.1,1.7-2.2,2.3-3.4c0.5-1.1,0.7-2.3,1.2-3.4c0.7-1.5,2.1-2.5,2.8-4.1
					c0.8-1.7,1.2-3.5,2.1-5.2c0.4-0.8,1-1.7,1.4-2.5c0.5-1,0.7-2,1.2-3.1c1-2.1,2.5-3.9,3.4-6c1-2.2,1.6-4.5,2.7-6.7
					c0.5-1.2,1.5-2.2,2.1-3.4c0.7-1.6,1.1-3.2,1.9-4.8c0.5-1,1.1-1.9,1.6-2.8c0.6-1.4,0.9-2.9,1.5-4.3c1.4-3.3,2.9-6.6,4.4-9.8
					c0.5-1.2,0.7-2.5,1.2-3.8c0.5-1.1,1.1-2.2,1.7-3.3c1.2-2.8,1.7-6.2,3-9c0.6-1.5,1.4-2.8,2-4.4c0.9-2.5,1.2-5,2.1-7.5
					c1.4-3.8,2.5-7.8,3.8-11.6c0.4-1.1,0.5-2.3,0.9-3.5c0.4-1.1,0.8-2.2,1.2-3.3c0.3-0.9,0.5-2.2,0.7-3.4c1-3.2,2.1-6.5,3.1-9.8
					c0.3-0.8,0.3-2.2,0.6-3.2c0.2-0.6,0.5-1.2,0.7-1.7c0.2-0.7,0.2-1.4,0.5-2.2c0.8-2.4,1.4-5.1,2.1-7.5c0.2-0.7,0.3-1.8,0.5-2.6
					c1-3.4,1.6-7.5,2.9-10.7c0.2-0.6,0.6-1.3,1.2-1.1c0.6,0.1,0.5,0.8,0.4,1.4c-0.2,1.5-0.8,2.9-1,4.1c-0.1,0.6-0.1,1.4-0.1,2.1
					c-0.1,0.6-0.1,1.3-0.3,1.9c-0.6,2-1.4,4.4-1.9,6.4c-0.2,1,0,2.4-0.3,3.5c-0.9,3.2-1.5,7-2.6,9.9c-1.1,2.6-1.3,5.8-2,8.6
					c-0.2,1.2-0.3,2.5-0.5,3.7c-0.2,1.2-0.8,2-1.2,3c-0.3,0.7-0.3,1.4-0.5,2.2c-0.6,2-1.1,4.1-1.8,6.1c-0.5,1.4-1.3,2.8-1.8,4.1
					c-0.2,0.6-0.1,1.2-0.3,1.9c-0.4,1.4-0.6,2.8-1,4.2c-1,2.8-2,5.8-3,8.6c-0.6,1.6-0.7,3.1-1.3,4.6c-2.2,6-4.5,12-6.6,18
					c-0.4,1.3-0.7,2.7-1.1,4c-0.5,1.3-1.3,2.5-1.8,3.7c-0.7,1.6-0.9,3.2-1.6,4.8c-0.7,1.9-1.6,3.4-2.3,5.4c-0.3,0.9-0.7,2-1.1,2.9
					c-0.3,0.7-0.9,1.4-1.3,2.1c-0.6,1.2-0.7,2.7-1.2,3.9c-0.6,1.2-1.6,2.2-2.3,3.3c-0.6,1-0.7,2.4-1.2,3.5c-0.8,1.8-1.9,3.5-2.7,5.4
					c-0.3,0.8-0.5,1.5-0.8,2.3c-0.4,0.9-1.1,1.7-1.5,2.7c0,0,0,0-0.1,0.1c0,0.1-0.1,0.3-0.1,0.5c-0.1,0.4-0.2,0.8-0.4,1.2
					c-0.2,0.5-0.8,1.4-1,1.8c-0.1,0.2-0.6,0.7-0.9,1.1c-0.2,0.2-0.3,0.4-0.5,0.6c-0.8,1.2-0.9,3-1.5,4.4c-0.6,1.3-1.8,2.4-2.4,3.8
					c-0.5,1-0.8,3.7-0.1,3.8c2.7,0,2.9-3.8,3.8-5.8c0.7-1.6,1.8-2.8,2.6-4.3c0.2-0.3,0.4-0.9,0.6-1.5c0.2-0.5,0.4-1.1,0.6-1.5
					c0.3-0.7,0.3-0.6,0.6-1.1c0.3-0.5,1-1.5,1.2-1.9c0,0,0-0.1,0-0.1c1-1.7,1.7-4,2.5-5.2c0.4-0.6,1-1.2,1.4-1.9
					c0.7-1.1,1-2.4,1.6-3.6c0.5-1.1,1.3-2.1,1.8-3.3c0.6-1.3,0.6-3,1.3-4.4c0.3-0.7,0.9-1.5,1.3-2.2c0.8-1.6,1.2-3.2,2-4.7
					c0.3-0.7,1-1.4,1.4-2.2c0.6-1.3,0.9-2.7,1.6-3.9c1.4-2.6,3-5.4,4.1-8.1c0.7-1.6,1-3.2,1.6-4.7c0.6-1.4,1.4-2.7,2-4
					c0.4-0.9,0.5-1.7,0.9-2.7c0.6-1.5,1.2-3.1,1.8-4.6c0.3-1,0.6-3.3,0.9-4.2c0.4-1.1,1-2.4,1.5-3.5c0.8-1.6,1-3.4,1.7-5
					c0.6-1.3,1.2-2.6,1.7-4c0.4-1.1,0.5-2.2,1-3.2c0.3-0.8,0.8-1.7,1.1-2.5c0.4-1,0.6-2.6,0.9-3.9c0.5-1.4,1.1-2.8,1.5-4.2
					c0.3-1.1,0.3-3.5,0.5-4.1c1.5-4.4,2.9-9.1,4.3-13.4c0.6-2,0.9-4.1,1.5-6c0.2-0.8,0.2-1.8,0.4-2.6c0.4-1.3,0.9-2.6,1.3-3.9
					c0.2-0.9,0.4-1.8,0.5-2.7c0.2-0.9,0.7-1.8,1-2.8c0.8-2.6,1.3-5.4,2.1-8c0.3-1.1,0.3-2.5,0.5-3.4c1-3.2,1.2-6.9,2.2-10.2
					c0.2-1,0.3-2,0.6-2.8c1.6-6.3,2.4-13.3,4.2-19.3c0.3-1.2-0.1-2.6,0.2-3.9c0.4-1.4,0.8-2.6,1.2-3.9c0.2-0.7,0.2-1.1,0.3-1.7
					c0.3-1,0.8-1.8,1.3-1.7c0.7,0.2,0.5,0.8,0.5,1.7c-0.1,1.4-0.2,2.6-0.5,3.7c-0.2,1-0.1,1.8-0.3,2.6c-0.6,1.9-0.8,4.7-1.1,6.5
					c-0.1,0.7,0,1.7-0.1,2.6c-0.2,0.9-0.9,2.1-1.1,3c-0.2,1.3-0.2,3-0.4,4.4c-0.3,1.2-0.6,2.3-0.9,3.4c-0.3,1-0.1,1.9-0.4,2.8
					c-0.3,0.9-0.8,1.8-0.9,2.8c-0.1,1.1,0,2.7-0.2,3.7c-1.4,5.5-1.8,12-3.4,17.3c-0.2,0.8-0.2,1.6-0.4,2.3
					c-1.3,4.6-2.4,9.6-3.7,14.1c-0.2,0.7-0.2,1.4-0.3,2.2c-0.5,1.6-0.8,3.3-1.2,5c-0.2,0.8-0.1,1.5-0.4,2.2c-0.5,1.7-1,3.3-1.6,5
					c-0.2,0.8-0.3,1.6-0.4,2.4c-0.1,0.6-0.5,1.4-0.7,2c-0.3,1-0.2,1.9-0.5,2.8c-0.2,0.5-0.6,1.1-0.8,1.6c-0.2,1-0.3,2-0.6,2.9
					c-0.4,1.2-1,2.3-1.5,3.4c-0.4,1-0.4,1.9-0.7,2.9c-0.6,1.6-1.4,3.5-2,5.2c-0.5,1.4-0.6,2.9-1.1,4.3c-0.3,1-0.8,1.9-1.1,2.9
					c-0.2,0.7-0.3,1.4-0.6,2.2c-0.2,0.7-1,1.8-1.5,2.7c-0.4,1-0.2,2.4-0.5,3.4c-0.3,1.1-1,2-1.3,3c-0.3,1-0.3,2.1-0.6,3.2
					c-0.3,0.8-0.8,1.6-1.2,2.4c-0.3,0.9-0.6,1.8-1,2.7c-0.3,0.6-0.7,1.2-1,1.7c-0.5,1-0.9,2.2-1.3,3.2c-0.6,1.5-0.6,3.3-1.1,5.1
					c-0.1,0.5-0.1,1.7,0.2,1.8c0.7,0.1,1.5-1,1.9-1.6c0.8-1.2,1.6-2.4,2.2-3.8c0.2-0.5,0.3-1,0.5-1.6c0.5-1.1,0.8-2.5,1.3-3.6
					c0.3-0.7,0.8-1.5,1-2.2c0.4-1.1,0.2-2.4,0.6-3.4c0.4-0.8,1-1.4,1.4-2.2c0.3-0.7,0.4-1.5,0.7-2.2c0.4-0.9,0.9-1.7,1.4-2.5
					c0.4-0.8,0.3-1.6,0.6-2.6c0.3-1.1,0.7-2.3,1.2-3.3c0.5-1,1.1-2.1,1.6-3.2c0.2-0.6,0.3-1.2,0.5-1.8c0.3-0.8,0.7-1.7,1-2.5
					c0.2-0.6,0.3-1.2,0.6-1.8c0.4-0.9,0.8-1.9,1.2-2.9c0.3-0.8,0.3-1.6,0.6-2.4c0.5-1.4,1-2.9,1.4-4.3c0.3-1,0.4-2.1,0.7-3.2
					c0.4-1.2,0.9-2.5,1.4-3.7c0.3-1,0.4-2.1,0.7-3.1c0.5-1.3,1.1-2.6,1.6-3.9c0.3-1.1,0.3-2.2,0.6-3.3c0.8-2.6,1.6-5.4,2.4-8.1
					c0.9-2.9,1-6.3,1.9-9.3c0.6-2.1,1.4-4.2,2-6.3c0.2-1.1,0.3-2.1,0.5-3.2c0.6-2.4,1.4-5.5,2.2-7.9c0.4-1.3,0.3-2.6,0.6-4
					c0.4-1.4,0.4-3.1,0.8-4.6c0.3-0.9,0.6-1.6,0.8-2.8c0.3-1.2,0.2-2.6,0.4-3.4c0.2-0.9,1.7-6.1,1.9-7.1c0.2-1,0.2-2.7,0.3-3.4
					c0.1-0.4,0.9-2.7,1-3.3c0.1-0.6,0.1-1.2,0.3-2.4c0.3-1.2,0.9-3.7,1-4.5c0.1-0.8,0.1-2.3,0.3-3c0.2-0.7,0.6-2.5,1-3.7
					c0.4-1.5,0.1-3.1,0.5-4.5c0.3-1,0.7-2.1,1.1-3.1c0.2-0.8,0.5-2,0.6-2.5c0.1-0.8,0.1-2.4,0.2-3.1c0-0.8,0.4-2.2,0.5-3.5
					c0.1-1.7,0.5-3.5,0.7-4.5c0.1-0.6,0.1-1.3,0.2-1.9c0.4-1.6,0.8-3.2,1.7-3.1c0.6,0.1,0.8,0.6,0.6,1.7c-0.3,1.3-0.4,2.3-0.8,3.5
					c-0.1,0.7-0.2,2.4-0.2,2.9c-0.1,0.9-0.1,1.1-0.2,2c-0.1,0.3-0.2,1.2-0.3,1.5c-0.1,0.6-0.3,1.4-0.3,1.8c0,0.6,0,1.2,0,2
					c0,0.4,0,0.6-0.2,1.3c-0.2,0.7-0.3,0.9-0.3,1.5c0,0.5,0,1,0,1.5c0,0.6-0.1,1.1-0.3,1.7c-0.3,1.1-1,2.6-0.7,4.2
					c0.3,1.7-0.2,3.3-0.6,4.8c-0.2,1,0,2-0.2,2.9c-0.3,1.3-0.7,2.6-1,3.9c-0.3,1.1-0.1,2.1-0.4,3.1c-0.4,1.4-1.4,3.4-1.5,4
					c-0.1,0.7-0.1,2.4-0.3,3.5c-0.2,1.1-0.5,2.4-0.5,3.1c-0.1,0.7,0,1-0.1,1.6c-0.1,0.5-0.8,3-0.9,3.7c-0.1,0.7-0.1,1-0.3,1.7
					c-0.1,0.7-0.7,3.4-0.8,4.3c-0.1,0.9-0.1,1.4-0.3,2.3c-0.3,1.3-0.8,2.5-1.1,3.7c-0.2,1-0.1,1.6-0.2,2.3c-0.3,1.2-0.7,2.3-0.9,3.4
					c-0.2,0.9-0.2,1.8-0.4,2.7c-0.4,1.9-0.7,3.9-1.2,5.8c-0.3,1.1-1,2.2-1.3,3.3c-0.3,1-0.4,2.1-0.6,3.1c-0.3,0.9-0.9,1.6-1.1,2.6
					c-0.1,0.8-0.1,1.6-0.3,2.4c-0.2,0.9-0.6,1.8-0.8,2.8c-0.1,0.7-0.1,1.4-0.3,2.1c-0.2,0.8-0.6,1.6-0.8,2.3c-0.2,1-0.2,2-0.4,3
					c-0.3,1.2-0.8,2.3-1.1,3.4c-0.3,1-0.2,2.1-0.5,3.2c-0.6,2.4-1.4,5-2.2,7.2c-0.3,1.2-0.3,2.4-0.7,3.7c-0.3,0.9-0.7,1.4-1,2.2
					c-0.3,0.8,0,1.6-0.3,2.5c-0.4,1.4-0.6,3.4-1.1,4.8c-0.6,1.6-1.5,2.9-2,4.4c-0.6,1.6-0.6,3.2-1.1,4.9c-0.5,1.4-1.2,2.8-1.8,4.1
					c-0.5,1.1-0.3,2.7-0.7,3.9c-0.5,1.3-1.4,2.3-1.9,3.7c-0.6,1.6-0.9,3.1-1.4,4.7c-0.2,0.7-0.3,1.3-0.4,2c-0.6,2-1.7,3.7-2.4,5.6
					c-0.3,0.9-0.3,1.6-0.6,2.5c-0.5,1.4-1,2.8-1.7,4.1c-0.5,1.2-1.3,2.4-1.8,3.6c-0.5,1.1-0.6,2.2-1,3.4c-0.5,1.1-1,2.3-1.4,3.4
					c-0.3,0.7-0.3,1.3-0.6,2c-1.4,3.1-3,6.2-4.4,9.1c-0.7,1.6-1.1,3.4-1.9,5.1c-0.6,1.3-1.3,2.6-1.9,4c-0.4,0.9-0.5,1.7-0.8,2.6
					c-0.8,1.6-1.8,3.3-2.6,4.9c-0.2,0.4-0.8,2.2-0.5,2.8c0,0.1,0,0.2,0.2,0.3c0.5,0.1,1.5-0.7,2.1-1.3c2-1.9,2.3-5.5,3.6-8
					c0.4-0.7,0.9-1.5,1.2-2.2c0.2-0.5,0.3-1,0.6-1.6c0.8-1.6,1.9-3.1,2.6-4.8c0.6-1.2,0.6-2.6,1.2-3.8c2.2-4.8,4.8-9.4,6.9-14.3
					c1-2.2,1.2-4.7,2-7.1c0.5-1.4,1.4-2.6,2-3.9c0.5-1,0.6-2.1,1-3.2c0.6-1.4,1.5-2.6,2-4.1c0.3-1,0.5-1.9,0.8-2.9
					c0.5-1.1,1.2-2,1.6-3c0.7-1.5,0.8-3,1.3-4.8c0.3-0.9,0.7-1.9,1-2.8c0.2-0.8,0.3-1.6,0.6-2.4c0.6-1.8,1.7-3.4,2.4-5.3
					c0.5-1.2,0.3-2.8,0.9-4.1c0.4-1,1.2-1.8,1.6-2.8c0.5-1.1,0-2.4,0.4-3.7c0.3-1.2,0.8-2.4,1.2-3.5c0.2-0.7,0.3-1.4,0.5-2.2
					c0.6-1.5,1.1-3,1.6-4.5c0.3-0.8,0.3-1.5,0.6-2.2c0.4-0.9,1-1.7,1.4-2.7c0.4-1.5,0.5-3,0.8-4.4c0.6-1.9,1.3-3.4,1.8-5.3
					c0.1-0.6,0.1-1.1,0.3-1.8c0.5-1.6,0.7-3.5,1.1-5.1c0.2-0.8,0.1-1.5,0.3-2.2c0.5-1.5,1-3.1,1.4-4.5c0.3-1,0.3-1.9,0.5-2.9
					c0.7-2.4,1.4-5.2,2.1-7.6c0.2-0.7,0.1-1.3,0.3-2.1c0.6-1.8,1.3-4.1,1.7-6c0.2-1.1,0.2-2.2,0.5-3.2c0.3-1.3,0.7-2.5,1-3.8
					c0.1-0.6,0-1,0.1-1.5c0.1-0.8,0.2-1.6,0.3-2.5c0.8-3.3,2.1-7.4,2.8-10.8c0.2-1.2,0.3-2.4,0.4-3.6c0.1-0.8,0.2-1.8,0.4-2.7
					c0.3-0.9,0.6-1.8,0.8-2.7c0.2-1.4,0.2-2.8,0.4-4.2c0-0.1,0.1-0.2,0.1-0.3c0.3-1.7,1.1-5.2,1.3-6.6c0.2-1.6,0.4-3.3,0.6-5
					c0-1.1,0.2-2.2,0.3-3.3c0.3-1.7,0.6-3.2,0.8-5c0.1-1.2,0.1-2.2,0.2-3.2c0.1-0.6,0.1-1.7,0.9-1.7c0.8,0,0.7,0.9,0.7,1.7
					c0.1,1.8-0.2,4.1-0.4,5.2c-0.2,2-0.1,4.1-0.3,6.1c-0.1,1.2-0.5,2.3-0.6,3.4c-0.3,2-0.5,4-0.7,5.9v0.1c-0.1,0.9-0.2,1.8-0.3,2.6
					c0,0.1,0,0.2-0.1,0.3c0,0.1,0,0.1,0,0.1c0,0.1,0,0.1,0,0.1h0c-0.1,0.4-0.1,0.8-0.3,1.2c-0.2,0.7-0.1,1.4-0.3,2.1
					c-0.6,2.3-0.5,4.8-1.1,7c-0.9,3.3-1.4,7-2.3,10.2c-0.2,1,0,1.9-0.3,2.9c-0.3,1-0.5,2-0.8,3.1c-0.3,1.2-0.1,2.5-0.4,3.8
					c-0.3,1.2-0.6,2.3-0.9,3.4c-0.4,1.4-0.4,2.8-0.8,4.2c-0.4,1.5-0.9,3.1-1.2,4.6c-0.3,1.7-0.5,3.6-0.8,5.4
					c-0.3,1.5-1.1,3.3-1.4,4.9c-0.1,0.5-0.1,1.1-0.1,1.6c-0.2,1.2-0.6,2.3-0.8,3.4c-0.1,0.5-0.1,1-0.3,1.6c-0.5,2.1-1.2,4.8-1.9,7
					c-0.2,0.6-0.2,1.2-0.4,1.8c-0.4,1.5-0.9,2.6-1.1,3.5c-0.1,0.7-0.2,1.6-0.4,2.3c-0.3,1.2-0.7,2.2-0.9,3.2
					c-0.2,0.8-0.3,1.5-0.5,2.3c-0.3,1-0.6,1.8-1,2.8c-0.6,1.9-0.7,4-1.4,5.8c-0.4,1.1-0.9,2.2-1.3,3.4c-0.3,1.1-0.4,2.4-0.7,3.6
					c-0.7,1.8-1.4,4-2,5.8c-0.8,2.2-1.3,4.6-2,6.7c-0.3,0.9-0.3,1.7-0.5,2.6c-0.6,2.1-1.3,4.5-2,6.6c-0.4,1.1-0.4,2.2-0.8,3.3
					c-0.7,1.8-1.7,3.3-2.4,5.1c-0.5,1.6-0.7,3.1-1.3,4.6c-0.8,1.9-1.6,3.9-2.4,6c-0.5,1.4-0.7,2.8-1.3,4.1c-0.5,1.1-1.1,2.3-1.7,3.5
					c-0.3,1-0.7,2-1,3c-0.3,0.8-1.1,2.1-1.7,3.1c-0.6,1.4-0.7,2.9-1.3,4.4c-0.8,2.3-1.9,4.6-2.9,6.7c-0.4,0.8-0.4,1.6-0.8,2.5
					c-0.6,1.5-1.6,2.7-2.2,4.1c-0.6,1.3-0.8,2.8-1.4,4c-0.9,1.9-1.5,2.9-1.5,5.6c0,0.3,0.1,0.4,0.4,0.5c0.5,0.2,1.1-0.7,1.4-1
					c1.4-1.4,1.7-2.8,2.6-4.7c1.4-3,3.1-5.8,4.5-8.7c0.7-1.5,1-3.2,1.7-4.8c0.4-0.9,1.1-1.9,1.5-2.8c0.6-1.4,1-2.8,1.7-4
					c1-1.8,1.8-4,2.6-6c0.3-0.8,0.3-1.5,0.7-2.2c0.4-0.8,0.9-1.5,1.3-2.3c0.5-1.2,0.8-2.8,1.4-4c1.1-2.4,2.3-5,3.3-7.5
					c0.8-2.3,1.2-4.6,2.1-7c0.4-1,0.8-2,1.2-3c0.3-0.9,0.3-1.7,0.6-2.5c0.8-2.1,1.8-4.4,2.7-6.5c0.4-1,0.6-2,1-3.1
					c0.5-1.3,1-2.8,1.5-4.1c0.6-1.7,0.6-3.7,1.3-5.5c1.4-3.9,3.2-7.9,4.4-12c0.2-0.9,0.1-1.9,0.4-2.8c0.6-2,1.3-4.3,1.9-6.5
					c0.7-2.4,0.6-4.9,1.4-7.3c1-3.1,2.1-6.2,3-9.2c0.3-0.9,0.1-1.9,0.4-2.8c0.6-2.3,1.4-5.1,2.2-7.2c0.4-1.1,0.4-2.3,0.8-3.3
					c0.5-1.2,1.7-0.8,1.6,0.6c-0.1,1.3-0.5,2.9-0.6,3.5c-0.1,0.9-0.1,1.7-0.3,2.7c-0.4,1.6-0.9,3-1.4,4.5c-0.5,1.6-0.5,3-0.9,4.6
					c-0.3,0.8-0.6,1.6-0.8,2.4c-0.5,1.6-0.5,3.3-1,4.7c-0.4,1.1-0.7,2.5-1.1,3.7c-0.2,0.8-0.2,1.4-0.4,2.2c-0.4,1.4-0.9,2.9-1.3,4.3
					c-0.2,0.8-0.1,1.5-0.3,2.3c-0.3,1.2-0.6,2.3-0.9,3.4c-0.3,1-0.3,2.4-0.6,3.5c-0.6,2-1.4,4.1-2,6c-0.8,2.1-0.8,4.2-1.6,6.4
					c-1.4,3.7-2.6,8-3.9,11.8c-0.4,1-0.3,2-0.5,3c-0.5,1.6-0.8,3.2-1.4,4.8c-0.3,0.8-0.8,1.5-1.1,2.2c-0.5,0.9-0.5,1.9-1,2.9
					c-0.3,0.7-0.8,1.5-1.1,2.3c-0.4,1.2-0.3,2.7-0.7,3.8c-0.3,0.9-0.8,1.9-1.2,2.8c-0.4,1-0.4,2.2-0.8,3.1c-0.3,0.8-1,1.6-1.4,2.5
					c-0.4,0.8-0.5,1.6-0.8,2.5c-0.4,0.9-0.8,1.8-1.2,2.7c-0.4,0.9-0.4,2-0.9,3c-0.4,0.9-0.9,1.7-1.3,2.6c-0.3,1-0.4,2-0.7,3
					c-0.6,1.5-1.5,2.8-2.1,4.1c-0.5,1-0.5,2.2-1,3.3c-0.5,1.2-1.3,2.4-1.8,3.6c-0.7,1.6-1.3,3.3-2,4.8c-1.2,2.7-1.6,5.7-2.8,8.3
					c-0.9,2-2.1,3.9-3,5.8c-0.5,1.1-0.6,2.3-1.1,3.3c-0.5,1.2-1.5,2.2-2.1,3.4c-0.4,1.2-0.8,2.4-1.3,3.5c-0.7,1.5-1.7,2.9-2.3,4.3
					c-0.4,0.8-0.6,1.6-1,2.5c-0.7,1.6-2,3-2.7,4.6c-0.4,1-0.8,2.1-1.1,3.2c-0.8,1.7-2.1,3.2-2.9,4.9c-0.6,1.3-1,2.6-1.7,3.8
					c-1.2,1.8-1.9,3-3,4.9c-0.7,1.2-1.7,2.9-2.3,4.3c-0.6,1.3-1.6,2.4-2.2,3.6c-0.6,1.2-1.4,2.6-2,3.8c-0.8,1.3-1.5,2.3-2.4,3.6
					c-1.3,2-2.2,4.2-3.5,6.3c-0.9,1.4-2,2.9-3,4.3c-2.7,3.7-6.6,10.4-8.2,12.6c-1.4,1.8-2.5,4-3.8,5.9c-1,1.5-2.2,2.9-3.2,4.3
					c-0.9,1.1-1.6,2.4-2.4,3.5l-0.7,0.9c-34.6,44.2-70.2,73.5-100.4,92.7l0,0c-15.9,10-24.5,12.8-24.5,12.8c-2,0.9-0.6,2.3,0.4,3
					L524,621.8L678.8,24C679,22.9,679.1,21.7,679.1,20.6z"/>
				<path class="st1" d="M390.4,533.3c0,0,8.6-2.9,24.5-12.8l0,0c30.1-19.2,65.7-48.4,100.4-92.7l0.7-0.9c0.8-1.2,1.5-2.4,2.4-3.5
					c1.1-1.4,2.3-2.8,3.2-4.3c1.3-1.9,2.4-4.1,3.8-5.9c1.6-2.2,5.5-8.9,8.2-12.6c1-1.4,2.1-2.9,3-4.3c1.3-2.1,2.2-4.3,3.5-6.3
					c0.8-1.3,1.6-2.2,2.4-3.6c0.7-1.2,1.4-2.5,2-3.8c0.6-1.3,1.6-2.3,2.2-3.6c0.6-1.3,1.6-3.1,2.3-4.3c1.1-1.9,1.9-3.1,3-4.9
					c0.8-1.2,1.2-2.5,1.7-3.8c0.8-1.7,2.1-3.2,2.9-4.9c0.4-1.1,0.8-2.1,1.1-3.2c0.8-1.6,2-2.9,2.7-4.6c0.4-0.8,0.6-1.6,1-2.5
					c0.7-1.5,1.6-2.8,2.3-4.3c0.5-1.1,0.8-2.4,1.3-3.5c0.5-1.2,1.5-2.2,2.1-3.4c0.5-1,0.7-2.2,1.1-3.3c0.9-1.9,2.1-3.8,3-5.8
					c1.2-2.7,1.7-5.6,2.8-8.3c0.7-1.5,1.3-3.2,2-4.8c0.6-1.2,1.3-2.4,1.8-3.6c0.5-1.1,0.5-2.2,1-3.3c0.6-1.4,1.5-2.7,2.1-4.1
					c0.3-1,0.4-2,0.7-3c0.3-0.9,0.9-1.7,1.3-2.6c0.5-1,0.5-2.1,0.9-3c0.4-0.9,0.9-1.8,1.2-2.7c0.3-0.9,0.4-1.7,0.8-2.5
					c0.4-0.8,1-1.6,1.4-2.5c0.4-1,0.4-2.1,0.8-3.1c0.4-0.9,0.8-1.9,1.2-2.8c0.5-1.1,0.3-2.6,0.7-3.8c0.3-0.8,0.8-1.6,1.1-2.3
					c0.4-1,0.5-2,1-2.9c0.3-0.7,0.8-1.5,1.1-2.2c0.6-1.6,0.9-3.2,1.4-4.8c0.3-1,0.2-2,0.5-3c1.3-3.8,2.6-8.1,3.9-11.8
					c0.7-2.1,0.8-4.3,1.6-6.4c0.6-1.9,1.4-4,2-6c0.4-1.1,0.3-2.5,0.6-3.5c0.3-1.1,0.6-2.2,0.9-3.4c0.2-0.8,0.1-1.5,0.3-2.3
					c0.5-1.4,0.9-2.9,1.3-4.3c0.3-0.8,0.2-1.4,0.4-2.2c0.4-1.2,0.7-2.6,1.1-3.7c0.5-1.4,0.5-3.1,1-4.7c0.2-0.7,0.5-1.6,0.8-2.4
					c0.4-1.6,0.4-3,0.9-4.6c0.5-1.5,1-2.8,1.4-4.5c0.2-0.9,0.2-1.8,0.3-2.7c0.1-0.7,0.6-2.3,0.6-3.5c0.1-1.4-1.1-1.8-1.6-0.6
					c-0.4,1-0.4,2.2-0.8,3.3c-0.8,2.2-1.6,4.9-2.2,7.2c-0.3,1-0.2,1.9-0.4,2.8c-0.9,3-2,6.2-3,9.2c-0.7,2.4-0.7,4.9-1.4,7.3
					c-0.6,2.2-1.3,4.5-1.9,6.5c-0.3,0.9-0.2,1.9-0.4,2.8c-1.2,4.1-3,8.1-4.4,12c-0.6,1.8-0.7,3.8-1.3,5.5c-0.5,1.3-1.1,2.7-1.5,4.1
					c-0.4,1.1-0.5,2.1-1,3.1c-0.9,2-1.9,4.3-2.7,6.5c-0.3,0.8-0.3,1.6-0.6,2.5c-0.3,1-0.8,2-1.2,3c-0.8,2.4-1.2,4.6-2.1,7
					c-0.9,2.6-2.2,5.1-3.3,7.5c-0.5,1.3-0.8,2.8-1.4,4c-0.3,0.8-0.9,1.5-1.3,2.3c-0.3,0.7-0.4,1.5-0.7,2.2c-0.8,2-1.6,4.2-2.6,6
					c-0.7,1.2-1,2.7-1.7,4c-0.4,0.9-1,1.9-1.5,2.8c-0.7,1.6-1,3.2-1.7,4.8c-1.4,2.9-3.1,5.7-4.5,8.7c-0.9,2-1.1,3.3-2.6,4.7
					c-0.3,0.3-0.9,1.2-1.4,1c-0.3-0.1-0.3-0.3-0.4-0.5c0-2.7,0.6-3.7,1.5-5.6c0.6-1.3,0.7-2.7,1.4-4c0.6-1.4,1.6-2.6,2.2-4.1
					c0.3-0.9,0.4-1.7,0.8-2.5c0.9-2.1,2.1-4.5,2.9-6.7c0.5-1.5,0.6-3,1.3-4.4c0.6-1,1.4-2.3,1.7-3.1c0.3-1,0.7-2,1-3
					c0.5-1.2,1.2-2.3,1.7-3.5c0.6-1.3,0.8-2.7,1.3-4.1c0.8-2,1.6-4,2.4-6c0.6-1.4,0.7-3,1.3-4.6c0.7-1.8,1.7-3.3,2.4-5.1
					c0.5-1.1,0.5-2.2,0.8-3.3c0.7-2.1,1.4-4.5,2-6.6c0.3-0.9,0.2-1.7,0.5-2.6c0.7-2.1,1.2-4.5,2-6.7c0.7-1.9,1.4-4,2-5.8
					c0.3-1.2,0.4-2.6,0.7-3.6c0.4-1.2,0.9-2.3,1.3-3.4c0.7-1.9,0.8-3.9,1.4-5.8c0.4-0.9,0.8-1.8,1-2.8c0.2-0.8,0.3-1.5,0.5-2.3
					c0.2-1,0.6-2,0.9-3.2c0.2-0.8,0.3-1.6,0.4-2.3c0.2-0.8,0.6-1.9,1.1-3.5c0.1-0.6,0.2-1.2,0.4-1.8c0.7-2.1,1.4-4.8,1.9-7
					c0.2-0.6,0.1-1,0.3-1.6c0.2-1.1,0.6-2.3,0.8-3.4c0.1-0.5,0-1.1,0.1-1.6c0.4-1.6,1.2-3.4,1.4-4.9c0.3-1.8,0.5-3.7,0.8-5.4
					c0.3-1.5,0.8-3.1,1.2-4.6c0.4-1.5,0.4-2.9,0.8-4.2c0.3-1.1,0.6-2.3,0.9-3.4c0.3-1.3,0.2-2.6,0.4-3.8c0.3-1,0.5-2,0.8-3.1
					c0.3-1,0-2,0.3-2.9c1-3.3,1.4-6.9,2.3-10.2c0.6-2.2,0.5-4.7,1.1-7c0.2-0.8,0.1-1.4,0.3-2.1c0.1-0.4,0.2-0.8,0.3-1.2h0
					c0-0.1,0-0.1,0-0.1c0,0,0-0.1,0-0.1c0-0.1,0-0.2,0.1-0.3c0.2-0.8,0.3-1.7,0.3-2.6v-0.1c0.3-1.9,0.5-3.9,0.7-5.9
					c0.1-1.1,0.5-2.3,0.6-3.4c0.2-2.1,0-4.1,0.3-6.1c0.1-1.1,0.5-3.4,0.4-5.2c-0.1-0.7,0.1-1.7-0.7-1.7c-0.8,0-0.8,1.1-0.9,1.7
					c-0.1,1-0.1,2.1-0.2,3.2c-0.2,1.8-0.6,3.3-0.8,5c-0.1,1.1-0.3,2.2-0.3,3.3c-0.2,1.6-0.4,3.3-0.6,5c-0.2,1.4-1,4.9-1.3,6.6
					c0,0.1-0.1,0.2-0.1,0.3c-0.2,1.4-0.2,2.8-0.4,4.2c-0.1,0.9-0.5,1.8-0.8,2.7c-0.2,0.9-0.3,1.8-0.4,2.7c-0.1,1.2-0.2,2.4-0.4,3.6
					c-0.7,3.3-2,7.4-2.8,10.8c-0.1,0.8-0.2,1.6-0.3,2.5c-0.1,0.5,0,0.9-0.1,1.5c-0.3,1.3-0.7,2.5-1,3.8c-0.2,1-0.3,2.1-0.5,3.2
					c-0.4,1.9-1.2,4.1-1.7,6c-0.2,0.8-0.2,1.4-0.3,2.1c-0.7,2.3-1.4,5.2-2.1,7.6c-0.3,0.9-0.3,1.9-0.5,2.9c-0.5,1.5-1,3-1.4,4.5
					c-0.2,0.8-0.2,1.4-0.3,2.2c-0.5,1.6-0.7,3.5-1.1,5.1c-0.2,0.7-0.2,1.2-0.3,1.8c-0.6,1.8-1.3,3.3-1.8,5.3
					c-0.3,1.4-0.5,2.9-0.8,4.4c-0.3,1-1,1.8-1.4,2.7c-0.3,0.7-0.3,1.4-0.6,2.2c-0.5,1.5-1,3-1.6,4.5c-0.2,0.7-0.3,1.4-0.5,2.2
					c-0.4,1.2-0.9,2.3-1.2,3.5c-0.4,1.3,0.1,2.6-0.4,3.7c-0.4,1-1.2,1.8-1.6,2.8c-0.6,1.2-0.5,2.8-0.9,4.1c-0.7,1.9-1.8,3.5-2.4,5.3
					c-0.3,0.8-0.4,1.6-0.6,2.4c-0.3,0.9-0.7,1.8-1,2.8c-0.5,1.7-0.6,3.2-1.3,4.8c-0.5,1-1.2,1.9-1.6,3c-0.4,0.9-0.5,1.9-0.8,2.9
					c-0.5,1.5-1.4,2.8-2,4.1c-0.5,1.1-0.6,2.2-1,3.2c-0.6,1.3-1.4,2.5-2,3.9c-0.8,2.4-1.1,4.9-2,7.1c-2.1,4.8-4.7,9.4-6.9,14.3
					c-0.5,1.2-0.6,2.6-1.2,3.8c-0.7,1.7-1.8,3.1-2.6,4.8c-0.3,0.5-0.4,1-0.6,1.6c-0.3,0.7-0.8,1.5-1.2,2.2c-1.4,2.5-1.7,6.1-3.6,8
					c-0.6,0.6-1.6,1.4-2.1,1.3c-0.1-0.1-0.1-0.2-0.2-0.3c-0.3-0.7,0.3-2.4,0.5-2.8c0.7-1.6,1.8-3.3,2.6-4.9c0.4-0.8,0.5-1.7,0.8-2.6
					c0.6-1.4,1.3-2.7,1.9-4c0.8-1.7,1.2-3.5,1.9-5.1c1.4-3,3.1-6.1,4.4-9.1c0.3-0.7,0.3-1.3,0.6-2c0.4-1.1,0.9-2.3,1.4-3.4
					c0.5-1.2,0.6-2.3,1-3.4c0.5-1.2,1.3-2.4,1.8-3.6c0.6-1.3,1.2-2.7,1.7-4.1c0.3-0.8,0.3-1.6,0.6-2.5c0.7-1.9,1.8-3.6,2.4-5.6
					c0.1-0.7,0.2-1.3,0.4-2c0.5-1.5,0.8-3.1,1.4-4.7c0.5-1.4,1.4-2.4,1.9-3.7c0.4-1.2,0.3-2.8,0.7-3.9c0.5-1.3,1.3-2.6,1.8-4.1
					c0.5-1.7,0.6-3.3,1.1-4.9c0.5-1.5,1.5-2.8,2-4.4c0.5-1.4,0.7-3.3,1.1-4.8c0.2-0.9,0-1.7,0.3-2.5c0.4-0.7,0.7-1.3,1-2.2
					c0.4-1.3,0.4-2.5,0.7-3.7c0.8-2.2,1.6-4.8,2.2-7.2c0.3-1.1,0.1-2.2,0.5-3.2c0.4-1.1,0.8-2.2,1.1-3.4c0.3-1,0.3-2,0.4-3
					c0.2-0.8,0.6-1.5,0.8-2.3c0.2-0.7,0.1-1.4,0.3-2.1c0.2-0.9,0.6-1.8,0.8-2.8c0.1-0.8,0.1-1.6,0.3-2.4c0.2-0.9,0.8-1.7,1.1-2.6
					c0.3-1,0.4-2.1,0.6-3.1c0.3-1.1,1-2.2,1.3-3.3c0.5-1.9,0.8-3.9,1.2-5.8c0.2-0.9,0.2-1.8,0.4-2.7c0.2-1.1,0.6-2.2,0.9-3.4
					c0.1-0.8,0.1-1.4,0.2-2.3c0.3-1.3,0.8-2.4,1.1-3.7c0.2-0.9,0.1-1.4,0.3-2.3c0.1-0.9,0.7-3.6,0.8-4.3c0.1-0.7,0.1-1,0.3-1.7
					c0.1-0.7,0.8-3.2,0.9-3.7c0.1-0.5,0-0.8,0.1-1.6c0.1-0.7,0.3-2,0.5-3.1c0.2-1.1,0.2-2.9,0.3-3.5c0.1-0.7,1.1-2.6,1.5-4
					c0.3-1,0.1-2,0.4-3.1c0.3-1.3,0.6-2.7,1-3.9c0.2-0.9,0-2,0.2-2.9c0.4-1.5,0.9-3.1,0.6-4.8c-0.3-1.6,0.4-3.1,0.7-4.2
					c0.2-0.5,0.3-1.1,0.3-1.7c0-0.5,0-1,0-1.5c0.1-0.6,0.1-0.8,0.3-1.5c0.2-0.7,0.2-0.9,0.2-1.3c0-0.8,0-1.4,0-2
					c0-0.4,0.2-1.3,0.3-1.8c0.1-0.4,0.3-1.2,0.3-1.5c0.1-0.9,0.1-1.1,0.2-2c0-0.6,0.1-2.2,0.2-2.9c0.3-1.2,0.5-2.3,0.8-3.5
					c0.3-1.1,0-1.6-0.6-1.7c-0.8-0.1-1.2,1.4-1.7,3.1c-0.1,0.6-0.1,1.3-0.2,1.9c-0.3,1-0.6,2.8-0.7,4.5c-0.1,1.2-0.4,2.6-0.5,3.5
					c-0.1,0.6-0.1,2.2-0.2,3.1c-0.1,0.5-0.3,1.7-0.6,2.5c-0.4,1-0.7,2-1.1,3.1c-0.4,1.4-0.1,3-0.5,4.5c-0.3,1.2-0.8,3-1,3.7
					c-0.1,0.7-0.1,2.2-0.3,3c-0.1,0.7-0.8,3.3-1,4.5c-0.2,1.2-0.2,1.8-0.3,2.4c-0.1,0.6-0.9,2.8-1,3.3c-0.1,0.6-0.1,2.4-0.3,3.4
					c-0.2,1-1.7,6.2-1.9,7.1c-0.2,0.9-0.1,2.3-0.4,3.4c-0.2,1.2-0.6,1.8-0.8,2.8c-0.5,1.5-0.5,3.2-0.8,4.6c-0.4,1.4-0.3,2.7-0.6,4
					c-0.8,2.5-1.7,5.6-2.2,7.9c-0.3,1-0.3,2.1-0.5,3.2c-0.6,2.1-1.4,4.2-2,6.3c-0.8,3-0.9,6.3-1.9,9.3c-0.8,2.7-1.6,5.5-2.4,8.1
					c-0.2,1-0.3,2.2-0.6,3.3c-0.5,1.4-1.1,2.6-1.6,3.9c-0.3,1-0.4,2.1-0.7,3.1c-0.5,1.2-1,2.5-1.4,3.7c-0.3,1.1-0.4,2.1-0.7,3.2
					c-0.5,1.4-1,2.9-1.4,4.3c-0.3,0.8-0.3,1.6-0.6,2.4c-0.4,1-0.8,2-1.2,2.9c-0.3,0.6-0.4,1.2-0.6,1.8c-0.3,0.8-0.7,1.7-1,2.5
					c-0.2,0.6-0.3,1.2-0.5,1.8c-0.5,1.1-1.1,2.1-1.6,3.2c-0.5,1-0.8,2.2-1.2,3.3c-0.3,1-0.2,1.8-0.6,2.6c-0.5,0.9-1,1.6-1.4,2.5
					c-0.3,0.7-0.5,1.5-0.7,2.2c-0.4,0.8-1,1.4-1.4,2.2c-0.4,1-0.3,2.3-0.6,3.4c-0.3,0.8-0.7,1.5-1,2.2c-0.5,1.1-0.9,2.5-1.3,3.6
					c-0.2,0.5-0.3,1-0.5,1.6c-0.6,1.4-1.4,2.6-2.2,3.8c-0.5,0.7-1.2,1.8-1.9,1.6c-0.3-0.1-0.3-1.3-0.2-1.8c0.5-1.7,0.5-3.6,1.1-5.1
					c0.4-1,0.8-2.2,1.3-3.2c0.3-0.5,0.8-1.2,1-1.7c0.3-0.9,0.6-1.8,1-2.7c0.3-0.8,0.9-1.5,1.2-2.4c0.3-1,0.3-2.2,0.6-3.2
					c0.4-1,1-1.9,1.3-3c0.3-1.1,0.1-2.4,0.5-3.4c0.5-0.9,1.2-2,1.5-2.7c0.3-0.8,0.4-1.5,0.6-2.2c0.3-0.9,0.8-1.9,1.1-2.9
					c0.5-1.4,0.6-2.9,1.1-4.3c0.6-1.7,1.3-3.7,2-5.2c0.4-0.9,0.4-1.9,0.7-2.9c0.5-1.1,1.1-2.3,1.5-3.4c0.3-1,0.4-1.9,0.6-2.9
					c0.1-0.5,0.5-1.1,0.8-1.6c0.3-0.9,0.2-1.8,0.5-2.8c0.2-0.6,0.5-1.3,0.7-2c0.1-0.8,0.2-1.6,0.4-2.4c0.6-1.7,1.1-3.3,1.6-5
					c0.2-0.7,0.2-1.4,0.4-2.2c0.4-1.6,0.7-3.3,1.2-5c0.2-0.8,0.2-1.5,0.3-2.2c1.4-4.6,2.4-9.5,3.7-14.1c0.2-0.8,0.2-1.6,0.4-2.3
					c1.6-5.3,2-11.8,3.4-17.3c0.2-1,0.1-2.6,0.2-3.7c0.2-1,0.7-1.9,0.9-2.8c0.3-0.9,0.1-1.8,0.4-2.8c0.3-1.1,0.7-2.2,0.9-3.4
					c0.2-1.4,0.2-3.1,0.4-4.4c0.2-1,0.9-2.1,1.1-3c0.1-0.9,0-1.8,0.1-2.6c0.3-1.8,0.5-4.5,1.1-6.5c0.3-0.9,0.1-1.6,0.3-2.6
					c0.3-1.1,0.4-2.3,0.5-3.7c0-0.9,0.2-1.5-0.5-1.7c-0.6-0.1-1,0.7-1.3,1.7c-0.1,0.6-0.1,1.1-0.3,1.7c-0.4,1.2-0.8,2.5-1.2,3.9
					c-0.3,1.2,0.1,2.7-0.2,3.9c-1.8,6-2.6,13-4.2,19.3c-0.2,0.9-0.4,1.9-0.6,2.8c-0.9,3.3-1.2,7.1-2.2,10.2c-0.3,1-0.3,2.4-0.5,3.4
					c-0.8,2.6-1.2,5.4-2.1,8c-0.4,0.9-0.8,1.8-1,2.8c-0.2,0.9-0.3,1.8-0.5,2.7c-0.4,1.3-0.9,2.6-1.3,3.9c-0.2,0.8-0.2,1.8-0.4,2.6
					c-0.6,2-0.9,4-1.5,6c-1.4,4.4-2.8,9.1-4.3,13.4c-0.2,0.7-0.3,3.1-0.5,4.1c-0.4,1.4-1,2.8-1.5,4.2c-0.3,1.3-0.5,2.9-0.9,3.9
					c-0.3,0.8-0.8,1.7-1.1,2.5c-0.5,1-0.6,2.1-1,3.2c-0.5,1.3-1.1,2.7-1.7,4c-0.7,1.7-1,3.4-1.7,5c-0.5,1.1-1.1,2.4-1.5,3.5
					c-0.3,0.9-0.6,3.2-0.9,4.2c-0.6,1.5-1.2,3.1-1.8,4.6c-0.3,1-0.4,1.8-0.9,2.7c-0.6,1.3-1.4,2.6-2,4c-0.7,1.5-0.9,3.1-1.6,4.7
					c-1.2,2.7-2.7,5.6-4.1,8.1c-0.7,1.2-1,2.6-1.6,3.9c-0.4,0.7-1,1.4-1.4,2.2c-0.8,1.5-1.2,3.2-2,4.7c-0.4,0.7-1,1.4-1.3,2.2
					c-0.6,1.4-0.7,3-1.3,4.4c-0.5,1.1-1.3,2.2-1.8,3.3c-0.5,1.2-0.9,2.5-1.6,3.6c-0.4,0.6-1,1.3-1.4,1.9c-0.7,1.1-1.4,3.5-2.5,5.2
					c0,0,0,0.1,0,0.1c-0.2,0.5-1,1.4-1.2,1.9c-0.2,0.5-0.2,0.4-0.6,1.1c-0.2,0.4-0.5,1-0.6,1.5c-0.2,0.6-0.4,1.2-0.6,1.5
					c-0.8,1.5-1.9,2.8-2.6,4.3c-0.9,2-1.1,5.8-3.8,5.8c-0.6-0.1-0.4-2.7,0.1-3.8c0.6-1.4,1.8-2.5,2.4-3.8c0.6-1.4,0.7-3.1,1.5-4.4
					c0.2-0.2,0.3-0.4,0.5-0.6c0.3-0.4,0.8-0.9,0.9-1.1c0.2-0.3,0.8-1.3,1-1.8c0.1-0.3,0.3-0.8,0.4-1.2c0-0.2,0.1-0.4,0.1-0.5
					c0-0.1,0.1-0.1,0.1-0.1c0.4-0.9,1.1-1.8,1.5-2.7c0.4-0.8,0.5-1.5,0.8-2.3c0.8-1.9,1.9-3.6,2.7-5.4c0.5-1.2,0.6-2.5,1.2-3.5
					c0.7-1.1,1.7-2.1,2.3-3.3c0.6-1.2,0.6-2.7,1.2-3.9c0.3-0.7,0.9-1.4,1.3-2.1c0.4-0.9,0.8-2,1.1-2.9c0.7-2,1.7-3.5,2.3-5.4
					c0.6-1.6,0.8-3.3,1.6-4.8c0.6-1.2,1.4-2.4,1.8-3.7c0.3-1.3,0.7-2.7,1.1-4c2.2-6,4.4-12,6.6-18c0.5-1.5,0.7-3,1.3-4.6
					c1-2.8,1.9-5.8,3-8.6c0.4-1.4,0.6-2.8,1-4.2c0.2-0.7,0.1-1.2,0.3-1.9c0.5-1.4,1.3-2.7,1.8-4.1c0.7-2.1,1.2-4.1,1.8-6.1
					c0.3-0.8,0.3-1.4,0.5-2.2c0.4-1,1-1.8,1.2-3c0.2-1.2,0.3-2.5,0.5-3.7c0.8-2.8,1-6,2-8.6c1.2-2.9,1.8-6.7,2.6-9.9
					c0.3-1.1,0.1-2.6,0.3-3.5c0.6-2,1.3-4.3,1.9-6.4c0.2-0.6,0.3-1.3,0.3-1.9c0-0.7,0-1.5,0.1-2.1c0.3-1.3,0.8-2.6,1-4.1
					c0.1-0.6,0.2-1.2-0.4-1.4c-0.6-0.2-1,0.5-1.2,1.1c-1.4,3.1-1.9,7.3-2.9,10.7c-0.2,0.8-0.3,1.9-0.5,2.6c-0.8,2.4-1.4,5.1-2.1,7.5
					c-0.2,0.8-0.2,1.4-0.5,2.2c-0.2,0.5-0.5,1.2-0.7,1.7c-0.3,1-0.3,2.4-0.6,3.2c-1,3.3-2,6.5-3.1,9.8c-0.2,1.2-0.4,2.4-0.7,3.4
					c-0.4,1.1-0.8,2.2-1.2,3.3c-0.4,1.2-0.5,2.3-0.9,3.5c-1.4,3.8-2.5,7.8-3.8,11.6c-0.9,2.5-1.2,5-2.1,7.5c-0.6,1.6-1.4,2.9-2,4.4
					c-1.3,2.9-1.7,6.2-3,9c-0.6,1.1-1.1,2.2-1.7,3.3c-0.6,1.3-0.7,2.6-1.2,3.8c-1.4,3.2-2.9,6.6-4.4,9.8c-0.6,1.4-0.9,2.9-1.5,4.3
					c-0.5,0.9-1.1,1.9-1.6,2.8c-0.7,1.6-1.1,3.2-1.9,4.8c-0.6,1.2-1.5,2.2-2.1,3.4c-1.1,2.2-1.6,4.5-2.7,6.7c-1,2.1-2.5,3.9-3.4,6
					c-0.5,1-0.7,2.1-1.2,3.1c-0.4,0.8-0.9,1.7-1.4,2.5c-0.9,1.6-1.2,3.4-2.1,5.2c-0.7,1.6-2.1,2.6-2.8,4.1c-0.5,1-0.7,2.3-1.2,3.4
					c-0.6,1.3-1.6,2.3-2.3,3.4c-0.8,1.2-1.9,3.7-2.5,5c-1.1,2.4-2,3.5-3.5,5.6c-1.4,1.9-2.1,4.3-3.6,6.1c-0.5,0.6-2.4,2.4-3,2.2
					c-0.3-0.1,0.5-3.2,1-4.1c0.5-1,1.3-1.7,2-2.6c0.6-0.9,1-1.9,1.4-2.9c0.5-1.3,1.3-2.8,2-3.9c0.8-1.3,1.4-2.3,2.2-3.6
					c0.5-0.8,0.7-1.7,1.2-2.7c0.6-1.2,1.2-2.5,1.9-3.8c0.6-1,1.4-1.9,1.9-2.9c0.6-1.2,1.1-2.4,1.7-3.7c0.9-1.6,2-3.1,2.9-4.7
					c0.9-1.7,1.1-3.7,1.8-5.5c0.7-2.1,1.8-4,2.7-6c0.6-1.4,0.8-2.8,1.4-4c0.6-1.2,1.4-2.2,2.1-3.2c0.9-1.4,1.2-3,1.9-4.6
					c0.4-1,1.1-2,1.5-2.9c0.2-0.8,0.5-1.6,0.7-2.5c0.4-0.9,0.8-1.9,1.2-2.9c0.3-0.9,0.1-1.8,0.5-2.5c0.5-1.2,1.7-1.9,2.2-3.1
					c1.1-2.4,1.2-5.6,2.2-8.2c1-2.6,2.2-5.3,3.2-7.9c0.7-1.9,1.2-3.9,1.8-5.8c0.3-0.8,0.4-1.6,0.6-2.4c0.8-2.2,1.8-4.3,2.6-6.5
					c0.5-1.4,0.5-2.8,0.9-4.3c0.4-1.1,0.9-2.2,1.3-3.2c0.4-1,0.5-1.9,0.9-2.9c0.4-1.2,0.9-2.4,1.3-3.6c0.4-1,0.4-2.4,0.7-3.5
					c0.8-2.3,1.6-4.9,2.3-7.3c0.3-0.9,0.1-1.9,0.4-3c0.3-1.1,0.7-2.2,1-3.3c0.2-0.8,0.2-1.6,0.3-2.3c0.3-1.1,0.5-2.4,1-3.6
					c0.4-1.1,0.9-2.4,1-3.8c0-0.5,0-1.2-0.5-1.3c-0.5-0.1-0.8,0.3-1,0.8c-0.1,0.3-0.2,0.7-0.3,1c-0.7,1.8-1,3.8-1.7,5.7
					c-0.4,1-0.8,2.1-1.1,3.2c-0.5,1.4-0.4,2.9-0.9,4.2c-0.5,1.3-1,2.8-1.4,4.1c-0.4,1.2-0.5,2.2-0.9,3.4c-0.7,1.9-1.5,4.1-2.2,6
					c-0.5,1.3-0.4,3.1-0.8,4.5c-0.3,0.8-0.8,1.5-1.1,2.2c-0.6,1.4-1,3-1.6,4.3c-0.2,0.5-0.3,1-0.4,1.5c-0.5,1.4-1.2,2.9-1.7,4.3
					c-0.3,1-0.5,1.8-0.8,2.8c-0.8,2.1-1.7,4-2.5,6.1c-0.3,0.9-0.4,1.8-0.6,2.6c-1.7,4.8-4.1,9.6-6.1,14.2c-0.8,1.7-0.9,3.8-1.7,5.5
					c-0.5,1.1-1.4,2-1.9,3.1c-1.1,2.3-1.7,4.8-2.8,7.2c-0.5,1.2-1.4,2.3-1.9,3.4c-0.4,0.9-0.6,1.7-1.1,2.5c-0.3,0.5-0.7,0.9-0.9,1.4
					c-0.7,1.5-1.1,3-1.8,4.6c-1,2.1-2.3,4.2-3.6,6.1c-0.6,0.9-0.8,1.8-1.4,2.7c-0.5,0.8-1.2,1.7-1.6,2.7c-1.1,2.3-2.2,4.5-3.2,6.7
					c-0.6,1.2-1,2.4-1.7,3.5c-1.2,1.9-2.8,3.7-3.8,5.7c-0.4,0.8-1.2,2.3-1.6,3.1c-0.7,1.7-1.9,2.7-2.5,3.5c-0.5,0.6-2.1,1.5-2.3,1.3
					c-0.2,0,0.6-3.1,0.8-3.6c0.7-1.7,0.6-1.9,1.5-3.1c1.1-1.4,1.6-2.9,2.5-4.5c0.4-0.7,0.6-1.5,1-2.2c0.8-1.3,1.7-2.6,2.4-4
					c1.3-3.1,2.1-6.6,4-9.2c2-2.8,3.4-6,5-9.3c0.6-1.2,1.5-2.2,2.1-3.4c0.2-0.5,0.4-1.1,0.6-1.6c0.4-0.8,0.9-1.7,1.3-2.6
					c0.5-1,0.6-2.1,1-3.1c1.8-4.1,3.5-8.5,5.1-12.8c0.3-0.7,0.3-1.3,0.5-2c0.5-1.4,1.2-2.8,1.9-4.1c0.7-1.6,1.3-3.3,2-4.9
					c0.3-0.7,0.4-1.4,0.7-2.1c0.3-0.8,0.9-1.6,1.3-2.4c0.3-1.4,0.7-2.9,1.1-4.3c0.9-2.5,1.9-5,2.9-7.5c0.3-0.9,0.7-1.9,1-2.8
					c0.2-1,0.4-2.1,0.6-3.1c0.7-2.1,1.4-4,2.1-6c0.5-1.4,0.5-2.9,1-4.4c0.2-0.8,0.6-1.7,0.8-2.5c0.1-0.7,0.3-1.4,0.4-2.1
					c0.3-1.4,0.5-1.8,0.9-3.5c0.3-1.3-0.9-1.7-1.4-0.5c-0.9,2.5-1.8,5-2.7,7.5c-0.3,1-0.4,2.1-0.6,2.9c-1.8,4.9-3.4,10.2-5.3,14.8
					c-0.5,1.4-0.9,2.9-1.4,4.3c-0.5,1.2-1.2,2.4-1.8,3.7c-0.1,0.4-0.2,0.8-0.3,1.2c-0.5,1.4-1,2.8-1.5,4.2c-1.2,2.6-2.6,5.4-3.8,8.1
					c-0.5,1.1-0.7,2.2-1.2,3.4c-0.8,2.2-1.7,4.3-2.6,6.4c-1.4,2.9-3.3,5.7-4.6,8.6c-0.5,1-0.6,2.1-1.1,3.2c-0.4,0.8-1,1.7-1.4,2.5
					c-0.7,1.6-1.2,3.1-1.9,4.6c-0.7,1.4-1.7,2.7-2.5,4.1c-0.9,1.6-1.4,3.3-2.3,4.8c-0.9,1.4-1.9,2.7-2.8,4.1
					c-1.4,2.1-2.1,4.6-3.4,6.7c-1.1,1.8-2.6,3.3-3.7,5.1c-0.7,1.1-1,2.2-1.7,3.3c-1.5,2.4-3,4.9-4.5,7.3c-0.5,0.7-0.7,1.5-1.1,2.4
					c-0.4,0.9-1.1,1.8-1.6,2.6c-0.3,0.5-0.4,0.9-0.7,1.4c-0.7,1-1.6,1.9-2.3,2.9c-1.5,2-2.5,4.3-3.9,6.2c-1.3,1.8-3,3.4-4.3,5.2
					c-0.8,1.1-1.4,2.4-2.3,3.5c-0.4,0.6-1.1,1-1.6,1.7c-1.1,1.4-1.7,3.3-2.7,4.8c-0.3,0.5-0.7,1-1.1,1.5c-0.3,0.4-4,4-4.3,4.4
					c-1.4,1.8-2.8,3.9-4.4,5.4c-0.6,0.6-4.5,4.8-5.3,4.3c-0.3-0.4,1.2-2.5,1.7-3.4c1.4-2.9,4.5-6.1,6.2-8.3c1.1-1.4,5-6.5,6.1-8
					c0.7-0.9,1.8-1.6,2.5-2.5c1-1.4,1.7-2.9,2.6-4.2c0.8-1.1,1.9-2,2.7-3.1c0.7-1,1.1-2.2,1.7-3.3c0.5-0.8,1.2-1.6,1.6-2.3
					c0.4-0.6,0.5-1.2,0.8-1.8c1.3-2,2.9-3.9,4.1-6c0.8-1.4,1-3.3,1.9-4.7c1-1.6,2.5-2.9,3.6-4.6c1-1.6,1.6-3.5,2.6-5.2
					c3.7-5.8,6.7-12,9.8-18.5c0.6-1.2,1.6-2.3,2.2-3.6c0.6-1.2,0.8-2.6,1.3-3.9c0.2-0.6,0.7-1.2,1-1.7c0.6-1,1-2,1.5-3.1
					c0.9-1.8,1.7-3.8,2.6-5.7c0.5-1.1,1.3-2.2,1.7-3.3c0.9-2,1.4-4.1,2.3-6.1c0.5-1,1.4-3,1.9-4.8c0.3-0.9,0.2-1.4-0.2-1.7
					c-0.4-0.3-1,0.2-1.3,0.8c-0.5,1-0.8,2.1-1.3,3.3c-0.7,1.7-1.9,3.2-2.7,4.8c-0.4,1.1-0.7,2.1-1.2,3.2c-0.7,1.6-1.4,3.2-2.2,4.8
					c-0.7,1.5-1.7,2.8-2.4,4.2c-1.3,2.8-2.6,5.4-4.2,8c-0.4,0.6-0.6,1.2-0.9,1.9c-0.6,1-1.2,2.1-1.7,3.2c-0.4,0.8-0.6,1.6-1,2.3
					c-0.6,0.9-1.6,1.6-2.2,2.6c-0.5,0.8-0.7,1.6-1.2,2.4c-1.3,2.1-2.6,4.4-3.9,6.5c-0.4,0.7-0.6,1.4-1,2.1c-1.6,2.6-3.5,5.2-5.1,7.8
					c-0.7,1-0.8,2.4-1.5,3.4c-0.8,1.2-1.9,2.3-2.7,3.5c-0.5,0.7-0.7,1.4-1.2,2.1c-0.6,0.9-1.4,1.8-2,2.7c-0.4,0.7-0.7,1.4-1.2,2.1
					c-0.6,0.8-1.4,1.6-2.1,2.4c-1.5,2.1-2.8,4.2-4.3,6.2c-0.4,0.5-0.8,0.8-1.2,1.2c-1,1-1.8,2.2-2.7,3.3c-0.5,0.6-1.1,1-1.6,1.6
					c-1.3,1.6-2.2,3.6-3.4,5.3c-0.8,1.2-2.2,2-3.4,3.3c-1.6,1.6-5.4,5.8-7.3,5.6c-0.6,0,2.8-4.7,4.1-6.4c0.9-1,1.2-1.7,2.4-2.8
					c1-1,1.7-2.5,2.6-3.8c0.7-0.9,1.6-1.7,2.2-2.6c1.2-1.7,2.3-3.4,3.4-5.1c0.7-1,1.6-2,2.2-3c0.9-1.3,1.3-2.8,2.2-4.1
					c0.7-1.1,1.7-2,2.4-3.1c0.7-1.3,1.4-2.6,2.2-4c1.2-1.9,2.6-3.6,3.9-5.5c0.6-1.1,1.2-2.3,1.8-3.5c0.9-1.4,2-2.8,2.9-4.5
					c0.5-0.9,1.1-2.1,1.6-2.7c0.6-0.8,1.3-2.8,1.7-3.6c0.4-0.7,1-1.7,1.6-2.6c0.6-0.8,1.3-2.4,1.7-3.1c0.9-1.4,1.2-2.2,2.1-3.7
					c0.5-0.9,0.5-0.7,1-2c0.1-0.4,0.3-1-0.2-1.3c-0.6-0.2-1.3,0.5-2,1.4c-1.1,1.5-1.4,2.2-2.4,3.8c-0.3,0.4-1.1,1.5-1.5,2.2
					c-0.4,0.6-0.7,1.4-1.3,2.2c-0.6,0.8-0.9,1.6-1.7,2.9c-0.8,1.2-1.4,2.2-2,3.1c-0.7,0.9-1.1,2-1.3,2.3c-1.1,1.8-1.9,3.5-3,5.2
					c-0.9,1.2-1.9,2.5-2.7,3.8c-0.4,0.6-0.6,1.3-1.1,1.9c-0.8,1-1.8,1.7-2.5,2.8c-1.6,2.4-2.6,5.1-4.3,7.4c-1.6,2.2-4.1,3.8-5.8,6.1
					c-1.2,1.6-2.2,3.3-3.4,5c-0.6,0.8-1.4,1.4-1.9,2.2c-1.3,1.6-2.5,3.2-3.7,4.8c-0.4,0.5-1,0.9-1.5,1.3c-0.4,0.3-0.7,0.8-1.1,1
					c-1.1,0.8-1.8,1.5-2.9,2.4c-1,0.7-2.1,2.8-3,3.9c-0.5,0.6-1.3,1.1-1.9,1.7c-0.5,0.6-1,1.2-1.6,1.7c-1.8,1.6-4.1,3.2-5.9,5
					c-2.5,2.5-3.3,2.6-5.5,5.5c-0.5,0.5-1.9,2.1-2.4,2.6c-0.7,0.9-2.6,2.2-2.9,2.4c-1.2,0.9-1.4,1.3-2.7,2.2c-1.6,1-4.2,3.3-5.3,3.1
					c-0.2-0.1,0.5-2,2.1-4c0.6-0.8,2.3-2.4,2.8-3.1c0.9-1.1,1.8-1.9,3-2.8c1.9-1.4,2.9-2.5,4.4-4.3c0.6-0.7,1.9-1.8,2.4-2.5
					c0.7-0.9,1.5-2.2,2.4-2.9c0.8-0.7,2.2-1.4,3-2.3c1.3-1.7,2.9-3.4,4.4-5.2c0.6-0.6,1.1-1.2,1.7-1.6c0.7-0.6,1.5-1.4,2.2-2.2
					c0.4-0.4,0.9-0.9,1.3-1.3c0.3-0.3,0.5-0.7,0.8-1c0.2-0.3,0.4-0.6,0.7-0.9c0.6-0.6,1-1.3,1.4-1.9c0.4-0.6,0.8-1.2,1.3-1.7
					c0.2-0.3,0.5-0.5,0.8-0.8c0.8-0.8,1.6-1.6,2.3-2.6c0.3-0.4,0.6-0.9,0.8-1.4c0.2-0.3,0.3-0.6,0.5-0.9c0.1-0.1,0.1-0.2,0.3-0.3
					c0.5-0.6,1.2-1.7,1.7-2.6c0.4-0.8,0.2-1.5-0.1-1.7c-0.1-0.1-0.6-0.3-1.1,0.3c-0.3,0.4-0.6,0.9-0.9,1.3c-0.3,0.5-0.6,0.9-1,1.4
					c-0.6,0.7-1.2,1.2-1.6,1.7c-0.7,0.7-1.3,1.4-2.3,2.4c-0.3,0.3-0.8,1-1.3,1.7c-0.6,0.8-1.1,1.5-1.4,1.9c-1.1,1-1.5,1.4-1.8,1.7
					c-0.3,0.3-0.6,0.6-1.4,1.4c-0.8,0.9-1.1,1.3-1.4,1.7c-0.4,0.5-0.7,0.9-1.6,1.8c-1.6,1.2-3.4,2.9-4.5,4.4
					c-0.8,0.8-2.2,1.7-2.9,2.5c-1,1.1-1.9,1.9-2.8,3c-0.7,0.7-1.8,1.6-2.7,2.2c-1.5,1-2.8,2.3-4.2,3.3c-1.3,0.9-2.3,2.2-3.6,3.1
					c-2,1.4-3.2,2.5-5.2,3.9c-0.8,0.6-2.1,1.7-2.8,2.2c-1.2,0.9-2.4,2.1-3.6,3c-1.3,1.1-2.6,2.2-3.9,3.4c-0.5,0.6-1.5,1.1-2.1,1.6
					c-1.1,0.8-2.3,1.8-3.6,2.6c-1.3,0.8-2.1,1.3-3.1,2c-1.8,1.2-2.9,2.2-4.6,3.3c-0.8,0.6-2.5,1.5-3.5,2c-1.6,1-2.2,1.2-3.3,2.1
					c-1.9,1.4-3.1,2.3-5.1,3.6c-1.4,0.8-3.2,1.7-4.6,2.6c-1.3,0.8-2.3,1.6-3.9,2.3c-1.2,0.5-2.8,1.5-3.9,2.1c-1.8,1.1-3.2,1.9-5,3
					c-0.9,0.5-9.8,5.2-9.8,5.2c-21.8,11.9-46.8,22.2-72.7,31.2c-27.7,9.6-50.7,12.9-68.6,14.5c-19.7,1.8-43.7-1.7-45.9,6.5
					c-2.4,8.8,19.3,26.3,83.8,57.1c56.1,26.7,143.7,62.2,262,104.9c1.1-1.6,1.9-3.1,2.4-4.3l2.6-10.1l-133.3-85.6
					C389.7,535.6,388.4,534.1,390.4,533.3z M551.2,303.4c0.2-0.7,0.5-1.4,0.8-2c0.7-1.2,1.8-2.2,2.4-3.4c1-1.8,1.3-3.8,2.3-5.6
					c0.4-0.9,1.2-1.6,1.8-2.4c0.3-0.3,0.3-0.7,0.6-1c0.3-0.3,0.6-0.5,1-0.8c0.2-0.2,0.6-0.3,0.7-0.1c0.5,1.2-0.2,2.9-0.7,3.8
					c-1.2,2.2-2.6,4.7-3.8,6.9c-0.3,0.7-0.4,1.4-0.7,2.1c-0.3,0.6-0.7,1.3-1.1,1.9c-0.7,1.1-1.3,3.1-3.2,3.2c-0.3,0-0.3-0.4-0.3-1
					C551,304.6,551,303.9,551.2,303.4z M546.2,359.1c0.6-1.5,1.5-2.7,2.2-4.3c0.6-1.4,1.1-3,1.9-4.3c0.6-1,1.4-1.8,2-2.8
					c0.7-1.3,0.9-3,1.4-4.4c0.7-1.5,1.8-2.6,2.6-4.1c0.7-1.4,2-5.1,3.4-5.3c0.1,0,0.2,0.1,0.3,0.3c0.1,0.4,0,1.6-0.2,2.2
					c-0.3,1.2-0.8,2.4-1.2,3.5c-0.1,0.7-0.3,1.3-0.4,1.9c-0.6,1.8-1.5,3.4-2.5,4.8c-0.4,0.5-0.9,1-1.2,1.5c-0.6,1-0.8,2.2-1.3,3.4
					c-0.4,0.9-1,1.7-1.5,2.5c-0.7,1.1-1.3,2.4-1.9,3.5c-0.8,1.3-1.3,4.3-3.2,4.4c-0.3,0-0.4-0.3-0.5-0.5l0,0
					C545.9,360.8,546,359.7,546.2,359.1z M510.9,344.6c0,2.9-1.4,4.9-3.1,6.1c-0.6,0.5-1.1,1.1-2.1,1.2v0c-0.3,0-0.5-0.2-0.5-0.8
					c-0.1-0.8,0.4-2,0.7-2.4c0.8-1.4,2.8-4.5,4.8-4.4C510.8,344.2,510.9,344.3,510.9,344.6z M495.5,349.5c0.4-0.9,1.2-1.5,1.8-2.2
					c1.1-1.3,2.4-2.5,3.5-3.8c0.9-1.1,1.2-2.4,2.1-3.5c0.6-0.8,1.3-1.5,1.9-2.2c0.9-1,2.5-3.6,4.2-3.8c0.3,0,0,0.9,0,1.3
					c-0.4,3.2-2.1,4.5-3.7,6.3c-1.7,2.1-3.3,4.4-4.9,6.5c-0.9,1.1-3.9,4.2-5.2,3.8h0C494.8,351.8,495.3,350,495.5,349.5z M459,369.5
					c0.6-0.5,2.8-1.2,3.2-0.9c0.3,0.3-0.8,2.6-1.1,3c-0.9,1.3-3.1,4.2-5.1,3.9c-0.2,0-0.4-0.1-0.4-0.5
					C456.4,372.3,457.6,370.6,459,369.5z"/>
			</g>
		</g>
	</g>
</g>
</svg>
