<?xml version="1.0" encoding="utf-8"?>
<!-- Generator: Adobe Illustrator 24.0.3, SVG Export Plug-In . SVG Version: 6.00 Build 0)  -->
<svg version="1.1" id="Layer_1" xmlns="http://www.w3.org/2000/svg" xmlns:xlink="http://www.w3.org/1999/xlink" x="0px" y="0px"
	 viewBox="0 0 856 830" style="enable-background:new 0 0 856 830;" xml:space="preserve">
<style type="text/css">
	.st0{fill:#CF0012;}
	.st1{fill:#FEFEFE;}
</style>
<title>QUANTAS</title>
<g id="QUANTAS">
	<g id="Mask-Raw" transform="translate(88.000000, 88.000000)">
		<path id="BG" class="st0" d="M659.6,0.2h-118c-12.1,0.1-24.9,7-32.9,16.8l-4.5,5.7l-95.4,119.4L0.4,653.6l486.1-0.1l0.6,0
			c9.6-0.2,17.8-3.2,24.3-8.3c4.9-3.8,8.6-8.5,10.4-12.7l0.1-0.3l157.5-608l0-0.1c0.2-1.2,0.3-2.3,0.3-3.5
			C679.9,9.3,670.8,0.2,659.6,0.2z M541.6,1.7h118c10.4,0,18.8,8.4,18.8,18.8V21c0,0.8-0.1,1.6-0.2,2.4l-0.1,0.4L520.7,631.7l0-0.1
			c-1.7,4-5.3,8.7-10.1,12.4c-6.3,4.9-14.1,7.8-23.4,8l-0.6,0l-483,0.1L468.8,69.3l36.5-45.7l4.2-5.3l0.3-0.4
			C517.5,8.5,529.9,1.9,541.6,1.7z"/>
		<g>
			<path class="st0" d="M423.5,522.9c-0.7,6.8-5.9,12.2-12.7,13.3c-93.7,14.6-185,53.2-264.4,116.6l340.2-0.1l0.6,0
				c20.9-0.4,31.4-14.3,34.2-20.8l84.6-326.5C532.9,361.6,436.8,398.5,423.5,522.9z"/>
			<path class="st0" d="M141.8,649.2c55.1-57.9,122.4-104.1,197.9-134.5l23-9.2c11.8-4.8,20.1-16.5,19.7-30
				c-1.3-49.3-117.9-39.3-129.7-62.9l-2-4.1c24-20.5,52.5-35.9,84-44.6c0.3,1.2,1,6.9-5.3,17.3c-7,11.3,7.6,29.3,28.8,9.9l1.8-1.6
				c105.5-96.6,193.3-95,258.5-132L678.8,24c0.2-1.1,0.3-2.2,0.3-3.4c0-10.8-8.8-19.6-19.6-19.6h-118c-12.6,0.1-25,7.5-32.3,16.5
				c-1.6,2-170.7,213.8-507.3,635.4l139.5,0C140.7,651.7,140.8,650.2,141.8,649.2z"/>
			<path class="st1" d="M141.9,653.2c0.6,0.5,1.3,0.8,2,0.8c0.7,0,1.2-0.2,1.8-0.6l0.1-0.1c0.2-0.2,0.4-0.3,0.6-0.5l-4.8,0
				C141.6,653,141.7,653.1,141.9,653.2z"/>
			<path class="st1" d="M359.8,389.5l-1.8,1.6c-21.2,19.4-35.8,1.4-28.8-9.9c6.4-10.4,5.6-16.2,5.3-17.3c-31.4,8.6-60,24-84,44.6
				l2,4.1c11.8,23.7,128.5,13.7,129.7,62.9c0.4,13.5-7.8,25.2-19.7,30l-23,9.2c-75.6,30.4-142.9,76.6-197.9,134.5
				c-0.9,1-1,2.5-0.3,3.6l4.8,0c79.4-63.4,170.7-101.9,264.4-116.6c6.8-1.1,12-6.5,12.7-13.3c13.4-124.4,109.4-161.4,182.5-217.5
				l12.4-47.9C553.1,294.5,465.3,292.9,359.8,389.5z"/>
		</g>
	</g>
</g>
</svg>
