<svg>
<style type="text/css">
	.st0{fill:#6A2716;}
	.st1{fill:#FEFEFE;}
	.st2{fill:#FFFFFF;}
</style>
<g>
	<path class="st0" d="M609.4,719.9c-2.8,6.5-13.3,20.4-34.2,20.8l-0.6,0L90,740.8C246.4,544.9,366.7,394.3,450.7,289h-1L88.4,741.6
		l486.1-0.1l0.6,0c9.6-0.2,17.8-3.2,24.3-8.3c4.9-3.8,8.6-8.5,10.4-12.7l0.1-0.3L721.8,289H721L609.4,719.9z"/>
	<path class="st0" d="M91.6,740.1l483-0.1l0.6,0c9.3-0.2,17.1-3.1,23.4-8c4.7-3.7,8.3-8.3,10.1-12.3L720.2,289H451.7L91.6,740.1z
		 M448.4,409H477c-2.7,8.2-5.4,16.2-8.4,25c-7.3-8.3-13.9-16-20.6-23.6L448.4,409z M400.2,428.7c4.2-5,6.6-5,11.4,0
		c10.2,10.7,20.4,21.4,30.4,31.9c-3.7,1-7.5,0-11-3.3c-9.7-9.1-19.6-18-29.4-26.9c-0.4-0.4-1-0.7-1.6-1.1
		C400.1,429,400.1,428.8,400.2,428.7z M467.6,531c3.5,4.9,6.9,9.5,9.9,14.2c0.6,0.9,0.7,2.9,0.1,3.8c-2.5,4-5.2,7.9-8.1,11.6
		c-0.3,0.4-2,0.4-2.4,0c-3.4-3.8-6.7-7.8-9.8-11.8c-0.5-0.6-0.4-2.1,0.1-2.8C460.6,541.2,464,536.3,467.6,531z M468,483
		c3.6,3.8,4.1,25.5,0.4,33C465.1,504.3,465.4,493.8,468,483z M526,547.4c-5.8,4.9-30,4.8-35-0.3C496.8,542.8,521.8,543.1,526,547.4z
		 M519,474.6c6.4-1.6,12.1-3.1,18-4.6v20C531,484.8,525.3,480,519,474.6z M493,558.3c3.3-3.2,15.7,0.1,24,6.6
		C512.9,568,499.7,564.3,493,558.3z M504,582.9c-4.3,1.1-15.4-8.1-18-14.9C491.1,567.2,502.3,576.5,504,582.9z M488,535.8
		c0.8-4.3,12.9-8.5,22-7.7C509.6,532.3,495.9,537,488,535.8z M484,530c-0.1-5.3,11-15.8,18-17C500.9,519.2,490.3,528.9,484,530z
		 M478.4,523c-2-4.5,4.5-18.3,10.4-22C490.1,506.8,484.1,519.6,478.4,523z M488,596c-5.3-1.5-12.7-17.1-10.6-22
		C482.8,577.7,488.5,589.3,488,596z M467.1,607c-2.8-11-2.6-21.4-0.3-32C470.8,577.6,471.2,602.1,467.1,607z M412,549
		c3.5-3.6,23.3-4,31-0.7C439.8,551.5,419.4,552,412,549z M414,625h-17v-21C402.8,611.2,408.1,617.8,414,625z M423,528.1
		c9.3-0.7,17.1,2.2,25,8C441.3,539.1,426.9,534.4,423,528.1z M446,559c-1.2,5.5-18.3,11.3-24,8.1C429.3,561.4,437.1,559.2,446,559z
		 M434.5,578.8c4.6-5.9,9.6-11.1,17.5-12.8c-4.3,7.3-9.9,13-19,17C433.7,581,433.8,579.7,434.5,578.8z M457.3,574
		c2.8,3.4-3.5,17.4-9.9,22C445.3,591.9,451.6,578,457.3,574z M447.4,501c6.2,6.4,9.5,13.9,10.6,23
		C452.5,522.1,445.3,506.4,447.4,501z M453,529.7l-0.8,1.3c-1.2-0.6-2.5-1.1-3.6-1.8c-5.6-3.4-10.2-7.8-13.9-13.1
		c-0.4-0.5-0.4-1.3-0.6-1.9c0.7,0,1.4-0.3,1.9-0.1C443.5,517.3,449.2,522.5,453,529.7z M389.2,437c11.9,10.1,23.3,19.7,34.8,29.4
		c-0.2,0.2-0.3,0.4-0.5,0.6c-9.4-1.4-18.8-2.9-28.2-4.3c-2-0.3-3.1-0.8-3.4-3.4c-0.7-6.2-1.9-12.4-2.8-18.6
		C388.9,439.7,389.1,438.7,389.2,437z M380.4,442c1,7.2,1.9,13.5,2.6,19.8c0.1,1-0.9,3-1.6,3.2c-8.5,1.8-17.1,3.3-26.4,5
		C362.2,459.1,370.1,449.8,380.4,442z M378.5,478c2.5,10.6,5,21,7.5,32c-14.2-7.7-27.7-14.9-42-22.7
		C355.8,484.1,366.9,481.1,378.5,478z M335.3,508l0.5-2c0.4-1.6,0.7-3.2,1.1-5c5.5,2.5,10.7,4.9,15.8,7.3
		c8.4,3.9,16.9,7.8,25.3,11.6c5.9,2.7,5.9,2.7,3,9.1c-15.4-6.6-30.7-13.1-46.1-19.7C335.1,508.8,335.2,508.4,335.3,508z
		 M331.7,572.5l-0.1-2.3c-0.5-7.6-1-15.3-1.6-24.2c8.2,3.5,15.3,6.6,23,9.9c-7.2,6.1-13.7,11.6-20.2,17.1
		C332.4,572.8,332.1,572.6,331.7,572.5z M336.8,592.3c-1-2.3,0-3.4,1.5-4.8c3.5-3.2,6.9-6.4,10.4-9.6l20.8-19.3
		c1.7-1.6,3.4-3.1,5.5-5c-9.4-5.1-18.1-9.9-26.7-14.6l-3.4-1.9c-2.1-1.1-4.2-2.3-6.3-3.4c-7.2-3.9-7.8-5.5-5-13.7
		c7.1,3.8,14.1,7.6,21.1,11.4c7.8,4.3,15.7,8.4,23.4,12.9c1.2,0.7,1.9,2.5,2.5,4c0.4,1-0.1,2.3,0.1,3.4c2,9.9-3.7,15.4-10.6,21.2
		c-7.9,6.6-14.8,14.5-22.1,21.8c-2.4,2.4-5,4.5-7.9,7.2C338.8,598.4,338.1,595.3,336.8,592.3z M348.6,622c-1-1.5-2-2.7-2.8-4.1
		c-1.1-1.8-1.1-3.4,0.6-5.1c3.6-3.7,6.9-7.7,10.4-11.5c6.6-7.1,13.3-14.2,19.9-21.3c1.7-1.8,3.2-3.8,5-6c4.7,9.2,4.7,9.2-1.9,15.9
		c-9.4,9.7-18.9,19.5-28.3,29.2C350.7,620,349.7,620.9,348.6,622z M385,662.2l-0.9,0.8c-6.8-6.5-13.6-13.1-21.1-20.3
		c6.3-0.8,11.8-1.4,17.3-2.1l2.4-0.3c0.8-0.1,1.6-0.2,2.4-0.3V662.2z M389.2,610.5c-0.4,4.4-0.8,8.8-1.5,13.1
		c-0.3,1.4-1.4,3.4-2.6,3.8c-5.4,1.6-10.9,3.1-16.3,4.5l-5.5,1.4l-2.7,0.7c-0.3,0.1-0.7-0.1-1.5-0.2c10.3-12.2,20.2-24,31-36.8
		C389.7,602.3,389.6,606.4,389.2,610.5z M391,473c8.4,0.8,16.1,1.5,25,2.3c-7.6,7-14.5,13.4-22.3,20.7
		C392.8,487.9,391.9,480.5,391,473z M397.2,669.9c-0.7-9.2-1.5-18.4-2.1-27.6c-0.4-6.7-0.3-6.5,6.8-7c5.3-0.4,10.6-1.5,15.9-2.1
		c1.5-0.2,3,0,5.1,0c-8.5,12.7-16.6,24.8-24.7,36.9C397.9,670,397.6,669.9,397.2,669.9z M418.2,678.2c-1.8,3.6-2.3,3.5-7.8,0.6
		c-2.8-1.5-3-2.8-1.3-5.5c7.3-11.7,14.4-23.6,21.5-35.5c1.8-3,3.5-4,6.2-1.3c0.4,0.4,1,0.6,2.2,1.3c-3.5,6.8-6.8,13.4-10.2,19.9
		C425.3,664.6,421.7,671.4,418.2,678.2z M450,690.5c4.8-10.2,9-19.2,13.4-28.5c1.1,1.4,2.3,2.9,3.4,4.3l3.4,4.3
		c4.5,5.8,9.1,11.6,13.8,17.6C472.8,692.1,461.9,690.9,450,690.5z M499.1,685.8c-1.2,0.2-3,0.1-3.7-0.7
		c-6.2-7.3-12.3-14.7-18.4-22.1c-4.2-5.1-8.6-10.1-12.8-15.1c-0.8-0.9-1.6-1.9-2.7-3.3c-1.2,2.3-2.4,4.5-3.6,6.7
		c-5.7,11.4-11.4,22.8-17.1,34.1c-0.6,1.1-2.1,2.7-3,2.6c-2.3-0.3-4.5-1.4-6.7-2.3c-0.2-0.1-0.1-1.7,0.2-2.4
		c6.4-13.4,12.9-26.7,19.4-40.1c1-2,2.4-2.8,4.8-3.1c8.3-0.9,14.5,1.3,20.1,8.5c8,10.4,17.5,19.6,26.2,29.4c1.4,1.6,2.5,3.4,4.1,5.5
		C503.5,684.5,501.3,685.4,499.1,685.8z M517.7,672.4c-4.2-5.2-8.8-10.1-13.2-15.1C499,651,493.6,644.6,488,638c2.2-1,4.1-1.9,6.5-3
		c11,12.5,22.2,25,33.5,37.8C523,677.3,521.4,677,517.7,672.4z M540.1,664c-10.7-10.4-21.4-20.7-32.1-31.1l0.4-0.9
		c9,0,17.9-0.1,26.9,0.1c0.9,0,2.4,1.6,2.5,2.6c0.7,5.3,1.1,10.7,1.6,16c0.5,4.3,1,8.6,1.6,12.9C540.7,663.8,540.4,663.9,540.1,664z
		 M550,657v-29.4c10.6-0.9,20.7-1.8,31-2.6C575.6,637.6,560.6,651.8,550,657z M576.7,611.5c-6.8,0.8-13.7,1.6-20.5,2.4
		c-2.8,0.3-3.8-0.6-4-3.8c-0.4-7.2-1.4-14.4-2.1-21.6c-0.1-1.2,0-2.5,0-4.5c11.9,8.9,23.1,17.3,35,26.2
		C581.7,610.7,579.2,611.2,576.7,611.5z M599,588.1c-1,2.1-2.7,4-4.3,5.8c-0.2,0.2-1.3-0.3-1.9-0.7c-11.8-6.7-23.4-13.6-35.3-20.1
		c-5-2.8-2-6.8-3.5-11.2c8.2,4.4,15.4,8.1,22.5,11.9c6.6,3.6,13.2,7.2,19.7,10.9C597.5,585.6,599.2,587.5,599,588.1z M596.1,497
		c1,2.1,1.9,4.3,3,6.4c2,3.6,0.2,5.8-2.5,8c-7.6,6.1-15.2,12.3-22.7,18.5c-4.2,3.4-8.2,6.9-12.6,10.5c5.8,2.5,11.4,4.9,17.1,7.2
		c1.7,0.7,3.4,1.4,5,2.1l5.1,2c4.2,1.7,8.4,3.4,12.6,5.3c1.3,0.6,2.2,2.7,2.6,4.4c0.4,1.9,0.1,4,0.1,6.7c-4.7-1.6-8.9-2.9-13-4.4
		c-2.7-1-5.4-2-8.1-3l-16.1-6.1l-8.1-3c-1.8-0.7-2.6-1.5-2.5-3.5c0.2-4.1,0.2-8.2,0-12.3c-0.2-2.8,0.7-4.8,2.8-6.6
		c11.7-10.2,23.4-20.6,35.1-30.8C594.5,497.7,595.3,497.5,596.1,497z M603,520v25c-7.4-2.7-14.3-5.2-22-8.1
		C588.4,531.2,595.2,526,603,520z M582.8,474c0.6,0.6,1.2,1.1,1.7,1.7c4.9,5.8,4.7,6.8-0.4,12.3c-9,9.6-18,19.3-26.9,29
		c-1.1,1.2-1.9,2.5-3.1,4.1c-4.1-5.8-3.8-9.6,0-14c9-10.2,17.8-20.6,26.6-30.9C581.3,475.4,582,474.7,582.8,474z M549.9,435
		c7.1,7.9,13.6,15.1,20.1,22.4c-0.2,0.4-0.5,0.7-0.7,1.1c-6.9,1.1-13.8,2.3-21.3,3.5C548.7,452.9,549.3,444.7,549.9,435z M547,471.5
		c0-2.8,2.3-2.4,4.1-2.6c7.3-0.9,14.5-1.9,22.9-3c-9.1,10.4-17.5,20.2-26,30l-1-0.4C547,487.6,547,479.6,547,471.5z M541,615
		c0,0.1,0,0.2,0,0.3l0,0.5c0,5-0.2,5.2-5,5.2l-0.5,0h-0.3h-14c-0.1-0.4-0.2-0.9-0.2-1.3c6.5-6.4,13-12.7,20-19.7V615z M538,432.4
		c0,7.8,0.1,15.6-0.1,23.4c0,0.8-1.2,1.9-2.1,2.2c-5.2,1.8-10.4,3.6-15.6,5.3l-7.8,2.6c-0.2,0.1-0.5-0.1-1.3-0.4
		c8.8-11.4,17.4-22.5,25.9-33.6C537.3,432.1,537.6,432.3,538,432.4z M519.4,418c0.5,0.4,1.1,0.5,1.6,0.9c4.9,3,5,3.5,1.7,8.2
		c-7.8,10.9-15.6,21.7-23.4,32.6c-1.3,1.8-2.8,3.2-5.3,1.7c-1.8-1-3.8-1.6-6-2.4c8.8-13.6,17.3-26.4,25.6-39.4
		C515.2,416.9,516.9,416.2,519.4,418z M495,412.3c-5.1,13.8-10.2,27.6-15.2,41.5c-1,2.7-2.4,3.6-5.4,4c-10,1.3-17.2-2.2-23.8-10.2
		c-7.9-9.5-17.2-17.8-25.8-26.7c-0.9-0.9-1.7-1.9-2.7-3c5-4.3,8.6-4,12.7,0.3c11.1,11.7,22.4,23.4,33.5,35c0,0,0.1,0.1,0.2,0.1
		l0.2,0.1c0.1,0.1,0.3,0.1,0.4,0.2c2-4.8,4-9.6,5.9-14.4c3.2-8.1,6.3-16.2,9.6-24.2C487,409.2,489.1,408.7,495,412.3z"/>
	<path class="st0" d="M608.7,719.6C608.7,719.7,608.7,719.7,608.7,719.6L608.7,719.6L608.7,719.6z"/>
	<path class="st0" d="M608.7,719.7C608.7,719.7,608.7,719.7,608.7,719.7L608.7,719.7L608.7,719.7c-1.7,4-5.3,8.7-10.1,12.3
		c-6.3,4.9-14.1,7.8-23.4,8l-0.6,0l-483,0.1L451.7,289h-1C366.7,394.3,246.4,544.9,90,740.8l484.6-0.1l0.6,0
		c20.9-0.4,31.4-14.3,34.2-20.8L721,289h-0.8L608.7,719.7z"/>
	<path d="M749.3,193.1c0-2.7,0-5.4,0-8.1l0-2.1l-3.4,13C747.8,195.8,749.3,195.5,749.3,193.1z"/>
	<path d="M582.7,123.7c0-0.4,0-0.8,0-1.2l-65.5,82h1C548.3,166.8,569.8,139.9,582.7,123.7z"/>
	<path d="M728.1,261.7L721,289h0.8l7.1-27.5C728.6,261.5,728.3,261.6,728.1,261.7z"/>
	<path d="M742.7,205L732,246.3c0.2,0.4,0.3,0.7,0.5,1.1l10.9-42C743.2,205.3,743,205.2,742.7,205C742.8,205.1,742.8,205,742.7,205z"
		/>
	<path d="M597.3,105.5c7.3-9,19.7-16.3,32.3-16.5h118c10.8,0,19.6,8.8,19.6,19.6c0,1.2-0.1,2.3-0.3,3.4l-0.9,3.5v2.6l0,0.4l1.6-6.3
		l0-0.1c0.2-1.2,0.3-2.3,0.3-3.5c0-11.2-9.1-20.3-20.3-20.3h-118c-12.1,0.1-24.9,7-32.9,16.8l-4.3,5.4c0.3,0.1,0.5,0.2,0.7,0.3
		C595.7,107.4,597.1,105.7,597.3,105.5z"/>
	<path d="M472.3,262c-0.1-0.2-0.2-0.5-0.3-0.8L449.8,289h1C458.2,279.6,465.4,270.7,472.3,262z"/>
	<path d="M478.1,254.7c0-0.4,0-0.8,0-1.2l-1.1,1.3c-0.1,0.5-0.2,1.1-0.3,1.6C477.1,255.9,477.6,255.3,478.1,254.7z"/>
	<path d="M745.4,195.8c0.2,0,0.3,0,0.5,0l3.4-13l0-1.2c0-0.6,0-1.2,0-1.8l-4.1,16C745.2,195.8,745.3,195.8,745.4,195.8z"/>
	<path d="M501.6,225.3c0-0.4,0-0.8,0-1.2l-4.8,6L486.5,243c0,0.4,0,0.7,0.1,1.1C491.7,237.7,496.7,231.4,501.6,225.3z"/>
	<path d="M728.5,196.7c5.5-0.8,10.7-0.9,15.8-0.9l4.9-19c0-2.3,0-4.7,0-7.1h-21.5l1.1-0.8c5.7-4.5,11.3-8.3,17.3-11.8
		c2.5-1.5,3.2-3.1,3.2-5.6c-0.1-10.5-0.1-21,0-31.5c0-6.5,3.3-9.8,9.7-10l0.5,0l0.5,0c1.8,0,3.7,0.3,5.8,0.5v2l0.2-0.7l0.1-0.4
		c0.1-0.8,0.2-1.6,0.2-2.4v-0.4c0-10.4-8.4-18.8-18.8-18.8h-118c-11.7,0.1-24,6.7-31.7,16.2l-0.3,0.4l-3.7,4.7
		c1.5,0.8,2.7,2.1,3.5,3.9c0.9,2.1,1.5,4.5,1.6,6.7c0,0.9,0,1.8,0.1,2.7l0.1,4c0.2,5.8,0.3,11.6-0.3,17.4c-0.8,7.9,1.6,13,9.1,16.4
		c2.9,1.3,5.5,3.2,8,5.2l1.2,0.9c1,0.7,2,1.5,3,2.2c-0.1,0.3-0.2,0.6-0.3,0.9h-20.6v26h21.5l-1,0.7c-6.2,3.9-11.5,7.4-16.9,10.5
		c-2.6,1.5-3.8,3.1-3.8,6.2c0.2,11.8,0.1,23.7,0.1,35.5v4.6l-0.7,0c-2.6,0-4.7,0-6.8,0c-4,0.1-6.4-2.2-7.7-5.5
		c-0.8-2.1-1.1-4.6-1.1-6.9c0-2.9,0-5.7,0-8.6v-8.6c0-4.3,0-8.6-0.1-12.9c0-1.5-1.1-3.3-2.2-4.3c-4-3.5-8.2-6.8-13.3-10.9h15.3
		v-26.1h-14.4l-0.2-0.4l-0.2-0.4c3.3-2.5,6.4-5.3,9.8-7.6c3.6-2.4,5.6-5,5.4-9.7c-0.3-9.4-0.2-18.8-0.2-28.2l-25.9,32.4l-37.7,47.2
		h12.3l-0.7,0.6c-4.4,3.9-7.9,7.4-11.8,10.2c-2,1.4-2.1,3-2.1,4.9l0,0.5l0,10.2c0,6.8,0,13.6,0,20.4c0,7.8-3.2,11.7-10.3,12.6
		c-4.2,0.5-4.9-0.1-4.9-4.7c0-10.9,0-21.7-0.1-32.6l-15,18.8c0.2,3.8,0.3,7.6,0.3,11.4c0,1.4-0.7,2.8-1.4,4.2l-0.4,0.7
		c-0.4,0.8-0.8,1.5-1.2,2.3c-0.8,0-1.6,0.1-2.5,0.1c-1.2-2.2-3.2-4.4-3.3-6.6c0-0.5,0-1,0-1.5l-1.8,2.3c-0.7,2.7-1.6,4.7-2.8,5.8
		c-0.3-0.3-0.6-0.8-0.8-1.2L451.7,289h268.5l7-27.1c-11.3,2.8-22.7,2.9-35.2-0.4c2.4-4.8,4.7-9.5,7.1-14.2l3.5-7.1
		c3.5-7.1,7.1-14.2,10.7-21.4c7.9,8.3,13.8,17,18.2,26.5l10.5-40.6C737.4,202.2,733,199.4,728.5,196.7z M728.4,113.2
		c0.1-1.1,1.8-2.1,2.7-3.2c0.3,0.2,0.7,0.4,1.1,0.6l0.5,0.2c1,0.5,1.9,1,2.2,1.7c1.1,2.4,1.9,5,1.8,7.6c-0.3,8.1-1,16.3-1.7,24.4
		c-0.1,0.7-1.4,1.7-2.2,1.7c-0.8,0-1.9-0.8-2.5-1.5c-0.6-0.7-0.9-1.7-1-2.5c-0.6-5.5-1-10.9-1.5-16.4c0.2,0,0.3,0,0.5,0
		C728.2,121.6,728.1,117.4,728.4,113.2z M540.4,261.9c3.9-15.4,10.1-29.3,17.1-43.2c9.1,11.5,14.8,25.1,18.6,40.1
		C567.2,264.2,549.3,265.7,540.4,261.9z M620.6,260.7l0,0.3c0.1,1.6,0,3.3-2.7,3c-1.5-0.2-3.3-2.3-3.9-3.9
		c-2.6-7.1-2.5-14.4-2.1-21.7l0.1-1.3c0.2-2.7,0.3-5.3,0.4-7.9c0.1-3.5,1.8-6.9,2.8-10.4c0.7,0,1.5,0,2.2,0c0.3,0.8,0.7,1.7,1,2.5
		l0.4,0.8c0.8,1.8,1.5,3.6,1.6,5.4c0.4,10.6,0.2,21.3,0.1,32C620.6,259.8,620.6,260.2,620.6,260.7z M638.5,249.9
		c-0.1,4.7-1.8,9.4-2.8,14.1c-1,0-2.1,0-3.1,0c-1-3.6-2.6-7.2-2.7-10.9c-0.4-9.4-0.1-18.9-0.1-28.4c0-0.5,0-1,0-1.5l0-0.3
		c0-2.1,0.4-4.2,3.2-4.2c1.6,0,3.2,3.7,4.8,5.8c0.2,0.2,0,0.6,0,0.9C638,233.6,638.7,241.7,638.5,249.9z M638.8,147.7
		c-1.2,2.5-2.5,5-3.7,7.5c-9.7-8.7-17.3-21.9-23.4-40.3c14.3-6,28.5-5.9,44.6-3c-5.2,10.6-10.2,20.7-15.1,30.8L638.8,147.7z
		 M656.3,243.4c-0.2,3.9-2,7.7-3.2,11.5l-2.4-0.2l-0.1-0.2c-1.1-1.5-2.9-3-2.9-4.6c-0.3-9.7-0.2-19.4-0.1-29.1
		c0-0.8,1.3-2.1,2.2-2.2l0.2,0l0.2,0c1.1,0,2.6,0.7,3.2,1.3c1,1.1,1.8,2.5,1.9,3.9c0.1,0.8,0.1,1.6,0.2,2.4l0.2,2.4
		C656.2,233.6,656.5,238.5,656.3,243.4z M692.5,204.3c-4.8,3.1-7.5,6.6-7,12.9c0.8,8.3,0.2,16.8,0.2,25.2c-0.1,8-2.9,12-8.8,12.4
		c-2.4,0.2-4.8,0-7.6,0v-4.5l0-5.1c0-10.2,0.1-20.4-0.1-30.6c0-1.7-0.9-4-2.2-4.9c-4.6-3.3-9.6-6.2-14.5-9.2
		c-1.4-0.9-2.8-1.7-5.2-3.2h21.6v-25.7h-20.7l-0.5-0.6l-0.5-0.6c0.8-0.3,1.7-0.5,2.4-1c5.5-3.6,10.8-7.5,16.5-10.8
		c2.5-1.5,3.1-3.2,3.1-5.7c-0.1-10.4-0.1-20.8,0-31.1c0.1-7.3,4.5-11.3,11.9-11.5c3.7-0.1,4.6,1.2,4.6,4.6
		c-0.2,11.9,0.2,23.8-0.2,35.8c-0.2,5.7,0.3,10.6,6.3,13.3c1.1,0.5,2.1,1.4,3,2.2c1.9,1.6,3.7,3.3,5.6,4.9c-0.2,0.3-0.4,0.6-0.5,0.9
		h-14.3l0,2.3c0,6.9,0.1,13.6,0,20.3c0,2.6,1.2,3.4,3.7,3.3c3.5-0.1,7,0,11.6,0C697.5,200.4,695.2,202.6,692.5,204.3z M707.7,155.3
		c-4.4-0.4-6.5-3.4-6.6-9.9l-0.1-4.9c-0.1-6.5-0.1-13,0.1-19.6c0.1-3.4,1.4-6.8,2.3-11C710,114.6,711.9,143,707.7,155.3z M726.9,145
		c-0.2,2.1-0.7,4.2-1.2,6.2l-0.4,1.6c-0.2,0.8-0.4,1.6-0.6,2.3c-0.6,0.1-1.2,0.1-1.8,0.2c-0.8-1.8-2-3.5-2.3-5.4
		c-0.8-5.3-1.6-10.6-1.7-15.9c-0.1-6.4,0.4-12.9,0.9-19.3c0.1-1.6,1.4-3.1,2.1-4.7c1.4,1.3,3.6,2.4,4,3.9c1.1,4.1,1.8,8.4,1.9,12.7
		C727.9,132.7,727.4,138.9,726.9,145z"/>
	<path d="M472.6,262.8c-0.1-0.2-0.2-0.5-0.4-0.7c-6.9,8.6-14.1,17.6-21.5,27h1L472.6,262.8z"/>
	<path d="M720.2,289h0.8l7.1-27.3c-0.3,0.1-0.6,0.1-0.8,0.2L720.2,289z"/>
	<path d="M478.1,255.9c0-0.4,0-0.8,0-1.2c-0.5,0.6-0.9,1.2-1.4,1.8c-0.1,0.6-0.3,1.2-0.4,1.7L478.1,255.9z"/>
	<path d="M731.6,245.2c0.2,0.4,0.3,0.7,0.5,1.1l10.7-41.3c-0.2-0.1-0.5-0.3-0.7-0.4L731.6,245.2z"/>
	<path d="M597.6,106.3l0.3-0.4c7.7-9.5,20-16.1,31.7-16.2h118c10.4,0,18.8,8.4,18.8,18.8v0.4c0,0.8-0.1,1.6-0.2,2.4l-0.1,0.4
		l-0.2,0.7v3l0.9-3.5c0.2-1.1,0.3-2.2,0.3-3.4c0-10.8-8.8-19.6-19.6-19.6h-118c-12.6,0.1-25,7.5-32.3,16.5c-0.1,0.2-1.5,1.9-4.1,5.2
		c0.2,0.1,0.5,0.2,0.7,0.3L597.6,106.3z"/>
	<path d="M501.6,226.5c0-0.4,0-0.8,0-1.2c-4.8,6-9.8,12.3-15,18.8c0,0.4,0,0.8,0,1.2L501.6,226.5z"/>
	<path d="M556.8,157.3l25.9-32.4c0-0.4,0-0.8,0-1.2c-12.9,16.2-34.4,43.1-64.5,80.8h1L556.8,157.3z"/>
	<path d="M744.3,195.8c0.3,0,0.5,0,0.8,0l4.1-16c0-1,0-2,0-3L744.3,195.8z"/>
	<path class="st1" d="M330,546c0.6,8.9,1.1,16.6,1.6,24.2l0.1,2.3c0.4,0.2,0.7,0.4,1.1,0.5c6.5-5.5,13-11,20.2-17.1
		C345.3,552.6,338.2,549.5,330,546z"/>
	<path class="st1" d="M383,461.8c-0.7-6.3-1.6-12.6-2.6-19.8c-10.3,7.8-18.2,17.1-25.4,28c9.3-1.7,17.8-3.2,26.4-5
		C382.1,464.8,383.1,462.8,383,461.8z"/>
	<path class="st1" d="M391.9,459.3c0.3,2.6,1.4,3.1,3.4,3.4c9.4,1.4,18.8,2.8,28.2,4.3c0.2-0.2,0.3-0.4,0.5-0.6
		c-11.5-9.7-22.9-19.4-34.8-29.4c-0.1,1.7-0.3,2.7-0.2,3.7C390,446.9,391.2,453.1,391.9,459.3z"/>
	<path class="st1" d="M378.1,519.9c-8.5-3.9-16.9-7.8-25.3-11.6c-5.1-2.4-10.3-4.7-15.8-7.3c-0.4,1.8-0.8,3.4-1.1,5l-0.5,2
		c-0.1,0.4-0.2,0.9-0.3,1.3c15.4,6.6,30.7,13.1,46.1,19.7C384,522.6,384,522.6,378.1,519.9z"/>
	<path class="st1" d="M434,514.2c0.2,0.6,0.2,1.4,0.6,1.9c3.7,5.4,8.3,9.8,13.9,13.1c1.2,0.7,2.4,1.2,3.6,1.8l0.8-1.3
		c-3.8-7.1-9.5-12.3-17.1-15.6C435.4,513.9,434.7,514.1,434,514.2z"/>
	<path class="st1" d="M370,572.9c6.9-5.8,12.6-11.3,10.6-21.2c-0.2-1.1,0.3-2.4-0.1-3.4c-0.5-1.5-1.3-3.3-2.5-4
		c-7.7-4.4-15.6-8.6-23.4-12.9c-7-3.8-14-7.6-21.1-11.4c-2.8,8.2-2.2,9.8,5,13.7c2.1,1.1,4.2,2.3,6.3,3.4l3.4,1.9
		c8.6,4.7,17.3,9.5,26.7,14.6c-2.1,1.9-3.8,3.4-5.5,5l-20.8,19.3c-3.5,3.2-6.9,6.4-10.4,9.6c-1.5,1.4-2.5,2.5-1.5,4.8
		c1.3,3,2,6.1,3.2,9.7c3-2.7,5.5-4.9,7.9-7.2C355.2,587.5,362.1,579.6,370,572.9z"/>
	<path class="st1" d="M378.5,478c-11.6,3.1-22.7,6.1-34.5,9.3c14.3,7.8,27.8,15,42,22.7C383.4,499,381,488.6,378.5,478z"/>
	<path class="st1" d="M458,524c-1.1-9.1-4.5-16.6-10.6-23C445.3,506.4,452.5,522.1,458,524z"/>
	<path class="st1" d="M466.8,666.3c-1.1-1.4-2.3-2.9-3.4-4.3c-4.4,9.3-8.6,18.3-13.4,28.5c11.9,0.4,22.8,1.6,34-2.3
		c-4.7-6-9.3-11.8-13.8-17.6L466.8,666.3z"/>
	<path class="st1" d="M475.6,648.7c-5.6-7.3-11.8-9.5-20.1-8.5c-2.4,0.3-3.8,1.1-4.8,3.1c-6.5,13.3-13,26.7-19.4,40.1
		c-0.3,0.7-0.4,2.3-0.2,2.4c2.2,1,4.4,2,6.7,2.3c0.9,0.1,2.4-1.4,3-2.6c5.8-11.3,11.4-22.7,17.1-34.1c1.1-2.2,2.3-4.4,3.6-6.7
		c1.1,1.4,1.9,2.3,2.7,3.3c4.3,5,8.6,10,12.8,15.1c6.1,7.4,12.2,14.8,18.4,22.1c0.7,0.8,2.5,0.9,3.7,0.7c2.2-0.4,4.3-1.3,6.9-2.2
		c-1.6-2.1-2.7-3.9-4.1-5.5C493.1,668.4,483.6,659.2,475.6,648.7z"/>
	<path class="st1" d="M537.8,634.7c-0.1-1-1.6-2.6-2.5-2.6c-9-0.2-17.9-0.1-26.9-0.1l-0.4,0.9c10.7,10.4,21.4,20.7,32.1,31.1
		c0.3-0.1,0.6-0.2,0.9-0.3c-0.5-4.3-1.1-8.6-1.6-12.9C538.9,645.4,538.5,640,537.8,634.7z"/>
	<path class="st1" d="M488,638c5.6,6.5,11,12.9,16.5,19.3c4.4,5.1,9,9.9,13.2,15.1c3.7,4.5,5.4,4.8,10.3,0.4
		c-11.3-12.8-22.5-25.4-33.5-37.8C492.1,636.1,490.2,637,488,638z"/>
	<path class="st1" d="M436.8,636.5c-2.7-2.6-4.5-1.6-6.2,1.3c-7.1,11.9-14.2,23.8-21.5,35.5c-1.7,2.8-1.6,4,1.3,5.5
		c5.5,2.9,6,2.9,7.8-0.6c3.5-6.9,7.1-13.7,10.6-20.5c3.4-6.5,6.7-13.1,10.2-19.9C437.9,637.2,437.3,636.9,436.8,636.5z"/>
	<path class="st1" d="M360.5,634l2.7-0.7l5.5-1.4c5.5-1.4,10.9-2.9,16.3-4.5c1.2-0.3,2.4-2.4,2.6-3.8c0.8-4.3,1.2-8.7,1.5-13.1
		c0.4-4.1,0.5-8.3,0.8-13.5c-10.8,12.8-20.7,24.6-31,36.8C359.9,633.9,360.2,634.1,360.5,634z"/>
	<path class="st1" d="M381.7,574c-1.9,2.3-3.4,4.2-5,6c-6.6,7.1-13.3,14.2-19.9,21.3c-3.5,3.8-6.8,7.8-10.4,11.5
		c-1.7,1.7-1.7,3.3-0.6,5.1c0.8,1.3,1.8,2.6,2.8,4.1c1.2-1.1,2.1-2,2.9-2.9c9.4-9.7,18.9-19.5,28.3-29.2
		C386.4,583.2,386.4,583.2,381.7,574z"/>
	<path class="st1" d="M380.3,640.6c-5.5,0.7-11,1.4-17.3,2.1c7.5,7.2,14.3,13.8,21.1,20.3l0.9-0.8V640c-0.8,0.1-1.6,0.2-2.4,0.3
		L380.3,640.6z"/>
	<path class="st1" d="M417.9,633.1c-5.3,0.7-10.6,1.7-15.9,2.1c-7.1,0.6-7.2,0.4-6.8,7c0.6,9.2,1.4,18.4,2.1,27.6
		c0.3,0,0.7,0.1,1,0.1c8.1-12.1,16.2-24.3,24.7-36.9C420.8,633.1,419.3,632.9,417.9,633.1z"/>
	<path class="st1" d="M391,473c0.9,7.5,1.8,14.9,2.7,23c7.8-7.2,14.7-13.6,22.3-20.7C407.1,474.5,399.4,473.8,391,473z"/>
	<path class="st1" d="M550,657c10.6-5.2,25.6-19.4,31-32c-10.3,0.9-20.4,1.7-31,2.6V657z"/>
	<path class="st1" d="M537,470c-5.9,1.5-11.6,2.9-18,4.6c6.3,5.4,12,10.3,18,15.4V470z"/>
	<path class="st1" d="M517,564.8c-8.3-6.5-20.7-9.8-24-6.6C499.7,564.3,512.9,568,517,564.8z"/>
	<path class="st1" d="M550.1,588.5c0.7,7.2,1.7,14.4,2.1,21.6c0.2,3.2,1.2,4.2,4,3.8c6.8-0.8,13.7-1.5,20.5-2.4
		c2.5-0.3,5-0.8,8.3-1.4c-11.9-8.9-23-17.2-35-26.2C550,586,549.9,587.2,550.1,588.5z"/>
	<path class="st1" d="M486,568c2.6,6.8,13.7,16,18,14.9C502.3,576.5,491.1,567.2,486,568z"/>
	<path class="st1" d="M491,547.1c5,5.1,29.2,5.2,35,0.3C521.8,543.1,496.8,542.8,491,547.1z"/>
	<path class="st1" d="M468,483c-2.6,10.8-3,21.3,0.4,33C472.2,508.5,471.7,486.8,468,483z"/>
	<path class="st1" d="M431,457.4c3.5,3.3,7.3,4.2,11,3.3c-10-10.5-20.2-21.2-30.4-31.9c-4.8-5-7.2-5-11.4,0
		c-0.1,0.1-0.1,0.2-0.2,0.7c0.6,0.4,1.2,0.6,1.6,1.1C411.4,439.4,421.3,448.3,431,457.4z"/>
	<path class="st1" d="M477,409h-28.6l-0.4,1.4c6.7,7.6,13.4,15.3,20.6,23.6C471.6,425.2,474.3,417.2,477,409z"/>
	<path class="st1" d="M457.3,548.9c3.1,4,6.4,8,9.8,11.8c0.4,0.4,2.1,0.4,2.4,0c2.8-3.8,5.6-7.6,8.1-11.6c0.6-1,0.5-2.9-0.1-3.8
		c-3.1-4.8-6.5-9.3-9.9-14.2c-3.6,5.3-7,10.2-10.2,15.1C456.9,546.8,456.8,548.3,457.3,548.9z"/>
	<path class="st1" d="M488,535.8c7.9,1.2,21.6-3.5,22-7.7C500.9,527.3,488.8,531.5,488,535.8z"/>
	<path class="st1" d="M448,536.1c-7.9-5.7-15.7-8.7-25-8C426.9,534.4,441.3,539.1,448,536.1z"/>
	<path class="st1" d="M443,548.3c-7.7-3.3-27.5-2.9-31,0.7C419.4,552,439.8,551.5,443,548.3z"/>
	<path class="st1" d="M397,625h17c-5.9-7.2-11.2-13.8-17-21V625z"/>
	<path class="st1" d="M446,559c-8.9,0.2-16.7,2.4-24,8.1C427.7,570.3,444.8,564.5,446,559z"/>
	<path class="st1" d="M466.8,575c-2.3,10.6-2.6,21,0.3,32C471.2,602.1,470.8,577.6,466.8,575z"/>
	<path class="st1" d="M484,530c6.3-1.1,16.9-10.8,18-17C495,514.2,483.9,524.7,484,530z"/>
	<path class="st1" d="M452,566c-7.9,1.7-12.9,6.9-17.5,12.8c-0.7,0.9-0.8,2.2-1.5,4.2C442.1,579,447.7,573.3,452,566z"/>
	<path class="st1" d="M478.4,523c5.7-3.4,11.8-16.2,10.4-22C482.9,504.7,476.4,518.5,478.4,523z"/>
	<path class="st1" d="M488,596c0.5-6.7-5.2-18.3-10.6-22C475.3,578.9,482.7,594.5,488,596z"/>
	<path class="st1" d="M457.3,574c-5.7,4-12,17.9-9.9,22C453.8,591.4,460.1,577.4,457.3,574z"/>
	<path class="st1" d="M494,461.4c2.5,1.5,4,0.1,5.3-1.7c7.8-10.8,15.6-21.7,23.4-32.6c3.4-4.7,3.2-5.2-1.7-8.2
		c-0.5-0.3-1.1-0.5-1.6-0.9c-2.5-1.9-4.2-1.1-5.9,1.5c-8.3,12.9-16.7,25.8-25.6,39.4C490.2,459.8,492.2,460.3,494,461.4z"/>
	<path class="st1" d="M512.3,466l7.8-2.6c5.2-1.8,10.4-3.5,15.6-5.3c0.9-0.3,2.1-1.4,2.1-2.2c0.2-7.8,0.1-15.6,0.1-23.4
		c-0.4-0.1-0.7-0.3-1.1-0.4c-8.6,11.1-17.1,22.2-25.9,33.6C511.9,465.9,512.1,466.1,512.3,466z"/>
	<path class="st1" d="M596.2,584.9c-6.5-3.8-13.1-7.4-19.7-10.9c-7.1-3.8-14.3-7.6-22.5-11.9c1.5,4.4-1.6,8.4,3.5,11.2
		c11.9,6.5,23.5,13.4,35.3,20.1c0.6,0.3,1.8,0.9,1.9,0.7c1.6-1.8,3.3-3.7,4.3-5.8C599.2,587.5,597.5,585.6,596.2,584.9z"/>
	<path class="st1" d="M469.1,453.6c-0.2-0.1-0.3-0.2-0.4-0.2l-0.2-0.1c-0.1-0.1-0.2-0.1-0.2-0.1c-11.2-11.7-22.4-23.3-33.5-35
		c-4.1-4.3-7.7-4.6-12.7-0.3c1,1.1,1.9,2.1,2.7,3c8.7,8.8,17.9,17.2,25.8,26.7c6.6,8,13.9,11.5,23.8,10.2c2.9-0.4,4.4-1.3,5.4-4
		c5-13.8,10.2-27.7,15.2-41.5c-5.9-3.6-8-3.2-10.4,2.7c-3.3,8-6.4,16.2-9.6,24.2C473.1,444,471,448.8,469.1,453.6z"/>
	<path class="st1" d="M521.2,621h14h0.3l0.5,0c4.8,0,5-0.3,5-5.2l0-0.5c0-0.1,0-0.2,0-0.3v-15c-7,6.9-13.5,13.3-20,19.7
		C521.1,620.1,521.2,620.6,521.2,621z"/>
	<path class="st1" d="M570,457.4c-6.5-7.2-13-14.5-20.1-22.4c-0.7,9.7-1.3,17.9-1.9,27c7.5-1.2,14.4-2.4,21.3-3.5
		C569.5,458.1,569.8,457.7,570,457.4z"/>
	<path class="st1" d="M556,535.6c0.3,4.1,0.2,8.2,0,12.3c-0.1,2,0.7,2.8,2.5,3.5l8.1,3l16.1,6.1c2.7,1,5.4,2,8.1,3
		c4.1,1.5,8.4,2.8,13,4.4c0-2.7,0.3-4.8-0.1-6.7c-0.4-1.6-1.3-3.8-2.6-4.4c-4.1-1.9-8.3-3.6-12.6-5.3l-5.1-2c-1.7-0.7-3.4-1.4-5-2.1
		c-5.7-2.3-11.3-4.8-17.1-7.2c4.3-3.6,8.4-7.1,12.6-10.5c7.5-6.2,15.1-12.4,22.7-18.5c2.7-2.2,4.4-4.4,2.5-8c-1.1-2.1-2-4.2-3-6.4
		c-0.9,0.5-1.6,0.7-2.2,1.2c-11.7,10.3-23.4,20.6-35.1,30.8C556.7,530.8,555.8,532.8,556,535.6z"/>
	<path class="st1" d="M603,545v-25c-7.8,6-14.6,11.2-22,16.9C588.7,539.8,595.6,542.3,603,545z"/>
	<path class="st1" d="M554,521c1.2-1.6,2.1-2.9,3.1-4.1c8.9-9.7,17.9-19.4,26.9-29c5.2-5.5,5.3-6.4,0.4-12.3
		c-0.5-0.6-1.1-1.1-1.7-1.7c-0.7,0.7-1.5,1.4-2.1,2.1c-8.9,10.3-17.7,20.7-26.6,30.9C550.2,511.4,549.9,515.2,554,521z"/>
	<path class="st1" d="M548,496c8.5-9.8,17-19.6,26-30c-8.4,1.1-15.6,2-22.9,3c-1.8,0.2-4-0.3-4.1,2.6c-0.1,8,0,16,0,24.1L548,496z"
		/>
	<path class="st2" d="M736.7,258.9c-1.2-4-2.6-7.8-4.2-11.5l-3.6,14C731.5,260.7,734.1,259.9,736.7,258.9z"/>
	<path class="st2" d="M765.9,115.5l-16.7,64.4c0,0.6,0,1.2,0,1.8l0,1.2l16.7-64.4l0-0.4V115.5z"/>
	<path class="st2" d="M728.1,261.7c0.3-0.1,0.6-0.1,0.8-0.2l3.6-14c-0.2-0.4-0.3-0.7-0.5-1.1L728.1,261.7z"/>
	<path class="st2" d="M745.4,195.8c-0.1,0-0.2,0-0.3,0l-2.4,9.2c0,0,0.1,0,0.1,0c0.2,0.1,0.4,0.2,0.6,0.3l2.5-9.6
		C745.7,195.8,745.6,195.8,745.4,195.8z"/>
	<path class="st2" d="M476.7,256.5c0.1-0.5,0.2-1,0.3-1.6l-5,6.3c0.1,0.3,0.2,0.5,0.3,0.8C473.8,260.2,475.2,258.3,476.7,256.5z"/>
	<path class="st2" d="M593.1,110.7c-0.2-0.1-0.5-0.2-0.7-0.3l-0.2,0.3l-9.5,11.8c0,0.4,0,0.8,0,1.2
		C587.2,118.1,590.7,113.7,593.1,110.7z"/>
	<path class="st2" d="M486.5,244.2c0-0.4,0-0.7-0.1-1.1l-8.4,10.6c0,0.4,0,0.8,0,1.2C480.9,251.2,483.8,247.6,486.5,244.2z"/>
	<path class="st2" d="M518.2,204.5h-1l-15.7,19.6c0,0.4,0,0.8,0,1.2C507.4,218.1,512.9,211.1,518.2,204.5z"/>
	<path class="st2" d="M721.8,110c-0.7,1.6-1.9,3.1-2.1,4.7c-0.5,6.4-1,12.9-0.9,19.3c0.1,5.3,0.9,10.6,1.7,15.9
		c0.3,1.9,1.5,3.6,2.3,5.4c0.6-0.1,1.2-0.1,1.8-0.2c0.2-0.8,0.4-1.6,0.6-2.3l0.4-1.6c0.5-2.1,1-4.1,1.2-6.2c0.6-6.1,1-12.3,0.9-18.4
		c-0.1-4.3-0.8-8.6-1.9-12.7C725.4,112.4,723.2,111.3,721.8,110z"/>
	<path class="st2" d="M703.5,110c-0.9,4.1-2.1,7.5-2.3,11c-0.3,6.5-0.2,13-0.1,19.6l0.1,4.9c0.1,6.5,2.2,9.5,6.6,9.9
		C711.9,143,710,114.6,703.5,110z"/>
	<path class="st2" d="M637.6,224.5c-1.6-2.1-3.1-5.7-4.8-5.8c-2.8,0-3.2,2-3.2,4.2l0,0.3c0,0.5,0,1,0,1.5c0,9.5-0.3,18.9,0.1,28.4
		c0.2,3.7,1.8,7.3,2.7,10.9c1,0,2.1,0,3.1,0c1-4.7,2.7-9.4,2.8-14.1c0.2-8.2-0.5-16.3-0.8-24.5C637.6,225.1,637.8,224.7,637.6,224.5
		z"/>
	<path class="st2" d="M611.8,115c6.1,18.4,13.7,31.7,23.4,40.3c1.2-2.5,2.5-5,3.7-7.5l2.5-5c4.9-10,9.9-20.2,15.1-30.8
		C640.3,109,626.1,108.9,611.8,115z"/>
	<path class="st2" d="M655.5,226.3c-0.1-0.8-0.1-1.6-0.2-2.4c-0.1-1.3-0.9-2.7-1.9-3.9c-0.6-0.6-2.1-1.3-3.2-1.3l-0.2,0l-0.2,0
		c-0.9,0.1-2.1,1.4-2.2,2.2c-0.1,9.7-0.2,19.4,0.1,29.1c0,1.5,1.8,3,2.9,4.6l0.1,0.2l2.4,0.2c1.1-3.8,3-7.7,3.2-11.5
		c0.2-4.9-0.2-9.8-0.6-14.7L655.5,226.3z"/>
	<path class="st2" d="M476.3,258.2l-3.6,4.5c0.3,0.5,0.5,0.9,0.8,1.2C474.6,262.9,475.6,260.9,476.3,258.2z"/>
	<path class="st2" d="M620.5,227.5c-0.1-1.8-0.8-3.6-1.6-5.4l-0.4-0.8c-0.4-0.8-0.7-1.7-1-2.5c-0.7,0-1.5,0-2.2,0
		c-1,3.5-2.7,6.9-2.8,10.4c-0.1,2.6-0.2,5.3-0.4,7.9l-0.1,1.3c-0.4,7.3-0.5,14.6,2.1,21.7c0.6,1.6,2.4,3.7,3.9,3.9
		c2.6,0.3,2.8-1.4,2.7-3l0-0.3c0-0.4-0.1-0.8-0.1-1.2C620.6,248.8,620.8,238.2,620.5,227.5z"/>
	<path class="st2" d="M702.7,240.1l-3.5,7.1c-2.3,4.7-4.7,9.4-7.1,14.2c12.4,3.4,23.9,3.3,35.2,0.4l4.3-16.7
		c-4.4-9.5-10.2-18.2-18.2-26.5C709.8,226,706.2,233.1,702.7,240.1z"/>
	<path class="st2" d="M540.4,261.9c9,3.9,26.8,2.3,35.7-3.1c-3.8-14.9-9.4-28.6-18.6-40.1C550.5,232.5,544.3,246.5,540.4,261.9z"/>
	<path class="st2" d="M729.3,142.2c0.1,0.9,0.4,1.8,1,2.5c0.6,0.7,1.7,1.5,2.5,1.5c0.8,0,2.1-1.1,2.2-1.7c0.7-8.1,1.4-16.3,1.7-24.4
		c0.1-2.5-0.8-5.1-1.8-7.6c-0.3-0.7-1.3-1.2-2.2-1.7l-0.5-0.2c-0.4-0.2-0.8-0.4-1.1-0.6c-0.9,1.1-2.6,2.1-2.7,3.2
		c-0.3,4.2-0.1,8.4-0.1,12.6c-0.2,0-0.3,0-0.5,0C728.3,131.3,728.7,136.8,729.3,142.2z"/>
	<path class="st2" d="M760.1,110l-0.5,0l-0.5,0c-6.5,0.2-9.7,3.5-9.7,10c-0.1,10.5-0.1,21,0,31.5c0,2.5-0.6,4.2-3.2,5.6
		c-6,3.4-11.6,7.3-17.3,11.8l-1.1,0.8h21.5c0,2.4,0,4.8,0,7.1l16.7-64.4v-2C763.8,110.3,761.9,110.1,760.1,110z"/>
	<path class="st2" d="M689.4,197.7c-2.5,0.1-3.7-0.7-3.7-3.3c0.1-6.7,0-13.3,0-20.3l0-2.3H700c0.2-0.3,0.4-0.6,0.5-0.9
		c-1.9-1.6-3.7-3.3-5.6-4.9c-1-0.8-1.9-1.7-3-2.2c-6-2.8-6.5-7.6-6.3-13.3c0.4-11.9,0-23.8,0.2-35.8c0-3.4-0.9-4.7-4.6-4.6
		c-7.4,0.2-11.8,4.2-11.9,11.5c-0.1,10.4-0.1,20.8,0,31.1c0,2.6-0.6,4.3-3.1,5.7c-5.7,3.3-11,7.2-16.5,10.8c-0.7,0.5-1.6,0.7-2.4,1
		l0.5,0.6l0.5,0.6h20.7v25.7h-21.6c2.4,1.5,3.8,2.3,5.2,3.2c4.9,3,9.9,5.9,14.5,9.2c1.3,0.9,2.1,3.2,2.2,4.9
		c0.2,10.2,0.1,20.4,0.1,30.6l0,5.1v4.5c2.8,0,5.2,0.1,7.6,0c5.9-0.4,8.7-4.4,8.8-12.4c0.1-8.4,0.6-16.9-0.2-25.2
		c-0.6-6.3,2.2-9.8,7-12.9c2.7-1.7,5-3.9,8.5-6.7C696.4,197.7,692.9,197.6,689.4,197.7z"/>
	<path class="st2" d="M728.5,196.7c4.5,2.7,8.9,5.5,13.5,8l2.3-8.8C739.2,195.8,734,195.9,728.5,196.7z"/>
	<path class="st2" d="M501.6,259.1c0,4.6,0.7,5.3,4.9,4.7c7.1-0.9,10.3-4.8,10.3-12.6c0-6.8,0-13.6,0-20.4l0-10.2l0-0.5
		c0-1.9,0.2-3.5,2.1-4.9c3.9-2.8,7.4-6.3,11.8-10.2l0.7-0.6h-12.3l-17.6,22C501.7,237.4,501.6,248.3,501.6,259.1z"/>
	<path class="st2" d="M481.4,264c0.8,0,1.6-0.1,2.5-0.1c0.3-0.8,0.7-1.5,1.2-2.3l0.4-0.7c0.8-1.4,1.4-2.8,1.4-4.2
		c0-3.8-0.1-7.6-0.3-11.4l-8.5,10.6c0,0.5,0,1,0,1.5C478.2,259.6,480.3,261.8,481.4,264z"/>
	<path class="st2" d="M582.9,153.1c0.2,4.7-1.8,7.3-5.4,9.7c-3.4,2.3-6.6,5-9.8,7.6l0.2,0.4l0.2,0.4h14.4v26.1h-15.3
		c5.1,4.1,9.3,7.4,13.3,10.9c1.1,1,2.2,2.8,2.2,4.3c0.1,4.3,0.1,8.6,0.1,12.9v8.6c0,2.9,0,5.7,0,8.6c0,2.3,0.3,4.8,1.1,6.9
		c1.3,3.3,3.7,5.6,7.7,5.5c2.1-0.1,4.2,0,6.8,0l0.7,0v-4.6c0-11.8,0.1-23.7-0.1-35.5c-0.1-3.1,1.2-4.7,3.8-6.2
		c5.5-3.1,10.7-6.6,16.9-10.5l1-0.7h-21.5v-26h20.6c0.1-0.3,0.2-0.6,0.3-0.9c-1-0.7-2-1.4-3-2.2l-1.2-0.9c-2.6-1.9-5.2-3.9-8-5.2
		c-7.5-3.4-9.9-8.4-9.1-16.4c0.6-5.7,0.5-11.6,0.3-17.4l-0.1-4c0-0.9-0.1-1.8-0.1-2.7c-0.1-2.3-0.7-4.7-1.6-6.7
		c-0.8-1.8-2-3.1-3.5-3.9l-0.5,0.6l-10.6,13.3C582.7,134.3,582.6,143.8,582.9,153.1z"/>
	<path class="st2" d="M593.3,111.6l0.5-0.6c-0.2-0.1-0.5-0.2-0.7-0.3c-2.4,3-5.9,7.4-10.4,13.1c0,0.4,0,0.8,0,1.2L593.3,111.6z"/>
	<path class="st2" d="M519.2,204.5h-1c-5.3,6.6-10.8,13.6-16.6,20.8c0,0.4,0,0.8,0,1.2L519.2,204.5z"/>
	<path class="st2" d="M749.3,176.9c0,1,0,2,0,3l16.7-64.4v-3L749.3,176.9z"/>
	<path class="st2" d="M742.1,204.6c0.2,0.1,0.4,0.3,0.7,0.4l2.4-9.2c-0.3,0-0.5,0-0.8,0L742.1,204.6z"/>
	<path class="st2" d="M486.6,245.3c0-0.4,0-0.8,0-1.2c-2.8,3.5-5.6,7-8.5,10.6c0,0.4,0,0.8,0,1.2L486.6,245.3z"/>
	<path class="st2" d="M731.6,245.2l-4.3,16.7c0.3-0.1,0.6-0.1,0.8-0.2l4-15.4C731.9,245.9,731.7,245.6,731.6,245.2z"/>
	<path class="st2" d="M476.3,258.2c0.1-0.5,0.3-1.1,0.4-1.7c-1.5,1.8-2.9,3.7-4.4,5.5c0.1,0.3,0.2,0.5,0.4,0.7L476.3,258.2z"/>
</g>
</svg>
