<svg>
<path fill-rule="evenodd" clip-rule="evenodd" d="M629.562 88H747.663C758.895 88 768 97.1091 768 108.346C768 109.534 767.898 110.712 767.696 111.868L767.683 111.927L610.096 720.568L609.96 720.878C608.082 725.072 604.386 729.841 599.521 733.619C592.972 738.705 584.823 741.711 575.168 741.912L574.52 741.921L88 742L496.679 230.013L592.122 110.466L596.675 104.771C604.642 94.9586 617.417 88.1426 629.562 88ZM747.663 89.5016L629.57 89.5015C617.904 89.6386 605.539 96.2361 597.84 105.718L597.538 106.094L593.286 111.414L556.766 157.152L91.1191 740.498L574.509 740.419L575.141 740.41C584.462 740.216 592.301 737.325 598.6 732.433C603.363 728.734 606.953 724.051 608.695 720.026L608.671 720.079L766.222 111.58L766.283 111.207C766.406 110.4 766.476 109.583 766.494 108.758L766.499 108.346C766.499 97.9384 758.065 89.5016 747.663 89.5016Z" fill="black"/>
<path fill-rule="evenodd" clip-rule="evenodd" d="M747.664 88.7507C758.481 88.7507 767.25 97.5236 767.25 108.346C767.25 109.503 767.149 110.637 766.957 111.739L609.385 720.324C606.561 726.849 596.088 740.725 575.158 741.161L574.52 741.17L89.5605 741.249C426.376 319.279 595.609 107.277 597.258 105.244C604.56 96.2518 616.95 88.8989 629.562 88.7507H747.664Z" fill="white"/>
<mask id="mask0_1513_2277" style="mask-type:luminance" maskUnits="userSpaceOnUse" x="89" y="88" width="679" height="654">
<path fill-rule="evenodd" clip-rule="evenodd" d="M747.664 88.7507C758.481 88.7507 767.25 97.5236 767.25 108.346C767.25 109.503 767.149 110.637 766.957 111.739L609.385 720.324C606.561 726.849 596.088 740.725 575.158 741.161L574.52 741.17L89.5605 741.249C426.376 319.279 595.609 107.277 597.258 105.244C604.56 96.2518 616.95 88.8989 629.562 88.7507H747.664Z" fill="white"/>
</mask>
<g mask="url(#mask0_1513_2277)">
</g>
<mask id="mask1_1513_2277" style="mask-type:alpha" maskUnits="userSpaceOnUse" x="89" y="90" width="678" height="652">
<path fill-rule="evenodd" clip-rule="evenodd" d="M746.717 90.9131C757.504 90.9131 766.248 99.6516 766.248 110.431C766.248 111.584 766.148 112.714 765.956 113.811L608.827 720.013C606.012 726.513 595.568 740.334 574.697 740.768L574.061 740.777L90.4663 740.856C426.334 320.538 595.09 109.367 596.735 107.342C604.016 98.3848 616.372 91.0607 628.948 90.9131H746.717Z" fill="white" stroke="black"/>
</mask>
<g mask="url(#mask1_1513_2277)">
<path d="M746.291 160.014L712.689 160.014C704.69 160.014 697.216 164 692.759 170.642L359.985 666.618C353.171 676.774 342.085 683.254 329.892 684.209L26.9331 707.934V714.954H360.555C374.032 714.954 386.604 708.167 393.998 696.898L746.291 160.014Z" fill="black"/>
<path d="M364.839 722.075H-143.73L-178.561 774.464L795.766 788.417C820.232 788.767 839.275 767.266 835.973 743.022L756.284 158.027L398.289 704.008C390.897 715.283 378.321 722.075 364.839 722.075Z" fill="#FFC425"/>
</g>
</svg>
