<svg width="856" height="830" viewBox="0 0 856 830" fill="none" xmlns="http://www.w3.org/2000/svg">
<path fill-rule="evenodd" clip-rule="evenodd" d="M748.347 88C759.201 88 768 96.7931 768 107.64C768 108.8 767.899 109.937 767.706 111.041L609.596 721.027C606.763 727.567 596.254 741.475 575.253 741.912L574.613 741.921L88 742C425.964 319.058 595.773 106.569 597.428 104.532C604.755 95.5184 617.188 88.1485 629.843 88H748.347Z" fill="#8E2A2A"/>
<path d="M443.534 388.848C441.587 388.517 439.725 388.351 437.919 388.351C425.306 388.351 418.985 394.482 418.985 406.716V446.263H398.528V370.152H417.8V379.32C419.493 376.752 421.271 374.764 423.077 373.3C424.882 371.864 426.773 370.732 428.692 369.958C430.61 369.185 432.614 368.716 434.674 368.55C436.734 368.384 438.765 368.301 440.825 368.301H443.562L443.534 388.848Z" fill="white"/>
<path d="M480.019 368.163C491.052 368.163 499.319 370.731 504.822 375.84C510.324 380.95 513.089 388.406 513.089 398.21V446.263H493.986C493.761 445.379 493.535 444.44 493.309 443.418C493.083 442.424 492.914 441.319 492.801 440.077C490.29 442.645 487.045 444.55 483.095 445.821C479.116 447.091 474.517 447.754 469.297 447.754C461.452 447.754 455.16 445.876 450.448 442.093C445.735 438.309 443.365 433.09 443.365 426.406C443.365 421.187 444.24 417.017 446.018 413.896C447.767 410.775 450.25 408.345 453.439 406.55C456.627 404.783 460.408 403.429 464.782 402.546C469.156 401.662 473.896 400.889 479.031 400.198C483.123 399.646 486.34 398.762 488.653 397.519C490.995 396.304 492.152 394.565 492.152 392.355C492.152 389.455 490.798 387.301 488.061 385.838C485.324 384.402 482.305 383.656 479.031 383.656C475.391 383.656 472.344 384.678 469.917 386.749C467.462 388.82 466.023 391.554 465.572 395.006H445.961C446.638 386.556 449.601 379.955 454.821 375.233C460.013 370.51 468.422 368.163 480.019 368.163ZM492.632 409.036C490.572 410.693 487.017 412.046 481.881 413.04C474.827 414.366 470.058 415.967 467.547 417.79C465.036 419.613 463.794 422.153 463.794 425.385C463.794 431.046 466.87 433.891 472.993 433.891C475.617 433.891 478.128 433.531 480.583 432.813C483.038 432.095 485.154 431.018 486.989 429.555C488.794 428.119 490.262 426.268 491.334 424.059C492.406 421.822 492.942 419.281 492.942 416.382C492.942 415.498 492.914 414.283 492.858 412.709C492.83 411.162 492.745 409.919 492.632 409.036Z" fill="white"/>
<path d="M562.045 446.262H540.572L512.778 370.151H535.634L551.83 420.385L568.365 370.151H590.008L562.045 446.262Z" fill="white"/>
<path d="M614.218 381.336C616.588 377.111 619.805 373.852 623.812 371.56C627.847 369.268 632.954 368.135 639.19 368.135C642.915 368.135 646.357 368.688 649.461 369.792C652.565 370.897 655.274 372.526 657.531 374.625C659.788 376.752 661.594 379.375 662.892 382.551C664.19 385.727 664.839 389.373 664.839 393.487V446.235H644.382V400.198C644.382 394.316 643.394 390.339 641.391 388.268C639.388 386.224 635.973 385.175 631.064 385.175C620.369 385.175 615.036 391.002 615.036 402.684V446.235H594.579V370.124H614.19V381.336H614.218Z" fill="white"/>
<path d="M475.024 494.563C476.914 496.054 479.454 496.828 482.614 496.828C484.759 496.828 486.677 496.551 488.286 496.054C489.866 495.557 491.164 494.784 492.151 493.762L493.167 492.713L493.308 494.149C493.365 494.646 493.421 495.088 493.506 495.474C493.562 495.723 493.619 495.944 493.675 496.165H500.616V476.336C500.616 472.387 499.488 469.322 497.315 467.278C495.114 465.234 491.7 464.185 487.213 464.185C482.473 464.185 479.002 465.151 476.914 467.029C474.967 468.797 473.81 471.227 473.415 474.32H480.47C480.752 472.939 481.429 471.835 482.445 470.951C483.602 469.984 485.069 469.487 486.762 469.487C488.257 469.487 489.668 469.819 490.938 470.481C492.321 471.199 493.026 472.359 493.026 473.823C493.026 474.652 492.716 475.811 491.192 476.612C490.12 477.165 488.709 477.579 486.875 477.827C484.73 478.104 482.699 478.435 480.865 478.822C479.087 479.181 477.507 479.733 476.237 480.451C474.995 481.141 474.008 482.108 473.331 483.323C472.653 484.538 472.287 486.223 472.287 488.349C472.23 491.056 473.133 493.072 475.024 494.563ZM481.485 484.207C482.642 483.351 484.73 482.66 487.862 482.053C489.922 481.638 491.361 481.114 492.123 480.479L493.054 479.705L493.195 480.893C493.252 481.307 493.28 481.832 493.308 482.522C493.337 483.24 493.336 483.737 493.336 484.096C493.336 485.422 493.083 486.609 492.575 487.659C492.067 488.681 491.39 489.564 490.543 490.227C489.697 490.89 488.709 491.387 487.58 491.719C486.48 492.05 485.323 492.216 484.166 492.216C481.175 492.216 479.567 490.724 479.567 487.935C479.623 486.389 480.244 485.118 481.485 484.207Z" fill="#A6A8AB"/>
<path d="M512.806 453.304H505.414V496.192H512.806V453.304Z" fill="#A6A8AB"/>
<path d="M519.522 494.563C521.413 496.054 523.952 496.828 527.113 496.828C529.257 496.828 531.176 496.551 532.784 496.054C534.364 495.557 535.662 494.784 536.65 493.762L537.666 492.713L537.807 494.149C537.863 494.646 537.92 495.088 538.004 495.474C538.061 495.723 538.117 495.944 538.174 496.165H545.115V476.336C545.115 472.387 543.986 469.322 541.814 467.278C539.613 465.234 536.199 464.185 531.712 464.185C526.972 464.185 523.501 465.151 521.413 467.029C519.466 468.797 518.309 471.227 517.914 474.32H524.968C525.25 472.939 525.928 471.835 526.943 470.951C528.1 469.984 529.568 469.487 531.261 469.487C532.756 469.487 534.167 469.819 535.437 470.481C536.819 471.199 537.525 472.359 537.525 473.823C537.525 474.652 537.214 475.811 535.691 476.612C534.618 477.165 533.208 477.579 531.373 477.827C529.229 478.104 527.197 478.435 525.363 478.822C523.586 479.181 522.005 479.733 520.736 480.451C519.494 481.141 518.507 482.108 517.829 483.323C517.124 484.538 516.785 486.223 516.785 488.349C516.757 491.056 517.66 493.072 519.522 494.563ZM525.984 484.207C527.141 483.351 529.229 482.66 532.361 482.053C534.421 481.638 535.86 481.114 536.622 480.479L537.553 479.705L537.694 480.893C537.75 481.307 537.779 481.832 537.807 482.522C537.835 483.213 537.835 483.737 537.835 484.096C537.835 485.422 537.581 486.609 537.073 487.659C536.565 488.681 535.888 489.564 535.042 490.227C534.195 490.89 533.208 491.387 532.079 491.719C530.978 492.05 529.822 492.216 528.665 492.216C525.674 492.216 524.065 490.724 524.065 487.935C524.122 486.389 524.771 485.118 525.984 484.207Z" fill="#A6A8AB"/>
<path d="M553.157 494.204C554.483 495.143 556.091 495.889 557.925 496.414C559.76 496.938 561.763 497.214 563.879 497.214C568.112 497.214 571.554 496.275 574.122 494.425C576.662 492.602 577.875 490.007 577.875 486.499C577.875 483.379 576.266 481.086 572.937 479.485C571.554 478.849 568.225 477.966 563.061 476.833C560.55 476.336 557.164 475.397 557.164 473.216C557.164 472.028 557.813 471.062 559.054 470.344C560.183 469.708 561.537 469.377 563.061 469.377C567.463 469.377 569.015 471.586 569.494 473.63H576.859C576.69 472.387 576.323 471.227 575.73 470.15C575.025 468.88 574.094 467.803 572.937 466.919C571.78 466.035 570.369 465.317 568.761 464.82C567.124 464.323 565.375 464.075 563.512 464.075C561.17 464.075 559.139 464.378 557.446 464.958C555.781 465.538 554.37 466.312 553.27 467.278C552.197 468.217 551.379 469.322 550.815 470.564C550.279 471.807 549.997 473.105 549.997 474.431C549.997 477.69 551.605 480.009 554.906 481.528C556.261 482.163 559.534 483.102 564.641 484.262C566.532 484.677 567.914 485.146 568.845 485.781C569.918 486.472 570.454 487.217 570.454 488.018C570.454 489.261 569.748 490.283 568.338 491.028C567.068 491.719 565.516 492.078 563.766 492.078C561.594 492.078 559.816 491.581 558.518 490.642C557.305 489.758 556.628 488.598 556.458 487.19H548.783C548.896 488.515 549.291 489.758 549.968 490.863C550.758 492.105 551.831 493.265 553.157 494.204Z" fill="#A6A8AB"/>
<path d="M609.477 465.096H600.533L588.681 478.573V453.304H581.289V496.192H588.681V486.361L593.817 481.169L601.294 496.192H609.59L599.065 476.281L609.477 465.096Z" fill="#A6A8AB"/>
<path d="M612.75 494.563C614.641 496.054 617.18 496.828 620.341 496.828C622.485 496.828 624.404 496.551 626.012 496.054C627.592 495.557 628.89 494.784 629.878 493.762L630.894 492.713L631.035 494.149C631.091 494.646 631.148 495.088 631.232 495.474C631.289 495.723 631.345 495.944 631.402 496.165H638.343V476.336C638.343 472.387 637.214 469.322 635.042 467.278C632.841 465.234 629.427 464.185 624.94 464.185C620.2 464.185 616.729 465.151 614.641 467.029C612.694 468.797 611.537 471.227 611.142 474.32H618.196C618.478 472.939 619.156 471.835 620.171 470.951C621.328 469.984 622.796 469.487 624.489 469.487C625.984 469.487 627.395 469.819 628.665 470.481C630.047 471.199 630.753 472.359 630.753 473.823C630.753 474.652 630.442 475.811 628.919 476.612C627.846 477.165 626.436 477.579 624.601 477.827C622.457 478.104 620.425 478.435 618.591 478.822C616.814 479.181 615.233 479.733 613.964 480.451C612.722 481.141 611.735 482.108 611.057 483.323C610.352 484.538 610.013 486.223 610.013 488.349C609.985 491.056 610.888 493.072 612.75 494.563ZM619.212 484.207C620.369 483.351 622.457 482.66 625.589 482.053C627.649 481.638 629.088 481.114 629.85 480.479L630.781 479.705L630.922 480.893C630.978 481.307 631.007 481.832 631.035 482.522C631.063 483.213 631.063 483.737 631.063 484.096C631.063 485.422 630.809 486.609 630.301 487.659C629.793 488.681 629.116 489.564 628.27 490.227C627.423 490.89 626.436 491.387 625.307 491.719C624.206 492.05 623.05 492.216 621.893 492.216C618.902 492.216 617.293 490.724 617.293 487.935C617.35 486.389 617.999 485.118 619.212 484.207Z" fill="#A6A8AB"/>
</svg>
