<svg>
    <defs>
        <path d="M131.10073,2.88420505 C132.642409,4.91675899 134.051986,7.04538638 135.321957,9.25707728 C138.220673,13.734 140.864695,18.4180811 144.066142,22.6718332 C148.129249,28.0414384 154.110321,31.6321836 160.758904,32.6929946 C162.83299,32.9566963 164.5468,34.438329 165.107229,36.4533695 C166.604874,40.9778286 168.372725,41.886023 173.150878,40.8502311 C180.461968,39.257013 187.725521,37.3455516 195.084147,36.0705769 C203.628679,34.5394063 212.394881,34.7510681 220.85585,36.692052 C222.764809,37.1529044 224.591206,37.9054797 226.27149,38.9227575 C230.380632,41.4396817 234.506286,44.0206549 238.376745,46.8888477 C241.191897,49.1640872 243.886958,51.5839373 246.452419,54.1378898 C247.956569,55.8281821 249.614837,57.375365 251.405706,58.757922 C253.390724,59.9363229 255.597911,60.6903994 257.888663,60.9726151 C260.532684,61.3073711 261.440378,59.7937138 260.930989,57.1171676 C260.792883,56.0018148 260.734338,54.878456 260.755855,53.7550972 C262.054347,53.9392379 263.323818,54.292508 264.530741,54.8069013 C265.605938,55.440198 266.642996,56.1406945 267.673871,56.8495997 L268.703869,57.5591305 C270.077606,58.5031021 271.459288,59.4271836 272.924658,60.1920184 C275.136849,61.286355 277.516669,62.0024024 279.965041,62.3106381 C281.269538,62.3626779 282.515991,61.7662219 283.294086,60.71742 C283.699396,59.4724682 283.480228,58.1084254 282.704635,57.0531186 C280.760649,54.936 278.628018,53.0005203 276.333264,51.2701974 C274.5494,49.8836373 272.478817,48.8803703 270.583368,47.63742 C269.90535,47.1225264 269.266862,46.5580949 268.671907,45.9486289 L268.91109,45.2796174 C271.093258,45.4547513 273.275426,45.5823489 275.457594,45.8055195 C279.985556,46.2843856 284.361402,47.7174813 288.295409,50.0112349 C290.636699,51.3812823 293.074063,52.5922081 295.415353,53.99428 C298.744398,56.0018148 300.034384,58.6783611 298.521227,62.2310773 C296.309036,67.4075348 293.7771,72.4413833 290.939431,77.3031002 C288.566116,81.3972303 285.555815,85.1255807 282.975342,89.0766014 C278.085604,96.5167896 276.381301,104.897197 276.285728,113.564323 C276.110594,128.922565 276.285728,144.281307 276.285728,159.639549 C276.269715,162.825985 276.206167,165.980396 276.126106,169.15082 C275.521143,171.397538 274.91568,173.643755 274.294705,175.905985 C271.97243,180.083679 268.566326,183.556834 264.435168,185.959171 C258.393549,189.456845 253.26763,194.338077 249.478733,200.20256 C248.001604,202.506321 245.326058,203.74777 242.613484,203.388996 C238.982208,203.19785 235.382456,202.496814 231.750679,202.401241 C228.349079,202.240118 224.939972,202.46479 221.58841,203.070252 C216.268343,204.169593 214.643601,207.116846 215.838514,212.374366 C216.157258,213.760425 216.571074,215.130973 216.969379,216.485008 C218.259365,220.818321 217.112488,223.782087 213.194493,226.044317 C209.277998,228.080874 204.813085,228.811933 200.451751,228.131412 C194.639307,227.508436 188.976978,225.8917 183.711452,223.351758 C175.874961,219.623408 168.069994,215.815997 160.249515,212.024098 C157.293255,210.65405 155.394303,207.699292 155.375288,204.4403 C155.270708,201.360445 154.972981,198.290098 154.483607,195.247772 C153.625951,190.102839 149.201068,186.314442 143.986581,186.261902 C140.193181,186.054744 136.391275,186.054744 132.598375,186.261902 C124.451133,186.732512 116.411818,185.809131 108.376544,184.785898 L105.45462,184.411716 C105.21111,184.380552 104.967593,184.34944 104.724064,184.318416 C98.3526932,183.521807 92.0768952,182.852295 85.7375486,182.167272 C81.9786748,181.768967 81.2616266,180.829249 82.0582357,177.212484 C82.7512655,174.373313 84.7572992,172.035526 87.4578638,170.919673 C92.2365172,168.529845 97.2538531,168.800552 102.35075,169.613174 C115.043454,171.595689 127.905287,172.284716 140.737598,171.668245 C157.960765,170.90366 175.168921,170.064519 192.360565,169.15082 C194.599276,168.861099 196.799959,168.32669 198.922581,167.557602 C200.149019,167.207334 201.295896,166.569847 202.522334,166.219579 C204.274673,165.709689 205.437562,166.474274 205.533135,168.243126 C205.583266,169.207845 205.66945,170.174212 205.763262,171.141313 L205.820237,171.721655 C205.82981,171.818391 205.839402,171.915133 205.848985,172.011879 L205.906147,172.592403 C206.274048,176.366079 206.541795,180.144003 205.023246,183.872075 C204.891145,184.557599 205.13383,185.261637 205.660233,185.720488 C206.329744,185.972681 207.078817,185.896122 207.683279,185.51333 C209.778381,183.962144 211.03234,181.52428 211.075873,178.917287 L211.169254,175.656699 C211.278318,171.853152 211.397841,168.051925 211.633299,164.260081 C211.952043,159.098135 213.146456,153.888151 212.73264,148.805766 C212.006084,142.321308 210.802664,135.899399 209.132888,129.591576 C208.231198,125.976312 205.363005,123.181676 201.726225,122.374559 C197.967351,121.259206 194.287538,119.82561 190.576701,118.43955 C186.241887,116.916386 182.663651,113.776985 180.589565,109.676851 C177.99308,104.594465 175.683815,99.3689702 173.08733,94.2865845 C171.849383,91.8902525 170.39377,89.6130115 168.739005,87.4833833 C167.86884,86.0312731 166.014923,85.5133772 164.518279,86.304482 C162.92506,87.2602127 163.132219,88.8374185 163.546536,90.3195516 C164.151498,92.5657689 164.932095,94.7644499 165.505533,97.0106672 C166.429239,100.723005 164.597839,103.064796 160.72738,103.112832 C159.593513,103.14836 158.460647,103.014257 157.366311,102.714528 C151.250135,100.786554 144.910788,99.3049212 139.096843,96.6919235 C130.889568,92.7348982 121.456357,92.162961 112.831262,95.0987054 C107.893487,96.734456 102.897668,98.221593 97.8428034,99.5601163 C92.6503336,100.914151 88.2859969,98.8906044 84.5431354,95.4975103 C82.7367544,93.9153007 82.0262112,91.4208936 82.7272471,89.1246381 C83.5553803,86.1608722 84.7342816,83.309192 85.6900122,80.3934629 C86.5181454,77.8605264 86.0082555,77.2075272 83.3482219,77.3346243 C78.2993619,77.5417827 76.3879005,79.2786106 75.0979143,83.9942158 C74.3168171,86.7538256 73.2490008,89.4233665 71.9119786,91.960306 C68.3757751,98.8110436 65.4295226,105.821403 64.6489258,113.595847 C64.2115914,116.510075 62.3291523,119.004482 59.6476021,120.223914 C54.3750712,123.155155 48.9914552,125.927275 43.7194246,128.922565 C39.4896909,131.501036 37.2324652,136.375763 38.0010528,141.270005 C38.3738378,143.039357 38.613521,144.833729 38.718101,146.639109 C38.718101,153.011982 38.6755685,159.384854 38.5905034,165.757226 C38.4949304,170.266173 38.2082112,174.77512 38.0330773,179.299579 C38.0280735,179.899037 38.0866182,180.496995 38.2082112,181.083943 C38.654052,183.521807 40.1356848,184.270379 42.2858286,183.011917 C43.3491415,182.304376 44.3133787,181.457729 45.1530207,180.494493 C46.0447024,179.586298 46.7457383,178.486958 47.701469,177.6268 C50.3454904,175.1414 52.8779265,175.380583 54.980534,178.343849 C56.7583933,181.096453 57.3928783,184.434505 56.7483856,187.647962 C56.04785,193.632037 54.3855792,199.463995 51.8266228,204.918165 C50.8713925,207.03078 50.1348294,209.235966 49.6284422,211.498196 C48.6747131,215.278086 50.1353298,219.256127 53.3077552,221.519357 C57.4394139,224.729812 62.1655272,227.091117 67.2133864,228.465668 C77.4552165,231.652104 87.9197169,234.121992 98.702961,233.245322 C103.975492,232.815493 109.167962,231.652104 114.408468,230.855495 C115.233599,230.712886 116.072741,230.664849 116.90888,230.712386 C121.687533,231.094678 124.395103,235.093735 122.228947,239.315463 C120.756321,242.193663 118.70075,244.733105 116.192332,246.771663 C110.862757,250.802245 106.884716,256.358493 104.787613,262.703844 C104.54893,263.40488 104.214174,264.089904 103.927455,264.79094 C101.681738,270.287642 96.9831461,272.088018 91.8697368,268.917094 C86.7788447,265.792205 81.9046182,262.327056 77.2795822,258.545665 C67.3249717,250.292855 57.6405677,241.721302 47.8445784,233.277347 C45.4552517,231.190251 43.0664254,229.071131 40.7086228,226.904474 C27.4089549,215.098949 22.3120581,200.218572 23.4744468,182.772735 C24.828482,162.411668 26.0549197,142.034589 25.4974935,121.609974 C25.3698959,116.973429 24.6373359,112.337385 24.191495,107.70134 C24.1699786,107.475668 24.1324499,107.251997 24.0799097,107.031829 C22.8534721,102.14109 19.9702678,101.184858 16.3865279,104.769599 C14.1137904,107.302536 11.9866641,109.962069 10.0156572,112.735689 C8.5880658,114.681677 7.06239939,116.553608 5.4441622,118.343977 C3.85144453,119.937195 2.25822647,119.618451 1.43009334,117.467307 C0.894684009,116.064234 0.582945677,114.586104 0.506387146,113.085957 C0.0312625374,103.985852 1.43741351,95.051282 2.81677516,86.1024927 L3.11838409,84.1378256 L3.11838409,84.1378256 C4.34982555,75.410153 7.17898852,66.9847116 11.4647651,59.283824 C12.8508248,56.857469 14.4495471,54.5597123 16.2434185,52.4170742 C19.6940566,47.707974 26.2445647,46.5620979 31.0882678,49.8200888 C33.6847529,51.333746 36.0735792,53.2296955 38.558479,54.9344989 C42.9068034,57.9297888 45.4552517,57.35585 47.8285662,52.6717689 C48.7087391,50.7653114 49.4593129,48.8013099 50.0747835,46.7932747 C50.3840199,45.3506718 51.642482,44.3093757 53.1171094,44.27585 C56.04785,43.9571064 58.9465662,43.3516435 61.8773068,42.9218148 C67.2351644,42.1347586 71.8878695,39.701912 76.492496,37.1179868 L77.1660769,36.7389464 C77.2783085,36.6756511 77.3905307,36.6123092 77.5027529,36.5489426 C81.8670895,34.0475302 86.3905478,31.8808738 91.6150421,32.2151293 C94.2365463,32.4718256 96.8420383,32.8706305 99.4200092,33.4100428 C101.346982,33.7447988 103.22692,34.461847 105.169905,34.6049564 C110.171229,34.9717368 113.436725,33.0117383 114.726712,28.1365111 C115.380778,25.7425475 115.885771,23.3068476 116.369485,20.8651106 L116.781867,18.7715473 C117.194999,16.6781709 117.619323,14.5878528 118.135318,12.5230742 C118.817839,9.45272686 119.888658,6.48145524 121.321253,3.68081408 C123.56697,-0.429328233 128.074416,-0.732059679 131.10073,2.88420505 Z M223.993749,129.273333 C222.925933,129.338883 221.945183,129.8843 221.32621,130.757467 C220.707236,131.630135 220.517091,132.73648 220.807813,133.765767 C221.022543,135.002256 221.256829,136.237988 221.496277,137.473781 L221.92975,139.69845 C222.651134,143.406929 223.34125,147.120369 223.611457,150.860837 C224.344017,161.169218 224.168883,171.477099 220.776289,181.450724 C220.497576,182.091714 220.513588,182.822272 220.819822,183.450753 C221.126557,184.078733 221.69249,184.541587 222.369007,184.716721 C227.497928,186.787804 231.256802,184.63716 231.925813,179.283567 L231.925813,178.598543 L231.925813,178.598543 C232.308106,173.723316 232.594825,168.832577 233.024653,161.742656 L232.961105,161.663096 C233.003637,157.009037 232.683893,152.358482 232.005374,147.754462 C231.273185,144.082803 230.048645,140.506163 228.788759,136.936737 L228.34337,135.677096 C227.749545,133.997593 227.159799,132.317401 226.621758,130.627368 C226.175917,129.225296 225.299748,129.03415 223.993749,129.273333 Z M84.4155379,45.2000566 C81.4382617,47.2351125 78.2698393,48.9744422 74.9543045,50.3935272 C68.0139985,53.0180337 60.6914002,54.4871568 53.2762311,54.7433527 C51.1350941,54.7588646 49.3867575,56.4586641 49.3101989,58.5988003 C49.039492,60.6858959 50.3454904,61.6416266 52.1293542,62.0399311 C55.2954111,62.7507776 58.4619386,63.3562286 60.3067015,63.741307 L60.4692303,63.7752578 L60.9306149,63.7600354 C73.1341018,63.3080927 82.8544593,59.5794893 92.1409441,54.424609 C92.5942907,54.1549028 93.0071064,53.8221484 93.3673818,53.4368539 C95.2628309,51.5409044 95.1672578,49.6449549 92.953065,48.1633221 C91.2007253,46.9844208 89.2577399,46.108251 87.4738761,44.976886 C86.5231492,44.3439021 85.2646871,44.4359725 84.4155379,45.2000566 Z M218.14778,45.8690681 C216.363916,46.6656771 214.755186,48.0837613 212.907774,48.4180168 C208.830156,49.1846029 204.695495,49.6109288 200.547324,49.6924912 C192.232967,49.6924912 183.918611,49.4217842 175.588242,49.2786748 C172.593452,49.2786748 171.669746,50.1388324 171.765319,53.197671 C171.761816,54.4711446 172.011007,55.7331094 172.497879,56.9100092 C172.94322,57.8292119 173.760845,58.5137353 174.744096,58.7899464 C180.100152,59.4615383 185.425908,59.934016 188.243989,60.2073796 L188.406542,60.2230421 L188.837403,60.2197528 C204.411991,60.0795194 210.429164,58.4276294 218.928376,52.5286595 C220.121288,51.7460612 221.171591,50.7653114 222.034251,49.6289426 C223.245177,47.9401515 222.209885,46.3309212 220.983448,45.2636052 C220.537106,44.8813129 219.039962,45.4707636 218.14778,45.8690681 Z" id="path-1"></path>
        <path d="M118.010722,0.666509564 C125.01908,1.32000918 130.625867,3.94851875 134.591899,9.87555011 C138.557931,15.8020811 142.380854,21.3623321 146.538032,26.8905585 C148.461002,29.2173374 150.647174,31.3129396 153.052513,33.1363336 C153.967212,33.7352915 155.106083,33.882404 156.142875,33.5346381 C156.636252,33.3274797 156.747838,31.6702127 156.636252,30.714482 C156.349533,28.3406672 155.744571,25.9348279 155.457852,23.6085493 C155.269207,22.2770314 155.323249,20.9224958 155.616973,19.6099923 C156.269972,16.8218607 158.627275,15.6744836 160.937041,17.2837138 C163.275328,18.9324744 165.380438,20.8884698 167.196826,23.0991599 C170.509859,27.0977169 173.472624,31.3995057 176.753633,35.4781239 C182.631126,42.8752793 190.568194,48.3639755 199.562571,51.2506825 C200.988661,51.459342 202.437269,51.459342 203.863359,51.2506825 C203.810318,49.8110819 203.519596,48.3899954 203.003201,47.0449671 C200.079966,42.5755501 197.92632,37.6482831 196.63183,32.4668217 C196.364125,31.2208692 196.230523,29.9498975 196.233526,28.6754231 C196.233526,25.6481086 198.193024,24.1664759 201.012179,25.329365 C203.098774,26.1920245 205.026248,27.3984468 206.714539,28.8980933 C214.200762,35.6057215 218.72422,44.3203841 222.642716,53.3377781 C227.416866,64.0694828 230.305074,75.5437552 231.180243,87.2572104 C231.374392,90.0373359 231.224777,92.8304713 230.733902,95.5735685 C229.141184,103.826378 224.028275,107.124399 215.809492,104.687036 C210.533959,103.074803 205.433059,100.940171 200.58185,98.3141637 C194.781115,95.2359103 189.060362,91.9800411 183.347606,88.7081397 L179.539497,86.5262701 C177.000495,85.0724712 174.459912,83.6225983 171.911431,82.190837 C156.62024,73.6032716 140.055076,70.4808845 122.67779,71.2935057 C111.990119,71.7873833 101.301948,72.4403826 91.0125815,75.6108064 C86.9895057,76.89729 83.0569992,78.4514782 79.2415822,80.262863 C75.6533389,81.929137 72.6705585,84.6682311 70.7040551,88.1018562 C69.3945539,90.2139709 67.7352854,92.0889044 65.7983045,93.6460949 C63.3774537,95.6376174 61.8482846,94.9681056 61.2748462,91.9252793 C60.8395134,89.8652043 60.5993298,87.7691018 60.557798,85.6639923 C60.557798,77.5067559 54.871951,73.4921867 48.7077383,72.9983091 C41.4762096,72.4083581 34.1651201,72.5679801 26.9020673,72.6795654 C23.2067422,72.6795654 19.5274292,73.3961132 15.7520428,73.7949181 C12.2078332,73.9780581 8.65661821,73.9780581 5.11240857,73.7949181 C0.907193573,73.3645891 -0.892682479,70.608482 0.700035195,66.7685463 C2.08359296,63.363443 3.96803366,60.1845126 6.29080949,57.3368355 C15.024987,47.1585539 25.0606595,38.1751859 36.1401301,30.618909 C40.8079092,27.3283933 45.6599179,24.2859786 50.5237029,21.2626099 L52.9557783,19.7514522 C54.981995,18.4917094 57.0052662,17.2286454 59.0131171,15.9456909 L59.1402142,15.9456909 L59.1247024,16.041264 C67.7267789,11.4587605 76.7126488,7.63683856 85.9792334,4.6180306 C96.3001239,1.23894721 107.178441,-0.102578424 118.010722,0.666509564 Z" id="path-3"></path>
        <path d="M78.3724178,0.210661056 C79.9611324,0.235680184 81.5008095,0.76558531 82.7682785,1.7238179 C86.4956282,4.67507422 90.0483443,7.84049426 93.4084132,11.2035654 C97.4700184,15.425293 97.5655914,20.9540199 96.9446167,26.275088 C96.7534705,27.868306 94.5232655,29.4615241 92.8189625,30.3221821 C82.800303,35.0537995 74.2312517,37.6187605 62.5558256,36.9657613 C47.8220612,35.6912869 33.0887972,34.4963734 18.3710451,33.1098133 C13.1785754,32.6159357 8.01762969,31.7082418 2.84117215,30.9271446 C0.22917521,30.5288401 -0.344263198,29.2228416 1.51916144,27.3108799 C2.92173374,25.855267 4.5319648,24.6148187 6.29781484,23.6305662 C11.3877062,20.9630268 16.0572762,17.5594246 20.154909,13.5298439 C23.5741897,10.1355038 27.9296909,8.40954389 32.3366939,6.77049408 L33.3045654,6.41147905 C33.5196778,6.33173279 33.7347586,6.25191798 33.9497053,6.17185105 L34.59404,5.93071035 C34.9159035,5.80957825 35.2372339,5.68746586 35.5576848,5.56375363 C43.8605325,2.65152716 52.5531783,1.00276664 61.3454002,0.672514155 C66.999723,0.306234124 72.7020826,0.194648814 78.3724178,0.210661056 Z" id="path-5"></path>
        <path d="M37.4136037,7.65084927 C41.5867942,12.4305034 45.8235333,17.2101576 50.1558454,21.8622142 C56.1819526,28.5022907 64.5993879,32.4743275 73.5542341,32.9031553 C74.7011109,32.9832165 76.1667314,32.79157 76.3098409,34.4963734 C76.4534507,36.2011767 75.1789763,36.6950543 73.9050023,37.013798 C66.7505325,38.6800719 59.23929,37.789391 52.6727697,34.4963734 C44.0381683,30.5153298 36.8166473,24.0033512 31.9659388,15.8240979 C27.5380536,8.51150727 25.5945677,7.76243458 16.9299434,9.18051875 C12.7407406,9.86554246 8.53602601,10.4229686 4.31479878,10.7737368 C2.94925478,10.8613037 1.61823718,10.3218914 0.69903443,9.3081163 C-0.224671767,7.71489824 1.11335119,6.12168018 2.59448355,5.22949809 C6.83172303,2.47289059 11.7054491,1.6922938 16.5796756,0.959733741 C18.2839786,0.688526396 20.0838546,0.577441469 21.9152548,0.401807192 C27.9268508,0.279213466 33.6537292,2.95776129 37.4136037,7.65084927 Z" id="path-7"></path>
        <path d="M11.3251584,0.243686305 L17.5048829,11.874078 C19.368808,15.9682081 21.3278057,20.0313145 23.0481209,24.1734813 C25.8850922,30.9595647 27.1652924,38.1346557 28.3908506,45.3133396 L28.589348,46.4774211 L28.589348,46.4774211 L28.788311,47.6412004 C28.8548678,48.0290358 28.9217393,48.4167601 28.989163,48.8043122 C29.1007483,49.3777506 29.3239189,49.9356771 29.4830406,50.5091155 L29.8813451,55.0335746 C29.1327728,54.2369656 28.3997123,53.4403565 27.6671523,52.6282357 C27.6221178,52.41157 27.5470604,52.2024101 27.4439816,52.0067605 L6.32333435,23.3288355 L0.175133894,13.4672961 C3.89197552,9.0699342 7.60831676,4.66206427 11.3251584,0.243686305 Z" id="path-9"></path>
        <path d="M35.2249304,1.8098837 C40.4179005,3.65779648 45.8015164,4.99631982 51.1531079,6.58953787 C52.4596067,6.97183015 53.8771905,7.40215914 53.5584468,9.0269013 C53.2686798,10.5043945 52.0050278,10.5332596 50.7487067,10.4424614 L50.5604361,10.4281103 C50.4977794,10.4231382 50.4352636,10.418033 50.3730115,10.412961 C49.002964,10.3018761 48.0952701,10.2218148 46.9644055,10.1742785 C38.5803405,9.8839876 30.6548234,11.961833 22.7904981,14.3124058 L21.8077474,14.6074963 C21.3165027,14.7556002 20.8254323,14.9044284 20.3344393,15.0534693 L18.3706496,15.6495548 C18.2069966,15.699121 18.0433377,15.7486351 17.8796695,15.798078 C14.9008921,16.6902601 12.002176,17.7735884 8.99137414,18.5386733 C3.49617292,19.924733 0.852151492,17.295723 0.501883703,11.8790819 C0.310737567,8.94734047 2.65202754,7.52925631 5.10490283,6.68511094 C9.4056909,5.21949044 13.7540153,3.92900383 18.0703152,2.55845601 C19.010534,2.25572456 19.9817766,2.06457842 20.8899709,1.69829839 C25.506,-0.104579954 30.6379235,-0.0645493497 35.2249304,1.8098837 Z" id="path-11"></path>
        <path d="M24.3691308,2.9372456 C24.9891048,4.36183474 25.5310191,5.81944912 25.993873,7.30258301 C25.3513818,11.5648416 23.4484269,15.5378791 20.5301959,18.7098041 C17.0840612,22.6593236 12.7497475,25.7331737 7.88352716,27.6796618 C7.38964958,27.870808 6.895772,28.0619541 6.38638256,28.2055639 C2.26072839,29.2888921 -0.112586075,27.6316251 0.0150114767,23.4259097 C0.0365279265,18.3690436 2.29325325,13.5803826 6.17922418,10.3454093 C10.2408294,7.15897322 14.6211783,4.22773221 18.921466,1.34402754 C21.7251094,-0.519897475 22.9195226,-0.09006886 24.3691308,2.9372456 Z" id="path-13"></path>
        <path d="M26.9320903,0.569935731 C28.0189212,0.909195103 28.8815807,1.74233206 29.2578684,2.8166534 C29.206329,3.95602448 28.5753466,4.99031523 27.5850895,5.55674828 C25.1182035,6.48145524 22.5687544,7.16948125 19.9717689,7.61231982 C17.0250161,8.15373374 14.062251,8.37690436 10.4304744,8.80723336 C8.24830604,8.37690436 5.39762663,8.01062433 2.65803213,7.2140153 C1.7498378,6.9588202 1.16038715,5.62079725 0.411814843,4.76013925 C1.35153328,4.15467636 2.24371538,3.16692119 3.26299464,2.9917873 C9.53879265,2.03605662 15.8461148,1.22343535 22.1539373,0.458850803 C23.74015,0.208159143 25.3588875,0.246188217 26.9320903,0.569935731 Z" id="path-15"></path>
        <path d="M177.663829,86.1728814 C178.004589,87.2421989 178.365365,88.3080138 178.735648,89.3718271 L179.107432,90.43514 L180.04615,93.0926718 C181.229054,96.459746 182.357417,99.8378286 183.047445,103.299976 C183.720959,107.904496 184.0352,112.555051 183.987163,117.208609 L183.08097,132.311155 L182.967884,134.144057 L182.967884,134.829581 C182.314884,140.182673 178.556011,142.333318 173.411077,140.262234 C172.73456,140.0871 172.168627,139.624747 171.862393,138.996266 C171.555659,138.368286 171.539647,137.637227 171.81836,136.996237 C174.894712,127.952323 175.325541,118.633699 174.832664,109.289555 L174.786129,108.452415 C174.778122,108.313308 174.769616,108.173702 174.761109,108.034095 L174.70957,107.220473 L174.653527,106.406851 L174.653527,106.406851 C174.411342,103.054788 173.832399,99.7247422 173.195412,96.4002005 L172.981249,95.2923535 L172.528402,92.9665754 C172.292222,91.7486442 172.061546,90.5302127 171.850384,89.3117812 C171.559161,88.2819939 171.749307,87.175648 172.36828,86.3029809 C172.987253,85.4298133 173.968003,84.8843963 175.035819,84.8188462 C176.341818,84.5636511 177.217988,84.8188462 177.663829,86.1728814 Z M38.483922,0.442838562 C39.0328416,0.790604438 39.5967728,1.11485233 40.1657077,1.43059373 L41.4496894,2.13513236 C42.3053435,2.60549197 43.1544927,3.08485845 43.9631109,3.62927467 C46.1773037,5.11090742 46.2728768,7.00685692 44.3774277,8.90280643 C44.0176526,9.28810099 43.6043366,9.62085539 43.1509901,9.89056159 L42.5495302,10.2218148 L41.9465692,10.5495654 L41.3426075,10.8728125 C40.8382219,11.1405172 40.3323351,11.4032181 39.8244468,11.6619158 L39.2139801,11.9691507 C39.0103244,12.0712288 38.8061683,12.172306 38.6020122,12.2723826 L37.9875425,12.5706106 L37.3705708,12.8638347 C29.6461653,16.4976129 21.3638332,18.9499878 11.4382448,19.2427116 L10.4149625,19.0315501 L7.39115073,18.4190819 L5.86648508,18.1023397 L4.96379495,17.9096924 L4.04859526,17.7100398 L3.58874369,17.6074614 L3.13940015,17.5058837 C3.01230298,17.4773619 2.88720735,17.4463382 2.765114,17.4118118 L2.58397552,17.3577705 C1.09383627,16.8899128 0.0785600612,15.9281775 0.320244836,14.0647529 C0.397303749,11.9246167 2.1456404,10.2248171 4.28627697,10.2093053 C11.7014461,9.95310941 19.0245448,8.48398623 25.9643504,5.85947972 C29.2798852,4.4403948 32.448808,2.70106503 35.4260842,0.666009181 C36.274733,-0.0980749809 37.5331951,-0.190145371 38.483922,0.442838562 Z M172.04153,0.729557766 L172.169628,0.844145371 L172.233177,0.90269013 L172.358272,1.02278194 L172.419819,1.084329 L172.540912,1.20992502 L172.598456,1.27247284 L172.712043,1.40057077 L172.820626,1.53217138 C173.621238,2.52943382 174.02905,3.78839633 173.092334,5.09489518 C172.229674,6.23126396 171.179371,7.21201377 169.986459,7.99461209 L169.561634,8.28583474 L169.140312,8.57005203 L168.722993,8.84776435 C168.65394,8.89329916 168.584888,8.93883397 168.515835,8.9838684 L168.10352,9.25107269 C167.966415,9.33863963 167.82981,9.4257062 167.693706,9.51127161 L167.286895,9.76496557 C167.219344,9.8069977 167.151792,9.84852946 167.08424,9.88956083 L166.680432,10.1337475 L166.278124,10.3709288 L165.876817,10.6021056 L165.477011,10.8267774 C165.143757,11.0114185 164.811002,11.1895547 164.478748,11.3616863 L164.078943,11.5648416 C164.012392,11.5983673 163.945841,11.6313925 163.87929,11.6644178 L163.478484,11.8585662 C163.278331,11.9541393 163.077177,12.0477108 162.876023,12.1392808 L162.471714,12.3189181 C161.729647,12.643166 160.977572,12.9393925 160.205982,13.2085983 L159.782658,13.3532089 C158.012305,13.9436603 156.131867,14.3990084 154.029259,14.7447728 L153.52037,14.8258347 C152.750282,14.943925 151.95067,15.0480046 151.115532,15.1395746 L150.553602,15.1981194 C150.364458,15.2171339 150.173812,15.235648 149.981164,15.2536618 L149.397218,15.3052012 L148.802263,15.3532379 C148.701686,15.3607437 148.601109,15.3682494 148.500032,15.3757552 L147.887064,15.4187881 L147.126982,15.465824 C146.614591,15.495847 146.089189,15.5223673 145.550777,15.5458852 L144.732652,15.5794109 C144.18073,15.5999265 143.615298,15.6174399 143.034854,15.6324514 L142.15368,15.6524667 L141.704337,15.6614736 L140.789637,15.6754843 L139.85092,15.6859923 C139.692298,15.6874935 139.533177,15.6884943 139.372554,15.689495 L135.029233,15.2736771 L133.201336,15.0925386 L131.494531,14.916404 L130.227562,14.7802999 L128.931572,14.6361897 L127.615065,14.4835731 L126.553253,14.3554751 L125.754142,14.255899 C124.788904,13.9676787 123.990794,13.2846565 123.555962,12.3759617 C123.06909,11.199062 122.819899,9.93709717 122.823402,8.66362357 L122.817897,8.42644223 C122.782871,5.90651568 123.513429,4.93677429 125.667576,4.76964652 L125.870731,4.75663657 L125.975311,4.75163275 L126.190476,4.74512777 L126.414147,4.74262586 C126.490205,4.74262586 126.567264,4.74312624 126.646324,4.74462739 C128.208018,4.77114767 129.769712,4.8046733 131.330406,4.84120122 L137.572178,4.99281714 C142.251755,5.10440245 146.928831,5.19447131 151.605406,5.15844376 C155.753578,5.07688141 159.888239,4.65055547 163.965856,3.8839694 C164.955613,3.70483244 165.876817,3.21445754 166.793018,2.67554552 L167.159798,2.45787911 L167.710219,2.13012854 C168.201094,1.84090742 168.696473,1.56269472 169.205862,1.33502066 L169.447547,1.22893956 L169.709748,1.11935578 L169.985959,1.009772 L170.175103,0.938717674 L170.350738,0.876670237 L170.526872,0.818125478 L170.701005,0.765084927 C171.278447,0.596456006 171.80585,0.527903596 172.04153,0.729557766 Z" id="path-17"></path>
        <path d="M13.5563642,0.196149962 L34.8836695,2.06007498 C35.04129,2.20668707 35.2059158,2.34479265 35.3775471,2.47439174 L35.3775471,2.47439174 L46.7342295,5.3580964 L47.1485463,5.26252334 C56.4186335,9.10195868 65.800306,12.7187238 74.958808,16.8133542 C110.043131,32.2581622 143.8795,50.3950283 176.166184,71.0618286 L176.166184,71.0618286 L194.626797,84.2854384 L186.392002,116.149299 L169.237386,98.8470712 L168.839582,98.8470712 C157.781128,89.0891109 144.970834,81.5203244 131.089721,76.5425187 C128.907553,75.7298975 126.789434,74.7736664 124.63879,73.8814843 C117.132551,62.1144881 106.369322,52.7823535 93.6586044,47.0204484 C73.8539633,38.3723366 53.4568692,31.1528171 32.6219403,25.4164315 L32.6219403,25.4164315 L31.7142464,25.6075777 L18.8759311,21.5609839 L0.0970742158,16.9089273 C4.59901607,11.3431721 9.08544606,5.77241316 13.5563642,0.196149962 L13.5563642,0.196149962 Z" id="path-19"></path>
        <path d="M11.169039,0.459851568 L29.9483963,5.09589594 L42.7862112,9.15850191 L43.6944055,8.95184392 C64.5213282,14.6947345 84.9129181,21.9147544 104.715057,30.5553604 C117.415267,36.3112609 128.171991,45.6318868 135.67923,57.3848722 C137.829374,58.2770543 139.947994,59.2332854 142.130162,60.0459067 C155.947226,65.0082005 168.70548,72.5319526 179.736413,82.2228615 L179.736413,82.2228615 L180.086681,82.3344468 L180.277827,82.3344468 L197.432442,99.6686993 L192.781386,117.639939 C187.867129,112.061674 182.36092,107.034331 176.359331,102.647977 C176.01757,102.359256 175.697826,102.045016 175.403601,101.707758 L175.403601,101.707758 L174.910223,101.707758 L158.105876,88.7393435 C149.887093,82.3184346 142.958295,74.9102708 139.326519,64.9366458 C138.003507,61.6306182 135.65271,58.8379832 132.620892,56.9705555 L132.620892,56.9705555 L131.665161,56.5567391 C124.656803,54.7563627 117.616421,53.0515593 110.640087,51.1075731 C107.445645,50.2063841 104.325259,49.0615088 101.306451,47.6824545 C98.1685524,46.1848095 97.8978454,43.92258 100.255148,41.4051553 C103.249437,38.2667559 102.516877,35.5421729 98.1685524,34.7615761 C92.8324728,33.8058454 87.384808,33.3755164 82.001192,32.6109319 C79.2429109,32.2202194 76.4769668,31.909364 73.7095371,31.6069027 L71.8644317,31.4057211 C66.3288617,30.8012017 60.7928398,30.1667357 55.3057827,28.9306182 C50.1453374,27.783241 44.4905142,28.6594109 39.0748738,28.8345448 C35.6027192,28.9621423 32.1620888,29.4880444 28.7059464,29.8228003 L28.7059464,29.8228003 L27.8137643,29.9979342 C26.2210467,29.9023611 24.628329,29.9979342 23.0356113,29.9023611 C19.1331278,29.6631783 17.2056542,27.9903994 15.947192,23.991342 L15.947192,23.991342 L15.947192,23.2427697 L16.281948,21.7771492 C17.6995318,19.0685784 19.1966764,16.3920321 20.5186871,13.6354246 C20.9650283,12.8438194 21.0520949,11.8985968 20.7578699,11.0389396 C20.0733466,10.3849396 19.1336282,10.0696985 18.1934093,10.1782816 C16.2499235,10.406456 14.3234507,10.7627284 12.4275011,11.2460979 C10.3726802,11.6999449 8.36176779,12.1738072 6.3608005,12.6517351 L3.36256295,13.3696824 C2.36280643,13.6086854 1.36129074,13.8467112 0.353770467,14.0817659 L0.353770467,14.0817659 L11.169039,0.459851568 Z" id="path-21"></path>
        <path d="M0.240684009,1.22243458 C2.72558378,0.792105585 4.65305738,0.0115087988 6.45293344,0.218667177 L6.45293344,0.218667177 L7.86037465,0.38174967 C16.7750587,1.41971166 25.7006488,2.58152364 34.2952196,5.39662586 C40.1406886,7.30858761 44.7762326,11.148023 49.2041178,15.1310681 C54.3645631,19.7516006 59.175241,24.817974 64.1445402,29.5971278 L64.1445402,29.5971278 L64.5268324,29.7247253 C67.3803712,33.5303491 68.6950044,37.9487498 69.9457189,42.4021623 L70.2414713,43.4572883 L70.2414713,43.4572883 L70.340277,43.8089931 C71.7578607,48.8593542 75.2305157,52.3004851 79.2921209,55.2797628 L79.2921209,55.2797628 L72.9207498,79.7834966 L56.8174384,59.4539541 L56.3876098,58.5297475 C52.1823948,52.0137659 48.2643994,45.2746136 43.6448676,39.060863 C35.2459464,28.0094139 24.7979587,18.6787804 12.8718409,11.578352 C9.52728386,9.49125631 6.34134813,6.97383168 3.15591278,4.55198011 C2.09209946,3.52619587 1.11735425,2.4123443 0.240684009,1.22243458 Z" id="path-23"></path>
        <path d="M196.91955,0 C207.735819,0 216.504523,8.77070543 216.504523,19.589977 C216.504523,20.7468615 216.403946,21.8807284 216.2118,22.9825708 L216.156757,23.2822999 L216.098213,23.5765249 L216.098213,23.5805279 L216.134741,23.5805279 L181.148493,158.826427 L162.703391,145.777951 L162.703391,145.618829 C130.4072,124.950528 96.5593221,106.813662 61.4644912,91.370355 C56.2980413,89.0605891 51.0610375,86.9029396 45.8125249,84.7713099 L41.3976496,82.9824422 C39.4591676,82.197342 37.5211859,81.4107406 35.586707,80.6161331 L33.6542295,79.8195241 L33.2399128,79.9150972 L21.8672181,77.0313925 C21.7386197,76.9343183 21.6135241,76.8322402 21.4929319,76.7256588 L21.3733405,76.6170757 L5.22249273,75.1989916 L0.0460351951,74.7531507 L5.22249273,68.2686932 L35.4861301,30.2866549 L39.1509319,25.6796327 C41.5968018,22.6072839 44.0496771,19.5379373 46.5240689,16.4896067 C53.8251507,7.49923336 66.2151232,0.148113236 78.8262647,0.00200153022 L79.208557,0 L196.91955,0 Z" id="path-25"></path>
        <path d="M96.2946197,0.267704667 L99.4800551,7.53275899 L99.4800551,7.97910023 L100.499334,9.98613466 C101.805333,12.7107177 103.159368,15.387264 104.592964,18.047798 C106.02656,20.7083321 107.460156,23.3213298 109.052874,25.9183152 C111.930574,30.7299939 115.02594,35.4030666 118.338973,39.938534 C118.593668,40.2888018 118.832851,40.63957 119.087546,40.9743259 C119.095552,41.1174353 119.095552,41.2610451 119.087546,41.4041546 C122.109856,45.2621041 125.144176,49.1115471 128.180998,52.9599893 L131.825284,57.5780199 C140.328785,68.3542586 148.819777,79.1420061 157.092101,90.092378 C158.724849,92.3095731 160.33508,94.5157598 161.923295,96.7294522 L162.874021,98.0584682 L164.116471,99.7472594 C166.632895,103.307982 169.109789,106.900728 171.578676,110.49948 L174.53944,114.819282 C175.526695,116.258883 176.51445,117.697983 177.504707,119.134581 L178.993345,121.288728 L0.213663351,121.288728 L24.0924193,91.0861377 C24.4486917,90.4616603 24.8404912,89.8937261 25.2628141,89.3928432 L25.4479556,89.1791798 C25.699648,88.8984652 25.9118103,88.6202525 26.0844422,88.3445417 L45.2861224,64.2806442 L63.2723734,41.5317521 L63.2603642,41.7544223 L65.091264,39.4606687 L73.166938,29.263873 C76.0286259,25.7046519 78.8467804,22.1449304 81.6474216,18.5887116 L84.4425585,15.0334935 L87.629495,10.9738898 C89.6090084,8.4704759 91.6210467,5.99108034 93.637088,3.51919051 L96.0554369,0.554423871 L96.2946197,0.267704667 Z" id="path-27"></path>
        <path d="M15.6869931,0.0205156848 L21.8351936,9.88255547 L42.9558409,38.5599801 C43.0589197,38.7556297 43.133977,38.9647896 43.1790115,39.1814552 L43.1790115,39.1814552 L45.377192,41.5872946 L45.7434721,42.5430252 C49.1360658,56.7704024 55.8416924,69.6277322 63.8057812,81.7835256 C67.8143458,88.1699082 72.8146687,93.8757705 78.6191064,98.6874491 C82.8828661,101.956448 87.7565922,104.33977 92.9545662,105.697809 C96.3311477,106.409353 99.2348676,108.547487 100.918655,111.560791 C105.20293,120.243429 112.546044,125.915265 120.032268,131.475516 C120.494121,131.826285 120.939962,132.208577 121.370291,132.590869 L121.370291,132.590869 L122.596728,133.706222 L123.186179,134.216112 L123.695568,134.677965 L124.030324,135.570147 C124.134404,135.899899 124.267506,136.220144 124.428129,136.525878 C125.288286,137.848389 126.180468,139.138875 127.056638,140.445374 L127.056638,140.445374 L82.8878699,140.445374 C77.9180704,133.243868 73.0443443,126.026851 68.0109962,118.905406 L68.0109962,118.905406 L66.8005708,117.184591 C64.9051217,114.460008 62.977648,111.815486 61.0186503,109.2185 C48.6106641,92.7924422 35.7563366,76.7331645 23.0140949,60.530277 C23.022101,60.3871676 23.022101,60.2435578 23.0140949,60.099948 C22.7594002,59.7656924 22.5202173,59.4149243 22.2655226,59.0646565 C18.9524897,54.5081729 15.8571232,49.8345998 12.9794231,45.0444376 C11.4342418,42.4474522 9.95310941,39.8344545 8.51951339,37.1739204 C7.0964254,34.5183902 5.73188217,31.8313359 4.4258837,29.1122571 L4.4258837,29.1122571 L3.40660444,27.1047223 L3.40660444,26.6588814 L0.22116909,19.3938271 L15.6869931,0.0205156848 Z" id="path-29"></path>
        <path d="M0.46985922,0.462353481 C3.3475593,5.25301607 6.44292578,9.92608875 9.75595868,14.4825723 C6.44292578,9.9476052 3.3475593,5.27403213 0.46985922,0.462353481 Z" id="path-31"></path>
        <path d="M0.491375669,0.203155318 C5.52422341,7.32459985 10.3984499,14.5736419 15.3682494,21.7431232 L15.3682494,21.7431232 L13.2317078,18.6662212 C8.9713282,12.5050911 4.77822451,6.30725063 0.491375669,0.203155318 Z" id="path-33"></path>
        <path d="M0.101077276,0.0750573833 C2.37881867,1.81188523 4.70459679,3.50067636 6.9503137,5.28504055 C7.12094415,5.42064422 7.28056618,5.56975822 7.42817904,5.73088141 L7.42817904,5.73088141 L3.4621469,5.73088141 C2.58597705,4.42438256 1.69379495,3.13389594 0.833637337,1.81188523 C0.678518745,1.54117827 0.545416985,1.25896251 0.435833206,0.96723948 L0.435833206,0.96723948 L0.101077276,0.0750573833 Z" id="path-35"></path>
        <path d="M334.918554,0.935715379 C335.217783,1.80037643 335.130716,2.75210406 334.679371,3.5482127 C333.886265,5.20197705 333.03011,6.82721959 332.165449,8.4474583 L331.300788,10.0671966 L330.869959,10.8778164 L330.442632,11.6894369 L330.107876,13.1555578 L330.107876,13.8565937 L330.157914,14.0102112 C330.226967,14.2198715 330.298021,14.4225264 330.371077,14.6186764 L330.482663,14.9088982 C331.744627,18.0913313 333.64408,19.4934032 337.044679,19.7410926 L337.196295,19.7511002 C338.434742,19.8381668 339.673689,19.8571813 340.912637,19.8616848 L341.974448,19.8626855 L342.86663,19.6875516 C343.730791,19.5999847 344.593951,19.5014093 345.456611,19.4008324 L346.7506,19.2502173 C348.907749,19.0010268 351.065399,18.7693497 353.235558,18.6997965 C354.249833,18.6637689 355.272115,18.6042234 356.297899,18.5381729 L358.47006,18.3960643 L359.171096,18.352531 C362.560187,18.1483749 365.93927,18.0588064 369.136214,18.7238148 L369.466467,18.7953695 C374.146545,19.8411691 378.86215,20.4541377 383.583259,20.9880459 L385.156462,21.1636802 L388.304369,21.5094445 C390.926874,21.7986656 393.547878,22.1008967 396.161876,22.4756832 C397.745587,22.6958516 399.334301,22.89 400.924517,23.0781438 L403.788207,23.4144009 C406.651396,23.7536603 409.511582,24.112935 412.344748,24.6103152 C416.417362,25.3443764 417.309044,27.7672288 414.927723,30.7019725 L414.771103,30.8901163 C414.690542,30.9846886 414.606978,31.0792609 414.519911,31.174834 L414.431344,31.2699067 C412.08555,33.7427972 412.291708,36.0440566 415.374064,37.4816557 L415.482647,37.5311936 C418.491948,38.9252594 421.60783,40.0761393 424.800771,40.9728248 C428.870383,42.1066917 432.96151,43.1589962 437.058643,44.1997919 L440.571829,45.0904728 C441.743224,45.3877001 442.914119,45.6854277 444.085515,45.9856572 L445.841858,46.4375027 L446.797588,46.8358072 L446.98323,46.9508952 C449.945495,48.8108171 452.249757,51.5569166 453.566764,54.8013971 C456.657627,63.2898868 462.136315,69.954482 468.766384,75.6798592 L469.265766,76.1076863 L469.769151,76.5315103 L470.277039,76.9523321 L470.532234,77.1619923 L471.174725,77.6813894 L471.823221,78.1957827 L472.084421,78.4004392 L472.346121,78.6040949 L489.150468,91.6365585 L489.293578,91.6415624 C489.389151,91.6435639 489.484724,91.6415624 489.580297,91.6365585 C489.879025,91.9698133 490.197769,92.2835532 490.536028,92.576277 C496.400011,96.8605524 501.792133,101.755795 506.620324,107.178941 L507.021631,107.632288 L496.174338,149.852066 L495.79705,149.570851 L495.609406,149.429243 L495.237122,149.142523 C491.594337,146.306855 488.516484,142.919265 487.239007,138.381296 L486.60202,136.109559 L486.440396,135.543126 L486.193708,134.694978 L486.110144,134.413262 L485.939513,133.850332 L485.76488,133.289403 C484.789634,130.210549 483.581711,127.227769 481.606701,124.540715 L481.425062,124.297028 L481.04277,124.169431 L480.216138,123.351806 L478.568878,121.715054 L476.927624,120.080805 C473.373907,116.543601 469.829697,113.040422 466.102347,109.703371 L465.401311,109.075891 L464.931452,108.659573 L464.459591,108.245757 L463.985229,107.834442 L463.508364,107.42613 C463.428803,107.358578 463.348742,107.291027 463.268681,107.223475 L462.787313,106.821168 L462.545128,106.621015 L462.058756,106.225212 C458.801766,103.601706 455.295585,101.310454 451.193449,99.9689288 C444.317692,97.716707 437.230274,96.5227942 430.105827,95.6040918 L428.980967,95.4609824 L427.855106,95.3218761 L426.166315,95.1192211 L423.351163,94.7909702 C422.478496,94.6903933 421.575806,94.8224943 420.594555,95.0336557 L420.222271,95.1167192 L419.649333,95.2508217 L418.854225,95.4389656 L418.44191,95.5335379 C418.024591,95.626609 417.591259,95.7166779 417.139414,95.7947376 C418.015584,96.9846473 418.990329,98.0984989 420.054142,99.1242831 L420.531507,99.4885616 L422.916331,101.315458 C425.145535,103.01776 427.395255,104.689538 429.77007,106.150655 C441.696188,113.251083 452.144176,122.581717 460.543598,133.633166 C463.199128,137.217907 465.626984,140.977781 468.016311,144.768679 L468.97054,146.28634 L470.399633,148.564581 C471.194741,149.830049 471.992851,151.093015 472.799968,152.349475 L473.285839,153.10205 L473.716168,154.026257 L489.867016,174.387324 L410.003959,483.273475 L410.037484,483.261966 L409.186334,486.434892 L405.871299,499.257695 C405.714679,499.716546 405.544049,500.201417 405.357907,500.710306 L397.408829,530.339458 C394.557149,536.929497 383.901002,551.016767 362.546676,551.180392 L104.61398,551.180392 C104.466367,551.018768 104.306745,550.869654 104.136115,550.73355 C103.013256,549.841368 101.870383,548.973204 100.723506,548.111045 L99.0021897,546.819558 C98.7154705,546.604393 98.4287513,546.389229 98.1430329,546.173064 L97.2868783,545.524067 L97.164785,545.406978 C97.0817215,545.33092 96.9956557,545.257864 96.9080888,545.185809 L96.7769885,545.077726 L96.1880383,544.567836 L94.9616006,543.452984 C94.5312716,543.070191 94.0854308,542.687899 93.6235777,542.337631 L92.3390956,541.385904 L91.5715088,540.812465 L90.8074246,540.237025 L90.3005371,539.851731 L89.7951507,539.464435 L89.2922663,539.075637 L88.7913833,538.684839 L88.1694078,538.192963 L87.5514353,537.697584 L87.3057475,537.497931 L86.8168738,537.097125 L86.5736878,536.895471 L86.0893175,536.490161 L85.6094507,536.080848 C85.2111461,535.738586 84.8163443,535.392822 84.4265463,535.042554 L83.9611905,534.620231 L83.7300138,534.407568 L83.2716634,533.978741 C79.7754904,530.672713 76.7161515,526.961376 74.5094644,522.422406 C72.8261775,519.409102 69.9224575,517.271467 66.5458761,516.559423 C61.3479021,515.201385 56.474176,512.818063 52.2104162,509.549564 C46.3609441,504.747893 41.3165876,499.04103 37.2699939,492.64564 L36.9957842,492.223818 L36.4503673,491.379673 C36.1791599,490.956849 35.9094537,490.533526 35.6412487,490.109201 L35.1068401,489.260552 L34.5779357,488.409402 L34.0530344,487.556249 C27.5270451,476.879086 22.1639449,465.702041 19.2392089,453.341091 L19.1561454,453.126927 L18.996023,452.692095 L18.8729288,452.369348 L18.8253925,451.871968 L18.7042999,450.555461 L18.6267406,449.672286 L18.5501821,448.772098 L18.4746243,447.844889 L18.4030696,447.599702 L18.3375195,447.391042 L18.2044178,446.975224 C18.1168508,446.698012 18.0352884,446.4208 17.9807467,446.140086 L17.817622,445.196364 L17.2526901,441.891337 L17.0080031,440.474754 L16.8418761,439.531533 L16.6727467,438.588312 C15.6184407,432.776369 14.3414644,427.014464 12.0397047,421.509255 C11.0359373,419.092907 9.95160826,416.703581 8.85176741,414.319258 L7.43468401,411.254415 C7.27756389,410.914155 7.12094415,410.573394 6.96432441,410.232634 L6.49646672,409.209351 L0.284717674,397.594972 C7.28256771,388.683659 14.3279541,379.809875 21.4213772,370.972618 C23.7876863,368.013856 26.1750115,365.070606 28.5683412,362.131359 L33.9564606,355.518803 L42.4624637,344.716545 C51.0530314,333.89327 59.6541071,323.091512 68.2656909,312.31077 C89.3728279,285.827523 110.483968,259.378802 131.598611,232.965608 L142.156182,219.762014 L214.087676,129.71417 L296.499682,26.2991064 C302.509777,18.8644223 308.514868,11.4292379 314.514454,3.99455394 C318.544035,3.03832288 322.558104,2.06657995 326.588185,1.14237337 C328.485135,0.666509564 330.411108,0.31524101 332.354093,0.0910696251 C333.29181,-0.0215164499 334.231028,0.287719969 334.918554,0.935715379 Z M250.419953,253.872092 C248.987357,256.672733 247.916539,259.644005 247.234017,262.714352 C246.732133,264.721887 246.317316,266.75344 245.915008,268.788496 L245.571746,270.53333 C245.113396,272.859108 244.644037,275.182384 244.053085,277.471134 L243.825411,278.327789 C242.535425,283.203016 239.269928,285.163015 234.268604,284.796234 C233.426961,284.734187 232.597327,284.564557 231.770194,284.364904 L231.219273,284.2283 L230.209501,283.971604 C229.648072,283.831497 229.085642,283.699896 228.518708,283.601321 C225.940738,283.061908 223.335246,282.663103 220.713741,282.406407 C216.902828,282.16222 213.464699,283.249552 210.189195,284.826257 L209.771876,285.030413 L209.356559,285.239073 L208.942742,285.452236 L208.513914,285.678409 L208.086588,285.908585 L207.448099,286.260854 L207.024275,286.499036 L206.601452,286.74022 L205.778323,287.204075 L204.954693,287.664927 L204.129062,288.121777 L203.853351,288.272392 L203.300929,288.571621 L202.747005,288.866846 C199.048678,290.821841 195.235262,292.487614 190.976006,293.113093 C189.999259,293.256202 189.025515,293.419327 188.053272,293.584453 L186.595657,293.831642 C185.138543,294.076829 183.680929,294.308006 182.215809,294.467128 C180.741181,294.500653 179.482719,295.54195 179.173483,296.984552 C178.558012,298.992588 177.807438,300.956589 176.927265,302.863047 L176.856211,303.002653 L176.713102,303.273861 C176.574996,303.531057 176.43589,303.774744 176.295783,304.00492 L176.155175,304.230092 C174.375314,307.019224 172.408311,307.634194 169.615175,306.288165 L169.383998,306.173077 C169.228379,306.093516 169.070259,306.007951 168.909636,305.916381 L168.66695,305.775774 C168.504326,305.678699 168.338699,305.576121 168.170571,305.468038 L167.915876,305.30091 C167.830311,305.243867 167.744245,305.185322 167.657178,305.125777 C167.036204,304.699451 166.420733,304.261116 165.806764,303.820279 L164.425708,302.826519 C163.04215,301.835261 161.647584,300.863018 160.186967,300.011366 C155.343264,296.753376 148.792756,297.899252 145.342118,302.608352 C143.548246,304.75099 141.949524,307.048747 140.563464,309.475102 C136.351744,317.043388 133.546099,325.311209 132.282133,333.877758 L132.217083,334.329103 L132.053959,335.396419 C131.862312,336.641371 131.669164,337.886323 131.47952,339.130774 L131.317896,340.19809 L131.158774,341.264906 C131.105734,341.620678 131.053694,341.97645 131.002155,342.332222 L130.850038,343.399538 L130.701925,344.467855 C129.854277,350.697617 129.274834,356.947396 129.605086,363.277235 C129.681645,364.777382 129.993383,366.255512 130.528793,367.658585 C131.356926,369.809729 132.950144,370.128473 134.542862,368.535255 C136.161099,366.744886 137.686765,364.872955 139.114357,362.926967 C141.085363,360.153347 143.21249,357.493813 145.485227,354.960877 C149.068967,351.376136 151.952171,352.332367 153.178609,357.223106 C153.231149,357.443275 153.268678,357.666946 153.290194,357.892618 C153.40178,359.051504 153.530878,360.21039 153.66448,361.369777 L153.905665,363.455871 C154.225409,366.237498 154.519634,369.019625 154.596193,371.801252 C155.040032,388.05768 154.353507,404.284086 153.372257,420.49598 L153.21914,422.989887 L153.06202,425.483793 L152.901397,427.9772 L152.573146,432.964012 C151.410757,450.40985 156.507654,465.290226 169.807322,477.095752 C172.165125,479.262409 174.553951,481.381529 176.943278,483.468624 C178.780182,485.051835 180.613083,486.639549 182.444484,488.228764 L187.936682,492.99841 C194.040349,498.296461 200.156525,503.578999 206.378282,508.736943 C210.81017,512.360713 215.471734,515.694262 220.333451,518.716072 L220.968436,519.108372 C226.030306,522.247272 230.686366,520.514447 232.958103,515.145842 L233.026155,514.982217 C233.312874,514.281181 233.64763,513.596158 233.886312,512.895122 C235.983415,506.54977 239.961457,500.993523 245.291031,496.962941 C247.799449,494.924383 249.855021,492.384941 251.327647,489.506741 C253.493803,485.285013 250.786233,481.285956 246.007579,480.903663 C245.17144,480.856127 244.332298,480.904164 243.507168,481.046773 C242.367796,481.220406 241.230927,481.410551 240.094559,481.607201 L238.732017,481.845383 L237.369475,482.084566 C234.190545,482.641492 231.011114,483.1749 227.80166,483.4366 C218.579109,484.186173 209.589737,482.488375 200.773497,479.987963 L199.959875,479.754785 L199.553564,479.636695 L198.741943,479.397011 L197.728168,479.092779 L196.716395,478.782542 L196.312086,478.656946 C191.264226,477.282395 186.538113,474.92109 182.406454,471.710635 C179.234029,469.447405 177.773412,465.469363 178.727142,461.689474 C179.233529,459.427244 179.970092,457.222058 180.925322,455.109443 C183.484279,449.655273 185.146549,443.823314 185.847085,437.839239 C186.491578,434.625783 185.857093,431.287731 184.079233,428.535126 C182.001645,425.606888 179.504236,425.338682 176.89424,427.730511 L176.800168,427.818078 C176.358831,428.215382 175.972035,428.663224 175.595748,429.119573 L175.033318,429.805598 C174.782125,430.108829 174.52593,430.406557 174.25172,430.68577 C173.412078,431.649007 172.447841,432.495654 171.384528,433.203195 C169.266409,434.443143 167.797285,433.735102 167.327426,431.383304 L167.30691,431.275221 C167.185318,430.688272 167.126773,430.090315 167.131777,429.490857 C167.184317,428.133319 167.246865,426.777783 167.311414,425.422747 L167.440012,422.713676 C167.545593,420.457451 167.641166,418.203227 167.689203,415.948503 C167.774268,409.576132 167.8168,403.203259 167.8168,396.830387 C167.71222,395.025007 167.472537,393.230635 167.099752,391.461282 C166.331164,386.567041 168.58839,381.692314 172.818124,379.113842 C175.077351,377.830361 177.357594,376.587411 179.64034,375.355969 L183.977155,373.020684 C185.572875,372.159526 187.164592,371.294364 188.746301,370.415192 C191.427852,369.19576 193.310291,366.701353 193.747625,363.787125 C194.528222,356.012681 197.474474,349.002321 201.010678,342.151584 C202.3477,339.614644 203.415516,336.945103 204.196614,334.185493 L204.278676,333.891769 L204.320708,333.747659 L204.42729,333.39639 L204.536874,333.05663 L204.627443,332.79393 C204.672978,332.664331 204.719513,332.537233 204.76755,332.413138 L204.863624,332.168952 C204.896649,332.088891 204.929674,332.00983 204.9632,331.93177 L205.065278,331.702095 C206.238675,329.138135 207.988012,327.951728 211.236996,327.611968 L211.527218,327.583946 C211.674831,327.570936 211.824946,327.559928 211.978063,327.550421 L212.2888,327.532907 L212.658083,327.517396 L212.908774,327.511891 L213.144955,327.511891 L213.235524,327.513393 L213.409657,327.519897 C213.4662,327.522399 213.521243,327.525902 213.574783,327.530406 L213.731403,327.544917 C214.770698,327.660005 215.196523,328.078324 215.147986,328.987019 L215.137478,329.123624 C215.128471,329.216695 215.114961,329.31477 215.096947,329.417849 L215.066424,329.57647 L215.029896,329.742096 L214.986863,329.915729 C214.979357,329.945252 214.971351,329.975275 214.963345,330.005298 L214.910805,330.190439 L214.852761,330.383587 C214.832245,330.449637 214.810728,330.516689 214.788712,330.584741 C214.515503,331.417878 214.22428,332.246011 213.928054,333.072643 L213.259542,334.932565 C212.815703,336.173513 212.383873,337.418966 212.008586,338.682432 L211.825946,339.315916 C211.13792,341.569639 211.809934,344.014508 213.542259,345.59972 L213.907037,345.925969 C214.217775,346.199679 214.532516,346.464381 214.85176,346.718075 L215.12647,346.932739 C218.52807,349.549239 222.421047,350.930295 226.941503,349.751394 C231.996367,348.412871 236.992187,346.925734 241.929962,345.289983 C250.555056,342.354239 259.988268,342.926176 268.195542,346.883201 C271.513079,348.374341 275.001746,349.4972 278.522938,350.5445 L280.10865,351.011858 L281.268037,351.350116 C283.006866,351.856503 284.744695,352.363391 286.46501,352.905806 C287.481287,353.184018 288.530589,353.319622 289.582894,353.309114 L289.82608,353.30411 C293.696539,353.256073 295.527939,350.914283 294.604233,347.201945 C294.349538,346.203682 294.053812,345.214926 293.75058,344.22667 L293.294731,342.744537 C293.143616,342.250159 292.995002,341.75478 292.852894,341.257901 L292.621717,340.425264 L292.554165,340.167567 L292.512634,339.994935 C292.499123,339.937391 292.486614,339.879847 292.474604,339.822803 L292.440578,339.650171 L292.425067,339.562104 L292.397546,339.38647 C292.240425,338.27512 292.424566,337.211307 293.616978,336.49576 C295.113622,335.704655 296.967539,336.222551 297.837705,337.674661 C299.49247,339.804289 300.948083,342.08153 302.186029,344.477862 C304.782514,349.560248 307.09178,354.785743 309.688265,359.868129 C311.76235,363.968263 315.340586,367.107663 319.6754,368.630828 L320.416967,368.90854 L322.639666,369.742678 C325.354242,370.758955 328.068317,371.748211 330.824924,372.565836 C334.409665,373.361445 337.247334,376.088029 338.191556,379.628736 L338.231587,379.782854 C339.901363,386.090676 341.104783,392.512586 341.831339,398.997044 C342.06802,401.901264 341.779299,404.847016 341.429031,407.801775 L341.161827,410.01897 C340.985692,411.497601 340.823068,412.976231 340.731998,414.451359 C340.51183,417.996569 340.393239,421.550787 340.28916,425.107005 L340.174572,429.108565 C340.131039,431.715558 338.87708,434.153422 336.781979,435.704607 C336.177516,436.0874 335.428444,436.163959 334.758932,435.911766 C334.232529,435.452915 333.989844,434.748877 334.121945,434.063353 C335.259815,431.269717 335.394918,428.44806 335.235796,425.620898 L335.207775,425.162548 L335.166243,424.589109 L335.119207,424.015671 L335.078176,423.557321 L334.986106,422.593083 L334.889031,421.613334 C334.784952,420.552523 334.686877,419.492213 334.631835,418.434404 C334.536262,416.665552 333.373373,415.900967 331.621033,416.410857 C331.130658,416.550964 330.652793,416.737106 330.177429,416.932256 L329.465385,417.227481 C328.990021,417.42263 328.512156,417.608773 328.021281,417.74888 C325.898658,418.517968 323.697976,419.052376 321.459264,419.342098 C306.177581,420.154219 290.883388,420.907295 275.576686,421.601826 L269.836297,421.859523 C257.306217,422.442969 244.750618,421.781963 232.352139,419.887515 L231.131206,419.69787 L230.653841,419.626816 C230.415659,419.592289 230.177477,419.559264 229.939295,419.52824 L229.463431,419.467694 L229.230252,419.439673 L228.763896,419.387633 C224.646748,418.951299 220.602156,419.13494 216.715685,421.078926 C214.015621,422.194779 212.009587,424.533067 211.316057,427.372237 L211.266519,427.603914 L211.220984,427.828586 L211.161438,428.151833 L211.127412,428.358491 L211.111901,428.459068 L211.08538,428.655218 L211.063363,428.844863 L211.04585,429.027503 L211.033841,429.203637 C210.945273,430.816871 211.528219,431.593464 213.126941,432.014787 L213.302575,432.05882 L213.485715,432.099852 L213.725399,432.147888 L213.978092,432.192422 L214.189754,432.225448 L214.409422,432.256972 L214.522508,432.271483 L214.874277,432.313515 L219.214095,432.782874 C224.128852,433.315781 229.026597,433.858196 233.981885,434.477669 L238.02998,434.995565 L239.186865,435.141177 L240.922191,435.35484 L242.079076,435.492946 C248.63759,436.261533 255.210615,436.804949 261.856196,436.421656 C265.649596,436.214497 269.451503,436.214497 273.244903,436.421656 C278.459389,436.474196 282.884272,440.262092 283.741428,445.407025 C284.230802,448.449852 284.528529,451.519699 284.633109,454.600054 C284.652124,457.858545 286.551076,460.813304 289.507336,462.183351 L297.547983,466.085334 C301.567056,468.035325 305.586629,469.980813 309.612707,471.908787 L312.969273,473.511011 C318.234799,476.050953 323.897128,477.667689 329.710072,478.290666 C334.071406,478.971186 338.535819,478.240127 342.452314,476.20357 C346.325775,473.96736 347.490666,471.046127 346.270733,466.793376 L345.927471,465.625983 C345.628242,464.604202 345.335518,463.573414 345.096335,462.534119 C343.901922,457.2766 345.526664,454.328846 350.846231,453.229506 C354.197793,452.624043 357.6069,452.399371 361.0085,452.560494 C362.717807,452.605529 364.419608,452.784666 366.120909,452.981316 L368.035373,453.204487 C369.311849,453.350098 370.589826,453.480698 371.871806,453.548249 C374.537344,453.901019 377.167354,452.708107 378.658995,450.479904 L378.736554,450.361813 C382.521448,444.493827 387.647867,439.611594 393.692989,436.118924 C397.824147,433.716087 401.230251,430.242932 403.552526,426.065738 C404.018383,424.368941 404.475232,422.681151 404.93008,420.995362 L405.384427,419.310574 L405.384427,409.830826 C405.384427,405.735195 405.371917,401.639564 405.356906,397.543933 L405.333888,391.400736 C405.300363,382.185691 405.279347,372.970646 405.384427,363.755601 C405.48,355.088474 407.184303,346.708067 412.074041,339.267879 C412.934199,337.950872 413.842393,336.658384 414.758594,335.369399 L415.937495,333.711631 C417.266511,331.8392 418.577013,329.953258 419.748409,327.987255 L420.03813,327.494378 C422.88931,322.654178 425.437758,317.641845 427.667963,312.486404 C429.18112,308.933187 427.890634,306.256641 424.561588,304.249106 C423.521293,303.62613 422.461483,303.040682 421.400171,302.462741 L419.807954,301.596578 C419.278549,301.306857 418.750145,301.015134 418.225744,300.717406 L417.441645,300.266061 L417.441645,300.282073 C413.499631,297.954294 409.106773,296.493177 404.556294,295.996797 C402.685864,295.805151 400.815434,295.684559 398.945004,295.543451 L398.009789,295.470895 L397.770606,296.139907 C398.365561,296.749373 399.004049,297.313804 399.682067,297.828698 C400.27452,298.216995 400.883986,298.582274 401.496454,298.942549 L402.232017,299.374379 L402.831976,299.729651 C403.629585,300.207016 404.415186,300.699893 405.156252,301.251314 L405.431963,301.461475 C407.726718,303.191798 409.859348,305.127278 411.803334,307.244396 C412.578927,308.299703 412.798095,309.663746 412.392785,310.908698 C411.61469,311.9575 410.368237,312.553956 409.06374,312.501916 C406.615368,312.19368 404.235549,311.477633 402.023357,310.383296 C400.599769,309.640228 399.254741,308.746545 397.91922,307.830845 L396.718301,307.003712 C395.705027,306.30718 394.685748,305.620155 393.62944,304.998179 C392.422517,304.483786 391.153047,304.130516 389.854554,303.946375 C389.833037,305.069734 389.891582,306.193093 390.029688,307.308445 C390.539077,309.984992 389.631383,311.498649 386.987362,311.163893 C384.696611,310.881677 382.489423,310.127601 380.504406,308.9492 C378.713536,307.566643 377.055269,306.01946 375.551119,304.329168 C372.985657,301.775215 370.290597,299.355365 367.475445,297.080125 C363.604985,294.211933 359.479331,291.630959 355.37019,289.114035 C353.689905,288.096757 351.863509,287.344182 349.954549,286.88333 C341.634689,284.974871 333.019602,284.73869 324.610173,286.186797 L324.182846,286.261855 C319.977631,286.990412 315.80394,287.926627 311.634753,288.892866 L307.465565,289.862607 C305.728738,290.264915 303.990409,290.662219 302.249578,291.041509 L301.827755,291.129576 L301.555047,291.182116 L301.289844,291.230153 L301.030646,291.272686 L300.904049,291.2922 L300.654858,291.327728 L300.412173,291.357751 L300.293582,291.370761 L300.060404,291.393278 L299.83323,291.40979 L299.612061,291.421299 C297.176699,291.518874 295.834673,290.586161 294.761353,288.119775 L294.66628,287.895103 L294.572208,287.661925 C294.525172,287.542834 294.479137,287.421241 294.433102,287.296145 L294.341532,287.041951 L294.296497,286.911852 L294.205928,286.644647 C293.6455,284.629607 291.931689,283.147974 289.857604,282.884272 C283.209021,281.823461 277.227948,278.232716 273.164842,272.863111 C271.355458,270.458773 269.724211,267.91733 268.123988,265.352869 L266.283581,262.391105 C265.669111,261.404851 265.050638,260.421599 264.420656,259.448355 C263.150686,257.236664 261.741108,255.108037 260.199429,253.075483 C257.173116,249.459218 252.665669,249.76195 250.419953,253.872092 Z M297.025584,375.959431 C288.233362,376.289683 279.540716,377.938444 271.237868,380.85067 C270.82105,381.011293 270.40273,381.169414 269.98391,381.326534 L267.736692,382.161673 L267.19828,382.363327 L266.683386,382.558476 L266.169493,382.755627 L265.657102,382.95578 C265.572037,382.989806 265.486972,383.023331 265.401907,383.057357 L264.893018,383.263015 L264.625313,383.373099 L264.091905,383.59727 C261.166669,384.845224 258.389045,386.352877 256.036747,388.61961 L255.835093,388.816761 C251.73746,392.846341 247.06789,396.249943 241.977998,398.917483 C240.212148,399.901735 238.601917,401.142184 237.199345,402.597796 C235.734225,404.126966 235.787766,405.269339 237.204849,405.844279 L237.351461,405.899821 C237.678211,406.01641 238.06851,406.105979 238.521356,406.166525 C239.130321,406.258095 239.739287,406.352167 240.347752,406.446239 L243.998543,407.016675 C247.345102,407.536572 250.69166,408.029449 254.051229,408.349194 C262.88198,409.180829 271.718236,409.943412 280.556493,410.695988 L289.395751,411.447562 C292.342503,411.698254 295.289256,411.949946 298.236009,412.204641 C308.863134,412.801598 316.935806,410.79006 325.931683,406.790502 L326.56867,406.504783 L327.208159,406.21256 C327.422323,406.113985 327.636987,406.014909 327.852151,405.913832 L328.499146,405.609099 L328.75334,405.476998 L329.013539,405.335389 C329.083093,405.29636 329.153647,405.256329 329.2242,405.215298 L329.436863,405.089201 L329.542944,405.023651 L329.756107,404.889549 C331.140165,403.998868 332.478689,402.780436 332.6248,401.562005 L332.665832,401.199227 L332.722875,400.65331 L332.757902,400.289031 L332.789426,399.924753 L332.817448,399.559974 C332.826454,399.438381 332.834961,399.316788 332.842467,399.195195 L332.863983,398.830416 L332.880996,398.466138 L332.894006,398.101859 L332.903013,397.737581 C332.974568,393.676476 332.180961,389.70494 329.088597,386.490482 C325.728528,383.127411 322.175812,379.961991 318.448462,377.010735 C317.180993,376.052502 315.641316,375.522597 314.052601,375.497578 C308.382266,375.481565 302.679907,375.593151 297.025584,375.959431 Z M197.276323,379.421077 L197.10269,379.508144 L196.924554,379.603217 L196.833484,379.653755 L196.647342,379.761337 L196.456196,379.877426 C196.391647,379.916956 196.326096,379.958488 196.259546,380.001521 L196.056891,380.133622 L194.621293,381.096858 C190.786862,383.671827 186.924909,386.302839 183.314649,389.135004 C179.428678,392.369977 177.171953,397.158638 177.150436,402.215504 C177.022839,406.42122 179.396153,408.078487 183.521807,406.995158 C184.031197,406.851549 184.525074,406.660402 185.018952,406.469256 C189.885172,404.522768 194.219486,401.448918 197.665621,397.499399 C200.583852,394.327474 202.486806,390.354436 203.129298,386.092178 C202.666444,384.609044 202.124529,383.151429 201.504555,381.72684 L201.398975,381.509674 L201.293894,381.302516 L201.189815,381.103864 C201.102748,380.94224 201.016682,380.790624 200.930617,380.648015 L200.827037,380.481888 L200.723458,380.324268 C199.789244,378.949717 198.817501,378.677509 197.276323,379.421077 Z M340.190585,251.625875 C338.374696,251.801008 336.558808,251.912594 334.758932,252.183301 L333.946811,252.306395 L333.405897,252.389959 L332.864984,252.475024 L332.325071,252.563091 L331.786159,252.65366 L331.247748,252.747732 L330.710837,252.846808 C327.226673,253.502309 323.83408,254.462543 320.77424,256.453065 C320.621123,256.545636 320.469007,256.645212 320.321394,256.751793 L320.174782,256.860376 C318.966858,257.785083 318.082182,259.158634 318.878791,260.531683 C319.797994,261.545959 321.129011,262.085371 322.494555,261.997804 C326.434067,261.670554 330.359568,261.163166 334.271559,260.539689 L335.621591,260.322023 L336.117471,260.244964 L336.598338,260.173409 L337.064695,260.107859 L337.51654,260.048314 L337.954375,259.995273 L338.378699,259.948237 L338.869575,259.901201 L339.186817,259.875181 C339.291397,259.867175 339.394476,259.86017 339.496054,259.853665 L339.798285,259.836652 L340.09301,259.824643 C343.392032,259.714559 345.329513,260.537187 347.376078,262.994566 L347.557217,263.215735 C347.617763,263.290793 347.678309,263.367351 347.738855,263.445411 L347.921495,263.684093 L348.013565,263.806687 L348.198207,264.057879 L348.384349,264.318578 L348.572493,264.588285 L348.762138,264.867498 L349.003822,265.229775 L349.24901,265.607564 C349.290542,265.671613 349.331573,265.736162 349.373605,265.801712 L349.689347,266.304096 L350.013594,266.830499 L350.145695,267.048165 C354.996404,275.227419 362.217425,281.738897 370.852026,285.720441 C377.418546,289.013458 384.930289,289.903639 392.084259,288.237865 L392.237376,288.198335 L392.388992,288.156803 L392.540107,288.112269 L392.689221,288.064733 L392.835833,288.014194 C392.932907,287.979168 393.02848,287.941138 393.121051,287.900607 L393.257656,287.837559 C393.999723,287.475783 394.543639,286.893337 394.495602,285.819516 L394.489598,285.720441 L394.489598,285.736453 C394.399028,284.633109 393.785059,284.299855 393.08002,284.192773 L392.954424,284.17626 L392.827827,284.163751 L392.70023,284.154243 L392.508583,284.145236 L392.318438,284.139732 L391.948155,284.131726 L391.829564,284.127223 C382.874217,283.698395 374.456782,279.726358 368.431175,273.086282 C364.098863,268.434225 359.861624,263.654571 355.688433,258.874917 C351.929059,254.181829 346.20168,251.50278 340.190585,251.625875 Z M407.948888,268.163518 C401.641065,268.928103 395.333743,269.740724 389.057945,270.696454 C388.446477,270.801535 387.880545,271.199339 387.322618,271.631169 L387.099948,271.805302 C386.803221,272.03848 386.507495,272.271158 386.206765,272.464806 C386.366387,272.648447 386.519004,272.853604 386.669119,273.065766 L387.046907,273.608681 L387.174005,273.787818 L387.302103,273.961451 C387.647366,274.416799 388.012646,274.795088 388.452982,274.918682 C389.822529,275.324993 391.228104,275.619718 392.568129,275.864406 L393.138064,275.966484 L393.698493,276.063558 L395.301718,276.335766 L395.805103,276.423333 C395.969729,276.452855 396.131353,276.481878 396.289474,276.511901 L396.675769,276.464865 L397.434349,276.375296 L398.537692,276.2502 L400.636297,276.019524 L401.640565,275.905937 L402.296066,275.827878 L402.620314,275.788347 L403.262305,275.705784 C404.006373,275.606708 404.73493,275.498125 405.457483,275.372029 L405.766719,275.316987 C408.363705,274.874148 410.913154,274.186122 413.38004,273.261415 C414.370297,272.694982 415.001279,271.660692 415.052819,270.521321 C414.676531,269.446999 413.813871,268.613862 412.727041,268.274603 C411.153838,267.950855 409.5351,267.912826 407.948888,268.163518 Z M192.744858,254.790294 L192.521187,254.875859 C192.100866,255.045489 191.666534,255.17759 191.228699,255.300684 L190.332014,255.547873 C190.191406,255.587403 190.050799,255.627934 189.911192,255.670967 L189.701532,255.736517 C188.838372,256.010226 187.973711,256.281434 187.108549,256.55114 L184.511564,257.358757 C182.346909,258.032272 180.182254,258.711292 178.027607,259.427839 L176.736119,259.862672 L176.736119,259.878684 L176.515451,259.955743 L176.405867,259.995774 L176.186699,260.078337 L175.970034,260.163902 L175.754869,260.253971 C175.719342,260.268982 175.683815,260.284494 175.648288,260.300006 L175.437126,260.395579 L175.228967,260.495656 C173.405573,261.394343 171.981985,262.788909 172.1331,265.120191 C172.483368,270.537333 175.127389,273.14983 180.622591,271.779783 C182.15176,271.391486 183.652407,270.920626 185.149051,270.434754 L186.972445,269.839299 C187.604428,269.633642 188.237412,269.429986 188.873399,269.233336 L193.552976,267.814751 L194.775911,267.448471 L195.591535,267.206787 L196.816471,266.849513 L197.634096,266.615334 C197.7702,266.576805 197.906805,266.538275 198.042909,266.499746 L198.862035,266.272072 C205.279441,264.506222 211.786416,263.180208 218.595622,263.415388 L220.115284,263.474933 L220.499077,263.492947 L220.897882,263.513963 L221.105041,263.526473 L221.538372,263.554995 L221.767047,263.572008 L222.38652,263.621045 L222.618698,263.635556 L222.852376,263.646064 L223.045524,263.650067 L223.235669,263.647565 L223.385284,263.64106 C224.250946,263.58852 224.978502,263.280785 225.189663,262.204963 C225.412334,261.067593 224.785354,260.515671 223.941209,260.155396 L223.802103,260.098852 L223.588439,260.019292 L223.442828,259.969253 L223.221659,259.897699 L223.002992,259.831648 L222.784324,259.767099 C221.657963,259.431842 220.529601,259.107594 219.402239,258.78785 L216.024156,257.83312 C212.932793,256.95645 209.862445,256.057262 206.856147,254.987445 C202.343197,253.143034 197.302343,253.074982 192.744858,254.790294 Z M269.119249,145.709899 C260.09535,148.646644 251.338655,152.347474 242.944237,156.772857 L242.264718,157.133132 L242.041547,156.909962 L242.13712,157.180669 C240.102565,158.480663 238.051997,159.760641 235.998927,161.037117 L232.533778,163.191264 C228.043845,165.987402 223.575429,168.815064 219.264133,171.854387 C208.185163,179.410664 198.14899,188.394032 189.415313,198.572314 C187.092037,201.419991 185.207596,204.598921 183.824539,208.004024 C182.231321,211.891497 184.031197,214.615579 188.252424,214.886787 C191.560453,215.057417 194.874487,215.068926 198.183516,214.920813 L198.892058,214.886787 L199.383934,214.832745 C199.854294,214.780205 200.322652,214.722661 200.790009,214.663616 L201.723223,214.542023 L203.117789,214.356881 C205.282944,214.070663 207.430086,213.808462 209.58123,213.774936 L210.042083,213.771434 L212.464435,213.733405 L214.081171,213.709386 L215.628353,213.689871 C221.043994,213.627324 226.46764,213.651342 231.847754,214.090178 C238.011966,214.584055 243.697813,218.598624 243.697813,226.755861 C243.739345,228.86097 243.979529,230.957573 244.414862,233.017148 C244.442383,233.16376 244.472406,233.304868 244.50443,233.440471 L244.553968,233.639624 L244.580488,233.736197 L244.63503,233.92284 C244.653544,233.983887 244.673059,234.043432 244.693074,234.101477 L244.754121,234.271106 C245.468167,236.149542 246.816698,236.403737 248.765187,234.87707 L248.93832,234.737963 C250.875301,233.180773 252.534569,231.305839 253.84407,229.193725 C255.772044,225.827151 258.676765,223.129088 262.171437,221.454308 L262.381598,221.355232 C266.197015,219.543347 270.129521,217.989158 274.152597,216.702675 C282.242282,214.210269 290.578155,213.273553 298.966568,212.747151 L300.01537,212.683102 L300.540271,212.652578 L301.589573,212.594534 L302.639376,212.538992 L304.21458,212.460932 L305.817806,212.385374 C323.195091,211.572753 339.760256,214.69564 355.051446,223.282705 C357.17507,224.476118 359.293689,225.681539 361.409807,226.891965 L367.303813,230.267546 C372.745474,233.381927 378.197142,236.474291 383.721865,239.406032 C388.573074,242.03204 393.673974,244.167172 398.949507,245.778904 C407.168291,248.216268 412.2812,244.918246 413.873917,236.665437 C414.364793,233.92234 414.514407,231.129204 414.320259,228.349079 C413.44509,216.635624 410.556881,205.161351 405.782731,194.430147 L405.487506,193.75413 L405.189778,193.079614 L404.889549,192.4066 L404.586317,191.735587 L404.280083,191.066075 L403.970346,190.398064 L403.657106,189.732555 L403.339864,189.069549 L403.019119,188.408543 C402.857495,188.078791 402.69387,187.75004 402.529244,187.421789 L402.19699,186.767789 C399.01856,180.567048 395.188132,174.769116 389.854554,169.989962 C388.166263,168.490315 386.23879,167.283893 384.152194,166.421233 C381.333039,165.258344 379.373541,166.739977 379.373541,169.767292 C379.371039,171.041766 379.504641,172.312738 379.771845,173.55869 C381.066335,178.740151 383.219982,183.667419 386.143217,188.136836 C386.659611,189.481864 386.950334,190.90295 387.003374,192.342551 C385.577284,192.55121 384.128676,192.55121 382.702586,192.342551 C373.811789,189.488869 365.953281,184.092744 360.097304,176.824187 L359.893648,176.569992 C358.768788,175.171923 357.680956,173.747334 356.604133,172.317741 L354.814265,169.933919 C353.352647,167.988932 351.883024,166.056955 350.336842,164.191028 C348.520453,161.980338 346.415344,160.024343 344.077056,158.375582 C341.76729,156.766352 339.409988,157.913729 338.756989,160.701861 C338.463264,162.014364 338.409223,163.3689 338.597867,164.700918 C338.884586,167.026696 339.489549,169.432536 339.776268,171.80635 L339.785275,171.887913 L339.799786,172.058543 C339.866837,173.028285 339.735236,174.436361 339.282891,174.626507 C338.246098,174.974272 337.107227,174.82766 336.192528,174.228202 C333.787189,172.405308 331.601018,170.309206 329.678047,167.982927 C325.936687,163.007123 322.466034,158.0058 318.917821,152.73477 L317.731914,150.967419 C313.765882,145.040387 308.159096,142.411878 301.150738,141.758878 C290.318456,140.98929 279.440139,142.331316 269.119249,145.709899 Z" id="path-37"></path>
    </defs>
    <g id="ALASKAAIRLINES" stroke="none" stroke-width="1" fill="none" fill-rule="evenodd">
        <g id="AS-TAIL" transform="translate(89.000000, 88.000000)">
            <g id="Group-3" transform="translate(251.692425, 351.268554)">
                <mask id="mask-2" fill="white">
                    <use xlink:href="#path-1"></use>
                </mask>
                <g id="Clip-2"></g>
                <polygon id="Fill-1" fill="#FDFDFD" mask="url(#mask-2)" points="0.380290742 270.516817 299.168722 270.516817 299.168722 0.370283091 0.380290742 0.370283091"></polygon>
            </g>
            <g id="Group-6" transform="translate(305.733741, 242.185157)">
                <mask id="mask-4" fill="white">
                    <use xlink:href="#path-3"></use>
                </mask>
                <g id="Clip-5"></g>
                <polygon id="Fill-4" fill="#FDFEFE" mask="url(#mask-4)" points="0.0800612089 105.49065 231.316848 105.49065 231.316848 0.470359602 0.0800612089 0.470359602"></polygon>
            </g>
            <g id="Group-9" transform="translate(358.273910, 476.364193)">
                <mask id="mask-6" fill="white">
                    <use xlink:href="#path-5"></use>
                </mask>
                <g id="Clip-8"></g>
                <polygon id="Fill-7" fill="#FCFDFD" mask="url(#mask-6)" points="0.380290742 37.0983627 97.2343382 37.0983627 97.2343382 0.170130069 0.380290742 0.170130069"></polygon>
            </g>
            <polygon id="Fill-10" fill="#152E51" points="611.687651 193.658057 611.747697 193.658057 611.747697 192.697322 611.687651 192.697322"></polygon>
            <g id="Group-13" transform="translate(440.837031, 352.269319)">
                <mask id="mask-8" fill="white">
                    <use xlink:href="#path-7"></use>
                </mask>
                <g id="Clip-12"></g>
                <polygon id="Fill-11" fill="#F8F8F9" mask="url(#mask-8)" points="0.380290742 37.8589441 76.3383627 37.8589441 76.3383627 0.390298393 0.380290742 0.390298393"></polygon>
            </g>
            <g id="Group-16" transform="translate(111.585310, 498.381025)">
                <mask id="mask-10" fill="white">
                    <use xlink:href="#path-9"></use>
                </mask>
                <g id="Clip-15"></g>
                <polygon id="Fill-14" fill="#00C7E6" mask="url(#mask-10)" points="0.160122418 55.0721041 29.8828462 55.0721041 29.8828462 0.190145371 0.160122418 0.190145371"></polygon>
            </g>
            <g id="Group-19" transform="translate(294.224943, 354.270849)">
                <mask id="mask-12" fill="white">
                    <use xlink:href="#path-11"></use>
                </mask>
                <g id="Clip-18"></g>
                <polygon id="Fill-17" fill="#F9F9FA" mask="url(#mask-12)" points="0.480367253 18.9244682 53.6209946 18.9244682 53.6209946 0.370283091 0.480367253 0.370283091"></polygon>
            </g>
            <g id="Group-22" transform="translate(299.729151, 479.866871)">
                <mask id="mask-14" fill="white">
                    <use xlink:href="#path-13"></use>
                </mask>
                <g id="Clip-21"></g>
                <polygon id="Fill-20" fill="#F9F9FA" mask="url(#mask-14)" points="-0.0400306044 28.5518286 26.0198929 28.5518286 26.0198929 0.210160673 -0.0400306044 0.210160673"></polygon>
            </g>
            <g id="Group-25" transform="translate(508.388676, 368.781943)">
                <mask id="mask-16" fill="white">
                    <use xlink:href="#path-15"></use>
                </mask>
                <g id="Clip-24"></g>
                <polygon id="Fill-23" fill="#F5F6F7" mask="url(#mask-16)" points="0.380290742 8.85677123 29.2623718 8.85677123 29.2623718 0.27020658 0.380290742 0.27020658"></polygon>
            </g>
            <polygon id="Fill-26" fill="#47ABC6" points="141.40811 554.47391 141.828432 554.47391 141.828432 553.453129 141.40811 553.453129"></polygon>
            <polygon id="Fill-27" fill="#2875AC" points="568.394552 147.963122 569.415333 147.963122 569.415333 147.5428 568.394552 147.5428"></polygon>
            <polygon id="Fill-28" fill="#2875AC" points="218.747238 646.164009 219.407743 646.164009 219.407743 645.56355 218.747238 645.56355"></polygon>
            <polygon id="Fill-29" fill="#2875AC" points="219.287651 646.584331 219.828064 646.584331 219.828064 646.043917 219.287651 646.043917"></polygon>
            <polygon id="Fill-30" fill="#B1D27C" points="141.40811 553.453129 141.468156 553.453129 141.468156 553.393083 141.40811 553.393083"></polygon>
            <g id="Group-33" transform="translate(300.729916, 395.802601)">
                <mask id="mask-18" fill="white">
                    <use xlink:href="#path-17"></use>
                </mask>
                <g id="Clip-32"></g>
                <polygon id="Fill-31" fill="#01426A" mask="url(#mask-18)" points="0.280214231 141.077858 184.020689 141.077858 184.020689 0.0300229533 0.280214231 0.0300229533"></polygon>
            </g>
            <polygon id="Fill-34" fill="#1A3A62" points="364.598745 258.327498 364.898975 258.327498 364.898975 257.967223 364.598745 257.967223"></polygon>
            <polygon id="Fill-35" fill="#184875" points="452.746136 114.277368 453.106412 114.277368 453.106412 112.716174 452.746136 112.716174"></polygon>
            <g id="Group-38" transform="translate(447.842387, 74.557001)">
                <mask id="mask-20" fill="white">
                    <use xlink:href="#path-19"></use>
                </mask>
                <g id="Clip-37"></g>
                <polygon id="Fill-36" fill="#C0E585" mask="url(#mask-20)" points="0.0400306044 116.158806 194.648814 116.158806 194.648814 0.150114767 0.0400306044 0.150114767"></polygon>
            </g>
            <g id="Group-41" transform="translate(436.833971, 91.069625)">
                <mask id="mask-22" fill="white">
                    <use xlink:href="#path-21"></use>
                </mask>
                <g id="Clip-40"></g>
                <polygon id="Fill-39" fill="#00C7E6" mask="url(#mask-22)" points="0.300229533 117.659954 197.490987 117.659954 197.490987 0.4503443 0.300229533 0.4503443"></polygon>
            </g>
            <g id="Group-44" transform="translate(539.412395, 195.649579)">
                <mask id="mask-24" fill="white">
                    <use xlink:href="#path-23"></use>
                </mask>
                <g id="Clip-43"></g>
                <polygon id="Fill-42" fill="#8BA6C1" mask="url(#mask-24)" points="0.220168324 79.7910023 79.3006274 79.7910023 79.3006274 0.170130069 0.220168324 0.170130069"></polygon>
            </g>
            <polygon id="Fill-45" fill="#C84A9B" points="612.348156 276.401316 613.128753 276.401316 613.128753 275.380536 612.348156 275.380536"></polygon>
            <g id="Group-48" transform="translate(461.352716, 0.000000)">
                <mask id="mask-26" fill="white">
                    <use xlink:href="#path-25"></use>
                </mask>
                <g id="Clip-47"></g>
                <polygon id="Fill-46" fill="#01426A" mask="url(#mask-26)" points="0.0400306044 158.831431 216.505524 158.831431 216.505524 -0.0500382555 0.0400306044 -0.0500382555"></polygon>
            </g>
            <polygon id="Fill-49" fill="#B94E9D" points="517.175394 643.582035 517.475624 643.582035 517.475624 642.441163 517.175394 642.441163"></polygon>
            <g id="Group-52" transform="translate(0.000000, 530.905891)">
                <mask id="mask-28" fill="white">
                    <use xlink:href="#path-27"></use>
                </mask>
                <g id="Clip-51"></g>
                <polygon id="Fill-50" fill="#01426A" mask="url(#mask-28)" points="0.18013772 121.322754 178.996848 121.322754 178.996848 0.210160673 0.18013772 0.210160673"></polygon>
            </g>
            <polygon id="Fill-53" fill="#B1D27C" points="178.936802 653.549656 179.897536 653.549656 179.897536 652.1686 178.936802 652.1686"></polygon>
            <g id="Group-56" transform="translate(96.073451, 511.891354)">
                <mask id="mask-30" fill="white">
                    <use xlink:href="#path-29"></use>
                </mask>
                <g id="Clip-55"></g>
                <polygon id="Fill-54" fill="#C0E585" mask="url(#mask-30)" points="0.18013772 140.457383 127.057138 140.457383 127.057138 0.0100076511 0.18013772 0.0100076511"></polygon>
            </g>
            <g id="Group-59" transform="translate(108.583015, 556.425402)">
                <mask id="mask-32" fill="white">
                    <use xlink:href="#path-31"></use>
                </mask>
                <g id="Clip-58"></g>
                <polygon id="Fill-57" fill="#B1D27C" mask="url(#mask-32)" points="0.460351951 14.5010865 9.76746748 14.5010865 9.76746748 0.4503443 0.460351951 0.4503443"></polygon>
            </g>
            <g id="Group-62" transform="translate(163.625096, 630.482020)">
                <mask id="mask-34" fill="white">
                    <use xlink:href="#path-33"></use>
                </mask>
                <g id="Clip-61"></g>
                <polygon id="Fill-60" fill="#B1D27C" mask="url(#mask-34)" points="0.480367253 21.7466259 15.3717521 21.7466259 15.3717521 0.190145371 0.480367253 0.190145371"></polygon>
            </g>
            <polygon id="Fill-63" fill="#B1D27C" points="104.539923 556.935792 109.103412 556.935792 109.103412 549.009732 104.539923 549.009732"></polygon>
            <polygon id="Fill-64" fill="#B1D27C" points="157.080092 629.050926 162.904545 629.050926 162.904545 621.004774 157.080092 621.004774"></polygon>
            <g id="Group-67" transform="translate(219.667942, 646.494262)">
                <mask id="mask-36" fill="white">
                    <use xlink:href="#path-35"></use>
                </mask>
                <g id="Clip-66"></g>
                <polygon id="Fill-65" fill="#44A7C2" mask="url(#mask-36)" points="0.100076511 5.73438409 7.48572303 5.73438409 7.48572303 0.0300229533 0.100076511 0.0300229533"></polygon>
            </g>
            <polygon id="Fill-68" fill="#1A3A62" points="219.707972 646.584331 219.828064 646.584331 219.828064 646.524285 219.707972 646.524285"></polygon>
            <polygon id="Fill-69" fill="#1A3A62" points="219.287651 646.584331 219.828064 646.584331 219.828064 646.103963 219.287651 646.103963"></polygon>
            <polygon id="Fill-70" fill="#1A3A62" points="217.486274 646.164009 219.407743 646.164009 219.407743 644.422678 217.486274 644.422678"></polygon>
            <polygon id="Fill-71" fill="#1A3A62" points="219.768018 651.808324 226.673298 651.808324 226.673298 646.524285 219.768018 646.524285"></polygon>
            <g id="Group-74" transform="translate(122.593726, 101.077276)">
                <mask id="mask-38" fill="white">
                    <use xlink:href="#path-37"></use>
                </mask>
                <g id="Clip-73"></g>
                <polygon id="Fill-72" fill="#01426A" mask="url(#mask-38)" points="0.260198929 551.211415 507.047651 551.211415 507.047651 0.0500382555 0.260198929 0.0500382555"></polygon>
            </g>
        </g>
    </g>
</svg>
