<svg>
<path fill-rule="evenodd" clip-rule="evenodd" d="M749.513 87.7355C760.389 87.7355 769.206 96.5622 769.206 107.451C769.206 108.615 769.105 109.756 768.911 110.865L610.48 723.186C607.641 729.751 597.111 743.712 576.066 744.15L575.425 744.16L87.8227 744.239C426.474 319.678 596.629 106.375 598.287 104.33C605.629 95.2826 618.087 87.8846 630.768 87.7355H749.513Z" fill="#001B71"/>
<path d="M406.441 612.109C398.016 613.164 389.59 613.617 381.165 613.466C368.226 613.315 360.101 611.657 353.932 609.246C348.666 607.135 344.002 601.408 345.657 597.037C347.162 593.721 349.569 590.857 352.879 589.048C368.075 579.251 395.458 574.127 425.7 572.167C422.992 578.045 406.441 612.109 406.441 612.109ZM567.429 532.979C545.462 558.903 523.797 560.712 481.067 556.793C368.828 546.845 347.162 577.895 343.551 581.814C344.303 578.95 345.206 576.086 346.56 573.524C353.631 557.396 362.208 539.46 371.837 518.057C377.253 506.903 380.262 506.451 385.227 502.834C405.539 489.419 438.188 476.909 481.669 480.677C513.716 483.541 527.708 490.022 547.418 491.077C555.844 491.68 564.269 491.228 572.544 489.721C593.608 485.199 599.024 478.868 599.024 478.868C599.024 478.868 583.979 511.726 567.429 532.979ZM593.157 465.002C586.236 469.071 577.208 472.99 559.755 473.593C540.497 474.196 528.762 469.976 507.547 466.509C478.509 461.836 450.374 460.028 419.982 469.674C407.043 473.744 394.856 480.225 384.174 488.666C384.174 488.666 406.592 438.173 412.46 425.21C422.089 405.465 454.136 391.297 496.263 391.749C534.178 392.202 551.179 401.999 582.324 402.451C628.814 402.3 644.161 386.776 644.161 386.776C641.453 392.503 627.31 422.196 620.69 434.857C609.707 452.039 601.883 459.877 593.157 465.002Z" fill="#F2F2F2"/>
</svg>
