<svg>
<path fill-rule="evenodd" clip-rule="evenodd" d="M747.455 89.1885C758.272 89.1885 767.041 97.9614 767.041 108.783C767.041 109.94 766.94 111.075 766.748 112.177L609.176 720.762C606.352 727.287 595.879 741.163 574.949 741.599L574.311 741.608L89.3516 741.687C426.167 319.716 595.4 107.715 597.049 105.682C604.351 96.6896 616.741 89.3366 629.353 89.1885H747.455Z" fill="white"/>
<path d="M671.484 88.3311L748.922 88.3311C748.922 88.3311 761.396 92.3708 764.094 97.2162C766.792 102.062 768.345 107.582 766.334 113.627C760.163 137.261 747.439 187.051 747.439 187.051L671.484 479.848V88.3311Z" fill="#F49B53"/>
<path d="M433.285 310.17L554.386 158.47V740.74H433.285L433.285 310.17Z" fill="#F49B53"/>
<path d="M194.086 610.148L316.188 456.874V741.298H194.086V610.148Z" fill="#F49B53"/>
<path fill-rule="evenodd" clip-rule="evenodd" d="M613.03 330.561C640.57 330.561 662.896 308.235 662.896 280.695C662.896 253.155 640.57 230.83 613.03 230.83C585.49 230.83 563.164 253.155 563.164 280.695C563.164 308.235 585.49 330.561 613.03 330.561ZM613.03 335.692C643.404 335.692 668.027 311.069 668.027 280.695C668.027 250.322 643.404 225.699 613.03 225.699C582.656 225.699 558.033 250.322 558.033 280.695C558.033 311.069 582.656 335.692 613.03 335.692Z" fill="black"/>
<path d="M569.586 264.173L595.914 264.173V268.768L590.771 270.155L607.622 281.1C605.756 279.453 602.611 275.828 601.495 272.638C599.262 266.253 604.069 264.008 607.587 264.175L656.47 264.175L627.511 286.87L624.185 283.706L638.301 270.301C632.195 270.336 625.637 270.302 622.975 270.302H612.107C610.289 270.302 609.78 270.543 609.514 271.309C608.547 274.09 613.667 280.731 625.488 291.206C630.154 295.34 638.687 301.226 645.388 305.68V313.47L569.586 264.173Z" fill="black"/>
<path d="M641.028 358.185C640.888 358.194 640.802 358.203 640.714 358.203C640.163 358.205 639.515 358.212 639 358.212C639 358.176 638.98 358.064 638.955 358.016C638.526 357.193 637.564 357.254 636.91 357.808C636.544 358.183 636.288 358.66 636.262 359.284C636.258 359.382 636.252 359.501 636.262 359.575C636.789 358.646 638.155 358.497 639.183 358.797C640.223 359.102 640.848 359.896 641.078 360.956C641.492 362.865 640.236 364.586 638.256 364.798C637.788 364.849 637.297 364.845 636.834 364.765C635.772 364.578 635.046 363.927 634.604 362.956C634.147 361.954 634.042 360.894 634.123 359.81C634.169 359.183 634.298 358.571 634.55 357.991C635.231 356.434 636.549 355.71 638.245 355.807C638.74 355.835 639.217 355.947 639.656 356.19C640.428 356.611 640.86 357.268 641.028 358.185ZM639.122 361.702C639.113 360.849 638.501 360.252 637.64 360.264C636.866 360.273 636.265 360.905 636.259 361.717C636.254 362.495 636.857 363.093 637.648 363.094C638.499 363.096 639.132 362.501 639.122 361.702Z" fill="black"/>
<path d="M625.794 361.981C626.488 361.968 627.233 361.973 627.912 361.977C628.057 362.872 628.92 363.159 629.801 363C630.515 362.795 630.881 362.177 630.773 361.359C630.68 360.665 630.178 360.234 629.453 360.214C628.938 360.199 628.464 360.292 628.111 360.707C628.044 360.787 627.971 360.869 627.971 360.869C627.436 360.856 626.948 360.856 626.482 360.856C626.38 360.856 626.242 360.856 626.074 360.856C626.335 359.193 626.628 357.56 626.923 355.91C628.782 355.91 630.609 355.91 632.462 355.91C632.462 356.511 632.462 357.084 632.462 357.704C631.176 357.704 629.901 357.704 628.595 357.704C628.489 358.217 628.39 358.693 628.287 359.197C628.36 359.182 628.403 359.185 628.433 359.165C629.439 358.488 630.493 358.553 631.544 359.01C632.329 359.353 632.74 360.021 632.897 360.841C632.994 361.343 632.99 361.854 632.882 362.354C632.611 363.608 631.801 364.355 630.592 364.664C629.636 364.911 628.666 364.883 627.72 364.595C626.518 364.233 625.826 363.297 625.794 361.981Z" fill="black"/>
<path d="M617.43 362.366C618.138 362.366 618.825 362.366 619.445 362.366C619.701 363.11 620.353 363.306 620.967 363.168C621.356 363.08 621.641 362.864 621.837 362.528C622.074 362.121 622.23 361.517 622.23 361.018C622.204 361.08 622.142 361.177 622.031 361.283C621.272 362.011 620.261 362.114 619.2 361.769C617.652 361.267 617.164 359.705 617.341 358.522C617.552 357.121 618.578 356.09 619.972 355.84C620.523 355.742 621.071 355.749 621.614 355.87C622.712 356.113 623.477 356.768 623.925 357.791C624.356 358.772 624.421 359.808 624.33 360.859C624.274 361.499 624.145 362.126 623.88 362.717C623.301 364.003 622.31 364.701 620.901 364.804C620.301 364.847 619.707 364.819 619.14 364.598C618.168 364.221 617.624 363.465 617.43 362.366ZM619.341 358.92C619.339 359.778 619.922 360.371 620.76 360.364C621.599 360.355 622.21 359.75 622.208 358.929C622.206 358.13 621.603 357.546 620.773 357.535C619.957 357.524 619.343 358.119 619.341 358.92Z" fill="black"/>
<path d="M615.538 364.683C614.788 364.683 614.036 364.683 613.294 364.683C613.294 364.683 613.293 363.794 613.284 363.355C613.273 362.907 613.293 362.461 613.293 362.013C613.293 361.565 613.293 361.119 613.293 360.671C613.293 360.227 613.293 359.784 613.293 359.299C612.573 359.299 611.906 359.299 611.197 359.299C611.15 358.762 611.177 358.22 611.178 357.698C611.413 357.698 611.697 357.687 611.941 357.648C612.932 357.487 613.416 357.104 613.744 355.91C614.324 355.91 614.943 355.91 615.54 355.91C615.538 358.835 615.538 361.735 615.538 364.683Z" fill="black"/>
<path d="M608.367 364.724C607.526 364.724 606.813 364.721 606.013 364.721C606.013 363.929 606.007 363.114 606.007 362.314H607.213C607.213 362.314 607.921 362.312 608.367 362.312V364.724Z" fill="black"/>
<path d="M601.009 359.554C600.61 359.554 600.285 359.554 599.93 359.554C599.93 359.09 599.927 358.62 599.927 358.146C600.263 358.146 600.647 358.146 601.024 358.146V356.186L603.163 356.178C603.163 356.852 603.163 357.444 603.163 358.114C603.612 358.114 604.061 358.114 604.492 358.114C604.492 358.59 604.492 359.073 604.492 359.554C604.08 359.554 603.631 359.554 603.207 359.554C603.189 359.691 603.166 359.742 603.166 359.839C603.163 360.703 603.161 361.567 603.166 362.431C603.17 362.927 603.331 363.089 603.835 363.121C604.025 363.132 604.24 363.109 604.486 363.109C604.486 363.109 604.486 364.151 604.486 364.672C603.823 364.776 602.911 364.81 602.148 364.631C601.59 364.5 601.206 364.143 601.096 363.575C601.03 363.241 600.996 362.903 600.99 362.561C600.975 361.712 601.004 360.867 601.004 360.018C601.005 359.87 601.009 359.771 601.009 359.554Z" fill="black"/>
<path d="M595.717 364.883C595.405 364.865 595.152 364.85 594.908 364.796C594.465 364.699 594.049 364.548 593.685 364.273C593.108 363.838 592.839 363.231 592.841 362.508C593.504 362.508 594.225 362.508 594.887 362.508C594.968 363.411 595.726 363.622 596.565 363.381C596.871 363.26 597.048 363.076 597.041 362.824C597.033 362.522 596.853 362.364 596.599 362.293C596.112 362.157 595.615 362.058 595.126 361.929C594.738 361.826 594.348 361.722 593.976 361.576C592.692 361.074 592.657 359.228 593.713 358.532C594.133 358.256 594.596 358.095 595.087 358.028C595.815 357.927 596.55 357.911 597.263 358.105C597.601 358.196 597.943 358.347 598.23 358.543C598.739 358.89 598.976 359.436 598.975 360.088C598.327 360.088 597.635 360.088 596.983 360.088C596.949 359.756 596.871 359.54 596.565 359.443C596.214 359.331 595.861 359.325 595.509 359.424C595.324 359.476 595.182 359.577 595.145 359.777C595.107 359.98 595.214 360.135 595.382 360.217C595.608 360.329 595.843 360.43 596.085 360.492C596.518 360.6 596.961 360.673 597.398 360.762C597.543 360.792 597.691 360.82 597.832 360.863C598.54 361.082 599.051 361.52 599.189 362.265C599.329 363.021 599.098 363.683 598.502 364.191C598.12 364.518 597.713 364.638 597.228 364.748C596.983 364.804 596.752 364.84 596.511 364.865C596.04 364.913 595.984 364.883 595.717 364.883Z" fill="black"/>
<path d="M588.168 364.897C587.909 364.88 587.694 364.844 587.464 364.794C585.977 364.456 585.032 363.312 584.918 361.785C584.763 359.734 586.081 358.317 587.701 358.031C590.059 357.615 591.552 358.937 591.828 360.926C591.862 361.161 591.876 361.4 591.891 361.637C591.897 361.723 591.882 361.809 591.873 361.957C591.066 361.957 590.281 361.957 589.497 361.957C588.709 361.957 587.92 361.957 587.136 361.957C587.065 362.498 587.32 363.005 587.767 363.256C588.388 363.603 589.168 363.468 589.629 362.921C589.684 362.856 589.749 362.749 589.769 362.724C589.811 362.724 589.887 362.723 589.948 362.724C590.529 362.731 591.109 362.727 591.74 362.727C591.705 362.871 591.69 362.983 591.649 363.086C591.261 364.038 590.615 364.499 589.653 364.743C589.426 364.801 589.153 364.844 588.928 364.874C588.68 364.907 588.428 364.913 588.168 364.897ZM589.672 360.725C589.648 359.976 589.15 359.452 588.493 359.414C587.778 359.375 587.113 360.004 587.117 360.725C587.959 360.725 588.802 360.725 589.672 360.725Z" fill="black"/>
<path fill-rule="evenodd" clip-rule="evenodd" d="M629.562 88H747.663C758.895 88 768 97.1091 768 108.346C768 109.534 767.898 110.712 767.696 111.868L767.683 111.927L610.096 720.568L609.96 720.878C608.082 725.072 604.386 729.841 599.521 733.619C592.972 738.705 584.823 741.711 575.168 741.912L574.52 741.921L88 742L596.675 104.771C604.642 94.9586 617.417 88.1426 629.562 88ZM747.663 89.5016L629.57 89.5015C617.904 89.6386 605.539 96.2361 597.84 105.718L597.538 106.094L91.1191 740.498L574.509 740.419L575.141 740.41C584.462 740.216 592.301 737.325 598.6 732.433C603.363 728.734 606.953 724.051 608.695 720.026L608.671 720.079L766.222 111.58L766.283 111.207C766.406 110.4 766.476 109.583 766.494 108.758L766.499 108.346C766.499 97.9384 758.065 89.5016 747.663 89.5016Z" fill="black"/>
</svg>
