<svg>
  <defs>
    <path d="M659.556 1c10.808 0 19.57 8.764 19.57 19.575 0 1.156-.101 2.289-.293 3.39L521.391 631.934c-2.821 6.519-13.285 20.38-34.198 20.816l-.637.009L2 652.838 509.275 17.477C516.571 8.494 528.951 1.148 541.553 1h118.003z" id="A"/><path id="B" d="M0 .183h353.081v413.371H0z"/></defs><g transform="translate(88 88)" fill="none" fill-rule="evenodd"><path d="M659.556.25H541.553c-12.135.142-24.899 6.952-32.86 16.754L.441 653.588l486.762-.088c9.647-.201 17.79-3.204 24.333-8.284 4.861-3.774 8.554-8.539 10.43-12.728l.136-.309L679.572 24.094c.201-1.155.304-2.331.304-3.519 0-11.225-9.098-20.325-20.32-20.325zm-117.994 1.5h117.994c10.394 0 18.82 8.428 18.82 18.825v.412c-.022.824-.093 1.64-.216 2.447l-.061.372-157.42 607.883c-1.716 3.968-5.304 8.647-10.063 12.342-6.294 4.887-14.127 7.775-23.439 7.969l-.632.009-482.987.078L509.857 17.95c7.692-9.472 20.047-16.063 31.704-16.2z" fill="#000" fill-rule="nonzero"/><mask id="C" fill="#fff"><use xlink:href="#A"/></mask><use fill="#fff" xlink:href="#A"/><g mask="url(#C)"><g transform="matrix(-1 0 0 1 603 158)"><path d="M399.413 311.76l-42.006 162.174-.178.4-.197.416-.216.432-.234.447-.387.695-.282.479-.301.49-.32.5-.34.509-.359.517-.379.525-.399.531-.419.536-.667.811-.47.544c-5.44 6.182-14.83 12.687-29.05 12.983l-.637.009-283.064.048c85.75-12.072 233.427-41.806 359.905-183.047z" fill="#cf0012" transform="matrix(-1 0 0 1 438.920546 0)"/><mask id="D" fill="#fff"><use xlink:href="#B"/></mask><path d="M247.118 399.058c-58.577-18.451-109.078-50.147-150.586-96.245-28.83-32.017-51.498-68.15-68.604-107.726-9.204-21.295-17.462-43.127-24.329-65.297C.212 118.86.153 106.625.012 94.962-.2 77.545 2.431 60.405 9.877 44.431 22.325 17.722 43.211 3.115 72.176.583c24.91-2.176 47.991 4.711 69.874 15.932 38.383 19.679 74.756 42.55 107.072 71.614 47.52 42.738 72.291 91.313 71.516 89.022l-25.801 65.483c-4.249-10.817-8.069-21.407-12.521-31.714-16.433-38.036-40.345-70.632-70.478-98.613-23.236-21.575-49.086-39.388-76.724-54.597-9.894-5.444-19.504-11.635-29.871-15.927-14.787-6.122-30.318-7.691-45.631-1.389-15.826 6.514-24.718 19.241-28.808 35.542-5.747 22.905-3.097 45.502 3.652 67.731 20.232 66.646 54.686 124.472 104.805 172.398 37.289 35.659 80.138 62.632 127.378 82.513 11.626 4.893 23.495 9.194 35.253 13.768l-.312 1.207c-18.168-4.788-36.555-8.856-54.463-14.497z" fill="#cf0012" mask="url(#D)"/><path d="M304.549 323.704L302 337.098l.706.68 6.294-8.695-4.451-5.379zM330 260.37l-3.128-13.989-.903-.085L323 260.37h7zm24.414 28.148L372 274.444h-21l3.414 14.074zM295 281.481h-20.574l-.426 1.079 16.612 12.995L295 281.481zm55.132 56.296l.868-.692-4.625-20.419-9.375 9.231 13.132 11.88zm-22.84-56.146c-1.979 0-3.968.114-5.936-.024-3.597-.254-5.573.648-6.315 4.357-.966 4.825-2.88 9.501-4.523 14.203-2.437 6.976-2.488 6.961 3.981 11.571 9.235 6.578 9.253 6.6 18.641-.111 3.752-2.681 9.348-4.926 10.55-8.389 1.256-3.616-1.615-8.499-2.948-12.758-3.425-10.935-1.069-8.828-13.45-8.848h0zM377.964 380c-2.69-1.129-5.795-1.735-8.006-3.473l-45.276-36.359c-2.824-2.321-4.477-1.997-7.162.065l-46.687 35.292c-1.246.935-2.772 1.501-4.167 2.239l-.995-.8 4.872-15.938 15.661-48.936c.975-2.949.405-4.492-1.894-6.358l-56.274-46.04c-.814-.667-1.596-1.375-3.036-2.621 1.663-.183 2.49-.372 3.311-.35l69.391 2.077c3.97.151 5.044-1.795 6.196-4.796l23.232-59.731c.619-1.576 1.996-2.854 3.02-4.27.973 1.591 2.388 3.064 2.849 4.793l15.951 61.114c.834 3.326 2.153 4.211 5.377 4.237l53.826.926c4.314.15 8.565 2.09 12.846 3.207v1.45l-23.656 16.981-30.81 21.817c-2.775 1.91-3.577 3.862-2.795 7.09l14.851 62.331c.348 1.474.424 3.011.627 4.519L377.964 380z" fill="#087f52"/></g></g></g></svg>
