<?xml version="1.0" encoding="utf-8"?>
<!-- Generator: Adobe Illustrator 24.0.3, SVG Export Plug-In . SVG Version: 6.00 Build 0)  -->
<svg version="1.1" id="Layer_1" xmlns="http://www.w3.org/2000/svg" xmlns:xlink="http://www.w3.org/1999/xlink" x="0px" y="0px"
	 viewBox="0 0 856 830" style="enable-background:new 0 0 856 830;" xml:space="preserve">
<style type="text/css">
	.st0{fill:#C1C8CE;}
	.st1{fill:#7B1C3E;}
</style>
<title>QATARAIRWAYS</title>
<g id="QATARAIRWAYS">
	<g id="Mask-Raw" transform="translate(88.000000, 88.000000)">
		<path id="BG" class="st0" d="M659.6,0.2h-118c-12.1,0.1-24.9,7-32.9,16.8l-4.5,5.7l-95.4,119.4L0.4,653.6l486.1-0.1l0.6,0
			c9.6-0.2,17.8-3.2,24.3-8.3c4.9-3.8,8.6-8.5,10.4-12.7l0.1-0.3l157.5-608l0-0.1c0.2-1.2,0.3-2.3,0.3-3.5
			C679.9,9.3,670.8,0.2,659.6,0.2z M541.6,1.7h118c10.4,0,18.8,8.4,18.8,18.8V21c0,0.8-0.1,1.6-0.2,2.4l-0.1,0.4L520.7,631.7l0-0.1
			c-1.7,4-5.3,8.7-10.1,12.4c-6.3,4.9-14.1,7.8-23.4,8l-0.6,0l-483,0.1L468.8,69.3l36.5-45.7l4.2-5.3l0.3-0.4
			C517.5,8.5,529.9,1.9,541.6,1.7z"/>
		<g>
			<path class="st0" d="M587.6,335c-18.2,11.8-38.2,18-60.1,17.4c-5.2-0.2-10.4-0.2-15.6,0c-6,0.2-8.3,4.2-5,9.4
				c2.7,4.2,6,8.2,9.4,11.9c16.6,17.4,36.7,29.4,58.3,39.7c0.5,0.2,1,0.5,1.5,0.7l24.2-93.4C597.2,327.1,592.6,331.7,587.6,335z"/>
			<path class="st0" d="M504.8,561.4l-8.8,1.8c-1,0.2-1.8,1.5-2.7,2.3c0.8,0.6,1.6,1.6,2.5,1.9c2.2,0.7,4.4,1.3,6.7,1.6
				c10.8,1.4,21.5,2.9,32.4,4l4.1-15.7c-7,0.7-13.9,1.3-20.9,2.1C513.6,559.7,509.2,560.5,504.8,561.4z"/>
			<path class="st0" d="M510.6,634.4c2.2,1,4.4,1.8,6.6,2.4c0.9-1.4,1.6-2.8,2.1-3.9l0.5-1.9l-9.1,1.3L510.6,634.4z"/>
			<path class="st0" d="M503.7,498.8c11.5,1.7,23.1,3.5,34.7,4.5c4.8,0.4,9.5,0.8,14.3,1.1l4.8-18.6c-20.4,1.4-40.7,3.7-60.7,9.1
				C499,496.8,501.2,498.4,503.7,498.8z"/>
			<path class="st0" d="M458.7,249.9c-15.7,10.5-31.3,21.2-46.9,32c-2.2,1.5-3.9,3.9-6.6,6.6c5.8,0.9,9.7-0.9,13.3-3.1l11.6-7.4
				c45-28.7,91.4-54.8,139.8-77.5c23-10.8,46.1-21,69.5-30.8l8.6-33.2c-30,18.7-60.1,37.2-90.7,54.7
				C524,210.3,490.5,228.6,458.7,249.9z"/>
			<path class="st0" d="M486.6,288.5c-4.9,3-9.5,6.5-14,10.1l-6.7,5.5c-1.4,1.1-2.3,4-1.9,5.7c0.3,1.2,3.2,2.4,4.9,2.5
				c5.6,0.3,11.2-0.1,16.9,0.1c12,0.4,23.9,1.2,35.9,1.6c18.9,0.7,37.8,1.2,56.7,2c3.8,0.2,7.5,0.4,11.4,0.7l11.3,0.8l27.8-107.3
				c-26.3,12.3-52.3,25.3-77.4,40.1C529.9,263.1,508.1,275.5,486.6,288.5z"/>
			<path class="st1" d="M601.5,317.6l-0.5,0l-0.8,3.1C600.7,319.7,601.1,318.7,601.5,317.6z"/>
			<path class="st1" d="M648.4,136.2l1.2-6.4l-1.7,6.7C648.1,136.4,648.3,136.3,648.4,136.2z"/>
			<g>
				<path class="st0" d="M677.1,21.6c0-10.8-8.8-19.6-19.6-19.6h-118c-12.6,0.1-25,7.5-32.3,16.5c-1.6,2-170.7,213.8-507.3,635.4
					l484.6-0.1l0.6,0c2.7-0.1,5.2-0.3,7.5-0.8l-64.1,0.2c-1.6-2.7-3-5.1-4.6-7.4c-15.4-22.4-31-44.7-46.3-67.3l-1-1.4
					c-8.9-12.6-15.5-15.1-31.2-11.1c-10,2.5-19.9,5.6-30,8.1c-6.6,1.7-13.4,3-21.7-0.6c4.7-3,8.2-5.9,12.2-7.9
					c15.6-7.8,30.2-16.8,43-28.8c24.4-22.9,39.3-50.4,40-84.4c0.2-9.5-0.5-19-1.4-28.5l-1.2-11.4c-0.9-8.2-3-16.3-4.6-24.5l-1.3-0.2
					c-6.6,15.6-10.7,32.7-25.9,44.3c0.2-3.6,0.5-6.2,0.5-8.8c0-10.6,0.7-21.3-0.4-31.7c-1.3-12.1-4.7-23.9-11.4-34.4
					c-1.5-2.4-3.9-4.2-6.6-6.9c-0.4,1.6-0.6,2.4-0.8,3.1l-3.5,17.1l-3.3,16.4c-0.6,2.9-2.2,4.2-4.8,5.5c-4.5,2.1-9.1,4.5-12.9,7.7
					c-8.4,7.1-15.8,15.3-19.2,26.3c-1.5,5,0.8,7.6,5.8,6.1c5.5-1.6,10.7-3.9,16.4-6.1c-2,7.2-3.9,14.5-6.1,21.6
					c-9.2,29.8-20,59-34,86.9c-8.8,17.7-17.9,35.3-30.9,50.6c-12.3,14.6-26.9,25.2-44.8,31.5c-3.9,1.4-7.3,1.3-10.4-1.5
					c-8.9-8.3-17.9-16.4-26.6-24.9c-3.7-3.6-6.5-8-10-12.2c16.4-4.9,29.1-18.4,26.5-28.6c-2.8,1.9-5.5,3.4-7.9,5.3
					c-7.6,5.9-15.2,11.7-25.5,11.4c-8.9-0.3-13.8-8.7-9.1-16.3c15.8-25.3,31.2-51,50.5-74l5.6-6.9c7.4-9.4,14.4-19,22.1-28.2
					c5.6-6.7,11.5-13.2,17.4-19.7l24.9-27.1c6.5-7.1,13.1-14.1,20-20.9c7-6.9,14.1-13.6,21.4-20.2l14.5-13.2
					c11.6-10.7,23-21.6,35.2-31.7c17.2-14.2,34.8-27.7,52.4-41.3c14-10.8,28.2-21.5,42.6-31.8c9.8-7,19.7-13.9,29.6-20.8l29.7-20.6
					c12.6-8.7,25.2-17.3,38-25.7c37.9-25.1,76.7-48.6,116.4-70.8l-6.3,32.6L676.8,25C677,23.9,677.1,22.7,677.1,21.6z"/>
				<path class="st1" d="M539.6,168c-12.7,8.4-25.4,17-38,25.7l-29.7,20.6c-9.9,6.9-19.8,13.8-29.6,20.8
					c-14.4,10.3-28.6,21-42.6,31.8c-17.6,13.6-35.3,27.1-52.4,41.3c-12.1,10-23.5,21-35.2,31.7L297.7,353
					c-7.2,6.6-14.4,13.3-21.4,20.2c-6.8,6.8-13.4,13.8-20,20.9l-24.9,27.1c-5.9,6.5-11.8,13-17.4,19.7c-7.7,9.1-14.7,18.8-22.1,28.2
					l-5.6,6.9c-19.3,23-34.6,48.6-50.5,74c-4.7,7.5,0.2,16,9.1,16.3c10.3,0.3,17.9-5.6,25.5-11.4c2.4-1.9,5.1-3.4,7.9-5.3
					c2.6,10.2-10.2,23.7-26.5,28.6c3.4,4.2,6.3,8.6,10,12.2c8.7,8.5,17.7,16.7,26.6,24.9c3.1,2.9,6.6,2.9,10.4,1.5
					c17.9-6.3,32.5-16.9,44.8-31.5c13-15.4,22-32.9,30.9-50.6c13.9-27.9,24.7-57.1,34-86.9c2.2-7.1,4.1-14.4,6.1-21.6
					c-5.7,2.1-10.9,4.5-16.4,6.1c-4.9,1.5-7.3-1.1-5.8-6.1c3.4-10.9,10.8-19.1,19.2-26.3c3.8-3.2,8.4-5.6,12.9-7.7
					c2.6-1.2,4.2-2.6,4.8-5.5l3.3-16.4l3.5-17.1c0.2-0.7,0.4-1.5,0.8-3.1c2.7,2.8,5.1,4.6,6.6,6.9c6.7,10.5,10,22.3,11.4,34.4
					c1.2,10.5,0.4,21.1,0.4,31.7c0,2.6-0.3,5.2-0.5,8.8c15.2-11.5,19.3-28.6,25.9-44.3l1.3,0.2c1.6,8.2,3.7,16.2,4.6,24.5l1.2,11.4
					c0.9,9.5,1.6,19,1.4,28.5c-0.7,34-15.6,61.5-40,84.4c-12.8,12-27.5,21-43,28.8c-4,2-7.5,4.8-12.2,7.9c8.3,3.6,15.1,2.2,21.7,0.6
					c10-2.5,20-5.6,30-8.1c15.8-4,22.4-1.5,31.2,11.1l1,1.4c15.3,22.5,30.9,44.8,46.3,67.3c1.6,2.3,2.9,4.7,4.6,7.4l64.1-0.2
					c12.8-2.5,20.7-10.3,24.6-16.2c-2.2-0.7-4.5-1.5-6.6-2.4l0.2-2l9.1-1.3l15.1-58.2c-10.8-1.1-21.6-2.6-32.4-4
					c-2.3-0.3-4.5-0.9-6.7-1.6c-0.9-0.3-1.7-1.2-2.5-1.9c0.9-0.8,1.7-2.1,2.7-2.3l8.8-1.8c4.4-0.9,8.8-1.7,13.3-2.1
					c7-0.7,13.9-1.4,20.9-2.1l13.7-52.8c-4.8-0.3-9.5-0.7-14.3-1.1c-11.6-1-23.2-2.8-34.7-4.5c-2.5-0.4-4.7-2-6.9-3.9
					c20-5.4,40.3-7.7,60.7-9.1l18.6-71.7c-0.5-0.2-1-0.5-1.5-0.7c-21.5-10.3-41.6-22.4-58.3-39.7c-3.5-3.6-6.7-7.6-9.4-11.9
					c-3.3-5.2-1-9.2,5-9.4c5.2-0.2,10.4-0.1,15.6,0c21.9,0.6,42-5.6,60.1-17.4c5-3.2,9.6-7.8,12.7-14.3l0.8-3.1l-11.3-0.8
					c-3.8-0.3-7.6-0.5-11.4-0.7c-18.9-0.8-37.8-1.3-56.7-2c-12-0.5-23.9-1.2-35.9-1.6c-5.6-0.2-11.2,0.2-16.9-0.1
					c-1.8-0.1-4.6-1.3-4.9-2.5c-0.4-1.6,0.5-4.5,1.9-5.7l6.7-5.5c4.5-3.6,9.1-7.2,14-10.1c21.5-13,43.3-25.5,64.9-38.3
					c25.1-14.8,51.1-27.7,77.4-40.1l10.5-40.5c-23.3,9.8-46.5,20.1-69.5,30.8c-48.4,22.6-94.8,48.7-139.8,77.5l-11.6,7.4
					c-3.6,2.2-7.5,4-13.3,3.1c2.7-2.8,4.4-5.1,6.6-6.6c15.6-10.8,31.2-21.5,46.9-32c31.8-21.3,65.4-39.7,98.5-58.7
					c30.6-17.6,60.8-36,90.7-54.7l1.7-6.7l6.3-32.6C616.4,119.3,577.5,142.9,539.6,168z"/>
			</g>
		</g>
	</g>
</g>
</svg>
