<?xml version="1.0" encoding="UTF-8"?>
<svg width="856px" height="830px" viewBox="0 0 856 830" version="1.1" xmlns="http://www.w3.org/2000/svg" xmlns:xlink="http://www.w3.org/1999/xlink">
    <title>BRITISHAIRWAYS</title>
    <defs>
        <path d="M659.5555,1 C670.3635,1 679.1255,9.764 679.1255,20.575 C679.1255,21.731 679.025,22.864 678.833,23.965 L521.3915,631.934 C518.5705,638.453 508.106,652.3145 487.193,652.75 L486.556,652.759 L2,652.838 C338.535,231.2945 507.627,19.5075 509.275,17.477 C516.5705,8.4935 528.951,1.148 541.5525,1 L659.5555,1 Z" id="path-1"></path>
    </defs>
    <g id="BRITISHAIRWAYS" stroke="none" stroke-width="1" fill="none" fill-rule="evenodd">
        <g id="Mask-Raw" transform="translate(88.000000, 88.000000)">
            <path d="M659.5555,0.25 L541.5525,0.25 C529.417951,0.392464104 516.653519,7.20156168 508.692801,17.0041958 L504.143997,22.693252 L408.78043,142.119216 L0.441350848,653.588254 L486.556122,653.509 L487.203595,653.499925 C496.850749,653.299046 504.993321,650.296167 511.536706,645.215715 C516.398031,641.441257 520.090369,636.67697 521.967184,632.487618 L522.102948,632.178405 L679.55905,24.1530201 L679.57185,24.0938457 C679.773302,22.9386432 679.8755,21.7624542 679.8755,20.575 C679.8755,9.34991032 670.777837,0.25 659.5555,0.25 Z M541.561308,1.74994828 L659.5555,1.74994828 C669.949327,1.74994828 678.3755,10.1782545 678.3755,20.575 L678.3755,20.9873085 C678.353341,21.8108328 678.282538,22.6275948 678.159826,23.4338938 L678.099,23.806 L520.6795,631.689 L520.703183,631.636141 C518.963128,635.657204 515.375715,640.335962 510.616794,644.03091 C504.32299,648.917581 496.490164,651.80623 487.177385,652.000163 L486.545405,652.009075 L3.558,652.0875 L468.817257,69.3318426 L505.306926,23.640727 L509.555328,18.3259168 L509.857335,17.9496367 C517.549486,8.47771051 529.904809,1.88684959 541.561308,1.74994828 Z" id="BG" fill="#000000" fill-rule="nonzero"></path>
            <mask id="mask-2" fill="white">
                <use xlink:href="#path-1"></use>
            </mask>
            <use id="FG" fill="#FFFFFF" xlink:href="#path-1"></use>
            <g id="BA" mask="url(#mask-2)" fill-rule="nonzero">
                <g transform="translate(376.286500, 341.000000) scale(-1, 1) translate(-376.286500, -341.000000) translate(69.286500, 25.000000)" id="Path">
                    <path d="M613.2865,507.44531 L553.915178,440.687404 L554.680209,440 C512.858594,478.044671 461.687473,502.45617 388.704597,508.392944 L379.501321,509.108934 L374.685752,509.499574 C318.314931,514.161578 283.520132,520.281844 249.020779,534.058061 C201.807172,552.91131 168.523576,583.80334 150.2865,630.90487 L474.962006,632 C475.155793,631.538017 475.438878,631.104022 475.811578,630.72394 L480.640778,625.823889 L484.477027,621.971727 C511.953559,594.526811 525.309163,584.499271 545.011998,573.637187 L549.636964,571.112057 C557.703753,566.656733 563.556992,562.540343 571.758721,555.043244 C584.907426,543.024178 595.803897,531.051759 604.568504,519.691331 C607.624691,515.729991 610.193385,512.133572 612.289639,508.972957 L613.2865,507.44531 Z" fill="#CF0012"></path>
                    <path d="M59.2865,307.153126 L99.562435,513 C112.936915,489.822572 143.830139,464.990271 181.58048,447.475164 C227.172715,426.321636 276.575867,418.257162 319.551784,427.526228 L321.3387,427.922482 C360.148731,436.765745 395.209088,428.366693 425.212092,408.236848 C435.818834,401.120491 445.030471,392.965348 452.04942,385.079433 L453.314512,383.631567 L454.2865,382.475731 L453.87445,382.518919 C440.382951,383.778052 416.751188,384.044844 394.144967,382.008272 L391.318289,381.74091 C342.811105,376.930758 296.928391,362.942213 258.027831,337.348922 L256.088642,336.059576 C216.92644,309.745789 175.011931,296.765847 133.714353,295.161322 C103.685439,293.994617 75.5324796,299.275093 59.2865,307.153126 Z" fill="#004595"></path>
                    <path d="M0.2865,0 L38.2506608,194.22697 C44.11036,190.10968 54.4564018,187.453035 67.741547,186.04262 C87.7189154,183.921725 111.473013,185.212914 126.232614,189.424499 C168.208066,201.402004 209.112198,214.808012 252.021696,230.35992 L260.567586,233.478338 C297.889396,247.240417 392.484085,284.566798 427.2865,298 L292.208469,145.859949 C291.532206,145.74746 290.875064,145.463914 290.304757,145.002306 C196.159225,68.8006643 69.3855444,8.08038942 0.2865,0 Z" fill="#CF0012"></path>
                </g>
            </g>
        </g>
    </g>
</svg>