<svg>
    <defs>
        <linearGradient x1="82.1520275%" y1="9.07411326%" x2="23.4360929%" y2="114.457615%" id="linearGradient-1">
            <stop stop-color="#4AC3F0" offset="0%"></stop>
            <stop stop-color="#196CC4" offset="24.3623229%"></stop>
            <stop stop-color="#113BAB" offset="100%"></stop>
        </linearGradient>
        <path d="M659.5555,1 C670.3635,1 679.1255,9.764 679.1255,20.575 C679.1255,21.731 679.025,22.864 678.833,23.965 C640.430319,172.25906 611.628309,283.479606 592.426969,357.626636 C576.641309,418.583828 552.962819,510.019616 521.3915,631.934 C518.5705,638.453 508.106,652.3145 487.193,652.75 L486.556,652.759 L2,652.838 C338.535,231.2945 507.627,19.5075 509.275,17.477 C516.5705,8.4935 528.951,1.148 541.5525,1 L659.5555,1 Z" id="path-2"></path>
        <polygon id="path-4" points="0.306507736 0.601205479 396.770312 0.601205479 396.770312 421.998844 0.306507736 421.998844"></polygon>
    </defs>
    <g id="UNITED" stroke="none" stroke-width="1" fill="none" fill-rule="evenodd">
        <g id="Mask-Raw" transform="translate(88.000000, 88.000000)">
            <path d="M659.5555,0.25 L541.5525,0.25 C529.417951,0.392464104 516.653519,7.20156168 508.692801,17.0041958 L504.143997,22.693252 L408.78043,142.119216 L0.441350848,653.588254 L486.556122,653.509 L487.203595,653.499925 C496.850749,653.299046 504.993321,650.296167 511.536706,645.215715 C516.398031,641.441257 520.090369,636.67697 521.967184,632.487618 L522.102948,632.178405 L679.55905,24.1530201 L679.57185,24.0938457 C679.773302,22.9386432 679.8755,21.7624542 679.8755,20.575 C679.8755,9.34991032 670.777837,0.25 659.5555,0.25 Z M541.561308,1.74994828 L659.5555,1.74994828 C669.949327,1.74994828 678.3755,10.1782545 678.3755,20.575 L678.3755,20.9873085 C678.353341,21.8108328 678.282538,22.6275948 678.159826,23.4338938 L678.099,23.806 L520.6795,631.689 L520.703183,631.636141 C518.963128,635.657204 515.375715,640.335962 510.616794,644.03091 C504.32299,648.917581 496.490164,651.80623 487.177385,652.000163 L486.545405,652.009075 L3.558,652.0875 L468.817257,69.3318426 L505.306926,23.640727 L509.555328,18.3259168 L509.857335,17.9496367 C517.549486,8.47771051 529.904809,1.88684959 541.561308,1.74994828 Z" id="BG" fill="#004595" fill-rule="nonzero"></path>
            <mask id="mask-3" fill="white">
                <use xlink:href="#path-2"></use>
            </mask>
            <use id="FG" fill="url(#linearGradient-1)" fill-rule="nonzero" xlink:href="#path-2"></use>
            <g id="UNITED" mask="url(#mask-3)">
                <g transform="translate(417.500000, 465.500000) scale(-1, 1) translate(-417.500000, -465.500000) translate(219.000000, 254.000000)">
                    <g id="Group-3" stroke-width="1" fill="none">
                        <mask id="mask-5" fill="white">
                            <use xlink:href="#path-4"></use>
                        </mask>
                        <g id="Clip-2"></g>
                        <path d="M175.958152,93.2261589 C158.755604,91.0525699 143.017965,89.0639671 126.869225,87.023337 C126.267049,91.9428164 125.740145,96.2495288 125.132179,101.24994 C142.346307,104.504542 159.670448,105.920844 176.386623,111.539803 C176.322932,120.326652 175.807608,128.691501 172.704085,136.69794 C155.808415,131.969227 139.381748,127.373474 122.040237,122.523364 C119.313074,130.078899 116.817518,136.969638 114.159837,144.311282 C130.980235,151.53731 147.783262,158.751775 165.252157,166.261063 C161.563829,174.307967 158.385034,181.216049 155.090436,188.372707 C138.107914,179.74194 121.924434,171.51583 105.173518,163.00646 C99.099646,172.423419 93.3094918,181.395255 87.1140269,190.9972 C102.469516,201.628132 117.790263,212.23594 133.863731,223.364022 C128.745235,230.040871 124.113112,236.070268 119.16253,242.510104 C104.015487,230.335693 89.4069279,218.594844 76.1185242,207.917666 C66.6689927,217.456022 57.6247719,226.589721 48.1636601,236.145419 C59.0028286,248.348734 71.4111289,262.332542 83.6688852,276.125584 C79.8937047,282.877584 78.0408554,284.669638 68.6665959,290.641227 C56.0035288,276.339474 44.9501245,260.569392 32.9239744,245.302241 C22.3222022,252.308597 13.2200799,260.985611 1.33289348,265.228734 C-0.913686322,261.465419 1.38500487,260.060679 3.82265976,258.413145 C12.5194713,252.505145 21.4363086,246.857282 29.7104389,240.394323 C61.2841493,215.715995 87.6756719,186.609556 105.150357,150.074762 C115.225225,129.026789 121.710198,107.036542 119.793657,83.5317205 C116.753826,46.2858849 94.3401393,24.3939123 58.6496292,17.1100767 C40.8275348,13.4739397 22.9417487,14.2023233 5.20071644,18.2257753 C3.91530222,18.5205973 2.54303569,18.4281041 1.11865778,18.5205973 C-0.821043856,14.1849808 0.846520534,11.9362411 4.70855334,11.0922411 C15.4898203,8.73366575 26.2421365,6.14385753 37.116046,4.32867945 C58.452764,0.767693151 80.0268783,-0.105210959 101.566252,1.12032329 C125.867528,2.50772055 149.798236,6.51383014 173.184668,13.5144055 C219.772248,27.4635288 261.131319,50.5463507 296.607593,83.9768438 C348.68424,133.050241 381.520204,192.592707 392.782054,263.425118 C400.870899,314.273227 396.684617,364.346707 380.020554,413.217775 C379.314155,415.304652 378.619337,417.489803 377.386034,419.258734 C376.691215,420.253036 374.902058,420.484268 371.497447,421.998844 C381.300178,395.782816 386.667651,370.624679 388.15572,344.616762 C385.671744,354.218707 383.291991,363.849556 380.663261,373.416816 C378.242977,382.209447 375.602666,390.944268 372.950776,399.67331 C372.198056,402.164844 372.667058,406.142049 367.907551,404.835584 C365.811516,408.720296 363.674949,412.587666 361.613654,416.495501 C360.195066,419.200926 359.054406,422.247419 354.016972,420.079611 C375.550555,375.070132 391.265033,328.63857 390.413881,278.28183 C389.690111,278.125748 388.960552,277.969666 388.236783,277.819364 C387.924114,280.998816 387.976226,284.270762 387.206135,287.340378 C386.470786,290.259693 387.356679,293.82646 383.535177,295.86709 C382.14554,296.607036 381.966046,299.769145 381.410191,301.873364 C378.289298,313.619995 375.37106,325.424433 372.053302,337.113255 C371.022654,340.726268 370.316256,343.911501 372.186475,347.478268 C374.328832,351.582652 374.016164,355.895145 372.389131,360.242323 C369.100323,369.017611 365.97943,377.850707 362.459016,387.585611 C359.922929,383.932132 358.029548,381.197803 355.782969,377.948981 C349.396429,389.12909 343.455731,399.621282 337.42239,410.061447 C335.760616,412.940296 333.890396,415.697748 332.014386,418.443638 C330.479995,420.692378 328.540293,422.021967 324.904077,419.917748 C326.658493,416.998433 328.355009,414.02709 330.184697,411.148241 C354.781272,372.364707 371.833276,330.731227 378.787251,285.074296 C383.888377,251.597556 380.686422,219.438844 365.788355,188.760022 C365.440946,188.031638 365.041425,187.326378 363.414392,187.349501 C364.647695,197.009255 365.747824,206.686351 367.212733,216.311419 C367.519611,218.323145 368.822396,220.450488 370.246774,221.988186 C375.301578,227.433721 377.067575,233.68857 376.395917,241.030214 C375.446332,251.487721 374.936799,261.985693 374.189869,272.460542 C374.103016,273.743885 373.691915,275.009885 373.159221,277.611255 C369.887784,274.454926 367.455919,272.102132 364.526101,269.269529 C362.152138,278.617118 359.922929,287.415529 357.69951,296.219721 C357.560546,296.757337 357.589497,297.358542 357.357891,297.844132 C352.499951,308.238049 351.544576,318.146378 359.610261,327.783008 C361.09833,329.557721 360.930416,333.725693 360.056102,336.280816 C356.825196,345.686214 352.974744,354.87194 348.753722,365.687858 C344.717984,359.311611 341.469708,354.160899 337.955084,348.599748 C327.312781,365.768789 317.197382,382.099611 306.676671,399.072104 C310.625557,405.691145 314.800258,412.697501 319.501863,420.594104 L281.906392,420.594104 C284.876741,416.917501 287.036469,414.2352 289.196196,411.552899 C314.788677,379.856652 335.708504,345.501227 348.522115,306.596296 C355.551362,285.247721 359.98083,263.436679 361.289405,240.845227 C363.576516,201.183008 355.250274,164.497912 333.172417,131.263967 C328.534503,124.274953 323.300204,117.673255 316.311488,112.516762 C328.372379,130.460433 340.676457,148.207556 346.588204,171.209447 C343.664176,169.215063 342.349811,168.255447 340.971754,167.399885 C339.657389,166.579008 338.279333,165.862186 336.015382,164.590405 C336.802843,173.828159 337.289216,182.002241 338.354605,190.101173 C338.597791,191.945255 340.589604,193.800899 342.176106,195.188296 C355.754018,206.986953 355.788759,206.952268 355.782969,224.61846 C355.777179,229.60731 355.991414,234.619282 355.661375,239.590789 C355.348707,244.232789 354.457023,248.828542 353.640612,254.748104 C347.306183,248.071255 341.597091,242.053419 335.366885,235.486405 C331.336938,250.279529 327.590708,264.0032 323.699725,278.299173 C328.644516,284.808378 333.815124,291.959255 339.379462,298.786405 C342.390342,302.47457 342.830394,305.948844 340.931223,310.20931 C337.254475,318.452762 333.826704,326.800268 329.623052,336.673912 C322.142173,327.147118 315.767213,319.025063 309.021684,310.417419 C298.396751,327.031501 288.20608,342.98657 277.639049,359.519721 C284.46564,368.572488 291.57595,378.006789 299.149471,388.059638 C292.421312,396.540104 285.791586,404.887611 278.658116,413.859447 C270.997742,403.887529 263.945334,394.707584 256.377603,384.857063 C251.930764,389.655145 247.750273,394.239337 243.49451,398.748378 C237.409058,405.176652 231.207803,411.500871 225.180252,417.981173 C222.186742,421.20109 218.845824,421.935255 214.254231,420.305063 C214.983791,419.189364 215.394892,418.183501 216.118661,417.530268 C242.064342,394.019666 265.085994,367.942378 284.593024,338.824378 C307.00671,305.376542 324.023973,269.593255 330.27734,229.428104 C338.221431,178.412351 327.364892,132.073282 294.748954,91.4976932 C289.161455,84.5491452 287.910782,83.0172274 279.028686,82.2079123 C282.132208,88.1505973 284.685666,93.8042411 288.003424,98.9780767 C289.149875,100.75857 292.131804,101.46383 294.372594,102.423447 C298.842593,104.336899 302.032968,107.23309 304.522734,111.626515 C311.100349,123.245967 316.36939,135.356789 320.109829,148.149748 C320.387756,149.115145 320.480399,150.13257 320.874129,152.346625 C313.566955,148.172871 307.261477,144.582981 300.133797,140.519063 C300.59701,148.120844 301.106543,154.404597 301.303408,160.705693 C301.401841,163.821556 302.826219,165.659858 305.269664,167.405666 C311.12351,171.5852 316.670478,176.186734 322.512743,180.383611 C325.245696,182.34909 326.623752,184.563145 326.478999,187.996953 C325.969465,199.564378 325.622056,211.137584 325.210955,222.710789 C324.608779,223.017173 323.995022,223.317775 323.392846,223.624159 C314.973962,216.964652 306.555078,210.310926 297.707723,203.316132 C293.498281,216.94731 289.532025,229.75183 285.339954,243.313638 C290.45845,247.949858 296.225443,252.667008 301.407631,257.962241 C315.547188,272.402734 314.360206,266.830022 306.63035,285.837364 C304.968576,289.924405 302.884121,293.843803 300.950209,297.815227 C300.585429,298.549392 300.006414,299.16794 299.271064,300.196926 C289.862064,290.988077 280.864164,282.189666 271.408843,272.928789 C261.513469,288.236405 252.000246,302.960159 241.908007,318.574159 C250.778524,328.690597 259.793794,338.974679 269.283856,349.802159 C262.561487,357.993584 256.122836,365.832378 248.890933,374.648132 C239.591946,363.953611 230.843023,353.877638 223.350563,345.258433 C208.20931,359.58909 193.207021,373.781008 177.909434,388.261967 C185.980909,398.777282 193.948161,409.153858 202.801306,420.669255 L127.297697,420.669255 C129.364782,418.750022 130.372268,417.564953 131.605571,416.709392 C158.21712,398.089364 182.796324,377.058734 205.088417,353.472981 C236.129434,320.643693 262.046163,284.2592 279.086587,242.122789 C289.410432,216.583118 296.514951,190.118515 295.530625,162.278077 C293.990444,118.817858 278.241225,81.4159397 245.642657,52.0378027 C233.419641,41.0195562 218.689489,34.1692822 200.925296,29.5908712 C207.143922,36.3544329 211.677613,42.129474 220.287572,41.1062685 C221.277688,40.9906521 222.400978,41.6496658 223.414255,42.0716658 C234.068139,46.5460219 252.561891,62.9288712 259.28426,74.0858575 C251.259106,72.0163233 243.702955,70.0681863 235.000354,67.8194466 C237.49012,73.2996658 238.885547,77.577474 241.282671,81.1904877 C242.620196,83.2022137 245.463162,84.5260219 247.900817,85.4220493 C254.883743,87.9887342 262.080904,89.9946795 269.04067,92.6249534 C271.154076,93.4284877 273.441187,95.1858575 274.500785,97.1339945 C280.175136,107.608844 283.799773,118.823638 286.312699,131.911419 C274.286549,126.506351 263.42422,121.627337 251.357539,116.199145 C251.872863,124.118871 252.312914,130.813063 252.764546,137.836762 C264.790697,144.299721 276.909489,150.814707 288.889318,157.254542 C289.983657,169.885638 288.536119,181.568679 285.837907,193.904953 C273.255902,186.112405 261.189221,178.643584 248.809871,170.978214 C244.797294,183.4012 241.155287,194.673803 237.409058,206.252789 C249.724715,215.519447 262.219868,224.930625 275.039269,234.573036 C270.389776,244.539173 266.209284,253.499447 261.640853,263.280597 C248.821451,253.089008 236.621597,243.388789 224.549125,233.786844 C215.574386,247.764871 206.958637,261.18794 197.792823,275.460789 C209.043093,286.427008 220.837637,297.930844 233.321209,310.099474 C226.778335,318.186844 220.611821,325.817529 214.468467,333.413529 C202.152809,321.296926 190.54355,309.874022 180.260236,299.763364 C166.248063,313.018789 152.415385,326.112351 138.524805,339.25794 C148.790749,352.010433 158.96984,364.664652 169.722156,378.01257 C162.72765,383.816515 156.190566,389.233145 149.097627,395.112241 C138.814313,381.966652 128.849458,369.243063 118.994616,356.646652 C99.064905,369.393364 79.5926167,381.839474 59.6860668,394.568844 C64.5208455,402.760268 69.4077356,411.049967 74.3235764,419.380132 C68.6608057,421.536378 16.6131102,422.2532 0.921792537,420.443803 L0.921792537,413.778515 C19.5602987,405.58709 38.01931,398.1992 55.8298241,389.493282 C82.5282248,376.434405 106.858452,359.560186 129.28951,340.049912 C161.436445,312.093858 189.067061,280.195282 211.434426,243.88594 C229.945549,213.831447 242.782321,181.568679 245.966905,146.172707 C250.992759,90.3415288 221.850913,45.3667342 177.440431,22.6712274 C161.789645,14.6705699 144.685529,11.3465973 127.43087,8.85506301 C126.492865,8.71632329 125.473798,9.09785753 124.362088,9.87248767 C140.487668,14.1849808 157.024348,17.069611 171.586585,26.7871726 C166.647584,27.0184055 161.708583,27.2438575 155.709983,27.5271178 C159.068272,33.6952548 162.148634,37.9441589 169.073659,37.6608986 C175.159111,37.4065425 181.267723,37.4643507 187.358965,37.6898027 C189.732929,37.7765151 192.761179,37.9441589 194.31294,39.3720219 C201.400089,45.8812274 208.081927,52.8239945 214.839037,59.691611 C215.475954,60.339063 215.580177,61.5183507 216.08971,62.8652822 C203.287679,61.1657205 191.099405,59.5470904 177.538864,57.7492548 C179.061674,61.6744329 180.202335,64.0792548 180.926104,66.6112548 C181.991492,70.3167616 184.278603,71.6405699 188.071154,72.2591178 C199.506709,74.1321041 210.82067,76.7276932 222.244644,78.6758301 C226.633581,79.427337 229.308632,81.6298301 230.646158,85.6070356 C233.257517,93.3764603 235.735703,101.192132 238.810275,110.67846 C221.034502,105.527748 205.082627,100.914652 189.304457,96.3478027 C188.621219,97.7641041 188.163797,98.2496932 188.198538,98.7063781 C188.528576,103.625858 187.277903,109.788214 189.77925,113.106405 C192.274806,116.430378 198.533963,116.93331 203.160296,118.632871 C215.296459,123.084104 227.444202,127.517995 239.516674,131.928762 C240.761557,143.363227 239.111363,153.479666 236.459472,163.757967 C219.036899,156.052132 202.453897,148.716268 185.401893,141.166515 C182.159407,151.699173 179.246959,161.156597 176.155017,171.203666 C192.639586,180.499227 209.135735,189.80057 226.529358,199.604844 C222.418349,208.489967 218.648958,216.646707 214.514788,225.583858 C198.03601,215.207282 182.26363,205.27583 166.207532,195.165173 C158.819296,207.148816 151.772678,218.56594 144.291799,230.688323 C158.576109,242.579474 173.120976,254.690296 188.256439,267.286707 C182.217308,274.830679 176.728242,281.675173 170.891767,288.959008 C156.491654,275.88857 142.693716,263.36731 128.739445,250.701529 C116.580121,263.523392 105.237209,275.501255 93.7205928,287.652542 C105.549878,301.590104 117.489175,315.666405 130.088551,330.499995 C123.858345,335.668049 118.004499,340.518159 111.305291,346.067748 C99.290721,330.841063 87.7335734,316.186679 76.4311925,301.861803 C59.6686963,313.059255 43.3983632,323.932981 26.5953359,335.165118 C34.9794791,350.634597 43.6299694,366.583885 52.6684,383.255775 C47.6599167,385.897611 43.3867829,388.152132 38.6330664,390.655227 C28.0891957,375.006542 21.1525911,358.097638 12.1778522,341.818844 C8.48952398,343.402789 5.01543151,344.894241 1.47764733,346.408816 C-1.48691158,341.44309 1.87137781,340.17709 5.10807397,338.361912 C21.0020471,329.447885 37.5039863,321.389419 52.4889052,311.122679 C98.5901124,279.530488 136.330337,240.076378 161.795435,189.719638 C172.628813,168.301693 180.283397,145.739145 182.25784,121.806542 C184.53916,94.1337479 180.677127,67.6460219 162.449722,44.9736384 C146.260451,24.8448164 125.103228,13.5548712 100.107133,8.68163836 C85.012201,5.7392 69.8014661,6.5832 54.6081016,7.21909041 C52.2746695,7.31736438 49.9759783,8.35213151 47.7293985,9.7221863 C62.4653408,9.19613151 77.1202209,8.31166575 93.5700488,11.7917205 C88.4920836,13.9653096 85.1569548,15.3873918 81.671282,16.8788438 C87.8667469,22.4688986 87.8609568,22.4631178 94.3864605,20.7404329 C95.1912919,20.5323233 96.1235067,20.6305973 96.8241154,20.2664055 C111.27634,12.8091452 122.630832,20.1970356 135.786063,28.6023507 C124.599485,30.5562685 115.074681,32.2211452 105.434075,33.9033644 C110.15884,42.0890082 110.13568,41.9155836 118.751429,40.9617479 C127.257165,40.0252548 135.815013,39.6032548 144.32654,38.7245699 C147.71378,38.3777205 150.053002,39.5512274 152.299582,41.9618301 C156.045812,45.9795014 160.09313,49.7081315 162.084943,56.442789 L119.648903,56.442789 C121.212245,61.281337 122.370275,64.8481041 123.27933,67.6633644 C137.708394,68.2356658 151.436849,68.7443781 165.159514,69.3571452 C168.963646,69.5190082 171.273917,71.8024329 172.11928,75.4038849 C173.433645,81.0228438 174.562725,86.6880493 175.958152,93.2261589" id="Fill-1" fill="#4AC3F0" mask="url(#mask-5)"></path>
                    </g>
                    <path d="M102.267227,141.074201 C98.8693696,147.805586 96.3950323,152.702191 93.7638709,157.911346 C75.3747823,151.191536 57.3400002,144.60485 39.1542022,137.960284 C34.6411504,144.85952 30.7553954,150.803744 26.7767076,156.892667 C43.0283405,166.205478 59.0476414,175.379378 75.9614209,185.074193 C71.6516598,190.289136 68.0330867,194.664826 64.4493635,199 C48.9876598,187.93344 34.135828,177.300977 18.6741243,166.240205 C12.5173227,172.305977 6.87165176,177.868196 0.923949056,183.731389 C-1.06249071,179.413579 0.395393445,177.23731 3.00912998,174.603793 C14.34113,163.195744 24.8599674,151.139445 32.8405763,136.976332 C42.6101427,119.624059 48.1803057,101.392018 46.5075143,81.336773 C44.8231063,61.131041 34.1067865,47.4078126 15.7060813,39.547777 C10.9200392,37.5046308 5.77969071,36.3181012 0.325693804,34.5875043 L0.325693804,23.0984243 C7.06332577,22.1781404 13.9345487,21.2404925 20.8057717,20.3028447 L21.328519,21.871379 C17.5647383,24.9216285 13.8009577,27.9718779 9.81065329,31.2131296 C14.4631043,33.8003431 18.1049106,33.4993697 21.653784,30.2928457 C23.4833995,28.64328 26.0158198,27.7808755 27.8454354,26.1370979 C38.0273913,16.9979255 49.0167014,19.7472015 61.2954548,23.6309157 C50.3177613,29.0368606 40.281013,33.9739816 29.9886994,39.0384375 C32.0216056,44.1665608 34.7398916,44.1144693 38.6082216,42.3607205 C47.9247403,38.1470932 57.5374825,34.5643525 66.75526,30.1539349 C72.1395573,27.5782973 76.7513502,27.9834538 81.4038012,31.2015538 C83.8549053,32.897423 86.1956515,34.7379909 89.4076433,37.1226262 C73.3360678,42.3665085 57.4561662,45.063693 42.5288264,52.3796613 C43.8066532,54.706417 44.7998731,56.5296211 45.9383005,58.6017071 C58.4551944,55.1983927 70.6700565,51.8703217 82.8907269,48.5711904 C84.7551923,48.0618509 86.6603158,47.6856342 88.5480144,47.24575 C99.7173819,44.6180209 101.663164,45.8392782 105.450177,58.1039434 C87.3224624,61.1599808 69.2295973,64.2102302 50.4513523,67.3762386 C50.9915245,70.7448253 51.3516393,73.0252774 51.7698372,75.6298547 C71.6284266,73.2567954 91.0107351,70.9416156 111.270097,68.5164647 C112.240084,74.9873923 113.035822,80.2833662 114,86.6674746 C93.2062738,87.18839 73.4231923,85.9381929 53.5007116,88.3922835 C53.1173636,91.9692364 52.7979069,94.9384545 52.3971339,98.671682 C72.4938638,100.164973 92.712568,97.3751813 113.303004,101.542505 C111.920627,107.984493 110.613759,114.067628 109.382399,119.76297 C88.9836372,117.042634 69.3689965,114.426481 49.5859151,111.7756 C47.8898905,116.978967 46.5539807,121.076835 45.1774128,125.307826 C64.1299069,130.54592 82.681628,135.668256 102.267227,141.074201" id="Fill-4" fill="#4AC3F0"></path>
                    <path d="M1.00014167,187 C13.7721457,200.289017 25.6116282,212.595376 38,225.473988 C34.0220283,228.768786 30.4571991,231.710983 25.2752122,236 C23.8351157,233.83237 22.6015903,231.745665 21.1378856,229.820809 C16.7821837,224.092486 12.8868405,217.884393 7.77567802,212.878613 C0.716843986,205.965318 -1.52002733,198.242775 1.00014167,187" id="Fill-6" fill="#4AC3F0"></path>
                    <path d="M7.48316843,330 C2.59199339,322.770144 -0.697393332,315.894237 0.126383517,307.277595 C0.749936826,300.71502 0.246517641,294.036397 0.246517641,286 C5.69831859,292.040353 7.5117718,298.701569 10.6409797,304.533034 C13.8731597,310.544376 16.6820099,316.787815 20,323.599895 C15.7609816,325.770012 11.9510137,327.713834 7.48316843,330" id="Fill-8" fill="#4AC3F0"></path>
                    <path d="M0.370176205,110 C0.238823358,107.371656 0.143294015,105.592048 0,102.963705 C13.4397845,100.97602 26.6407456,99.1854605 41,100.390118 C40.0805301,104.058848 39.3998835,106.785755 38.5938547,110 L0.370176205,110 Z" id="Fill-10" fill="#4AC3F0"></path>
                    <path d="M40.162932,78 C40.9048248,82.0642907 41.3817559,84.6415094 42,88.0349406 C28.3986309,90.0307477 14.9621268,92.0097834 1.43141418,94 C-1.29474768,90.5618449 0.0771653099,88.5269043 3.82195785,87.5262055 C15.6451393,84.3675751 27.497761,81.3151642 40.162932,78" id="Fill-12" fill="#4AC3F0"></path>
                    <path d="M27.5216826,134 C18.1614259,131.386547 9.81572246,129.048502 1,126.581543 L1,119.07519 C11.2544392,118.436476 20.7350666,122.046088 30.8977948,123.136004 C31.5856275,127.607001 28.616483,130.062241 27.5216826,134" id="Fill-14" fill="#4AC3F0"></path>
                    <path d="M34.6251928,61 C36.1154427,64.5177056 37.0258289,66.683348 38,68.9777583 C25.2777888,73.104185 13.1412401,77.0433128 0.969899526,81 C-0.781289065,77.9973661 -0.120244365,75.849283 2.62251128,74.6552531 C12.9092946,70.1834943 23.242467,65.8463565 34.6251928,61" id="Fill-16" fill="#4AC3F0"></path>
                    <path d="M22.991384,50 C25.2231557,52.4075161 26.8597882,54.1808573 29,56.4944216 C19.2660421,61.1391662 10.1043333,65.5137992 0.696557432,70 C-0.402160921,66.271286 -0.510888258,63.9988256 2.68798445,62.2078685 C9.33179699,58.4908984 15.7753223,54.374633 22.991384,50" id="Fill-18" fill="#4AC3F0"></path>
                    <path d="M0.367951587,56 C0.771393827,50.7108933 -1.92769158,46.3870772 3.10113071,43.2798698 C8.39133811,40.0070209 11.8688966,43.7596592 17,46.1985885 C11.1927047,49.6199437 6.27752806,52.5158153 0.367951587,56" id="Fill-20" fill="#4AC3F0"></path>
                    <path d="M8.97472055,159 C-0.756674172,155.357314 -1.04656969,153.684253 1.05659389,145 C5.63239573,147.13749 10.0376708,149.196643 15,151.518785 C12.7035727,154.366906 10.92441,156.577138 8.97472055,159" id="Fill-22" fill="#4AC3F0"></path>
                </g>
            </g>
        </g>
    </g>
</svg>
