<svg>
	<g transform="translate(88 88)"><path d="M659.6.2h-118c-12.1.1-24.9 7-32.9 16.8l-4.5 5.7L.4 653.6l486.7-.1c9.6-.2 17.8-3.2 24.3-8.3 4.9-3.8 8.6-8.5 10.4-12.7l.1-.3L679.4 24.1a20.68 20.68 0 0 0 .3-3.5C679.9 9.3 670.8.2 659.6.2zm-118 1.5h118a18.78 18.78 0 0 1 18.8 18.8v.5c0 .8-.1 1.6-.2 2.4l-.1.4-157.4 607.9c-1.7 3.9-5.3 8.6-10.1 12.3-6.3 4.9-14.1 7.8-23.4 8h-.6l-483 .1L509.8 17.9c7.7-9.4 20.1-16 31.8-16.2z"/><use xlink:href="#B" fill-rule="evenodd" fill="#fff"/><defs><filter id="A" filterUnits="userSpaceOnUse" x="113" y="248.1" width="498" height="240"><feColorMatrix values="1 0 0 0 0  0 1 0 0 0  0 0 1 0 0  0 0 0 1 0"/></filter><path id="B" d="M659.6 1c10.8 0 19.6 8.8 19.6 19.6a18.7 18.7 0 0 1-.3 3.4L521.5 632c-2.8 6.5-13.3 20.4-34.2 20.8H2L509.3 17.5c7.3-9 19.7-16.3 32.3-16.5h118z"/></defs><mask maskUnits="userSpaceOnUse" x="113" y="248.1" width="498" height="240" id="C"><g filter="url(#A)"><use xlink:href="#B" fill-rule="evenodd" fill="#fff"/></g></mask><path d="M422 248.1c-21.4-.1-38.8 8.6-52.8 25.2-7.9 9.4-15.4 19.1-23.1 28.6l-71.8 89.2c-9.6 12-21 17.3-36.2 18.8-6.7.6-4.5 1.3-18.4 1.3l-42.8.9-63.8 76H249c26.9 0 48.9-10.7 65.9-32.7l18.9-24.4 9.3-12.3c3-4 6.2-5.7 11.2-5.6l65.8.1c21.7-.2 40.9-7.4 56.1-24.1 7.2-7.9 13.6-16.4 20.3-24.7 2.6-3.1 5-6.4 7.5-9.6l-.6-1.8h-119l-.5-1.7c4-5.2 8.3-10.1 12.1-15.5l2.2-3.3c5.7-9 13.2-11.9 23-12h1.6c30.6.6 61.2.4 91.8.1 28.9-.3 52.8-11.2 70.3-35.6l1.5-2.2c7-10.3 14.8-20.1 22.2-30.2.3-.4.6-.9.9-1.5l1.6-3H482.7c-20.3.1-40.5.1-60.7 0z" mask="url(#C)" fill="#0b1560"/></g></svg>
