<svg>
    <defs>
        <path d="M659.5555,1 C670.3635,1 679.1255,9.764 679.1255,20.575 C679.1255,21.731 679.025,22.864 678.833,23.965 L521.3915,631.934 C518.5705,638.453 508.106,652.3145 487.193,652.75 L486.556,652.759 L2,652.838 C338.535,231.2945 507.627,19.5075 509.275,17.477 C516.5705,8.4935 528.951,1.148 541.5525,1 L659.5555,1 Z" id="path-1"></path>
        <linearGradient x1="267.354856%" y1="-439.944694%" x2="358.122223%" y2="-421.340962%" id="linearGradient-3">
            <stop stop-color="#8B350B" offset="0%"></stop>
            <stop stop-color="#8B350B" offset="7%"></stop>
            <stop stop-color="#913C0E" offset="15%"></stop>
            <stop stop-color="#A34E14" offset="28%"></stop>
            <stop stop-color="#A65215" offset="30%"></stop>
            <stop stop-color="#B76519" offset="46%"></stop>
            <stop stop-color="#E8A71F" offset="89%"></stop>
            <stop stop-color="#E8A71F" offset="100%"></stop>
        </linearGradient>
        <linearGradient x1="91.7835213%" y1="-111.670897%" x2="163.360135%" y2="-90.2836954%" id="linearGradient-4">
            <stop stop-color="#E79000" offset="0%"></stop>
            <stop stop-color="#E89400" offset="2%"></stop>
            <stop stop-color="#ECA022" offset="6%"></stop>
            <stop stop-color="#EDA42C" offset="7%"></stop>
            <stop stop-color="#F0B24D" offset="10%"></stop>
            <stop stop-color="#FBDDAA" offset="20%"></stop>
            <stop stop-color="#FADAA3" offset="22%"></stop>
            <stop stop-color="#F9D48F" offset="26%"></stop>
            <stop stop-color="#F7C96C" offset="30%"></stop>
            <stop stop-color="#F4BB35" offset="35%"></stop>
            <stop stop-color="#F4BA30" offset="35%"></stop>
            <stop stop-color="#EEA900" offset="66%"></stop>
            <stop stop-color="#E78E00" offset="98%"></stop>
            <stop stop-color="#E78E00" offset="100%"></stop>
        </linearGradient>
    </defs>
    <g id="ICELAND-AIR" stroke="none" stroke-width="1" fill="none" fill-rule="evenodd">
        <g id="Mask-Raw" transform="translate(88.000000, 88.000000)">
            <path d="M659.5555,0.25 L541.5525,0.25 C529.417951,0.392464104 516.653519,7.20156168 508.692801,17.0041958 L504.143997,22.693252 L408.78043,142.119216 L0.441350848,653.588254 L486.556122,653.509 L487.203595,653.499925 C496.850749,653.299046 504.993321,650.296167 511.536706,645.215715 C516.398031,641.441257 520.090369,636.67697 521.967184,632.487618 L522.102948,632.178405 L679.55905,24.1530201 L679.57185,24.0938457 C679.773302,22.9386432 679.8755,21.7624542 679.8755,20.575 C679.8755,9.34991032 670.777837,0.25 659.5555,0.25 Z M541.561308,1.74994828 L659.5555,1.74994828 C669.949327,1.74994828 678.3755,10.1782545 678.3755,20.575 L678.3755,20.9873085 C678.353341,21.8108328 678.282538,22.6275948 678.159826,23.4338938 L678.099,23.806 L520.6795,631.689 L520.703183,631.636141 C518.963128,635.657204 515.375715,640.335962 510.616794,644.03091 C504.32299,648.917581 496.490164,651.80623 487.177385,652.000163 L486.545405,652.009075 L3.558,652.0875 L468.817257,69.3318426 L505.306926,23.640727 L509.555328,18.3259168 L509.857335,17.9496367 C517.549486,8.47771051 529.904809,1.88684959 541.561308,1.74994828 Z" id="BG" fill="#004595" fill-rule="nonzero"></path>
            <mask id="mask-2" fill="white">
                <use xlink:href="#path-1"></use>
            </mask>
            <use id="FG" fill="#003A7D" xlink:href="#path-1"></use>
            <g id="ICELAND" mask="url(#mask-2)">
                <g transform="translate(246.000000, 267.000000)">
                    <path d="M9.40185946,206.964964 C5.78158619,208.777778 2.16729684,212.409408 0.354168244,216.041039 C-1.45297643,221.479481 3.97444151,226.923925 9.40185946,230.555556 C16.6364221,234.187186 25.6841133,236 41.9663671,236 C60.0617495,236 69.1034568,232.368369 69.1034568,232.368369 C69.1034568,232.368369 72.7237301,221.479481 76.3380194,214.222222 L89,187 C54.6283477,188.812814 27.4972419,196.076075 9.40185946,206.964964 L9.40185946,206.964964 Z" id="Path" fill="url(#linearGradient-3)"></path>
                    <path d="M340,0 C340,0 325.529497,18.0380673 271.272587,16.2306816 C235.105301,16.2306816 217.021658,5.41022721 173.61613,3.60880646 C124.784911,3.60880646 90.4241955,19.8394881 79.5728135,41.4803969 C74.1531045,52.3008514 47.0186674,113.614771 47.0186674,113.614771 C47.0186674,113.614771 61.4891708,97.3900548 86.8050742,90.1724418 C121.16579,79.3519874 153.719936,81.1534082 186.274082,86.5636354 C209.783416,90.1724418 224.253919,95.5826691 245.950701,93.7752833 C265.846896,93.7752833 276.692296,88.3650561 283.930538,84.7562497 C294.78192,79.3460224 303.826733,70.3269888 316.484684,50.4934656 C327.336066,37.8715905 338.187448,7.21164796 340,0 L340,0 Z M3.61912135,209.185511 C10.851382,192.954829 21.7087461,165.903693 36.1732674,140.659943 C37.9798371,135.249715 43.4055281,129.839488 48.8312191,126.230682 C66.9208438,110 108.51382,97.3781248 159.145627,100.986931 C195.312912,104.589773 209.783416,108.198579 231.48618,110 C240.530992,110 251.382374,111.801421 260.427187,110 C283.93652,106.391194 291.168781,100.986931 291.168781,100.986931 C291.168781,100.986931 276.698278,138.858522 255.001496,162.294886 C229.67961,191.147443 204.363707,192.948864 155.532488,189.346022 C85.0044865,182.134374 36.1792494,191.147443 9.04481236,209.185511 C5.42569101,210.986931 1.81255168,216.397159 0,220 C0,220 0,216.397159 3.61912135,209.185511 L3.61912135,209.185511 Z" id="Shape" fill="url(#linearGradient-4)"></path>
                </g>
            </g>
        </g>
    </g>
</svg>
