<?xml version="1.0" encoding="UTF-8"?>
<svg width="856px" height="830px" viewBox="0 0 856 830" version="1.1" xmlns="http://www.w3.org/2000/svg" xmlns:xlink="http://www.w3.org/1999/xlink">
    <title>AMERICANAIRLINES</title>
    <defs>
        <path d="M659.5555,1 C670.3635,1 679.1255,9.764 679.1255,20.575 C679.1255,21.731 679.025,22.864 678.833,23.965 L521.3915,631.934 C518.5705,638.453 508.106,652.3145 487.193,652.75 L486.556,652.759 L2,652.838 C338.535,231.2945 507.627,19.5075 509.275,17.477 C516.5705,8.4935 528.951,1.148 541.5525,1 L659.5555,1 Z" id="path-1"></path>
    </defs>
    <g id="AMERICANAIRLINES" stroke="none" stroke-width="1" fill="none" fill-rule="evenodd">
        <g id="Mask-Raw" transform="translate(88.000000, 88.000000)">
            <path d="M659.5555,0.25 L541.5525,0.25 C529.417951,0.392464104 516.653519,7.20156168 508.692801,17.0041958 L504.143997,22.693252 L408.78043,142.119216 L0.441350848,653.588254 L486.556122,653.509 L487.203595,653.499925 C496.850749,653.299046 504.993321,650.296167 511.536706,645.215715 C516.398031,641.441257 520.090369,636.67697 521.967184,632.487618 L522.102948,632.178405 L679.55905,24.1530201 L679.57185,24.0938457 C679.773302,22.9386432 679.8755,21.7624542 679.8755,20.575 C679.8755,9.34991032 670.777837,0.25 659.5555,0.25 Z M541.561308,1.74994828 L659.5555,1.74994828 C669.949327,1.74994828 678.3755,10.1782545 678.3755,20.575 L678.3755,20.9873085 C678.353341,21.8108328 678.282538,22.6275948 678.159826,23.4338938 L678.099,23.806 L520.6795,631.689 L520.703183,631.636141 C518.963128,635.657204 515.375715,640.335962 510.616794,644.03091 C504.32299,648.917581 496.490164,651.80623 487.177385,652.000163 L486.545405,652.009075 L3.558,652.0875 L468.817257,69.3318426 L505.306926,23.640727 L509.555328,18.3259168 L509.857335,17.9496367 C517.549486,8.47771051 529.904809,1.88684959 541.561308,1.74994828 Z" id="BG" fill="#000000" fill-rule="nonzero"></path>
            <mask id="mask-2" fill="white">
                <use xlink:href="#path-1"></use>
            </mask>
            <use id="FG" fill="#FFFFFF" xlink:href="#path-1"></use>
            <g id="Group" mask="url(#mask-2)" fill-rule="nonzero">
                <g transform="translate(322.000000, 332.000000) scale(-1, 1) translate(-322.000000, -332.000000) translate(-46.000000, 1.000000)" id="Path">
                    <path d="M64.6019564,0 L116,78 L24.3525143,78 L1,4.72083544 C0.544923694,2.38528499 11.3060169,0.207090298 13.6284377,0.013898116 L64.6019564,0 Z" fill="#CF0012"></path>
                    <polygon fill="#CF0012" points="183.459161 180 246 273 62.2048986 273 44 180"></polygon>
                    <polygon fill="#CF0012" points="314.055108 374 382 476 101.733471 476 82 374"></polygon>
                    <path d="M437.357988,561 L505,661 L140.31264,659.76252 C138.545345,659.756486 137.012943,658.569797 136.531238,656.883069 L118,561 L437.357988,561 Z" fill="#CF0012"></path>
                    <path d="M154.536049,0 C155.539858,0 156.500848,0.384460995 157.22767,1.06677893 L182.020795,1.33644106 L231.509194,78 L115.141068,78 L64,0 L154.536049,0 Z" fill="#004595"></path>
                    <polygon fill="#004595" points="249.74287 98 312 176 180.711014 176 129 98"></polygon>
                    <polygon fill="#004595" points="329.225477 195 398 273 246.031123 273 194 195"></polygon>
                    <polygon fill="#004595" points="414.480076 293 483 371 310.918079 371 259 293"></polygon>
                    <polygon fill="#004595" points="501.126226 390 570 468 376.136352 468 324 390"></polygon>
                    <polygon fill="#004595" points="586.357591 487 655 565 440.881942 565 389 487"></polygon>
                    <path d="M673.096567,585 L735.000743,655.405531 C737.184314,657.888889 735.556564,661.755452 732.366985,662 L505.523011,661.240577 L455,585 L673.096567,585 Z" fill="#004595"></path>
                </g>
            </g>
        </g>
    </g>
</svg>