<svg>
<mask id="mask0_1128_1070" style="mask-type:alpha" maskUnits="userSpaceOnUse" x="88" y="88" width="680" height="654">
<path d="M747.114 88.4756H629.111C616.977 88.6181 604.212 95.4271 596.251 105.23L591.703 110.919L496.339 230.345L88 741.814L574.115 741.735L574.762 741.726C584.409 741.525 592.552 738.522 599.095 733.441C603.957 729.667 607.649 724.903 609.526 720.713L609.662 720.404L767.118 112.379L767.13 112.319C767.332 111.164 767.434 109.988 767.434 108.801C767.434 97.5755 758.336 88.4756 747.114 88.4756Z" fill="#C1C8CE"/>
</mask>
<g mask="url(#mask0_1128_1070)">
<path d="M748.614 86.9756H630.611C618.476 87.1181 605.712 93.9271 597.751 103.73L593.203 109.419L497.839 228.845L89.4999 740.314L575.615 740.235L576.262 740.226C585.909 740.025 594.052 737.022 600.595 731.941C605.457 728.167 609.149 723.403 611.026 719.213L611.161 718.904L768.618 110.879L768.63 110.819C768.832 109.664 768.934 108.488 768.934 107.301C768.934 96.0755 759.836 86.9756 748.614 86.9756Z" fill="#E4E5E7"/>
<path fill-rule="evenodd" clip-rule="evenodd" d="M508.71 553.821L507.281 554.435L505.778 555.092L502.7 556.45C499.794 557.728 496.885 558.975 493.931 560.017C475.91 566.373 458.019 573.105 440.151 579.9L418.713 588.065C413.352 590.104 407.99 592.137 402.623 594.157C371.453 605.885 340.282 617.609 309.106 629.322C294.677 634.743 279.95 638.767 265.519 644.186C265.133 644.331 264.83 645.36 264.453 645.546L263.863 646.057L260.622 649.061L346.065 667.787L368.119 672.729L392.612 678.208L394.609 678.648L396.628 679.086L401.907 680.221C400.875 681.545 399.655 682.258 398.417 682.813L397.922 683.028L396.691 683.533C396.286 683.702 395.888 683.877 395.503 684.075L395.427 684.108L395.27 684.164C395.219 684.185 395.173 684.21 395.138 684.245C394.861 684.538 394.93 684.708 395.313 684.726C398.671 683.038 402.066 681.437 405.486 679.896L429.175 684.726L431.987 668.844C436.668 666.958 441.345 665.061 445.991 663.093L462.514 656.088C476.287 650.259 490.083 644.484 503.992 639.006L508.168 637.372C527.46 629.872 546.623 622.052 565.768 614.191L584.913 606.326C595.55 601.961 606.193 597.611 616.862 593.326C628.894 588.493 640.977 583.783 653.035 579.006C653.195 577.701 652.518 577.255 651.703 577.034L651.478 576.98L651.25 576.933L650.682 576.834C643.212 575.532 635.843 573.76 628.486 571.938L622.469 570.445C619.125 569.619 615.779 568.806 612.423 568.045L605.245 566.418C595.668 564.24 586.079 561.991 576.613 559.296C574.286 558.634 571.886 558.155 569.485 557.701L567.085 557.25C564.69 556.796 562.316 556.314 560.032 555.647C555.299 554.262 550.522 553.11 545.744 551.984L541.648 551.019C538.919 550.374 536.193 549.718 533.479 549.012C525.586 547.968 518.471 549.913 511.582 552.64L510.622 553.025L509.665 553.419L508.71 553.821Z" fill="#EC1B52"/>
<path fill-rule="evenodd" clip-rule="evenodd" d="M538.674 313.419C529.768 316.061 521.1 319.441 512.663 323.231C506.363 326.063 499.991 329.02 493.677 331.591C480.006 337.159 466.958 343.856 453.89 350.564C446.332 354.443 439.356 359.648 431.917 363.417C422.408 368.233 413.443 373.765 404.683 379.601C387.041 391.353 368.666 402.342 353.286 416.993C337.523 432.011 322.849 448.203 308.19 464.329C301.921 471.225 295.177 477.648 289.039 484.683C281.466 493.365 272.948 501.217 265.122 509.689C255.934 519.634 246.588 529.421 237.257 539.231C227.459 549.53 217.729 559.897 207.933 570.202C198.513 580.109 189.024 589.966 179.805 600.052C172.874 607.635 165.788 615.102 158.586 622.372C145.857 635.221 134.022 648.885 121.331 661.763C111.743 671.493 102.618 681.694 93.095 691.511C84.9483 699.907 77.1562 708.646 69.0586 717.394C70.9526 718.17 72.4011 717.411 73.8423 716.878C82.839 713.552 91.8397 710.234 100.814 706.845C116.528 700.912 132.17 694.791 147.943 689.019C158.124 685.295 168.275 681.524 178.375 677.578C187.325 674.081 196.502 671.069 205.551 667.767C218.782 662.939 232.339 658.779 245.055 652.829C255.297 648.037 260.654 649.079 260.654 649.079C263.14 646.418 265.212 645.705 266.538 645.21C280.973 639.828 295.421 634.48 309.854 629.097C341.038 617.465 372.217 605.822 403.395 594.174C433.816 582.81 464.083 571 494.727 560.269C507.589 555.765 519.59 547.411 534.292 549.342C533.012 548.632 531.288 549.149 529.94 547.681C533.296 544.972 537.499 543.915 541.174 542.745C552.828 539.035 564.223 534.717 575.496 530.05C593.36 522.656 610.829 514.401 627.597 504.757C658.305 487.096 686.282 466.024 709.353 438.862C718.013 428.668 726.398 418.192 732.851 406.516C739.1 395.209 744.124 383.222 749.597 371.494C753.497 363.135 757.241 354.703 761.072 346.312C771.311 323.882 781.529 301.445 791.815 279.037C797.428 266.808 803.2 254.65 808.833 242.429C813.202 232.95 817.453 223.415 821.81 213.93C822.081 213.341 822.269 213.04 821.61 212.731C819.767 212.69 818.282 213.747 816.635 214.319C793.184 222.47 769.625 230.297 746.432 239.202C727.997 246.28 709.314 252.715 690.709 259.345C666.994 267.797 643.232 276.111 619.519 284.568C593.653 293.792 567.813 303.092 541.993 312.446C540.864 312.856 540.221 312.293 539.355 312.148C539.326 312.676 539.398 313.204 538.674 313.419Z" fill="#004595"/>
<path fill-rule="evenodd" clip-rule="evenodd" d="M538.674 313.419C529.768 316.061 521.1 319.441 512.663 323.231C506.363 326.063 499.991 329.02 493.677 331.591C480.006 337.159 466.958 343.856 453.89 350.564C446.332 354.443 439.356 359.648 431.917 363.417C422.408 368.233 413.443 373.765 404.683 379.601C387.041 391.353 368.666 402.342 353.286 416.993C337.523 432.011 322.849 448.203 308.19 464.329C301.921 471.225 295.177 477.648 289.039 484.683C281.466 493.365 272.948 501.217 265.122 509.689C255.934 519.634 246.588 529.421 237.257 539.231C227.459 549.53 217.729 559.897 207.933 570.202C198.513 580.109 189.024 589.966 179.805 600.052C172.874 607.635 165.788 615.102 158.586 622.372C145.857 635.221 134.022 648.885 121.331 661.763C111.743 671.493 102.618 681.694 93.095 691.511C84.9483 699.907 77.1562 708.646 69.0586 717.394C70.9526 718.17 72.4011 717.411 73.8423 716.878C82.839 713.552 91.8397 710.234 100.814 706.845C116.528 700.912 132.17 694.791 147.943 689.019C158.124 685.295 168.275 681.524 178.375 677.578C187.325 674.081 196.502 671.069 205.551 667.767C218.782 662.939 232.339 658.779 245.055 652.829C255.297 648.037 260.654 649.079 260.654 649.079C263.14 646.418 265.212 645.705 266.538 645.21C280.973 639.828 295.421 634.48 309.854 629.097C341.038 617.465 372.217 605.822 403.395 594.174C433.816 582.81 464.083 571 494.727 560.269C507.589 555.765 519.59 547.411 534.292 549.342C533.012 548.632 531.288 549.149 529.94 547.681C533.296 544.972 537.499 543.915 541.174 542.745C552.828 539.035 564.223 534.717 575.496 530.05C593.36 522.656 610.829 514.401 627.597 504.757C658.305 487.096 686.282 466.024 709.353 438.862C718.013 428.668 726.398 418.192 732.851 406.516C739.1 395.209 744.124 383.222 749.597 371.494C753.497 363.135 757.241 354.703 761.072 346.312C771.311 323.882 781.529 301.445 791.815 279.037C797.428 266.808 803.2 254.65 808.833 242.429C813.202 232.95 817.453 223.415 821.81 213.93C822.081 213.341 822.269 213.04 821.61 212.731C819.767 212.69 818.282 213.747 816.635 214.319C793.184 222.47 769.625 230.297 746.432 239.202C727.997 246.28 709.314 252.715 690.709 259.345C666.994 267.797 643.232 276.111 619.519 284.568C593.653 293.792 567.813 303.092 541.993 312.446C540.864 312.856 540.221 312.293 539.355 312.148C539.326 312.676 539.398 313.204 538.674 313.419Z" fill="#1A0184"/>
<mask id="mask1_1128_1070" style="mask-type:alpha" maskUnits="userSpaceOnUse" x="260" y="580" width="394" height="160">
<path fill-rule="evenodd" clip-rule="evenodd" d="M653.428 580.373H260.764V739.913H653.428V580.373Z" fill="white"/>
</mask>
<g mask="url(#mask1_1128_1070)">
<path fill-rule="evenodd" clip-rule="evenodd" d="M366.197 693.942C359.91 696.617 353.357 698.832 346.978 701.391C321.197 711.742 295.35 721.94 269.73 732.675C264.47 734.88 258.721 736.126 253.764 739.319C254.786 740.918 256.151 740.223 257.233 740.223C376.152 740.26 495.07 740.243 613.989 740.331C617.057 740.334 618.655 739.437 619.904 736.683C631.158 711.875 642.488 687.102 653.878 662.356C660.263 648.483 666.831 634.696 673.265 620.845C682.349 601.292 691.392 581.72 700.427 562.143C700.985 560.935 701.322 559.624 701.764 558.373C688.027 563.753 674.262 569.058 660.555 574.501C619.228 590.913 578.24 608.155 536.724 624.112C512.916 633.261 489.419 643.226 465.89 653.081C446.624 661.152 426.894 668.139 408.154 677.446C393.721 681.826 380.04 688.054 366.197 693.942Z" fill="#1A0184"/>
</g>
<path fill-rule="evenodd" clip-rule="evenodd" d="M542.012 312.455C567.717 303.049 594.36 294.822 620.111 285.547C643.719 277.045 667.375 268.684 690.984 260.187C709.507 253.52 728.106 247.05 746.46 239.933C769.549 230.98 793.003 223.11 816.351 214.915C817.99 214.339 819.469 213.276 821.303 213.318C821.809 212.301 823.031 211.428 820.586 210.924C805.289 207.763 790.026 204.432 774.76 201.118C762.328 198.419 749.917 195.621 737.48 192.95C719.349 189.057 701.199 185.255 683.064 181.386C657.425 175.917 586.015 159.223 560.383 153.722C558.318 153.278 556.3 152.616 554.236 152.164C551.012 151.458 548.624 151.474 545.85 154.687C537.775 164.037 528.75 172.539 520.379 181.638C510.462 192.419 500.346 203.003 490.332 213.686C480.502 224.17 470.682 234.662 460.823 245.119C450.779 255.773 455.817 271.969 445.502 282.368C443.914 283.968 442.69 285.937 441.079 288.016C463.923 294.485 516.72 305.831 539.421 312.258C540.625 312.599 540.888 312.867 542.012 312.455Z" fill="#EC1B52"/>
</g>
</svg>
