<svg>
  <defs>
    <style>
      .cls-1 {
        fill: #fff;
      }

      .cls-1, .cls-2, .cls-3 {
        stroke-width: 0px;
      }

      .cls-1, .cls-3 {
        fill-rule: evenodd;
      }

      .cls-2 {
        fill: #212558;
      }

      .cls-3 {
        fill: #000;
      }
    </style>
  </defs>
  <path class="cls-1" d="M124.3,14.4c1.8,0,3.3,1.5,3.3,3.3s0,.4,0,.6l-26.2,101.4c-.5,1.1-2.2,3.4-5.7,3.5h-.1s-80.6,0-80.6,0C70.9,52.8,99.1,17.5,99.3,17.2c1.2-1.5,3.3-2.7,5.4-2.7h19.6Z"/>
  <path class="cls-2" d="M127.1,20l.5-1.8c0-.2,0-.4,0-.6,0-1.1-.5-2.1-1.3-2.6C108.1,35.7,53.9,95.9,15.1,122.8c0,0-.1.2-.2.2h40.6c-1.5-.7-3.1-2-3.7-4.2-.7-2.4.4-4.4,2.1-6.6,1.7-2.2,72-93.7,72-93.7,0,0-66.9,92.6-67.9,94-.1.2-.3.4-.5.6-1.1,1.5-2.7,3.5-2.3,5.1.4,1.6,2.3,2,2.9,2.1,1.7.2,3.6.4,5.4.5,1.5,0,9.2.7,13.2,1,.8,0,1.4.1,1.8.1,1.3.1,7.9.6,14.1,1.1h2.9c3.4,0,5.2-2.3,5.7-3.4-8.7-1-20.5-2.3-21.9-2.5-3.1-.3-4.6-.9-5.1-2.7-.4-1.5,0-3.9,1.1-5.6.9-1.5,3.2-5.5,3.2-5.5,0,0,17.6-29.2,20.1-33.2,2.6-4.1,25.7-44.9,27.6-48.8.2-.4.4-.8.7-1.3Z"/>
  <path class="cls-3" d="M127.4,17.7c0-1.7-1.4-3.1-3.1-3.1h-19.6c-2,0-4.1,1.2-5.2,2.7-.3.3-28.3,35.6-84.2,105.7h80.3s0,0,0,0h.1s0,0,0,0c3.4,0,5.1-2.3,5.5-3.4l26.2-101.3c0-.2,0-.3,0-.5ZM127.6,18.2l-26.2,101.4c-.5,1.1-2.2,3.4-5.7,3.5h-.1s-80.6,0-80.6,0c0,0,0-.1.1-.2C71,52.7,99.1,17.5,99.3,17.2c1.2-1.5,3.3-2.7,5.4-2.7h19.6c1.8,0,3.3,1.5,3.3,3.3s0,.4,0,.6Z"/>
</svg>
