<svg width="144" height="140" viewBox="0 0 144 140" fill="none" xmlns="http://www.w3.org/2000/svg">
<path fill-rule="evenodd" clip-rule="evenodd" d="M125.638 14.619C127.463 14.619 128.942 16.1012 128.942 17.9297C128.942 18.1252 128.925 18.3168 128.893 18.503L102.309 121.328C101.832 122.431 100.065 124.775 96.5342 124.849L96.4267 124.851L14.6089 124.864C71.4332 53.5685 99.9845 17.7491 100.263 17.4057C101.495 15.8864 103.585 14.644 105.713 14.619H125.638Z" fill="url(#paint0_linear_9225_2069)"/>
<path d="M122.49 14.7054L92.0762 124.829H97.2565C98.9276 124.829 101.601 122.907 102.27 121.487C110.848 88.3995 128.171 21.5568 128.84 18.8831C129.508 16.2093 127.67 14.9839 126.667 14.7054H122.49Z" fill="#BE210C"/>
<path d="M114.468 14.7054H122.489L92.0758 124.829H84.0547L114.468 14.7054Z" fill="#D9D9D9"/>
<path d="M106.447 14.7054H114.468L84.0548 124.829H76.0337L106.447 14.7054Z" fill="#2C6641"/>
<defs>
<linearGradient id="paint0_linear_9225_2069" x1="106.614" y1="11.5304" x2="29.1603" y2="126.416" gradientUnits="userSpaceOnUse">
<stop offset="0.208511" stop-color="#0171CF"/>
<stop offset="0.423083" stop-color="#0171CF"/>
<stop offset="1" stop-color="#015194"/>
</linearGradient>
</defs>
</svg>
