<svg>
	<g transform="translate(88 88)"><path d="M659.6.2h-118c-12.1.1-24.9 7-32.9 16.8l-4.5 5.7-95.4 119.4L.4 653.6l486.1-.1h.6c9.6-.2 17.8-3.2 24.3-8.3 4.9-3.8 8.6-8.5 10.4-12.7l.1-.3 157.5-608v-.1c.2-1.2.3-2.3.3-3.5.2-11.3-8.9-20.4-20.1-20.4zm-118 1.5h118c10.4 0 18.8 8.4 18.8 18.8v.5c0 .8-.1 1.6-.2 2.4l-.1.4-157.4 607.9v-.1c-1.7 4-5.3 8.7-10.1 12.4-6.3 4.9-14.1 7.8-23.4 8h-.6l-483 .1L468.8 69.3l36.5-45.7 4.2-5.3.3-.4c7.7-9.4 20.1-16 31.8-16.2z" fill="#c1c8ce"/><path d="M657.6 2c10.8 0 19.6 8.8 19.6 19.6 0 1.2-.1 2.3-.3 3.4L519.5 633c-2.8 6.5-13.3 20.4-34.2 20.8H0C336.5 232.3 505.6 20.5 507.3 18.5c7.3-9 19.7-16.3 32.3-16.5h118z" fill-rule="evenodd" clip-rule="evenodd" fill="#c1c8ce"/><defs><filter id="a" filterUnits="userSpaceOnUse" x="134" y="97.2" width="522" height="556"><feColorMatrix values="1 0 0 0 0 0 1 0 0 0 0 0 1 0 0 0 0 0 1 0"/></filter></defs><mask maskUnits="userSpaceOnUse" x="134" y="97.2" width="522" height="556" id="b"><g filter="url(#a)"><path d="M657.6 2c10.8 0 19.6 8.8 19.6 19.6 0 1.2-.1 2.3-.3 3.4L519.5 633c-2.8 6.5-13.3 20.4-34.2 20.8H0C336.5 232.3 505.6 20.5 507.3 18.5c7.3-9 19.7-16.3 32.3-16.5h118z" fill-rule="evenodd" clip-rule="evenodd" fill="#fff"/></g></mask><path d="M539.6 168c-12.7 8.4-25.4 17-38 25.7l-29.7 20.6c-9.9 6.9-19.8 13.8-29.6 20.8-14.4 10.3-28.6 21-42.6 31.8-17.6 13.6-35.3 27.1-52.4 41.3-12.1 10-23.5 21-35.2 31.7L297.7 353c-7.2 6.6-14.4 13.3-21.4 20.2-6.8 6.8-13.4 13.8-20 20.9l-24.9 27.1c-5.9 6.5-11.8 13-17.4 19.7-7.7 9.1-14.7 18.8-22.1 28.2l-5.6 6.9c-19.3 23-34.6 48.6-50.5 74-4.7 7.5.2 16 9.1 16.3 10.3.3 17.9-5.6 25.5-11.4 2.4-1.9 5.1-3.4 7.9-5.3 2.6 10.2-10.2 23.7-26.5 28.6 3.4 4.2 6.3 8.6 10 12.2 8.7 8.5 17.7 16.7 26.6 24.9 3.1 2.9 6.6 2.9 10.4 1.5 17.9-6.3 32.5-16.9 44.8-31.5 13-15.4 22-32.9 30.9-50.6 13.9-27.9 24.7-57.1 34-86.9 2.2-7.1 4.1-14.4 6.1-21.6-5.7 2.1-10.9 4.5-16.4 6.1-4.9 1.5-7.3-1.1-5.8-6.1 3.4-10.9 10.8-19.1 19.2-26.3 3.8-3.2 8.4-5.6 12.9-7.7 2.6-1.2 4.2-2.6 4.8-5.5l3.3-16.4 3.5-17.1c.2-.7.4-1.5.8-3.1 2.7 2.8 5.1 4.6 6.6 6.9 6.7 10.5 10 22.3 11.4 34.4 1.2 10.5.4 21.1.4 31.7 0 2.6-.3 5.2-.5 8.8 15.2-11.5 19.3-28.6 25.9-44.3l1.3.2c1.6 8.2 3.7 16.2 4.6 24.5l1.2 11.4c.9 9.5 1.6 19 1.4 28.5-.7 34-15.6 61.5-40 84.4-12.8 12-27.5 21-43 28.8-4 2-7.5 4.8-12.2 7.9 8.3 3.6 15.1 2.2 21.7.6 10-2.5 20-5.6 30-8.1 15.8-4 22.4-1.5 31.2 11.1l1 1.4c15.3 22.5 30.9 44.8 46.3 67.3 1.6 2.3 2.9 4.7 4.6 7.4l116.4-.4c.9 0 1.7-.3 2.4-.8l-.1.4c.6-1.8 1.4-3.6 2.2-5.3l1-5.3-1.9-.3c-12.9-1.9-26-1.7-37.9-7.1l.2-2 42.6-5.9 9.9-50.9c-9.3-.8-18.5-1.6-27.7-2.5-11-1.1-22-2.6-33-4.1-2.3-.3-4.5-.9-6.7-1.6-.9-.3-1.7-1.2-2.5-1.9.9-.8 1.7-2.1 2.7-2.3l8.8-1.8c4.4-.9 8.8-1.7 13.3-2.1 16.4-1.7 32.8-3.2 49.2-4.6l9.5-48.8-17.5-1c-7-.4-14-.9-20.9-1.5-11.6-1-23.2-2.8-34.7-4.5-2.5-.4-4.7-2-6.9-3.9 27.7-7.4 55.8-9 84.2-10.4l12.3-63.4c-6.3-2.3-12.6-4.8-18.7-7.8-21.5-10.3-41.6-22.4-58.3-39.7-3.5-3.6-6.7-7.6-9.4-11.9-3.3-5.2-1-9.2 5-9.4 5.2-.2 10.4-.1 15.6 0 21.9.6 42-5.6 60.1-17.4 5.8-3.7 11-9.3 13.9-17.4l-11.8-.9c-3.8-.3-7.6-.5-11.4-.7-18.9-.8-37.8-1.3-56.7-2-12-.5-23.9-1.2-35.9-1.6-5.6-.2-11.2.2-16.9-.1-1.8-.1-4.6-1.3-4.9-2.5-.4-1.6.5-4.5 1.9-5.7l6.7-5.5c4.5-3.6 9.1-7.2 14-10.1 21.5-13 43.3-25.5 64.9-38.3 26.9-15.9 54.9-29.6 83.1-42.8l7.5-39c-24.3 10.2-48.4 20.9-72.3 32-48.4 22.6-94.8 48.7-139.8 77.5l-11.6 7.4c-3.6 2.2-7.5 4-13.3 3.1 2.7-2.8 4.4-5.1 6.6-6.6 15.6-10.8 31.2-21.5 46.9-32 31.8-21.3 65.4-39.7 98.5-58.7 30.8-17.7 61.1-36.2 91.2-55.1l7.6-39c-39.8 22.5-78.7 46.1-116.6 71.2z" mask="url(#b)" fill="#7b1c3e"/></g></svg>
