<svg>
  <style>
    <![CDATA[.B{fill:#fff}.C{fill:#b1d27c}.D{fill:#01426a}]]></style><defs><path d="M131.101 2.884a59.91 59.91 0 0 1 4.221 6.373c2.899 4.477 5.543 9.161 8.744 13.415a26.09 26.09 0 0 0 16.693 10.021c2.074.264 3.788 1.745 4.348 3.76 1.498 4.524 3.265 5.433 8.044 4.397 7.311-1.593 14.575-3.505 21.933-4.78a64.43 64.43 0 0 1 25.772.621 19.12 19.12 0 0 1 5.416 2.231c4.109 2.517 8.235 5.098 12.105 7.966 2.815 2.275 5.51 4.695 8.076 7.249a36.44 36.44 0 0 0 4.953 4.62 16.7 16.7 0 0 0 6.483 2.215c2.644.335 3.552-1.179 3.042-3.855a23.67 23.67 0 0 1-.175-3.362 15 15 0 0 1 3.775 1.052c1.075.633 2.112 1.334 3.143 2.043l1.03.71c1.374.944 2.755 1.868 4.221 2.633 2.212 1.094 4.592 1.81 7.04 2.119a3.95 3.95 0 0 0 3.329-1.593c.405-1.245.186-2.609-.589-3.664a47.36 47.36 0 0 0-6.371-5.783c-1.784-1.387-3.854-2.39-5.75-3.633a17.25 17.25 0 0 1-1.911-1.689l.239-.669 6.547.526c4.528.479 8.904 1.912 12.838 4.206 2.341 1.37 4.779 2.581 7.12 3.983 3.329 2.008 4.619 4.684 3.106 8.237a135.64 135.64 0 0 1-7.582 15.072c-2.373 4.094-5.384 7.822-7.964 11.774-4.89 7.44-6.594 15.821-6.69 24.488v46.075l-.16 9.511-1.831 6.755a26.55 26.55 0 0 1-9.86 10.053 44.13 44.13 0 0 0-14.956 14.243c-1.477 2.304-4.153 3.545-6.865 3.186-3.631-.191-7.231-.892-10.863-.988a45.15 45.15 0 0 0-10.162.669c-5.32 1.099-6.945 4.047-5.75 9.304.319 1.386.733 2.757 1.131 4.111 1.29 4.333.143 7.297-3.775 9.559-3.916 2.037-8.381 2.768-12.743 2.087-5.812-.623-11.475-2.24-16.74-4.78l-23.462-11.328c-2.956-1.37-4.855-4.325-4.874-7.584-.105-3.08-.402-6.15-.892-9.193-.858-5.145-5.283-8.933-10.497-8.986a104.42 104.42 0 0 0-11.388 0c-8.147.471-16.187-.453-24.222-1.476l-3.652-.467-18.987-2.151c-3.759-.398-4.476-1.338-3.679-4.955a9.16 9.16 0 0 1 5.4-6.293c4.779-2.39 9.796-2.119 14.893-1.306 12.693 1.983 25.555 2.672 38.387 2.055l51.623-2.517a30.91 30.91 0 0 0 6.562-1.593c1.226-.35 2.373-.988 3.6-1.338 1.752-.51 2.915.255 3.011 2.024.05.965.136 1.931.23 2.898l.143 1.451c.368 3.774.636 7.552-.883 11.28a1.96 1.96 0 0 0 .637 1.848 2.28 2.28 0 0 0 2.023-.207 8.38 8.38 0 0 0 3.393-6.596l.093-3.261.464-11.397c.319-5.162 1.513-10.372 1.099-15.454a132.92 132.92 0 0 0-3.6-19.214 9.83 9.83 0 0 0-7.407-7.217c-3.759-1.115-7.439-2.549-11.15-3.935a17.81 17.81 0 0 1-9.987-8.763c-2.596-5.082-4.906-10.308-7.502-15.39-1.238-2.396-2.694-4.674-4.348-6.803-.87-1.452-2.724-1.97-4.221-1.179-1.593.956-1.386 2.533-.972 4.015.605 2.246 1.386 4.445 1.959 6.691.924 3.712-.908 6.054-4.778 6.102-1.134.036-2.267-.099-3.361-.398-6.116-1.928-12.456-3.41-18.269-6.023a34.72 34.72 0 0 0-26.266-1.593c-4.938 1.636-9.934 3.123-14.988 4.461-5.192 1.354-9.557-.67-13.3-4.063-1.806-1.582-2.517-4.077-1.816-6.373.828-2.964 2.007-5.815 2.963-8.731.828-2.533.318-3.186-2.342-3.059-5.049.207-6.96 1.944-8.25 6.66-.781 2.76-1.849 5.429-3.186 7.966-3.536 6.851-6.482 13.861-7.263 21.636a8.7 8.7 0 0 1-5.001 6.628l-15.928 8.699c-4.23 2.578-6.487 7.453-5.718 12.347.373 1.769.612 3.564.717 5.369l-.128 19.118c-.096 4.509-.382 9.018-.557 13.542-.005.599.054 1.197.175 1.784.446 2.438 1.927 3.186 4.078 1.928a14.35 14.35 0 0 0 2.867-2.517c.892-.908 1.593-2.008 2.548-2.868 2.644-2.485 5.176-2.246 7.279.717 1.778 2.753 2.412 6.091 1.768 9.304-.701 5.984-2.363 11.816-4.922 17.27-.955 2.113-1.692 4.318-2.198 6.58-.954 3.78.507 7.758 3.679 10.021 4.132 3.21 8.858 5.572 13.906 6.946 10.242 3.186 20.706 5.656 31.49 4.78 5.273-.43 10.465-1.593 15.706-2.39.825-.143 1.664-.191 2.5-.143 4.779.382 7.486 4.381 5.32 8.603a23.26 23.26 0 0 1-6.037 7.456 32.93 32.93 0 0 0-11.405 15.932c-.239.701-.573 1.386-.86 2.087-2.246 5.497-6.944 7.297-12.058 4.126a132.84 132.84 0 0 1-14.59-10.371c-9.955-8.253-19.639-16.824-29.435-25.268l-7.136-6.373c-13.3-11.806-18.397-26.686-17.234-44.132 1.354-20.361 2.58-40.738 2.023-61.163-.128-4.637-.86-9.273-1.306-13.909a4.88 4.88 0 0 0-.112-.67c-1.226-4.891-4.11-5.847-7.693-2.262a89.93 89.93 0 0 0-6.371 7.966c-1.428 1.946-2.953 3.818-4.571 5.608-1.593 1.593-3.186 1.274-4.014-.877a14.34 14.34 0 0 1-.924-4.381c-.475-9.1.931-18.035 2.31-26.983l.302-1.965a71.71 71.71 0 0 1 8.346-24.854c1.386-2.426 2.985-4.724 4.779-6.867a10.88 10.88 0 0 1 14.845-2.597c2.596 1.514 4.985 3.41 7.47 5.114 4.348 2.995 6.897 2.421 9.27-2.263.88-1.906 1.631-3.87 2.246-5.878.309-1.443 1.568-2.484 3.042-2.517 2.931-.319 5.829-.924 8.76-1.354 5.358-.787 10.011-3.22 14.615-5.804l1.01-.569c4.364-2.501 8.888-4.668 14.112-4.334 2.622.257 5.227.656 7.805 1.195 1.927.335 3.807 1.052 5.75 1.195 5.001.367 8.267-1.593 9.557-6.468.654-2.394 1.159-4.83 1.643-7.271l.412-2.094c.413-2.093.837-4.184 1.353-6.248a37.09 37.09 0 0 1 3.186-8.842c2.246-4.11 6.753-4.413 9.779-.797zm92.893 126.389c-1.068.066-2.049.611-2.668 1.484a3.54 3.54 0 0 0-.518 3.008l.688 3.708.433 2.225c.721 3.708 1.411 7.422 1.682 11.162.733 10.308.557 20.616-2.835 30.59a2.39 2.39 0 0 0 1.593 3.266c5.129 2.071 8.888-.08 9.557-5.433v-.685l1.099-16.856-.064-.08a89.77 89.77 0 0 0-.956-13.909c-.732-3.672-1.957-7.248-3.217-10.818l-.445-1.26-1.722-5.05c-.446-1.402-1.322-1.593-2.628-1.354zM84.416 45.2c-2.977 2.035-6.146 3.774-9.461 5.193-6.94 2.625-14.263 4.094-21.678 4.35a4 4 0 0 0-3.966 3.855c-.271 2.087 1.035 3.043 2.819 3.441 3.166.711 6.333 1.316 8.177 1.701l.163.034.461-.015c12.203-.452 21.924-4.181 31.21-9.335a5.6 5.6 0 0 0 1.226-.988c1.895-1.896 1.8-3.792-.414-5.274-1.752-1.179-3.695-2.055-5.479-3.186a2.5 2.5 0 0 0-3.058.223zm133.732.669c-1.784.797-3.393 2.215-5.24 2.549-4.078.767-8.212 1.193-12.36 1.274-8.314 0-16.629-.271-24.959-.414-2.995 0-3.918.86-3.823 3.919-.004 1.273.246 2.535.733 3.712a3.57 3.57 0 0 0 2.246 1.88c5.356.672 10.682 1.144 13.5 1.417l.163.016.431-.003c15.575-.14 21.592-1.792 30.091-7.691 1.193-.783 2.243-1.763 3.106-2.9 1.211-1.689.176-3.298-1.051-4.365-.446-.382-1.943.207-2.836.605z" id="A"/><path d="M118.011.667c7.008.653 12.615 3.282 16.581 9.209s7.789 11.487 11.946 17.015a39.07 39.07 0 0 0 6.514 6.246 3.57 3.57 0 0 0 3.09.398c.493-.207.605-1.864.493-2.82-.287-2.374-.892-4.78-1.178-7.106a11.15 11.15 0 0 1 .159-3.999c.653-2.788 3.01-3.936 5.32-2.326 2.338 1.649 4.443 3.605 6.26 5.815 3.313 3.999 6.276 8.3 9.557 12.379 5.877 7.397 13.815 12.886 22.809 15.773 1.426.209 2.875.209 4.301 0a13.08 13.08 0 0 0-.86-4.206 47.8 47.8 0 0 1-6.371-14.578 17.85 17.85 0 0 1-.398-3.791c0-3.027 1.959-4.509 4.779-3.346a20.22 20.22 0 0 1 5.702 3.569c7.486 6.708 12.01 15.422 15.928 24.44a102.18 102.18 0 0 1 8.538 33.919 33.83 33.83 0 0 1-.446 8.316c-1.593 8.253-6.706 11.551-14.924 9.113-5.276-1.612-10.376-3.747-15.228-6.373-5.801-3.078-11.521-6.334-17.234-9.606l-3.808-2.182-7.628-4.335c-15.291-8.588-31.856-11.71-49.234-10.897-10.688.494-21.376 1.147-31.665 4.317-4.023 1.286-7.956 2.841-11.771 4.652a19.12 19.12 0 0 0-8.538 7.839c-1.31 2.112-2.969 3.987-4.906 5.544-2.421 1.992-3.95 1.322-4.523-1.721-.435-2.06-.676-4.156-.717-6.261 0-8.157-5.686-12.172-11.85-12.666-7.232-.59-14.543-.43-21.806-.319-3.695 0-7.375.717-11.15 1.115a103.09 103.09 0 0 1-10.64 0C.907 73.365-.893 70.608.7 66.769c1.384-3.405 3.268-6.584 5.591-9.432 8.734-10.178 18.77-19.162 29.849-26.718 4.668-3.291 9.52-6.333 14.384-9.356l2.432-1.511 6.057-3.806h.127l-.016.096c8.602-4.583 17.588-8.404 26.855-11.423C96.3 1.239 107.178-.103 118.011.667z" id="B"/><path d="M78.372.211c1.589.025 3.128.555 4.396 1.513a122.78 122.78 0 0 1 10.64 9.48c4.062 4.222 4.157 9.75 3.536 15.072-.191 1.593-2.421 3.186-4.126 4.047-10.019 4.732-18.588 7.297-30.263 6.644L18.371 33.11c-5.192-.494-10.353-1.402-15.53-2.183-2.612-.398-3.185-1.704-1.322-3.616a20.49 20.49 0 0 1 4.779-3.68A58.48 58.48 0 0 0 20.155 13.53c3.419-3.394 7.775-5.12 12.182-6.759l1.613-.599.644-.241.964-.367A87.88 87.88 0 0 1 61.345.673C67 .306 72.702.195 78.372.211z" id="C"/><path d="M37.414 7.651l12.742 14.211a33.78 33.78 0 0 0 23.398 11.041c1.147.08 2.612-.112 2.756 1.593s-1.131 2.199-2.405 2.517a31.45 31.45 0 0 1-21.232-2.517 46.91 46.91 0 0 1-20.707-18.672c-4.428-7.313-6.371-8.062-15.036-6.644-4.189.685-8.394 1.242-12.615 1.593-1.366.088-2.697-.452-3.616-1.466-.924-1.593.414-3.186 1.895-4.079C6.832 2.473 11.705 1.692 16.58.96c1.704-.271 3.504-.382 5.336-.558 6.012-.123 11.738 2.556 15.498 7.249z" id="D"/><path d="M11.325.244l6.18 11.63 5.543 12.299c2.837 6.786 4.117 13.961 5.343 21.14l.198 1.164.4 2.327c.112.573.335 1.131.494 1.705l.398 4.524-2.214-2.405c-.045-.217-.12-.426-.223-.621L6.323 23.329.175 13.467 11.325.244z" id="E"/><path d="M35.225 1.81c5.193 1.848 10.577 3.186 15.928 4.78 1.306.382 2.724.813 2.405 2.437-.29 1.477-1.553 1.506-2.81 1.416l-.188-.014-.187-.015-3.409-.239c-8.384-.29-16.31 1.788-24.174 4.138l-.983.295-1.473.446-2.455.745c-2.979.892-5.877 1.976-8.888 2.741-5.495 1.386-8.139-1.243-8.489-6.66-.191-2.932 2.15-4.35 4.603-5.194 4.301-1.466 8.649-2.756 12.965-4.127.94-.303 1.911-.494 2.82-.86 4.616-1.803 9.748-1.763 14.335.112z" id="F"/><path d="M24.369 2.937c.62 1.425 1.162 2.882 1.625 4.365-.642 4.262-2.545 8.235-5.464 11.407-3.446 3.95-7.78 7.023-12.647 8.97-.494.191-.988.382-1.497.526-4.126 1.083-6.499-.574-6.371-4.78.022-5.057 2.278-9.846 6.164-13.081 4.062-3.186 8.442-6.118 12.742-9.001C21.725-.52 22.92-.09 24.369 2.937z" id="G"/><path d="M26.932.57a3.6 3.6 0 0 1 2.326 2.247 3.33 3.33 0 0 1-1.673 2.74c-2.467.925-5.016 1.613-7.613 2.056-2.947.541-5.91.765-9.541 1.195L2.658 7.214C1.75 6.959 1.16 5.621.412 4.76c.94-.605 1.832-1.593 2.851-1.768C9.539 2.036 15.846 1.223 22.154.459a13.36 13.36 0 0 1 4.778.111z" id="H"/><path d="M177.664 86.173l1.072 3.199.372 1.063.939 2.658c1.183 3.367 2.311 6.745 3.001 10.207.674 4.605.988 9.255.94 13.909l-1.019 16.935v.686c-.653 5.353-4.412 7.504-9.557 5.433a2.39 2.39 0 0 1-1.593-3.266c3.076-9.044 3.507-18.363 3.014-27.707l-.047-.837-.025-.418-.052-.814-.056-.814c-.242-3.352-.821-6.682-1.458-10.007l-.214-1.108-.453-2.326-.678-3.655c-.291-1.03-.101-2.136.518-3.009s1.6-1.419 2.668-1.484c1.306-.255 2.182 0 2.628 1.354zM38.484.443c.549.348 1.113.672 1.682.988l1.284.705c.856.47 1.705.95 2.513 1.494 2.214 1.482 2.31 3.378.414 5.274-.36.385-.773.718-1.226.988l-.601.331-.603.328-.604.323-1.518.789-.61.307-.612.303-.614.298-.617.293c-7.724 3.634-16.007 6.086-25.932 6.379l-1.023-.211-3.024-.612-1.525-.317-.903-.193-.915-.2-.46-.103-.449-.102a7.05 7.05 0 0 1-.374-.094l-.181-.054C1.094 16.89.079 15.928.32 14.065a4 4 0 0 1 3.966-3.855c7.415-.256 14.738-1.725 21.678-4.35A55.39 55.39 0 0 0 35.426.666a2.5 2.5 0 0 1 3.058-.223zM172.042.73l.128.115.064.059.125.12.062.062.121.126.058.063.114.128.109.132c.801.997 1.208 2.256.272 3.563-.863 1.136-1.913 2.117-3.106 2.9l-.425.291-.421.284-.417.278-.207.136-.412.267-.41.26-.407.254-.203.125-.404.244-.402.237-.401.231-.4.225-.998.535-.4.203-.2.1-.401.194-.602.281-.404.18c-.742.324-1.494.62-2.266.89l-.423.145c-1.77.59-3.651 1.046-5.753 1.392l-.509.081c-.77.118-1.57.222-2.405.314l-.562.059-.572.056-.584.052-.595.048-.302.023-.613.043-.76.047-1.576.08-.818.034-1.698.053-.881.02-.449.009-.915.014-.939.011-.478.004-4.343-.416-1.828-.181-1.707-.176-1.267-.136-1.296-.144-1.317-.153-1.062-.128-.799-.1a3.57 3.57 0 0 1-2.198-1.88c-.487-1.177-.736-2.439-.733-3.712l-.006-.237c-.035-2.52.696-3.49 2.85-3.657l.203-.013.105-.005.215-.007.224-.003.232.002 4.684.097 6.242.152 14.033.166c4.148-.082 8.283-.508 12.36-1.274.99-.179 1.911-.67 2.827-1.208l.917-.545c.491-.289.986-.567 1.496-.795l.242-.106.262-.11.276-.11.189-.071.176-.062.176-.059.174-.053c.577-.169 1.105-.237 1.341-.036z" id="I"/><path d="M13.556.196L34.884 2.06a6.29 6.29 0 0 0 .494.414h0l11.357 2.884.414-.096 27.81 11.551a743.03 743.03 0 0 1 101.207 54.248h0l18.461 13.224-8.235 31.864-17.155-17.302h-.398a116.48 116.48 0 0 0-37.75-22.305l-6.451-2.661c-7.506-11.767-18.269-21.099-30.98-26.861-19.805-8.648-40.202-15.868-61.037-21.604h0l-.908.191-12.838-4.047L.097 16.909 13.556.196z" id="J"/><path d="M11.169.46l18.779 4.636 12.838 4.063.908-.207a455.01 455.01 0 0 1 61.021 21.604 72.02 72.02 0 0 1 30.964 26.83l6.451 2.661a116.79 116.79 0 0 1 37.606 22.177h0l.35.112h.191l17.155 17.334-4.651 17.971a102.46 102.46 0 0 0-16.422-14.992 8.83 8.83 0 0 1-.956-.94h0-.493l-16.804-12.968c-8.219-6.421-15.148-13.829-18.779-23.803a16.6 16.6 0 0 0-6.706-7.966h0l-.956-.414-21.025-5.449c-3.194-.901-6.315-2.046-9.334-3.425-3.138-1.498-3.409-3.76-1.051-6.277 2.994-3.138 2.262-5.863-2.087-6.644-5.336-.956-10.784-1.386-16.167-2.151-2.758-.391-5.524-.702-8.292-1.004l-1.845-.201c-5.536-.605-11.072-1.239-16.559-2.475-5.16-1.147-10.815-.271-16.231-.096-3.472.128-6.913.653-10.369.988h0l-.892.175c-1.593-.096-3.185 0-4.778-.096-3.902-.239-5.83-1.912-7.088-5.911h0v-.749l.335-1.466c1.418-2.709 2.915-5.385 4.237-8.142.446-.792.533-1.737.239-2.596-.685-.654-1.624-.969-2.564-.861-1.943.228-3.87.584-5.766 1.068l-6.067 1.406-2.998.718-3.009.712L11.169.46z" id="K"/><path d="M.241 1.222C2.726.792 4.653.012 6.453.219h0L7.86.382c8.915 1.038 17.84 2.2 26.435 5.015 5.845 1.912 10.481 5.751 14.909 9.734 5.16 4.621 9.971 9.687 14.94 14.466h0l.382.128c2.854 3.806 4.168 8.224 5.419 12.677l.296 1.055.099.352c1.418 5.05 4.89 8.491 8.952 11.471h0l-6.371 24.504-16.103-20.33-.43-.924c-4.205-6.516-8.123-13.255-12.743-19.469-8.399-11.051-18.847-20.382-30.773-27.483-3.345-2.087-6.53-4.605-9.716-7.026-1.064-1.026-2.039-2.14-2.915-3.33z" id="L"/><path d="M196.92 0c10.816 0 19.585 8.771 19.585 19.59a19.74 19.74 0 0 1-.293 3.393l-.055.3-.059.294v.004h.037l-34.986 135.246-18.445-13.048v-.159A743 743 0 0 0 61.464 91.37c-5.166-2.31-10.403-4.467-15.652-6.599l-4.415-1.789-5.811-2.366-1.932-.797-.414.096-11.373-2.884c-.129-.097-.254-.199-.374-.306l-.12-.109L.046 74.753l5.176-6.484L39.151 25.68l7.373-9.19C53.825 7.499 66.215.148 78.826.002L79.209 0H196.92z" id="M"/><path d="M96.295.268l3.185 7.265v.446l5.113 10.069 4.46 7.871a182.97 182.97 0 0 0 9.286 14.02l.749 1.036a3.85 3.85 0 0 1 0 .43l12.738 16.174 25.267 32.514 4.831 6.637.951 1.329 1.242 1.689 7.462 10.752 2.961 4.32 2.965 4.315 1.489 2.154H.214l23.879-30.203a11.35 11.35 0 0 1 1.17-1.693l.185-.214a6.14 6.14 0 0 0 .636-.835l19.202-24.064 17.986-22.749-.012.223 1.831-2.294 8.076-10.197 8.48-10.675 5.982-7.615 6.008-7.455L96.055.554l.239-.287z" id="N"/><path d="M15.687.021l6.148 9.862L42.956 38.56c.103.196.178.405.223.621h0l2.198 2.406.366.956c3.393 14.227 10.098 27.085 18.062 39.241a70.95 70.95 0 0 0 14.813 16.904c4.264 3.269 9.137 5.652 14.335 7.01 3.377.712 6.28 2.85 7.964 5.863 4.284 8.683 11.627 14.354 19.114 19.915a22.79 22.79 0 0 1 1.338 1.115h0l1.226 1.115.589.51.509.462.335.892c.104.33.237.65.398.956l2.629 3.919H82.888l-14.877-21.54-1.21-1.721c-1.895-2.725-3.823-5.369-5.782-7.966C48.611 92.792 35.756 76.733 23.014 60.53a3.86 3.86 0 0 0 0-.43c-.255-.334-.494-.685-.749-1.035-3.313-4.556-6.408-9.23-9.286-14.02-1.545-2.597-3.026-5.21-4.46-7.871a204.64 204.64 0 0 1-4.094-8.062h0l-1.019-2.008v-.446L.221 19.394 15.687.021z" id="O"/><path d="M.47.462a191.59 191.59 0 0 0 9.286 14.02C6.443 9.948 3.348 5.274.47.462z" id="P"/><path d="M.491.203l14.877 21.54-2.137-3.077L.491.203z" id="Q"/><path d="M.101.075l6.849 5.21a4.15 4.15 0 0 1 .478.446h0-3.966L.834 1.812C.679 1.541.545 1.259.436.967h0L.101.075z" id="R"/><path d="M334.919.936c.299.865.212 1.816-.239 2.612l-2.514 4.899-1.295 2.43-.427.812-.335 1.466v.701l.05.154.213.608.112.29c1.262 3.182 3.161 4.585 6.562 4.832l.152.01 3.716.111 1.062.001.892-.175 2.59-.287 1.294-.151 6.485-.55 3.062-.162 2.873-.186c3.389-.204 6.768-.294 9.965.371l.33.072c4.68 1.046 9.396 1.659 14.117 2.193l1.573.176 3.148.346 7.858.966 4.763.602 2.864.336c2.863.339 5.723.699 8.557 1.196 4.073.734 4.964 3.157 2.583 6.092l-.157.188c-.081.095-.164.189-.251.285l-.089.095c-2.346 2.473-2.14 4.774.943 6.212l.109.05c3.009 1.394 6.125 2.545 9.318 3.442 4.07 1.134 8.161 2.186 12.258 3.227l3.513.891 3.514.895 1.756.452.956.398.186.115c2.962 1.86 5.267 4.606 6.584 7.851 3.091 8.488 8.57 15.153 15.2 20.878l.499.428.503.424.508.421.255.21.642.519.648.514.261.205.262.204 16.804 13.032.143.005c.096.002.191 0 .287-.005a10.59 10.59 0 0 0 .956.94c5.864 4.284 11.256 9.18 16.084 14.603l.401.453-10.847 42.22-.377-.281-.188-.142-.372-.287c-3.643-2.836-6.721-6.223-7.998-10.761l-.637-2.272-.162-.566-.247-.848-.084-.282-.171-.563-.175-.561c-.975-3.079-2.183-6.062-4.158-8.749l-.182-.244-.382-.128-.827-.818-3.289-3.271c-3.554-3.537-7.098-7.04-10.825-10.377l-.701-.627-.47-.416-.472-.414-.474-.411-.477-.408-.24-.203-.481-.402-.242-.2-.486-.396c-3.257-2.624-6.763-4.915-10.865-6.256-6.876-2.252-13.963-3.446-21.088-4.365l-1.125-.143-1.126-.139-1.689-.203-2.815-.328c-.873-.101-1.775.032-2.757.243l-.372.083-.573.134-.795.188-.412.095c-.417.093-.851.183-1.302.261a26.23 26.23 0 0 0 2.915 3.33l.477.364 2.385 1.827c2.229 1.702 4.479 3.374 6.854 4.835 11.926 7.1 22.374 16.431 30.774 27.483 2.656 3.585 5.083 7.345 7.473 11.136l2.383 3.796 2.4 3.785.486.753.43.924 16.151 20.361-84.509 326.323-7.949 29.629c-2.852 6.59-13.508 20.677-34.862 20.841H104.614a4.16 4.16 0 0 0-.478-.447 160.63 160.63 0 0 0-3.413-2.623l-1.721-1.291-.859-.646-.856-.649-.122-.117a6.41 6.41 0 0 0-.257-.221l-.131-.108-.589-.51-1.226-1.115a22.4 22.4 0 0 0-1.338-1.115l-1.284-.952-.768-.573-.764-.575-.507-.385-.505-.387-.503-.389-.501-.391-.622-.492-.618-.495-.246-.2-.489-.401-.243-.202-.484-.405-.48-.409-1.183-1.038-.465-.422-.231-.213-.458-.429c-3.496-3.306-6.556-7.017-8.762-11.556-1.683-3.013-4.587-5.151-7.964-5.863a40.31 40.31 0 0 1-14.335-7.01c-5.849-4.802-10.894-10.509-14.94-16.904l-.274-.422-.545-.844-.809-1.27-.534-.849-.529-.851-.525-.853c-6.526-10.677-11.889-21.854-14.814-34.215l-.083-.214-.16-.435-.123-.323-.048-.497-.121-1.317-.078-.883-.077-.9-.076-.927-.072-.245-.066-.209-.133-.416a7.6 7.6 0 0 1-.224-.835l-.163-.944-.565-3.305-.245-1.417-.166-.943-.169-.943c-1.054-5.812-2.331-11.574-4.633-17.079-1.004-2.416-2.088-4.806-3.188-7.19l-1.417-3.065-.47-1.022-.468-1.023-6.212-11.614 21.137-26.622 7.147-8.841 5.388-6.613 8.506-10.802 89.136-111.751 10.558-13.204L314.514 3.995l12.074-2.852a44.8 44.8 0 0 1 5.766-1.051c.938-.113 1.877.197 2.564.845zM250.42 253.872a37.09 37.09 0 0 0-3.186 8.842c-.502 2.008-.917 4.039-1.319 6.074l-.343 1.745c-.458 2.326-.928 4.649-1.519 6.938l-.228.857c-1.29 4.875-4.555 6.835-9.557 6.468-.842-.062-1.671-.232-2.498-.431l-.551-.137-1.01-.257c-.561-.14-1.124-.272-1.691-.37-2.578-.539-5.183-.938-7.805-1.195-3.811-.244-7.249.843-10.525 2.42l-.417.204-.415.209-.414.213-.429.226-.427.23-.638.352-.424.238-.423.241-.823.464-.824.461-.826.457-.276.151-.552.299-.554.295c-3.698 1.955-7.512 3.621-11.771 4.246l-2.923.471-1.458.247c-1.457.245-2.915.476-4.38.635-1.475.034-2.733 1.075-3.042 2.517-.615 2.008-1.366 3.972-2.246 5.878l-.071.14-.143.271c-.138.257-.277.501-.417.731l-.141.225c-1.78 2.789-3.747 3.404-6.54 2.058l-.231-.115c-.156-.08-.314-.165-.474-.257l-.243-.141a17.61 17.61 0 0 1-.496-.308l-.255-.167-.259-.175-1.85-1.305-1.381-.994c-1.384-.991-2.778-1.964-4.239-2.815a10.88 10.88 0 0 0-14.845 2.597c-1.794 2.143-3.393 4.44-4.779 6.867a71.71 71.71 0 0 0-8.281 24.403l-.065.451-.163 1.067-.736 4.802-.159 1.067-.157 1.067-.152 1.067-.148 1.068c-.848 6.23-1.427 12.48-1.097 18.809a14.34 14.34 0 0 0 .924 4.381c.828 2.151 2.421 2.47 4.014.877 1.618-1.79 3.144-3.662 4.571-5.608a89.93 89.93 0 0 1 6.371-7.966c3.584-3.585 6.467-2.629 7.693 2.262a4.88 4.88 0 0 1 .112.67l.374 3.477.241 2.086c.32 2.782.614 5.564.691 8.345.444 16.256-.243 32.483-1.224 48.695l-.153 2.494-.318 4.987-.328 4.987c-1.162 17.446 3.935 32.326 17.234 44.132l7.136 6.373 5.501 4.76 5.492 4.77 18.442 15.739a132.78 132.78 0 0 0 13.955 9.979l.635.392c5.062 3.139 9.718 1.406 11.99-3.963l.068-.164c.287-.701.621-1.386.86-2.087a32.93 32.93 0 0 1 11.405-15.932 23.26 23.26 0 0 0 6.037-7.456c2.166-4.222-.541-8.221-5.32-8.603-.836-.048-1.675.001-2.5.143l-3.413.56-1.363.238-1.363.239c-3.179.557-6.358 1.09-9.568 1.352-9.223.75-18.212-.948-27.028-3.449l-.814-.233-.406-.118-.812-.24-1.014-.304-1.012-.31-.404-.126c-5.048-1.375-9.774-3.736-13.906-6.946-3.172-2.263-4.633-6.241-3.679-10.021.506-2.262 1.243-4.467 2.198-6.58 2.559-5.454 4.221-11.286 4.922-17.27.644-3.213.01-6.552-1.768-9.304-2.078-2.928-4.575-3.196-7.185-.805l-.094.088c-.441.397-.828.845-1.204 1.301l-.562.686c-.251.303-.507.601-.782.88a14.35 14.35 0 0 1-2.867 2.517c-2.118 1.24-3.587.532-4.057-1.82l-.021-.108c-.122-.587-.18-1.185-.175-1.784l.18-4.068.129-2.709.249-6.765.128-19.118c-.105-1.805-.344-3.6-.717-5.369-.769-4.894 1.489-9.769 5.718-12.347l6.822-3.758 4.337-2.335 4.769-2.605a8.7 8.7 0 0 0 5.001-6.628c.781-7.774 3.727-14.785 7.263-21.636 1.337-2.537 2.405-5.206 3.186-7.966l.082-.294.042-.144.107-.351.11-.34.091-.263c.046-.13.092-.257.14-.381l.096-.244.1-.237.102-.23c1.173-2.564 2.923-3.75 6.172-4.09l.29-.028.451-.034.311-.018.369-.016.251-.006h.236l.091.002.174.007a4.17 4.17 0 0 1 .165.011l.157.015c1.039.115 1.465.533 1.417 1.442l-.011.137a3.89 3.89 0 0 1-.041.294l-.031.159-.037.166-.043.174-.024.09-.053.185-.058.193-.064.201a96.75 96.75 0 0 1-.861 2.488l-.669 1.86c-.444 1.241-.876 2.486-1.251 3.75l-.183.633c-.688 2.254-.016 4.699 1.716 6.284l.365.326a24.36 24.36 0 0 0 .945.792l.275.215c3.402 2.616 7.295 3.998 11.815 2.819 5.055-1.339 10.051-2.826 14.988-4.461a34.72 34.72 0 0 1 26.266 1.593c3.318 1.491 6.806 2.614 10.327 3.661l1.586.467 1.159.338 5.197 1.556a11.38 11.38 0 0 0 3.118.403l.243-.005c3.87-.048 5.702-2.39 4.778-6.102a64.64 64.64 0 0 0-.854-2.975l-.456-1.482-.442-1.487-.231-.833-.068-.258-.042-.173-.038-.172-.034-.173-.016-.088-.028-.176c-.157-1.111.027-2.175 1.219-2.891 1.497-.791 3.351-.273 4.221 1.179 1.655 2.13 3.11 4.407 4.348 6.803 2.596 5.082 4.906 10.308 7.502 15.39a17.81 17.81 0 0 0 9.987 8.763l.742.278 2.223.834c2.715 1.016 5.429 2.006 8.185 2.823a9.83 9.83 0 0 1 7.367 7.063l.04.154a132.92 132.92 0 0 1 3.6 19.214c.237 2.904-.052 5.85-.402 8.805l-.267 2.217c-.176 1.479-.339 2.957-.43 4.432-.22 3.545-.339 7.099-.443 10.656l-.115 4.002a8.38 8.38 0 0 1-3.393 6.596 2.28 2.28 0 0 1-2.023.207 1.96 1.96 0 0 1-.637-1.848c1.138-2.794 1.273-5.615 1.114-8.442l-.028-.458-.042-.573-.047-.573-.041-.458-.092-.964-.097-.98c-.104-1.061-.202-2.121-.257-3.179-.096-1.769-1.258-2.533-3.011-2.024-.49.14-.968.326-1.444.521l-.712.295c-.475.195-.953.381-1.444.521a30.91 30.91 0 0 1-6.562 1.593l-45.883 2.26-5.74.258c-12.53.583-25.086-.078-37.484-1.972l-1.221-.19-.477-.071-.715-.099-.476-.061-.233-.028-.466-.052c-4.117-.436-8.162-.253-12.048 1.691a9.16 9.16 0 0 0-5.4 6.293l-.05.232-.046.225-.06.323-.034.207-.016.101-.027.196-.022.19-.018.183-.012.176c-.089 1.613.494 2.39 2.093 2.811l.176.044.183.041.24.048.253.045.212.033.22.032.113.015.352.042 4.34.469 14.768 1.695 5.205.664 1.735.214 1.157.138c6.559.769 13.132 1.312 19.777.929a104.43 104.43 0 0 1 11.389 0c5.214.053 9.639 3.84 10.497 8.985a73.62 73.62 0 0 1 .892 9.193 8.41 8.41 0 0 0 4.874 7.583l8.041 3.902 12.065 5.823 3.357 1.602c5.266 2.54 10.928 4.157 16.741 4.78a20.7 20.7 0 0 0 12.742-2.087c3.873-2.236 5.038-5.157 3.818-9.41l-.343-1.167c-.299-1.022-.592-2.053-.831-3.092-1.194-5.258.43-8.205 5.75-9.305a45.15 45.15 0 0 1 10.162-.669c1.709.045 3.411.224 5.112.421l1.914.223c1.276.146 2.554.276 3.836.344 2.666.353 5.296-.84 6.787-3.068l.078-.118a43.98 43.98 0 0 1 14.956-14.243 26.56 26.56 0 0 0 9.86-10.053l1.832-6.755v-9.48l-.028-12.287-.023-6.143.051-27.645c.096-8.667 1.8-17.048 6.69-24.488a120.37 120.37 0 0 1 2.685-3.898l1.179-1.658c1.329-1.872 2.64-3.758 3.811-5.724l.29-.493c2.851-4.84 5.4-9.853 7.63-15.008 1.513-3.553.223-6.23-3.106-8.237-1.04-.623-2.1-1.208-3.161-1.786l-1.592-.866-1.582-.879-.784-.451v.016a32.21 32.21 0 0 0-12.885-4.285c-1.87-.192-3.741-.312-5.611-.453l-.935-.073-.239.669a17.25 17.25 0 0 0 1.911 1.689c.592.388 1.202.754 1.814 1.114l.736.432.6.355c.798.477 1.583.97 2.324 1.522l.276.21a47.36 47.36 0 0 1 6.371 5.783c.776 1.055.995 2.419.589 3.664a3.95 3.95 0 0 1-3.329 1.593c-2.448-.308-4.828-1.024-7.04-2.119-1.424-.743-2.769-1.637-4.104-2.552l-1.201-.827c-1.013-.697-2.033-1.384-3.089-2.006a15 15 0 0 0-3.775-1.052 23.67 23.67 0 0 0 .175 3.362c.509 2.677-.398 4.19-3.042 3.855a16.7 16.7 0 0 1-6.483-2.215 36.44 36.44 0 0 1-4.953-4.62c-2.565-2.554-5.261-4.974-8.076-7.249-3.87-2.868-7.996-5.449-12.105-7.966a19.12 19.12 0 0 0-5.416-2.231c-8.32-1.908-16.935-2.145-25.344-.697l-.427.075c-4.205.729-8.379 1.665-12.548 2.631l-4.169.97-5.216 1.179-.422.088-.273.053-.265.048-.259.043-.127.02-.249.036-.243.03-.119.013-.233.023-.227.017-.221.012c-2.435.098-3.777-.835-4.851-3.302l-.095-.225-.094-.233-.139-.366-.092-.254-.045-.13-.091-.267c-.56-2.015-2.274-3.497-4.348-3.76a26.09 26.09 0 0 1-16.693-10.021c-1.809-2.404-3.441-4.946-5.041-7.51l-1.84-2.962-1.863-2.943a59.91 59.91 0 0 0-4.221-6.373c-3.026-3.616-7.534-3.314-9.779.797zm46.606 122.087a87.88 87.88 0 0 0-25.788 4.891l-1.254.476-2.247.835-.538.202-.515.195-.514.197-.512.2-.255.102-.509.206-.268.11-.533.224c-2.925 1.248-5.703 2.756-8.055 5.022l-.202.197a58.48 58.48 0 0 1-13.857 10.101 20.49 20.49 0 0 0-4.779 3.68c-1.465 1.529-1.412 2.672.006 3.246l.147.056c.327.117.717.206 1.17.267l1.826.28 3.651.57c3.347.52 6.693 1.013 10.053 1.333l26.505 2.347 17.68 1.509c10.627.597 18.7-1.415 27.696-5.414l.637-.286.639-.292.644-.299.647-.305.254-.132.26-.142.211-.12.213-.126.106-.066.213-.134c1.384-.891 2.723-2.109 2.869-3.328l.041-.363.057-.546.035-.364.032-.364.028-.365.025-.365.022-.365.017-.364.013-.364.009-.364c.072-4.061-.722-8.033-3.814-11.247a122.78 122.78 0 0 0-10.64-9.48c-1.267-.958-2.807-1.488-4.396-1.513-5.67-.016-11.373.096-17.027.462zm-99.749 3.462l-.174.087-.178.095-.091.051-.186.108-.191.116-.197.124-.203.132-1.436.963c-3.834 2.575-7.696 5.206-11.307 8.038-3.886 3.235-6.143 8.024-6.164 13.081-.128 4.206 2.246 5.863 6.371 4.78.509-.144 1.003-.335 1.497-.526 4.866-1.946 9.201-5.02 12.647-8.97 2.918-3.172 4.821-7.145 5.464-11.407-.463-1.483-1.005-2.941-1.625-4.365l-.106-.217-.105-.207-.104-.199c-.087-.162-.173-.313-.259-.456l-.104-.166-.104-.158c-.934-1.375-1.906-1.647-3.447-.903zm142.914-127.795c-1.816.175-3.632.287-5.432.557l-.812.123-.541.084-.541.085-.54.088-.539.091-.538.094-.537.099c-3.484.656-6.877 1.616-9.937 3.606-.153.093-.305.192-.453.299l-.147.109c-1.208.925-2.093 2.298-1.296 3.671a4.49 4.49 0 0 0 3.616 1.466c3.94-.327 7.865-.835 11.777-1.458l1.35-.218.496-.077.481-.072.466-.066.452-.06.438-.053.424-.047.491-.047.317-.026.309-.022.302-.017.295-.012c3.299-.11 5.237.713 7.283 3.17l.181.221.182.23.183.239.092.123.185.251.186.261.188.27.19.279.242.362.245.378.125.194.316.502.324.526.132.218c4.851 8.179 12.072 14.691 20.706 18.672 6.567 3.293 14.078 4.183 21.232 2.517l.153-.04.152-.042.151-.045.149-.048.147-.051c.097-.035.193-.073.285-.114l.137-.063c.742-.362 1.286-.944 1.238-2.018l-.006-.099v.016c-.091-1.103-.705-1.437-1.41-1.544l-.126-.017-.127-.013-.128-.01-.192-.009-.19-.006-.37-.008-.119-.005a33.78 33.78 0 0 1-23.398-11.041c-4.332-4.652-8.57-9.432-12.743-14.211a19.35 19.35 0 0 0-15.498-7.249zm67.758 16.538l-18.891 2.533c-.611.105-1.177.503-1.735.935l-.223.174c-.297.233-.592.466-.893.66a7.69 7.69 0 0 1 .462.601l.378.543.127.179.128.174c.345.455.711.834 1.151.957 1.37.406 2.775.701 4.115.946l.57.102.56.097 1.603.272.503.088.484.089.386-.047.759-.09 1.103-.125 2.099-.231 1.004-.114.98-.118.642-.083a54.88 54.88 0 0 0 2.195-.334l.309-.055c2.597-.443 5.146-1.131 7.613-2.056a3.33 3.33 0 0 0 1.673-2.74 3.6 3.6 0 0 0-2.326-2.247 13.36 13.36 0 0 0-4.778-.111zM192.745 254.79l-.224.086a12.43 12.43 0 0 1-1.292.425l-.897.247-.421.123-.21.066-2.593.815-2.597.808-6.484 2.069-1.291.435v.016l-.221.077-.11.04-.219.083-.217.086-.215.09-.107.046-.211.096-.208.1c-1.823.899-3.247 2.293-3.096 4.625.35 5.417 2.994 8.03 8.489 6.66 1.529-.388 3.03-.859 4.526-1.345l1.823-.595 1.901-.606 5.903-1.785.816-.242 1.225-.357.818-.234.409-.116.819-.228c6.417-1.766 12.924-3.092 19.734-2.857l1.52.06.384.018.399.021.207.013.433.029.229.017.619.049.232.015.234.011.193.004.19-.003.15-.007c.866-.053 1.593-.36 1.804-1.436.223-1.137-.404-1.689-1.248-2.05l-.139-.057-.214-.08-.146-.05-.221-.072-.219-.066-.219-.065-3.382-.979-3.378-.955c-3.091-.877-6.162-1.776-9.168-2.846-4.513-1.844-9.554-1.912-14.111-.197zm76.374-109.08c-9.024 2.937-17.781 6.638-26.175 11.063l-.68.36-.223-.223.096.271-6.138 3.856-3.465 2.154c-4.49 2.796-8.958 5.624-13.27 8.663a152.72 152.72 0 0 0-29.849 26.718c-2.323 2.848-4.208 6.027-5.591 9.432-1.593 3.887.207 6.612 4.428 6.883a103.2 103.2 0 0 0 9.931.034l.709-.034.492-.054 1.406-.169.933-.122 1.395-.185c2.165-.286 4.312-.548 6.463-.582l.461-.004 2.422-.038 1.617-.024 1.547-.02c5.416-.063 10.839-.039 16.219.4 6.164.494 11.85 4.508 11.85 12.666a33.47 33.47 0 0 0 .717 6.261c.028.147.058.288.09.423l.05.199.027.097.055.187c.019.061.038.121.058.179l.061.17c.714 1.878 2.063 2.133 4.011.606l.173-.139c1.937-1.557 3.596-3.432 4.906-5.544 1.928-3.367 4.833-6.065 8.327-7.739l.21-.099a94.63 94.63 0 0 1 11.771-4.653c8.09-2.492 16.426-3.429 24.814-3.956l1.049-.064.525-.031 1.049-.058 1.05-.056 1.575-.078 1.603-.076c17.377-.813 33.942 2.31 49.234 10.897l6.358 3.609 5.894 3.376 16.418 9.138a82.82 82.82 0 0 0 15.228 6.373c8.219 2.437 13.332-.861 14.924-9.113a33.83 33.83 0 0 0 .446-8.316c-.875-11.713-3.763-23.188-8.538-33.919l-.295-.676-.298-.675-.3-.673-.303-.671-.306-.67-.31-.668-.313-.666-.317-.663-.321-.661-.49-.987-.332-.654c-3.178-6.201-7.009-11.999-12.342-16.778a20.22 20.22 0 0 0-5.702-3.569c-2.819-1.163-4.779.319-4.779 3.346-.003 1.274.131 2.545.398 3.791a47.8 47.8 0 0 0 6.371 14.578 13.08 13.08 0 0 1 .86 4.206c-1.426.209-2.875.209-4.301 0-8.891-2.854-16.749-8.25-22.605-15.518l-.204-.254c-1.125-1.398-2.213-2.823-3.29-4.252l-1.79-2.384c-1.462-1.945-2.931-3.877-4.477-5.743-1.816-2.211-3.921-4.167-6.26-5.815-2.31-1.609-4.667-.462-5.32 2.326a11.15 11.15 0 0 0-.159 3.999c.287 2.326.892 4.732 1.178 7.105l.009.082.015.171c.067.97-.065 2.378-.517 2.568a3.57 3.57 0 0 1-3.09-.398 39.07 39.07 0 0 1-6.514-6.245c-3.741-4.976-7.212-9.977-10.76-15.248l-1.186-1.767c-3.966-5.927-9.573-8.556-16.581-9.209-10.832-.77-21.711.572-32.031 3.951z" id="S"/></defs><g transform="translate(89 88)" fill="none" fill-rule="evenodd"><g transform="translate(251.692 351.269)"><mask id="T" class="B"><use xlink:href="#A"/></mask><path fill="#fdfdfd" mask="url(#T)" d="M.38 270.517h298.788V.37H.38z"/></g><g transform="translate(305.734 242.185)"><mask id="U" class="B"><use xlink:href="#B"/></mask><path fill="#fdfefe" mask="url(#U)" d="M.08 105.491h231.237V.47H.08z"/></g><g transform="translate(358.274 476.364)"><mask id="V" class="B"><use xlink:href="#C"/></mask><path fill="#fcfdfd" mask="url(#V)" d="M.38 37.098h96.854V.17H.38z"/></g><path fill="#152e51" d="M611.688 193.658h.06v-.961h-.06z"/><g transform="translate(440.837 352.269)"><mask id="W" class="B"><use xlink:href="#D"/></mask><path fill="#f8f8f9" mask="url(#W)" d="M.38 37.859h75.958V.39H.38z"/></g><g transform="translate(111.585 498.381)"><mask id="X" class="B"><use xlink:href="#E"/></mask><path fill="#00c7e6" mask="url(#X)" d="M.16 55.072h29.723V.19H.16z"/></g><g transform="translate(294.225 354.271)"><mask id="Y" class="B"><use xlink:href="#F"/></mask><path fill="#f9f9fa" mask="url(#Y)" d="M.48 18.924h53.141V.37H.48z"/></g><g transform="translate(299.729 479.867)"><mask id="Z" class="B"><use xlink:href="#G"/></mask><path fill="#f9f9fa" mask="url(#Z)" d="M-.04 28.552h26.06V.21H-.04z"/></g><g transform="translate(508.389 368.782)"><mask id="a" class="B"><use xlink:href="#H"/></mask><path fill="#f5f6f7" mask="url(#a)" d="M.38 8.857h28.882V.27H.38z"/></g><path fill="#47abc6" d="M141.408 554.474h.42v-1.021h-.42z"/><g fill="#2875ac"><path d="M568.395 147.963h1.021v-.42h-1.021zM218.747 646.164h.661v-.6h-.661z"/><path d="M219.288 646.584h.54v-.54h-.54z"/></g><path d="M141.408 553.453h.06v-.06h-.06z" class="C"/><g transform="translate(300.73 395.803)"><mask id="b" class="B"><use xlink:href="#I"/></mask><path mask="url(#b)" d="M.28 141.078h183.74V.03H.28z" class="D"/></g><path fill="#1a3a62" d="M364.599 258.327h.3v-.36h-.3z"/><path fill="#184875" d="M452.746 114.277h.36v-1.561h-.36z"/><g transform="translate(447.842 74.557)"><mask id="c" class="B"><use xlink:href="#J"/></mask><path fill="#c0e585" mask="url(#c)" d="M.04 116.159h194.609V.15H.04z"/></g><g transform="translate(436.834 91.07)"><mask id="d" class="B"><use xlink:href="#K"/></mask><path fill="#00c7e6" mask="url(#d)" d="M.3 117.66h197.191V.45H.3z"/></g><g transform="translate(539.412 195.65)"><mask id="e" class="B"><use xlink:href="#L"/></mask><path fill="#8ba6c1" mask="url(#e)" d="M.22 79.791h79.08V.17H.22z"/></g><path fill="#c84a9b" d="M612.348 276.401h.781v-1.021h-.781z"/><g transform="translate(461.353)"><mask id="f" class="B"><use xlink:href="#M"/></mask><path mask="url(#f)" d="M.04 158.831h216.465V-.05H.04z" class="D"/></g><path fill="#b94e9d" d="M517.175 643.582h.3v-1.141h-.3z"/><g transform="translate(0 530.906)"><mask id="g" class="B"><use xlink:href="#N"/></mask><path mask="url(#g)" d="M.18 121.323h178.817V.21H.18z" class="D"/></g><path d="M178.937 653.55h.961v-1.381h-.961z" class="C"/><g transform="translate(96.073 511.891)"><mask id="h" class="B"><use xlink:href="#O"/></mask><path fill="#c0e585" mask="url(#h)" d="M.18 140.457h126.877V.01H.18z"/></g><g transform="translate(108.583 556.425)"><mask id="i" class="B"><use xlink:href="#P"/></mask><path mask="url(#i)" d="M.46 14.501h9.307V.45H.46z" class="C"/></g><g transform="translate(163.625 630.482)"><mask id="j" class="B"><use xlink:href="#Q"/></mask><path mask="url(#j)" d="M.48 21.747h14.891V.19H.48z" class="C"/></g><path d="M104.54 556.936h4.563v-7.926h-4.563zm52.54 72.115h5.824v-8.046h-5.824z" class="C"/><g transform="translate(219.668 646.494)"><mask id="k" class="B"><use xlink:href="#R"/></mask><path fill="#44a7c2" mask="url(#k)" d="M.1 5.734h7.386V.03H.1z"/></g><g fill="#1a3a62"><path d="M219.708 646.584h.12v-.06h-.12z"/><path d="M219.288 646.584h.54v-.48h-.54z"/><path d="M217.486 646.164h1.921v-1.741h-1.921zm2.282 5.644h6.905v-5.284h-6.905z"/></g><g transform="translate(122.594 101.077)"><mask id="l" class="B"><use xlink:href="#S"/></mask><path mask="url(#l)" d="M.26 551.211h506.787V.05H.26z" class="D"/></g></g></svg>
