<svg width="856" height="830" viewBox="0 0 856 830" fill="none" xmlns="http://www.w3.org/2000/svg">
<path fill-rule="evenodd" clip-rule="evenodd" d="M748.347 88.0001C759.201 88.0001 768 96.7931 768 107.64C768 108.8 767.899 109.937 767.706 111.041L609.596 721.027C606.763 727.567 596.254 741.475 575.253 741.912L574.613 741.921L88 742C425.964 319.058 595.773 106.569 597.428 104.532C604.755 95.5184 617.188 88.1486 629.843 88.0001H748.347Z" fill="white" stroke="black"/>
<mask id="mask0_2031_6776" style="mask-type:luminance" maskUnits="userSpaceOnUse" x="263" y="189" width="434" height="495">
<path d="M263.176 189.601V683.18H696.242V189.601L263.176 189.601Z" fill="white"/>
</mask>
<g mask="url(#mask0_2031_6776)">
<path d="M333.176 660.516C333.176 672.563 342.949 682.325 354.99 682.325C367.03 682.325 376.804 672.563 376.804 660.516C376.804 648.476 367.03 638.708 354.99 638.708C342.949 638.708 333.176 648.476 333.176 660.516Z" fill="#BB8D0A"/>
<path d="M536.227 501.244V457.387C532.292 459.169 528.438 459.447 524.034 459.447H494.589C478.804 459.447 464.986 467.694 457.061 480.046C452.635 486.963 450.019 495.182 450.019 504.002V545.803H491.624H491.679C516.272 545.803 536.227 525.859 536.227 501.244ZM519.515 501.244C519.515 516.587 507.017 529.086 491.624 529.086H466.741V504.002C466.741 498.725 468.262 493.558 471.14 489.067C476.318 480.994 485.083 476.17 494.589 476.17H519.515V501.244Z" fill="#009AD8"/>
<path d="M522.961 453.968C511.705 453.886 502.64 444.701 502.717 433.44C502.787 422.19 511.977 413.131 523.233 413.202C534.494 413.278 543.554 422.468 543.483 433.718C543.406 444.979 534.211 454.044 522.961 453.968ZM497.179 439.709C497.228 432.394 491.335 426.425 484.026 426.371C476.706 426.322 470.748 432.214 470.694 439.534C470.634 446.844 476.531 452.812 483.846 452.861C491.166 452.91 497.13 447.023 497.179 439.709ZM467.766 455.903C467.799 451.15 463.967 447.263 459.214 447.236C454.467 447.203 450.58 451.03 450.548 455.783C450.515 460.541 454.341 464.417 459.1 464.455C463.853 464.477 467.728 460.656 467.766 455.903Z" fill="#D15881"/>
<path d="M357.637 613.72C347.335 613.72 338.946 605.37 338.946 595.046C338.946 584.733 347.335 576.372 357.637 576.372C367.961 576.372 376.306 584.733 376.306 595.046C376.306 605.37 367.961 613.72 357.637 613.72ZM357.637 584.733C351.941 584.733 347.308 589.361 347.308 595.046C347.308 600.726 351.941 605.353 357.637 605.353C363.322 605.353 367.95 600.726 367.95 595.046C367.95 589.361 363.322 584.733 357.637 584.733Z" fill="#5096B9"/>
<path d="M383.154 591.525C383.154 601.347 381.023 606.672 375.839 612.368H407.116C433.236 612.368 443.358 597.815 443.358 576.067V552.465H419.396C393.26 552.465 383.154 567.024 383.154 588.767V591.525Z" fill="#5096B9"/>
<path d="M632.687 314.679C625.742 314.679 620.09 309.054 620.09 302.099C620.09 295.154 625.742 289.518 632.687 289.518C639.653 289.518 645.267 295.154 645.267 302.099C645.267 309.054 639.653 314.679 632.687 314.679Z" fill="#EAA8C1"/>
<path d="M615.844 312.357V379.314H548.909C511.936 379.314 481.968 349.335 481.968 312.357C481.968 275.39 511.936 245.416 548.909 245.416C585.87 245.416 615.844 275.39 615.844 312.357ZM599.126 312.357C599.126 284.667 576.599 262.134 548.909 262.134C521.219 262.134 498.691 284.667 498.691 312.357C498.691 340.058 521.219 362.596 548.909 362.596H599.126V312.357Z" fill="#FFCF01"/>
<path d="M651.006 291.762C651.006 277.862 661.139 269.163 673.632 269.163C686.13 269.163 696.241 279.28 696.241 291.762C696.241 304.271 688.152 314.393 673.632 314.393L646.171 314.399C649.594 310.632 651.022 307.111 651.022 300.614C651.022 298.221 651.006 291.762 651.006 291.762ZM673.632 279.231C667.838 279.231 661.073 282.512 661.073 291.762L661.095 300.614C661.095 301.949 660.942 303.116 660.839 304.326C667.2 304.32 673.626 304.32 673.626 304.32C684.947 304.32 686.179 295.539 686.179 291.762C686.179 284.85 680.549 279.231 673.632 279.231Z" fill="#F58025"/>
<path d="M622.505 352.685C622.505 346.416 624.342 340.59 627.498 335.684C633.107 326.919 642.907 321.092 654.097 321.092H682.425V347.572C682.425 358.762 676.593 368.563 667.839 374.166C662.922 377.328 657.101 379.17 650.832 379.159L622.505 379.312V352.685Z" fill="#FBB040"/>
<path d="M549.318 421.456C549.308 414.413 551.379 407.867 554.922 402.356C561.223 392.501 571.361 385.95 583.947 385.95H615.845V416.943C615.845 429.517 609.293 440.539 599.444 446.84C593.927 450.383 587.386 452.454 580.339 452.449L566.57 452.623H556.508H542.592C547.781 447.439 549.1 440.326 549.259 432.439L549.329 425.097L549.318 421.456ZM599.127 402.673H583.947C576.191 402.673 571.541 407.398 569.001 411.366C567.055 414.403 566.036 417.875 566.041 421.439V425.07C566.041 425.239 565.976 432.575 565.976 432.575C565.954 433.633 565.921 434.75 565.851 435.9H566.467C566.674 435.9 580.371 435.726 580.377 435.726C583.931 435.726 587.397 434.701 590.417 432.772C595.873 429.267 599.127 423.358 599.127 416.943V402.673Z" fill="#EE3524"/>
<path d="M564.671 459.37L542.906 459.24L542.775 480.994C542.694 493.018 551.409 502.807 564.399 502.889C576.412 502.965 586.212 493.29 586.294 481.272C586.365 469.253 576.685 459.447 564.671 459.37Z" fill="#6F99D0"/>
<path d="M313.502 600.506V625.721H288.287C274.376 625.721 263.099 614.427 263.099 600.506C263.099 586.596 274.376 575.313 288.287 575.313C302.213 575.313 313.502 586.596 313.502 600.506ZM303.467 600.506C303.467 592.139 296.659 585.342 288.287 585.342C279.931 585.342 273.133 592.139 273.133 600.506C273.133 608.878 279.931 615.681 288.287 615.681H303.467V600.506Z" fill="#65B460"/>
<path d="M466.888 552.465H450.023V569.33C450.023 578.64 457.578 586.189 466.888 586.189C476.192 586.189 483.742 578.64 483.742 569.33C483.742 560.015 476.192 552.465 466.888 552.465Z" fill="#0075BD"/>
<path d="M443.357 521.241V545.796H418.78C405.207 545.796 394.219 534.802 394.219 521.241C394.219 507.668 405.207 496.685 418.78 496.685C432.347 496.685 443.357 507.668 443.357 521.241Z" fill="#2CAFA4"/>
<path d="M573.942 229.151C563.531 229.151 555.049 220.703 555.049 210.27C555.049 199.848 563.531 191.4 573.942 191.4C584.385 191.4 592.817 199.848 592.817 210.27C592.817 220.703 584.385 229.151 573.942 229.151ZM573.942 200.045C568.289 200.045 563.689 204.629 563.689 210.27C563.689 215.917 568.289 220.507 573.942 220.507C579.578 220.507 584.173 215.917 584.173 210.27C584.173 204.629 579.578 200.045 573.942 200.045Z" fill="#27A444"/>
</g>
</svg>
