<svg>
    <defs>
        <path d="M659.5555,1 C670.3635,1 679.1255,9.764 679.1255,20.575 C679.1255,21.731 679.025,22.864 678.833,23.965 L521.3915,631.934 C518.5705,638.453 508.106,652.3145 487.193,652.75 L486.556,652.759 L2,652.838 C338.535,231.2945 507.627,19.5075 509.275,17.477 C516.5705,8.4935 528.951,1.148 541.5525,1 L659.5555,1 Z" id="path-1"></path>
    </defs>
    <g id="AER-LINGUS" stroke="none" stroke-width="1" fill="none" fill-rule="evenodd">
        <g id="Mask-Raw" transform="translate(88.000000, 88.000000)">
            <path d="M659.5555,0.25 L541.5525,0.25 C529.417951,0.392464104 516.653519,7.20156168 508.692801,17.0041958 L504.143997,22.693252 L408.78043,142.119216 L0.441350848,653.588254 L486.556122,653.509 L487.203595,653.499925 C496.850749,653.299046 504.993321,650.296167 511.536706,645.215715 C516.398031,641.441257 520.090369,636.67697 521.967184,632.487618 L522.102948,632.178405 L679.55905,24.1530201 L679.57185,24.0938457 C679.773302,22.9386432 679.8755,21.7624542 679.8755,20.575 C679.8755,9.34991032 670.777837,0.25 659.5555,0.25 Z M541.561308,1.74994828 L659.5555,1.74994828 C669.949327,1.74994828 678.3755,10.1782545 678.3755,20.575 L678.3755,20.9873085 C678.353341,21.8108328 678.282538,22.6275948 678.159826,23.4338938 L678.099,23.806 L520.6795,631.689 L520.703183,631.636141 C518.963128,635.657204 515.375715,640.335962 510.616794,644.03091 C504.32299,648.917581 496.490164,651.80623 487.177385,652.000163 L486.545405,652.009075 L3.558,652.0875 L468.817257,69.3318426 L505.306926,23.640727 L509.555328,18.3259168 L509.857335,17.9496367 C517.549486,8.47771051 529.904809,1.88684959 541.561308,1.74994828 Z" id="BG" fill="#006472" fill-rule="nonzero"></path>
            <mask id="mask-2" fill="white">
                <use xlink:href="#path-1"></use>
            </mask>
            <use id="FG" fill="#006472" xlink:href="#path-1"></use>
            <g id="AER-LINGUS" mask="url(#mask-2)" fill-rule="nonzero">
                <g transform="translate(221.000000, 258.000000)">
                    <path d="M332.008903,182.513175 C325.325417,203.985532 303.047129,224.148599 276.313184,228.338328 C280.637793,235.015707 282.603524,243.264234 281.555134,252.429265 C278.672062,277.305776 254.821189,297.337915 229.266682,297.599773 C211.968247,297.730702 188.510521,290.267748 171.998378,264.212876 C157.189869,241.038441 155.093089,204.24739 156.141479,193.118425 C138.056752,211.579415 126.786559,229.516689 121.41356,241.954944 C109.357075,270.104681 104.770369,304.408081 105.032466,320.512349 C105.032466,320.512349 102.804638,322.607213 100.707857,323 C94.0243712,321.821639 88.2582261,319.333988 83.9336173,315.537047 C78.6916673,310.823602 77.5122285,306.372016 77.5122285,306.372016 C85.5062024,266.438669 98.2179312,241.562157 117.22,213.150563 C142.774507,174.788363 182.220181,151.090213 229.004585,136.818951 C262.815163,126.47556 297.936228,124.249767 322.049198,144.674692 C335.023025,155.41087 335.809317,170.860493 332.008903,182.513175 Z M132.814802,161.302676 C124.820828,174.657434 102.935686,196.129792 85.6372511,207.258757 C49.5988445,230.302263 23.6511918,231.873411 10.6773654,223.624883 C9.10478041,222.70838 7.7942929,221.530019 6.61485414,220.351658 C-3.4758997,209.746408 -1.77226594,190.892631 10.0221217,175.443009 C15.7882667,167.849126 23.2580455,162.481037 30.4657269,159.993386 C24.8306306,157.374805 21.0302168,151.875787 20.2439243,144.150976 C18.6713392,128.701353 30.3346781,108.407357 46.4536745,100.158829 C60.6069396,92.9577338 91.1412987,85.7566384 113.550635,119.143535 C122.330901,132.105507 130.193827,150.566497 132.814802,161.302676 L132.814802,161.302676 Z M280.89989,20.9467797 C278.934159,1.70021555 258.359505,-5.36995085 235.688071,4.3187957 C224.942074,8.90131097 215.506564,16.6261224 208.823077,25.3983659 C209.871467,16.6261224 207.381541,8.90131097 201.091201,4.3187957 C188.64157,-4.71530582 165.970136,1.96207357 150.506383,18.7209865 C145.133384,24.6127919 127.572851,45.8232911 126.65551,76.9843949 C126.262364,92.0412307 132.94585,125.428128 154.96204,148.471633 L154.96204,148.471633 C213.671881,126.344631 245.25463,92.4340178 257.311115,78.424614 C271.202283,62.189417 277.099477,47.9181552 279.589403,37.4438346 C281.424085,29.1953071 281.161988,23.3035018 280.89989,20.9467797 Z" id="Shape" fill="#82C341"></path>
                    <path d="M257.308499,77.8348837 C271.211962,61.5418605 277.114376,47.2197674 279.606506,36.7081395 C279.737671,36.1825581 279.868835,35.6569767 280,35 C277.114376,46.694186 252.455404,76.9151163 218.352571,102.668605 C182.93809,129.34186 162.73872,142.744186 155,148 C213.63064,125.925581 245.241343,91.894186 257.308499,77.8348837 Z" id="Path" fill="#3CB14A"></path>
                    <path d="M84.8755365,206.379307 C102.154506,195.390016 124.015021,174.187149 132,161 L132,161 C116.553648,175.480007 93.776824,197.070731 54.6373391,214.136453 C35.2639485,222.281457 16.2832618,225.384315 10,222.410743 C22.9592275,230.685032 48.8776824,229.133603 84.8755365,206.379307 Z" id="Path" fill="#3CB14A"></path>
                    <path d="M332.178862,181.078947 C333.089431,178.184211 333.739837,175.157895 334,172 C332.178862,184.5 323.853659,199.631579 310.585366,207.921053 C298.878049,215.289474 285.349593,220.157895 270,218.842105 C272.471545,221.210526 274.422764,223.184211 276.894309,227 L276.894309,227 L276.894309,227 C303.430894,222.921053 325.544715,202.657895 332.178862,181.078947 Z" id="Path" fill="#3CB14A"></path>
                    <path d="M160.6,169.4 L160.6,169.4 C160.5,169.5 160.4,169.5 160.4,169.6 C160.4,169.5 160.5,169.4 160.6,169.4 C160.6,169.4 160.6,169.4 160.6,169.4 Z" id="Path" fill="#F9ED32"></path>
                    <path d="M159.607539,170.130546 C117.614191,200.156143 103.354767,254.202218 101,323 L101,323 C103.093126,322.608362 105.317073,320.519625 105.317073,320.519625 C105.055432,304.462457 109.634146,270.389932 121.669623,242.19198 C127.033259,229.790102 138.283814,211.90529 156.337029,193.498294 C157.645233,181.226962 159.084257,174.046928 160,170 C159.738359,170 159.607539,170.130546 159.607539,170.130546 Z" id="Path" fill="#3CB14A"></path>
                </g>
            </g>
        </g>
    </g>
</svg>
