<svg width="142" height="138" viewBox="0 0 142 138" fill="none" xmlns="http://www.w3.org/2000/svg">
<path fill-rule="evenodd" clip-rule="evenodd" d="M124.343 14.4102C126.142 14.4102 127.6 15.8712 127.6 17.6736C127.6 17.8663 127.583 18.0552 127.551 18.2387L101.347 119.595C100.877 120.682 99.1356 122.993 95.6549 123.065L95.5488 123.067L14.8999 123.08C70.9124 52.8033 99.0559 17.4956 99.3302 17.1571C100.544 15.6594 102.605 14.4348 104.702 14.4102H124.343Z" fill="#00728E"/>
<path d="M99.3302 17.1571C99.0559 17.4956 70.9124 52.8033 14.8999 123.08L18.8661 123.08L104.702 14.4102C102.605 14.4348 100.544 15.6594 99.3302 17.1571Z" fill="#A7A9AC"/>
<path d="M88.2209 74.7034C89.3613 73.6297 91.5302 72.7573 95.4657 72.5783C103.27 72.2204 104.477 71.7954 107.317 70.319C109.844 68.9992 112.549 66.4267 113.444 63.7872C112.013 64.6819 110.291 65.3083 108.524 65.8004C104.365 66.8965 99.759 67.0978 97.1204 67.0978C96.5391 67.0978 96.0471 67.0978 95.6894 67.0755C92.4918 66.986 91.083 66.7623 87.7289 66.7623C87.2146 66.7623 86.6332 66.7623 86.0071 66.7847C82.9437 66.8294 80.8194 68.7532 79.9697 69.715C79.8803 69.8045 79.8356 69.8716 79.7685 69.9387C80.8642 71.2138 82.094 72.3099 82.899 73.0704C83.5027 73.6744 85.1351 74.9047 87.0581 76.5377C87.2146 76.0679 87.5277 75.3521 88.2209 74.7034Z" fill="#B4975A"/>
<path d="M86.0071 66.0688C86.6332 66.0465 87.2146 66.0465 87.7289 66.0465C91.1278 66.0465 92.5588 66.2702 95.7117 66.3596C96.0695 66.3596 96.5614 66.382 97.1205 66.382C99.7367 66.382 104.298 66.1807 108.346 65.107C112.482 64.1451 115.434 61.9976 116.463 59.1343C113.108 62.4897 104.41 62.6463 99.4236 62.2884C94.2359 61.9081 85.0456 60.2304 83.4133 60.0962C82.4518 60.0291 81.289 60.0068 80.1933 60.4989C79.0977 61.0134 78.0914 62.0871 77.5995 63.6082C77.4653 64.0556 77.3982 64.4806 77.3982 64.928C77.3759 66.4715 78.2256 68.015 79.3213 69.3795C80.1486 68.44 82.4518 66.1583 86.0071 66.0688Z" fill="#B4975A"/>
<path d="M86.8121 98.2359C86.8121 97.0504 86.5214 95.9319 86.0966 95.1266C84.1736 91.3909 80.171 87.6329 76.6603 83.7182C73.1273 79.7365 66.1731 73.6968 66.1061 67.7465C66.1061 66.9636 66.3297 66.2702 66.6427 65.532C65.3681 66.9636 60.9631 72.7125 63.5793 80.8102C64.5184 83.7182 67.6489 87.5658 70.9583 92.3752C74.1336 97.0056 74.8715 103.001 74.6926 106.244C84.6208 105.819 86.7898 101.726 86.8121 98.2359Z" fill="#A7A9AC"/>
<path d="M107.652 70.9454C104.768 72.4665 103.292 72.9362 95.5105 73.2718C89.1376 73.5849 88.042 76.3587 87.796 77.164C88.601 77.8575 89.4507 78.5957 90.2781 79.3786C91.7539 80.7655 93.252 82.1971 94.5042 83.6735C94.5042 79.8483 97.4335 79.3562 98.1267 78.9312C99.0211 78.3943 100.899 78.0812 104.924 75.7548C109.24 73.2718 110.179 69.8716 110.38 68.8874C109.531 69.7374 108.614 70.4309 107.652 70.9454Z" fill="#B4975A"/>
<path d="M89.5849 80.1168C86.4544 77.164 83.3238 74.7034 82.2729 73.6968C80.5735 72.0191 76.5485 68.7979 76.5038 64.928C76.5038 64.4135 76.5709 63.8766 76.7498 63.3622C77.3088 61.595 78.9411 60.5436 80.1933 59.962C77.5995 59.6265 69.7285 60.2304 67.5148 64.9056C67.1123 65.7557 66.911 66.6281 66.911 67.5229C66.8663 72.802 73.5075 78.9759 77.1299 82.9801C80.6182 86.8723 84.822 90.5185 86.8792 94.4779C87.3711 95.4174 87.796 96.7372 87.7513 98.1017C87.6395 101.412 86.4767 102.598 85.8953 103.001C98.4845 96.2451 96.0919 89.7132 96.0919 89.7132C95.5999 86.6934 92.7154 83.0472 89.5849 80.1168Z" fill="#A7A9AC"/>
</svg>
