<svg>
    <defs>
        <path d="M659.556 1c10.808 0 19.57 8.764 19.57 19.575 0 1.156-.101 2.289-.293 3.39L521.391 631.934c-2.821 6.519-13.285 20.38-34.198 20.816l-.637.009L2 652.838 509.275 17.477C516.571 8.494 528.951 1.148 541.553 1h118.003z" id="A"/></defs><g transform="translate(88 88)" fill="none" fill-rule="evenodd"><path d="M659.556.25H541.553c-12.135.142-24.899 6.952-32.86 16.754L.441 653.588l486.762-.088c9.647-.201 17.79-3.204 24.333-8.284 4.861-3.774 8.554-8.539 10.43-12.728l.136-.309L679.572 24.094c.201-1.155.304-2.331.304-3.519 0-11.225-9.098-20.325-20.32-20.325zm-117.994 1.5h117.994c10.394 0 18.82 8.428 18.82 18.825v.412c-.022.824-.093 1.64-.216 2.447l-.061.372-157.42 607.883c-1.716 3.968-5.304 8.647-10.063 12.342-6.294 4.887-14.127 7.775-23.439 7.969l-.632.009-482.987.078L509.857 17.95c7.692-9.472 20.047-16.063 31.704-16.2z" fill="#000" fill-rule="nonzero"/><mask id="B" fill="#fff"><use xlink:href="#A"/></mask><use fill="#fff" xlink:href="#A"/><g mask="url(#B)"><g transform="translate(283 250)"><path d="M47.494 91.097C47.494 42.769 86.672 3.59 135 3.59s87.506 39.178 87.506 87.507a87.09 87.09 0 0 1-15.425 49.617l-.152-.053c-51.742 66.266-131.625-12.406-18.155-76.554-6.052-3.934-19.366-25.115-34.495-25.115-9.683 0-20.576 6.354-22.997 11.801l-68.687 6.959 73.831 3.934c7.867.605 12.103 4.236 12.103 10.591s-10.288 13.616-17.247 19.063c-6.157 4.818-41.908 34.98-37.293 77.07.602 5.486 1.88 11.173 4.009 17.034-4.567-4.059-7.809-11.146-9.728-20.357-2.905-1.839-5.694-3.845-8.355-6.003-19.777-16.044-32.42-40.537-32.42-67.987zm221.541 60.049c.631-5.295.965-10.681.965-16.147a136.49 136.49 0 0 0-.723-14.027c-7.01 19.919-20.584 36.117-37.682 46.638 18.409-15.63 31.305-37.801 34.874-63.402-2.655-11.379-6.754-22.201-12.084-32.271.199 4.328.133 8.717-.22 13.149-2.278 28.618-15.945 53.546-36.131 70.617 18.942-18.584 30.639-44.512 30.484-73.142-.049-8.892-1.242-17.51-3.431-25.719C220.62 22.44 180.431 0 135 0S49.38 22.44 24.913 56.842c-2.189 8.209-3.382 16.826-3.43 25.719-.156 28.631 11.541 54.558 30.483 73.142-20.186-17.071-33.852-41.999-36.13-70.617-.353-4.432-.419-8.822-.22-13.15-5.33 10.071-9.429 20.892-12.084 32.271 3.569 25.601 16.465 47.772 34.874 63.403C21.308 157.089 7.733 140.891.723 120.972.246 125.583 0 130.263 0 135c0 5.465.333 10.852.965 16.147 6.544 13.219 15.842 24.727 27.079 33.848-9.147-5.05-17.461-11.593-24.559-19.393C17.348 225.419 70.967 270 135 270s117.652-44.581 131.515-104.398c-7.097 7.8-15.411 14.343-24.559 19.393 11.237-9.121 20.535-20.629 27.078-33.848h0z" fill="#cf0012"/><g fill="#fffffe"><path d="M76.038 226.163c3.358.846 5.431.698 9.237.698 2.777 0 7.544-2.808 9.765-8.922L103.73 196H121l-7.888 21.693C109.675 227.156 105.065 236 86.787 236c-5.014 0-13.787-.84-13.787-.84l3.038-8.997m71.025-7.18l.386-11.169-9.876 11.169h9.49zM139.571 195h23.164L167 234h-18.328l-.665-6.482h-17.37L125.342 234H106l33.571-39zm46.366 0h18.464l-9.933 30.714H217L214.212 234H172l13.937-39"/></g></g></g></g></svg>
