<svg width="142" height="138" viewBox="0 0 142 138" fill="none" xmlns="http://www.w3.org/2000/svg">
<mask id="mask0_7742_1942" style="mask-type:luminance" maskUnits="userSpaceOnUse" x="15" y="14" width="114" height="109">
<path d="M124.939 14.3306C126.736 14.3306 128.195 15.793 128.195 17.5937C128.195 17.7876 128.177 17.9743 128.145 18.1576L101.941 119.514C101.473 120.599 99.7317 122.911 96.25 122.985H96.1443L15.4951 122.999C71.5083 52.724 99.6506 17.4175 99.9255 17.0757C101.141 15.578 103.199 14.3552 105.296 14.3306H124.935H124.939Z" fill="white"/>
</mask>
<g mask="url(#mask0_7742_1942)">
<path d="M106.548 115.609C105.558 118.319 104.948 121.399 103.722 124.081H103.017L61.336 123.376C69.1239 120.532 73.9411 113.417 81.9898 111.017C86.3983 109.703 92.5441 109.671 97.0125 110.845C100.607 111.789 103.437 113.727 106.548 115.613V115.609Z" fill="#041D67"/>
<path d="M76.5278 105.02C72.6585 104.501 70.1212 104.593 66.2836 105.372C55.1902 107.627 50.5386 116.842 40.1465 120.197C48.1846 124.306 57.8403 123.14 65.3357 118.365C72.5422 113.769 75.1675 109.093 84.654 107.842C82.6383 105.939 79.1848 105.375 76.5313 105.02H76.5278Z" fill="#041E67"/>
<path d="M0.304688 123.376C7.99395 114.841 15.6832 106.306 23.369 97.7707C41.9367 92.7738 60.5044 87.7803 79.0721 82.7834L110.263 96.5268L100.265 124.081L0.304688 123.376Z" fill="#30A7D5"/>
<path d="M110.509 37.9587C111.433 37.9869 113.952 39.4634 115.179 39.8229C120.154 41.2783 125.955 41.0351 130.998 40.0766C128.799 46.0814 126.466 52.132 124.288 58.0769C118.174 63.4897 110.012 64.0641 102.316 62.207C93.1115 59.9869 87.6494 51.4766 79.0686 48.0231L72.7184 45.722C76.6899 41.458 80.7566 37.2504 84.7281 33.0146C91.5046 37.4195 98.764 39.03 106.816 38.6741C108.004 38.6212 109.604 37.9305 110.513 37.9552L110.509 37.9587Z" fill="#0255A2"/>
<path d="M124.284 58.0769C122.995 61.5903 121.673 65.2024 120.397 68.6664C118.783 69.9421 117.325 71.0979 115.77 72.0952C113.381 73.6281 111.288 74.3188 110.573 74.5726C108.768 75.2139 107.165 75.5734 105.914 75.7848C104.48 73.0009 101.897 69.0717 97.4072 66.4005C88.8686 61.326 77.088 62.9893 69.1556 66.7071C61.7342 70.1852 56.998 75.7813 47.6525 75.5628C46.5882 75.5381 45.7178 75.443 45.161 75.369C54.355 65.5019 63.5208 55.5926 72.7113 45.722C76.1295 46.2047 81.352 47.3183 86.9481 50.2961C94.6373 54.3838 96.3993 58.4646 101.851 60.7516C106.09 62.5312 113.022 63.4228 124.281 58.0734L124.284 58.0769Z" fill="#30A7D5"/>
<path d="M133.82 15.7226C135.818 15.7367 137.827 15.712 139.825 15.7226C140.237 16.1102 137.668 21.886 137.355 22.781C129.172 24.0109 123.111 29.6845 117.053 34.7871C116.451 35.2946 115.182 36.1122 115.101 36.898C115.055 36.8839 114.904 37.2856 114.178 37.0002C107.225 34.255 101.417 25.8046 94.2603 22.781C95.8743 21.4137 97.7032 19.909 99.5604 18.8976C99.5287 19.6976 100.054 19.8385 100.508 20.2438C106.097 25.2126 112.743 25.1139 119.767 23.7325C124.972 22.7106 130.067 19.3593 133.824 15.719L133.82 15.7226Z" fill="#30A7D5"/>
<path d="M133.82 15.7226C130.064 19.3628 124.968 22.7141 119.763 23.736C112.74 25.1139 106.094 25.2126 100.505 20.2473C100.05 19.8421 99.5251 19.7011 99.5568 18.9012C108.314 14.1297 123.728 15.6591 133.82 15.7261L133.82 15.7226Z" fill="#0256A2"/>
<path d="M110.509 37.9587C107.426 38.8291 99.7365 40.5241 91.5045 37.1059C88.6572 35.9218 86.4124 34.4066 84.7245 33.0181C87.2229 30.354 89.3514 27.5489 92.1424 24.8989C99.3594 27.3939 104.469 33.5467 110.509 37.9587Z" fill="#041E67"/>
<path d="M137.351 22.781C135.677 27.5384 133.774 32.2041 132.051 36.898C129.592 37.6345 127.146 38.1067 124.683 38.2688C122.477 38.4168 120.672 38.1701 117.208 37.7895C115.094 37.557 113.339 37.3032 112.092 37.1059C115.2 33.9132 120.084 29.695 126.977 26.4142C130.786 24.5994 134.345 23.4858 137.348 22.7845L137.351 22.781Z" fill="#051F68"/>
<path d="M115.101 36.9015C115.792 37.1306 116.412 37.6345 117.215 37.7931C122.276 38.7903 127.139 38.3745 132.058 36.9015C131.695 37.8917 131.399 38.9806 130.998 40.0766C125.958 41.0351 120.158 41.2783 115.179 39.8229C113.952 39.4634 111.433 37.9869 110.509 37.9587C104.469 33.5467 99.3594 27.3939 92.1424 24.8989C92.8789 24.1977 93.3794 23.5281 94.2603 22.781C101.417 25.8081 107.225 34.2586 114.178 37.0002C114.904 37.2856 115.059 36.8839 115.101 36.898L115.101 36.9015Z" fill="#54CCF9"/>
<path d="M116.866 78.1952C114.593 77.4516 112.201 76.7433 109.692 76.0843C108.529 75.7778 107.383 75.4958 106.256 75.2315C107.331 75.0694 108.476 74.8333 109.674 74.495C114.47 73.1313 118.04 70.6856 120.401 68.6664C119.242 71.8239 118.026 75.0448 116.87 78.1952H116.866Z" fill="#07216A"/>
<path d="M113.691 24.5536C127.153 24.5536 138.066 16.0922 138.066 5.6546C138.066 -4.783 127.153 -13.2444 113.691 -13.2444C100.229 -13.2444 89.3161 -4.783 89.3161 5.6546C89.3161 16.0922 100.229 24.5536 113.691 24.5536Z" fill="#0256A2"/>
<path d="M122.403 41.1725C118.198 41.1725 114.488 40.2986 111.302 38.5472C109.033 37.2997 107.228 35.728 105.322 34.0647C102.746 31.82 99.8281 29.2722 94.9051 26.749C92.5546 25.5438 90.0879 24.5148 87.5753 23.6973L88.5972 20.5645C91.2719 21.4384 93.9008 22.5308 96.4098 23.8206C101.689 26.5305 104.769 29.2158 107.489 31.5874C109.336 33.1978 110.932 34.5898 112.891 35.6646C118.005 38.4732 124.887 38.6177 133.348 36.0875L134.292 39.2449C129.983 40.5347 126.011 41.1761 122.403 41.1761V41.1725Z" fill="#55D0FE"/>
<path d="M43.5401 77.1239C46.035 76.849 48.8542 76.3275 51.8742 75.3901C60.6806 72.6485 66.7876 67.7009 70.3292 64.2403C85.6055 69.7166 100.882 75.1893 116.162 80.6655C113.543 89.3873 110.922 98.1091 108.303 106.831C104.12 106.041 101.097 104.745 99.2397 103.811C92.3327 100.333 90.68 96.3999 83.7026 93.616C83.5228 93.542 80.0799 92.0549 76.3481 91.7765C63.387 90.818 56.5329 101.686 43.5084 104.695C38.7052 105.805 31.1393 106.292 20.6168 101.908C28.2602 93.6477 35.9001 85.3876 43.5436 77.1274L43.5401 77.1239Z" fill="#0455A2"/>
<path d="M101.911 72.9833C105.512 75.7672 108.726 77.6419 110.833 78.7661C106.834 79.3616 96.6213 80.3131 85.8345 74.8298C79.3398 71.5279 75.1076 67.1476 72.7148 64.2157C74.2583 63.6236 76.5594 62.9224 79.4174 62.7109C86.4899 62.1859 91.8781 65.0508 93.6894 66.1186C97.0865 68.1237 97.0407 69.2126 101.914 72.9833H101.911Z" fill="#031D67"/>
<path d="M119.294 80.9826C113.681 80.9826 108.888 79.7034 105.012 77.1627C102.482 75.5064 100.804 73.6422 99.1832 71.8415C97.1147 69.5439 95.1624 67.3767 91.4763 65.7486C87.5119 64.0007 83.988 63.9443 82.8321 63.9267C76.7533 63.821 72.8205 66.3195 67.8483 69.4769C63.7428 72.0811 59.0912 75.0307 52.3323 76.9759C47.9591 78.2339 43.318 78.8718 38.5325 78.8718H38.4514V75.5769H38.5325C43.0079 75.5769 47.3459 74.9813 51.4231 73.8114C57.7275 72.0001 62.1676 69.1809 66.0863 66.6965C70.9987 63.5814 75.6468 60.6318 82.5008 60.6318C82.6277 60.6318 82.7546 60.6318 82.885 60.6318C84.2064 60.6529 88.2308 60.7164 92.8084 62.7356C97.1429 64.6456 99.4264 67.1828 101.636 69.639C103.186 71.3587 104.649 72.9868 106.823 74.4105C110.862 77.0534 116.155 78.1071 122.561 77.5433L122.85 80.8241C121.634 80.9333 120.447 80.9862 119.298 80.9862L119.294 80.9826Z" fill="#55D0FE"/>
<path d="M68.021 105.002C67.9188 105.009 65.4415 105.143 62.8619 105.668C51.7685 107.923 47.1169 117.138 36.7248 120.493C44.7629 124.602 54.4185 123.436 61.914 118.661C68.5144 114.453 69.427 112.008 74.8046 109.84C79.2976 108.029 83.5546 108.124 86.2962 108.438C82.5256 106.76 76.0732 104.533 68.021 105.002Z" fill="#041E67"/>
<path d="M13.2517 122.84L23.5664 112.719L40.069 123.957L56.8712 122.643L77.6026 110.066L89.0872 107.775C95.2083 109.731 101.329 111.687 107.451 113.643C105.393 120.017 103.338 126.389 101.28 132.764L16.8885 126.473L13.2517 122.837V122.84Z" fill="#041E67"/>
<path d="M46.6869 124.958C45.0272 124.958 42.8106 124.814 40.2381 124.144C34.4765 122.646 31.1463 119.591 27.9289 116.634C25.6243 114.517 23.2421 112.328 19.8802 110.644C15.6374 108.519 10.6334 107.62 5.00563 107.976L4.79772 104.688C11.014 104.297 16.5853 105.308 21.3533 107.701C25.1309 109.594 27.6858 111.941 30.1561 114.21C33.3453 117.138 36.0975 119.669 41.0662 120.958C44.3647 121.815 47.0429 121.684 48.4842 121.614C56.117 121.24 60.885 117.692 65.9348 113.935C69.1557 111.539 72.4823 109.061 76.5137 107.624C80.4006 106.235 84.7421 105.911 89.4078 106.655C95.4056 107.61 102.14 110.355 109.417 114.813L107.697 117.621C95.6311 110.231 85.5139 107.909 77.6202 110.725C74.054 111.997 71.0657 114.221 67.9047 116.575C62.6822 120.461 57.2835 124.479 48.6498 124.902C48.1318 124.926 47.4728 124.958 46.6905 124.958H46.6869Z" fill="#55D0FE"/>
<path d="M62.4775 92.7879H56.1027C56.0604 93.979 56.6771 94.9868 57.8788 95.2441C58.7492 95.4308 59.6196 95.2159 60.335 94.7084C60.4936 94.5957 60.6345 94.4582 60.786 94.3384L62.245 95.5718C62.2661 95.6176 62.1886 95.6987 62.1498 95.741C60.5077 97.6756 56.7793 97.8166 55.1301 95.8255C53.798 94.2151 53.7381 91.0012 54.5663 89.1547C56.2401 85.4158 61.7833 86.2827 62.4141 90.3035C62.541 91.114 62.4458 91.9703 62.474 92.7914L62.4775 92.7879ZM60.4196 91.0858C60.3773 90.3387 60.1447 89.5599 59.5209 89.0983C58.8267 88.5838 57.7026 88.5803 57.0048 89.0842C56.3776 89.5353 56.0921 90.3317 56.1027 91.0858H60.4196Z" fill="white"/>
<path d="M52.702 82.7552H50.644V84.8096H52.702V82.7552Z" fill="white"/>
<path d="M52.6985 86.9029V98.1231C52.6351 99.2896 51.9232 100.259 50.8097 100.625C50.193 100.826 49.5446 100.805 48.9032 100.805V98.8632C49.4283 98.8561 50.1436 98.9513 50.4714 98.4403C50.5454 98.3205 50.644 98.0562 50.644 97.9223V86.9099H52.702L52.6985 86.9029Z" fill="white"/>
<path d="M82.275 82.7552V94.497C82.2679 94.8881 82.5639 95.1982 82.9586 95.1982H83.7515V97.1223C82.9692 97.1118 82.1974 97.1999 81.4644 96.8757C80.5976 96.4951 80.2628 95.7057 80.217 94.7965V82.7552H82.275Z" fill="white"/>
<path d="M102.351 92.7879H95.976C95.9514 93.8168 96.406 94.7683 97.4068 95.1419C98.3477 95.4907 99.3943 95.2863 100.201 94.719C100.367 94.6027 100.508 94.4653 100.663 94.3384L102.146 95.5965C101.368 96.5479 100.187 97.1223 98.9608 97.2351C97.1143 97.4042 95.3171 96.7312 94.4854 95.0009C93.7242 93.4186 93.7278 90.8145 94.422 89.2075C96.0359 85.4792 101.526 86.2122 102.27 90.1519C102.432 91.0083 102.312 91.921 102.351 92.7914V92.7879ZM100.296 91.0858C100.275 90.2647 99.9546 89.3908 99.2075 88.9714C98.5591 88.6085 97.6464 88.6226 97.0086 89.0031C96.2897 89.4331 95.9866 90.2788 95.9796 91.0858H100.296Z" fill="white"/>
<path d="M86.6871 86.9029V93.1896C86.8456 95.9066 90.6339 95.8255 90.7431 93.1896V86.9029H92.7976V97.1223H90.7396V96.0405C90.7079 96.0334 90.7009 96.0546 90.6832 96.0687C90.5458 96.1744 90.3872 96.3929 90.2251 96.5268C88.079 98.2641 84.7348 96.7453 84.6256 93.9966V86.9064H86.68L86.6871 86.9029Z" fill="white"/>
<path d="M66.1777 86.8852H67.6543V88.4745H66.1777V94.6485C66.1777 94.6767 66.2235 94.8177 66.2376 94.8529C66.294 94.9939 66.3962 95.0961 66.5442 95.1454C66.6112 95.1701 66.7768 95.2018 66.8438 95.2018H67.6578V97.1258C66.9213 97.1047 66.2059 97.2175 65.5082 96.9285C64.5778 96.5444 64.1514 95.7022 64.1056 94.726V88.4781H63.0766V86.917L63.1048 86.8888H64.1056V83.7877H66.1531L66.1812 83.8159V86.8888L66.1777 86.8852Z" fill="white"/>
<path d="M74.9452 82.7552C76.9186 82.8679 78.5114 83.9251 78.7757 85.9796C78.9907 87.6499 78.4163 88.8023 76.9468 89.5846C76.9221 89.5987 76.6402 89.6974 76.686 89.7432C79.0682 90.2894 79.5898 93.3306 78.4762 95.2229C77.8137 96.3471 76.6332 97.0307 75.3293 97.1223H68.9827V82.7552H74.9452ZM71.1499 88.8093H74.5611C77.3239 88.7212 77.3168 84.7955 74.5611 84.7004H71.1499V88.8093ZM71.1499 95.0679H74.7478C77.5282 94.9375 77.6128 90.9166 74.7302 90.751H71.1499V95.0679Z" fill="white"/>
</g>
</svg>
