<svg>
<g clip-path="url(#clip0_516_335)">
<rect width="856" height="830" fill="white"/>
<path d="M748.429 87.3563H630.288C618.14 87.499 605.36 94.3163 597.39 104.131L592.836 109.827L497.361 229.396L88.5449 741.482L575.228 741.402L575.876 741.393C585.534 741.192 593.686 738.186 600.237 733.099C605.104 729.32 608.801 724.55 610.68 720.356L610.816 720.046L768.456 111.288L768.469 111.229C768.671 110.072 768.773 108.895 768.773 107.706C768.773 96.4672 759.665 87.3563 748.429 87.3563ZM630.297 88.8581H748.429C758.835 88.8581 767.271 97.2965 767.271 107.706V108.119C767.249 108.943 767.178 109.761 767.055 110.568L766.994 110.941L609.391 719.556L609.415 719.503C607.673 723.529 604.081 728.213 599.316 731.913C593.015 736.805 585.173 739.698 575.85 739.892L575.217 739.901L91.6652 739.979L557.468 156.521L594 110.775L598.254 105.454L598.556 105.077C606.257 95.5939 618.627 88.9951 630.297 88.8581Z" fill="#004595"/>
<mask id="mask0_516_335" style="mask-type:alpha" maskUnits="userSpaceOnUse" x="90" y="88" width="679" height="653">
<path d="M748.429 88.1072C759.25 88.1072 768.022 96.8818 768.022 107.706C768.022 108.863 767.921 109.998 767.729 111.1L610.104 719.801C607.279 726.328 596.803 740.206 575.865 740.643L575.228 740.651L90.1055 740.731C427.034 318.679 596.323 106.637 597.973 104.604C605.277 95.6098 617.672 88.2554 630.288 88.1072H748.429Z" fill="white"/>
</mask>
<g mask="url(#mask0_516_335)">
<path d="M748.429 88.1072C759.25 88.1072 768.022 96.8818 768.022 107.706C768.022 108.863 767.921 109.998 767.729 111.1L610.104 719.801C607.279 726.328 596.803 740.206 575.865 740.643L575.228 740.651L90.1055 740.731C427.034 318.679 596.323 106.637 597.973 104.604C605.277 95.6098 617.672 88.2554 630.288 88.1072H748.429Z" fill="#005EB8"/>
<path d="M713.42 328.579C710.895 322.97 706.92 318.593 703.355 313.949C685.541 290.674 664.598 270.752 641.304 254.922C619.345 239.965 595.536 228.837 570.673 221.91C554.654 217.387 538.28 214.677 521.79 213.821C518.13 213.638 504.61 213.272 503.366 213.222C502.173 214.437 489.187 229.974 487.994 231.53C488.338 233.802 489.934 233.319 491.127 233.136C500.511 231.679 509.859 233.003 519.192 233.66C527.94 234.25 536.647 235.473 545.258 237.322C555.308 239.478 565.246 242.256 575.029 245.643C598.526 253.807 620.193 266.24 640.63 281.536C651.23 289.446 661.151 298.474 670.262 308.498C681.637 321.039 692.734 333.863 701.789 348.759C702.404 349.766 703.121 350.806 704.468 350.424C707.44 343.128 710.424 335.847 713.42 328.579Z" fill="#2DCBD2"/>
<path d="M562 117.766C567.416 120.351 573.372 119.938 579.05 121.066C594.465 124.006 609.71 127.869 624.709 132.638C643.464 138.75 661.651 146.655 679.044 156.255C698.566 166.888 716.986 179.633 734.008 194.286C740.273 199.732 746.768 204.927 752.217 211.338L753.941 212.923C754.586 214.819 755.289 216.637 757.772 215.784C761.857 207.547 765.427 199.086 768.891 190.564C769.455 188.109 767.715 186.851 766.358 185.575C754.639 174.493 742.211 164.274 729.163 154.988C714.956 144.925 700.276 135.671 684.762 128.037C674.322 122.867 663.759 118.016 652.901 113.924C636.78 107.94 620.281 103.155 603.525 99.6036C600.952 99.0522 598.477 98.6644 595.928 99.4227C583.894 103.915 572.484 110.085 562 117.766Z" fill="#2DCBD2"/>
<path d="M674.018 193.249C658.573 183.521 642.368 175.442 625.611 169.116C613.298 164.559 600.74 160.906 588.015 158.181C576.457 155.601 564.76 154.295 553.048 153.138L536.834 172.611C541.541 174.317 546.452 173.535 551.247 174.026C577.406 176.674 603.103 183.522 627.572 194.364C640.973 200.364 653.944 207.537 666.368 215.818C667.386 215.427 699.916 241.974 708.282 250.312C717.213 259.216 725.448 268.911 733.573 278.731L743.265 254.806C736.816 246.709 729.715 239.394 722.593 232.087C699.132 209.385 683.973 199.524 674.018 193.249Z" fill="#2DCBD2"/>
<path d="M721.455 82.0473C699.911 82.0473 678.367 81.89 656.823 82.1491C649.165 82.3812 641.534 83.3096 634 84.9259C634.374 87.2953 636.169 87.3786 637.632 87.8414C667.736 97.4843 696.563 111.891 723.306 130.659C739.833 142.284 755.477 155.534 770.065 170.264C771.536 171.745 772.894 173.679 775.239 172.763L789.877 135.305C790.433 133.158 788.987 132.288 787.914 131.232C775.96 119.63 763.3 109.054 750.031 99.587C743.865 95.1349 737.634 90.8403 731.269 86.8047C728.17 84.7749 724.875 83.1781 721.455 82.0473Z" fill="#2DCBD2"/>
<path d="M793.542 121.042C797.817 110.54 802.063 100.03 806.382 89.5525C807.297 87.3222 807.531 86.0823 804.683 86.099C786.23 86.1988 767.769 86.1738 749.315 86.1905C748.4 87.6302 749.476 88.1461 750.281 88.687C764.605 97.8692 778.209 108.432 790.944 120.26C791.683 120.917 792.437 121.75 793.542 121.042Z" fill="#2DCBD2"/>
<path d="M153.142 649.651C155.624 657.449 159.094 664.705 162.395 672.062C168.292 684.896 174.957 697.255 182.342 709.052C189.23 720.279 196.982 730.689 205.034 740.917L244.101 741C243.916 740.05 243.454 739.2 242.79 738.587C229.043 724.872 217.053 709.319 206.19 692.642C196.858 678.38 188.698 663.173 181.815 647.213C181.705 647.055 173.763 626.408 171.508 620.974C170.776 619.135 170.688 616.93 169.312 615.424L150.317 637.976C150.368 638.234 149.219 638.866 153.142 649.651Z" fill="#2DCBD2"/>
<path d="M215.334 559.875C217.662 567.115 219.902 574.389 222.347 581.57C226.823 594.514 232.147 607.057 238.275 619.094C250.407 643.253 265.686 665.185 283.593 684.145C300.526 702.228 319.625 717.495 340.323 729.491C347.328 733.56 354.684 736.739 361.638 740.908L390.918 740.992C390.245 739.594 389 739.552 387.829 739.161C366.66 732.119 346.457 721.755 327.805 708.37C309.37 695.189 292.555 679.283 277.803 661.069C263.247 643.065 250.865 622.938 240.983 601.218C233.766 585.557 228.217 569.188 223.327 552.477C223.135 551.989 222.889 551.53 222.595 551.113L215.334 559.875Z" fill="#2DCBD2"/>
<path d="M155.536 740.983C150.09 731.363 144.41 721.909 139.271 712.081C133.251 700.612 127.915 688.696 123.299 676.414C122.823 675.157 122.23 673.959 121.696 672.736C112.7 683.038 103.916 693.54 95.439 704.417C94.6631 705.291 95.0803 706.181 95.439 707.055C99.7066 717.532 104.274 727.86 109.398 737.846C110.054 739.164 111.023 740.245 112.194 740.966L155.536 740.983Z" fill="#2DCCD3"/>
</g>
<g clip-path="url(#clip1_516_335)">
<path d="M649.019 491.772C646.323 486.933 642.958 482.5 639.023 478.603C630.176 470.9 621.64 467.536 614.695 464.592L609.056 462.179C596.19 456.581 582.402 453.407 568.385 452.816C565.057 452.744 561.729 452.943 558.433 453.414C557.065 453.568 555.721 453.887 554.43 454.366C553.297 454.795 552.195 455.306 551.135 455.893C552.212 455.046 553.367 454.305 554.585 453.68C555.712 453.114 556.889 452.654 558.101 452.307H558.323C578.068 446.799 597.1 438.992 615.027 429.044C629.756 420.722 642.053 413.772 641.079 406.224C640.084 398.278 624.625 391.571 611.754 392.678C607.64 393.126 603.628 394.248 599.878 395.998C590.877 399.672 588.643 403.169 574.688 414.015C562.193 423.688 559.34 424.485 553.081 431.368C548.99 435.795 545.208 441.948 544.235 442.834C543.262 443.719 539.812 446.641 540.851 448.257C541.249 448.943 542.731 448.832 543.992 450.204C544.412 450.669 545.252 452.639 545.982 453.193C547.044 454.189 547.574 453.613 547.862 454.609C547.995 455.118 547.597 455.561 547.862 456.247C548.127 456.933 548.216 457.066 548.503 457.885C548.552 458.181 548.525 458.485 548.424 458.767C548.324 459.05 548.153 459.302 547.928 459.501C547.353 460.01 546.38 459.501 545.097 460.408C544.757 460.61 544.478 460.899 544.287 461.245C544.097 461.592 544.002 461.983 544.014 462.378C544.003 462.779 544.125 463.173 544.361 463.497C544.597 463.822 544.934 464.059 545.319 464.171L547.353 464.614C549.075 465.216 550.546 466.377 551.533 467.912V468.067C565.554 488.674 620.49 505.894 620.49 505.894C623.011 506.824 646.697 513.22 652.159 505.075C654.481 501.113 650.655 494.517 649.019 491.772Z" fill="white"/>
<path d="M561.883 482.299C561.075 479.964 559.778 477.829 558.079 476.035C556.553 474.574 555.47 474.264 553.921 472.626L553.523 472.139C552.661 471.121 552.373 470.524 551.002 468.996C550.295 468.177 549.764 467.58 549.299 467.137C548.863 466.691 548.364 466.31 547.818 466.008C546.323 465.295 544.629 465.116 543.018 465.499C541.249 465.942 540.652 466.916 539.502 466.562C538.352 466.208 538.662 465.787 537.666 465.123C536.185 464.105 535.167 464.37 533.774 463.883C532.911 463.401 532.162 462.738 531.578 461.94C530.994 461.141 530.589 460.226 530.39 459.257C529.769 457.321 529.92 455.219 530.811 453.392C531.316 452.406 532.007 451.526 532.845 450.802C533.919 450.043 535.127 449.494 536.406 449.186C537.25 448.975 537.984 448.453 538.463 447.725C538.713 447.111 538.927 446.483 539.104 445.844C539.338 445.343 539.636 444.875 539.989 444.45C540.851 443.365 541.537 443.254 542.797 442.236C543.389 441.723 543.943 441.168 544.456 440.576C547.728 436.293 550.516 431.661 552.771 426.764C554.032 423.621 556.022 418.796 558.676 412.997C569.734 388.649 574.29 387.122 577.43 374.705C578.779 369.371 582.296 354.607 575.352 339.622C573.262 335.132 570.445 331.018 567.014 327.448C566.542 327.08 565.952 326.899 565.355 326.939C564.419 327.054 563.543 327.465 562.856 328.112C550.67 338.228 539.524 368.994 539.524 368.994C532.514 388.317 529.351 394.648 525.812 408.969C523.977 416.406 522.385 424.462 524.64 433.914C525.945 439.27 528.157 443.697 527.98 443.852C526.962 442.391 522.694 433.537 518.581 424.042C515.905 417.955 515.33 416.118 511.658 407.22C509.58 402.195 507.656 397.569 503.653 388.384C489.211 355.36 484.191 349.074 480.674 345.222C475.676 339.777 470.722 334.509 464.795 335.284C456.657 336.346 452.588 348.011 451.99 349.738C451.338 351.587 450.885 353.502 450.641 355.448C449.292 365.497 453.384 374.484 455.264 378.6C455.905 379.958 456.644 381.268 457.475 382.518C459.333 385.528 461.898 388.981 465.945 394.271C471.496 401.62 481.249 413.395 484.899 417.18C486.271 418.644 487.563 420.18 488.769 421.784C489.233 422.404 489.698 423.068 490.383 424.13C491.555 425.968 492.904 428.092 494.541 430.284C496.831 433.453 499.539 436.297 502.591 438.739C506.036 441.426 509.812 443.658 513.826 445.379C510.531 444.118 504.869 441.86 495.868 437.898C486.867 433.936 477.468 429.797 464.906 423.422C448.629 415.122 435.492 407.286 419.016 401.709C413.674 400.092 408.12 399.286 402.54 399.318C397.918 399.318 393.096 399.318 389.934 401.133C388.848 401.691 387.926 402.523 387.258 403.546C382.702 410.939 389.691 421.408 393.76 427.384C399.073 435.438 405.82 442.445 413.664 448.057C431.025 460.276 452.344 465.765 473 469.262C486.016 471.668 499.339 471.907 512.433 469.97C512.587 469.97 517.74 468.687 517.718 468.576C517.696 468.465 517.829 469.572 516.502 469.97C513.605 470.811 513.383 470.988 512.079 471.254C507.656 472.184 505.134 473.357 495.492 477.894L478.153 484.999C461.102 492.104 460.903 492.591 452.853 497.107C437.261 505.96 434.497 508.838 432.086 510.786C425.452 516.098 414.394 529.312 413.907 538.985C413.814 539.838 413.954 540.7 414.312 541.48C414.671 542.26 415.234 542.927 415.942 543.411C422.223 549.211 435.846 548.901 441.087 548.635C453.145 548.379 464.913 544.894 475.168 538.542C480.717 535.222 486.057 531.563 491.157 527.586C493.568 525.682 495.58 524 501.485 518.732C504.581 515.987 512.698 507.953 515.639 504.898C528.09 491.861 528.555 489.581 530.523 486.925L531.098 486.128C531.784 485.154 532.425 484.07 534.239 481.701C535.098 480.618 535.874 479.471 536.561 478.271C536.389 479.794 535.867 481.256 535.035 482.543C534.615 483.14 534.393 483.605 533.973 484.158C532.897 485.817 531.937 487.547 531.098 489.338C527.714 496.177 528.444 500.206 528.887 502.33C533.73 523.181 537.114 554.102 555.735 574.2C563.099 582.168 570.906 586.352 578.713 583.187C580.748 582.345 583.888 569.286 584.53 550.893C585.392 526.368 571.614 503.924 564.493 489.338C563.741 486.949 562.87 484.6 561.883 482.299Z" fill="white"/>
</g>
</g>
<defs>
<clipPath id="clip0_516_335">
<rect width="856" height="830" fill="white"/>
</clipPath>
<clipPath id="clip1_516_335">
<rect width="267.312" height="257.31" fill="white" transform="translate(385.688 326.939)"/>
</clipPath>
</defs>
</svg>
