<svg>
<g clip-path="url(#clip0_1415_1840)">
<path fill-rule="evenodd" clip-rule="evenodd" d="M749.347 87C760.201 87 769 95.7931 769 106.64C769 107.8 768.899 108.937 768.706 110.041L610.596 720.027C607.763 726.567 597.254 740.475 576.253 740.912L575.613 740.921L89 741C426.964 318.058 596.773 105.569 598.428 103.532C605.755 94.5184 618.188 87.1485 630.843 87H749.347Z" fill="#ED1C24"/>
<mask id="mask0_1415_1840" style="mask-type:alpha" maskUnits="userSpaceOnUse" x="229" y="234" width="452" height="452">
<rect x="229" y="234" width="452" height="452" fill="url(#pattern0)"/>
</mask>
<g mask="url(#mask0_1415_1840)">
<path fill-rule="evenodd" clip-rule="evenodd" d="M741.347 97C752.201 97 761 105.793 761 116.64C761 117.8 760.899 118.937 760.706 120.041L602.596 730.027C599.763 736.567 589.254 750.475 568.253 750.912L567.613 750.921L81 751C418.964 328.058 588.773 115.569 590.428 113.532C597.755 104.518 610.188 97.1485 622.843 97H741.347Z" fill="white"/>
</g>
<path fill-rule="evenodd" clip-rule="evenodd" d="M749.347 87C760.201 87 769 95.7931 769 106.64C769 107.8 768.899 108.937 768.706 110.041L610.596 720.027C607.763 726.567 597.254 740.475 576.253 740.912L575.613 740.921L89 741C426.964 318.058 596.773 105.569 598.428 103.532C605.755 94.5184 618.188 87.1485 630.843 87H749.347Z" fill="#343D52"/>
<path fill-rule="evenodd" clip-rule="evenodd" d="M401.481 349.957C408.867 340.714 416.045 331.732 423.015 323.009C441.098 363.657 450.203 390.531 438.191 422.553C429.933 444.669 431.123 461.744 438.267 479.326C438.734 480.475 439.23 481.801 439.779 483.267C445.222 497.8 455.814 526.085 493.394 532.045C456.776 531.269 440.061 507.464 430.38 493.677C429.003 491.716 427.768 489.957 426.639 488.497C397.2 450.42 392.951 399.646 401.481 349.957ZM283.738 497.3C290.648 488.652 297.445 480.147 304.128 471.785C318.874 471.186 333.721 474.649 348.282 479.047C378.176 488.091 397.86 500.632 419.191 515.401C458.433 542.534 473.355 541.292 523.693 531.615C467.553 553.3 401.128 570.046 355.071 559.178C333.107 553.984 323.151 551.324 304.657 520.24C299.05 510.854 293.588 502.479 283.738 497.3ZM717.267 308.497L714.127 320.61C713.234 321.546 712.286 322.526 711.289 323.549C698.718 336.453 697.984 343.563 695.065 371.821C694.884 373.575 694.694 375.409 694.493 377.332C691.326 407.631 685.221 429.368 654.06 456.652C636.354 472.166 616.632 481.714 594.974 492.2C577.338 500.739 558.419 509.899 538.26 523.407C582.872 474.664 587.736 466.051 608.51 402.362C618.112 372.949 635.187 353.518 669.59 332.719C681.446 325.55 692.644 318.989 705.285 313.314C710.472 310.99 714.414 309.407 717.267 308.497ZM712.336 327.52L699.889 375.539C700.039 373.51 700.17 371.478 700.304 369.423C700.606 364.757 700.915 359.976 701.46 354.861C702.87 341.507 707.529 333.096 712.336 327.52ZM687.159 424.651L685.647 430.487C684.527 431.809 683.372 433.142 682.181 434.485C684.035 431.044 685.686 427.773 687.159 424.651ZM467.675 360.331C473.882 376.941 479.854 392.92 477.56 411.077C475.925 424.006 472.036 433.844 468.573 442.605C462.218 458.684 457.296 471.138 470.365 492.423C476.927 503.089 486.173 512.69 499.626 519.075C526.403 531.792 545.505 513.248 553.181 487.179C563.315 452.776 541.629 423.516 517.486 399.702C511.784 394.075 506.008 388.903 500.33 383.818C485.019 370.108 470.424 357.039 459.928 337.431C462.08 345.358 464.901 352.908 467.675 360.331ZM473.228 580.914C478.295 574.631 498.41 554.694 511.381 548.436C503.527 554.77 482.069 578.178 477.053 588.286C476.364 589.683 475.671 591.098 474.972 592.526C459.581 623.956 441.21 661.471 396.112 644.071C412.858 643.565 427.348 642.957 444.905 622.74C450.407 616.389 454.715 609.262 459.173 601.889C463.357 594.969 467.672 587.832 473.228 580.914ZM407.235 585.629C407.425 585.563 407.628 585.537 408.272 585.424C415.511 582.609 422.852 579.835 430.235 577.044C458.87 566.222 488.154 555.154 514.699 540.532C511.08 543.617 506.774 547.056 502.159 550.741C487.52 562.43 469.775 576.599 460.992 589.832C460.141 591.112 459.293 592.4 458.443 593.689C446.984 611.076 435.261 628.863 415.568 635.584C403.357 639.764 384.433 641.487 374.097 630.036C356.186 610.175 355.705 602.017 384.585 592.922C391.805 590.642 399.025 588.362 406.271 586.082C406.868 585.803 407.045 585.695 407.235 585.629ZM561.567 616.711C544.77 618.712 522.781 615.292 505.098 599.889C531.521 611.771 546.746 609.06 570.459 602.195C597.827 594.301 600.701 591.458 612.874 579.419C614.415 577.896 616.104 576.225 618.01 574.378C649.449 543.927 658.62 523.888 651.958 495.438C666.879 527.84 657.835 548.107 630.804 579.952C628.068 583.194 620.898 592.922 618.72 596.494C611.272 608.756 601.087 615.267 586.748 614.557C582.34 614.329 566.735 616.103 561.567 616.711ZM641.165 537.467C658.367 505.572 657.658 481.682 611.348 495.489C576.995 505.698 524.301 531.995 503.654 560.571C492.178 576.379 487.795 589.452 517.258 599.281C529.672 603.411 543.909 602.575 567.419 596.494C569.612 595.928 571.605 595.424 573.431 594.963C593.17 589.976 593.44 589.908 615.933 568.551C625.686 559.304 634.148 550.463 641.165 537.467ZM491.545 317.295C491.929 318.225 492.337 319.21 492.76 320.255C493.668 322.49 494.629 324.803 495.614 327.174C501.53 341.414 508.319 357.755 509.709 371.936C509.874 373.629 509.962 375.057 510.04 376.305C510.463 383.101 510.552 384.529 520.805 394.204C536.233 408.721 548.013 425.466 554.853 442.111C561.845 459.109 563.619 476.134 552.244 500.252C579.022 467.799 593.69 412.875 575.399 365.223C560.756 327.07 537.677 301.939 496.535 303.358C485.93 303.706 487.356 307.157 491.545 317.295ZM451.821 495.995C466.514 520.721 482.5 531.361 511.381 527.08C466.692 516.642 442.903 476.919 466.894 430.837C478.852 407.859 467.781 372.392 458.61 347.641C458.753 349.677 458.892 351.627 459.025 353.499C461.335 385.891 461.965 394.725 449.87 414.699C434.569 439.983 437.051 471.118 451.821 495.995Z" fill="#ABC4E4"/>
<path fill-rule="evenodd" clip-rule="evenodd" d="M487.98 241.714C508.75 215.724 526.591 193.4 541.503 174.742L751.935 174.742L734.576 241.714H487.98Z" fill="white"/>
<path fill-rule="evenodd" clip-rule="evenodd" d="M502.29 223.807C511.346 212.475 519.762 201.944 527.538 192.214L747.406 192.214L739.217 223.807H502.29Z" fill="#A0A0A1"/>
</g>
<defs>
<pattern id="pattern0" patternContentUnits="objectBoundingBox" width="1" height="1">
<use xlink:href="#image0_1415_1840" transform="scale(0.000244141)"/>
</pattern>
<clipPath id="clip0_1415_1840">
<rect width="856" height="830" fill="white"/>
</clipPath>
</defs>
</svg>
