<svg width="141" height="138" viewBox="0 0 141 138" fill="none" xmlns="http://www.w3.org/2000/svg">
<path fill-rule="evenodd" clip-rule="evenodd" d="M123.843 14.4102C125.642 14.4102 127.1 15.8712 127.1 17.6736C127.1 17.8663 127.083 18.0552 127.051 18.2387L100.847 119.595C100.377 120.682 98.6356 122.993 95.1549 123.065L95.0489 123.067L14.3999 123.08C70.4124 52.8033 98.5559 17.4956 98.8302 17.1571C100.044 15.6594 102.105 14.4348 104.202 14.4102H123.843Z" fill="#FF5111"/>
<path d="M105.898 32.0689L96.3662 42.8515L88.1745 36.4073L90.45 49.5241L80.8931 60.3067L93.7115 59.7992L97.0994 75.4023L101.448 58.1755L116.795 56.1712L103.572 48.4585L105.898 32.0689Z" fill="#E2E2E2"/>
<path d="M77.1232 87.0895C77.8356 88.6128 77.3268 90.3646 76.2072 91.6086C74.2225 93.8428 71.6527 93.8174 69.3881 91.9894L79.8457 80.2346C74.6042 75.157 67.7597 74.1922 62.6454 79.93C58.4471 84.6522 58.4725 91.6594 63.4087 96.0262C68.7775 100.774 75.0877 100.063 79.7185 94.8329C82.9245 91.2532 84.3239 86.3786 81.4996 82.1387L77.1232 87.0641V87.0895ZM66.1821 83.0781C67.7597 81.3009 70.355 81.3517 72.2379 82.8496L66.4366 89.349C64.7827 87.2926 64.5283 84.9061 66.1821 83.0527V83.0781Z" fill="#231F20"/>
<path d="M90.7394 73.7726L89.1197 75.6033L80.3881 67.7975L83.2227 64.5938L79.8313 61.568L76.9967 64.7717L72.1627 60.4493L67.5059 65.7379L72.3399 70.0604L69.9608 72.7302L73.3522 75.7813L75.7313 73.1116L82.8431 79.4427C87.1456 83.2821 89.4487 83.3329 93.3969 78.8325C94.2574 77.8663 94.966 76.7984 95.8012 75.8067L91.9796 72.3996C91.5746 72.8827 90.7647 73.7726 90.7647 73.7726H90.7394Z" fill="#231F20"/>
<path d="M64.0474 97.4918C68.8938 101.803 69.0454 106.368 64.5796 111.389C64.533 111.447 64.4836 111.501 64.436 111.556L64.4409 111.557C64.4193 111.582 64.3961 111.604 64.3745 111.629C64.2636 111.755 64.1519 111.877 64.0376 111.995C59.3963 116.891 54.894 116.004 50.481 112.263C50.2824 112.105 50.0793 111.944 49.8882 111.77C49.8882 111.77 49.4056 111.338 49.1519 111.11C49.4817 110.73 53.238 106.521 53.5679 106.14C53.8987 106.42 55.394 107.763 55.394 107.763C56.9672 109.133 58.6167 109.031 60.0122 107.484C61.4078 105.937 61.0528 104.365 58.9722 102.513C58.9485 102.492 45.8534 90.8475 45.4478 90.4928C45.7786 90.1113 49.8377 85.5479 50.1675 85.1676C50.5765 85.5253 64.0474 97.4918 64.0474 97.4918Z" fill="#231F20"/>
</svg>
