<svg>
<style type="text/css">
	.st0{fill-rule:evenodd;clip-rule:evenodd;fill:#082C88;}
	.st1{fill:#082C88;}
	.st2{fill-rule:evenodd;clip-rule:evenodd;fill:#0077C8;}
	.st3{fill-rule:evenodd;clip-rule:evenodd;fill:#00A3E0;}
	.st4{fill-rule:evenodd;clip-rule:evenodd;fill:#71C5E8;}
	.st5{fill-rule:evenodd;clip-rule:evenodd;fill:#FFFFFF;}
	.st6{fill-rule:evenodd;clip-rule:evenodd;fill:#005EB8;}
</style>
<path class="st0" d="M123.8,14.4c1.8,0,3.3,1.5,3.3,3.3c0,0.2,0,0.4,0,0.6l-26.2,101.4c-0.5,1.1-2.2,3.4-5.7,3.5l-0.1,0l-80.6,0
	c56-70.3,84.2-105.6,84.4-105.9c1.2-1.5,3.3-2.7,5.4-2.7H123.8z"/>
<path class="st1" d="M96.7,93.3c-1.9,8-9.1,13.9-17.6,13.9h-0.3c-8.4-0.1-15.4-5.9-17.3-13.8c3,0.3,6.1,0.5,9.2,0.8
	c1.7,3.1,4.8,5,8.3,5.1c3.6,0,6.8-2.1,8.5-5.2C90.5,93.9,93.6,93.6,96.7,93.3L96.7,93.3z M81.4,78.9c4.5,1.3,7.5,5.4,7.4,10l8.4-0.2
	c-0.1-9.3-7.3-16.9-16.5-17.7L81.4,78.9L81.4,78.9L81.4,78.9z M69.5,89c-0.1-4.7,3-8.9,7.6-10l0.6-7.9c-9.2,0.7-16.6,8.3-16.7,17.7
	L69.5,89L69.5,89L69.5,89z"/>
<path class="st2" d="M95.2,106.1c0.8-4.2,1.4-8.5,1.7-12.8c-0.1,0-0.1,0-0.2,0c-1.9,8-9.1,13.9-17.6,13.9h-0.3
	c-0.8,0-1.5-0.1-2.2-0.2c-4.8-0.3-9.7-0.9-14.4-1.7l4.2,17.8l25.4,0C93.1,117.5,94.3,111.6,95.2,106.1L95.2,106.1z"/>
<path class="st3" d="M61,88.8c0-0.9,0.1-1.7,0.2-2.5c0.3-4.7,0.8-9.4,1.7-14L53,74.6c-3.5,4.4-7.1,9-11,13.8L61,88.8z"/>
<path class="st3" d="M61.5,93.4c-7.9-0.7-15.5-1.6-21.6-2.4c-2.1,2.6-4.2,5.2-6.3,7.9c7.8,2.1,18.9,4.6,28.6,6.3
	c4.7,0.9,9.5,1.5,14.4,1.7C69.2,106,63.2,100.6,61.5,93.4L61.5,93.4z"/>
<path class="st4" d="M86.4,32.7c-5.3,6.6-12.2,15.3-20.9,26.2c-1,4.4-1.9,9-2.6,13.3c-0.9,4.6-1.5,9.3-1.7,14
	c1.3-8.2,8.1-14.6,16.5-15.2l0.8-9.6c0-0.3,0.2-0.6,0.6-0.7h0.1c0.3,0,0.6,0.2,0.7,0.6v0.1l0.9,9.6c0.6,0,1.1,0.1,1.6,0.2
	c4.6,0.2,9.2,0.8,13.7,1.7L86.4,32.7L86.4,32.7z"/>
<path class="st5" d="M108.9,88.6L88.8,89c0.1-4.7-3-8.8-7.4-10l-1.6-17.5v-0.1c0-0.3-0.3-0.6-0.7-0.6h-0.1c-0.3,0-0.6,0.3-0.6,0.7
	l-1.4,17.5c-4.5,1.2-7.7,5.4-7.6,10L42,88.4c-0.7,0.9-1.4,1.8-2.1,2.7c8.5,1,19.9,2.3,30.8,3.1c1.7,3.1,4.8,5,8.3,5.1
	c3.6,0,6.8-2.1,8.5-5.2c6.9-0.5,14-1.2,20.4-1.9L108.9,88.6z"/>
<path class="st6" d="M107.9,92.2c-3.5,0.4-7.3,0.8-11.1,1.1c-0.3,4.3-0.8,8.5-1.7,12.8l9.7-2.3L107.9,92.2L107.9,92.2z"/>
<path class="st6" d="M108.9,88.6l3.2-12.3C106.8,75,101.2,73.9,96,73c-4.5-0.9-9.1-1.4-13.7-1.7C90.7,72.8,97,80,97.2,88.8
	L108.9,88.6z"/>
</svg>
