<svgz>
<style type="text/css">
	.st0{fill:#FFFFFF;}
	.st1{fill:#004595;}
</style>
<title>FINNAIR</title>
<g id="FINNAIR">
	<g id="Mask-Raw" transform="translate(88.000000, 88.000000)">
		<path id="BG" d="M659.6,0.2h-118c-12.1,0.1-24.9,7-32.9,16.8l-4.5,5.7l-95.4,119.4L0.4,653.6l486.1-0.1l0.6,0
			c9.6-0.2,17.8-3.2,24.3-8.3c4.9-3.8,8.6-8.5,10.4-12.7l0.1-0.3l157.5-608l0-0.1c0.2-1.2,0.3-2.3,0.3-3.5
			C679.9,9.3,670.8,0.2,659.6,0.2z M541.6,1.7h118c10.4,0,18.8,8.4,18.8,18.8V21c0,0.8-0.1,1.6-0.2,2.4l-0.1,0.4L520.7,631.7l0-0.1
			c-1.7,4-5.3,8.7-10.1,12.4c-6.3,4.9-14.1,7.8-23.4,8l-0.6,0l-483,0.1L468.8,69.3l36.5-45.7l4.2-5.3l0.3-0.4
			C517.5,8.5,529.9,1.9,541.6,1.7z"/>
		<g>
			<path class="st0" d="M659.6,1h-118c-12.6,0.1-25,7.5-32.3,16.5c-1.3,1.7-113.5,142.2-336.6,421.6c6.7-1.3,13.4-2.3,20.1-2.1
				c17.3,0.4,30.2-6.5,41-19.3c8.9-10.6,17.9-21.2,26.8-31.7l53.7-63.4c8.6-10.2,17.1-20.5,25.9-30.5c15.6-17.7,35.1-27,59.2-26.9
				c22.6,0.1,45.3,0.1,67.9,0.1l143.8,0l-1.8,3.2c-0.3,0.6-0.7,1.1-1,1.6c-8.3,10.7-17,21.2-24.8,32.2l-1.7,2.3
				c-19.6,26.1-46.4,37.7-78.7,38c-34.3,0.3-68.6,0.5-102.8-0.1l-1.8,0c-11,0.1-19.4,3.2-25.8,12.8l-2.5,3.5
				c-4.2,5.7-9.1,11-13.5,16.5l0.5,1.8h133.4l0.6,1.9c-2.8,3.4-5.5,6.9-8.4,10.2c-7.5,8.8-14.8,17.9-22.8,26.3
				c-17,17.8-38.6,25.4-62.9,25.7c-24.6,0.3-49.2,0.2-73.7-0.1c-5.6-0.1-9.2,1.7-12.6,6c-3.5,4.4-6.9,8.8-10.5,13.1l-21.2,26.1
				c-19,23.5-43.7,34.9-73.8,34.9l-65.3,0l-32.9,0C74.1,562.5,39.1,606.4,2,652.8l484.6-0.1l0.6,0c20.9-0.4,31.4-14.3,34.2-20.8
				L678.8,24c0.2-1.1,0.3-2.2,0.3-3.4C679.1,9.8,670.4,1,659.6,1z"/>
			<path class="st1" d="M205.4,521.1c30.1,0,54.8-11.4,73.8-34.9l21.2-26.1c3.5-4.4,7-8.7,10.5-13.1c3.4-4.3,7-6.1,12.6-6
				c24.6,0.3,49.2,0.3,73.7,0.1c24.3-0.2,45.8-7.9,62.9-25.7c8-8.4,15.2-17.5,22.8-26.3c2.9-3.3,5.6-6.8,8.4-10.2l-0.6-1.9H357.1
				l-0.5-1.8c4.5-5.5,9.3-10.8,13.5-16.5l2.5-3.5c6.4-9.6,14.7-12.7,25.8-12.8l1.8,0c34.3,0.6,68.6,0.4,102.8,0.1
				c32.4-0.3,59.1-11.9,78.7-38l1.7-2.3c7.9-11,16.6-21.5,24.8-32.2c0.4-0.5,0.7-1,1-1.6l1.8-3.2l-143.8,0c-22.6,0-45.3,0-67.9-0.1
				c-24-0.1-43.5,9.2-59.2,26.9c-8.8,10-17.3,20.4-25.9,30.5l-53.7,63.4c-8.9,10.6-17.9,21.1-26.8,31.7
				c-10.8,12.8-23.8,19.7-41,19.3c-6.7-0.2-13.4,0.8-20.1,2.1c-20.9,26.1-42.7,53.5-65.5,82l32.9,0L205.4,521.1z"/>
		</g>
	</g>
</g>
</svg>
