<svg width="856" height="830" xmlns="http://www.w3.org/2000/svg"><style>.st3{fill-rule:evenodd;clip-rule:evenodd;fill:#fff}</style><title>ROYALJORDANIAN</title><g id="ROYALJORDANIAN"><g id="Group" transform="translate(88 88)"><g id="Mask-Raw"><path id="BG" d="M659.6.2h-118c-12.1.1-24.9 7-32.9 16.8l-4.5 5.7-95.4 119.4L.4 653.6l486.1-.1h.6c9.6-.2 17.8-3.2 24.3-8.3 4.9-3.8 8.6-8.5 10.4-12.7l.1-.3 157.5-608v-.1c.2-1.2.3-2.3.3-3.5.2-11.3-8.9-20.4-20.1-20.4zm-118 1.5h118c10.4 0 18.8 8.4 18.8 18.8v.5c0 .8-.1 1.6-.2 2.4l-.1.4-157.4 607.9v-.1c-1.7 4-5.3 8.7-10.1 12.4-6.3 4.9-14.1 7.8-23.4 8h-.6l-483 .1L468.8 69.3l36.5-45.7 4.2-5.3.3-.4c7.7-9.4 20.1-16 31.8-16.2z" fill="#222"/><g id="FG"><path id="path-1_1_" d="M659.6 1c10.8 0 19.6 8.8 19.6 19.6 0 1.2-.1 2.3-.3 3.4L521.5 632c-2.8 6.5-13.3 20.4-34.2 20.8H2C338.5 231.3 507.6 19.5 509.3 17.5c7.3-9 19.7-16.3 32.3-16.5h118z" fill-rule="evenodd" clip-rule="evenodd" fill="#222"/></g><defs><filter id="Adobe_OpacityMaskFilter" filterUnits="userSpaceOnUse" x="369" y="0" width="326" height="171"><feColorMatrix values="1 0 0 0 0 0 1 0 0 0 0 0 1 0 0 0 0 0 1 0"/></filter></defs><mask maskUnits="userSpaceOnUse" x="369" y="0" width="326" height="171" id="mask-2_1_"><g filter="url(#Adobe_OpacityMaskFilter)"><path id="path-1_2_" class="st3" d="M659.6 1c10.8 0 19.6 8.8 19.6 19.6 0 1.2-.1 2.3-.3 3.4L521.5 632c-2.8 6.5-13.3 20.4-34.2 20.8H2C338.5 231.3 507.6 19.5 509.3 17.5c7.3-9 19.7-16.3 32.3-16.5h118z"/></g></mask><path id="Path" d="M522.8 0c-1.2 0-2.3.5-3.2 1.3l-.3.3L369 171c9.1-3.7 20.1-10 32.9-19l3.2-2.3C534.3 57 660.7 38.1 688.7 37.5l6.2-31.9c.5-2.8-1.5-5.3-4.2-5.6H522.8z" mask="url(#mask-2_1_)" fill="#cf0012"/></g><g id="Group-9" transform="translate(305 292)"><path id="Fill-1" d="M106.4 29.2s-4.6-.2-7.4 1.2c0 0 10.4 2.8 15.4 14.6 5.2-11.9 15.6-14.6 15.6-14.6-2.7-1.4-7.5-1.2-7.5-1.2-.5-1.5-2.3-2.8-2.3-2.8 1.5-1.6 4.1-3.3 4.1-3.3l-10-23-9.7 23s2.6 1.7 4 3.3c0-.1-1.8 1.2-2.2 2.8" fill-rule="evenodd" clip-rule="evenodd" fill="#ebbd3d"/><g id="Group-5" transform="translate(45 162)"><defs><filter id="Adobe_OpacityMaskFilter_1_" filterUnits="userSpaceOnUse" x=".4" y=".9" width="141.5" height="12.1"><feColorMatrix values="1 0 0 0 0 0 1 0 0 0 0 0 1 0 0 0 0 0 1 0"/></filter></defs><mask maskUnits="userSpaceOnUse" x=".4" y=".9" width="141.5" height="12.1" id="mask-4_1_"><g filter="url(#Adobe_OpacityMaskFilter_1_)"><path id="path-3_1_" class="st3" d="M.4.9H142V13H.4z"/></g></mask><path id="Fill-3" d="M1.1 6.7c.4 3.4.4 6.3.4 6.3h139.4s.1-2.9.4-5.9c.4-3.6.7-6.2.7-6.2H.4s.5 2.8.7 5.8" mask="url(#mask-4_1_)" fill-rule="evenodd" clip-rule="evenodd" fill="#ebbd3d"/></g><g id="Group-8" transform="translate(0 32)"><defs><filter id="Adobe_OpacityMaskFilter_2_" filterUnits="userSpaceOnUse" x="0" y=".9" width="229.5" height="119.5"><feColorMatrix values="1 0 0 0 0 0 1 0 0 0 0 0 1 0 0 0 0 0 1 0"/></filter></defs><mask maskUnits="userSpaceOnUse" x="0" y=".9" width="229.5" height="119.5" id="mask-6_1_"><g filter="url(#Adobe_OpacityMaskFilter_2_)"><path id="path-5_1_" class="st3" d="M0 .9h229.5v119.4H0z"/></g></mask><path id="Fill-6" d="M192.3 75.2s4.1 4.4 5.6 10.6c0 0-8.9-.8-12.5 2.1 0 0 .3 2.6 4.4 7.1 0 0 .9 1.2-1 2.5-1.7 1.1-10.5 1.7-10.9-7.6 0 0-5.6 6.9-13.4 5.9 0 0-6.1-.8-6.5-6.5 0 0 5.9 1.2 10.6-1.1 0 0-.2-3.8-5.6-7.6 0 0 4.2-5.4 13.8-8 0 0-1.8-8.3.7-16.6 2.9-8.5 4.2-10.5 4.9-12.3.8-1.7 1.6-6.2.2-10.8 0 0 21.8-.4 22 23.3.2-.1.4 13.1-12.3 19zm-24.6 40.7l-13.1-5.9 12.9-4.2 12.1 5.6-11.9 4.5zm-21.8-21.5c-7.5-.4-10.1-7.8-10.1-7.8-3.7 4.9-11.3 4.1-11.3 4.1-6.2-1.4-6.7-6.8-6.7-6.8 6.8-1.4 8.6-3.9 8.6-3.9-1.5-4.4-9-6.8-9-6.8 4.5-7 14-10.6 14-10.6-3.8-3.8-4.8-7.7-5.7-14-1-6.5.7-16.5.7-16.5 1.9-8.8 5.3-13 8.2-16.6 3.1-3.8 6.2-3.4 6.2-3.4 4.1.5 7.9 2.6 7.9 2.6 4.8 2.8 8.3 6.9 9.9 9.2 1.5 2.1 6.4 12.7.4 26.2-6 13.4-12.1 16-12.1 16C156 75 156 79 156 79c-7.6 0-9.6 4.3-9.6 4.3 1.9 3.7 7.2 5.2 7.2 5.2-1.4 6.2-7.7 5.9-7.7 5.9zm-4.9 19.9c-2.6 0-4.7-2.2-4.7-4.8 0-2.7 2.1-4.7 4.7-4.7 2.5 0 4.5 2 4.5 4.7.1 2.6-1.9 4.8-4.5 4.8zm-26.2 0l-12.3-5.3 12.3-4.9 12.8 4.9-12.8 5.3zM94 86.6s-2.7 7.4-10 7.8c0 0-6.3.3-7.9-5.8 0 0 5.4-1.4 7.3-5.2 0 0-2-4.3-9.6-4.3 0 0-.1-4 9.2-12.9 0 0-6.2-2.6-12.1-16-5.9-13.5-1.3-24.1.4-26.2 1.5-2.3 4.9-6.4 10-9.2 0 0 3.7-2.1 7.9-2.6 0 0 3-.4 6 3.4 3 3.6 6.4 7.8 8.2 16.6 0 0 1.7 10 .7 16.5-.9 6.3-2 10.2-5.7 14 0 0 9.4 3.7 14 10.6 0 0-7.5 2.4-9 6.8 0 0 1.8 2.5 8.5 3.9 0 0-.3 5.4-6.7 6.8.1-.1-7.5.7-11.2-4.2zm-5 27.7c-2.7 0-4.9-2.2-4.9-4.8 0-2.4 2.2-4.5 4.9-4.5 2.5 0 4.4 2.1 4.4 4.5 0 2.6-1.9 4.8-4.4 4.8zm-26.9 1.6L50 111.4l12.3-5.7 12.8 4.3-13 5.9zM40.9 97.8c-1.6-1.2-1.1-2.6-1.1-2.6 4.3-4.4 4.6-7 4.6-7-3.6-2.8-12.7-2.1-12.7-2.1 1.6-6.3 5.7-10.6 5.7-10.6C24.7 69.5 25 56.4 25 56.4c0-23.6 22-23.3 22-23.3-1.4 4.7-.5 9.1.2 10.9.6 1.7 2.2 3.6 4.9 12.2 2.6 8.4.9 16.6.9 16.6 9.4 2.6 13.5 8 13.5 8-5.4 3.9-5.4 7.7-5.4 7.7 4.5 2.3 10.5 1 10.5 1C71.2 95.4 65 96 65 96c-7.7 1-13.4-5.8-13.4-5.8-.2 9.3-8.9 8.8-10.7 7.6zM225 55.5c4.7-1.5 4.1-6.9 4.1-6.9-1-6.3-7.5-5.3-7.5-5.3 4.1-4.8.9-8.6.9-8.6-3.1-3.8-8-1.3-8-1.3 2.3-4.9-.7-7.5-.7-7.5-4-3.4-8.2.1-8.2.1-.1-4.7-3.7-5.9-3.7-5.9-4.2-1.7-7.2 2-7.2 2-3-8.3-8.9-4.1-10.4-3.4-1.4.7-1.6 0-1.6 0-.2-10.1-8.9-6.3-8.9-6.3 2.3-5-1.8-7.9-1.8-7.9-4.5-2.7-8.2 1.2-8.2 1.2-.5-6.6-5.4-4.7-7-4.1-1.5.4-4.7.5-4.7.5-10.3-1.2-14-.6-14-.6-12.5-.2-23.2 20.1-23.2 20.1v.2l-.1-.2S104.1 1.2 91.6 1.5c0 0-3.8-.6-14 .6 0 0-3.2-.1-4.8-.5-1.5-.5-6.6-2.5-7 4.1 0 0-3.7-3.8-8.2-1.2 0 0-4 2.9-1.7 7.9 0 0-8.5-3.8-8.9 6.3 0 0-.1.7-1.6 0-1.3-.7-7.3-4.9-10.3 3.4 0 0-3.2-3.7-7.3-2 0 0-3.6 1.2-3.7 5.9 0 0-4.1-3.5-8.2-.1 0 0-2.9 2.5-.8 7.5 0 0-4.8-2.5-7.8 1.3 0 0-3.3 3.8.9 8.6 0 0-6.5-.9-7.5 5.3 0 0-.5 5.4 4.2 6.9 0 0-5.4 2.6-4.5 6.9 0 0 .3 4.4 5.9 5.2 0 0-4.6 3.1-2.8 7.5 0 0 1.7 5 7.9 3.6 0 0-2.3 5.3 1.1 7.7 0 0 3.4 2.8 7.5 0 0 0 2.1-.7 3 .8 0 0 1.5 2.5-1.7 6 0 0 17.5-1.4 22.3 27.1h142.9c4.7-28.5 22.4-27.1 22.4-27.1-3.4-3.5-1.7-6-1.7-6 .8-1.5 2.9-.8 2.9-.8 4.1 2.8 7.5 0 7.5 0 3.4-2.4 1.2-7.7 1.2-7.7 6 1.4 7.9-3.6 7.9-3.6 1.8-4.5-2.8-7.5-2.8-7.5 5.6-.8 5.9-5.2 5.9-5.2.6-4.4-4.8-6.9-4.8-6.9z" mask="url(#mask-6_1_)" fill-rule="evenodd" clip-rule="evenodd" fill="#ebbd3d"/></g></g></g></g></svg>