<svg>
  <defs>
    <path d="M659.556 1c10.808 0 19.57 8.764 19.57 19.575 0 1.156-.101 2.289-.293 3.39L521.391 631.934c-2.821 6.519-13.285 20.38-34.198 20.816l-.637.009L2 652.838 509.275 17.477C516.571 8.494 528.951 1.148 541.553 1h118.003z" id="A"/><path id="B" d="M0 .243h349.043V132H0z"/></defs><g transform="translate(88 88)" fill="none" fill-rule="evenodd"><path d="M659.556.25H541.553c-12.135.142-24.899 6.952-32.86 16.754L.441 653.588l486.762-.088c9.647-.201 17.79-3.204 24.333-8.284 4.861-3.774 8.554-8.539 10.43-12.728l.136-.309L679.572 24.094c.201-1.155.304-2.331.304-3.519 0-11.225-9.098-20.325-20.32-20.325zm-117.994 1.5h117.994c10.394 0 18.82 8.428 18.82 18.825v.412c-.022.824-.093 1.64-.216 2.447l-.061.372-157.42 607.883c-1.716 3.968-5.304 8.647-10.063 12.342-6.294 4.887-14.127 7.775-23.439 7.969l-.632.009-482.987.078L509.857 17.95c7.692-9.472 20.047-16.063 31.704-16.2z" fill="#000" fill-rule="nonzero"/><mask id="C" fill="#fff"><use xlink:href="#A"/></mask><use fill="#fff" xlink:href="#A"/><g mask="url(#C)"><g transform="matrix(-1 0 0 -1 617 469)"><g transform="translate(0 131)"><mask id="D" fill="#fff"><use xlink:href="#B"/></mask><path d="M349.043.243H36.259l-1.096 4.019h30.231c3.385 0 18.823.615 15.359 16.57-.115.514-.244 1.043-.398 1.589l-8.897 32.454a25.17 25.17 0 0 1-1.128 3.074c-1.143 2.563-2.776 5.091-4.896 7.298-3.815 3.966-9.209 6.881-16.136 7.061H16.365l-1.812 6.968 76.727.068c3.739-.14 8.514-1.639 12.78-4.627 4.155-2.909 7.823-7.226 9.578-13.087l9.506-34.636s.57-2.261 2.153-5.339c3.159-6.141 10.355-15.531 25.191-16.739 0 0 .19-.011.527-.011 3.227-.004 20.488.924 16.283 21.492l-20.66 75.723c-2.332 8.474-7.984 14.967-14.693 18.828-4.416 2.545-9.277 3.966-13.973 4.023H1.974L0 132.001h138.334c32.133-1.305 59.573-10.904 82.225-24.221 34.887-20.518 58.384-49.873 69.939-71.502 0 0 15.323-29.078 48.591-31.361l8.199-.539s.584 0 .709-.507c.054-.155.118-.363.19-.6.011-.025.018-.047.025-.075.233-.773.537-1.866.831-2.952" fill="#163d81" mask="url(#D)"/></g><path d="M349.006 132l.971-3.659a.51.51 0 0 0 .018-.216c-.022-.169-.168-.213-.391-.256-.09-.014-1.272-.097-2.706-.194l-5.391-.357c-26.926-1.934-30.711-22.979-31.238-29.509-.036-.483-.057-.89-.068-1.199s-.014-.529-.011-.638v-.083C310.764 60.196 290.344 3.317 210.48 0H72.245l-1.907 6.969h115.904c10.305.209 17.857 6.854 16.997 17.919-.122 1.578-.416 3.252-.9 5.006l-20.797 75.885a39.42 39.42 0 0 1-1.617 3.98c-7.889 16.719-23.503 17.566-26.539 17.569-.337 0-.523-.011-.523-.011-15.943-1.376-16.563-13.118-15.872-18.906a24.47 24.47 0 0 1 .186-1.311c.204-1.171.416-1.884.416-1.884l9.495-34.782c1.681-6.631-.229-11.313-3.52-14.18-2.197-1.916-5.004-3.022-7.767-3.36a14.76 14.76 0 0 0-1.373-.104l-76.684.068-1.893 6.843h32.844c2.265.058 4.194.421 5.825 1.034 7.061 2.647 8.452 9.883 6.703 16.518l-8.936 32.534c-1.323 4.931-3.556 8.511-6.133 11.119-6.581 6.66-15.406 6.923-17.069 6.923H37.136l-.889 3.252L36 132h313.006z" fill="#163d81"/></g></g></g></svg>
