<?xml version="1.0" encoding="utf-8"?>
<!-- Generator: Adobe Illustrator 24.0.3, SVG Export Plug-In . SVG Version: 6.00 Build 0)  -->
<svg version="1.1" id="Layer_1" xmlns="http://www.w3.org/2000/svg" xmlns:xlink="http://www.w3.org/1999/xlink" x="0px" y="0px"
	 viewBox="0 0 856 830" style="enable-background:new 0 0 856 830;" xml:space="preserve">
<style type="text/css">
	.st0{fill:#222222;}
	.st1{fill:#CF0012;}
	.st2{fill-rule:evenodd;clip-rule:evenodd;fill:#EBBD3D;}
	.st3{filter:url(#Adobe_OpacityMaskFilter);}
	.st4{fill-rule:evenodd;clip-rule:evenodd;fill:#FFFFFF;}
	.st5{mask:url(#mask-4_1_);fill-rule:evenodd;clip-rule:evenodd;fill:#EBBD3D;}
	.st6{filter:url(#Adobe_OpacityMaskFilter_1_);}
	.st7{mask:url(#mask-6_1_);fill-rule:evenodd;clip-rule:evenodd;fill:#EBBD3D;}
</style>
<title>ROYALJORDANIAN</title>
<g id="ROYALJORDANIAN">
	<g id="Group" transform="translate(88.000000, 88.000000)">
		<g id="Mask-Raw">
			<path id="BG" class="st0" d="M659.6,0.2h-118c-12.1,0.1-24.9,7-32.9,16.8l-4.5,5.7l-95.4,119.4L0.4,653.6l486.1-0.1l0.6,0
				c9.6-0.2,17.8-3.2,24.3-8.3c4.9-3.8,8.6-8.5,10.4-12.7l0.1-0.3l157.5-608l0-0.1c0.2-1.2,0.3-2.3,0.3-3.5
				C679.9,9.3,670.8,0.2,659.6,0.2z M541.6,1.7h118c10.4,0,18.8,8.4,18.8,18.8V21c0,0.8-0.1,1.6-0.2,2.4l-0.1,0.4L520.7,631.7l0-0.1
				c-1.7,4-5.3,8.7-10.1,12.4c-6.3,4.9-14.1,7.8-23.4,8l-0.6,0l-483,0.1L468.8,69.3l36.5-45.7l4.2-5.3l0.3-0.4
				C517.5,8.5,529.9,1.9,541.6,1.7z"/>
			<g>
				<path class="st0" d="M401.9,152c0,0-0.1,0.1-0.1,0.1C317.8,257.3,184.5,424.2,2,652.8l484.6-0.1l0.6,0
					c20.9-0.4,31.4-14.3,34.2-20.8L675.1,38.5c-43.8,4.9-155.8,29.2-269.9,111.1L401.9,152z"/>
				<path class="st1" d="M679.1,20.6c0-10.8-8.8-19.6-19.6-19.6h-118c-12.6,0.1-25,7.5-32.3,16.5c-0.8,0.9-36.6,45.8-107.5,134.6
					c0,0,0.1-0.1,0.1-0.1l3.2-2.3C519.2,67.7,631.2,43.5,675.1,38.5l3.8-14.6C679,22.9,679.1,21.7,679.1,20.6z"/>
			</g>
		</g>
		<g id="Group-9" transform="translate(305.000000, 292.000000)">
			<path id="Fill-1" class="st2" d="M106.4,29.2c0,0-4.6-0.2-7.4,1.2c0,0,10.4,2.8,15.4,14.6c5.2-11.9,15.6-14.6,15.6-14.6
				c-2.7-1.4-7.5-1.2-7.5-1.2c-0.5-1.5-2.3-2.8-2.3-2.8c1.5-1.6,4.1-3.3,4.1-3.3l-10-23l-9.7,23c0,0,2.6,1.7,4,3.3
				C108.6,26.3,106.8,27.6,106.4,29.2"/>
			<g id="Group-5" transform="translate(45.000000, 162.000000)">
				<g id="Clip-4">
				</g>
				<defs>
					<filter id="Adobe_OpacityMaskFilter" filterUnits="userSpaceOnUse" x="0.4" y="0.9" width="141.5" height="12.1">
						<feColorMatrix  type="matrix" values="1 0 0 0 0  0 1 0 0 0  0 0 1 0 0  0 0 0 1 0"/>
					</filter>
				</defs>
				<mask maskUnits="userSpaceOnUse" x="0.4" y="0.9" width="141.5" height="12.1" id="mask-4_1_">
					<g class="st3">
						<polygon id="path-3_1_" class="st4" points="0.4,0.9 142,0.9 142,13 0.4,13 						"/>
					</g>
				</mask>
				<path id="Fill-3" class="st5" d="M1.1,6.7C1.5,10.1,1.5,13,1.5,13h139.4c0,0,0.1-2.9,0.4-5.9c0.4-3.6,0.7-6.2,0.7-6.2H0.4
					C0.4,0.9,0.9,3.7,1.1,6.7"/>
			</g>
			<g id="Group-8" transform="translate(0.000000, 32.000000)">
				<g id="Clip-7">
				</g>
				<defs>
					<filter id="Adobe_OpacityMaskFilter_1_" filterUnits="userSpaceOnUse" x="0" y="0.9" width="229.5" height="119.5">
						<feColorMatrix  type="matrix" values="1 0 0 0 0  0 1 0 0 0  0 0 1 0 0  0 0 0 1 0"/>
					</filter>
				</defs>
				<mask maskUnits="userSpaceOnUse" x="0" y="0.9" width="229.5" height="119.5" id="mask-6_1_">
					<g class="st6">
						<polygon id="path-5_1_" class="st4" points="0,0.9 229.5,0.9 229.5,120.3 0,120.3 						"/>
					</g>
				</mask>
				<path id="Fill-6" class="st7" d="M192.3,75.2c0,0,4.1,4.4,5.6,10.6c0,0-8.9-0.8-12.5,2.1c0,0,0.3,2.6,4.4,7.1c0,0,0.9,1.2-1,2.5
					c-1.7,1.1-10.5,1.7-10.9-7.6c0,0-5.6,6.9-13.4,5.9c0,0-6.1-0.8-6.5-6.5c0,0,5.9,1.2,10.6-1.1c0,0-0.2-3.8-5.6-7.6
					c0,0,4.2-5.4,13.8-8c0,0-1.8-8.3,0.7-16.6c2.9-8.5,4.2-10.5,4.9-12.3c0.8-1.7,1.6-6.2,0.2-10.8c0,0,21.8-0.4,22,23.3
					C204.8,56.1,205,69.3,192.3,75.2L192.3,75.2z M167.7,115.9l-13.1-5.9l12.9-4.2l12.1,5.6L167.7,115.9z M145.9,94.4
					c-7.5-0.4-10.1-7.8-10.1-7.8c-3.7,4.9-11.3,4.1-11.3,4.1c-6.2-1.4-6.7-6.8-6.7-6.8c6.8-1.4,8.6-3.9,8.6-3.9
					c-1.5-4.4-9-6.8-9-6.8c4.5-7,14-10.6,14-10.6c-3.8-3.8-4.8-7.7-5.7-14c-1-6.5,0.7-16.5,0.7-16.5c1.9-8.8,5.3-13,8.2-16.6
					c3.1-3.8,6.2-3.4,6.2-3.4c4.1,0.5,7.9,2.6,7.9,2.6c4.8,2.8,8.3,6.9,9.9,9.2c1.5,2.1,6.4,12.7,0.4,26.2c-6,13.4-12.1,16-12.1,16
					c9.1,8.9,9.1,12.9,9.1,12.9c-7.6,0-9.6,4.3-9.6,4.3c1.9,3.7,7.2,5.2,7.2,5.2C152.2,94.7,145.9,94.4,145.9,94.4L145.9,94.4z
					 M141,114.3c-2.6,0-4.7-2.2-4.7-4.8c0-2.7,2.1-4.7,4.7-4.7c2.5,0,4.5,2,4.5,4.7C145.6,112.1,143.6,114.3,141,114.3L141,114.3z
					 M114.8,114.3l-12.3-5.3l12.3-4.9l12.8,4.9L114.8,114.3z M94,86.6c0,0-2.7,7.4-10,7.8c0,0-6.3,0.3-7.9-5.8c0,0,5.4-1.4,7.3-5.2
					c0,0-2-4.3-9.6-4.3c0,0-0.1-4,9.2-12.9c0,0-6.2-2.6-12.1-16C65,36.7,69.6,26.1,71.3,24c1.5-2.3,4.9-6.4,10-9.2
					c0,0,3.7-2.1,7.9-2.6c0,0,3-0.4,6,3.4c3,3.6,6.4,7.8,8.2,16.6c0,0,1.7,10,0.7,16.5c-0.9,6.3-2,10.2-5.7,14c0,0,9.4,3.7,14,10.6
					c0,0-7.5,2.4-9,6.8c0,0,1.8,2.5,8.5,3.9c0,0-0.3,5.4-6.7,6.8C105.3,90.7,97.7,91.5,94,86.6L94,86.6z M89,114.3
					c-2.7,0-4.9-2.2-4.9-4.8c0-2.4,2.2-4.5,4.9-4.5c2.5,0,4.4,2.1,4.4,4.5C93.4,112.1,91.5,114.3,89,114.3L89,114.3z M62.1,115.9
					l-12.1-4.5l12.3-5.7l12.8,4.3L62.1,115.9z M40.9,97.8c-1.6-1.2-1.1-2.6-1.1-2.6c4.3-4.4,4.6-7,4.6-7c-3.6-2.8-12.7-2.1-12.7-2.1
					c1.6-6.3,5.7-10.6,5.7-10.6C24.7,69.5,25,56.4,25,56.4c0-23.6,22-23.3,22-23.3c-1.4,4.7-0.5,9.1,0.2,10.9
					c0.6,1.7,2.2,3.6,4.9,12.2c2.6,8.4,0.9,16.6,0.9,16.6c9.4,2.6,13.5,8,13.5,8c-5.4,3.9-5.4,7.7-5.4,7.7c4.5,2.3,10.5,1,10.5,1
					c-0.4,5.9-6.6,6.5-6.6,6.5c-7.7,1-13.4-5.8-13.4-5.8C51.4,99.5,42.7,99,40.9,97.8L40.9,97.8z M225,55.5c4.7-1.5,4.1-6.9,4.1-6.9
					c-1-6.3-7.5-5.3-7.5-5.3c4.1-4.8,0.9-8.6,0.9-8.6c-3.1-3.8-8-1.3-8-1.3c2.3-4.9-0.7-7.5-0.7-7.5c-4-3.4-8.2,0.1-8.2,0.1
					c-0.1-4.7-3.7-5.9-3.7-5.9c-4.2-1.7-7.2,2-7.2,2c-3-8.3-8.9-4.1-10.4-3.4c-1.4,0.7-1.6,0-1.6,0c-0.2-10.1-8.9-6.3-8.9-6.3
					c2.3-5-1.8-7.9-1.8-7.9c-4.5-2.7-8.2,1.2-8.2,1.2c-0.5-6.6-5.4-4.7-7-4.1c-1.5,0.4-4.7,0.5-4.7,0.5c-10.3-1.2-14-0.6-14-0.6
					c-12.5-0.2-23.2,20.1-23.2,20.1v0.2l-0.1-0.2c0,0-10.7-20.4-23.2-20.1c0,0-3.8-0.6-14,0.6c0,0-3.2-0.1-4.8-0.5
					c-1.5-0.5-6.6-2.5-7,4.1c0,0-3.7-3.8-8.2-1.2c0,0-4,2.9-1.7,7.9c0,0-8.5-3.8-8.9,6.3c0,0-0.1,0.7-1.6,0
					c-1.3-0.7-7.3-4.9-10.3,3.4c0,0-3.2-3.7-7.3-2c0,0-3.6,1.2-3.7,5.9c0,0-4.1-3.5-8.2-0.1c0,0-2.9,2.5-0.8,7.5
					c0,0-4.8-2.5-7.8,1.3c0,0-3.3,3.8,0.9,8.6c0,0-6.5-0.9-7.5,5.3c0,0-0.5,5.4,4.2,6.9c0,0-5.4,2.6-4.5,6.9c0,0,0.3,4.4,5.9,5.2
					c0,0-4.6,3.1-2.8,7.5c0,0,1.7,5,7.9,3.6c0,0-2.3,5.3,1.1,7.7c0,0,3.4,2.8,7.5,0c0,0,2.1-0.7,3,0.8c0,0,1.5,2.5-1.7,6
					c0,0,17.5-1.4,22.3,27.1h142.9c4.7-28.5,22.4-27.1,22.4-27.1c-3.4-3.5-1.7-6-1.7-6c0.8-1.5,2.9-0.8,2.9-0.8c4.1,2.8,7.5,0,7.5,0
					c3.4-2.4,1.2-7.7,1.2-7.7c6,1.4,7.9-3.6,7.9-3.6c1.8-4.5-2.8-7.5-2.8-7.5c5.6-0.8,5.9-5.2,5.9-5.2C230.4,58,225,55.5,225,55.5
					L225,55.5z"/>
			</g>
		</g>
	</g>
</g>
</svg>
